<?xml version="1.0" standalone="no"?>
<!DOCTYPE svg PUBLIC "-//W3C//DTD SVG 1.1//EN" "http://www.w3.org/Graphics/SVG/1.1/DTD/svg11.dtd" >
<svg xmlns="http://www.w3.org/2000/svg" width="100%" height="100%">
<metadata>
Created by FontXChange 20110222 at Fri Oct  2 13:45:40 2015
 By Killian Grant
2005 published by Monotype GmbH
</metadata>
<defs>
<font id="DINOT" horiz-adv-x="530" >
  <font-face 
    font-family="DINOT"
    font-weight="400"
    font-stretch="normal"
    units-per-em="1000"
    panose-1="2 11 5 4 2 1 1 1 1 2"
    ascent="764"
    descent="-236"
    x-height="492"
    cap-height="712"
    bbox="-178 -274 1116 1124"
    underline-thickness="51"
    underline-position="-89"
    stemh="64"
    stemv="72"
    unicode-range="U+000D-FEFF"
  />
<missing-glyph horiz-adv-x="562" 
d="M472 712v-712h-382v712h382zM421 661h-280v-610h280v610z" />
    <glyph glyph-name=".notdef" horiz-adv-x="562" 
d="M472 712v-712h-382v712h382zM421 661h-280v-610h280v610z" />
    <glyph glyph-name=".null" horiz-adv-x="0" 
 />
    <glyph glyph-name=".null" horiz-adv-x="0" 
 />
    <glyph glyph-name="CR" unicode="&#xd;" horiz-adv-x="249" 
 />
    <glyph glyph-name="space" unicode=" " horiz-adv-x="249" 
 />
    <glyph glyph-name="exclam" unicode="!" horiz-adv-x="316" 
d="M215 712l-11 -512h-62l-10 512h83zM216 84v-84h-86v84h86z" />
    <glyph glyph-name="quotedbl" unicode="&#x22;" horiz-adv-x="423" 
d="M335 712v-170h-79v170h79zM167 712v-170h-79v170h79z" />
    <glyph glyph-name="numbersign" unicode="#" horiz-adv-x="677" 
d="M548 713l-34 -215h87v-66h-97l-22 -141h89v-64h-99l-36 -227h-74l37 227h-161l-35 -227h-74l36 227h-89v64h100l23 141h-92v66h101l34 215h75l-35 -215h159l34 215h73zM431 432h-159l-23 -141h159z" />
    <glyph glyph-name="dollar" unicode="$" horiz-adv-x="597" 
d="M323 806v-89c77 -4 131 -28 186 -77l-49 -49c-38 34 -79 56 -140 60v-259c103 -17 130 -29 160 -55c39 -33 61 -82 61 -141c0 -116 -86 -191 -218 -200v-110h-60v108c-94 4 -158 32 -220 94l52 52c53 -53 104 -74 172 -77v265c-80 8 -122 32 -150 56
c-36 32 -55 76 -55 133c0 113 76 190 201 200v89h60zM320 320v-257c90 6 145 54 145 131c0 37 -12 69 -35 89c-33 29 -68 31 -110 37zM267 399v252c-83 -7 -130 -57 -130 -131c0 -35 10 -63 32 -82c28 -23 64 -34 98 -39z" />
    <glyph glyph-name="percent" unicode="%" horiz-adv-x="834" 
d="M220 0l334 712h60l-334 -712h-60zM199 344c-75 0 -134 51 -134 135v104c0 84 59 135 134 135c76 0 135 -51 135 -135v-104c0 -84 -59 -135 -135 -135zM199 396c49 0 78 32 78 90v91c0 57 -29 89 -78 89c-48 0 -77 -32 -77 -89v-91c0 -58 29 -90 77 -90zM634 -6
c-76 0 -135 51 -135 135v104c0 84 59 135 135 135s135 -51 135 -135v-104c0 -84 -59 -135 -135 -135zM634 46c49 0 77 32 77 89v91c0 58 -28 90 -77 90c-48 0 -77 -32 -77 -90v-91c0 -57 29 -89 77 -89z" />
    <glyph glyph-name="ampersand" unicode="&#x26;" horiz-adv-x="705" 
d="M312 718c89 0 159 -65 159 -150c0 -57 -38 -96 -83 -127l-53 -36l182 -219c29 44 39 83 40 163h72c-1 -90 -20 -163 -66 -218l109 -131h-95l-64 78c-29 -27 -96 -84 -210 -84c-138 0 -225 83 -225 207c0 107 76 161 154 213c-35 42 -77 91 -77 155c0 85 66 149 157 149z
M470 130l-196 236c-61 -42 -122 -82 -122 -163c0 -85 62 -142 150 -142c53 0 107 14 168 69zM312 651c-49 0 -83 -33 -83 -81c0 -33 18 -60 65 -117l38 26c33 23 65 48 65 89c0 48 -37 83 -85 83z" />
    <glyph glyph-name="quotesingle" unicode="'" horiz-adv-x="255" 
d="M167 712v-170h-79v170h79z" />
    <glyph glyph-name="parenleft" unicode="(" horiz-adv-x="296" 
d="M183 806l51 -51c-27 -25 -43 -41 -55 -65c-11 -20 -14 -46 -14 -79v-510c0 -33 2 -55 14 -79s29 -40 55 -65l-51 -51c-35 35 -55 55 -72 86c-18 35 -21 66 -21 103v522c0 36 3 70 21 103c17 31 38 52 72 86z" />
    <glyph glyph-name="parenright" unicode=")" horiz-adv-x="296" 
d="M62 755l51 51c35 -35 55 -55 72 -86c18 -35 21 -66 21 -103v-522c0 -36 -3 -70 -21 -103c-17 -31 -38 -52 -72 -86l-51 51c27 25 43 41 55 65c11 20 14 46 14 79v510c0 33 -2 55 -14 79s-29 40 -55 65z" />
    <glyph glyph-name="asterisk" unicode="*" horiz-adv-x="492" 
d="M275 712l-4 -137l117 71l28 -48l-120 -66l120 -65l-28 -49l-117 71l4 -137h-58l4 137l-116 -71l-29 49l120 65l-120 66l29 48l116 -71l-4 137h58z" />
    <glyph glyph-name="plus" unicode="+" horiz-adv-x="522" 
d="M295 479v-174h175v-67h-175v-176h-67v176h-176v67h176v174h67z" />
    <glyph glyph-name="comma" unicode="," horiz-adv-x="264" 
d="M176 88v-153l-88 -79v232h88z" />
    <glyph glyph-name="hyphen" unicode="-" horiz-adv-x="426" 
d="M350 304v-67h-274v67h274z" />
    <glyph glyph-name="period" unicode="." horiz-adv-x="270" 
d="M182 94v-94h-94v94h94z" />
    <glyph glyph-name="slash" unicode="/" horiz-adv-x="356" 
d="M356 786l-285 -860h-71l285 860h71z" />
    <glyph glyph-name="zero" unicode="0" horiz-adv-x="522" 
d="M261 -6c-112 0 -195 78 -195 196v332c0 118 83 196 195 196c111 0 195 -78 195 -196v-332c0 -118 -84 -196 -195 -196zM261 58c79 0 123 58 123 136v324c0 78 -44 136 -123 136s-123 -58 -123 -136v-324c0 -78 44 -136 123 -136z" />
    <glyph glyph-name="one" unicode="1" horiz-adv-x="522" 
d="M258 0v632l-133 -117v82l133 115h72v-712h-72z" />
    <glyph glyph-name="two" unicode="2" horiz-adv-x="522" 
d="M68 0v64l281 357c27 35 40 66 40 105c0 77 -46 128 -124 128c-66 0 -124 -37 -124 -129h-72c0 112 77 193 196 193c117 0 196 -75 196 -192c0 -57 -18 -94 -57 -144l-249 -318h306v-64h-393z" />
    <glyph glyph-name="three" unicode="3" horiz-adv-x="522" 
d="M251 -6c-112 0 -203 59 -209 188h72c6 -89 69 -124 137 -124c77 0 137 51 137 138c0 86 -43 137 -140 137h-15v63h15c87 0 127 48 127 128c0 85 -55 130 -124 130c-75 0 -121 -46 -128 -119h-72c8 115 92 183 200 183c116 0 196 -77 196 -193c0 -75 -32 -128 -96 -157
c72 -27 109 -84 109 -173c0 -131 -93 -201 -209 -201z" />
    <glyph glyph-name="four" unicode="4" horiz-adv-x="522" 
d="M324 0v113h-284v65l257 534h77l-257 -534h207v202h71v-202h87v-65h-87v-113h-71z" />
    <glyph glyph-name="five" unicode="5" horiz-adv-x="522" 
d="M263 -6c-62 0 -112 20 -143 51c-31 32 -46 73 -50 124h72c9 -71 46 -111 121 -111c35 0 67 12 88 33c37 37 39 94 39 145c0 87 -17 172 -120 172c-62 0 -104 -28 -118 -70h-65v374h360v-64h-295v-226c28 31 72 49 128 49c53 0 95 -17 123 -45c52 -52 59 -123 59 -190
c0 -71 -6 -138 -57 -189c-33 -33 -79 -53 -142 -53z" />
    <glyph glyph-name="six" unicode="6" horiz-adv-x="522" 
d="M262 -6c-122 0 -198 83 -198 205c0 48 11 91 44 158l175 355h75l-163 -325c23 14 50 20 79 20c110 0 185 -85 185 -202c0 -121 -76 -211 -197 -211zM261 58c76 0 126 56 126 144c0 79 -45 144 -126 144c-76 0 -125 -56 -125 -144s49 -144 125 -144z" />
    <glyph glyph-name="seven" unicode="7" horiz-adv-x="522" 
d="M148 0l247 648h-248v-112h-71v176h395v-64l-247 -648h-76z" />
    <glyph glyph-name="eight" unicode="8" horiz-adv-x="522" 
d="M261 -6c-118 0 -210 82 -210 202c0 83 47 139 107 173c-56 32 -93 84 -93 158c0 111 83 191 196 191s196 -80 196 -191c0 -74 -36 -126 -92 -158c60 -34 106 -90 106 -173c0 -120 -92 -202 -210 -202zM261 58c78 0 138 60 138 139s-60 139 -138 139s-138 -60 -138 -139
s60 -139 138 -139zM261 399c73 0 124 52 124 127c0 74 -51 128 -124 128s-124 -54 -124 -128c0 -75 51 -127 124 -127z" />
    <glyph glyph-name="nine" unicode="9" horiz-adv-x="522" 
d="M164 0l163 325c-22 -14 -50 -20 -79 -20c-110 0 -185 85 -185 202c0 121 76 211 197 211c122 0 198 -83 198 -205c0 -48 -11 -91 -44 -158l-175 -355h-75zM261 366c76 0 125 56 125 144s-49 144 -125 144s-126 -56 -126 -144c0 -79 45 -144 126 -144z" />
    <glyph glyph-name="colon" unicode=":" horiz-adv-x="297" 
d="M209 395v-94h-94v94h94zM209 94v-94h-94v94h94z" />
    <glyph glyph-name="semicolon" unicode=";" horiz-adv-x="297" 
d="M205 88v-153l-88 -79v232h88zM209 395v-94h-94v94h94z" />
    <glyph glyph-name="less" unicode="&#x3c;" horiz-adv-x="522" 
d="M426 471v-77l-250 -124l250 -124v-77l-331 168v66z" />
    <glyph glyph-name="equal" unicode="=" horiz-adv-x="522" 
d="M470 388v-67h-418v67h418zM470 218v-66h-418v66h418z" />
    <glyph glyph-name="greater" unicode="&#x3e;" horiz-adv-x="522" 
d="M96 471l331 -168v-66l-331 -168v77l250 124l-250 124v77z" />
    <glyph glyph-name="question" unicode="?" horiz-adv-x="497" 
d="M264 718c105 0 187 -75 187 -182c0 -47 -19 -83 -45 -121l-82 -118c-12 -18 -18 -42 -18 -58v-39h-72v40c0 39 10 64 31 94l81 117c19 28 33 51 33 85c0 67 -48 118 -115 118c-71 0 -116 -56 -116 -119h-72c0 102 80 183 188 183zM313 84v-84h-86v84h86z" />
    <glyph glyph-name="at" unicode="@" horiz-adv-x="740" 
d="M286 713h149c64 0 117 -18 155 -56c39 -39 57 -93 57 -161v-496h-71v58c-41 -51 -83 -64 -137 -64c-51 0 -93 17 -119 42c-48 48 -59 124 -59 202c0 79 11 154 59 202c26 26 68 42 118 42c54 0 97 -12 137 -63v79c0 52 -9 84 -39 114c-29 28 -63 37 -111 37h-130
c-48 0 -81 -8 -109 -37c-30 -31 -39 -60 -39 -114v-337c0 -63 11 -86 57 -121l-50 -49c-60 45 -78 81 -78 169v336c0 69 19 122 57 161s88 56 153 56zM453 421c-104 0 -122 -88 -122 -183c0 -94 18 -182 122 -182c103 0 122 88 122 182c0 95 -19 183 -122 183z" />
    <glyph glyph-name="A" unicode="A" horiz-adv-x="611" 
d="M338 712l261 -712h-81l-57 161h-311l-57 -161h-81l262 712h64zM306 604l-133 -377h265z" />
    <glyph glyph-name="B" unicode="B" horiz-adv-x="668" 
d="M103 712h268c124 0 210 -71 210 -190c0 -75 -45 -134 -105 -156c68 -25 116 -84 116 -169c0 -129 -86 -197 -212 -197h-277v712zM373 329h-194v-261h194c88 0 143 51 143 131s-55 130 -143 130zM365 644h-186v-247h186c79 0 140 39 140 124s-61 123 -140 123z" />
    <glyph glyph-name="C" unicode="C" horiz-adv-x="637" 
d="M325 718c129 0 222 -79 247 -212h-78c-19 88 -80 144 -169 144c-48 0 -90 -17 -123 -50c-45 -46 -50 -98 -50 -244s5 -198 50 -244c33 -33 75 -50 123 -50c89 0 150 56 169 144h78c-25 -133 -119 -212 -247 -212c-74 0 -134 26 -178 70c-67 67 -71 129 -71 292
s4 225 71 292c44 44 104 70 178 70z" />
    <glyph glyph-name="D" unicode="D" horiz-adv-x="673" 
d="M103 712h244c80 0 139 -23 187 -75c63 -68 63 -172 63 -281s0 -213 -63 -281c-48 -52 -107 -75 -187 -75h-244v712zM334 644h-155v-576h155c54 0 104 12 140 52c46 49 47 137 47 236s-1 187 -47 236c-36 40 -86 52 -140 52z" />
    <glyph glyph-name="E" unicode="E" horiz-adv-x="600" 
d="M545 712v-68h-366v-251h312v-68h-312v-257h366v-68h-442v712h442z" />
    <glyph glyph-name="F" unicode="F" horiz-adv-x="580" 
d="M545 712v-68h-366v-262h312v-68h-312v-314h-76v712h442z" />
    <glyph glyph-name="G" unicode="G" horiz-adv-x="650" 
d="M325 718c134 0 229 -90 249 -213h-76c-20 91 -84 145 -173 145c-49 0 -91 -17 -123 -50c-45 -46 -50 -98 -50 -244s5 -198 50 -244c32 -33 74 -50 123 -50c52 0 102 21 135 61c29 36 40 75 40 129v55h-175v65h251v-113c0 -82 -15 -132 -61 -183
c-50 -55 -117 -82 -190 -82c-74 0 -134 26 -178 70c-67 67 -71 129 -71 292s4 225 71 292c44 44 104 70 178 70z" />
    <glyph glyph-name="H" unicode="H" horiz-adv-x="696" 
d="M593 712v-712h-76v325h-338v-325h-76v712h76v-319h338v319h76z" />
    <glyph glyph-name="I" unicode="I" horiz-adv-x="282" 
d="M179 712v-712h-76v712h76z" />
    <glyph glyph-name="J" unicode="J" horiz-adv-x="501" 
d="M408 712v-496c0 -137 -92 -222 -222 -222c-68 0 -119 20 -163 64l51 51c26 -26 53 -47 112 -47c93 0 146 59 146 164v486h76z" />
    <glyph glyph-name="K" unicode="K" horiz-adv-x="651" 
d="M604 712l-224 -275l256 -437h-90l-217 379l-150 -181v-198h-76v712h76v-410l333 410h92z" />
    <glyph glyph-name="L" unicode="L" horiz-adv-x="573" 
d="M179 712v-644h364v-68h-440v712h76z" />
    <glyph glyph-name="M" unicode="M" horiz-adv-x="816" 
d="M713 712v-712h-76v541l-195 -429h-65l-198 429v-541h-76v712h76l232 -505l226 505h76z" />
    <glyph glyph-name="N" unicode="N" horiz-adv-x="732" 
d="M629 712v-712h-72l-378 571v-571h-76v712h72l378 -569v569h76z" />
    <glyph glyph-name="O" unicode="O" horiz-adv-x="650" 
d="M325 718c74 0 133 -26 177 -70c67 -67 72 -129 72 -292s-5 -225 -72 -292c-44 -44 -103 -70 -177 -70s-134 26 -178 70c-67 67 -71 129 -71 292s4 225 71 292c44 44 104 70 178 70zM325 650c-48 0 -90 -17 -123 -50c-45 -46 -50 -98 -50 -244s5 -198 50 -244
c33 -33 75 -50 123 -50s90 17 123 50c45 46 50 98 50 244s-5 198 -50 244c-33 33 -75 50 -123 50z" />
    <glyph glyph-name="P" unicode="P" horiz-adv-x="630" 
d="M103 712h265c129 0 220 -82 220 -209s-91 -210 -220 -210h-189v-293h-76v712zM362 644h-183v-283h183c89 0 150 48 150 142s-61 141 -150 141z" />
    <glyph glyph-name="Q" unicode="Q" horiz-adv-x="650" 
d="M325 718c74 0 133 -26 177 -70c67 -67 72 -129 72 -292c0 -142 -4 -208 -49 -267l78 -78l-46 -46l-78 78c-41 -31 -92 -49 -154 -49c-74 0 -134 26 -178 70c-67 67 -71 129 -71 292s4 225 71 292c44 44 104 70 178 70zM325 650c-48 0 -90 -17 -123 -50
c-45 -46 -50 -98 -50 -244s5 -198 50 -244c33 -33 75 -50 123 -50c39 0 73 11 103 32l-92 92l46 46l89 -89c24 41 27 98 27 213c0 146 -5 198 -50 244c-33 33 -75 50 -123 50z" />
    <glyph glyph-name="R" unicode="R" horiz-adv-x="656" 
d="M103 712h273c124 0 211 -75 211 -198c0 -104 -63 -172 -155 -191l169 -323h-89l-162 316h-171v-316h-76v712zM369 644h-190v-261h190c83 0 142 43 142 130s-59 131 -142 131z" />
    <glyph glyph-name="S" unicode="S" horiz-adv-x="588" 
d="M289 718c91 0 151 -24 212 -78l-49 -49c-43 41 -92 62 -166 62c-96 0 -151 -53 -151 -133c0 -35 10 -64 32 -83s56 -31 93 -37l83 -13c66 -10 97 -22 129 -51c38 -33 60 -81 60 -140c0 -125 -97 -202 -246 -202c-106 0 -177 27 -243 94l51 51c59 -59 114 -77 194 -77
c105 0 169 48 169 132c0 38 -11 68 -35 89c-22 20 -42 27 -93 35l-83 12c-56 9 -98 26 -130 54c-36 32 -55 76 -55 134c0 121 87 200 228 200z" />
    <glyph glyph-name="T" unicode="T" horiz-adv-x="548" 
d="M518 712v-68h-206v-644h-76v644h-206v68h488z" />
    <glyph glyph-name="U" unicode="U" horiz-adv-x="683" 
d="M590 712v-477c0 -142 -105 -241 -249 -241s-248 99 -248 241v477h76v-471c0 -108 68 -179 172 -179s173 71 173 179v471h76z" />
    <glyph glyph-name="V" unicode="V" horiz-adv-x="546" 
d="M538 712l-234 -712h-62l-234 712h80l185 -576l185 576h80z" />
    <glyph glyph-name="W" unicode="W" horiz-adv-x="854" 
d="M838 712l-182 -712h-71l-158 570l-158 -570h-71l-182 712h81l139 -574l157 574h68l157 -574l139 574h81z" />
    <glyph glyph-name="X" unicode="X" horiz-adv-x="551" 
d="M521 712l-205 -347l220 -365h-88l-173 299l-174 -299h-86l218 365l-204 347h88l158 -281l158 281h88z" />
    <glyph glyph-name="Y" unicode="Y" horiz-adv-x="514" 
d="M506 712l-210 -418v-294h-76v294l-212 418h82l168 -341l166 341h82z" />
    <glyph glyph-name="Z" unicode="Z" horiz-adv-x="556" 
d="M499 712v-64l-356 -580h356v-68h-442v64l356 580h-342v68h428z" />
    <glyph glyph-name="bracketleft" unicode="[" horiz-adv-x="307" 
d="M267 786v-64h-105v-732h105v-64h-177v860h177z" />
    <glyph glyph-name="backslash" unicode="\" horiz-adv-x="355" 
d="M71 783l284 -857h-71l-284 857h71z" />
    <glyph glyph-name="bracketright" unicode="]" horiz-adv-x="307" 
d="M217 786v-860h-177v64h105v732h-105v64h177z" />
    <glyph glyph-name="asciicircum" unicode="^" horiz-adv-x="522" 
d="M294 718l163 -305h-74l-122 228l-123 -228h-74l164 305h66z" />
    <glyph glyph-name="underscore" unicode="_" horiz-adv-x="537" 
d="M537 -114v-51h-537v51h537z" />
    <glyph glyph-name="grave" unicode="`" 
d="M208 747l91 -153h-69l-105 153h83z" />
    <glyph glyph-name="a" unicode="a" horiz-adv-x="526" 
d="M244 498c133 0 197 -58 197 -164v-334h-72v47c-39 -39 -76 -53 -142 -53c-68 0 -105 12 -139 45c-25 24 -37 61 -37 100c0 87 61 142 171 142h147v47c0 71 -35 108 -126 108c-62 0 -94 -16 -124 -57l-49 45c43 57 93 74 174 74zM369 227h-137c-74 0 -111 -29 -111 -87
c0 -57 35 -84 114 -84c41 0 77 4 109 33c17 16 25 44 25 85v53z" />
    <glyph glyph-name="b" unicode="b" horiz-adv-x="545" 
d="M162 712v-277c41 51 85 63 139 63c51 0 94 -17 120 -43c49 -49 60 -130 60 -209s-11 -159 -60 -209c-26 -26 -69 -43 -120 -43c-55 0 -98 13 -139 65v-59h-72v712h72zM286 434c-108 0 -124 -92 -124 -188s16 -188 124 -188c107 0 123 92 123 188s-16 188 -123 188z" />
    <glyph glyph-name="c" unicode="c" horiz-adv-x="491" 
d="M282 498c68 0 111 -18 162 -73l-49 -46c-37 41 -66 55 -113 55c-48 0 -88 -19 -114 -56c-23 -32 -32 -70 -32 -132s9 -100 32 -132c26 -37 66 -56 114 -56c47 0 76 15 113 56l49 -47c-51 -55 -94 -73 -162 -73c-124 0 -218 84 -218 252s94 252 218 252z" />
    <glyph glyph-name="d" unicode="d" horiz-adv-x="545" 
d="M455 712v-712h-72v58c-41 -51 -84 -64 -139 -64c-51 0 -94 17 -120 43c-49 49 -60 130 -60 209s11 159 60 209c26 26 69 43 120 43c54 0 98 -13 139 -64v278h72zM259 434c-107 0 -123 -92 -123 -188s16 -188 123 -188c108 0 124 92 124 188s-16 188 -124 188z" />
    <glyph glyph-name="e" unicode="e" 
d="M265 498c128 0 202 -91 202 -239v-32h-332c0 -108 50 -170 145 -170c57 0 90 17 129 56l49 -43c-50 -50 -97 -76 -180 -76c-131 0 -215 78 -215 252c0 160 77 252 202 252zM265 437c-53 0 -94 -29 -115 -74c-12 -26 -13 -42 -15 -82h261c-3 40 -4 56 -16 82
c-21 45 -62 74 -115 74z" />
    <glyph glyph-name="f" unicode="f" horiz-adv-x="314" 
d="M283 713v-62h-39c-46 0 -66 -27 -66 -72v-87h105v-55h-105v-437h-72v437h-63v55h63v89c0 73 41 132 125 132h52z" />
    <glyph glyph-name="g" unicode="g" horiz-adv-x="543" 
d="M244 498c54 0 98 -12 138 -64v58h71v-507c0 -122 -76 -211 -205 -211c-74 0 -115 19 -167 66l47 46c36 -32 61 -49 118 -49c95 0 135 67 135 151v77c-40 -51 -85 -64 -138 -64c-50 0 -93 18 -119 44c-49 49 -60 125 -60 205s11 156 60 205c26 26 70 43 120 43zM259 434
c-107 0 -123 -92 -123 -184s16 -184 123 -184s122 92 122 184s-15 184 -122 184z" />
    <glyph glyph-name="h" unicode="h" horiz-adv-x="562" 
d="M162 712v-275c36 41 81 61 138 61c53 0 97 -16 127 -46c35 -34 50 -81 50 -138v-314h-72v303c0 87 -46 131 -120 131s-123 -45 -123 -131v-303h-72v712h72z" />
    <glyph glyph-name="i" unicode="i" horiz-adv-x="253" 
d="M162 492v-492h-72v492h72zM167 713v-81h-81v81h81z" />
    <glyph glyph-name="j" unicode="j" horiz-adv-x="253" 
d="M162 492v-580c0 -75 -39 -132 -125 -132h-52v63h39c50 0 66 24 66 72v577h72zM167 713v-81h-81v81h81z" />
    <glyph glyph-name="k" unicode="k" horiz-adv-x="536" 
d="M162 712v-476l222 256h90l-167 -188l196 -304h-89l-156 252l-96 -110v-142h-72v712h72z" />
    <glyph glyph-name="l" unicode="l" horiz-adv-x="297" 
d="M160 712v-578c0 -48 16 -72 66 -72h39v-62h-52c-86 0 -125 56 -125 131v581h72z" />
    <glyph glyph-name="m" unicode="m" horiz-adv-x="879" 
d="M614 498c53 0 97 -17 127 -46c35 -34 53 -80 53 -137v-315h-72v303c0 87 -47 131 -121 131c-72 0 -123 -45 -123 -123v-311h-72v303c0 87 -47 131 -121 131s-123 -45 -123 -131v-303h-72v492h72v-54c35 40 84 60 139 60c68 0 121 -28 151 -82c38 54 93 82 162 82z" />
    <glyph glyph-name="n" unicode="n" horiz-adv-x="563" 
d="M300 498c53 0 97 -16 127 -46c35 -34 51 -81 51 -138v-314h-72v303c0 87 -47 131 -121 131s-123 -45 -123 -131v-303h-72v492h71v-55c35 40 84 61 139 61z" />
    <glyph glyph-name="o" unicode="o" 
d="M265 498c60 0 107 -21 141 -56c50 -50 60 -120 60 -196s-10 -145 -60 -196c-34 -35 -81 -56 -141 -56s-107 21 -141 56c-50 51 -60 120 -60 196s10 146 60 196c34 35 81 56 141 56zM265 434c-35 0 -65 -12 -89 -36c-36 -36 -40 -96 -40 -152c0 -55 3 -115 40 -152
c24 -24 54 -36 89 -36s66 12 90 36c36 37 39 97 39 152c0 56 -3 116 -39 152c-24 24 -55 36 -90 36z" />
    <glyph glyph-name="p" unicode="p" horiz-adv-x="545" 
d="M301 498c51 0 94 -17 120 -43c49 -49 60 -130 60 -209s-11 -159 -60 -209c-26 -26 -69 -43 -120 -43c-54 0 -98 13 -139 64v-278h-72v712h72v-58c41 51 84 64 139 64zM286 434c-108 0 -124 -92 -124 -188s16 -188 124 -188c107 0 123 92 123 188s-16 188 -123 188z" />
    <glyph glyph-name="q" unicode="q" horiz-adv-x="545" 
d="M244 498c55 0 98 -13 139 -65v59h72v-712h-72v277c-41 -51 -85 -63 -139 -63c-51 0 -94 17 -120 43c-49 49 -60 130 -60 209s11 159 60 209c26 26 69 43 120 43zM259 434c-107 0 -123 -92 -123 -188s16 -188 123 -188c108 0 124 92 124 188s-16 188 -124 188z" />
    <glyph glyph-name="r" unicode="r" horiz-adv-x="421" 
d="M300 498c47 0 83 -11 118 -46l-53 -54c-27 27 -47 36 -85 36c-72 0 -118 -57 -118 -132v-302h-72v492h72v-60c27 41 81 66 138 66z" />
    <glyph glyph-name="s" unicode="s" horiz-adv-x="496" 
d="M246 498c71 0 132 -17 177 -53l-47 -47c-35 27 -80 39 -131 39c-72 0 -110 -30 -110 -81c0 -44 27 -66 88 -72l77 -7c86 -8 145 -40 145 -133c0 -95 -80 -150 -200 -150c-84 0 -149 19 -202 71l48 48c38 -40 92 -57 153 -57c82 0 131 29 131 87c0 44 -24 67 -82 72l-81 7
c-96 8 -147 50 -147 132c0 90 75 144 181 144z" />
    <glyph glyph-name="t" unicode="t" horiz-adv-x="332" 
d="M174 643v-151h105v-55h-105v-303c0 -46 21 -72 67 -72h38v-62h-51c-84 0 -126 59 -126 132v305h-62v55h62v151h72z" />
    <glyph glyph-name="u" unicode="u" horiz-adv-x="563" 
d="M473 492v-492h-71v55c-35 -40 -84 -61 -139 -61c-53 0 -97 16 -127 46c-35 34 -51 81 -51 138v314h72v-303c0 -87 47 -131 121 -131s123 45 123 131v303h72z" />
    <glyph glyph-name="v" unicode="v" horiz-adv-x="447" 
d="M191 0l-180 492h78l135 -395l134 395h78l-181 -492h-64z" />
    <glyph glyph-name="w" unicode="w" horiz-adv-x="724" 
d="M168 0l-157 492h78l114 -395l128 395h63l127 -395l114 395h78l-156 -492h-67l-128 401l-128 -401h-66z" />
    <glyph glyph-name="x" unicode="x" horiz-adv-x="478" 
d="M438 492l-160 -241l167 -251h-87l-118 191l-120 -191h-87l167 251l-160 241h87l113 -182l111 182h87z" />
    <glyph glyph-name="y" unicode="y" horiz-adv-x="447" 
d="M436 492l-227 -620c-10 -27 -21 -45 -35 -58c-26 -25 -61 -34 -96 -34h-31v64h22c50 0 65 16 81 61l38 105l-177 482h78l135 -395l134 395h78z" />
    <glyph glyph-name="z" unicode="z" horiz-adv-x="459" 
d="M50 0v59l272 369h-257v64h342v-59l-273 -369h273v-64h-357z" />
    <glyph glyph-name="braceleft" unicode="{" horiz-adv-x="359" 
d="M308 786v-64h-23c-35 0 -49 -3 -59 -13c-11 -11 -14 -29 -14 -65v-188c0 -57 -25 -82 -63 -100c38 -18 63 -43 63 -100v-188c0 -36 3 -54 14 -65c10 -10 24 -13 59 -13h23v-64h-37c-50 0 -80 9 -101 30c-22 22 -30 47 -30 99v191c0 28 -6 48 -18 60c-10 10 -26 18 -45 18
h-26v64h26c19 0 35 8 45 18c12 12 18 32 18 60v191c0 52 8 77 30 99c21 21 51 30 101 30h37z" />
    <glyph glyph-name="bar" unicode="|" horiz-adv-x="326" 
d="M199 786v-860h-72v860h72z" />
    <glyph glyph-name="braceright" unicode="}" horiz-adv-x="359" 
d="M51 786h37c50 0 80 -9 101 -30c22 -22 30 -47 30 -99v-191c0 -28 6 -48 18 -60c10 -10 26 -18 45 -18h26v-64h-26c-19 0 -35 -8 -45 -18c-12 -12 -18 -32 -18 -60v-191c0 -52 -8 -77 -30 -99c-21 -21 -51 -30 -101 -30h-37v64h23c35 0 49 3 59 13c11 11 14 29 14 65v188
c0 57 25 82 63 100c-38 18 -63 43 -63 100v188c0 36 -3 54 -14 65c-10 10 -24 13 -59 13h-23v64z" />
    <glyph glyph-name="asciitilde" unicode="~" horiz-adv-x="539" 
d="M178 332c35 0 67 -14 105 -31c28 -13 51 -24 78 -24c28 0 45 6 84 45l45 -45c-56 -56 -84 -68 -129 -68c-35 0 -68 14 -106 31c-28 13 -51 24 -78 24c-28 0 -45 -6 -84 -45l-44 45c56 56 84 68 129 68z" />
    <glyph glyph-name="uni00A0" unicode="&#xa0;" horiz-adv-x="249" 
 />
    <glyph glyph-name="exclamdown" unicode="&#xa1;" horiz-adv-x="316" 
d="M174 292l11 -512h-83l10 512h62zM186 492v-84h-86v84h86z" />
    <glyph glyph-name="cent" unicode="&#xa2;" horiz-adv-x="496" 
d="M304 712v-95c59 -4 99 -24 145 -74l-49 -46c-33 37 -60 52 -100 55v-372c40 3 67 18 100 55l49 -46c-46 -50 -86 -70 -145 -74v-115h-59v117c-110 16 -181 105 -181 249s71 233 181 249v97h59zM249 182v368c-33 -6 -60 -24 -80 -52c-23 -32 -33 -70 -33 -132
s10 -100 33 -132c20 -28 47 -46 80 -52z" />
    <glyph glyph-name="sterling" unicode="&#xa3;" horiz-adv-x="548" 
d="M333 718c68 0 119 -20 163 -64l-52 -51c-26 26 -52 47 -111 47c-94 0 -147 -59 -147 -164v-102h147v-54h-147v-262h310v-68h-386v330h-63v54h63v112c0 137 93 222 223 222z" />
    <glyph glyph-name="currency" unicode="&#xa4;" horiz-adv-x="659" 
d="M535 521l46 -46l-73 -72c29 -38 45 -83 45 -132c0 -50 -16 -96 -45 -134l73 -73l-46 -46l-74 73c-36 -26 -82 -42 -131 -42s-96 16 -132 42l-74 -73l-46 46l74 73c-29 38 -46 84 -46 134c0 49 17 94 45 132l-73 72l46 46l73 -72c36 27 83 43 133 43c49 0 96 -16 132 -43z
M330 428c-84 0 -153 -69 -153 -157c0 -89 69 -158 153 -158c83 0 153 69 153 158c0 88 -70 157 -153 157z" />
    <glyph glyph-name="yen" unicode="&#xa5;" horiz-adv-x="514" 
d="M219 0v195h-154v50h154v49l-25 49h-129v50h104l-161 319h82l169 -341l165 341h82l-162 -319h105v-50h-130l-24 -49v-49h154v-50h-154v-195h-76z" />
    <glyph glyph-name="brokenbar" unicode="&#xa6;" horiz-adv-x="326" 
d="M199 786v-350h-72v350h72zM199 276v-350h-72v350h72z" />
    <glyph glyph-name="section" unicode="&#xa7;" horiz-adv-x="557" 
d="M279 718c104 0 178 -60 182 -157h-72c-5 66 -46 93 -110 93c-67 0 -108 -34 -108 -99c0 -53 34 -82 84 -96l78 -22c87 -25 137 -93 137 -183c0 -82 -51 -138 -104 -164c57 -21 97 -71 97 -144c0 -104 -81 -172 -184 -172c-99 0 -183 54 -189 161h73c6 -62 49 -95 116 -95
c68 0 111 38 111 105c0 46 -32 86 -88 102l-78 22c-88 25 -137 92 -137 183c0 82 51 138 105 164c-57 26 -93 65 -93 138c0 97 75 164 180 164zM279 381c-35 0 -65 -13 -86 -36c-23 -25 -33 -51 -33 -92c0 -43 14 -71 33 -92c21 -23 51 -36 86 -36s65 13 86 36
c20 22 32 49 32 92c0 38 -7 67 -32 92c-23 23 -51 36 -86 36z" />
    <glyph glyph-name="dieresis" unicode="&#xa8;" 
d="M407 691v-89h-72v89h72zM195 691v-89h-72v89h72z" />
    <glyph glyph-name="copyright" unicode="&#xa9;" horiz-adv-x="876" 
d="M438 -6c-200 0 -362 162 -362 362s162 362 362 362s362 -162 362 -362s-162 -362 -362 -362zM443 153c-116 0 -178 87 -178 203s62 204 178 204c56 0 91 -17 131 -53l-37 -36c-33 29 -57 39 -94 39c-45 0 -76 -18 -95 -46s-27 -66 -27 -108s8 -80 27 -108s50 -45 95 -45
c37 0 61 9 94 38l37 -36c-38 -35 -75 -52 -131 -52zM438 48c168 0 304 139 304 308s-136 308 -304 308s-304 -139 -304 -308s136 -308 304 -308z" />
    <glyph glyph-name="ordfeminine" unicode="&#xaa;" horiz-adv-x="449" 
d="M365 319h-58v36c-31 -30 -60 -41 -111 -41c-54 0 -85 11 -110 36c-19 20 -30 48 -30 79c0 69 48 114 135 114h115v36c0 56 -26 84 -97 84c-49 0 -74 -11 -98 -44l-41 37c36 46 77 60 140 60c105 0 155 -47 155 -132v-265zM306 458v40h-107c-57 0 -84 -23 -84 -67
s26 -65 86 -65c33 0 62 2 86 25c13 12 19 34 19 67z" />
    <glyph glyph-name="guillemotleft" unicode="&#xab;" horiz-adv-x="554" 
d="M476 480v-90l-121 -120l121 -121v-89l-210 210zM250 480v-90l-120 -120l120 -121v-89l-210 210z" />
    <glyph glyph-name="logicalnot" unicode="&#xac;" horiz-adv-x="522" 
d="M471 303v-204h-67v137h-353v67h420z" />
    <glyph glyph-name="uni00AD" unicode="&#xad;" horiz-adv-x="426" 
d="M350 304v-67h-274v67h274z" />
    <glyph glyph-name="registered" unicode="&#xae;" horiz-adv-x="876" 
d="M438 -6c-200 0 -362 162 -362 362s162 362 362 362s362 -162 362 -362s-162 -362 -362 -362zM438 47c168 0 305 139 305 309s-137 309 -305 309s-304 -139 -304 -309s136 -309 304 -309zM320 158v397h135c69 0 125 -52 125 -119c0 -58 -36 -94 -85 -109l95 -169h-64
l-91 162h-60v-162h-55zM375 367h74c44 0 75 29 75 69s-31 70 -75 70h-74v-139z" />
    <glyph glyph-name="macron" unicode="&#xaf;" 
d="M416 670v-56h-301v56h301z" />
    <glyph glyph-name="degree" unicode="&#xb0;" horiz-adv-x="463" 
d="M232 721c91 0 164 -73 164 -164s-73 -164 -164 -164s-165 73 -165 164s74 164 165 164zM231 663c-59 0 -103 -46 -103 -106s45 -106 104 -106s103 46 103 106s-45 106 -104 106z" />
    <glyph glyph-name="plusminus" unicode="&#xb1;" horiz-adv-x="522" 
d="M295 531v-175h175v-67h-175v-177h-67v177h-176v67h176v175h67zM470 67v-67h-418v67h418z" />
    <glyph glyph-name="twosuperior" unicode="&#xb2;" horiz-adv-x="221" 
d="M27 434v37l110 126c14 15 18 29 18 45c0 21 -15 40 -42 40c-25 0 -41 -14 -43 -43h-43c3 50 38 80 86 80c50 0 84 -34 84 -77c0 -24 -9 -43 -30 -66l-91 -105h115v-37h-164z" />
    <glyph glyph-name="threesuperior" unicode="&#xb3;" horiz-adv-x="221" 
d="M106 431c-47 0 -86 27 -89 80h43c2 -24 22 -41 46 -41c27 0 47 18 47 48c0 31 -22 45 -48 45h-9v33h9c24 0 43 15 43 41c0 28 -18 42 -42 42c-23 0 -38 -15 -42 -38h-43c5 49 36 78 85 78c51 0 85 -33 85 -77c0 -32 -15 -52 -39 -61c26 -11 44 -34 44 -68
c0 -49 -37 -82 -90 -82z" />
    <glyph glyph-name="acute" unicode="&#xb4;" 
d="M408 747l-105 -153h-69l91 153h83z" />
    <glyph glyph-name="mu" unicode="&#xb5;" horiz-adv-x="568" 
d="M90 -220v712h72v-303c0 -87 46 -131 121 -131s123 45 123 131v303h72v-492h-71v55c-35 -40 -79 -60 -135 -60c-46 0 -84 13 -110 42v-257h-72z" />
    <glyph glyph-name="paragraph" unicode="&#xb6;" horiz-adv-x="603" 
d="M500 712v-932h-72v864h-117v-864h-72v546c-120 0 -197 94 -197 192c0 107 80 194 217 194h241z" />
    <glyph glyph-name="periodcentered" unicode="&#xb7;" horiz-adv-x="270" 
d="M182 317v-94h-94v94h94z" />
    <glyph glyph-name="cedilla" unicode="&#xb8;" 
d="M165 -216l71 149h66l-59 -149h-78z" />
    <glyph glyph-name="onesuperior" unicode="&#xb9;" horiz-adv-x="230" 
d="M110 434v232l-60 -51v50l60 51h43v-282h-43z" />
    <glyph glyph-name="ordmasculine" unicode="&#xba;" horiz-adv-x="454" 
d="M387 515c0 -61 -8 -115 -48 -156c-27 -27 -64 -44 -112 -44s-85 17 -112 44c-40 41 -48 95 -48 156c0 60 8 115 48 156c27 27 64 45 112 45s85 -18 112 -45c40 -41 48 -96 48 -156zM328 515c0 43 -3 91 -31 119c-18 18 -43 28 -70 28s-52 -10 -70 -28
c-28 -28 -30 -76 -30 -119s2 -90 30 -118c18 -18 43 -29 70 -29s52 11 70 29c28 28 31 75 31 118z" />
    <glyph glyph-name="guillemotright" unicode="&#xbb;" horiz-adv-x="554" 
d="M304 480l210 -210l-210 -210v90l120 120l-120 121v89zM78 480l210 -210l-210 -210v90l121 120l-121 121v89z" />
    <glyph glyph-name="onequarter" unicode="&#xbc;" horiz-adv-x="846" 
d="M226 0l333 712h60l-333 -712h-60zM713 0v66h-169v50l151 311h57l-150 -311h111v107h55v-107h49v-50h-49v-66h-55zM158 285v363l-83 -73v66l83 71h57v-427h-57z" />
    <glyph glyph-name="onehalf" unicode="&#xbd;" horiz-adv-x="850" 
d="M226 0l333 712h60l-333 -712h-60zM556 0v52l175 202c19 21 25 37 25 63c0 36 -27 62 -72 62c-39 0 -71 -17 -71 -67h-56c0 72 50 119 127 119s128 -45 128 -114c0 -41 -11 -61 -42 -96l-149 -169h192v-52h-257zM158 285v363l-83 -73v66l83 71h57v-427h-57z" />
    <glyph glyph-name="threequarters" unicode="&#xbe;" horiz-adv-x="852" 
d="M232 0l333 712h60l-333 -712h-60zM719 0v66h-169v50l151 311h57l-150 -311h111v107h55v-107h49v-50h-49v-66h-55zM163 281c-72 0 -135 37 -138 119h58c2 -49 39 -68 80 -68c44 0 79 28 79 73c0 46 -28 73 -82 73h-10v51h10c48 0 75 26 75 67c0 45 -34 69 -73 69
c-43 0 -70 -25 -74 -64h-57c5 72 60 115 131 115c77 0 130 -47 130 -119c0 -46 -20 -74 -60 -91c44 -17 67 -49 67 -101c0 -81 -61 -124 -136 -124z" />
    <glyph glyph-name="questiondown" unicode="&#xbf;" horiz-adv-x="497" 
d="M263 292v-40c0 -39 -10 -64 -31 -94l-81 -117c-19 -28 -33 -51 -33 -85c0 -67 48 -118 115 -118c71 0 116 56 116 119h72c0 -102 -80 -183 -188 -183c-105 0 -187 75 -187 182c0 47 19 83 45 121l82 118c12 18 18 42 18 58v39h72zM270 492v-84h-86v84h86z" />
    <glyph glyph-name="Agrave" unicode="&#xc0;" horiz-adv-x="611" 
d="M338 712l261 -712h-81l-57 161h-311l-57 -161h-81l262 712h64zM306 604l-133 -377h265zM256 934l91 -154h-69l-105 154h83z" />
    <glyph glyph-name="Aacute" unicode="&#xc1;" horiz-adv-x="611" 
d="M338 712l261 -712h-81l-57 161h-311l-57 -161h-81l262 712h64zM306 604l-133 -377h265zM440 934l-105 -154h-69l91 154h83z" />
    <glyph glyph-name="Acircumflex" unicode="&#xc2;" horiz-adv-x="611" 
d="M338 712l261 -712h-81l-57 161h-311l-57 -161h-81l262 712h64zM306 604l-133 -377h265zM340 933l126 -153h-69l-91 104l-90 -104h-69l125 153h68z" />
    <glyph glyph-name="Atilde" unicode="&#xc3;" horiz-adv-x="611" 
d="M338 712l261 -712h-81l-57 161h-311l-57 -161h-81l262 712h64zM306 604l-133 -377h265zM242 893c29 0 46 -8 71 -24c21 -13 36 -20 56 -20c15 0 29 2 59 32l37 -37c-46 -45 -72 -50 -95 -50c-29 0 -47 9 -71 23c-19 11 -36 21 -56 21c-17 0 -30 -3 -59 -32l-37 36
c45 45 71 51 95 51z" />
    <glyph glyph-name="Adieresis" unicode="&#xc4;" horiz-adv-x="611" 
d="M338 712l261 -712h-81l-57 161h-311l-57 -161h-81l262 712h64zM306 604l-133 -377h265zM448 878v-89h-72v89h72zM236 878v-89h-72v89h72z" />
    <glyph glyph-name="Aring" unicode="&#xc5;" horiz-adv-x="611" 
d="M338 712l261 -712h-81l-57 161h-311l-57 -161h-81l262 712h64zM306 604l-133 -377h265zM306 987c65 0 118 -52 118 -118c0 -65 -53 -119 -118 -119s-118 54 -118 119s53 118 118 118zM306 937c-38 0 -69 -30 -69 -68s31 -69 69 -69s69 31 69 69s-31 68 -69 68z" />
    <glyph glyph-name="AE" unicode="&#xc6;" horiz-adv-x="927" 
d="M872 712v-68h-366v-251h312v-68h-312v-257h366v-68h-442v169h-247l-88 -169h-83l376 712h484zM430 644l-214 -409h214v409z" />
    <glyph glyph-name="Ccedilla" unicode="&#xc7;" horiz-adv-x="637" 
d="M325 718c129 0 222 -79 247 -212h-78c-19 88 -80 144 -169 144c-48 0 -90 -17 -123 -50c-45 -46 -50 -98 -50 -244s5 -198 50 -244c33 -33 75 -50 123 -50c89 0 150 56 169 144h78c-25 -133 -119 -212 -247 -212c-74 0 -134 26 -178 70c-67 67 -71 129 -71 292
s4 225 71 292c44 44 104 70 178 70zM229 -216l70 147h63l-58 -147h-75z" />
    <glyph glyph-name="Egrave" unicode="&#xc8;" horiz-adv-x="600" 
d="M545 712v-68h-366v-251h312v-68h-312v-257h366v-68h-442v712h442zM261 934l91 -154h-69l-105 154h83z" />
    <glyph glyph-name="Eacute" unicode="&#xc9;" horiz-adv-x="600" 
d="M545 712v-68h-366v-251h312v-68h-312v-257h366v-68h-442v712h442zM445 934l-105 -154h-69l91 154h83z" />
    <glyph glyph-name="Ecircumflex" unicode="&#xca;" horiz-adv-x="600" 
d="M545 712v-68h-366v-251h312v-68h-312v-257h366v-68h-442v712h442zM345 933l126 -153h-69l-91 104l-90 -104h-69l125 153h68z" />
    <glyph glyph-name="Edieresis" unicode="&#xcb;" horiz-adv-x="600" 
d="M545 712v-68h-366v-251h312v-68h-312v-257h366v-68h-442v712h442zM453 878v-89h-72v89h72zM241 878v-89h-72v89h72z" />
    <glyph glyph-name="Igrave" unicode="&#xcc;" horiz-adv-x="282" 
d="M179 712v-712h-76v712h76zM90 934l91 -154h-69l-105 154h83z" />
    <glyph glyph-name="Iacute" unicode="&#xcd;" horiz-adv-x="282" 
d="M179 712v-712h-76v712h76zM274 934l-105 -154h-69l91 154h83z" />
    <glyph glyph-name="Icircumflex" unicode="&#xce;" horiz-adv-x="282" 
d="M179 712v-712h-76v712h76zM174 933l126 -153h-69l-91 104l-90 -104h-69l125 153h68z" />
    <glyph glyph-name="Idieresis" unicode="&#xcf;" horiz-adv-x="282" 
d="M179 712v-712h-76v712h76zM282 878v-89h-72v89h72zM70 878v-89h-72v89h72z" />
    <glyph glyph-name="Eth" unicode="&#xd0;" horiz-adv-x="687" 
d="M117 712h244c80 0 139 -23 187 -75c63 -68 63 -172 63 -281s-2 -214 -63 -281c-48 -52 -107 -75 -187 -75h-244v330h-78v59h78v323zM348 644h-155v-255h162v-59h-162v-262h155c54 0 104 12 140 52c46 49 47 137 47 236s-1 187 -47 236c-36 40 -86 52 -140 52z" />
    <glyph glyph-name="Ntilde" unicode="&#xd1;" horiz-adv-x="732" 
d="M629 712v-712h-72l-378 571v-571h-76v712h72l378 -569v569h76zM302 893c29 0 46 -8 71 -24c21 -13 36 -20 56 -20c15 0 29 2 59 32l37 -37c-46 -45 -72 -50 -95 -50c-29 0 -47 9 -71 23c-19 11 -36 21 -56 21c-17 0 -30 -3 -59 -32l-37 36c45 45 71 51 95 51z" />
    <glyph glyph-name="Ograve" unicode="&#xd2;" horiz-adv-x="650" 
d="M325 718c74 0 133 -26 177 -70c67 -67 72 -129 72 -292s-5 -225 -72 -292c-44 -44 -103 -70 -177 -70s-134 26 -178 70c-67 67 -71 129 -71 292s4 225 71 292c44 44 104 70 178 70zM325 650c-48 0 -90 -17 -123 -50c-45 -46 -50 -98 -50 -244s5 -198 50 -244
c33 -33 75 -50 123 -50s90 17 123 50c45 46 50 98 50 244s-5 198 -50 244c-33 33 -75 50 -123 50zM275 934l91 -154h-69l-105 154h83z" />
    <glyph glyph-name="Oacute" unicode="&#xd3;" horiz-adv-x="650" 
d="M325 718c74 0 133 -26 177 -70c67 -67 72 -129 72 -292s-5 -225 -72 -292c-44 -44 -103 -70 -177 -70s-134 26 -178 70c-67 67 -71 129 -71 292s4 225 71 292c44 44 104 70 178 70zM325 650c-48 0 -90 -17 -123 -50c-45 -46 -50 -98 -50 -244s5 -198 50 -244
c33 -33 75 -50 123 -50s90 17 123 50c45 46 50 98 50 244s-5 198 -50 244c-33 33 -75 50 -123 50zM459 934l-105 -154h-69l91 154h83z" />
    <glyph glyph-name="Ocircumflex" unicode="&#xd4;" horiz-adv-x="650" 
d="M325 718c74 0 133 -26 177 -70c67 -67 72 -129 72 -292s-5 -225 -72 -292c-44 -44 -103 -70 -177 -70s-134 26 -178 70c-67 67 -71 129 -71 292s4 225 71 292c44 44 104 70 178 70zM325 650c-48 0 -90 -17 -123 -50c-45 -46 -50 -98 -50 -244s5 -198 50 -244
c33 -33 75 -50 123 -50s90 17 123 50c45 46 50 98 50 244s-5 198 -50 244c-33 33 -75 50 -123 50zM359 933l126 -153h-69l-91 104l-90 -104h-69l125 153h68z" />
    <glyph glyph-name="Otilde" unicode="&#xd5;" horiz-adv-x="650" 
d="M325 718c74 0 133 -26 177 -70c67 -67 72 -129 72 -292s-5 -225 -72 -292c-44 -44 -103 -70 -177 -70s-134 26 -178 70c-67 67 -71 129 -71 292s4 225 71 292c44 44 104 70 178 70zM325 650c-48 0 -90 -17 -123 -50c-45 -46 -50 -98 -50 -244s5 -198 50 -244
c33 -33 75 -50 123 -50s90 17 123 50c45 46 50 98 50 244s-5 198 -50 244c-33 33 -75 50 -123 50zM261 893c29 0 46 -8 71 -24c21 -13 36 -20 56 -20c15 0 29 2 59 32l37 -37c-46 -45 -72 -50 -95 -50c-29 0 -47 9 -71 23c-19 11 -36 21 -56 21c-17 0 -30 -3 -59 -32l-37 36
c45 45 71 51 95 51z" />
    <glyph glyph-name="Odieresis" unicode="&#xd6;" horiz-adv-x="650" 
d="M325 718c74 0 133 -26 177 -70c67 -67 72 -129 72 -292s-5 -225 -72 -292c-44 -44 -103 -70 -177 -70s-134 26 -178 70c-67 67 -71 129 -71 292s4 225 71 292c44 44 104 70 178 70zM325 650c-48 0 -90 -17 -123 -50c-45 -46 -50 -98 -50 -244s5 -198 50 -244
c33 -33 75 -50 123 -50s90 17 123 50c45 46 50 98 50 244s-5 198 -50 244c-33 33 -75 50 -123 50zM467 878v-89h-72v89h72zM255 878v-89h-72v89h72z" />
    <glyph glyph-name="multiply" unicode="&#xd7;" horiz-adv-x="522" 
d="M412 466l45 -45l-152 -151l152 -151l-45 -45l-151 151l-151 -151l-45 45l151 151l-151 151l45 45l151 -152z" />
    <glyph glyph-name="Oslash" unicode="&#xd8;" horiz-adv-x="650" 
d="M574 356c0 -163 -3 -223 -72 -292c-44 -44 -103 -70 -177 -70c-49 0 -90 11 -126 31l-33 -69h-65l50 104c-71 69 -75 130 -75 296c0 163 4 225 71 292c44 44 104 70 178 70c48 0 92 -11 125 -31l34 69h65l-50 -105c72 -70 75 -132 75 -295zM152 356
c0 -127 4 -184 35 -226l234 492c-26 18 -60 28 -96 28c-48 0 -91 -17 -123 -50c-45 -46 -50 -98 -50 -244zM498 356c0 127 -4 183 -35 226l-234 -492c27 -18 60 -28 96 -28c48 0 90 17 123 50c45 46 50 98 50 244z" />
    <glyph glyph-name="Ugrave" unicode="&#xd9;" horiz-adv-x="683" 
d="M590 712v-477c0 -142 -105 -241 -249 -241s-248 99 -248 241v477h76v-471c0 -108 68 -179 172 -179s173 71 173 179v471h76zM292 934l91 -154h-69l-105 154h83z" />
    <glyph glyph-name="Uacute" unicode="&#xda;" horiz-adv-x="683" 
d="M590 712v-477c0 -142 -105 -241 -249 -241s-248 99 -248 241v477h76v-471c0 -108 68 -179 172 -179s173 71 173 179v471h76zM476 934l-105 -154h-69l91 154h83z" />
    <glyph glyph-name="Ucircumflex" unicode="&#xdb;" horiz-adv-x="683" 
d="M590 712v-477c0 -142 -105 -241 -249 -241s-248 99 -248 241v477h76v-471c0 -108 68 -179 172 -179s173 71 173 179v471h76zM376 933l126 -153h-69l-91 104l-90 -104h-69l125 153h68z" />
    <glyph glyph-name="Udieresis" unicode="&#xdc;" horiz-adv-x="683" 
d="M590 712v-477c0 -142 -105 -241 -249 -241s-248 99 -248 241v477h76v-471c0 -108 68 -179 172 -179s173 71 173 179v471h76zM484 878v-89h-72v89h72zM272 878v-89h-72v89h72z" />
    <glyph glyph-name="Yacute" unicode="&#xdd;" horiz-adv-x="514" 
d="M506 712l-210 -418v-294h-76v294l-212 418h82l168 -341l166 341h82zM391 934l-105 -154h-69l91 154h83z" />
    <glyph glyph-name="Thorn" unicode="&#xde;" horiz-adv-x="642" 
d="M179 712v-144h189c130 0 220 -81 220 -209s-90 -209 -220 -209h-189v-150h-76v712h76zM361 500h-182v-282h182c89 0 151 47 151 141s-62 141 -151 141z" />
    <glyph glyph-name="germandbls" unicode="&#xdf;" horiz-adv-x="556" 
d="M291 718c107 0 192 -51 192 -166c0 -55 -24 -94 -63 -119c48 -24 64 -57 64 -120v-172c0 -45 -15 -81 -40 -105c-27 -25 -56 -36 -103 -36h-53v62h39c29 0 42 7 59 20c18 14 26 36 26 67v168c0 29 -6 48 -21 62c-14 14 -34 21 -60 21h-43v61h36c52 0 88 34 88 90
c0 29 -10 56 -31 75s-52 29 -95 29c-89 0 -124 -54 -124 -135v-520h-72v523c0 126 78 195 201 195z" />
    <glyph glyph-name="agrave" unicode="&#xe0;" horiz-adv-x="526" 
d="M244 498c133 0 197 -58 197 -164v-334h-72v47c-39 -39 -76 -53 -142 -53c-68 0 -105 12 -139 45c-25 24 -37 61 -37 100c0 87 61 142 171 142h147v47c0 71 -35 108 -126 108c-62 0 -94 -16 -124 -57l-49 45c43 57 93 74 174 74zM369 227h-137c-74 0 -111 -29 -111 -87
c0 -57 35 -84 114 -84c41 0 77 4 109 33c17 16 25 44 25 85v53zM195 747l91 -153h-69l-105 153h83z" />
    <glyph glyph-name="aacute" unicode="&#xe1;" horiz-adv-x="526" 
d="M244 498c133 0 197 -58 197 -164v-334h-72v47c-39 -39 -76 -53 -142 -53c-68 0 -105 12 -139 45c-25 24 -37 61 -37 100c0 87 61 142 171 142h147v47c0 71 -35 108 -126 108c-62 0 -94 -16 -124 -57l-49 45c43 57 93 74 174 74zM369 227h-137c-74 0 -111 -29 -111 -87
c0 -57 35 -84 114 -84c41 0 77 4 109 33c17 16 25 44 25 85v53zM395 747l-105 -153h-69l91 153h83z" />
    <glyph glyph-name="acircumflex" unicode="&#xe2;" horiz-adv-x="526" 
d="M244 498c133 0 197 -58 197 -164v-334h-72v47c-39 -39 -76 -53 -142 -53c-68 0 -105 12 -139 45c-25 24 -37 61 -37 100c0 87 61 142 171 142h147v47c0 71 -35 108 -126 108c-62 0 -94 -16 -124 -57l-49 45c43 57 93 74 174 74zM369 227h-137c-74 0 -111 -29 -111 -87
c0 -57 35 -84 114 -84c41 0 77 4 109 33c17 16 25 44 25 85v53zM286 747l126 -153h-69l-91 104l-90 -104h-69l125 153h68z" />
    <glyph glyph-name="atilde" unicode="&#xe3;" horiz-adv-x="526" 
d="M244 498c133 0 197 -58 197 -164v-334h-72v47c-39 -39 -76 -53 -142 -53c-68 0 -105 12 -139 45c-25 24 -37 61 -37 100c0 87 61 142 171 142h147v47c0 71 -35 108 -126 108c-62 0 -94 -16 -124 -57l-49 45c43 57 93 74 174 74zM369 227h-137c-74 0 -111 -29 -111 -87
c0 -57 35 -84 114 -84c41 0 77 4 109 33c17 16 25 44 25 85v53zM188 706c29 0 46 -8 71 -24c21 -12 36 -20 56 -20c16 0 29 2 59 32l37 -36c-45 -46 -72 -51 -95 -51c-28 0 -47 10 -71 24c-19 11 -36 20 -56 20c-17 0 -29 -2 -59 -32l-37 36c46 46 71 51 95 51z" />
    <glyph glyph-name="adieresis" unicode="&#xe4;" horiz-adv-x="526" 
d="M244 498c133 0 197 -58 197 -164v-334h-72v47c-39 -39 -76 -53 -142 -53c-68 0 -105 12 -139 45c-25 24 -37 61 -37 100c0 87 61 142 171 142h147v47c0 71 -35 108 -126 108c-62 0 -94 -16 -124 -57l-49 45c43 57 93 74 174 74zM369 227h-137c-74 0 -111 -29 -111 -87
c0 -57 35 -84 114 -84c41 0 77 4 109 33c17 16 25 44 25 85v53zM394 691v-89h-72v89h72zM182 691v-89h-72v89h72z" />
    <glyph glyph-name="aring" unicode="&#xe5;" horiz-adv-x="526" 
d="M244 498c133 0 197 -58 197 -164v-334h-72v47c-39 -39 -76 -53 -142 -53c-68 0 -105 12 -139 45c-25 24 -37 61 -37 100c0 87 61 142 171 142h147v47c0 71 -35 108 -126 108c-62 0 -94 -16 -124 -57l-49 45c43 57 93 74 174 74zM369 227h-137c-74 0 -111 -29 -111 -87
c0 -57 35 -84 114 -84c41 0 77 4 109 33c17 16 25 44 25 85v53zM252 805c65 0 118 -52 118 -118c0 -65 -53 -119 -118 -119s-118 54 -118 119s53 118 118 118zM252 755c-38 0 -69 -30 -69 -68s31 -69 69 -69s69 31 69 69s-31 68 -69 68z" />
    <glyph glyph-name="ae" unicode="&#xe6;" horiz-adv-x="837" 
d="M571 498c127 0 202 -91 202 -239v-32h-333c0 -108 50 -170 146 -170c57 0 90 17 128 56l50 -43c-50 -50 -98 -76 -182 -76c-78 0 -138 27 -175 85c-44 -64 -95 -85 -180 -85c-65 0 -104 11 -139 45c-25 24 -37 61 -37 100c0 87 61 142 171 142h147v47
c0 71 -35 108 -126 108c-62 0 -94 -16 -124 -57l-49 45c43 57 93 74 174 74c88 0 145 -25 173 -77c34 51 87 77 154 77zM369 227h-137c-74 0 -111 -29 -111 -87c0 -57 35 -84 114 -84c41 0 77 4 109 33c17 16 25 44 25 85v53zM571 437c-53 0 -97 -28 -115 -74
c-11 -28 -13 -41 -16 -82h261c-2 40 -4 56 -15 82c-19 46 -63 74 -115 74z" />
    <glyph glyph-name="ccedilla" unicode="&#xe7;" horiz-adv-x="491" 
d="M282 498c68 0 111 -18 162 -73l-49 -46c-37 41 -66 55 -113 55c-48 0 -88 -19 -114 -56c-23 -32 -32 -70 -32 -132s9 -100 32 -132c26 -37 66 -56 114 -56c47 0 76 15 113 56l49 -47c-51 -55 -94 -73 -162 -73c-124 0 -218 84 -218 252s94 252 218 252zM165 -216l71 149
h66l-59 -149h-78z" />
    <glyph glyph-name="egrave" unicode="&#xe8;" 
d="M265 498c128 0 202 -91 202 -239v-32h-332c0 -108 50 -170 145 -170c57 0 90 17 129 56l49 -43c-50 -50 -97 -76 -180 -76c-131 0 -215 78 -215 252c0 160 77 252 202 252zM265 437c-53 0 -94 -29 -115 -74c-12 -26 -13 -42 -15 -82h261c-3 40 -4 56 -16 82
c-21 45 -62 74 -115 74zM208 747l91 -153h-69l-105 153h83z" />
    <glyph glyph-name="eacute" unicode="&#xe9;" 
d="M265 498c128 0 202 -91 202 -239v-32h-332c0 -108 50 -170 145 -170c57 0 90 17 129 56l49 -43c-50 -50 -97 -76 -180 -76c-131 0 -215 78 -215 252c0 160 77 252 202 252zM265 437c-53 0 -94 -29 -115 -74c-12 -26 -13 -42 -15 -82h261c-3 40 -4 56 -16 82
c-21 45 -62 74 -115 74zM408 747l-105 -153h-69l91 153h83z" />
    <glyph glyph-name="ecircumflex" unicode="&#xea;" 
d="M265 498c128 0 202 -91 202 -239v-32h-332c0 -108 50 -170 145 -170c57 0 90 17 129 56l49 -43c-50 -50 -97 -76 -180 -76c-131 0 -215 78 -215 252c0 160 77 252 202 252zM265 437c-53 0 -94 -29 -115 -74c-12 -26 -13 -42 -15 -82h261c-3 40 -4 56 -16 82
c-21 45 -62 74 -115 74zM299 747l126 -153h-69l-91 104l-90 -104h-69l125 153h68z" />
    <glyph glyph-name="edieresis" unicode="&#xeb;" 
d="M265 498c128 0 202 -91 202 -239v-32h-332c0 -108 50 -170 145 -170c57 0 90 17 129 56l49 -43c-50 -50 -97 -76 -180 -76c-131 0 -215 78 -215 252c0 160 77 252 202 252zM265 437c-53 0 -94 -29 -115 -74c-12 -26 -13 -42 -15 -82h261c-3 40 -4 56 -16 82
c-21 45 -62 74 -115 74zM407 691v-89h-72v89h72zM195 691v-89h-72v89h72z" />
    <glyph glyph-name="igrave" unicode="&#xec;" horiz-adv-x="253" 
d="M69 747l91 -153h-69l-105 153h83zM162 492v-492h-72v492h72z" />
    <glyph glyph-name="iacute" unicode="&#xed;" horiz-adv-x="253" 
d="M162 492v-492h-72v492h72zM269 747l-105 -153h-69l91 153h83z" />
    <glyph glyph-name="icircumflex" unicode="&#xee;" horiz-adv-x="253" 
d="M160 747l126 -153h-69l-91 104l-90 -104h-69l125 153h68zM162 492v-492h-72v492h72z" />
    <glyph glyph-name="idieresis" unicode="&#xef;" horiz-adv-x="253" 
d="M268 691v-89h-72v89h72zM56 691v-89h-72v89h72zM162 492v-492h-72v492h72z" />
    <glyph glyph-name="eth" unicode="&#xf0;" horiz-adv-x="529" 
d="M263 714l47 -82h82v-52h-54l63 -111c53 -93 63 -138 63 -225c0 -75 -10 -145 -60 -195c-33 -34 -80 -55 -140 -55s-107 21 -140 55c-50 50 -59 120 -59 195s9 145 59 195c31 32 77 52 136 52c24 0 43 -2 61 -10l-58 99h-116v52h88l-47 82h75zM264 431
c-35 0 -65 -13 -88 -36c-36 -36 -39 -96 -39 -151s3 -114 39 -150c23 -23 53 -36 88 -36s66 13 89 36c36 36 39 95 39 150s-3 115 -39 151c-23 23 -54 36 -89 36z" />
    <glyph glyph-name="ntilde" unicode="&#xf1;" horiz-adv-x="563" 
d="M300 498c53 0 97 -16 127 -46c35 -34 51 -81 51 -138v-314h-72v303c0 87 -47 131 -121 131s-123 -45 -123 -131v-303h-72v492h71v-55c35 40 84 61 139 61zM220 706c29 0 46 -8 71 -24c21 -12 36 -20 56 -20c16 0 29 2 59 32l37 -36c-45 -46 -72 -51 -95 -51
c-28 0 -47 10 -71 24c-19 11 -36 20 -56 20c-17 0 -29 -2 -59 -32l-37 36c46 46 71 51 95 51z" />
    <glyph glyph-name="ograve" unicode="&#xf2;" 
d="M265 498c60 0 107 -21 141 -56c50 -50 60 -120 60 -196s-10 -145 -60 -196c-34 -35 -81 -56 -141 -56s-107 21 -141 56c-50 51 -60 120 -60 196s10 146 60 196c34 35 81 56 141 56zM265 434c-35 0 -65 -12 -89 -36c-36 -36 -40 -96 -40 -152c0 -55 3 -115 40 -152
c24 -24 54 -36 89 -36s66 12 90 36c36 37 39 97 39 152c0 56 -3 116 -39 152c-24 24 -55 36 -90 36zM208 747l91 -153h-69l-105 153h83z" />
    <glyph glyph-name="oacute" unicode="&#xf3;" 
d="M265 498c60 0 107 -21 141 -56c50 -50 60 -120 60 -196s-10 -145 -60 -196c-34 -35 -81 -56 -141 -56s-107 21 -141 56c-50 51 -60 120 -60 196s10 146 60 196c34 35 81 56 141 56zM265 434c-35 0 -65 -12 -89 -36c-36 -36 -40 -96 -40 -152c0 -55 3 -115 40 -152
c24 -24 54 -36 89 -36s66 12 90 36c36 37 39 97 39 152c0 56 -3 116 -39 152c-24 24 -55 36 -90 36zM408 747l-105 -153h-69l91 153h83z" />
    <glyph glyph-name="ocircumflex" unicode="&#xf4;" 
d="M265 498c60 0 107 -21 141 -56c50 -50 60 -120 60 -196s-10 -145 -60 -196c-34 -35 -81 -56 -141 -56s-107 21 -141 56c-50 51 -60 120 -60 196s10 146 60 196c34 35 81 56 141 56zM265 434c-35 0 -65 -12 -89 -36c-36 -36 -40 -96 -40 -152c0 -55 3 -115 40 -152
c24 -24 54 -36 89 -36s66 12 90 36c36 37 39 97 39 152c0 56 -3 116 -39 152c-24 24 -55 36 -90 36zM299 747l126 -153h-69l-91 104l-90 -104h-69l125 153h68z" />
    <glyph glyph-name="otilde" unicode="&#xf5;" 
d="M265 498c60 0 107 -21 141 -56c50 -50 60 -120 60 -196s-10 -145 -60 -196c-34 -35 -81 -56 -141 -56s-107 21 -141 56c-50 51 -60 120 -60 196s10 146 60 196c34 35 81 56 141 56zM265 434c-35 0 -65 -12 -89 -36c-36 -36 -40 -96 -40 -152c0 -55 3 -115 40 -152
c24 -24 54 -36 89 -36s66 12 90 36c36 37 39 97 39 152c0 56 -3 116 -39 152c-24 24 -55 36 -90 36zM201 706c29 0 46 -8 71 -24c21 -12 36 -20 56 -20c16 0 29 2 59 32l37 -36c-45 -46 -72 -51 -95 -51c-28 0 -47 10 -71 24c-19 11 -36 20 -56 20c-17 0 -29 -2 -59 -32
l-37 36c46 46 71 51 95 51z" />
    <glyph glyph-name="odieresis" unicode="&#xf6;" 
d="M265 498c60 0 107 -21 141 -56c50 -50 60 -120 60 -196s-10 -145 -60 -196c-34 -35 -81 -56 -141 -56s-107 21 -141 56c-50 51 -60 120 -60 196s10 146 60 196c34 35 81 56 141 56zM265 434c-35 0 -65 -12 -89 -36c-36 -36 -40 -96 -40 -152c0 -55 3 -115 40 -152
c24 -24 54 -36 89 -36s66 12 90 36c36 37 39 97 39 152c0 56 -3 116 -39 152c-24 24 -55 36 -90 36zM407 691v-89h-72v89h72zM195 691v-89h-72v89h72z" />
    <glyph glyph-name="divide" unicode="&#xf7;" horiz-adv-x="522" 
d="M471 303v-67h-420v67h420zM304 135v-86h-86v86h86zM304 490v-86h-86v86h86z" />
    <glyph glyph-name="oslash" unicode="&#xf8;" 
d="M466 246c0 -76 -10 -145 -60 -196c-34 -34 -81 -56 -141 -56c-41 0 -76 10 -105 27l-38 -65h-57l57 96c-48 50 -58 119 -58 194c0 76 10 145 60 196c34 34 81 56 141 56c41 0 76 -10 105 -27l39 65h56l-57 -96c48 -50 58 -119 58 -194zM394 246c0 47 -2 97 -24 133
l-177 -299c20 -14 45 -22 72 -22c35 0 67 13 90 36c36 36 39 97 39 152zM337 413c-20 14 -45 21 -72 21c-35 0 -66 -13 -89 -36c-36 -36 -40 -97 -40 -152c0 -47 3 -97 25 -133z" />
    <glyph glyph-name="ugrave" unicode="&#xf9;" horiz-adv-x="563" 
d="M473 492v-492h-71v55c-35 -40 -84 -61 -139 -61c-53 0 -97 16 -127 46c-35 34 -51 81 -51 138v314h72v-303c0 -87 47 -131 121 -131s123 45 123 131v303h72zM222 747l91 -153h-69l-105 153h83z" />
    <glyph glyph-name="uacute" unicode="&#xfa;" horiz-adv-x="563" 
d="M473 492v-492h-71v55c-35 -40 -84 -61 -139 -61c-53 0 -97 16 -127 46c-35 34 -51 81 -51 138v314h72v-303c0 -87 47 -131 121 -131s123 45 123 131v303h72zM422 747l-105 -153h-69l91 153h83z" />
    <glyph glyph-name="ucircumflex" unicode="&#xfb;" horiz-adv-x="563" 
d="M473 492v-492h-71v55c-35 -40 -84 -61 -139 -61c-53 0 -97 16 -127 46c-35 34 -51 81 -51 138v314h72v-303c0 -87 47 -131 121 -131s123 45 123 131v303h72zM313 747l126 -153h-69l-91 104l-90 -104h-69l125 153h68z" />
    <glyph glyph-name="udieresis" unicode="&#xfc;" horiz-adv-x="563" 
d="M473 492v-492h-71v55c-35 -40 -84 -61 -139 -61c-53 0 -97 16 -127 46c-35 34 -51 81 -51 138v314h72v-303c0 -87 47 -131 121 -131s123 45 123 131v303h72zM421 691v-89h-72v89h72zM209 691v-89h-72v89h72z" />
    <glyph glyph-name="yacute" unicode="&#xfd;" horiz-adv-x="447" 
d="M436 492l-227 -620c-10 -27 -21 -45 -35 -58c-26 -25 -61 -34 -96 -34h-31v64h22c50 0 65 16 81 61l38 105l-177 482h78l135 -395l134 395h78zM367 747l-105 -153h-69l91 153h83z" />
    <glyph glyph-name="thorn" unicode="&#xfe;" horiz-adv-x="545" 
d="M162 712v-277c41 51 85 63 139 63c51 0 94 -17 120 -43c49 -49 60 -130 60 -209s-11 -159 -60 -209c-26 -26 -69 -43 -120 -43c-54 0 -98 13 -139 64v-278h-72v932h72zM286 434c-108 0 -124 -92 -124 -188s16 -188 124 -188c107 0 123 92 123 188s-16 188 -123 188z" />
    <glyph glyph-name="ydieresis" unicode="&#xff;" horiz-adv-x="447" 
d="M436 492l-227 -620c-10 -27 -21 -45 -35 -58c-26 -25 -61 -34 -96 -34h-31v64h22c50 0 65 16 81 61l38 105l-177 482h78l135 -395l134 395h78zM366 691v-89h-72v89h72zM154 691v-89h-72v89h72z" />
    <glyph glyph-name="dotlessi" unicode="&#x131;" horiz-adv-x="253" 
d="M162 492v-492h-72v492h72z" />
    <glyph glyph-name="IJ" unicode="&#x132;" horiz-adv-x="783" 
d="M179 712v-712h-76v712h76zM690 712v-496c0 -137 -92 -222 -222 -222c-68 0 -119 20 -163 64l51 51c26 -26 53 -47 112 -47c93 0 146 59 146 164v486h76z" />
    <glyph glyph-name="ij" unicode="&#x133;" horiz-adv-x="506" 
d="M162 492v-492h-72v492h72zM167 713v-81h-81v81h81zM415 492v-580c0 -75 -39 -132 -125 -132h-52v63h39c50 0 66 24 66 72v577h72zM420 713v-81h-81v81h81z" />
    <glyph glyph-name="Lslash" unicode="&#x141;" horiz-adv-x="582" 
d="M188 712v-309l155 98v-65l-155 -98v-270h364v-68h-440v290l-73 -46v65l73 47v356h76z" />
    <glyph glyph-name="lslash" unicode="&#x142;" horiz-adv-x="310" 
d="M172 712v-264l81 50v-62l-81 -50v-252c0 -48 16 -72 66 -72h40v-62h-52c-87 0 -126 56 -126 131v211l-63 -39v62l63 39v308h72z" />
    <glyph glyph-name="OE" unicode="&#x152;" horiz-adv-x="994" 
d="M324 718c70 0 129 -26 173 -80v74h442v-68h-366v-251h313v-68h-313v-257h366v-68h-442v74c-44 -54 -108 -80 -173 -80c-74 0 -133 26 -177 70c-67 67 -71 129 -71 292s4 225 71 292c44 44 103 70 177 70zM325 650c-48 0 -91 -17 -123 -50c-45 -46 -50 -98 -50 -244
s5 -198 50 -244c32 -33 75 -50 123 -50c47 0 92 19 123 51c45 46 49 94 49 243s-4 197 -49 243c-31 32 -76 51 -123 51z" />
    <glyph glyph-name="oe" unicode="&#x153;" horiz-adv-x="861" 
d="M798 227h-332c0 -108 50 -170 145 -170c57 0 90 17 129 56l49 -43c-50 -50 -97 -76 -180 -76c-81 0 -141 31 -177 95c-31 -61 -93 -95 -167 -95c-60 0 -107 21 -141 56c-50 51 -60 120 -60 196s10 146 60 196c34 35 81 56 141 56c76 0 136 -34 168 -95
c32 62 89 95 163 95c128 0 202 -92 202 -238v-33zM727 281c-3 40 -4 56 -16 82c-21 45 -62 74 -115 74s-94 -29 -115 -74c-12 -26 -13 -42 -15 -82h261zM394 246c0 56 -3 116 -39 152c-24 24 -55 36 -90 36s-65 -12 -89 -36c-36 -36 -40 -96 -40 -152c0 -55 3 -115 40 -152
c24 -24 54 -36 89 -36s66 12 90 36c36 37 39 97 39 152z" />
    <glyph glyph-name="Scaron" unicode="&#x160;" horiz-adv-x="588" 
d="M289 718c91 0 151 -24 212 -78l-49 -49c-43 41 -92 62 -166 62c-96 0 -151 -53 -151 -133c0 -35 10 -64 32 -83s56 -31 93 -37l83 -13c66 -10 97 -22 129 -51c38 -33 60 -81 60 -140c0 -125 -97 -202 -246 -202c-106 0 -177 27 -243 94l51 51c59 -59 114 -77 194 -77
c105 0 169 48 169 132c0 38 -11 68 -35 89c-22 20 -42 27 -93 35l-83 12c-56 9 -98 26 -130 54c-36 32 -55 76 -55 134c0 121 87 200 228 200zM449 933l-126 -153h-68l-125 153h69l90 -104l91 104h69z" />
    <glyph glyph-name="scaron" unicode="&#x161;" horiz-adv-x="496" 
d="M246 498c71 0 132 -17 177 -53l-47 -47c-35 27 -80 39 -131 39c-72 0 -110 -30 -110 -81c0 -44 27 -66 88 -72l77 -7c86 -8 145 -40 145 -133c0 -95 -80 -150 -200 -150c-84 0 -149 19 -202 71l48 48c38 -40 92 -57 153 -57c82 0 131 29 131 87c0 44 -24 67 -82 72l-81 7
c-96 8 -147 50 -147 132c0 90 75 144 181 144zM405 747l-125 -153h-68l-126 153h69l91 -105l90 105h69z" />
    <glyph glyph-name="Ydieresis" unicode="&#x178;" horiz-adv-x="514" 
d="M506 712l-210 -418v-294h-76v294l-212 418h82l168 -341l166 341h82zM399 878v-89h-72v89h72zM187 878v-89h-72v89h72z" />
    <glyph glyph-name="Zcaron" unicode="&#x17d;" horiz-adv-x="556" 
d="M499 712v-64l-356 -580h356v-68h-442v64l356 580h-342v68h428zM444 933l-126 -153h-68l-125 153h69l90 -104l91 104h69z" />
    <glyph glyph-name="zcaron" unicode="&#x17e;" horiz-adv-x="459" 
d="M50 0v59l272 369h-257v64h342v-59l-273 -369h273v-64h-357zM390 747l-125 -153h-68l-126 153h69l91 -105l90 105h69z" />
    <glyph glyph-name="longs" unicode="&#x17f;" horiz-adv-x="253" 
d="M268 712v-62h-39c-46 0 -67 -26 -67 -72v-578h-72v580c0 73 42 132 126 132h52z" />
    <glyph glyph-name="florin" unicode="&#x192;" horiz-adv-x="403" 
d="M373 714v-62h-50c-46 0 -71 -27 -79 -72l-34 -196h105v-54h-115l-97 -550h-72l97 550h-62v54h72l34 198c13 73 65 132 149 132h52z" />
    <glyph glyph-name="uni02BB" unicode="&#x2bb;" horiz-adv-x="263" 
d="M175 791v-174h-87v95z" />
    <glyph glyph-name="uni02BC" unicode="&#x2bc;" horiz-adv-x="263" 
d="M175 712v-95l-87 -79v174h87z" />
    <glyph glyph-name="uni02C0" unicode="&#x2c0;" 
d="M213 725v45c63 0 104 -41 104 -96s-41 -96 -104 -96v45c31 0 54 22 54 51s-23 51 -54 51z" />
    <glyph glyph-name="circumflex" unicode="&#x2c6;" 
d="M299 747l126 -153h-69l-91 104l-90 -104h-69l125 153h68z" />
    <glyph glyph-name="caron" unicode="&#x2c7;" 
d="M425 747l-125 -153h-68l-126 153h69l91 -105l90 105h69z" />
    <glyph glyph-name="breve" unicode="&#x2d8;" 
d="M374 729h56c-8 -91 -63 -139 -165 -139s-157 48 -165 139h56c7 -53 48 -83 109 -83s102 30 109 83z" />
    <glyph glyph-name="dotaccent" unicode="&#x2d9;" 
d="M301 691v-89h-72v89h72z" />
    <glyph glyph-name="ring" unicode="&#x2da;" 
d="M265 805c65 0 118 -52 118 -118c0 -65 -53 -119 -118 -119s-118 54 -118 119s53 118 118 118zM265 755c-38 0 -69 -30 -69 -68s31 -69 69 -69s69 31 69 69s-31 68 -69 68z" />
    <glyph glyph-name="ogonek" unicode="&#x2db;" 
d="M166 -216l71 147h64l-58 -147h-77z" />
    <glyph glyph-name="tilde" unicode="&#x2dc;" 
d="M201 706c29 0 46 -8 71 -24c21 -12 36 -20 56 -20c16 0 29 2 59 32l37 -36c-45 -46 -72 -51 -95 -51c-28 0 -47 10 -71 24c-19 11 -36 20 -56 20c-17 0 -29 -2 -59 -32l-37 36c46 46 71 51 95 51z" />
    <glyph glyph-name="hungarumlaut" unicode="&#x2dd;" 
d="M490 747l-109 -153h-65l89 153h85zM307 747l-108 -153h-66l89 153h85z" />
    <glyph glyph-name="gravecomb" unicode="&#x300;" horiz-adv-x="1" 
d="M-3 747l91 -153h-69l-105 153h83z" />
    <glyph glyph-name="acutecomb" unicode="&#x301;" horiz-adv-x="1" 
d="M88 747l-105 -153h-69l91 153h83z" />
    <glyph glyph-name="uni0302" unicode="&#x302;" horiz-adv-x="1" 
d="M34 747l126 -153h-69l-91 104l-90 -104h-69l125 153h68z" />
    <glyph glyph-name="tildecomb" unicode="&#x303;" horiz-adv-x="1" 
d="M-63 706c29 0 46 -8 71 -24c21 -12 36 -20 56 -20c16 0 29 2 59 32l37 -36c-45 -46 -72 -51 -95 -51c-28 0 -47 10 -71 24c-19 11 -36 20 -56 20c-17 0 -29 -2 -59 -32l-37 36c46 46 71 51 95 51z" />
    <glyph glyph-name="uni0304" unicode="&#x304;" horiz-adv-x="1" 
d="M151 670v-56h-301v56h301z" />
    <glyph glyph-name="uni0306" unicode="&#x306;" horiz-adv-x="1" 
d="M110 729h56c-8 -91 -63 -139 -165 -139s-157 48 -165 139h56c7 -53 48 -83 109 -83s102 30 109 83z" />
    <glyph glyph-name="uni0307" unicode="&#x307;" horiz-adv-x="1" 
d="M37 691v-89h-72v89h72z" />
    <glyph glyph-name="uni0308" unicode="&#x308;" horiz-adv-x="1" 
d="M143 691v-89h-72v89h72zM-69 691v-89h-72v89h72z" />
    <glyph glyph-name="hookabovecomb" unicode="&#x309;" horiz-adv-x="1" 
d="M-51 725v45c63 0 104 -41 104 -96s-41 -96 -104 -96v45c31 0 54 22 54 51s-23 51 -54 51z" />
    <glyph glyph-name="uni030A" unicode="&#x30a;" horiz-adv-x="1" 
d="M1 805c65 0 118 -52 118 -118c0 -65 -53 -119 -118 -119s-118 54 -118 119s53 118 118 118zM1 755c-38 0 -69 -30 -69 -68s31 -69 69 -69s69 31 69 69s-31 68 -69 68z" />
    <glyph glyph-name="uni030B" unicode="&#x30b;" horiz-adv-x="1" 
d="M179 747l-109 -153h-65l89 153h85zM-4 747l-108 -153h-66l89 153h85z" />
    <glyph glyph-name="uni030C" unicode="&#x30c;" horiz-adv-x="1" 
d="M160 747l-125 -153h-68l-126 153h69l91 -105l90 105h69z" />
    <glyph glyph-name="uni030F" unicode="&#x30f;" horiz-adv-x="1" 
d="M91 747l89 -153h-66l-108 153h85zM-93 747l89 -153h-65l-109 153h85z" />
    <glyph glyph-name="uni0310" unicode="&#x310;" horiz-adv-x="1" 
d="M110 729h56c-8 -91 -63 -139 -165 -139s-157 48 -165 139h56c7 -53 48 -83 109 -83s102 30 109 83zM38 841v-89h-72v89h72z" />
    <glyph glyph-name="uni0311" unicode="&#x311;" horiz-adv-x="1" 
d="M-108 594h-56c8 91 63 139 165 139s157 -48 165 -139h-56c-7 53 -48 83 -109 83s-102 -30 -109 -83z" />
    <glyph glyph-name="uni0312" unicode="&#x312;" horiz-adv-x="1" 
d="M69 743l-71 -149h-66l58 149h79z" />
    <glyph glyph-name="uni0313" unicode="&#x313;" horiz-adv-x="1" 
d="M55 719l-51 -152h-58l39 152h70z" />
    <glyph glyph-name="uni0316" unicode="&#x316;" horiz-adv-x="1" 
d="M-3 -67l91 -153h-69l-105 153h83z" />
    <glyph glyph-name="uni0317" unicode="&#x317;" horiz-adv-x="1" 
d="M88 -69l-105 -153h-69l91 153h83z" />
    <glyph glyph-name="uni031B" unicode="&#x31b;" horiz-adv-x="1" 
d="M63 521v-58c0 -73 -29 -107 -104 -107h-21v51h20c31 0 47 18 47 66v48h58z" />
    <glyph glyph-name="uni031C" unicode="&#x31c;" horiz-adv-x="1" 
d="M53 -37v-45c-31 0 -54 -22 -54 -51s23 -51 54 -51v-45c-63 0 -104 41 -104 96s41 96 104 96z" />
    <glyph glyph-name="dotbelowcomb" unicode="&#x323;" horiz-adv-x="1" 
d="M37 -78v-89h-72v89h72z" />
    <glyph glyph-name="uni0324" unicode="&#x324;" horiz-adv-x="1" 
d="M143 -77v-89h-72v89h72zM-69 -77v-89h-72v89h72z" />
    <glyph glyph-name="uni0325" unicode="&#x325;" horiz-adv-x="1" 
d="M1 -37c65 0 118 -52 118 -118c0 -65 -53 -119 -118 -119s-118 54 -118 119s53 118 118 118zM1 -87c-38 0 -69 -30 -69 -68s31 -69 69 -69s69 31 69 69s-31 68 -69 68z" />
    <glyph glyph-name="uni0326" unicode="&#x326;" horiz-adv-x="1" 
d="M69 -67l-59 -149h-77l71 149h65z" />
    <glyph glyph-name="uni0327" unicode="&#x327;" horiz-adv-x="1" 
d="M-68 -216l71 149h66l-59 -149h-78z" />
    <glyph glyph-name="uni0328" unicode="&#x328;" horiz-adv-x="1" 
d="M-67 -216l71 147h64l-58 -147h-77z" />
    <glyph glyph-name="uni032C" unicode="&#x32c;" horiz-adv-x="1" 
d="M160 -67l-125 -153h-68l-126 153h69l91 -105l90 105h69z" />
    <glyph glyph-name="uni032D" unicode="&#x32d;" horiz-adv-x="1" 
d="M34 -68l126 -153h-69l-91 104l-90 -104h-69l125 153h68z" />
    <glyph glyph-name="uni032E" unicode="&#x32e;" horiz-adv-x="1" 
d="M110 -67h56c-8 -91 -63 -139 -165 -139s-157 48 -165 139h56c7 -53 48 -83 109 -83s102 30 109 83z" />
    <glyph glyph-name="uni032F" unicode="&#x32f;" horiz-adv-x="1" 
d="M-108 -203h-56c8 91 63 139 165 139s157 -48 165 -139h-56c-7 53 -48 83 -109 83s-102 -30 -109 -83z" />
    <glyph glyph-name="uni0330" unicode="&#x330;" horiz-adv-x="1" 
d="M-63 -79c29 0 46 -8 71 -24c21 -12 36 -20 56 -20c16 0 29 2 59 32l37 -36c-45 -46 -72 -51 -95 -51c-28 0 -47 10 -71 24c-19 11 -36 20 -56 20c-17 0 -29 -2 -59 -32l-37 36c46 46 71 51 95 51z" />
    <glyph glyph-name="uni0331" unicode="&#x331;" horiz-adv-x="1" 
d="M151 -94v-56h-301v56h301z" />
    <glyph glyph-name="uni0340" unicode="&#x340;" horiz-adv-x="1" 
d="M-13 827l111 -154h-69l-125 154h83z" />
    <glyph glyph-name="uni0341" unicode="&#x341;" horiz-adv-x="1" 
d="M88 827l-105 -153h-69l91 153h83z" />
    <glyph glyph-name="uni037E" unicode="&#x37e;" horiz-adv-x="297" 
d="M205 88v-153l-88 -79v232h88zM209 395v-94h-94v94h94z" />
    <glyph glyph-name="uni0394" unicode="&#x394;" horiz-adv-x="610" 
d="M12 0l261 712h63l262 -712h-586zM111 66h388l-195 538z" />
    <glyph glyph-name="uni03A9" unicode="&#x3a9;" horiz-adv-x="650" 
d="M325 650c-48 0 -91 -17 -123 -50c-45 -46 -50 -98 -50 -244c0 -113 4 -179 27 -216s51 -57 92 -76v-64h-195v68h83c-27 22 -43 41 -56 66c-25 50 -27 119 -27 222c0 163 4 225 71 292c44 44 104 70 178 70s134 -26 178 -70c67 -67 71 -129 71 -292
c0 -103 -2 -172 -27 -222c-13 -25 -29 -44 -56 -66h83v-68h-195v64c41 19 69 39 92 76s27 103 27 216c0 146 -5 198 -50 244c-32 33 -75 50 -123 50z" />
    <glyph glyph-name="uni03BC" unicode="&#x3bc;" horiz-adv-x="568" 
d="M90 -220v712h72v-303c0 -87 46 -131 121 -131s123 45 123 131v303h72v-492h-71v55c-35 -40 -79 -60 -135 -60c-46 0 -84 13 -110 42v-257h-72z" />
    <glyph glyph-name="pi" unicode="&#x3c0;" horiz-adv-x="562" 
d="M472 492v-492h-72v428h-238v-428h-72v492h382z" />
    <glyph glyph-name="uni2007" unicode="&#x2007;" horiz-adv-x="522" 
 />
    <glyph glyph-name="uni2008" unicode="&#x2008;" horiz-adv-x="270" 
 />
    <glyph glyph-name="uni200B" unicode="&#x200b;" horiz-adv-x="0" 
 />
    <glyph glyph-name="uniFEFF" unicode="&#xfeff;" horiz-adv-x="0" 
 />
    <glyph glyph-name="endash" unicode="&#x2013;" horiz-adv-x="570" 
d="M494 303v-67h-418v67h418z" />
    <glyph glyph-name="emdash" unicode="&#x2014;" horiz-adv-x="914" 
d="M838 303v-67h-762v67h762z" />
    <glyph glyph-name="quoteleft" unicode="&#x2018;" horiz-adv-x="263" 
d="M175 791v-174h-87v95z" />
    <glyph glyph-name="quoteright" unicode="&#x2019;" horiz-adv-x="263" 
d="M175 712v-95l-87 -79v174h87z" />
    <glyph glyph-name="quotesinglbase" unicode="&#x201a;" horiz-adv-x="263" 
d="M175 84v-95l-87 -79v174h87z" />
    <glyph glyph-name="quotedblleft" unicode="&#x201c;" horiz-adv-x="433" 
d="M345 791v-174h-87v95zM175 791v-174h-87v95z" />
    <glyph glyph-name="quotedblright" unicode="&#x201d;" horiz-adv-x="433" 
d="M345 712v-95l-87 -79v174h87zM175 712v-95l-87 -79v174h87z" />
    <glyph glyph-name="quotedblbase" unicode="&#x201e;" horiz-adv-x="433" 
d="M345 84v-95l-87 -79v174h87zM175 84v-95l-87 -79v174h87z" />
    <glyph glyph-name="dagger" unicode="&#x2020;" horiz-adv-x="602" 
d="M337 712v-203h194v-64h-194v-445h-72v445h-194v64h194v203h72z" />
    <glyph glyph-name="daggerdbl" unicode="&#x2021;" horiz-adv-x="602" 
d="M337 712v-203h194v-64h-194v-397h194v-64h-194v-204h-72v204h-194v64h194v397h-194v64h194v203h72z" />
    <glyph glyph-name="bullet" unicode="&#x2022;" horiz-adv-x="532" 
d="M266 433c90 0 163 -73 163 -163s-73 -163 -163 -163s-163 73 -163 163s73 163 163 163z" />
    <glyph glyph-name="ellipsis" unicode="&#x2026;" horiz-adv-x="757" 
d="M669 92v-92h-92v92h92zM180 92v-92h-92v92h92zM424 92v-92h-92v92h92z" />
    <glyph glyph-name="perthousand" unicode="&#x2030;" horiz-adv-x="1181" 
d="M220 0l334 712h60l-334 -712h-60zM199 344c-75 0 -134 51 -134 135v104c0 84 59 135 134 135c76 0 135 -51 135 -135v-104c0 -84 -59 -135 -135 -135zM199 396c49 0 78 32 78 90v91c0 57 -29 89 -78 89c-48 0 -77 -32 -77 -89v-91c0 -58 29 -90 77 -90zM634 -6
c-76 0 -135 51 -135 135v104c0 84 59 135 135 135s135 -51 135 -135v-104c0 -84 -59 -135 -135 -135zM634 46c49 0 77 32 77 89v91c0 58 -28 90 -77 90c-48 0 -77 -32 -77 -90v-91c0 -57 29 -89 77 -89zM981 -6c-76 0 -135 51 -135 135v104c0 84 59 135 135 135
s135 -51 135 -135v-104c0 -84 -59 -135 -135 -135zM981 46c49 0 77 32 77 89v91c0 58 -28 90 -77 90c-48 0 -77 -32 -77 -90v-91c0 -57 29 -89 77 -89z" />
    <glyph glyph-name="minute" unicode="&#x2032;" horiz-adv-x="274" 
d="M210 712l-73 -311h-73l73 311h73z" />
    <glyph glyph-name="second" unicode="&#x2033;" horiz-adv-x="436" 
d="M210 712l-73 -311h-73l73 311h73zM372 712l-73 -311h-73l73 311h73z" />
    <glyph glyph-name="guilsinglleft" unicode="&#x2039;" horiz-adv-x="328" 
d="M250 479v-90l-120 -120l120 -121v-89l-210 210z" />
    <glyph glyph-name="guilsinglright" unicode="&#x203a;" horiz-adv-x="328" 
d="M78 479l210 -210l-210 -210v90l120 120l-120 121v89z" />
    <glyph glyph-name="fraction" unicode="&#x2044;" horiz-adv-x="185" 
d="M-104 0l333 712h60l-333 -712h-60z" />
    <glyph glyph-name="uni2070" unicode="&#x2070;" horiz-adv-x="228" 
d="M114 430c-51 1 -88 37 -88 85v120c0 50 37 84 88 84s88 -34 88 -84v-120c0 -48 -37 -84 -88 -85zM115 470c29 0 44 20 44 47v116c0 27 -15 47 -44 47c-30 0 -45 -20 -45 -47v-116c0 -27 15 -47 45 -47z" />
    <glyph glyph-name="uni2071" unicode="&#x2071;" horiz-adv-x="142" 
d="M95 595v-267h-48v267h48zM96 713v-56h-49v56h49z" />
    <glyph glyph-name="uni2074" unicode="&#x2074;" horiz-adv-x="218" 
d="M129 434v45h-108v38l97 199h43l-97 -199h65v70h40v-70h28v-38h-28v-45h-40z" />
    <glyph glyph-name="uni2075" unicode="&#x2075;" horiz-adv-x="221" 
d="M112 431c-25 0 -44 5 -58 16c-14 10 -23 27 -26 50h41c4 -19 16 -29 43 -29c28 0 44 20 44 58c0 43 -13 60 -43 60c-23 0 -35 -8 -47 -31h-35v161h153v-35h-119v-85c17 17 34 23 52 23c24 0 42 -6 58 -22c15 -15 22 -39 22 -71c0 -29 -6 -52 -22 -70
c-14 -17 -36 -25 -63 -25z" />
    <glyph glyph-name="uni2076" unicode="&#x2076;" horiz-adv-x="229" 
d="M115 431c-50 0 -89 34 -89 90c0 21 3 41 19 73l61 122h47l-58 -117c7 5 16 8 27 8c46 -1 82 -31 82 -86c0 -56 -39 -90 -89 -90zM114 469c31 0 47 21 47 52c0 34 -17 52 -47 52c-29 0 -45 -19 -45 -52c0 -31 15 -52 45 -52z" />
    <glyph glyph-name="uni2077" unicode="&#x2077;" horiz-adv-x="225" 
d="M65 434l95 247h-84v-42h-41v77h165v-36l-94 -246h-41z" />
    <glyph glyph-name="uni2078" unicode="&#x2078;" horiz-adv-x="223" 
d="M112 431c-50 0 -92 33 -92 83c0 29 16 53 42 66c-25 13 -37 34 -37 61c0 47 41 78 87 78c45 0 86 -31 86 -78c0 -27 -13 -48 -38 -61c28 -13 43 -37 43 -66c0 -50 -42 -83 -91 -83zM112 468c26 0 47 20 47 47s-21 48 -47 48c-27 0 -49 -21 -49 -48s22 -47 49 -47z
M112 597c23 0 43 18 43 42c0 23 -20 42 -43 42c-25 0 -44 -19 -44 -42c0 -24 19 -42 44 -42z" />
    <glyph glyph-name="uni2079" unicode="&#x2079;" horiz-adv-x="229" 
d="M76 434l59 117c-8 -5 -17 -8 -28 -8c-46 1 -82 31 -82 86c0 56 39 90 89 90s89 -34 89 -90c0 -21 -3 -41 -19 -73l-61 -122h-47zM115 577c29 0 45 19 45 52c0 31 -15 52 -45 52c-31 0 -47 -21 -47 -52c0 -34 17 -52 47 -52z" />
    <glyph glyph-name="uni207F" unicode="&#x207f;" horiz-adv-x="312" 
d="M171 601c29 0 51 -9 68 -25c20 -19 27 -44 27 -77v-171h-49v165c0 47 -16 63 -57 63c-34 0 -62 -22 -62 -65v-163h-49v269h49v-34c14 23 40 38 73 38z" />
    <glyph glyph-name="uni2080" unicode="&#x2080;" horiz-adv-x="228" 
d="M114 -154c-51 1 -88 37 -88 85v120c0 50 37 84 88 84s88 -34 88 -84v-120c0 -48 -37 -84 -88 -85zM115 -114c29 0 44 20 44 47v116c0 27 -15 47 -44 47c-30 0 -45 -20 -45 -47v-116c0 -27 15 -47 45 -47z" />
    <glyph glyph-name="uni2081" unicode="&#x2081;" horiz-adv-x="230" 
d="M110 -150v232l-60 -51v50l60 51h43v-282h-43z" />
    <glyph glyph-name="uni2082" unicode="&#x2082;" horiz-adv-x="221" 
d="M27 -150v37l110 126c14 15 18 29 18 45c0 21 -15 40 -42 40c-25 0 -41 -14 -43 -43h-43c3 50 38 80 86 80c50 0 84 -34 84 -77c0 -24 -9 -43 -30 -66l-91 -105h115v-37h-164z" />
    <glyph glyph-name="uni2083" unicode="&#x2083;" horiz-adv-x="221" 
d="M106 -153c-47 0 -86 27 -89 80h43c2 -24 22 -41 46 -41c27 0 47 18 47 48c0 31 -22 45 -48 45h-9v33h9c24 0 43 15 43 41c0 28 -18 42 -42 42c-23 0 -38 -15 -42 -38h-43c5 49 36 78 85 78c51 0 85 -33 85 -77c0 -32 -15 -52 -39 -61c26 -11 44 -34 44 -68
c0 -49 -37 -82 -90 -82z" />
    <glyph glyph-name="uni2084" unicode="&#x2084;" horiz-adv-x="218" 
d="M129 -150v45h-108v38l97 199h43l-97 -199h65v70h40v-70h28v-38h-28v-45h-40z" />
    <glyph glyph-name="uni2085" unicode="&#x2085;" horiz-adv-x="221" 
d="M112 -153c-25 0 -44 5 -58 16c-14 10 -23 27 -26 50h41c4 -19 16 -29 43 -29c28 0 44 20 44 58c0 43 -13 60 -43 60c-23 0 -35 -8 -47 -31h-35v161h153v-35h-119v-85c17 17 34 23 52 23c24 0 42 -6 58 -22c15 -15 22 -39 22 -71c0 -29 -6 -52 -22 -70
c-14 -17 -36 -25 -63 -25z" />
    <glyph glyph-name="uni2086" unicode="&#x2086;" horiz-adv-x="229" 
d="M115 -153c-50 0 -89 34 -89 90c0 21 3 41 19 73l61 122h47l-58 -117c7 5 16 8 27 8c46 -1 82 -31 82 -86c0 -56 -39 -90 -89 -90zM114 -115c31 0 47 21 47 52c0 34 -17 52 -47 52c-29 0 -45 -19 -45 -52c0 -31 15 -52 45 -52z" />
    <glyph glyph-name="uni2087" unicode="&#x2087;" horiz-adv-x="225" 
d="M65 -150l95 247h-84v-42h-41v77h165v-36l-94 -246h-41z" />
    <glyph glyph-name="uni2088" unicode="&#x2088;" horiz-adv-x="223" 
d="M112 -153c-50 0 -92 33 -92 83c0 29 16 53 42 66c-25 13 -37 34 -37 61c0 47 41 78 87 78c45 0 86 -31 86 -78c0 -27 -13 -48 -38 -61c28 -13 43 -37 43 -66c0 -50 -42 -83 -91 -83zM112 -116c26 0 47 20 47 47s-21 48 -47 48c-27 0 -49 -21 -49 -48s22 -47 49 -47z
M112 13c23 0 43 18 43 42c0 23 -20 42 -43 42c-25 0 -44 -19 -44 -42c0 -24 19 -42 44 -42z" />
    <glyph glyph-name="uni2089" unicode="&#x2089;" horiz-adv-x="229" 
d="M76 -150l59 117c-8 -5 -17 -8 -28 -8c-46 1 -82 31 -82 86c0 56 39 90 89 90s89 -34 89 -90c0 -21 -3 -41 -19 -73l-61 -122h-47zM115 -7c29 0 45 19 45 52c0 31 -15 52 -45 52c-31 0 -47 -21 -47 -52c0 -34 17 -52 47 -52z" />
    <glyph glyph-name="uni2090" unicode="&#x2090;" horiz-adv-x="289" 
d="M118 -164c-31 0 -53 7 -70 25c-14 15 -21 34 -21 55c0 47 34 77 95 77h74v24c0 34 -18 53 -63 53c-29 0 -45 -8 -61 -27l-32 29c24 27 51 41 95 41c73 0 108 -34 108 -93v-180h-49v28c-15 -22 -39 -32 -76 -32zM127 -125c42 0 69 14 69 61v22h-56c-45 0 -65 -15 -65 -41
c0 -6 0 -15 6 -24c7 -11 16 -18 46 -18z" />
    <glyph glyph-name="uni2091" unicode="&#x2091;" horiz-adv-x="291" 
d="M154 -164c-72 0 -119 47 -119 134c0 99 42 143 111 143c67 0 110 -49 110 -143v-6h-176c1 -55 27 -87 74 -87c27 0 46 8 64 27l29 -28c-26 -29 -55 -40 -93 -40zM80 -5h133c-1 25 -7 43 -17 56s-28 21 -50 21s-39 -8 -50 -21c-10 -13 -15 -31 -16 -56z" />
    <glyph glyph-name="uni2092" unicode="&#x2092;" horiz-adv-x="294" 
d="M147 113c36 0 63 -14 81 -32c22 -22 31 -52 31 -107c0 -54 -9 -84 -31 -107c-18 -18 -45 -31 -81 -31s-63 13 -81 31c-22 23 -31 53 -31 107c0 55 9 85 31 107c17 18 45 32 81 32zM147 68c-19 0 -35 -7 -45 -18c-12 -13 -19 -38 -19 -76c0 -37 7 -62 19 -75
c10 -11 26 -18 45 -18s36 7 45 18c12 13 19 38 19 75c0 38 -7 63 -19 76c-9 11 -26 18 -45 18z" />
    <glyph glyph-name="uni2093" unicode="&#x2093;" horiz-adv-x="272" 
d="M252 110l-89 -133l91 -138h-57l-61 97l-61 -97h-57l92 138l-88 133h58l56 -93l59 93h57z" />
    <glyph glyph-name="lira" unicode="&#x20a4;" horiz-adv-x="571" 
d="M106 0v192l-67 -44v54l67 41v101l-67 -44v54l67 41v317h76v-268l166 105v-54l-166 -105v-98l166 105v-54l-166 -105v-170h100c106 0 162 54 182 144h77c-24 -135 -111 -212 -250 -212h-185z" />
    <glyph glyph-name="dong" unicode="&#x20ab;" horiz-adv-x="456" 
d="M214 127c-55 0 -90 22 -113 54c-28 40 -37 93 -37 150s9 110 37 150c23 32 58 54 113 54c56 0 90 -27 109 -66v132h-103v41h103v70h53v-70h51v-41h-51v-470h-52v62c-20 -39 -54 -66 -110 -66zM68 0v49h308v-49h-308zM220 176c86 0 103 72 103 155c0 82 -17 156 -103 156
c-89 0 -103 -72 -103 -156c0 -83 16 -155 103 -155z" />
    <glyph glyph-name="Euro" unicode="&#x20ac;" horiz-adv-x="679" 
d="M362 718c129 0 222 -79 247 -212h-78c-19 88 -80 144 -169 144c-48 0 -90 -17 -123 -50c-33 -34 -44 -70 -48 -143h219v-50h-220v-97h220v-50h-220c4 -77 15 -114 49 -148c33 -33 75 -50 123 -50c89 0 150 56 169 144h78c-25 -133 -119 -212 -247 -212
c-74 0 -134 26 -178 70c-52 52 -67 101 -70 196h-67v50h67v97h-67v50h67c4 92 19 140 70 191c44 44 104 70 178 70z" />
    <glyph glyph-name="uni20B4" unicode="&#x20b4;" horiz-adv-x="625" 
d="M323 -6c-148 0 -246 77 -246 202c0 23 3 44 9 64h-39v50h64c8 10 16 19 26 27c30 26 63 40 130 50l78 12c13 2 25 4 38 8h-336v50h410c11 17 16 38 16 63c0 79 -55 132 -150 132c-75 0 -122 -21 -166 -61l-49 49c61 55 121 78 212 78c141 0 228 -80 228 -201
c0 -22 -3 -42 -8 -60h38v-50h-62c-7 -8 -14 -16 -22 -23c-31 -27 -75 -45 -131 -54c-40 -7 -80 -11 -121 -20h336v-50h-410c-11 -19 -15 -41 -15 -66c0 -83 64 -132 168 -132c80 0 135 19 194 78l52 -52c-67 -67 -137 -94 -244 -94z" />
    <glyph glyph-name="uni20B8" unicode="&#x20b8;" horiz-adv-x="548" 
d="M518 577v-68h-206v-509h-76v509h-206v68h488zM518 712v-49h-488v49h488z" />
    <glyph glyph-name="uni20BD" unicode="&#x20bd;" horiz-adv-x="630" 
d="M103 0v293h-64v68h64v351h265c129 0 220 -82 220 -209s-91 -210 -220 -210h-189v-293h-76zM179 361h183c89 0 150 48 150 142s-61 141 -150 141h-183v-283z" />
    <glyph glyph-name="uni2116" unicode="&#x2116;" horiz-adv-x="970" 
d="M577 712v-712h-68l-334 574v-574h-72v712h68l334 -573v573h72zM908 318v-58h-262v58h262zM778 716c40 0 73 -14 95 -37c34 -34 41 -84 41 -139s-7 -105 -41 -139c-22 -23 -55 -37 -95 -37c-41 0 -73 14 -96 37c-34 34 -41 84 -41 139s7 105 41 139c23 23 55 37 96 37z
M778 662c-22 0 -40 -8 -53 -21c-21 -21 -23 -63 -23 -101s2 -80 23 -101c13 -13 32 -21 53 -21s39 8 52 21c21 21 23 63 23 101s-2 80 -23 101c-13 13 -31 21 -52 21z" />
    <glyph glyph-name="uni2117" unicode="&#x2117;" horiz-adv-x="876" 
d="M438 -6c-200 0 -362 162 -362 362s162 362 362 362s362 -162 362 -362s-162 -362 -362 -362zM438 47c168 0 305 139 305 309s-137 309 -305 309s-304 -139 -304 -309s136 -309 304 -309zM309 158v397h175c69 0 125 -52 125 -119s-57 -119 -125 -119h-120v-159h-55z
M364 366h114c44 0 75 30 75 70s-31 70 -75 70h-114v-140z" />
    <glyph glyph-name="trademark" unicode="&#x2122;" horiz-adv-x="853" 
d="M795 712v-426h-50v320l-114 -253h-44l-116 253v-320h-51v426h51l138 -301l136 301h50zM327 712v-46h-120v-380h-51v380h-120v46h291z" />
    <glyph glyph-name="Omega" unicode="&#x2126;" horiz-adv-x="650" 
d="M325 650c-48 0 -91 -17 -123 -50c-45 -46 -50 -98 -50 -244c0 -113 4 -179 27 -216s51 -57 92 -76v-64h-195v68h83c-27 22 -43 41 -56 66c-25 50 -27 119 -27 222c0 163 4 225 71 292c44 44 104 70 178 70s134 -26 178 -70c67 -67 71 -129 71 -292
c0 -103 -2 -172 -27 -222c-13 -25 -29 -44 -56 -66h83v-68h-195v64c41 19 69 39 92 76s27 103 27 216c0 146 -5 198 -50 244c-32 33 -75 50 -123 50z" />
    <glyph glyph-name="uni2150" unicode="&#x2150;" horiz-adv-x="848" 
d="M226 0l333 712h60l-333 -712h-60zM609 0l147 375h-137v-70h-53v122h246v-51l-147 -376h-56zM158 285v363l-83 -73v66l83 71h57v-427h-57z" />
    <glyph glyph-name="uni2151" unicode="&#x2151;" horiz-adv-x="840" 
d="M226 0l333 712h60l-333 -712h-60zM611 0l94 185c-12 -4 -26 -7 -41 -7c-64 0 -111 50 -111 123c0 77 51 130 125 130s124 -49 124 -127c0 -31 -8 -57 -29 -100l-100 -204h-62zM678 226c40 0 67 29 67 77c0 47 -26 76 -67 76s-67 -29 -67 -76c0 -44 24 -77 67 -77z
M158 285v363l-83 -73v66l83 71h57v-427h-57z" />
    <glyph glyph-name="uni2152" unicode="&#x2152;" horiz-adv-x="1016" 
d="M168 0l333 712h60l-333 -712h-60zM564 0v363l-83 -73v66l83 71h57v-427h-57zM850 -4c-72 0 -127 46 -127 121v192c0 75 55 122 127 122s126 -47 126 -122v-192c0 -75 -54 -121 -126 -121zM850 48c44 0 69 29 69 71v189c0 41 -25 71 -69 71c-45 0 -70 -29 -70 -71v-189
c0 -43 25 -71 70 -71zM158 285v363l-83 -73v66l83 71h57v-427h-57z" />
    <glyph glyph-name="onethird" unicode="&#x2153;" horiz-adv-x="851" 
d="M226 0l333 712h60l-333 -712h-60zM678 -4c-72 0 -135 37 -138 119h58c2 -49 39 -68 80 -68c44 0 79 28 79 73c0 46 -28 73 -82 73h-10v51h10c48 0 75 26 75 67c0 45 -34 69 -73 69c-43 0 -70 -25 -74 -64h-57c5 72 60 115 131 115c77 0 130 -47 130 -119
c0 -46 -20 -74 -60 -91c44 -17 67 -49 67 -101c0 -81 -61 -124 -136 -124zM158 285v363l-83 -73v66l83 71h57v-427h-57z" />
    <glyph glyph-name="twothirds" unicode="&#x2154;" horiz-adv-x="856" 
d="M231 0l333 712h60l-333 -712h-60zM683 -4c-72 0 -135 37 -138 119h58c2 -49 39 -68 80 -68c44 0 79 28 79 73c0 46 -28 73 -82 73h-10v51h10c48 0 75 26 75 67c0 45 -34 69 -73 69c-43 0 -70 -25 -74 -64h-57c5 72 60 115 131 115c77 0 130 -47 130 -119
c0 -46 -20 -74 -60 -91c44 -17 67 -49 67 -101c0 -81 -61 -124 -136 -124zM41 285v52l175 202c19 21 25 37 25 63c0 36 -27 62 -72 62c-39 0 -71 -17 -71 -67h-56c0 72 50 119 127 119s128 -45 128 -114c0 -41 -11 -61 -42 -96l-149 -169h192v-52h-257z" />
    <glyph glyph-name="uni2155" unicode="&#x2155;" horiz-adv-x="843" 
d="M226 0l333 712h60l-333 -712h-60zM681 -4c-42 0 -73 12 -92 32c-22 22 -29 47 -32 78h58c4 -38 25 -60 66 -60c19 0 36 5 48 17c19 20 20 49 20 79c0 50 -12 93 -65 93c-35 0 -60 -16 -68 -40h-52v232h233v-50h-182v-123c16 18 40 31 77 31c33 0 60 -11 77 -29
c32 -33 38 -74 38 -114c0 -45 -6 -82 -36 -113c-20 -20 -50 -33 -90 -33zM158 285v363l-83 -73v66l83 71h57v-427h-57z" />
    <glyph glyph-name="uni2156" unicode="&#x2156;" horiz-adv-x="848" 
d="M231 0l333 712h60l-333 -712h-60zM686 -4c-42 0 -73 12 -92 32c-22 22 -29 47 -32 78h58c4 -38 25 -60 66 -60c19 0 36 5 48 17c19 20 20 49 20 79c0 50 -12 93 -65 93c-35 0 -60 -16 -68 -40h-52v232h233v-50h-182v-123c16 18 40 31 77 31c33 0 60 -11 77 -29
c32 -33 38 -74 38 -114c0 -45 -6 -82 -36 -113c-20 -20 -50 -33 -90 -33zM41 285v52l175 202c19 21 25 37 25 63c0 36 -27 62 -72 62c-39 0 -71 -17 -71 -67h-56c0 72 50 119 127 119s128 -45 128 -114c0 -41 -11 -61 -42 -96l-149 -169h192v-52h-257z" />
    <glyph glyph-name="uni2157" unicode="&#x2157;" horiz-adv-x="849" 
d="M232 0l333 712h60l-333 -712h-60zM687 -4c-42 0 -73 12 -92 32c-22 22 -29 47 -32 78h58c4 -38 25 -60 66 -60c19 0 36 5 48 17c19 20 20 49 20 79c0 50 -12 93 -65 93c-35 0 -60 -16 -68 -40h-52v232h233v-50h-182v-123c16 18 40 31 77 31c33 0 60 -11 77 -29
c32 -33 38 -74 38 -114c0 -45 -6 -82 -36 -113c-20 -20 -50 -33 -90 -33zM163 281c-72 0 -135 37 -138 119h58c2 -49 39 -68 80 -68c44 0 79 28 79 73c0 46 -28 73 -82 73h-10v51h10c48 0 75 26 75 67c0 45 -34 69 -73 69c-43 0 -70 -25 -74 -64h-57c5 72 60 115 131 115
c77 0 130 -47 130 -119c0 -46 -20 -74 -60 -91c44 -17 67 -49 67 -101c0 -81 -61 -124 -136 -124z" />
    <glyph glyph-name="uni2158" unicode="&#x2158;" horiz-adv-x="839" 
d="M222 0l333 712h60l-333 -712h-60zM677 -4c-42 0 -73 12 -92 32c-22 22 -29 47 -32 78h58c4 -38 25 -60 66 -60c19 0 36 5 48 17c19 20 20 49 20 79c0 50 -12 93 -65 93c-35 0 -60 -16 -68 -40h-52v232h233v-50h-182v-123c16 18 40 31 77 31c33 0 60 -11 77 -29
c32 -33 38 -74 38 -114c0 -45 -6 -82 -36 -113c-20 -20 -50 -33 -90 -33zM193 285v66h-169v50l151 311h57l-150 -311h111v107h55v-107h49v-50h-49v-66h-55z" />
    <glyph glyph-name="uni2159" unicode="&#x2159;" horiz-adv-x="849" 
d="M226 0l333 712h60l-333 -712h-60zM682 -4c-77 0 -129 49 -129 127c0 30 6 57 29 101l107 203h62l-100 -189c12 6 25 11 43 11c68 0 117 -50 117 -123c0 -77 -51 -130 -129 -130zM682 48c42 0 72 29 72 76c0 44 -27 77 -72 77c-43 0 -72 -29 -72 -77c0 -47 29 -76 72 -76z
M158 285v363l-83 -73v66l83 71h57v-427h-57z" />
    <glyph glyph-name="uni215A" unicode="&#x215a;" horiz-adv-x="847" 
d="M224 0l333 712h60l-333 -712h-60zM680 -4c-77 0 -129 49 -129 127c0 30 6 57 29 101l107 203h62l-100 -189c12 6 25 11 43 11c68 0 117 -50 117 -123c0 -77 -51 -130 -129 -130zM680 48c42 0 72 29 72 76c0 44 -27 77 -72 77c-43 0 -72 -29 -72 -77c0 -47 29 -76 72 -76z
M166 281c-42 0 -73 12 -92 32c-22 22 -29 47 -32 78h58c4 -38 25 -60 66 -60c19 0 36 5 48 17c19 20 20 49 20 79c0 50 -12 93 -65 93c-35 0 -60 -16 -68 -40h-52v232h233v-50h-182v-123c16 18 40 31 77 31c33 0 60 -11 77 -29c32 -33 38 -74 38 -114c0 -45 -6 -82 -36 -113
c-20 -20 -50 -33 -90 -33z" />
    <glyph glyph-name="oneeighth" unicode="&#x215b;" horiz-adv-x="847" 
d="M226 0l333 712h60l-333 -712h-60zM681 -4c-76 0 -135 48 -135 124c0 50 28 82 63 101c-32 19 -56 48 -56 92c0 70 56 118 128 118s127 -48 127 -118c0 -44 -23 -73 -56 -92c36 -19 64 -51 64 -101c0 -76 -60 -124 -135 -124zM681 47c45 0 78 32 78 74s-34 74 -78 74
s-78 -32 -78 -74s33 -74 78 -74zM681 246c41 0 70 27 70 67c0 39 -27 67 -70 67s-70 -28 -70 -67c0 -40 28 -67 70 -67zM158 285v363l-83 -73v66l83 71h57v-427h-57z" />
    <glyph glyph-name="threeeighths" unicode="&#x215c;" horiz-adv-x="853" 
d="M232 0l333 712h60l-333 -712h-60zM687 -4c-76 0 -135 48 -135 124c0 50 28 82 63 101c-32 19 -56 48 -56 92c0 70 56 118 128 118s127 -48 127 -118c0 -44 -23 -73 -56 -92c36 -19 64 -51 64 -101c0 -76 -60 -124 -135 -124zM687 47c45 0 78 32 78 74s-34 74 -78 74
s-78 -32 -78 -74s33 -74 78 -74zM687 246c41 0 70 27 70 67c0 39 -27 67 -70 67s-70 -28 -70 -67c0 -40 28 -67 70 -67zM163 281c-72 0 -135 37 -138 119h58c2 -49 39 -68 80 -68c44 0 79 28 79 73c0 46 -28 73 -82 73h-10v51h10c48 0 75 26 75 67c0 45 -34 69 -73 69
c-43 0 -70 -25 -74 -64h-57c5 72 60 115 131 115c77 0 130 -47 130 -119c0 -46 -20 -74 -60 -91c44 -17 67 -49 67 -101c0 -81 -61 -124 -136 -124z" />
    <glyph glyph-name="fiveeighths" unicode="&#x215d;" horiz-adv-x="845" 
d="M224 0l333 712h60l-333 -712h-60zM679 -4c-76 0 -135 48 -135 124c0 50 28 82 63 101c-32 19 -56 48 -56 92c0 70 56 118 128 118s127 -48 127 -118c0 -44 -23 -73 -56 -92c36 -19 64 -51 64 -101c0 -76 -60 -124 -135 -124zM679 47c45 0 78 32 78 74s-34 74 -78 74
s-78 -32 -78 -74s33 -74 78 -74zM679 246c41 0 70 27 70 67c0 39 -27 67 -70 67s-70 -28 -70 -67c0 -40 28 -67 70 -67zM166 281c-42 0 -73 12 -92 32c-22 22 -29 47 -32 78h58c4 -38 25 -60 66 -60c19 0 36 5 48 17c19 20 20 49 20 79c0 50 -12 93 -65 93
c-35 0 -60 -16 -68 -40h-52v232h233v-50h-182v-123c16 18 40 31 77 31c33 0 60 -11 77 -29c32 -33 38 -74 38 -114c0 -45 -6 -82 -36 -113c-20 -20 -50 -33 -90 -33z" />
    <glyph glyph-name="seveneighths" unicode="&#x215e;" horiz-adv-x="840" 
d="M219 0l333 712h60l-333 -712h-60zM674 -4c-76 0 -135 48 -135 124c0 50 28 82 63 101c-32 19 -56 48 -56 92c0 70 56 118 128 118s127 -48 127 -118c0 -44 -23 -73 -56 -92c36 -19 64 -51 64 -101c0 -76 -60 -124 -135 -124zM674 47c45 0 78 32 78 74s-34 74 -78 74
s-78 -32 -78 -74s33 -74 78 -74zM674 246c41 0 70 27 70 67c0 39 -27 67 -70 67s-70 -28 -70 -67c0 -40 28 -67 70 -67zM84 285l147 375h-137v-70h-53v122h246v-51l-147 -376h-56z" />
    <glyph glyph-name="uni215F" unicode="&#x215f;" horiz-adv-x="515" 
d="M226 0l333 712h60l-333 -712h-60zM158 285v363l-83 -73v66l83 71h57v-427h-57z" />
    <glyph glyph-name="uni2189" unicode="&#x2189;" horiz-adv-x="854" 
d="M229 0l333 712h60l-333 -712h-60zM681 -4c-72 0 -135 37 -138 119h58c2 -49 39 -68 80 -68c44 0 79 28 79 73c0 46 -28 73 -82 73h-10v51h10c48 0 75 26 75 67c0 45 -34 69 -73 69c-43 0 -70 -25 -74 -64h-57c5 72 60 115 131 115c77 0 130 -47 130 -119
c0 -46 -20 -74 -60 -91c44 -17 67 -49 67 -101c0 -81 -61 -124 -136 -124zM167 281c-72 0 -127 46 -127 121v192c0 75 55 122 127 122s126 -47 126 -122v-192c0 -75 -54 -121 -126 -121zM167 333c44 0 69 29 69 71v189c0 41 -25 71 -69 71c-45 0 -70 -29 -70 -71v-189
c0 -43 25 -71 70 -71z" />
    <glyph glyph-name="arrowleft" unicode="&#x2190;" horiz-adv-x="1027" 
d="M548 668l-365 -364h789v-70h-789l365 -364h-94l-399 399l399 399h94z" />
    <glyph glyph-name="arrowup" unicode="&#x2191;" horiz-adv-x="1027" 
d="M513 727l399 -399v-94l-364 365v-789h-70v789l-364 -365v94z" />
    <glyph glyph-name="arrowright" unicode="&#x2192;" horiz-adv-x="1027" 
d="M573 668l399 -399l-399 -399h-94l365 364h-789v70h789l-365 364h94z" />
    <glyph glyph-name="arrowdown" unicode="&#x2193;" horiz-adv-x="1027" 
d="M548 726v-789l364 365v-94l-399 -399l-399 399v94l364 -365v789h70z" />
    <glyph glyph-name="uni2196" unicode="&#x2196;" horiz-adv-x="1027" 
d="M741 593l66 -66h-515l558 -558l-50 -50l-557 558v-515l-67 66v565h565z" />
    <glyph glyph-name="uni2197" unicode="&#x2197;" horiz-adv-x="1027" 
d="M850 593v-565l-67 -66v515l-557 -558l-50 50l558 558h-515l66 66h565z" />
    <glyph glyph-name="uni2198" unicode="&#x2198;" horiz-adv-x="1027" 
d="M227 606l558 -558l-1 517l66 -68v-564h-564l-66 66l515 -1l-558 558z" />
    <glyph glyph-name="uni2199" unicode="&#x2199;" horiz-adv-x="1027" 
d="M800 606l50 -50l-558 -558l515 1l-66 -66h-564v564l66 68l-1 -517z" />
    <glyph glyph-name="partialdiff" unicode="&#x2202;" horiz-adv-x="542" 
d="M260 -6c-58 0 -105 22 -137 55c-49 50 -57 120 -57 195c0 81 9 149 57 198c28 28 72 53 130 53c48 0 91 -11 128 -58v70c0 80 -40 149 -135 149c-56 0 -83 -17 -118 -50l-46 46c51 47 92 66 166 66c133 0 205 -89 205 -216v-258c0 -75 -8 -145 -57 -195
c-32 -33 -79 -55 -136 -55zM260 58c33 0 62 13 84 36c35 36 37 96 37 150c0 55 -2 114 -37 151c-22 22 -51 36 -84 36c-34 0 -63 -14 -85 -36c-35 -37 -37 -96 -37 -151c0 -54 2 -114 37 -150c22 -23 51 -36 85 -36z" />
    <glyph glyph-name="Delta" unicode="&#x2206;" horiz-adv-x="610" 
d="M12 0l261 712h63l262 -712h-586zM111 66h388l-195 538z" />
    <glyph glyph-name="product" unicode="&#x220f;" horiz-adv-x="696" 
d="M593 760v-980h-76v912h-338v-912h-76v980h490z" />
    <glyph glyph-name="summation" unicode="&#x2211;" horiz-adv-x="551" 
d="M499 760v-68h-353l180 -375v-69l-182 -400h356v-68h-443v65l202 438l-201 413v64h441z" />
    <glyph glyph-name="minus" unicode="&#x2212;" horiz-adv-x="522" 
d="M470 304v-67h-418v67h418z" />
    <glyph glyph-name="uni2219" unicode="&#x2219;" horiz-adv-x="522" 
d="M266 433c90 0 163 -73 163 -163s-73 -163 -163 -163s-163 73 -163 163s73 163 163 163z" />
    <glyph glyph-name="radical" unicode="&#x221a;" horiz-adv-x="532" 
d="M502 712v-69h-96l-202 -643h-64l-129 392h73l88 -295l181 615h149z" />
    <glyph glyph-name="uni221B" unicode="&#x221b;" horiz-adv-x="532" 
d="M502 712v-69h-96l-202 -643h-64l-129 392h73l88 -295l181 615h149zM100 429c-47 0 -86 27 -89 80h43c2 -24 22 -41 46 -41c27 0 47 18 47 48c0 31 -22 45 -48 45h-9v33h9c24 0 43 15 43 41c0 28 -18 42 -42 42c-23 0 -38 -15 -42 -38h-43c5 49 36 78 85 78
c51 0 85 -33 85 -77c0 -32 -15 -52 -39 -61c26 -11 44 -34 44 -68c0 -49 -37 -82 -90 -82z" />
    <glyph glyph-name="uni221C" unicode="&#x221c;" horiz-adv-x="532" 
d="M502 712v-69h-96l-202 -643h-64l-129 392h73l88 -295l181 615h149zM124 430v45h-108v38l97 199h43l-97 -199h65v70h40v-70h28v-38h-28v-45h-40z" />
    <glyph glyph-name="infinity" unicode="&#x221e;" horiz-adv-x="807" 
d="M582 430c96 0 158 -70 158 -160s-62 -159 -158 -159c-70 0 -119 32 -178 104c-59 -72 -109 -105 -177 -105c-96 0 -160 70 -160 160s64 160 160 160c66 0 118 -34 177 -106c59 72 108 106 178 106zM229 363c-54 0 -93 -38 -93 -94s39 -93 93 -93c49 0 83 37 129 93
c-46 56 -80 94 -129 94zM579 362c-49 0 -84 -37 -130 -93c46 -56 81 -93 130 -93c54 0 92 37 92 93s-38 93 -92 93z" />
    <glyph glyph-name="integral" unicode="&#x222b;" horiz-adv-x="371" 
d="M334 713v-62h-38c-49 0 -73 -28 -73 -77v-654c0 -85 -50 -140 -136 -140h-50v62h39c49 0 73 28 73 77v654c0 85 50 140 136 140h49z" />
    <glyph glyph-name="approxequal" unicode="&#x2248;" horiz-adv-x="539" 
d="M178 419c35 0 67 -14 105 -31c28 -13 51 -24 78 -24c28 0 45 6 84 45l45 -45c-56 -56 -84 -68 -129 -68c-35 0 -68 14 -106 31c-28 13 -51 24 -78 24c-28 0 -45 -6 -84 -45l-44 45c56 56 84 68 129 68zM178 242c35 0 67 -14 105 -31c28 -13 51 -24 78 -24
c28 0 45 6 84 45l45 -45c-56 -56 -84 -68 -129 -68c-35 0 -68 14 -106 31c-28 13 -51 24 -78 24c-28 0 -45 -6 -84 -45l-44 45c56 56 84 68 129 68z" />
    <glyph glyph-name="notequal" unicode="&#x2260;" horiz-adv-x="539" 
d="M441 498l45 -41l-67 -70h67v-67h-126l-98 -102h224v-67h-284l-103 -111l-46 40l67 71h-67v67h126l99 102h-225v67h284z" />
    <glyph glyph-name="lessequal" unicode="&#x2264;" horiz-adv-x="522" 
d="M426 535v-77l-250 -124l250 -123v-77l-331 168v65zM95 229l331 -168v-77l-331 168v77z" />
    <glyph glyph-name="greaterequal" unicode="&#x2265;" horiz-adv-x="522" 
d="M95 535l331 -168v-65l-331 -168v77l250 123l-250 124v77zM426 229v-77l-331 -168v77z" />
    <glyph glyph-name="dotmath" unicode="&#x22c5;" horiz-adv-x="522" 
d="M308 317v-94h-94v94h94z" />
    <glyph glyph-name="uni2460" unicode="&#x2460;" horiz-adv-x="876" 
d="M414 165v326l-76 -66v59l76 65h49v-384h-49zM438 718c200 0 362 -162 362 -362s-162 -362 -362 -362s-362 162 -362 362s162 362 362 362zM438 677c-175 0 -317 -144 -317 -321s142 -321 317 -321s316 144 316 321s-141 321 -316 321z" />
    <glyph glyph-name="uni2460" unicode="&#x2780;" horiz-adv-x="876" 
d="M414 165v326l-76 -66v59l76 65h49v-384h-49zM438 718c200 0 362 -162 362 -362s-162 -362 -362 -362s-362 162 -362 362s162 362 362 362zM438 677c-175 0 -317 -144 -317 -321s142 -321 317 -321s316 144 316 321s-141 321 -316 321z" />
    <glyph glyph-name="uni2461" unicode="&#x2461;" horiz-adv-x="876" 
d="M322 165v45l148 178c19 22 25 37 25 61c0 33 -23 58 -61 58c-36 0 -61 -19 -62 -62h-49c1 31 9 56 27 75c20 20 48 32 84 32c33 0 63 -10 81 -29s28 -45 28 -74c0 -35 -12 -55 -40 -89l-123 -151h165v-44h-223zM438 718c200 0 362 -162 362 -362s-162 -362 -362 -362
s-362 162 -362 362s162 362 362 362zM438 677c-175 0 -317 -144 -317 -321s142 -321 317 -321s316 144 316 321s-141 321 -316 321z" />
    <glyph glyph-name="uni2461" unicode="&#x2781;" horiz-adv-x="876" 
d="M322 165v45l148 178c19 22 25 37 25 61c0 33 -23 58 -61 58c-36 0 -61 -19 -62 -62h-49c1 31 9 56 27 75c20 20 48 32 84 32c33 0 63 -10 81 -29s28 -45 28 -74c0 -35 -12 -55 -40 -89l-123 -151h165v-44h-223zM438 718c200 0 362 -162 362 -362s-162 -362 -362 -362
s-362 162 -362 362s162 362 362 362zM438 677c-175 0 -317 -144 -317 -321s142 -321 317 -321s316 144 316 321s-141 321 -316 321z" />
    <glyph glyph-name="uni2462" unicode="&#x2462;" horiz-adv-x="876" 
d="M439 161c-60 0 -116 33 -118 107h49c3 -41 36 -63 69 -63c39 0 68 27 68 70s-26 68 -69 68h-12v43h11c39 0 63 23 63 58c0 41 -25 64 -61 64c-34 0 -57 -23 -62 -59h-49c6 66 50 103 111 103c67 0 111 -43 111 -106c0 -41 -19 -67 -52 -80c36 -15 58 -46 58 -93
c0 -73 -51 -112 -117 -112zM438 718c200 0 362 -162 362 -362s-162 -362 -362 -362s-362 162 -362 362s162 362 362 362zM438 677c-175 0 -317 -144 -317 -321s142 -321 317 -321s316 144 316 321s-141 321 -316 321z" />
    <glyph glyph-name="uni2462" unicode="&#x2782;" horiz-adv-x="876" 
d="M439 161c-60 0 -116 33 -118 107h49c3 -41 36 -63 69 -63c39 0 68 27 68 70s-26 68 -69 68h-12v43h11c39 0 63 23 63 58c0 41 -25 64 -61 64c-34 0 -57 -23 -62 -59h-49c6 66 50 103 111 103c67 0 111 -43 111 -106c0 -41 -19 -67 -52 -80c36 -15 58 -46 58 -93
c0 -73 -51 -112 -117 -112zM438 718c200 0 362 -162 362 -362s-162 -362 -362 -362s-362 162 -362 362s162 362 362 362zM438 677c-175 0 -317 -144 -317 -321s142 -321 317 -321s316 144 316 321s-141 321 -316 321z" />
    <glyph glyph-name="uni2463" unicode="&#x2463;" horiz-adv-x="876" 
d="M467 165v60h-157v42l136 282h50l-136 -282h107v101h46v-101h46v-42h-46v-60h-46zM438 718c200 0 362 -162 362 -362s-162 -362 -362 -362s-362 162 -362 362s162 362 362 362zM438 677c-175 0 -317 -144 -317 -321s142 -321 317 -321s316 144 316 321s-141 321 -316 321z
" />
    <glyph glyph-name="uni2463" unicode="&#x2783;" horiz-adv-x="876" 
d="M467 165v60h-157v42l136 282h50l-136 -282h107v101h46v-101h46v-42h-46v-60h-46zM438 718c200 0 362 -162 362 -362s-162 -362 -362 -362s-362 162 -362 362s162 362 362 362zM438 677c-175 0 -317 -144 -317 -321s142 -321 317 -321s316 144 316 321s-141 321 -316 321z
" />
    <glyph glyph-name="uni2464" unicode="&#x2464;" horiz-adv-x="876" 
d="M436 161c-39 0 -64 11 -82 29c-20 20 -26 38 -28 68h49c4 -34 25 -54 61 -54c20 0 35 6 45 18c14 16 19 41 19 70c0 47 -11 84 -62 84c-32 0 -50 -13 -60 -38h-46v211h211v-43h-167v-115c18 19 39 28 67 28c31 0 57 -10 73 -26c28 -27 33 -68 33 -101
c0 -45 -8 -75 -32 -101c-18 -20 -45 -30 -81 -30zM438 718c200 0 362 -162 362 -362s-162 -362 -362 -362s-362 162 -362 362s162 362 362 362zM438 677c-175 0 -317 -144 -317 -321s142 -321 317 -321s316 144 316 321s-141 321 -316 321z" />
    <glyph glyph-name="uni2464" unicode="&#x2784;" horiz-adv-x="876" 
d="M436 161c-39 0 -64 11 -82 29c-20 20 -26 38 -28 68h49c4 -34 25 -54 61 -54c20 0 35 6 45 18c14 16 19 41 19 70c0 47 -11 84 -62 84c-32 0 -50 -13 -60 -38h-46v211h211v-43h-167v-115c18 19 39 28 67 28c31 0 57 -10 73 -26c28 -27 33 -68 33 -101
c0 -45 -8 -75 -32 -101c-18 -20 -45 -30 -81 -30zM438 718c200 0 362 -162 362 -362s-162 -362 -362 -362s-362 162 -362 362s162 362 362 362zM438 677c-175 0 -317 -144 -317 -321s142 -321 317 -321s316 144 316 321s-141 321 -316 321z" />
    <glyph glyph-name="uni2465" unicode="&#x2465;" horiz-adv-x="876" 
d="M439 162c-66 0 -110 44 -110 115c0 27 6 51 25 90l90 182h54l-86 -170c12 8 25 11 39 11c58 0 100 -44 100 -113c0 -71 -44 -115 -112 -115zM439 208c39 0 63 26 63 69c0 44 -24 72 -63 72c-36 0 -61 -28 -61 -72s25 -69 61 -69zM438 718c200 0 362 -162 362 -362
s-162 -362 -362 -362s-362 162 -362 362s162 362 362 362zM438 677c-175 0 -317 -144 -317 -321s142 -321 317 -321s316 144 316 321s-141 321 -316 321z" />
    <glyph glyph-name="uni2465" unicode="&#x2785;" horiz-adv-x="876" 
d="M439 162c-66 0 -110 44 -110 115c0 27 6 51 25 90l90 182h54l-86 -170c12 8 25 11 39 11c58 0 100 -44 100 -113c0 -71 -44 -115 -112 -115zM439 208c39 0 63 26 63 69c0 44 -24 72 -63 72c-36 0 -61 -28 -61 -72s25 -69 61 -69zM438 718c200 0 362 -162 362 -362
s-162 -362 -362 -362s-362 162 -362 362s162 362 362 362zM438 677c-175 0 -317 -144 -317 -321s142 -321 317 -321s316 144 316 321s-141 321 -316 321z" />
    <glyph glyph-name="uni2466" unicode="&#x2466;" horiz-adv-x="876" 
d="M371 165l129 341h-128v-64h-45v107h222v-43l-130 -341h-48zM438 718c200 0 362 -162 362 -362s-162 -362 -362 -362s-362 162 -362 362s162 362 362 362zM438 677c-175 0 -317 -144 -317 -321s142 -321 317 -321s316 144 316 321s-141 321 -316 321z" />
    <glyph glyph-name="uni2466" unicode="&#x2786;" horiz-adv-x="876" 
d="M371 165l129 341h-128v-64h-45v107h222v-43l-130 -341h-48zM438 718c200 0 362 -162 362 -362s-162 -362 -362 -362s-362 162 -362 362s162 362 362 362zM438 677c-175 0 -317 -144 -317 -321s142 -321 317 -321s316 144 316 321s-141 321 -316 321z" />
    <glyph glyph-name="uni2467" unicode="&#x2467;" horiz-adv-x="876" 
d="M437 161c-67 0 -117 44 -117 112c0 43 21 73 54 91c-30 17 -48 44 -48 83c0 63 49 105 111 105s111 -42 111 -105c0 -39 -18 -66 -48 -83c33 -18 55 -48 55 -91c0 -68 -51 -112 -118 -112zM437 205c40 0 68 29 68 69c0 39 -29 67 -68 67s-68 -28 -68 -67
c0 -40 28 -69 68 -69zM437 384c36 0 62 25 62 62c0 36 -25 62 -62 62s-62 -26 -62 -62c0 -37 26 -62 62 -62zM438 718c200 0 362 -162 362 -362s-162 -362 -362 -362s-362 162 -362 362s162 362 362 362zM438 677c-175 0 -317 -144 -317 -321s142 -321 317 -321
s316 144 316 321s-141 321 -316 321z" />
    <glyph glyph-name="uni2467" unicode="&#x2787;" horiz-adv-x="876" 
d="M437 161c-67 0 -117 44 -117 112c0 43 21 73 54 91c-30 17 -48 44 -48 83c0 63 49 105 111 105s111 -42 111 -105c0 -39 -18 -66 -48 -83c33 -18 55 -48 55 -91c0 -68 -51 -112 -118 -112zM437 205c40 0 68 29 68 69c0 39 -29 67 -68 67s-68 -28 -68 -67
c0 -40 28 -69 68 -69zM437 384c36 0 62 25 62 62c0 36 -25 62 -62 62s-62 -26 -62 -62c0 -37 26 -62 62 -62zM438 718c200 0 362 -162 362 -362s-162 -362 -362 -362s-362 162 -362 362s162 362 362 362zM438 677c-175 0 -317 -144 -317 -321s142 -321 317 -321
s316 144 316 321s-141 321 -316 321z" />
    <glyph glyph-name="uni2468" unicode="&#x2468;" horiz-adv-x="876" 
d="M380 165l86 170c-11 -8 -25 -11 -38 -11c-59 0 -101 44 -101 113c0 71 45 115 112 115c66 0 110 -43 110 -115c0 -27 -5 -51 -24 -89l-90 -183h-55zM439 365c37 0 61 28 61 72s-24 69 -61 69c-38 0 -63 -26 -63 -69c0 -44 25 -72 63 -72zM438 718
c200 0 362 -162 362 -362s-162 -362 -362 -362s-362 162 -362 362s162 362 362 362zM438 677c-175 0 -317 -144 -317 -321s142 -321 317 -321s316 144 316 321s-141 321 -316 321z" />
    <glyph glyph-name="uni2468" unicode="&#x2788;" horiz-adv-x="876" 
d="M380 165l86 170c-11 -8 -25 -11 -38 -11c-59 0 -101 44 -101 113c0 71 45 115 112 115c66 0 110 -43 110 -115c0 -27 -5 -51 -24 -89l-90 -183h-55zM439 365c37 0 61 28 61 72s-24 69 -61 69c-38 0 -63 -26 -63 -69c0 -44 25 -72 63 -72zM438 718
c200 0 362 -162 362 -362s-162 -362 -362 -362s-362 162 -362 362s162 362 362 362zM438 677c-175 0 -317 -144 -317 -321s142 -321 317 -321s316 144 316 321s-141 321 -316 321z" />
    <glyph glyph-name="uni2469" unicode="&#x2469;" horiz-adv-x="876" 
d="M527 162c-30 0 -54 8 -71 22c-22 19 -33 48 -33 84v179c0 36 11 66 33 84c17 14 41 22 71 22c29 0 54 -8 71 -22c21 -18 32 -48 32 -84v-179c0 -36 -11 -65 -32 -84c-17 -14 -42 -22 -71 -22zM527 199c42 0 62 27 62 71v176c0 44 -20 70 -62 70c-44 0 -63 -26 -63 -70
v-176c0 -44 19 -71 63 -71zM304 165v337l-69 -59v48l69 58h40v-384h-40zM438 718c200 0 362 -162 362 -362s-162 -362 -362 -362s-362 162 -362 362s162 362 362 362zM438 677c-175 0 -317 -144 -317 -321s142 -321 317 -321s316 144 316 321s-141 321 -316 321z" />
    <glyph glyph-name="uni2469" unicode="&#x2789;" horiz-adv-x="876" 
d="M527 162c-30 0 -54 8 -71 22c-22 19 -33 48 -33 84v179c0 36 11 66 33 84c17 14 41 22 71 22c29 0 54 -8 71 -22c21 -18 32 -48 32 -84v-179c0 -36 -11 -65 -32 -84c-17 -14 -42 -22 -71 -22zM527 199c42 0 62 27 62 71v176c0 44 -20 70 -62 70c-44 0 -63 -26 -63 -70
v-176c0 -44 19 -71 63 -71zM304 165v337l-69 -59v48l69 58h40v-384h-40zM438 718c200 0 362 -162 362 -362s-162 -362 -362 -362s-362 162 -362 362s162 362 362 362zM438 677c-175 0 -317 -144 -317 -321s142 -321 317 -321s316 144 316 321s-141 321 -316 321z" />
    <glyph glyph-name="uni246A" unicode="&#x246a;" horiz-adv-x="876" 
d="M304 165v337l-69 -59v48l69 58h40v-384h-40zM509 165v337l-69 -59v48l69 58h40v-384h-40zM438 718c200 0 362 -162 362 -362s-162 -362 -362 -362s-362 162 -362 362s162 362 362 362zM438 677c-175 0 -317 -144 -317 -321s142 -321 317 -321s316 144 316 321
s-141 321 -316 321z" />
    <glyph glyph-name="uni246B" unicode="&#x246b;" horiz-adv-x="876" 
d="M304 165v337l-69 -59v48l69 58h40v-384h-40zM425 165v36l137 188c17 24 25 42 25 67c0 35 -23 59 -61 59c-35 0 -62 -19 -62 -61v-9h-41v9c0 29 11 52 29 71c17 18 42 27 74 27c30 0 55 -9 72 -24c18 -17 29 -44 29 -72c0 -31 -9 -52 -32 -83l-125 -171h157v-37h-202z
M438 718c200 0 362 -162 362 -362s-162 -362 -362 -362s-362 162 -362 362s162 362 362 362zM438 677c-175 0 -317 -144 -317 -321s142 -321 317 -321s316 144 316 321s-141 321 -316 321z" />
    <glyph glyph-name="uni246C" unicode="&#x246c;" horiz-adv-x="876" 
d="M304 165v337l-69 -59v48l69 58h40v-384h-40zM523 161c-26 0 -49 5 -67 18c-29 21 -41 51 -43 85h42c3 -47 31 -66 68 -66c18 0 35 6 46 17c14 12 21 31 21 57c0 29 -7 46 -19 59c-11 12 -27 18 -48 18h-16v35h15c24 0 41 9 51 24c6 9 11 21 11 39c0 26 -8 44 -21 55
c-11 9 -25 13 -41 13c-40 0 -57 -24 -62 -64h-42c5 36 16 61 35 78c17 16 41 23 69 23c29 0 51 -6 68 -20c23 -19 34 -45 34 -83c0 -21 -3 -39 -12 -52s-21 -23 -38 -30c14 -5 23 -13 32 -22c16 -17 24 -41 24 -73c0 -45 -15 -75 -42 -94c-17 -11 -40 -17 -65 -17zM438 718
c200 0 362 -162 362 -362s-162 -362 -362 -362s-362 162 -362 362s162 362 362 362zM438 677c-175 0 -317 -144 -317 -321s142 -321 317 -321s316 144 316 321s-141 321 -316 321z" />
    <glyph glyph-name="uni246D" unicode="&#x246d;" horiz-adv-x="876" 
d="M304 165v337l-69 -59v48l69 58h40v-384h-40zM549 165v60h-146v37l129 287h42l-128 -287h103v100h40v-100h43v-37h-43v-60h-40zM438 718c200 0 362 -162 362 -362s-162 -362 -362 -362s-362 162 -362 362s162 362 362 362zM438 677c-175 0 -317 -144 -317 -321
s142 -321 317 -321s316 144 316 321s-141 321 -316 321z" />
    <glyph glyph-name="uni246E" unicode="&#x246e;" horiz-adv-x="876" 
d="M304 165v337l-69 -59v48l69 58h40v-384h-40zM523 161c-33 0 -57 9 -74 25c-18 18 -27 42 -28 70h41c4 -39 23 -58 61 -58c23 0 38 7 48 21c12 16 18 41 18 73c0 34 -5 63 -24 79c-10 8 -22 12 -40 12c-33 0 -52 -13 -61 -41h-35v207h195v-37h-158v-123c7 9 16 16 26 22
c12 6 26 9 41 9c29 0 51 -7 65 -22c26 -26 31 -64 31 -106c0 -49 -7 -82 -32 -105c-19 -18 -42 -26 -74 -26zM438 718c200 0 362 -162 362 -362s-162 -362 -362 -362s-362 162 -362 362s162 362 362 362zM438 677c-175 0 -317 -144 -317 -321s142 -321 317 -321
s316 144 316 321s-141 321 -316 321z" />
    <glyph glyph-name="uni246F" unicode="&#x246f;" horiz-adv-x="876" 
d="M304 165v337l-69 -59v48l69 58h40v-384h-40zM526 161c-32 0 -56 10 -73 28c-19 20 -28 45 -28 84c0 30 5 54 18 83l90 193h43l-81 -175c12 8 25 12 40 12c27 0 51 -10 67 -28c18 -20 26 -45 26 -87c0 -35 -9 -60 -26 -79c-17 -20 -42 -31 -76 -31zM526 198
c20 0 37 8 48 22c9 12 14 29 14 53c0 25 -6 43 -16 55c-10 13 -27 22 -46 22s-35 -9 -45 -22c-9 -12 -15 -30 -15 -55c0 -23 4 -40 12 -52c11 -14 28 -23 48 -23zM438 718c200 0 362 -162 362 -362s-162 -362 -362 -362s-362 162 -362 362s162 362 362 362zM438 677
c-175 0 -317 -144 -317 -321s142 -321 317 -321s316 144 316 321s-141 321 -316 321z" />
    <glyph glyph-name="uni2470" unicode="&#x2470;" horiz-adv-x="876" 
d="M304 165v337l-69 -59v48l69 58h40v-384h-40zM457 165l123 348h-123v-59h-37v95h200v-35l-124 -349h-39zM438 718c200 0 362 -162 362 -362s-162 -362 -362 -362s-362 162 -362 362s162 362 362 362zM438 677c-175 0 -317 -144 -317 -321s142 -321 317 -321
s316 144 316 321s-141 321 -316 321z" />
    <glyph glyph-name="uni2471" unicode="&#x2471;" horiz-adv-x="876" 
d="M304 165v337l-69 -59v48l69 58h40v-384h-40zM528 161c-33 0 -61 11 -80 31s-29 46 -29 81c0 28 7 50 22 68c9 10 18 18 31 24c-16 9 -27 21 -35 34c-8 14 -12 32 -12 50c0 32 10 58 27 75c18 19 44 28 76 28s58 -9 75 -28c17 -17 27 -43 27 -75c0 -18 -4 -36 -12 -50
c-7 -13 -19 -25 -35 -34c13 -6 23 -14 31 -24c16 -18 23 -40 23 -68c0 -35 -11 -60 -30 -81c-19 -20 -47 -31 -79 -31zM528 198c22 0 40 8 53 24c10 14 15 30 15 51c0 23 -8 43 -21 57c-11 12 -28 18 -47 18c-20 0 -36 -6 -47 -18c-14 -14 -22 -34 -22 -57
c0 -21 5 -37 15 -51c13 -16 31 -24 54 -24zM528 384c24 0 42 11 52 28c6 11 10 23 10 38c0 19 -7 35 -18 47c-10 11 -25 18 -44 18c-20 0 -34 -7 -45 -18c-11 -12 -17 -28 -17 -47c0 -15 3 -27 9 -38c10 -17 29 -28 53 -28zM438 718c200 0 362 -162 362 -362
s-162 -362 -362 -362s-362 162 -362 362s162 362 362 362zM438 677c-175 0 -317 -144 -317 -321s142 -321 317 -321s316 144 316 321s-141 321 -316 321z" />
    <glyph glyph-name="uni2472" unicode="&#x2472;" horiz-adv-x="876" 
d="M304 165v337l-69 -59v48l69 58h40v-384h-40zM477 165l81 175c-11 -8 -25 -12 -39 -12c-28 0 -52 10 -68 28c-17 20 -26 45 -26 87c0 35 9 60 26 79c17 20 43 31 77 31c32 0 56 -10 73 -28c19 -20 28 -45 28 -84c0 -30 -6 -54 -19 -83l-90 -193h-43zM528 364
c18 0 34 9 45 22c9 12 15 30 15 55c0 23 -4 40 -13 52c-11 14 -27 23 -47 23c-21 0 -38 -8 -48 -22c-9 -12 -15 -29 -15 -53c0 -25 6 -44 16 -56c11 -13 27 -21 47 -21zM438 718c200 0 362 -162 362 -362s-162 -362 -362 -362s-362 162 -362 362s162 362 362 362zM438 677
c-175 0 -317 -144 -317 -321s142 -321 317 -321s316 144 316 321s-141 321 -316 321z" />
    <glyph glyph-name="uni2473" unicode="&#x2473;" horiz-adv-x="876" 
d="M553 161c-30 0 -54 8 -71 22c-22 19 -33 48 -33 84v179c0 36 11 66 33 84c17 14 41 22 71 22c29 0 54 -8 71 -22c21 -18 32 -48 32 -84v-179c0 -36 -11 -65 -32 -84c-17 -14 -42 -22 -71 -22zM553 198c42 0 62 27 62 71v176c0 44 -20 70 -62 70c-44 0 -63 -26 -63 -70
v-176c0 -44 19 -71 63 -71zM221 165v36l137 188c17 24 25 42 25 67c0 35 -23 59 -61 59c-35 0 -62 -19 -62 -61v-9h-41v9c0 29 10 53 28 72c17 18 43 26 75 26c30 0 55 -9 72 -24c18 -17 29 -44 29 -72c0 -31 -9 -52 -32 -83l-125 -171h157v-37h-202zM438 718
c200 0 362 -162 362 -362s-162 -362 -362 -362s-362 162 -362 362s162 362 362 362zM438 677c-175 0 -317 -144 -317 -321s142 -321 317 -321s316 144 316 321s-141 321 -316 321z" />
    <glyph glyph-name="uni24EA" unicode="&#x24ea;" horiz-adv-x="876" 
d="M438 161c-67 0 -111 43 -111 112v168c0 69 44 111 111 111s111 -42 111 -111v-168c0 -69 -44 -112 -111 -112zM438 206c41 0 62 27 62 68v165c0 41 -22 68 -62 68c-41 0 -62 -27 -62 -68v-165c0 -41 20 -68 62 -68zM438 718c200 0 362 -162 362 -362s-162 -362 -362 -362
s-362 162 -362 362s162 362 362 362zM438 677c-175 0 -317 -144 -317 -321s142 -321 317 -321s316 144 316 321s-141 321 -316 321z" />
    <glyph glyph-name="uni24EB" unicode="&#x24eb;" horiz-adv-x="876" 
d="M304 502v-337h40v384h-40l-69 -58v-48zM509 502v-337h40v384h-40l-69 -58v-48zM438 718c200 0 362 -162 362 -362s-162 -362 -362 -362s-362 162 -362 362s162 362 362 362z" />
    <glyph glyph-name="uni24EC" unicode="&#x24ec;" horiz-adv-x="876" 
d="M304 502v-337h40v384h-40l-69 -58v-48zM425 201v-36h202v37h-157l125 171c23 31 32 52 32 83c0 28 -11 55 -29 72c-17 15 -42 24 -72 24c-32 0 -57 -9 -74 -27c-18 -19 -29 -42 -29 -71v-9h41v9c0 42 27 61 62 61c38 0 61 -24 61 -59c0 -25 -8 -43 -25 -67zM438 718
c200 0 362 -162 362 -362s-162 -362 -362 -362s-362 162 -362 362s162 362 362 362z" />
    <glyph glyph-name="uni24ED" unicode="&#x24ed;" horiz-adv-x="876" 
d="M304 502v-337h40v384h-40l-69 -58v-48zM523 161c25 0 48 6 65 17c27 19 42 49 42 94c0 32 -8 56 -24 73c-9 9 -18 17 -32 22c17 7 29 17 38 30s12 31 12 52c0 38 -11 64 -34 83c-17 14 -39 20 -68 20c-28 0 -52 -7 -69 -23c-19 -17 -30 -42 -35 -78h42c5 40 22 64 62 64
c16 0 30 -4 41 -13c13 -11 21 -29 21 -55c0 -18 -5 -30 -11 -39c-10 -15 -27 -24 -51 -24h-15v-35h16c21 0 37 -6 48 -18c12 -13 19 -30 19 -59c0 -26 -7 -45 -21 -57c-11 -11 -28 -17 -46 -17c-37 0 -65 19 -68 66h-42c2 -34 14 -64 43 -85c18 -13 41 -18 67 -18zM438 718
c200 0 362 -162 362 -362s-162 -362 -362 -362s-362 162 -362 362s162 362 362 362z" />
    <glyph glyph-name="uni24EE" unicode="&#x24ee;" horiz-adv-x="876" 
d="M304 502v-337h40v384h-40l-69 -58v-48zM549 225v-60h40v60h43v37h-43v100h-40v-100h-103l128 287h-42l-129 -287v-37h146zM438 718c200 0 362 -162 362 -362s-162 -362 -362 -362s-362 162 -362 362s162 362 362 362z" />
    <glyph glyph-name="uni24EF" unicode="&#x24ef;" horiz-adv-x="876" 
d="M304 502v-337h40v384h-40l-69 -58v-48zM523 161c32 0 55 8 74 26c25 23 32 56 32 105c0 42 -5 80 -31 106c-14 15 -36 22 -65 22c-15 0 -29 -3 -41 -9c-10 -6 -19 -13 -26 -22v123h158v37h-195v-207h35c9 28 28 41 61 41c18 0 30 -4 40 -12c19 -16 24 -45 24 -79
c0 -32 -6 -57 -18 -73c-10 -14 -25 -21 -48 -21c-38 0 -57 19 -61 58h-41c1 -28 10 -52 28 -70c17 -16 41 -25 74 -25zM438 718c200 0 362 -162 362 -362s-162 -362 -362 -362s-362 162 -362 362s162 362 362 362z" />
    <glyph glyph-name="uni24F0" unicode="&#x24f0;" horiz-adv-x="876" 
d="M304 502v-337h40v384h-40l-69 -58v-48zM526 161c34 0 59 11 76 31c17 19 26 44 26 79c0 42 -8 67 -26 87c-16 18 -40 28 -67 28c-15 0 -28 -4 -40 -12l81 175h-43l-90 -193c-13 -29 -18 -53 -18 -83c0 -39 9 -64 28 -84c17 -18 41 -28 73 -28zM526 198
c-20 0 -37 9 -48 23c-8 12 -12 29 -12 52c0 25 6 43 15 55c10 13 26 22 45 22s36 -9 46 -22c10 -12 16 -30 16 -55c0 -24 -5 -41 -14 -53c-11 -14 -28 -22 -48 -22zM438 718c200 0 362 -162 362 -362s-162 -362 -362 -362s-362 162 -362 362s162 362 362 362z" />
    <glyph glyph-name="uni24F1" unicode="&#x24f1;" horiz-adv-x="876" 
d="M304 502v-337h40v384h-40l-69 -58v-48zM580 513l-123 -348h39l124 349v35h-200v-95h37v59h123zM438 718c200 0 362 -162 362 -362s-162 -362 -362 -362s-362 162 -362 362s162 362 362 362z" />
    <glyph glyph-name="uni24F2" unicode="&#x24f2;" horiz-adv-x="876" 
d="M304 502v-337h40v384h-40l-69 -58v-48zM528 161c32 0 60 11 79 31c19 21 30 46 30 81c0 28 -7 50 -23 68c-8 10 -18 18 -31 24c16 9 28 21 35 34c8 14 12 32 12 50c0 32 -10 58 -27 75c-17 19 -43 28 -75 28s-58 -9 -76 -28c-17 -17 -27 -43 -27 -75c0 -18 4 -36 12 -50
c8 -13 19 -25 35 -34c-13 -6 -22 -14 -31 -24c-15 -18 -22 -40 -22 -68c0 -35 10 -61 29 -81s47 -31 80 -31zM528 198c-23 0 -41 8 -54 24c-10 14 -15 30 -15 51c0 23 8 43 22 57c11 12 27 18 47 18c19 0 36 -6 47 -18c13 -14 21 -34 21 -57c0 -21 -5 -37 -15 -51
c-13 -16 -31 -24 -53 -24zM528 384c-24 0 -43 11 -53 28c-6 11 -9 23 -9 38c0 19 6 35 17 47c11 11 25 18 45 18c19 0 34 -7 44 -18c11 -12 18 -28 18 -47c0 -15 -4 -27 -10 -38c-10 -17 -28 -28 -52 -28zM438 718c200 0 362 -162 362 -362s-162 -362 -362 -362
s-362 162 -362 362s162 362 362 362z" />
    <glyph glyph-name="uni24F3" unicode="&#x24f3;" horiz-adv-x="876" 
d="M304 502v-337h40v384h-40l-69 -58v-48zM558 340l-81 -175h43l90 193c13 29 19 53 19 83c0 39 -9 64 -28 84c-17 18 -41 28 -73 28c-34 0 -60 -11 -77 -31c-17 -19 -26 -44 -26 -79c0 -42 9 -67 26 -87c16 -18 40 -28 68 -28c14 0 28 4 39 12zM528 364c-20 0 -36 8 -47 21
c-10 12 -16 31 -16 56c0 24 6 41 15 53c10 14 27 22 48 22c20 0 36 -9 47 -23c9 -12 13 -29 13 -52c0 -25 -6 -43 -15 -55c-11 -13 -27 -22 -45 -22zM438 718c200 0 362 -162 362 -362s-162 -362 -362 -362s-362 162 -362 362s162 362 362 362z" />
    <glyph glyph-name="uni24F4" unicode="&#x24f4;" horiz-adv-x="876" 
d="M553 161c29 0 54 8 71 22c21 19 32 48 32 84v179c0 36 -11 66 -32 84c-17 14 -42 22 -71 22c-30 0 -54 -8 -71 -22c-22 -18 -33 -48 -33 -84v-179c0 -36 11 -65 33 -84c17 -14 41 -22 71 -22zM553 198c-44 0 -63 27 -63 71v176c0 44 19 70 63 70c42 0 62 -26 62 -70v-176
c0 -44 -20 -71 -62 -71zM221 201v-36h202v37h-157l125 171c23 31 32 52 32 83c0 28 -11 55 -29 72c-17 15 -42 24 -72 24c-32 0 -58 -8 -75 -26c-18 -19 -28 -43 -28 -72v-9h41v9c0 42 27 61 62 61c38 0 61 -24 61 -59c0 -25 -8 -43 -25 -67zM438 718
c200 0 362 -162 362 -362s-162 -362 -362 -362s-362 162 -362 362s162 362 362 362z" />
    <glyph glyph-name="uni24FF" unicode="&#x24ff;" horiz-adv-x="876" 
d="M437 161c67 0 111 43 111 112v168c0 69 -44 111 -111 111s-111 -42 -111 -111v-168c0 -69 44 -112 111 -112zM437 206c-42 0 -62 27 -62 68v165c0 41 21 68 62 68c40 0 62 -27 62 -68v-165c0 -41 -21 -68 -62 -68zM438 718c200 0 362 -162 362 -362s-162 -362 -362 -362
s-362 162 -362 362s162 362 362 362z" />
    <glyph glyph-name="filledbox" unicode="&#x25a0;" horiz-adv-x="1000" 
d="M856 712v-712h-712v712h712z" />
    <glyph glyph-name="uni25A1" unicode="&#x25a1;" horiz-adv-x="1000" 
d="M856 712v-712h-712v712h712zM798 658h-596v-604h596v604z" />
    <glyph glyph-name="lozenge" unicode="&#x25ca;" horiz-adv-x="649" 
d="M325 720l257 -364l-257 -364l-258 364zM325 609l-177 -253l177 -255l176 255z" />
    <glyph glyph-name="circle" unicode="&#x25cb;" horiz-adv-x="876" 
d="M438 718c200 0 362 -162 362 -362s-162 -362 -362 -362s-362 162 -362 362s162 362 362 362zM438 654c-159 0 -290 -131 -290 -298s131 -298 290 -298s290 131 290 298s-131 298 -290 298z" />
    <glyph glyph-name="uni25CF" unicode="&#x25cf;" horiz-adv-x="876" 
d="M438 718c200 0 362 -162 362 -362s-162 -362 -362 -362s-362 162 -362 362s162 362 362 362z" />
    <glyph glyph-name="uni278A" unicode="&#x2776;" horiz-adv-x="876" 
d="M438 -6c-200 0 -362 162 -362 362s162 362 362 362s362 -162 362 -362s-162 -362 -362 -362zM414 165h49v384h-49l-76 -65v-59l76 66v-326z" />
    <glyph glyph-name="uni278A" unicode="&#x278a;" horiz-adv-x="876" 
d="M438 -6c-200 0 -362 162 -362 362s162 362 362 362s362 -162 362 -362s-162 -362 -362 -362zM414 165h49v384h-49l-76 -65v-59l76 66v-326z" />
    <glyph glyph-name="uni278B" unicode="&#x2777;" horiz-adv-x="876" 
d="M438 -6c-200 0 -362 162 -362 362s162 362 362 362s362 -162 362 -362s-162 -362 -362 -362zM322 210v-45h223v44h-165l123 151c28 34 40 54 40 89c0 29 -10 55 -28 74s-48 29 -81 29c-36 0 -64 -12 -84 -32c-18 -19 -26 -44 -27 -75h49c1 43 26 62 62 62
c38 0 61 -25 61 -58c0 -24 -6 -39 -25 -61z" />
    <glyph glyph-name="uni278B" unicode="&#x278b;" horiz-adv-x="876" 
d="M438 -6c-200 0 -362 162 -362 362s162 362 362 362s362 -162 362 -362s-162 -362 -362 -362zM322 210v-45h223v44h-165l123 151c28 34 40 54 40 89c0 29 -10 55 -28 74s-48 29 -81 29c-36 0 -64 -12 -84 -32c-18 -19 -26 -44 -27 -75h49c1 43 26 62 62 62
c38 0 61 -25 61 -58c0 -24 -6 -39 -25 -61z" />
    <glyph glyph-name="uni278C" unicode="&#x2778;" horiz-adv-x="876" 
d="M438 -6c-200 0 -362 162 -362 362s162 362 362 362s362 -162 362 -362s-162 -362 -362 -362zM438 161c66 0 117 39 117 112c0 47 -22 78 -58 93c33 13 52 39 52 80c0 63 -44 106 -111 106c-61 0 -105 -37 -111 -103h49c5 36 28 59 62 59c36 0 61 -23 61 -64
c0 -35 -24 -58 -63 -58h-11v-43h12c43 0 69 -25 69 -68s-29 -70 -68 -70c-33 0 -66 22 -69 63h-49c2 -74 58 -107 118 -107z" />
    <glyph glyph-name="uni278C" unicode="&#x278c;" horiz-adv-x="876" 
d="M438 -6c-200 0 -362 162 -362 362s162 362 362 362s362 -162 362 -362s-162 -362 -362 -362zM438 161c66 0 117 39 117 112c0 47 -22 78 -58 93c33 13 52 39 52 80c0 63 -44 106 -111 106c-61 0 -105 -37 -111 -103h49c5 36 28 59 62 59c36 0 61 -23 61 -64
c0 -35 -24 -58 -63 -58h-11v-43h12c43 0 69 -25 69 -68s-29 -70 -68 -70c-33 0 -66 22 -69 63h-49c2 -74 58 -107 118 -107z" />
    <glyph glyph-name="uni278D" unicode="&#x2779;" horiz-adv-x="876" 
d="M438 718c200 0 362 -162 362 -362s-162 -362 -362 -362s-362 162 -362 362s162 362 362 362zM467 225v-60h46v60h46v42h-46v101h-46v-101h-107l136 282h-50l-136 -282v-42h157z" />
    <glyph glyph-name="uni278D" unicode="&#x278d;" horiz-adv-x="876" 
d="M438 718c200 0 362 -162 362 -362s-162 -362 -362 -362s-362 162 -362 362s162 362 362 362zM467 225v-60h46v60h46v42h-46v101h-46v-101h-107l136 282h-50l-136 -282v-42h157z" />
    <glyph glyph-name="uni278E" unicode="&#x277a;" horiz-adv-x="876" 
d="M438 -6c-200 0 -362 162 -362 362s162 362 362 362s362 -162 362 -362s-162 -362 -362 -362zM436 161c36 0 63 10 81 30c24 26 32 56 32 101c0 33 -5 74 -33 101c-16 16 -42 26 -73 26c-28 0 -49 -9 -67 -28v115h167v43h-211v-211h46c10 25 28 38 60 38
c51 0 62 -37 62 -84c0 -29 -5 -54 -19 -70c-10 -12 -25 -18 -45 -18c-36 0 -57 20 -61 54h-49c2 -30 8 -48 28 -68c18 -18 43 -29 82 -29z" />
    <glyph glyph-name="uni278E" unicode="&#x278e;" horiz-adv-x="876" 
d="M438 -6c-200 0 -362 162 -362 362s162 362 362 362s362 -162 362 -362s-162 -362 -362 -362zM436 161c36 0 63 10 81 30c24 26 32 56 32 101c0 33 -5 74 -33 101c-16 16 -42 26 -73 26c-28 0 -49 -9 -67 -28v115h167v43h-211v-211h46c10 25 28 38 60 38
c51 0 62 -37 62 -84c0 -29 -5 -54 -19 -70c-10 -12 -25 -18 -45 -18c-36 0 -57 20 -61 54h-49c2 -30 8 -48 28 -68c18 -18 43 -29 82 -29z" />
    <glyph glyph-name="uni278F" unicode="&#x277b;" horiz-adv-x="876" 
d="M438 -6c-200 0 -362 162 -362 362s162 362 362 362s362 -162 362 -362s-162 -362 -362 -362zM438 208c-36 0 -61 25 -61 69s25 72 61 72c39 0 63 -28 63 -72c0 -43 -24 -69 -63 -69zM438 162c68 0 112 44 112 115c0 69 -42 113 -100 113c-14 0 -27 -3 -39 -11l86 170h-54
l-90 -182c-19 -39 -25 -63 -25 -90c0 -71 44 -115 110 -115z" />
    <glyph glyph-name="uni278F" unicode="&#x278f;" horiz-adv-x="876" 
d="M438 -6c-200 0 -362 162 -362 362s162 362 362 362s362 -162 362 -362s-162 -362 -362 -362zM438 208c-36 0 -61 25 -61 69s25 72 61 72c39 0 63 -28 63 -72c0 -43 -24 -69 -63 -69zM438 162c68 0 112 44 112 115c0 69 -42 113 -100 113c-14 0 -27 -3 -39 -11l86 170h-54
l-90 -182c-19 -39 -25 -63 -25 -90c0 -71 44 -115 110 -115z" />
    <glyph glyph-name="uni2790" unicode="&#x277c;" horiz-adv-x="876" 
d="M438 -6c-200 0 -362 162 -362 362s162 362 362 362s362 -162 362 -362s-162 -362 -362 -362zM376 165h48l130 341v43h-232v-107h45v64h138z" />
    <glyph glyph-name="uni2790" unicode="&#x2790;" horiz-adv-x="876" 
d="M438 -6c-200 0 -362 162 -362 362s162 362 362 362s362 -162 362 -362s-162 -362 -362 -362zM376 165h48l130 341v43h-232v-107h45v64h138z" />
    <glyph glyph-name="uni2791" unicode="&#x277d;" horiz-adv-x="876" 
d="M438 -6c-200 0 -362 162 -362 362s162 362 362 362s362 -162 362 -362s-162 -362 -362 -362zM438 205c-40 0 -68 28 -68 69c0 39 29 67 68 67s68 -28 68 -67c0 -41 -28 -69 -68 -69zM438 161c67 0 118 44 118 112c0 43 -22 73 -55 91c30 17 48 44 48 83
c0 63 -49 105 -111 105s-111 -42 -111 -105c0 -39 18 -66 48 -83c-33 -18 -54 -48 -54 -91c0 -68 50 -112 117 -112zM438 384c-36 0 -62 25 -62 62c0 36 25 62 62 62s62 -26 62 -62c0 -37 -26 -62 -62 -62z" />
    <glyph glyph-name="uni2791" unicode="&#x2791;" horiz-adv-x="876" 
d="M438 -6c-200 0 -362 162 -362 362s162 362 362 362s362 -162 362 -362s-162 -362 -362 -362zM438 205c-40 0 -68 28 -68 69c0 39 29 67 68 67s68 -28 68 -67c0 -41 -28 -69 -68 -69zM438 161c67 0 118 44 118 112c0 43 -22 73 -55 91c30 17 48 44 48 83
c0 63 -49 105 -111 105s-111 -42 -111 -105c0 -39 18 -66 48 -83c-33 -18 -54 -48 -54 -91c0 -68 50 -112 117 -112zM438 384c-36 0 -62 25 -62 62c0 36 25 62 62 62s62 -26 62 -62c0 -37 -26 -62 -62 -62z" />
    <glyph glyph-name="uni2792" unicode="&#x277e;" horiz-adv-x="876" 
d="M438 -6c-200 0 -362 162 -362 362s162 362 362 362s362 -162 362 -362s-162 -362 -362 -362zM380 165h55l90 183c19 38 24 62 24 89c0 72 -44 115 -110 115c-67 0 -112 -44 -112 -115c0 -69 42 -113 101 -113c13 0 27 3 38 11zM439 365c-38 0 -63 28 -63 72
c0 43 25 69 63 69c37 0 61 -25 61 -69s-24 -72 -61 -72z" />
    <glyph glyph-name="uni2792" unicode="&#x2792;" horiz-adv-x="876" 
d="M438 -6c-200 0 -362 162 -362 362s162 362 362 362s362 -162 362 -362s-162 -362 -362 -362zM380 165h55l90 183c19 38 24 62 24 89c0 72 -44 115 -110 115c-67 0 -112 -44 -112 -115c0 -69 42 -113 101 -113c13 0 27 3 38 11zM439 365c-38 0 -63 28 -63 72
c0 43 25 69 63 69c37 0 61 -25 61 -69s-24 -72 -61 -72z" />
    <glyph glyph-name="uni2793" unicode="&#x277f;" horiz-adv-x="876" 
d="M527 162c29 0 54 8 71 22c21 19 32 48 32 84v179c0 36 -11 66 -32 84c-17 14 -42 22 -71 22c-30 0 -54 -8 -71 -22c-22 -18 -33 -48 -33 -84v-179c0 -36 11 -65 33 -84c17 -14 41 -22 71 -22zM527 199c-44 0 -63 27 -63 71v176c0 44 19 70 63 70c42 0 62 -26 62 -70v-176
c0 -44 -20 -71 -62 -71zM304 502v-337h40v384h-40l-69 -58v-48zM438 718c200 0 362 -162 362 -362s-162 -362 -362 -362s-362 162 -362 362s162 362 362 362z" />
    <glyph glyph-name="uni2793" unicode="&#x2793;" horiz-adv-x="876" 
d="M527 162c29 0 54 8 71 22c21 19 32 48 32 84v179c0 36 -11 66 -32 84c-17 14 -42 22 -71 22c-30 0 -54 -8 -71 -22c-22 -18 -33 -48 -33 -84v-179c0 -36 11 -65 33 -84c17 -14 41 -22 71 -22zM527 199c-44 0 -63 27 -63 71v176c0 44 19 70 63 70c42 0 62 -26 62 -70v-176
c0 -44 -20 -71 -62 -71zM304 502v-337h40v384h-40l-69 -58v-48zM438 718c200 0 362 -162 362 -362s-162 -362 -362 -362s-362 162 -362 362s162 362 362 362z" />
    <glyph glyph-name="fi" unicode="&#xfb01;" horiz-adv-x="563" 
d="M283 713v-62h-39c-46 0 -66 -27 -66 -72v-87h105v-55h-105v-437h-72v437h-63v55h63v89c0 73 41 132 125 132h52zM472 492v-492h-72v492h72zM477 713v-81h-81v81h81z" />
    <glyph glyph-name="fl" unicode="&#xfb02;" horiz-adv-x="606" 
d="M283 713v-62h-39c-46 0 -66 -27 -66 -72v-87h105v-55h-105v-437h-72v437h-63v55h63v89c0 73 41 132 125 132h52zM469 712v-578c0 -48 16 -72 66 -72h39v-62h-52c-86 0 -125 56 -125 131v581h72z" />
    <glyph glyph-name="onequarter.afrc" horiz-adv-x="328" 
d="M36 337v38h256v-38h-256zM165 0v45h-108v38l97 199h43l-97 -199h65v70h40v-70h28v-38h-28v-45h-40zM143 430v232l-60 -51v50l60 51h43v-282h-43z" />
    <glyph glyph-name="onehalf.afrc" horiz-adv-x="328" 
d="M79 0v37l110 126c14 15 18 29 18 45c0 21 -15 40 -42 40c-25 0 -41 -14 -43 -43h-43c3 50 38 80 86 80c50 0 84 -34 84 -77c0 -24 -9 -43 -30 -66l-91 -105h115v-37h-164zM143 430v232l-60 -51v50l60 51h43v-282h-43zM36 337v38h256v-38h-256z" />
    <glyph glyph-name="threequarters.afrc" horiz-adv-x="328" 
d="M36 337v38h256v-38h-256zM164 427c-47 0 -86 27 -89 80h43c2 -24 22 -41 46 -41c27 0 47 18 47 48c0 31 -22 45 -48 45h-9v33h9c24 0 43 15 43 41c0 28 -18 42 -42 42c-23 0 -38 -15 -42 -38h-43c5 49 36 78 85 78c51 0 85 -33 85 -77c0 -32 -15 -52 -39 -61
c26 -11 44 -34 44 -68c0 -49 -37 -82 -90 -82zM165 0v45h-108v38l97 199h43l-97 -199h65v70h40v-70h28v-38h-28v-45h-40z" />
    <glyph glyph-name="fraction.afrc" horiz-adv-x="328" 
d="M36 337v38h256v-38h-256z" />
    <glyph glyph-name="uni2150.afrc" horiz-adv-x="328" 
d="M36 337v38h256v-38h-256zM107 0l95 247h-84v-42h-41v77h165v-36l-94 -246h-41zM143 430v232l-60 -51v50l60 51h43v-282h-43z" />
    <glyph glyph-name="uni2151.afrc" horiz-adv-x="328" 
d="M36 337v38h256v-38h-256zM126 0l59 117c-8 -5 -17 -8 -28 -8c-46 1 -82 31 -82 86c0 56 39 90 89 90s89 -34 89 -90c0 -21 -3 -41 -19 -73l-61 -122h-47zM165 143c29 0 45 19 45 52c0 31 -15 52 -45 52c-31 0 -47 -21 -47 -52c0 -34 17 -52 47 -52zM143 430v232l-60 -51
v50l60 51h43v-282h-43z" />
    <glyph glyph-name="uni2152.afrc" horiz-adv-x="496" 
d="M36 337v38h424v-38h-424zM145 0v232l-60 -51v50l60 51h43v-282h-43zM334 -4c-51 0 -88 37 -88 85v120c0 50 37 84 88 84s88 -34 88 -84v-120c0 -48 -37 -85 -88 -85zM335 36c29 0 44 20 44 47v116c0 27 -15 46 -44 46c-30 0 -45 -19 -45 -46v-116c0 -27 15 -47 45 -47z
M227 430v232l-60 -51v50l60 51h43v-282h-43z" />
    <glyph glyph-name="onethird.afrc" horiz-adv-x="328" 
d="M36 337v38h256v-38h-256zM164 -3c-47 0 -86 27 -89 80h43c2 -24 22 -41 46 -41c27 0 47 18 47 48c0 31 -22 45 -48 45h-9v33h9c24 0 43 15 43 41c0 28 -18 42 -42 42c-23 0 -38 -15 -42 -38h-43c5 49 36 78 85 78c51 0 85 -33 85 -77c0 -32 -15 -52 -39 -61
c26 -11 44 -34 44 -68c0 -49 -37 -82 -90 -82zM143 430v232l-60 -51v50l60 51h43v-282h-43z" />
    <glyph glyph-name="twothirds.afrc" horiz-adv-x="328" 
d="M36 337v38h256v-38h-256zM79 430v37l110 126c14 15 18 29 18 45c0 21 -15 40 -42 40c-25 0 -41 -14 -43 -43h-43c3 50 38 80 86 80c50 0 84 -34 84 -77c0 -24 -9 -43 -30 -66l-91 -105h115v-37h-164zM164 -3c-47 0 -86 27 -89 80h43c2 -24 22 -41 46 -41
c27 0 47 18 47 48c0 31 -22 45 -48 45h-9v33h9c24 0 43 15 43 41c0 28 -18 42 -42 42c-23 0 -38 -15 -42 -38h-43c5 49 36 78 85 78c51 0 85 -33 85 -77c0 -32 -15 -52 -39 -61c26 -11 44 -34 44 -68c0 -49 -37 -82 -90 -82z" />
    <glyph glyph-name="uni2155.afrc" horiz-adv-x="328" 
d="M36 337v38h256v-38h-256zM164 -3c-25 0 -44 5 -58 16c-14 10 -23 27 -26 50h41c4 -19 16 -29 43 -29c28 0 44 20 44 58c0 43 -13 60 -43 60c-23 0 -35 -8 -47 -31h-35v161h153v-35h-119v-85c17 17 34 23 52 23c24 0 42 -6 58 -22c15 -15 22 -39 22 -71
c0 -29 -6 -52 -22 -70c-14 -17 -36 -25 -63 -25zM143 430v232l-60 -51v50l60 51h43v-282h-43z" />
    <glyph glyph-name="uni2156.afrc" horiz-adv-x="328" 
d="M36 337v38h256v-38h-256zM79 430v37l110 126c14 15 18 29 18 45c0 21 -15 40 -42 40c-25 0 -41 -14 -43 -43h-43c3 50 38 80 86 80c50 0 84 -34 84 -77c0 -24 -9 -43 -30 -66l-91 -105h115v-37h-164zM164 -3c-25 0 -44 5 -58 16c-14 10 -23 27 -26 50h41
c4 -19 16 -29 43 -29c28 0 44 20 44 58c0 43 -13 60 -43 60c-23 0 -35 -8 -47 -31h-35v161h153v-35h-119v-85c17 17 34 23 52 23c24 0 42 -6 58 -22c15 -15 22 -39 22 -71c0 -29 -6 -52 -22 -70c-14 -17 -36 -25 -63 -25z" />
    <glyph glyph-name="uni2157.afrc" horiz-adv-x="328" 
d="M36 337v38h256v-38h-256zM164 427c-47 0 -86 27 -89 80h43c2 -24 22 -41 46 -41c27 0 47 18 47 48c0 31 -22 45 -48 45h-9v33h9c24 0 43 15 43 41c0 28 -18 42 -42 42c-23 0 -38 -15 -42 -38h-43c5 49 36 78 85 78c51 0 85 -33 85 -77c0 -32 -15 -52 -39 -61
c26 -11 44 -34 44 -68c0 -49 -37 -82 -90 -82zM164 -3c-25 0 -44 5 -58 16c-14 10 -23 27 -26 50h41c4 -19 16 -29 43 -29c28 0 44 20 44 58c0 43 -13 60 -43 60c-23 0 -35 -8 -47 -31h-35v161h153v-35h-119v-85c17 17 34 23 52 23c24 0 42 -6 58 -22c15 -15 22 -39 22 -71
c0 -29 -6 -52 -22 -70c-14 -17 -36 -25 -63 -25z" />
    <glyph glyph-name="uni2158.afrc" horiz-adv-x="328" 
d="M36 337v38h256v-38h-256zM175 430v45h-108v38l97 199h43l-97 -199h65v70h40v-70h28v-38h-28v-45h-40zM164 -3c-25 0 -44 5 -58 16c-14 10 -23 27 -26 50h41c4 -19 16 -29 43 -29c28 0 44 20 44 58c0 43 -13 60 -43 60c-23 0 -35 -8 -47 -31h-35v161h153v-35h-119v-85
c17 17 34 23 52 23c24 0 42 -6 58 -22c15 -15 22 -39 22 -71c0 -29 -6 -52 -22 -70c-14 -17 -36 -25 -63 -25z" />
    <glyph glyph-name="uni2159.afrc" horiz-adv-x="328" 
d="M36 337v38h256v-38h-256zM164 -3c-50 0 -89 34 -89 90c0 21 3 41 19 73l61 122h47l-58 -117c7 5 16 8 27 8c46 -1 82 -31 82 -86c0 -56 -39 -90 -89 -90zM163 35c31 0 47 21 47 52c0 34 -17 52 -47 52c-29 0 -45 -19 -45 -52c0 -31 15 -52 45 -52zM143 430v232l-60 -51
v50l60 51h43v-282h-43z" />
    <glyph glyph-name="uni215A.afrc" horiz-adv-x="328" 
d="M36 337v38h256v-38h-256zM164 427c-25 0 -44 5 -58 16c-14 10 -23 27 -26 50h41c4 -19 16 -29 43 -29c28 0 44 20 44 58c0 43 -13 60 -43 60c-23 0 -35 -8 -47 -31h-35v161h153v-35h-119v-85c17 17 34 23 52 23c24 0 42 -6 58 -22c15 -15 22 -39 22 -71
c0 -29 -6 -52 -22 -70c-14 -17 -36 -25 -63 -25zM164 -3c-50 0 -89 34 -89 90c0 21 3 41 19 73l61 122h47l-58 -117c7 5 16 8 27 8c46 -1 82 -31 82 -86c0 -56 -39 -90 -89 -90zM163 35c31 0 47 21 47 52c0 34 -17 52 -47 52c-29 0 -45 -19 -45 -52c0 -31 15 -52 45 -52z
" />
    <glyph glyph-name="oneeighth.afrc" horiz-adv-x="328" 
d="M36 337v38h256v-38h-256zM165 -3c-50 0 -92 33 -92 83c0 29 16 53 42 66c-25 13 -37 34 -37 61c0 47 41 78 87 78c45 0 86 -31 86 -78c0 -27 -13 -48 -38 -61c28 -13 43 -37 43 -66c0 -50 -42 -83 -91 -83zM165 34c26 0 47 20 47 47s-21 48 -47 48c-27 0 -49 -21 -49 -48
s22 -47 49 -47zM165 163c23 0 43 18 43 42c0 23 -20 42 -43 42c-25 0 -44 -19 -44 -42c0 -24 19 -42 44 -42zM143 430v232l-60 -51v50l60 51h43v-282h-43z" />
    <glyph glyph-name="threeeighths.afrc" horiz-adv-x="328" 
d="M36 337v38h256v-38h-256zM164 426c-47 0 -86 27 -89 80h43c2 -24 22 -41 46 -41c27 0 47 18 47 48c0 31 -22 45 -48 45h-9v33h9c24 0 43 15 43 41c0 28 -18 42 -42 42c-23 0 -38 -15 -42 -38h-43c5 49 36 78 85 78c51 0 85 -33 85 -77c0 -32 -15 -52 -39 -61
c26 -11 44 -34 44 -68c0 -49 -37 -82 -90 -82zM165 -3c-50 0 -92 33 -92 83c0 29 16 53 42 66c-25 13 -37 34 -37 61c0 47 41 78 87 78c45 0 86 -31 86 -78c0 -27 -13 -48 -38 -61c28 -13 43 -37 43 -66c0 -50 -42 -83 -91 -83zM165 34c26 0 47 20 47 47s-21 48 -47 48
c-27 0 -49 -21 -49 -48s22 -47 49 -47zM165 163c23 0 43 18 43 42c0 23 -20 42 -43 42c-25 0 -44 -19 -44 -42c0 -24 19 -42 44 -42z" />
    <glyph glyph-name="fiveeighths.afrc" horiz-adv-x="328" 
d="M36 337v38h256v-38h-256zM164 427c-25 0 -44 5 -58 16c-14 10 -23 27 -26 50h41c4 -19 16 -29 43 -29c28 0 44 20 44 58c0 43 -13 60 -43 60c-23 0 -35 -8 -47 -31h-35v161h153v-35h-119v-85c17 17 34 23 52 23c24 0 42 -6 58 -22c15 -15 22 -39 22 -71
c0 -29 -6 -52 -22 -70c-14 -17 -36 -25 -63 -25zM165 -3c-50 0 -92 33 -92 83c0 29 16 53 42 66c-25 13 -37 34 -37 61c0 47 41 78 87 78c45 0 86 -31 86 -78c0 -27 -13 -48 -38 -61c28 -13 43 -37 43 -66c0 -50 -42 -83 -91 -83zM165 34c26 0 47 20 47 47s-21 48 -47 48
c-27 0 -49 -21 -49 -48s22 -47 49 -47zM165 163c23 0 43 18 43 42c0 23 -20 42 -43 42c-25 0 -44 -19 -44 -42c0 -24 19 -42 44 -42z" />
    <glyph glyph-name="seveneighths.afrc" horiz-adv-x="328" 
d="M36 337v38h256v-38h-256zM107 430l95 247h-84v-42h-41v77h165v-36l-94 -246h-41zM165 -3c-50 0 -92 33 -92 83c0 29 16 53 42 66c-25 13 -37 34 -37 61c0 47 41 78 87 78c45 0 86 -31 86 -78c0 -27 -13 -48 -38 -61c28 -13 43 -37 43 -66c0 -50 -42 -83 -91 -83zM165 34
c26 0 47 20 47 47s-21 48 -47 48c-27 0 -49 -21 -49 -48s22 -47 49 -47zM165 163c23 0 43 18 43 42c0 23 -20 42 -43 42c-25 0 -44 -19 -44 -42c0 -24 19 -42 44 -42z" />
    <glyph glyph-name="uni215F.afrc" horiz-adv-x="328" 
d="M36 337v38h256v-38h-256zM143 430v232l-60 -51v50l60 51h43v-282h-43z" />
    <glyph glyph-name="uni2189.afrc" horiz-adv-x="328" 
d="M36 337v38h256v-38h-256zM164 426c-51 1 -88 37 -88 85v120c0 50 37 84 88 84s88 -34 88 -84v-120c0 -48 -37 -84 -88 -85zM165 466c29 0 44 20 44 47v116c0 27 -15 47 -44 47c-30 0 -45 -20 -45 -47v-116c0 -27 15 -47 45 -47zM164 -3c-47 0 -86 27 -89 80h43
c2 -24 22 -41 46 -41c27 0 47 18 47 48c0 31 -22 45 -48 45h-9v33h9c24 0 43 15 43 41c0 28 -18 42 -42 42c-23 0 -38 -15 -42 -38h-43c5 49 36 78 85 78c51 0 85 -33 85 -77c0 -32 -15 -52 -39 -61c26 -11 44 -34 44 -68c0 -49 -37 -82 -90 -82z" />
    <glyph glyph-name="zero.sinf" horiz-adv-x="228" 
d="M114 -4c-51 1 -88 37 -88 85v120c0 50 37 84 88 84s88 -34 88 -84v-120c0 -48 -37 -84 -88 -85zM115 36c29 0 44 20 44 47v116c0 27 -15 47 -44 47c-30 0 -45 -20 -45 -47v-116c0 -27 15 -47 45 -47z" />
    <glyph glyph-name="one.sinf" horiz-adv-x="230" 
d="M110 0v232l-60 -51v50l60 51h43v-282h-43z" />
    <glyph glyph-name="two.sinf" horiz-adv-x="221" 
d="M27 0v37l110 126c14 15 18 29 18 45c0 21 -15 40 -42 40c-25 0 -41 -14 -43 -43h-43c3 50 38 80 86 80c50 0 84 -34 84 -77c0 -24 -9 -43 -30 -66l-91 -105h115v-37h-164z" />
    <glyph glyph-name="three.sinf" horiz-adv-x="221" 
d="M106 -3c-47 0 -86 27 -89 80h43c2 -24 22 -41 46 -41c27 0 47 18 47 48c0 31 -22 45 -48 45h-9v33h9c24 0 43 15 43 41c0 28 -18 42 -42 42c-23 0 -38 -15 -42 -38h-43c5 49 36 78 85 78c51 0 85 -33 85 -77c0 -32 -15 -52 -39 -61c26 -11 44 -34 44 -68
c0 -49 -37 -82 -90 -82z" />
    <glyph glyph-name="four.sinf" horiz-adv-x="208" 
d="M124 0v45h-108v38l97 199h43l-97 -199h65v70h40v-70h28v-38h-28v-45h-40z" />
    <glyph glyph-name="five.sinf" horiz-adv-x="221" 
d="M112 -3c-25 0 -44 5 -58 16c-14 10 -23 27 -26 50h41c4 -19 16 -29 43 -29c28 0 44 20 44 58c0 43 -13 60 -43 60c-23 0 -35 -8 -47 -31h-35v161h153v-35h-119v-85c17 17 34 23 52 23c24 0 42 -6 58 -22c15 -15 22 -39 22 -71c0 -29 -6 -52 -22 -70
c-14 -17 -36 -25 -63 -25z" />
    <glyph glyph-name="six.sinf" horiz-adv-x="229" 
d="M115 -3c-50 0 -89 34 -89 90c0 21 3 41 19 73l61 122h47l-58 -117c7 5 16 8 27 8c46 -1 82 -31 82 -86c0 -56 -39 -90 -89 -90zM114 35c31 0 47 21 47 52c0 34 -17 52 -47 52c-29 0 -45 -19 -45 -52c0 -31 15 -52 45 -52z" />
    <glyph glyph-name="seven.sinf" horiz-adv-x="215" 
d="M60 0l95 247h-84v-42h-41v77h165v-36l-94 -246h-41z" />
    <glyph glyph-name="eight.sinf" horiz-adv-x="223" 
d="M112 -3c-50 0 -92 33 -92 83c0 29 16 53 42 66c-25 13 -37 34 -37 61c0 47 41 78 87 78c45 0 86 -31 86 -78c0 -27 -13 -48 -38 -61c28 -13 43 -37 43 -66c0 -50 -42 -83 -91 -83zM112 34c26 0 47 20 47 47s-21 48 -47 48c-27 0 -49 -21 -49 -48s22 -47 49 -47zM112 163
c23 0 43 18 43 42c0 23 -20 42 -43 42c-25 0 -44 -19 -44 -42c0 -24 19 -42 44 -42z" />
    <glyph glyph-name="nine.sinf" horiz-adv-x="229" 
d="M76 0l59 117c-8 -5 -17 -8 -28 -8c-46 1 -82 31 -82 86c0 56 39 90 89 90s89 -34 89 -90c0 -21 -3 -41 -19 -73l-61 -122h-47zM115 143c29 0 45 19 45 52c0 31 -15 52 -45 52c-31 0 -47 -21 -47 -52c0 -34 17 -52 47 -52z" />
    <glyph glyph-name="zero.sups" horiz-adv-x="228" 
d="M114 430c-51 1 -88 37 -88 85v120c0 50 37 84 88 84s88 -34 88 -84v-120c0 -48 -37 -84 -88 -85zM115 470c29 0 44 20 44 47v116c0 27 -15 47 -44 47c-30 0 -45 -20 -45 -47v-116c0 -27 15 -47 45 -47z" />
    <glyph glyph-name="one.sups" horiz-adv-x="230" 
d="M110 434v232l-60 -51v50l60 51h43v-282h-43z" />
    <glyph glyph-name="two.sups" horiz-adv-x="221" 
d="M27 434v37l110 126c14 15 18 29 18 45c0 21 -15 40 -42 40c-25 0 -41 -14 -43 -43h-43c3 50 38 80 86 80c50 0 84 -34 84 -77c0 -24 -9 -43 -30 -66l-91 -105h115v-37h-164z" />
    <glyph glyph-name="three.sups" horiz-adv-x="221" 
d="M106 431c-47 0 -86 27 -89 80h43c2 -24 22 -41 46 -41c27 0 47 18 47 48c0 31 -22 45 -48 45h-9v33h9c24 0 43 15 43 41c0 28 -18 42 -42 42c-23 0 -38 -15 -42 -38h-43c5 49 36 78 85 78c51 0 85 -33 85 -77c0 -32 -15 -52 -39 -61c26 -11 44 -34 44 -68
c0 -49 -37 -82 -90 -82z" />
    <glyph glyph-name="four.sups" horiz-adv-x="218" 
d="M129 434v45h-108v38l97 199h43l-97 -199h65v70h40v-70h28v-38h-28v-45h-40z" />
    <glyph glyph-name="five.sups" horiz-adv-x="221" 
d="M112 431c-25 0 -44 5 -58 16c-14 10 -23 27 -26 50h41c4 -19 16 -29 43 -29c28 0 44 20 44 58c0 43 -13 60 -43 60c-23 0 -35 -8 -47 -31h-35v161h153v-35h-119v-85c17 17 34 23 52 23c24 0 42 -6 58 -22c15 -15 22 -39 22 -71c0 -29 -6 -52 -22 -70
c-14 -17 -36 -25 -63 -25z" />
    <glyph glyph-name="six.sups" horiz-adv-x="229" 
d="M115 431c-50 0 -89 34 -89 90c0 21 3 41 19 73l61 122h47l-58 -117c7 5 16 8 27 8c46 -1 82 -31 82 -86c0 -56 -39 -90 -89 -90zM114 469c31 0 47 21 47 52c0 34 -17 52 -47 52c-29 0 -45 -19 -45 -52c0 -31 15 -52 45 -52z" />
    <glyph glyph-name="seven.sups" horiz-adv-x="225" 
d="M65 434l95 247h-84v-42h-41v77h165v-36l-94 -246h-41z" />
    <glyph glyph-name="eight.sups" horiz-adv-x="223" 
d="M112 431c-50 0 -92 33 -92 83c0 29 16 53 42 66c-25 13 -37 34 -37 61c0 47 41 78 87 78c45 0 86 -31 86 -78c0 -27 -13 -48 -38 -61c28 -13 43 -37 43 -66c0 -50 -42 -83 -91 -83zM112 468c26 0 47 20 47 47s-21 48 -47 48c-27 0 -49 -21 -49 -48s22 -47 49 -47z
M112 597c23 0 43 18 43 42c0 23 -20 42 -43 42c-25 0 -44 -19 -44 -42c0 -24 19 -42 44 -42z" />
    <glyph glyph-name="nine.sups" horiz-adv-x="229" 
d="M76 434l59 117c-8 -5 -17 -8 -28 -8c-46 1 -82 31 -82 86c0 56 39 90 89 90s89 -34 89 -90c0 -21 -3 -41 -19 -73l-61 -122h-47zM115 577c29 0 45 19 45 52c0 31 -15 52 -45 52c-31 0 -47 -21 -47 -52c0 -34 17 -52 47 -52z" />
    <glyph glyph-name="a.sups" horiz-adv-x="289" 
d="M118 324c-31 0 -53 7 -70 25c-14 15 -21 34 -21 55c0 47 34 77 95 77h74v24c0 34 -18 53 -63 53c-29 0 -45 -8 -61 -27l-32 29c24 27 51 41 95 41c73 0 108 -34 108 -93v-180h-49v28c-15 -22 -39 -32 -76 -32zM127 363c42 0 69 14 69 61v22h-56c-45 0 -65 -15 -65 -41
c0 -6 0 -15 6 -24c7 -11 16 -18 46 -18z" />
    <glyph glyph-name="b.sups" horiz-adv-x="302" 
d="M169 324c-38 0 -59 14 -73 36v-32h-48v384h49v-145c15 20 35 34 72 34c33 0 58 -13 74 -35c19 -25 24 -65 24 -104c0 -38 -4 -78 -24 -104c-16 -21 -42 -34 -74 -34zM158 368c53 0 61 44 61 94s-8 95 -61 95c-54 0 -61 -45 -61 -95s7 -94 61 -94z" />
    <glyph glyph-name="c.sups" horiz-adv-x="262" 
d="M151 324c-65 0 -117 44 -117 138c0 93 52 138 117 138c36 0 64 -13 86 -38l-34 -29c-15 18 -29 23 -52 23c-22 0 -39 -9 -51 -24c-12 -17 -18 -41 -18 -70c0 -30 6 -53 18 -70c12 -15 29 -24 51 -24c23 0 37 5 52 23l34 -29c-22 -25 -50 -38 -86 -38z" />
    <glyph glyph-name="d.sups" horiz-adv-x="302" 
d="M133 324c-32 0 -58 13 -74 34c-20 26 -25 66 -25 104c0 39 5 79 25 104c16 22 41 35 74 35c37 0 57 -14 72 -34v145h48v-384h-47v32c-15 -22 -36 -36 -73 -36zM144 368c53 0 60 44 60 94s-7 95 -60 95s-62 -45 -62 -95s9 -94 62 -94z" />
    <glyph glyph-name="e.sups" horiz-adv-x="291" 
d="M154 324c-72 0 -119 47 -119 134c0 99 42 143 111 143c67 0 110 -49 110 -143v-6h-176c1 -55 27 -87 74 -87c27 0 46 8 64 27l29 -28c-26 -29 -55 -40 -93 -40zM80 483h133c-1 25 -7 43 -17 56s-28 21 -50 21s-39 -8 -50 -21c-10 -13 -15 -31 -16 -56z" />
    <glyph glyph-name="g.sups" horiz-adv-x="303" 
d="M143 210c-41 0 -67 9 -94 35l28 28c18 -17 35 -23 64 -23c43 0 64 27 64 75v45c-14 -28 -38 -42 -74 -42c-39 0 -65 19 -79 45c-14 24 -17 54 -18 89c1 39 5 69 18 93c14 26 40 46 81 46c36 0 57 -14 72 -39v35h49v-272c0 -72 -41 -115 -111 -115zM144 367
c52 0 61 44 61 96c0 50 -9 93 -61 93c-53 0 -61 -43 -61 -94s8 -95 61 -95z" />
    <glyph glyph-name="h.sups" horiz-adv-x="312" 
d="M98 712v-149c15 23 40 37 73 37c29 0 52 -8 69 -24c17 -18 26 -42 26 -77v-171h-49v165c0 47 -16 63 -57 63c-34 0 -62 -22 -62 -65v-163h-49v384h49z" />
    <glyph glyph-name="l.sups" horiz-adv-x="174" 
d="M97 712v-310c0 -18 8 -29 25 -29h35v-45h-43c-43 0 -66 34 -66 70v314h49z" />
    <glyph glyph-name="m.sups" horiz-adv-x="483" 
d="M338 600c30 0 53 -9 69 -26c20 -21 27 -46 27 -76v-170h-48v163c0 41 -23 65 -60 65c-38 0 -60 -25 -60 -65v-163h-49v163c0 41 -20 65 -58 65c-37 0 -61 -25 -61 -65v-163h-49v269h49v-33c17 25 42 36 72 36c32 0 52 -11 67 -28c5 -4 9 -9 12 -15c20 27 44 43 89 43z
" />
    <glyph glyph-name="o.sups" horiz-adv-x="294" 
d="M147 601c36 0 63 -14 81 -32c22 -22 31 -52 31 -107c0 -54 -9 -84 -31 -107c-18 -18 -45 -31 -81 -31s-63 13 -81 31c-22 23 -31 53 -31 107c0 55 9 85 31 107c17 18 45 32 81 32zM147 556c-19 0 -35 -7 -45 -18c-12 -13 -19 -38 -19 -76c0 -37 7 -62 19 -75
c10 -11 26 -18 45 -18s36 7 45 18c12 13 19 38 19 75c0 38 -7 63 -19 76c-9 11 -26 18 -45 18z" />
    <glyph glyph-name="p.sups" horiz-adv-x="303" 
d="M48 213v384h49v-32c14 22 34 36 72 36c32 0 58 -14 74 -34c20 -27 24 -67 24 -104c0 -39 -5 -79 -24 -105c-16 -21 -41 -34 -74 -34c-37 0 -57 14 -72 34v-145h-49zM158 368c53 0 61 45 61 95s-8 94 -61 94c-54 0 -61 -44 -61 -94s7 -95 61 -95z" />
    <glyph glyph-name="r.sups" horiz-adv-x="241" 
d="M171 601c27 0 48 -10 68 -29l-36 -35c-11 12 -25 19 -44 19c-28 0 -61 -22 -61 -78v-150h-49v269h47v-39c17 27 44 43 75 43z" />
    <glyph glyph-name="s.sups" horiz-adv-x="273" 
d="M130 324c-42 0 -78 11 -107 37l30 31c20 -20 49 -27 78 -27c42 0 71 14 71 41s-19 35 -47 38l-45 5c-45 4 -78 24 -78 70c0 52 43 82 102 82c40 0 71 -7 96 -27l-28 -31c-16 13 -37 17 -68 17c-40 0 -59 -16 -59 -39c0 -22 13 -33 43 -36l46 -5c43 -4 81 -25 81 -73
c0 -53 -48 -83 -115 -83z" />
    <glyph glyph-name="t.sups" horiz-adv-x="192" 
d="M102 680v-84h58v-40h-58v-153c0 -21 10 -31 26 -31h35v-44h-41c-44 0 -68 33 -68 72v156h-33v40h33v84h48z" />
    <glyph glyph-name="u.sups" horiz-adv-x="311" 
d="M141 322c-29 0 -51 9 -68 25c-20 19 -27 44 -27 77v171h48v-165c0 -47 17 -63 58 -63c34 0 62 22 62 65v163h48v-269h-48v34c-14 -23 -40 -38 -73 -38z" />
    <glyph glyph-name="copyright.sups" horiz-adv-x="544" 
d="M272 266c-126 0 -226 100 -226 226s100 226 226 226s226 -100 226 -226s-100 -226 -226 -226zM278 363c-71 0 -111 52 -111 129s40 129 111 129c34 0 56 -11 82 -33l-26 -26c-19 19 -34 24 -56 24c-25 0 -42 -8 -54 -23c-14 -17 -19 -42 -19 -71s5 -54 19 -71
c12 -15 29 -23 54 -23c22 0 37 5 56 24l26 -26c-26 -22 -48 -33 -82 -33zM272 302c106 0 188 82 188 190s-82 190 -188 190s-188 -82 -188 -190s82 -190 188 -190z" />
    <glyph glyph-name="registered.sups" horiz-adv-x="544" 
d="M272 266c-126 0 -226 100 -226 226s100 226 226 226s226 -100 226 -226s-100 -226 -226 -226zM272 302c106 0 188 82 188 190s-82 190 -188 190s-188 -82 -188 -190s82 -190 188 -190zM186 370v249h104c46 0 81 -25 81 -74c0 -38 -22 -60 -55 -68l58 -107h-41l-54 103
h-55v-103h-38zM224 507h64c28 0 45 9 45 38c0 30 -17 40 -45 40h-64v-78z" />
    <glyph glyph-name="egrave.sups" horiz-adv-x="291" 
d="M154 324c-72 0 -119 47 -119 134c0 99 42 143 111 143c67 0 110 -49 110 -143v-6h-176c1 -55 27 -87 74 -87c27 0 46 8 64 27l29 -28c-26 -29 -55 -40 -93 -40zM80 483h133c-1 25 -7 43 -17 56s-28 21 -50 21s-39 -8 -50 -21c-10 -13 -15 -31 -16 -56zM131 729l46 -84
h-38l-57 84h49z" />
    <glyph glyph-name="uni2117.sups" horiz-adv-x="544" 
d="M272 266c-126 0 -226 100 -226 226s100 226 226 226s226 -100 226 -226s-100 -226 -226 -226zM272 302c106 0 188 82 188 190s-82 190 -188 190s-188 -82 -188 -190s82 -190 188 -190zM190 370v249h106c46 0 81 -25 81 -76s-35 -76 -81 -76h-68v-97h-38zM228 501h66
c28 0 45 9 45 42c0 32 -17 42 -45 42h-66v-84z" />
    <glyph glyph-name="zero.numr" horiz-adv-x="333" 
d="M167 281c-72 0 -127 46 -127 121v192c0 75 55 122 127 122s126 -47 126 -122v-192c0 -75 -54 -121 -126 -121zM167 333c44 0 69 29 69 71v189c0 41 -25 71 -69 71c-45 0 -70 -29 -70 -71v-189c0 -43 25 -71 70 -71z" />
    <glyph glyph-name="one.numr" horiz-adv-x="330" 
d="M158 285v363l-83 -73v66l83 71h57v-427h-57z" />
    <glyph glyph-name="two.numr" horiz-adv-x="335" 
d="M41 285v52l175 202c19 21 25 37 25 63c0 36 -27 62 -72 62c-39 0 -71 -17 -71 -67h-56c0 72 50 119 127 119s128 -45 128 -114c0 -41 -11 -61 -42 -96l-149 -169h192v-52h-257z" />
    <glyph glyph-name="three.numr" horiz-adv-x="336" 
d="M163 281c-72 0 -135 37 -138 119h58c2 -49 39 -68 80 -68c44 0 79 28 79 73c0 46 -28 73 -82 73h-10v51h10c48 0 75 26 75 67c0 45 -34 69 -73 69c-43 0 -70 -25 -74 -64h-57c5 72 60 115 131 115c77 0 130 -47 130 -119c0 -46 -20 -74 -60 -91c44 -17 67 -49 67 -101
c0 -81 -61 -124 -136 -124z" />
    <glyph glyph-name="four.numr" horiz-adv-x="331" 
d="M198 285v66h-169v50l151 311h57l-150 -311h111v107h55v-107h49v-50h-49v-66h-55z" />
    <glyph glyph-name="five.numr" horiz-adv-x="328" 
d="M166 281c-42 0 -73 12 -92 32c-22 22 -29 47 -32 78h58c4 -38 25 -60 66 -60c19 0 36 5 48 17c19 20 20 49 20 79c0 50 -12 93 -65 93c-35 0 -60 -16 -68 -40h-52v232h233v-50h-182v-123c16 18 40 31 77 31c33 0 60 -11 77 -29c32 -33 38 -74 38 -114
c0 -45 -6 -82 -36 -113c-20 -20 -50 -33 -90 -33z" />
    <glyph glyph-name="six.numr" horiz-adv-x="332" 
d="M165 281c-77 0 -129 49 -129 127c0 30 6 57 29 101l107 203h62l-100 -189c12 6 25 11 43 11c68 0 117 -50 117 -123c0 -77 -51 -130 -129 -130zM165 333c42 0 72 29 72 76c0 44 -27 77 -72 77c-43 0 -72 -29 -72 -77c0 -47 29 -76 72 -76z" />
    <glyph glyph-name="seven.numr" horiz-adv-x="333" 
d="M94 285l147 375h-137v-70h-53v122h246v-51l-147 -376h-56z" />
    <glyph glyph-name="eight.numr" horiz-adv-x="332" 
d="M166 281c-76 0 -135 48 -135 124c0 50 28 82 63 101c-32 19 -56 48 -56 92c0 70 56 118 128 118s127 -48 127 -118c0 -44 -23 -73 -56 -92c36 -19 64 -51 64 -101c0 -76 -60 -124 -135 -124zM166 332c45 0 78 32 78 74s-34 74 -78 74s-78 -32 -78 -74s33 -74 78 -74z
M166 531c41 0 70 27 70 67c0 39 -27 67 -70 67s-70 -28 -70 -67c0 -40 28 -67 70 -67z" />
    <glyph glyph-name="nine.numr" horiz-adv-x="323" 
d="M96 285l94 185c-12 -4 -26 -7 -41 -7c-64 0 -111 50 -111 123c0 77 51 130 125 130s124 -49 124 -127c0 -31 -8 -57 -29 -100l-100 -204h-62zM163 511c40 0 67 29 67 77c0 47 -26 76 -67 76s-67 -29 -67 -76c0 -44 24 -77 67 -77z" />
    <glyph glyph-name="zero.dnom" horiz-adv-x="333" 
d="M167 -4c-72 0 -127 46 -127 121v192c0 75 55 122 127 122s126 -47 126 -122v-192c0 -75 -54 -121 -126 -121zM167 48c44 0 69 29 69 71v189c0 41 -25 71 -69 71c-45 0 -70 -29 -70 -71v-189c0 -43 25 -71 70 -71z" />
    <glyph glyph-name="one.dnom" horiz-adv-x="330" 
d="M158 0v363l-83 -73v66l83 71h57v-427h-57z" />
    <glyph glyph-name="two.dnom" horiz-adv-x="335" 
d="M41 0v52l175 202c19 21 25 37 25 63c0 36 -27 62 -72 62c-39 0 -71 -17 -71 -67h-56c0 72 50 119 127 119s128 -45 128 -114c0 -41 -11 -61 -42 -96l-149 -169h192v-52h-257z" />
    <glyph glyph-name="three.dnom" horiz-adv-x="336" 
d="M163 -4c-72 0 -135 37 -138 119h58c2 -49 39 -68 80 -68c44 0 79 28 79 73c0 46 -28 73 -82 73h-10v51h10c48 0 75 26 75 67c0 45 -34 69 -73 69c-43 0 -70 -25 -74 -64h-57c5 72 60 115 131 115c77 0 130 -47 130 -119c0 -46 -20 -74 -60 -91c44 -17 67 -49 67 -101
c0 -81 -61 -124 -136 -124z" />
    <glyph glyph-name="four.dnom" horiz-adv-x="321" 
d="M193 0v66h-169v50l151 311h57l-150 -311h111v107h55v-107h49v-50h-49v-66h-55z" />
    <glyph glyph-name="five.dnom" horiz-adv-x="328" 
d="M166 -4c-42 0 -73 12 -92 32c-22 22 -29 47 -32 78h58c4 -38 25 -60 66 -60c19 0 36 5 48 17c19 20 20 49 20 79c0 50 -12 93 -65 93c-35 0 -60 -16 -68 -40h-52v232h233v-50h-182v-123c16 18 40 31 77 31c33 0 60 -11 77 -29c32 -33 38 -74 38 -114
c0 -45 -6 -82 -36 -113c-20 -20 -50 -33 -90 -33z" />
    <glyph glyph-name="six.dnom" horiz-adv-x="332" 
d="M165 -4c-77 0 -129 49 -129 127c0 30 6 57 29 101l107 203h62l-100 -189c12 6 25 11 43 11c68 0 117 -50 117 -123c0 -77 -51 -130 -129 -130zM165 48c42 0 72 29 72 76c0 44 -27 77 -72 77c-43 0 -72 -29 -72 -77c0 -47 29 -76 72 -76z" />
    <glyph glyph-name="seven.dnom" horiz-adv-x="317" 
d="M84 0l147 375h-137v-70h-53v122h246v-51l-147 -376h-56z" />
    <glyph glyph-name="eight.dnom" horiz-adv-x="332" 
d="M166 -4c-76 0 -135 48 -135 124c0 50 28 82 63 101c-32 19 -56 48 -56 92c0 70 56 118 128 118s127 -48 127 -118c0 -44 -23 -73 -56 -92c36 -19 64 -51 64 -101c0 -76 -60 -124 -135 -124zM166 47c45 0 78 32 78 74s-34 74 -78 74s-78 -32 -78 -74s33 -74 78 -74z
M166 246c41 0 70 27 70 67c0 39 -27 67 -70 67s-70 -28 -70 -67c0 -40 28 -67 70 -67z" />
    <glyph glyph-name="nine.dnom" horiz-adv-x="323" 
d="M96 0l94 185c-12 -4 -26 -7 -41 -7c-64 0 -111 50 -111 123c0 77 51 130 125 130s124 -49 124 -127c0 -31 -8 -57 -29 -100l-100 -204h-62zM163 226c40 0 67 29 67 77c0 47 -26 76 -67 76s-67 -29 -67 -76c0 -44 24 -77 67 -77z" />
    <glyph glyph-name="space.frac" horiz-adv-x="49" 
 />
    <glyph glyph-name="zero.osf" horiz-adv-x="522" 
d="M261 -6c-111 0 -195 78 -195 196v217c0 118 84 196 195 196s195 -78 195 -196v-217c0 -118 -84 -196 -195 -196zM261 58c79 0 123 58 123 136v209c0 78 -44 136 -123 136s-123 -58 -123 -136v-209c0 -78 44 -136 123 -136z" />
    <glyph glyph-name="one.osf" horiz-adv-x="373" 
d="M184 0v517l-133 -117v82l133 115h72v-597h-72z" />
    <glyph glyph-name="two.osf" horiz-adv-x="506" 
d="M41 0v64l251 242c42 41 68 85 68 134c0 67 -50 119 -122 119c-67 0 -123 -47 -123 -121h-72c0 107 83 185 195 185c117 0 194 -80 194 -182c0 -72 -39 -125 -92 -177l-204 -200h314v-64h-409z" />
    <glyph glyph-name="three.osf" horiz-adv-x="515" 
d="M247 -123c-112 0 -203 59 -209 188h72c6 -89 69 -124 137 -124c77 0 137 51 137 138c0 86 -43 138 -140 138h-15v63h15c87 0 127 49 127 129c0 85 -55 130 -124 130c-75 0 -121 -46 -128 -119h-72c8 115 92 183 200 183c116 0 196 -77 196 -193c0 -75 -32 -129 -96 -158
c72 -27 109 -85 109 -174c0 -131 -93 -201 -209 -201z" />
    <glyph glyph-name="four.osf" horiz-adv-x="541" 
d="M339 -123v153h-303v66l264 533h77l-265 -533h227v205h72v-205h90v-66h-90v-153h-72z" />
    <glyph glyph-name="five.osf" horiz-adv-x="517" 
d="M253 -122c-62 0 -112 20 -143 51c-31 32 -46 73 -50 124h72c9 -71 46 -111 121 -111c35 0 67 12 88 33c37 37 39 94 39 145c0 87 -17 173 -120 173c-62 0 -104 -28 -118 -70h-65v374h360v-64h-295v-226c28 31 72 49 128 49c53 0 95 -17 123 -45c52 -52 59 -124 59 -191
c0 -71 -6 -138 -57 -189c-33 -33 -79 -53 -142 -53z" />
    <glyph glyph-name="six.osf" horiz-adv-x="527" 
d="M264 -6c-131 0 -213 88 -213 220c0 58 16 116 52 179l190 335h76l-180 -309c29 15 53 19 87 19c121 0 200 -91 200 -218c0 -130 -82 -226 -212 -226zM263 55c85 0 141 64 141 161c0 88 -49 162 -141 162c-85 0 -140 -64 -140 -162c0 -97 55 -161 140 -161z" />
    <glyph glyph-name="seven.osf" horiz-adv-x="502" 
d="M100 -123l290 656h-275v-112h-70v176h422v-64l-291 -656h-76z" />
    <glyph glyph-name="eight.osf" horiz-adv-x="538" 
d="M269 -6c-118 0 -210 82 -210 202c0 83 47 139 107 173c-56 32 -93 84 -93 158c0 111 83 191 196 191s196 -80 196 -191c0 -74 -36 -126 -92 -158c60 -34 106 -90 106 -173c0 -120 -92 -202 -210 -202zM269 58c78 0 138 60 138 139s-60 139 -138 139s-138 -60 -138 -139
s60 -139 138 -139zM269 399c73 0 124 52 124 127c0 74 -51 128 -124 128s-124 -54 -124 -128c0 -75 51 -127 124 -127z" />
    <glyph glyph-name="nine.osf" horiz-adv-x="527" 
d="M158 -131l180 309c-29 -15 -53 -19 -87 -19c-121 0 -200 91 -200 218c0 130 82 226 212 226c131 0 213 -88 213 -220c0 -58 -16 -116 -52 -179l-190 -335h-76zM264 219c85 0 140 64 140 162c0 97 -55 161 -140 161s-141 -64 -141 -161c0 -88 49 -162 141 -162z" />
    <glyph glyph-name="zero.lf" horiz-adv-x="522" 
d="M261 -6c-112 0 -195 78 -195 196v332c0 118 83 196 195 196c111 0 195 -78 195 -196v-332c0 -118 -84 -196 -195 -196zM261 58c79 0 123 58 123 136v324c0 78 -44 136 -123 136s-123 -58 -123 -136v-324c0 -78 44 -136 123 -136z" />
    <glyph glyph-name="one.lf" horiz-adv-x="372" 
d="M184 0v632l-133 -117v82l133 115h72v-712h-72z" />
    <glyph glyph-name="two.lf" horiz-adv-x="487" 
d="M41 0v64l281 357c27 35 39 66 39 105c0 76 -45 128 -123 128c-66 0 -124 -37 -124 -129h-72c0 113 77 193 196 193c117 0 195 -76 195 -192c0 -57 -17 -94 -56 -144l-249 -318h305v-64h-392z" />
    <glyph glyph-name="three.lf" horiz-adv-x="512" 
d="M247 -6c-112 0 -203 59 -209 188h72c6 -89 69 -124 137 -124c77 0 137 51 137 138c0 86 -43 137 -140 137h-15v63h15c87 0 127 48 127 128c0 85 -55 130 -124 130c-75 0 -121 -46 -128 -119h-72c8 115 92 183 200 183c116 0 196 -77 196 -193c0 -75 -32 -128 -96 -157
c72 -27 109 -84 109 -173c0 -131 -93 -201 -209 -201z" />
    <glyph glyph-name="four.lf" horiz-adv-x="518" 
d="M320 0v113h-284v65l257 534h77l-257 -534h207v202h71v-202h87v-65h-87v-113h-71z" />
    <glyph glyph-name="five.lf" horiz-adv-x="517" 
d="M254 -6c-62 0 -112 20 -143 51c-31 32 -46 73 -50 124h72c9 -71 46 -111 121 -111c35 0 67 12 88 33c37 37 39 94 39 145c0 87 -17 172 -120 172c-62 0 -104 -28 -118 -70h-65v374h360v-64h-295v-226c28 31 72 49 128 49c53 0 95 -17 123 -45c52 -52 59 -123 59 -190
c0 -71 -6 -138 -57 -189c-33 -33 -79 -53 -142 -53z" />
    <glyph glyph-name="six.lf" horiz-adv-x="489" 
d="M245 -6c-121 0 -198 83 -198 205c0 48 11 91 44 158l176 355h75l-163 -325c22 14 49 20 78 20c111 0 185 -85 185 -202c0 -121 -75 -211 -197 -211zM244 58c76 0 126 56 126 144c0 79 -44 144 -126 144c-76 0 -125 -56 -125 -144s49 -144 125 -144z" />
    <glyph glyph-name="seven.lf" horiz-adv-x="471" 
d="M113 0l247 648h-248v-112h-71v176h395v-64l-247 -648h-76z" />
    <glyph glyph-name="eight.lf" horiz-adv-x="538" 
d="M269 -6c-118 0 -210 82 -210 202c0 83 47 139 107 173c-56 32 -93 84 -93 158c0 111 83 191 196 191s196 -80 196 -191c0 -74 -36 -126 -92 -158c60 -34 106 -90 106 -173c0 -120 -92 -202 -210 -202zM269 58c78 0 138 60 138 139s-60 139 -138 139s-138 -60 -138 -139
s60 -139 138 -139zM269 399c73 0 124 52 124 127c0 74 -51 128 -124 128s-124 -54 -124 -128c0 -75 51 -127 124 -127z" />
    <glyph glyph-name="nine.lf" horiz-adv-x="489" 
d="M244 718c121 0 198 -83 198 -205c0 -48 -11 -91 -44 -158l-176 -355h-75l163 325c-22 -14 -49 -20 -78 -20c-111 0 -185 85 -185 202c0 121 75 211 197 211zM245 654c-76 0 -126 -56 -126 -144c0 -79 44 -144 126 -144c76 0 125 56 125 144s-49 144 -125 144z" />
    <glyph glyph-name="zero.tosf" horiz-adv-x="522" 
d="M261 -6c-111 0 -195 78 -195 196v217c0 118 84 196 195 196s195 -78 195 -196v-217c0 -118 -84 -196 -195 -196zM261 58c79 0 123 58 123 136v209c0 78 -44 136 -123 136s-123 -58 -123 -136v-209c0 -78 44 -136 123 -136z" />
    <glyph glyph-name="one.tosf" horiz-adv-x="522" 
d="M258 0v517l-133 -117v82l133 115h72v-597h-72z" />
    <glyph glyph-name="two.tosf" horiz-adv-x="522" 
d="M58 0v64l251 242c43 41 68 84 68 134c0 66 -51 119 -122 119c-67 0 -123 -48 -123 -121h-72c0 106 83 185 195 185c116 0 194 -79 194 -182c0 -72 -40 -125 -92 -177l-203 -200h313v-64h-409z" />
    <glyph glyph-name="three.tosf" horiz-adv-x="522" 
d="M251 -123c-112 0 -203 59 -209 188h72c6 -89 69 -124 137 -124c77 0 137 51 137 138c0 86 -43 138 -140 138h-15v63h15c87 0 127 49 127 129c0 85 -55 130 -124 130c-75 0 -121 -46 -128 -119h-72c8 115 92 183 200 183c116 0 196 -77 196 -193c0 -75 -32 -129 -96 -158
c72 -27 109 -85 109 -174c0 -131 -93 -201 -209 -201z" />
    <glyph glyph-name="four.tosf" horiz-adv-x="522" 
d="M333 -123v153h-301v66l266 533h76l-265 -533h224v201h71v-201h87v-66h-87v-153h-71z" />
    <glyph glyph-name="five.tosf" horiz-adv-x="522" 
d="M258 -122c-62 0 -112 20 -143 51c-31 32 -46 73 -50 124h72c9 -71 46 -111 121 -111c35 0 67 12 88 33c37 37 39 94 39 145c0 87 -17 173 -120 173c-62 0 -104 -28 -118 -70h-65v374h360v-64h-295v-226c28 31 72 49 128 49c53 0 95 -17 123 -45c52 -52 59 -124 59 -191
c0 -71 -6 -138 -57 -189c-33 -33 -79 -53 -142 -53z" />
    <glyph glyph-name="six.tosf" horiz-adv-x="522" 
d="M263 -6c-131 0 -213 88 -213 220c0 58 16 116 52 179l190 335h76l-180 -309c29 15 53 19 87 19c121 0 200 -91 200 -218c0 -130 -82 -226 -212 -226zM262 55c85 0 141 64 141 161c0 88 -49 162 -141 162c-85 0 -140 -64 -140 -162c0 -97 55 -161 140 -161z" />
    <glyph glyph-name="seven.tosf" horiz-adv-x="522" 
d="M115 -123l290 656h-275v-112h-70v176h422v-64l-291 -656h-76z" />
    <glyph glyph-name="eight.tosf" horiz-adv-x="522" 
d="M261 -6c-118 0 -210 82 -210 202c0 83 47 139 107 173c-56 32 -93 84 -93 158c0 111 83 191 196 191s196 -80 196 -191c0 -74 -36 -126 -92 -158c60 -34 106 -90 106 -173c0 -120 -92 -202 -210 -202zM261 58c78 0 138 60 138 139s-60 139 -138 139s-138 -60 -138 -139
s60 -139 138 -139zM261 399c73 0 124 52 124 127c0 74 -51 128 -124 128s-124 -54 -124 -128c0 -75 51 -127 124 -127z" />
    <glyph glyph-name="nine.tosf" horiz-adv-x="522" 
d="M154 -131l180 309c-29 -15 -53 -19 -87 -19c-121 0 -200 91 -200 218c0 130 82 226 212 226c131 0 213 -88 213 -220c0 -58 -16 -116 -52 -179l-190 -335h-76zM260 219c85 0 140 64 140 162c0 97 -55 161 -140 161s-141 -64 -141 -161c0 -88 49 -162 141 -162z" />
    <glyph glyph-name="uni2007.tosf" horiz-adv-x="522" 
 />
    <glyph glyph-name="hyphen.case" horiz-adv-x="426" 
d="M350 389v-67h-274v67h274z" />
    <glyph glyph-name="exclamdown.case" horiz-adv-x="316" 
d="M174 512l11 -512h-83l10 512h62zM186 712v-84h-86v84h86z" />
    <glyph glyph-name="guillemotleft.case" horiz-adv-x="554" 
d="M476 566v-90l-121 -120l121 -121v-89l-210 210zM250 566v-90l-120 -120l120 -121v-89l-210 210z" />
    <glyph glyph-name="uni00AD.case" horiz-adv-x="426" 
d="M350 389v-67h-274v67h274z" />
    <glyph glyph-name="periodcentered.case" horiz-adv-x="270" 
d="M182 406v-94h-94v94h94z" />
    <glyph glyph-name="guillemotright.case" horiz-adv-x="554" 
d="M304 566l210 -210l-210 -210v90l120 120l-120 121v89zM78 566l210 -210l-210 -210v90l121 120l-121 121v89z" />
    <glyph glyph-name="questiondown.case" horiz-adv-x="497" 
d="M263 512v-40c0 -39 -10 -64 -31 -94l-81 -117c-19 -28 -33 -51 -33 -85c0 -67 48 -118 115 -118c71 0 116 56 116 119h72c0 -102 -80 -183 -188 -183c-105 0 -187 75 -187 182c0 47 19 83 45 121l82 118c12 18 18 42 18 58v39h72zM270 712v-84h-86v84h86z" />
    <glyph glyph-name="endash.case" horiz-adv-x="570" 
d="M494 392v-67h-418v67h418z" />
    <glyph glyph-name="emdash.case" horiz-adv-x="914" 
d="M838 391v-67h-762v67h762z" />
    <glyph glyph-name="bullet.case" horiz-adv-x="532" 
d="M266 522c90 0 163 -73 163 -163s-73 -163 -163 -163s-163 73 -163 163s73 163 163 163z" />
    <glyph glyph-name="guilsinglleft.case" horiz-adv-x="328" 
d="M250 569v-90l-120 -120l120 -121v-89l-210 210z" />
    <glyph glyph-name="guilsinglright.case" horiz-adv-x="328" 
d="M78 569l210 -210l-210 -210v90l120 120l-120 121v89z" />
    <glyph glyph-name="zero.zero" horiz-adv-x="522" 
d="M229 318v77h65v-77h-65zM261 -6c-112 0 -195 78 -195 196v332c0 118 83 196 195 196c111 0 195 -78 195 -196v-332c0 -118 -84 -196 -195 -196zM261 58c79 0 123 58 123 136v324c0 78 -44 136 -123 136s-123 -58 -123 -136v-324c0 -78 44 -136 123 -136z" />
    <glyph glyph-name="zero.osf.zero" horiz-adv-x="522" 
d="M230 260v77h63v-77h-63zM261 -6c-111 0 -195 78 -195 196v217c0 118 84 196 195 196s195 -78 195 -196v-217c0 -118 -84 -196 -195 -196zM261 58c79 0 123 58 123 136v209c0 78 -44 136 -123 136s-123 -58 -123 -136v-209c0 -78 44 -136 123 -136z" />
    <glyph glyph-name="zero.lf.zero" horiz-adv-x="522" 
d="M229 318v77h65v-77h-65zM261 -6c-112 0 -195 78 -195 196v332c0 118 83 196 195 196c111 0 195 -78 195 -196v-332c0 -118 -84 -196 -195 -196zM261 58c79 0 123 58 123 136v324c0 78 -44 136 -123 136s-123 -58 -123 -136v-324c0 -78 44 -136 123 -136z" />
    <glyph glyph-name="zero.tosf.zero" horiz-adv-x="522" 
d="M230 260v77h63v-77h-63zM261 -6c-111 0 -195 78 -195 196v217c0 118 84 196 195 196s195 -78 195 -196v-217c0 -118 -84 -196 -195 -196zM261 58c79 0 123 58 123 136v209c0 78 -44 136 -123 136s-123 -58 -123 -136v-209c0 -78 44 -136 123 -136z" />
    <glyph glyph-name="exclam.ss01" horiz-adv-x="316" 
d="M216 712l-13 -512h-58l-13 512h84zM174 97c28 0 50 -22 50 -50s-22 -50 -50 -50s-51 22 -51 50s23 50 51 50z" />
    <glyph glyph-name="period.ss01" horiz-adv-x="272" 
d="M136 111c31 0 57 -26 57 -57s-26 -57 -57 -57s-57 26 -57 57s26 57 57 57z" />
    <glyph glyph-name="colon.ss01" horiz-adv-x="299" 
d="M163 402c31 0 57 -26 57 -57s-26 -57 -57 -57s-57 26 -57 57s26 57 57 57zM163 111c31 0 57 -26 57 -57s-26 -57 -57 -57s-57 26 -57 57s26 57 57 57z" />
    <glyph glyph-name="semicolon.ss01" horiz-adv-x="297" 
d="M207 88v-153l-88 -79v232h88zM163 402c31 0 57 -26 57 -57s-26 -57 -57 -57s-57 26 -57 57s26 57 57 57z" />
    <glyph glyph-name="question.ss01" horiz-adv-x="497" 
d="M264 718c105 0 187 -75 187 -182c0 -47 -19 -83 -45 -121l-82 -118c-12 -18 -18 -42 -18 -58v-39h-72v40c0 39 10 64 31 94l81 117c19 28 33 51 33 85c0 67 -48 118 -115 118c-71 0 -116 -56 -116 -119h-72c0 102 80 183 188 183zM269 97c28 0 50 -22 50 -50
s-22 -50 -50 -50s-50 22 -50 50s22 50 50 50z" />
    <glyph glyph-name="at.ss01" horiz-adv-x="963" 
d="M513 677c221 0 374 -144 374 -355c0 -158 -124 -294 -292 -294h-63l12 57c-42 -49 -75 -65 -123 -65c-81 0 -141 48 -141 143c0 26 5 59 10 84c16 84 42 143 82 179c36 31 80 47 121 47c64 0 98 -34 112 -70l13 63h64l-76 -385c123 2 218 107 218 241
c0 177 -131 299 -311 299c-207 0 -373 -169 -373 -379c0 -220 148 -379 379 -379h50l-11 -55h-49c-254 0 -433 184 -433 434c0 244 194 435 437 435zM497 412c-30 0 -59 -12 -80 -33c-28 -27 -47 -64 -59 -133c-5 -26 -8 -53 -8 -74c0 -58 31 -91 82 -91c28 0 58 11 81 34
c26 25 44 61 58 132c5 26 9 54 9 74c0 67 -41 91 -83 91z" />
    <glyph glyph-name="i.ss01" horiz-adv-x="253" 
d="M162 492v-492h-72v492h72zM126 726c27 0 50 -22 50 -49s-23 -49 -50 -49s-49 22 -49 49s22 49 49 49z" />
    <glyph glyph-name="j.ss01" horiz-adv-x="253" 
d="M162 492v-581c0 -75 -39 -132 -125 -132h-52v63h39c50 0 66 24 66 72v578h72zM126 726c27 0 50 -22 50 -49s-23 -49 -50 -49s-49 22 -49 49s22 49 49 49z" />
    <glyph glyph-name="exclamdown.ss01" horiz-adv-x="316" 
d="M171 292l13 -512h-84l13 512h58zM142 495c28 0 51 -22 51 -50s-23 -50 -51 -50s-50 22 -50 50s22 50 50 50z" />
    <glyph glyph-name="dieresis.ss01" 
d="M371 691c25 0 45 -21 45 -46s-20 -45 -45 -45s-45 20 -45 45s20 46 45 46zM159 691c25 0 45 -21 45 -46s-20 -45 -45 -45s-45 20 -45 45s20 46 45 46z" />
    <glyph glyph-name="periodcentered.ss01" horiz-adv-x="272" 
d="M136 326c31 0 57 -25 57 -56s-26 -57 -57 -57s-57 26 -57 57s26 56 57 56z" />
    <glyph glyph-name="cedilla.ss01" 
d="M241 -229v45c31 0 54 22 54 51s-23 51 -54 51v45c63 0 104 -41 104 -96s-41 -96 -104 -96z" />
    <glyph glyph-name="questiondown.ss01" horiz-adv-x="497" 
d="M263 292v-40c0 -39 -10 -64 -31 -94l-81 -117c-19 -28 -33 -51 -33 -85c0 -67 48 -118 115 -118c71 0 116 56 116 119h72c0 -102 -80 -183 -188 -183c-105 0 -187 75 -187 182c0 47 19 83 45 121l82 118c12 18 18 42 18 58v39h72zM228 495c28 0 50 -22 50 -50
s-22 -50 -50 -50s-50 22 -50 50s22 50 50 50z" />
    <glyph glyph-name="Adieresis.ss01" horiz-adv-x="611" 
d="M338 712l261 -712h-81l-57 161h-311l-57 -161h-81l262 712h64zM306 604l-133 -377h265zM412 878c25 0 45 -21 45 -46s-20 -45 -45 -45s-45 20 -45 45s20 46 45 46zM200 878c25 0 45 -21 45 -46s-20 -45 -45 -45s-45 20 -45 45s20 46 45 46z" />
    <glyph glyph-name="Ccedilla.ss01" horiz-adv-x="637" 
d="M325 718c129 0 222 -79 247 -212h-78c-19 88 -80 144 -169 144c-48 0 -90 -17 -123 -50c-45 -46 -50 -98 -50 -244s5 -198 50 -244c33 -33 75 -50 123 -50c89 0 150 56 169 144h78c-25 -133 -119 -212 -247 -212c-74 0 -134 26 -178 70c-67 67 -71 129 -71 292
s4 225 71 292c44 44 104 70 178 70zM283 -82v45c63 0 104 -41 104 -96s-41 -96 -104 -96v45c31 0 54 22 54 51s-23 51 -54 51z" />
    <glyph glyph-name="Edieresis.ss01" horiz-adv-x="600" 
d="M545 712v-68h-366v-251h312v-68h-312v-257h366v-68h-442v712h442zM417 878c25 0 45 -21 45 -46s-20 -45 -45 -45s-45 20 -45 45s20 46 45 46zM205 878c25 0 45 -21 45 -46s-20 -45 -45 -45s-45 20 -45 45s20 46 45 46z" />
    <glyph glyph-name="Idieresis.ss01" horiz-adv-x="282" 
d="M179 712v-712h-76v712h76zM246 878c25 0 45 -21 45 -46s-20 -45 -45 -45s-45 20 -45 45s20 46 45 46zM34 878c25 0 45 -21 45 -46s-20 -45 -45 -45s-45 20 -45 45s20 46 45 46z" />
    <glyph glyph-name="Odieresis.ss01" horiz-adv-x="650" 
d="M325 718c74 0 133 -26 177 -70c67 -67 72 -129 72 -292s-5 -225 -72 -292c-44 -44 -103 -70 -177 -70s-134 26 -178 70c-67 67 -71 129 -71 292s4 225 71 292c44 44 104 70 178 70zM325 650c-48 0 -90 -17 -123 -50c-45 -46 -50 -98 -50 -244s5 -198 50 -244
c33 -33 75 -50 123 -50s90 17 123 50c45 46 50 98 50 244s-5 198 -50 244c-33 33 -75 50 -123 50zM431 878c25 0 45 -21 45 -46s-20 -45 -45 -45s-45 20 -45 45s20 46 45 46zM219 878c25 0 45 -21 45 -46s-20 -45 -45 -45s-45 20 -45 45s20 46 45 46z" />
    <glyph glyph-name="Udieresis.ss01" horiz-adv-x="683" 
d="M590 712v-477c0 -142 -105 -241 -249 -241s-248 99 -248 241v477h76v-471c0 -108 68 -179 172 -179s173 71 173 179v471h76zM448 878c25 0 45 -21 45 -46s-20 -45 -45 -45s-45 20 -45 45s20 46 45 46zM236 878c25 0 45 -21 45 -46s-20 -45 -45 -45s-45 20 -45 45
s20 46 45 46z" />
    <glyph glyph-name="adieresis.ss01" horiz-adv-x="526" 
d="M244 498c133 0 197 -58 197 -164v-334h-72v47c-39 -39 -76 -53 -142 -53c-68 0 -105 12 -139 45c-25 24 -37 61 -37 100c0 87 61 142 171 142h147v47c0 71 -35 108 -126 108c-62 0 -94 -16 -124 -57l-49 45c43 57 93 74 174 74zM369 227h-137c-74 0 -111 -29 -111 -87
c0 -57 35 -84 114 -84c41 0 77 4 109 33c17 16 25 44 25 85v53zM358 691c25 0 45 -21 45 -46s-20 -45 -45 -45s-45 20 -45 45s20 46 45 46zM146 691c25 0 45 -21 45 -46s-20 -45 -45 -45s-45 20 -45 45s20 46 45 46z" />
    <glyph glyph-name="ccedilla.ss01" horiz-adv-x="491" 
d="M282 498c68 0 111 -18 162 -73l-49 -46c-37 41 -66 55 -113 55c-48 0 -88 -19 -114 -56c-23 -32 -32 -70 -32 -132s9 -100 32 -132c26 -37 66 -56 114 -56c47 0 76 15 113 56l49 -47c-51 -55 -94 -73 -162 -73c-124 0 -218 84 -218 252s94 252 218 252zM241 -229v45
c31 0 54 22 54 51s-23 51 -54 51v45c63 0 104 -41 104 -96s-41 -96 -104 -96z" />
    <glyph glyph-name="edieresis.ss01" 
d="M265 498c128 0 202 -91 202 -239v-32h-332c0 -108 50 -170 145 -170c57 0 90 17 129 56l49 -43c-50 -50 -97 -76 -180 -76c-131 0 -215 78 -215 252c0 160 77 252 202 252zM265 437c-53 0 -94 -29 -115 -74c-12 -26 -13 -42 -15 -82h261c-3 40 -4 56 -16 82
c-21 45 -62 74 -115 74zM371 691c25 0 45 -21 45 -46s-20 -45 -45 -45s-45 20 -45 45s20 46 45 46zM159 691c25 0 45 -21 45 -46s-20 -45 -45 -45s-45 20 -45 45s20 46 45 46z" />
    <glyph glyph-name="idieresis.ss01" horiz-adv-x="253" 
d="M232 691c25 0 45 -21 45 -46s-20 -45 -45 -45s-45 20 -45 45s20 46 45 46zM20 691c25 0 45 -21 45 -46s-20 -45 -45 -45s-45 20 -45 45s20 46 45 46zM162 492v-492h-72v492h72z" />
    <glyph glyph-name="odieresis.ss01" 
d="M265 498c60 0 107 -21 141 -56c50 -50 60 -120 60 -196s-10 -145 -60 -196c-34 -35 -81 -56 -141 -56s-107 21 -141 56c-50 51 -60 120 -60 196s10 146 60 196c34 35 81 56 141 56zM265 434c-35 0 -65 -12 -89 -36c-36 -36 -40 -96 -40 -152c0 -55 3 -115 40 -152
c24 -24 54 -36 89 -36s66 12 90 36c36 37 39 97 39 152c0 56 -3 116 -39 152c-24 24 -55 36 -90 36zM371 691c25 0 45 -21 45 -46s-20 -45 -45 -45s-45 20 -45 45s20 46 45 46zM159 691c25 0 45 -21 45 -46s-20 -45 -45 -45s-45 20 -45 45s20 46 45 46z" />
    <glyph glyph-name="divide.ss01" horiz-adv-x="522" 
d="M471 303v-67h-420v67h420zM261 147c31 0 57 -26 57 -57s-26 -57 -57 -57s-57 26 -57 57s26 57 57 57zM261 506c31 0 57 -26 57 -57s-26 -57 -57 -57s-57 26 -57 57s26 57 57 57z" />
    <glyph glyph-name="udieresis.ss01" horiz-adv-x="563" 
d="M473 492v-492h-71v55c-35 -40 -84 -61 -139 -61c-53 0 -97 16 -127 46c-35 34 -51 81 -51 138v314h72v-303c0 -87 47 -131 121 -131s123 45 123 131v303h72zM385 691c25 0 45 -21 45 -46s-20 -45 -45 -45s-45 20 -45 45s20 46 45 46zM173 691c25 0 45 -21 45 -46
s-20 -45 -45 -45s-45 20 -45 45s20 46 45 46z" />
    <glyph glyph-name="ydieresis.ss01" horiz-adv-x="447" 
d="M436 492l-227 -620c-10 -27 -21 -45 -35 -58c-26 -25 -61 -34 -96 -34h-31v64h22c50 0 65 16 81 61l38 105l-177 482h78l135 -395l134 395h78zM330 691c25 0 45 -21 45 -46s-20 -45 -45 -45s-45 20 -45 45s20 46 45 46zM118 691c25 0 45 -21 45 -46s-20 -45 -45 -45
s-45 20 -45 45s20 46 45 46z" />
    <glyph glyph-name="ij.ss01" horiz-adv-x="506" 
d="M162 492v-492h-72v492h72zM126 726c27 0 50 -22 50 -49s-23 -49 -50 -49s-49 22 -49 49s22 49 49 49zM415 492v-581c0 -75 -39 -132 -125 -132h-52v63h39c50 0 66 24 66 72v578h72zM379 726c27 0 50 -22 50 -49s-23 -49 -50 -49s-49 22 -49 49s22 49 49 49z" />
    <glyph glyph-name="Ydieresis.ss01" horiz-adv-x="514" 
d="M506 712l-210 -418v-294h-76v294l-212 418h82l168 -341l166 341h82zM363 878c25 0 45 -21 45 -46s-20 -45 -45 -45s-45 20 -45 45s20 46 45 46zM151 878c25 0 45 -21 45 -46s-20 -45 -45 -45s-45 20 -45 45s20 46 45 46z" />
    <glyph glyph-name="dotaccent.ss01" 
d="M264 700c26 0 46 -20 46 -44c0 -25 -20 -46 -45 -46s-45 21 -45 45c0 25 20 45 44 45z" />
    <glyph glyph-name="ogonek.ss01" 
d="M308 -184v-45c-63 0 -104 41 -104 96s41 96 104 96v-45c-31 0 -54 -22 -54 -51s23 -51 54 -51z" />
    <glyph glyph-name="uni0312.ss01" horiz-adv-x="1" 
d="M53 770v-44c-31 0 -54 -23 -54 -52c0 -28 23 -51 54 -51v-45c-63 0 -104 42 -104 96c0 55 41 96 104 96z" />
    <glyph glyph-name="uni0313.ss01" horiz-adv-x="1" 
d="M35 721v-125l-68 -65v190h68z" />
    <glyph glyph-name="uni0324.ss01" horiz-adv-x="1" 
d="M107 -75c25 0 45 -21 45 -46s-20 -45 -45 -45s-45 20 -45 45s20 46 45 46zM-105 -75c25 0 45 -21 45 -46s-20 -45 -45 -45s-45 20 -45 45s20 46 45 46z" />
    <glyph glyph-name="uni0327.ss01" horiz-adv-x="1" 
d="M-51 -229v45c31 0 54 22 54 51s-23 51 -54 51v45c63 0 104 -41 104 -96s-41 -96 -104 -96z" />
    <glyph glyph-name="uni0328.ss01" horiz-adv-x="1" 
d="M53 -184v-45c-63 0 -104 41 -104 96s41 96 104 96v-45c-31 0 -54 -22 -54 -51s23 -51 54 -51z" />
    <glyph glyph-name="uni037E.ss01" horiz-adv-x="297" 
d="M207 88v-153l-88 -79v232h88zM163 402c31 0 57 -26 57 -57s-26 -57 -57 -57s-57 26 -57 57s26 57 57 57z" />
    <glyph glyph-name="uni03A9.ss01" horiz-adv-x="650" 
d="M325 146c-80 0 -143 29 -181 68c-46 48 -68 103 -68 218s22 170 68 218c38 39 101 68 181 68s143 -29 181 -68c45 -48 68 -103 68 -218s-23 -170 -68 -218c-38 -39 -101 -68 -181 -68zM88 0v68h474v-68h-474zM325 214c54 0 97 19 125 49c34 35 47 78 47 169
s-13 134 -47 169c-28 30 -71 49 -125 49s-97 -19 -126 -49c-33 -35 -47 -78 -47 -169s14 -134 47 -169c29 -30 72 -49 126 -49z" />
    <glyph glyph-name="ellipsis.ss01" horiz-adv-x="774" 
d="M629 111c31 0 57 -26 57 -57s-26 -57 -57 -57s-57 26 -57 57s26 57 57 57zM145 111c31 0 57 -26 57 -57s-26 -57 -57 -57s-57 26 -57 57s26 57 57 57zM387 111c31 0 57 -26 57 -57s-26 -57 -57 -57s-57 26 -57 57s26 57 57 57z" />
    <glyph glyph-name="uni2071.ss01" horiz-adv-x="142" 
d="M47 328v263h48v-263h-48zM72 657c-17 0 -30 14 -30 30s13 30 30 30c16 0 29 -14 29 -30s-13 -30 -29 -30z" />
    <glyph glyph-name="lira.ss01" horiz-adv-x="532" 
d="M182 712v-268l166 105v-54l-166 -105v-98l166 105v-54l-166 -105v-170h99c73 0 124 26 169 80l52 -50c-61 -68 -123 -98 -215 -98h-181v191l-67 -43v54l67 42v99l-67 -43v54l67 42v316h76z" />
    <glyph glyph-name="Euro.ss01" horiz-adv-x="624" 
d="M361 718c87 0 145 -34 201 -87l-51 -51c-44 44 -82 70 -150 70c-48 0 -90 -17 -123 -50c-33 -34 -43 -71 -47 -143h219v-49h-219v-98h219v-50h-219c3 -76 13 -114 47 -148c33 -33 75 -50 123 -50c68 0 106 26 150 70l51 -51c-56 -53 -114 -87 -201 -87
c-73 0 -133 26 -177 70c-51 51 -66 98 -70 196h-67v50h67v98h-67v49h67c4 94 20 141 70 191c44 44 104 70 177 70z" />
    <glyph glyph-name="uni20BD.ss01" horiz-adv-x="629" 
d="M102 712h265c129 0 220 -82 220 -209s-91 -210 -220 -210h-189v-102h146v-53h-146v-138h-76v138h-63v53h63v521zM361 644h-183v-283h183c89 0 150 48 150 142s-61 141 -150 141z" />
    <glyph glyph-name="dotmath.ss01" horiz-adv-x="522" 
d="M261 326c31 0 57 -25 57 -56s-26 -57 -57 -57s-57 26 -57 57s26 56 57 56z" />
    <glyph glyph-name="fi.ss01" horiz-adv-x="564" 
d="M283 713v-62h-39c-46 0 -66 -27 -66 -72v-87h105v-55h-105v-437h-72v437h-63v55h63v89c0 73 41 132 125 132h52zM473 492v-492h-72v492h72zM437 726c27 0 50 -22 50 -49s-23 -49 -50 -49s-49 22 -49 49s22 49 49 49z" />
    <glyph glyph-name="exclamdown.case.ss01" horiz-adv-x="316" 
d="M171 512l13 -512h-84l13 512h58zM142 715c28 0 51 -22 51 -50s-23 -50 -51 -50s-50 22 -50 50s22 50 50 50z" />
    <glyph glyph-name="periodcentered.case.ss01" horiz-adv-x="272" 
d="M136 415c31 0 57 -25 57 -56s-26 -57 -57 -57s-57 26 -57 57s26 56 57 56z" />
    <glyph glyph-name="questiondown.case.ss01" horiz-adv-x="497" 
d="M263 512v-40c0 -39 -10 -64 -31 -94l-81 -117c-19 -28 -33 -51 -33 -85c0 -67 48 -118 115 -118c71 0 116 56 116 119h72c0 -102 -80 -183 -188 -183c-105 0 -187 75 -187 182c0 47 19 83 45 121l82 118c12 18 18 42 18 58v39h72zM228 715c28 0 50 -22 50 -50
s-22 -50 -50 -50s-50 22 -50 50s22 50 50 50z" />
    <glyph glyph-name="zero.zero.ss01" horiz-adv-x="522" 
d="M261 -6c-112 0 -195 78 -195 196v332c0 118 83 196 195 196c111 0 195 -78 195 -196v-332c0 -118 -84 -196 -195 -196zM261 58c79 0 123 58 123 136v324c0 78 -44 136 -123 136s-123 -58 -123 -136v-324c0 -78 44 -136 123 -136zM261 401c25 0 45 -20 45 -45
s-20 -45 -44 -45c-26 0 -46 20 -46 44c0 26 20 46 45 46z" />
    <glyph glyph-name="zero.osf.zero.ss01" horiz-adv-x="522" 
d="M261 -6c-111 0 -195 78 -195 196v217c0 118 84 196 195 196s195 -78 195 -196v-217c0 -118 -84 -196 -195 -196zM261 58c79 0 123 58 123 136v209c0 78 -44 136 -123 136s-123 -58 -123 -136v-209c0 -78 44 -136 123 -136zM261 343c25 0 45 -20 45 -45s-20 -45 -44 -45
c-26 0 -46 20 -46 44c0 26 20 46 45 46z" />
    <glyph glyph-name="zero.lf.zero.ss01" horiz-adv-x="522" 
d="M261 -6c-112 0 -195 78 -195 196v332c0 118 83 196 195 196c111 0 195 -78 195 -196v-332c0 -118 -84 -196 -195 -196zM261 58c79 0 123 58 123 136v324c0 78 -44 136 -123 136s-123 -58 -123 -136v-324c0 -78 44 -136 123 -136zM261 401c25 0 45 -20 45 -45
s-20 -45 -44 -45c-26 0 -46 20 -46 44c0 26 20 46 45 46z" />
    <glyph glyph-name="zero.tosf.zero.ss01" horiz-adv-x="522" 
d="M261 -6c-111 0 -195 78 -195 196v217c0 118 84 196 195 196s195 -78 195 -196v-217c0 -118 -84 -196 -195 -196zM261 58c79 0 123 58 123 136v209c0 78 -44 136 -123 136s-123 -58 -123 -136v-209c0 -78 44 -136 123 -136zM261 343c25 0 45 -20 45 -45s-20 -45 -44 -45
c-26 0 -46 20 -46 44c0 26 20 46 45 46z" />
    <glyph glyph-name="dieresis.lc.ss01" 
d="M371 691c25 0 45 -21 45 -46s-20 -45 -45 -45s-45 20 -45 45s20 46 45 46zM159 691c25 0 45 -21 45 -46s-20 -45 -45 -45s-45 20 -45 45s20 46 45 46z" />
    <glyph glyph-name="cedilla.lc.ss01" 
d="M241 -229v45c31 0 54 22 54 51s-23 51 -54 51v45c63 0 104 -41 104 -96s-41 -96 -104 -96z" />
    <glyph glyph-name="dotaccent.lc.ss01" 
d="M264 700c26 0 46 -20 46 -44c0 -25 -20 -46 -45 -46s-45 21 -45 45c0 25 20 45 44 45z" />
    <glyph glyph-name="ogonek.lc.ss01" 
d="M308 -184v-45c-63 0 -104 41 -104 96s41 96 104 96v-45c-31 0 -54 -22 -54 -51s23 -51 54 -51z" />
    <glyph glyph-name="dotbelowcomb.lc.ss01" 
d="M264 -74c26 0 46 -20 46 -44c0 -25 -20 -46 -45 -46s-45 21 -45 45c0 25 20 45 44 45z" />
    <glyph glyph-name="uni0324.lc.ss01" 
d="M371 -75c25 0 45 -21 45 -46s-20 -45 -45 -45s-45 20 -45 45s20 46 45 46zM159 -75c25 0 45 -21 45 -46s-20 -45 -45 -45s-45 20 -45 45s20 46 45 46z" />
    <glyph glyph-name="commaaccent.lc.ss01" 
d="M241 -82v45c63 0 104 -41 104 -96s-41 -96 -104 -96v45c31 0 54 22 54 51s-23 51 -54 51z" />
    <glyph glyph-name="dieresis.uc.ss01" horiz-adv-x="650" 
d="M431 878c25 0 45 -21 45 -46s-20 -45 -45 -45s-45 20 -45 45s20 46 45 46zM219 878c25 0 45 -21 45 -46s-20 -45 -45 -45s-45 20 -45 45s20 46 45 46z" />
    <glyph glyph-name="cedilla.uc.ss01" horiz-adv-x="650" 
d="M283 -82v45c63 0 104 -41 104 -96s-41 -96 -104 -96v45c31 0 54 22 54 51s-23 51 -54 51z" />
    <glyph glyph-name="dotaccent.uc.ss01" horiz-adv-x="650" 
d="M325 879c25 0 45 -20 45 -45s-20 -45 -44 -45c-26 0 -46 20 -46 44c0 26 20 46 45 46z" />
    <glyph glyph-name="ogonek.uc.ss01" horiz-adv-x="650" 
d="M368 -38v-45c-31 0 -54 -22 -54 -51s23 -51 54 -51v-45c-63 0 -104 41 -104 96s41 96 104 96z" />
    <glyph glyph-name="dotbelowcomb.uc.ss01" horiz-adv-x="650" 
d="M325 -77c25 0 45 -20 45 -45s-20 -45 -44 -45c-26 0 -46 20 -46 44c0 26 20 46 45 46z" />
    <glyph glyph-name="uni0324.uc.ss01" horiz-adv-x="650" 
d="M431 -74c25 0 45 -21 45 -46s-20 -45 -45 -45s-45 20 -45 45s20 46 45 46zM219 -74c25 0 45 -21 45 -46s-20 -45 -45 -45s-45 20 -45 45s20 46 45 46z" />
    <glyph glyph-name="commaaccent.uc.ss01" horiz-adv-x="650" 
d="M283 -82v45c63 0 104 -41 104 -96s-41 -96 -104 -96v45c31 0 54 22 54 51s-23 51 -54 51z" />
    <glyph glyph-name="C.ss02" horiz-adv-x="600" 
d="M325 718c86 0 145 -34 200 -87l-51 -51c-44 43 -82 70 -149 70c-49 0 -90 -17 -123 -50c-44 -46 -50 -98 -50 -244s6 -198 50 -244c33 -33 74 -50 123 -50c67 0 105 27 149 70l51 -51c-55 -53 -114 -87 -200 -87c-74 0 -134 26 -178 70c-67 67 -71 129 -71 292
s4 225 71 292c44 44 104 70 178 70z" />
    <glyph glyph-name="G.ss02" horiz-adv-x="649" 
d="M325 718c94 0 150 -34 213 -97l-51 -51c-51 50 -89 80 -162 80c-49 0 -90 -17 -123 -51c-45 -45 -50 -97 -50 -243s5 -198 50 -244c33 -33 74 -50 123 -50c52 0 101 21 134 61c29 34 39 76 39 130v53h-173v67h250v-113c0 -81 -16 -137 -61 -184
c-48 -52 -115 -82 -189 -82s-134 26 -178 70c-67 67 -71 129 -71 292s4 225 71 292c44 44 104 70 178 70z" />
    <glyph glyph-name="Ccedilla.ss02" horiz-adv-x="600" 
d="M325 718c86 0 145 -34 200 -87l-51 -51c-44 43 -82 70 -149 70c-49 0 -90 -17 -123 -50c-44 -46 -50 -98 -50 -244s6 -198 50 -244c33 -33 74 -50 123 -50c67 0 105 27 149 70l51 -51c-55 -53 -114 -87 -200 -87c-74 0 -134 26 -178 70c-67 67 -71 129 -71 292
s4 225 71 292c44 44 104 70 178 70zM229 -216l70 147h63l-58 -147h-75z" />
    <glyph glyph-name="Omega.ss02" horiz-adv-x="650" 
d="M325 146c-80 0 -143 29 -181 68c-46 48 -68 103 -68 218s22 170 68 218c38 39 101 68 181 68s143 -29 181 -68c45 -48 68 -103 68 -218s-23 -170 -68 -218c-38 -39 -101 -68 -181 -68zM88 0v68h474v-68h-474zM325 214c54 0 97 19 125 49c34 35 47 78 47 169
s-13 134 -47 169c-28 30 -71 49 -125 49s-97 -19 -126 -49c-33 -35 -47 -78 -47 -169s14 -134 47 -169c29 -30 72 -49 126 -49z" />
    <glyph glyph-name="Ccedilla.ss03" horiz-adv-x="600" 
d="M325 718c86 0 145 -34 200 -87l-51 -51c-44 43 -82 70 -149 70c-49 0 -90 -17 -123 -50c-44 -46 -50 -98 -50 -244s6 -198 50 -244c33 -33 74 -50 123 -50c67 0 105 27 149 70l51 -51c-55 -53 -114 -87 -200 -87c-74 0 -134 26 -178 70c-67 67 -71 129 -71 292
s4 225 71 292c44 44 104 70 178 70zM283 -82v45c63 0 104 -41 104 -96s-41 -96 -104 -96v45c31 0 54 22 54 51s-23 51 -54 51z" />
    <glyph glyph-name="Iacute_J_acutecomb" horiz-adv-x="783" 
d="M690 712v-496c0 -137 -92 -222 -222 -222c-68 0 -119 20 -163 64l51 51c26 -26 53 -47 112 -47c93 0 146 59 146 164v486h76zM787 934l-105 -154h-69l91 154h83zM179 712v-712h-76v712h76zM274 934l-105 -154h-69l91 154h83z" />
    <glyph glyph-name="J_acutecomb" horiz-adv-x="501" 
d="M408 712v-496c0 -137 -92 -222 -222 -222c-68 0 -119 20 -163 64l51 51c26 -26 53 -47 112 -47c93 0 146 59 146 164v486h76zM505 934l-105 -154h-69l91 154h83z" />
    <glyph glyph-name="breveacute" 
d="M374 729h56c-8 -91 -63 -139 -165 -139s-157 48 -165 139h56c7 -53 48 -83 109 -83s102 30 109 83zM405 903l-105 -153h-69l91 153h83z" />
    <glyph glyph-name="brevegrave" 
d="M374 729h56c-8 -91 -63 -139 -165 -139s-157 48 -165 139h56c7 -53 48 -83 109 -83s102 30 109 83zM227 903l91 -153h-69l-105 153h83z" />
    <glyph glyph-name="brevehook" 
d="M374 729h56c-8 -91 -63 -139 -165 -139s-157 48 -165 139h56c7 -53 48 -83 109 -83s102 30 109 83zM249 880v45c63 0 104 -41 104 -96s-41 -96 -104 -96v45c31 0 54 22 54 51s-23 51 -54 51z" />
    <glyph glyph-name="brevetilde" 
d="M265 590c-102 0 -157 48 -165 139h56c7 -53 48 -83 109 -83s102 30 109 83h56c-8 -91 -63 -139 -165 -139zM329 772c-24 0 -40 6 -71 24c-19 11 -36 20 -56 20c-16 0 -29 -2 -59 -32l-37 36c45 46 71 51 95 51c29 0 46 -8 71 -23c21 -13 36 -21 56 -21c16 0 29 3 59 32
l37 -36c-45 -46 -72 -51 -95 -51z" />
    <glyph glyph-name="circumflexacute" 
d="M300 747l125 -153h-69l-91 104l-90 -104h-69l125 153h69zM581 827l-105 -153h-69l91 153h83z" />
    <glyph glyph-name="circumflexgrave" 
d="M106 594l125 153h68l126 -153h-69l-91 104l-90 -104h-69zM452 673l-125 154h83l111 -154h-69z" />
    <glyph glyph-name="circumflexhook" 
d="M106 594l125 153h68l126 -153h-69l-91 104l-90 -104h-69zM419 664v44c31 0 54 23 54 52s-23 52 -54 52v44c62 0 103 -41 103 -96s-41 -96 -103 -96z" />
    <glyph glyph-name="circumflextilde" 
d="M106 594l125 153h68l126 -153h-69l-91 104l-90 -104h-69zM329 792c-28 0 -47 10 -71 24c-19 11 -36 20 -56 20c-17 0 -29 -2 -59 -32l-37 36c46 46 71 51 95 51c29 0 46 -8 71 -24c21 -12 36 -20 56 -20c16 0 29 2 59 32l37 -36c-45 -46 -72 -51 -95 -51z" />
    <glyph glyph-name="caroncomma.uc.ss01.comp" horiz-adv-x="650" 
d="M352 721v-125l-68 -65v190h68z" />
    <glyph glyph-name="iacute_j_acutecomb" horiz-adv-x="506" 
d="M415 492v-580c0 -75 -39 -132 -125 -132h-52v63h39c50 0 66 24 66 72v577h72zM522 747l-105 -153h-69l91 153h83zM269 747l-105 -153h-69l91 153h83zM162 492v-492h-72v492h72z" />
    <glyph glyph-name="j_acutecomb" horiz-adv-x="253" 
d="M162 492v-580c0 -75 -39 -132 -125 -132h-52v63h39c50 0 66 24 66 72v577h72zM269 747l-105 -153h-69l91 153h83z" />
    <glyph glyph-name="grave.lc" 
d="M208 747l91 -153h-69l-105 153h83z" />
    <glyph glyph-name="dieresis.lc" 
d="M407 691v-89h-72v89h72zM195 691v-89h-72v89h72z" />
    <glyph glyph-name="macron.lc" 
d="M416 670v-56h-301v56h301z" />
    <glyph glyph-name="acute.lc" 
d="M408 747l-105 -153h-69l91 153h83z" />
    <glyph glyph-name="cedilla.lc" 
d="M165 -216l71 149h66l-59 -149h-78z" />
    <glyph glyph-name="uni02C0.lc" 
d="M241 725v45c63 0 104 -41 104 -96s-41 -96 -104 -96v45c31 0 54 22 54 51s-23 51 -54 51z" />
    <glyph glyph-name="circumflex.lc" 
d="M299 747l126 -153h-69l-91 104l-90 -104h-69l125 153h68z" />
    <glyph glyph-name="caron.lc" 
d="M425 747l-125 -153h-68l-126 153h69l91 -105l90 105h69z" />
    <glyph glyph-name="breve.lc" 
d="M374 729h56c-8 -91 -63 -139 -165 -139s-157 48 -165 139h56c7 -53 48 -83 109 -83s102 30 109 83z" />
    <glyph glyph-name="dotaccent.lc" 
d="M301 691v-89h-72v89h72z" />
    <glyph glyph-name="ring.lc" 
d="M265 805c65 0 118 -52 118 -118c0 -65 -53 -119 -118 -119s-118 54 -118 119s53 118 118 118zM265 755c-38 0 -69 -30 -69 -68s31 -69 69 -69s69 31 69 69s-31 68 -69 68z" />
    <glyph glyph-name="ogonek.lc" 
d="M166 -216l71 147h64l-58 -147h-77z" />
    <glyph glyph-name="tilde.lc" 
d="M201 706c29 0 46 -8 71 -24c21 -12 36 -20 56 -20c16 0 29 2 59 32l37 -36c-45 -46 -72 -51 -95 -51c-28 0 -47 10 -71 24c-19 11 -36 20 -56 20c-17 0 -29 -2 -59 -32l-37 36c46 46 71 51 95 51z" />
    <glyph glyph-name="hungarumlaut.lc" 
d="M490 747l-109 -153h-65l89 153h85zM307 747l-108 -153h-66l89 153h85z" />
    <glyph glyph-name="uni030F.lc" 
d="M301 747l89 -153h-66l-108 153h85zM117 747l89 -153h-65l-109 153h85z" />
    <glyph glyph-name="uni0310.lc" 
d="M374 729h56c-8 -91 -63 -139 -165 -139s-157 48 -165 139h56c7 -53 48 -83 109 -83s102 30 109 83zM302 841v-89h-72v89h72z" />
    <glyph glyph-name="uni0311.lc" 
d="M156 594h-56c8 91 63 139 165 139s157 -48 165 -139h-56c-7 53 -48 83 -109 83s-102 -30 -109 -83z" />
    <glyph glyph-name="uni0316.lc" 
d="M208 -67l91 -153h-69l-105 153h83z" />
    <glyph glyph-name="uni0317.lc" 
d="M352 -69l-105 -153h-69l91 153h83z" />
    <glyph glyph-name="uni031B.lc" 
d="M592 521v-58c0 -73 -29 -107 -104 -107h-21v51h20c31 0 47 18 47 66v48h58z" />
    <glyph glyph-name="uni031C.lc" 
d="M307 -37v-45c-31 0 -54 -22 -54 -51s23 -51 54 -51v-45c-63 0 -104 41 -104 96s41 96 104 96z" />
    <glyph glyph-name="dotbelowcomb.lc" 
d="M301 -78v-89h-72v89h72z" />
    <glyph glyph-name="uni0324.lc" 
d="M407 -77v-89h-72v89h72zM195 -77v-89h-72v89h72z" />
    <glyph glyph-name="uni0325.lc" 
d="M265 -37c65 0 118 -52 118 -118c0 -65 -53 -119 -118 -119s-118 54 -118 119s53 118 118 118zM265 -87c-38 0 -69 -30 -69 -68s31 -69 69 -69s69 31 69 69s-31 68 -69 68z" />
    <glyph glyph-name="uni032C.lc" 
d="M425 -67l-125 -153h-68l-126 153h69l91 -105l90 105h69z" />
    <glyph glyph-name="uni032D.lc" 
d="M299 -68l126 -153h-69l-91 104l-90 -104h-69l125 153h68z" />
    <glyph glyph-name="uni032E.lc" 
d="M374 -67h56c-8 -91 -63 -139 -165 -139s-157 48 -165 139h56c7 -53 48 -83 109 -83s102 30 109 83z" />
    <glyph glyph-name="uni032F.lc" 
d="M156 -203h-56c8 91 63 139 165 139s157 -48 165 -139h-56c-7 53 -48 83 -109 83s-102 -30 -109 -83z" />
    <glyph glyph-name="uni0330.lc" 
d="M201 -79c29 0 46 -8 71 -24c21 -12 36 -20 56 -20c16 0 29 2 59 32l37 -36c-45 -46 -72 -51 -95 -51c-28 0 -47 10 -71 24c-19 11 -36 20 -56 20c-17 0 -29 -2 -59 -32l-37 36c46 46 71 51 95 51z" />
    <glyph glyph-name="uni0331.lc" 
d="M415 -94v-56h-301v56h301z" />
    <glyph glyph-name="uni0340.lc" 
d="M410 827l111 -154h-69l-125 154h83z" />
    <glyph glyph-name="uni0341.lc" 
d="M581 827l-105 -153h-69l91 153h83z" />
    <glyph glyph-name="commaaccent.lc" 
d="M302 -67l-59 -149h-77l71 149h65z" />
    <glyph glyph-name="breveacute.uc" horiz-adv-x="650" 
d="M325 789c-102 0 -157 48 -165 139h56c7 -53 48 -83 109 -83s102 30 109 83h56c-8 -91 -63 -139 -165 -139zM291 949l91 153h83l-105 -153h-69z" />
    <glyph glyph-name="brevegrave.uc" horiz-adv-x="650" 
d="M434 928h56c-8 -91 -63 -139 -165 -139s-157 48 -165 139h56c7 -53 48 -83 109 -83s102 30 109 83zM287 1102l91 -153h-69l-105 153h83z" />
    <glyph glyph-name="brevehook.uc" horiz-adv-x="650" 
d="M434 928h56c-8 -91 -63 -139 -165 -139s-157 48 -165 139h56c7 -53 48 -83 109 -83s102 30 109 83zM309 1079v45c63 0 104 -41 104 -96s-41 -96 -104 -96v45c31 0 54 22 54 51s-23 51 -54 51z" />
    <glyph glyph-name="brevetilde.uc" horiz-adv-x="650" 
d="M325 789c-102 0 -157 48 -165 139h56c7 -53 48 -83 109 -83s102 30 109 83h56c-8 -91 -63 -139 -165 -139zM389 971c-24 0 -40 6 -71 24c-19 11 -36 20 -56 20c-16 0 -29 -2 -59 -32l-37 36c45 46 71 51 95 51c29 0 46 -8 71 -23c21 -13 36 -21 56 -21c16 0 29 3 59 32
l37 -36c-45 -46 -72 -51 -95 -51z" />
    <glyph glyph-name="circumflexacute.uc" horiz-adv-x="650" 
d="M359 933l125 -153h-69l-91 104l-90 -104h-69l125 153h69zM640 1013l-105 -153h-69l91 153h83z" />
    <glyph glyph-name="circumflexgrave.uc" horiz-adv-x="650" 
d="M165 780l125 153h68l126 -153h-69l-91 104l-90 -104h-69zM511 859l-125 154h83l111 -154h-69z" />
    <glyph glyph-name="circumflexhook.uc" horiz-adv-x="650" 
d="M165 780l125 153h68l126 -153h-69l-91 104l-90 -104h-69zM478 850v44c31 0 54 23 54 52s-23 52 -54 52v44c62 0 103 -41 103 -96s-41 -96 -103 -96z" />
    <glyph glyph-name="circumflextilde.uc" horiz-adv-x="650" 
d="M166 780l125 153h68l126 -153h-69l-91 104l-90 -104h-69zM389 978c-28 0 -47 10 -71 24c-19 11 -36 20 -56 20c-17 0 -29 -2 -59 -32l-37 36c46 46 71 51 95 51c29 0 46 -8 71 -24c21 -12 36 -20 56 -20c16 0 29 2 59 32l37 -36c-45 -46 -72 -51 -95 -51z" />
    <glyph glyph-name="grave.uc" horiz-adv-x="650" 
d="M275 934l91 -154h-69l-105 154h83z" />
    <glyph glyph-name="dieresis.uc" horiz-adv-x="650" 
d="M467 878v-89h-72v89h72zM255 878v-89h-72v89h72z" />
    <glyph glyph-name="macron.uc" horiz-adv-x="650" 
d="M476 855v-57h-301v57h301z" />
    <glyph glyph-name="acute.uc" horiz-adv-x="650" 
d="M459 934l-105 -154h-69l91 154h83z" />
    <glyph glyph-name="cedilla.uc" horiz-adv-x="650" 
d="M229 -216l70 147h63l-58 -147h-75z" />
    <glyph glyph-name="uni02C0.uc" horiz-adv-x="650" 
d="M274 913v44c62 0 103 -41 103 -96s-41 -96 -103 -96v44c31 0 54 23 54 52s-23 52 -54 52z" />
    <glyph glyph-name="circumflex.uc" horiz-adv-x="650" 
d="M359 933l126 -153h-69l-91 104l-90 -104h-69l125 153h68z" />
    <glyph glyph-name="caron.uc" horiz-adv-x="650" 
d="M485 933l-126 -153h-68l-125 153h69l90 -104l91 104h69z" />
    <glyph glyph-name="breve.uc" horiz-adv-x="650" 
d="M434 928h56c-8 -91 -63 -139 -165 -139s-157 48 -165 139h56c7 -53 48 -83 109 -83s102 30 109 83z" />
    <glyph glyph-name="dotaccent.uc" horiz-adv-x="650" 
d="M289 789v89h72v-89h-72z" />
    <glyph glyph-name="ring.uc" horiz-adv-x="650" 
d="M325 987c65 0 118 -52 118 -118c0 -65 -53 -119 -118 -119s-118 54 -118 119s53 118 118 118zM325 937c-38 0 -69 -30 -69 -68s31 -69 69 -69s69 31 69 69s-31 68 -69 68z" />
    <glyph glyph-name="ogonek.uc" horiz-adv-x="650" 
d="M226 -216l71 147h63l-58 -147h-76z" />
    <glyph glyph-name="tilde.uc" horiz-adv-x="650" 
d="M261 893c29 0 46 -8 71 -24c21 -13 36 -20 56 -20c15 0 29 2 59 32l37 -37c-46 -45 -72 -50 -95 -50c-29 0 -47 9 -71 23c-19 11 -36 21 -56 21c-17 0 -30 -3 -59 -32l-37 36c45 45 71 51 95 51z" />
    <glyph glyph-name="hungarumlaut.uc" horiz-adv-x="650" 
d="M543 934l-109 -153h-65l89 153h85zM361 934l-108 -153h-66l89 153h85z" />
    <glyph glyph-name="uni030F.uc" horiz-adv-x="650" 
d="M370 934l89 -153h-66l-108 153h85zM186 934l89 -153h-65l-109 153h85z" />
    <glyph glyph-name="uni0311.uc" horiz-adv-x="650" 
d="M325 919c102 0 157 -48 165 -139h-56c-7 53 -48 83 -109 83s-102 -30 -109 -83h-56c8 91 63 139 165 139z" />
    <glyph glyph-name="dotbelowcomb.uc" horiz-adv-x="650" 
d="M361 -78v-89h-72v89h72z" />
    <glyph glyph-name="uni0324.uc" horiz-adv-x="650" 
d="M467 -77v-89h-72v89h72zM255 -77v-89h-72v89h72z" />
    <glyph glyph-name="uni0325.uc" horiz-adv-x="650" 
d="M325 -37c65 0 118 -52 118 -118c0 -65 -53 -119 -118 -119s-118 54 -118 119s53 118 118 118zM325 -87c-38 0 -69 -30 -69 -68s31 -69 69 -69s69 31 69 69s-31 68 -69 68z" />
    <glyph glyph-name="uni032D.uc" horiz-adv-x="650" 
d="M359 -68l126 -153h-69l-91 104l-90 -104h-69l125 153h68z" />
    <glyph glyph-name="uni032E.uc" horiz-adv-x="650" 
d="M434 -67h56c-8 -91 -63 -139 -165 -139s-157 48 -165 139h56c7 -53 48 -83 109 -83s102 30 109 83z" />
    <glyph glyph-name="uni0330.uc" horiz-adv-x="650" 
d="M261 -79c29 0 46 -8 71 -24c21 -12 36 -20 56 -20c16 0 29 2 59 32l37 -36c-45 -46 -72 -51 -95 -51c-28 0 -47 10 -71 24c-19 11 -36 20 -56 20c-17 0 -29 -2 -59 -32l-37 36c46 46 71 51 95 51z" />
    <glyph glyph-name="commaaccent.uc" horiz-adv-x="650" 
d="M226 -216l71 147h63l-58 -147h-76z" />
    </font>
</defs>
</svg>
