<?xml version="1.0" standalone="no"?>
<!DOCTYPE svg PUBLIC "-//W3C//DTD SVG 1.1//EN" "http://www.w3.org/Graphics/SVG/1.1/DTD/svg11.dtd" >
<svg xmlns="http://www.w3.org/2000/svg" width="100%" height="100%">
<metadata>
Created by FontXChange 20110222 at Fri Oct  2 13:45:40 2015
 By Killian Grant
2005 published by Monotype GmbH
</metadata>
<defs>
<font id="DINOT-Bold" horiz-adv-x="543" >
  <font-face 
    font-family="DINOT"
    font-weight="700"
    font-stretch="normal"
    units-per-em="1000"
    panose-1="2 11 8 4 2 1 1 1 1 2"
    ascent="764"
    descent="-236"
    x-height="521"
    cap-height="712"
    bbox="-205 -295 1158 1142"
    underline-thickness="87"
    underline-position="-48"
    stemh="117"
    stemv="130"
    unicode-range="U+000D-FEFF"
  />
<missing-glyph horiz-adv-x="573" 
d="M500 712v-712h-427v712h427zM414 625h-255v-538h255v538z" />
    <glyph glyph-name=".notdef" horiz-adv-x="573" 
d="M500 712v-712h-427v712h427zM414 625h-255v-538h255v538z" />
    <glyph glyph-name=".null" horiz-adv-x="0" 
 />
    <glyph glyph-name=".null" horiz-adv-x="0" 
 />
    <glyph glyph-name="CR" unicode="&#xd;" horiz-adv-x="232" 
 />
    <glyph glyph-name="space" unicode=" " horiz-adv-x="232" 
 />
    <glyph glyph-name="exclam" unicode="!" horiz-adv-x="347" 
d="M272 712l-31 -489h-98l-31 489h160zM261 133v-133h-138v133h138z" />
    <glyph glyph-name="quotedbl" unicode="&#x22;" horiz-adv-x="463" 
d="M395 712v-211h-122v211h122zM190 712v-211h-122v211h122z" />
    <glyph glyph-name="numbersign" unicode="#" horiz-adv-x="701" 
d="M601 718l-28 -177h69v-121h-88l-17 -108h70v-122h-89l-31 -190h-137l31 190h-116l-30 -190h-137l30 190h-69v122h89l16 108h-70v121h90l27 177h138l-28 -177h115l28 177h137zM417 420h-116l-16 -108h115z" />
    <glyph glyph-name="dollar" unicode="$" horiz-adv-x="619" 
d="M356 806v-89c82 -5 143 -30 197 -82l-88 -87c-33 32 -81 45 -123 48v-174c107 -16 141 -30 174 -61c38 -36 56 -88 56 -151c0 -122 -90 -197 -216 -212v-112h-102v108c-96 3 -171 28 -235 94l90 90c42 -43 99 -58 160 -60v181c-84 6 -138 31 -171 64
c-34 33 -51 80 -51 139c0 116 77 199 207 214v90h102zM342 291v-171c60 8 93 38 93 87c0 24 -7 45 -22 59c-19 18 -40 21 -71 25zM269 428v167c-59 -8 -88 -44 -88 -88c0 -19 6 -37 21 -51c16 -14 38 -24 67 -28z" />
    <glyph glyph-name="percent" unicode="%" horiz-adv-x="848" 
d="M205 0l337 712h102l-337 -712h-102zM197 345c-78 0 -145 46 -145 137v99c0 91 67 137 145 137s145 -46 145 -137v-99c0 -91 -67 -137 -145 -137zM197 429c31 0 51 19 51 58v89c0 39 -20 57 -51 57c-30 0 -50 -18 -50 -57v-89c0 -39 20 -58 50 -58zM651 -6
c-78 0 -145 46 -145 137v99c0 91 67 137 145 137s145 -46 145 -137v-99c0 -91 -67 -137 -145 -137zM651 79c31 0 51 18 51 57v89c0 39 -20 58 -51 58c-30 0 -51 -19 -51 -58v-89c0 -39 21 -57 51 -57z" />
    <glyph glyph-name="ampersand" unicode="&#x26;" horiz-adv-x="709" 
d="M308 718c112 0 182 -71 182 -168c0 -61 -32 -96 -88 -135l-36 -26l120 -142c24 31 34 75 36 125h124c-5 -91 -27 -164 -77 -221l128 -151h-165l-52 62c-35 -29 -86 -68 -184 -68c-157 0 -235 83 -235 216c0 90 64 149 128 191c-29 33 -71 82 -71 151c0 97 71 166 190 166
zM401 154l-142 167c-46 -31 -72 -59 -72 -109c0 -59 48 -100 108 -100c43 0 73 13 106 42zM308 607c-40 0 -59 -24 -59 -58c0 -22 15 -44 47 -80c55 34 71 54 71 80c0 33 -23 58 -59 58z" />
    <glyph glyph-name="quotesingle" unicode="'" horiz-adv-x="258" 
d="M190 712v-211h-122v211h122z" />
    <glyph glyph-name="parenleft" unicode="(" horiz-adv-x="337" 
d="M187 806l88 -88c-24 -24 -39 -37 -56 -66c-10 -19 -15 -46 -15 -84v-424c0 -38 5 -65 15 -84c17 -29 32 -42 56 -66l-88 -88c-35 34 -66 64 -88 103c-23 40 -26 84 -26 129v436c0 44 3 90 26 129c22 39 53 69 88 103z" />
    <glyph glyph-name="parenright" unicode=")" horiz-adv-x="337" 
d="M62 718l88 88c35 -34 66 -64 88 -103c24 -40 26 -84 26 -129v-436c0 -44 -3 -90 -26 -129c-22 -39 -53 -69 -88 -103l-88 88c24 24 39 37 56 66c10 19 16 46 16 84v424c0 38 -6 65 -16 84c-17 29 -32 42 -56 66z" />
    <glyph glyph-name="asterisk" unicode="*" horiz-adv-x="503" 
d="M297 712l-4 -125l105 67l46 -79l-110 -59l110 -58l-46 -79l-105 67l4 -125h-91l4 125l-105 -67l-46 79l110 58l-110 59l46 79l105 -67l-4 125h91z" />
    <glyph glyph-name="plus" unicode="+" 
d="M333 507v-160h160v-122h-160v-161h-122v161h-161v122h161v160h122z" />
    <glyph glyph-name="comma" unicode="," horiz-adv-x="279" 
d="M210 142v-197l-142 -110v307h142z" />
    <glyph glyph-name="hyphen" unicode="-" horiz-adv-x="426" 
d="M367 347v-122h-308v122h308z" />
    <glyph glyph-name="period" unicode="." horiz-adv-x="284" 
d="M216 148v-148h-148v148h148z" />
    <glyph glyph-name="slash" unicode="/" horiz-adv-x="403" 
d="M403 773l-281 -847h-122l281 847h122z" />
    <glyph glyph-name="zero" unicode="0" 
d="M271 -6c-115 0 -216 76 -216 212v300c0 136 101 212 216 212c116 0 217 -76 217 -212v-300c0 -136 -101 -212 -217 -212zM271 111c52 0 87 36 87 96v297c0 60 -35 97 -87 97c-51 0 -86 -37 -86 -97v-297c0 -60 35 -96 86 -96z" />
    <glyph glyph-name="one" unicode="1" 
d="M248 0v572l-145 -126v140l145 126h130v-712h-130z" />
    <glyph glyph-name="two" unicode="2" 
d="M59 0v117l266 309c26 31 38 53 38 86c0 53 -31 89 -86 89c-44 0 -88 -22 -88 -91h-130c0 130 96 208 218 208c126 0 216 -79 216 -207c0 -68 -28 -106 -77 -163l-199 -231h276v-117h-434z" />
    <glyph glyph-name="three" unicode="3" 
d="M269 -6c-116 0 -225 61 -227 210h130c2 -64 46 -93 97 -93c55 0 96 34 96 99c0 59 -36 98 -100 98h-19v113h19c64 0 90 39 90 89c0 60 -40 91 -87 91c-49 0 -85 -32 -88 -86h-130c4 128 98 203 218 203c126 0 217 -83 217 -204c0 -77 -35 -121 -82 -146
c52 -27 92 -75 92 -162c0 -142 -104 -212 -226 -212z" />
    <glyph glyph-name="four" unicode="4" 
d="M322 0v101h-291v123l244 488h142l-244 -488h149v133h124v-133h66v-123h-66v-101h-124z" />
    <glyph glyph-name="five" unicode="5" 
d="M274 -6c-74 0 -128 26 -159 57c-44 45 -54 97 -58 148h130c7 -56 33 -88 87 -88c26 0 46 7 62 23c23 23 27 60 27 106c0 82 -24 128 -86 128c-54 0 -77 -31 -86 -58h-119v402h406v-117h-288v-153c19 18 59 36 107 36c59 0 104 -19 133 -48c56 -56 63 -123 63 -190
c0 -81 -10 -136 -62 -188c-32 -32 -84 -58 -157 -58z" />
    <glyph glyph-name="six" unicode="6" 
d="M272 -6c-126 0 -223 80 -223 220c0 51 14 97 56 181l155 317h141l-149 -296c17 8 36 11 54 11c96 0 188 -79 188 -211c0 -139 -96 -222 -222 -222zM272 111c53 0 92 38 92 104c0 63 -37 104 -92 104c-54 0 -93 -38 -93 -104s39 -104 93 -104z" />
    <glyph glyph-name="seven" unicode="7" 
d="M131 0l231 595h-188v-112h-124v229h453v-117l-231 -595h-141z" />
    <glyph glyph-name="eight" unicode="8" 
d="M272 -6c-127 0 -228 75 -228 213c0 87 50 134 89 160c-36 25 -80 72 -80 148c0 125 100 203 219 203c118 0 218 -78 218 -203c0 -76 -43 -123 -80 -148c40 -26 90 -73 90 -160c0 -138 -102 -213 -228 -213zM272 111c54 0 98 43 98 98s-44 99 -98 99
c-55 0 -98 -44 -98 -99s43 -98 98 -98zM272 421c51 0 88 38 88 90s-37 90 -88 90s-89 -38 -89 -90s38 -90 89 -90z" />
    <glyph glyph-name="nine" unicode="9" 
d="M145 0l149 296c-17 -8 -37 -11 -54 -11c-96 0 -188 79 -188 211c0 139 96 222 222 222c125 0 222 -80 222 -220c0 -51 -13 -97 -55 -181l-155 -317h-141zM274 393c53 0 92 38 92 104s-39 104 -92 104s-92 -38 -92 -104c0 -63 37 -104 92 -104z" />
    <glyph glyph-name="colon" unicode=":" horiz-adv-x="309" 
d="M241 419v-148h-148v148h148zM241 148v-148h-148v148h148z" />
    <glyph glyph-name="semicolon" unicode=";" horiz-adv-x="309" 
d="M238 142v-197l-142 -110v307h142zM241 419v-148h-148v148h148z" />
    <glyph glyph-name="less" unicode="&#x3c;" 
d="M475 529v-137l-241 -106l241 -107v-137l-406 187v114z" />
    <glyph glyph-name="equal" unicode="=" 
d="M493 455v-122h-443v122h443zM493 238v-122h-443v122h443z" />
    <glyph glyph-name="greater" unicode="&#x3e;" 
d="M68 529l406 -186v-114l-406 -187v137l241 107l-241 106v137z" />
    <glyph glyph-name="question" unicode="?" horiz-adv-x="523" 
d="M276 718c114 0 211 -73 211 -200c0 -50 -21 -88 -49 -125l-74 -98c-10 -14 -18 -35 -18 -51v-21h-130v30c0 43 12 70 38 104l74 95c16 21 29 44 29 67c0 47 -31 82 -81 82c-52 0 -80 -37 -80 -83h-130c0 123 94 200 210 200zM350 133v-133h-138v133h138z" />
    <glyph glyph-name="at" unicode="@" horiz-adv-x="780" 
d="M308 716h144c79 0 148 -14 194 -61c47 -47 62 -107 62 -189v-466h-127v47c-35 -38 -69 -53 -122 -53c-50 0 -92 16 -120 43c-46 46 -52 108 -52 194c0 85 5 147 52 193c28 27 70 43 119 43c50 0 87 -13 119 -49v45c0 42 -7 75 -34 102s-61 34 -101 34h-124
c-39 0 -72 -6 -100 -34c-29 -29 -35 -60 -35 -102v-289c0 -50 11 -70 44 -99l-89 -90c-57 52 -79 92 -79 182v299c0 82 15 143 61 189c46 47 107 61 188 61zM495 358c-64 0 -83 -48 -83 -127c0 -80 19 -128 83 -128c63 0 82 48 82 128c0 79 -19 127 -82 127z" />
    <glyph glyph-name="A" unicode="A" horiz-adv-x="637" 
d="M373 712l260 -712h-146l-42 126h-252l-43 -126h-146l260 712h109zM319 501l-88 -258h175z" />
    <glyph glyph-name="B" unicode="B" horiz-adv-x="658" 
d="M83 712h285c140 0 221 -79 221 -200c0 -79 -52 -129 -88 -147c44 -20 99 -65 99 -160c0 -133 -92 -205 -219 -205h-298v712zM368 299h-146v-175h146c62 0 93 38 93 88c0 49 -31 87 -93 87zM359 588h-137v-165h137c59 0 91 33 91 83c0 49 -32 82 -91 82z" />
    <glyph glyph-name="C" unicode="C" horiz-adv-x="620" 
d="M322 718c133 0 236 -76 261 -225h-141c-14 58 -51 101 -120 101c-38 0 -69 -14 -89 -37c-26 -30 -35 -65 -35 -201s9 -171 35 -201c20 -23 51 -37 89 -37c69 0 106 43 120 101h141c-25 -149 -128 -225 -261 -225c-82 0 -142 27 -191 75c-71 71 -72 151 -72 287
s1 216 72 287c49 48 109 75 191 75z" />
    <glyph glyph-name="D" unicode="D" horiz-adv-x="659" 
d="M83 712h257c97 0 166 -36 215 -104c44 -61 45 -134 45 -252s-1 -191 -45 -252c-49 -68 -118 -104 -215 -104h-257v712zM328 588h-106v-464h106c47 0 81 15 104 44c26 31 29 75 29 188c0 112 -3 157 -29 188c-23 29 -57 44 -104 44z" />
    <glyph glyph-name="E" unicode="E" horiz-adv-x="605" 
d="M552 712v-124h-330v-167h282v-124h-282v-173h330v-124h-469v712h469z" />
    <glyph glyph-name="F" unicode="F" horiz-adv-x="590" 
d="M552 712v-124h-330v-175h282v-124h-282v-289h-139v712h469z" />
    <glyph glyph-name="G" unicode="G" horiz-adv-x="649" 
d="M321 718c166 0 250 -108 268 -228h-140c-16 68 -57 104 -128 104c-38 0 -68 -15 -88 -38c-27 -30 -35 -64 -35 -200s8 -171 35 -201c20 -23 50 -37 88 -37c43 0 77 15 99 40c23 26 32 58 32 95v26h-131v117h269v-104c0 -103 -18 -164 -68 -217c-57 -59 -125 -81 -201 -81
c-81 0 -141 27 -190 75c-71 71 -72 151 -72 287s1 216 72 287c49 48 109 75 190 75z" />
    <glyph glyph-name="H" unicode="H" horiz-adv-x="686" 
d="M603 712v-712h-139v298h-242v-298h-139v712h139v-290h242v290h139z" />
    <glyph glyph-name="I" unicode="I" horiz-adv-x="306" 
d="M222 712v-712h-139v712h139z" />
    <glyph glyph-name="J" unicode="J" horiz-adv-x="509" 
d="M437 712v-478c0 -158 -118 -240 -251 -240c-77 0 -130 20 -183 73l92 91c24 -24 45 -40 91 -40c69 0 112 40 112 122v472h139z" />
    <glyph glyph-name="K" unicode="K" horiz-adv-x="666" 
d="M644 712l-236 -283l253 -429h-163l-183 324l-93 -110v-214h-139v712h139v-310l252 310h170z" />
    <glyph glyph-name="L" unicode="L" horiz-adv-x="575" 
d="M222 712v-588h323v-124h-462v712h139z" />
    <glyph glyph-name="M" unicode="M" horiz-adv-x="811" 
d="M728 712v-712h-139v414l-136 -253h-94l-137 253v-414h-139v712h137l186 -369l185 369h137z" />
    <glyph glyph-name="N" unicode="N" horiz-adv-x="712" 
d="M628 712v-712h-123l-283 435v-435h-139v712h124l282 -435v435h139z" />
    <glyph glyph-name="O" unicode="O" horiz-adv-x="644" 
d="M322 718c82 0 142 -27 191 -75c71 -70 72 -151 72 -287s-1 -217 -72 -287c-49 -48 -109 -75 -191 -75s-142 27 -191 75c-71 71 -72 151 -72 287s1 216 72 287c49 48 109 75 191 75zM322 594c-38 0 -69 -15 -89 -38c-27 -30 -35 -64 -35 -200s8 -169 35 -199
c20 -23 51 -39 89 -39s69 16 89 39c27 30 35 63 35 199s-8 170 -35 200c-20 23 -51 38 -89 38z" />
    <glyph glyph-name="P" unicode="P" horiz-adv-x="628" 
d="M83 712h276c148 0 235 -101 235 -222s-87 -222 -235 -222h-137v-268h-139v712zM352 588h-130v-196h130c63 0 103 40 103 98c0 59 -40 98 -103 98z" />
    <glyph glyph-name="Q" unicode="Q" horiz-adv-x="644" 
d="M322 718c82 0 142 -27 190 -75c71 -71 73 -151 73 -287c0 -114 -2 -189 -44 -252l61 -61l-73 -73l-63 62c-40 -25 -87 -38 -144 -38c-82 0 -142 27 -191 75c-71 71 -72 151 -72 287s1 216 72 287c49 48 109 75 191 75zM322 594c-38 0 -69 -15 -90 -38
c-26 -30 -34 -64 -34 -200s8 -169 34 -199c21 -23 52 -39 90 -39c17 0 34 4 48 10l-64 64l73 74l57 -58c7 29 10 73 10 148c0 136 -8 170 -35 200c-20 23 -51 38 -89 38z" />
    <glyph glyph-name="R" unicode="R" horiz-adv-x="654" 
d="M83 712h279c146 0 231 -99 231 -218c0 -100 -61 -163 -130 -187l159 -307h-161l-139 284h-100v-284h-139v712zM354 588h-132v-187h132c61 0 100 38 100 94c0 55 -39 93 -100 93z" />
    <glyph glyph-name="S" unicode="S" horiz-adv-x="591" 
d="M295 718c98 0 169 -24 230 -83l-88 -87c-38 38 -81 49 -146 49c-74 0 -110 -41 -110 -90c0 -19 6 -37 21 -51c14 -13 35 -23 65 -27l85 -13c65 -9 105 -26 136 -56c38 -36 55 -86 55 -150c0 -138 -114 -216 -264 -216c-108 0 -190 23 -260 94l90 90
c45 -45 106 -60 171 -60c83 0 127 32 127 89c0 24 -7 44 -22 59c-14 13 -30 19 -64 24l-85 13c-60 9 -106 28 -138 59c-34 33 -51 80 -51 140c0 127 94 216 248 216z" />
    <glyph glyph-name="T" unicode="T" horiz-adv-x="571" 
d="M541 712v-124h-186v-588h-139v588h-186v124h511z" />
    <glyph glyph-name="U" unicode="U" horiz-adv-x="668" 
d="M596 712v-468c0 -151 -116 -250 -263 -250c-146 0 -261 99 -261 250v468h139v-463c0 -81 47 -131 122 -131s124 50 124 131v463h139z" />
    <glyph glyph-name="V" unicode="V" horiz-adv-x="581" 
d="M578 712l-235 -712h-105l-235 712h144l144 -463l142 463h145z" />
    <glyph glyph-name="W" unicode="W" horiz-adv-x="887" 
d="M881 712l-190 -712h-117l-131 431l-130 -431h-116l-191 712h145l110 -448l131 448h103l131 -448l110 448h145z" />
    <glyph glyph-name="X" unicode="X" horiz-adv-x="603" 
d="M584 712l-207 -347l221 -365h-159l-137 248l-138 -248h-159l221 365l-207 347h159l124 -230l123 230h159z" />
    <glyph glyph-name="Y" unicode="Y" horiz-adv-x="572" 
d="M569 712l-214 -421v-291h-139v291l-213 421h151l133 -287l131 287h151z" />
    <glyph glyph-name="Z" unicode="Z" horiz-adv-x="548" 
d="M508 712v-110l-304 -478h304v-124h-468v110l303 478h-290v124h455z" />
    <glyph glyph-name="bracketleft" unicode="[" horiz-adv-x="389" 
d="M330 786v-117h-127v-626h127v-117h-257v860h257z" />
    <glyph glyph-name="backslash" unicode="\" horiz-adv-x="403" 
d="M122 773l281 -847h-122l-281 847h122z" />
    <glyph glyph-name="bracketright" unicode="]" horiz-adv-x="389" 
d="M316 786v-860h-257v117h127v626h-127v117h257z" />
    <glyph glyph-name="asciicircum" unicode="^" 
d="M331 718l178 -330h-136l-102 188l-102 -188h-136l178 330h120z" />
    <glyph glyph-name="underscore" unicode="_" horiz-adv-x="602" 
d="M602 -92v-86h-602v86h602z" />
    <glyph glyph-name="grave" unicode="`" 
d="M261 774l64 -170h-87l-114 170h137z" />
    <glyph glyph-name="a" unicode="a" horiz-adv-x="534" 
d="M245 527c147 0 222 -62 222 -184v-343h-127v45c-35 -35 -68 -50 -128 -50c-59 0 -103 16 -133 46c-28 29 -43 71 -43 117c0 83 57 151 180 151h121v26c0 57 -28 82 -97 82c-47 0 -72 -13 -100 -45l-82 81c51 56 100 74 187 74zM337 220h-99c-52 0 -77 -21 -77 -60
c0 -36 25 -59 79 -59c32 0 55 4 77 25c15 13 20 33 20 66v28z" />
    <glyph glyph-name="b" unicode="b" horiz-adv-x="561" 
d="M203 712v-237c34 38 73 52 127 52c52 0 96 -17 126 -47c49 -51 54 -132 54 -219c0 -88 -5 -169 -54 -220c-30 -30 -75 -47 -127 -47c-55 0 -93 15 -130 55v-49h-126v712h130zM291 410c-78 0 -88 -65 -88 -149c0 -85 10 -150 88 -150c79 0 89 65 89 150
c0 84 -10 149 -89 149z" />
    <glyph glyph-name="c" unicode="c" horiz-adv-x="484" 
d="M284 527c72 0 125 -22 172 -70l-89 -88c-27 29 -49 41 -83 41c-32 0 -55 -12 -74 -34c-20 -25 -29 -60 -29 -115c0 -56 9 -91 29 -116c19 -22 42 -34 74 -34c34 0 56 13 83 41l89 -87c-47 -48 -100 -71 -172 -71c-105 0 -233 56 -233 267c0 210 128 266 233 266z" />
    <glyph glyph-name="d" unicode="d" horiz-adv-x="561" 
d="M488 712v-712h-127v49c-36 -40 -74 -55 -129 -55c-52 0 -98 17 -127 47c-50 51 -54 132 -54 220c0 87 4 168 54 219c29 30 74 47 126 47c53 0 93 -14 127 -52v237h130zM269 410c-78 0 -88 -65 -88 -149c0 -85 10 -150 88 -150s89 65 89 150c0 84 -11 149 -89 149z" />
    <glyph glyph-name="e" unicode="e" horiz-adv-x="548" 
d="M274 527c145 0 227 -104 227 -252v-55h-326c0 -68 40 -116 114 -116c57 0 85 17 117 49l80 -77c-53 -54 -104 -82 -198 -82c-124 0 -241 56 -241 267c0 170 92 266 227 266zM274 419c-45 0 -74 -23 -88 -54c-9 -19 -10 -33 -11 -56h197c-1 23 -2 37 -11 56
c-14 31 -43 54 -87 54z" />
    <glyph glyph-name="f" unicode="f" horiz-adv-x="342" 
d="M315 718v-110h-51c-30 0 -45 -17 -45 -47v-55h96v-99h-96v-407h-130v407h-54v99h54v63c0 73 46 149 152 149h74z" />
    <glyph glyph-name="g" unicode="g" horiz-adv-x="555" 
d="M229 527c55 0 91 -15 127 -55v49h126v-502c0 -125 -88 -216 -229 -216c-80 0 -135 16 -189 68l82 82c29 -28 57 -40 102 -40c78 0 104 54 104 108v53c-34 -38 -72 -52 -124 -52c-51 0 -94 17 -123 46c-49 49 -54 115 -54 207c0 91 5 157 54 206c29 29 72 46 124 46z
M267 410c-78 0 -86 -67 -86 -135c0 -69 8 -136 86 -136c77 0 85 67 85 136c0 68 -8 135 -85 135z" />
    <glyph glyph-name="h" unicode="h" horiz-adv-x="573" 
d="M506 0h-130v315c0 71 -45 95 -86 95s-87 -24 -87 -95v-315h-130v712h130v-239c33 36 77 54 127 54c52 0 94 -17 123 -46c42 -42 53 -91 53 -148v-333z" />
    <glyph glyph-name="i" unicode="i" horiz-adv-x="275" 
d="M203 506v-506h-130v506h130zM204 716v-106h-133v106h133z" />
    <glyph glyph-name="j" unicode="j" horiz-adv-x="275" 
d="M203 506v-548c0 -75 -45 -149 -152 -149h-74v110h50c33 0 46 16 46 47v540h130zM204 716v-106h-133v106h133z" />
    <glyph glyph-name="k" unicode="k" horiz-adv-x="560" 
d="M203 712v-404l173 213h158l-187 -210l201 -311h-161l-129 217l-55 -62v-155h-130v712h130z" />
    <glyph glyph-name="l" unicode="l" horiz-adv-x="325" 
d="M198 712v-555c0 -31 13 -47 46 -47h50v-110h-74c-107 0 -152 74 -152 149v563h130z" />
    <glyph glyph-name="m" unicode="m" horiz-adv-x="876" 
d="M624 527c52 0 99 -17 129 -46c42 -42 56 -91 56 -148v-333h-130v315c0 71 -44 95 -86 95c-40 0 -87 -24 -87 -92v-318h-130v315c0 71 -44 95 -86 95s-87 -24 -87 -95v-315h-130v521h127v-48c34 36 83 54 131 54c58 0 105 -21 138 -66c44 46 90 66 155 66z" />
    <glyph glyph-name="n" unicode="n" horiz-adv-x="573" 
d="M330 527c52 0 94 -16 123 -46c42 -43 53 -91 53 -148v-333h-130v315c0 71 -44 95 -86 95s-87 -24 -87 -95v-315h-130v521h127v-48c34 36 82 54 130 54z" />
    <glyph glyph-name="o" unicode="o" 
d="M492 261c0 -94 -11 -154 -59 -203c-33 -34 -85 -64 -162 -64s-128 30 -161 64c-47 50 -59 109 -59 203s12 152 59 202c33 34 84 64 161 64s129 -29 162 -64c47 -50 59 -108 59 -202zM362 261c0 53 -3 100 -30 126c-15 15 -35 23 -61 23c-25 0 -45 -8 -60 -23
c-27 -26 -30 -73 -30 -126c0 -54 3 -101 30 -127c15 -15 35 -23 60 -23c26 0 46 8 61 23c27 26 30 73 30 127z" />
    <glyph glyph-name="p" unicode="p" horiz-adv-x="561" 
d="M329 527c52 0 97 -17 127 -47c49 -51 54 -132 54 -219c0 -88 -5 -169 -54 -220c-30 -30 -74 -47 -126 -47c-54 0 -93 14 -127 52v-237h-130v712h126v-49c37 40 75 55 130 55zM291 410c-78 0 -88 -65 -88 -149c0 -85 10 -150 88 -150c79 0 89 65 89 150
c0 84 -10 149 -89 149z" />
    <glyph glyph-name="q" unicode="q" horiz-adv-x="561" 
d="M232 527c55 0 93 -15 129 -55v49h127v-712h-130v237c-34 -38 -73 -52 -127 -52c-52 0 -96 17 -126 47c-49 51 -54 132 -54 220c0 87 5 168 54 219c30 30 75 47 127 47zM269 410c-78 0 -88 -65 -88 -149c0 -85 10 -150 88 -150c79 0 89 65 89 150c0 84 -10 149 -89 149z
" />
    <glyph glyph-name="r" unicode="r" horiz-adv-x="455" 
d="M331 527c52 0 87 -12 123 -49l-97 -99c-20 20 -37 31 -69 31c-40 0 -85 -30 -85 -96v-314h-130v521h127v-50c25 30 75 56 131 56z" />
    <glyph glyph-name="s" unicode="s" horiz-adv-x="501" 
d="M250 527c82 0 149 -15 199 -61l-80 -81c-30 27 -75 35 -121 35c-52 0 -74 -24 -74 -50c0 -27 15 -41 54 -45l82 -8c103 -10 155 -64 155 -153c0 -115 -98 -170 -221 -170c-82 0 -155 9 -222 75l85 85c42 -43 99 -49 139 -49c45 0 92 15 92 54c0 26 -13 44 -55 48l-82 8
c-94 9 -152 50 -152 146c0 109 95 166 201 166z" />
    <glyph glyph-name="t" unicode="t" horiz-adv-x="352" 
d="M215 660v-154h92v-99h-92v-250c0 -30 14 -47 45 -47h47v-110h-71c-106 0 -151 75 -151 149v258h-55v99h55v154h130z" />
    <glyph glyph-name="u" unicode="u" horiz-adv-x="573" 
d="M500 521v-521h-127v48c-34 -36 -82 -54 -130 -54c-51 0 -93 16 -123 46c-42 42 -53 91 -53 148v333h130v-315c0 -71 45 -95 86 -95c42 0 87 24 87 95v315h130z" />
    <glyph glyph-name="v" unicode="v" horiz-adv-x="493" 
d="M489 521l-191 -521h-102l-192 521h137l106 -322l105 322h137z" />
    <glyph glyph-name="w" unicode="w" horiz-adv-x="759" 
d="M755 521l-159 -521h-107l-109 327l-109 -327h-107l-160 521h138l84 -322l106 322h95l107 -322l84 322h137z" />
    <glyph glyph-name="x" unicode="x" horiz-adv-x="527" 
d="M508 521l-173 -255l180 -266h-156l-96 156l-95 -156h-156l180 266l-173 255h156l88 -149l89 149h156z" />
    <glyph glyph-name="y" unicode="y" horiz-adv-x="494" 
d="M490 521l-223 -605c-11 -30 -24 -51 -39 -67c-30 -30 -69 -40 -112 -40h-51v117h30c37 0 52 10 65 47l22 64l-178 484h137l108 -322l104 322h137z" />
    <glyph glyph-name="z" unicode="z" horiz-adv-x="478" 
d="M434 521v-99l-234 -305h234v-117h-397v99l231 305h-218v117h384z" />
    <glyph glyph-name="braceleft" unicode="{" horiz-adv-x="453" 
d="M412 786v-117h-53c-30 0 -47 -3 -58 -14s-15 -30 -15 -64v-135c0 -72 -43 -90 -69 -100c26 -10 69 -28 69 -100v-135c0 -34 4 -53 15 -64s28 -14 58 -14h53v-117h-102c-52 0 -88 13 -113 37c-30 29 -41 66 -41 111v145c0 28 -5 48 -17 60s-28 19 -52 19h-46v116h46
c24 0 40 7 52 19s17 32 17 60v145c0 45 11 82 41 111c25 24 61 37 113 37h102z" />
    <glyph glyph-name="bar" unicode="|" horiz-adv-x="350" 
d="M240 786v-860h-130v860h130z" />
    <glyph glyph-name="braceright" unicode="}" horiz-adv-x="453" 
d="M41 786h102c52 0 88 -13 112 -37c30 -30 42 -66 42 -111v-145c0 -28 5 -48 17 -60s28 -19 52 -19h46v-116h-46c-24 0 -40 -7 -52 -19s-17 -32 -17 -60v-145c0 -45 -12 -81 -42 -111c-24 -24 -60 -37 -112 -37h-102v117h53c30 0 46 3 57 14c12 11 16 30 16 64v135
c0 72 43 90 69 100c-26 10 -69 28 -69 100v135c0 34 -4 53 -16 64c-11 11 -27 14 -57 14h-53v117z" />
    <glyph glyph-name="asciitilde" unicode="~" horiz-adv-x="606" 
d="M201 377c42 0 74 -9 117 -33c29 -15 52 -24 81 -24c28 0 50 5 87 42l83 -82c-61 -62 -104 -86 -165 -86c-42 0 -74 10 -117 33c-29 16 -52 25 -82 25c-27 0 -49 -5 -86 -43l-82 82c62 62 103 86 164 86z" />
    <glyph glyph-name="uni00A0" unicode="&#xa0;" horiz-adv-x="232" 
 />
    <glyph glyph-name="exclamdown" unicode="&#xa1;" horiz-adv-x="347" 
d="M204 298l31 -489h-160l31 489h98zM224 521v-133h-138v133h138z" />
    <glyph glyph-name="cent" unicode="&#xa2;" horiz-adv-x="513" 
d="M344 712v-82c57 -7 101 -28 141 -68l-96 -87c-20 20 -37 32 -59 36v-290c22 5 39 16 59 36l96 -87c-40 -40 -84 -61 -141 -68v-102h-101v105c-100 17 -192 89 -192 261s92 244 192 261v85h101zM257 229v274c-13 -1 -27 -11 -34 -21c-20 -26 -30 -61 -30 -116
s10 -90 30 -116c7 -10 21 -20 34 -21z" />
    <glyph glyph-name="sterling" unicode="&#xa3;" horiz-adv-x="579" 
d="M352 718c77 0 130 -20 183 -73l-92 -91c-24 24 -45 40 -91 40c-69 0 -112 -40 -112 -122v-75h112v-100h-112v-173h295v-124h-434v297h-62v100h62v81c0 158 118 240 251 240z" />
    <glyph glyph-name="currency" unicode="&#xa4;" horiz-adv-x="668" 
d="M524 562l86 -86l-70 -71c24 -37 36 -76 36 -119s-12 -83 -37 -120l71 -70l-86 -86l-70 70c-31 -17 -77 -29 -120 -29c-42 0 -89 12 -119 29l-71 -70l-86 86l71 70c-24 37 -37 77 -37 120s13 82 37 119l-71 71l86 86l71 -71c30 18 76 30 119 30s90 -12 120 -30zM334 404
c-63 0 -116 -52 -116 -118s53 -118 116 -118c64 0 117 52 117 118s-53 118 -117 118z" />
    <glyph glyph-name="yen" unicode="&#xa5;" horiz-adv-x="572" 
d="M216 0v170h-151v83h151v38l-18 37h-133v83h91l-153 301h151l133 -287l131 287h151l-153 -301h91v-83h-133l-19 -37v-38h152v-83h-152v-170h-139z" />
    <glyph glyph-name="brokenbar" unicode="&#xa6;" horiz-adv-x="350" 
d="M240 786v-351h-130v351h130zM240 276v-351h-130v351h130z" />
    <glyph glyph-name="section" unicode="&#xa7;" horiz-adv-x="534" 
d="M268 718c130 0 191 -76 192 -172h-122c-2 44 -31 61 -70 61c-47 0 -70 -25 -70 -59c0 -31 24 -52 67 -66l62 -20c96 -31 146 -83 146 -188c0 -75 -52 -128 -90 -149c45 -22 81 -62 81 -139c0 -123 -98 -183 -198 -183c-98 0 -197 50 -199 178h125c2 -38 29 -63 74 -63
c46 0 73 26 73 64c0 27 -16 56 -70 74l-62 21c-96 33 -146 82 -146 188c0 74 52 128 91 149c-42 22 -76 58 -76 131c0 89 61 173 192 173zM267 358c-25 0 -44 -9 -57 -21c-14 -13 -24 -32 -24 -68s12 -55 24 -67c13 -12 32 -22 57 -22s44 10 56 22c13 12 25 31 25 67
c0 34 -10 54 -25 68c-13 12 -32 21 -56 21z" />
    <glyph glyph-name="dieresis" unicode="&#xa8;" 
d="M437 731v-125h-111v125h111zM216 731v-125h-111v125h111z" />
    <glyph glyph-name="copyright" unicode="&#xa9;" horiz-adv-x="842" 
d="M421 -6c-200 0 -362 162 -362 362s162 362 362 362s362 -162 362 -362s-162 -362 -362 -362zM428 160c-99 0 -179 68 -179 196s80 197 179 197c56 0 95 -20 132 -53l-56 -56c-27 23 -45 32 -76 32s-54 -12 -70 -33c-15 -20 -24 -50 -24 -87s9 -67 24 -87
c16 -21 39 -33 70 -33s49 9 76 32l56 -56c-37 -32 -76 -52 -132 -52zM421 75c155 0 275 120 275 281s-120 281 -275 281s-276 -120 -276 -281s121 -281 276 -281z" />
    <glyph glyph-name="ordfeminine" unicode="&#xaa;" horiz-adv-x="454" 
d="M215 717c116 0 177 -49 177 -147v-274h-103v36c-27 -28 -53 -40 -101 -40c-47 0 -81 13 -105 38c-23 23 -35 56 -35 92c0 67 45 121 142 121h97v20c0 46 -22 65 -77 65c-40 0 -57 -9 -79 -34l-67 65c42 45 82 58 151 58zM287 472h-81c-37 0 -56 -18 -56 -47
c0 -28 18 -46 57 -46c29 0 48 2 65 19c10 10 15 26 15 51v23z" />
    <glyph glyph-name="guillemotleft" unicode="&#xab;" horiz-adv-x="628" 
d="M283 534v-155l-94 -93l94 -93v-155l-249 248zM562 534v-155l-96 -93l96 -93v-155l-250 248z" />
    <glyph glyph-name="logicalnot" unicode="&#xac;" 
d="M497 346v-266h-121v145h-330v121h451z" />
    <glyph glyph-name="uni00AD" unicode="&#xad;" horiz-adv-x="426" 
d="M367 347v-122h-308v122h308z" />
    <glyph glyph-name="registered" unicode="&#xae;" horiz-adv-x="842" 
d="M421 -6c-200 0 -362 162 -362 362s162 362 362 362s362 -162 362 -362s-162 -362 -362 -362zM421 75c156 0 276 120 276 281s-120 281 -276 281s-276 -120 -276 -281s120 -281 276 -281zM289 164v385h157c78 0 128 -57 128 -121c0 -53 -34 -87 -71 -102l81 -162h-98
l-70 149h-41v-149h-86zM375 378h60c32 0 53 23 53 50s-21 50 -53 50h-60v-100z" />
    <glyph glyph-name="macron" unicode="&#xaf;" 
d="M430 711v-88h-317v88h317z" />
    <glyph glyph-name="degree" unicode="&#xb0;" horiz-adv-x="479" 
d="M239 727c102 0 185 -83 185 -185c0 -101 -83 -184 -185 -184c-101 0 -184 83 -184 184c0 102 83 185 184 185zM239 622c-44 0 -79 -34 -79 -80c0 -45 35 -80 79 -80c45 0 79 35 79 80s-35 80 -79 80z" />
    <glyph glyph-name="plusminus" unicode="&#xb1;" 
d="M333 623v-161h160v-121h-160v-161h-122v161h-161v121h161v161h122zM493 122v-122h-443v122h443z" />
    <glyph glyph-name="twosuperior" unicode="&#xb2;" horiz-adv-x="242" 
d="M26 434v58l113 107c12 12 16 23 16 37s-13 26 -31 26c-17 0 -29 -9 -31 -31h-69c1 58 45 88 100 88c58 0 98 -33 98 -83c0 -27 -9 -43 -34 -67l-81 -77h114v-58h-195z" />
    <glyph glyph-name="threesuperior" unicode="&#xb3;" horiz-adv-x="242" 
d="M120 430c-58 0 -102 26 -103 95h70c1 -21 14 -33 33 -33s33 13 33 34s-15 30 -34 30h-9v44h9c20 0 30 11 30 27c0 18 -12 28 -29 28c-15 0 -28 -10 -29 -30h-70c1 62 41 93 99 93c64 0 99 -40 99 -81c0 -34 -16 -50 -35 -58c20 -9 39 -28 39 -64c0 -51 -40 -85 -103 -85z
" />
    <glyph glyph-name="acute" unicode="&#xb4;" 
d="M420 774l-114 -170h-87l64 170h137z" />
    <glyph glyph-name="mu" unicode="&#xb5;" horiz-adv-x="579" 
d="M73 -191v712h130v-315c0 -71 44 -95 86 -95c41 0 87 24 87 95v315h130v-521h-127v48c-31 -32 -69 -53 -116 -53c-24 0 -44 9 -60 22v-208h-130z" />
    <glyph glyph-name="paragraph" unicode="&#xb6;" horiz-adv-x="668" 
d="M585 712v-903h-130v780h-100v-780h-130v499c-101 0 -190 90 -190 201c0 131 94 203 231 203h319z" />
    <glyph glyph-name="periodcentered" unicode="&#xb7;" horiz-adv-x="285" 
d="M217 360v-148h-149v148h149z" />
    <glyph glyph-name="cedilla" unicode="&#xb8;" 
d="M159 -205l69 146h96l-44 -146h-121z" />
    <glyph glyph-name="onesuperior" unicode="&#xb9;" horiz-adv-x="242" 
d="M106 434v202l-65 -54v79l65 55h70v-282h-70z" />
    <glyph glyph-name="ordmasculine" unicode="&#xba;" horiz-adv-x="463" 
d="M232 717c61 0 102 -24 128 -51c38 -40 48 -86 48 -162s-10 -122 -48 -161c-26 -28 -67 -51 -128 -51s-103 23 -129 51c-37 39 -48 85 -48 161s11 122 48 162c26 27 68 51 129 51zM232 623c-21 0 -36 -6 -48 -18c-21 -21 -23 -58 -23 -101c0 -42 2 -79 23 -100
c11 -12 27 -18 48 -18c20 0 36 6 48 18c21 21 23 58 23 100c0 43 -2 80 -23 101c-12 12 -28 18 -48 18z" />
    <glyph glyph-name="guillemotright" unicode="&#xbb;" horiz-adv-x="629" 
d="M345 534l250 -248l-250 -248v155l94 93l-94 93v155zM67 534l249 -248l-249 -248v155l95 93l-95 93v155z" />
    <glyph glyph-name="onequarter" unicode="&#xbc;" horiz-adv-x="913" 
d="M231 0l337 712h101l-337 -712h-101zM753 0v59h-172v77l140 291h99l-142 -291h75v78h88v-78h38v-77h-38v-59h-88zM152 285v321l-90 -78v106l90 78h95v-427h-95z" />
    <glyph glyph-name="onehalf" unicode="&#xbd;" horiz-adv-x="896" 
d="M231 0l337 712h101l-337 -712h-101zM589 0v85l160 171c17 18 24 29 24 50c0 23 -17 40 -45 40c-24 0 -44 -11 -44 -44h-95c0 83 63 129 139 129c80 0 136 -47 136 -125c0 -42 -12 -63 -51 -104l-113 -122h166v-80h-277zM152 285v321l-90 -78v106l90 78h95v-427h-95z" />
    <glyph glyph-name="threequarters" unicode="&#xbe;" horiz-adv-x="909" 
d="M227 0l337 712h101l-337 -712h-101zM749 0v59h-172v77l140 291h99l-142 -291h75v78h88v-78h38v-77h-38v-59h-88zM169 280c-72 0 -143 37 -144 132h95c0 -34 22 -50 49 -50c28 0 50 21 50 50c0 33 -19 50 -51 50h-12v82h12c29 0 46 19 46 45c0 30 -19 45 -44 45
c-28 0 -44 -18 -45 -45h-94c1 79 63 127 139 127c80 0 139 -52 139 -126c0 -46 -16 -68 -48 -84c32 -18 52 -46 52 -95c0 -88 -67 -131 -144 -131z" />
    <glyph glyph-name="questiondown" unicode="&#xbf;" horiz-adv-x="523" 
d="M307 298v-30c0 -43 -12 -70 -38 -104l-74 -95c-16 -21 -29 -44 -29 -67c0 -47 31 -82 81 -82c52 0 80 37 80 84h130c0 -124 -94 -201 -210 -201c-114 0 -211 73 -211 200c0 50 21 88 49 125l74 99c10 13 18 34 18 51v20h130zM311 521v-133h-138v133h138z" />
    <glyph glyph-name="Agrave" unicode="&#xc0;" horiz-adv-x="637" 
d="M373 712l260 -712h-146l-42 126h-252l-43 -126h-146l260 712h109zM319 501l-88 -258h175zM310 951l64 -170h-87l-114 170h137z" />
    <glyph glyph-name="Aacute" unicode="&#xc1;" horiz-adv-x="637" 
d="M373 712l260 -712h-146l-42 126h-252l-43 -126h-146l260 712h109zM319 501l-88 -258h175zM465 951l-114 -170h-87l64 170h137z" />
    <glyph glyph-name="Acircumflex" unicode="&#xc2;" horiz-adv-x="637" 
d="M373 712l260 -712h-146l-42 126h-252l-43 -126h-146l260 712h109zM319 501l-88 -258h175zM371 950l132 -169h-101l-83 91l-83 -91h-101l132 169h104z" />
    <glyph glyph-name="Atilde" unicode="&#xc3;" horiz-adv-x="637" 
d="M373 712l260 -712h-146l-42 126h-252l-43 -126h-146l260 712h109zM319 501l-88 -258h175zM251 918c29 0 49 -6 77 -23c20 -12 35 -18 55 -18c17 0 32 2 59 29l58 -57c-44 -44 -75 -59 -113 -59c-30 0 -50 6 -78 23c-19 11 -36 18 -56 18c-17 0 -32 -3 -58 -29l-56 57
c43 44 73 59 112 59z" />
    <glyph glyph-name="Adieresis" unicode="&#xc4;" horiz-adv-x="637" 
d="M373 712l260 -712h-146l-42 126h-252l-43 -126h-146l260 712h109zM319 501l-88 -258h175zM485 908v-125h-111v125h111zM264 908v-125h-111v125h111z" />
    <glyph glyph-name="Aring" unicode="&#xc5;" horiz-adv-x="637" 
d="M373 712l260 -712h-146l-42 126h-252l-43 -126h-146l260 712h109zM319 501l-88 -258h175zM319 1021c72 0 131 -58 131 -131c0 -72 -59 -131 -131 -131s-131 59 -131 131s59 131 131 131zM319 948c-32 0 -58 -26 -58 -58s26 -59 58 -59s58 27 58 59s-26 58 -58 58z" />
    <glyph glyph-name="AE" unicode="&#xc6;" horiz-adv-x="980" 
d="M927 712v-124h-328v-167h281v-124h-281v-173h328v-124h-468v156h-225l-80 -156h-150l372 712h551zM459 588l-164 -315h164v315z" />
    <glyph glyph-name="Ccedilla" unicode="&#xc7;" horiz-adv-x="620" 
d="M322 718c133 0 236 -76 261 -225h-141c-14 58 -51 101 -120 101c-38 0 -69 -14 -89 -37c-26 -30 -35 -65 -35 -201s9 -171 35 -201c20 -23 51 -37 89 -37c69 0 106 43 120 101h141c-25 -149 -128 -225 -261 -225c-82 0 -142 27 -191 75c-71 71 -72 151 -72 287
s1 216 72 287c49 48 109 75 191 75zM377 -59l-44 -146h-121l69 146h96z" />
    <glyph glyph-name="Egrave" unicode="&#xc8;" horiz-adv-x="605" 
d="M552 712v-124h-330v-167h282v-124h-282v-173h330v-124h-469v712h469zM298 951l64 -170h-87l-114 170h137z" />
    <glyph glyph-name="Eacute" unicode="&#xc9;" horiz-adv-x="605" 
d="M552 712v-124h-330v-167h282v-124h-282v-173h330v-124h-469v712h469zM453 951l-114 -170h-87l64 170h137z" />
    <glyph glyph-name="Ecircumflex" unicode="&#xca;" horiz-adv-x="605" 
d="M552 712v-124h-330v-167h282v-124h-282v-173h330v-124h-469v712h469zM359 950l132 -169h-101l-83 91l-83 -91h-101l132 169h104z" />
    <glyph glyph-name="Edieresis" unicode="&#xcb;" horiz-adv-x="605" 
d="M552 712v-124h-330v-167h282v-124h-282v-173h330v-124h-469v712h469zM473 908v-125h-111v125h111zM252 908v-125h-111v125h111z" />
    <glyph glyph-name="Igrave" unicode="&#xcc;" horiz-adv-x="306" 
d="M222 712v-712h-139v712h139zM143 951l64 -170h-87l-114 170h137z" />
    <glyph glyph-name="Iacute" unicode="&#xcd;" horiz-adv-x="306" 
d="M222 712v-712h-139v712h139zM298 951l-114 -170h-87l64 170h137z" />
    <glyph glyph-name="Icircumflex" unicode="&#xce;" horiz-adv-x="306" 
d="M222 712v-712h-139v712h139zM204 950l132 -169h-101l-83 91l-83 -91h-101l132 169h104z" />
    <glyph glyph-name="Idieresis" unicode="&#xcf;" horiz-adv-x="306" 
d="M222 712v-712h-139v712h139zM318 908v-125h-111v125h111zM97 908v-125h-111v125h111z" />
    <glyph glyph-name="Eth" unicode="&#xd0;" horiz-adv-x="682" 
d="M106 712h257c97 0 166 -36 215 -104c44 -61 45 -134 45 -252s-1 -191 -45 -252c-49 -68 -118 -104 -215 -104h-257v306h-70v106h70v300zM351 588h-106v-176h116v-106h-116v-182h106c47 0 81 15 104 44c26 31 29 75 29 188c0 112 -3 157 -29 188c-23 29 -57 44 -104 44z
" />
    <glyph glyph-name="Ntilde" unicode="&#xd1;" horiz-adv-x="712" 
d="M628 712v-712h-123l-283 435v-435h-139v712h124l282 -435v435h139zM287 918c29 0 49 -6 77 -23c20 -12 35 -18 55 -18c17 0 32 2 59 29l58 -57c-44 -44 -75 -59 -113 -59c-30 0 -50 6 -78 23c-19 11 -36 18 -56 18c-17 0 -32 -3 -58 -29l-56 57c43 44 73 59 112 59z" />
    <glyph glyph-name="Ograve" unicode="&#xd2;" horiz-adv-x="644" 
d="M322 718c82 0 142 -27 191 -75c71 -70 72 -151 72 -287s-1 -217 -72 -287c-49 -48 -109 -75 -191 -75s-142 27 -191 75c-71 71 -72 151 -72 287s1 216 72 287c49 48 109 75 191 75zM322 594c-38 0 -69 -15 -89 -38c-27 -30 -35 -64 -35 -200s8 -169 35 -199
c20 -23 51 -39 89 -39s69 16 89 39c27 30 35 63 35 199s-8 170 -35 200c-20 23 -51 38 -89 38zM313 951l64 -170h-87l-114 170h137z" />
    <glyph glyph-name="Oacute" unicode="&#xd3;" horiz-adv-x="644" 
d="M322 718c82 0 142 -27 191 -75c71 -70 72 -151 72 -287s-1 -217 -72 -287c-49 -48 -109 -75 -191 -75s-142 27 -191 75c-71 71 -72 151 -72 287s1 216 72 287c49 48 109 75 191 75zM322 594c-38 0 -69 -15 -89 -38c-27 -30 -35 -64 -35 -200s8 -169 35 -199
c20 -23 51 -39 89 -39s69 16 89 39c27 30 35 63 35 199s-8 170 -35 200c-20 23 -51 38 -89 38zM468 951l-114 -170h-87l64 170h137z" />
    <glyph glyph-name="Ocircumflex" unicode="&#xd4;" horiz-adv-x="644" 
d="M322 718c82 0 142 -27 191 -75c71 -70 72 -151 72 -287s-1 -217 -72 -287c-49 -48 -109 -75 -191 -75s-142 27 -191 75c-71 71 -72 151 -72 287s1 216 72 287c49 48 109 75 191 75zM322 594c-38 0 -69 -15 -89 -38c-27 -30 -35 -64 -35 -200s8 -169 35 -199
c20 -23 51 -39 89 -39s69 16 89 39c27 30 35 63 35 199s-8 170 -35 200c-20 23 -51 38 -89 38zM374 950l132 -169h-101l-83 91l-83 -91h-101l132 169h104z" />
    <glyph glyph-name="Otilde" unicode="&#xd5;" horiz-adv-x="644" 
d="M322 718c82 0 142 -27 191 -75c71 -70 72 -151 72 -287s-1 -217 -72 -287c-49 -48 -109 -75 -191 -75s-142 27 -191 75c-71 71 -72 151 -72 287s1 216 72 287c49 48 109 75 191 75zM322 594c-38 0 -69 -15 -89 -38c-27 -30 -35 -64 -35 -200s8 -169 35 -199
c20 -23 51 -39 89 -39s69 16 89 39c27 30 35 63 35 199s-8 170 -35 200c-20 23 -51 38 -89 38zM254 918c29 0 49 -6 77 -23c20 -12 35 -18 55 -18c17 0 32 2 59 29l58 -57c-44 -44 -75 -59 -113 -59c-30 0 -50 6 -78 23c-19 11 -36 18 -56 18c-17 0 -32 -3 -58 -29l-56 57
c43 44 73 59 112 59z" />
    <glyph glyph-name="Odieresis" unicode="&#xd6;" horiz-adv-x="644" 
d="M322 718c82 0 142 -27 191 -75c71 -70 72 -151 72 -287s-1 -217 -72 -287c-49 -48 -109 -75 -191 -75s-142 27 -191 75c-71 71 -72 151 -72 287s1 216 72 287c49 48 109 75 191 75zM322 594c-38 0 -69 -15 -89 -38c-27 -30 -35 -64 -35 -200s8 -169 35 -199
c20 -23 51 -39 89 -39s69 16 89 39c27 30 35 63 35 199s-8 170 -35 200c-20 23 -51 38 -89 38zM488 908v-125h-111v125h111zM267 908v-125h-111v125h111z" />
    <glyph glyph-name="multiply" unicode="&#xd7;" 
d="M412 509l83 -82l-142 -141l142 -141l-82 -82l-141 141l-141 -141l-82 82l141 141l-141 141l82 82l140 -141z" />
    <glyph glyph-name="Oslash" unicode="&#xd8;" horiz-adv-x="644" 
d="M585 356c0 -136 -2 -216 -73 -287c-48 -48 -108 -75 -190 -75c-43 0 -81 7 -113 21l-29 -59h-99l53 110l-3 3c-71 71 -72 151 -72 287s1 216 72 287c48 48 109 75 191 75c43 0 80 -8 113 -22l29 60h98l-53 -110l3 -3c71 -71 73 -151 73 -287zM446 356
c0 77 -3 121 -10 150l-178 -371c18 -11 39 -17 64 -17c38 0 69 16 89 39c26 30 35 63 35 199zM198 356c0 -77 2 -121 9 -150l178 371c-18 11 -39 17 -63 17c-38 0 -69 -15 -90 -38c-26 -30 -34 -64 -34 -200z" />
    <glyph glyph-name="Ugrave" unicode="&#xd9;" horiz-adv-x="668" 
d="M596 712v-468c0 -151 -116 -250 -263 -250c-146 0 -261 99 -261 250v468h139v-463c0 -81 47 -131 122 -131s124 50 124 131v463h139zM325 951l64 -170h-87l-114 170h137z" />
    <glyph glyph-name="Uacute" unicode="&#xda;" horiz-adv-x="668" 
d="M596 712v-468c0 -151 -116 -250 -263 -250c-146 0 -261 99 -261 250v468h139v-463c0 -81 47 -131 122 -131s124 50 124 131v463h139zM480 951l-114 -170h-87l64 170h137z" />
    <glyph glyph-name="Ucircumflex" unicode="&#xdb;" horiz-adv-x="668" 
d="M596 712v-468c0 -151 -116 -250 -263 -250c-146 0 -261 99 -261 250v468h139v-463c0 -81 47 -131 122 -131s124 50 124 131v463h139zM386 950l132 -169h-101l-83 91l-83 -91h-101l132 169h104z" />
    <glyph glyph-name="Udieresis" unicode="&#xdc;" horiz-adv-x="668" 
d="M596 712v-468c0 -151 -116 -250 -263 -250c-146 0 -261 99 -261 250v468h139v-463c0 -81 47 -131 122 -131s124 50 124 131v463h139zM500 908v-125h-111v125h111zM279 908v-125h-111v125h111z" />
    <glyph glyph-name="Yacute" unicode="&#xdd;" horiz-adv-x="572" 
d="M569 712l-214 -421v-291h-139v291l-213 421h151l133 -287l131 287h151zM432 951l-114 -170h-87l64 170h137z" />
    <glyph glyph-name="Thorn" unicode="&#xde;" horiz-adv-x="633" 
d="M222 712v-130h137c148 0 235 -101 235 -222s-87 -222 -235 -222h-137v-138h-139v712h139zM352 457h-130v-195h130c63 0 103 40 103 98s-40 97 -103 97z" />
    <glyph glyph-name="germandbls" unicode="&#xdf;" horiz-adv-x="574" 
d="M299 718c125 0 217 -54 217 -175c0 -62 -31 -94 -62 -113c38 -19 62 -47 62 -110v-159c0 -51 -13 -91 -41 -119s-67 -42 -125 -42h-53v110h27c20 0 33 4 44 15c12 11 17 26 17 47v144c0 21 -4 34 -15 45c-10 11 -26 16 -45 16h-28v101h28c33 0 60 18 60 61
c0 18 -6 33 -19 45c-15 13 -38 20 -69 20c-70 0 -93 -35 -93 -93v-511h-131v521c0 139 96 197 226 197z" />
    <glyph glyph-name="agrave" unicode="&#xe0;" horiz-adv-x="534" 
d="M245 527c147 0 222 -62 222 -184v-343h-127v45c-35 -35 -68 -50 -128 -50c-59 0 -103 16 -133 46c-28 29 -43 71 -43 117c0 83 57 151 180 151h121v26c0 57 -28 82 -97 82c-47 0 -72 -13 -100 -45l-82 81c51 56 100 74 187 74zM337 220h-99c-52 0 -77 -21 -77 -60
c0 -36 25 -59 79 -59c32 0 55 4 77 25c15 13 20 33 20 66v28zM250 774l64 -170h-87l-114 170h137z" />
    <glyph glyph-name="aacute" unicode="&#xe1;" horiz-adv-x="534" 
d="M245 527c147 0 222 -62 222 -184v-343h-127v45c-35 -35 -68 -50 -128 -50c-59 0 -103 16 -133 46c-28 29 -43 71 -43 117c0 83 57 151 180 151h121v26c0 57 -28 82 -97 82c-47 0 -72 -13 -100 -45l-82 81c51 56 100 74 187 74zM337 220h-99c-52 0 -77 -21 -77 -60
c0 -36 25 -59 79 -59c32 0 55 4 77 25c15 13 20 33 20 66v28zM409 774l-114 -170h-87l64 170h137z" />
    <glyph glyph-name="acircumflex" unicode="&#xe2;" horiz-adv-x="534" 
d="M245 527c147 0 222 -62 222 -184v-343h-127v45c-35 -35 -68 -50 -128 -50c-59 0 -103 16 -133 46c-28 29 -43 71 -43 117c0 83 57 151 180 151h121v26c0 57 -28 82 -97 82c-47 0 -72 -13 -100 -45l-82 81c51 56 100 74 187 74zM337 220h-99c-52 0 -77 -21 -77 -60
c0 -36 25 -59 79 -59c32 0 55 4 77 25c15 13 20 33 20 66v28zM312 773l132 -169h-101l-83 91l-83 -91h-101l132 169h104z" />
    <glyph glyph-name="atilde" unicode="&#xe3;" horiz-adv-x="534" 
d="M245 527c147 0 222 -62 222 -184v-343h-127v45c-35 -35 -68 -50 -128 -50c-59 0 -103 16 -133 46c-28 29 -43 71 -43 117c0 83 57 151 180 151h121v26c0 57 -28 82 -97 82c-47 0 -72 -13 -100 -45l-82 81c51 56 100 74 187 74zM337 220h-99c-52 0 -77 -21 -77 -60
c0 -36 25 -59 79 -59c32 0 55 4 77 25c15 13 20 33 20 66v28zM192 740c30 0 49 -5 78 -22c19 -12 35 -19 55 -19c17 0 32 3 58 29l58 -57c-44 -44 -74 -58 -113 -58c-29 0 -49 6 -77 22c-19 11 -36 18 -56 18c-17 0 -32 -2 -58 -28l-57 57c44 44 74 58 112 58z" />
    <glyph glyph-name="adieresis" unicode="&#xe4;" horiz-adv-x="534" 
d="M245 527c147 0 222 -62 222 -184v-343h-127v45c-35 -35 -68 -50 -128 -50c-59 0 -103 16 -133 46c-28 29 -43 71 -43 117c0 83 57 151 180 151h121v26c0 57 -28 82 -97 82c-47 0 -72 -13 -100 -45l-82 81c51 56 100 74 187 74zM337 220h-99c-52 0 -77 -21 -77 -60
c0 -36 25 -59 79 -59c32 0 55 4 77 25c15 13 20 33 20 66v28zM426 731v-125h-111v125h111zM205 731v-125h-111v125h111z" />
    <glyph glyph-name="aring" unicode="&#xe5;" horiz-adv-x="534" 
d="M245 527c147 0 222 -62 222 -184v-343h-127v45c-35 -35 -68 -50 -128 -50c-59 0 -103 16 -133 46c-28 29 -43 71 -43 117c0 83 57 151 180 151h121v26c0 57 -28 82 -97 82c-47 0 -72 -13 -100 -45l-82 81c51 56 100 74 187 74zM337 220h-99c-52 0 -77 -21 -77 -60
c0 -36 25 -59 79 -59c32 0 55 4 77 25c15 13 20 33 20 66v28zM260 846c72 0 131 -58 131 -131c0 -72 -59 -131 -131 -131s-131 59 -131 131s59 131 131 131zM260 773c-32 0 -58 -26 -58 -58s26 -59 58 -59s58 27 58 59s-26 58 -58 58z" />
    <glyph glyph-name="ae" unicode="&#xe6;" horiz-adv-x="838" 
d="M564 527c145 0 227 -104 227 -252v-55h-326c0 -68 40 -116 114 -116c57 0 85 17 118 49l79 -77c-53 -54 -104 -82 -198 -82c-71 0 -138 19 -183 73c-58 -62 -110 -73 -183 -73c-59 0 -102 16 -133 47c-28 29 -43 71 -43 117c0 83 57 151 180 151h121v26
c0 57 -28 82 -97 82c-47 0 -72 -13 -100 -45l-82 81c51 56 100 74 187 74c80 0 137 -19 171 -57c37 38 88 57 148 57zM337 220h-99c-52 0 -77 -21 -77 -60c0 -36 25 -59 79 -59c32 0 55 4 77 25c15 13 20 33 20 66v28zM564 419c-44 0 -74 -22 -87 -54
c-9 -19 -11 -33 -12 -56h198c-1 23 -3 37 -12 56c-13 31 -43 54 -87 54z" />
    <glyph glyph-name="ccedilla" unicode="&#xe7;" horiz-adv-x="484" 
d="M284 527c72 0 125 -22 172 -70l-89 -88c-27 29 -49 41 -83 41c-32 0 -55 -12 -74 -34c-20 -25 -29 -60 -29 -115c0 -56 9 -91 29 -116c19 -22 42 -34 74 -34c34 0 56 13 83 41l89 -87c-47 -48 -100 -71 -172 -71c-105 0 -233 56 -233 267c0 210 128 266 233 266z
M159 -205l69 146h96l-44 -146h-121z" />
    <glyph glyph-name="egrave" unicode="&#xe8;" horiz-adv-x="548" 
d="M274 527c145 0 227 -104 227 -252v-55h-326c0 -68 40 -116 114 -116c57 0 85 17 117 49l80 -77c-53 -54 -104 -82 -198 -82c-124 0 -241 56 -241 267c0 170 92 266 227 266zM274 419c-45 0 -74 -23 -88 -54c-9 -19 -10 -33 -11 -56h197c-1 23 -2 37 -11 56
c-14 31 -43 54 -87 54zM261 774l64 -170h-87l-114 170h137z" />
    <glyph glyph-name="eacute" unicode="&#xe9;" horiz-adv-x="548" 
d="M274 527c145 0 227 -104 227 -252v-55h-326c0 -68 40 -116 114 -116c57 0 85 17 117 49l80 -77c-53 -54 -104 -82 -198 -82c-124 0 -241 56 -241 267c0 170 92 266 227 266zM274 419c-45 0 -74 -23 -88 -54c-9 -19 -10 -33 -11 -56h197c-1 23 -2 37 -11 56
c-14 31 -43 54 -87 54zM420 774l-114 -170h-87l64 170h137z" />
    <glyph glyph-name="ecircumflex" unicode="&#xea;" horiz-adv-x="548" 
d="M274 527c145 0 227 -104 227 -252v-55h-326c0 -68 40 -116 114 -116c57 0 85 17 117 49l80 -77c-53 -54 -104 -82 -198 -82c-124 0 -241 56 -241 267c0 170 92 266 227 266zM274 419c-45 0 -74 -23 -88 -54c-9 -19 -10 -33 -11 -56h197c-1 23 -2 37 -11 56
c-14 31 -43 54 -87 54zM323 773l132 -169h-101l-83 91l-83 -91h-101l132 169h104z" />
    <glyph glyph-name="edieresis" unicode="&#xeb;" horiz-adv-x="548" 
d="M274 527c145 0 227 -104 227 -252v-55h-326c0 -68 40 -116 114 -116c57 0 85 17 117 49l80 -77c-53 -54 -104 -82 -198 -82c-124 0 -241 56 -241 267c0 170 92 266 227 266zM274 419c-45 0 -74 -23 -88 -54c-9 -19 -10 -33 -11 -56h197c-1 23 -2 37 -11 56
c-14 31 -43 54 -87 54zM437 731v-125h-111v125h111zM216 731v-125h-111v125h111z" />
    <glyph glyph-name="igrave" unicode="&#xec;" horiz-adv-x="275" 
d="M127 774l64 -170h-87l-114 170h137zM203 506v-506h-130v506h130z" />
    <glyph glyph-name="iacute" unicode="&#xed;" horiz-adv-x="275" 
d="M286 774l-114 -170h-87l64 170h137zM203 506v-506h-130v506h130z" />
    <glyph glyph-name="icircumflex" unicode="&#xee;" horiz-adv-x="275" 
d="M189 773l132 -169h-101l-83 91l-83 -91h-101l132 169h104zM203 506v-506h-130v506h130z" />
    <glyph glyph-name="idieresis" unicode="&#xef;" horiz-adv-x="275" 
d="M303 731v-125h-111v125h111zM82 731v-125h-111v125h111zM203 506v-506h-130v506h130z" />
    <glyph glyph-name="eth" unicode="&#xf0;" horiz-adv-x="552" 
d="M491 254c0 -92 -12 -150 -58 -198c-32 -33 -82 -62 -157 -62s-125 29 -157 62c-46 48 -58 106 -58 198c0 91 12 149 58 197c21 22 52 39 89 49c18 5 38 8 58 8c6 0 12 0 18 -1l-34 62h-114v91h68l-30 58h139l30 -58h92v-91h-46l40 -77c49 -95 62 -140 62 -238zM361 254
c0 51 -2 94 -27 120c-14 14 -34 22 -58 22s-43 -8 -57 -22c-25 -26 -28 -69 -28 -120s3 -95 28 -121c14 -14 33 -22 57 -22s44 8 58 22c25 26 27 70 27 121z" />
    <glyph glyph-name="ntilde" unicode="&#xf1;" horiz-adv-x="573" 
d="M330 527c52 0 94 -16 123 -46c42 -43 53 -91 53 -148v-333h-130v315c0 71 -44 95 -86 95s-87 -24 -87 -95v-315h-130v521h127v-48c34 36 82 54 130 54zM221 740c30 0 49 -5 78 -22c19 -12 35 -19 55 -19c17 0 32 3 58 29l58 -57c-44 -44 -74 -58 -113 -58
c-29 0 -49 6 -77 22c-19 11 -36 18 -56 18c-17 0 -32 -2 -58 -28l-57 57c44 44 74 58 112 58z" />
    <glyph glyph-name="ograve" unicode="&#xf2;" 
d="M492 261c0 -94 -11 -154 -59 -203c-33 -34 -85 -64 -162 -64s-128 30 -161 64c-47 50 -59 109 -59 203s12 152 59 202c33 34 84 64 161 64s129 -29 162 -64c47 -50 59 -108 59 -202zM362 261c0 53 -3 100 -30 126c-15 15 -35 23 -61 23c-25 0 -45 -8 -60 -23
c-27 -26 -30 -73 -30 -126c0 -54 3 -101 30 -127c15 -15 35 -23 60 -23c26 0 46 8 61 23c27 26 30 73 30 127zM261 774l64 -170h-87l-114 170h137z" />
    <glyph glyph-name="oacute" unicode="&#xf3;" 
d="M492 261c0 -94 -11 -154 -59 -203c-33 -34 -85 -64 -162 -64s-128 30 -161 64c-47 50 -59 109 -59 203s12 152 59 202c33 34 84 64 161 64s129 -29 162 -64c47 -50 59 -108 59 -202zM362 261c0 53 -3 100 -30 126c-15 15 -35 23 -61 23c-25 0 -45 -8 -60 -23
c-27 -26 -30 -73 -30 -126c0 -54 3 -101 30 -127c15 -15 35 -23 60 -23c26 0 46 8 61 23c27 26 30 73 30 127zM420 774l-114 -170h-87l64 170h137z" />
    <glyph glyph-name="ocircumflex" unicode="&#xf4;" 
d="M492 261c0 -94 -11 -154 -59 -203c-33 -34 -85 -64 -162 -64s-128 30 -161 64c-47 50 -59 109 -59 203s12 152 59 202c33 34 84 64 161 64s129 -29 162 -64c47 -50 59 -108 59 -202zM362 261c0 53 -3 100 -30 126c-15 15 -35 23 -61 23c-25 0 -45 -8 -60 -23
c-27 -26 -30 -73 -30 -126c0 -54 3 -101 30 -127c15 -15 35 -23 60 -23c26 0 46 8 61 23c27 26 30 73 30 127zM323 773l132 -169h-101l-83 91l-83 -91h-101l132 169h104z" />
    <glyph glyph-name="otilde" unicode="&#xf5;" 
d="M492 261c0 -94 -11 -154 -59 -203c-33 -34 -85 -64 -162 -64s-128 30 -161 64c-47 50 -59 109 -59 203s12 152 59 202c33 34 84 64 161 64s129 -29 162 -64c47 -50 59 -108 59 -202zM362 261c0 53 -3 100 -30 126c-15 15 -35 23 -61 23c-25 0 -45 -8 -60 -23
c-27 -26 -30 -73 -30 -126c0 -54 3 -101 30 -127c15 -15 35 -23 60 -23c26 0 46 8 61 23c27 26 30 73 30 127zM203 740c30 0 49 -5 78 -22c19 -12 35 -19 55 -19c17 0 32 3 58 29l58 -57c-44 -44 -74 -58 -113 -58c-29 0 -49 6 -77 22c-19 11 -36 18 -56 18
c-17 0 -32 -2 -58 -28l-57 57c44 44 74 58 112 58z" />
    <glyph glyph-name="odieresis" unicode="&#xf6;" 
d="M492 261c0 -94 -11 -154 -59 -203c-33 -34 -85 -64 -162 -64s-128 30 -161 64c-47 50 -59 109 -59 203s12 152 59 202c33 34 84 64 161 64s129 -29 162 -64c47 -50 59 -108 59 -202zM362 261c0 53 -3 100 -30 126c-15 15 -35 23 -61 23c-25 0 -45 -8 -60 -23
c-27 -26 -30 -73 -30 -126c0 -54 3 -101 30 -127c15 -15 35 -23 60 -23c26 0 46 8 61 23c27 26 30 73 30 127zM437 731v-125h-111v125h111zM216 731v-125h-111v125h111z" />
    <glyph glyph-name="divide" unicode="&#xf7;" 
d="M497 346v-121h-451v121h451zM337 148v-130h-130v130h130zM337 553v-130h-130v130h130z" />
    <glyph glyph-name="oslash" unicode="&#xf8;" 
d="M492 261c0 -95 -12 -154 -59 -203c-32 -34 -85 -64 -162 -64c-42 0 -76 9 -104 23l-36 -61h-79l59 101c-49 51 -60 109 -60 204c0 94 12 153 59 202c32 34 84 64 161 64c42 0 77 -8 105 -22l35 60h80l-59 -100c50 -55 60 -110 60 -204zM362 261c0 32 -2 61 -8 85
l-131 -222c13 -8 29 -13 48 -13c26 0 46 8 61 23c27 27 30 73 30 127zM320 397c-13 8 -30 13 -49 13c-26 0 -45 -8 -60 -23c-27 -27 -30 -72 -30 -126c0 -32 1 -62 7 -86z" />
    <glyph glyph-name="ugrave" unicode="&#xf9;" horiz-adv-x="573" 
d="M500 521v-521h-127v48c-34 -36 -82 -54 -130 -54c-51 0 -93 16 -123 46c-42 42 -53 91 -53 148v333h130v-315c0 -71 45 -95 86 -95c42 0 87 24 87 95v315h130zM273 774l64 -170h-87l-114 170h137z" />
    <glyph glyph-name="uacute" unicode="&#xfa;" horiz-adv-x="573" 
d="M500 521v-521h-127v48c-34 -36 -82 -54 -130 -54c-51 0 -93 16 -123 46c-42 42 -53 91 -53 148v333h130v-315c0 -71 45 -95 86 -95c42 0 87 24 87 95v315h130zM432 774l-114 -170h-87l64 170h137z" />
    <glyph glyph-name="ucircumflex" unicode="&#xfb;" horiz-adv-x="573" 
d="M500 521v-521h-127v48c-34 -36 -82 -54 -130 -54c-51 0 -93 16 -123 46c-42 42 -53 91 -53 148v333h130v-315c0 -71 45 -95 86 -95c42 0 87 24 87 95v315h130zM335 773l132 -169h-101l-83 91l-83 -91h-101l132 169h104z" />
    <glyph glyph-name="udieresis" unicode="&#xfc;" horiz-adv-x="573" 
d="M500 521v-521h-127v48c-34 -36 -82 -54 -130 -54c-51 0 -93 16 -123 46c-42 42 -53 91 -53 148v333h130v-315c0 -71 45 -95 86 -95c42 0 87 24 87 95v315h130zM449 731v-125h-111v125h111zM228 731v-125h-111v125h111z" />
    <glyph glyph-name="yacute" unicode="&#xfd;" horiz-adv-x="494" 
d="M490 521l-223 -605c-11 -30 -24 -51 -39 -67c-30 -30 -69 -40 -112 -40h-51v117h30c37 0 52 10 65 47l22 64l-178 484h137l108 -322l104 322h137zM396 774l-114 -170h-87l64 170h137z" />
    <glyph glyph-name="thorn" unicode="&#xfe;" horiz-adv-x="561" 
d="M203 712v-237c34 38 73 52 127 52c52 0 96 -17 126 -47c49 -51 54 -132 54 -219c0 -88 -5 -169 -54 -220c-30 -30 -74 -47 -126 -47c-54 0 -93 14 -127 52v-237h-130v903h130zM291 410c-78 0 -88 -65 -88 -149c0 -85 10 -150 88 -150c79 0 89 65 89 150
c0 84 -10 149 -89 149z" />
    <glyph glyph-name="ydieresis" unicode="&#xff;" horiz-adv-x="494" 
d="M490 521l-223 -605c-11 -30 -24 -51 -39 -67c-30 -30 -69 -40 -112 -40h-51v117h30c37 0 52 10 65 47l22 64l-178 484h137l108 -322l104 322h137zM413 731v-125h-111v125h111zM192 731v-125h-111v125h111z" />
    <glyph glyph-name="dotlessi" unicode="&#x131;" horiz-adv-x="275" 
d="M203 506v-506h-130v506h130z" />
    <glyph glyph-name="IJ" unicode="&#x132;" horiz-adv-x="814" 
d="M222 712v-712h-139v712h139zM743 712v-478c0 -158 -118 -240 -251 -240c-77 0 -130 20 -183 73l92 91c24 -24 45 -40 91 -40c69 0 112 40 112 122v472h139z" />
    <glyph glyph-name="ij" unicode="&#x133;" horiz-adv-x="550" 
d="M203 506v-506h-130v506h130zM204 716v-106h-133v106h133zM478 506v-548c0 -75 -45 -149 -152 -149h-74v110h50c33 0 46 16 46 47v540h130zM479 716v-106h-133v106h133z" />
    <glyph glyph-name="Lslash" unicode="&#x141;" horiz-adv-x="593" 
d="M240 712v-264l128 81v-117l-128 -80v-208h323v-124h-462v244l-65 -41v116l65 41v352h139z" />
    <glyph glyph-name="lslash" unicode="&#x142;" horiz-adv-x="340" 
d="M214 712v-222l60 37v-109l-60 -38v-223c0 -31 12 -47 45 -47h50v-110h-74c-107 0 -151 74 -151 149v153l-54 -33v109l54 33v301h130z" />
    <glyph glyph-name="OE" unicode="&#x152;" horiz-adv-x="967" 
d="M318 718c44 0 94 -13 128 -50v44h468v-124h-329v-167h281v-124h-281v-173h329v-124h-468v44c-34 -37 -86 -50 -128 -50c-82 0 -138 25 -187 74c-71 70 -72 160 -72 288s1 218 72 288c49 49 105 74 187 74zM322 594c-38 0 -69 -15 -89 -38c-27 -30 -35 -64 -35 -200
s8 -169 35 -199c20 -23 51 -39 89 -39s69 16 89 39c27 30 35 63 35 199s-8 170 -35 200c-20 23 -51 38 -89 38z" />
    <glyph glyph-name="oe" unicode="&#x153;" horiz-adv-x="863" 
d="M816 220h-326c0 -68 40 -116 114 -116c57 0 85 17 117 49l80 -77c-53 -54 -104 -82 -198 -82c-68 0 -130 18 -173 67c-33 -40 -86 -67 -159 -67c-77 0 -128 30 -161 64c-47 50 -59 108 -59 203c0 94 12 152 59 202c33 34 84 64 161 64c74 0 128 -28 161 -68
c37 44 91 68 157 68c145 0 227 -106 227 -249v-58zM688 309c-1 23 -3 37 -12 56c-14 31 -43 54 -87 54s-73 -23 -87 -54c-9 -19 -11 -33 -12 -56h198zM362 261c0 53 -3 100 -30 126c-15 15 -35 23 -61 23c-25 0 -45 -8 -60 -23c-27 -26 -30 -73 -30 -126
c0 -54 3 -101 30 -127c15 -15 35 -23 60 -23c26 0 46 8 61 23c27 26 30 73 30 127z" />
    <glyph glyph-name="Scaron" unicode="&#x160;" horiz-adv-x="591" 
d="M295 718c98 0 169 -24 230 -83l-88 -87c-38 38 -81 49 -146 49c-74 0 -110 -41 -110 -90c0 -19 6 -37 21 -51c14 -13 35 -23 65 -27l85 -13c65 -9 105 -26 136 -56c38 -36 55 -86 55 -150c0 -138 -114 -216 -264 -216c-108 0 -190 23 -260 94l90 90
c45 -45 106 -60 171 -60c83 0 127 32 127 89c0 24 -7 44 -22 59c-14 13 -30 19 -64 24l-85 13c-60 9 -106 28 -138 59c-34 33 -51 80 -51 140c0 127 94 216 248 216zM479 950l-132 -169h-104l-132 169h101l83 -90l83 90h101z" />
    <glyph glyph-name="scaron" unicode="&#x161;" horiz-adv-x="501" 
d="M250 527c82 0 149 -15 199 -61l-80 -81c-30 27 -75 35 -121 35c-52 0 -74 -24 -74 -50c0 -27 15 -41 54 -45l82 -8c103 -10 155 -64 155 -153c0 -115 -98 -170 -221 -170c-82 0 -155 9 -222 75l85 85c42 -43 99 -49 139 -49c45 0 92 15 92 54c0 26 -13 44 -55 48l-82 8
c-94 9 -152 50 -152 146c0 109 95 166 201 166zM433 773l-132 -169h-104l-132 169h101l83 -90l83 90h101z" />
    <glyph glyph-name="Ydieresis" unicode="&#x178;" horiz-adv-x="572" 
d="M569 712l-214 -421v-291h-139v291l-213 421h151l133 -287l131 287h151zM452 908v-125h-111v125h111zM231 908v-125h-111v125h111z" />
    <glyph glyph-name="Zcaron" unicode="&#x17d;" horiz-adv-x="548" 
d="M508 712v-110l-304 -478h304v-124h-468v110l303 478h-290v124h455zM459 950l-132 -169h-104l-132 169h101l83 -90l83 90h101z" />
    <glyph glyph-name="zcaron" unicode="&#x17e;" horiz-adv-x="478" 
d="M434 521v-99l-234 -305h234v-117h-397v99l231 305h-218v117h384zM423 773l-132 -169h-104l-132 169h101l83 -90l83 90h101z" />
    <glyph glyph-name="longs" unicode="&#x17f;" horiz-adv-x="275" 
d="M298 718v-110h-50c-31 0 -45 -17 -45 -47v-561h-130v569c0 73 45 149 151 149h74z" />
    <glyph glyph-name="florin" unicode="&#x192;" horiz-adv-x="427" 
d="M397 718v-110h-69c-31 0 -49 -17 -54 -47l-29 -164h93v-100h-110l-87 -488h-130l87 488h-54v100h71l31 172c13 73 71 149 177 149h74z" />
    <glyph glyph-name="uni02BB" unicode="&#x2bb;" horiz-adv-x="272" 
d="M204 816v-231h-136v128z" />
    <glyph glyph-name="uni02BC" unicode="&#x2bc;" horiz-adv-x="272" 
d="M204 712v-128l-136 -103v231h136z" />
    <glyph glyph-name="uni02C0" unicode="&#x2c0;" 
d="M226 729v64c68 0 112 -44 112 -101s-44 -101 -112 -101v64c24 0 39 18 39 37s-15 37 -39 37z" />
    <glyph glyph-name="circumflex" unicode="&#x2c6;" 
d="M323 773l132 -169h-101l-83 91l-83 -91h-101l132 169h104z" />
    <glyph glyph-name="caron" unicode="&#x2c7;" 
d="M455 773l-132 -169h-104l-132 169h101l83 -90l83 90h101z" />
    <glyph glyph-name="breve" unicode="&#x2d8;" 
d="M348 748h87c-5 -108 -78 -151 -164 -151s-160 43 -164 151h87c5 -43 39 -60 77 -60s72 17 77 60z" />
    <glyph glyph-name="dotaccent" unicode="&#x2d9;" 
d="M327 731v-125h-111v125h111z" />
    <glyph glyph-name="ring" unicode="&#x2da;" 
d="M271 846c72 0 131 -58 131 -131c0 -72 -59 -131 -131 -131s-131 59 -131 131s59 131 131 131zM271 773c-32 0 -58 -26 -58 -58s26 -59 58 -59s58 27 58 59s-26 58 -58 58z" />
    <glyph glyph-name="ogonek" unicode="&#x2db;" 
d="M324 -59l-44 -146h-121l69 146h96z" />
    <glyph glyph-name="tilde" unicode="&#x2dc;" 
d="M203 740c30 0 49 -5 78 -22c19 -12 35 -19 55 -19c17 0 32 3 58 29l58 -57c-44 -44 -74 -58 -113 -58c-29 0 -49 6 -77 22c-19 11 -36 18 -56 18c-17 0 -32 -2 -58 -28l-57 57c44 44 74 58 112 58z" />
    <glyph glyph-name="hungarumlaut" unicode="&#x2dd;" 
d="M511 774l-115 -170h-86l63 170h138zM309 774l-113 -170h-88l64 170h137z" />
    <glyph glyph-name="gravecomb" unicode="&#x300;" horiz-adv-x="1" 
d="M37 774l64 -170h-87l-114 170h137z" />
    <glyph glyph-name="acutecomb" unicode="&#x301;" horiz-adv-x="1" 
d="M101 774l-114 -170h-87l64 170h137z" />
    <glyph glyph-name="uni0302" unicode="&#x302;" horiz-adv-x="1" 
d="M53 773l132 -169h-101l-83 91l-83 -91h-101l132 169h104z" />
    <glyph glyph-name="tildecomb" unicode="&#x303;" horiz-adv-x="1" 
d="M-68 740c30 0 49 -5 78 -22c19 -12 35 -19 55 -19c17 0 32 3 58 29l58 -57c-44 -44 -74 -58 -113 -58c-29 0 -49 6 -77 22c-19 11 -36 18 -56 18c-17 0 -32 -2 -58 -28l-57 57c44 44 74 58 112 58z" />
    <glyph glyph-name="uni0304" unicode="&#x304;" horiz-adv-x="1" 
d="M159 711v-88h-317v88h317z" />
    <glyph glyph-name="uni0306" unicode="&#x306;" horiz-adv-x="1" 
d="M78 748h87c-5 -108 -78 -151 -164 -151s-160 43 -164 151h87c5 -43 39 -60 77 -60s72 17 77 60z" />
    <glyph glyph-name="uni0307" unicode="&#x307;" horiz-adv-x="1" 
d="M56 731v-125h-111v125h111z" />
    <glyph glyph-name="uni0308" unicode="&#x308;" horiz-adv-x="1" 
d="M167 731v-125h-111v125h111zM-54 731v-125h-111v125h111z" />
    <glyph glyph-name="hookabovecomb" unicode="&#x309;" horiz-adv-x="1" 
d="M-55 729v64c68 0 112 -44 112 -101s-44 -101 -112 -101v64c24 0 39 18 39 37s-15 37 -39 37z" />
    <glyph glyph-name="uni030A" unicode="&#x30a;" horiz-adv-x="1" 
d="M1 846c72 0 131 -58 131 -131c0 -72 -59 -131 -131 -131s-131 59 -131 131s59 131 131 131zM1 773c-32 0 -58 -26 -58 -58s26 -59 58 -59s58 27 58 59s-26 58 -58 58z" />
    <glyph glyph-name="uni030B" unicode="&#x30b;" horiz-adv-x="1" 
d="M202 774l-115 -170h-86l63 170h138zM0 774l-113 -170h-88l64 170h137z" />
    <glyph glyph-name="uni030C" unicode="&#x30c;" horiz-adv-x="1" 
d="M185 773l-132 -169h-104l-132 169h101l83 -90l83 90h101z" />
    <glyph glyph-name="uni030F" unicode="&#x30f;" horiz-adv-x="1" 
d="M107 604l-102 170h127l75 -170h-100zM-102 604l-103 170h128l74 -170h-99z" />
    <glyph glyph-name="uni0310" unicode="&#x310;" horiz-adv-x="1" 
d="M78 748h87c-5 -108 -78 -151 -164 -151s-160 43 -164 151h87c5 -43 39 -60 77 -60s72 17 77 60zM56 903v-125h-111v125h111z" />
    <glyph glyph-name="uni0311" unicode="&#x311;" horiz-adv-x="1" 
d="M-76 604h-87c4 108 78 151 164 151s159 -43 164 -151h-87c-5 43 -39 60 -77 60s-72 -17 -77 -60z" />
    <glyph glyph-name="uni0312" unicode="&#x312;" horiz-adv-x="1" 
d="M83 750l-68 -146h-97l44 146h121z" />
    <glyph glyph-name="uni0313" unicode="&#x313;" horiz-adv-x="1" 
d="M76 741l-60 -166h-91l36 166h115z" />
    <glyph glyph-name="uni0316" unicode="&#x316;" horiz-adv-x="1" 
d="M37 -58l64 -170h-87l-114 170h137z" />
    <glyph glyph-name="uni0317" unicode="&#x317;" horiz-adv-x="1" 
d="M-82 -205l69 146h96l-44 -146h-121z" />
    <glyph glyph-name="uni031B" unicode="&#x31b;" horiz-adv-x="1" 
d="M83 558v-66c0 -90 -34 -126 -139 -126h-26v72h33c33 0 47 16 47 65v55h85z" />
    <glyph glyph-name="uni031C" unicode="&#x31c;" horiz-adv-x="1" 
d="M57 -31v-64c-24 0 -39 -17 -39 -37s15 -37 39 -37v-64c-68 0 -112 44 -112 101s43 101 112 101z" />
    <glyph glyph-name="dotbelowcomb" unicode="&#x323;" horiz-adv-x="1" 
d="M-55 -197v125h111v-125h-111z" />
    <glyph glyph-name="uni0324" unicode="&#x324;" horiz-adv-x="1" 
d="M167 -72v-125h-111v125h111zM-54 -72v-125h-111v125h111z" />
    <glyph glyph-name="uni0325" unicode="&#x325;" horiz-adv-x="1" 
d="M1 -33c72 0 131 -58 131 -131c0 -72 -59 -131 -131 -131s-131 59 -131 131s59 131 131 131zM1 -106c-32 0 -58 -26 -58 -58s26 -59 58 -59s58 27 58 59s-26 58 -58 58z" />
    <glyph glyph-name="uni0326" unicode="&#x326;" horiz-adv-x="1" 
d="M83 -59l-44 -146h-121l69 146h96z" />
    <glyph glyph-name="uni0327" unicode="&#x327;" horiz-adv-x="1" 
d="M-82 -205l69 146h96l-44 -146h-121z" />
    <glyph glyph-name="uni0328" unicode="&#x328;" horiz-adv-x="1" 
d="M83 -59l-44 -146h-121l69 146h96z" />
    <glyph glyph-name="uni032C" unicode="&#x32c;" horiz-adv-x="1" 
d="M185 -58l-132 -169h-104l-132 169h101l83 -90l83 90h101z" />
    <glyph glyph-name="uni032D" unicode="&#x32d;" horiz-adv-x="1" 
d="M53 -58l132 -169h-101l-83 90l-83 -90h-101l132 169h104z" />
    <glyph glyph-name="uni032E" unicode="&#x32e;" horiz-adv-x="1" 
d="M78 -59h87c-5 -108 -78 -151 -164 -151s-160 43 -164 151h87c5 -43 39 -60 77 -60s72 17 77 60z" />
    <glyph glyph-name="uni032F" unicode="&#x32f;" horiz-adv-x="1" 
d="M-76 -203h-87c4 108 78 151 164 151s159 -43 164 -151h-87c-5 43 -39 60 -77 60s-72 -17 -77 -60z" />
    <glyph glyph-name="uni0330" unicode="&#x330;" horiz-adv-x="1" 
d="M-68 -67c30 0 49 -5 78 -22c19 -12 35 -19 55 -19c17 0 32 3 58 29l58 -57c-44 -44 -74 -58 -113 -58c-29 0 -49 6 -77 22c-19 11 -36 18 -56 18c-17 0 -32 -2 -58 -28l-57 57c44 44 74 58 112 58z" />
    <glyph glyph-name="uni0331" unicode="&#x331;" horiz-adv-x="1" 
d="M159 -79v-88h-317v88h317z" />
    <glyph glyph-name="uni0340" unicode="&#x340;" horiz-adv-x="1" 
d="M12 842l104 -170h-99l-132 170h127z" />
    <glyph glyph-name="uni0341" unicode="&#x341;" horiz-adv-x="1" 
d="M101 842l-114 -170h-87l64 170h137z" />
    <glyph glyph-name="uni037E" unicode="&#x37e;" horiz-adv-x="309" 
d="M238 142v-197l-142 -110v307h142zM241 419v-148h-148v148h148z" />
    <glyph glyph-name="uni0394" unicode="&#x394;" horiz-adv-x="636" 
d="M373 712l259 -712h-628l260 712h109zM318 501l-130 -384h261z" />
    <glyph glyph-name="uni03A9" unicode="&#x3a9;" horiz-adv-x="645" 
d="M60 0v124h58c-17 17 -28 35 -36 54c-19 47 -22 105 -22 178c0 136 1 216 72 287c48 48 108 75 190 75c83 0 143 -27 191 -75c71 -71 72 -151 72 -287c0 -73 -3 -131 -22 -178c-8 -19 -19 -37 -36 -54h58v-124h-219v110c24 11 42 24 54 43c19 27 27 73 27 203
c0 136 -9 170 -35 200c-20 23 -52 38 -90 38c-37 0 -69 -15 -89 -38c-26 -30 -35 -64 -35 -200c0 -130 8 -176 27 -203c12 -19 30 -32 54 -43v-110h-219z" />
    <glyph glyph-name="uni03BC" unicode="&#x3bc;" horiz-adv-x="579" 
d="M73 -191v712h130v-315c0 -71 44 -95 86 -95c41 0 87 24 87 95v315h130v-521h-127v48c-31 -32 -69 -53 -116 -53c-24 0 -44 9 -60 22v-208h-130z" />
    <glyph glyph-name="pi" unicode="&#x3c0;" horiz-adv-x="574" 
d="M501 521v-521h-130v404h-168v-404h-130v521h428z" />
    <glyph glyph-name="uni2007" unicode="&#x2007;" 
 />
    <glyph glyph-name="uni2008" unicode="&#x2008;" horiz-adv-x="284" 
 />
    <glyph glyph-name="uni200B" unicode="&#x200b;" horiz-adv-x="0" 
 />
    <glyph glyph-name="uniFEFF" unicode="&#xfeff;" horiz-adv-x="0" 
 />
    <glyph glyph-name="endash" unicode="&#x2013;" horiz-adv-x="561" 
d="M502 346v-121h-443v121h443z" />
    <glyph glyph-name="emdash" unicode="&#x2014;" horiz-adv-x="1027" 
d="M968 346v-121h-909v121h909z" />
    <glyph glyph-name="quoteleft" unicode="&#x2018;" horiz-adv-x="272" 
d="M204 816v-231h-136v128z" />
    <glyph glyph-name="quoteright" unicode="&#x2019;" horiz-adv-x="272" 
d="M204 712v-128l-136 -103v231h136z" />
    <glyph glyph-name="quotesinglbase" unicode="&#x201a;" horiz-adv-x="272" 
d="M204 124v-128l-136 -103v231h136z" />
    <glyph glyph-name="quotedblleft" unicode="&#x201c;" horiz-adv-x="482" 
d="M414 816v-231h-136v128zM204 816v-231h-136v128z" />
    <glyph glyph-name="quotedblright" unicode="&#x201d;" horiz-adv-x="482" 
d="M414 712v-128l-136 -103v231h136zM204 712v-128l-136 -103v231h136z" />
    <glyph glyph-name="quotedblbase" unicode="&#x201e;" horiz-adv-x="482" 
d="M414 124v-128l-136 -103v231h136zM204 124v-128l-136 -103v231h136z" />
    <glyph glyph-name="dagger" unicode="&#x2020;" horiz-adv-x="578" 
d="M354 712v-185h168v-117h-168v-410h-130v410h-168v117h168v185h130z" />
    <glyph glyph-name="daggerdbl" unicode="&#x2021;" horiz-adv-x="578" 
d="M354 712v-185h168v-117h-168v-299h168v-117h-168v-185h-130v185h-168v117h168v299h-168v117h168v185h130z" />
    <glyph glyph-name="bullet" unicode="&#x2022;" horiz-adv-x="492" 
d="M246 449c90 0 163 -73 163 -163s-73 -163 -163 -163s-163 73 -163 163s73 163 163 163z" />
    <glyph glyph-name="ellipsis" unicode="&#x2026;" horiz-adv-x="846" 
d="M493 141v-141h-141v141h141zM210 141v-141h-142v141h142zM778 141v-141h-141v141h141z" />
    <glyph glyph-name="perthousand" unicode="&#x2030;" horiz-adv-x="1210" 
d="M205 0l337 712h102l-337 -712h-102zM197 345c-78 0 -145 46 -145 137v99c0 91 67 137 145 137s145 -46 145 -137v-99c0 -91 -67 -137 -145 -137zM197 429c31 0 51 19 51 58v89c0 39 -20 57 -51 57c-30 0 -50 -18 -50 -57v-89c0 -39 20 -58 50 -58zM651 -6
c-78 0 -145 46 -145 137v99c0 91 67 137 145 137s145 -46 145 -137v-99c0 -91 -67 -137 -145 -137zM651 79c31 0 51 18 51 57v89c0 39 -20 58 -51 58c-30 0 -51 -19 -51 -58v-89c0 -39 21 -57 51 -57zM1013 -6c-78 0 -145 46 -145 137v99c0 91 67 137 145 137
s145 -46 145 -137v-99c0 -91 -67 -137 -145 -137zM1013 79c31 0 51 18 51 57v89c0 39 -20 58 -51 58c-30 0 -51 -19 -51 -58v-89c0 -39 21 -57 51 -57z" />
    <glyph glyph-name="minute" unicode="&#x2032;" horiz-adv-x="310" 
d="M259 712l-78 -339h-130l78 339h130z" />
    <glyph glyph-name="second" unicode="&#x2033;" horiz-adv-x="524" 
d="M259 712l-78 -339h-130l78 339h130zM473 712l-78 -339h-130l78 339h130z" />
    <glyph glyph-name="guilsinglleft" unicode="&#x2039;" horiz-adv-x="350" 
d="M283 522v-154l-94 -93l94 -94v-155l-249 249z" />
    <glyph glyph-name="guilsinglright" unicode="&#x203a;" horiz-adv-x="350" 
d="M67 523l249 -248l-249 -248v155l94 93l-94 93v155z" />
    <glyph glyph-name="fraction" unicode="&#x2044;" horiz-adv-x="208" 
d="M-115 0l337 712h101l-337 -712h-101z" />
    <glyph glyph-name="uni2070" unicode="&#x2070;" horiz-adv-x="244" 
d="M122 431c-51 0 -100 34 -100 94v100c0 66 49 94 100 94s100 -28 100 -94v-100c0 -60 -49 -94 -100 -94zM122 493c20 0 30 13 30 32v100c0 19 -10 32 -30 32s-30 -13 -30 -32v-100c0 -19 10 -32 30 -32z" />
    <glyph glyph-name="uni2071" unicode="&#x2071;" horiz-adv-x="158" 
d="M120 599v-271h-82v271h82zM120 716v-66h-82v66h82z" />
    <glyph glyph-name="uni2074" unicode="&#x2074;" horiz-adv-x="239" 
d="M141 434v46h-129v55l91 181h67l-89 -180h60v50h58v-50h28v-56h-28v-46h-58z" />
    <glyph glyph-name="uni2075" unicode="&#x2075;" horiz-adv-x="228" 
d="M113 431c-26 0 -47 7 -62 19c-16 13 -25 32 -28 57h61c4 -14 12 -22 29 -22c20 0 31 16 31 41c0 32 -10 44 -30 44c-18 0 -27 -7 -33 -22h-54v168h169v-49h-119v-65c14 12 29 17 47 17c24 0 47 -6 65 -27c12 -14 19 -35 19 -66c0 -23 -3 -45 -18 -65
c-14 -19 -38 -30 -77 -30z" />
    <glyph glyph-name="uni2076" unicode="&#x2076;" horiz-adv-x="251" 
d="M125 431c-55 0 -105 35 -105 100c0 24 5 45 25 85l49 100h77l-51 -102c7 2 14 4 23 4c43 -2 88 -27 88 -87c0 -65 -50 -100 -106 -100zM125 492c24 0 36 16 36 39s-13 38 -36 38s-35 -16 -35 -38c0 -23 11 -39 35 -39z" />
    <glyph glyph-name="uni2077" unicode="&#x2077;" horiz-adv-x="250" 
d="M79 434l88 226h-81v-42h-66v98h214v-57l-88 -225h-67z" />
    <glyph glyph-name="uni2078" unicode="&#x2078;" horiz-adv-x="241" 
d="M120 430c-55 0 -103 30 -103 89c0 29 16 49 34 60c-17 12 -31 28 -31 55c0 55 50 84 100 84c51 0 100 -29 100 -84c0 -27 -13 -43 -31 -55c19 -11 35 -31 35 -60c0 -59 -49 -89 -104 -89zM120 489c19 0 33 14 33 33s-14 33 -33 33c-18 0 -33 -14 -33 -33s15 -33 33 -33z
M120 601c17 0 30 12 30 29s-13 30 -30 30c-16 0 -30 -13 -30 -30s14 -29 30 -29z" />
    <glyph glyph-name="uni2079" unicode="&#x2079;" horiz-adv-x="251" 
d="M81 434l51 102c-7 -2 -14 -4 -23 -4c-43 2 -88 27 -88 87c0 65 50 100 106 100c55 0 105 -35 105 -100c0 -24 -5 -45 -25 -85l-49 -100h-77zM127 581c23 0 35 16 35 38c0 23 -11 39 -35 39s-36 -16 -36 -39s13 -38 36 -38z" />
    <glyph glyph-name="uni207F" unicode="&#x207f;" horiz-adv-x="316" 
d="M186 611c28 0 48 -8 64 -24c26 -23 30 -49 30 -81v-178h-81v167c0 32 -16 43 -39 43c-20 0 -40 -13 -40 -43v-167h-81v279h81v-25c16 19 40 29 66 29z" />
    <glyph glyph-name="uni2080" unicode="&#x2080;" horiz-adv-x="244" 
d="M122 -153c-51 0 -100 34 -100 94v100c0 66 49 94 100 94s100 -28 100 -94v-100c0 -60 -49 -94 -100 -94zM122 -91c20 0 30 13 30 32v100c0 19 -10 32 -30 32s-30 -13 -30 -32v-100c0 -19 10 -32 30 -32z" />
    <glyph glyph-name="uni2081" unicode="&#x2081;" horiz-adv-x="242" 
d="M106 -150v202l-65 -54v79l65 55h70v-282h-70z" />
    <glyph glyph-name="uni2082" unicode="&#x2082;" horiz-adv-x="242" 
d="M26 -150v58l113 107c12 12 16 23 16 37s-13 26 -31 26c-17 0 -29 -9 -31 -31h-69c1 58 45 88 100 88c58 0 98 -33 98 -83c0 -27 -9 -43 -34 -67l-81 -77h114v-58h-195z" />
    <glyph glyph-name="uni2083" unicode="&#x2083;" horiz-adv-x="242" 
d="M120 -153c-58 0 -102 26 -103 95h70c1 -21 14 -33 33 -33s33 13 33 34s-15 30 -34 30h-9v44h9c20 0 30 11 30 27c0 18 -12 28 -29 28c-15 0 -28 -10 -29 -30h-70c1 62 41 93 99 93c64 0 99 -40 99 -81c0 -34 -16 -50 -35 -58c20 -9 39 -28 39 -64c0 -51 -40 -85 -103 -85
z" />
    <glyph glyph-name="uni2084" unicode="&#x2084;" horiz-adv-x="239" 
d="M141 -150v46h-129v55l91 181h67l-89 -180h60v50h58v-50h28v-56h-28v-46h-58z" />
    <glyph glyph-name="uni2085" unicode="&#x2085;" horiz-adv-x="228" 
d="M113 -153c-26 0 -47 7 -62 19c-16 13 -25 32 -28 57h61c4 -14 12 -22 29 -22c20 0 31 16 31 41c0 32 -10 44 -30 44c-18 0 -27 -7 -33 -22h-54v168h169v-49h-119v-65c14 12 29 17 47 17c24 0 47 -6 65 -27c12 -14 19 -35 19 -66c0 -23 -3 -45 -18 -65
c-14 -19 -38 -30 -77 -30z" />
    <glyph glyph-name="uni2086" unicode="&#x2086;" horiz-adv-x="251" 
d="M125 -153c-55 0 -105 35 -105 100c0 24 5 45 25 85l49 100h77l-51 -102c7 2 14 4 23 4c43 -2 88 -27 88 -87c0 -65 -50 -100 -106 -100zM125 -92c24 0 36 16 36 39s-13 38 -36 38s-35 -16 -35 -38c0 -23 11 -39 35 -39z" />
    <glyph glyph-name="uni2087" unicode="&#x2087;" horiz-adv-x="250" 
d="M79 -150l88 226h-81v-42h-66v98h214v-57l-88 -225h-67z" />
    <glyph glyph-name="uni2088" unicode="&#x2088;" horiz-adv-x="241" 
d="M120 -154c-55 0 -103 30 -103 89c0 29 16 49 34 60c-17 12 -31 28 -31 55c0 55 50 84 100 84c51 0 100 -29 100 -84c0 -27 -13 -43 -31 -55c19 -11 35 -31 35 -60c0 -59 -49 -89 -104 -89zM120 -95c19 0 33 14 33 33s-14 33 -33 33c-18 0 -33 -14 -33 -33s15 -33 33 -33z
M120 17c17 0 30 12 30 29s-13 30 -30 30c-16 0 -30 -13 -30 -30s14 -29 30 -29z" />
    <glyph glyph-name="uni2089" unicode="&#x2089;" horiz-adv-x="251" 
d="M81 -150l51 102c-7 -2 -14 -4 -23 -4c-43 2 -88 27 -88 87c0 65 50 100 106 100c55 0 105 -35 105 -100c0 -24 -5 -45 -25 -85l-49 -100h-77zM127 -3c23 0 35 16 35 38c0 23 -11 39 -35 39s-36 -16 -36 -39s13 -38 36 -38z" />
    <glyph glyph-name="uni2090" unicode="&#x2090;" horiz-adv-x="290" 
d="M110 -164c-32 0 -51 8 -67 24c-16 17 -24 40 -24 65c0 43 26 77 96 77h61v15c0 24 -15 36 -47 36c-21 0 -34 -7 -47 -20l-50 49c28 28 52 41 101 41c82 0 121 -34 121 -102v-181h-78v25c-15 -19 -38 -29 -66 -29zM130 -103c25 0 46 17 46 43v14h-30
c-35 0 -51 -16 -51 -32c0 -18 14 -25 35 -25z" />
    <glyph glyph-name="uni2091" unicode="&#x2091;" horiz-adv-x="299" 
d="M158 -164c-77 0 -130 42 -130 140c0 94 43 147 124 147c66 0 118 -39 119 -156v-7h-169c0 -33 20 -57 56 -57c26 0 44 10 60 25l47 -45c-31 -34 -60 -47 -107 -47zM101 4h102c-1 15 -3 24 -9 34c-7 11 -21 21 -42 21s-35 -10 -42 -21c-6 -10 -8 -19 -9 -34z" />
    <glyph glyph-name="uni2092" unicode="&#x2092;" horiz-adv-x="301" 
d="M150 124c45 0 74 -18 92 -35c24 -24 32 -53 32 -109s-7 -86 -32 -110c-18 -17 -47 -34 -92 -34c-44 0 -74 17 -92 34c-23 25 -31 54 -31 110s8 85 31 109c18 18 48 35 92 35zM150 50c-13 0 -24 -5 -30 -13c-8 -10 -12 -31 -12 -57c0 -27 4 -47 12 -57c6 -8 17 -13 30 -13
c14 0 24 5 30 13c8 10 12 30 12 57c0 26 -4 47 -12 57c-6 8 -16 13 -30 13z" />
    <glyph glyph-name="uni2093" unicode="&#x2093;" horiz-adv-x="298" 
d="M288 119l-94 -136l97 -143h-97l-46 73l-44 -73h-97l97 143l-93 136h97l40 -70l43 70h97z" />
    <glyph glyph-name="lira" unicode="&#x20a4;" horiz-adv-x="607" 
d="M105 0v173l-69 -44v88l69 43v76l-69 -44v88l69 44v288h139v-201l126 80v-88l-126 -80v-75l126 79v-87l-126 -80v-136h64c79 0 114 43 128 101h141c-25 -149 -118 -225 -262 -225h-210z" />
    <glyph glyph-name="dong" unicode="&#x20ab;" horiz-adv-x="425" 
d="M196 161c-48 0 -82 17 -105 45c-29 37 -40 87 -40 153c0 65 12 116 40 152c23 28 57 45 105 45c34 0 63 -17 80 -43v84h-69v66h69v49h93v-49h41v-66h-41v-432h-92v39c-18 -27 -47 -43 -81 -43zM55 0v84h314v-84h-314zM210 245c53 0 66 41 66 114c0 72 -13 113 -66 113
c-58 0 -66 -38 -66 -113c0 -73 11 -114 66 -114z" />
    <glyph glyph-name="Euro" unicode="&#x20ac;" horiz-adv-x="684" 
d="M371 718c133 0 236 -76 261 -225h-141c-14 58 -50 101 -120 101c-38 0 -68 -14 -88 -37c-17 -19 -25 -39 -29 -79h148v-83h-155v-75h155v-83h-149c5 -42 12 -63 30 -82c20 -23 50 -37 88 -37c70 0 106 43 120 101h141c-25 -149 -128 -225 -261 -225
c-80 0 -142 27 -191 76c-46 46 -62 96 -68 167h-73v83h69v75h-69v83h73c6 69 23 119 68 164c49 49 111 76 191 76z" />
    <glyph glyph-name="uni20B4" unicode="&#x20b4;" horiz-adv-x="710" 
d="M363 -6c-150 0 -265 78 -265 216c0 19 2 37 7 54h-60v69h81c7 10 15 19 24 28c9 8 20 17 32 24h-137v69h390c18 14 25 35 25 53c0 49 -36 90 -109 90c-56 0 -104 -8 -147 -49l-87 87c61 59 131 83 229 83c155 0 248 -89 248 -216c0 -18 -2 -34 -5 -48h57v-69h-87
c-7 -10 -13 -17 -19 -23c-12 -12 -25 -21 -40 -29h146v-69h-391c-14 -13 -20 -34 -20 -57c0 -57 44 -89 126 -89c65 0 127 15 172 60l90 -90c-70 -71 -153 -94 -260 -94z" />
    <glyph glyph-name="uni20B8" unicode="&#x20b8;" horiz-adv-x="571" 
d="M541 548v-123h-186v-425h-139v425h-186v123h511zM541 712v-83h-510v83h510z" />
    <glyph glyph-name="uni20BD" unicode="&#x20bd;" horiz-adv-x="642" 
d="M98 0v268h-62v125h62v319h275c148 0 235 -101 235 -222s-87 -222 -235 -222h-136v-268h-139zM237 393h129c63 0 103 39 103 97s-40 97 -103 97h-129v-194z" />
    <glyph glyph-name="uni2116" unicode="&#x2116;" horiz-adv-x="977" 
d="M583 712v-712h-115l-254 457v-457h-130v712h115l254 -456v456h130zM930 315v-96h-288v96h288zM786 718c48 0 87 -20 109 -43c30 -31 41 -76 41 -140c0 -66 -11 -109 -41 -140c-22 -23 -61 -43 -109 -43c-46 0 -88 21 -109 43c-30 31 -41 75 -41 140c0 66 10 107 41 140
c22 23 61 43 109 43zM786 632c-15 0 -25 -4 -33 -12c-15 -15 -16 -47 -16 -85c0 -37 1 -69 16 -85c7 -8 18 -12 33 -12s25 4 33 12c15 16 16 48 16 85c0 38 -1 70 -16 85c-8 8 -18 12 -33 12z" />
    <glyph glyph-name="uni2117" unicode="&#x2117;" horiz-adv-x="842" 
d="M421 -6c-200 0 -362 162 -362 362s162 362 362 362s362 -162 362 -362s-162 -362 -362 -362zM421 75c156 0 276 120 276 281s-120 281 -276 281s-276 -120 -276 -281s120 -281 276 -281zM289 164v385h177c78 0 128 -57 128 -121s-50 -121 -128 -121h-91v-143h-86z
M375 378h80c32 0 53 23 53 50s-21 50 -53 50h-80v-100z" />
    <glyph glyph-name="trademark" unicode="&#x2122;" horiz-adv-x="846" 
d="M796 712v-426h-86v247l-78 -160h-63l-79 160v-247h-86v426h86l110 -223l110 223h86zM324 712v-77h-110v-349h-86v349h-110v77h306z" />
    <glyph glyph-name="Omega" unicode="&#x2126;" horiz-adv-x="645" 
d="M60 0v124h58c-17 17 -28 35 -36 54c-19 47 -22 105 -22 178c0 136 1 216 72 287c48 48 108 75 190 75c83 0 143 -27 191 -75c71 -71 72 -151 72 -287c0 -73 -3 -131 -22 -178c-8 -19 -19 -37 -36 -54h58v-124h-219v110c24 11 42 24 54 43c19 27 27 73 27 203
c0 136 -9 170 -35 200c-20 23 -52 38 -90 38c-37 0 -69 -15 -89 -38c-26 -30 -35 -64 -35 -200c0 -130 8 -176 27 -203c12 -19 30 -32 54 -43v-110h-219z" />
    <glyph glyph-name="uni2150" unicode="&#x2150;" horiz-adv-x="901" 
d="M231 0l337 712h101l-337 -712h-101zM639 0l138 349h-102v-76h-86v154h283v-77l-138 -350h-95zM152 285v321l-90 -78v106l90 78h95v-427h-95z" />
    <glyph glyph-name="uni2151" unicode="&#x2151;" horiz-adv-x="893" 
d="M231 0l337 712h101l-337 -712h-101zM638 0l87 170c-9 -3 -18 -4 -28 -4c-56 0 -112 44 -112 128c0 89 63 137 140 137s140 -47 140 -137c0 -31 -9 -59 -36 -115l-87 -179h-104zM725 242c26 0 46 17 46 52s-19 52 -46 52c-26 0 -45 -17 -45 -52c0 -34 19 -52 45 -52z
M152 285v321l-90 -78v106l90 78h95v-427h-95z" />
    <glyph glyph-name="uni2152" unicode="&#x2152;" horiz-adv-x="1163" 
d="M205 0l337 712h101l-337 -712h-101zM656 0v321l-90 -78v106l90 78h95v-427h-95zM992 -5c-72 0 -138 46 -138 132v173c0 85 66 131 138 131s138 -46 138 -131v-173c0 -86 -66 -132 -138 -132zM992 80c25 0 43 17 43 47v172c0 30 -18 47 -43 47c-26 0 -43 -16 -43 -47v-172
c0 -31 17 -47 43 -47zM152 285v321l-90 -78v106l90 78h95v-427h-95z" />
    <glyph glyph-name="onethird" unicode="&#x2153;" horiz-adv-x="896" 
d="M231 0l337 712h101l-337 -712h-101zM723 -5c-72 0 -143 37 -144 132h95c0 -34 22 -50 49 -50c28 0 50 21 50 50c0 33 -19 50 -51 50h-12v82h12c29 0 46 19 46 45c0 30 -19 45 -44 45c-28 0 -44 -18 -45 -45h-94c1 79 63 127 139 127c80 0 139 -52 139 -126
c0 -46 -16 -68 -48 -84c32 -18 52 -46 52 -95c0 -88 -67 -131 -144 -131zM152 285v321l-90 -78v106l90 78h95v-427h-95z" />
    <glyph glyph-name="twothirds" unicode="&#x2154;" horiz-adv-x="892" 
d="M227 0l337 712h101l-337 -712h-101zM719 -5c-72 0 -143 37 -144 132h95c0 -34 22 -50 49 -50c28 0 50 21 50 50c0 33 -19 50 -51 50h-12v82h12c29 0 46 19 46 45c0 30 -19 45 -44 45c-28 0 -44 -18 -45 -45h-94c1 79 63 127 139 127c80 0 139 -52 139 -126
c0 -46 -16 -68 -48 -84c32 -18 52 -46 52 -95c0 -88 -67 -131 -144 -131zM35 285v85l160 171c17 18 24 29 24 50c0 23 -17 40 -45 40c-24 0 -44 -11 -44 -44h-95c0 83 63 129 139 129c80 0 136 -47 136 -125c0 -42 -12 -63 -51 -104l-113 -122h166v-80h-277z" />
    <glyph glyph-name="uni2155" unicode="&#x2155;" horiz-adv-x="894" 
d="M231 0l337 712h101l-337 -712h-101zM726 -4c-48 0 -81 17 -101 36c-29 29 -33 50 -37 88h95c2 -29 16 -46 43 -46c13 0 24 4 32 12c10 12 12 31 12 58c0 45 -13 64 -44 64c-26 0 -38 -14 -43 -30h-88v249h260v-78h-173v-80c14 11 33 18 59 18c37 0 65 -12 83 -30
c35 -34 40 -72 40 -113c0 -50 -7 -80 -39 -111c-20 -20 -51 -37 -99 -37zM152 285v321l-90 -78v106l90 78h95v-427h-95z" />
    <glyph glyph-name="uni2156" unicode="&#x2156;" horiz-adv-x="890" 
d="M227 0l337 712h101l-337 -712h-101zM722 -4c-48 0 -81 17 -101 36c-29 29 -33 50 -37 88h95c2 -29 16 -46 43 -46c13 0 24 4 32 12c10 12 12 31 12 58c0 45 -13 64 -44 64c-26 0 -38 -14 -43 -30h-88v249h260v-78h-173v-80c14 11 33 18 59 18c37 0 65 -12 83 -30
c35 -34 40 -72 40 -113c0 -50 -7 -80 -39 -111c-20 -20 -51 -37 -99 -37zM35 285v85l160 171c17 18 24 29 24 50c0 23 -17 40 -45 40c-24 0 -44 -11 -44 -44h-95c0 83 63 129 139 129c80 0 136 -47 136 -125c0 -42 -12 -63 -51 -104l-113 -122h166v-80h-277z" />
    <glyph glyph-name="uni2157" unicode="&#x2157;" horiz-adv-x="890" 
d="M227 0l337 712h101l-337 -712h-101zM722 -4c-48 0 -81 17 -101 36c-29 29 -33 50 -37 88h95c2 -29 16 -46 43 -46c13 0 24 4 32 12c10 12 12 31 12 58c0 45 -13 64 -44 64c-26 0 -38 -14 -43 -30h-88v249h260v-78h-173v-80c14 11 33 18 59 18c37 0 65 -12 83 -30
c35 -34 40 -72 40 -113c0 -50 -7 -80 -39 -111c-20 -20 -51 -37 -99 -37zM169 280c-72 0 -143 37 -144 132h95c0 -34 22 -50 49 -50c28 0 50 21 50 50c0 33 -19 50 -51 50h-12v82h12c29 0 46 19 46 45c0 30 -19 45 -44 45c-28 0 -44 -18 -45 -45h-94c1 79 63 127 139 127
c80 0 139 -52 139 -126c0 -46 -16 -68 -48 -84c32 -18 52 -46 52 -95c0 -88 -67 -131 -144 -131z" />
    <glyph glyph-name="uni2158" unicode="&#x2158;" horiz-adv-x="899" 
d="M236 0l337 712h101l-337 -712h-101zM731 -4c-48 0 -81 17 -101 36c-29 29 -33 50 -37 88h95c2 -29 16 -46 43 -46c13 0 24 4 32 12c10 12 12 31 12 58c0 45 -13 64 -44 64c-26 0 -38 -14 -43 -30h-88v249h260v-78h-173v-80c14 11 33 18 59 18c37 0 65 -12 83 -30
c35 -34 40 -72 40 -113c0 -50 -7 -80 -39 -111c-20 -20 -51 -37 -99 -37zM191 285v59h-172v77l140 291h99l-142 -291h75v78h88v-78h38v-77h-38v-59h-88z" />
    <glyph glyph-name="uni2159" unicode="&#x2159;" horiz-adv-x="895" 
d="M231 0l337 712h101l-337 -712h-101zM725 -4c-78 0 -142 47 -142 137c0 31 8 59 36 115l90 179h103l-89 -171c9 3 18 5 29 5c57 0 114 -44 114 -128c0 -89 -63 -137 -141 -137zM724 81c27 0 48 17 48 52c0 34 -20 52 -48 52c-26 0 -47 -17 -47 -52s20 -52 47 -52zM152 285
v321l-90 -78v106l90 78h95v-427h-95z" />
    <glyph glyph-name="uni215A" unicode="&#x215a;" horiz-adv-x="889" 
d="M225 0l337 712h101l-337 -712h-101zM719 -4c-78 0 -142 47 -142 137c0 31 8 59 36 115l90 179h103l-89 -171c9 3 18 5 29 5c57 0 114 -44 114 -128c0 -89 -63 -137 -141 -137zM718 81c27 0 48 17 48 52c0 34 -20 52 -48 52c-26 0 -47 -17 -47 -52s20 -52 47 -52zM172 281
c-48 0 -81 17 -101 36c-29 29 -33 50 -37 88h95c2 -29 16 -46 43 -46c13 0 24 4 32 12c10 12 12 31 12 58c0 45 -13 64 -44 64c-26 0 -38 -14 -43 -30h-88v249h260v-78h-173v-80c14 11 33 18 59 18c37 0 65 -12 83 -30c35 -34 40 -72 40 -113c0 -50 -7 -80 -39 -111
c-20 -20 -51 -37 -99 -37z" />
    <glyph glyph-name="oneeighth" unicode="&#x215b;" horiz-adv-x="894" 
d="M231 0l337 712h101l-337 -712h-101zM724 -4c-79 0 -144 43 -144 131c0 48 26 76 51 93c-21 15 -46 41 -46 85c0 80 65 126 139 126s139 -46 139 -126c0 -44 -25 -70 -46 -85c25 -17 51 -45 51 -93c0 -88 -65 -131 -144 -131zM724 77c30 0 50 23 50 51c0 29 -22 49 -50 49
s-50 -20 -50 -49c0 -28 20 -51 50 -51zM724 259c26 0 45 19 45 45s-17 46 -45 46s-45 -20 -45 -46s19 -45 45 -45zM152 285v321l-90 -78v106l90 78h95v-427h-95z" />
    <glyph glyph-name="threeeighths" unicode="&#x215c;" horiz-adv-x="890" 
d="M227 0l337 712h101l-337 -712h-101zM720 -4c-79 0 -144 43 -144 131c0 48 26 76 51 93c-21 15 -46 41 -46 85c0 80 65 126 139 126s139 -46 139 -126c0 -44 -25 -70 -46 -85c25 -17 51 -45 51 -93c0 -88 -65 -131 -144 -131zM720 77c30 0 50 23 50 51c0 29 -22 49 -50 49
s-50 -20 -50 -49c0 -28 20 -51 50 -51zM720 259c26 0 45 19 45 45s-17 46 -45 46s-45 -20 -45 -46s19 -45 45 -45zM169 280c-72 0 -143 37 -144 132h95c0 -34 22 -50 49 -50c28 0 50 21 50 50c0 33 -19 50 -51 50h-12v82h12c29 0 46 19 46 45c0 30 -19 45 -44 45
c-28 0 -44 -18 -45 -45h-94c1 79 63 127 139 127c80 0 139 -52 139 -126c0 -46 -16 -68 -48 -84c32 -18 52 -46 52 -95c0 -88 -67 -131 -144 -131z" />
    <glyph glyph-name="fiveeighths" unicode="&#x215d;" horiz-adv-x="888" 
d="M225 0l337 712h101l-337 -712h-101zM718 -4c-79 0 -144 43 -144 131c0 48 26 76 51 93c-21 15 -46 41 -46 85c0 80 65 126 139 126s139 -46 139 -126c0 -44 -25 -70 -46 -85c25 -17 51 -45 51 -93c0 -88 -65 -131 -144 -131zM718 77c30 0 50 23 50 51c0 29 -22 49 -50 49
s-50 -20 -50 -49c0 -28 20 -51 50 -51zM718 259c26 0 45 19 45 45s-17 46 -45 46s-45 -20 -45 -46s19 -45 45 -45zM172 281c-48 0 -81 17 -101 36c-29 29 -33 50 -37 88h95c2 -29 16 -46 43 -46c13 0 24 4 32 12c10 12 12 31 12 58c0 45 -13 64 -44 64
c-26 0 -38 -14 -43 -30h-88v249h260v-78h-173v-80c14 11 33 18 59 18c37 0 65 -12 83 -30c35 -34 40 -72 40 -113c0 -50 -7 -80 -39 -111c-20 -20 -51 -37 -99 -37z" />
    <glyph glyph-name="seveneighths" unicode="&#x215e;" horiz-adv-x="890" 
d="M227 0l337 712h101l-337 -712h-101zM720 -4c-79 0 -144 43 -144 131c0 48 26 76 51 93c-21 15 -46 41 -46 85c0 80 65 126 139 126s139 -46 139 -126c0 -44 -25 -70 -46 -85c25 -17 51 -45 51 -93c0 -88 -65 -131 -144 -131zM720 77c30 0 50 23 50 51c0 29 -22 49 -50 49
s-50 -20 -50 -49c0 -28 20 -51 50 -51zM720 259c26 0 45 19 45 45s-17 46 -45 46s-45 -20 -45 -46s19 -45 45 -45zM80 285l138 349h-102v-76h-86v154h283v-77l-138 -350h-95z" />
    <glyph glyph-name="uni215F" unicode="&#x215f;" horiz-adv-x="554" 
d="M231 0l337 712h101l-337 -712h-101zM152 285v321l-90 -78v106l90 78h95v-427h-95z" />
    <glyph glyph-name="uni2189" unicode="&#x2189;" horiz-adv-x="891" 
d="M226 0l337 712h101l-337 -712h-101zM718 -5c-72 0 -143 37 -144 132h95c0 -34 22 -50 49 -50c28 0 50 21 50 50c0 33 -19 50 -51 50h-12v82h12c29 0 46 19 46 45c0 30 -19 45 -44 45c-28 0 -44 -18 -45 -45h-94c1 79 63 127 139 127c80 0 139 -52 139 -126
c0 -46 -16 -68 -48 -84c32 -18 52 -46 52 -95c0 -88 -67 -131 -144 -131z" />
    <glyph glyph-name="arrowleft" unicode="&#x2190;" horiz-adv-x="1027" 
d="M600 670l-327 -323h704v-123h-704l327 -324h-165l-385 385l385 385h165z" />
    <glyph glyph-name="arrowup" unicode="&#x2191;" horiz-adv-x="1027" 
d="M513 749l385 -385v-165l-323 327v-704h-123v704l-324 -327v165z" />
    <glyph glyph-name="arrowright" unicode="&#x2192;" horiz-adv-x="1027" 
d="M591 670l386 -385l-386 -385h-164l327 324h-704v123h704l-327 323h164z" />
    <glyph glyph-name="arrowdown" unicode="&#x2193;" horiz-adv-x="1027" 
d="M575 749v-704l323 327v-164l-385 -386l-385 386v164l324 -327v704h123z" />
    <glyph glyph-name="uni2196" unicode="&#x2196;" horiz-adv-x="1027" 
d="M710 613l116 -116l-460 1l497 -497l-87 -86l-497 496l2 -460l-117 117v545h546z" />
    <glyph glyph-name="uni2197" unicode="&#x2197;" horiz-adv-x="1027" 
d="M863 613v-545l-117 -117l2 460l-497 -496l-87 86l497 497l-460 -1l116 116h546z" />
    <glyph glyph-name="uni2198" unicode="&#x2198;" horiz-adv-x="1027" 
d="M251 637l498 -498l-2 460l116 -116v-544h-545l-116 115l460 -2l-498 498z" />
    <glyph glyph-name="uni2199" unicode="&#x2199;" horiz-adv-x="1027" 
d="M776 637l87 -87l-498 -498l460 2l-116 -115h-545v544l116 116l-2 -460z" />
    <glyph glyph-name="partialdiff" unicode="&#x2202;" horiz-adv-x="555" 
d="M269 -6c-74 0 -124 29 -155 62c-46 48 -58 106 -58 198c0 93 12 151 58 199c30 31 76 60 150 60c31 0 62 -6 87 -29v27c0 39 -25 97 -104 97c-44 0 -73 -12 -102 -40l-81 82c54 51 109 68 189 68c153 0 229 -99 229 -237v-227c0 -92 -12 -150 -57 -198
c-32 -33 -81 -62 -156 -62zM269 111c24 0 42 8 56 22c25 25 27 69 27 121c0 51 -2 95 -27 120c-14 14 -32 22 -56 22c-23 0 -42 -8 -56 -22c-24 -25 -27 -69 -27 -120c0 -52 3 -96 27 -121c14 -14 33 -22 56 -22z" />
    <glyph glyph-name="Delta" unicode="&#x2206;" horiz-adv-x="636" 
d="M373 712l259 -712h-628l260 712h109zM318 501l-130 -384h261z" />
    <glyph glyph-name="product" unicode="&#x220f;" horiz-adv-x="686" 
d="M602 760v-951h-138v829h-242v-829h-139v951h519z" />
    <glyph glyph-name="summation" unicode="&#x2211;" horiz-adv-x="555" 
d="M511 760v-123h-306l141 -280v-129l-147 -297h316v-123h-475v109l189 378l-186 355v110h468z" />
    <glyph glyph-name="minus" unicode="&#x2212;" 
d="M493 346v-121h-443v121h443z" />
    <glyph glyph-name="uni2219" unicode="&#x2219;" 
d="M271 449c90 0 163 -73 163 -163s-73 -163 -163 -163s-163 73 -163 163s73 163 163 163z" />
    <glyph glyph-name="radical" unicode="&#x221a;" horiz-adv-x="557" 
d="M527 712v-120h-110l-176 -592h-103l-134 407h129l57 -208l136 513h201z" />
    <glyph glyph-name="uni221B" unicode="&#x221b;" horiz-adv-x="557" 
d="M527 712v-120h-110l-176 -592h-103l-134 407h129l57 -208l136 513h201zM107 429c-58 0 -102 26 -103 95h70c1 -21 14 -33 33 -33s33 13 33 34s-15 30 -34 30h-9v44h9c20 0 30 11 30 27c0 18 -12 28 -29 28c-15 0 -28 -10 -29 -30h-70c1 62 41 93 99 93
c64 0 99 -40 99 -81c0 -34 -16 -50 -35 -58c20 -9 39 -28 39 -64c0 -51 -40 -85 -103 -85z" />
    <glyph glyph-name="uni221C" unicode="&#x221c;" horiz-adv-x="557" 
d="M527 712v-120h-110l-176 -592h-103l-134 407h129l57 -208l136 513h201zM132 430v46h-129v55l91 181h67l-89 -180h60v50h58v-50h28v-56h-28v-46h-58z" />
    <glyph glyph-name="infinity" unicode="&#x221e;" horiz-adv-x="851" 
d="M606 475c124 0 190 -84 190 -190c0 -105 -66 -188 -190 -188c-71 0 -130 36 -181 94c-50 -58 -109 -94 -180 -94c-124 0 -190 83 -190 188c0 106 66 190 190 190c70 0 130 -37 180 -95c51 58 109 95 181 95zM245 351c-35 0 -64 -24 -64 -66c0 -41 29 -65 64 -65
c36 0 62 30 92 65c-30 36 -56 66 -92 66zM605 351c-35 0 -61 -30 -91 -66c30 -35 56 -65 91 -65s65 24 65 65c0 42 -30 66 -65 66z" />
    <glyph glyph-name="integral" unicode="&#x222b;" horiz-adv-x="489" 
d="M432 725v-110h-49c-45 0 -71 -23 -71 -71v-549c0 -117 -77 -181 -191 -181h-64v110h49c44 0 70 22 70 70v549c0 117 78 182 192 182h64z" />
    <glyph glyph-name="approxequal" unicode="&#x2248;" horiz-adv-x="606" 
d="M201 490c42 0 74 -10 117 -33c29 -16 52 -24 82 -24c27 0 49 5 86 42l83 -82c-61 -62 -104 -86 -165 -86c-42 0 -74 10 -117 33c-29 16 -52 24 -81 24c-28 0 -50 -5 -87 -42l-82 82c62 62 103 86 164 86zM201 264c42 0 74 -9 117 -33c29 -15 52 -24 82 -24
c27 0 49 5 86 42l83 -82c-61 -62 -104 -86 -165 -86c-42 0 -74 10 -117 33c-29 16 -52 25 -81 25c-28 0 -50 -5 -87 -42l-82 82c62 61 103 85 164 85z" />
    <glyph glyph-name="notequal" unicode="&#x2260;" horiz-adv-x="606" 
d="M475 584l79 -62l-55 -67h55v-122h-148l-78 -95h226v-122h-319l-104 -129l-79 62l55 67h-55v122h148l78 95h-226v122h319z" />
    <glyph glyph-name="lessequal" unicode="&#x2264;" 
d="M475 662v-137l-241 -106l241 -107v-137l-406 187v113zM69 282l406 -187v-137l-406 187v137z" />
    <glyph glyph-name="greaterequal" unicode="&#x2265;" 
d="M69 662l406 -187v-113l-406 -187v137l240 107l-240 106v137zM475 282v-137l-406 -187v137z" />
    <glyph glyph-name="dotmath" unicode="&#x22c5;" 
d="M346 360v-148h-149v148h149z" />
    <glyph glyph-name="uni2460" unicode="&#x2460;" horiz-adv-x="896" 
d="M405 165v287l-81 -70v96l81 71h86v-384h-86zM448 718c200 0 362 -162 362 -362s-162 -362 -362 -362s-362 162 -362 362s162 362 362 362zM448 653c-164 0 -291 -127 -291 -297s127 -297 291 -297s291 127 291 297s-127 297 -291 297z" />
    <glyph glyph-name="uni2460" unicode="&#x2780;" horiz-adv-x="896" 
d="M405 165v287l-81 -70v96l81 71h86v-384h-86zM448 718c200 0 362 -162 362 -362s-162 -362 -362 -362s-362 162 -362 362s162 362 362 362zM448 653c-164 0 -291 -127 -291 -297s127 -297 291 -297s291 127 291 297s-127 297 -291 297z" />
    <glyph glyph-name="uni2461" unicode="&#x2461;" horiz-adv-x="896" 
d="M324 165v77l143 151c16 16 20 27 20 45c0 21 -14 37 -39 37c-22 0 -39 -10 -39 -40h-85c1 34 10 61 29 80c23 24 56 37 95 37s71 -12 92 -34c20 -20 31 -47 31 -80c0 -37 -15 -57 -50 -94l-96 -105h148v-74h-249zM448 718c200 0 362 -162 362 -362s-162 -362 -362 -362
s-362 162 -362 362s162 362 362 362zM448 653c-164 0 -291 -127 -291 -297s127 -297 291 -297s291 127 291 297s-127 297 -291 297z" />
    <glyph glyph-name="uni2461" unicode="&#x2781;" horiz-adv-x="896" 
d="M324 165v77l143 151c16 16 20 27 20 45c0 21 -14 37 -39 37c-22 0 -39 -10 -39 -40h-85c1 34 10 61 29 80c23 24 56 37 95 37s71 -12 92 -34c20 -20 31 -47 31 -80c0 -37 -15 -57 -50 -94l-96 -105h148v-74h-249zM448 718c200 0 362 -162 362 -362s-162 -362 -362 -362
s-362 162 -362 362s162 362 362 362zM448 653c-164 0 -291 -127 -291 -297s127 -297 291 -297s291 127 291 297s-127 297 -291 297z" />
    <glyph glyph-name="uni2462" unicode="&#x2462;" horiz-adv-x="896" 
d="M450 161c-67 0 -129 33 -130 121h85c2 -31 20 -47 45 -47s43 19 43 47c0 30 -17 46 -44 46h-12v69h11c26 0 41 17 41 39c0 27 -16 42 -39 42s-38 -16 -39 -42h-86c2 74 56 116 125 116c74 0 125 -48 125 -112c0 -43 -16 -62 -43 -75c27 -16 47 -42 47 -87
c0 -77 -58 -117 -129 -117zM448 718c200 0 362 -162 362 -362s-162 -362 -362 -362s-362 162 -362 362s162 362 362 362zM448 653c-164 0 -291 -127 -291 -297s127 -297 291 -297s291 127 291 297s-127 297 -291 297z" />
    <glyph glyph-name="uni2462" unicode="&#x2782;" horiz-adv-x="896" 
d="M450 161c-67 0 -129 33 -130 121h85c2 -31 20 -47 45 -47s43 19 43 47c0 30 -17 46 -44 46h-12v69h11c26 0 41 17 41 39c0 27 -16 42 -39 42s-38 -16 -39 -42h-86c2 74 56 116 125 116c74 0 125 -48 125 -112c0 -43 -16 -62 -43 -75c27 -16 47 -42 47 -87
c0 -77 -58 -117 -129 -117zM448 718c200 0 362 -162 362 -362s-162 -362 -362 -362s-362 162 -362 362s162 362 362 362zM448 653c-164 0 -291 -127 -291 -297s127 -297 291 -297s291 127 291 297s-127 297 -291 297z" />
    <glyph glyph-name="uni2463" unicode="&#x2463;" horiz-adv-x="896" 
d="M460 165v56h-158v67l128 261h83l-128 -261h75v71h74v-71h44v-67h-44v-56h-74zM448 718c200 0 362 -162 362 -362s-162 -362 -362 -362s-362 162 -362 362s162 362 362 362zM448 653c-164 0 -291 -127 -291 -297s127 -297 291 -297s291 127 291 297s-127 297 -291 297z
" />
    <glyph glyph-name="uni2463" unicode="&#x2783;" horiz-adv-x="896" 
d="M460 165v56h-158v67l128 261h83l-128 -261h75v71h74v-71h44v-67h-44v-56h-74zM448 718c200 0 362 -162 362 -362s-162 -362 -362 -362s-362 162 -362 362s162 362 362 362zM448 653c-164 0 -291 -127 -291 -297s127 -297 291 -297s291 127 291 297s-127 297 -291 297z
" />
    <glyph glyph-name="uni2464" unicode="&#x2464;" horiz-adv-x="896" 
d="M450 161c-43 0 -73 14 -92 33c-25 24 -31 43 -34 79h86c2 -25 16 -40 40 -40c12 0 22 4 29 12c9 10 11 26 11 49c0 41 -11 58 -40 58c-24 0 -34 -12 -40 -29h-80v226h239v-72h-165v-77c16 15 33 21 59 21c34 0 61 -11 77 -27c30 -29 36 -63 36 -100c0 -46 -8 -72 -34 -99
c-20 -20 -50 -34 -92 -34zM448 718c200 0 362 -162 362 -362s-162 -362 -362 -362s-362 162 -362 362s162 362 362 362zM448 653c-164 0 -291 -127 -291 -297s127 -297 291 -297s291 127 291 297s-127 297 -291 297z" />
    <glyph glyph-name="uni2464" unicode="&#x2784;" horiz-adv-x="896" 
d="M450 161c-43 0 -73 14 -92 33c-25 24 -31 43 -34 79h86c2 -25 16 -40 40 -40c12 0 22 4 29 12c9 10 11 26 11 49c0 41 -11 58 -40 58c-24 0 -34 -12 -40 -29h-80v226h239v-72h-165v-77c16 15 33 21 59 21c34 0 61 -11 77 -27c30 -29 36 -63 36 -100c0 -46 -8 -72 -34 -99
c-20 -20 -50 -34 -92 -34zM448 718c200 0 362 -162 362 -362s-162 -362 -362 -362s-362 162 -362 362s162 362 362 362zM448 653c-164 0 -291 -127 -291 -297s127 -297 291 -297s291 127 291 297s-127 297 -291 297z" />
    <glyph glyph-name="uni2465" unicode="&#x2465;" horiz-adv-x="896" 
d="M447 161c-70 0 -127 43 -127 125c0 27 6 54 31 103l79 160h95l-78 -154c7 4 16 6 26 6c51 0 102 -40 102 -115c0 -82 -56 -125 -128 -125zM447 239c25 0 43 15 43 47s-18 48 -43 48c-24 0 -41 -16 -41 -48s17 -47 41 -47zM448 718c200 0 362 -162 362 -362
s-162 -362 -362 -362s-362 162 -362 362s162 362 362 362zM448 653c-164 0 -291 -127 -291 -297s127 -297 291 -297s291 127 291 297s-127 297 -291 297z" />
    <glyph glyph-name="uni2465" unicode="&#x2785;" horiz-adv-x="896" 
d="M447 161c-70 0 -127 43 -127 125c0 27 6 54 31 103l79 160h95l-78 -154c7 4 16 6 26 6c51 0 102 -40 102 -115c0 -82 -56 -125 -128 -125zM447 239c25 0 43 15 43 47s-18 48 -43 48c-24 0 -41 -16 -41 -48s17 -47 41 -47zM448 718c200 0 362 -162 362 -362
s-162 -362 -362 -362s-362 162 -362 362s162 362 362 362zM448 653c-164 0 -291 -127 -291 -297s127 -297 291 -297s291 127 291 297s-127 297 -291 297z" />
    <glyph glyph-name="uni2466" unicode="&#x2466;" horiz-adv-x="896" 
d="M375 165l122 312h-97v-67h-76v139h255v-72l-122 -312h-82zM448 718c200 0 362 -162 362 -362s-162 -362 -362 -362s-362 162 -362 362s162 362 362 362zM448 653c-164 0 -291 -127 -291 -297s127 -297 291 -297s291 127 291 297s-127 297 -291 297z" />
    <glyph glyph-name="uni2466" unicode="&#x2786;" horiz-adv-x="896" 
d="M375 165l122 312h-97v-67h-76v139h255v-72l-122 -312h-82zM448 718c200 0 362 -162 362 -362s-162 -362 -362 -362s-362 162 -362 362s162 362 362 362zM448 653c-164 0 -291 -127 -291 -297s127 -297 291 -297s291 127 291 297s-127 297 -291 297z" />
    <glyph glyph-name="uni2467" unicode="&#x2467;" horiz-adv-x="896" 
d="M445 161c-71 0 -130 39 -130 118c0 43 22 68 46 84c-21 14 -41 37 -41 76c0 72 59 113 125 113c67 0 127 -41 127 -113c0 -39 -21 -62 -42 -76c24 -16 46 -41 46 -84c0 -79 -59 -118 -131 -118zM445 235c28 0 45 20 45 46s-19 45 -45 45c-25 0 -44 -19 -44 -45
s17 -46 44 -46zM445 396c24 0 41 17 41 41s-16 42 -41 42c-24 0 -40 -18 -40 -42s17 -41 40 -41zM448 718c200 0 362 -162 362 -362s-162 -362 -362 -362s-362 162 -362 362s162 362 362 362zM448 653c-164 0 -291 -127 -291 -297s127 -297 291 -297s291 127 291 297
s-127 297 -291 297z" />
    <glyph glyph-name="uni2467" unicode="&#x2787;" horiz-adv-x="896" 
d="M445 161c-71 0 -130 39 -130 118c0 43 22 68 46 84c-21 14 -41 37 -41 76c0 72 59 113 125 113c67 0 127 -41 127 -113c0 -39 -21 -62 -42 -76c24 -16 46 -41 46 -84c0 -79 -59 -118 -131 -118zM445 235c28 0 45 20 45 46s-19 45 -45 45c-25 0 -44 -19 -44 -45
s17 -46 44 -46zM445 396c24 0 41 17 41 41s-16 42 -41 42c-24 0 -40 -18 -40 -42s17 -41 40 -41zM448 718c200 0 362 -162 362 -362s-162 -362 -362 -362s-362 162 -362 362s162 362 362 362zM448 653c-164 0 -291 -127 -291 -297s127 -297 291 -297s291 127 291 297
s-127 297 -291 297z" />
    <glyph glyph-name="uni2468" unicode="&#x2468;" horiz-adv-x="896" 
d="M370 165l78 154c-7 -4 -16 -6 -26 -6c-51 0 -102 40 -102 115c0 82 56 125 128 125c70 0 127 -43 127 -125c0 -27 -6 -54 -31 -103l-79 -160h-95zM448 380c24 0 41 16 41 48s-17 47 -41 47c-25 0 -43 -15 -43 -47s18 -48 43 -48zM448 718c200 0 362 -162 362 -362
s-162 -362 -362 -362s-362 162 -362 362s162 362 362 362zM448 653c-164 0 -291 -127 -291 -297s127 -297 291 -297s291 127 291 297s-127 297 -291 297z" />
    <glyph glyph-name="uni2468" unicode="&#x2788;" horiz-adv-x="896" 
d="M370 165l78 154c-7 -4 -16 -6 -26 -6c-51 0 -102 40 -102 115c0 82 56 125 128 125c70 0 127 -43 127 -125c0 -27 -6 -54 -31 -103l-79 -160h-95zM448 380c24 0 41 16 41 48s-17 47 -41 47c-25 0 -43 -15 -43 -47s18 -48 43 -48zM448 718c200 0 362 -162 362 -362
s-162 -362 -362 -362s-362 162 -362 362s162 362 362 362zM448 653c-164 0 -291 -127 -291 -297s127 -297 291 -297s291 127 291 297s-127 297 -291 297z" />
    <glyph glyph-name="uni2469" unicode="&#x2469;" horiz-adv-x="896" 
d="M544 160c-31 0 -56 8 -73 24c-22 19 -33 48 -33 85v175c0 38 11 67 33 86c17 15 42 23 73 23s56 -8 73 -23c22 -19 33 -48 33 -86v-175c0 -37 -11 -66 -33 -85c-17 -16 -42 -24 -73 -24zM544 218c27 0 42 16 42 52v174c0 35 -15 51 -42 51s-42 -16 -42 -51v-174
c0 -36 15 -52 42 -52zM310 165v310l-67 -54v74l67 54h65v-384h-65zM448 718c200 0 362 -162 362 -362s-162 -362 -362 -362s-362 162 -362 362s162 362 362 362zM448 653c-164 0 -291 -127 -291 -297s127 -297 291 -297s291 127 291 297s-127 297 -291 297z" />
    <glyph glyph-name="uni2469" unicode="&#x2789;" horiz-adv-x="896" 
d="M544 160c-31 0 -56 8 -73 24c-22 19 -33 48 -33 85v175c0 38 11 67 33 86c17 15 42 23 73 23s56 -8 73 -23c22 -19 33 -48 33 -86v-175c0 -37 -11 -66 -33 -85c-17 -16 -42 -24 -73 -24zM544 218c27 0 42 16 42 52v174c0 35 -15 51 -42 51s-42 -16 -42 -51v-174
c0 -36 15 -52 42 -52zM310 165v310l-67 -54v74l67 54h65v-384h-65zM448 718c200 0 362 -162 362 -362s-162 -362 -362 -362s-362 162 -362 362s162 362 362 362zM448 653c-164 0 -291 -127 -291 -297s127 -297 291 -297s291 127 291 297s-127 297 -291 297z" />
    <glyph glyph-name="uni246A" unicode="&#x246a;" horiz-adv-x="896" 
d="M310 165v310l-67 -54v74l67 54h65v-384h-65zM525 165v310l-67 -54v74l67 54h65v-384h-65zM448 718c200 0 362 -162 362 -362s-162 -362 -362 -362s-362 162 -362 362s162 362 362 362zM448 653c-164 0 -291 -127 -291 -297s127 -297 291 -297s291 127 291 297
s-127 297 -291 297z" />
    <glyph glyph-name="uni246B" unicode="&#x246b;" horiz-adv-x="896" 
d="M310 165v310l-67 -54v74l67 54h65v-384h-65zM446 165v55l116 174c16 24 22 40 22 60c0 27 -14 41 -39 41c-24 0 -41 -13 -41 -42v-18h-64v18c0 31 11 57 32 76c15 15 40 24 73 24c32 0 57 -9 73 -23c19 -16 30 -45 30 -76c0 -28 -10 -48 -32 -82l-100 -149h132v-58h-202z
M448 718c200 0 362 -162 362 -362s-162 -362 -362 -362s-362 162 -362 362s162 362 362 362zM448 653c-164 0 -291 -127 -291 -297s127 -297 291 -297s291 127 291 297s-127 297 -291 297z" />
    <glyph glyph-name="uni246C" unicode="&#x246c;" horiz-adv-x="896" 
d="M310 165v310l-67 -54v74l67 54h65v-384h-65zM544 160c-31 0 -55 8 -73 23c-22 18 -32 46 -32 89h60l1 -14c1 -27 20 -40 44 -40c13 0 23 3 31 13c8 8 11 22 11 45c0 32 -4 43 -11 53c-7 8 -16 12 -29 12h-19v52h18c13 0 23 5 29 14c5 6 9 16 9 35c0 21 -5 36 -13 44
c-7 6 -16 9 -27 9c-23 0 -37 -13 -39 -37l-1 -18h-62c0 45 11 72 30 90c17 16 43 23 72 23c31 0 54 -7 71 -22c24 -23 33 -45 33 -83c0 -25 -3 -44 -11 -57c-6 -10 -16 -18 -29 -25c12 -5 20 -12 28 -23c11 -15 15 -38 15 -67c0 -47 -12 -75 -35 -94
c-16 -14 -43 -22 -71 -22zM448 718c200 0 362 -162 362 -362s-162 -362 -362 -362s-362 162 -362 362s162 362 362 362zM448 653c-164 0 -291 -127 -291 -297s127 -297 291 -297s291 127 291 297s-127 297 -291 297z" />
    <glyph glyph-name="uni246D" unicode="&#x246d;" horiz-adv-x="896" 
d="M550 165v56h-130v57l110 271h66l-109 -270h63v67h65v-67h35v-58h-35v-56h-65zM310 165v310l-67 -54v74l67 54h65v-384h-65zM448 718c200 0 362 -162 362 -362s-162 -362 -362 -362s-362 162 -362 362s162 362 362 362zM448 653c-164 0 -291 -127 -291 -297
s127 -297 291 -297s291 127 291 297s-127 297 -291 297z" />
    <glyph glyph-name="uni246E" unicode="&#x246e;" horiz-adv-x="896" 
d="M310 165v310l-67 -54v74l67 54h65v-384h-65zM541 160c-32 0 -58 9 -75 25c-19 18 -29 45 -30 76v8h64v-10c0 -25 16 -41 41 -41c15 0 25 5 31 14c8 11 11 29 11 61c0 33 -3 52 -13 63c-7 7 -16 11 -30 11c-25 0 -36 -14 -40 -33h-58v215h204v-58h-146v-93
c19 19 32 27 60 27s47 -7 60 -21c20 -23 28 -53 28 -111c0 -54 -7 -85 -32 -108c-18 -17 -44 -25 -75 -25zM448 718c200 0 362 -162 362 -362s-162 -362 -362 -362s-362 162 -362 362s162 362 362 362zM448 653c-164 0 -291 -127 -291 -297s127 -297 291 -297
s291 127 291 297s-127 297 -291 297z" />
    <glyph glyph-name="uni246F" unicode="&#x246f;" horiz-adv-x="896" 
d="M310 165v310l-67 -54v74l67 54h65v-384h-65zM448 718c200 0 362 -162 362 -362s-162 -362 -362 -362s-362 162 -362 362s162 362 362 362zM448 653c-164 0 -291 -127 -291 -297s127 -297 291 -297s291 127 291 297s-127 297 -291 297zM544 160c-32 0 -57 10 -75 27
c-21 21 -30 43 -30 90c0 37 6 61 18 90l75 182h68l-67 -162c8 5 19 6 30 6c23 0 48 -10 62 -28c17 -20 24 -40 24 -88c0 -47 -9 -69 -30 -90c-18 -17 -43 -27 -75 -27zM585 277c0 22 -4 36 -9 44c-7 10 -19 16 -32 16c-14 0 -25 -6 -32 -16c-6 -8 -9 -22 -9 -44
c0 -21 3 -34 8 -41c7 -12 19 -18 33 -18s26 6 33 18c5 7 8 20 8 41z" />
    <glyph glyph-name="uni2470" unicode="&#x2470;" horiz-adv-x="896" 
d="M455 165l108 327h-87v-56h-57v113h207v-54l-108 -330h-63zM310 165v310l-67 -54v74l67 54h65v-384h-65zM448 718c200 0 362 -162 362 -362s-162 -362 -362 -362s-362 162 -362 362s162 362 362 362zM448 653c-164 0 -291 -127 -291 -297s127 -297 291 -297
s291 127 291 297s-127 297 -291 297z" />
    <glyph glyph-name="uni2471" unicode="&#x2471;" horiz-adv-x="896" 
d="M310 165v310l-67 -54v74l67 54h65v-384h-65zM448 718c200 0 362 -162 362 -362s-162 -362 -362 -362s-362 162 -362 362s162 362 362 362zM448 653c-164 0 -291 -127 -291 -297s127 -297 291 -297s291 127 291 297s-127 297 -291 297zM544 160c-32 0 -59 10 -77 27
c-23 22 -32 49 -32 92c0 26 5 45 15 61c6 10 14 19 28 26c-13 9 -22 19 -29 32c-6 13 -9 29 -9 47c0 37 10 64 29 82c17 17 43 26 75 26s58 -9 75 -26c19 -18 29 -45 29 -82c0 -18 -3 -34 -9 -47c-7 -13 -16 -23 -29 -32c14 -7 22 -16 28 -26c10 -16 15 -35 15 -61
c0 -43 -9 -70 -32 -92c-18 -17 -45 -27 -77 -27zM544 341c-14 0 -25 -5 -32 -15c-9 -11 -12 -27 -12 -47c0 -19 2 -33 10 -45c7 -11 19 -16 34 -16s27 5 34 16c8 12 10 26 10 45c0 20 -3 36 -12 47c-7 10 -18 15 -32 15zM544 495c-14 0 -23 -4 -30 -14c-6 -8 -9 -21 -9 -36
c0 -12 1 -23 6 -32c6 -11 18 -18 33 -18s27 7 33 18c5 9 6 20 6 32c0 15 -3 28 -9 36c-7 10 -16 14 -30 14z" />
    <glyph glyph-name="uni2472" unicode="&#x2472;" horiz-adv-x="896" 
d="M310 165v310l-67 -54v74l67 54h65v-384h-65zM448 718c200 0 362 -162 362 -362s-162 -362 -362 -362s-362 162 -362 362s162 362 362 362zM448 653c-164 0 -291 -127 -291 -297s127 -297 291 -297s291 127 291 297s-127 297 -291 297zM544 554c32 0 57 -10 75 -27
c21 -21 30 -43 30 -90c0 -37 -6 -61 -18 -90l-75 -182h-68l67 162c-8 -5 -19 -6 -30 -6c-23 0 -48 10 -62 28c-17 20 -24 40 -24 88c0 47 9 69 30 90c18 17 43 27 75 27zM503 437c0 -22 4 -36 9 -44c7 -10 19 -16 32 -16c14 0 25 6 32 16c6 8 9 22 9 44c0 21 -3 34 -8 41
c-7 12 -19 18 -33 18s-26 -6 -33 -18c-5 -7 -8 -20 -8 -41z" />
    <glyph glyph-name="uni2473" unicode="&#x2473;" horiz-adv-x="896" 
d="M568 158c-31 0 -56 8 -73 24c-22 19 -33 48 -33 85v175c0 38 11 67 33 86c17 15 42 23 73 23s56 -8 73 -23c22 -19 33 -48 33 -86v-175c0 -37 -11 -66 -33 -85c-17 -16 -42 -24 -73 -24zM568 216c27 0 42 16 42 52v174c0 35 -15 51 -42 51s-42 -16 -42 -51v-174
c0 -36 15 -52 42 -52zM235 165v55l116 174c16 24 22 40 22 60c0 27 -14 41 -39 41c-24 0 -41 -13 -41 -42v-18h-64v18c0 31 11 57 32 76c15 15 40 24 73 24c32 0 57 -9 73 -23c19 -16 30 -45 30 -76c0 -28 -10 -48 -32 -82l-100 -149h132v-58h-202zM448 718
c200 0 362 -162 362 -362s-162 -362 -362 -362s-362 162 -362 362s162 362 362 362zM448 653c-164 0 -291 -127 -291 -297s127 -297 291 -297s291 127 291 297s-127 297 -291 297z" />
    <glyph glyph-name="uni24EA" unicode="&#x24ea;" horiz-adv-x="896" 
d="M446 161c-67 0 -125 42 -125 121v149c0 80 58 121 125 121s125 -41 125 -121v-149c0 -79 -58 -121 -125 -121zM446 238c23 0 39 16 39 44v149c0 29 -16 44 -39 44s-39 -15 -39 -44v-149c0 -28 15 -44 39 -44zM448 718c200 0 362 -162 362 -362s-162 -362 -362 -362
s-362 162 -362 362s162 362 362 362zM448 653c-164 0 -291 -127 -291 -297s127 -297 291 -297s291 127 291 297s-127 297 -291 297z" />
    <glyph glyph-name="uni24EB" unicode="&#x24eb;" horiz-adv-x="896" 
d="M310 475v-310h65v384h-65l-67 -54v-74zM525 475v-310h65v384h-65l-67 -54v-74zM448 718c200 0 362 -162 362 -362s-162 -362 -362 -362s-362 162 -362 362s162 362 362 362z" />
    <glyph glyph-name="uni24EC" unicode="&#x24ec;" horiz-adv-x="896" 
d="M310 475v-310h65v384h-65l-67 -54v-74zM446 220v-55h202v58h-132l100 149c22 34 32 54 32 82c0 31 -11 60 -30 76c-16 14 -41 23 -73 23c-33 0 -58 -9 -73 -24c-21 -19 -32 -45 -32 -76v-18h64v18c0 29 17 42 41 42c25 0 39 -14 39 -41c0 -20 -6 -36 -22 -60zM448 718
c200 0 362 -162 362 -362s-162 -362 -362 -362s-362 162 -362 362s162 362 362 362z" />
    <glyph glyph-name="uni24ED" unicode="&#x24ed;" horiz-adv-x="896" 
d="M310 475v-310h65v384h-65l-67 -54v-74zM544 160c28 0 55 8 71 22c23 19 35 47 35 94c0 29 -4 52 -15 67c-8 11 -16 18 -28 23c13 7 23 15 29 25c8 13 11 32 11 57c0 38 -9 60 -33 83c-17 15 -40 22 -71 22c-29 0 -55 -7 -72 -23c-19 -18 -30 -45 -30 -90h62l1 18
c2 24 16 37 39 37c11 0 20 -3 27 -9c8 -8 13 -23 13 -44c0 -19 -4 -29 -9 -35c-6 -9 -16 -14 -29 -14h-18v-52h19c13 0 22 -4 29 -12c7 -10 11 -21 11 -53c0 -23 -3 -37 -11 -45c-8 -10 -18 -13 -31 -13c-24 0 -43 13 -44 40l-1 14h-60c0 -43 10 -71 32 -89
c18 -15 42 -23 73 -23zM448 718c200 0 362 -162 362 -362s-162 -362 -362 -362s-362 162 -362 362s162 362 362 362z" />
    <glyph glyph-name="uni24EE" unicode="&#x24ee;" horiz-adv-x="896" 
d="M555 221v-56h65v56h35v58h-35v67h-65v-67h-73l109 270h-66l-110 -271v-57h140zM310 475v-310h65v384h-65l-67 -54v-74zM448 718c200 0 362 -162 362 -362s-162 -362 -362 -362s-362 162 -362 362s162 362 362 362z" />
    <glyph glyph-name="uni24EF" unicode="&#x24ef;" horiz-adv-x="896" 
d="M310 475v-310h65v384h-65l-67 -54v-74zM448 718c200 0 362 -162 362 -362s-162 -362 -362 -362s-362 162 -362 362s162 362 362 362zM541 160c31 0 57 8 75 25c25 23 32 54 32 108c0 58 -8 88 -28 111c-13 14 -32 21 -60 21s-41 -8 -60 -27v93h146v58h-204v-215h58
c4 19 15 33 40 33c14 0 23 -4 30 -11c10 -11 13 -30 13 -63c0 -32 -3 -50 -11 -61c-6 -9 -16 -14 -31 -14c-25 0 -41 16 -41 41v10h-64v-8c1 -31 11 -58 30 -76c17 -16 43 -25 75 -25z" />
    <glyph glyph-name="uni24F0" unicode="&#x24f0;" horiz-adv-x="896" 
d="M310 475v-310h65v384h-65l-67 -54v-74zM448 718c200 0 362 -162 362 -362s-162 -362 -362 -362s-362 162 -362 362s162 362 362 362zM544 160c32 0 57 10 75 27c21 21 30 43 30 90c0 48 -7 68 -24 88c-14 18 -39 28 -62 28c-11 0 -22 -1 -30 -6l67 162h-68l-75 -182
c-12 -29 -18 -53 -18 -90c0 -47 9 -69 30 -90c18 -17 43 -27 75 -27zM585 277c0 -21 -3 -34 -8 -41c-7 -12 -19 -18 -33 -18s-26 6 -33 18c-5 7 -8 20 -8 41c0 22 3 36 9 44c7 10 18 16 32 16c13 0 25 -6 32 -16c5 -8 9 -22 9 -44z" />
    <glyph glyph-name="uni24F1" unicode="&#x24f1;" horiz-adv-x="896" 
d="M310 475v-310h65v384h-65l-67 -54v-74zM448 718c200 0 362 -162 362 -362s-162 -362 -362 -362s-362 162 -362 362s162 362 362 362zM563 492l-108 -327h63l108 330v54h-207v-113h57v56h87z" />
    <glyph glyph-name="uni24F2" unicode="&#x24f2;" horiz-adv-x="896" 
d="M310 475v-310h65v384h-65l-67 -54v-74zM448 718c200 0 362 -162 362 -362s-162 -362 -362 -362s-362 162 -362 362s162 362 362 362zM544 160c32 0 59 10 77 27c23 22 32 49 32 92c0 26 -5 45 -15 61c-6 10 -14 19 -28 26c13 9 22 19 29 32c6 13 9 29 9 47
c0 37 -10 64 -29 82c-17 17 -43 26 -75 26s-58 -9 -75 -26c-19 -18 -29 -45 -29 -82c0 -18 3 -34 9 -47c7 -13 16 -23 29 -32c-14 -7 -22 -16 -28 -26c-10 -16 -15 -35 -15 -61c0 -43 9 -70 32 -92c18 -17 45 -27 77 -27zM544 341c14 0 25 -5 32 -15c9 -11 12 -27 12 -47
c0 -19 -2 -33 -10 -45c-7 -11 -19 -16 -34 -16s-27 5 -34 16c-8 12 -10 26 -10 45c0 20 3 36 12 47c7 10 18 15 32 15zM544 495c14 0 23 -4 30 -14c6 -8 9 -21 9 -36c0 -12 -1 -23 -6 -32c-6 -11 -18 -18 -33 -18s-27 7 -33 18c-5 9 -6 20 -6 32c0 15 3 28 9 36
c7 10 16 14 30 14z" />
    <glyph glyph-name="uni24F3" unicode="&#x24f3;" horiz-adv-x="896" 
d="M310 475v-310h65v384h-65l-67 -54v-74zM448 718c200 0 362 -162 362 -362s-162 -362 -362 -362s-362 162 -362 362s162 362 362 362zM544 554c-32 0 -57 -10 -75 -27c-21 -21 -30 -43 -30 -90c0 -48 7 -68 24 -88c14 -18 39 -28 62 -28c11 0 22 1 30 6l-67 -162h68
l75 182c12 29 18 53 18 90c0 47 -9 69 -30 90c-18 17 -43 27 -75 27zM503 437c0 21 3 34 8 41c7 12 19 18 33 18s26 -6 33 -18c5 -7 8 -20 8 -41c0 -22 -3 -36 -9 -44c-7 -10 -18 -16 -32 -16c-13 0 -25 6 -32 16c-5 8 -9 22 -9 44z" />
    <glyph glyph-name="uni24F4" unicode="&#x24f4;" horiz-adv-x="896" 
d="M568 158c31 0 56 8 73 24c22 19 33 48 33 85v175c0 38 -11 67 -33 86c-17 15 -42 23 -73 23s-56 -8 -73 -23c-22 -19 -33 -48 -33 -86v-175c0 -37 11 -66 33 -85c17 -16 42 -24 73 -24zM568 216c-27 0 -42 16 -42 52v174c0 35 15 51 42 51s42 -16 42 -51v-174
c0 -36 -15 -52 -42 -52zM235 220v-55h202v58h-132l100 149c22 34 32 54 32 82c0 31 -11 60 -30 76c-16 14 -41 23 -73 23c-33 0 -58 -9 -73 -24c-21 -19 -32 -45 -32 -76v-18h64v18c0 29 17 42 41 42c25 0 39 -14 39 -41c0 -20 -6 -36 -22 -60zM448 718
c200 0 362 -162 362 -362s-162 -362 -362 -362s-362 162 -362 362s162 362 362 362z" />
    <glyph glyph-name="uni24FF" unicode="&#x24ff;" horiz-adv-x="896" 
d="M447 161c67 0 125 42 125 121v149c0 80 -58 121 -125 121s-125 -41 -125 -121v-149c0 -79 58 -121 125 -121zM447 238c-24 0 -39 16 -39 44v149c0 29 16 44 39 44s39 -15 39 -44v-149c0 -28 -16 -44 -39 -44zM448 718c200 0 362 -162 362 -362s-162 -362 -362 -362
s-362 162 -362 362s162 362 362 362z" />
    <glyph glyph-name="filledbox" unicode="&#x25a0;" horiz-adv-x="1000" 
d="M856 712v-712h-712v712h712z" />
    <glyph glyph-name="uni25A1" unicode="&#x25a1;" horiz-adv-x="1000" 
d="M856 712v-712h-712v712h712zM770 631h-540v-550h540v550z" />
    <glyph glyph-name="lozenge" unicode="&#x25ca;" horiz-adv-x="636" 
d="M318 723l263 -367l-263 -366l-263 366zM318 520l-117 -164l117 -164l117 164z" />
    <glyph glyph-name="circle" unicode="&#x25cb;" horiz-adv-x="896" 
d="M448 718c200 0 362 -162 362 -362s-162 -362 -362 -362s-362 162 -362 362s162 362 362 362zM448 653c-164 0 -291 -127 -291 -297s127 -297 291 -297s291 127 291 297s-127 297 -291 297z" />
    <glyph glyph-name="uni25CF" unicode="&#x25cf;" horiz-adv-x="896" 
d="M448 718c200 0 362 -162 362 -362s-162 -362 -362 -362s-362 162 -362 362s162 362 362 362z" />
    <glyph glyph-name="uni278A" unicode="&#x2776;" horiz-adv-x="896" 
d="M448 -6c-200 0 -362 162 -362 362s162 362 362 362s362 -162 362 -362s-162 -362 -362 -362zM406 165h86v384h-86l-81 -71v-96l81 70v-287z" />
    <glyph glyph-name="uni278A" unicode="&#x278a;" horiz-adv-x="896" 
d="M448 -6c-200 0 -362 162 -362 362s162 362 362 362s362 -162 362 -362s-162 -362 -362 -362zM406 165h86v384h-86l-81 -71v-96l81 70v-287z" />
    <glyph glyph-name="uni278B" unicode="&#x2777;" horiz-adv-x="896" 
d="M448 -6c-200 0 -362 162 -362 362s162 362 362 362s362 -162 362 -362s-162 -362 -362 -362zM324 165h249v74h-148l96 105c35 37 50 57 50 94c0 33 -11 60 -31 80c-21 22 -53 34 -92 34s-72 -13 -95 -37c-19 -19 -28 -46 -29 -80h85c0 30 17 40 39 40c25 0 39 -16 39 -37
c0 -18 -4 -29 -20 -45l-143 -151v-77z" />
    <glyph glyph-name="uni278B" unicode="&#x278b;" horiz-adv-x="896" 
d="M448 -6c-200 0 -362 162 -362 362s162 362 362 362s362 -162 362 -362s-162 -362 -362 -362zM324 165h249v74h-148l96 105c35 37 50 57 50 94c0 33 -11 60 -31 80c-21 22 -53 34 -92 34s-72 -13 -95 -37c-19 -19 -28 -46 -29 -80h85c0 30 17 40 39 40c25 0 39 -16 39 -37
c0 -18 -4 -29 -20 -45l-143 -151v-77z" />
    <glyph glyph-name="uni278C" unicode="&#x2778;" horiz-adv-x="896" 
d="M448 -6c-200 0 -362 162 -362 362s162 362 362 362s362 -162 362 -362s-162 -362 -362 -362zM449 161c71 0 129 40 129 117c0 45 -20 71 -47 87c27 13 43 32 43 75c0 64 -51 112 -125 112c-69 0 -123 -42 -125 -116h86c1 26 16 42 39 42s39 -15 39 -42
c0 -22 -15 -39 -41 -39h-11v-69h12c27 0 44 -16 44 -46c0 -28 -18 -47 -43 -47s-43 16 -45 47h-85c1 -88 63 -121 130 -121z" />
    <glyph glyph-name="uni278C" unicode="&#x278c;" horiz-adv-x="896" 
d="M448 -6c-200 0 -362 162 -362 362s162 362 362 362s362 -162 362 -362s-162 -362 -362 -362zM449 161c71 0 129 40 129 117c0 45 -20 71 -47 87c27 13 43 32 43 75c0 64 -51 112 -125 112c-69 0 -123 -42 -125 -116h86c1 26 16 42 39 42s39 -15 39 -42
c0 -22 -15 -39 -41 -39h-11v-69h12c27 0 44 -16 44 -46c0 -28 -18 -47 -43 -47s-43 16 -45 47h-85c1 -88 63 -121 130 -121z" />
    <glyph glyph-name="uni278D" unicode="&#x2779;" horiz-adv-x="896" 
d="M448 -6c-200 0 -362 162 -362 362s162 362 362 362s362 -162 362 -362s-162 -362 -362 -362zM460 221v-56h74v56h44v67h-44v71h-74v-71h-75l128 261h-83l-128 -261v-67h158z" />
    <glyph glyph-name="uni278D" unicode="&#x278d;" horiz-adv-x="896" 
d="M448 -6c-200 0 -362 162 -362 362s162 362 362 362s362 -162 362 -362s-162 -362 -362 -362zM460 221v-56h74v56h44v67h-44v71h-74v-71h-75l128 261h-83l-128 -261v-67h158z" />
    <glyph glyph-name="uni278E" unicode="&#x277a;" horiz-adv-x="896" 
d="M448 -6c-200 0 -362 162 -362 362s162 362 362 362s362 -162 362 -362s-162 -362 -362 -362zM450 161c42 0 72 14 92 34c26 27 34 53 34 99c0 37 -6 71 -36 100c-16 16 -43 27 -77 27c-26 0 -43 -6 -59 -21v77h165v72h-239v-226h80c6 17 16 29 40 29c29 0 40 -17 40 -58
c0 -23 -2 -39 -11 -49c-7 -8 -17 -12 -29 -12c-24 0 -38 15 -40 40h-86c3 -36 9 -55 34 -79c19 -19 49 -33 92 -33z" />
    <glyph glyph-name="uni278E" unicode="&#x278e;" horiz-adv-x="896" 
d="M448 -6c-200 0 -362 162 -362 362s162 362 362 362s362 -162 362 -362s-162 -362 -362 -362zM450 161c42 0 72 14 92 34c26 27 34 53 34 99c0 37 -6 71 -36 100c-16 16 -43 27 -77 27c-26 0 -43 -6 -59 -21v77h165v72h-239v-226h80c6 17 16 29 40 29c29 0 40 -17 40 -58
c0 -23 -2 -39 -11 -49c-7 -8 -17 -12 -29 -12c-24 0 -38 15 -40 40h-86c3 -36 9 -55 34 -79c19 -19 49 -33 92 -33z" />
    <glyph glyph-name="uni278F" unicode="&#x277b;" horiz-adv-x="896" 
d="M448 -6c-200 0 -362 162 -362 362s162 362 362 362s362 -162 362 -362s-162 -362 -362 -362zM448 238c-24 0 -41 15 -41 47s17 48 41 48c25 0 43 -16 43 -48s-18 -47 -43 -47zM448 160c72 0 128 43 128 125c0 75 -51 115 -102 115c-10 0 -19 -2 -26 -6l78 154h-95
l-79 -160c-25 -49 -31 -76 -31 -103c0 -82 57 -125 127 -125z" />
    <glyph glyph-name="uni278F" unicode="&#x278f;" horiz-adv-x="896" 
d="M448 -6c-200 0 -362 162 -362 362s162 362 362 362s362 -162 362 -362s-162 -362 -362 -362zM448 238c-24 0 -41 15 -41 47s17 48 41 48c25 0 43 -16 43 -48s-18 -47 -43 -47zM448 160c72 0 128 43 128 125c0 75 -51 115 -102 115c-10 0 -19 -2 -26 -6l78 154h-95
l-79 -160c-25 -49 -31 -76 -31 -103c0 -82 57 -125 127 -125z" />
    <glyph glyph-name="uni2790" unicode="&#x277c;" horiz-adv-x="896" 
d="M448 -6c-200 0 -362 162 -362 362s162 362 362 362s362 -162 362 -362s-162 -362 -362 -362zM497 477l-122 -312h82l122 312v72h-255v-139h76v67h97z" />
    <glyph glyph-name="uni2790" unicode="&#x2790;" horiz-adv-x="896" 
d="M448 -6c-200 0 -362 162 -362 362s162 362 362 362s362 -162 362 -362s-162 -362 -362 -362zM497 477l-122 -312h82l122 312v72h-255v-139h76v67h97z" />
    <glyph glyph-name="uni2791" unicode="&#x277d;" horiz-adv-x="896" 
d="M448 -6c-200 0 -362 162 -362 362s162 362 362 362s362 -162 362 -362s-162 -362 -362 -362zM448 235c-27 0 -44 20 -44 46s19 45 44 45c26 0 45 -19 45 -45s-17 -46 -45 -46zM448 161c72 0 131 39 131 118c0 43 -22 68 -46 84c21 14 42 37 42 76c0 72 -60 113 -127 113
c-66 0 -125 -41 -125 -113c0 -39 20 -62 41 -76c-24 -16 -46 -41 -46 -84c0 -79 59 -118 130 -118zM448 396c-23 0 -40 17 -40 41s16 42 40 42c25 0 41 -18 41 -42s-17 -41 -41 -41z" />
    <glyph glyph-name="uni2791" unicode="&#x2791;" horiz-adv-x="896" 
d="M448 -6c-200 0 -362 162 -362 362s162 362 362 362s362 -162 362 -362s-162 -362 -362 -362zM448 235c-27 0 -44 20 -44 46s19 45 44 45c26 0 45 -19 45 -45s-17 -46 -45 -46zM448 161c72 0 131 39 131 118c0 43 -22 68 -46 84c21 14 42 37 42 76c0 72 -60 113 -127 113
c-66 0 -125 -41 -125 -113c0 -39 20 -62 41 -76c-24 -16 -46 -41 -46 -84c0 -79 59 -118 130 -118zM448 396c-23 0 -40 17 -40 41s16 42 40 42c25 0 41 -18 41 -42s-17 -41 -41 -41z" />
    <glyph glyph-name="uni2792" unicode="&#x277e;" horiz-adv-x="896" 
d="M448 -6c-200 0 -362 162 -362 362s162 362 362 362s362 -162 362 -362s-162 -362 -362 -362zM370 165h95l79 160c25 49 31 76 31 103c0 82 -57 125 -127 125c-72 0 -128 -43 -128 -125c0 -75 51 -115 102 -115c10 0 19 2 26 6zM448 380c-25 0 -43 16 -43 48s18 47 43 47
c24 0 41 -15 41 -47s-17 -48 -41 -48z" />
    <glyph glyph-name="uni2792" unicode="&#x2792;" horiz-adv-x="896" 
d="M448 -6c-200 0 -362 162 -362 362s162 362 362 362s362 -162 362 -362s-162 -362 -362 -362zM370 165h95l79 160c25 49 31 76 31 103c0 82 -57 125 -127 125c-72 0 -128 -43 -128 -125c0 -75 51 -115 102 -115c10 0 19 2 26 6zM448 380c-25 0 -43 16 -43 48s18 47 43 47
c24 0 41 -15 41 -47s-17 -48 -41 -48z" />
    <glyph glyph-name="uni2793" unicode="&#x277f;" horiz-adv-x="896" 
d="M544 160c31 0 56 8 73 24c22 19 33 48 33 85v175c0 38 -11 67 -33 86c-17 15 -42 23 -73 23s-56 -8 -73 -23c-22 -19 -33 -48 -33 -86v-175c0 -37 11 -66 33 -85c17 -16 42 -24 73 -24zM544 218c-27 0 -42 16 -42 52v174c0 35 15 51 42 51s42 -16 42 -51v-174
c0 -36 -15 -52 -42 -52zM310 475v-310h65v384h-65l-67 -54v-74zM448 718c200 0 362 -162 362 -362s-162 -362 -362 -362s-362 162 -362 362s162 362 362 362z" />
    <glyph glyph-name="uni2793" unicode="&#x2793;" horiz-adv-x="896" 
d="M544 160c31 0 56 8 73 24c22 19 33 48 33 85v175c0 38 -11 67 -33 86c-17 15 -42 23 -73 23s-56 -8 -73 -23c-22 -19 -33 -48 -33 -86v-175c0 -37 11 -66 33 -85c17 -16 42 -24 73 -24zM544 218c-27 0 -42 16 -42 52v174c0 35 15 51 42 51s42 -16 42 -51v-174
c0 -36 -15 -52 -42 -52zM310 475v-310h65v384h-65l-67 -54v-74zM448 718c200 0 362 -162 362 -362s-162 -362 -362 -362s-362 162 -362 362s162 362 362 362z" />
    <glyph glyph-name="fi" unicode="&#xfb01;" horiz-adv-x="606" 
d="M315 718v-110h-51c-30 0 -45 -17 -45 -47v-55h96v-99h-96v-407h-130v407h-54v99h54v63c0 73 46 149 152 149h74zM534 506v-506h-130v506h130zM535 716v-106h-133v106h133z" />
    <glyph glyph-name="fl" unicode="&#xfb02;" horiz-adv-x="659" 
d="M315 718v-110h-51c-30 0 -45 -17 -45 -47v-55h96v-99h-96v-407h-130v407h-54v99h54v63c0 73 46 149 152 149h74zM532 712v-555c0 -31 13 -47 46 -47h50v-110h-74c-107 0 -152 74 -152 149v563h130z" />
    <glyph glyph-name="onequarter.afrc" horiz-adv-x="322" 
d="M30 324v62h262v-62h-262zM172 0v46h-129v55l91 181h67l-89 -180h60v50h58v-50h28v-56h-28v-46h-58zM126 430v202l-65 -54v79l65 55h70v-282h-70z" />
    <glyph glyph-name="onehalf.afrc" horiz-adv-x="322" 
d="M64 0v58l113 107c12 12 16 23 16 37s-13 26 -31 26c-17 0 -29 -9 -31 -31h-69c1 58 45 88 100 88c58 0 98 -33 98 -83c0 -27 -9 -43 -34 -67l-81 -77h114v-58h-195zM126 430v202l-65 -54v79l65 55h70v-282h-70zM30 324v62h262v-62h-262z" />
    <glyph glyph-name="threequarters.afrc" horiz-adv-x="322" 
d="M30 324v62h262v-62h-262zM161 427c-58 0 -102 26 -103 95h70c1 -21 14 -33 33 -33s33 13 33 34s-15 30 -34 30h-9v44h9c20 0 30 11 30 27c0 18 -12 28 -29 28c-15 0 -28 -10 -29 -30h-70c1 62 41 93 99 93c64 0 99 -40 99 -81c0 -34 -16 -50 -35 -58c20 -9 39 -28 39 -64
c0 -51 -40 -85 -103 -85zM172 0v46h-129v55l91 181h67l-89 -180h60v50h58v-50h28v-56h-28v-46h-58z" />
    <glyph glyph-name="fraction.afrc" horiz-adv-x="322" 
d="M30 324v62h262v-62h-262z" />
    <glyph glyph-name="uni2150.afrc" horiz-adv-x="322" 
d="M30 324v62h262v-62h-262zM113 0l88 226h-81v-42h-66v98h214v-57l-88 -225h-67zM126 430v202l-65 -54v79l65 55h70v-282h-70z" />
    <glyph glyph-name="uni2151.afrc" horiz-adv-x="322" 
d="M30 324v62h262v-62h-262zM116 0l51 102c-7 -2 -14 -4 -23 -4c-43 2 -88 27 -88 87c0 65 50 100 106 100c55 0 105 -35 105 -100c0 -24 -5 -45 -25 -85l-49 -100h-77zM162 147c23 0 35 16 35 38c0 23 -11 39 -35 39s-36 -16 -36 -39s13 -38 36 -38zM126 430v202l-65 -54
v79l65 55h70v-282h-70z" />
    <glyph glyph-name="uni2152.afrc" horiz-adv-x="500" 
d="M470 324h-440v62h440v-62zM130 0v202l-65 -54v79l65 55h70v-282h-70zM351 -3c-51 0 -100 34 -100 94v100c0 66 49 94 100 94s100 -28 100 -94v-100c0 -60 -49 -94 -100 -94zM351 59c20 0 30 13 30 32v100c0 19 -10 32 -30 32s-30 -13 -30 -32v-100c0 -19 10 -32 30 -32z
M212 430v202l-65 -54v79l65 55h70v-282h-70z" />
    <glyph glyph-name="onethird.afrc" horiz-adv-x="322" 
d="M30 324v62h262v-62h-262zM161 -3c-58 0 -102 26 -103 95h70c1 -21 14 -33 33 -33s33 13 33 34s-15 30 -34 30h-9v44h9c20 0 30 11 30 27c0 18 -12 28 -29 28c-15 0 -28 -10 -29 -30h-70c1 62 41 93 99 93c64 0 99 -40 99 -81c0 -34 -16 -50 -35 -58c20 -9 39 -28 39 -64
c0 -51 -40 -85 -103 -85zM126 430v202l-65 -54v79l65 55h70v-282h-70z" />
    <glyph glyph-name="twothirds.afrc" horiz-adv-x="322" 
d="M30 324v62h262v-62h-262zM64 430v58l113 107c12 12 16 23 16 37s-13 26 -31 26c-17 0 -29 -9 -31 -31h-69c1 58 45 88 100 88c58 0 98 -33 98 -83c0 -27 -9 -43 -34 -67l-81 -77h114v-58h-195zM161 -3c-58 0 -102 26 -103 95h70c1 -21 14 -33 33 -33s33 13 33 34
s-15 30 -34 30h-9v44h9c20 0 30 11 30 27c0 18 -12 28 -29 28c-15 0 -28 -10 -29 -30h-70c1 62 41 93 99 93c64 0 99 -40 99 -81c0 -34 -16 -50 -35 -58c20 -9 39 -28 39 -64c0 -51 -40 -85 -103 -85z" />
    <glyph glyph-name="uni2155.afrc" horiz-adv-x="322" 
d="M30 324v62h262v-62h-262zM159 -3c-26 0 -47 7 -62 19c-16 13 -25 32 -28 57h61c4 -14 12 -22 29 -22c20 0 31 16 31 41c0 32 -10 44 -30 44c-18 0 -27 -7 -33 -22h-54v168h169v-49h-119v-65c14 12 29 17 47 17c24 0 47 -6 65 -27c12 -14 19 -35 19 -66
c0 -23 -3 -45 -18 -65c-14 -19 -38 -30 -77 -30zM126 430v202l-65 -54v79l65 55h70v-282h-70z" />
    <glyph glyph-name="uni2156.afrc" horiz-adv-x="322" 
d="M30 324v62h262v-62h-262zM64 430v58l113 107c12 12 16 23 16 37s-13 26 -31 26c-17 0 -29 -9 -31 -31h-69c1 58 45 88 100 88c58 0 98 -33 98 -83c0 -27 -9 -43 -34 -67l-81 -77h114v-58h-195zM159 -3c-26 0 -47 7 -62 19c-16 13 -25 32 -28 57h61c4 -14 12 -22 29 -22
c20 0 31 16 31 41c0 32 -10 44 -30 44c-18 0 -27 -7 -33 -22h-54v168h169v-49h-119v-65c14 12 29 17 47 17c24 0 47 -6 65 -27c12 -14 19 -35 19 -66c0 -23 -3 -45 -18 -65c-14 -19 -38 -30 -77 -30z" />
    <glyph glyph-name="uni2157.afrc" horiz-adv-x="322" 
d="M30 324v62h262v-62h-262zM161 427c-58 0 -102 26 -103 95h70c1 -21 14 -33 33 -33s33 13 33 34s-15 30 -34 30h-9v44h9c20 0 30 11 30 27c0 18 -12 28 -29 28c-15 0 -28 -10 -29 -30h-70c1 62 41 93 99 93c64 0 99 -40 99 -81c0 -34 -16 -50 -35 -58c20 -9 39 -28 39 -64
c0 -51 -40 -85 -103 -85zM159 -3c-26 0 -47 7 -62 19c-16 13 -25 32 -28 57h61c4 -14 12 -22 29 -22c20 0 31 16 31 41c0 32 -10 44 -30 44c-18 0 -27 -7 -33 -22h-54v168h169v-49h-119v-65c14 12 29 17 47 17c24 0 47 -6 65 -27c12 -14 19 -35 19 -66c0 -23 -3 -45 -18 -65
c-14 -19 -38 -30 -77 -30z" />
    <glyph glyph-name="uni2158.afrc" horiz-adv-x="322" 
d="M30 324v62h262v-62h-262zM172 430v46h-129v55l91 181h67l-89 -180h60v50h58v-50h28v-56h-28v-46h-58zM159 -3c-26 0 -47 7 -62 19c-16 13 -25 32 -28 57h61c4 -14 12 -22 29 -22c20 0 31 16 31 41c0 32 -10 44 -30 44c-18 0 -27 -7 -33 -22h-54v168h169v-49h-119v-65
c14 12 29 17 47 17c24 0 47 -6 65 -27c12 -14 19 -35 19 -66c0 -23 -3 -45 -18 -65c-14 -19 -38 -30 -77 -30z" />
    <glyph glyph-name="uni2159.afrc" horiz-adv-x="322" 
d="M30 324v62h262v-62h-262zM161 -3c-55 0 -105 35 -105 100c0 24 5 45 25 85l49 100h77l-51 -102c7 2 14 4 23 4c43 -2 88 -27 88 -87c0 -65 -50 -100 -106 -100zM161 58c24 0 36 16 36 39s-13 38 -36 38s-35 -16 -35 -38c0 -23 11 -39 35 -39zM126 430v202l-65 -54v79
l65 55h70v-282h-70z" />
    <glyph glyph-name="uni215A.afrc" horiz-adv-x="322" 
d="M30 324v62h262v-62h-262zM159 427c-26 0 -47 7 -62 19c-16 13 -25 32 -28 57h61c4 -14 12 -22 29 -22c20 0 31 16 31 41c0 32 -10 44 -30 44c-18 0 -27 -7 -33 -22h-54v168h169v-49h-119v-65c14 12 29 17 47 17c24 0 47 -6 65 -27c12 -14 19 -35 19 -66
c0 -23 -3 -45 -18 -65c-14 -19 -38 -30 -77 -30zM161 -3c-55 0 -105 35 -105 100c0 24 5 45 25 85l49 100h77l-51 -102c7 2 14 4 23 4c43 -2 88 -27 88 -87c0 -65 -50 -100 -106 -100zM161 58c24 0 36 16 36 39s-13 38 -36 38s-35 -16 -35 -38c0 -23 11 -39 35 -39z" />
    <glyph glyph-name="oneeighth.afrc" horiz-adv-x="322" 
d="M30 324v62h262v-62h-262zM161 -4c-55 0 -103 30 -103 89c0 29 16 49 34 60c-17 12 -31 28 -31 55c0 55 50 84 100 84c51 0 100 -29 100 -84c0 -27 -13 -43 -31 -55c19 -11 35 -31 35 -60c0 -59 -49 -89 -104 -89zM161 55c19 0 33 14 33 33s-14 33 -33 33
c-18 0 -33 -14 -33 -33s15 -33 33 -33zM161 167c17 0 30 12 30 29s-13 30 -30 30c-16 0 -30 -13 -30 -30s14 -29 30 -29zM126 430v202l-65 -54v79l65 55h70v-282h-70z" />
    <glyph glyph-name="threeeighths.afrc" horiz-adv-x="322" 
d="M30 324v62h262v-62h-262zM161 426c-58 0 -102 26 -103 95h70c1 -21 14 -33 33 -33s33 13 33 34s-15 30 -34 30h-9v44h9c20 0 30 11 30 27c0 18 -12 28 -29 28c-15 0 -28 -10 -29 -30h-70c1 62 41 93 99 93c64 0 99 -40 99 -81c0 -34 -16 -50 -35 -58c20 -9 39 -28 39 -64
c0 -51 -40 -85 -103 -85zM161 -4c-55 0 -103 30 -103 89c0 29 16 49 34 60c-17 12 -31 28 -31 55c0 55 50 84 100 84c51 0 100 -29 100 -84c0 -27 -13 -43 -31 -55c19 -11 35 -31 35 -60c0 -59 -49 -89 -104 -89zM161 55c19 0 33 14 33 33s-14 33 -33 33
c-18 0 -33 -14 -33 -33s15 -33 33 -33zM161 167c17 0 30 12 30 29s-13 30 -30 30c-16 0 -30 -13 -30 -30s14 -29 30 -29z" />
    <glyph glyph-name="fiveeighths.afrc" horiz-adv-x="322" 
d="M30 324v62h262v-62h-262zM159 427c-26 0 -47 7 -62 19c-16 13 -25 32 -28 57h61c4 -14 12 -22 29 -22c20 0 31 16 31 41c0 32 -10 44 -30 44c-18 0 -27 -7 -33 -22h-54v168h169v-49h-119v-65c14 12 29 17 47 17c24 0 47 -6 65 -27c12 -14 19 -35 19 -66
c0 -23 -3 -45 -18 -65c-14 -19 -38 -30 -77 -30zM161 -4c-55 0 -103 30 -103 89c0 29 16 49 34 60c-17 12 -31 28 -31 55c0 55 50 84 100 84c51 0 100 -29 100 -84c0 -27 -13 -43 -31 -55c19 -11 35 -31 35 -60c0 -59 -49 -89 -104 -89zM161 55c19 0 33 14 33 33
s-14 33 -33 33c-18 0 -33 -14 -33 -33s15 -33 33 -33zM161 167c17 0 30 12 30 29s-13 30 -30 30c-16 0 -30 -13 -30 -30s14 -29 30 -29z" />
    <glyph glyph-name="seveneighths.afrc" horiz-adv-x="322" 
d="M30 324v62h262v-62h-262zM110 430l88 226h-81v-42h-66v98h214v-57l-88 -225h-67zM161 -4c-55 0 -103 30 -103 89c0 29 16 49 34 60c-17 12 -31 28 -31 55c0 55 50 84 100 84c51 0 100 -29 100 -84c0 -27 -13 -43 -31 -55c19 -11 35 -31 35 -60c0 -59 -49 -89 -104 -89z
M161 55c19 0 33 14 33 33s-14 33 -33 33c-18 0 -33 -14 -33 -33s15 -33 33 -33zM161 167c17 0 30 12 30 29s-13 30 -30 30c-16 0 -30 -13 -30 -30s14 -29 30 -29z" />
    <glyph glyph-name="uni215F.afrc" horiz-adv-x="322" 
d="M30 324v62h262v-62h-262zM126 430v202l-65 -54v79l65 55h70v-282h-70z" />
    <glyph glyph-name="uni2189.afrc" horiz-adv-x="322" 
d="M30 324v62h262v-62h-262zM161 427c-51 0 -100 34 -100 94v100c0 66 49 94 100 94s100 -28 100 -94v-100c0 -60 -49 -94 -100 -94zM161 489c20 0 30 13 30 32v100c0 19 -10 32 -30 32s-30 -13 -30 -32v-100c0 -19 10 -32 30 -32zM161 -3c-58 0 -102 26 -103 95h70
c1 -21 14 -33 33 -33s33 13 33 34s-15 30 -34 30h-9v44h9c20 0 30 11 30 27c0 18 -12 28 -29 28c-15 0 -28 -10 -29 -30h-70c1 62 41 93 99 93c64 0 99 -40 99 -81c0 -34 -16 -50 -35 -58c20 -9 39 -28 39 -64c0 -51 -40 -85 -103 -85z" />
    <glyph glyph-name="zero.sinf" horiz-adv-x="244" 
d="M122 -3c-51 0 -100 34 -100 94v100c0 66 49 94 100 94s100 -28 100 -94v-100c0 -60 -49 -94 -100 -94zM122 59c20 0 30 13 30 32v100c0 19 -10 32 -30 32s-30 -13 -30 -32v-100c0 -19 10 -32 30 -32z" />
    <glyph glyph-name="one.sinf" horiz-adv-x="242" 
d="M106 0v202l-65 -54v79l65 55h70v-282h-70z" />
    <glyph glyph-name="two.sinf" horiz-adv-x="242" 
d="M26 0v58l113 107c12 12 16 23 16 37s-13 26 -31 26c-17 0 -29 -9 -31 -31h-69c1 58 45 88 100 88c58 0 98 -33 98 -83c0 -27 -9 -43 -34 -67l-81 -77h114v-58h-195z" />
    <glyph glyph-name="three.sinf" horiz-adv-x="242" 
d="M120 -3c-58 0 -102 26 -103 95h70c1 -21 14 -33 33 -33s33 13 33 34s-15 30 -34 30h-9v44h9c20 0 30 11 30 27c0 18 -12 28 -29 28c-15 0 -28 -10 -29 -30h-70c1 62 41 93 99 93c64 0 99 -40 99 -81c0 -34 -16 -50 -35 -58c20 -9 39 -28 39 -64c0 -51 -40 -85 -103 -85z
" />
    <glyph glyph-name="four.sinf" horiz-adv-x="239" 
d="M141 0v46h-129v55l91 181h67l-89 -180h60v50h58v-50h28v-56h-28v-46h-58z" />
    <glyph glyph-name="five.sinf" horiz-adv-x="228" 
d="M113 -3c-26 0 -47 7 -62 19c-16 13 -25 32 -28 57h61c4 -14 12 -22 29 -22c20 0 31 16 31 41c0 32 -10 44 -30 44c-18 0 -27 -7 -33 -22h-54v168h169v-49h-119v-65c14 12 29 17 47 17c24 0 47 -6 65 -27c12 -14 19 -35 19 -66c0 -23 -3 -45 -18 -65
c-14 -19 -38 -30 -77 -30z" />
    <glyph glyph-name="six.sinf" horiz-adv-x="251" 
d="M125 -3c-55 0 -105 35 -105 100c0 24 5 45 25 85l49 100h77l-51 -102c7 2 14 4 23 4c43 -2 88 -27 88 -87c0 -65 -50 -100 -106 -100zM125 58c24 0 36 16 36 39s-13 38 -36 38s-35 -16 -35 -38c0 -23 11 -39 35 -39z" />
    <glyph glyph-name="seven.sinf" horiz-adv-x="250" 
d="M79 0l88 226h-81v-42h-66v98h214v-57l-88 -225h-67z" />
    <glyph glyph-name="eight.sinf" horiz-adv-x="241" 
d="M120 -4c-55 0 -103 30 -103 89c0 29 16 49 34 60c-17 12 -31 28 -31 55c0 55 50 84 100 84c51 0 100 -29 100 -84c0 -27 -13 -43 -31 -55c19 -11 35 -31 35 -60c0 -59 -49 -89 -104 -89zM120 55c19 0 33 14 33 33s-14 33 -33 33c-18 0 -33 -14 -33 -33s15 -33 33 -33z
M120 167c17 0 30 12 30 29s-13 30 -30 30c-16 0 -30 -13 -30 -30s14 -29 30 -29z" />
    <glyph glyph-name="nine.sinf" horiz-adv-x="251" 
d="M81 0l51 102c-7 -2 -14 -4 -23 -4c-43 2 -88 27 -88 87c0 65 50 100 106 100c55 0 105 -35 105 -100c0 -24 -5 -45 -25 -85l-49 -100h-77zM127 147c23 0 35 16 35 38c0 23 -11 39 -35 39s-36 -16 -36 -39s13 -38 36 -38z" />
    <glyph glyph-name="zero.sups" horiz-adv-x="244" 
d="M122 431c-51 0 -100 34 -100 94v100c0 66 49 94 100 94s100 -28 100 -94v-100c0 -60 -49 -94 -100 -94zM122 493c20 0 30 13 30 32v100c0 19 -10 32 -30 32s-30 -13 -30 -32v-100c0 -19 10 -32 30 -32z" />
    <glyph glyph-name="one.sups" horiz-adv-x="242" 
d="M106 434v202l-65 -54v79l65 55h70v-282h-70z" />
    <glyph glyph-name="two.sups" horiz-adv-x="242" 
d="M26 434v58l113 107c12 12 16 23 16 37s-13 26 -31 26c-17 0 -29 -9 -31 -31h-69c1 58 45 88 100 88c58 0 98 -33 98 -83c0 -27 -9 -43 -34 -67l-81 -77h114v-58h-195z" />
    <glyph glyph-name="three.sups" horiz-adv-x="242" 
d="M120 431c-58 0 -102 26 -103 95h70c1 -21 14 -33 33 -33s33 13 33 34s-15 30 -34 30h-9v44h9c20 0 30 11 30 27c0 18 -12 28 -29 28c-15 0 -28 -10 -29 -30h-70c1 62 41 93 99 93c64 0 99 -40 99 -81c0 -34 -16 -50 -35 -58c20 -9 39 -28 39 -64c0 -51 -40 -85 -103 -85z
" />
    <glyph glyph-name="four.sups" horiz-adv-x="239" 
d="M141 434v46h-129v55l91 181h67l-89 -180h60v50h58v-50h28v-56h-28v-46h-58z" />
    <glyph glyph-name="five.sups" horiz-adv-x="228" 
d="M113 431c-26 0 -47 7 -62 19c-16 13 -25 32 -28 57h61c4 -14 12 -22 29 -22c20 0 31 16 31 41c0 32 -10 44 -30 44c-18 0 -27 -7 -33 -22h-54v168h169v-49h-119v-65c14 12 29 17 47 17c24 0 47 -6 65 -27c12 -14 19 -35 19 -66c0 -23 -3 -45 -18 -65
c-14 -19 -38 -30 -77 -30z" />
    <glyph glyph-name="six.sups" horiz-adv-x="251" 
d="M125 431c-55 0 -105 35 -105 100c0 24 5 45 25 85l49 100h77l-51 -102c7 2 14 4 23 4c43 -2 88 -27 88 -87c0 -65 -50 -100 -106 -100zM125 492c24 0 36 16 36 39s-13 38 -36 38s-35 -16 -35 -38c0 -23 11 -39 35 -39z" />
    <glyph glyph-name="seven.sups" horiz-adv-x="250" 
d="M79 434l88 226h-81v-42h-66v98h214v-57l-88 -225h-67z" />
    <glyph glyph-name="eight.sups" horiz-adv-x="241" 
d="M120 430c-55 0 -103 30 -103 89c0 29 16 49 34 60c-17 12 -31 28 -31 55c0 55 50 84 100 84c51 0 100 -29 100 -84c0 -27 -13 -43 -31 -55c19 -11 35 -31 35 -60c0 -59 -49 -89 -104 -89zM120 489c19 0 33 14 33 33s-14 33 -33 33c-18 0 -33 -14 -33 -33s15 -33 33 -33z
M120 601c17 0 30 12 30 29s-13 30 -30 30c-16 0 -30 -13 -30 -30s14 -29 30 -29z" />
    <glyph glyph-name="nine.sups" horiz-adv-x="251" 
d="M81 434l51 102c-7 -2 -14 -4 -23 -4c-43 2 -88 27 -88 87c0 65 50 100 106 100c55 0 105 -35 105 -100c0 -24 -5 -45 -25 -85l-49 -100h-77zM127 581c23 0 35 16 35 38c0 23 -11 39 -35 39s-36 -16 -36 -39s13 -38 36 -38z" />
    <glyph glyph-name="a.sups" horiz-adv-x="290" 
d="M110 324c-32 0 -51 8 -67 24c-16 17 -24 40 -24 65c0 43 26 77 96 77h61v15c0 24 -15 36 -47 36c-21 0 -34 -7 -47 -20l-50 49c28 28 52 41 101 41c82 0 121 -34 121 -102v-181h-78v25c-15 -19 -38 -29 -66 -29zM130 385c25 0 46 17 46 43v14h-30c-35 0 -51 -16 -51 -32
c0 -18 14 -25 35 -25z" />
    <glyph glyph-name="b.sups" horiz-adv-x="310" 
d="M185 324c-33 0 -54 12 -68 31v-27h-78v384h81v-128c15 17 34 27 65 27s55 -11 71 -30c21 -24 26 -67 26 -114c0 -45 -4 -87 -26 -114c-15 -18 -42 -29 -71 -29zM160 397c36 0 41 27 41 70s-5 71 -41 71c-35 0 -40 -28 -40 -71s5 -70 40 -70z" />
    <glyph glyph-name="c.sups" horiz-adv-x="263" 
d="M157 324c-54 0 -129 23 -129 143s75 144 129 144c38 0 69 -15 91 -37l-54 -53c-11 12 -21 17 -37 17c-15 0 -25 -6 -33 -15c-10 -12 -14 -31 -14 -56s4 -43 14 -55c8 -10 18 -15 33 -15c16 0 26 4 37 17l54 -53c-22 -23 -53 -37 -91 -37z" />
    <glyph glyph-name="d.sups" horiz-adv-x="310" 
d="M125 324c-30 0 -56 9 -72 29c-21 27 -26 69 -26 114c0 47 5 90 26 114c17 19 41 30 71 30c31 0 51 -10 65 -27v128h82v-384h-79v27c-13 -19 -34 -31 -67 -31zM149 397c36 0 40 27 40 70s-4 71 -40 71c-35 0 -40 -28 -40 -71s5 -70 40 -70z" />
    <glyph glyph-name="e.sups" horiz-adv-x="299" 
d="M158 324c-77 0 -130 42 -130 140c0 94 43 147 124 147c66 0 118 -39 119 -156v-7h-169c0 -33 20 -57 56 -57c26 0 44 10 60 25l47 -45c-31 -34 -60 -47 -107 -47zM101 492h102c-1 15 -3 24 -9 34c-7 11 -21 21 -42 21s-35 -10 -42 -21c-6 -10 -8 -19 -9 -34z" />
    <glyph glyph-name="g.sups" horiz-adv-x="311" 
d="M146 220c-45 0 -76 9 -105 37l45 46c15 -13 33 -19 56 -19c34 0 48 22 48 59v24c-13 -22 -37 -33 -69 -33c-28 0 -53 13 -69 33c-19 23 -24 53 -24 100c0 57 7 87 24 110c14 20 41 34 74 34c32 0 49 -10 64 -29v25h82v-264c0 -79 -47 -123 -126 -123zM150 395
c34 0 40 27 40 72s-6 71 -40 71c-35 0 -40 -26 -40 -71s5 -72 40 -72z" />
    <glyph glyph-name="h.sups" horiz-adv-x="316" 
d="M120 712v-130c17 19 40 29 66 29c28 0 51 -9 67 -25c18 -18 27 -45 27 -80v-178h-81v167c0 32 -16 43 -39 43c-20 0 -40 -13 -40 -43v-167h-81v384h81z" />
    <glyph glyph-name="l.sups" horiz-adv-x="190" 
d="M119 712v-285c0 -17 6 -25 19 -25h35v-74h-49c-61 0 -87 48 -87 92v292h82z" />
    <glyph glyph-name="m.sups" horiz-adv-x="476" 
d="M346 611c27 0 48 -9 65 -24c25 -24 29 -51 29 -81v-178h-82v167c0 29 -17 43 -39 43c-21 0 -39 -14 -39 -43v-167h-81v167c0 29 -18 43 -39 43c-22 0 -40 -14 -40 -43v-167h-81v279h81v-25c17 19 40 29 66 29c22 0 40 -7 53 -18c6 -4 12 -9 16 -15c25 23 44 33 91 33z
" />
    <glyph glyph-name="o.sups" horiz-adv-x="301" 
d="M150 612c45 0 74 -18 92 -35c24 -24 32 -53 32 -109s-7 -86 -32 -110c-18 -17 -47 -34 -92 -34c-44 0 -74 17 -92 34c-23 25 -31 54 -31 110s8 85 31 109c18 18 48 35 92 35zM150 538c-13 0 -24 -5 -30 -13c-8 -10 -12 -31 -12 -57c0 -27 4 -47 12 -57
c6 -8 17 -13 30 -13c14 0 24 5 30 13c8 10 12 30 12 57c0 26 -4 47 -12 57c-6 8 -16 13 -30 13z" />
    <glyph glyph-name="p.sups" horiz-adv-x="310" 
d="M39 223v384h78v-27c14 19 35 31 68 31c29 0 56 -11 71 -29c22 -27 26 -69 26 -114c0 -47 -5 -90 -26 -114c-16 -19 -40 -30 -71 -30s-50 10 -65 27v-128h-81zM160 397c36 0 41 28 41 71s-5 70 -41 70c-35 0 -40 -27 -40 -70s5 -71 40 -71z" />
    <glyph glyph-name="r.sups" horiz-adv-x="267" 
d="M194 611c29 0 50 -9 72 -30l-60 -62c-10 11 -21 19 -38 19c-19 0 -47 -14 -47 -59v-151h-81v279h79v-31c15 19 42 35 75 35z" />
    <glyph glyph-name="s.sups" horiz-adv-x="279" 
d="M134 325c-57 0 -93 12 -122 38l46 48c24 -22 55 -30 77 -30c27 0 55 11 55 32c0 18 -12 25 -34 27l-47 4c-45 4 -84 23 -84 76c0 61 54 91 115 91c56 0 88 -13 111 -32l-45 -46c-14 13 -34 21 -66 21c-27 0 -44 -13 -44 -29c0 -14 7 -22 29 -25l48 -4
c57 -5 87 -34 87 -79c0 -64 -56 -92 -126 -92z" />
    <glyph glyph-name="t.sups" horiz-adv-x="206" 
d="M128 684v-81h52v-65h-52v-111c0 -17 6 -25 20 -25h34v-74h-48c-62 0 -88 48 -88 93v117h-30v65h30v81h82z" />
    <glyph glyph-name="u.sups" horiz-adv-x="315" 
d="M129 323c-27 0 -48 9 -64 24c-25 24 -29 50 -29 81v178h81v-167c0 -31 16 -42 38 -42c21 0 40 13 40 42v167h81v-279h-81v26c-16 -19 -39 -30 -66 -30z" />
    <glyph glyph-name="copyright.sups" horiz-adv-x="522" 
d="M261 266c-125 0 -226 101 -226 226s101 226 226 226s226 -101 226 -226s-101 -226 -226 -226zM270 368c-52 0 -110 32 -110 124s58 124 110 124c33 0 57 -12 78 -32l-38 -38c-13 12 -25 17 -40 17c-16 0 -26 -5 -36 -15c-10 -11 -14 -32 -14 -56s4 -45 14 -56
c10 -10 20 -15 36 -15c15 0 27 5 40 17l38 -38c-21 -20 -45 -32 -78 -32zM261 317c98 0 172 74 172 175c0 102 -74 175 -172 175c-97 0 -172 -73 -172 -175c0 -101 75 -175 172 -175z" />
    <glyph glyph-name="registered.sups" horiz-adv-x="522" 
d="M261 266c-125 0 -226 101 -226 226s101 226 226 226s226 -101 226 -226s-101 -226 -226 -226zM261 317c98 0 172 74 172 175c0 102 -74 175 -172 175c-97 0 -172 -73 -172 -175c0 -101 75 -175 172 -175zM164 373v240h109c45 0 84 -26 84 -76c0 -32 -16 -56 -44 -67
l53 -97h-64l-49 89h-30v-89h-59zM223 512h44c19 0 30 7 30 25s-11 25 -30 25h-44v-50z" />
    <glyph glyph-name="egrave.sups" horiz-adv-x="299" 
d="M154 737l37 -93h-59l-55 93h77zM158 324c-77 0 -130 42 -130 140c0 94 43 147 124 147c66 0 118 -39 119 -156v-7h-169c0 -33 20 -57 56 -57c26 0 44 10 60 25l47 -45c-31 -34 -60 -47 -107 -47zM101 492h102c-1 15 -3 24 -9 34c-7 11 -21 21 -42 21s-35 -10 -42 -21
c-6 -10 -8 -19 -9 -34z" />
    <glyph glyph-name="uni2117.sups" horiz-adv-x="522" 
d="M261 266c-125 0 -226 101 -226 226s101 226 226 226s226 -101 226 -226s-101 -226 -226 -226zM261 317c98 0 172 74 172 175c0 102 -74 175 -172 175c-97 0 -172 -73 -172 -175c0 -101 75 -175 172 -175zM177 373v240h110c44 0 83 -26 83 -77s-39 -76 -83 -76h-51v-87
h-59zM236 510h44c20 0 31 7 31 26s-11 26 -31 26h-44v-52z" />
    <glyph glyph-name="zero.numr" horiz-adv-x="341" 
d="M171 280c-72 0 -138 46 -138 132v173c0 85 66 131 138 131s138 -46 138 -131v-173c0 -86 -66 -132 -138 -132zM171 365c25 0 43 17 43 47v172c0 30 -18 47 -43 47c-26 0 -43 -16 -43 -47v-172c0 -31 17 -47 43 -47z" />
    <glyph glyph-name="one.numr" horiz-adv-x="346" 
d="M152 285v321l-90 -78v106l90 78h95v-427h-95z" />
    <glyph glyph-name="two.numr" horiz-adv-x="342" 
d="M35 285v85l160 171c17 18 24 29 24 50c0 23 -17 40 -45 40c-24 0 -44 -11 -44 -44h-95c0 83 63 129 139 129c80 0 136 -47 136 -125c0 -42 -12 -63 -51 -104l-113 -122h166v-80h-277z" />
    <glyph glyph-name="three.numr" horiz-adv-x="342" 
d="M169 280c-72 0 -143 37 -144 132h95c0 -34 22 -50 49 -50c28 0 50 21 50 50c0 33 -19 50 -51 50h-12v82h12c29 0 46 19 46 45c0 30 -19 45 -44 45c-28 0 -44 -18 -45 -45h-94c1 79 63 127 139 127c80 0 139 -52 139 -126c0 -46 -16 -68 -48 -84c32 -18 52 -46 52 -95
c0 -88 -67 -131 -144 -131z" />
    <glyph glyph-name="four.numr" horiz-adv-x="359" 
d="M199 285v59h-172v77l140 291h99l-142 -291h75v78h88v-78h38v-77h-38v-59h-88z" />
    <glyph glyph-name="five.numr" horiz-adv-x="340" 
d="M172 281c-48 0 -81 17 -101 36c-29 29 -33 50 -37 88h95c2 -29 16 -46 43 -46c13 0 24 4 32 12c10 12 12 31 12 58c0 45 -13 64 -44 64c-26 0 -38 -14 -43 -30h-88v249h260v-78h-173v-80c14 11 33 18 59 18c37 0 65 -12 83 -30c35 -34 40 -72 40 -113
c0 -50 -7 -80 -39 -111c-20 -20 -51 -37 -99 -37z" />
    <glyph glyph-name="six.numr" horiz-adv-x="342" 
d="M170 281c-78 0 -142 47 -142 137c0 31 8 59 36 115l90 179h103l-89 -171c9 3 18 5 29 5c57 0 114 -44 114 -128c0 -89 -63 -137 -141 -137zM169 366c27 0 48 17 48 52c0 34 -20 52 -48 52c-26 0 -47 -17 -47 -52s20 -52 47 -52z" />
    <glyph glyph-name="seven.numr" horiz-adv-x="347" 
d="M85 285l138 349h-102v-76h-86v154h283v-77l-138 -350h-95z" />
    <glyph glyph-name="eight.numr" horiz-adv-x="340" 
d="M170 281c-79 0 -144 43 -144 131c0 48 26 76 51 93c-21 15 -46 41 -46 85c0 80 65 126 139 126s139 -46 139 -126c0 -44 -25 -70 -46 -85c25 -17 51 -45 51 -93c0 -88 -65 -131 -144 -131zM170 362c30 0 50 23 50 51c0 29 -22 49 -50 49s-50 -20 -50 -49
c0 -28 20 -51 50 -51zM170 544c26 0 45 19 45 45s-17 46 -45 46s-45 -20 -45 -46s19 -45 45 -45z" />
    <glyph glyph-name="nine.numr" horiz-adv-x="339" 
d="M84 284l87 170c-9 -3 -18 -4 -28 -4c-56 0 -112 44 -112 128c0 89 63 137 140 137s140 -47 140 -137c0 -31 -9 -59 -36 -115l-87 -179h-104zM171 526c26 0 46 17 46 52s-19 52 -46 52c-26 0 -45 -17 -45 -52c0 -34 19 -52 45 -52z" />
    <glyph glyph-name="zero.dnom" horiz-adv-x="342" 
d="M171 -5c-72 0 -138 46 -138 132v173c0 85 66 131 138 131s138 -46 138 -131v-173c0 -86 -66 -132 -138 -132zM171 80c25 0 43 17 43 47v172c0 30 -18 47 -43 47c-26 0 -43 -16 -43 -47v-172c0 -31 17 -47 43 -47z" />
    <glyph glyph-name="one.dnom" horiz-adv-x="346" 
d="M152 0v321l-90 -78v106l90 78h95v-427h-95z" />
    <glyph glyph-name="two.dnom" horiz-adv-x="342" 
d="M35 0v85l160 171c17 18 24 29 24 50c0 23 -17 40 -45 40c-24 0 -44 -11 -44 -44h-95c0 83 63 129 139 129c80 0 136 -47 136 -125c0 -42 -12 -63 -51 -104l-113 -122h166v-80h-277z" />
    <glyph glyph-name="three.dnom" horiz-adv-x="342" 
d="M169 -5c-72 0 -143 37 -144 132h95c0 -34 22 -50 49 -50c28 0 50 21 50 50c0 33 -19 50 -51 50h-12v82h12c29 0 46 19 46 45c0 30 -19 45 -44 45c-28 0 -44 -18 -45 -45h-94c1 79 63 127 139 127c80 0 139 -52 139 -126c0 -46 -16 -68 -48 -84c32 -18 52 -46 52 -95
c0 -88 -67 -131 -144 -131z" />
    <glyph glyph-name="four.dnom" horiz-adv-x="339" 
d="M191 0v59h-172v77l140 291h99l-142 -291h75v78h88v-78h38v-77h-38v-59h-88z" />
    <glyph glyph-name="five.dnom" horiz-adv-x="340" 
d="M172 -4c-48 0 -81 17 -101 36c-29 29 -33 50 -37 88h95c2 -29 16 -46 43 -46c13 0 24 4 32 12c10 12 12 31 12 58c0 45 -13 64 -44 64c-26 0 -38 -14 -43 -30h-88v249h260v-78h-173v-80c14 11 33 18 59 18c37 0 65 -12 83 -30c35 -34 40 -72 40 -113
c0 -50 -7 -80 -39 -111c-20 -20 -51 -37 -99 -37z" />
    <glyph glyph-name="six.dnom" horiz-adv-x="342" 
d="M170 -4c-78 0 -142 47 -142 137c0 31 8 59 36 115l90 179h103l-89 -171c9 3 18 5 29 5c57 0 114 -44 114 -128c0 -89 -63 -137 -141 -137zM169 81c27 0 48 17 48 52c0 34 -20 52 -48 52c-26 0 -47 -17 -47 -52s20 -52 47 -52z" />
    <glyph glyph-name="seven.dnom" horiz-adv-x="337" 
d="M80 0l138 349h-102v-76h-86v154h283v-77l-138 -350h-95z" />
    <glyph glyph-name="eight.dnom" horiz-adv-x="340" 
d="M170 -4c-79 0 -144 43 -144 131c0 48 26 76 51 93c-21 15 -46 41 -46 85c0 80 65 126 139 126s139 -46 139 -126c0 -44 -25 -70 -46 -85c25 -17 51 -45 51 -93c0 -88 -65 -131 -144 -131zM170 77c30 0 50 23 50 51c0 29 -22 49 -50 49s-50 -20 -50 -49
c0 -28 20 -51 50 -51zM170 259c26 0 45 19 45 45s-17 46 -45 46s-45 -20 -45 -46s19 -45 45 -45z" />
    <glyph glyph-name="nine.dnom" horiz-adv-x="339" 
d="M84 0l87 170c-9 -3 -18 -4 -28 -4c-56 0 -112 44 -112 128c0 89 63 137 140 137s140 -47 140 -137c0 -31 -9 -59 -36 -115l-87 -179h-104zM171 242c26 0 46 17 46 52s-19 52 -46 52c-26 0 -45 -17 -45 -52c0 -34 19 -52 45 -52z" />
    <glyph glyph-name="space.frac" horiz-adv-x="46" 
 />
    <glyph glyph-name="zero.osf" horiz-adv-x="544" 
d="M272 -6c-116 0 -217 76 -217 212v185c0 136 101 212 217 212c115 0 216 -76 216 -212v-185c0 -136 -101 -212 -216 -212zM272 111c51 0 86 36 86 96v182c0 60 -35 97 -86 97c-52 0 -87 -37 -87 -97v-182c0 -60 35 -96 87 -96z" />
    <glyph glyph-name="one.osf" horiz-adv-x="438" 
d="M199 0v457l-146 -126v140l146 126h130v-597h-130z" />
    <glyph glyph-name="two.osf" horiz-adv-x="548" 
d="M43 0v117l233 199c44 37 71 70 71 108c0 47 -34 82 -86 82c-43 0 -87 -26 -87 -88h-130c0 127 98 205 217 205c124 0 216 -78 216 -197c0 -77 -55 -130 -127 -194l-129 -115h269v-117h-447z" />
    <glyph glyph-name="three.osf" horiz-adv-x="535" 
d="M260 -122c-116 0 -225 62 -227 210h130c2 -64 46 -93 97 -93c55 0 96 35 96 99c0 59 -36 98 -100 98h-19v113h19c64 0 90 40 90 90c0 60 -40 91 -87 91c-49 0 -85 -32 -88 -86h-130c4 127 98 203 218 203c126 0 217 -84 217 -204c0 -78 -35 -121 -82 -146
c52 -27 92 -75 92 -162c0 -143 -104 -213 -226 -213z" />
    <glyph glyph-name="four.osf" horiz-adv-x="590" 
d="M346 -123v153h-307v123l244 488h139l-243 -488h167v147h124v-147h80v-123h-80v-153h-124z" />
    <glyph glyph-name="five.osf" horiz-adv-x="551" 
d="M279 -121c-73 0 -128 26 -159 57c-44 45 -54 97 -58 148h130c7 -56 33 -88 87 -88c26 0 46 7 62 23c23 23 28 60 28 106c0 82 -24 128 -87 128c-53 0 -77 -31 -86 -58h-119v402h406v-117h-288v-153c19 18 59 36 107 36c59 0 104 -19 133 -48c56 -56 64 -123 64 -190
c0 -81 -11 -136 -63 -188c-32 -32 -84 -58 -157 -58z" />
    <glyph glyph-name="six.osf" horiz-adv-x="549" 
d="M275 -6c-132 0 -234 81 -234 228c0 83 24 145 69 227l155 279h139l-170 -297c21 12 44 15 76 15c105 0 198 -79 198 -221c0 -147 -102 -231 -233 -231zM274 106c60 0 104 44 104 117c0 70 -41 117 -104 117c-59 0 -103 -43 -103 -117c0 -73 44 -117 103 -117z" />
    <glyph glyph-name="seven.osf" horiz-adv-x="553" 
d="M115 -118l263 598h-209v-112h-124v229h473v-117l-263 -598h-140z" />
    <glyph glyph-name="eight.osf" horiz-adv-x="561" 
d="M280 -6c-126 0 -228 75 -228 213c0 87 51 134 90 160c-36 25 -80 72 -80 148c0 125 100 203 218 203c119 0 219 -78 219 -203c0 -76 -43 -123 -80 -148c39 -26 90 -73 90 -160c0 -138 -102 -213 -229 -213zM280 111c55 0 99 43 99 98s-44 99 -99 99
c-54 0 -98 -44 -98 -99s44 -98 98 -98zM280 421c51 0 89 38 89 90s-38 90 -89 90c-50 0 -88 -38 -88 -90s38 -90 88 -90z" />
    <glyph glyph-name="nine.osf" horiz-adv-x="549" 
d="M145 -131l170 297c-21 -12 -44 -15 -76 -15c-105 0 -198 79 -198 221c0 147 102 231 233 231c132 0 234 -81 234 -228c0 -83 -24 -145 -69 -227l-154 -279h-140zM275 257c59 0 103 43 103 117c0 73 -44 117 -103 117c-60 0 -104 -44 -104 -117c0 -70 42 -117 104 -117z
" />
    <glyph glyph-name="zero.lf" 
d="M271 -6c-115 0 -216 76 -216 212v300c0 136 101 212 216 212c116 0 217 -76 217 -212v-300c0 -136 -101 -212 -217 -212zM271 111c52 0 87 36 87 96v297c0 60 -35 97 -87 97c-51 0 -86 -37 -86 -97v-297c0 -60 35 -96 86 -96z" />
    <glyph glyph-name="one.lf" horiz-adv-x="430" 
d="M198 0v572l-145 -126v140l145 126h130v-712h-130z" />
    <glyph glyph-name="two.lf" horiz-adv-x="528" 
d="M44 0v117l266 309c26 31 38 53 38 86c0 53 -31 89 -86 89c-44 0 -88 -22 -88 -91h-130c0 130 96 208 218 208c126 0 216 -79 216 -207c0 -68 -28 -106 -77 -163l-199 -231h276v-117h-434z" />
    <glyph glyph-name="three.lf" horiz-adv-x="538" 
d="M260 -6c-116 0 -225 61 -227 210h130c2 -64 46 -93 97 -93c55 0 96 34 96 99c0 59 -36 98 -100 98h-19v113h19c64 0 90 39 90 89c0 60 -40 91 -87 91c-49 0 -85 -32 -88 -86h-130c4 128 98 203 218 203c126 0 217 -83 217 -204c0 -77 -35 -121 -82 -146
c52 -27 92 -75 92 -162c0 -142 -104 -212 -226 -212z" />
    <glyph glyph-name="four.lf" horiz-adv-x="561" 
d="M331 0v101h-291v123l244 488h142l-244 -488h149v133h124v-133h66v-123h-66v-101h-124z" />
    <glyph glyph-name="five.lf" horiz-adv-x="550" 
d="M277 -6c-74 0 -128 26 -159 57c-44 45 -54 97 -58 148h130c7 -56 33 -88 87 -88c26 0 46 7 62 23c23 23 27 60 27 106c0 82 -24 128 -86 128c-54 0 -77 -31 -86 -58h-119v402h406v-117h-288v-153c19 18 59 36 107 36c59 0 104 -19 133 -48c56 -56 63 -123 63 -190
c0 -81 -10 -136 -62 -188c-32 -32 -84 -58 -157 -58z" />
    <glyph glyph-name="six.lf" horiz-adv-x="524" 
d="M262 -6c-126 0 -222 80 -222 220c0 51 13 97 55 181l155 317h141l-149 -296c17 8 37 11 54 11c96 0 188 -79 188 -211c0 -139 -96 -222 -222 -222zM262 111c53 0 92 38 92 104c0 63 -37 104 -92 104c-53 0 -92 -38 -92 -104s39 -104 92 -104z" />
    <glyph glyph-name="seven.lf" horiz-adv-x="531" 
d="M125 0l231 595h-188v-112h-125v229h454v-117l-231 -595h-141z" />
    <glyph glyph-name="eight.lf" horiz-adv-x="560" 
d="M280 -6c-126 0 -228 75 -228 213c0 87 51 134 90 160c-36 25 -80 72 -80 148c0 125 100 203 218 203c119 0 219 -78 219 -203c0 -76 -43 -123 -80 -148c39 -26 90 -73 90 -160c0 -138 -102 -213 -229 -213zM280 111c55 0 99 43 99 98s-44 99 -99 99
c-54 0 -98 -44 -98 -99s44 -98 98 -98zM280 421c51 0 89 38 89 90s-38 90 -89 90c-50 0 -88 -38 -88 -90s38 -90 88 -90z" />
    <glyph glyph-name="nine.lf" horiz-adv-x="524" 
d="M133 0l149 296c-17 -8 -37 -11 -54 -11c-96 0 -188 79 -188 211c0 139 96 222 222 222c125 0 222 -80 222 -220c0 -51 -13 -97 -55 -181l-155 -317h-141zM262 393c53 0 92 38 92 104s-39 104 -92 104s-92 -38 -92 -104c0 -63 37 -104 92 -104z" />
    <glyph glyph-name="zero.tosf" 
d="M272 -6c-116 0 -217 76 -217 212v185c0 136 101 212 217 212c115 0 216 -76 216 -212v-185c0 -136 -101 -212 -216 -212zM272 111c51 0 86 36 86 96v182c0 60 -35 97 -86 97c-52 0 -87 -37 -87 -97v-182c0 -60 35 -96 87 -96z" />
    <glyph glyph-name="one.tosf" 
d="M248 0v457l-145 -126v140l145 126h130v-597h-130z" />
    <glyph glyph-name="two.tosf" 
d="M53 0v117l232 199c44 38 71 70 71 108c0 47 -34 82 -86 82c-43 0 -87 -26 -87 -88h-130c0 127 98 205 217 205c124 0 216 -78 216 -197c0 -77 -55 -130 -127 -194l-129 -115h269v-117h-446z" />
    <glyph glyph-name="three.tosf" 
d="M269 -122c-116 0 -225 62 -227 210h130c2 -64 46 -93 97 -93c55 0 96 35 96 99c0 59 -36 98 -100 98h-19v113h19c64 0 90 40 90 90c0 60 -40 91 -87 91c-49 0 -85 -32 -88 -86h-130c4 127 98 203 218 203c126 0 217 -84 217 -204c0 -78 -35 -121 -82 -146
c52 -27 92 -75 92 -162c0 -143 -104 -213 -226 -213z" />
    <glyph glyph-name="four.tosf" 
d="M328 -123v153h-297v123l247 488h142l-247 -488h155v133h124v-133h66v-123h-66v-153h-124z" />
    <glyph glyph-name="five.tosf" 
d="M273 -121c-74 0 -128 26 -159 57c-45 45 -54 97 -58 148h130c7 -56 32 -88 87 -88c26 0 46 7 62 23c23 23 27 60 27 106c0 82 -24 128 -87 128c-53 0 -76 -31 -85 -58h-119v402h406v-117h-289v-153c19 18 59 36 108 36c59 0 104 -19 133 -48c55 -56 63 -123 63 -190
c0 -81 -11 -135 -63 -188c-31 -32 -83 -58 -156 -58z" />
    <glyph glyph-name="six.tosf" 
d="M273 -6c-132 0 -234 81 -234 228c0 83 24 145 69 227l154 279h140l-170 -297c21 12 44 15 76 15c105 0 198 -79 198 -221c0 -147 -102 -231 -233 -231zM272 106c60 0 104 44 104 117c0 70 -42 117 -104 117c-59 0 -103 -43 -103 -117c0 -73 44 -117 103 -117z" />
    <glyph glyph-name="seven.tosf" 
d="M113 -118l263 598h-208v-112h-124v229h473v-117l-263 -598h-141z" />
    <glyph glyph-name="eight.tosf" 
d="M272 -6c-127 0 -228 75 -228 213c0 87 50 134 89 160c-36 25 -80 72 -80 148c0 125 100 203 219 203c118 0 218 -78 218 -203c0 -76 -43 -123 -80 -148c40 -26 90 -73 90 -160c0 -138 -102 -213 -228 -213zM272 111c54 0 98 43 98 98s-44 99 -98 99
c-55 0 -98 -44 -98 -99s43 -98 98 -98zM272 421c51 0 88 38 88 90s-37 90 -88 90s-89 -38 -89 -90s38 -90 89 -90z" />
    <glyph glyph-name="nine.tosf" 
d="M141 -131l171 297c-22 -12 -45 -15 -77 -15c-105 0 -198 79 -198 221c0 147 102 231 234 231c131 0 233 -81 233 -228c0 -83 -23 -145 -69 -227l-154 -279h-140zM271 257c60 0 103 43 103 117c0 73 -43 117 -103 117s-104 -44 -104 -117c0 -70 42 -117 104 -117z" />
    <glyph glyph-name="uni2007.tosf" 
 />
    <glyph glyph-name="hyphen.case" horiz-adv-x="426" 
d="M367 417v-122h-308v122h308z" />
    <glyph glyph-name="exclamdown.case" horiz-adv-x="347" 
d="M204 489l31 -489h-160l31 489h98zM224 712v-133h-138v133h138z" />
    <glyph glyph-name="guillemotleft.case" horiz-adv-x="628" 
d="M283 605v-155l-94 -93l94 -93v-155l-249 248zM562 605v-155l-96 -93l96 -93v-155l-250 248z" />
    <glyph glyph-name="uni00AD.case" horiz-adv-x="426" 
d="M367 417v-122h-308v122h308z" />
    <glyph glyph-name="periodcentered.case" horiz-adv-x="285" 
d="M217 431v-148h-149v148h149z" />
    <glyph glyph-name="guillemotright.case" horiz-adv-x="629" 
d="M345 605l250 -248l-250 -248v155l95 93l-95 93v155zM67 605l250 -248l-250 -248v155l96 93l-96 93v155z" />
    <glyph glyph-name="questiondown.case" horiz-adv-x="523" 
d="M307 489v-30c0 -43 -12 -70 -38 -104l-74 -95c-16 -21 -29 -44 -29 -67c0 -47 31 -82 81 -82c52 0 80 37 80 83h130c0 -123 -94 -200 -210 -200c-114 0 -211 73 -211 200c0 50 21 88 49 125l74 98c10 14 18 35 18 51v21h130zM311 712v-133h-138v133h138z" />
    <glyph glyph-name="endash.case" horiz-adv-x="561" 
d="M502 417v-122h-443v122h443z" />
    <glyph glyph-name="emdash.case" horiz-adv-x="1027" 
d="M968 416v-122h-909v122h909z" />
    <glyph glyph-name="bullet.case" horiz-adv-x="492" 
d="M246 520c90 0 163 -73 163 -163s-73 -163 -163 -163s-163 73 -163 163s73 163 163 163z" />
    <glyph glyph-name="guilsinglleft.case" horiz-adv-x="350" 
d="M283 605v-155l-94 -93l94 -93v-155l-249 248z" />
    <glyph glyph-name="guilsinglright.case" horiz-adv-x="351" 
d="M67 604l250 -248l-250 -248v155l94 93l-94 94v154z" />
    <glyph glyph-name="zero.zero" 
d="M235 298v116h73v-116h-73zM271 -6c-115 0 -216 76 -216 212v300c0 136 101 212 216 212c116 0 217 -76 217 -212v-300c0 -136 -101 -212 -217 -212zM271 111c52 0 87 36 87 96v297c0 60 -35 97 -87 97c-51 0 -86 -37 -86 -97v-297c0 -60 35 -96 86 -96z" />
    <glyph glyph-name="zero.osf.zero" horiz-adv-x="544" 
d="M239 241v115h66v-115h-66zM272 -6c-116 0 -217 76 -217 212v185c0 136 101 212 217 212c115 0 216 -76 216 -212v-185c0 -136 -101 -212 -216 -212zM272 111c51 0 86 36 86 96v182c0 60 -35 97 -86 97c-52 0 -87 -37 -87 -97v-182c0 -60 35 -96 87 -96z" />
    <glyph glyph-name="zero.lf.zero" 
d="M235 298v116h73v-116h-73zM271 -6c-115 0 -216 76 -216 212v300c0 136 101 212 216 212c116 0 217 -76 217 -212v-300c0 -136 -101 -212 -217 -212zM271 111c52 0 87 36 87 96v297c0 60 -35 97 -87 97c-51 0 -86 -37 -86 -97v-297c0 -60 35 -96 86 -96z" />
    <glyph glyph-name="zero.tosf.zero" horiz-adv-x="544" 
d="M239 241v115h66v-115h-66zM272 -6c-116 0 -217 76 -217 212v185c0 136 101 212 217 212c115 0 216 -76 216 -212v-185c0 -136 -101 -212 -216 -212zM272 111c51 0 86 36 86 96v182c0 60 -35 97 -86 97c-52 0 -87 -37 -87 -97v-182c0 -60 35 -96 87 -96z" />
    <glyph glyph-name="exclam.ss01" horiz-adv-x="347" 
d="M273 712l-33 -489h-96l-32 489h161zM192 154c43 0 79 -36 79 -79s-36 -78 -79 -78s-78 35 -78 78s35 79 78 79z" />
    <glyph glyph-name="period.ss01" horiz-adv-x="295" 
d="M147 171c48 0 88 -39 88 -87s-40 -87 -88 -87s-87 39 -87 87s39 87 87 87z" />
    <glyph glyph-name="colon.ss01" horiz-adv-x="319" 
d="M172 171c48 0 87 -39 87 -87s-39 -87 -87 -87s-87 39 -87 87s39 87 87 87zM172 437c48 0 87 -40 87 -88s-39 -87 -87 -87s-87 39 -87 87s39 88 87 88z" />
    <glyph glyph-name="semicolon.ss01" horiz-adv-x="309" 
d="M243 142v-197l-142 -110v307h142zM172 437c48 0 87 -40 87 -88s-39 -87 -87 -87s-87 39 -87 87s39 88 87 88z" />
    <glyph glyph-name="question.ss01" horiz-adv-x="523" 
d="M276 718c114 0 211 -73 211 -200c0 -50 -22 -88 -49 -125l-74 -98c-10 -14 -18 -35 -18 -51v-21h-130v30c0 43 12 70 38 104l74 95c16 21 29 44 29 67c0 47 -31 82 -81 82c-52 0 -80 -37 -80 -83h-130c0 123 94 200 210 200zM281 154c43 0 79 -36 79 -79s-36 -78 -79 -78
s-78 35 -78 78s35 79 78 79z" />
    <glyph glyph-name="at.ss01" horiz-adv-x="977" 
d="M522 703c237 0 396 -152 396 -365c0 -160 -124 -301 -303 -301h-103l9 47c-37 -38 -70 -53 -113 -53c-89 0 -141 58 -141 134c0 26 5 58 13 96c18 93 35 147 82 188c35 31 77 41 118 41c53 0 86 -21 107 -52l9 46h118l-74 -369c116 8 182 108 182 223
c0 168 -120 276 -300 276c-204 0 -363 -157 -363 -360c0 -221 140 -355 368 -355h75l-16 -84h-76c-273 0 -451 183 -451 439c0 255 201 449 463 449zM499 386c-20 0 -40 -7 -54 -20c-21 -19 -36 -50 -47 -105c-3 -21 -6 -42 -6 -61c0 -41 21 -65 57 -65c20 0 40 6 56 22
c20 18 34 49 45 104c4 20 7 41 7 61c0 44 -25 64 -58 64z" />
    <glyph glyph-name="i.ss01" horiz-adv-x="275" 
d="M203 506v-506h-130v506h130zM138 749c44 0 81 -37 81 -82c0 -44 -37 -81 -81 -81c-45 0 -82 37 -82 81c0 45 37 82 82 82z" />
    <glyph glyph-name="j.ss01" horiz-adv-x="275" 
d="M203 506v-548c0 -75 -45 -149 -152 -149h-74v110h50c33 0 46 16 46 47v540h130zM137 749c45 0 82 -37 82 -81c0 -45 -37 -82 -81 -82c-45 0 -82 37 -82 81c0 45 37 82 81 82z" />
    <glyph glyph-name="exclamdown.ss01" horiz-adv-x="347" 
d="M203 298l32 -489h-161l33 489h96zM155 524c43 0 78 -35 78 -78s-35 -79 -78 -79s-79 36 -79 79s36 78 79 78z" />
    <glyph glyph-name="dieresis.ss01" 
d="M384 735c37 0 68 -31 68 -68s-31 -67 -68 -67s-67 30 -67 67s30 68 67 68zM159 735c37 0 67 -31 67 -68s-30 -67 -67 -67s-68 30 -68 67s31 68 68 68z" />
    <glyph glyph-name="periodcentered.ss01" horiz-adv-x="295" 
d="M147 373c48 0 88 -39 88 -87s-40 -88 -88 -88s-87 40 -87 88s39 87 87 87z" />
    <glyph glyph-name="cedilla.ss01" 
d="M226 -234v64c24 0 39 18 39 37s-15 37 -39 37v64c68 0 112 -44 112 -101s-44 -101 -112 -101z" />
    <glyph glyph-name="questiondown.ss01" horiz-adv-x="523" 
d="M307 298v-30c0 -43 -12 -70 -38 -104l-74 -95c-16 -21 -29 -44 -29 -67c0 -47 31 -82 81 -82c52 0 80 37 80 84h130c0 -124 -94 -201 -210 -201c-114 0 -211 73 -211 200c0 50 22 89 49 125l74 99c10 13 18 34 18 51v20h130zM242 524c43 0 78 -35 78 -78s-35 -79 -78 -79
s-79 36 -79 79s36 78 79 78z" />
    <glyph glyph-name="Adieresis.ss01" horiz-adv-x="637" 
d="M373 712l260 -712h-146l-42 126h-252l-43 -126h-146l260 712h109zM319 501l-88 -258h175zM432 912c37 0 67 -30 67 -67s-30 -68 -67 -68s-68 30 -68 68c0 37 30 67 68 67zM206 912c37 0 67 -30 67 -67s-30 -68 -67 -68s-68 30 -68 68c0 37 31 67 68 67z" />
    <glyph glyph-name="Ccedilla.ss01" horiz-adv-x="620" 
d="M322 718c133 0 236 -76 261 -225h-141c-14 58 -51 101 -120 101c-38 0 -69 -14 -89 -37c-26 -30 -35 -65 -35 -201s9 -171 35 -201c20 -23 51 -37 89 -37c69 0 106 43 120 101h141c-25 -149 -128 -225 -261 -225c-82 0 -142 27 -191 75c-71 71 -72 151 -72 287
s1 216 72 287c49 48 109 75 191 75zM269 -96v64c69 0 112 -44 112 -101s-44 -101 -112 -101v64c24 0 39 17 39 37s-15 37 -39 37z" />
    <glyph glyph-name="Edieresis.ss01" horiz-adv-x="605" 
d="M552 712v-124h-330v-167h282v-124h-282v-173h330v-124h-469v712h469zM420 912c37 0 67 -30 67 -67s-30 -68 -67 -68s-68 30 -68 68c0 37 30 67 68 67zM194 912c37 0 67 -30 67 -67s-30 -68 -67 -68s-68 30 -68 68c0 37 31 67 68 67z" />
    <glyph glyph-name="Idieresis.ss01" horiz-adv-x="306" 
d="M222 712v-712h-139v712h139zM265 912c37 0 67 -30 67 -67s-30 -68 -67 -68s-68 30 -68 68c0 37 30 67 68 67zM39 912c37 0 67 -30 67 -67s-30 -68 -67 -68s-68 30 -68 68c0 37 31 67 68 67z" />
    <glyph glyph-name="Odieresis.ss01" horiz-adv-x="644" 
d="M322 718c82 0 142 -27 191 -75c71 -70 72 -151 72 -287s-1 -217 -72 -287c-49 -48 -109 -75 -191 -75s-142 27 -191 75c-71 71 -72 151 -72 287s1 216 72 287c49 48 109 75 191 75zM322 594c-38 0 -69 -15 -89 -38c-27 -30 -35 -64 -35 -200s8 -169 35 -199
c20 -23 51 -39 89 -39s69 16 89 39c27 30 35 63 35 199s-8 170 -35 200c-20 23 -51 38 -89 38zM435 912c37 0 67 -30 67 -67s-30 -68 -67 -68s-68 30 -68 68c0 37 30 67 68 67zM209 912c37 0 67 -30 67 -67s-30 -68 -67 -68s-68 30 -68 68c0 37 31 67 68 67z" />
    <glyph glyph-name="Udieresis.ss01" horiz-adv-x="668" 
d="M596 712v-468c0 -151 -116 -250 -263 -250c-146 0 -261 99 -261 250v468h139v-463c0 -81 47 -131 122 -131s124 50 124 131v463h139zM447 912c37 0 67 -30 67 -67s-30 -68 -67 -68s-68 30 -68 68c0 37 30 67 68 67zM221 912c37 0 67 -30 67 -67s-30 -68 -67 -68
s-68 30 -68 68c0 37 31 67 68 67z" />
    <glyph glyph-name="adieresis.ss01" horiz-adv-x="534" 
d="M245 527c147 0 222 -62 222 -184v-343h-127v45c-35 -35 -68 -50 -128 -50c-59 0 -103 16 -133 46c-28 29 -43 71 -43 117c0 83 57 151 180 151h121v26c0 57 -28 82 -97 82c-47 0 -72 -13 -100 -45l-82 81c51 56 100 74 187 74zM337 220h-99c-52 0 -77 -21 -77 -60
c0 -36 25 -59 79 -59c32 0 55 4 77 25c15 13 20 33 20 66v28zM373 735c37 0 68 -31 68 -68s-31 -67 -68 -67s-67 30 -67 67s30 68 67 68zM148 735c37 0 67 -31 67 -68s-30 -67 -67 -67s-68 30 -68 67s31 68 68 68z" />
    <glyph glyph-name="ccedilla.ss01" horiz-adv-x="484" 
d="M284 527c72 0 125 -22 172 -70l-89 -88c-27 29 -49 41 -83 41c-32 0 -55 -12 -74 -34c-20 -25 -29 -60 -29 -115c0 -56 9 -91 29 -116c19 -22 42 -34 74 -34c34 0 56 13 83 41l89 -87c-47 -48 -100 -71 -172 -71c-105 0 -233 56 -233 267c0 210 128 266 233 266z
M226 -234v64c24 0 39 18 39 37s-15 37 -39 37v64c68 0 112 -44 112 -101s-44 -101 -112 -101z" />
    <glyph glyph-name="edieresis.ss01" horiz-adv-x="548" 
d="M274 527c145 0 227 -104 227 -252v-55h-326c0 -68 40 -116 114 -116c57 0 85 17 117 49l80 -77c-53 -54 -104 -82 -198 -82c-124 0 -241 56 -241 267c0 170 92 266 227 266zM274 419c-45 0 -74 -23 -88 -54c-9 -19 -10 -33 -11 -56h197c-1 23 -2 37 -11 56
c-14 31 -43 54 -87 54zM384 735c37 0 68 -31 68 -68s-31 -67 -68 -67s-67 30 -67 67s30 68 67 68zM159 735c37 0 67 -31 67 -68s-30 -67 -67 -67s-68 30 -68 67s31 68 68 68z" />
    <glyph glyph-name="idieresis.ss01" horiz-adv-x="275" 
d="M250 735c37 0 68 -31 68 -68s-31 -67 -68 -67s-67 30 -67 67s30 68 67 68zM25 735c37 0 67 -31 67 -68s-30 -67 -67 -67s-68 30 -68 67s31 68 68 68zM203 506v-506h-130v506h130z" />
    <glyph glyph-name="odieresis.ss01" 
d="M492 261c0 -94 -11 -154 -59 -203c-33 -34 -85 -64 -162 -64s-128 30 -161 64c-47 50 -59 109 -59 203s12 152 59 202c33 34 84 64 161 64s129 -29 162 -64c47 -50 59 -108 59 -202zM362 261c0 53 -3 100 -30 126c-15 15 -35 23 -61 23c-25 0 -45 -8 -60 -23
c-27 -26 -30 -73 -30 -126c0 -54 3 -101 30 -127c15 -15 35 -23 60 -23c26 0 46 8 61 23c27 26 30 73 30 127zM384 735c37 0 68 -31 68 -68s-31 -67 -68 -67s-67 30 -67 67s30 68 67 68zM159 735c37 0 67 -31 67 -68s-30 -67 -67 -67s-68 30 -68 67s31 68 68 68z" />
    <glyph glyph-name="divide.ss01" 
d="M497 346v-121h-451v121h451zM271 166c49 0 88 -39 88 -87s-39 -88 -88 -88c-48 0 -87 40 -87 88s39 87 87 87zM271 580c49 0 88 -40 88 -88s-39 -87 -88 -87c-48 0 -87 39 -87 87s39 88 87 88z" />
    <glyph glyph-name="udieresis.ss01" horiz-adv-x="573" 
d="M500 521v-521h-127v48c-34 -36 -82 -54 -130 -54c-51 0 -93 16 -123 46c-42 42 -53 91 -53 148v333h130v-315c0 -71 45 -95 86 -95c42 0 87 24 87 95v315h130zM396 735c37 0 68 -31 68 -68s-31 -67 -68 -67s-67 30 -67 67s30 68 67 68zM171 735c37 0 67 -31 67 -68
s-30 -67 -67 -67s-68 30 -68 67s31 68 68 68z" />
    <glyph glyph-name="ydieresis.ss01" horiz-adv-x="494" 
d="M490 521l-223 -605c-11 -30 -24 -51 -39 -67c-30 -30 -69 -40 -112 -40h-51v117h30c37 0 52 10 65 47l22 64l-178 484h137l108 -322l104 322h137zM360 735c37 0 68 -31 68 -68s-31 -67 -68 -67s-67 30 -67 67s30 68 67 68zM135 735c37 0 67 -31 67 -68s-30 -67 -67 -67
s-68 30 -68 67s31 68 68 68z" />
    <glyph glyph-name="ij.ss01" horiz-adv-x="550" 
d="M203 506v-506h-130v506h130zM138 749c44 0 81 -37 81 -82c0 -44 -37 -81 -81 -81c-45 0 -82 37 -82 81c0 45 37 82 82 82zM478 506v-548c0 -75 -45 -149 -152 -149h-74v110h50c33 0 46 16 46 47v540h130zM412 749c45 0 82 -37 82 -81c0 -45 -37 -82 -81 -82
c-45 0 -82 37 -82 81c0 45 37 82 81 82z" />
    <glyph glyph-name="Ydieresis.ss01" horiz-adv-x="572" 
d="M569 712l-214 -421v-291h-139v291l-213 421h151l133 -287l131 287h151zM399 912c37 0 67 -30 67 -67s-30 -68 -67 -68s-68 30 -68 68c0 37 30 67 68 67zM173 912c37 0 67 -30 67 -67s-30 -68 -67 -68s-68 30 -68 68c0 37 31 67 68 67z" />
    <glyph glyph-name="dotaccent.ss01" 
d="M271 738c38 0 68 -30 68 -67s-30 -68 -68 -68c-37 0 -67 31 -67 68s30 67 67 67z" />
    <glyph glyph-name="ogonek.ss01" 
d="M318 -168v-64c-68 0 -112 44 -112 101s44 101 112 101v-64c-24 0 -39 -17 -39 -37c0 -19 15 -37 39 -37z" />
    <glyph glyph-name="uni0312.ss01" horiz-adv-x="1" 
d="M57 793v-64c-24 0 -39 -17 -39 -37c0 -19 15 -37 39 -37v-64c-69 0 -112 45 -112 101c0 57 43 101 112 101z" />
    <glyph glyph-name="uni0313.ss01" horiz-adv-x="1" 
d="M57 747v-118l-113 -88v206h113z" />
    <glyph glyph-name="uni0324.ss01" horiz-adv-x="1" 
d="M-113 -67c37 0 68 -30 68 -67s-30 -68 -67 -68s-68 30 -68 68c0 37 30 67 67 67zM113 -67c37 0 68 -30 68 -67s-30 -68 -67 -68s-68 30 -68 68c0 37 30 67 67 67z" />
    <glyph glyph-name="uni0327.ss01" horiz-adv-x="1" 
d="M-55 -234v64c24 0 39 18 39 37s-15 37 -39 37v64c68 0 112 -44 112 -101s-44 -101 -112 -101z" />
    <glyph glyph-name="uni0328.ss01" horiz-adv-x="1" 
d="M57 -168v-64c-68 0 -112 44 -112 101s44 101 112 101v-64c-24 0 -39 -17 -39 -37c0 -19 15 -37 39 -37z" />
    <glyph glyph-name="uni037E.ss01" horiz-adv-x="309" 
d="M243 142v-197l-142 -110v307h142zM172 437c48 0 87 -40 87 -88s-39 -87 -87 -87s-87 39 -87 87s39 88 87 88z" />
    <glyph glyph-name="uni03A9.ss01" horiz-adv-x="644" 
d="M322 186c-106 0 -166 37 -199 74c-36 39 -64 96 -64 192c0 97 28 153 64 192c33 37 93 74 199 74s166 -37 199 -74c35 -39 64 -95 64 -192c0 -96 -29 -153 -64 -192c-33 -37 -93 -74 -199 -74zM71 0v105h502v-105h-502zM322 305c50 0 77 20 93 38c19 21 31 47 31 109
c0 63 -12 88 -31 110c-16 18 -43 37 -93 37s-78 -18 -94 -37c-19 -21 -30 -47 -30 -110c0 -62 12 -88 30 -109c17 -18 44 -38 94 -38z" />
    <glyph glyph-name="ellipsis.ss01" horiz-adv-x="862" 
d="M431 171c48 0 87 -39 87 -87s-39 -87 -87 -87s-88 39 -88 87s40 87 88 87zM155 171c48 0 87 -39 87 -87s-39 -87 -87 -87s-87 39 -87 87s39 87 87 87zM707 171c48 0 87 -39 87 -87s-39 -87 -87 -87s-87 39 -87 87s39 87 87 87z" />
    <glyph glyph-name="uni2071.ss01" horiz-adv-x="158" 
d="M36 328v271h82v-271h-82zM77 636c-26 0 -47 22 -47 48c0 25 21 47 47 47s47 -22 47 -47c0 -26 -21 -48 -47 -48z" />
    <glyph glyph-name="lira.ss01" horiz-adv-x="559" 
d="M244 712v-201l126 80v-88l-126 -79v-76l126 79v-87l-126 -80v-136h58c58 0 95 18 135 62l92 -92c-65 -67 -120 -94 -222 -94h-202v172l-69 -43v88l69 43v76l-69 -44v88l69 44v288h139z" />
    <glyph glyph-name="Euro.ss01" horiz-adv-x="611" 
d="M371 718c91 0 147 -32 198 -82l-92 -92c-31 30 -56 50 -106 50c-38 0 -68 -14 -88 -37c-17 -19 -25 -39 -29 -79h148v-83h-155v-75h155v-83h-149c5 -42 12 -63 30 -82c20 -23 50 -37 88 -37c50 0 75 20 106 50l92 -92c-51 -50 -107 -82 -198 -82c-80 0 -142 27 -191 76
c-46 46 -62 96 -68 167h-73v83h69v75h-69v83h73c6 69 23 119 68 164c49 49 111 76 191 76z" />
    <glyph glyph-name="uni20BD.ss01" horiz-adv-x="642" 
d="M98 712h275c148 0 235 -101 235 -222s-87 -222 -235 -222h-136v-72h112v-99h-112v-97h-139v97h-62v99h62v516zM366 588h-129v-196h129c63 0 103 40 103 98c0 59 -40 98 -103 98z" />
    <glyph glyph-name="dotmath.ss01" 
d="M271 373c48 0 88 -39 88 -87s-40 -88 -88 -88s-87 40 -87 88s39 87 87 87z" />
    <glyph glyph-name="fi.ss01" horiz-adv-x="605" 
d="M315 718v-110h-51c-30 0 -45 -17 -45 -47v-55h96v-99h-96v-407h-130v407h-54v99h54v63c0 73 46 149 152 149h74zM533 506v-506h-130v506h130zM468 749c44 0 81 -37 81 -82c0 -44 -37 -81 -81 -81c-45 0 -82 37 -82 81c0 45 37 82 82 82z" />
    <glyph glyph-name="exclamdown.case.ss01" horiz-adv-x="347" 
d="M202 489l33 -489h-161l33 489h95zM154 715c43 0 79 -35 79 -78s-36 -79 -79 -79s-78 36 -78 79s35 78 78 78z" />
    <glyph glyph-name="periodcentered.case.ss01" horiz-adv-x="295" 
d="M147 444c48 0 88 -39 88 -87s-40 -88 -88 -88s-87 40 -87 88s39 87 87 87z" />
    <glyph glyph-name="questiondown.case.ss01" horiz-adv-x="523" 
d="M307 489v-30c0 -43 -12 -70 -38 -104l-74 -95c-16 -21 -29 -44 -29 -67c0 -47 31 -82 80 -82c53 0 81 37 81 83h130c0 -123 -94 -200 -211 -200c-113 0 -210 73 -210 200c0 50 22 88 49 125l74 98c10 14 18 35 18 51v21h130zM242 715c43 0 78 -35 78 -78s-35 -79 -78 -79
s-79 36 -79 79s36 78 79 78z" />
    <glyph glyph-name="zero.zero.ss01" 
d="M271 -6c-115 0 -216 76 -216 212v300c0 136 101 212 216 212c116 0 217 -76 217 -212v-300c0 -136 -101 -212 -217 -212zM271 111c52 0 87 36 87 96v297c0 60 -35 97 -87 97c-51 0 -86 -37 -86 -97v-297c0 -60 35 -96 86 -96zM271 424c37 0 68 -31 68 -68
s-31 -67 -68 -67s-67 30 -67 67s30 68 67 68z" />
    <glyph glyph-name="zero.osf.zero.ss01" horiz-adv-x="544" 
d="M272 -6c-116 0 -217 76 -217 212v185c0 136 101 212 217 212c115 0 216 -76 216 -212v-185c0 -136 -101 -212 -216 -212zM272 111c51 0 86 36 86 96v182c0 60 -35 97 -86 97c-52 0 -87 -37 -87 -97v-182c0 -60 35 -96 87 -96zM272 366c37 0 68 -31 68 -68
s-31 -67 -68 -67s-67 30 -67 67s30 68 67 68z" />
    <glyph glyph-name="zero.lf.zero.ss01" 
d="M271 -6c-115 0 -216 76 -216 212v300c0 136 101 212 216 212c116 0 217 -76 217 -212v-300c0 -136 -101 -212 -217 -212zM271 111c52 0 87 36 87 96v297c0 60 -35 97 -87 97c-51 0 -86 -37 -86 -97v-297c0 -60 35 -96 86 -96zM271 424c37 0 68 -31 68 -68
s-31 -67 -68 -67s-67 30 -67 67s30 68 67 68z" />
    <glyph glyph-name="zero.tosf.zero.ss01" horiz-adv-x="544" 
d="M272 -6c-116 0 -217 76 -217 212v185c0 136 101 212 217 212c115 0 216 -76 216 -212v-185c0 -136 -101 -212 -216 -212zM272 111c51 0 86 36 86 96v182c0 60 -35 97 -86 97c-52 0 -87 -37 -87 -97v-182c0 -60 35 -96 87 -96zM272 366c37 0 68 -31 68 -68
s-31 -67 -68 -67s-67 30 -67 67s30 68 67 68z" />
    <glyph glyph-name="dieresis.lc.ss01" 
d="M384 735c37 0 68 -31 68 -68s-31 -67 -68 -67s-67 30 -67 67s30 68 67 68zM159 735c37 0 67 -31 67 -68s-30 -67 -67 -67s-68 30 -68 67s31 68 68 68z" />
    <glyph glyph-name="cedilla.lc.ss01" 
d="M226 -234v64c24 0 39 18 39 37s-15 37 -39 37v64c68 0 112 -44 112 -101s-44 -101 -112 -101z" />
    <glyph glyph-name="dotaccent.lc.ss01" 
d="M271 738c38 0 68 -30 68 -67s-30 -68 -68 -68c-37 0 -67 31 -67 68s30 67 67 67z" />
    <glyph glyph-name="ogonek.lc.ss01" 
d="M318 -168v-64c-68 0 -112 44 -112 101s44 101 112 101v-64c-24 0 -39 -17 -39 -37c0 -19 15 -37 39 -37z" />
    <glyph glyph-name="dotbelowcomb.lc.ss01" 
d="M271 -67c37 0 68 -30 68 -67s-31 -68 -67 -68c-37 0 -68 30 -68 68c0 37 30 67 67 67z" />
    <glyph glyph-name="uni0324.lc.ss01" 
d="M158 -67c37 0 68 -30 68 -67s-30 -68 -67 -68s-68 30 -68 68c0 37 30 67 67 67zM384 -67c37 0 68 -30 68 -67s-30 -68 -67 -68s-68 30 -68 68c0 37 30 67 67 67z" />
    <glyph glyph-name="commaaccent.lc.ss01" 
d="M226 -96v64c69 0 112 -44 112 -101s-44 -101 -112 -101v64c24 0 39 17 39 37s-15 37 -39 37z" />
    <glyph glyph-name="dieresis.uc.ss01" horiz-adv-x="644" 
d="M435 912c37 0 67 -30 67 -67s-30 -68 -67 -68s-68 30 -68 68c0 37 30 67 68 67zM209 912c37 0 67 -30 67 -67s-30 -68 -67 -68s-68 30 -68 68c0 37 31 67 68 67z" />
    <glyph glyph-name="cedilla.uc.ss01" horiz-adv-x="644" 
d="M269 -96v64c69 0 112 -44 112 -101s-44 -101 -112 -101v64c24 0 39 17 39 37s-15 37 -39 37z" />
    <glyph glyph-name="dotaccent.uc.ss01" horiz-adv-x="644" 
d="M322 913c37 0 68 -31 68 -68s-31 -67 -68 -67s-67 30 -67 67s30 68 67 68z" />
    <glyph glyph-name="ogonek.uc.ss01" horiz-adv-x="644" 
d="M378 -30v-64c-24 0 -40 -18 -40 -37s16 -37 40 -37v-64c-69 0 -112 44 -112 101s43 101 112 101z" />
    <glyph glyph-name="dotbelowcomb.uc.ss01" horiz-adv-x="644" 
d="M322 -67c37 0 68 -30 68 -67s-31 -68 -67 -68c-37 0 -68 30 -68 68c0 37 30 67 67 67z" />
    <glyph glyph-name="uni0324.uc.ss01" horiz-adv-x="644" 
d="M435 -67c37 0 67 -30 67 -67s-30 -68 -67 -68s-68 30 -68 67c0 38 30 68 68 68zM209 -67c37 0 67 -30 67 -67s-30 -68 -67 -68s-68 30 -68 67c0 38 31 68 68 68z" />
    <glyph glyph-name="commaaccent.uc.ss01" horiz-adv-x="644" 
d="M269 -96v64c69 0 112 -44 112 -101s-44 -101 -112 -101v64c24 0 39 17 39 37s-15 37 -39 37z" />
    <glyph glyph-name="C.ss02" horiz-adv-x="600" 
d="M321 718c91 0 148 -32 198 -82l-92 -92c-30 31 -56 51 -106 51c-38 0 -68 -15 -88 -38c-27 -30 -35 -65 -35 -201s8 -171 35 -201c20 -23 50 -38 88 -38c50 0 76 20 106 51l92 -92c-50 -50 -107 -82 -198 -82c-81 0 -141 27 -190 75c-71 71 -72 151 -72 287s1 216 72 287
c49 48 109 75 190 75z" />
    <glyph glyph-name="G.ss02" horiz-adv-x="644" 
d="M321 -6c-81 0 -141 27 -190 75c-71 71 -72 151 -72 287s1 216 72 287c49 48 109 75 190 75c99 0 154 -28 218 -91l-95 -95c-40 40 -67 62 -123 62c-38 0 -68 -15 -89 -38c-26 -30 -34 -64 -34 -200s8 -171 34 -201c21 -23 51 -37 89 -37c43 0 72 15 95 40
c22 25 31 62 31 97v24h-126v117h264v-102c0 -102 -16 -166 -66 -218c-52 -53 -117 -82 -198 -82z" />
    <glyph glyph-name="Ccedilla.ss02" horiz-adv-x="600" 
d="M321 718c91 0 148 -32 198 -82l-92 -92c-30 31 -56 51 -106 51c-38 0 -68 -15 -88 -38c-27 -30 -35 -65 -35 -201s8 -171 35 -201c20 -23 50 -38 88 -38c50 0 76 20 106 51l92 -92c-50 -50 -107 -82 -198 -82c-81 0 -141 27 -190 75c-71 71 -72 151 -72 287s1 216 72 287
c49 48 109 75 190 75zM377 -59l-44 -146h-121l69 146h96z" />
    <glyph glyph-name="Omega.ss02" horiz-adv-x="644" 
d="M322 186c-106 0 -166 37 -199 74c-36 39 -64 96 -64 192c0 97 28 153 64 192c33 37 93 74 199 74s166 -37 199 -74c35 -39 64 -95 64 -192c0 -96 -29 -153 -64 -192c-33 -37 -93 -74 -199 -74zM71 0v105h502v-105h-502zM322 305c50 0 77 20 93 38c19 21 31 47 31 109
c0 63 -12 88 -31 110c-16 18 -43 37 -93 37s-78 -18 -94 -37c-19 -21 -30 -47 -30 -110c0 -62 12 -88 30 -109c17 -18 44 -38 94 -38z" />
    <glyph glyph-name="Ccedilla.ss03" horiz-adv-x="600" 
d="M321 718c91 0 148 -32 198 -82l-92 -92c-30 31 -56 51 -106 51c-38 0 -68 -15 -88 -38c-27 -30 -35 -65 -35 -201s8 -171 35 -201c20 -23 50 -38 88 -38c50 0 76 20 106 51l92 -92c-50 -50 -107 -82 -198 -82c-81 0 -141 27 -190 75c-71 71 -72 151 -72 287s1 216 72 287
c49 48 109 75 190 75zM269 -96v64c69 0 112 -44 112 -101s-44 -101 -112 -101v64c24 0 39 17 39 37s-15 37 -39 37z" />
    <glyph glyph-name="Iacute_J_acutecomb" horiz-adv-x="815" 
d="M743 712v-478c0 -158 -118 -240 -251 -240c-77 0 -130 20 -183 73l92 91c24 -24 45 -40 91 -40c69 0 112 40 112 122v472h139zM820 951l-114 -170h-87l64 170h137zM222 712v-712h-139v712h139zM298 951l-114 -170h-87l64 170h137z" />
    <glyph glyph-name="J_acutecomb" horiz-adv-x="509" 
d="M437 712v-478c0 -158 -118 -240 -251 -240c-77 0 -130 20 -183 73l92 91c24 -24 45 -40 91 -40c69 0 112 40 112 122v472h139zM514 951l-114 -170h-87l64 170h137z" />
    <glyph glyph-name="breveacute" 
d="M348 748h88c-5 -108 -78 -151 -165 -151c-86 0 -159 43 -164 151h88c4 -43 38 -60 76 -60c39 0 73 17 77 60zM420 959l-114 -170h-87l64 170h137z" />
    <glyph glyph-name="brevegrave" 
d="M348 748h87c-4 -108 -78 -151 -164 -151s-159 43 -164 151h87c5 -43 39 -60 77 -60s72 17 77 60zM262 959l64 -170h-87l-114 170h137z" />
    <glyph glyph-name="brevehook" 
d="M348 748h88c-5 -108 -78 -151 -165 -151c-86 0 -159 43 -164 151h88c4 -43 38 -60 76 -60c39 0 73 17 77 60zM256 896v64c68 0 112 -44 112 -101s-44 -101 -112 -101v64c24 0 39 18 39 37s-15 37 -39 37z" />
    <glyph glyph-name="brevetilde" 
d="M271 597c-86 0 -160 43 -164 151h87c5 -43 39 -60 77 -60s72 17 77 60h87c-5 -108 -78 -151 -164 -151zM339 801c-29 0 -49 6 -77 22c-19 11 -36 18 -56 18c-17 0 -32 -2 -58 -28l-57 57c44 44 74 58 112 58c30 0 49 -5 78 -22c19 -12 35 -19 55 -19c17 0 32 3 58 29
l58 -57c-44 -44 -74 -58 -113 -58z" />
    <glyph glyph-name="circumflexacute" 
d="M323 773l132 -169h-101l-83 91l-83 -91h-101l132 169h104zM643 843l-114 -170h-87l64 170h137z" />
    <glyph glyph-name="circumflexgrave" 
d="M87 604l132 169h104l132 -169h-101l-83 91l-83 -91h-101zM482 672l-132 170h127l104 -170h-99z" />
    <glyph glyph-name="circumflexhook" 
d="M87 604l132 169h104l132 -169h-101l-83 91l-83 -91h-101zM450 665v64c24 0 39 17 39 37c0 19 -15 36 -39 36v65c68 0 112 -45 112 -101c0 -57 -44 -101 -112 -101z" />
    <glyph glyph-name="circumflextilde" 
d="M87 604l132 169h104l132 -169h-101l-83 91l-83 -91h-101zM339 821c-29 0 -49 6 -77 22c-19 11 -36 18 -56 18c-17 0 -32 -2 -58 -28l-57 57c44 44 74 58 112 58c30 0 49 -5 78 -22c19 -12 35 -19 55 -19c17 0 32 3 58 29l58 -57c-44 -44 -74 -58 -113 -58z" />
    <glyph glyph-name="caroncomma.uc.ss01.comp" horiz-adv-x="644" 
d="M348 748v-118l-113 -88v206h113z" />
    <glyph glyph-name="iacute_j_acutecomb" horiz-adv-x="550" 
d="M478 506v-548c0 -75 -45 -149 -152 -149h-74v110h50c33 0 46 16 46 47v540h130zM561 774l-114 -170h-87l64 170h137zM286 774l-114 -170h-87l64 170h137zM203 506v-506h-130v506h130z" />
    <glyph glyph-name="j_acutecomb" horiz-adv-x="275" 
d="M203 506v-548c0 -75 -45 -149 -152 -149h-74v110h50c33 0 46 16 46 47v540h130zM286 774l-114 -170h-87l64 170h137z" />
    <glyph glyph-name="grave.lc" 
d="M261 774l64 -170h-87l-114 170h137z" />
    <glyph glyph-name="dieresis.lc" 
d="M437 731v-125h-111v125h111zM216 731v-125h-111v125h111z" />
    <glyph glyph-name="macron.lc" 
d="M430 711v-88h-317v88h317z" />
    <glyph glyph-name="acute.lc" 
d="M420 774l-114 -170h-87l64 170h137z" />
    <glyph glyph-name="cedilla.lc" 
d="M159 -205l69 146h96l-44 -146h-121z" />
    <glyph glyph-name="uni02C0.lc" 
d="M226 729v64c68 0 112 -44 112 -101s-44 -101 -112 -101v64c24 0 39 18 39 37s-15 37 -39 37z" />
    <glyph glyph-name="circumflex.lc" 
d="M323 773l132 -169h-101l-83 91l-83 -91h-101l132 169h104z" />
    <glyph glyph-name="caron.lc" 
d="M455 773l-132 -169h-104l-132 169h101l83 -90l83 90h101z" />
    <glyph glyph-name="breve.lc" 
d="M348 748h87c-5 -108 -78 -151 -164 -151s-160 43 -164 151h87c5 -43 39 -60 77 -60s72 17 77 60z" />
    <glyph glyph-name="dotaccent.lc" 
d="M327 731v-125h-111v125h111z" />
    <glyph glyph-name="ring.lc" 
d="M271 846c72 0 131 -58 131 -131c0 -72 -59 -131 -131 -131s-131 59 -131 131s59 131 131 131zM271 773c-32 0 -58 -26 -58 -58s26 -59 58 -59s58 27 58 59s-26 58 -58 58z" />
    <glyph glyph-name="ogonek.lc" 
d="M324 -59l-44 -146h-121l69 146h96z" />
    <glyph glyph-name="tilde.lc" 
d="M203 740c30 0 49 -5 78 -22c19 -12 35 -19 55 -19c17 0 32 3 58 29l58 -57c-44 -44 -74 -58 -113 -58c-29 0 -49 6 -77 22c-19 11 -36 18 -56 18c-17 0 -32 -2 -58 -28l-57 57c44 44 74 58 112 58z" />
    <glyph glyph-name="hungarumlaut.lc" 
d="M511 774l-115 -170h-86l63 170h138zM309 774l-113 -170h-88l64 170h137z" />
    <glyph glyph-name="uni030F.lc" 
d="M325 604l-102 170h127l75 -170h-100zM116 604l-103 170h128l74 -170h-99z" />
    <glyph glyph-name="uni0310.lc" 
d="M348 748h87c-5 -108 -78 -151 -164 -151s-160 43 -164 151h87c5 -43 39 -60 77 -60s72 17 77 60zM326 903v-125h-111v125h111z" />
    <glyph glyph-name="uni0311.lc" 
d="M195 604h-87c4 108 78 151 164 151s159 -43 164 -151h-87c-5 43 -39 60 -77 60s-72 -17 -77 -60z" />
    <glyph glyph-name="uni0316.lc" 
d="M261 -58l64 -170h-87l-114 170h137z" />
    <glyph glyph-name="uni031B.lc" 
d="M645 558v-66c0 -90 -34 -126 -139 -126h-26v72h33c33 0 47 16 47 65v55h85z" />
    <glyph glyph-name="uni031C.lc" 
d="M318 -31v-64c-24 0 -39 -17 -39 -37s15 -37 39 -37v-64c-68 0 -112 44 -112 101s43 101 112 101z" />
    <glyph glyph-name="dotbelowcomb.lc" 
d="M216 -197v125h111v-125h-111z" />
    <glyph glyph-name="uni0324.lc" 
d="M437 -72v-125h-111v125h111zM216 -72v-125h-111v125h111z" />
    <glyph glyph-name="uni0325.lc" 
d="M271 -33c72 0 131 -58 131 -131c0 -72 -59 -131 -131 -131s-131 59 -131 131s59 131 131 131zM271 -106c-32 0 -58 -26 -58 -58s26 -59 58 -59s58 27 58 59s-26 58 -58 58z" />
    <glyph glyph-name="uni032C.lc" 
d="M455 -58l-132 -169h-104l-132 169h101l83 -90l83 90h101z" />
    <glyph glyph-name="uni032D.lc" 
d="M323 -58l132 -169h-101l-83 90l-83 -90h-101l132 169h104z" />
    <glyph glyph-name="uni032E.lc" 
d="M348 -59h87c-5 -108 -78 -151 -164 -151s-160 43 -164 151h87c5 -43 39 -60 77 -60s72 17 77 60z" />
    <glyph glyph-name="uni032F.lc" 
d="M195 -203h-87c4 108 78 151 164 151s159 -43 164 -151h-87c-5 43 -39 60 -77 60s-72 -17 -77 -60z" />
    <glyph glyph-name="uni0330.lc" 
d="M203 -67c30 0 49 -5 78 -22c19 -12 35 -19 55 -19c17 0 32 3 58 29l58 -57c-44 -44 -74 -58 -113 -58c-29 0 -49 6 -77 22c-19 11 -36 18 -56 18c-17 0 -32 -2 -58 -28l-57 57c44 44 74 58 112 58z" />
    <glyph glyph-name="uni0331.lc" 
d="M430 -77v-88h-317v88h317z" />
    <glyph glyph-name="uni0340.lc" 
d="M477 842l104 -170h-99l-132 170h127z" />
    <glyph glyph-name="uni0341.lc" 
d="M642 842l-114 -170h-87l64 170h137z" />
    <glyph glyph-name="commaaccent.lc" 
d="M324 -59l-44 -146h-121l69 146h96z" />
    <glyph glyph-name="breveacute.uc" horiz-adv-x="644" 
d="M322 779c-86 0 -159 43 -164 151h88c4 -43 38 -60 76 -60c39 0 73 17 77 60h88c-5 -108 -78 -151 -165 -151zM270 971l64 170h137l-114 -170h-87z" />
    <glyph glyph-name="brevegrave.uc" horiz-adv-x="644" 
d="M399 930h87c-4 -108 -78 -151 -164 -151s-159 43 -164 151h87c5 -43 39 -60 77 -60s72 17 77 60zM313 1141l64 -170h-87l-114 170h137z" />
    <glyph glyph-name="brevehook.uc" horiz-adv-x="644" 
d="M398 930h88c-5 -108 -78 -151 -165 -151c-86 0 -159 43 -164 151h88c4 -43 38 -60 76 -60c39 0 73 17 77 60zM306 1078v64c68 0 112 -44 112 -101s-44 -101 -112 -101v64c24 0 39 18 39 37s-15 37 -39 37z" />
    <glyph glyph-name="brevetilde.uc" horiz-adv-x="644" 
d="M322 779c-86 0 -160 43 -164 151h87c5 -43 39 -60 77 -60s72 17 77 60h87c-5 -108 -78 -151 -164 -151zM390 983c-29 0 -49 6 -77 22c-19 11 -36 18 -56 18c-17 0 -32 -2 -58 -28l-57 57c44 44 74 58 112 58c30 0 49 -5 78 -22c19 -12 35 -19 55 -19c17 0 32 3 58 29
l58 -57c-44 -44 -74 -58 -113 -58z" />
    <glyph glyph-name="circumflexacute.uc" horiz-adv-x="644" 
d="M374 950l132 -169h-101l-83 91l-83 -91h-101l132 169h104zM694 1020l-114 -170h-87l64 170h137z" />
    <glyph glyph-name="circumflexgrave.uc" horiz-adv-x="644" 
d="M138 781l132 169h104l132 -169h-101l-83 91l-83 -91h-101zM533 849l-132 170h127l104 -170h-99z" />
    <glyph glyph-name="circumflexhook.uc" horiz-adv-x="644" 
d="M138 781l132 169h104l132 -169h-101l-83 91l-83 -91h-101zM501 842v64c24 0 39 17 39 37c0 19 -15 36 -39 36v65c68 0 112 -45 112 -101c0 -57 -44 -101 -112 -101z" />
    <glyph glyph-name="circumflextilde.uc" horiz-adv-x="644" 
d="M253 1125c30 0 49 -5 78 -22c19 -12 35 -19 55 -19c17 0 32 3 58 29l58 -57c-44 -44 -74 -58 -113 -58c-29 0 -49 6 -77 22c-19 11 -36 18 -56 18c-17 0 -32 -2 -58 -28l-57 57c44 44 74 58 112 58zM373 950l132 -169h-101l-83 91l-83 -91h-101l132 169h104z" />
    <glyph glyph-name="grave.uc" horiz-adv-x="644" 
d="M313 951l64 -170h-87l-114 170h137z" />
    <glyph glyph-name="dieresis.uc" horiz-adv-x="644" 
d="M488 908v-125h-111v125h111zM267 908v-125h-111v125h111z" />
    <glyph glyph-name="macron.uc" horiz-adv-x="644" 
d="M481 881v-88h-317v88h317z" />
    <glyph glyph-name="acute.uc" horiz-adv-x="644" 
d="M468 951l-114 -170h-87l64 170h137z" />
    <glyph glyph-name="cedilla.uc" horiz-adv-x="644" 
d="M377 -59l-44 -146h-121l69 146h96z" />
    <glyph glyph-name="uni02C0.uc" horiz-adv-x="644" 
d="M267 907v64c69 0 112 -44 112 -101s-43 -101 -112 -101v64c24 0 40 18 40 37s-16 37 -40 37z" />
    <glyph glyph-name="circumflex.uc" horiz-adv-x="644" 
d="M374 950l132 -169h-101l-83 91l-83 -91h-101l132 169h104z" />
    <glyph glyph-name="caron.uc" horiz-adv-x="644" 
d="M506 950l-132 -169h-104l-132 169h101l83 -90l83 90h101z" />
    <glyph glyph-name="breve.uc" horiz-adv-x="644" 
d="M399 930h87c-5 -108 -78 -151 -164 -151s-160 43 -164 151h87c5 -43 39 -60 77 -60s72 17 77 60z" />
    <glyph glyph-name="dotaccent.uc" horiz-adv-x="644" 
d="M378 905v-125h-111v125h111z" />
    <glyph glyph-name="ring.uc" horiz-adv-x="644" 
d="M322 1021c72 0 131 -58 131 -131c0 -72 -59 -131 -131 -131s-131 59 -131 131s59 131 131 131zM322 948c-32 0 -58 -26 -58 -58s26 -59 58 -59s58 27 58 59s-26 58 -58 58z" />
    <glyph glyph-name="ogonek.uc" horiz-adv-x="644" 
d="M383 -59l-44 -146h-121l69 146h96z" />
    <glyph glyph-name="tilde.uc" horiz-adv-x="644" 
d="M254 918c29 0 49 -6 77 -23c20 -12 35 -18 55 -18c17 0 32 2 59 29l58 -57c-44 -44 -75 -59 -113 -59c-30 0 -50 6 -78 23c-19 11 -36 18 -56 18c-17 0 -32 -3 -58 -29l-56 57c43 44 73 59 112 59z" />
    <glyph glyph-name="hungarumlaut.uc" horiz-adv-x="644" 
d="M560 951l-115 -170h-86l63 170h138zM358 951l-113 -170h-88l64 170h137z" />
    <glyph glyph-name="uni030F.uc" horiz-adv-x="644" 
d="M373 781l-102 170h127l75 -170h-100zM164 781l-103 170h128l74 -170h-99z" />
    <glyph glyph-name="uni0311.uc" horiz-adv-x="644" 
d="M322 932c86 0 159 -43 164 -151h-87c-5 43 -39 60 -77 60s-72 -17 -77 -60h-87c4 108 78 151 164 151z" />
    <glyph glyph-name="dotbelowcomb.uc" horiz-adv-x="644" 
d="M266 -197v125h111v-125h-111z" />
    <glyph glyph-name="uni0324.uc" horiz-adv-x="644" 
d="M488 -72v-125h-111v125h111zM267 -72v-125h-111v125h111z" />
    <glyph glyph-name="uni0325.uc" horiz-adv-x="644" 
d="M322 -32c72 0 131 -58 131 -131c0 -72 -59 -131 -131 -131s-131 59 -131 131s59 131 131 131zM322 -105c-32 0 -58 -26 -58 -58s26 -59 58 -59s58 27 58 59s-26 58 -58 58z" />
    <glyph glyph-name="uni032D.uc" horiz-adv-x="644" 
d="M374 -58l132 -169h-101l-83 90l-83 -90h-101l132 169h104z" />
    <glyph glyph-name="uni032E.uc" horiz-adv-x="644" 
d="M399 -58h87c-5 -108 -78 -151 -164 -151s-160 43 -164 151h87c5 -43 39 -60 77 -60s72 17 77 60z" />
    <glyph glyph-name="uni0330.uc" horiz-adv-x="644" 
d="M252 -67c30 0 49 -5 78 -22c19 -12 35 -19 55 -19c17 0 32 3 58 29l58 -57c-44 -44 -74 -58 -113 -58c-29 0 -49 6 -77 22c-19 11 -36 18 -56 18c-17 0 -32 -2 -58 -28l-57 57c44 44 74 58 112 58z" />
    <glyph glyph-name="uni0331.uc" horiz-adv-x="644" 
d="M480 -77v-88h-317v88h317z" />
    <glyph glyph-name="commaaccent.uc" horiz-adv-x="644" 
d="M383 -59l-44 -146h-121l69 146h96z" />
    </font>
</defs>
</svg>
