<?xml version="1.0" standalone="no"?>
<!DOCTYPE svg PUBLIC "-//W3C//DTD SVG 1.1//EN" "http://www.w3.org/Graphics/SVG/1.1/DTD/svg11.dtd" >
<svg xmlns="http://www.w3.org/2000/svg" width="100%" height="100%">
<metadata>
Created by FontXChange 20100429 at Mon Jan  2 15:37:36 2017
 By Killian Grant
Copyright 2013 \(c\) Rick Banks / Face37. All rights reserved.
</metadata>
<defs>
<font id="F37Jan-Regular" horiz-adv-x="0" >
  <font-face 
    font-family="F37 Jan"
    font-weight="400"
    font-stretch="normal"
    units-per-em="1000"
    panose-1="0 0 5 0 0 0 0 0 0 0"
    ascent="800"
    descent="-200"
    x-height="475"
    cap-height="708"
    bbox="-613 -242 1251 976"
    underline-thickness="50"
    underline-position="-50"
    stemh="90"
    stemv="96"
    unicode-range="U+0020-FB02"
  />
<missing-glyph horiz-adv-x="719" 
d="M624 0h-529v740h529v-740zM527 102v535h-335v-535h335z" />
    <glyph glyph-name="fi" unicode="fi" horiz-adv-x="540" 
d="M470 475v-475h-96v370c0 9 1 12 7 18l-9 8c-6 -6 -11 -7 -16 -7h-134c-5 0 -10 1 -16 7l-9 -8c6 -6 7 -9 7 -18v-369h-96v369c0 9 1 12 7 18l-9 8c-6 -6 -11 -7 -16 -7h-66v86h66c5 0 10 -1 16 -7l9 8c-6 6 -7 9 -7 18v6c0 132 64 213 183 213c5 0 20 0 36 -2v-91h-4
c-6 0 -17 1 -24 1c-73 0 -95 -56 -95 -100v-27c0 -9 -1 -12 -7 -18l9 -8c6 6 11 7 16 7h248zM422 586c-35 0 -62 27 -62 62s27 61 62 61s61 -26 61 -61s-26 -62 -61 -62z" />
    <glyph glyph-name="fl" unicode="fl" horiz-adv-x="535" 
d="M311 712c73 0 125 -8 154 -16v-696h-96v614c-21 6 -38 7 -60 7c-80 0 -105 -56 -105 -100v-27c0 -9 -1 -12 -7 -18l9 -8c6 6 11 7 16 7h96v-86h-96c-5 0 -10 1 -16 7l-9 -8c6 -6 7 -9 7 -18v-370h-96v370c0 9 1 12 7 18l-9 8c-6 -6 -11 -7 -16 -7h-66v86h66
c5 0 10 -1 16 -7l9 8c-6 6 -7 9 -7 18v2c1 136 83 216 203 216z" />
    <glyph glyph-name=".notdef" horiz-adv-x="719" 
d="M624 0h-529v740h529v-740zM527 102v535h-335v-535h335z" />
    <glyph glyph-name="A" unicode="A" horiz-adv-x="670" 
d="M9 0l270 708h110l274 -708h-108l-70 183h-302l-69 -183h-105zM224 258c5 7 14 11 24 11h173c10 0 19 -4 24 -11l11 5l-113 307c-3 9 -4 17 -4 22h-12c0 -5 -1 -13 -4 -22l-110 -307z" />
    <glyph glyph-name="Aacute" unicode="&#xc1;" horiz-adv-x="670" 
d="M250 765l-44 75l212 121l46 -82zM9 0l270 708h110l274 -708h-108l-70 183h-302l-69 -183h-105zM224 258c5 7 14 11 24 11h173c10 0 19 -4 24 -11l11 5l-113 307c-3 9 -4 17 -4 22h-12c0 -5 -1 -13 -4 -22l-110 -307z" />
    <glyph glyph-name="Acircumflex" unicode="&#xc2;" horiz-adv-x="670" 
d="M218 768l-53 53l138 137h66l136 -137l-54 -53l-115 112zM9 0l270 708h110l274 -708h-108l-70 183h-302l-69 -183h-105zM224 258c5 7 14 11 24 11h173c10 0 19 -4 24 -11l11 5l-113 307c-3 9 -4 17 -4 22h-12c0 -5 -1 -13 -4 -22l-110 -307z" />
    <glyph glyph-name="Adieresis" unicode="&#xc4;" horiz-adv-x="670" 
d="M244 806c-35 0 -62 27 -62 62s27 61 62 61s61 -26 61 -61s-26 -62 -61 -62zM426 806c-35 0 -62 27 -62 62s27 61 62 61s61 -26 61 -61s-26 -62 -61 -62zM9 0l270 708h110l274 -708h-108l-70 183h-302l-69 -183h-105zM224 258c5 7 14 11 24 11h173c10 0 19 -4 24 -11l11 5
l-113 307c-3 9 -4 17 -4 22h-12c0 -5 -1 -13 -4 -22l-110 -307z" />
    <glyph glyph-name="Agrave" unicode="&#xc0;" horiz-adv-x="670" 
d="M419 765l-213 112l46 84l211 -120zM9 0l270 708h110l274 -708h-108l-70 183h-302l-69 -183h-105zM224 258c5 7 14 11 24 11h173c10 0 19 -4 24 -11l11 5l-113 307c-3 9 -4 17 -4 22h-12c0 -5 -1 -13 -4 -22l-110 -307z" />
    <glyph glyph-name="Aring" unicode="&#xc5;" horiz-adv-x="670" 
d="M334 763c-58 0 -106 48 -106 106c0 57 47 107 106 107s107 -48 107 -107s-49 -106 -107 -106zM334 824c24 0 45 19 45 45c0 25 -20 45 -45 45s-45 -21 -45 -45c0 -25 20 -45 45 -45zM9 0l270 708h110l274 -708h-108l-70 183h-302l-69 -183h-105zM224 258c5 7 14 11 24 11
h173c10 0 19 -4 24 -11l11 5l-113 307c-3 9 -4 17 -4 22h-12c0 -5 -1 -13 -4 -22l-110 -307z" />
    <glyph glyph-name="Atilde" unicode="&#xc3;" horiz-adv-x="670" 
d="M409 784c-55 0 -99 41 -143 41c-25 0 -46 -13 -64 -30l-46 67c29 27 67 48 107 48c57 0 97 -41 141 -41c23 0 47 12 68 33l41 -65c-30 -33 -66 -53 -104 -53zM9 0l270 708h110l274 -708h-108l-70 183h-302l-69 -183h-105zM224 258c5 7 14 11 24 11h173c10 0 19 -4 24 -11
l11 5l-113 307c-3 9 -4 17 -4 22h-12c0 -5 -1 -13 -4 -22l-110 -307z" />
    <glyph glyph-name="AE" unicode="&#xc6;" horiz-adv-x="845" 
d="M-11 0l358 708h450v-91h-283c-5 0 -10 1 -16 7l-9 -8c6 -6 7 -9 7 -18v-165c0 -9 -1 -12 -7 -18l9 -8c6 6 11 7 16 7h227v-91h-227c-5 0 -10 1 -16 7l-9 -8c6 -6 7 -9 7 -18v-194c0 -9 -1 -12 -7 -18l9 -8c6 6 11 7 16 7h283v-91h-402v160c0 9 1 12 7 18l-9 8
c-6 -6 -11 -7 -16 -7h-198l-92 -179h-98zM232 256c5 7 14 11 24 11h121c5 0 10 -1 16 -7l9 8c-6 6 -7 9 -7 18v308h-11c0 -6 -1 -18 -4 -24l-159 -309z" />
    <glyph glyph-name="B" unicode="B" horiz-adv-x="664" 
d="M92 0v708h260c144 0 225 -64 225 -181c0 -64 -32 -120 -82 -142v-12c80 -22 127 -82 127 -164c0 -148 -110 -209 -250 -209h-280zM194 399c6 6 11 7 16 7h151c61 0 117 36 117 109c0 65 -43 102 -120 102h-148c-5 0 -10 1 -16 7l-9 -8c6 -6 7 -9 7 -18v-173
c0 -9 -1 -12 -7 -18zM194 84c6 6 11 7 16 7h174c79 0 139 35 139 118c0 77 -60 109 -149 109h-164c-5 0 -10 1 -16 7l-9 -8c6 -6 7 -9 7 -18v-189c0 -9 -1 -12 -7 -18z" />
    <glyph glyph-name="C" unicode="C" horiz-adv-x="700" 
d="M403 -13c-187 0 -360 150 -360 368c0 209 167 368 361 368c112 0 197 -37 270 -115l-68 -64c-57 63 -118 91 -200 91c-140 0 -262 -113 -262 -281c0 -158 119 -277 259 -277c87 0 154 34 206 89l65 -64c-67 -75 -157 -115 -271 -115z" />
    <glyph glyph-name="Ccedilla" unicode="&#xc7;" horiz-adv-x="700" 
d="M403 77c87 0 154.001 34 206.001 89l65 -64c-62.1504 -69.5703 -144.08 -109.021 -246.6 -114.37l-8.40039 -22.6299h9c45 0 94 -29 94 -97c0 -66 -44 -106 -117 -106c-64 0 -114 27 -114 101h67c2 -30 24 -40 48 -40s43 13 43 42s-19 42 -50 42h-66l27.5195 82.5801
c-169.91 20.6904 -317.521 164.04 -317.521 365.42c0 209 167 368 361 368c112 0 197 -37 270 -115l-68 -64c-57 63 -118 91 -200 91c-140 0 -262 -113 -262 -281c0 -158 119 -277 259 -277z" />
    <glyph glyph-name="D" unicode="D" horiz-adv-x="744" 
d="M92 0v708h227c228 0 381 -144 381 -354c0 -208 -159 -354 -381 -354h-227zM194 84c6 6 11 7 16 7h95c174 0 294 83 294 263c0 189 -137 263 -286 263h-103c-5 0 -10 1 -16 7l-9 -8c6 -6 7 -9 7 -18v-488c0 -9 -1 -12 -7 -18z" />
    <glyph glyph-name="Eth" unicode="&#xd0;" horiz-adv-x="758" 
d="M333 708c228 0 381 -144 381 -354c0 -208 -159 -354 -381 -354h-227v312h-89v86h89v310h227zM319 91c174 0 294 83 294 263c0 189 -137 263 -286 263h-103c-5 0 -10 1 -16 7l-9 -8c6 -6 7 -9 7 -18v-200h159v-86h-159v-202c0 -9 -1 -12 -7 -18l9 -8c6 6 11 7 16 7h95z
" />
    <glyph glyph-name="E" unicode="E" horiz-adv-x="570" 
d="M92 0v708h430v-91h-312c-5 0 -10 1 -16 7l-9 -8c6 -6 7 -9 7 -18v-165c0 -9 -1 -12 -7 -18l9 -8c6 6 11 7 16 7h256v-91h-256c-5 0 -10 1 -16 7l-9 -8c6 -6 7 -9 7 -18v-194c0 -9 -1 -12 -7 -18l9 -8c6 6 11 7 16 7h312v-91h-430z" />
    <glyph glyph-name="Eacute" unicode="&#xc9;" horiz-adv-x="570" 
d="M225 765l-44 75l212 121l46 -82zM92 0v708h430v-91h-312c-5 0 -10 1 -16 7l-9 -8c6 -6 7 -9 7 -18v-165c0 -9 -1 -12 -7 -18l9 -8c6 6 11 7 16 7h256v-91h-256c-5 0 -10 1 -16 7l-9 -8c6 -6 7 -9 7 -18v-194c0 -9 -1 -12 -7 -18l9 -8c6 6 11 7 16 7h312v-91h-430z" />
    <glyph glyph-name="Ecircumflex" unicode="&#xca;" horiz-adv-x="570" 
d="M193 768l-53 53l138 137h66l136 -137l-54 -53l-115 112zM92 0v708h430v-91h-312c-5 0 -10 1 -16 7l-9 -8c6 -6 7 -9 7 -18v-165c0 -9 -1 -12 -7 -18l9 -8c6 6 11 7 16 7h256v-91h-256c-5 0 -10 1 -16 7l-9 -8c6 -6 7 -9 7 -18v-194c0 -9 -1 -12 -7 -18l9 -8
c6 6 11 7 16 7h312v-91h-430z" />
    <glyph glyph-name="Edieresis" unicode="&#xcb;" horiz-adv-x="570" 
d="M219 806c-35 0 -62 27 -62 62s27 61 62 61s61 -26 61 -61s-26 -62 -61 -62zM401 806c-35 0 -62 27 -62 62s27 61 62 61s61 -26 61 -61s-26 -62 -61 -62zM92 0v708h430v-91h-312c-5 0 -10 1 -16 7l-9 -8c6 -6 7 -9 7 -18v-165c0 -9 -1 -12 -7 -18l9 -8c6 6 11 7 16 7h256
v-91h-256c-5 0 -10 1 -16 7l-9 -8c6 -6 7 -9 7 -18v-194c0 -9 -1 -12 -7 -18l9 -8c6 6 11 7 16 7h312v-91h-430z" />
    <glyph glyph-name="Egrave" unicode="&#xc8;" horiz-adv-x="570" 
d="M394 765l-213 112l46 84l211 -120zM92 0v708h430v-91h-312c-5 0 -10 1 -16 7l-9 -8c6 -6 7 -9 7 -18v-165c0 -9 -1 -12 -7 -18l9 -8c6 6 11 7 16 7h256v-91h-256c-5 0 -10 1 -16 7l-9 -8c6 -6 7 -9 7 -18v-194c0 -9 -1 -12 -7 -18l9 -8c6 6 11 7 16 7h312v-91h-430z" />
    <glyph glyph-name="F" unicode="F" horiz-adv-x="553" 
d="M92 0v708h433v-95h-315c-5 0 -10 1 -16 7l-9 -8c6 -6 7 -9 7 -18v-180c0 -9 -1 -12 -7 -18l9 -8c6 6 11 7 16 7h268v-91h-268c-5 0 -10 1 -16 7l-9 -8c6 -6 7 -9 7 -18v-285h-100z" />
    <glyph glyph-name="G" unicode="G" horiz-adv-x="726" 
d="M405 -13c-198 0 -362 162 -362 372c0 192 156 364 364 364c90 0 184 -33 256 -108l-68 -62c-47 51 -113 82 -186 82c-156 0 -265 -124 -265 -277c0 -161 115 -281 261 -281c70 0 130 25 174 65v130c0 9 1 12 7 18l-9 8c-6 -6 -11 -7 -16 -7h-171v90h279v-282
c-67 -69 -159 -112 -264 -112z" />
    <glyph glyph-name="H" unicode="H" horiz-adv-x="764" 
d="M92 0v708h100v-278c0 -9 -1 -12 -7 -18l9 -8c6 6 11 7 16 7h344c5 0 10 -1 16 -7l9 8c-6 6 -7 9 -7 18v278h100v-708h-100v302c0 9 1 12 7 18l-9 8c-6 -6 -11 -7 -16 -7h-344c-5 0 -10 1 -16 7l-9 -8c6 -6 7 -9 7 -18v-302h-100z" />
    <glyph glyph-name="I" unicode="I" horiz-adv-x="284" 
d="M92 0v708h100v-708h-100z" />
    <glyph glyph-name="Iacute" unicode="&#xcd;" horiz-adv-x="284" 
d="M57 765l-44 75l212 121l46 -82zM92 0v708h100v-708h-100z" />
    <glyph glyph-name="Icircumflex" unicode="&#xce;" horiz-adv-x="284" 
d="M25 768l-53 53l138 137h66l136 -137l-54 -53l-115 112zM92 0v708h100v-708h-100z" />
    <glyph glyph-name="Idieresis" unicode="&#xcf;" horiz-adv-x="284" 
d="M51 806c-35 0 -62 27 -62 62s27 61 62 61s61 -26 61 -61s-26 -62 -61 -62zM233 806c-35 0 -62 27 -62 62s27 61 62 61s61 -26 61 -61s-26 -62 -61 -62zM92 0v708h100v-708h-100z" />
    <glyph glyph-name="Igrave" unicode="&#xcc;" horiz-adv-x="284" 
d="M226 765l-213 112l46 84l211 -120zM92 0v708h100v-708h-100z" />
    <glyph glyph-name="J" unicode="J" horiz-adv-x="495" 
d="M197 -13c-120 0 -170 62 -196 128l85 43c21 -46 52 -79 111 -79c70 0 113 40 113 150v479h100v-496c0 -146 -89 -225 -213 -225z" />
    <glyph glyph-name="K" unicode="K" horiz-adv-x="612" 
d="M92 0v708h100v-315h12c0 10 3 20 16 34l270 281h121l-320 -333c-5 -5 -13 -5 -18 -5v-12c5 0 13 0 19 -6l329 -352h-129l-272 284c-13 14 -16 24 -16 34h-12v-318h-100z" />
    <glyph glyph-name="L" unicode="L" horiz-adv-x="520" 
d="M92 0v708h100v-598c0 -9 -2 -13 -9 -20l9 -8c7 7 13 9 18 9h300v-91h-418z" />
    <glyph glyph-name="Ldot" unicode="&#x13f;" horiz-adv-x="600" 
d="M92 0v708h100v-598c0 -9 -2 -13 -9 -20l9 -8c7 7 13 9 18 9h300v-91h-418zM433.42 319.06c-35 0 -62 27 -62 62s27 61 62 61s61 -26 61 -61s-26 -62 -61 -62z" />
    <glyph glyph-name="Lslash" unicode="&#x141;" horiz-adv-x="600" 
d="M210 91h300v-91h-418v267.16l-77.9697 -51.1602v96l77.9697 51.1602v344.84h100v-279.21l82.5996 54.21v-96l-82.5996 -54.21v-222.79c0 -9 -2 -13 -9 -20l9 -8c7 7 13 9 18 9z" />
    <glyph glyph-name="M" unicode="M" horiz-adv-x="885" 
d="M92 0v708h137l203 -317c6 -10 6 -18 6 -27h12c0 9 0 18 6 27l203 317h134v-708h-100v561c0 15 3 20 7 26l-10 7l-203 -320h-90l-203 320l-10 -7c4 -6 8 -12 8 -27v-560h-100z" />
    <glyph glyph-name="N" unicode="N" horiz-adv-x="751" 
d="M92 0v708h127l342 -541l9 7c-4 6 -8 12 -8 30v504h97v-708h-101l-369 580l-9 -7c5 -7 9 -13 9 -31v-542h-97z" />
    <glyph glyph-name="Ntilde" unicode="&#xd1;" horiz-adv-x="751" 
d="M450 784c-55 0 -99 41 -143 41c-25 0 -46 -13 -64 -30l-46 67c29 27 67 48 107 48c57 0 97 -41 141 -41c23 0 47 12 68 33l41 -65c-30 -33 -66 -53 -104 -53zM92 0v708h127l342 -541l9 7c-4 6 -8 12 -8 30v504h97v-708h-101l-369 580l-9 -7c5 -7 9 -13 9 -31v-542h-97z
" />
    <glyph glyph-name="O" unicode="O" horiz-adv-x="802" 
d="M401 -13c-203 0 -358 168 -358 368s155 368 358 368s358 -168 358 -368s-155 -368 -358 -368zM401 80c149 0 255 126 255 275c0 151 -109 275 -255 275c-149 0 -255 -124 -255 -275c0 -149 109 -275 255 -275z" />
    <glyph glyph-name="Oacute" unicode="&#xd3;" horiz-adv-x="802" 
d="M317 765l-44 75l212 121l46 -82zM401 -13c-203 0 -358 168 -358 368s155 368 358 368s358 -168 358 -368s-155 -368 -358 -368zM401 80c149 0 255 126 255 275c0 151 -109 275 -255 275c-149 0 -255 -124 -255 -275c0 -149 109 -275 255 -275z" />
    <glyph glyph-name="Ocircumflex" unicode="&#xd4;" horiz-adv-x="802" 
d="M285 768l-53 53l138 137h66l136 -137l-54 -53l-115 112zM401 -13c-203 0 -358 168 -358 368s155 368 358 368s358 -168 358 -368s-155 -368 -358 -368zM401 80c149 0 255 126 255 275c0 151 -109 275 -255 275c-149 0 -255 -124 -255 -275c0 -149 109 -275 255 -275z" />
    <glyph glyph-name="Odieresis" unicode="&#xd6;" horiz-adv-x="802" 
d="M311 806c-35 0 -62 27 -62 62s27 61 62 61s61 -26 61 -61s-26 -62 -61 -62zM493 806c-35 0 -62 27 -62 62s27 61 62 61s61 -26 61 -61s-26 -62 -61 -62zM401 -13c-203 0 -358 168 -358 368s155 368 358 368s358 -168 358 -368s-155 -368 -358 -368zM401 80
c149 0 255 126 255 275c0 151 -109 275 -255 275c-149 0 -255 -124 -255 -275c0 -149 109 -275 255 -275z" />
    <glyph glyph-name="Ograve" unicode="&#xd2;" horiz-adv-x="802" 
d="M486 765l-213 112l46 84l211 -120zM401 -13c-203 0 -358 168 -358 368s155 368 358 368s358 -168 358 -368s-155 -368 -358 -368zM401 80c149 0 255 126 255 275c0 151 -109 275 -255 275c-149 0 -255 -124 -255 -275c0 -149 109 -275 255 -275z" />
    <glyph glyph-name="Oslash" unicode="&#xd8;" horiz-adv-x="802" 
d="M635.57 633.84c76.2998 -68.0195 123.429 -168.569 123.429 -278.839c0 -200 -155 -368 -358 -368c-59.7998 0 -115.43 14.5703 -164.16 40.25l-46.8398 -71.25l-70 44l48.6201 74.2197c-77.5996 68.04 -125.619 169.45 -125.619 280.78c0 200 155 368 358 368
c60.4404 0 116.631 -14.9004 165.73 -41.0908l45.2695 69.0898l71 -45zM145.999 355c0 -76.7598 28.9297 -147.41 76.9297 -197.88l291.66 445.2c-33.7998 17.71 -72.21 27.6797 -113.59 27.6797c-149 0 -255 -124 -255 -275zM401.009 80c149 0 255 126 255 275
c0 76.5801 -28.04 146.22 -74.7197 196.25l-292 -444.21c33.3398 -17.29 71.0996 -27.04 111.72 -27.04z" />
    <glyph glyph-name="Otilde" unicode="&#xd5;" horiz-adv-x="802" 
d="M476 784c-55 0 -99 41 -143 41c-25 0 -46 -13 -64 -30l-46 67c29 27 67 48 107 48c57 0 97 -41 141 -41c23 0 47 12 68 33l41 -65c-30 -33 -66 -53 -104 -53zM401 -13c-203 0 -358 168 -358 368s155 368 358 368s358 -168 358 -368s-155 -368 -358 -368zM401 80
c149 0 255 126 255 275c0 151 -109 275 -255 275c-149 0 -255 -124 -255 -275c0 -149 109 -275 255 -275z" />
    <glyph glyph-name="OE" unicode="&#x152;" horiz-adv-x="1145" 
d="M406 -13c-200 0 -363 162 -363 372c0 198 160 364 364 364c107 0 203 -45 255 -123l10 7c-4 5 -7 10 -7 20v81h432v-91h-312c-5 0 -10 1 -16 7l-9 -8c6 -6 7 -9 7 -18v-165c0 -9 -1 -12 -7 -18l9 -8c6 6 11 7 16 7h256v-91h-256c-5 0 -10 1 -16 7l-9 -8c6 -6 7 -9 7 -18
v-194c0 -9 -1 -12 -7 -18l9 -8c6 6 11 7 16 7h312v-91h-432v89c0 10 3 15 7 20l-10 7c-56 -83 -149 -129 -256 -129zM407 77c148 0 263 117 263 282c0 151 -114 276 -264 276c-148 0 -262 -121 -262 -277c0 -166 122 -281 263 -281z" />
    <glyph glyph-name="P" unicode="P" horiz-adv-x="591" 
d="M92 0v708h212c152 0 259 -81 259 -231c0 -145 -107 -231 -259 -231h-94c-5 0 -10 1 -16 7l-9 -8c6 -6 7 -9 7 -18v-227h-100zM194 330c6 6 11 7 16 7h94c93 0 159 44 159 140s-66 140 -159 140h-94c-5 0 -10 1 -16 7l-9 -8c6 -6 7 -9 7 -18v-242c0 -9 -1 -12 -7 -18z" />
    <glyph glyph-name="Thorn" unicode="&#xde;" horiz-adv-x="602" 
d="M92 0v708h100v-100c0 -9 -1 -12 -7 -18l9 -8c6 6 11 7 16 7h95c155 0 258 -76 258 -223c0 -150 -94 -240 -258 -240h-95c-5 0 -10 1 -16 7l-9 -8c6 -6 7 -9 7 -18v-107h-100zM194 211c6 6 11 7 16 7h93c93 0 158 41 158 136c0 91 -53 143 -158 143h-93c-5 0 -10 1 -16 7
l-9 -8c6 -6 7 -9 7 -18v-241c0 -9 -1 -12 -7 -18z" />
    <glyph glyph-name="Q" unicode="Q" horiz-adv-x="802" 
d="M599.6 36.9004c6 0 12.1006 0.0996094 19.001 -9l72 -95l-77 -58l-98.1699 130.91c-35.6904 -12.1797 -74.1104 -18.8096 -114.431 -18.8096c-203 0 -358 168 -358 368s155 368 358 368s358 -168 358 -368c0 -126.7 -62.2002 -240.55 -159.4 -306.99v-11.1104z
M146.001 355c0 -149 109 -275 255 -275c149 0 255 126 255 275c0 151 -109 275 -255 275c-149 0 -255 -124 -255 -275z" />
    <glyph glyph-name="R" unicode="R" horiz-adv-x="639" 
d="M92 0v708h239c145 0 246 -70 246 -210c0 -135 -100 -202 -209 -208v-10c12 1 24 -8 33 -19l215 -261h-122l-240 289h-44c-5 0 -10 1 -16 7l-9 -8c6 -6 7 -9 7 -18v-270h-100zM194 371c6 6 11 7 16 7h122c85 0 144 36 144 120s-59 119 -144 119h-122c-5 0 -10 1 -16 7
l-9 -8c6 -6 7 -9 7 -18v-201c0 -9 -1 -12 -7 -18z" />
    <glyph glyph-name="S" unicode="S" horiz-adv-x="552" 
d="M272 -13c-99 0 -183 34 -247 89l59 78c47 -43 110 -74 185 -74c110 0 141 57 141 102c0 73 -63 106 -149 137c-114 41 -197 94 -197 212c0 117 88 192 227 192c86 0 151 -30 202 -67l-55 -76c-32 26 -86 50 -146 50c-72 0 -127 -32 -127 -97c0 -64 47 -91 131 -122
c127 -48 217 -99 217 -226c0 -129 -95 -198 -241 -198z" />
    <glyph glyph-name="Scaron" unicode="&#x160;" horiz-adv-x="552" 
d="M236 774l-136 137l54 53l115 -112l118 112l53 -53l-138 -137h-66zM272 -13c-99 0 -183 34 -247 89l59 78c47 -43 110 -74 185 -74c110 0 141 57 141 102c0 73 -63 106 -149 137c-114 41 -197 94 -197 212c0 117 88 192 227 192c86 0 151 -30 202 -67l-55 -76
c-32 26 -86 50 -146 50c-72 0 -127 -32 -127 -97c0 -64 47 -91 131 -122c127 -48 217 -99 217 -226c0 -129 -95 -198 -241 -198z" />
    <glyph glyph-name="T" unicode="T" horiz-adv-x="573" 
d="M237 0v598c0 9 1 12 7 18l-9 8c-6 -6 -11 -7 -16 -7h-209v91h553v-91h-208c-5 0 -10 1 -16 7l-9 -8c6 -6 7 -9 7 -18v-598h-100z" />
    <glyph glyph-name="U" unicode="U" horiz-adv-x="736" 
d="M367 -13c-168 0 -284 111 -284 298v423h100v-401c0 -140 56 -227 184 -227c129 0 188 87 188 227v401h98v-423c0 -187 -117 -298 -286 -298z" />
    <glyph glyph-name="Uacute" unicode="&#xda;" horiz-adv-x="736" 
d="M283 765l-44 75l212 121l46 -82zM367 -13c-168 0 -284 111 -284 298v423h100v-401c0 -140 56 -227 184 -227c129 0 188 87 188 227v401h98v-423c0 -187 -117 -298 -286 -298z" />
    <glyph glyph-name="Ucircumflex" unicode="&#xdb;" horiz-adv-x="736" 
d="M251 768l-53 53l138 137h66l136 -137l-54 -53l-115 112zM367 -13c-168 0 -284 111 -284 298v423h100v-401c0 -140 56 -227 184 -227c129 0 188 87 188 227v401h98v-423c0 -187 -117 -298 -286 -298z" />
    <glyph glyph-name="Udieresis" unicode="&#xdc;" horiz-adv-x="736" 
d="M277 806c-35 0 -62 27 -62 62s27 61 62 61s61 -26 61 -61s-26 -62 -61 -62zM459 806c-35 0 -62 27 -62 62s27 61 62 61s61 -26 61 -61s-26 -62 -61 -62zM367 -13c-168 0 -284 111 -284 298v423h100v-401c0 -140 56 -227 184 -227c129 0 188 87 188 227v401h98v-423
c0 -187 -117 -298 -286 -298z" />
    <glyph glyph-name="Ugrave" unicode="&#xd9;" horiz-adv-x="736" 
d="M452 765l-213 112l46 84l211 -120zM367 -13c-168 0 -284 111 -284 298v423h100v-401c0 -140 56 -227 184 -227c129 0 188 87 188 227v401h98v-423c0 -187 -117 -298 -286 -298z" />
    <glyph glyph-name="V" unicode="V" horiz-adv-x="650" 
d="M275 0l-266 708h111l198 -552c5 -15 5 -21 5 -29h12c0 8 0 14 5 29l194 552h107l-266 -708h-100z" />
    <glyph glyph-name="W" unicode="W" horiz-adv-x="995" 
d="M232 0l-220 708h104l154 -529c5 -17 6 -29 6 -37h12c0 8 0 20 5 37l155 529h101l156 -529c5 -17 5 -29 5 -37h12c0 8 1 20 6 37l153 529h102l-220 -708h-96l-158 516c-5 17 -6 30 -6 42h-12c0 -12 0 -25 -5 -42l-158 -516h-96z" />
    <glyph glyph-name="X" unicode="X" horiz-adv-x="606" 
d="M8 0l237 361l-227 347h111l169 -258c3 -5 3 -11 3 -17h12c0 6 0 13 3 18l159 257h112l-228 -348l241 -360h-112l-180 269c-4 6 -4 12 -4 19h-12c0 -7 0 -13 -3 -18l-170 -270h-111z" />
    <glyph glyph-name="Y" unicode="Y" horiz-adv-x="630" 
d="M265 0v301l-255 407h111l186 -303c6 -9 6 -18 6 -23h12c0 5 0 14 5 22l186 304h104l-255 -406v-302h-100z" />
    <glyph glyph-name="Yacute" unicode="&#xdd;" horiz-adv-x="630" 
d="M231 765l-44 75l212 121l46 -82zM265 0v301l-255 407h111l186 -303c6 -9 6 -18 6 -23h12c0 5 0 14 5 22l186 304h104l-255 -406v-302h-100z" />
    <glyph glyph-name="Ydieresis" unicode="&#x178;" horiz-adv-x="630" 
d="M225 806c-35 0 -62 27 -62 62s27 61 62 61s61 -26 61 -61s-26 -62 -61 -62zM407 806c-35 0 -62 27 -62 62s27 61 62 61s61 -26 61 -61s-26 -62 -61 -62zM265 0v301l-255 407h111l186 -303c6 -9 6 -18 6 -23h12c0 5 0 14 5 22l186 304h104l-255 -406v-302h-100z" />
    <glyph glyph-name="Z" unicode="Z" horiz-adv-x="616" 
d="M37 0v89l402 508c6 7 11 8 20 8v12h-414v91h524v-90l-401 -508c-7 -7 -12 -8 -20 -8v-12h432v-90h-543z" />
    <glyph glyph-name="Zcaron" unicode="&#x17d;" horiz-adv-x="616" 
d="M270 774l-136 137l54 53l115 -112l118 112l53 -53l-138 -137h-66zM37 0v89l402 508c6 7 11 8 20 8v12h-414v91h524v-90l-401 -508c-7 -7 -12 -8 -20 -8v-12h432v-90h-543z" />
    <glyph glyph-name="a" unicode="a" horiz-adv-x="599" 
d="M271 -12c-124 0 -233 105 -233 249c0 146 111 248 233 248c74 0 129 -27 163 -66l10 8c-9 11 -11 19 -11 31v17h96v-475h-96v15c0 14 3 22 11 31l-10 8c-34 -39 -89 -66 -163 -66zM288 76c87 0 151 70 151 161c0 89 -64 160 -151 160c-91 0 -154 -74 -154 -160
c0 -91 65 -161 154 -161z" />
    <glyph glyph-name="aacute" unicode="&#xe1;" horiz-adv-x="599" 
d="M205 532l-44 75l212 121l46 -82zM271 -12c-124 0 -233 105 -233 249c0 146 111 248 233 248c74 0 129 -27 163 -66l10 8c-9 11 -11 19 -11 31v17h96v-475h-96v15c0 14 3 22 11 31l-10 8c-34 -39 -89 -66 -163 -66zM288 76c87 0 151 70 151 161c0 89 -64 160 -151 160
c-91 0 -154 -74 -154 -160c0 -91 65 -161 154 -161z" />
    <glyph glyph-name="acircumflex" unicode="&#xe2;" horiz-adv-x="599" 
d="M173 535l-53 53l138 137h66l136 -137l-54 -53l-115 112zM271 -12c-124 0 -233 105 -233 249c0 146 111 248 233 248c74 0 129 -27 163 -66l10 8c-9 11 -11 19 -11 31v17h96v-475h-96v15c0 14 3 22 11 31l-10 8c-34 -39 -89 -66 -163 -66zM288 76c87 0 151 70 151 161
c0 89 -64 160 -151 160c-91 0 -154 -74 -154 -160c0 -91 65 -161 154 -161z" />
    <glyph glyph-name="adieresis" unicode="&#xe4;" horiz-adv-x="599" 
d="M199 573c-35 0 -62 27 -62 62s27 61 62 61s61 -26 61 -61s-26 -62 -61 -62zM381 573c-35 0 -62 27 -62 62s27 61 62 61s61 -26 61 -61s-26 -62 -61 -62zM271 -12c-124 0 -233 105 -233 249c0 146 111 248 233 248c74 0 129 -27 163 -66l10 8c-9 11 -11 19 -11 31v17h96
v-475h-96v15c0 14 3 22 11 31l-10 8c-34 -39 -89 -66 -163 -66zM288 76c87 0 151 70 151 161c0 89 -64 160 -151 160c-91 0 -154 -74 -154 -160c0 -91 65 -161 154 -161z" />
    <glyph glyph-name="agrave" unicode="&#xe0;" horiz-adv-x="599" 
d="M374 532l-213 112l46 84l211 -120zM271 -12c-124 0 -233 105 -233 249c0 146 111 248 233 248c74 0 129 -27 163 -66l10 8c-9 11 -11 19 -11 31v17h96v-475h-96v15c0 14 3 22 11 31l-10 8c-34 -39 -89 -66 -163 -66zM288 76c87 0 151 70 151 161c0 89 -64 160 -151 160
c-91 0 -154 -74 -154 -160c0 -91 65 -161 154 -161z" />
    <glyph glyph-name="aring" unicode="&#xe5;" horiz-adv-x="599" 
d="M289 530c-58 0 -106 48 -106 106c0 57 47 107 106 107s107 -48 107 -107s-49 -106 -107 -106zM289 591c24 0 45 19 45 45c0 25 -20 45 -45 45s-45 -21 -45 -45c0 -25 20 -45 45 -45zM271 -12c-124 0 -233 105 -233 249c0 146 111 248 233 248c74 0 129 -27 163 -66l10 8
c-9 11 -11 19 -11 31v17h96v-475h-96v15c0 14 3 22 11 31l-10 8c-34 -39 -89 -66 -163 -66zM288 76c87 0 151 70 151 161c0 89 -64 160 -151 160c-91 0 -154 -74 -154 -160c0 -91 65 -161 154 -161z" />
    <glyph glyph-name="atilde" unicode="&#xe3;" horiz-adv-x="599" 
d="M364 551c-55 0 -99 41 -143 41c-25 0 -46 -13 -64 -30l-46 67c29 27 67 48 107 48c57 0 97 -41 141 -41c23 0 47 12 68 33l41 -65c-30 -33 -66 -53 -104 -53zM271 -12c-124 0 -233 105 -233 249c0 146 111 248 233 248c74 0 129 -27 163 -66l10 8c-9 11 -11 19 -11 31v17
h96v-475h-96v15c0 14 3 22 11 31l-10 8c-34 -39 -89 -66 -163 -66zM288 76c87 0 151 70 151 161c0 89 -64 160 -151 160c-91 0 -154 -74 -154 -160c0 -91 65 -161 154 -161z" />
    <glyph glyph-name="ae" unicode="&#xe6;" horiz-adv-x="956" 
d="M687 485c141 0 239 -106 239 -248c0 -13 -1 -23 -2 -33h-357c-17 0 -19 1 -23 6l-9 -8c6 -6 8 -9 9 -14c12 -57 69 -112 148 -112c52 0 103 23 133 64l68 -52c-44 -62 -119 -100 -202 -100c-63 0 -123 27 -163 66l-10 -8c8 -9 11 -17 11 -31v-15h-96v15c0 14 3 22 11 31
l-10 8c-45 -46 -87 -66 -151 -66c-128 0 -245 100 -245 249s117 248 245 248c66 0 116 -25 151 -64l10 8c-9 11 -11 19 -11 31v15h96v-15c0 -12 -2 -20 -11 -31l10 -8c43 41 98 64 159 64zM288 76c91 0 154 70 154 161c0 89 -63 160 -154 160s-154 -71 -154 -160
c0 -91 61 -161 154 -161zM543 276c4 4 7 4 16 4h255c9 0 12 0 16 -4l9 8c-7 7 -14 14 -17 21c-21 52 -68 92 -134 92c-75 0 -115 -45 -136 -92c-3 -7 -11 -14 -18 -21z" />
    <glyph glyph-name="b" unicode="b" horiz-adv-x="599" 
d="M320 -12c-64 0 -107 18 -155 66l-10 -8c8 -9 11 -17 11 -31v-15h-96v708h96v-248c0 -12 -2 -20 -11 -31l10 -8c39 43 91 64 155 64c122 0 241 -100 241 -248c0 -149 -119 -249 -241 -249zM311 76c91 0 154 71 154 161c0 88 -64 160 -154 160c-84 0 -151 -67 -151 -160
c0 -92 67 -161 151 -161z" />
    <glyph glyph-name="c" unicode="c" horiz-adv-x="522" 
d="M287 -12c-139 0 -250 108 -250 248c0 144 112 249 250 249c91 0 170 -46 208 -118l-77 -46c-27 49 -76 76 -131 76c-85 0 -154 -65 -154 -162c0 -86 64 -159 154 -159c59 0 107 30 134 76l76 -47c-41 -70 -120 -117 -210 -117z" />
    <glyph glyph-name="ccedilla" unicode="&#xe7;" horiz-adv-x="522" 
d="M497 105c-35.3496 -60.3496 -98.9502 -103.609 -173.49 -114.39l-9.50977 -25.6104h9c45 0 94 -29 94 -97c0 -66 -44 -106 -117 -106c-64 0 -114 27 -114 101h67c2 -30 24 -40 48 -40s43 13 43 42s-19 42 -50 42h-66l27.6201 82.8604
c-123.96 14.8496 -218.62 116.85 -218.62 246.14c0 144 112 249 250 249c91 0 170 -46 208 -118l-77 -46c-27 49 -76 76 -131 76c-85 0 -154 -65 -154 -162c0 -86 64 -159 154 -159c59 0 107 30 134 76z" />
    <glyph glyph-name="d" unicode="d" horiz-adv-x="599" 
d="M271 -12c-124 0 -233 105 -233 249c0 146 111 248 233 248c74 0 129 -27 163 -66l10 8c-9 11 -11 19 -11 31v250h96v-708h-96v15c0 14 3 22 11 31l-10 8c-34 -39 -89 -66 -163 -66zM288 76c87 0 151 70 151 161c0 89 -64 160 -151 160c-91 0 -154 -74 -154 -160
c0 -91 65 -161 154 -161z" />
    <glyph glyph-name="eth" unicode="&#xf0;" horiz-adv-x="584" 
d="M347.61 655.87c117.1 -70.7695 184.06 -196.062 185.39 -387.871v-28c0 -152 -117 -252 -248 -252c-144 0 -248 117 -248 248c0 142 112 249 247 249c61 0 113 -24 144 -69l10 6c-24.4004 68.6904 -71.8701 132.851 -152.75 175.801l-79.25 -73.7998l-47 45
l60.25 56.4404c-30.5 9.80957 -64.4805 17.1592 -102.25 21.5596l16 76c55.6699 -6.30957 106.46 -18.21 151.77 -36.1699l64.2305 60.1699l46 -47zM286 75.998c92 0 152 77 152 160c0 89 -61 161 -152 161c-89 0 -153 -72 -153 -161c0 -88 66 -160 153 -160z" />
    <glyph glyph-name="e" unicode="e" horiz-adv-x="532" 
d="M286 -12c-146 0 -248 108 -248 248c0 135 94 249 241 249c128 0 223 -102 223 -248c0 -13 -1 -23 -2 -33h-337c-17 0 -19 1 -23 6l-9 -8c6 -6 8 -9 9 -14c12 -57 62 -112 146 -112c46 0 89 23 115 64l68 -52c-40 -62 -107 -100 -183 -100zM139 276c4 4 7 4 16 4h235
c9 0 12 0 16 -4l9 8c-7 7 -14 14 -16 21c-15 52 -62 92 -122 92c-71 0 -113 -45 -129 -92c-2 -7 -11 -14 -18 -21z" />
    <glyph glyph-name="eacute" unicode="&#xe9;" horiz-adv-x="532" 
d="M186 532l-44 75l212 121l46 -82zM286 -12c-146 0 -248 108 -248 248c0 135 94 249 241 249c128 0 223 -102 223 -248c0 -13 -1 -23 -2 -33h-337c-17 0 -19 1 -23 6l-9 -8c6 -6 8 -9 9 -14c12 -57 62 -112 146 -112c46 0 89 23 115 64l68 -52c-40 -62 -107 -100 -183 -100
zM139 276c4 4 7 4 16 4h235c9 0 12 0 16 -4l9 8c-7 7 -14 14 -16 21c-15 52 -62 92 -122 92c-71 0 -113 -45 -129 -92c-2 -7 -11 -14 -18 -21z" />
    <glyph glyph-name="ecircumflex" unicode="&#xea;" horiz-adv-x="532" 
d="M154 535l-53 53l138 137h66l136 -137l-54 -53l-115 112zM286 -12c-146 0 -248 108 -248 248c0 135 94 249 241 249c128 0 223 -102 223 -248c0 -13 -1 -23 -2 -33h-337c-17 0 -19 1 -23 6l-9 -8c6 -6 8 -9 9 -14c12 -57 62 -112 146 -112c46 0 89 23 115 64l68 -52
c-40 -62 -107 -100 -183 -100zM139 276c4 4 7 4 16 4h235c9 0 12 0 16 -4l9 8c-7 7 -14 14 -16 21c-15 52 -62 92 -122 92c-71 0 -113 -45 -129 -92c-2 -7 -11 -14 -18 -21z" />
    <glyph glyph-name="edieresis" unicode="&#xeb;" horiz-adv-x="532" 
d="M180 573c-35 0 -62 27 -62 62s27 61 62 61s61 -26 61 -61s-26 -62 -61 -62zM362 573c-35 0 -62 27 -62 62s27 61 62 61s61 -26 61 -61s-26 -62 -61 -62zM286 -12c-146 0 -248 108 -248 248c0 135 94 249 241 249c128 0 223 -102 223 -248c0 -13 -1 -23 -2 -33h-337
c-17 0 -19 1 -23 6l-9 -8c6 -6 8 -9 9 -14c12 -57 62 -112 146 -112c46 0 89 23 115 64l68 -52c-40 -62 -107 -100 -183 -100zM139 276c4 4 7 4 16 4h235c9 0 12 0 16 -4l9 8c-7 7 -14 14 -16 21c-15 52 -62 92 -122 92c-71 0 -113 -45 -129 -92c-2 -7 -11 -14 -18 -21z" />
    <glyph glyph-name="egrave" unicode="&#xe8;" horiz-adv-x="532" 
d="M355 532l-213 112l46 84l211 -120zM286 -12c-146 0 -248 108 -248 248c0 135 94 249 241 249c128 0 223 -102 223 -248c0 -13 -1 -23 -2 -33h-337c-17 0 -19 1 -23 6l-9 -8c6 -6 8 -9 9 -14c12 -57 62 -112 146 -112c46 0 89 23 115 64l68 -52
c-40 -62 -107 -100 -183 -100zM139 276c4 4 7 4 16 4h235c9 0 12 0 16 -4l9 8c-7 7 -14 14 -16 21c-15 52 -62 92 -122 92c-71 0 -113 -45 -129 -92c-2 -7 -11 -14 -18 -21z" />
    <glyph glyph-name="f" unicode="f" horiz-adv-x="333" 
d="M108 0v370c0 9 1 12 7 18l-9 8c-6 -6 -11 -7 -16 -7h-66v86h66c5 0 10 -1 16 -7l9 8c-6 6 -7 9 -7 18v6c0 132 64 213 183 213c5 0 20 0 36 -2v-91h-4c-6 0 -17 1 -24 1c-73 0 -95 -56 -95 -100v-27c0 -9 -1 -12 -7 -18l9 -8c6 6 11 7 16 7h96v-86h-96c-5 0 -10 1 -16 7
l-9 -8c6 -6 7 -9 7 -18v-370h-96z" />
    <glyph glyph-name="g" unicode="g" horiz-adv-x="599" 
d="M279 -242l-1 90c100 0 155 40 155 152v12c0 17 2 24 11 34l-10 8c-45 -46 -87 -66 -150 -66c-133 0 -246 100 -246 249s113 248 247 248c65 0 114 -25 149 -64l10 8c-9 11 -11 19 -11 31v15h96v-453c0 -221 -126 -264 -250 -264zM290 76c86 0 152 69 152 161
c0 93 -66 160 -153 160c-96 0 -155 -75 -155 -160c0 -90 60 -161 156 -161z" />
    <glyph glyph-name="h" unicode="h" horiz-adv-x="564" 
d="M70 0v708h96v-246c0 -13 -2 -22 -11 -33l10 -8c26 32 75 64 139 64c113 0 196 -66 196 -216v-269h-96v249c0 97 -37 146 -117 146c-82 0 -121 -53 -121 -153v-242h-96z" />
    <glyph glyph-name="i" unicode="i" horiz-adv-x="236" 
d="M118 586c-35 0 -62 27 -62 62s27 61 62 61s61 -26 61 -61s-26 -62 -61 -62zM166 0h-96v475h96v-475z" />
    <glyph glyph-name="dotlessi" unicode="&#x131;" horiz-adv-x="236" 
d="M166 0h-96v475h96v-475z" />
    <glyph glyph-name="iacute" unicode="&#xed;" horiz-adv-x="236" 
d="M33 532l-44 75l212 121l46 -82zM166 0h-96v475h96v-475z" />
    <glyph glyph-name="icircumflex" unicode="&#xee;" horiz-adv-x="236" 
d="M1 535l-53 53l138 137h66l136 -137l-54 -53l-115 112zM166 0h-96v475h96v-475z" />
    <glyph glyph-name="idieresis" unicode="&#xef;" horiz-adv-x="236" 
d="M27 573c-35 0 -62 27 -62 62s27 61 62 61s61 -26 61 -61s-26 -62 -61 -62zM209 573c-35 0 -62 27 -62 62s27 61 62 61s61 -26 61 -61s-26 -62 -61 -62zM166 0h-96v475h96v-475z" />
    <glyph glyph-name="igrave" unicode="&#xec;" horiz-adv-x="236" 
d="M202 532l-213 112l46 84l211 -120zM166 0h-96v475h96v-475z" />
    <glyph glyph-name="j" unicode="j" horiz-adv-x="244" 
d="M128 586c-35 0 -62 27 -62 62s27 61 62 61s61 -26 61 -61s-26 -62 -61 -62zM-20 -242v94c29 0 98 10 98 100v523h96v-500c0 -169 -88 -217 -194 -217z" />
    <glyph glyph-name="uni0237" unicode="&#x237;" horiz-adv-x="244" 
d="M-20 -242v94c29 0 98 10 98 100v523h96v-500c0 -169 -88 -217 -194 -217z" />
    <glyph glyph-name="k" unicode="k" horiz-adv-x="482" 
d="M70 0v708h96v-429h12c0 17 16 33 22 39l144 157h123l-190 -202c-6 -6 -13 -10 -22 -10v-12c9 0 17 -3 25 -12l213 -239h-129l-168 189c-6 7 -18 22 -18 38h-12v-227h-96z" />
    <glyph glyph-name="l" unicode="l" horiz-adv-x="236" 
d="M70 0v708h96v-708h-96z" />
    <glyph glyph-name="ldot" unicode="&#x140;" horiz-adv-x="338" 
d="M70 0v708h96v-708h-96zM290.97 265.84c-35 0 -62 27 -62 62s27 61 62 61s61 -26 61 -61s-26 -62 -61 -62z" />
    <glyph glyph-name="lslash" unicode="&#x142;" horiz-adv-x="311" 
d="M272 493v-96l-70 -50.7197v-346.28h-96v276.72l-70 -50.7197v96l70 50.7197v335.28h96v-265.72z" />
    <glyph glyph-name="m" unicode="m" horiz-adv-x="848" 
d="M70 0v475h96v-13c0 -21 -7 -28 -11 -33l10 -8c33 39 73 64 138 64c56 0 114 -28 141 -84c45 68 100 84 153 84c101 0 187 -64 187 -214v-271h-96v269c0 76 -31 126 -106 126s-107 -60 -107 -126v-269h-96v269c0 76 -31 126 -106 126s-107 -60 -107 -126v-269h-96z" />
    <glyph glyph-name="n" unicode="n" horiz-adv-x="566" 
d="M70 0v475h96v-9c0 -16 -1 -25 -11 -37l10 -8c28 33 70 64 142 64c113 0 195 -66 195 -215v-270h-96v250c0 96 -39 145 -118 145c-81 0 -122 -53 -122 -153v-242h-96z" />
    <glyph glyph-name="ntilde" unicode="&#xf1;" horiz-adv-x="566" 
d="M354 551c-55 0 -99 41 -143 41c-25 0 -46 -13 -64 -30l-46 67c29 27 67 48 107 48c57 0 97 -41 141 -41c23 0 47 12 68 33l41 -65c-30 -33 -66 -53 -104 -53zM70 0v475h96v-9c0 -16 -1 -25 -11 -37l10 -8c28 33 70 64 142 64c113 0 195 -66 195 -215v-270h-96v250
c0 96 -39 145 -118 145c-81 0 -122 -53 -122 -153v-242h-96z" />
    <glyph glyph-name="o" unicode="o" horiz-adv-x="571" 
d="M287 -12c-143 0 -250 112 -250 250c0 136 107 247 250 247c141 0 247 -111 247 -247c0 -138 -106 -250 -247 -250zM287 76c88 0 151 72 151 162c0 87 -63 159 -151 159c-90 0 -154 -72 -154 -159c0 -90 64 -162 154 -162z" />
    <glyph glyph-name="oacute" unicode="&#xf3;" horiz-adv-x="571" 
d="M201 532l-44 75l212 121l46 -82zM287 -12c-143 0 -250 112 -250 250c0 136 107 247 250 247c141 0 247 -111 247 -247c0 -138 -106 -250 -247 -250zM287 76c88 0 151 72 151 162c0 87 -63 159 -151 159c-90 0 -154 -72 -154 -159c0 -90 64 -162 154 -162z" />
    <glyph glyph-name="ocircumflex" unicode="&#xf4;" horiz-adv-x="571" 
d="M169 535l-53 53l138 137h66l136 -137l-54 -53l-115 112zM287 -12c-143 0 -250 112 -250 250c0 136 107 247 250 247c141 0 247 -111 247 -247c0 -138 -106 -250 -247 -250zM287 76c88 0 151 72 151 162c0 87 -63 159 -151 159c-90 0 -154 -72 -154 -159
c0 -90 64 -162 154 -162z" />
    <glyph glyph-name="odieresis" unicode="&#xf6;" horiz-adv-x="571" 
d="M195 573c-35 0 -62 27 -62 62s27 61 62 61s61 -26 61 -61s-26 -62 -61 -62zM377 573c-35 0 -62 27 -62 62s27 61 62 61s61 -26 61 -61s-26 -62 -61 -62zM287 -12c-143 0 -250 112 -250 250c0 136 107 247 250 247c141 0 247 -111 247 -247c0 -138 -106 -250 -247 -250z
M287 76c88 0 151 72 151 162c0 87 -63 159 -151 159c-90 0 -154 -72 -154 -159c0 -90 64 -162 154 -162z" />
    <glyph glyph-name="ograve" unicode="&#xf2;" horiz-adv-x="571" 
d="M370 532l-213 112l46 84l211 -120zM287 -12c-143 0 -250 112 -250 250c0 136 107 247 250 247c141 0 247 -111 247 -247c0 -138 -106 -250 -247 -250zM287 76c88 0 151 72 151 162c0 87 -63 159 -151 159c-90 0 -154 -72 -154 -159c0 -90 64 -162 154 -162z" />
    <glyph glyph-name="oslash" unicode="&#xf8;" horiz-adv-x="571" 
d="M413.95 451.03c73.04 -42.9902 120.051 -122.469 120.051 -213.028c0 -138 -106 -250 -247 -250c-24.0498 0 -47.0898 3.16992 -68.7598 9.08984l-33.2402 -77.0898l-62 25l33.5996 78.3496c-72.9199 43.6797 -119.6 123.489 -119.6 214.649c0 136 107 247 250 247
c22.3398 0 43.8096 -2.79004 64.1094 -8.02051l33.8896 79.0195l63 -26zM133.011 238.002c0 -53.5 22.6094 -100.64 59.8594 -130.08l122.82 286.43c-9.20996 1.74023 -18.79 2.65039 -28.6797 2.65039c-90 0 -154 -72 -154 -159zM287.01 76.002
c88 0 151 71.999 151 161.999c0 52.4902 -22.9404 99.5205 -60.46 128.57l-123.8 -287.13c10.5996 -2.25977 21.7197 -3.43945 33.2598 -3.43945z" />
    <glyph glyph-name="otilde" unicode="&#xf5;" horiz-adv-x="571" 
d="M360 551c-55 0 -99 41 -143 41c-25 0 -46 -13 -64 -30l-46 67c29 27 67 48 107 48c57 0 97 -41 141 -41c23 0 47 12 68 33l41 -65c-30 -33 -66 -53 -104 -53zM287 -12c-143 0 -250 112 -250 250c0 136 107 247 250 247c141 0 247 -111 247 -247
c0 -138 -106 -250 -247 -250zM287 76c88 0 151 72 151 162c0 87 -63 159 -151 159c-90 0 -154 -72 -154 -159c0 -90 64 -162 154 -162z" />
    <glyph glyph-name="oe" unicode="&#x153;" horiz-adv-x="954" 
d="M287 -12c-141 0 -250 111 -250 248s108 249 250 249c99 0 176 -53 195 -112h12c22 59 98 112 191 112c141 0 239 -106 239 -248c0 -13 -1 -23 -2 -33h-357c-17 0 -19 1 -23 6l-9 -8c6 -6 8 -9 9 -14c12 -57 69 -112 148 -112c52 0 103 23 133 64l68 -52
c-44 -62 -119 -100 -202 -100c-87 0 -179 45 -195 111h-12c-24 -65 -105 -111 -195 -111zM287 76c88 0 152 71 152 160s-62 161 -152 161c-89 0 -154 -72 -154 -161s65 -160 154 -160zM541 276c4 4 7 4 16 4h255c9 0 12 0 16 -4l9 8c-7 7 -14 14 -17 21
c-21 52 -68 92 -134 92c-75 0 -115 -45 -136 -92c-3 -7 -11 -14 -18 -21z" />
    <glyph glyph-name="p" unicode="p" horiz-adv-x="599" 
d="M70 -231v706h96v-17c0 -12 -2 -20 -11 -31l10 -8c34 39 89 66 163 66c122 0 233 -102 233 -248c0 -144 -109 -249 -233 -249c-74 0 -129 27 -163 66l-10 -8c8 -9 11 -17 11 -31v-246h-96zM311 76c89 0 154 70 154 161c0 86 -63 160 -154 160c-87 0 -151 -71 -151 -160
c0 -91 64 -161 151 -161z" />
    <glyph glyph-name="thorn" unicode="&#xfe;" horiz-adv-x="599" 
d="M70 -231v939h96v-250c0 -14 -6 -23 -11 -29l10 -8c42 43 90 64 155 64c133 0 241 -107 241 -248s-109 -249 -245 -249c-62 0 -109 23 -151 66l-10 -8c7 -8 11 -15 11 -31v-246h-96zM310 76c93 0 155 71 155 161c0 85 -62 160 -155 160c-85 0 -150 -69 -150 -160
c0 -92 65 -161 150 -161z" />
    <glyph glyph-name="q" unicode="q" horiz-adv-x="599" 
d="M282 -12c-127 0 -244 100 -244 249s117 248 244 248c66 0 118 -25 152 -64l10 8c-9 11 -11 19 -11 31v15h96v-706h-96v246c0 14 3 22 11 31l-10 8c-44 -45 -88 -66 -152 -66zM290 76c84 0 149 69 149 161c0 93 -67 160 -150 160c-94 0 -155 -75 -155 -160
c0 -88 61 -161 156 -161z" />
    <glyph glyph-name="r" unicode="r" horiz-adv-x="324" 
d="M166 0h-95.999v475h96v-19c0 -15 -4 -24 -11 -32l10 -8c41.7002 57.4004 88.7002 69.1006 128.3 69.1006c5.59961 0 10.0996 -0.400391 13.6992 -1.10059v-104c-12 2 -23 3 -33 3c-71 0 -108 -51 -108 -135v-248z" />
    <glyph glyph-name="s" unicode="s" horiz-adv-x="425" 
d="M208 -12c-68 0 -133 22 -182 58l42 76c44 -34 98 -49 142 -49c53 0 85 15 85 55c0 105 -246 33 -246 217c0 85 66 140 165 140c64 0 125 -19 165 -52l-46 -70c-38 27 -76 37 -115 37c-55 0 -77 -22 -77 -53c0 -93 248 -30 248 -211c0 -96 -64 -148 -181 -148z" />
    <glyph glyph-name="scaron" unicode="&#x161;" horiz-adv-x="425" 
d="M177 541l-136 137l54 53l115 -112l118 112l53 -53l-138 -137h-66zM208 -12c-68 0 -133 22 -182 58l42 76c44 -34 98 -49 142 -49c53 0 85 15 85 55c0 105 -246 33 -246 217c0 85 66 140 165 140c64 0 125 -19 165 -52l-46 -70c-38 27 -76 37 -115 37
c-55 0 -77 -22 -77 -53c0 -93 248 -30 248 -211c0 -96 -64 -148 -181 -148z" />
    <glyph glyph-name="germandbls" unicode="&#xdf;" horiz-adv-x="563" 
d="M70 0v501c0 123 74 217 207 217c130 0 208 -77 208 -189c0 -92 -50 -130 -84 -143v-12c37 -7 124 -45 124 -168c0 -127 -89 -206 -223 -206h-70v89h70c89 0 127 55 127 118c0 65 -38 120 -138 120h-59v87h56c65 0 100 40 100 101s-34 113 -111 113
c-85 0 -111 -59 -111 -131v-497h-96z" />
    <glyph glyph-name="t" unicode="t" horiz-adv-x="347" 
d="M118 0v370c0 9 1 12 7 18l-9 8c-6 -6 -11 -7 -16 -7h-84v86h84c5 0 10 -1 16 -7l9 8c-6 6 -7 9 -7 18v141h96v-141c0 -9 -1 -12 -7 -18l9 -8c6 6 11 7 16 7h101v-86h-101c-5 0 -10 1 -16 7l-9 -8c6 -6 7 -9 7 -18v-370h-96z" />
    <glyph glyph-name="u" unicode="u" horiz-adv-x="556" 
d="M279 -12c-132 0 -216 92 -216 223v264h96v-257c0 -89 43 -140 120 -142c76 0 118 55 118 142v257h96v-264c0 -131 -84 -223 -214 -223z" />
    <glyph glyph-name="uacute" unicode="&#xfa;" horiz-adv-x="556" 
d="M192 532l-44 75l212 121l46 -82zM279 -12c-132 0 -216 92 -216 223v264h96v-257c0 -89 43 -140 120 -142c76 0 118 55 118 142v257h96v-264c0 -131 -84 -223 -214 -223z" />
    <glyph glyph-name="ucircumflex" unicode="&#xfb;" horiz-adv-x="556" 
d="M160 535l-53 53l138 137h66l136 -137l-54 -53l-115 112zM279 -12c-132 0 -216 92 -216 223v264h96v-257c0 -89 43 -140 120 -142c76 0 118 55 118 142v257h96v-264c0 -131 -84 -223 -214 -223z" />
    <glyph glyph-name="udieresis" unicode="&#xfc;" horiz-adv-x="556" 
d="M186 573c-35 0 -62 27 -62 62s27 61 62 61s61 -26 61 -61s-26 -62 -61 -62zM368 573c-35 0 -62 27 -62 62s27 61 62 61s61 -26 61 -61s-26 -62 -61 -62zM279 -12c-132 0 -216 92 -216 223v264h96v-257c0 -89 43 -140 120 -142c76 0 118 55 118 142v257h96v-264
c0 -131 -84 -223 -214 -223z" />
    <glyph glyph-name="ugrave" unicode="&#xf9;" horiz-adv-x="556" 
d="M361 532l-213 112l46 84l211 -120zM279 -12c-132 0 -216 92 -216 223v264h96v-257c0 -89 43 -140 120 -142c76 0 118 55 118 142v257h96v-264c0 -131 -84 -223 -214 -223z" />
    <glyph glyph-name="v" unicode="v" horiz-adv-x="483" 
d="M187 0l-178 475h103l117 -327c6 -16 10 -29 10 -46h12c0 17 4 29 10 47l117 326h96l-178 -475h-109z" />
    <glyph glyph-name="w" unicode="w" horiz-adv-x="746" 
d="M175 0l-167 475h101l112 -334c5 -15 7 -25 7 -37h12c0 12 2 20 7 37l93 334h68l98 -334c4 -15 7 -25 7 -37h12c0 12 1 20 7 37l110 334h96l-169 -475h-108l-74 249c-4 15 -7 27 -7 39h-12c0 -12 -2 -22 -7 -39l-78 -249h-108z" />
    <glyph glyph-name="x" unicode="x" horiz-adv-x="463" 
d="M10 0l160 246l-145 229h108l88 -143c4 -7 6 -14 6 -23h12c0 9 1 16 5 22l89 144h106l-150 -228l165 -247h-109l-108 161c-4 6 -5 13 -5 22h-12c0 -9 -1 -16 -6 -23l-99 -160h-105z" />
    <glyph glyph-name="y" unicode="y" horiz-adv-x="485" 
d="M121 -231l79 228l-190 478h105l124 -315c5 -13 8 -25 8 -41h12c0 16 3 28 8 42l113 314h98l-264 -706h-93z" />
    <glyph glyph-name="yacute" unicode="&#xfd;" horiz-adv-x="485" 
d="M159 532l-44 75l212 121l46 -82zM121 -231l79 228l-190 478h105l124 -315c5 -13 8 -25 8 -41h12c0 16 3 28 8 42l113 314h98l-264 -706h-93z" />
    <glyph glyph-name="ydieresis" unicode="&#xff;" horiz-adv-x="485" 
d="M153 573c-35 0 -62 27 -62 62s27 61 62 61s61 -26 61 -61s-26 -62 -61 -62zM335 573c-35 0 -62 27 -62 62s27 61 62 61s61 -26 61 -61s-26 -62 -61 -62zM121 -231l79 228l-190 478h105l124 -315c5 -13 8 -25 8 -41h12c0 16 3 28 8 42l113 314h98l-264 -706h-93z" />
    <glyph glyph-name="z" unicode="z" horiz-adv-x="459" 
d="M41 0v84l265 311l-9 8c-9 -8 -17 -14 -35 -14h-224v86h375v-83l-265 -312l9 -8c9 8 17 14 35 14h233v-86h-384z" />
    <glyph glyph-name="zcaron" unicode="&#x17e;" horiz-adv-x="459" 
d="M192 541l-136 137l54 53l115 -112l118 112l53 -53l-138 -137h-66zM41 0v84l265 311l-9 8c-9 -8 -17 -14 -35 -14h-224v86h375v-83l-265 -312l9 -8c9 8 17 14 35 14h233v-86h-384z" />
    <glyph glyph-name="b.ss01" horiz-adv-x="587" 
d="M306.6 -12c-152.6 0 -247.601 117 -247.601 249v471h96v-248c0 -12 -2 -20 -11 -31l10 -8c39 43 91 64 155 64c122 0 241 -100 241 -248c0 -147.6 -115.8 -249 -243.399 -249zM299.999 76c91 0 154 71 154 161c0 88 -64 160 -154 160c-84 0 -151 -67 -151 -160
c0 -92 67 -161 151 -161z" />
    <glyph glyph-name="d.ss01" horiz-adv-x="585" 
d="M278 -12c-136.2 0 -242 106.4 -242 249c0 146 111 248 233 248c74 0 129 -27 163 -66l10 8c-9 11 -11 19 -11 31v250h96v-460c0 -157 -100 -260 -249 -260zM286 76c87 0 151 70 151 161c0 89 -64 160 -151 160c-91 0 -154 -74 -154 -160c0 -91 65 -161 154 -161z" />
    <glyph glyph-name="f.ss01" horiz-adv-x="295" 
d="M70 0v500c0 132 64 213 183 213c5 0 20 0 36 -2v-91h-4c-6 0 -17 1 -24 1c-73 0 -95 -56 -95 -100v-27c0 -9 -1 -12 -7 -18l9 -8c6 6 11 7 16 7h96v-86h-96c-5 0 -10 1 -16 7l-9 -8c6 -6 7 -9 7 -18v-370h-96z" />
    <glyph glyph-name="g.ss01" horiz-adv-x="588" 
d="M279 -242l-1 90c100 0 155 40 155 152v12c0 17 2 24 11 34l-10 8c-45 -46 -87 -66 -150 -66c-133 0 -246 100 -246 249s113 248 247 248c163.2 0 244 -102 244 -246.4v-216.6c0 -221 -126 -264 -250 -264zM290 76c86 0 152 69 152 161c0 93 -66 160 -153 160
c-96 0 -155 -75 -155 -160c0 -90 60 -161 156 -161z" />
    <glyph glyph-name="l.ss01" horiz-adv-x="264" 
d="M250 -7c-101.5 0 -185 30 -185 193v522h96v-531c0 -84 53 -100 89 -100v-84z" />
    <glyph glyph-name="lslash.ss01" horiz-adv-x="316" 
d="M194 177c0 -84 53 -100 89 -100v-84c-101.5 0 -185 30 -185 193v94.9199l-62 -44.9199v96l62 44.9199v331.08h96v-261.52l78 56.5195v-96l-78 -56.5195v-173.48z" />
    <glyph glyph-name="p.ss01" horiz-adv-x="587" 
d="M59 -231v460.899c0 168.9 120.4 255.101 243.4 255.101c136.6 0 247.6 -102 247.6 -248c0 -144 -109 -249 -233 -249c-74 0 -129 27 -163 66l-10 -8c8 -9 11 -17 11 -31v-246h-96zM300 75.999c89 0 154 70 154 161c0 86 -63 160 -154 160c-87 0 -151 -71 -151 -160
c0 -91 64 -161 151 -161z" />
    <glyph glyph-name="q.ss01" horiz-adv-x="587" 
d="M432 -231v246c0 14 3 22 11 31l-10 8c-44 -45 -88 -66 -152 -66c-127 0 -244 100 -244 249s117 248 251 248c136.6 0 240 -91.4004 240 -249.2v-466.8h-96zM289 76c84 0 149 69 149 161c0 93 -67 160 -150 160c-94 0 -155 -75 -155 -160c0 -88 61 -161 156 -161z" />
    <glyph glyph-name="t.ss01" horiz-adv-x="356" 
d="M329 -7c-139 0 -212 36 -212 193v184c0 9 1 12 7 18l-9 8c-6 -6 -11 -7 -16 -7h-84v86h84c5 0 10 -1 16 -7l9 8c-6 6 -7 9 -7 18v142h96v-142c0 -9 -1 -12 -7 -18l9 -8c6 6 11 7 16 7h98v-86h-98c-5 0 -10 1 -16 7l-9 -8c6 -6 7 -9 7 -18v-193c0 -92 42 -100 116 -100
v-84z" />
    <glyph glyph-name="ordfeminine" unicode="&#xaa;" horiz-adv-x="456" 
d="M206 374c-99 0 -167 75 -167 170c0 94 68 171 167 171c41 0 81 -14 106 -50l7 6c-5 5 -8 12 -8 24l3 13h76v-325h-79v12c0 8 2 17 7 22l-6 6c-26 -36 -66 -49 -106 -49zM215 444c56 0 97 36 97 99s-40 101 -97 101c-64 0 -98 -45 -98 -100c0 -58 38 -100 98 -100z" />
    <glyph glyph-name="ordmasculine" unicode="&#xba;" horiz-adv-x="422" 
d="M385 546c0 -94 -76 -171 -174 -171c-95 0 -174 73 -174 169c0 94 75 173 174 173c96 0 174 -75 174 -171zM211 450c56 0 95 43 95 96s-39 96 -95 96s-95 -44 -95 -97s40 -95 95 -95z" />
    <glyph glyph-name="uni03BC" unicode="&#x3bc;" horiz-adv-x="566" 
d="M70 -231v706h96v-255c0 -89 21 -143 120 -143s120 54 120 143v255h96v-282c0 -149 -86 -206 -210 -206c-60 0 -95 14 -127 50l-9 -8c3 -4 10 -11 10 -25v-235h-96z" />
    <glyph glyph-name="zero" unicode="0" horiz-adv-x="596" 
d="M298 -13c-166 0 -239 122 -239 273v205c0 136 79 257 239 257c153 0 239 -113 239 -257v-205c0 -143 -67 -273 -239 -273zM298 90c107 0 134 78 134 177v184c0 85 -32 167 -134 167c-98 0 -134 -75 -134 -167v-184c0 -92 23 -177 134 -177z" />
    <glyph glyph-name="one" unicode="1" horiz-adv-x="329" 
d="M138 0v592c0 9 2 13 8 19l-9 8c-6 -6 -12 -8 -17 -8h-105v97h225v-708h-102z" />
    <glyph glyph-name="two" unicode="2" horiz-adv-x="545" 
d="M50 0l-1 92l197 206c102 107 134 151 134 211c0 63 -48 110 -121 110c-56 0 -109 -27 -136 -93l-92 38c39 100 120 158 232 158c129 0 222 -74 222 -202c0 -108 -65 -181 -140 -260l-120 -125c-19 -20 -26 -26 -39 -26v-12h317v-97h-453z" />
    <glyph glyph-name="three" unicode="3" horiz-adv-x="542" 
d="M260 -13c-130 0 -201 79 -225 185l100 27c14 -69 58 -109 124 -109c64 0 131 37 131 118c0 82 -61 129 -166 129v88c87 0 138 33 138 98c0 60 -38 98 -102 98c-68 0 -105 -38 -118 -94l-93 24c21 99 97 171 213 171c128 0 205 -79 205 -185c0 -80 -57 -133 -103 -145v-12
c60 -8 131 -65 131 -181c0 -123 -101 -212 -235 -212z" />
    <glyph glyph-name="four" unicode="4" horiz-adv-x="574" 
d="M358 0v145c0 9 1 12 7 18l-9 8c-6 -6 -11 -7 -16 -7h-322v88l357 456h84v-434c0 -9 -1 -12 -7 -18l9 -8c6 6 11 7 16 7h58v-91h-58c-5 0 -10 1 -16 7l-9 -8c6 -6 7 -9 7 -18v-145h-101zM356 248l9 8c-6 6 -7 9 -7 18v227c0 14 3 20 9 31l-10 6l-200 -257
c-8 -10 -11 -14 -24 -14v-12h207c5 0 10 -1 16 -7z" />
    <glyph glyph-name="five" unicode="5" horiz-adv-x="554" 
d="M273 -13c-125 0 -214 81 -243 188l98 27c16 -58 58 -112 143 -112s145 48 145 141c0 97 -64 141 -147 141c-46 0 -88 -21 -120 -59l-91 14l61 381h342l-6 -97h-254l-28 -175l11 -2c27 20 65 35 118 35c104 0 218 -81 218 -238c0 -145 -113 -244 -247 -244z" />
    <glyph glyph-name="six" unicode="6" horiz-adv-x="558" 
d="M287 -13c-135 0 -247 105 -247 238c0 48 15 100 50 166l167 317h113l-133 -252l10 -5c10 7 33 15 65 15c125 0 220 -99 220 -238c0 -136 -108 -241 -245 -241zM288 89c81 0 139 54 139 138s-58 144 -139 144c-84 0 -143 -57 -143 -144c0 -84 61 -138 143 -138z" />
    <glyph glyph-name="seven" unicode="7" horiz-adv-x="495" 
d="M16 611.5v96.5h464v-97l-278 -611h-111l268 582c6 13 14 17 19 17v12.5h-362z" />
    <glyph glyph-name="eight" unicode="8" horiz-adv-x="570" 
d="M285 -14c-125 0 -238 86 -238 227c0 76.2998 36.4004 143.2 102.7 175.601v6c-50 33.5 -74.4004 83.2002 -74.4004 148.101c0 101.5 91.2998 178.3 209.7 178.3s209.7 -76.7998 209.7 -178.3c0 -64.9004 -24.4004 -114.601 -74.4004 -148.101v-6
c66.2998 -32.4004 102.7 -99.3008 102.7 -175.601c0 -141 -113 -227 -238 -227zM285 427.6c70.5 0 107.5 46.4004 107.5 99.3008c0 61.5 -41.9004 97.5 -107.5 97.5s-107.5 -36 -107.5 -97.5c0 -52.9004 37 -99.3008 107.5 -99.3008zM285 88c83.2998 0 136 50 136 125
c0 69.5996 -47.2002 125.1 -136 125.1s-136 -55.5 -136 -125.1c0 -75 52.7002 -125 136 -125z" />
    <glyph glyph-name="nine" unicode="9" horiz-adv-x="558" 
d="M187 0l134 252l-10 5c-10 -7 -33 -15 -65 -15c-125 0 -220 99 -220 238c0 136.6 108 242 245 242c135 0 247 -105.4 247 -239c0 -48 -15 -100 -50 -166l-167 -317h-114zM270 337c84 0 143 57 143 144c0 84.5996 -61 139 -143 139c-81 0 -139 -54.4004 -139 -139
c0 -84 58 -144 139 -144z" />
    <glyph glyph-name="zero.osf" horiz-adv-x="589" 
d="M296 -13c-148 0 -259 112 -259 259c0 145 111 255.8 259 255.8c146 0 256 -110.8 256 -255.8c0 -147 -110 -259 -256 -259zM295.9 88c86.7002 0 151.2 65.5996 151.101 157.899c0.0996094 87.5 -64.4004 154.9 -151.101 154.9c-88.5996 0 -154 -67.4004 -153.9 -154.9
c-0.0996094 -92.2998 65.3008 -157.899 153.9 -157.899z" />
    <glyph glyph-name="one.osf" horiz-adv-x="329" 
d="M138 0v369c0 9 2 13 8 19l-9 8c-6 -6 -12 -8 -17 -8h-105v97h225v-485h-102z" />
    <glyph glyph-name="two.osf" horiz-adv-x="534" 
d="M49 0l0.5 78.999l196 131c64 42 104 73 104 121c0 46 -38 68 -89 68c-55 0 -90 -25 -108.9 -81.0996l-98.7998 28.9004c24.7002 91.2002 105.7 155.2 215.7 155.2c109 0 186 -63 186 -168c0 -70 -31.7998 -119.4 -125 -179l-61 -39c-8.5 -5.40039 -14 -7 -25.9004 -7v-12
h250.9v-97h-444.5z" />
    <glyph glyph-name="three.osf" horiz-adv-x="542" 
d="M260 -233c-130 0 -201 79 -225 185l100 27c14 -69 58 -109 124 -109c64 0 131 37 131 118c0 82 -61 129 -166 129v88c87 0 138 33 138 98c0 60 -38 98 -102 98c-68 0 -105 -38 -118 -94l-93 24c21 99 97 171 213 171c128 0 205 -79 205 -185c0 -80 -57 -133 -103 -145
v-12c60 -8 131 -65 131 -181c0 -123 -101 -212 -235 -212z" />
    <glyph glyph-name="four.osf" horiz-adv-x="548" 
d="M332 -196v177c0 9 1 12 7 18l-9 8c-6 -6 -11 -7 -16 -7h-304v88l339 399.9h84v-377.9c0 -9 -1 -12 -7 -18l9 -8c6 6 11 7 16 7h58v-91h-58c-5 0 -10 1 -16 7l-9 -8c6 -6 7 -9 7 -18v-177h-101zM330 84l9 8c-6 6 -7 9 -7 18v180.9c0 14 3 20 9 31l-10 6l-175 -210.9
c-8 -10 -11 -14 -24 -14v-12h182c5 0 10 -1 16 -7z" />
    <glyph glyph-name="five.osf" horiz-adv-x="554" 
d="M273 -233c-125 0 -214 81 -243 188l98 27c16 -58 58 -112 143 -112s145 48 145 141c0 97 -64 141 -147 141c-46 0 -88 -21 -120 -59l-91 14l61 381h342l-6 -97h-254l-28 -175l11 -2c27 20 65 35 118 35c104 0 218 -81 218 -238c0 -145 -113 -244 -247 -244z" />
    <glyph glyph-name="six.osf" horiz-adv-x="572" 
d="M287 -13c-135 0 -247 105 -247 238c0 48 15 100 50 166l167 317h113l-133 -252l10 -5c10 7 33 15 65 15c125 0 220 -99 220 -238c0 -136 -108 -241 -245 -241zM288 89c81 0 139 54 139 138s-58 144 -139 144c-84 0 -143 -57 -143 -144c0 -84 61 -138 143 -138z" />
    <glyph glyph-name="seven.osf" horiz-adv-x="495" 
d="M16 391.5v96.5h464v-97l-278 -611h-111l268 582c6 13 14 17 19 17v12.5h-362z" />
    <glyph glyph-name="eight.osf" horiz-adv-x="570" 
d="M285 -14c-125 0 -238 86 -238 227c0 76.2998 36.4004 143.2 102.7 175.601v6c-50 33.5 -74.4004 83.2002 -74.4004 148.101c0 101.5 91.2998 178.3 209.7 178.3s209.7 -76.7998 209.7 -178.3c0 -64.9004 -24.4004 -114.601 -74.4004 -148.101v-6
c66.2998 -32.4004 102.7 -99.3008 102.7 -175.601c0 -141 -113 -227 -238 -227zM285 427.6c70.5 0 107.5 46.4004 107.5 99.3008c0 61.5 -41.9004 97.5 -107.5 97.5s-107.5 -36 -107.5 -97.5c0 -52.9004 37 -99.3008 107.5 -99.3008zM285 88c83.2998 0 136 50 136 125
c0 69.5996 -47.2002 125.1 -136 125.1s-136 -55.5 -136 -125.1c0 -75 52.7002 -125 136 -125z" />
    <glyph glyph-name="nine.osf" horiz-adv-x="572" 
d="M201 -220l134 252l-10 5c-10 -7 -33 -15 -65 -15c-125 0 -220 99 -220 238c0 136.6 108 242 245 242c135 0 247 -105.4 247 -239c0 -48 -15 -100 -50 -166l-167 -317h-114zM284 117c84 0 143 57 143 144c0 84.5996 -61 139 -143 139c-81 0 -139 -54.4004 -139 -139
c0 -84 58 -144 139 -144z" />
    <glyph glyph-name="uni00B9" unicode="&#xb9;" horiz-adv-x="251" 
d="M105 266v359c0 11 2 13 6 18l-6 5c-7 -8 -10 -8 -16 -8h-64v70h158v-444h-78z" />
    <glyph glyph-name="uni00B2" unicode="&#xb2;" horiz-adv-x="413" 
d="M52 596c13 77 72 121 150 121c89 0 147 -54 147 -132c0 -55 -40.7002 -110.3 -77 -147l-82 -83c-8 -8 -12 -11 -18 -11v-8h184v-70h-298v64l148 148c28 28 62 68 62 107c0 37 -26 62 -68 62c-45 0 -69 -31 -75 -67z" />
    <glyph glyph-name="uni00B3" unicode="&#xb3;" horiz-adv-x="390" 
d="M347 394.2c0 -77.2002 -62.999 -134.2 -154.999 -134.2c-78.5 0 -136.9 37 -155 106l72.2998 19.5c12.0996 -37 45.1992 -56.5 82.6992 -56.5c44.5 0 74 23.5 74 68.0996c0 55 -38.5996 74.9004 -98 74.9004v62c48.4004 0 78 19 78 63.4004
c0 40 -28.5 54.5996 -54.7002 54.5996c-34.7998 0 -56.3994 -21.5 -62.7998 -50.5l-74.5 18.5c13.2998 59 67.5 97 137.5 97c77.0996 0 134.5 -41.4004 134.5 -112c0 -41.7998 -18.2998 -73.2002 -58 -90v-7c49.5996 -13.2998 79 -58.2002 79 -113.8z" />
    <glyph glyph-name="fraction" unicode="&#x2044;" horiz-adv-x="446" 
d="M68 0h-82l392 728h82z" />
    <glyph glyph-name="onehalf" unicode="&#xbd;" horiz-adv-x="812" 
d="M209 0h-82l392 728h82zM110 266v359c0 11 2 13 6 18l-6 5c-7 -8 -10 -8 -16 -8h-64v70h158v-444h-78zM467 330c13 77 72 121 150 121c89 0 147 -54 147 -132c0 -55 -40.7002 -110.3 -77 -147l-82 -83c-8 -8 -12 -11 -18 -11v-8h184v-70h-298v64l148 148
c28 28 62 68 62 107c0 37 -26 62 -68 62c-45 0 -69 -31 -75 -67z" />
    <glyph glyph-name="onequarter" unicode="&#xbc;" horiz-adv-x="798" 
d="M208 0h-82l392 728h82zM110 266v359c0 11 2 13 6 18l-6 5c-7 -8 -10 -8 -16 -8h-64v70h158v-444h-78zM626.7 0v61.7998c0 5.7998 3.7998 9.7998 6.89941 12.5996l-6.09961 6.59961c-4.2002 -4 -8 -8.2002 -14.0996 -8.2002h-210.4v74.5l221.2 292h83.2998v-277.4
c0 -5.7998 -3.7998 -9.7998 -6.89941 -12.5996l6.09961 -6.5c4.09961 3.90039 8 8.2002 14.0996 8.2002h41v-78.2002h-41c-6.09961 0 -10 4.2002 -14.0996 8.2002l-6.09961 -6.59961c3.09961 -2.7998 6.89941 -6.7998 6.89941 -12.5996v-61.7998h-80.7998zM627.5 142.8
l6.10059 6.50098c-3.09961 2.7998 -6.89941 6.7998 -6.89941 12.5996v138.1c0 13.7002 4.09961 19.7002 8.59961 24.1006l-8 5.7002l-128.7 -165.5c-3.5 -4 -7.40039 -4.90039 -11.2002 -4.90039v-8.40039h126c6.09961 0 9.89941 -4.2998 14.0996 -8.2002z" />
    <glyph glyph-name="threequarters" unicode="&#xbe;" horiz-adv-x="867" 
d="M307 0h-82l392 728h82zM343 394.2c0 -77.2002 -62.999 -134.2 -154.999 -134.2c-78.5 0 -136.9 37 -155 106l72.2998 19.5c12.0996 -37 45.1992 -56.5 82.6992 -56.5c44.5 0 74 23.5 74 68.0996c0 55 -38.5996 74.9004 -98 74.9004v62c48.4004 0 78 19 78 63.4004
c0 40 -28.5 54.5996 -54.7002 54.5996c-34.7998 0 -56.3994 -21.5 -62.7998 -50.5l-74.5 18.5c13.2998 59 67.5 97 137.5 97c77.0996 0 134.5 -41.4004 134.5 -112c0 -41.7998 -18.2998 -73.2002 -58 -90v-7c49.5996 -13.2998 79 -58.2002 79 -113.8zM697.701 0v61.7998
c0 5.7998 3.7998 9.7998 6.89941 12.5996l-6.09961 6.59961c-4.2002 -4 -8 -8.2002 -14.0996 -8.2002h-210.4v74.5l221.2 292h83.2998v-277.4c0 -5.7998 -3.7998 -9.7998 -6.89941 -12.5996l6.09961 -6.5c4.09961 3.90039 8 8.2002 14.0996 8.2002h41v-78.2002h-41
c-6.09961 0 -10 4.2002 -14.0996 8.2002l-6.09961 -6.59961c3.09961 -2.7998 6.89941 -6.7998 6.89941 -12.5996v-61.7998h-80.7998zM698.501 142.8l6.10059 6.50098c-3.09961 2.7998 -6.89941 6.7998 -6.89941 12.5996v138.1c0 13.7002 4.09961 19.7002 8.59961 24.1006
l-8 5.7002l-128.7 -165.5c-3.5 -4 -7.40039 -4.90039 -11.2002 -4.90039v-8.40039h126c6.09961 0 9.89941 -4.2998 14.0996 -8.2002z" />
    <glyph glyph-name="asterisk" unicode="*" horiz-adv-x="429" 
d="M180 750h67v-92c0 -16 -7 -26 -11 -30l10 -6c2 6 7.09961 16.9004 21 25l79 46l34 -58l-80 -46c-14 -8 -26 -7 -31 -5l1 -12c5 2 17 3 31 -5l80 -46l-34 -58l-79 46c-13.9004 8.09961 -20 19 -21 25l-10 -6c4 -4 11 -14 11 -30v-92h-67v92c0 16 7 26 11 30l-10 6
c-1 -6 -7.09961 -16.9004 -21 -25l-79 -46l-34 58l80 46c14 8 26 7 31 5v11c-6 -2 -18.0996 -3.09961 -32 5l-79 46l33 58l80 -46c14 -8 19 -19 20 -24l10 6c-4 4 -11 14 -11 30v92z" />
    <glyph glyph-name="backslash" unicode="\" horiz-adv-x="550" 
d="M526 0h-96l-407 740h96z" />
    <glyph glyph-name="periodcentered" unicode="&#xb7;" horiz-adv-x="241" 
d="M121 193c-35 0 -62 27 -62 62s27 61 62 61s61 -26 61 -61s-26 -62 -61 -62z" />
    <glyph glyph-name="bullet" unicode="&#x2022;" horiz-adv-x="430" 
d="M215 224.2c-83.5996 0 -149.999 70.001 -149.999 152.801c0 83.5996 67.2998 151.8 150.899 151.8c84.5996 0 149.1 -70.9004 149.1 -151.801c0 -82.7998 -66.4004 -152.8 -150 -152.8z" />
    <glyph glyph-name="colon" unicode=":" horiz-adv-x="245" 
d="M123 352c-35 0 -62 27 -62 62s27 61 62 61s61 -26 61 -61s-26 -62 -61 -62zM123 -6c-35 0 -62 27 -62 62s27 61 62 61s61 -26 61 -61s-26 -62 -61 -62z" />
    <glyph glyph-name="comma" unicode="," horiz-adv-x="231" 
d="M114 117c43 0 66 -31 66 -73c0 -89 -44 -158 -116 -166v50c23 4 46 27 54 50c3 8 7 10 13 11v7c-13 -2 -19 -2 -21 -2c-32 0 -59 22 -59 61c0 35 26 62 63 62z" />
    <glyph glyph-name="ellipsis" unicode="&#x2026;" horiz-adv-x="868" 
d="M111 -6c-35 0 -62 27 -62 62s27 61 62 61s61 -26 61 -61s-26 -62 -61 -62zM434 -6c-35 0 -62 27 -62 62s27 61 62 61s62 -26 62 -61s-27 -62 -62 -62zM758 -6c-35 0 -62 27 -62 62s27 61 62 61s61 -26 61 -61s-26 -62 -61 -62z" />
    <glyph glyph-name="exclam" unicode="!" horiz-adv-x="255" 
d="M153 203h-50l-25 260v253h100v-253zM127 -6c-35 0 -62 27 -62 62s27 61 62 61s62 -26 62 -61s-27 -62 -62 -62z" />
    <glyph glyph-name="exclamdown" unicode="&#xa1;" horiz-adv-x="241" 
d="M120 530c35 0 62 -27 62 -62s-27 -61 -62 -61s-62 26 -62 61s27 62 62 62zM146 321l25 -260v-253h-100v253l25 260h50z" />
    <glyph glyph-name="numbersign" unicode="#" horiz-adv-x="628" 
d="M590 422h-106l-17 -118c-1 -9 -2 -12 -8 -18l9 -8c6 6 11 7 16 7h80v-80h-111l-26 -179h-81l22 160c1 9 2 12 8 18l-9 8c-6 -6 -11 -7 -16 -7h-123l-26 -179h-81l23 160c1 9 2 12 8 18l-9 8c-6 -6 -11 -7 -16 -7h-89v80h120l16 117c1 9 2 12 8 18l-9 8
c-6 -6 -11 -7 -16 -7h-94v81h125l25 175h81l-21 -156c-1 -9 -2 -12 -8 -18l9 -8c6 6 11 7 16 7h123l25 175h81l-21 -156c-1 -9 -2 -12 -8 -18l9 -8c6 6 11 7 16 7h75v-80zM258 422l-15 -118c-1 -9 -2 -12 -8 -18l9 -8c6 6 11 7 16 7h122l17 118c1 9 2 12 8 18l-9 8
c-6 -6 -11 -7 -16 -7h-124z" />
    <glyph glyph-name="period" unicode="." horiz-adv-x="221" 
d="M111 -6c-35 0 -62 27 -62 62s27 61 62 61s61 -26 61 -61s-26 -62 -61 -62z" />
    <glyph glyph-name="question" unicode="?" horiz-adv-x="489" 
d="M29 559c22 95 101 164 217 164c120 0 201 -82 201 -198c0 -88 -44 -144 -114 -190c-55 -36 -57 -77 -57 -107v-32h-98v57c0 71.0996 34 115 96 153c59 36 72 74 72 120c0 63 -45 102 -106 102c-63 0 -105 -36 -116 -90zM227 -6c-35 0 -62 27 -62 62s27 61 62 61
s62 -26 62 -61s-27 -62 -62 -62z" />
    <glyph glyph-name="questiondown" unicode="&#xbf;" horiz-adv-x="478" 
d="M255 530c35 0 62 -27 62 -62s-27 -61 -62 -61s-62 26 -62 61s27 62 62 62zM453 -35c-22 -95 -101 -164 -217 -164c-120 0 -201 82 -201 198c0 88 43.9004 144.1 114 190c55 36 57 77 57 107v32h98v-57c0 -71.0996 -33.9004 -115.1 -96 -153c-59 -36 -72 -74 -72 -120
c0 -63 45 -102 106 -102c63 0 105 36 116 90z" />
    <glyph glyph-name="quotedbl" unicode="&#x22;" horiz-adv-x="389" 
d="M144 484h-76l-15 256h107zM321 484h-76l-15 256h107z" />
    <glyph glyph-name="quotesingle" unicode="'" horiz-adv-x="212" 
d="M144 484h-76l-15 256h107z" />
    <glyph glyph-name="semicolon" unicode=";" horiz-adv-x="255" 
d="M125 351c-35 0 -62 27 -62 62s27 61 62 61s61 -26 61 -61s-26 -62 -61 -62zM126 117c43 0 66 -31 66 -73c0 -89 -44 -158 -116 -166v50c23 4 46 27 54 50c3 8 7 10 13 11v7c-13 -2 -19 -2 -21 -2c-32 0 -59 22 -59 61c0 35 26 62 63 62z" />
    <glyph glyph-name="slash" unicode="/" horiz-adv-x="549" 
d="M120 0h-96l406 740h96z" />
    <glyph glyph-name="underscore" unicode="_" horiz-adv-x="635" 
d="M579 -81h-523v81h523v-81z" />
    <glyph glyph-name="braceleft" unicode="{" horiz-adv-x="353" 
d="M232 -204c-73 0 -106 66 -106 131v175c0 53 -18 116 -119 119v92c99 3 119 68 119 120v175c0 65 33 131 106 131h97v-80h-53c-43 0 -48 -39 -48 -71v-185c0 -54 -28 -114 -111 -129v-12c82 -9 111 -85 111 -144v-171c0 -32 5 -71 48 -71h53v-80h-97z" />
    <glyph glyph-name="braceright" unicode="}" horiz-adv-x="353" 
d="M121 -204h-97v80h53c43 0 48 39 48 71v171c0 59 29 135 111 144v12c-83 15 -111 75 -111 129v185c0 32 -5 71 -48 71h-53v80h97c73 0 106 -66 106 -131v-175c0 -52 20 -117 119 -120v-92c-101 -3 -119 -66 -119 -119v-175c0 -65 -33 -131 -106 -131z" />
    <glyph glyph-name="bracketleft" unicode="[" horiz-adv-x="357" 
d="M334 -111v-91h-251v942h251v-91h-149v-760h149z" />
    <glyph glyph-name="bracketright" unicode="]" horiz-adv-x="357" 
d="M23 -111h149v760h-149v91h251v-942h-251v91z" />
    <glyph glyph-name="parenleft" unicode="(" horiz-adv-x="360" 
d="M350 -125l-47 -76c-124 73 -264 228 -264 477c0 248 140 404 264 476l47 -77c-93 -56 -209 -193 -209 -398c0 -209 120 -347 209 -402z" />
    <glyph glyph-name="parenright" unicode=")" horiz-adv-x="360" 
d="M219 277c0 205 -116 342 -209 398l47 77c124 -72 264 -228 264 -476c0 -249 -140 -404 -264 -477l-47 76c89 55 209 193 209 402z" />
    <glyph glyph-name="emdash" unicode="&#x2014;" horiz-adv-x="1111" 
d="M1050 224h-989v92h989v-92z" />
    <glyph glyph-name="endash" unicode="&#x2013;" horiz-adv-x="666" 
d="M605 224h-544v92h544v-92z" />
    <glyph glyph-name="hyphen" unicode="-" horiz-adv-x="409" 
d="M348 224h-287v92h287v-92z" />
    <glyph glyph-name="uni00AD" unicode="&#xad;" horiz-adv-x="409" 
d="M348 224h-287v92h287v-92z" />
    <glyph glyph-name="guillemotleft" unicode="&#xab;" horiz-adv-x="515" 
d="M272 52h-108l-127 201l127 199h106l-124 -199zM474 52h-108l-127 201l127 199h106l-124 -199z" />
    <glyph glyph-name="guillemotright" unicode="&#xbb;" horiz-adv-x="515" 
d="M41 52l126 201l-124 199h106l127 -199l-127 -201h-108zM243 52l126 201l-124 199h106l127 -199l-127 -201h-108z" />
    <glyph glyph-name="guilsinglleft" unicode="&#x2039;" horiz-adv-x="313" 
d="M272 52h-108l-127 201l127 199h106l-124 -199z" />
    <glyph glyph-name="guilsinglright" unicode="&#x203a;" horiz-adv-x="313" 
d="M41.6504 52l126 201l-124 199h106l127 -199l-127 -201h-108z" />
    <glyph glyph-name="quotedblbase" unicode="&#x201e;" horiz-adv-x="406" 
d="M114 117c43 0 66 -31 66 -73c0 -89 -44 -158 -116 -166v50c23 4 46 27 54 50c3 8 7 10 13 11v7c-13 -2 -19 -2 -21 -2c-32 0 -59 22 -59 61c0 35 26 62 63 62zM289 117c43 0 66 -31 66 -73c0 -89 -44 -158 -116 -166v50c23 4 46 27 54 50c3 8 7 10 13 11v7
c-13 -2 -19 -2 -21 -2c-32 0 -59 22 -59 61c0 35 26 62 63 62z" />
    <glyph glyph-name="quotedblleft" unicode="&#x201c;" horiz-adv-x="392" 
d="M109 501c-43 0 -66 31 -66 73c0 89 44 158 116 166v-50c-23 -4 -46 -27 -54 -50c-3 -8 -7 -10 -13 -11v-7c13 2 19 2 21 2c32 0 59 -22 59 -61c0 -35 -26 -62 -63 -62zM284 501c-43 0 -66 31 -66 73c0 89 44 158 116 166v-50c-23 -4 -46 -27 -54 -50
c-3 -8 -7 -10 -13 -11v-7c13 2 19 2 21 2c32 0 59 -22 59 -61c0 -35 -26 -62 -63 -62z" />
    <glyph glyph-name="quotedblright" unicode="&#x201d;" horiz-adv-x="390" 
d="M111 740c43 0 66 -31 66 -73c0 -89 -44 -158 -116 -166v50c23 4 46 27 54 50c3 8 7 10 13 11v7c-13 -2 -19 -2 -21 -2c-32 0 -59 22 -59 61c0 35 26 62 63 62zM286 740c43 0 66 -31 66 -73c0 -89 -44 -158 -116 -166v50c23 4 46 27 54 50c3 8 7 10 13 11v7
c-13 -2 -19 -2 -21 -2c-32 0 -59 22 -59 61c0 35 26 62 63 62z" />
    <glyph glyph-name="quoteleft" unicode="&#x2018;" horiz-adv-x="217" 
d="M109 501c-43 0 -66 31 -66 73c0 89 44 158 116 166v-50c-23 -4 -46 -27 -54 -50c-3 -8 -7 -10 -13 -11v-7c13 2 19 2 21 2c32 0 59 -22 59 -61c0 -35 -26 -62 -63 -62z" />
    <glyph glyph-name="quoteright" unicode="&#x2019;" horiz-adv-x="215" 
d="M111 740c43 0 66 -31 66 -73c0 -89 -44 -158 -116 -166v50c23 4 46 27 54 50c3 8 7 10 13 11v7c-13 -2 -19 -2 -21 -2c-32 0 -59 22 -59 61c0 35 26 62 63 62z" />
    <glyph glyph-name="quotesinglbase" unicode="&#x201a;" horiz-adv-x="231" 
d="M114 117c43 0 66 -31 66 -73c0 -89 -44 -158 -116 -166v50c23 4 46 27 54 50c3 8 7 10 13 11v7c-13 -2 -19 -2 -21 -2c-32 0 -59 22 -59 61c0 35 26 62 63 62z" />
    <glyph glyph-name="space" unicode=" " horiz-adv-x="234" 
 />
    <glyph glyph-name="uni00A0" unicode="&#xa0;" horiz-adv-x="234" 
 />
    <glyph glyph-name="Euro" unicode="&#x20ac;" horiz-adv-x="765" 
d="M467 723c115 0 197 -39 263 -112l-69 -67c-49 60 -107 91 -192 91c-100 0 -181 -56 -226 -153l9 -8c6 7 9 10 28 10h150l-10 -86h-184c-5 0 -10 1 -16 7l-9 -8c6 -6 7 -9 7 -18v-41c0 -9 -1 -12 -7 -18l9 -8c6 6 11 7 16 7h194l-10 -86h-152c-5 0 -10 1 -16 7l-9 -8
c42 -95 127 -155 223 -155c85 0 146 37 195 89l68 -66c-64 -71 -150 -113 -263 -113c-145 0 -281 96 -331 246h-100l10 86h53c5 0 10 -1 16 -7l9 8c-6 6 -7 9 -7 18v41c0 9 1 12 7 18l-9 8c-6 -6 -11 -7 -16 -7h-63l10 86h94c54 146 181 239 328 239z" />
    <glyph glyph-name="cent" unicode="&#xa2;" horiz-adv-x="538" 
d="M235 740h89v-123c75 -10 139 -54 178 -115l-81 -46c-22 33 -45 48 -72 60c-7 3 -14 8 -21 16l-8 -9c4 -4 4 -7 4 -16v-272c0 -9 0 -12 -4 -16l8 -9c7 7 15 12.9004 22.2002 16c20 8.5 51.7998 25 73.7998 61l80 -47c-39 -62 -104 -106 -180 -116v-124h-89v128
c-111 28 -194 124 -194 242c0 117 82 218 194 243v127zM135 370c0 -64 41 -110 75 -136c7 -5 14 -10 21 -17l8 9c-4 4 -4 7 -4 16v255c0 9 0 12 4 16l-8 9c-7 -7 -14 -13 -21 -17c-30 -19 -75 -63 -75 -135z" />
    <glyph glyph-name="currency" unicode="&#xa4;" horiz-adv-x="660" 
d="M331 585c-52 0 -86 -7 -126 -36c-4 -3 -8 -8 -8 -17h-12c0 9 -2 14 -6 18l-71 71l-54 -54l72 -71c4 -4 8 -8 17 -8v-12c-9 0 -14 -2 -18 -6c-19 -23 -36 -72 -36 -124c0 -51 17 -99 36 -123c3 -4 8 -8 17 -8v-12c-9 0 -14 -2 -18 -6l-71 -71l54 -54l71 72c4 4 8 8 8 17
h12c0 -9 2 -14 6 -18c25 -19 75 -36 127 -36s101 16 126 35c4 3 7 9 7 18h12c0 -9 2 -14 6 -18l70 -70l54 54l-71 70c-4 4 -8 8 -17 8v12c9 0 14 2 18 6c19 24 37 73 37 125s-18 100 -37 125c-3 4 -9 7 -18 7v12c9 0 14 2 18 6l70 70l-54 54l-70 -71c-4 -4 -8 -8 -8 -17h-12
c0 9 -2 14 -6 18c-25 18 -74 34 -125 34zM331 202c-79 0 -146 65 -146 144s66 145 146 145s145 -66 145 -145c0 -78 -66 -144 -145 -144z" />
    <glyph glyph-name="dollar" unicode="$" horiz-adv-x="549" 
d="M85 153c40 -34 77 -54 133 -68c10 -3 16 -9 24 -18l9 8c-5 4 -5 10 -5 17v227c-92 39 -176 90 -176 211c0 102 62 177.6 176 190v71h89v-71c53 -5 104 -23 154 -60l-49 -77c-33 22 -55 30 -82 38c-5 2 -12 9 -18 15l-9 -7c4 -4 4 -9 4 -16v-224c85 -38 173 -81 173 -202
c0 -107 -65 -179 -173 -195v-72h-89v68c-84 5 -164 39 -216 86zM168 535c0 -51 29 -80 53 -94c7 -4 14 -10 21 -17l8 9c-4 4 -4 7 -4 16v159c0 7 0 12 4 16l-8 9c-7 -7 -14 -13 -21 -17c-22 -11 -53 -32 -53 -81zM408 184c0 36 -17 59 -48 81c-8 6 -14 11 -21 19l-8 -9
c4 -4 4 -7 4 -16v-151c0 -9 0 -12 -4 -16l8 -9c7 7 14 13 21 17c25 14 48 42 48 84z" />
    <glyph glyph-name="florin" unicode="&#x192;" horiz-adv-x="363" 
d="M123 527c0 121 63 202 183 202c5 0 20 0 36 -2v-91h-4c-6 0 -16 1 -21 1c-75 0 -98 -37 -98 -100v-43c0 -9 -1 -12 -7 -18l9 -8c6 6 11 7 16 7h75v-86h-75c-5 0 -10 1 -16 7l-9 -8c6 -6 7 -9 7 -18v-375c0 -109 -63 -182 -165 -182c-5 0 -20 0 -36 2v91
c7.2002 -0.700195 22.9004 -1 25 -1c57 0 80 30 80 80v385c0 9 1 12 7 18l-9 8c-6 -6 -11 -7 -16 -7h-54v86h54c5 0 10 -1 16 -7l9 8c-6 6 -7 9 -7 18v33z" />
    <glyph glyph-name="sterling" unicode="&#xa3;" horiz-adv-x="588" 
d="M52 0v92h27c46 39 66 90 66 146c0 24 -3 48 -10 74h-78v88h44c5 0 10 -1 16 -7l9 8c-14 18 -25 60 -25 115c0 125 86 207 214 207c113 0 178 -73 201 -144l-91 -27c-15 48 -52 82 -111 82c-76 0 -114 -48 -114 -118c0 -41 7 -77 17 -116h173v-88h-136c-5 0 -10 1 -16 7
l-9 -8c8 -8 14 -30 14 -74c0 -51 -12 -104 -56 -133v-12h170c68 0 100 27 100 100h96c0 -124 -57 -192 -178 -192h-323z" />
    <glyph glyph-name="yen" unicode="&#xa5;" horiz-adv-x="671" 
d="M283 0v91c0 9 1 12 7 18l-9 8c-6 -6 -11 -7 -16 -7h-173v86h173c5 0 10 -1 16 -7l9 8c-6 6 -7 9 -7 18v41c0 9 1 12 7 18l-9 8c-6 -6 -11 -7 -16 -7h-173v86h120c19 0 22 -3 28 -10l9 8l-219 349h112l184 -301c6 -9 6 -18 6 -23h12c0 5 0 14 5 22l182 302h108l-219 -349
l9 -8c6 7 9 10 28 10h128v-86h-182c-5 0 -10 1 -16 7l-9 -8c6 -6 7 -9 7 -18v-41c0 -9 -1 -12 -7 -18l9 -8c6 6 11 7 16 7h182v-86h-182c-5 0 -10 1 -16 7l-9 -8c6 -6 7 -9 7 -18v-91h-102z" />
    <glyph glyph-name="plus" unicode="+" horiz-adv-x="598" 
d="M345 80h-93v219h-218v93h218v219h93v-219h219v-93h-219v-219z" />
    <glyph glyph-name="minus" unicode="&#x2212;" horiz-adv-x="660" 
d="M595 299h-530v93h530v-93z" />
    <glyph glyph-name="multiply" unicode="&#xd7;" horiz-adv-x="576" 
d="M456 111l-168 168l-168 -168l-66 65l169 169l-168 167l65 66l168 -168l168 168l65 -66l-167 -167l168 -169z" />
    <glyph glyph-name="divide" unicode="&#xf7;" horiz-adv-x="632" 
d="M316 469c-35 0 -62 27 -62 62s27 61 62 61s61 -26 61 -61s-26 -62 -61 -62zM51 392h530v-93h-530v93zM316 99c-35 0 -62 27 -62 62s27 62 62 62s61 -27 61 -62s-26 -62 -61 -62z" />
    <glyph glyph-name="equal" unicode="=" horiz-adv-x="649" 
d="M584 409h-519v93h519v-93zM584 190h-519v93h519v-93z" />
    <glyph glyph-name="greater" unicode="&#x3e;" horiz-adv-x="486" 
d="M461 346l-343 -340l-70 65l280 275l-280 274l70 66z" />
    <glyph glyph-name="less" unicode="&#x3c;" horiz-adv-x="485" 
d="M438 71l-70 -65l-343 340l343 340l69 -66l-279 -274z" />
    <glyph glyph-name="plusminus" unicode="&#xb1;" horiz-adv-x="642" 
d="M367 156h-93v204h-218v93h218v204h93v-204h219v-93h-219v-204zM56 93h530v-93h-530v93z" />
    <glyph glyph-name="asciitilde" unicode="~" horiz-adv-x="646" 
d="M502 397h86c0 -104 -52 -165 -147 -165s-138 80 -226 80c-42 0 -62 -27 -62 -79h-86c0 104 52 165 155 165c107 0 141 -80 218 -80c42 0 62 27 62 79z" />
    <glyph glyph-name="logicalnot" unicode="&#xac;" horiz-adv-x="658" 
d="M586 80h-93v220h-443v93h536v-313z" />
    <glyph glyph-name="uni00B5" unicode="&#xb5;" horiz-adv-x="587" 
d="M81 -231v706h96v-255c0 -89 21 -143 120 -143s120 54 120 143v255h96v-282c0 -149 -86 -206 -210 -206c-60 0 -95 14 -127 50l-9 -8c3 -4 10 -11 10 -25v-235h-96z" />
    <glyph glyph-name="percent" unicode="%" horiz-adv-x="872" 
d="M408 570c0 -103 -86 -187 -189 -187s-189 84 -189 187s86 187 189 187s189 -84 189 -187zM277 0h-87l406 740h87zM219 465c58 0 103 47 103 105s-45 105 -103 105s-103 -47 -103 -105s45 -105 103 -105zM841 173c0 -103 -86 -187 -189 -187s-189 84 -189 187
s86 187 189 187s189 -84 189 -187zM652 67c58 0 103 48 103 106s-45 104 -103 104s-103 -46 -103 -104s45 -106 103 -106z" />
    <glyph glyph-name="perthousand" unicode="&#x2030;" horiz-adv-x="1281" 
d="M408 570c0 -103 -86 -187 -189 -187s-189 84 -189 187s86 187 189 187s189 -84 189 -187zM277 0h-87l406 740h87zM219 465c58 0 103 47 103 105s-45 105 -103 105s-103 -47 -103 -105s45 -105 103 -105zM841 173c0 -103 -86 -187 -189 -187s-189 84 -189 187
s86 187 189 187s189 -84 189 -187zM1251 173c0 -103 -86 -187 -189 -187s-189 84 -189 187s86 187 189 187s189 -84 189 -187zM652 67c58 0 103 48 103 106s-45 104 -103 104s-103 -46 -103 -104s45 -106 103 -106zM1062 67c58 0 103 48 103 106s-45 104 -103 104
s-103 -46 -103 -104s45 -106 103 -106z" />
    <glyph glyph-name="uniF8FF" unicode="&#xf8ff;" horiz-adv-x="881" 
d="M236.3 704h365.399v-117.8h-241.6v-185.5c127.7 -45.2002 248.5 -156.101 385 -156.101c25.5 0 46.2002 3.90039 46.2002 3.90039s-20.7002 -31.4004 -95.2998 -31.4004c-110 0 -237.7 59.9004 -335.9 110.9v-328h-123.8v379.1s-23.5 9.7998 -51 9.7998
c-41.2998 0 -76.5996 -17.5996 -76.5996 -55.8994c0 -25.5996 14.7002 -48.1992 36.2998 -55.999c-34.4004 1.90039 -55 25.5 -55 61.7998c0 51.0996 44.2002 88.3994 123.8 88.3994c5.7998 0 13.7002 0 22.5 -1.90039v278.7z" />
    <glyph glyph-name="at" unicode="@" horiz-adv-x="959" 
d="M42 237c0 300 229 453 455 453c208 0 414 -133 414 -388c0 -150 -68 -278 -183 -278c-63 0 -106 23 -106 69c0 7 3 13 6 17l-9 8c-39 -52 -83 -82 -160 -82c-119 0 -196 91 -196 206c0 116 79 207 199 207c70 0 107 -26 142 -67l9 8c-9 10 -13 17 -13 29v23h89v-265
c0 -41 17 -66 48 -66c51 0 84 83 84 177c0 174 -124 314 -320 314c-176 0 -368 -110 -368 -366c0 -233 161 -364 360 -364c78 0 150.9 28.7998 206.7 69.7998l47.7998 -74.7998c-61 -40 -143.5 -79 -261.5 -79c-237 0 -444 164 -444 449zM350 242c0 -73 45 -127 119 -127
c76 0 125 56 125 126c0 71 -50 128 -125 128c-74 0 -119 -55 -119 -127z" />
    <glyph glyph-name="ampersand" unicode="&#x26;" horiz-adv-x="696" 
d="M130 357c35 29 56 40 70 40v12c-14 1 -28 18 -41 37c-21 30 -38 70 -38 118c0 92 65 158 169 158c102 0 169 -62 169 -153c0 -77 -47 -121 -114 -166c-12 -8 -18 -8 -27 -8v-12c8 0 12 -1 23 -12l118 -128c15 -16 15 -25 15 -30h12c0 5 0 16 10 29l66 91h113l-137 -176
l140 -157h-123l-72 81c-6 6 -7 18 -7 24h-12c0 -6 0 -17 -12 -30c-36 -40 -102 -85 -197 -85c-116 0 -215 72 -215 197c0 84 42 130 90 170zM210 564c0 -40 21 -73 63 -119c73 49 95 76 95 121c0 49 -33 77 -77 77c-49 0 -81 -28 -81 -79zM245 345
c-75 -54 -109 -91 -109 -153c0 -74 55 -118 128 -118c57 0 103 27 152 81z" />
    <glyph glyph-name="paragraph" unicode="&#xb6;" horiz-adv-x="707" 
d="M560 -193h-84v855h-116v-855h-85v465c-152 15 -245 105 -245 230c0 119 83 238 253 238h396v-78h-119v-855z" />
    <glyph glyph-name="section" unicode="&#xa7;" horiz-adv-x="542" 
d="M282 727c69 0 131 -24 170 -69l-67 -66c-31 31 -66 42 -109 42c-62 0 -89 -32 -89 -74c0 -51 44 -71 133 -113s186 -85 186 -187c0 -61 -45 -118 -87 -128v-12c44 -16 56 -77 56 -116c0 -115 -97 -180 -203 -180c-76 0 -145 27 -195 76l62 75c34 -36 78 -59 132 -59
c64 0 105 31 105 85c0 62 -52 83 -175 140c-85 39 -168 81 -168 182c0 66 43 116 96 131v12c-31 26 -41 55 -41 96c0 106 94 165 194 165zM133 332c0 -44 29 -62 113 -105c43 -22 81 -39 112 -56c28 17 47 51 47 78c0 45 -38 68 -86 92l-137 69c-25 -17 -49 -48 -49 -78z
" />
    <glyph glyph-name="copyright" unicode="&#xa9;" horiz-adv-x="822" 
d="M412 722c207 0 366 -160 366 -367c0 -202 -159 -367 -367 -367c-207 0 -367 159 -367 367s160 367 368 367zM410 654c-169 0 -294 -130 -294 -299s125 -299 295 -299c169 0 295 135 295 299c0 168 -126 299 -296 299zM412 216c51 0 92 28 115 67l71 -41
c-38 -64 -96 -106 -186 -106c-129 0 -219 98 -219 218c0 118 90 221 218 221c91 0 149 -43 187 -106l-71 -41c-24 39 -57 66 -116 66c-84 0 -134 -66 -134 -140c0 -75 50 -138 135 -138z" />
    <glyph glyph-name="registered" unicode="&#xae;" horiz-adv-x="822" 
d="M412 722c207 0 366 -160 366 -367c0 -202 -159 -367 -367 -367c-207 0 -367 159 -367 367s160 367 368 367zM410 654c-169 0 -294 -130 -294 -299s125 -299 295 -299c169 0 295 135 295 299c0 168 -126 299 -296 299zM403 580c87 0 171 -27 171 -126
c0 -76 -41 -116 -117 -127v-11c7 0 15.9004 -2.09961 23 -13l104 -159h-87l-115 177h-41v-176h-73v435h135zM397 386c55 0 102 8 102 65c0 54 -41 63 -102 63h-56v-128h56z" />
    <glyph glyph-name="trademark" unicode="&#x2122;" horiz-adv-x="774" 
d="M196 356h-73v284h-88v68h248v-68h-87v-284zM349 356v352h75l100 -126l107 126h68v-352h-73v218c0 11 6 18 9 22l-8 5l-87 -106h-32l-87 106l-8 -5c3 -4 9 -11 9 -22v-218h-73z" />
    <glyph glyph-name="degree" unicode="&#xb0;" horiz-adv-x="374" 
d="M337 570c0 -83 -67 -150 -150 -150s-150 67 -150 150s67 150 150 150s150 -67 150 -150zM274 570c0 49 -38 87 -87 87s-88 -38 -88 -87s39 -88 88 -88s87 39 87 88z" />
    <glyph glyph-name="bar" unicode="|" horiz-adv-x="266" 
d="M183 -140h-100v848h100v-848z" />
    <glyph glyph-name="brokenbar" unicode="&#xa6;" horiz-adv-x="272" 
d="M186 390h-100v318h100v-318zM186 -140h-100v350h100v-350z" />
    <glyph glyph-name="dagger" unicode="&#x2020;" horiz-adv-x="567" 
d="M236 708h96v-202c0 -9 -1 -12 -7 -18l9 -8c6 6 11 7 16 7h161v-86h-161c-5 0 -10 1 -16 7l-9 -8c6 -6 7 -9 7 -18v-522h-96v522c0 9 1 12 7 18l-9 8c-6 -6 -11 -7 -16 -7h-162v86h162c5 0 10 -1 16 -7l9 8c-6 6 -7 9 -7 18v202z" />
    <glyph glyph-name="daggerdbl" unicode="&#x2021;" horiz-adv-x="567" 
d="M236 708h96v-202c0 -9 -1 -12 -7 -18l9 -8c6 6 11 7 16 7h161v-86h-161c-5 0 -10 1 -16 7l-9 -8c6 -6 7 -9 7 -18v-196c0 -9 -1 -12 -7 -18l9 -8c6 6 11 7 16 7h161v-86h-161c-5 0 -10 1 -16 7l-9 -8c6 -6 7 -9 7 -18v-202h-96v202c0 9 1 12 7 18l-9 8
c-6 -6 -11 -7 -16 -7h-162v86h162c5 0 10 -1 16 -7l9 8c-6 6 -7 9 -7 18v196c0 9 1 12 7 18l-9 8c-6 -6 -11 -7 -16 -7h-162v86h162c5 0 10 -1 16 -7l9 8c-6 6 -7 9 -7 18v202z" />
    <glyph glyph-name="asciicircum" unicode="^" horiz-adv-x="562" 
d="M229 740h104l194 -404h-100l-136 292c-5 11 -5 17 -5 28h-12c0 -11 0 -17 -5 -28l-134 -292h-100z" />
    <glyph glyph-name="ampersand.ss01" horiz-adv-x="753" 
d="M25 231c0 147 109 244 224 244c21 0 36 -5 47 -14l8 7l-109 153v87h405v-89h-258c-18 0 -23 7 -26 11l-10 -7l452 -623h-113l-131 180l-8 -7c-15 -114 -122 -185 -228 -185c-141 0 -253 107 -253 243zM121 231c0 -86 67 -155 157 -155c85 0 150 69 150 157
c0 94 -65 164 -150 164c-90 0 -157 -70 -157 -166z" />
    <glyph glyph-name="uni0308" unicode="&#x308;" 
d="M-288 573c-35 0 -62 27 -62 62s27 61 62 61s61 -26 61 -61s-26 -62 -61 -62zM-106 573c-35 0 -62 27 -62 62s27 61 62 61s61 -26 61 -61s-26 -62 -61 -62z" />
    <glyph glyph-name="uni0307" unicode="&#x307;" 
d="M-106 586c-35 0 -62 27 -62 62s27 61 62 61s61 -26 61 -61s-26 -62 -61 -62z" />
    <glyph glyph-name="gravecomb" unicode="&#x300;" 
d="M-90 532l-213 112l46 84l211 -120z" />
    <glyph glyph-name="acutecomb" unicode="&#x301;" 
d="M-259 532l-44 75l212 121l46 -82z" />
    <glyph glyph-name="uni030B" unicode="&#x30b;" 
d="M-417 523l-69 50l135 185l74 -53zM-208 523l-69 50l135 185l74 -53z" />
    <glyph glyph-name="uni0302" unicode="&#x302;" 
d="M-332 535l-53 53l138 137h66l136 -137l-54 -53l-115 112z" />
    <glyph glyph-name="uni030C" unicode="&#x30c;" 
d="M-249 541l-136 137l54 53l115 -112l118 112l53 -53l-138 -137h-66z" />
    <glyph glyph-name="uni0306" unicode="&#x306;" 
d="M-209 561c-92 0 -134 56 -134 122h62c0 -33 23 -56 71 -56s72 22 72 56h62c0 -67 -42 -122 -133 -122z" />
    <glyph glyph-name="uni030A" unicode="&#x30a;" 
d="M-152 530c-58 0 -106 48 -106 106c0 57 47 107 106 107s107 -48 107 -107s-49 -106 -107 -106zM-152 591c24 0 45 19 45 45c0 25 -20 45 -45 45s-45 -21 -45 -45c0 -25 20 -45 45 -45z" />
    <glyph glyph-name="tildecomb" unicode="&#x303;" 
d="M-149 551c-55 0 -99 41 -143 41c-25 0 -46 -13 -64 -30l-46 67c29 27 67 48 107 48c57 0 97 -41 141 -41c23 0 47 12 68 33l41 -65c-30 -33 -66 -53 -104 -53z" />
    <glyph glyph-name="uni0304" unicode="&#x304;" 
d="M-393 558v86h348v-86h-348z" />
    <glyph glyph-name="uni0327" unicode="&#x327;" 
d="M-139 -238c-64 0 -114 27 -114 101h67c2 -30 24 -40 48 -40s43 13 43 42s-19 42 -50 42h-66l31 93h68l-13 -35h9c45 0 94 -29 94 -97c0 -66 -44 -106 -117 -106z" />
    <glyph glyph-name="uni0328" unicode="&#x328;" 
d="M-73 -197c-56 0 -106 33 -106 98c0 38 17 75 39 99h59c-15 -21 -29 -51 -29 -76c0 -32 22 -59 59 -59c10 0 27 2 40 9v-56c-20 -10 -40 -15 -62 -15z" />
    <glyph glyph-name="uni0337" unicode="&#x337;" 
d="M-245 216v96l236 171v-96z" />
    <glyph glyph-name="uni0338" unicode="&#x338;" 
d="M-406 -82l-62 25l262 611l63 -26z" />
    <glyph glyph-name="uni0308.case" 
d="M-288 783c-35 0 -62 27 -62 62s27 61 62 61s61 -26 61 -61s-26 -62 -61 -62zM-106 783c-35 0 -62 27 -62 62s27 61 62 61s61 -26 61 -61s-26 -62 -61 -62z" />
    <glyph glyph-name="uni0307.case" 
d="M-106 796c-35 0 -62 27 -62 62s27 61 62 61s61 -26 61 -61s-26 -62 -61 -62z" />
    <glyph glyph-name="gravecomb.case" 
d="M-90 742l-213 112l46 84l211 -120z" />
    <glyph glyph-name="acutecomb.case" 
d="M-259 742l-44 75l212 121l46 -82z" />
    <glyph glyph-name="uni030B.case" 
d="M-417 733l-69 50l135 185l74 -53zM-208 733l-69 50l135 185l74 -53z" />
    <glyph glyph-name="uni0302.case" 
d="M-332 745l-53 53l138 137h66l136 -137l-54 -53l-115 112z" />
    <glyph glyph-name="uni030C.case" 
d="M-249 751l-136 137l54 53l115 -112l118 112l53 -53l-138 -137h-66z" />
    <glyph glyph-name="uni0306.case" 
d="M-209 771c-92 0 -134 56 -134 122h62c0 -33 23 -56 71 -56s72 22 72 56h62c0 -67 -42 -122 -133 -122z" />
    <glyph glyph-name="uni030A.case" 
d="M-152 740c-58 0 -106 48 -106 106c0 57 47 107 106 107s107 -48 107 -107s-49 -106 -107 -106zM-152 801c24 0 45 19 45 45c0 25 -20 45 -45 45s-45 -21 -45 -45c0 -25 20 -45 45 -45z" />
    <glyph glyph-name="tildecomb.case" 
d="M-149 761c-55 0 -99 41 -143 41c-25 0 -46 -13 -64 -30l-46 67c29 27 67 48 107 48c57 0 97 -41 141 -41c23 0 47 12 68 33l41 -65c-30 -33 -66 -53 -104 -53z" />
    <glyph glyph-name="uni0304.case" 
d="M-393 768v86h348v-86h-348z" />
    <glyph glyph-name="uni0327.case" 
d="M-139 -238c-64 0 -114 27 -114 101h67c2 -30 24 -40 48 -40s43 13 43 42s-19 42 -50 42h-66l31 93h68l-13 -35h9c45 0 94 -29 94 -97c0 -66 -44 -106 -117 -106z" />
    <glyph glyph-name="uni0328.case" 
d="M-73 -197c-56 0 -106 33 -106 98c0 38 17 75 39 99h59c-15 -21 -29 -51 -29 -76c0 -32 22 -59 59 -59c10 0 27 2 40 9v-56c-20 -10 -40 -15 -62 -15z" />
    <glyph glyph-name="uni0337.case" 
d="M-245 216v96l236 171v-96z" />
    <glyph glyph-name="uni0338.case" 
d="M-543 -49l-70 44l492 751l71 -45z" />
    <glyph glyph-name="acute" unicode="&#xb4;" horiz-adv-x="348" 
d="M89 532l-44 75l212 121l46 -82z" />
    <glyph glyph-name="breve" unicode="&#x2d8;" horiz-adv-x="410" 
d="M201 561c-92 0 -134 56 -134 122h62c0 -33 23 -56 71 -56s72 22 72 56h62c0 -67 -42 -122 -133 -122z" />
    <glyph glyph-name="caron" unicode="&#x2c7;" horiz-adv-x="430" 
d="M181 541l-136 137l54 53l115 -112l118 112l53 -53l-138 -137h-66z" />
    <glyph glyph-name="cedilla" unicode="&#xb8;" horiz-adv-x="293" 
d="M154 -238c-64 0 -114 27 -114 101h67c2 -30 24 -40 48 -40s43 13 43 42s-19 42 -50 42h-66l31 93h68l-13 -35h9c45 0 94 -29 94 -97c0 -66 -44 -106 -117 -106z" />
    <glyph glyph-name="circumflex" unicode="&#x2c6;" horiz-adv-x="430" 
d="M98 535l-53 53l138 137h66l136 -137l-54 -53l-115 112z" />
    <glyph glyph-name="dieresis" unicode="&#xa8;" horiz-adv-x="395" 
d="M107 573c-35 0 -62 27 -62 62s27 61 62 61s61 -26 61 -61s-26 -62 -61 -62zM289 573c-35 0 -62 27 -62 62s27 61 62 61s61 -26 61 -61s-26 -62 -61 -62z" />
    <glyph glyph-name="dotaccent" unicode="&#x2d9;" horiz-adv-x="213" 
d="M107 586c-35 0 -62 27 -62 62s27 61 62 61s61 -26 61 -61s-26 -62 -61 -62z" />
    <glyph glyph-name="grave" unicode="`" horiz-adv-x="348" 
d="M258 532l-213 112l46 84l211 -120z" />
    <glyph glyph-name="hungarumlaut" unicode="&#x2dd;" horiz-adv-x="544" 
d="M127 523l-69 50l135 185l74 -53zM336 523l-69 50l135 185l74 -53z" />
    <glyph glyph-name="macron" unicode="&#xaf;" horiz-adv-x="438" 
d="M45 558v86h348v-86h-348z" />
    <glyph glyph-name="ogonek" unicode="&#x2db;" horiz-adv-x="238" 
d="M165 -197c-56 0 -106 33 -106 98c0 38 17 75 39 99h59c-15 -21 -29 -51 -29 -76c0 -32 22 -59 59 -59c10 0 27 2 40 9v-56c-20 -10 -40 -15 -62 -15z" />
    <glyph glyph-name="ring" unicode="&#x2da;" horiz-adv-x="303" 
d="M151 530c-58 0 -106 48 -106 106c0 57 47 107 106 107s107 -48 107 -107s-49 -106 -107 -106zM151 591c24 0 45 19 45 45c0 25 -20 45 -45 45s-45 -21 -45 -45c0 -25 20 -45 45 -45z" />
    <glyph glyph-name="tilde" unicode="&#x2dc;" horiz-adv-x="447" 
d="M298 551c-55 0 -99 41 -143 41c-25 0 -46 -13 -64 -30l-46 67c29 27 67 48 107 48c57 0 97 -41 141 -41c23 0 47 12 68 33l41 -65c-30 -33 -66 -53 -104 -53z" />
    </font>
</defs>
</svg>
