<?xml version="1.0" standalone="no"?>
<!DOCTYPE svg PUBLIC "-//W3C//DTD SVG 1.1//EN" "http://www.w3.org/Graphics/SVG/1.1/DTD/svg11.dtd" >
<svg xmlns="http://www.w3.org/2000/svg" width="100%" height="100%">
<metadata>
Created by FontXChange 20100429 at Mon Jan  2 15:37:36 2017
 By Killian Grant
Copyright 2013 \(c\) Rick Banks / Face37. All rights reserved.
</metadata>
<defs>
<font id="F37Jan-Bold" horiz-adv-x="0" >
  <font-face 
    font-family="F37 Jan Bold"
    font-weight="700"
    font-stretch="normal"
    units-per-em="1000"
    panose-1="0 0 8 0 0 0 0 0 0 0"
    ascent="800"
    descent="-200"
    x-height="475"
    cap-height="708"
    bbox="-620.699 -242.943 1259.46 984.92"
    underline-thickness="50"
    underline-position="-50"
    stemh="113"
    stemv="120"
    unicode-range="U+0020-FB02"
  />
<missing-glyph horiz-adv-x="734" 
d="M631.69 0h-529v740h529v-740zM512.381 125.07v489.62h-290.38v-489.62h290.38z" />
    <glyph glyph-name="fi" unicode="fi" horiz-adv-x="573" 
d="M449.69 576.77c-41.9199 0 -74.3096 32.3799 -74.3096 74.2998c0 41.9297 32.3896 73.3096 74.3096 73.3096s73.3096 -31.3799 73.3096 -73.3096c0 -41.9199 -31.3896 -74.2998 -73.3096 -74.2998zM507.69 475v-475.001h-116.77v344.61
c0 9.76953 3.30957 14.3096 9.30957 20.3096l-9.76953 9.54004c-6.76953 -6.76953 -12.5391 -10.0791 -19.8486 -10.0791h-130.15c-7.30957 0 -13.0791 3.30957 -19.8486 10.0791l-9.76953 -9.54004c6 -6 9.30957 -10.54 9.30957 -20.3096v-344.38h-116.77v344.38
c0 9.76953 3.30957 14.3096 9.30957 20.3096l-9.76953 9.54004c-6.76953 -6.76953 -12.5391 -10.0791 -19.8486 -10.0791h-52.9199v110.62h52.9199c7.30957 0 13.0791 -3.30957 19.8486 -10.0791l9.76953 9.54004c-6 6 -9.30957 10.54 -9.30957 20.3096v24.46
c0 102 64.7695 194.54 186.85 194.54c17.3096 0 31.54 -0.769531 47.54 -4.30957v-107.92h-2.45996c-3.7002 0 -13.9307 1.76953 -30.1611 1.76953c-59.1504 0 -85 -37.54 -85 -86.1602v-22.3799c0 -9.76953 -3.30957 -14.3096 -9.30957 -20.3096l9.76953 -9.54004
c6.76953 6.76953 12.5391 10.0791 19.8486 10.0791h267.229z" />
    <glyph glyph-name="fl" unicode="fl" horiz-adv-x="581" 
d="M327.92 713.54c78.3896 0 144.999 -11.0801 187.849 -24.4697v-689.07h-116.77v597.8c-22.3398 4.03027 -43.3701 5.51074 -66.1602 5.51074c-77.6904 0 -112.69 -37.54 -112.69 -93.8496v-14.6904c0 -9.76953 -3.30957 -14.3096 -9.30957 -20.3096l9.76953 -9.54004
c6.76953 6.76953 12.5391 10.0791 19.8486 10.0791h87.54v-110.62h-87.54c-7.30957 0 -13.0791 3.30957 -19.8486 10.0791l-9.76953 -9.54004c6 -6 9.30957 -10.54 9.30957 -20.3096v-344.61h-116.77v344.61c0 9.76953 3.30957 14.3096 9.30957 20.3096l-9.76953 9.54004
c-6.76953 -6.76953 -12.5391 -10.0791 -19.8486 -10.0791h-52.9199v110.62h52.9199c7.30957 0 13.0791 -3.30957 19.8486 -10.0791l9.76953 9.54004c-6 6 -9.30957 10.54 -9.30957 20.3096v15.8398c0.230469 110.62 79.9307 202.93 224.541 202.93z" />
    <glyph glyph-name=".notdef" horiz-adv-x="734" 
d="M631.69 0h-529v740h529v-740zM512.381 125.07v489.62h-290.38v-489.62h290.38z" />
    <glyph glyph-name="A" unicode="A" horiz-adv-x="685" 
d="M3.61035 0l278.461 708h120.77l279.39 -708h-124.16l-66.9199 172.23h-299.69l-65.9199 -172.23h-121.93zM240.151 264.15c3.45996 7 10.9189 12.541 22.459 12.541h156.85c11.54 0 19 -5.54004 23.2305 -12.54l12.54 5l-100.69 271.62
c-5.30957 14.3799 -7.0791 24.6895 -7.0791 31.999h-12.7695c0 -6.54004 -0.230469 -16.8496 -5.54004 -32l-100.77 -271.62z" />
    <glyph glyph-name="Aacute" unicode="&#xc1;" horiz-adv-x="685" 
d="M255.38 741.15l-53.2295 92.6904l222.77 126.39l56 -100.46zM3.61035 0.000976562l278.461 708h120.77l279.39 -708h-124.16l-66.9199 172.23h-299.69l-65.9199 -172.23h-121.93zM240.151 264.151c3.45996 7 10.9189 12.541 22.459 12.541h156.85
c11.54 0 19 -5.54004 23.2305 -12.54l12.54 5l-100.69 271.62c-5.30957 14.3799 -7.0791 24.6895 -7.0791 31.999h-12.7695c0 -6.54004 -0.230469 -16.8496 -5.54004 -32l-100.77 -271.62z" />
    <glyph glyph-name="Acircumflex" unicode="&#xc2;" horiz-adv-x="685" 
d="M228.77 744.15l-64.54 66.8496l145.69 144.69h66l143.69 -144.69l-65.54 -66.8496l-112.69 105.08zM3.60938 0l278.461 708h120.77l279.39 -708h-124.16l-66.9199 172.23h-299.69l-65.9199 -172.23h-121.93zM240.15 264.15c3.45996 7 10.9189 12.541 22.459 12.541
h156.85c11.54 0 19 -5.54004 23.2305 -12.54l12.54 5l-100.69 271.62c-5.30957 14.3799 -7.0791 24.6895 -7.0791 31.999h-12.7695c0 -6.54004 -0.230469 -16.8496 -5.54004 -32l-100.77 -271.62z" />
    <glyph glyph-name="Adieresis" unicode="&#xc4;" horiz-adv-x="685" 
d="M240.15 779.07c-41.9199 0 -74.3096 32.3896 -74.3096 74.3096c0 41.9297 32.3896 73.3096 74.3096 73.3096s73.3096 -31.3799 73.3096 -73.3096c0 -41.9199 -31.3896 -74.3096 -73.3096 -74.3096zM443.69 779.07c-41.9199 0 -74.3096 32.3896 -74.3096 74.3096
c0 41.9297 32.3896 73.3096 74.3096 73.3096s73.3096 -31.3799 73.3096 -73.3096c0 -41.9199 -31.3896 -74.3096 -73.3096 -74.3096zM3.61035 0l278.461 708h120.77l279.39 -708h-124.16l-66.9199 172.23h-299.69l-65.9199 -172.23h-121.93zM240.151 264.15
c3.45996 7 10.9189 12.541 22.459 12.541h156.85c11.54 0 19 -5.54004 23.2305 -12.54l12.54 5l-100.69 271.62c-5.30957 14.3799 -7.0791 24.6895 -7.0791 31.999h-12.7695c0 -6.54004 -0.230469 -16.8496 -5.54004 -32l-100.77 -271.62z" />
    <glyph glyph-name="Agrave" unicode="&#xc0;" horiz-adv-x="685" 
d="M427.46 741.15l-225.31 118.16l56 100.92l222.54 -126.16zM3.61035 0.000976562l278.461 708h120.77l279.39 -708h-124.16l-66.9199 172.23h-299.69l-65.9199 -172.23h-121.93zM240.151 264.151c3.45996 7 10.9189 12.541 22.459 12.541h156.85
c11.54 0 19 -5.54004 23.2305 -12.54l12.54 5l-100.69 271.62c-5.30957 14.3799 -7.0791 24.6895 -7.0791 31.999h-12.7695c0 -6.54004 -0.230469 -16.8496 -5.54004 -32l-100.77 -271.62z" />
    <glyph glyph-name="Aring" unicode="&#xc5;" horiz-adv-x="685" 
d="M340.92 742.23c-59.54 0 -109.85 50.3096 -109.85 109.84c0 59.3096 49.3096 110.85 109.85 110.85c61.3096 0 110.85 -49.54 110.85 -110.85c0 -60.5303 -50.54 -109.84 -110.85 -109.84zM340.92 812.461c21.6904 0 40.3906 16.6904 40.3906 39.6104
c0 22.7002 -17.7002 40.3906 -40.3906 40.3906c-21.9199 0 -39.6104 -18.6904 -39.6104 -40.3906c0 -21.9199 17.6904 -39.6104 39.6104 -39.6104zM3.61035 0.000976562l278.461 708h120.77l279.39 -708h-124.16l-66.9199 172.23h-299.69l-65.9199 -172.23h-121.93z
M240.151 264.151c3.45996 7 10.9189 12.541 22.459 12.541h156.85c11.54 0 19 -5.54004 23.2305 -12.54l12.54 5l-100.69 271.62c-5.30957 14.3799 -7.0791 24.6895 -7.0791 31.999h-12.7695c0 -6.54004 -0.230469 -16.8496 -5.54004 -32l-100.77 -271.62z" />
    <glyph glyph-name="Atilde" unicode="&#xc3;" horiz-adv-x="685" 
d="M418.23 766.31c-55 0 -99 41 -143 41c-25 0 -46 -13 -64 -30l-49.8496 84.6904c29 27 67 48 107 48c57 0 97 -41 141 -41c23 0 47 12 68 33l44.8496 -82.6904c-30 -33 -66 -53 -104 -53zM3.61035 -0l278.461 708h120.77l279.39 -708h-124.16l-66.9199 172.23h-299.69
l-65.9199 -172.23h-121.93zM240.151 264.15c3.45996 7 10.9189 12.541 22.459 12.541h156.85c11.54 0 19 -5.54004 23.2305 -12.54l12.54 5l-100.69 271.62c-5.30957 14.3799 -7.0791 24.6895 -7.0791 31.999h-12.7695c0 -6.54004 -0.230469 -16.8496 -5.54004 -32
l-100.77 -271.62z" />
    <glyph glyph-name="AE" unicode="&#xc6;" horiz-adv-x="876" 
d="M-12.54 0l352.61 708h486.93v-107.16h-286.85c-8.08008 0 -15.3799 4.84961 -20.6104 10.0801l-9 -9.54004c4.45996 -4.45996 8.53027 -9 8.53027 -21.0703v-137.31c0 -11.3096 -4.07031 -15.8496 -8.53027 -21.0801l9 -8.76953
c5.23047 4.45996 12.5303 9.30957 20.6104 9.30957h227v-109.46h-227c-8.08008 0 -15.3799 4.83984 -20.6104 9.30957l-9 -8.76953c4.45996 -5.23047 8.53027 -9.77051 8.53027 -21.0801v-164.77c0 -12.0801 -4.07031 -16.6201 -8.53027 -21.0801l9 -9.54004
c5.23047 5.24023 12.5303 10.0801 20.6104 10.0801h291.46v-107.15h-428.92v150.77c0 11.2998 4.08008 15.8398 8.54004 21.0703l-9 8.76953c-5.23047 -4.45996 -12.54 -9.2998 -20.6201 -9.2998h-187.23l-86.6104 -171.31h-120.31zM253.54 263.69
c3.45996 7 10.9199 12.54 22.46 12.54h105.61c8.08008 0 15.3896 -4.84961 20.6201 -9.30957l9 8.76953c-4.45996 5.23047 -8.54004 9.77051 -8.54004 21.0801v291.84h-12.54c0 -6.76953 1.30957 -18 -5.54004 -32.46l-142.84 -287.46z" />
    <glyph glyph-name="B" unicode="B" horiz-adv-x="671" 
d="M86.6104 0v707.998h266.93c155.53 0 233.46 -64 233.46 -177.93c0 -64.7598 -34.3096 -124.609 -90.46 -141.999v-12.7598c91.5303 -18.1602 135.46 -86.6201 135.46 -168.62c0 -144.92 -111.54 -206.689 -253.08 -206.689h-292.31zM202.46 406.688
c5.23047 5.23047 12.54 10.0801 20.6104 10.0801h141.77c57.1602 0 106.23 31.3799 106.23 94.3799c0 61.1602 -41.46 93.54 -107.69 93.54h-140.31c-8.07031 0 -15.3799 4.84961 -20.6104 10.0801l-9 -8.76953c4.45996 -5.23047 8.54004 -9.77051 8.54004 -21.8506v-146.84
c0 -12.0801 -4.08008 -16.6201 -8.54004 -21.0801zM202.46 93.998c5.23047 4.45996 12.54 9.30957 20.6104 9.30957h162.47c88.2305 0 131.301 40.3799 131.301 108c0 60.8398 -43.0703 100.53 -141.301 100.53h-152.47c-8.07031 0 -15.3799 4.84961 -20.6104 10.0801
l-9 -8.76953c4.45996 -5.23047 8.54004 -9.77051 8.54004 -21.8408v-167.47c0 -11.2998 -4.08008 -15.8398 -8.54004 -21.0703z" />
    <glyph glyph-name="C" unicode="C" horiz-adv-x="705" 
d="M411.46 -13c-204.69 0 -371.539 156.92 -371.539 368.77c0 205.92 163.92 369.54 372.54 369.54c111.23 0 203.15 -41.6201 270 -116.54l-77.2305 -73.2305c-50.0801 54.5303 -113.39 82.5303 -191.54 82.5303c-143.08 0 -255.08 -110.69 -255.08 -263.301
c0 -150.31 110.54 -260.079 252.85 -260.079c77.7695 0 144.77 32.46 195.229 79.7695l75.7695 -74.7695c-70.8496 -75.7695 -161.619 -112.689 -270.999 -112.689z" />
    <glyph glyph-name="Ccedilla" unicode="&#xc7;" horiz-adv-x="705" 
d="M411.46 94.6904c77.7695 0 144.773 32.4609 195.233 79.7705l75.7695 -74.7695c-67.3896 -72.0703 -152.8 -108.99 -255.109 -112.431l-4.50977 -18.4199h5.92969c56.54 0 106.3 -28.2305 106.3 -100.841c0 -54.46 -38.6104 -106.77 -119.301 -106.77
c-61.7002 0 -114 25.46 -117.85 101.77h72.3896c2.75977 -23.8496 21.6895 -36.9297 42.6094 -36.9297c24 0 41.46 16.0801 41.46 39.7002c0 27.46 -17.46 41.2295 -45.3799 41.2295h-66l21.4297 82.7998c-182.61 21.9502 -324.511 170.601 -324.511 365.971
c0 205.92 163.92 369.54 372.54 369.54c111.23 0 203.15 -41.6201 270 -116.54l-77.2305 -73.2305c-50.0801 54.5303 -113.39 82.5303 -191.54 82.5303c-143.08 0 -255.08 -110.69 -255.08 -263.301c0 -150.31 110.54 -260.079 252.85 -260.079z" />
    <glyph glyph-name="D" unicode="D" horiz-adv-x="756" 
d="M86.6104 0l0.000976562 708h242.39c221.84 0 385.609 -137.85 385.609 -354.77c0 -214.16 -168.23 -353.23 -385.61 -353.23h-242.39zM203.231 100.15c5.23047 4.45996 12.541 9.30859 20.6113 9.30859h98.8496c145.54 0 274.771 70.6904 274.771 243.771
c0 178.23 -136.23 245.311 -271.391 245.311h-102.23c-8.07031 0 -15.3799 4.83984 -20.6104 9.2998l-9 -8.76953c4.45996 -5.23047 8.54004 -9.76074 8.54004 -21.0703v-448c0 -11.3096 -4.08008 -15.8496 -8.54004 -21.0801z" />
    <glyph glyph-name="Eth" unicode="&#xd0;" horiz-adv-x="766" 
d="M338.38 708c221.85 0 385.62 -137.85 385.62 -354.77c0 -214.16 -168.23 -353.23 -385.62 -353.23h-242.38v301.229h-80.54v100.61h80.54v306.16h242.38zM332.071 109.46c145.54 0 274.771 70.6904 274.771 243.771c0 178.23 -136.23 245.311 -271.381 245.311h-102.23
c-8.08008 0 -15.3896 4.83984 -20.6201 9.2998l-9 -8.76953c4.45996 -5.23047 8.54004 -9.76074 8.54004 -21.0703v-176.16h159v-100.61h-159v-171.23c0 -11.3096 -4.08008 -15.8496 -8.54004 -21.0801l9 -8.76953c5.23047 4.45996 12.54 9.30957 20.6201 9.30957h98.8398z
" />
    <glyph glyph-name="E" unicode="E" horiz-adv-x="582" 
d="M86.6104 0v708h446.16v-107.16h-308.93c-8.07031 0 -15.3799 4.84961 -20.6104 10.0801l-9 -9.54004c4.45996 -4.45996 8.54004 -9 8.54004 -21.0703v-137.31c0 -11.3096 -4.08008 -15.8496 -8.54004 -21.0801l9 -8.76953c5.23047 4.45996 12.54 9.30957 20.6104 9.30957
h249.08v-109.46h-249.08c-8.07031 0 -15.3799 4.83984 -20.6104 9.30957l-9 -8.76953c4.45996 -5.23047 8.54004 -9.77051 8.54004 -21.0801v-164.77c0 -12.0801 -4.08008 -16.6201 -8.54004 -21.0801l9 -9.54004c5.23047 5.24023 12.54 10.0801 20.6104 10.0801h313.54
v-107.15h-450.771z" />
    <glyph glyph-name="Eacute" unicode="&#xc9;" horiz-adv-x="582" 
d="M218.84 741.15l-53.2295 92.6904l222.77 126.39l56 -100.46zM86.6104 0.000976562v708h446.16v-107.16h-308.93c-8.07031 0 -15.3799 4.84961 -20.6104 10.0801l-9 -9.54004c4.45996 -4.45996 8.54004 -9 8.54004 -21.0703v-137.31
c0 -11.3096 -4.08008 -15.8496 -8.54004 -21.0801l9 -8.76953c5.23047 4.45996 12.54 9.30957 20.6104 9.30957h249.08v-109.46h-249.08c-8.07031 0 -15.3799 4.83984 -20.6104 9.30957l-9 -8.76953c4.45996 -5.23047 8.54004 -9.77051 8.54004 -21.0801v-164.77
c0 -12.0801 -4.08008 -16.6201 -8.54004 -21.0801l9 -9.54004c5.23047 5.24023 12.54 10.0801 20.6104 10.0801h313.54v-107.15h-450.771z" />
    <glyph glyph-name="Ecircumflex" unicode="&#xca;" horiz-adv-x="582" 
d="M192.23 744.15l-64.54 66.8496l145.69 144.69h66l143.69 -144.69l-65.5303 -66.8496l-112.7 105.08zM86.6104 0v708h446.16v-107.16h-308.93c-8.07031 0 -15.3799 4.84961 -20.6104 10.0801l-9 -9.54004c4.45996 -4.45996 8.54004 -9 8.54004 -21.0703v-137.31
c0 -11.3096 -4.08008 -15.8496 -8.54004 -21.0801l9 -8.76953c5.23047 4.45996 12.54 9.30957 20.6104 9.30957h249.08v-109.46h-249.08c-8.07031 0 -15.3799 4.83984 -20.6104 9.30957l-9 -8.76953c4.45996 -5.23047 8.54004 -9.77051 8.54004 -21.0801v-164.77
c0 -12.0801 -4.08008 -16.6201 -8.54004 -21.0801l9 -9.54004c5.23047 5.24023 12.54 10.0801 20.6104 10.0801h313.54v-107.15h-450.771z" />
    <glyph glyph-name="Edieresis" unicode="&#xcb;" horiz-adv-x="582" 
d="M203.61 779.07c-41.9199 0 -74.2998 32.3896 -74.2998 74.3096c0 41.9297 32.3799 73.3096 74.2998 73.3096c41.9297 0 73.3096 -31.3799 73.3096 -73.3096c0 -41.9199 -31.3799 -74.3096 -73.3096 -74.3096zM407.15 779.07
c-41.9199 0 -74.3096 32.3896 -74.3096 74.3096c0 41.9297 32.3896 73.3096 74.3096 73.3096s73.3096 -31.3799 73.3096 -73.3096c0 -41.9199 -31.3896 -74.3096 -73.3096 -74.3096zM86.6104 0v708h446.16v-107.16h-308.93c-8.07031 0 -15.3799 4.84961 -20.6104 10.0801
l-9 -9.54004c4.45996 -4.45996 8.54004 -9 8.54004 -21.0703v-137.31c0 -11.3096 -4.08008 -15.8496 -8.54004 -21.0801l9 -8.76953c5.23047 4.45996 12.54 9.30957 20.6104 9.30957h249.08v-109.46h-249.08c-8.07031 0 -15.3799 4.83984 -20.6104 9.30957l-9 -8.76953
c4.45996 -5.23047 8.54004 -9.77051 8.54004 -21.0801v-164.77c0 -12.0801 -4.08008 -16.6201 -8.54004 -21.0801l9 -9.54004c5.23047 5.24023 12.54 10.0801 20.6104 10.0801h313.54v-107.15h-450.771z" />
    <glyph glyph-name="Egrave" unicode="&#xc8;" horiz-adv-x="582" 
d="M390.92 741.15l-225.31 118.16l56 100.92l222.54 -126.16zM86.6104 0.000976562v708h446.16v-107.16h-308.93c-8.07031 0 -15.3799 4.84961 -20.6104 10.0801l-9 -9.54004c4.45996 -4.45996 8.54004 -9 8.54004 -21.0703v-137.31
c0 -11.3096 -4.08008 -15.8496 -8.54004 -21.0801l9 -8.76953c5.23047 4.45996 12.54 9.30957 20.6104 9.30957h249.08v-109.46h-249.08c-8.07031 0 -15.3799 4.83984 -20.6104 9.30957l-9 -8.76953c4.45996 -5.23047 8.54004 -9.77051 8.54004 -21.0801v-164.77
c0 -12.0801 -4.08008 -16.6201 -8.54004 -21.0801l9 -9.54004c5.23047 5.24023 12.54 10.0801 20.6104 10.0801h313.54v-107.15h-450.771z" />
    <glyph glyph-name="F" unicode="F" horiz-adv-x="560" 
d="M86.6104 0l0.000976562 708h446.85v-111.16h-309.62c-8.07031 0 -15.3799 4.84961 -20.6104 9.30957l-9 -8.76953c4.45996 -5.23047 8.54004 -9.77051 8.54004 -21.0703v-153.08c0 -11.3096 -4.08008 -15.8496 -8.54004 -21.0801l9 -8.76953
c5.23047 5.23047 12.54 9.31055 20.6104 9.31055h254.93v-109.46h-254.93c-8.07031 0 -15.3799 4.83984 -20.6104 10.0801l-9 -9.54004c4.45996 -4.45996 8.54004 -9 8.54004 -21.0801v-272.69h-116.16z" />
    <glyph glyph-name="G" unicode="G" horiz-adv-x="737" 
d="M411.15 -13c-207.23 0 -371.231 161.232 -371.231 369.692c0 200.46 158.31 368.62 372.46 368.62c114.62 0 197.851 -39.9297 269.081 -112.62l-82.6201 -75.8496c-47.7695 56.3896 -116.84 81.2295 -186 81.2295c-146 0 -252.69 -118.61 -252.69 -260.841
c0 -148.69 107.31 -262.54 251 -262.54c60 0 118.46 18.0801 162.46 54.2305v115.39c0 11.2998 4.84961 16.6094 10.0801 20.2998l-9.76953 10.3096c-4.45996 -5.23047 -11.7695 -10.0801 -21.3799 -10.0801h-157.16v105.39h285.16v-293.54
c-67 -67.46 -165.93 -109.69 -269.39 -109.69z" />
    <glyph glyph-name="H" unicode="H" horiz-adv-x="773" 
d="M86.6104 0v708h116.16v-268.77c0 -12.0801 -4.08008 -16.6201 -8.54004 -21.0801l9 -9.54004c5.23047 5.23047 12.54 10.0801 20.6104 10.0801h325.54c8.84961 0 15.3896 -4.84961 20.6201 -10.0801l9.76953 9.54004c-5.23047 4.45996 -9.31055 9 -9.31055 21.0801
v268.77h116.15v-708h-116.15v290.46c0 11.3096 4.08008 15.8496 9.31055 21.0801l-9.76953 8.76953c-5.23047 -4.46973 -11.7705 -9.30957 -20.6201 -9.30957h-325.54c-8.07031 0 -15.3799 4.83984 -20.6104 9.30957l-9 -8.76953
c4.45996 -5.23047 8.54004 -9.77051 8.54004 -21.0801v-290.46h-116.16z" />
    <glyph glyph-name="I" unicode="I" horiz-adv-x="289" 
d="M86.6104 0v708h116.16v-708h-116.16z" />
    <glyph glyph-name="Iacute" unicode="&#xcd;" horiz-adv-x="289" 
d="M58.54 741.15l-53.2295 92.6904l222.76 126.39l56 -100.46zM86.6104 0.000976562v708h116.16v-708h-116.16z" />
    <glyph glyph-name="Icircumflex" unicode="&#xce;" horiz-adv-x="289" 
d="M31.9199 744.15l-64.54 66.8496l145.69 144.69h66l143.7 -144.69l-65.54 -66.8496l-112.69 105.08zM86.6104 0v708h116.16v-708h-116.16z" />
    <glyph glyph-name="Idieresis" unicode="&#xcf;" horiz-adv-x="289" 
d="M43.3096 779.07c-41.9297 0 -74.3096 32.3896 -74.3096 74.3096c0 41.9297 32.3799 73.3096 74.3096 73.3096c41.9199 0 73.2998 -31.3799 73.2998 -73.3096c0 -41.9199 -31.3799 -74.3096 -73.2998 -74.3096zM246.84 779.07
c-41.9199 0 -74.2998 32.3896 -74.2998 74.3096c0 41.9297 32.3799 73.3096 74.2998 73.3096c41.9297 0 73.3096 -31.3799 73.3096 -73.3096c0 -41.9199 -31.3799 -74.3096 -73.3096 -74.3096zM86.6094 0v708h116.16v-708h-116.16z" />
    <glyph glyph-name="Igrave" unicode="&#xcc;" horiz-adv-x="289" 
d="M230.61 741.15l-225.3 118.16l56 100.92l222.53 -126.16zM86.6104 0.000976562v708h116.16v-708h-116.16z" />
    <glyph glyph-name="J" unicode="J" horiz-adv-x="500" 
d="M200.84 -11.46c-110 0 -170.771 52.7686 -202.921 127.999l96.54 51.46c21.7695 -46 52 -75.9297 106.38 -75.9297c66.1602 0 103 41.54 103 130.771v485.16h116.16v-490.62c0 -137.54 -81.3096 -228.84 -219.159 -228.84z" />
    <glyph glyph-name="K" unicode="K" horiz-adv-x="637" 
d="M86.6104 0l-0.000976562 707.996h116.16v-308.08h13.54c0 8.45996 1.45996 17.6904 13.6904 30.9209l260 277.16h147.92l-316.15 -329.16c-5.76953 -5.76953 -14.5391 -6.5293 -19.5391 -6.5293v-12.7695c5 0 14.54 0 22.0801 -8.30957l325.15 -351.229h-151.31
l-268.15 288.61c-12.2305 13.2305 -13.6904 23.2305 -13.6904 31.7002h-13.54v-320.31h-116.16z" />
    <glyph glyph-name="L" unicode="L" horiz-adv-x="534" 
d="M86.6104 0l-0.000976562 707.999h116.16v-578c0 -11.3096 -4.30957 -16.8496 -9.76953 -22.3096l9.76953 -8.76953c5.45996 5.45996 13 10.54 21.0703 10.54h300v-109.46h-437.229z" />
    <glyph glyph-name="Ldot" unicode="&#x13f;" horiz-adv-x="600" 
d="M86.6104 0l-0.000976562 707.999h116.16v-578c0 -11.3096 -4.30957 -16.8496 -9.76953 -22.3096l9.76953 -8.76953c5.45996 5.45996 13 10.54 21.0703 10.54h300v-109.46h-437.229zM440.34 307.599c-41.9199 0 -74.3096 32.3799 -74.3096 74.3096
c0 41.9199 32.3896 73.3096 74.3096 73.3096c41.9297 0 73.3096 -31.3896 73.3096 -73.3096c0 -41.9297 -31.3799 -74.3096 -73.3096 -74.3096z" />
    <glyph glyph-name="Lslash" unicode="&#x141;" horiz-adv-x="600" 
d="M223.84 109.46h300v-109.46h-437.23v253.56l-78.8496 -49.8701v115.23l78.8496 49.8701v339.21h116.16v-265.74l91.1699 57.6602v-115.23l-91.1699 -57.6602v-197.03c0 -11.3096 -4.30957 -16.8496 -9.76953 -22.3096l9.76953 -8.76953
c5.45996 5.45996 13 10.54 21.0703 10.54z" />
    <glyph glyph-name="M" unicode="M" horiz-adv-x="889" 
d="M86.6104 0l-0.000976562 708h156.23l189.93 -307.77c7.54004 -13.0801 7.54004 -24.9199 7.54004 -33.9199h13.5303c0 9 0 21.0703 8.30957 33.9199l190.69 307.771h149.39v-708h-114.62v527.15c0 17.3096 5.30957 25.3896 9.30957 31.3896l-10.7695 7l-188.38 -309.23
h-108.46l-186.85 309.229l-10.7695 -7c4 -6 9.54004 -15.0801 9.54004 -31.6201v-526.92h-114.62z" />
    <glyph glyph-name="N" unicode="N" horiz-adv-x="754" 
d="M86.6104 0v708h150.85l316.61 -521.771l10.54 7c-5.54004 9.08008 -10.2998 16.6104 -10.2998 38.46v476.31h113.15v-708h-124.85l-342.84 560l-10.54 -7c5.76953 -9.30957 10.5391 -16.8496 10.5391 -38.6895l0.769531 -514.31h-113.93z" />
    <glyph glyph-name="Ntilde" unicode="&#xd1;" horiz-adv-x="754" 
d="M453.84 766.31c-55 0 -99 41 -143 41c-25 0 -46 -13 -64 -30l-49.8398 84.6904c29 27 67 48 107 48c57 0 97 -41 141 -41c23 0 47 12 68 33l44.8398 -82.6904c-30 -33 -66 -53 -104 -53zM86.6094 -0v708h150.85l316.61 -521.771l10.54 7
c-5.54004 9.08008 -10.2998 16.6104 -10.2998 38.46v476.31h113.15v-708h-124.85l-342.84 560l-10.54 -7c5.76953 -9.30957 10.5391 -16.8496 10.5391 -38.6895l0.769531 -514.31h-113.93z" />
    <glyph glyph-name="O" unicode="O" horiz-adv-x="808" 
d="M404.84 -13c-206.84 0 -364.149 162.61 -364.149 368.771c0 201.54 157.31 369.54 364.149 369.54c205.31 0 362.619 -164.16 362.619 -369.54c0 -203.08 -157.31 -368.771 -362.619 -368.771zM404.84 96.9199c136.7 0 240.391 114.462 240.391 258.852
c0 144.84 -105.92 259.609 -240.39 259.609c-138.23 0 -242.69 -115.54 -242.69 -259.61c0 -146.7 105.92 -258.851 242.689 -258.851z" />
    <glyph glyph-name="Oacute" unicode="&#xd3;" horiz-adv-x="808" 
d="M319.31 741.15l-53.2393 92.6904l222.77 126.39l56 -100.46zM404.84 -12.999c-206.84 0 -364.149 162.61 -364.149 368.771c0 201.54 157.31 369.54 364.149 369.54c205.31 0 362.619 -164.16 362.619 -369.54c0 -203.08 -157.31 -368.771 -362.619 -368.771z
M404.84 96.9209c136.7 0 240.391 114.462 240.391 258.852c0 144.84 -105.92 259.609 -240.39 259.609c-138.23 0 -242.69 -115.54 -242.69 -259.61c0 -146.7 105.92 -258.851 242.689 -258.851z" />
    <glyph glyph-name="Ocircumflex" unicode="&#xd4;" horiz-adv-x="808" 
d="M292.69 744.15l-64.54 66.8496l145.69 144.69h66l143.7 -144.69l-65.54 -66.8496l-112.69 105.08zM404.841 -13c-206.84 0 -364.149 162.61 -364.149 368.771c0 201.54 157.31 369.54 364.149 369.54c205.31 0 362.619 -164.16 362.619 -369.54
c0 -203.08 -157.31 -368.771 -362.619 -368.771zM404.841 96.9199c136.7 0 240.391 114.462 240.391 258.852c0 144.84 -105.92 259.609 -240.39 259.609c-138.23 0 -242.69 -115.54 -242.69 -259.61c0 -146.7 105.92 -258.851 242.689 -258.851z" />
    <glyph glyph-name="Odieresis" unicode="&#xd6;" horiz-adv-x="808" 
d="M304.07 779.07c-41.9199 0 -74.2998 32.3896 -74.2998 74.3096c0 41.9297 32.3799 73.3096 74.2998 73.3096c41.9297 0 73.3096 -31.3799 73.3096 -73.3096c0 -41.9199 -31.3799 -74.3096 -73.3096 -74.3096zM507.61 779.07
c-41.9199 0 -74.2998 32.3896 -74.2998 74.3096c0 41.9297 32.3799 73.3096 74.2998 73.3096c41.9297 0 73.3096 -31.3799 73.3096 -73.3096c0 -41.9199 -31.3799 -74.3096 -73.3096 -74.3096zM404.841 -13c-206.84 0 -364.149 162.61 -364.149 368.771
c0 201.54 157.31 369.54 364.149 369.54c205.31 0 362.619 -164.16 362.619 -369.54c0 -203.08 -157.31 -368.771 -362.619 -368.771zM404.841 96.9199c136.7 0 240.391 114.462 240.391 258.852c0 144.84 -105.92 259.609 -240.39 259.609
c-138.23 0 -242.69 -115.54 -242.69 -259.61c0 -146.7 105.92 -258.851 242.689 -258.851z" />
    <glyph glyph-name="Ograve" unicode="&#xd2;" horiz-adv-x="808" 
d="M491.38 741.15l-225.31 118.16l56 100.92l222.54 -126.16zM404.84 -12.999c-206.84 0 -364.149 162.61 -364.149 368.771c0 201.54 157.31 369.54 364.149 369.54c205.31 0 362.619 -164.16 362.619 -369.54c0 -203.08 -157.31 -368.771 -362.619 -368.771z
M404.84 96.9209c136.7 0 240.391 114.462 240.391 258.852c0 144.84 -105.92 259.609 -240.39 259.609c-138.23 0 -242.69 -115.54 -242.69 -259.61c0 -146.7 105.92 -258.851 242.689 -258.851z" />
    <glyph glyph-name="Oslash" unicode="&#xd8;" horiz-adv-x="808" 
d="M651.06 629.39c72.1699 -67.4004 116.399 -164.71 116.399 -273.62c0 -203.08 -157.31 -368.771 -362.619 -368.771c-57.0801 0 -110.39 12.3799 -157.659 34.6494l-53.3398 -80.2695l-87.6904 50.9297l56.3496 85.2803c-75.46 67.2002 -121.81 166.28 -121.81 278.181
c0 201.54 157.31 369.54 364.149 369.54c58.4404 0 112.99 -13.2998 161.12 -37.0596l46.04 69.6699l89.46 -52.6904zM162.148 355.77c0 -70.7803 24.6611 -133.52 65.5508 -179.5l275.52 417.021c-29.9102 14.2197 -63.1602 22.0898 -98.3799 22.0898
c-138.23 0 -242.69 -115.54 -242.69 -259.61zM404.84 96.9209c136.7 0 240.391 114.459 240.391 258.849c0 67.1602 -22.7803 127.86 -60.6104 173.641l-274.5 -413.06c28.9297 -12.5596 60.8799 -19.4297 94.7197 -19.4297z" />
    <glyph glyph-name="Otilde" unicode="&#xd5;" horiz-adv-x="808" 
d="M482.15 766.31c-55 0 -99 41 -143 41c-25 0 -46 -13 -64 -30l-49.8398 84.6904c29 27 67 48 107 48c57 0 97 -41 141 -41c23 0 47 12 68 33l44.8398 -82.6904c-30 -33 -66 -53 -104 -53zM404.841 -13c-206.84 0 -364.149 162.61 -364.149 368.771
c0 201.54 157.31 369.54 364.149 369.54c205.31 0 362.619 -164.16 362.619 -369.54c0 -203.08 -157.31 -368.771 -362.619 -368.771zM404.841 96.9199c136.7 0 240.391 114.462 240.391 258.852c0 144.84 -105.92 259.609 -240.39 259.609
c-138.23 0 -242.69 -115.54 -242.69 -259.61c0 -146.7 105.92 -258.851 242.689 -258.851z" />
    <glyph glyph-name="OE" unicode="&#x152;" horiz-adv-x="1143" 
d="M398.31 -13c-201.54 0 -357.619 161.231 -357.619 369.691c0 201.08 155.38 368.62 357.85 368.62c99.2998 0 187.609 -38.0801 248.84 -106.85l10 9.30957c-6.30957 5.76953 -10.0693 13.0693 -10.0693 22.2998v57.9297h446.61v-107.16h-308.92
c-8.08008 0 -15.3896 4.84961 -20.6201 10.0801l-9 -9.54004c4.45996 -4.45996 8.54004 -9 8.54004 -21.0703v-137.31c0 -11.3096 -4.08008 -15.8496 -8.54004 -21.0801l9 -8.76953c5.23047 4.45996 12.54 9.30957 20.6201 9.30957h249.07v-109.46h-249.07
c-8.08008 0 -15.3896 4.83984 -20.6201 9.30957l-9 -8.76953c4.45996 -5.23047 8.54004 -9.77051 8.54004 -21.0801v-164.77c0 -12.0801 -4.08008 -16.6201 -8.54004 -21.0801l9 -9.54004c5.23047 5.24023 12.54 10.0801 20.6201 10.0801h313.54v-107.15h-451.23v64.3799
c0 9.23047 3.75977 16.54 10.0693 22.3096l-10 9.30957c-62.1504 -69.1602 -149.771 -109 -249.07 -109zM406.23 96.2314c136.46 0 242.229 112.381 242.229 260.461c0 144.85 -107.08 259.85 -242.46 259.85c-138 0 -244.31 -114.85 -244.31 -260.08
c0 -150.62 108.92 -260.23 244.54 -260.23z" />
    <glyph glyph-name="P" unicode="P" horiz-adv-x="608" 
d="M86.6104 0v708h238.16c165.84 0 257.46 -94.8496 257.46 -233.31c0 -136.54 -91.6201 -234.08 -257.46 -234.08h-100.93c-8.07031 0 -15.3799 4.84961 -20.6104 10.0801l-9 -8.76953c4.45996 -5.23047 8.54004 -9.77051 8.54004 -21.8506v-220.07h-116.16zM203.23 340
c5.23047 5.23047 12.54 10.0713 20.6104 10.0713h100.93c89.9199 0 140.54 47.0801 140.54 123.85c0 77.54 -50.6201 125.39 -140.54 125.39h-100.93c-8.07031 0 -15.3799 4.83984 -20.6104 9.2998l-9 -8.76953c4.45996 -5.23047 8.54004 -9.77051 8.54004 -21.0703v-208.16
c0 -12.0703 -4.08008 -16.6104 -8.54004 -21.8408z" />
    <glyph glyph-name="Thorn" unicode="&#xde;" horiz-adv-x="629" 
d="M86.6104 0l0.000976562 708h123.85v-90.7695c0 -12.0801 -4.08008 -16.6201 -8.54004 -21.0801l9 -9.54004c5.23047 5.23047 12.54 10.0801 20.6201 10.0801h105.77c171.15 0 254.92 -102.15 254.92 -236.851c0 -133.07 -81.6904 -236.92 -254.921 -236.92h-105.77
c-8.08008 0 -15.3896 4.84961 -20.6201 9.30957l-9 -8.76953c4.45996 -5.23047 8.54004 -9.77051 8.54004 -21.0801v-102.38h-123.85zM210.921 221c5.23047 5.23047 12.541 10.0703 20.6211 10.0703h105.3c88.3896 0 131.85 52.54 131.85 125.24
c0 74.8398 -40.6904 132.229 -131.851 132.229h-105.3c-8.08008 0 -15.3896 4.83984 -20.6201 9.2998l-9 -8.76953c4.45996 -5.23047 8.54004 -9.76074 8.54004 -21.0703v-216.39c0 -12.0703 -4.08008 -16.6104 -8.54004 -21.0703z" />
    <glyph glyph-name="Q" unicode="Q" horiz-adv-x="808" 
d="M616.21 38.6699c11.3896 0 16.8721 -2.90039 24.3916 -12.8506l62.7695 -83.46l-90.8496 -69.54l-96.9902 131.12c-34.6797 -11.0098 -71.8193 -16.9395 -110.689 -16.9395c-206.84 0 -364.149 162.61 -364.149 368.771c0 201.54 157.31 369.54 364.149 369.54
c205.31 0 362.619 -164.16 362.619 -369.54c0 -126.75 -61.2803 -238.94 -157.271 -305.37zM162.152 355.77c0 -146.7 105.92 -258.849 242.689 -258.849c136.7 0 240.391 114.46 240.391 258.85c0 144.84 -105.92 259.609 -240.39 259.609
c-138.23 0 -242.69 -115.54 -242.69 -259.61z" />
    <glyph glyph-name="R" unicode="R" horiz-adv-x="649" 
d="M86.6104 0v707.999h265.93c138.07 0 242.15 -78.46 242.15 -213.08c0 -125 -87.6904 -198.92 -203.62 -208.77v-12.3096c12 0.230469 21.7002 -6.45996 30.7002 -18.2295l199.61 -255.61h-138.92l-219.23 281.31h-39.3896c-8.07031 0 -15.3799 4.83984 -20.6104 10.0703
l-9 -9.54004c4.45996 -4.45996 8.54004 -9 8.54004 -21.0703v-260.77h-116.16zM203.23 377.919c5.23047 4.45996 12.54 9.30957 20.6104 9.30957h128.93c72.6904 0 125.54 35.2305 125.54 106.15c0 70.9297 -52.8496 106.689 -125.54 106.689h-128.93
c-8.07031 0 -15.3799 4.84961 -20.6104 10.0801l-9 -9.54004c4.45996 -4.45996 8.54004 -9 8.54004 -21.0703v-171.77c0 -11.3096 -4.08008 -15.8496 -8.54004 -21.0801z" />
    <glyph glyph-name="S" unicode="S" horiz-adv-x="551" 
d="M270.46 -13c-92.0801 0 -177.621 27.0703 -248.541 92.8398l66.6904 88.7695c45.46 -40.6904 104.62 -75.54 185 -75.54c90 0 122.54 45.4697 122.54 96.6201c0 69.9199 -63 96 -144.38 126.23c-100.93 37.1504 -191.62 86.3105 -191.62 207.391
c0 124.69 96.46 199.69 234.69 199.69c78.3096 0 142.54 -23.0801 201.23 -67.7705l-61.9199 -89.0801c-37.3799 32.1602 -89.0801 50.7705 -141.38 50.7705c-68.1602 0 -116.23 -28.9199 -116.23 -87c0 -60.1504 55.46 -84.8506 132.53 -112.771
c109.31 -39.54 204.699 -85.1504 204.699 -221.381c0 -131.31 -88.8496 -208.77 -243.31 -208.77z" />
    <glyph glyph-name="Scaron" unicode="&#x160;" horiz-adv-x="551" 
d="M242.92 746.31l-143.69 144.69l65.54 66.8398l111.15 -104.3l114.15 104.3l64.54 -66.8398l-145.69 -144.69h-66zM270.46 -13c-92.0801 0 -177.621 27.0703 -248.541 92.8398l66.6904 88.7695c45.46 -40.6904 104.62 -75.54 185 -75.54
c90 0 122.54 45.4697 122.54 96.6201c0 69.9199 -63 96 -144.38 126.23c-100.93 37.1504 -191.62 86.3105 -191.62 207.391c0 124.69 96.46 199.69 234.69 199.69c78.3096 0 142.54 -23.0801 201.23 -67.7705l-61.9199 -89.0801
c-37.3799 32.1602 -89.0801 50.7705 -141.38 50.7705c-68.1602 0 -116.23 -28.9199 -116.23 -87c0 -60.1504 55.46 -84.8506 132.53 -112.771c109.31 -39.54 204.699 -85.1504 204.699 -221.381c0 -131.31 -88.8496 -208.77 -243.31 -208.77z" />
    <glyph glyph-name="T" unicode="T" horiz-adv-x="601" 
d="M243.15 0l-0.00292969 578c0 11.3096 4.08008 15.8398 8.54004 21.0703l-9 8.76953c-5.23047 -4.45996 -12.54 -9.2998 -21.3799 -9.2998h-211.31v109.46h580.69v-109.46h-210.31c-8.83984 0 -16.1494 4.83984 -20.6094 9.2998l-9.76953 -8.76953
c5.23047 -5.23047 9.31055 -9.76074 9.31055 -21.0703v-578h-116.16z" />
    <glyph glyph-name="U" unicode="U" horiz-adv-x="742" 
d="M370.07 -13c-174.15 0 -292.461 110.23 -292.461 318v403h116.16v-359.46c0 -162.31 43.6904 -253.93 176.301 -253.93c133.62 0 178 91.6201 178 253.93v359.46h115.7v-403c0 -207.77 -118.54 -318 -293.7 -318z" />
    <glyph glyph-name="Uacute" unicode="&#xda;" horiz-adv-x="742" 
d="M283.77 741.15l-53.2295 92.6904l222.77 126.39l56 -100.46zM370.07 -12.999c-174.15 0 -292.461 110.23 -292.461 318v403h116.16v-359.46c0 -162.31 43.6904 -253.93 176.301 -253.93c133.62 0 178 91.6201 178 253.93v359.46h115.7v-403
c0 -207.77 -118.54 -318 -293.7 -318z" />
    <glyph glyph-name="Ucircumflex" unicode="&#xdb;" horiz-adv-x="742" 
d="M257.15 744.15l-64.54 66.8496l145.7 144.69h66l143.69 -144.69l-65.54 -66.8496l-112.69 105.08zM370.07 -13c-174.15 0 -292.461 110.23 -292.461 318v403h116.16v-359.46c0 -162.31 43.6904 -253.93 176.301 -253.93c133.62 0 178 91.6201 178 253.93v359.46h115.7
v-403c0 -207.77 -118.54 -318 -293.7 -318z" />
    <glyph glyph-name="Udieresis" unicode="&#xdc;" horiz-adv-x="742" 
d="M268.54 779.07c-41.9297 0 -74.3096 32.3896 -74.3096 74.3096c0 41.9297 32.3799 73.3096 74.3096 73.3096c41.9199 0 73.2998 -31.3799 73.2998 -73.3096c0 -41.9199 -31.3799 -74.3096 -73.2998 -74.3096zM472.07 779.07
c-41.9199 0 -74.2998 32.3896 -74.2998 74.3096c0 41.9297 32.3799 73.3096 74.2998 73.3096c41.9297 0 73.3096 -31.3799 73.3096 -73.3096c0 -41.9199 -31.3799 -74.3096 -73.3096 -74.3096zM370.07 -13c-174.15 0 -292.461 110.23 -292.461 318v403h116.16v-359.46
c0 -162.31 43.6904 -253.93 176.301 -253.93c133.62 0 178 91.6201 178 253.93v359.46h115.7v-403c0 -207.77 -118.54 -318 -293.7 -318z" />
    <glyph glyph-name="Ugrave" unicode="&#xd9;" horiz-adv-x="742" 
d="M455.84 741.15l-225.3 118.16l56 100.92l222.53 -126.16zM370.07 -12.999c-174.15 0 -292.461 110.23 -292.461 318v403h116.16v-359.46c0 -162.31 43.6904 -253.93 176.301 -253.93c133.62 0 178 91.6201 178 253.93v359.46h115.7v-403
c0 -207.77 -118.54 -318 -293.7 -318z" />
    <glyph glyph-name="V" unicode="V" horiz-adv-x="665" 
d="M272.69 0l-266.77 708h131l187.23 -529.69c5.76953 -17.3096 5.76953 -27.1592 5.76953 -35.9287h12.7695c0 8.76953 0.769531 18.6191 6.53906 35.9287l186.31 529.69h123.15l-265.229 -708h-120.77z" />
    <glyph glyph-name="W" unicode="W" horiz-adv-x="991" 
d="M229.69 0l-220.771 708h124.77l141.69 -500.54c5 -17.7695 6 -30.5391 6 -40.0791h12.7695c0 9.54004 1.54004 22.3096 6.54004 40.0791l142.69 500.54h107.16l146 -500.54c5 -17.7695 6.53027 -30.5391 6.53027 -40.0791h12.7695c0 9.54004 1 22.3096 6 40.0791
l140.7 500.54h119.69l-220 -708h-115.23l-138.77 472.92c-5.76953 17.7695 -6.76953 31.5391 -6.76953 41.999h-12.7695c0 -10.46 -0.769531 -24.2295 -5.76953 -41.999l-138 -472.92h-115.23z" />
    <glyph glyph-name="X" unicode="X" horiz-adv-x="621" 
d="M3.37988 0l238.541 362.54l-227 345.46h134.08l155.15 -238c5.30957 -7.30957 5.30957 -17.9297 5.30957 -24.6895h13.54c0 6.75977 0 18.3799 4.54004 25.6895l149 237h132l-229.54 -349.54l237.92 -358.46h-135.08l-164.61 248.23
c-5.54004 8.30957 -4.77051 18.9199 -4.77051 25.9199h-13.54c0 -7 0 -17.6104 -4.54004 -24.9199l-160 -249.23h-131z" />
    <glyph glyph-name="Y" unicode="Y" horiz-adv-x="635" 
d="M259.61 0l0.00195312 299.459l-251.15 408.54h134.08l166 -279.93c6 -9.75977 6.76953 -21.8398 6.76953 -27.6094h12.7598c0 5.76953 0.769531 17.8496 5.76953 27.3799l164.47 280.16h127.84l-250.38 -407.54v-300.46h-116.16z" />
    <glyph glyph-name="Yacute" unicode="&#xdd;" horiz-adv-x="635" 
d="M231.77 741.15l-53.2295 92.6904l222.77 126.39l56 -100.46zM259.61 0.000976562l0.00195312 299.459l-251.15 408.54h134.08l166 -279.93c6 -9.75977 6.76953 -21.8398 6.76953 -27.6094h12.7598c0 5.76953 0.769531 17.8496 5.76953 27.3799l164.47 280.16h127.84
l-250.38 -407.54v-300.46h-116.16z" />
    <glyph glyph-name="Ydieresis" unicode="&#x178;" horiz-adv-x="635" 
d="M216.54 779.07c-41.9297 0 -74.3096 32.3896 -74.3096 74.3096c0 41.9297 32.3799 73.3096 74.3096 73.3096c41.9199 0 73.2998 -31.3799 73.2998 -73.3096c0 -41.9199 -31.3799 -74.3096 -73.2998 -74.3096zM420.07 779.07
c-41.9199 0 -74.2998 32.3896 -74.2998 74.3096c0 41.9297 32.3799 73.3096 74.2998 73.3096c41.9297 0 73.3096 -31.3799 73.3096 -73.3096c0 -41.9199 -31.3799 -74.3096 -73.3096 -74.3096zM259.61 0l0.00195312 299.459l-251.15 408.54h134.08l166 -279.93
c6 -9.75977 6.76953 -21.8398 6.76953 -27.6094h12.7598c0 5.76953 0.769531 17.8496 5.76953 27.3799l164.47 280.16h127.84l-250.38 -407.54v-300.46h-116.16z" />
    <glyph glyph-name="Z" unicode="Z" horiz-adv-x="630" 
d="M37.7695 0v104.38l383.54 472.62c8.2998 10.0703 15.6094 10.3105 24.6094 10.3105v12.7598h-400.15v107.93h535.54v-105.39l-382.54 -471.84c-8.54004 -10.0801 -15.8496 -10.3105 -24.6191 -10.3105v-13.54h418.92v-106.92h-555.3z" />
    <glyph glyph-name="Zcaron" unicode="&#x17d;" horiz-adv-x="630" 
d="M277.69 746.31l-143.69 144.69l65.54 66.8398l111.15 -104.3l114.15 104.3l64.54 -66.8398l-145.69 -144.69h-66zM37.7695 0v104.38l383.54 472.62c8.2998 10.0703 15.6094 10.3105 24.6094 10.3105v12.7598h-400.15v107.93h535.54v-105.39l-382.54 -471.84
c-8.54004 -10.0801 -15.8496 -10.3105 -24.6191 -10.3105v-13.54h418.92v-106.92h-555.3z" />
    <glyph glyph-name="a" unicode="a" horiz-adv-x="604" 
d="M276.38 -11.3096c-134.77 0 -242.229 111.999 -241.459 248.309c0.769531 140.61 107.149 247.23 241.459 248.841c60.9297 0.700195 107.46 -17.0693 146.08 -52.999l10 9.54004c-7.45996 7.16016 -11 15.1602 -11 24.8506v7.76953h116.77v-475h-117.54v5.76953
c0 14 4.54004 18.9199 11.7705 26.3799l-10 9.54004c-38.6201 -34.3799 -85.1504 -53 -146.08 -53zM289.541 95.2295c80.0703 0 135.611 60.7715 135.611 141.771c0 80.54 -55.54 142.31 -135.61 142.31c-80.2305 0 -136.311 -63.2402 -136.311 -142.311
c0 -80.2305 56.54 -141.771 136.31 -141.771z" />
    <glyph glyph-name="aacute" unicode="&#xe1;" horiz-adv-x="604" 
d="M213.46 525.84l-53.2295 92.7002l222.77 126.38l56 -100.46zM276.381 -11.3096c-134.77 0 -242.229 111.999 -241.459 248.309c0.769531 140.61 107.149 247.23 241.459 248.841c60.9297 0.700195 107.46 -17.0693 146.08 -52.999l10 9.54004
c-7.45996 7.16016 -11 15.1602 -11 24.8506v7.76953h116.77v-475h-117.54v5.76953c0 14 4.54004 18.9199 11.7705 26.3799l-10 9.54004c-38.6201 -34.3799 -85.1504 -53 -146.08 -53zM289.542 95.2295c80.0703 0 135.611 60.7715 135.611 141.771
c0 80.54 -55.54 142.31 -135.61 142.31c-80.2305 0 -136.311 -63.2402 -136.311 -142.311c0 -80.2305 56.54 -141.771 136.31 -141.771z" />
    <glyph glyph-name="acircumflex" unicode="&#xe2;" horiz-adv-x="604" 
d="M186.84 528.84l-64.5303 66.8496l145.69 144.69h66l143.69 -144.69l-65.54 -66.8496l-112.69 105.08zM276.38 -11.3105c-134.77 0 -242.229 111.999 -241.459 248.309c0.769531 140.61 107.149 247.23 241.459 248.841c60.9297 0.700195 107.46 -17.0693 146.08 -52.999
l10 9.54004c-7.45996 7.16016 -11 15.1602 -11 24.8506v7.76953h116.77v-475h-117.54v5.76953c0 14 4.54004 18.9199 11.7705 26.3799l-10 9.54004c-38.6201 -34.3799 -85.1504 -53 -146.08 -53zM289.541 95.2285c80.0703 0 135.611 60.7715 135.611 141.771
c0 80.54 -55.54 142.31 -135.61 142.31c-80.2305 0 -136.311 -63.2402 -136.311 -142.311c0 -80.2305 56.54 -141.771 136.31 -141.771z" />
    <glyph glyph-name="adieresis" unicode="&#xe4;" horiz-adv-x="604" 
d="M198.23 563.77c-41.9199 0 -74.3096 32.3799 -74.3096 74.2998c0 41.9297 32.3896 73.3096 74.3096 73.3096s73.3096 -31.3799 73.3096 -73.3096c0 -41.9199 -31.3896 -74.2998 -73.3096 -74.2998zM401.771 563.77c-41.9297 0 -74.3096 32.3799 -74.3096 74.2998
c0 41.9297 32.3799 73.3096 74.3096 73.3096c41.9199 0 73.2998 -31.3799 73.2998 -73.3096c0 -41.9199 -31.3799 -74.2998 -73.2998 -74.2998zM276.381 -11.3105c-134.77 0 -242.229 111.999 -241.459 248.309c0.769531 140.61 107.149 247.23 241.459 248.841
c60.9297 0.700195 107.46 -17.0693 146.08 -52.999l10 9.54004c-7.45996 7.16016 -11 15.1602 -11 24.8506v7.76953h116.77v-475h-117.54v5.76953c0 14 4.54004 18.9199 11.7705 26.3799l-10 9.54004c-38.6201 -34.3799 -85.1504 -53 -146.08 -53zM289.542 95.2285
c80.0703 0 135.611 60.7715 135.611 141.771c0 80.54 -55.54 142.31 -135.61 142.31c-80.2305 0 -136.311 -63.2402 -136.311 -142.311c0 -80.2305 56.54 -141.771 136.31 -141.771z" />
    <glyph glyph-name="agrave" unicode="&#xe0;" horiz-adv-x="604" 
d="M385.54 525.84l-225.31 118.16l56 100.92l222.54 -126.15zM276.381 -11.3096c-134.77 0 -242.229 111.999 -241.459 248.309c0.769531 140.61 107.149 247.23 241.459 248.841c60.9297 0.700195 107.46 -17.0693 146.08 -52.999l10 9.54004
c-7.45996 7.16016 -11 15.1602 -11 24.8506v7.76953h116.77v-475h-117.54v5.76953c0 14 4.54004 18.9199 11.7705 26.3799l-10 9.54004c-38.6201 -34.3799 -85.1504 -53 -146.08 -53zM289.542 95.2295c80.0703 0 135.611 60.7715 135.611 141.771
c0 80.54 -55.54 142.31 -135.61 142.31c-80.2305 0 -136.311 -63.2402 -136.311 -142.311c0 -80.2305 56.54 -141.771 136.31 -141.771z" />
    <glyph glyph-name="aring" unicode="&#xe5;" horiz-adv-x="604" 
d="M299 526.92c-59.54 0 -109.85 50.3096 -109.85 109.85c0 59.2998 49.3096 110.84 109.85 110.84c61.3096 0 110.84 -49.54 110.84 -110.84c0 -60.54 -50.5303 -109.85 -110.84 -109.85zM299 597.15c21.6904 0 40.3809 16.6904 40.3809 39.6201
c0 22.6904 -17.6904 40.3809 -40.3809 40.3809c-21.9297 0 -39.6201 -18.6904 -39.6201 -40.3809c0 -21.9297 17.6904 -39.6201 39.6201 -39.6201zM276.38 -11.3096c-134.77 0 -242.229 111.999 -241.459 248.309c0.769531 140.61 107.149 247.23 241.459 248.841
c60.9297 0.700195 107.46 -17.0693 146.08 -52.999l10 9.54004c-7.45996 7.16016 -11 15.1602 -11 24.8506v7.76953h116.77v-475h-117.54v5.76953c0 14 4.54004 18.9199 11.7705 26.3799l-10 9.54004c-38.6201 -34.3799 -85.1504 -53 -146.08 -53zM289.541 95.2295
c80.0703 0 135.611 60.7715 135.611 141.771c0 80.54 -55.54 142.31 -135.61 142.31c-80.2305 0 -136.311 -63.2402 -136.311 -142.311c0 -80.2305 56.54 -141.771 136.31 -141.771z" />
    <glyph glyph-name="atilde" unicode="&#xe3;" horiz-adv-x="604" 
d="M376.31 551c-55 0 -99 41 -143 41c-25 0 -46 -13 -64 -30l-49.8496 84.6904c29 27 67 48 107 48c57 0 97 -41 141 -41c23 0 47 12 68 33l44.8496 -82.6904c-30 -33 -66 -53 -104 -53zM276.38 -11.3096c-134.77 0 -242.229 111.999 -241.459 248.309
c0.769531 140.61 107.149 247.23 241.459 248.841c60.9297 0.700195 107.46 -17.0693 146.08 -52.999l10 9.54004c-7.45996 7.16016 -11 15.1602 -11 24.8506v7.76953h116.77v-475h-117.54v5.76953c0 14 4.54004 18.9199 11.7705 26.3799l-10 9.54004
c-38.6201 -34.3799 -85.1504 -53 -146.08 -53zM289.541 95.2295c80.0703 0 135.611 60.7715 135.611 141.771c0 80.54 -55.54 142.31 -135.61 142.31c-80.2305 0 -136.311 -63.2402 -136.311 -142.311c0 -80.2305 56.54 -141.771 136.31 -141.771z" />
    <glyph glyph-name="ae" unicode="&#xe6;" horiz-adv-x="921" 
d="M668.54 485.77c136.38 0 225.151 -107.539 225.151 -249.539c0 -13 -1 -26.0801 -2.76953 -37.6201h-327c-10.8496 0 -15.9199 4.08008 -18.3799 8.31055l-9.76953 -11.0801c3.69043 -3.69043 8.77051 -9 9.77051 -12.46
c17.3799 -56.2305 56.6895 -90.4609 127.229 -90.4609c42.7695 0 77.6094 13.7695 111.459 54.7695l74.9199 -67.3799c-45.54 -58.9297 -112.08 -91.54 -189.69 -91.54c-49.9199 0 -94.54 15.46 -133 52.9199l-10 -9.54004
c7.23047 -7.45996 11.7705 -12.3799 11.7705 -26.3799v-5.76953h-117.54v5.76953c0 14 4.54004 18.9199 11.7705 26.3799l-10 9.54004c-41.1504 -36 -84.6904 -53 -143.311 -53c-135.69 0 -245 110.85 -244.23 248.31c0.769531 141.31 108.539 247.229 244.229 248.84
c59.0801 0.700195 104.46 -16.6094 143.31 -52.5293l10 9.53027c-7.45996 7.16016 -11 15.1602 -11 24.8506v7.30957h116.77v-7.30957c0 -9.69043 -3.54004 -17.6904 -11 -24.8506l10 -9.53027c31.46 31.7598 82.6104 52.46 131.311 52.46zM548.382 277.54
c4.76953 4.76953 8.54004 7.83984 19.0801 7.83984h184.23c10.54 0 14.3096 -3.07031 19.8496 -7.83984l9.76953 9.53027c-7 6.24023 -10.1602 10.1602 -12.3906 17.1602c-14.8496 46.6104 -57.2295 78.1504 -107.85 78.1504c-50.3799 0 -88.0703 -29.6104 -109.07 -78.1504
c-3 -7 -6.38965 -10.9199 -14.1592 -17.1602zM289.543 95.2305c81 0 136.3 60.7705 136.3 141.771c0 80.54 -55.2998 142.31 -136.3 142.31c-80.2305 0 -136.311 -62.54 -136.311 -142.31c0 -80.2305 55.6104 -141.771 136.311 -141.771z" />
    <glyph glyph-name="b" unicode="b" horiz-adv-x="604" 
d="M325.38 -11.3096c-58.6104 -0.69043 -102.382 15 -144.231 53l-10 -9.54004c7.23047 -6.69043 11 -14.6904 11 -24.8408v-7.30957h-116.77v708h117.54v-238.77c0 -13.54 -4.30957 -18.46 -11.7695 -26.3896l10 -9.53027c39.7695 35.2998 85.6191 52.5303 144.229 52.5303
c135.85 0 244.08 -110.07 243.311 -248.07c-0.769531 -142.08 -107.46 -247.39 -243.31 -249.08zM314.068 95.2305c80.2402 0 136.31 62.54 136.31 142.54c0 79.54 -56.3096 141.54 -136.31 141.54c-79.3799 0 -135.61 -60.0801 -135.61 -141.54
c0 -81.2305 56.2305 -142.54 135.61 -142.54z" />
    <glyph glyph-name="c" unicode="c" horiz-adv-x="527" 
d="M282.54 -11.2305c-138.39 0 -247.849 107.998 -247.849 247.229c0 144.61 109.46 249.771 252.31 249.771c101 0 170 -42.9297 214.92 -120.31l-97 -57.54c-23.9199 45.1504 -63.6895 71.3906 -119.459 71.3906c-73.46 0 -132.46 -61.0801 -132.46 -143.54
c0 -78.3096 57.8398 -140.54 131.689 -140.54c57.46 0 97 29.2305 120.92 72.1504l96.7695 -58.54c-45.6104 -75.3799 -114.61 -120.07 -219.841 -120.07z" />
    <glyph glyph-name="ccedilla" unicode="&#xe7;" horiz-adv-x="527" 
d="M502.38 108.84c-41.54 -68.6396 -102.458 -111.841 -192.478 -119.011l-5.12988 -20.9902h5.91992c56.54 0 106.31 -28.2305 106.31 -100.841c0 -54.46 -38.6201 -106.77 -119.311 -106.77c-61.6904 0 -114 25.46 -117.85 101.77h72.3896
c2.76953 -23.8496 21.6895 -36.9297 42.6094 -36.9297c24 0 41.4697 16.0801 41.4697 39.7002c0 27.46 -17.4697 41.2295 -45.3896 41.2295h-66l21.8096 84.2197c-121 16.7998 -212.04 117.8 -212.04 244.78c0 144.61 109.46 249.771 252.31 249.771
c101 0 170 -42.9297 214.92 -120.31l-97 -57.54c-23.9199 45.1504 -63.6895 71.3906 -119.459 71.3906c-73.46 0 -132.46 -61.0801 -132.46 -143.54c0 -78.3096 57.8398 -140.54 131.689 -140.54c57.46 0 97 29.2305 120.92 72.1504z" />
    <glyph glyph-name="d" unicode="d" horiz-adv-x="604" 
d="M276.38 -11.3096c-134.77 0 -242.229 111.999 -241.459 248.309c0.769531 140.61 107.149 247.23 241.459 248.841c60.9297 0.700195 107.46 -17.0693 146.08 -52.999l10 9.54004c-7.45996 7.16016 -11 15.1602 -11 24.8506v240.77h116.77v-708h-117.54v5.76953
c0 14 4.54004 18.9199 11.7705 26.3799l-10 9.54004c-38.6201 -34.3799 -85.1504 -53 -146.08 -53zM289.541 95.2295c80.0703 0 135.611 60.7715 135.611 141.771c0 80.54 -55.54 142.31 -135.61 142.31c-80.2305 0 -136.311 -63.2402 -136.311 -142.311
c0 -80.2305 56.54 -141.771 136.31 -141.771z" />
    <glyph glyph-name="eth" unicode="&#xf0;" horiz-adv-x="583" 
d="M344.96 662.31c135.59 -92.0303 195.41 -257.363 195.73 -396.623v-8c-0.769531 -196.62 -140.079 -268.92 -253.379 -268.92c-147.08 0 -252.62 107 -252.62 246.46c0 143.54 104.31 249 250.85 249c44.0703 0 89.1504 -17.0801 110.92 -45.9199l10 9.07031
c-26.1299 58.7803 -69.4102 110.181 -126.271 146.28l-65.7305 -69.6602l-56.2305 49.6104l51.1396 54.25c-28.4102 9.91016 -59.0303 16.4902 -91.6006 19.1406l12.9199 85.2305c54.5596 -3.25977 103.13 -14.8799 146.03 -32.9199l63.8203 67.6904l55.2305 -50.8496z
M289.07 94.457c77.3896 0 135.849 62.3799 135.849 141.54c0 84.3799 -59.46 143.31 -135.85 143.31c-77.46 0 -136.84 -57.3896 -136.84 -143.31c0 -84.1602 60.6104 -141.54 136.841 -141.54z" />
    <glyph glyph-name="e" unicode="e" horiz-adv-x="532" 
d="M284.46 -11.2305c-149.08 0 -249.541 103.84 -249.541 245.689c0 141.15 105.08 251.311 241 251.311c139.85 0 228.39 -106.62 228.39 -249.54c0 -13 -1 -26.0801 -2.76953 -37.6201h-322.39c-10.8398 0 -15.9199 4.08008 -18.3799 8.31055l-9.76953 -11.0801
c3.69043 -3.69043 8.77051 -9 9.77051 -12.46c18.9199 -55.46 55.0703 -90.46 126.771 -90.46c41.3799 0 74.3799 13.7695 107.3 54.7695l74.9297 -67.3799c-44.6201 -58.9297 -109.311 -91.54 -185.311 -91.54zM163.609 277.539
c4.76953 4.76953 8.54102 7.83887 19.0811 7.83887h179.62c10.5303 0 14.2998 -3.07031 19.8398 -7.83984l9.76953 9.53027c-7 6.24023 -10.1504 10.1602 -12.1504 17.1602c-14.2305 46.6104 -55.8506 78.1504 -105.081 78.1504
c-49.46 0 -90.6904 -28.8398 -107.46 -78.1494c-2.76953 -7 -6.38965 -10.9199 -14.1592 -17.1602z" />
    <glyph glyph-name="eacute" unicode="&#xe9;" horiz-adv-x="532" 
d="M192.15 525.84l-53.2295 92.7002l222.77 126.38l56 -100.46zM284.461 -11.2305c-149.08 0 -249.541 103.84 -249.541 245.689c0 141.15 105.08 251.311 241 251.311c139.85 0 228.39 -106.62 228.39 -249.54c0 -13 -1 -26.0801 -2.76953 -37.6201h-322.39
c-10.8398 0 -15.9199 4.08008 -18.3799 8.31055l-9.76953 -11.0801c3.69043 -3.69043 8.77051 -9 9.77051 -12.46c18.9199 -55.46 55.0703 -90.46 126.771 -90.46c41.3799 0 74.3799 13.7695 107.3 54.7695l74.9297 -67.3799
c-44.6201 -58.9297 -109.311 -91.54 -185.311 -91.54zM163.61 277.539c4.76953 4.76953 8.54102 7.83887 19.0811 7.83887h179.62c10.5303 0 14.2998 -3.07031 19.8398 -7.83984l9.76953 9.53027c-7 6.24023 -10.1504 10.1602 -12.1504 17.1602
c-14.2305 46.6104 -55.8506 78.1504 -105.081 78.1504c-49.46 0 -90.6904 -28.8398 -107.46 -78.1494c-2.76953 -7 -6.38965 -10.9199 -14.1592 -17.1602z" />
    <glyph glyph-name="ecircumflex" unicode="&#xea;" horiz-adv-x="532" 
d="M165.54 528.84l-64.54 66.8496l145.69 144.69h66l143.69 -144.69l-65.54 -66.8496l-112.69 105.08zM284.46 -11.2305c-149.08 0 -249.541 103.84 -249.541 245.689c0 141.15 105.08 251.311 241 251.311c139.85 0 228.39 -106.62 228.39 -249.54
c0 -13 -1 -26.0801 -2.76953 -37.6201h-322.39c-10.8398 0 -15.9199 4.08008 -18.3799 8.31055l-9.76953 -11.0801c3.69043 -3.69043 8.77051 -9 9.77051 -12.46c18.9199 -55.46 55.0703 -90.46 126.771 -90.46c41.3799 0 74.3799 13.7695 107.3 54.7695l74.9297 -67.3799
c-44.6201 -58.9297 -109.311 -91.54 -185.311 -91.54zM163.609 277.539c4.76953 4.76953 8.54102 7.83887 19.0811 7.83887h179.62c10.5303 0 14.2998 -3.07031 19.8398 -7.83984l9.76953 9.53027c-7 6.24023 -10.1504 10.1602 -12.1504 17.1602
c-14.2305 46.6104 -55.8506 78.1504 -105.081 78.1504c-49.46 0 -90.6904 -28.8398 -107.46 -78.1494c-2.76953 -7 -6.38965 -10.9199 -14.1592 -17.1602z" />
    <glyph glyph-name="edieresis" unicode="&#xeb;" horiz-adv-x="532" 
d="M176.92 563.77c-41.9199 0 -74.3096 32.3799 -74.3096 74.2998c0 41.9297 32.3896 73.3096 74.3096 73.3096s73.3096 -31.3799 73.3096 -73.3096c0 -41.9199 -31.3896 -74.2998 -73.3096 -74.2998zM380.46 563.77c-41.9199 0 -74.3096 32.3799 -74.3096 74.2998
c0 41.9297 32.3896 73.3096 74.3096 73.3096s73.3096 -31.3799 73.3096 -73.3096c0 -41.9199 -31.3896 -74.2998 -73.3096 -74.2998zM284.46 -11.2305c-149.08 0 -249.541 103.84 -249.541 245.689c0 141.15 105.08 251.311 241 251.311
c139.85 0 228.39 -106.62 228.39 -249.54c0 -13 -1 -26.0801 -2.76953 -37.6201h-322.39c-10.8398 0 -15.9199 4.08008 -18.3799 8.31055l-9.76953 -11.0801c3.69043 -3.69043 8.77051 -9 9.77051 -12.46c18.9199 -55.46 55.0703 -90.46 126.771 -90.46
c41.3799 0 74.3799 13.7695 107.3 54.7695l74.9297 -67.3799c-44.6201 -58.9297 -109.311 -91.54 -185.311 -91.54zM163.609 277.539c4.76953 4.76953 8.54102 7.83887 19.0811 7.83887h179.62c10.5303 0 14.2998 -3.07031 19.8398 -7.83984l9.76953 9.53027
c-7 6.24023 -10.1504 10.1602 -12.1504 17.1602c-14.2305 46.6104 -55.8506 78.1504 -105.081 78.1504c-49.46 0 -90.6904 -28.8398 -107.46 -78.1494c-2.76953 -7 -6.38965 -10.9199 -14.1592 -17.1602z" />
    <glyph glyph-name="egrave" unicode="&#xe8;" horiz-adv-x="532" 
d="M364.23 525.84l-225.31 118.16l56 100.92l222.54 -126.15zM284.461 -11.2305c-149.08 0 -249.541 103.84 -249.541 245.689c0 141.15 105.08 251.311 241 251.311c139.85 0 228.39 -106.62 228.39 -249.54c0 -13 -1 -26.0801 -2.76953 -37.6201h-322.39
c-10.8398 0 -15.9199 4.08008 -18.3799 8.31055l-9.76953 -11.0801c3.69043 -3.69043 8.77051 -9 9.77051 -12.46c18.9199 -55.46 55.0703 -90.46 126.771 -90.46c41.3799 0 74.3799 13.7695 107.3 54.7695l74.9297 -67.3799
c-44.6201 -58.9297 -109.311 -91.54 -185.311 -91.54zM163.61 277.539c4.76953 4.76953 8.54102 7.83887 19.0811 7.83887h179.62c10.5303 0 14.2998 -3.07031 19.8398 -7.83984l9.76953 9.53027c-7 6.24023 -10.1504 10.1602 -12.1504 17.1602
c-14.2305 46.6104 -55.8506 78.1504 -105.081 78.1504c-49.46 0 -90.6904 -28.8398 -107.46 -78.1494c-2.76953 -7 -6.38965 -10.9199 -14.1592 -17.1602z" />
    <glyph glyph-name="f" unicode="f" horiz-adv-x="345" 
d="M103.38 0l0.000976562 344.61c0 9.76953 3.30957 14.3096 9.30957 20.3096l-9.76953 9.54004c-6.76953 -6.76953 -12.5391 -10.0791 -19.8486 -10.0791h-52.9199v110.62h52.9199c7.30957 0 13.0791 -3.30957 19.8486 -10.0791l9.76953 9.54004
c-6 6 -9.30957 10.54 -9.30957 20.3096v24.46c0 102 64.7695 194.54 186.85 194.54c17.3096 0 31.54 -0.769531 47.54 -4.30957v-107.92h-2.45996c-3.7002 0 -13.9307 1.76953 -30.1611 1.76953c-59.1504 0 -85 -37.54 -85 -86.1602v-22.3799
c0 -9.76953 -3.30957 -14.3096 -9.30957 -20.3096l9.76953 -9.54004c6.76953 6.76953 12.5391 10.0791 19.8486 10.0791h87.54v-110.62h-87.54c-7.30957 0 -13.0791 3.30957 -19.8486 10.0791l-9.76953 -9.54004c6 -6 9.30957 -10.54 9.30957 -20.3096v-344.61h-116.77z" />
    <glyph glyph-name="g" unicode="g" horiz-adv-x="604" 
d="M275.92 -242.77l-0.227539 111.538c86.54 0 145 33.54 145 126.15v10.1504c0 14.7002 4.30957 19.3906 11.7695 27.0811l-10 9.54004c-41.1504 -36 -84.6904 -53 -143.08 -53c-136.84 0 -245.229 110.85 -244.46 248.31c0.769531 141.31 107.619 247.229 244.689 248.84
c58.8496 0.700195 104 -16.6094 142.85 -52.5293l10 9.53027c-7.45996 7.16016 -11 15.1602 -11 24.8506v7.30957h116.77v-455.54c0 -181.23 -103.69 -262.23 -262.311 -262.23zM290.002 95.2285c79.8398 0 135.841 60.5391 135.841 141.77
c0 81.46 -56 142.31 -136.07 142.31c-81.3896 0 -136.54 -63.4697 -136.54 -142.31c0 -80 55.3799 -141.77 136.77 -141.77z" />
    <glyph glyph-name="h" unicode="h" horiz-adv-x="564" 
d="M65.3799 0l0.000976562 708.002h116.77v-239.08c0 -12.2305 -4.30957 -18.1504 -11.7695 -25.3105l10 -9.54004c28.3096 24.3096 65 50.1592 129.77 50.1592c106.08 0 194.46 -62.1602 194.46 -211.391v-272.84h-116.77v252.84
c0 85.4697 -46.2305 119.85 -102.381 119.85c-56.6201 0 -103.311 -34.54 -103.311 -119.92v-252.77h-116.77z" />
    <glyph glyph-name="i" unicode="i" horiz-adv-x="248" 
d="M124.15 576.77c-41.9199 0 -74.3096 32.3799 -74.3096 74.2998c0 41.9297 32.3896 73.3096 74.3096 73.3096s73.3096 -31.3799 73.3096 -73.3096c0 -41.9199 -31.3896 -74.2998 -73.3096 -74.2998zM182.15 -0h-116.77v475h116.77v-475z" />
    <glyph glyph-name="dotlessi" unicode="&#x131;" horiz-adv-x="248" 
d="M182.15 0h-116.77v475h116.77v-475z" />
    <glyph glyph-name="iacute" unicode="&#xed;" horiz-adv-x="248" 
d="M37.6104 525.84l-53.2295 92.7002l222.77 126.38l56 -100.46zM182.15 0h-116.77v475h116.77v-475z" />
    <glyph glyph-name="icircumflex" unicode="&#xee;" horiz-adv-x="248" 
d="M11 528.84l-64.54 66.8496l145.69 144.69h66l143.69 -144.69l-65.5303 -66.8496l-112.7 105.08zM182.15 -0.000976562h-116.77v475h116.77v-475z" />
    <glyph glyph-name="idieresis" unicode="&#xef;" horiz-adv-x="248" 
d="M22.3799 563.77c-41.9199 0 -74.3096 32.3799 -74.3096 74.2998c0 41.9297 32.3896 73.3096 74.3096 73.3096c41.9297 0 73.3096 -31.3799 73.3096 -73.3096c0 -41.9199 -31.3799 -74.2998 -73.3096 -74.2998zM225.92 563.77
c-41.9199 0 -74.3096 32.3799 -74.3096 74.2998c0 41.9297 32.3896 73.3096 74.3096 73.3096s73.3096 -31.3799 73.3096 -73.3096c0 -41.9199 -31.3896 -74.2998 -73.3096 -74.2998zM182.15 -0h-116.77v475h116.77v-475z" />
    <glyph glyph-name="igrave" unicode="&#xec;" horiz-adv-x="248" 
d="M209.69 525.84l-225.31 118.16l56 100.92l222.54 -126.15zM182.15 0h-116.77v475h116.77v-475z" />
    <glyph glyph-name="j" unicode="j" horiz-adv-x="256" 
d="M132.61 576.77c-41.9199 0 -74.2998 32.3799 -74.2998 74.2998c0 41.9297 32.3799 73.3096 74.2998 73.3096c41.9297 0 73.3096 -31.3799 73.3096 -73.3096c0 -41.9199 -31.3799 -74.2998 -73.3096 -74.2998zM-18.46 -242.771l0.000976562 110.92
c59.7695 0 91.8398 24.6201 91.8398 114.62v492.229h116.77v-506.93c0 -154.38 -72.6104 -214.689 -208.61 -210.84z" />
    <glyph glyph-name="uni0237" unicode="&#x237;" horiz-adv-x="256" 
d="M-18.46 -242.77l0.000976562 110.919c59.7695 0 91.8398 24.6201 91.8398 114.62v492.23h116.77v-506.93c0 -154.38 -72.6104 -214.689 -208.61 -210.84z" />
    <glyph glyph-name="k" unicode="k" horiz-adv-x="511" 
d="M65.3799 0v708.001h116.77v-421.31h13.54c0 9.30957 6.76953 23.7695 15.8496 33.6191l144 154.69h146.84l-193.07 -202c-7.54004 -7.54004 -14.54 -8.45996 -22.7705 -8.45996v-13.54c8.23047 0 16.2305 -0.69043 22.6904 -8.16016l214.54 -242.84h-151.31
l-164.15 185.15c-9.84961 10.8496 -12.6191 22.7695 -12.6191 31.0791h-13.54v-216.23h-116.77z" />
    <glyph glyph-name="l" unicode="l" horiz-adv-x="248" 
d="M65.3799 0v708h116.77v-708h-116.77z" />
    <glyph glyph-name="ldot" unicode="&#x140;" horiz-adv-x="381" 
d="M65.3799 0v708h116.77v-708h-116.77zM316.63 254.52c-41.9199 0 -74.3096 32.3799 -74.3096 74.3096c0 41.9199 32.3896 73.2998 74.3096 73.2998s73.3096 -31.3799 73.3096 -73.2998c0 -41.9297 -31.3896 -74.3096 -73.3096 -74.3096z" />
    <glyph glyph-name="lslash" unicode="&#x142;" horiz-adv-x="324" 
d="M286.61 508.38v-115.229l-67.6904 -48.7402v-344.41h-116.77v260.34l-66.9199 -48.1904v115.23l66.9199 48.1904v332.43h116.77v-248.36z" />
    <glyph glyph-name="m" unicode="m" horiz-adv-x="860" 
d="M65.3799 0l-0.00195312 475h116.77v-6.08008c0 -14.0801 -5.45996 -19.54 -11.7695 -25.3096l10 -9.54004c32.2305 28.2402 64.54 50.9307 128 50.9307c60.6201 0 116.311 -23.3896 147.931 -74.7695c43.46 58 103.84 74.7695 156.07 74.7695
c104.08 0 187.771 -66.3096 187.771 -212.46v-272.54h-116.77v256.69c0 84.46 -42.54 116 -96 116c-52.6904 0 -96.2305 -36.1504 -96.2305 -113.69v-259h-116.77v257.46c0 84.46 -42.54 115.229 -96 115.229c-52.6904 0 -96.2305 -36.1504 -96.2305 -113.69v-259h-116.77z
" />
    <glyph glyph-name="n" unicode="n" horiz-adv-x="568" 
d="M65.3799 0l0.000976562 474.999h116.77v-5.16016c0 -12.9199 -4.08008 -18.8398 -11.7705 -26.2295l10 -9.54004c28.7695 25.3096 63.8496 51.6992 131.229 51.6992c107.62 0 196.54 -62.9297 196.54 -212.699v-273.07h-116.77v253.07
c0 85.2402 -46.6904 119.62 -104.15 119.62c-56.3896 0 -105.08 -34.54 -105.08 -119.92v-252.77h-116.77z" />
    <glyph glyph-name="ntilde" unicode="&#xf1;" horiz-adv-x="568" 
d="M356.31 551c-55 0 -99 41 -143 41c-25 0 -46 -13 -64 -30l-49.8496 84.6904c29 27 67 48 107 48c57 0 97 -41 141 -41c23 0 47 12 68 33l44.8496 -82.6904c-30 -33 -66 -53 -104 -53zM65.3799 0l0.000976562 474.999h116.77v-5.16016
c0 -12.9199 -4.08008 -18.8398 -11.7705 -26.2295l10 -9.54004c28.7695 25.3096 63.8496 51.6992 131.229 51.6992c107.62 0 196.54 -62.9297 196.54 -212.699v-273.07h-116.77v253.07c0 85.2402 -46.6904 119.62 -104.15 119.62c-56.3896 0 -105.08 -34.54 -105.08 -119.92
v-252.77h-116.77z" />
    <glyph glyph-name="o" unicode="o" horiz-adv-x="578" 
d="M289.31 -11.2305c-146.85 0 -254.619 111.23 -254.619 249.23c0 136.77 107.77 247.77 254.619 247.77c147.92 0 253.92 -111 253.92 -247.77c0 -138 -106.77 -249.23 -253.92 -249.23zM289.31 95.2295c78.7598 0 135.609 61.2305 135.609 142.771
c0 80.0703 -56.8496 141.311 -135.609 141.311c-78.4697 0 -136.31 -61.2402 -136.31 -141.311c0 -81.54 57.8398 -142.771 136.31 -142.771z" />
    <glyph glyph-name="oacute" unicode="&#xf3;" horiz-adv-x="578" 
d="M202.54 525.84l-53.2295 92.7002l222.76 126.38l56 -100.46zM289.311 -11.2305c-146.85 0 -254.619 111.23 -254.619 249.23c0 136.77 107.77 247.77 254.619 247.77c147.92 0 253.92 -111 253.92 -247.77c0 -138 -106.77 -249.23 -253.92 -249.23zM289.311 95.2295
c78.7598 0 135.609 61.2305 135.609 142.771c0 80.0703 -56.8496 141.311 -135.609 141.311c-78.4697 0 -136.31 -61.2402 -136.31 -141.311c0 -81.54 57.8398 -142.771 136.31 -142.771z" />
    <glyph glyph-name="ocircumflex" unicode="&#xf4;" horiz-adv-x="578" 
d="M175.92 528.84l-64.54 66.8496l145.69 144.69h66l143.7 -144.69l-65.54 -66.8496l-112.69 105.08zM289.31 -11.2305c-146.85 0 -254.619 111.23 -254.619 249.23c0 136.77 107.77 247.77 254.619 247.77c147.92 0 253.92 -111 253.92 -247.77
c0 -138 -106.77 -249.23 -253.92 -249.23zM289.31 95.2295c78.7598 0 135.609 61.2305 135.609 142.771c0 80.0703 -56.8496 141.311 -135.609 141.311c-78.4697 0 -136.31 -61.2402 -136.31 -141.311c0 -81.54 57.8398 -142.771 136.31 -142.771z" />
    <glyph glyph-name="odieresis" unicode="&#xf6;" horiz-adv-x="578" 
d="M187.31 563.77c-41.9297 0 -74.3096 32.3799 -74.3096 74.2998c0 41.9297 32.3799 73.3096 74.3096 73.3096c41.9199 0 73.2998 -31.3799 73.2998 -73.3096c0 -41.9199 -31.3799 -74.2998 -73.2998 -74.2998zM390.84 563.77
c-41.9199 0 -74.2998 32.3799 -74.2998 74.2998c0 41.9297 32.3799 73.3096 74.2998 73.3096c41.9297 0 73.3096 -31.3799 73.3096 -73.3096c0 -41.9199 -31.3799 -74.2998 -73.3096 -74.2998zM289.31 -11.2305c-146.85 0 -254.619 111.23 -254.619 249.23
c0 136.77 107.77 247.77 254.619 247.77c147.92 0 253.92 -111 253.92 -247.77c0 -138 -106.77 -249.23 -253.92 -249.23zM289.31 95.2295c78.7598 0 135.609 61.2305 135.609 142.771c0 80.0703 -56.8496 141.311 -135.609 141.311
c-78.4697 0 -136.31 -61.2402 -136.31 -141.311c0 -81.54 57.8398 -142.771 136.31 -142.771z" />
    <glyph glyph-name="ograve" unicode="&#xf2;" horiz-adv-x="578" 
d="M374.61 525.84l-225.3 118.16l56 100.92l222.53 -126.15zM289.311 -11.2305c-146.85 0 -254.619 111.23 -254.619 249.23c0 136.77 107.77 247.77 254.619 247.77c147.92 0 253.92 -111 253.92 -247.77c0 -138 -106.77 -249.23 -253.92 -249.23zM289.311 95.2295
c78.7598 0 135.609 61.2305 135.609 142.771c0 80.0703 -56.8496 141.311 -135.609 141.311c-78.4697 0 -136.31 -61.2402 -136.31 -141.311c0 -81.54 57.8398 -142.771 136.31 -142.771z" />
    <glyph glyph-name="oslash" unicode="&#xf8;" horiz-adv-x="578" 
d="M422.95 450.73c74.0303 -43.29 120.282 -122.39 120.282 -212.729c0 -138 -106.77 -249.23 -253.92 -249.23c-21.7695 0 -42.6699 2.44043 -62.5 7.05078l-33.3496 -77.3604l-72.7695 28.0801l33.5996 78.3604c-73.2803 43.6602 -119.601 122.63 -119.601 213.1
c0 136.77 107.77 247.77 254.619 247.77c20.8496 0 40.8594 -2.20996 59.8691 -6.37988l33.5098 78.1504l73.7695 -29.0801zM153.002 238c0 -44.6602 17.3506 -83.2305 45.9404 -108.98l106.93 249.36c-5.40039 0.610352 -10.9307 0.930664 -16.5605 0.930664
c-78.4697 0 -136.31 -61.2402 -136.31 -141.311zM289.312 95.2305c78.7598 0 135.61 61.2305 135.61 142.771c0 44.54 -17.5898 83.2598 -46.7598 108.84l-107.95 -250.37c6.20996 -0.820312 12.5801 -1.24023 19.0996 -1.24023z" />
    <glyph glyph-name="otilde" unicode="&#xf5;" horiz-adv-x="578" 
d="M365.38 551c-55 0 -99 41 -143 41c-25 0 -46 -13 -64 -30l-49.8398 84.6904c29 27 67 48 107 48c57 0 97 -41 141 -41c23 0 47 12 68 33l44.8398 -82.6904c-30 -33 -66 -53 -104 -53zM289.31 -11.2305c-146.85 0 -254.619 111.23 -254.619 249.23
c0 136.77 107.77 247.77 254.619 247.77c147.92 0 253.92 -111 253.92 -247.77c0 -138 -106.77 -249.23 -253.92 -249.23zM289.31 95.2295c78.7598 0 135.609 61.2305 135.609 142.771c0 80.0703 -56.8496 141.311 -135.609 141.311
c-78.4697 0 -136.31 -61.2402 -136.31 -141.311c0 -81.54 57.8398 -142.771 136.31 -142.771z" />
    <glyph glyph-name="oe" unicode="&#x153;" horiz-adv-x="927" 
d="M289.31 -11.2305c-146.39 0 -254.619 110.998 -254.619 248.768c0 137 108 248.23 254.62 248.23c77.46 0 154.46 -29.9297 187.3 -98.9297h13.54c31.2305 68.2305 106.461 98.9307 176.391 98.9307c141 0 232.84 -106.77 232.84 -249.539
c0 -13.7695 -1 -26.0791 -2.76953 -37.6191h-327c-10.8398 0 -15.9199 4.08008 -18.3799 8.31055l-9.76953 -11.0801c3.69043 -3.69043 8.77051 -9 9.77051 -12.46c18.9199 -55.46 56.6895 -90.46 127.229 -90.46c42.7695 0 77.6094 13.7695 111.459 54.7695
l74.9199 -67.3799c-45.5303 -58.9297 -112.07 -91.54 -189.69 -91.54c-74.6904 0 -157.46 25.7695 -185 95.6094h-13.54c-24 -64.2305 -118.07 -95.6104 -187.301 -95.6104zM554.07 277.537c4.76953 4.76953 8.54004 7.83887 19.0801 7.83887h184.23
c10.54 0 14.3096 -3.07031 19.8496 -7.83984l9.76953 9.53027c-7 6.24023 -10.1602 10.1602 -12.3906 17.1602c-15.6104 46.6104 -57.2305 78.1504 -107.841 78.1504c-50.3896 0 -91.1592 -28.8398 -109.079 -78.1494c-3 -7 -6.37988 -10.9199 -14.1494 -17.1602z
M289.312 95.2266c78.7598 0 135.841 61 135.841 142.31c0 80.5303 -56.6104 141.771 -135.841 141.771c-78.2402 0 -136.311 -61.2402 -136.311 -141.771c0 -81.3096 58.0703 -142.31 136.311 -142.31z" />
    <glyph glyph-name="p" unicode="p" horiz-adv-x="604" 
d="M65.3799 -231l0.000976562 706.001h116.77v-7.76953c0 -9.69043 -3.54004 -17.6904 -11 -24.8506l10 -9.54004c38.6201 35.9297 85.1602 53.6992 146.08 52.999c135.84 -1.69043 240.689 -107.46 241.459 -248.84c0.769531 -137.08 -105.15 -248.311 -241.46 -248.311
c-60.9199 0 -107.46 18.6201 -146.08 53l-10 -9.54004c7.23047 -7.45996 11.7705 -12.3799 11.7705 -26.3799v-236.77h-117.54zM314.071 95.2305c79.7695 0 136.311 61.5381 136.311 141.769c0 79.0703 -56.0703 142.311 -136.311 142.311
c-80.0703 0 -135.61 -61.7695 -135.61 -142.31c0 -81 55.54 -141.77 135.61 -141.77z" />
    <glyph glyph-name="thorn" unicode="&#xfe;" horiz-adv-x="604" 
d="M65.3799 -231l0.00292969 939.002h116.77v-240.77c0 -10.1602 -4.45996 -18.3906 -11 -24.3906l10 -9.53027c40.46 36.8398 85.3896 53.2295 144.229 52.5293c138.39 -1.69043 242.54 -108.61 243.31 -248.841c0.769531 -136.39 -105.15 -248.31 -244.23 -248.31
c-58.1504 0 -102.851 17.6904 -143.311 53l-10 -9.54004c7 -7.23047 11.7695 -11.9209 11.7695 -26.3809v-236.77h-117.54zM313.843 95.2324c80.7002 0 136.54 61.7705 136.54 141.771c0 78.8398 -55.8398 142.31 -136.54 142.31
c-79.6104 0 -135.38 -61.3096 -135.38 -142.31c0 -81.2305 55.7695 -141.771 135.38 -141.771z" />
    <glyph glyph-name="q" unicode="q" horiz-adv-x="604" 
d="M278.92 -11.3096c-135.46 0 -244.769 110.85 -243.999 248.31c0.769531 141.31 108.539 247.229 243.999 248.84c59.0801 0.700195 104.92 -16.6094 143.54 -52.5293l10 9.53027c-7.45996 7.16016 -11 15.1602 -11 24.8506v7.30957h116.77v-706h-117.54v236.77
c0 14 4.54004 18.9199 11.7705 26.3799l-10 9.54004c-40.9199 -35.7695 -84.9199 -53 -143.54 -53zM290.001 95.2305c79.3799 0 135.15 60.54 135.15 141.771c0 81.46 -56.2305 142.31 -135.381 142.31c-80.9297 0 -136.54 -63.4697 -136.54 -142.31
c0 -79.54 55.6104 -141.771 136.771 -141.771z" />
    <glyph glyph-name="r" unicode="r" horiz-adv-x="348" 
d="M182.15 0l-116.77 0.000976562v475h116.77v-15.1602c0 -11.1504 -4.76953 -19.3809 -11.7695 -26.6113l10 -9.54004c44.4697 48.0898 80.6299 61.8701 131.76 61.8701c7.53027 0 15.0303 -1.01953 19.4707 -2.3291v-120.16c-10.46 2.76953 -21.46 4.53906 -44.54 4.53906
c-70.2305 0 -104.921 -49.46 -104.921 -115.77v-251.84z" />
    <glyph glyph-name="s" unicode="s" horiz-adv-x="443" 
d="M224.92 -11.2305c-85.6904 0 -153.77 30.46 -199.689 64.1504l55.0801 93.6904c45.5303 -37.8398 96.46 -55.9199 144.3 -55.9199c49.1602 0 72.7002 12.6904 72.7002 45.7705c0 81.9199 -249.85 23.7695 -249.85 202.38c0 86.54 70.6104 146.93 180.38 146.93
c68.6201 0 120.39 -15.1602 172.699 -52.7705l-56 -86.9297c-41.8496 29.3096 -84.4697 37 -117.31 37c-50.3896 0 -68.54 -17.3799 -68.54 -39.9199c0 -74.54 250.31 -21.54 250.31 -204.08c0 -89.0703 -60.1602 -150.301 -184.08 -150.301z" />
    <glyph glyph-name="scaron" unicode="&#x161;" horiz-adv-x="443" 
d="M182.38 531l-143.69 144.69l65.54 66.8496l111.15 -104.31l114.16 104.31l64.5303 -66.8496l-145.69 -144.69h-66zM224.92 -11.2295c-85.6904 0 -153.77 30.46 -199.689 64.1504l55.0801 93.6904c45.5303 -37.8398 96.46 -55.9199 144.3 -55.9199
c49.1602 0 72.7002 12.6904 72.7002 45.7705c0 81.9199 -249.85 23.7695 -249.85 202.38c0 86.54 70.6104 146.93 180.38 146.93c68.6201 0 120.39 -15.1602 172.699 -52.7705l-56 -86.9297c-41.8496 29.3096 -84.4697 37 -117.31 37
c-50.3896 0 -68.54 -17.3799 -68.54 -39.9199c0 -74.54 250.31 -21.54 250.31 -204.08c0 -89.0703 -60.1602 -150.301 -184.08 -150.301z" />
    <glyph glyph-name="germandbls" unicode="&#xdf;" horiz-adv-x="572" 
d="M65.3799 0v480.229c0 127.61 55.54 237.771 217.771 237.771c130.77 0 208 -72.3896 208 -182.08c0 -75.8496 -35.3799 -133.85 -89.3799 -148.38v-13.54c78.54 -8.54004 136.3 -75 136.3 -163.39c0 -142.38 -107.46 -210.61 -248.38 -210.61h-46.9199v110.54h53.0703
c94.3896 0 125.47 47.2998 125.47 103.38c0 54.2305 -30.3096 103.08 -129.54 103.08h-49v106.23h41.3799c55.7695 0 90.7695 32.3096 90.7695 94.8398c0 52.54 -31.6904 89.9297 -91.7705 89.9297c-81.1504 0 -101 -59.7695 -101 -127.159v-480.84h-116.77z" />
    <glyph glyph-name="t" unicode="t" horiz-adv-x="358" 
d="M115.69 0v344.61c0 9.76953 3.30957 14.3096 9.30957 20.3096l-9.76953 9.54004c-6.76953 -6.76953 -12.5391 -10.0791 -19.8486 -10.0791h-77.0703v110.62h77.0703c7.30957 0 13.0791 -3.30957 19.8486 -10.0791l9.76953 9.54004c-6 6 -9.30957 10.54 -9.30957 20.3096
v141h116.77v-141c0 -9.76953 -3.30957 -14.3096 -9.30957 -20.3096l9.76953 -9.54004c6.76953 6.76953 12.5391 10.0791 19.8486 10.0791h87.9199v-110.62h-87.9199c-7.30957 0 -13.0791 3.30957 -19.8486 10.0791l-9.76953 -9.54004c6 -6 9.30957 -10.54 9.30957 -20.3096
v-344.61h-116.77z" />
    <glyph glyph-name="u" unicode="u" horiz-adv-x="559" 
d="M279.77 -12.7695c-133.54 0 -221.39 78.9199 -221.39 223.77v264h116.77v-237c0 -82.8496 22.2305 -140 104.62 -140.46c82.1504 0 104.15 58.0703 104.15 140.46v237h116.77v-264c0 -144.85 -87.8496 -223.77 -220.92 -223.77z" />
    <glyph glyph-name="uacute" unicode="&#xfa;" horiz-adv-x="559" 
d="M191.23 525.84l-53.2295 92.7002l222.77 126.38l56 -100.46zM279.771 -12.7695c-133.54 0 -221.39 78.9199 -221.39 223.77v264h116.77v-237c0 -82.8496 22.2305 -140 104.62 -140.46c82.1504 0 104.15 58.0703 104.15 140.46v237h116.77v-264
c0 -144.85 -87.8496 -223.77 -220.92 -223.77z" />
    <glyph glyph-name="ucircumflex" unicode="&#xfb;" horiz-adv-x="559" 
d="M164.61 528.84l-64.54 66.8496l145.7 144.69h66l143.69 -144.69l-65.54 -66.8496l-112.69 105.08zM279.771 -12.7705c-133.54 0 -221.39 78.9199 -221.39 223.77v264h116.77v-237c0 -82.8496 22.2305 -140 104.62 -140.46c82.1504 0 104.15 58.0703 104.15 140.46v237
h116.77v-264c0 -144.85 -87.8496 -223.77 -220.92 -223.77z" />
    <glyph glyph-name="udieresis" unicode="&#xfc;" horiz-adv-x="559" 
d="M176 563.77c-41.9297 0 -74.3096 32.3799 -74.3096 74.2998c0 41.9297 32.3799 73.3096 74.3096 73.3096c41.9199 0 73.3096 -31.3799 73.3096 -73.3096c0 -41.9199 -31.3896 -74.2998 -73.3096 -74.2998zM379.54 563.77c-41.9297 0 -74.3096 32.3799 -74.3096 74.2998
c0 41.9297 32.3799 73.3096 74.3096 73.3096c41.9199 0 73.2998 -31.3799 73.2998 -73.3096c0 -41.9199 -31.3799 -74.2998 -73.2998 -74.2998zM279.771 -12.7705c-133.54 0 -221.39 78.9199 -221.39 223.77v264h116.77v-237c0 -82.8496 22.2305 -140 104.62 -140.46
c82.1504 0 104.15 58.0703 104.15 140.46v237h116.77v-264c0 -144.85 -87.8496 -223.77 -220.92 -223.77z" />
    <glyph glyph-name="ugrave" unicode="&#xf9;" horiz-adv-x="559" 
d="M363.31 525.84l-225.31 118.16l56 100.92l222.54 -126.15zM279.77 -12.7695c-133.54 0 -221.39 78.9199 -221.39 223.77v264h116.77v-237c0 -82.8496 22.2305 -140 104.62 -140.46c82.1504 0 104.15 58.0703 104.15 140.46v237h116.77v-264
c0 -144.85 -87.8496 -223.77 -220.92 -223.77z" />
    <glyph glyph-name="v" unicode="v" horiz-adv-x="505" 
d="M190.07 0l-184.921 475h128.39l110.84 -307.771c3.69043 -9.84961 4.62012 -25.9199 4.62012 -36.7695h13.54c0 10.0801 0.919922 26.6904 4.61035 37l108.54 307.54h123.69l-184.92 -475h-124.39z" />
    <glyph glyph-name="w" unicode="w" horiz-adv-x="764" 
d="M166.54 0l-160.852 475h129.46l87.3896 -302.46c2.69043 -10.3896 3.9209 -22.6992 3.9209 -32.3896h13.54c0 8.91992 0.459961 21.54 3.91992 32.3896l89.1504 302.46h98.7695l93.3896 -302.46c3.23047 -10.3896 3.9209 -22.6992 3.9209 -32.3896h13.54
c0 8.91992 0.230469 20.7695 3.9209 32.3896l85.3896 302.46h126.77l-162.85 -475h-118.77l-84 249.77c-3.23047 10.3799 -3.9209 23.1494 -3.9209 32.8398h-13.54c0 -8.91992 -0.459961 -22 -3.91992 -32.8398l-81.8496 -249.77h-123.38z" />
    <glyph glyph-name="x" unicode="x" horiz-adv-x="477" 
d="M5.37988 0l166.16 248.31l-150.39 226.69h127.23l79.54 -121.46c6.30957 -10.0801 6.76953 -21.7002 6.76953 -29.1602h13.54c0 7.45996 1 19.0801 7.30957 29.6904l73.6104 120.93h126.77l-150.77 -232.62l165.77 -242.38h-126.69l-94.9199 137.92
c-6.30957 9.08008 -6.54004 21.46 -6.54004 28.9199h-13.54c0 -7.45996 -0.230469 -19.0703 -7.54004 -29.9199l-90.54 -136.92h-125.77z" />
    <glyph glyph-name="y" unicode="y" horiz-adv-x="504" 
d="M115.61 -231l79.7686 227.232l-188.46 478.77h128.85l112.46 -304.23c3.45996 -9.16016 4.15039 -25.7705 4.15039 -36.3906h13.54c0 9.84961 0.69043 27.2295 4.15039 36.6191l109.16 304h121.08l-270.93 -706h-113.77z" />
    <glyph glyph-name="yacute" unicode="&#xfd;" horiz-adv-x="504" 
d="M164.38 525.84l-53.2295 92.7002l222.77 126.38l56 -100.46zM115.61 -231l79.7686 227.232l-188.46 478.77h128.85l112.46 -304.23c3.45996 -9.16016 4.15039 -25.7705 4.15039 -36.3906h13.54c0 9.84961 0.69043 27.2295 4.15039 36.6191l109.16 304h121.08
l-270.93 -706h-113.77z" />
    <glyph glyph-name="ydieresis" unicode="&#xff;" horiz-adv-x="504" 
d="M149.15 563.77c-41.9199 0 -74.3096 32.3799 -74.3096 74.2998c0 41.9297 32.3896 73.3096 74.3096 73.3096s73.3096 -31.3799 73.3096 -73.3096c0 -41.9199 -31.3896 -74.2998 -73.3096 -74.2998zM352.69 563.77c-41.9199 0 -74.3096 32.3799 -74.3096 74.2998
c0 41.9297 32.3896 73.3096 74.3096 73.3096s73.3096 -31.3799 73.3096 -73.3096c0 -41.9199 -31.3896 -74.2998 -73.3096 -74.2998zM115.61 -231l79.7686 227.232l-188.46 478.77h128.85l112.46 -304.23c3.45996 -9.16016 4.15039 -25.7705 4.15039 -36.3906h13.54
c0 9.84961 0.69043 27.2295 4.15039 36.6191l109.16 304h121.08l-270.93 -706h-113.77z" />
    <glyph glyph-name="z" unicode="z" horiz-adv-x="473" 
d="M40.2305 0l0.000976562 101.689l242.69 271.771l-9.76953 9.54004c-7.45996 -7.23047 -18.54 -15.54 -40.3799 -15.54h-193.23v107.54h387.3v-102.23l-242.69 -272.77l9.76953 -9.54004c7.45996 7.23047 18.54 15.54 40.3896 15.54h203.76v-106h-397.84z" />
    <glyph glyph-name="zcaron" unicode="&#x17e;" horiz-adv-x="473" 
d="M205.07 531l-143.69 144.69l65.54 66.8496l111.15 -104.31l114.16 104.31l64.54 -66.8496l-145.7 -144.69h-66zM40.2295 0l0.000976562 101.689l242.69 271.771l-9.76953 9.54004c-7.45996 -7.23047 -18.54 -15.54 -40.3799 -15.54h-193.23v107.54h387.3v-102.23
l-242.69 -272.77l9.76953 -9.54004c7.45996 7.23047 18.54 15.54 40.3896 15.54h203.76v-106h-397.84z" />
    <glyph glyph-name="b.ss01" horiz-adv-x="593" 
d="M309.98 -11.3096c-149.06 0.0800781 -254.831 103.23 -254.831 248.311v471h117.54v-238.77c0 -13.54 -4.30957 -18.46 -11.7695 -26.3896l10 -9.53027c39.7695 35.2998 85.6191 52.5303 144.229 52.5303c135.85 0 244.08 -110.07 243.311 -248.07
c-0.769531 -140.99 -104.42 -247.391 -248.479 -249.081zM303.839 95.2305c80.2305 0 136.31 62.54 136.31 142.54c0 79.54 -56.3096 141.54 -136.31 141.54c-79.3799 0 -135.61 -60.0801 -135.61 -141.54c0 -81.2305 56.2305 -142.54 135.61 -142.54z" />
    <glyph glyph-name="d.ss01" horiz-adv-x="593" 
d="M287.23 -11.2305c-142.97 0 -252.77 105.319 -252.77 248.229c0 143.31 111.08 248.77 242.69 248.77c62.7695 0 108.92 -18.54 144.85 -52.9297l10 9.54004c-7.45996 7.16016 -11 15.1602 -11 24.8506v240.77h116.77v-468.46c0 -150.85 -106.93 -250.77 -250.54 -250.77
zM289.07 95.2285c81.6201 0 135.62 64.6104 135.62 141.771c0 79.7695 -54 142.31 -135.62 142.31c-81 0 -136.3 -63.2402 -136.3 -142.311c0 -79.46 55.7695 -141.77 136.3 -141.77z" />
    <glyph glyph-name="f.ss01" horiz-adv-x="307" 
d="M65.3799 0l0.000976562 519.231c0 102 64.7695 194.54 186.85 194.54c17.3096 0 31.54 -0.769531 47.54 -4.30957v-107.92h-2.45996c-3.7002 0 -13.9307 1.76953 -30.1611 1.76953c-59.1504 0 -85 -37.54 -85 -86.1602v-22.3799
c0 -9.76953 -3.30957 -14.3096 -9.30957 -20.3096l9.76953 -9.54004c6.76953 6.76953 12.5391 10.0791 19.8486 10.0791h87.54v-110.62h-87.54c-7.30957 0 -13.0791 3.30957 -19.8486 10.0791l-9.76953 -9.54004c6 -6 9.30957 -10.54 9.30957 -20.3096v-344.61h-116.77z" />
    <glyph glyph-name="g.ss01" horiz-adv-x="593" 
d="M275.92 -242.77l-0.230469 111.538c86.54 0 145 33.54 145 126.15v10.1504c0 14.7002 4.30957 19.3906 11.7695 27.0811l-10 9.54004c-41.1504 -36 -84.6904 -53 -143.08 -52.9199c-136.07 0 -243.69 107.69 -244.46 249c-0.769531 141.3 111.461 248 253.921 248
c142.28 0 249.391 -102 249.391 -247.63v-218.68c0 -181.23 -103.69 -262.23 -262.311 -262.23zM289.999 95.2285c81.3799 0 135.84 62.0801 135.84 142.54c0 77.6104 -54.46 141.54 -136.07 141.54c-82.1602 0 -136.54 -63.4697 -136.54 -141.54
c0 -80 54.6104 -142.54 136.771 -142.54z" />
    <glyph glyph-name="l.ss01" horiz-adv-x="276" 
d="M253.07 -8.54004c-105.73 0 -191.92 33.0801 -191.92 164.54v552h116.77v-532.54c0 -60.1504 30.6904 -77.6904 75.1504 -77.6904v-106.31z" />
    <glyph glyph-name="lslash.ss01" horiz-adv-x="326" 
d="M212.46 175.46c0 -60.1504 30.6914 -77.6895 75.1514 -77.6895v-106.31c-105.73 0 -191.921 33.0801 -191.921 164.54v109.47l-61.2305 -44.0898v115.23l61.2305 44.0898v327.3h116.77v-243.23l73.3799 52.8398v-115.23l-73.3799 -52.8301v-174.09z" />
    <glyph glyph-name="p.ss01" horiz-adv-x="593" 
d="M55.1504 -231v467.13c0 153.59 111.63 249.64 249.25 249.64c146.67 0 254.06 -106.54 254.06 -248c0 -140 -106.46 -249.08 -241.46 -249.08c-60.9297 0 -107.46 18.6201 -146.08 53l-10 -9.54004c7.23047 -7.45996 11.7705 -12.3799 11.7705 -26.3799v-236.77h-117.54z
M303.841 95.2295c80.54 0 136.311 62.3096 136.311 142.54c0 78.2998 -56.0801 141.54 -137.08 141.54c-81.6104 0 -134.841 -64.8496 -134.841 -141.54c0 -80.2305 54 -142.54 135.61 -142.54z" />
    <glyph glyph-name="q.ss01" horiz-adv-x="593" 
d="M420.46 -231v236.771c0 14 4.54004 18.9199 11.7705 26.3799l-10 9.54004c-40.9199 -35.7695 -84.9199 -53 -143.54 -53c-129 0 -244 106 -244 249.08c0 144.38 112.38 248 254.85 248c140.75 0 248.46 -97.25 248.46 -248.28v-468.49h-117.54zM289.77 95.2305
c80.9199 0 135.151 62.0801 135.151 142.54c0 77.6104 -54.6904 141.54 -135.381 141.54c-81.7002 0 -136.54 -63.4697 -136.54 -141.54c0 -79.54 54.8398 -142.54 136.77 -142.54z" />
    <glyph glyph-name="t.ss01" horiz-adv-x="381" 
d="M343.61 -7c-181.3 0 -228.92 68.3096 -228.92 201.46v150.15c0 9.76953 3.30957 14.3096 9.30957 20.3096l-9.76953 9.54004c-6.76953 -6.76953 -12.5391 -10.0791 -19.8486 -10.0791h-77.8398v110.62h77.8398c7.30957 0 13.0791 -3.30957 19.8486 -10.0791
l9.76953 9.54004c-6 6 -9.30957 10.54 -9.30957 20.3096v141.23h116.77v-141.23c0 -9.76953 -3.30957 -14.3096 -9.30957 -20.3096l9.76953 -9.54004c6.76953 6.76953 12.5391 10.0791 19.8486 10.0791h103.38v-110.62h-103.38
c-7.30957 0 -13.0791 3.30957 -19.8486 10.0791l-9.76953 -9.54004c6 -6 9.30957 -10.54 9.30957 -20.3096v-143c0 -73.54 35.0801 -100.771 112.15 -100.771v-107.84z" />
    <glyph glyph-name="ordfeminine" unicode="&#xaa;" horiz-adv-x="451" 
d="M203.69 374.77c-103.31 0 -168.54 79.3008 -168.54 170.001c0 92.46 66 170.229 168.54 170.229c40.2305 0 75.6201 -13.2305 97.54 -43.0801l7.76953 7.54004c-3.45996 3.45996 -8.76953 11.2295 -8.76953 20.1494l0.69043 9.16016h87.54v-325h-88.2305v5.83984
c0 8 5.08008 16.2305 8.54004 19.7002l-7.54004 7.53027c-26 -32.9199 -62.9199 -42.0703 -97.54 -42.0703zM211.921 450.771c57.3896 0 88 39.1494 88 93.7695c0 53.8398 -30.3799 93.46 -88 93.46c-60.0801 0 -89.7705 -44.3096 -89.7705 -93.2295
c0 -50.3896 30.6201 -94 89.7705 -94z" />
    <glyph glyph-name="ordmasculine" unicode="&#xba;" horiz-adv-x="417" 
d="M381.92 546c0 -94 -76 -171 -174 -171c-95 0 -174 73 -174 169c0 93.1504 75 171.46 174 171.46c96 0 174 -74.3096 174 -169.46zM208.689 460c49.8496 0 84.2305 38.3799 84.2305 86c0 46.7695 -34.3799 84.46 -85 84.46c-50.6104 0 -85 -37.9199 -85 -85.46
c0 -47.6201 35.3896 -85 85.7695 -85z" />
    <glyph glyph-name="uni03BC" unicode="&#x3bc;" horiz-adv-x="567" 
d="M65.3799 -231v706h116.77v-248.08c0 -82.8496 26.3896 -129.149 104.62 -129.149c79.7695 0 104.609 46.2998 104.609 129.149v248.08h116.77v-264.31c0 -156.69 -94.46 -223.69 -212.31 -223.69c-56.1504 0 -81.1504 10.1504 -115.46 36.1504l-9.76953 -9.54004
c6.08008 -6.2998 11.54 -11 11.54 -25v-219.61h-116.77z" />
    <glyph glyph-name="zero" unicode="0" horiz-adv-x="605" 
d="M302.61 -13c-171.38 0 -247.46 125.07 -247.46 280.69v190.38c0 139.85 82.0801 264.699 247.46 264.699c157.62 0 247.46 -116.08 247.46 -264.7v-190.38c0 -146.85 -69.2998 -280.689 -247.46 -280.689zM302.61 103.07c94.7002 0 121.7 68.7715 121.7 168.541v174.77
c0 85.7695 -31.2402 160.079 -121.7 160.079c-86.46 0 -121.69 -68.0801 -121.69 -160.08v-174.77c0 -92 22.2305 -168.54 121.69 -168.54z" />
    <glyph glyph-name="one" unicode="1" horiz-adv-x="346" 
d="M135.69 0l-0.00195312 572.771c0 11.2998 4.30957 16.0693 9.54004 21.2998l-9.76953 8.76953c-5.23047 -4.45996 -12 -9.53027 -20.8496 -9.53027h-98.8398v114.69h244.23v-708h-124.31z" />
    <glyph glyph-name="two" unicode="2" horiz-adv-x="549" 
d="M46.1504 0l-0.228516 108.15l187 196.77c90.46 94.6904 134.77 144.08 134.77 205.15c0 55.6201 -37.2305 96.6201 -104.08 96.6201c-54.46 0 -100.54 -27.7695 -119.07 -85.3096l-111.23 38.7695c34.3799 108.46 117.689 162.62 230.459 162.62
c130.54 0 229.69 -74 229.69 -208.16c0 -81.0703 -41.9199 -156.38 -122.31 -237.689l-132.31 -134.23c-13.6104 -13.8496 -21.3799 -14.46 -33.6104 -14.46v-13.54h298.54v-114.69h-457.62z" />
    <glyph glyph-name="three" unicode="3" horiz-adv-x="546" 
d="M257.69 -13c-132.31 0 -209.46 80.541 -229.62 180.381l116.93 35.46c15.54 -65.1504 55.6904 -99.7705 120.15 -99.7705c69.3896 0 111 46.2402 111 106.471c0 79.6904 -62.54 115.921 -148.31 115.921v98.7695c71.6201 0 122.62 29.9199 122.62 93.3799
c0 48.46 -29.54 89.54 -88.9199 89.54c-54.1602 0 -86.54 -32.6104 -99.54 -87.8408l-114.54 36.2998c21 95.9297 92.3799 167.16 217.61 167.16c141.08 0 210.39 -84.3896 210.39 -183.46c0 -75.3896 -50.0801 -129.93 -100.69 -145.77v-13.54
c70 -16.46 127.15 -78.0801 127.15 -175.62c0 -129.15 -100.23 -217.381 -244.23 -217.381z" />
    <glyph glyph-name="four" unicode="4" horiz-adv-x="585" 
d="M350.31 0l-0.000976562 121.151c0 9.76953 3.2998 14.3096 9.2998 20.3096l-9.76953 9.54004c-6.76953 -6.76953 -12.5293 -10.0791 -19.8389 -10.0791h-312.771v108.77l343.15 458.31h110.93v-434c0 -9.76953 -3.30957 -14.3096 -9.30957 -20.3096l9.76953 -9.54004
c6.76953 6.76953 12.5391 10.0791 19.8389 10.0791h55.7002v-113.31h-55.7002c-7.2998 0 -13.0693 3.30957 -19.8389 10.0791l-9.76953 -9.54004c6 -6 9.30957 -10.54 9.30957 -20.3096v-121.15h-121zM349.839 244.151l9.77246 9.54004c-6 6 -9.2998 10.54 -9.2998 20.3096
v201.61c0 17.8496 4.53027 25.3896 11.2998 35.6201l-11.54 7.54004l-178.46 -238.54c-7.23047 -9.23047 -11.7705 -12.4609 -22.4609 -12.4609v-13.54h180.85c7.30957 0 13.0693 -3.30957 19.8389 -10.0791z" />
    <glyph glyph-name="five" unicode="5" horiz-adv-x="562" 
d="M270.69 -13c-119.62 0 -210.147 70.2295 -242.997 180.31l113.38 34.6904c16 -58 64.9297 -98.9297 131.47 -98.9297c78.8398 0 129.609 49.54 129.609 133.31c0 82.3896 -50.1504 129.46 -128.54 129.46c-45.2305 0 -81.8408 -17.1504 -111.541 -52.0703
l-104.84 28.6104l57.1504 365.62h365.85l-9.08008 -114.69h-258.61l-25.7002 -150.39l13.3096 -2c25.46 20 63.46 32.6904 116.46 32.6904c114 0 211.08 -93.2998 211.08 -233.38c0 -148.08 -109.15 -253.23 -257 -253.23z" />
    <glyph glyph-name="six" unicode="6" horiz-adv-x="560" 
d="M286.23 -13c-144.23 0 -248.538 108.07 -248.538 238.771c0 54.9199 18.8496 106.92 50 165.229l167.77 317h136.85l-136.08 -255.08l11.54 -6.54004c11.54 7.76953 29.9199 13.46 51.9199 13.46c121.92 0 217.689 -99.7695 217.689 -233.38
c0 -132.15 -114.15 -239.46 -251.15 -239.46zM286.463 102.84c75.6104 0 125.15 53.2305 125.15 124.931c0 72.46 -49.54 127.07 -125.15 127.07c-76.3096 0 -126.85 -53.9199 -126.85 -127.07c0 -71.7002 51 -124.931 126.85 -124.931z" />
    <glyph glyph-name="seven" unicode="7" horiz-adv-x="506" 
d="M16.7695 593.42v114.58h473.23v-119.31l-268.771 -588.69h-135.62l262.62 567.38c4.45996 9.92969 11.6904 12.3896 17.46 12.3896v13.6504h-348.92z" />
    <glyph glyph-name="eight" unicode="8" horiz-adv-x="576" 
d="M288.07 -14c-132.69 0 -244.15 82.6104 -244.15 219.311c0 78.7598 39.1699 136.66 107.16 171.21v13.2305c-53 24.2695 -81.4697 77.2695 -81.4697 148.63c0 99.3496 90.7598 183.92 218.46 183.92c127.71 0 218.47 -84.5703 218.47 -183.92
c0 -71.3604 -28.4697 -124.36 -81.4697 -148.63v-13.2305c67.9902 -34.5498 107.16 -92.4502 107.16 -171.21c0 -136.7 -111.46 -219.311 -244.16 -219.311zM288.07 427.91c65.5801 0 99.1992 42.1602 99.1992 93.2197c0 56.3398 -40.1299 90.8799 -99.2002 90.8799
c-59.0596 0 -99.1895 -34.54 -99.1895 -90.8799c0 -51.0596 33.6201 -93.2197 99.1904 -93.2197zM288.069 101.84c72.2998 0 119.081 48.1602 119.081 110.851c0 66.29 -48.1201 111.33 -119.08 111.33c-70.9502 0 -119.07 -45.04 -119.07 -111.33
c0 -62.6904 46.7695 -110.851 119.069 -110.851z" />
    <glyph glyph-name="nine" unicode="9" horiz-adv-x="560" 
d="M167 0l136.309 255.07l-11.54 6.54004c-11.54 -7.76953 -29.9297 -13.46 -51.9297 -13.46c-121.92 0 -217.689 99.7695 -217.689 233.39c0 133.13 114.16 241.229 251.16 241.229c144.23 0 248.53 -108.86 248.53 -240.54c0 -54.9199 -18.8398 -106.92 -50 -165.229
l-167.77 -317h-137.07zM273.068 353.15c76.3096 0 126.85 53.9199 126.85 127.08c0 72.6797 -51 126.68 -126.85 126.68c-75.6104 0 -125.15 -54 -125.15 -126.68c0 -72.46 49.54 -127.08 125.15 -127.08z" />
    <glyph glyph-name="zero.osf" horiz-adv-x="597" 
d="M299.07 -13c-151.84 0 -264.379 111.23 -264.379 259c0 146.54 112.54 257.49 264.38 257.49c152.93 0 263.699 -110.95 263.699 -257.49c0 -147.77 -111.54 -259 -263.7 -259zM299.052 102.61c80.7803 0 137.971 59.7598 137.951 143.359
c0.0195312 81.7402 -57.1709 141.9 -137.951 141.9c-81.21 0 -138.61 -60.1602 -138.591 -141.9c-0.0195312 -83.5996 57.3809 -143.359 138.591 -143.359z" />
    <glyph glyph-name="one.osf" horiz-adv-x="346" 
d="M135.69 0l-0.00195312 349.771c0 11.2998 4.30957 16.0693 9.54004 21.2998l-9.76953 8.76953c-5.23047 -4.45996 -12 -9.53027 -20.8496 -9.53027h-98.8398v114.69h244.23v-485h-124.31z" />
    <glyph glyph-name="two.osf" horiz-adv-x="534" 
d="M45.9199 0l0.121094 89.7695l192.92 119.46c65.54 40.46 97.8496 76.8398 97.7695 116c0.0800781 35.6104 -27.1602 62.2305 -77.3906 62.2305c-50.3799 0 -85.3799 -25.7695 -100.51 -83.3291l-112.8 36.6699c29.54 107.2 116.7 162.74 222.851 162.74
c108.23 0 197.54 -57.6201 197.54 -174.16c0 -76.9199 -38.1104 -124.47 -105 -166.689l-37.1504 -23.6201c-11.2002 -7.40039 -17.8506 -10.8408 -38.5205 -10.8408v-13.54h215.82v-114.69h-455.65z" />
    <glyph glyph-name="three.osf" horiz-adv-x="546" 
d="M257.69 -233c-132.31 0 -209.46 80.541 -229.62 180.381l116.93 35.46c15.54 -65.1504 55.6904 -99.7705 120.15 -99.7705c69.3896 0 111 46.2402 111 106.471c0 79.6904 -62.54 115.921 -148.31 115.921v98.7695c71.6201 0 122.62 29.9199 122.62 93.3799
c0 48.46 -29.54 89.54 -88.9199 89.54c-54.1602 0 -86.54 -32.6104 -99.54 -87.8408l-114.54 36.2998c21 95.9297 92.3799 167.16 217.61 167.16c141.08 0 210.39 -84.3896 210.39 -183.46c0 -75.3896 -50.0801 -129.93 -100.69 -145.77v-13.54
c70 -16.46 127.15 -78.0801 127.15 -175.62c0 -129.15 -100.23 -217.381 -244.23 -217.381z" />
    <glyph glyph-name="four.osf" horiz-adv-x="562" 
d="M327.38 -183.69l-0.000976562 163.84c0 9.76953 3.30957 14.3096 9.30957 20.3096l-9.76953 9.54004c-6.76953 -6.76953 -12.5391 -10.0791 -19.8486 -10.0791h-293.23v108.77l323.62 379.28h110.92v-354.97c0 -9.76953 -3.30957 -14.3096 -9.30957 -20.3096
l9.76953 -9.54004c6.76953 6.76953 12.5391 10.0791 19.8486 10.0791h55.6904v-113.31h-55.6904c-7.30957 0 -13.0791 3.30957 -19.8486 10.0791l-9.76953 -9.54004c6 -6 9.30957 -10.54 9.30957 -20.3096v-163.84h-121zM326.919 103.149l9.77148 9.53906
c-6 6 -9.30957 10.54 -9.30957 20.3096v132.59c0 17.8496 4.54004 25.3799 11.3096 35.6201l-11.54 7.53027l-145.77 -169.51c-7.54004 -8.84961 -11.7705 -12.46 -22.4609 -12.46v-13.54h148.15c7.30957 0 13.0791 -3.30957 19.8486 -10.0791z" />
    <glyph glyph-name="five.osf" horiz-adv-x="562" 
d="M270.69 -233c-119.62 0 -210.147 70.2295 -242.997 180.31l113.38 34.6904c16 -58 64.9297 -98.9297 131.47 -98.9297c78.8398 0 129.609 49.54 129.609 133.31c0 82.3896 -50.1504 129.46 -128.54 129.46c-45.2305 0 -81.8408 -17.1504 -111.541 -52.0703
l-104.84 28.6104l57.1504 365.62h365.85l-9.08008 -114.69h-258.61l-25.7002 -150.39l13.3096 -2c25.46 20 63.46 32.6904 116.46 32.6904c114 0 211.08 -93.2998 211.08 -233.38c0 -148.08 -109.15 -253.23 -257 -253.23z" />
    <glyph glyph-name="six.osf" horiz-adv-x="575" 
d="M286.23 -13c-144.23 0 -248.538 108.07 -248.538 238.771c0 54.9199 18.8496 106.92 50 165.229l167.77 317h136.85l-136.08 -255.08l11.54 -6.54004c11.54 7.76953 29.9199 13.46 51.9199 13.46c121.92 0 217.689 -99.7695 217.689 -233.38
c0 -132.15 -114.15 -239.46 -251.15 -239.46zM286.463 102.84c75.6104 0 125.15 53.2305 125.15 124.931c0 72.46 -49.54 127.07 -125.15 127.07c-76.3096 0 -126.85 -53.9199 -126.85 -127.07c0 -71.7002 51 -124.931 126.85 -124.931z" />
    <glyph glyph-name="seven.osf" horiz-adv-x="506" 
d="M16.7695 373.42v114.58h473.23v-119.31l-268.771 -588.69h-135.62l262.62 567.38c4.45996 9.92969 11.6904 12.3896 17.46 12.3896v13.6504h-348.92z" />
    <glyph glyph-name="eight.osf" horiz-adv-x="576" 
d="M288.07 -14c-132.69 0 -244.15 82.6104 -244.15 219.311c0 78.7598 39.1699 136.66 107.16 171.21v13.2305c-53 24.2695 -81.4697 77.2695 -81.4697 148.63c0 99.3496 90.7598 183.92 218.46 183.92c127.71 0 218.47 -84.5703 218.47 -183.92
c0 -71.3604 -28.4697 -124.36 -81.4697 -148.63v-13.2305c67.9902 -34.5498 107.16 -92.4502 107.16 -171.21c0 -136.7 -111.46 -219.311 -244.16 -219.311zM288.07 427.91c65.5801 0 99.1992 42.1602 99.1992 93.2197c0 56.3398 -40.1299 90.8799 -99.2002 90.8799
c-59.0596 0 -99.1895 -34.54 -99.1895 -90.8799c0 -51.0596 33.6201 -93.2197 99.1904 -93.2197zM288.069 101.84c72.2998 0 119.081 48.1602 119.081 110.851c0 66.29 -48.1201 111.33 -119.08 111.33c-70.9502 0 -119.07 -45.04 -119.07 -111.33
c0 -62.6904 46.7695 -110.851 119.069 -110.851z" />
    <glyph glyph-name="nine.osf" horiz-adv-x="575" 
d="M182.54 -220l136.299 255.07l-11.5303 6.54004c-11.54 -7.76953 -29.9297 -13.46 -51.9297 -13.46c-121.92 0 -217.689 99.7695 -217.689 233.39c0 133.13 114.15 241.229 251.15 241.229c144.23 0 248.54 -108.86 248.54 -240.54
c0 -54.9199 -18.8398 -106.92 -50 -165.229l-167.77 -317h-137.07zM288.608 133.15c76.3096 0 126.85 53.9199 126.85 127.08c0 72.6797 -51 126.68 -126.85 126.68c-75.6104 0 -125.15 -54 -125.15 -126.68c0 -72.46 49.54 -127.08 125.15 -127.08z" />
    <glyph glyph-name="uni00B9" unicode="&#xb9;" horiz-adv-x="296" 
d="M123.84 268.31v325.529c0 11.2305 3.92969 14.8506 8 19.0811l-8.37988 7.38965c-5.15039 -4.54004 -10.6201 -8.54004 -18.6904 -8.54004h-82.8496v96.6904h208.62v-440.15h-106.7z" />
    <glyph glyph-name="uni00B2" unicode="&#xb2;" horiz-adv-x="418" 
d="M41.1504 609.31c27.1602 69.5303 80.1592 108.921 164.39 108.921c88 0 149.84 -44.3896 149.84 -126.92c0 -62.1602 -43.7002 -112.46 -89.7705 -165.62l-31.2305 -33.7695c-12.3799 -14.3799 -18.6895 -17.0801 -29.6094 -17.0801v-10.9199h158.54v-94.8496h-303.7
l-0.299805 84.7695l85.6104 86.3896c63.54 64.46 102.15 99 102.15 135.08c0 28.2998 -20.2998 42.9199 -49.3799 42.9199c-28.46 0 -47.1504 -13.54 -62.6201 -42.6904z" />
    <glyph glyph-name="uni00B3" unicode="&#xb3;" horiz-adv-x="405" 
d="M364.07 395.81c0 -74.9697 -61.2324 -134.351 -159.232 -134.351c-101.27 0 -152.199 48.46 -168.609 113.46l99.5303 28.5801c9.87012 -30.7695 39.2002 -42.1895 67.5498 -42.1895c28.5 0 53.8398 13.1904 53.8398 44.8604
c0 39.7002 -38.0596 52.1406 -92.0791 52.1406v78.9199c45.4004 0 73.2402 13.46 73.2402 45.0898c0 24.7695 -18.3496 37.9893 -42.8594 37.9893c-28.2598 0 -44.8594 -12.2002 -52.6396 -33.6602l-96.2695 29.1201c15.2197 57.46 64.1094 102.46 151.34 102.46
c96.1797 0 147.43 -53.1699 147.43 -113.77c0 -56.0303 -40.2998 -88.5898 -64 -92.54v-10.6904c38.6699 -6.53027 82.7598 -37.1201 82.7598 -105.42z" />
    <glyph glyph-name="fraction" unicode="&#x2044;" horiz-adv-x="461" 
d="M76.46 0h-93.54l402.771 737.23h93.54z" />
    <glyph glyph-name="onehalf" unicode="&#xbd;" horiz-adv-x="858" 
d="M246.69 0h-93.54l402.771 737.23h93.54zM131.15 268.31v325.529c0 11.2305 3.91992 14.8506 8 19.0811l-8.37988 7.38965c-5.16016 -4.54004 -10.6201 -8.54004 -18.7002 -8.54004h-82.8398v96.6904h208.61v-440.15h-106.69zM494.61 340.229
c27.1602 69.54 80.1592 108.921 164.39 108.921c88 0 149.84 -44.3799 149.84 -126.92c0 -62.1602 -43.7002 -112.46 -89.7705 -165.62l-31.2305 -33.7695c-12.3799 -14.3799 -18.6895 -17.0703 -29.6094 -17.0703v-10.9297h158.54v-94.8398h-303.7l-0.299805 84.7695
l85.6104 86.3799c63.54 64.46 102.16 99 102.16 135.08c0 28.3096 -20.3096 42.9199 -49.3896 42.9199c-28.46 0 -47.1504 -13.54 -62.6104 -42.6904z" />
    <glyph glyph-name="onequarter" unicode="&#xbc;" horiz-adv-x="826" 
d="M246.46 0h-93.54l402.771 737.23h93.54zM131.15 268.31v325.529c0 11.2305 3.91992 14.8506 8 19.0811l-8.37988 7.38965c-5.16016 -4.54004 -10.6201 -8.54004 -18.7002 -8.54004h-82.8398v96.6904h208.61v-440.15h-106.69zM637.471 -0.000976562l-0.000976562 56.5713
c0 7.87012 2.17969 11.3398 7.58984 16.75l-8.01953 7.59961c-6.0498 -6.08008 -10.8496 -8.28027 -16.2598 -8.28027h-196.24v92.04l226.73 273.62h89.3799v-253.4c0 -7.87988 -2.17969 -11.3398 -7.58984 -16.7598l8.09961 -7.57031
c5.9502 6.0498 10.7705 8.26953 16.251 8.26953h30.3096v-96.2002h-30.3096c-5.48047 0 -10.3008 2.2002 -16.251 8.28027l-8.09961 -7.59961c5.41016 -5.41016 7.58984 -8.87988 7.58984 -16.75v-56.5703h-103.18zM637.04 160.57l8.02051 7.56934
c-5.41016 5.41992 -7.58984 8.87988 -7.58984 16.7598v76.8701c0 13.1602 2.94043 18.1602 8.44043 26.71l-9.45996 6.08984l-84.3096 -105.12c-6.2002 -7.45996 -9.56055 -9.58984 -19.6709 -9.58984v-11.0195h88.3096c5.41016 0 10.21 -2.21973 16.2598 -8.26953z" />
    <glyph glyph-name="threequarters" unicode="&#xbe;" horiz-adv-x="915" 
d="M337.15 0h-93.541l402.771 737.23h93.54zM359.31 395.81c0 -74.9697 -61.251 -134.351 -159.251 -134.351c-101.26 0 -152.2 48.46 -168.61 113.46l99.5303 28.5801c9.87012 -30.7695 39.2002 -42.1895 67.5498 -42.1895c28.5 0 53.8398 13.1904 53.8398 44.8604
c0 39.7002 -38.0596 52.1406 -92.0596 52.1406v78.9199c45.4004 0 73.2305 13.46 73.2305 45.0898c0 24.7695 -18.3496 37.9893 -42.8594 37.9893c-28.2598 0 -44.8594 -12.2002 -52.6396 -33.6602l-96.2695 29.1201c15.2197 57.46 64.1094 102.46 151.34 102.46
c96.1797 0 147.43 -53.1699 147.43 -113.77c0 -56.0303 -40.2998 -88.5898 -64 -92.54v-10.6904c38.6699 -6.53027 82.7695 -37.1201 82.7695 -105.42zM730.759 -0.000976562v56.5713c0 7.87012 2.19043 11.3398 7.60059 16.75l-8.03027 7.59961
c-6.04004 -6.08008 -10.8398 -8.28027 -16.25 -8.28027h-196.25v92.04l226.74 273.62h89.3799v-253.4c0 -7.87988 -2.19043 -11.3398 -7.59082 -16.7598l8.09961 -7.57031c5.94043 6.0498 10.7705 8.26953 16.251 8.26953h30.3096v-96.2002h-30.3096
c-5.48047 0 -10.3105 2.2002 -16.251 8.28027l-8.09961 -7.59961c5.40039 -5.41016 7.59082 -8.87988 7.59082 -16.75v-56.5703h-103.19zM730.329 160.57l8.03223 7.56934c-5.41016 5.41992 -7.60059 8.87988 -7.60059 16.7598v76.8701
c0 13.1602 2.9502 18.1602 8.4502 26.71l-9.45996 6.08984l-84.3203 -105.12c-6.19043 -7.45996 -9.55078 -9.58984 -19.6611 -9.58984v-11.0195h88.3096c5.41016 0 10.21 -2.21973 16.25 -8.26953z" />
    <glyph glyph-name="asterisk" unicode="*" horiz-adv-x="460" 
d="M188.84 750.15l80.9258 0.000976562v-94.3096c0 -18.8398 -9.76953 -32.9199 -17.1592 -39.9199l13.1602 -8.91992c2.37988 10.0703 9.33008 25.7402 25.46 35.3799l82.1504 49l40.2305 -69.7695l-81.0703 -48.46c-16.0801 -9.61035 -33.3105 -8.45996 -43.001 -5.54004
l0.230469 -16.1504c9.61035 3 26.6904 4.61035 43 -4.68945l83.2305 -47.7002l-41.3096 -69.1504l-81.7695 46.7695c-16.2803 9.33008 -23.9199 24.9199 -26.9199 35.9199l-13.1602 -8.91992c7.38965 -7 17.1592 -21.0801 17.1592 -39.9199v-94.3096h-80.9297v94.3096
c0 18.8398 9.76953 32.9199 17.1592 39.9199l-13.1602 8.91992c-3 -11 -10.6299 -26.5898 -26.9199 -35.9199l-81.7695 -46.7695l-41.3096 69.1504l83.2402 47.7002c16.2998 9.2998 33.3799 7.68945 43 4.68945v15.9199
c-9.92969 -2.91992 -27.1797 -4.09961 -43.2393 5.54004l-80.8398 48.46l40 69.7695l82.3799 -49c16.1602 -9.61035 23.0801 -25.3105 25.2305 -35.1504l13.1602 8.91992c-7.38965 7 -17.1592 21.0801 -17.1592 39.9199v94.3096z" />
    <glyph glyph-name="backslash" unicode="\" horiz-adv-x="568" 
d="M546 0h-118.311l-406.229 740h118.31z" />
    <glyph glyph-name="periodcentered" unicode="&#xb7;" horiz-adv-x="252" 
d="M126.38 180.69c-41.9199 0 -74.3096 32.3799 -74.3096 74.3096c0 41.9199 32.3896 73.3096 74.3096 73.3096c41.9297 0 73.3096 -31.3896 73.3096 -73.3096c0 -41.9297 -31.3799 -74.3096 -73.3096 -74.3096z" />
    <glyph glyph-name="bullet" unicode="&#x2022;" horiz-adv-x="478" 
d="M239.61 203.27c-95.4404 0 -171.539 79.2402 -171.539 173.73c0 95.4404 76.2998 173.49 172.52 173.49c95.6797 0 169.79 -80.9805 169.79 -173.49c0 -94.4902 -75.3203 -173.73 -170.771 -173.73z" />
    <glyph glyph-name="colon" unicode=":" horiz-adv-x="264" 
d="M132.23 327.38c-41.9199 0 -74.3096 32.3896 -74.3096 74.3096s32.3896 73.3096 74.3096 73.3096s73.3096 -31.3896 73.3096 -73.3096s-31.3896 -74.3096 -73.3096 -74.3096zM132.23 -6.77051c-41.9199 0 -74.3096 32.3799 -74.3096 74.3096
c0 41.9199 32.3896 73.2998 74.3096 73.2998s73.3096 -31.3799 73.3096 -73.2998c0 -41.9297 -31.3896 -74.3096 -73.3096 -74.3096z" />
    <glyph glyph-name="comma" unicode="," horiz-adv-x="245" 
d="M120.15 140.84c52 0 78.3096 -39.6904 78.3096 -97.6904c0 -88.1504 -50.46 -178.69 -136.77 -180.54v60c24 4.16016 52.7695 22.54 63.6895 52.7705c3.16016 8.62012 7.69043 10.7705 14.1602 11.8506v9.08008c-11.8496 -2.24023 -20.1592 -2.31055 -23.3896 -2.31055
c-38.1504 0 -70.54 29.6904 -70.54 72.54c0 41.9199 31.3896 74.2998 74.54 74.2998z" />
    <glyph glyph-name="ellipsis" unicode="&#x2026;" horiz-adv-x="932" 
d="M118.69 -6.76953c-41.9199 0 -74.3096 32.3799 -74.3096 74.3096c0 41.9199 32.3896 73.2998 74.3096 73.2998s73.3096 -31.3799 73.3096 -73.2998c0 -41.9297 -31.3896 -74.3096 -73.3096 -74.3096zM466.311 -6.76953c-41.9297 0 -74.3096 32.3799 -74.3096 74.3096
c0 41.9199 32.3799 73.2998 74.3096 73.2998c41.9199 0 73.5303 -31.3799 73.5303 -73.2998c0 -41.9297 -31.6104 -74.3096 -73.5303 -74.3096zM814.15 -6.76953c-41.9199 0 -74.3096 32.3799 -74.3096 74.3096c0 41.9199 32.3896 73.2998 74.3096 73.2998
s73.3096 -31.3799 73.3096 -73.2998c0 -41.9297 -31.3896 -74.3096 -73.3096 -74.3096z" />
    <glyph glyph-name="exclam" unicode="!" horiz-adv-x="270" 
d="M170.69 226.07h-70.7695l-25 263.85v235.31h120.77v-235.31zM135.461 -6.76953c-41.9199 0 -74.3096 32.3799 -74.3096 74.3096c0 41.9199 32.3896 73.2998 74.3096 73.2998s73.54 -31.3799 73.54 -73.2998c0 -41.9297 -31.6201 -74.3096 -73.54 -74.3096z" />
    <glyph glyph-name="exclamdown" unicode="&#xa1;" horiz-adv-x="266" 
d="M133.07 540.77c41.9297 0 73.54 -32.3896 73.54 -74.3096s-31.6104 -73.3096 -73.54 -73.3096c-41.9199 0 -74.2998 31.3896 -74.2998 73.3096s32.3799 74.3096 74.2998 74.3096zM168.311 307.92l25 -263.85v-235.3h-120.77v235.3l25 263.85h70.7695z" />
    <glyph glyph-name="numbersign" unicode="#" horiz-adv-x="648" 
d="M600.69 415.07h-104.002l-13.46 -95.46c-2 -14.46 -4.69043 -17.6104 -9.45996 -22.3008l9.91992 -9c7.37988 6.83984 12.7695 7.45996 24.3096 7.45996h86.6904v-100h-128.77l-24.0801 -170.54h-100.23l20.3096 146c1.62012 13.6904 3.23047 17.1504 9.31055 23.1504
l-9.91992 9c-7.38965 -6.83984 -12.7695 -7.54004 -24.3896 -7.54004h-102.15l-24.0801 -170.61h-100.23l20.6904 146.77c2 14.54 6.30957 18.7705 9.91992 22.3809l-9.91992 9c-7.37988 -6.83984 -12.7695 -7.54004 -24.6895 -7.54004h-60v99.9297h102l13.2305 95.54
c2 14.5303 7.15039 18.46 10.7705 22.0703l-9.91992 9c-7.38965 -6.83984 -12.7695 -7.54004 -24.6992 -7.54004h-85.6104v100.23h126.84l22.6201 161.16h100.23l-18.8496 -136.54c-1.69043 -13.6904 -3.30078 -17.1504 -9.38086 -23.1504l9.91992 -9
c7.38965 6.83984 12.7695 7.53027 24.3096 7.53027h102.31l22.6104 161.16h100.23l-19 -137.31c-1.91992 -14.46 -4.53027 -17.6104 -9.2998 -22.3105l9.91992 -9c7.37988 6.84961 12.7695 7.45996 24.3096 7.45996h61.6904v-100zM265.309 415.07l-13 -95.459
c-2 -14.46 -4.7002 -17.6104 -9.46973 -22.3008l9.92969 -9c7.37988 6.83984 12.7695 7.45996 24.2998 7.45996h102.31l13.46 95.7695c2 14.5303 7.16016 18.46 10.7705 22.0703l-9.91992 9c-7.37988 -6.83984 -12.7695 -7.54004 -24.6895 -7.54004h-103.69z" />
    <glyph glyph-name="period" unicode="." horiz-adv-x="236" 
d="M118.69 -6.76953c-41.9199 0 -74.3096 32.3799 -74.3096 74.3096c0 41.9199 32.3896 73.2998 74.3096 73.2998s73.3096 -31.3799 73.3096 -73.2998c0 -41.9297 -31.3896 -74.3096 -73.3096 -74.3096z" />
    <glyph glyph-name="question" unicode="?" horiz-adv-x="502" 
d="M28.3799 539.46c16 109.61 97.2275 186.921 223.768 186.921c128.46 0 212.54 -82 212.54 -203.92c0 -84.54 -43.54 -129.69 -92.8496 -166.771c-45.2998 -34.3799 -78.1494 -64.2295 -78.1494 -110.999v-37.1504h-120.31v42.9199
c0 86.79 41.0801 125.08 88.3896 156.771c46 30.9199 81.1504 57.1504 81.1504 115.46c0 57.3096 -37.3096 88.6895 -95.6094 88.6895c-61 0 -101 -31.6904 -107.47 -93.3105zM233.146 -6.76953c-41.9199 0 -74.3096 32.3799 -74.3096 74.3096
c0 41.9199 32.3896 73.2998 74.3096 73.2998s73.54 -31.3799 73.54 -73.2998c0 -41.9297 -31.6201 -74.3096 -73.54 -74.3096z" />
    <glyph glyph-name="questiondown" unicode="&#xbf;" horiz-adv-x="500" 
d="M267.46 540.31c41.9199 0 74.3096 -32.3896 74.3096 -74.3096c0 -41.9297 -32.3896 -73.3096 -74.3096 -73.3096s-73.54 31.3799 -73.54 73.3096c0 41.9199 31.6201 74.3096 73.54 74.3096zM472.229 -5.93066c-16 -109.61 -97.2275 -186.92 -223.768 -186.92
c-128.46 0 -212.54 82 -212.54 203.92c0 84.54 43.5195 129.72 92.8496 166.77c45.2998 34.3896 78.1494 64.2295 78.1494 110.999v37.1602h120.31v-42.9297c0 -86.79 -41.1299 -125.021 -88.3896 -156.761c-46 -30.9297 -81.1504 -57.1602 -81.1504 -115.47
c0 -57.2998 37.3096 -88.6895 95.6191 -88.6895c61 0 101 31.6904 107.46 93.3105z" />
    <glyph glyph-name="quotedbl" unicode="&#x22;" horiz-adv-x="415" 
d="M154.77 484h-88.3105l-18.8496 256h127zM348.689 484h-88.3105l-18.8398 256h127z" />
    <glyph glyph-name="quotesingle" unicode="'" horiz-adv-x="221" 
d="M154.77 484h-88.3105l-18.8496 256h127z" />
    <glyph glyph-name="semicolon" unicode=";" horiz-adv-x="270" 
d="M133.46 327.21c-41.9199 0 -74.3096 32.3799 -74.3096 74.2998c0 41.9297 32.3896 73.3096 74.3096 73.3096s73.3096 -31.3799 73.3096 -73.3096c0 -41.9199 -31.3896 -74.2998 -73.3096 -74.2998zM133.69 140.84c52 0 78.3096 -39.6904 78.3096 -97.6904
c0 -88.1504 -50.46 -178.69 -136.77 -180.54v60c24 4.16016 52.7695 22.54 63.6895 52.7705c3.15039 8.62012 7.69043 10.7705 14.1504 11.8506v9.08008c-11.8398 -2.24023 -20.1494 -2.31055 -23.3799 -2.31055c-38.1504 0 -70.54 29.6904 -70.54 72.54
c0 41.9199 31.3896 74.2998 74.54 74.2998z" />
    <glyph glyph-name="slash" unicode="/" horiz-adv-x="568" 
d="M140.77 0h-118.31l406 740h118.31z" />
    <glyph glyph-name="underscore" unicode="_" horiz-adv-x="624" 
d="M573.61 -104.85h-523v104.85h523v-104.85z" />
    <glyph glyph-name="braceleft" unicode="{" horiz-adv-x="378" 
d="M231.23 -201.46c-73 0 -105.999 54.6904 -105.999 131v170.3c0 52.2305 -19.54 116.771 -119 119.771v98.7695c99 3 119 68 119 120v169.62c0 76.3096 33 131 106 131h121.61v-97.6904h-55.2998c-39.2305 0 -48 -30.54 -48 -65.3896v-172.92
c0 -54.46 -37.1602 -122.62 -125.16 -126.08v-15.3799c87.7695 -2.08008 125.159 -73.9297 125.159 -129.54v-170.39c0 -34.8398 8.76953 -65.3799 48 -65.3799h55.2998v-97.6904h-121.61z" />
    <glyph glyph-name="braceright" unicode="}" horiz-adv-x="378" 
d="M146.38 -201.46h-121.609v97.6904h55.2998c39.2402 0 48 30.54 48 65.3799v170.39c0 55.6104 37.3896 127.46 125.159 129.54v15.3799c-88 3.45996 -125.16 71.6201 -125.16 126.08v172.92c0 34.8496 -8.75977 65.3896 -48 65.3896h-55.2998v97.6904h121.61
c73 0 106 -54.6904 106 -131v-169.62c0 -52 20 -117 119 -120v-98.7695c-99.46 -3 -119 -67.54 -119 -119.771v-170.3c0 -76.3096 -33 -131 -106 -131z" />
    <glyph glyph-name="bracketleft" unicode="[" horiz-adv-x="381" 
d="M355.54 -87.1602v-114.07h-275.62v941.23h275.62v-114.08h-151.31v-713.08h151.31z" />
    <glyph glyph-name="bracketright" unicode="]" horiz-adv-x="381" 
d="M25.3096 -87.1602h151.3v713.08h-151.3v114.08h275.61v-941.23h-275.61v114.07z" />
    <glyph glyph-name="parenleft" unicode="(" horiz-adv-x="364" 
d="M354.38 -111.54l-54.46 -88.6914c-124 72.2305 -264 228 -264 476.23c0 248 140 404 264 476l54.46 -88.9297c-83.46 -55 -194.92 -177.46 -194.92 -386.84c0 -210.31 112.38 -333 194.92 -387.77z" />
    <glyph glyph-name="parenright" unicode=")" horiz-adv-x="364" 
d="M204.38 276.23c0 209.38 -111.46 331.841 -194.92 386.841l54.46 88.9297c124 -72 264 -228 264 -476c0 -248.23 -140 -404 -264 -476.23l-54.46 88.6904c82.54 54.7695 194.92 177.46 194.92 387.77z" />
    <glyph glyph-name="emdash" unicode="&#x2014;" horiz-adv-x="1118" 
d="M1059.23 224.77h-1000.54v110.46h1000.54v-110.46z" />
    <glyph glyph-name="endash" unicode="&#x2013;" horiz-adv-x="673" 
d="M614.23 224.77h-555.54v110.46h555.54v-110.46z" />
    <glyph glyph-name="hyphen" unicode="-" horiz-adv-x="416" 
d="M357.23 224.77h-298.54v110.46h298.54v-110.46z" />
    <glyph glyph-name="uni00AD" unicode="&#xad;" horiz-adv-x="416" 
d="M357.23 224.77h-298.54v110.46h298.54v-110.46z" />
    <glyph glyph-name="guillemotleft" unicode="&#xab;" horiz-adv-x="548" 
d="M289.69 52h-131.85l-127 201l127 199h129.85l-124 -199zM513.23 52h-131.85l-127 201l127 199h129.85l-124 -199z" />
    <glyph glyph-name="guillemotright" unicode="&#xbb;" horiz-adv-x="548" 
d="M34.8398 52l126 201l-124 199h129.85l127 -199l-127 -201h-131.85zM258.38 52l126 201l-124 199h129.85l127 -199l-127 -201h-131.85z" />
    <glyph glyph-name="guilsinglleft" unicode="&#x2039;" horiz-adv-x="325" 
d="M289.69 52h-131.85l-127 201l127 199h129.85l-124 -199z" />
    <glyph glyph-name="guilsinglright" unicode="&#x203a;" horiz-adv-x="325" 
d="M35 52l126 201l-124 199h129.84l127 -199l-127 -201h-131.84z" />
    <glyph glyph-name="quotedblbase" unicode="&#x201e;" horiz-adv-x="439" 
d="M120.15 140.84c52 0 78.3096 -39.6904 78.3096 -97.6904c0 -88.1504 -50.46 -178.69 -136.77 -180.54v60c24 4.16016 52.7695 22.54 63.6895 52.7705c3.16016 8.62012 7.69043 10.7705 14.1602 11.8506v9.08008c-11.8496 -2.24023 -20.1592 -2.31055 -23.3896 -2.31055
c-38.1504 0 -70.54 29.6904 -70.54 72.54c0 41.9199 31.3896 74.2998 74.54 74.2998zM314.381 140.84c52 0 78.3096 -39.6904 78.3096 -97.6904c0 -88.1504 -50.46 -178.69 -136.77 -180.54v60c24 4.16016 52.7695 22.54 63.6895 52.7705
c3.16016 8.62012 7.7002 10.7705 14.1602 11.8506v9.08008c-11.8496 -2.24023 -20.1592 -2.31055 -23.3896 -2.31055c-38.1504 0 -70.54 29.6904 -70.54 72.54c0 41.9199 31.3896 74.2998 74.54 74.2998z" />
    <glyph glyph-name="quotedblleft" unicode="&#x201c;" horiz-adv-x="427" 
d="M118.23 477.15c-52 0 -78.3096 39.6904 -78.3096 97.6904c0 88.1602 50.46 178.7 136.77 180.54v-60c-24 -4.15039 -52.7695 -22.54 -63.6895 -52.7705c-3.16016 -8.61035 -7.69043 -10.7705 -14.1602 -11.8408v-9.08008
c11.8496 2.23047 20.1592 2.31055 23.3896 2.31055c38.1504 0 70.54 -29.6904 70.54 -72.54c0 -41.9199 -31.3896 -74.3096 -74.54 -74.3096zM312.461 477.15c-52 0 -78.3096 39.6904 -78.3096 97.6904c0 88.1602 50.46 178.7 136.77 180.54v-60
c-24 -4.15039 -52.7695 -22.54 -63.6895 -52.7705c-3.16016 -8.61035 -7.69043 -10.7705 -14.1602 -11.8408v-9.08008c11.8496 2.23047 20.1592 2.31055 23.3896 2.31055c38.1504 0 70.54 -29.6904 70.54 -72.54c0 -41.9199 -31.3896 -74.3096 -74.54 -74.3096z" />
    <glyph glyph-name="quotedblright" unicode="&#x201d;" horiz-adv-x="428" 
d="M119.46 740.15c52 0 78.3096 -39.6904 78.3096 -97.6904c0 -88.1504 -50.46 -178.69 -136.77 -180.54v60c24 4.15039 52.7695 22.54 63.6895 52.7705c3.15039 8.62012 7.69043 10.7705 14.1504 11.8506v9.07031c-11.8398 -2.23047 -20.1494 -2.30078 -23.3799 -2.30078
c-38.1504 0 -70.54 29.6904 -70.54 72.5303c0 41.9297 31.3896 74.3096 74.54 74.3096zM313.69 740.15c52 0 78.3096 -39.6904 78.3096 -97.6904c0 -88.1504 -50.46 -178.69 -136.77 -180.54v60c24 4.15039 52.7695 22.54 63.6895 52.7705
c3.15039 8.62012 7.69043 10.7705 14.1504 11.8506v9.07031c-11.8398 -2.23047 -20.1494 -2.30078 -23.3799 -2.30078c-38.1504 0 -70.54 29.6904 -70.54 72.5303c0 41.9297 31.3896 74.3096 74.54 74.3096z" />
    <glyph glyph-name="quoteleft" unicode="&#x2018;" horiz-adv-x="234" 
d="M118.23 461.78c-52 0 -78.3096 39.6904 -78.3096 97.6904c0 88.1602 50.46 178.69 136.77 180.54v-60c-24 -4.15039 -52.7695 -22.54 -63.6895 -52.7705c-3.16016 -8.61035 -7.69043 -10.7705 -14.1602 -11.8408v-9.08008
c11.8496 2.23047 20.1592 2.31055 23.3896 2.31055c38.1504 0 70.54 -29.7002 70.54 -72.54c0 -41.9297 -31.3896 -74.3096 -74.54 -74.3096z" />
    <glyph glyph-name="quoteright" unicode="&#x2019;" horiz-adv-x="233" 
d="M118.73 739.99c52 0 78.2998 -39.7002 78.2998 -97.7002c0 -88.1504 -50.46 -178.69 -136.77 -180.53v60c24 4.15039 52.7695 22.5303 63.6992 52.7607c3.15039 8.62012 7.69043 10.7705 14.1504 11.8506v9.08008c-11.8496 -2.23047 -20.1494 -2.31055 -23.3799 -2.31055
c-38.1602 0 -70.54 29.6904 -70.54 72.54c0 41.9199 31.3799 74.3096 74.54 74.3096z" />
    <glyph glyph-name="quotesinglbase" unicode="&#x201a;" horiz-adv-x="245" 
d="M120.15 140.84c52 0 78.3096 -39.6904 78.3096 -97.6904c0 -88.1504 -50.46 -178.69 -136.77 -180.54v60c24 4.16016 52.7695 22.54 63.6895 52.7705c3.16016 8.62012 7.69043 10.7705 14.1602 11.8506v9.08008c-11.8496 -2.24023 -20.1592 -2.31055 -23.3896 -2.31055
c-38.1504 0 -70.54 29.6904 -70.54 72.54c0 41.9199 31.3896 74.2998 74.54 74.2998z" />
    <glyph glyph-name="space" unicode=" " horiz-adv-x="226" 
 />
    <glyph glyph-name="uni00A0" unicode="&#xa0;" horiz-adv-x="226" 
 />
    <glyph glyph-name="Euro" unicode="&#x20ac;" horiz-adv-x="769" 
d="M467.77 725.31c111.92 0 203.151 -42.0801 268.382 -115.85l-77.46 -73.9199c-48.2305 53.8398 -110.851 82.5303 -189.69 82.5303c-92.0801 0 -166.93 -49.1504 -211.62 -130.61l9.76953 -8.76953c5.38965 6.08008 10.8496 9.91992 23.3896 9.91992h153.46
l-11.54 -102.92h-187.23c-7.30957 0 -14.6191 4.08008 -20.6191 10.0801l-9.76953 -8.76953c6 -6 9.30957 -11.3096 9.30957 -21.8496v-26.3799c0 -10.54 -3.30957 -15.8496 -9.30957 -21.8496l9.76953 -8.76953c6 6 13.3096 10.0801 20.6191 10.0801h198.77l-11.54 -102.92
h-140.62c-9.2998 0 -15.2295 3.45996 -20.6094 9.2998l-9.76953 -8.76953c45.9199 -76.9199 119.38 -121.15 205.31 -121.15c77.2998 0 142.92 33.1504 192.689 79.7705l76.46 -75.2305c-70.1504 -74.8496 -160 -112.229 -269.15 -112.229
c-150.31 0 -281.39 90.9199 -334.159 228.31h-98.2305l11.54 102.92h38.2305c7.30957 0 14.6191 -4.08008 20.6191 -10.0801l9.76953 8.76953c-6 6 -9.30957 11.3096 -9.30957 21.8496v26.3799c0 10.54 3.30957 15.8496 9.30957 21.8496l-9.76953 8.76953
c-6 -6 -13.3096 -10.0801 -20.6191 -10.0801h-49.7695l11.54 102.92h84.54c51.7695 139.85 182.229 236.699 337.31 236.699z" />
    <glyph glyph-name="cent" unicode="&#xa2;" horiz-adv-x="539" 
d="M231.15 740l102.079 -0.00195312v-123c77.3096 -10.7695 132.84 -51.6895 172.609 -117.31l-97.9199 -57.54c-14.3096 25.3096 -31.9199 42.6191 -53.54 54.6191c-9.30957 5.2998 -15.54 11.0693 -20.2305 16.7695l-8.76953 -9.76953
c5.54004 -4.76953 7.84961 -9.30957 7.84961 -18.3096v-227.39c0 -9 -2.30957 -13.5303 -7.84961 -18.2998l8.76953 -9.76953c4.69043 5.45996 11.1602 11.4404 20.5098 16.7705c20 11.96 39.6504 30.3799 53.9502 54.8398l97.7002 -58.54
c-39.7695 -64.2998 -95.5391 -106 -173.079 -117.53v-125.54h-102.08v129.54c-111.77 25.6904 -193.229 120.921 -193.229 240.461c0 120.84 81.2305 218 193.23 243v127zM155.77 369.998c0 -47.0801 23.2998 -86.1582 51.9199 -111.389
c9.30957 -8.07031 15.54 -14.6104 20.2305 -20.0703l8.76953 9.76953c-5.54004 4.75977 -5.54004 9.2998 -5.54004 18.2998v208.85c0 9 0 13.54 5.54004 18.3096l-8.76953 9.76953c-4.69043 -5.46973 -10.9209 -12.2295 -20.2305 -20.0791
c-28.46 -24.3896 -51.9199 -63.7695 -51.9199 -113.46z" />
    <glyph glyph-name="currency" unicode="&#xa4;" horiz-adv-x="673" 
d="M336.54 585.46c-47.2305 0 -87.085 -9.62012 -123.705 -30.3105c-4.2998 -2.61035 -7.06934 -6.91992 -7.45898 -15.6104h-12c-0.379883 8.69043 -3.14941 12.9209 -6.68945 16.3008l-74.3799 74.3896l-64.7002 -64.6904l71.8496 -71.6201
c3.45996 -3.54004 9.08008 -6.69043 17.7705 -7.08008v-12c-8.69043 -0.379883 -13.54 -2.91992 -16.3096 -6.61035c-20.3799 -32.46 -33.2295 -75.3896 -33.2295 -121.08c0 -45.3799 12.6904 -87.9199 32.8506 -120.38c2.76953 -4.08008 7.45996 -7.08008 16.1504 -7.45996
v-12c-8.69043 -0.389648 -14.54 -3.15918 -17.8496 -6.61914l-71.46 -71.46l64.6904 -64.6904l74.2402 74.46c3.69043 3.45996 6.9209 7.45996 7.30078 16.1504h12c0.389648 -8.69043 2.15918 -13.3105 7.45898 -16.6904c32.54 -18.3896 76.2402 -30.3896 123.471 -30.3896
s90.6904 11.7695 123.23 30.1592c5.2998 3.15039 7.2998 8 7.68945 16.6904h12c0.379883 -8.69043 3.14941 -12.9209 6.84961 -16.3809l74 -74l64.6904 64.6904l-71.46 71.2305c-3.30957 3.45996 -8.92969 6.69043 -17.6201 7.08008v12
c8.69043 0.379883 13.3906 2.91992 16.3906 7c20.1504 32.46 33.0703 75.2295 33.0703 120.84c0 45.6904 -13.0703 88.3906 -33.46 121.311c-2.54004 3.69043 -7.61035 6.45996 -16.3105 6.84961v12c8.7002 0.379883 14.54 3.07031 18 6.61035l71.3896 71.3896
l-64.6904 64.6904l-74.1602 -74.3896c-3.54004 -3.37988 -6.77051 -7.37988 -7.15039 -16.0703h-12c-0.389648 8.69043 -2.68945 13 -6.99902 15.8398c-33.1602 18.1602 -76.46 29.8506 -123.46 29.8506zM336.535 212.77c-75.54 0 -132.469 57.7695 -132.469 134.38
c0 75.8496 56.7002 133.85 132.47 133.85s132.229 -58 132.229 -133.85c0 -76.3799 -56.7002 -134.38 -132.23 -134.38z" />
    <glyph glyph-name="dollar" unicode="$" horiz-adv-x="560" 
d="M95 170.69c34.3096 -31.6904 73.1533 -56.999 124.844 -69.9189c10.8496 -3.08008 15.6992 -10.0801 22.1592 -16.9297l9.76953 8.76953c-5.76953 5.54004 -8.84961 11.54 -8.84961 21.6201v206.84c-91.54 36.3096 -175.23 85.8496 -175.23 202.77
c0 105.85 68.3799 177.22 175.229 195v83.7002h102.08v-81.3896c56.3096 -6.45996 107.149 -26.6904 156.31 -64.2305l-57 -89.3096c-27.2402 19.0801 -51.0801 31.1602 -77.0801 39.6201c-8.08008 2.91992 -15.0801 9.45996 -21.0801 15.6104l-9.76953 -8.53027
c5.54004 -5.54004 8.62012 -11.3096 8.62012 -21.3896v-187.69c91.3096 -36.0801 173.77 -82.6904 173.77 -208.23c0 -110 -62.2305 -183.62 -173.771 -203.46v-85.0801h-102.08v80.6104c-78.54 5.84961 -153.08 34.3096 -213.69 91.0791zM183.384 531.151
c0 -32.3799 16.0801 -53.8379 36.7705 -69.5381c9.91992 -7.76953 17 -14.9199 21.3896 -19.8398l8.37988 10.0703c-6.15039 4.76953 -7 8.69922 -7 21.1592v112.38c0 10.3096 3.08008 16.0791 8.62012 21.6191l-9.54004 9c-6.23047 -6.38965 -13 -11.6201 -21.46 -17.0801
c-20.4697 -12.6904 -37.1602 -34.0801 -37.1602 -67.7705zM401.844 190.924c0 30.6201 -12.46 52.0791 -34 70.0791c-9.91992 8.91992 -17.0703 15.3799 -21.46 20.54l-8.37988 -10.0801c6.15039 -4.76953 7 -8.68945 7 -20.999v-123.31
c0 -10.54 -3.08008 -15.8398 -8.62012 -21.3799l9.54004 -9c5.38965 6.37988 11.7695 13.2998 21 20.2998c22.3896 16.54 34.9199 42.3896 34.9199 73.8496z" />
    <glyph glyph-name="florin" unicode="&#x192;" horiz-adv-x="375" 
d="M118.38 545.46c0 99.46 64.541 191.991 186.851 191.991c17.3096 0 31.54 -0.769531 47.54 -4.30957v-107.92h-2.45996c-3.7002 0 -13.7002 1.76953 -29.4697 1.76953c-59.6104 0 -85.6904 -33.1602 -85.6904 -86.1602v-46.0703
c0 -9.76953 -3.30957 -14.3096 -9.30957 -20.3096l9.76953 -9.54004c6.76953 6.76953 12.5391 10.0791 19.8486 10.0791h81.9199v-110.62h-81.9199c-7.30957 0 -13.0791 3.30957 -19.8486 10.0791l-9.76953 -9.54004c6 -6 9.30957 -10.54 9.30957 -20.3096v-324.07
c0 -120.16 -63.46 -199.851 -179.61 -199.851c-17.3096 0 -31.54 0.769531 -47.54 4.30957v107.92c6.88965 -1 20.21 -1.75977 31.9199 -1.75977c53.3896 0 78.46 31.54 78.46 94v319.46c0 9.76953 3.30957 14.3096 9.30957 20.3096l-9.76953 9.54004
c-6.76953 -6.76953 -12.5391 -10.0791 -19.8486 -10.0791h-57.8398v110.62h57.8398c7.30957 0 13.0791 -3.30957 19.8486 -10.0791l9.76953 9.54004c-6 6 -9.30957 10.54 -9.30957 20.3096v50.6904z" />
    <glyph glyph-name="sterling" unicode="&#xa3;" horiz-adv-x="600" 
d="M50.46 0l0.000976562 109.69h27c41.3799 25.9199 66 73.0801 66 126c0 21.6904 -3.76953 45.6904 -10 68.6201h-78v103.38h36.3096c7.2998 0 15.3799 -4.08008 20.6104 -10.0801l9.76953 8.76953c-14 25.6904 -22.6904 60.7705 -22.6904 101.931
c0 130.38 85.2305 214.689 224 214.689c103.77 0 179.539 -56.8496 206.379 -140.159l-104.07 -39.2998c-14.2305 46.46 -49.7002 74.2998 -100.23 74.2998c-72.9297 0 -110.16 -43.3799 -110.16 -114.92c0 -37.1504 8.54004 -66.2305 23.9297 -95.2305h156.84v-103.38
h-119.08c-8.07031 0 -15.3799 3.2998 -22.1494 10.0693l-9.76953 -8.76953c9.54004 -11.0703 14.7705 -30 14.7705 -70.1504c0 -51 -17.3799 -86.3096 -56.7695 -112.229v-13.54h153.08c69.54 0 99.2305 28.54 99.2305 97.6904h111.38
c0 -130.15 -67.7695 -207.381 -185.689 -207.381h-330.69z" />
    <glyph glyph-name="yen" unicode="&#xa5;" horiz-adv-x="683" 
d="M280.69 0l0.00390625 79.458c0 8.23047 3.30957 14.3105 9.30957 20.3105l-9.76953 8.76953c-6 -6 -12.54 -10.0801 -20.6201 -10.0801h-162.23v99.0801h162.23c7.30957 0 14.6191 -4.08008 20.6191 -10.0801l9.76953 8.76953c-6 6 -9.30957 11.3096 -9.30957 21.8398
v26.3896c0 10.54 3.30957 15.8496 9.30957 21.8496l-9.76953 8.75977c-6 -6 -13.3096 -10.0703 -20.6191 -10.0703h-162.23v99.0703h113.85c10.54 0 16.6104 -3.75977 23.3799 -10.7598l9.76953 8.75977l-216.69 345.93h135.08l168.61 -284.85c5.23047 -9 6 -18 6 -23
h12.7695c0 5 0 14 5 22l166.62 285.85h131.07l-217.46 -345.93l9.76953 -8.75977c6 6.23047 12.8496 10.7607 24.1592 10.7607h121.84v-99.0703h-171.23c-7.30957 0 -14.6094 4.07031 -20.6094 10.0703l-9.76953 -8.75977c6 -6 9.2998 -11.3096 9.2998 -21.8496v-26.3896
c0 -10.5303 -3.2998 -15.8398 -9.2998 -21.8398l9.76953 -8.76953c6 6 13.2998 10.0801 20.6094 10.0801h171.23v-99.0801h-171.23c-8.08008 0 -14.6104 4.08008 -20.6104 10.0801l-9.76953 -8.76953c6 -6 9.2998 -11.3096 9.2998 -21.8496v-77.9199h-118.15z" />
    <glyph glyph-name="plus" unicode="+" horiz-adv-x="615" 
d="M363.46 70.7695h-112.23v219h-218.77v112.23h218.77v219h112.23v-219h219v-112.23h-219v-219z" />
    <glyph glyph-name="minus" unicode="&#x2212;" horiz-adv-x="674" 
d="M611.92 289.77h-550v112.23h550v-112.23z" />
    <glyph glyph-name="multiply" unicode="&#xd7;" horiz-adv-x="571" 
d="M443.69 108.69l-158 158l-158 -158l-79.0801 78.8496l158.23 158.23l-158 157.77l78.8496 79.0703l158 -158l158 158l78.8496 -79.0703l-157.77 -157.77l158 -158.23z" />
    <glyph glyph-name="divide" unicode="&#xf7;" horiz-adv-x="634" 
d="M316.77 455.92c-41.9297 0 -74.3096 32.3896 -74.3096 74.3096s32.3799 73.3096 74.3096 73.3096c41.9199 0 73.2998 -31.3896 73.2998 -73.3096s-31.3799 -74.3096 -73.2998 -74.3096zM41.7695 402h550v-112.23h-550v112.23zM316.77 88.2305
c-41.9297 0 -74.3096 32.3799 -74.3096 74.3096c0 41.9199 32.3799 73.5303 74.3096 73.5303c41.9199 0 73.2998 -31.6104 73.2998 -73.5303c0 -41.9297 -31.3799 -74.3096 -73.2998 -74.3096z" />
    <glyph glyph-name="equal" unicode="=" horiz-adv-x="654" 
d="M592.46 405.92h-530.54v112.23h530.54v-112.23zM592.46 173.84h-530.54v112.23h530.54v-112.23z" />
    <glyph glyph-name="greater" unicode="&#x3e;" horiz-adv-x="498" 
d="M474.07 346l-343 -340l-83.8398 78.0703l266.15 261.93l-266.15 260.92l83.8398 79.0801z" />
    <glyph glyph-name="less" unicode="&#x3c;" horiz-adv-x="497" 
d="M450.31 84.0703l-83.8506 -78.0703l-343 340l343 340l83.6104 -79.0801l-265.92 -260.92z" />
    <glyph glyph-name="plusminus" unicode="&#xb1;" horiz-adv-x="659" 
d="M385.46 172.15h-112.23v192.46h-218.77v112.23h218.77v192.47h112.23v-192.47h219v-112.23h-219v-192.46zM54.46 112.23h550v-112.23h-550v112.23z" />
    <glyph glyph-name="asciitilde" unicode="~" horiz-adv-x="648" 
d="M502.77 397h90.6104c0 -110.16 -55.0703 -173.46 -151.61 -173.46c-95 0 -138 80 -218.31 80c-42 0 -69.6904 -26.2305 -69.6904 -70.54h-90.6201c0 111.69 58.1602 173.46 153.46 173.46c114.7 0 147.16 -80 216.46 -80c42 0 69.7002 26.2305 69.7002 70.54z" />
    <glyph glyph-name="logicalnot" unicode="&#xac;" horiz-adv-x="672" 
d="M600.61 70.7695h-112.229v220h-443.771v112.23h556v-332.23z" />
    <glyph glyph-name="uni00B5" unicode="&#xb5;" horiz-adv-x="589" 
d="M77.9199 -231v706h116.77v-248.08c0 -82.8496 26.3799 -129.149 104.62 -129.149c79.7598 0 104.609 46.2998 104.609 129.149v248.08h116.77v-264.31c0 -156.69 -94.46 -223.69 -212.31 -223.69c-56.1504 0 -81.1504 10.1504 -115.46 36.1504l-9.76953 -9.54004
c6.08008 -6.2998 11.54 -11 11.54 -25v-219.61h-116.77z" />
    <glyph glyph-name="percent" unicode="%" horiz-adv-x="879" 
d="M407.23 572.31c0 -103 -86 -187 -189 -187s-189 84 -189 187s86 187 189 187s189 -84 189 -187zM290.07 -0h-102.38l406 740h102.38zM218.23 488.07c46.46 0 82.2295 37.7695 82.2295 84.2393c0 46.46 -35.7695 83.46 -82.2295 83.46s-82.2295 -37 -82.2295 -83.46
c0 -46.4697 35.7695 -84.2393 82.2295 -84.2393zM849.461 173c0 -103 -86 -187 -189 -187s-189 84 -189 187s86 187 189 187s189 -84 189 -187zM660.461 88.54c46.46 0 82.2295 38 82.2295 84.46s-35.7695 83.2295 -82.2295 83.2295s-82.2295 -36.7695 -82.2295 -83.2295
s35.7695 -84.46 82.2295 -84.46z" />
    <glyph glyph-name="perthousand" unicode="&#x2030;" horiz-adv-x="1288" 
d="M407.23 572.31c0 -103 -86 -187 -189 -187s-189 84 -189 187s86 187 189 187s189 -84 189 -187zM290.07 -0h-102.38l406 740h102.38zM218.23 488.07c46.46 0 82.2295 37.7695 82.2295 84.2393c0 46.46 -35.7695 83.46 -82.2295 83.46s-82.2295 -37 -82.2295 -83.46
c0 -46.4697 35.7695 -84.2393 82.2295 -84.2393zM849.461 173c0 -103 -86 -187 -189 -187s-189 84 -189 187s86 187 189 187s189 -84 189 -187zM1259.46 173c0 -103 -86 -187 -189 -187s-189 84 -189 187s86 187 189 187s189 -84 189 -187zM660.461 88.54
c46.46 0 82.2295 38 82.2295 84.46s-35.7695 83.2295 -82.2295 83.2295s-82.2295 -36.7695 -82.2295 -83.2295s35.7695 -84.46 82.2295 -84.46zM1070.46 88.54c46.46 0 82.2295 38 82.2295 84.46s-35.7695 83.2295 -82.2295 83.2295s-82.2295 -36.7695 -82.2295 -83.2295
s35.7695 -84.46 82.2295 -84.46z" />
    <glyph glyph-name="uniF8FF" unicode="&#xf8ff;" horiz-adv-x="881" 
d="M236.3 704h365.399v-117.8h-241.6v-185.5c127.7 -45.2002 248.5 -156.101 385 -156.101c25.5 0 46.2002 3.90039 46.2002 3.90039s-20.7002 -31.4004 -95.2998 -31.4004c-110 0 -237.7 59.9004 -335.9 110.9v-328h-123.8v379.1s-23.5 9.7998 -51 9.7998
c-41.2998 0 -76.5996 -17.5996 -76.5996 -55.8994c0 -25.5996 14.7002 -48.1992 36.2998 -55.999c-34.4004 1.90039 -55 25.5 -55 61.7998c0 51.0996 44.2002 88.3994 123.8 88.3994c5.7998 0 13.7002 0 22.5 -1.90039v278.7z" />
    <glyph glyph-name="at" unicode="@" horiz-adv-x="951" 
d="M39.6904 229.31c0 300.76 227.461 456.069 453.461 456.069c206.46 0 412.46 -131.46 412.46 -389.54c0 -151.53 -70.2998 -279.53 -196.54 -279.53c-53.7598 0 -97.46 32.6104 -97.46 69.3799c0 6.30957 1.08008 12.6895 5.7002 18.3096l-9.38965 8.30957
c-25.9199 -35.3896 -70.8496 -86.2393 -156.77 -86.2393c-116.69 0 -203.54 94.7002 -202.92 207.851c0.610352 116.54 86.6904 207.23 203.61 208.69c52.9297 0.620117 89.9297 -15.0703 123.85 -47.1504l8.54004 8.30957
c-6.62012 6.15039 -10.0801 12.9199 -10.0801 21.54v8.53027h103.85v-254.77c1.07031 -36.7598 15.1504 -56.5293 43.6104 -56.5293c48.3096 0 77.0791 74.5303 77.0791 159.3c0 138.62 -87.0801 296.311 -298.46 296.311c-169.85 0 -351.08 -93.8398 -351.08 -349.08
c0 -237.61 163.31 -347.841 335.39 -347.841c73.3799 0 144.2 25.4102 202.47 62.5703l55.2598 -84.96c-61 -40 -143.66 -78.5303 -261.66 -78.5303c-235.46 0 -440.92 164 -440.92 449zM349.071 233.92c0 -66.6104 45.3086 -117.229 112.078 -117.229
c68 0 113.54 50.46 113.54 117c0 66.7695 -45.7695 118.079 -113.539 118.079c-66.7695 0 -112.079 -51.46 -112.079 -117.85z" />
    <glyph glyph-name="ampersand" unicode="&#x26;" horiz-adv-x="704" 
d="M145.69 378.07c22 15.3096 37.1533 17.7021 46.543 17.7021v12.7695c-9.38965 0.230469 -19.3896 4.69043 -32.0801 18.0703c-33.54 30.9297 -54.2305 78.9297 -54.2305 131.16c0 94 65.3896 167.38 187.92 167.38c118.85 0 182 -72.46 182 -155.15
c0 -82.9297 -42.2998 -123.46 -103.92 -164.62c-14.1504 -9.45996 -29.9199 -10.8398 -38.1504 -10.8398v-12.7695c8 0 16.2998 -1.54004 26.0693 -12.0801l98.7695 -109.15c13 -14.3096 15.3896 -27.9297 15.3896 -35.2295h12.7695
c0 7.2998 1.15039 20.6895 11.7705 35.2295l52.8398 72.46h135.16l-136.23 -176l138.46 -157h-142.23l-55.6201 63.7695c-10.6104 12.0703 -11.8506 26.8398 -11.8506 34.3799h-12.7598c0 -7.54004 -2.30957 -22.7705 -15.0791 -36.3809
c-37.8496 -40.46 -95 -71.7695 -192.39 -71.7695c-121.46 0 -220.53 69.7695 -220.53 201.689c0 93.9199 55 151.62 107.38 186.38zM219.384 561.073c0 -36.6904 18 -62.6914 57.0801 -102.611c58.7695 36.0801 86.7695 63.2305 86.7695 104.461
c0 41 -27.8496 69.3096 -70.54 69.3096c-42 0 -73.3096 -28.3896 -73.3096 -71.1592zM245.313 331.542c-67 -42 -94.2393 -77.3105 -94.2393 -133.16c0 -65.0703 45.9297 -108.61 109.85 -108.61c57 0 95.7695 19.2305 142.149 67.54z" />
    <glyph glyph-name="paragraph" unicode="&#xb6;" horiz-adv-x="741" 
d="M599.23 -193l-101.688 0.000976562v838.07h-106v-838.07h-101.93v447.31c-149.69 15 -261.921 97.2998 -261.921 240c0 122.84 83 245.689 268.38 245.689h411.39v-94.9297h-108.23v-838.07z" />
    <glyph glyph-name="section" unicode="&#xa7;" horiz-adv-x="549" 
d="M285.92 732.54c71.1504 0 134.079 -20.8496 178.229 -79.2295l-69.9199 -71.7002c-29.6904 31.9297 -66.6201 45.7695 -113 45.7695c-53 0 -88.3096 -24.6904 -88.3096 -68.46c0 -49.9199 55.54 -65.2295 123.39 -95.7695c102 -45.54 197.15 -75.2305 197.15 -202.15
c0 -61.3896 -42.2305 -126.54 -85.2305 -129.23v-14.2305c18.0801 -3.92969 51.1504 -34.8496 51.1504 -115.85c0 -106.69 -84.8398 -180.54 -216.84 -180.54c-75.6201 0 -147.54 32.6201 -193.16 85.6201l67.6904 80.54c28.3896 -28.3096 68.6992 -61.1592 128.77 -61.1592
c64.3096 0 100.39 28.7695 100.39 74.0791c0 54.2305 -58.0801 75 -147.39 117.08c-87.1504 41.0703 -186 78.2305 -186 193.07c0 81.9297 62 128 92.3096 131.46v13.6201c-15.6904 6 -45 37.46 -45 99.46c0 112.54 93.6201 177.62 205.771 177.62zM145.839 323
c0 -54.1602 60.54 -73.9297 136.47 -108.31c26.2305 -12.1504 50.8408 -23.1504 73.4609 -34.46c23.6904 15 44.6104 40.3096 44.6104 73.0791c0 50.3799 -61.6904 72.5303 -137.381 107.84l-69.0801 32.7705c-28.1504 -14.54 -48.0801 -38 -48.0801 -70.9199z" />
    <glyph glyph-name="copyright" unicode="&#xa9;" horiz-adv-x="813" 
d="M407.38 725.07c206.23 0 364.46 -162.3 364.46 -369.3c0 -203.54 -158.23 -368.54 -364.69 -368.54c-207.77 0 -366.229 160.54 -366.229 368.54c0 203.38 158.46 369.3 366.46 369.3zM407.069 644c-159.84 0 -281.07 -122.158 -281.07 -288.309
c0 -169.69 122.15 -287.381 281.311 -287.381c158.07 0 279.46 121.53 279.46 287.38c0 166.77 -123.16 288.31 -279.7 288.31zM414.31 235.922c47.3799 0 76.6924 24.6201 100.532 60.6201l84.6201 -50.3896c-41.46 -67.6104 -94.6201 -105.38 -193.54 -105.38
c-119.46 0 -210.54 93.7695 -210.54 212.84c0 122.93 90.54 216.16 215.85 216.16c93.3799 0 146.46 -36.46 188.84 -105.16l-85.1504 -49.6104c-21.54 35.3799 -50.7705 59.3096 -100.851 59.3096c-68 0 -114.23 -55.1602 -114.23 -120.47
c0 -66.8398 47.7695 -117.92 114.47 -117.92z" />
    <glyph glyph-name="registered" unicode="&#xae;" horiz-adv-x="813" 
d="M407.38 725.07c206.23 0 364.46 -162.3 364.46 -369.3c0 -203.54 -158.23 -368.54 -364.69 -368.54c-207.77 0 -366.229 160.54 -366.229 368.54c0 203.38 158.46 369.3 366.46 369.3zM407.069 644c-159.84 0 -281.07 -122.158 -281.07 -288.309
c0 -169.69 122.15 -287.381 281.311 -287.381c158.07 0 279.46 121.53 279.46 287.38c0 166.77 -123.16 288.31 -279.7 288.31zM436.689 566.612c78.0801 0 144.149 -44.54 144.149 -130.3c0 -69.3096 -45.1504 -111.54 -100.61 -121.08v-11.2305
c8.37988 0 15.6699 -5.03027 22.6104 -15.9307l81.9297 -128.46h-104.31l-89.1504 150.54h-29.7695v-150.31h-97.7695v406.771h172.92zM435.538 394.462c28.9199 0 50.6094 13.5391 50.6094 44.2295c0 29.9199 -20.3096 44.0801 -50.6094 44.0801h-74v-88.3096h74z" />
    <glyph glyph-name="trademark" unicode="&#x2122;" horiz-adv-x="812" 
d="M218.31 348.31h-93.7705v275.53h-90.3096v84.1602h273.38v-84.1602h-89.2998v-275.53zM361.309 348.31v359.69h93.46l96.1504 -126l102.39 126h88v-359.69h-95.3096v197.61c0 15.1504 6.23047 23.1504 9.69043 28.2305l-9.54004 6.08008l-79.2305 -100.62h-32
l-80.0801 99.8496l-9.53027 -6.08008c3.45996 -5.07031 9.75977 -13.0703 9.75977 -28.2305v-196.84h-93.7598z" />
    <glyph glyph-name="degree" unicode="&#xb0;" horiz-adv-x="368" 
d="M333.92 570c0 -83 -67 -150 -150 -150s-150 67 -150 150s67 150 150 150s150 -67 150 -150zM263.229 570c0 44.3799 -34.9199 79.3096 -79.3096 79.3096c-44.3799 0 -79.54 -34.9297 -79.54 -79.3096c0 -44.3896 35.1602 -79.54 79.54 -79.54
c44.3896 0 79.3096 35.1504 79.3096 79.54z" />
    <glyph glyph-name="bar" unicode="|" horiz-adv-x="280" 
d="M199.92 -140h-120v848h120v-848z" />
    <glyph glyph-name="brokenbar" unicode="&#xa6;" horiz-adv-x="287" 
d="M203.69 382.31h-120.77v325.69h120.77v-325.69zM203.69 -140h-120.77v333.07h120.77v-333.07z" />
    <glyph glyph-name="dagger" unicode="&#x2020;" horiz-adv-x="595" 
d="M237.54 708h119.84v-196.62c0 -12.0703 -4.07031 -16.6104 -8.54004 -21.0703l9 -9.54004c5.23047 5.23047 12.54 10.0703 20.6201 10.0703h162.54v-105.23h-162.54c-8.08008 0 -15.3896 4.84961 -20.6201 9.30957l-9 -8.76953
c4.46973 -5.23047 8.54004 -9.77051 8.54004 -21.0801v-505.07h-119.84v505.07c0 11.3096 4.07031 15.8496 8.53027 21.0801l-9 8.76953c-5.23047 -4.45996 -12.5303 -9.30957 -20.6104 -9.30957h-162.77v105.23h162.77c8.08008 0 15.3799 -4.83984 20.6104 -10.0703
l9 9.54004c-4.45996 4.45996 -8.53027 9 -8.53027 21.0703v196.62z" />
    <glyph glyph-name="daggerdbl" unicode="&#x2021;" horiz-adv-x="595" 
d="M237.54 708l119.84 -0.000976562v-196.62c0 -12.0703 -4.07031 -16.6104 -8.54004 -21.0703l9 -9.54004c5.23047 5.23047 12.54 10.0703 20.6201 10.0703h162.54v-105.23h-162.54c-8.08008 0 -15.3896 4.84961 -20.6201 9.30957l-9 -8.76953
c4.46973 -5.23047 8.54004 -9.77051 8.54004 -21.0801v-162.15c0 -11.3096 -10.6104 -16.2295 -8.54004 -21.0791l9 -8.76953c4.84961 -2.07031 12.54 9.30957 20.6201 9.30957h162.54v-105.23h-162.54c-8.08008 0 -15.6201 12.7695 -20.6201 10.0791l-9 -9.54004
c-1.53027 -4.62012 8.54004 -9 8.54004 -21.0801v-196.61h-119.84v196.61c0 12.0801 10.0703 16.46 8.53027 21.0801l-9 9.54004c-5 2.69043 -12.5303 -10.0791 -20.6104 -10.0791h-162.77v105.23h162.77c8.08008 0 15.3799 -4.83984 20.6104 -9.30957l9 8.76953
c-4.45996 5.23047 -8.53027 9.77051 -8.53027 21.0801v162.15c0 11.3096 4.07031 15.8496 8.53027 21.0801l-9 8.76953c-5.23047 -4.45996 -12.5303 -9.30957 -20.6104 -9.30957h-162.77v105.23h162.77c8.08008 0 15.3799 -4.83984 20.6104 -10.0703l9 9.54004
c-4.45996 4.45996 -8.53027 9 -8.53027 21.0703v196.62z" />
    <glyph glyph-name="asciicircum" unicode="^" horiz-adv-x="590" 
d="M227.46 740l134.771 -0.000976562l194 -404h-123.08l-126.61 276.61c-6.16016 13.54 -6.77051 24.7002 -6.77051 33.3906h-12.7695c0 -7.92969 0.379883 -19.7695 -5.77051 -33.3896l-124.69 -276.61h-123.08z" />
    <glyph glyph-name="ampersand.ss01" horiz-adv-x="769" 
d="M28.8398 236.38c0 130.85 100.62 243.691 217 243.691c15.3096 0 27.54 -4.23047 33.3096 -9.46094l10.0801 8.76953l-88 121.62v107h439.15v-107.46h-270.54c-12.7695 0 -21.2295 7.91992 -25.7695 11.9199l-9.23047 -8.54004l439.31 -603.92h-136.84l-116.54 162
l-9.38965 -7.92969c-19.3096 -97.2305 -109 -165.301 -227.23 -165.301c-146.38 0 -255.31 110.07 -255.31 247.61zM147.149 236.382c0 -80.6104 58.54 -141.15 137 -141.15c78.0801 0 135.39 60.54 135.39 141.61c0 81.7002 -57.3096 142.47 -135.39 142.47
c-78.46 0 -137 -60.7695 -137 -142.93z" />
    <glyph glyph-name="uni0308" unicode="&#x308;" 
d="M-329.54 563.77c-41.9199 0 -74.3096 32.3799 -74.3096 74.2998c0 41.9297 32.3896 73.3096 74.3096 73.3096s73.3096 -31.3799 73.3096 -73.3096c0 -41.9199 -31.3896 -74.2998 -73.3096 -74.2998zM-126 563.77c-41.9297 0 -74.3096 32.3799 -74.3096 74.2998
c0 41.9297 32.3799 73.3096 74.3096 73.3096c41.9199 0 73.3096 -31.3799 73.3096 -73.3096c0 -41.9199 -31.3896 -74.2998 -73.3096 -74.2998z" />
    <glyph glyph-name="uni0307" unicode="&#x307;" 
d="M-133.7 576.77c-41.9199 0 -74.2998 32.3799 -74.2998 74.2998c0 41.9297 32.3799 73.3096 74.2998 73.3096c41.9297 0 73.3096 -31.3799 73.3096 -73.3096c0 -41.9199 -31.3799 -74.2998 -73.3096 -74.2998z" />
    <glyph glyph-name="gravecomb" unicode="&#x300;" 
d="M-102.31 525.84l-225.31 118.16l56 100.92l222.54 -126.15z" />
    <glyph glyph-name="acutecomb" unicode="&#x301;" 
d="M-274.39 525.84l-53.2295 92.7002l222.77 126.38l56 -100.46z" />
    <glyph glyph-name="uni030B" unicode="&#x30b;" 
d="M-410.85 521.46l-83.6104 47.6904l121.15 205.77l98.6104 -59.1504zM-190.31 521.46l-83.6191 47.6904l121.93 205.77l97.8398 -59.1504z" />
    <glyph glyph-name="uni0302" unicode="&#x302;" 
d="M-339.69 528.84l-64.54 66.8496l145.69 144.69h66l143.69 -144.69l-65.54 -66.8496l-112.69 105.08z" />
    <glyph glyph-name="uni030C" unicode="&#x30c;" 
d="M-260.54 531l-143.69 144.69l65.54 66.8496l111.15 -104.31l114.15 104.31l64.54 -66.8496l-145.69 -144.69h-66z" />
    <glyph glyph-name="uni0306" unicode="&#x306;" 
d="M-200.54 553.31c-107.39 0 -149.392 66.7598 -149.392 144.3h85.0801c0 -37.6104 20.6904 -61.3799 63.3105 -61.3799c42.6104 0 64.3105 22.7695 64.3105 61.3799h85.0703c0 -78.54 -43.5303 -144.3 -148.38 -144.3z" />
    <glyph glyph-name="uni030A" unicode="&#x30a;" 
d="M-159.7 526.92c-59.5303 0 -109.84 50.3096 -109.84 109.85c0 59.2998 49.3096 110.84 109.84 110.84c61.3096 0 110.85 -49.54 110.85 -110.84c0 -60.54 -50.54 -109.85 -110.85 -109.85zM-159.7 597.15c21.7002 0 40.3906 16.6904 40.3906 39.6201
c0 22.6904 -17.6904 40.3809 -40.3906 40.3809c-21.9199 0 -39.6104 -18.6904 -39.6104 -40.3809c0 -21.9297 17.6904 -39.6201 39.6104 -39.6201z" />
    <glyph glyph-name="tildecomb" unicode="&#x303;" 
d="M-156.7 551c-55 0 -99 41 -143 41c-25 0 -46 -13 -64 -30l-49.8398 84.6904c29 27 67 48 107 48c57 0 97 -41 141 -41c23 0 47 12 68 33l44.8398 -82.6904c-30 -33 -66 -53 -104 -53z" />
    <glyph glyph-name="uni0304" unicode="&#x304;" 
d="M-408.39 565.69v100.62h355.7v-100.62h-355.7z" />
    <glyph glyph-name="uni0327" unicode="&#x327;" 
d="M-148.23 -238.77c-61.7002 0 -113.998 25.4609 -117.848 101.771h72.3799c2.76953 -23.8496 21.6992 -36.9297 42.6191 -36.9297c24 0 41.46 16.0801 41.46 39.7002c0 27.46 -17.46 41.2295 -45.3799 41.2295h-66l24.0703 93h63.3896l-7.62012 -31.1602h5.92969
c56.5303 0 106.3 -28.2305 106.3 -100.841c0 -54.46 -38.6104 -106.77 -119.301 -106.77z" />
    <glyph glyph-name="uni0328" unicode="&#x328;" 
d="M-74.54 -202.39c-58.3096 0 -108.311 33.001 -108.311 98.001c0 42.6201 23.9199 80.3896 54.3896 104.39h66.6904c-15 -20.2305 -29 -50.2305 -29 -76.7705c0 -29.6904 20.46 -46.6904 47.46 -46.6904c12.3096 0 27 2.76953 38.46 9.76953v-74.4697
c-20.7695 -10.7695 -47.6895 -14.2295 -69.6895 -14.2295z" />
    <glyph glyph-name="uni0337" unicode="&#x337;" 
d="M-268.08 203.69v115.23l251.39 181v-115.23z" />
    <glyph glyph-name="uni0338" unicode="&#x338;" 
d="M-390.62 -83.54l-72.7695 28.0801l262 611l73.7695 -29.0801z" />
    <glyph glyph-name="uni0308.case" 
d="M-329.54 773.77c-41.9199 0 -74.3096 32.3799 -74.3096 74.2998c0 41.9297 32.3896 73.3096 74.3096 73.3096s73.3096 -31.3799 73.3096 -73.3096c0 -41.9199 -31.3896 -74.2998 -73.3096 -74.2998zM-126 773.77c-41.9297 0 -74.3096 32.3799 -74.3096 74.2998
c0 41.9297 32.3799 73.3096 74.3096 73.3096c41.9199 0 73.3096 -31.3799 73.3096 -73.3096c0 -41.9199 -31.3896 -74.2998 -73.3096 -74.2998z" />
    <glyph glyph-name="uni0307.case" 
d="M-133.7 786.77c-41.9199 0 -74.2998 32.3799 -74.2998 74.2998c0 41.9297 32.3799 73.3096 74.2998 73.3096c41.9297 0 73.3096 -31.3799 73.3096 -73.3096c0 -41.9199 -31.3799 -74.2998 -73.3096 -74.2998z" />
    <glyph glyph-name="gravecomb.case" 
d="M-102.31 735.84l-225.31 118.16l56 100.92l222.54 -126.15z" />
    <glyph glyph-name="acutecomb.case" 
d="M-274.39 735.84l-53.2295 92.7002l222.77 126.38l56 -100.46z" />
    <glyph glyph-name="uni030B.case" 
d="M-410.85 731.46l-83.6104 47.6904l121.15 205.77l98.6104 -59.1504zM-190.31 731.46l-83.6191 47.6904l121.93 205.77l97.8398 -59.1504z" />
    <glyph glyph-name="uni0302.case" 
d="M-339.69 738.84l-64.54 66.8496l145.69 144.69h66l143.69 -144.69l-65.54 -66.8496l-112.69 105.08z" />
    <glyph glyph-name="uni030C.case" 
d="M-260.54 741l-143.69 144.69l65.54 66.8496l111.15 -104.31l114.15 104.31l64.54 -66.8496l-145.69 -144.69h-66z" />
    <glyph glyph-name="uni0306.case" 
d="M-200.54 763.31c-107.39 0 -149.392 66.7598 -149.392 144.3h85.0801c0 -37.6104 20.6904 -61.3799 63.3105 -61.3799c42.6104 0 64.3105 22.7695 64.3105 61.3799h85.0703c0 -78.54 -43.5303 -144.3 -148.38 -144.3z" />
    <glyph glyph-name="uni030A.case" 
d="M-159.7 736.92c-59.5303 0 -109.84 50.3096 -109.84 109.85c0 59.2998 49.3096 110.84 109.84 110.84c61.3096 0 110.85 -49.54 110.85 -110.84c0 -60.54 -50.54 -109.85 -110.85 -109.85zM-159.7 807.15c21.7002 0 40.3906 16.6904 40.3906 39.6201
c0 22.6904 -17.6904 40.3809 -40.3906 40.3809c-21.9199 0 -39.6104 -18.6904 -39.6104 -40.3809c0 -21.9297 17.6904 -39.6201 39.6104 -39.6201z" />
    <glyph glyph-name="tildecomb.case" 
d="M-156.7 761c-55 0 -99 41 -143 41c-25 0 -46 -13 -64 -30l-49.8398 84.6904c29 27 67 48 107 48c57 0 97 -41 141 -41c23 0 47 12 68 33l44.8398 -82.6904c-30 -33 -66 -53 -104 -53z" />
    <glyph glyph-name="uni0304.case" 
d="M-408.39 775.69v100.62h355.7v-100.62h-355.7z" />
    <glyph glyph-name="uni0327.case" 
d="M-148.23 -238.77c-61.7002 0 -113.998 25.4609 -117.848 101.771h72.3799c2.76953 -23.8496 21.6992 -36.9297 42.6191 -36.9297c24 0 41.46 16.0801 41.46 39.7002c0 27.46 -17.46 41.2295 -45.3799 41.2295h-66l24.0703 93h63.3896l-7.62012 -31.1602h5.92969
c56.5303 0 106.3 -28.2305 106.3 -100.841c0 -54.46 -38.6104 -106.77 -119.301 -106.77z" />
    <glyph glyph-name="uni0328.case" 
d="M-75.3096 -204.69c-58.3096 0 -108.312 33 -108.312 98c0 43.3799 24.6904 81.9199 55.1602 106.689h66.6904c-15.7695 -21 -29.7695 -51.7695 -29.7695 -79.0791c0 -29.6904 20.46 -46.6904 47.46 -46.6904c12.3096 0 27 2.76953 38.46 9.76953v-74.46
c-20.7695 -10.7695 -47.6895 -14.2295 -69.6895 -14.2295z" />
    <glyph glyph-name="uni0337.case" 
d="M-268.08 203.69v115.23l251.39 181v-115.23z" />
    <glyph glyph-name="uni0338.case" 
d="M-533 -46.6904l-87.6992 50.9199l505.85 765.61l89.46 -52.6904z" />
    <glyph glyph-name="acute" unicode="&#xb4;" horiz-adv-x="384" 
d="M102.07 525.84l-53.2295 92.7002l222.77 126.38l56 -100.46z" />
    <glyph glyph-name="breve" unicode="&#x2d8;" horiz-adv-x="400" 
d="M199.46 553.31c-107.39 0 -149.392 66.7598 -149.392 144.3h85.0801c0 -37.6104 20.6904 -61.3799 63.3105 -61.3799c42.6104 0 64.3105 22.7695 64.3105 61.3799h85.0703c0 -78.54 -43.5303 -144.3 -148.38 -144.3z" />
    <glyph glyph-name="caron" unicode="&#x2c7;" horiz-adv-x="461" 
d="M192.54 531l-143.7 144.69l65.54 66.8496l111.16 -104.31l114.15 104.31l64.54 -66.8496l-145.69 -144.69h-66z" />
    <glyph glyph-name="cedilla" unicode="&#xb8;" horiz-adv-x="311" 
d="M163.23 -238.77c-61.6904 0 -113.998 25.4609 -117.848 101.771h72.3896c2.76953 -23.8496 21.6895 -36.9297 42.6094 -36.9297c24 0 41.46 16.0801 41.46 39.7002c0 27.46 -17.46 41.2295 -45.3799 41.2295h-66l24.0801 93h63.3799l-7.61035 -31.1602h5.91992
c56.54 0 106.31 -28.2305 106.31 -100.841c0 -54.46 -38.6201 -106.77 -119.311 -106.77z" />
    <glyph glyph-name="circumflex" unicode="&#x2c6;" horiz-adv-x="461" 
d="M113.38 528.84l-64.54 66.8496l145.7 144.69h66l143.69 -144.69l-65.54 -66.8496l-112.69 105.08z" />
    <glyph glyph-name="dieresis" unicode="&#xa8;" horiz-adv-x="457" 
d="M127 563.77c-41.9297 0 -74.3096 32.3799 -74.3096 74.2998c0 41.9297 32.3799 73.3096 74.3096 73.3096c41.9199 0 73.3096 -31.3799 73.3096 -73.3096c0 -41.9199 -31.3896 -74.2998 -73.3096 -74.2998zM330.54 563.77c-41.9297 0 -74.3096 32.3799 -74.3096 74.2998
c0 41.9297 32.3799 73.3096 74.3096 73.3096c41.9199 0 73.2998 -31.3799 73.2998 -73.3096c0 -41.9199 -31.3799 -74.2998 -73.2998 -74.2998z" />
    <glyph glyph-name="dotaccent" unicode="&#x2d9;" horiz-adv-x="253" 
d="M134.69 576.77c-41.9199 0 -74.3096 32.3799 -74.3096 74.2998c0 41.9297 32.3896 73.3096 74.3096 73.3096s73.3096 -31.3799 73.3096 -73.3096c0 -41.9199 -31.3896 -74.2998 -73.3096 -74.2998z" />
    <glyph glyph-name="grave" unicode="`" horiz-adv-x="550" 
d="M274.15 525.84l-225.31 118.16l56 100.92l222.54 -126.15z" />
    <glyph glyph-name="hungarumlaut" unicode="&#x2dd;" horiz-adv-x="619" 
d="M135.46 521.46l-83.6201 47.6904l121.16 205.77l98.6104 -59.1504zM356 521.46l-83.6191 47.6904l121.93 205.77l97.8398 -59.1504z" />
    <glyph glyph-name="macron" unicode="&#xaf;" horiz-adv-x="461" 
d="M52.6904 565.69v100.62h355.69v-100.62h-355.69z" />
    <glyph glyph-name="ogonek" unicode="&#x2db;" horiz-adv-x="253" 
d="M178.84 -202.39c-58.2998 0 -108.301 33.001 -108.301 98.001c0 42.6201 23.9199 80.3896 54.3799 104.39h66.6904c-15 -20.2305 -29 -50.2305 -29 -76.7705c0 -29.6904 20.46 -46.6904 47.46 -46.6904c12.3096 0 27 2.76953 38.4697 9.76953v-74.4697
c-20.7695 -10.7695 -47.6992 -14.2295 -69.6992 -14.2295z" />
    <glyph glyph-name="ring" unicode="&#x2da;" horiz-adv-x="323" 
d="M158.69 526.92c-59.54 0 -109.85 50.3096 -109.85 109.85c0 59.2998 49.3096 110.84 109.85 110.84c61.3096 0 110.85 -49.54 110.85 -110.84c0 -60.54 -50.54 -109.85 -110.85 -109.85zM158.69 597.15c21.6904 0 40.3809 16.6904 40.3809 39.6201
c0 22.6904 -17.6904 40.3809 -40.3809 40.3809c-21.9199 0 -39.6201 -18.6904 -39.6201 -40.3809c0 -21.9297 17.7002 -39.6201 39.6201 -39.6201z" />
    <glyph glyph-name="tilde" unicode="&#x2dc;" horiz-adv-x="466" 
d="M309.54 551c-55 0 -99 41 -143 41c-25 0 -46 -13 -64 -30l-49.8496 84.6904c29 27 67 48 107 48c57 0 97 -41 141 -41c23 0 47 12 68 33l44.8496 -82.6904c-30 -33 -66 -53 -104 -53z" />
    </font>
</defs>
</svg>
