<?xml version="1.0" standalone="no"?>
<!DOCTYPE svg PUBLIC "-//W3C//DTD SVG 1.1//EN" "http://www.w3.org/Graphics/SVG/1.1/DTD/svg11.dtd" >
<svg xmlns="http://www.w3.org/2000/svg" width="100%" height="100%">
<metadata>
Created by FontXChange 20100429 at Mon Jan  2 15:37:36 2017
 By Killian Grant
Copyright 2013 \(c\) Rick Banks / Face37. All rights reserved.
</metadata>
<defs>
<font id="F37Jan-Light" horiz-adv-x="0" >
  <font-face 
    font-family="F37 Jan Light"
    font-weight="300"
    font-stretch="normal"
    units-per-em="1000"
    panose-1="0 0 4 0 0 0 0 0 0 0"
    ascent="800"
    descent="-200"
    x-height="475"
    cap-height="708"
    bbox="-581.92 -241.55 1240.94 964.569"
    underline-thickness="50"
    underline-position="-50"
    stemh="61"
    stemv="64"
    unicode-range="U+0020-FB02"
  />
<missing-glyph horiz-adv-x="727" 
d="M628.11 0h-529v740h529v-740zM561.74 67.71v604.03h-396.26v-604.03h396.26z" />
    <glyph glyph-name="fi" unicode="fi" horiz-adv-x="508" 
d="M430.23 475l-0.000976562 -475h-64.9199v402.45c0 6.71973 1.45996 9.25977 5.16992 12.9795l-6.70996 6.16992c-3.71973 -3.71973 -7.33984 -5.16992 -11.8896 -5.16992h-167.83c-4.54004 0 -8.16992 1.4502 -11.8799 5.16992l-6.71973 -6.16992
c3.71973 -3.71973 5.17969 -6.25977 5.17969 -12.9795v-401.91h-64.9199v401.91c0 6.71973 1.45996 9.25977 5.16992 12.9795l-6.70996 6.16992c-3.71973 -3.71973 -7.33984 -5.16992 -11.8896 -5.16992h-64.1699v58.5703h64.1699
c4.5498 0 8.16992 -1.45996 11.8896 -5.16992l6.70996 6.16992c-3.70996 3.70996 -5.16992 6.25 -5.16992 12.9697v20.6299c0 132.91 60.7998 203.851 170.66 203.851c8.66016 0 24.1104 -0.910156 39.6602 -3.82031v-60.8301h-2.62988
c-4.16992 0 -16.5498 2.83008 -31.3193 2.83008c-76.2002 0 -111.45 -49.1504 -111.45 -132.46v-30.2002c0 -6.71973 -1.45996 -9.25977 -5.17969 -12.9697l6.71973 -6.16992c3.70996 3.70996 7.33984 5.16992 11.8799 5.16992h246.18zM397.31 601.08
c-24.4805 0 -43.2607 18.7695 -43.2607 43.2598c0 24.9404 18.7803 43.1709 43.2607 43.1709c24.9404 0 43.1709 -18.2305 43.1709 -43.1709c0 -24.4902 -18.2305 -43.2598 -43.1709 -43.2598z" />
    <glyph glyph-name="fl" unicode="fl" horiz-adv-x="504" 
d="M300.94 712.91c51.9697 0 95.7412 -5.70996 125.661 -13.71v-699.2h-64.9199v645.24c-14.54 3.66992 -32.3604 6.38965 -60.4502 6.38965c-88.2305 0 -130.601 -49.1504 -130.601 -132.46v-30.2002c0 -6.71973 -1.45996 -9.25977 -5.17969 -12.9697l6.71973 -6.16992
c3.70996 3.70996 7.33984 5.16992 11.8799 5.16992h122.52v-58.5703h-122.52c-4.54004 0 -8.16992 1.4502 -11.8799 5.16992l-6.71973 -6.16992c3.71973 -3.71973 5.17969 -6.25977 5.17969 -12.9795v-402.45h-64.9199v402.45c0 6.71973 1.45996 9.25977 5.16992 12.9795
l-6.70996 6.16992c-3.71973 -3.71973 -7.33984 -5.16992 -11.8896 -5.16992h-64.1699v58.5703h64.1699c4.5498 0 8.16992 -1.45996 11.8896 -5.16992l6.70996 6.16992c-3.70996 3.70996 -5.16992 6.25 -5.16992 12.9697v18.46
c0.540039 135.08 76.1396 205.48 195.229 205.48z" />
    <glyph glyph-name=".notdef" horiz-adv-x="727" 
d="M628.11 0h-529v740h529v-740zM561.74 67.71v604.03h-396.26v-604.03h396.26z" />
    <glyph glyph-name="A" unicode="A" horiz-adv-x="658" 
d="M11.2803 0l278.23 708h77.54l281.32 -708h-73.2598l-76.4004 193.51h-340.4l-75.8604 -193.51h-71.1699zM186.971 243.83c3.62988 5.16992 9.88086 8.70996 18.0605 8.70996h247.51c8.16992 0 14.4297 -3.54004 18.0596 -8.70996l8.25 3.62012l-143.17 367.8
c-2.54004 7.17969 -3.08008 14.7197 -3.08008 19.2598h-8.7998c0 -4.54004 -1 -12.0801 -3.5498 -19.2598l-141.54 -367.8z" />
    <glyph glyph-name="Aacute" unicode="&#xc1;" horiz-adv-x="658" 
d="M240.85 765.45l-29.8193 51.2295l204.22 115.97l32.29 -57.3096zM11.2803 -0l278.23 708h77.54l281.32 -708h-73.2598l-76.4004 193.51h-340.4l-75.8604 -193.51h-71.1699zM186.971 243.83c3.62988 5.16992 9.88086 8.70996 18.0605 8.70996h247.51
c8.16992 0 14.4297 -3.54004 18.0596 -8.70996l8.25 3.62012l-143.17 367.8c-2.54004 7.17969 -3.08008 14.7197 -3.08008 19.2598h-8.7998c0 -4.54004 -1 -12.0801 -3.5498 -19.2598l-141.54 -367.8z" />
    <glyph glyph-name="Acircumflex" unicode="&#xc2;" horiz-adv-x="658" 
d="M205.65 765.71l-36.54 36.54l143.49 141.12h36.7402l140.11 -141.12l-37.0801 -36.54l-121.86 119.77zM11.2803 0l278.23 708h77.54l281.32 -708h-73.2598l-76.4004 193.51h-340.4l-75.8604 -193.51h-71.1699zM186.971 243.83
c3.62988 5.16992 9.88086 8.70996 18.0605 8.70996h247.51c8.16992 0 14.4297 -3.54004 18.0596 -8.70996l8.25 3.62012l-143.17 367.8c-2.54004 7.17969 -3.08008 14.7197 -3.08008 19.2598h-8.7998c0 -4.54004 -1 -12.0801 -3.5498 -19.2598l-141.54 -367.8z" />
    <glyph glyph-name="Adieresis" unicode="&#xc4;" horiz-adv-x="658" 
d="M253.14 808.28c-24.4902 0 -43.2598 18.7695 -43.2598 43.2598c0 24.9404 18.7695 43.1709 43.2598 43.1709c24.9404 0 43.1709 -18.2305 43.1709 -43.1709c0 -24.4902 -18.2305 -43.2598 -43.1709 -43.2598zM405.43 808.28
c-24.4902 0 -43.2598 18.7695 -43.2598 43.2598c0 24.9404 18.7695 43.1709 43.2598 43.1709c24.9404 0 43.1709 -18.2305 43.1709 -43.1709c0 -24.4902 -18.2305 -43.2598 -43.1709 -43.2598zM11.2793 0l278.23 708h77.54l281.32 -708h-73.2598l-76.4004 193.51h-340.4
l-75.8604 -193.51h-71.1699zM186.97 243.83c3.62988 5.16992 9.88086 8.70996 18.0605 8.70996h247.51c8.16992 0 14.4297 -3.54004 18.0596 -8.70996l8.25 3.62012l-143.17 367.8c-2.54004 7.17969 -3.08008 14.7197 -3.08008 19.2598h-8.7998
c0 -4.54004 -1 -12.0801 -3.5498 -19.2598l-141.54 -367.8z" />
    <glyph glyph-name="Agrave" unicode="&#xc0;" horiz-adv-x="658" 
d="M417.17 765.45l-206.141 108.8l32.2803 58.4004l203.69 -115.42zM11.2793 0l278.23 708h77.54l281.32 -708h-73.2598l-76.4004 193.51h-340.4l-75.8604 -193.51h-71.1699zM186.97 243.83c3.62988 5.16992 9.88086 8.70996 18.0605 8.70996h247.51
c8.16992 0 14.4297 -3.54004 18.0596 -8.70996l8.25 3.62012l-143.17 367.8c-2.54004 7.17969 -3.08008 14.7197 -3.08008 19.2598h-8.7998c0 -4.54004 -1 -12.0801 -3.5498 -19.2598l-141.54 -367.8z" />
    <glyph glyph-name="Aring" unicode="&#xc5;" horiz-adv-x="658" 
d="M328.97 754.31c-57.54 0 -105.09 47.54 -105.09 104.63c0 56.54 46.5498 105.63 105.09 105.63c57.6299 0 105.17 -47.0898 105.17 -105.17c0 -58.5498 -48.0898 -105.09 -105.17 -105.09zM328.51 799.31c31.7695 0 59.1709 24.9414 59.1709 59.6318
c0 34.1396 -26.4004 60.0898 -58.71 60.0898c-33.2305 0 -59.1709 -27.8604 -59.1709 -60.0908c0 -33.2305 26.4004 -59.6309 58.71 -59.6309zM11.2812 0.000976562l278.23 708h77.54l281.32 -708h-73.2598l-76.4004 193.51h-340.4l-75.8604 -193.51h-71.1699z
M186.972 243.831c3.62988 5.16992 9.88086 8.70996 18.0605 8.70996h247.51c8.16992 0 14.4297 -3.54004 18.0596 -8.70996l8.25 3.62012l-143.17 367.8c-2.54004 7.17969 -3.08008 14.7197 -3.08008 19.2598h-8.7998c0 -4.54004 -1 -12.0801 -3.5498 -19.2598
l-141.54 -367.8z" />
    <glyph glyph-name="Atilde" unicode="&#xc3;" horiz-adv-x="658" 
d="M399.85 787.2c-55.4502 0 -99 41 -143 41c-25 0 -46 -13 -64 -30l-34.5703 45.9697c25.7998 24.2598 59.6895 42.0596 97.8594 42.0596c59.29 0 97.9102 -41 141.91 -41c23.46 0 47.46 12 68.46 33l33.2305 -42.5996
c-28.6299 -29.3496 -61.8896 -48.4297 -99.8896 -48.4297zM11.2793 0l278.23 708h77.54l281.32 -708h-73.2598l-76.4004 193.51h-340.4l-75.8604 -193.51h-71.1699zM186.97 243.83c3.62988 5.16992 9.88086 8.70996 18.0605 8.70996h247.51
c8.16992 0 14.4297 -3.54004 18.0596 -8.70996l8.25 3.62012l-143.17 367.8c-2.54004 7.17969 -3.08008 14.7197 -3.08008 19.2598h-8.7998c0 -4.54004 -1 -12.0801 -3.5498 -19.2598l-141.54 -367.8z" />
    <glyph glyph-name="AE" unicode="&#xc6;" horiz-adv-x="840" 
d="M-9.16992 0l373.54 708h421.2v-61.75h-304.03c-5 0 -9.08984 1.91992 -13.2598 6.08984l-6.70996 -6.16992c4.62988 -4.62988 6.08008 -7.62988 6.08008 -14.3398v-217.12c0 -6.70996 -1.4502 -9.70996 -6.08008 -14.3398l6.70996 -6.16992
c4.16992 4.16992 8.25977 6.08008 13.2598 6.08008h258.54v-61.7402h-258.54c-5 0 -9.08984 1.91016 -13.2598 6.08984l-6.70996 -6.17969c4.62988 -4.62012 6.08008 -7.62012 6.08008 -14.3398v-247.94c0 -6.71973 -1.4502 -9.71973 -6.08008 -14.3398l6.70996 -6.17969
c4.16992 4.17969 8.25977 6.08984 13.2598 6.08984h307.69v-61.7402h-390.12v176.91c0 6.71973 1.45996 9.71973 6.08984 14.3398l-6.71973 6.17969c-4.16992 -4.17969 -8.25 -6.08984 -13.25 -6.08984h-224.98l-102.05 -191.34h-67.3701zM196.8 242.74
c3.62988 5.16992 9.87988 8.70996 18.0498 8.70996h170.38c5 0 9.08008 -1.91016 13.25 -6.08008l6.71973 6.16992c-4.62988 4.62988 -6.08984 7.62988 -6.08984 14.3398v370.63h-8.25977c0 -5.08008 -0.540039 -13.4297 -3.54004 -18.9697l-198.77 -371.17z" />
    <glyph glyph-name="B" unicode="B" horiz-adv-x="645" 
d="M99.7695 0v708h218.4c138.97 0 233.229 -54.8604 233.229 -176.891c0 -72.2305 -38.4004 -131.881 -95.7207 -149.771v-8.7998c82.29 -18.3398 143.46 -75.1396 143.46 -169.489c0 -138.85 -103.14 -203.05 -252.739 -203.05h-246.63zM168.399 388.94
c4.16992 4.16992 8.25 6.08984 13.25 6.08984h166.09c75.1699 0 136.2 44.2197 136.2 129.569c0 83.2803 -64.4902 121.65 -162.51 121.65h-139.78c-5 0 -9.08008 1.91992 -13.25 6.08984l-6.71973 -6.16992c4.62988 -4.62988 6.08984 -7.62988 6.08984 -14.3398v-222.38
c0 -6.70996 -1.45996 -9.70996 -6.08984 -14.3398zM168.399 55.6504c4.16992 4.17969 8.25098 6.08789 13.251 6.08789h171.26c109.17 0 178.77 43.6904 178.77 141.311c0 93.46 -76.9102 131.86 -177.34 131.86h-172.69c-5 0 -9.08008 1.91992 -13.25 6.08984
l-6.71973 -6.16992c4.62988 -4.62988 6.08984 -7.62988 6.08984 -14.3496v-244.31c0 -6.71973 -1.45996 -9.71973 -6.08984 -14.3398z" />
    <glyph glyph-name="C" unicode="C" horiz-adv-x="690" 
d="M407.11 -13c-194.31 0 -359.081 155.03 -359.081 366.17c0 206.26 156.48 368.46 359.171 368.46c102.4 0 185.11 -35.6299 251.25 -104.03l-45.5996 -43.4297c-55.1699 57.5098 -121.65 87.3398 -204.57 87.3398c-166.97 0 -291.71 -134.48 -291.71 -309.341
c0 -168.97 127.68 -303.97 290.54 -303.97c85.1699 0 154.46 33.54 207.37 87.1699l43.9697 -42.5195c-63.3398 -67.6797 -147.85 -105.85 -251.34 -105.85z" />
    <glyph glyph-name="Ccedilla" unicode="&#xc7;" horiz-adv-x="690" 
d="M407.11 48.2002c85.1699 0 154.46 33.541 207.37 87.1709l43.9697 -42.5195c-60.6904 -64.8496 -140.82 -102.609 -238.45 -105.649l-10.1504 -27.6904h8.5498c44.0801 0 93.54 -24.4297 93.54 -90.1396c0 -65.54 -44.46 -97.7705 -107.4 -97.7705
c-53.4902 0 -100.29 25.6299 -103.03 91.3994h47.7998c3.83008 -35.4902 28.1201 -48.2305 57.1396 -48.2305c30.8604 0 53.5205 15.7402 53.5205 51.6006c0 30.3701 -16.7197 50.6797 -58.2295 50.6797h-54.5703l24.4199 71.6904
c-178.46 17.5596 -323.56 166.29 -323.56 364.43c0 206.26 156.48 368.46 359.171 368.46c102.4 0 185.11 -35.6299 251.25 -104.03l-45.5996 -43.4297c-55.1699 57.5098 -121.65 87.3398 -204.57 87.3398c-166.97 0 -291.71 -134.48 -291.71 -309.341
c0 -168.97 127.68 -303.97 290.54 -303.97z" />
    <glyph glyph-name="D" unicode="D" horiz-adv-x="749" 
d="M99.7695 0l0.000976562 708h212.83c224.34 0 388.31 -138.52 388.31 -354c0 -214.4 -167.23 -354 -388.311 -354h-212.83zM168.4 55.6504c4.16992 4.17969 8.25 6.08887 13.25 6.08887h123.8c189.55 0 326.92 104.94 326.92 292.261
c0 191.28 -146.6 292.25 -322.569 292.25h-128.15c-5 0 -9.08008 1.91992 -13.25 6.08984l-6.71973 -6.16992c4.62988 -4.62988 6.08984 -7.62988 6.08984 -14.3398v-555.66c0 -6.71973 -1.45996 -9.71973 -6.08984 -14.3398z" />
    <glyph glyph-name="Eth" unicode="&#xd0;" horiz-adv-x="758" 
d="M321.11 708c224.34 0 388.32 -138.52 388.32 -354c0 -214.4 -167.23 -354 -388.32 -354h-212.83v333.479h-83.0498v59.0303h83.0498v315.49h212.83zM313.971 61.7402c189.54 0 326.909 104.939 326.909 292.26c0 191.28 -146.6 292.25 -322.569 292.25h-128.14
c-5 0 -9.08984 1.91992 -13.2598 6.08984l-6.70996 -6.16992c4.62988 -4.62988 6.08008 -7.62988 6.08008 -14.3398v-239.32h192.37v-59.0303h-192.37v-257.31c0 -6.71973 -1.4502 -9.71973 -6.08008 -14.3398l6.70996 -6.17969
c4.16992 4.17969 8.25977 6.08984 13.2598 6.08984h123.8z" />
    <glyph glyph-name="E" unicode="E" horiz-adv-x="566" 
d="M99.7695 0v708h414.46v-61.75h-332.58c-5 0 -9.08008 1.91992 -13.25 6.08984l-6.71973 -6.16992c4.62988 -4.62988 6.08984 -7.62988 6.08984 -14.3398v-217.12c0 -6.70996 -1.45996 -9.70996 -6.08984 -14.3398l6.71973 -6.16992
c4.16992 4.16992 8.25 6.08008 13.25 6.08008h283.43v-61.7402h-283.43c-5 0 -9.08008 1.91016 -13.25 6.08984l-6.71973 -6.17969c4.62988 -4.62012 6.08984 -7.62012 6.08984 -14.3398v-247.94c0 -6.71973 -1.45996 -9.71973 -6.08984 -14.3398l6.71973 -6.17969
c4.16992 4.17969 8.25 6.08984 13.25 6.08984h332.58v-61.7402h-414.46z" />
    <glyph glyph-name="Eacute" unicode="&#xc9;" horiz-adv-x="566" 
d="M210.37 765.45l-29.8311 51.2295l204.23 115.97l32.2803 -57.3096zM99.7695 -0v708h414.46v-61.75h-332.58c-5 0 -9.08008 1.91992 -13.25 6.08984l-6.71973 -6.16992c4.62988 -4.62988 6.08984 -7.62988 6.08984 -14.3398v-217.12
c0 -6.70996 -1.45996 -9.70996 -6.08984 -14.3398l6.71973 -6.16992c4.16992 4.16992 8.25 6.08008 13.25 6.08008h283.43v-61.7402h-283.43c-5 0 -9.08008 1.91016 -13.25 6.08984l-6.71973 -6.17969c4.62988 -4.62012 6.08984 -7.62012 6.08984 -14.3398v-247.94
c0 -6.71973 -1.45996 -9.71973 -6.08984 -14.3398l6.71973 -6.17969c4.16992 4.17969 8.25 6.08984 13.25 6.08984h332.58v-61.7402h-414.46z" />
    <glyph glyph-name="Ecircumflex" unicode="&#xca;" horiz-adv-x="566" 
d="M175.17 765.71l-36.541 36.54l143.48 141.12h36.7402l140.12 -141.12l-37.0898 -36.54l-121.85 119.77zM99.7686 0v708h414.46v-61.75h-332.58c-5 0 -9.08008 1.91992 -13.25 6.08984l-6.71973 -6.16992c4.62988 -4.62988 6.08984 -7.62988 6.08984 -14.3398v-217.12
c0 -6.70996 -1.45996 -9.70996 -6.08984 -14.3398l6.71973 -6.16992c4.16992 4.16992 8.25 6.08008 13.25 6.08008h283.43v-61.7402h-283.43c-5 0 -9.08008 1.91016 -13.25 6.08984l-6.71973 -6.17969c4.62988 -4.62012 6.08984 -7.62012 6.08984 -14.3398v-247.94
c0 -6.71973 -1.45996 -9.71973 -6.08984 -14.3398l6.71973 -6.17969c4.16992 4.17969 8.25 6.08984 13.25 6.08984h332.58v-61.7402h-414.46z" />
    <glyph glyph-name="Edieresis" unicode="&#xcb;" horiz-adv-x="566" 
d="M222.65 808.28c-24.4805 0 -43.25 18.7695 -43.25 43.2598c0 24.9404 18.7695 43.1709 43.25 43.1709c24.9502 0 43.1807 -18.2305 43.1807 -43.1709c0 -24.4902 -18.2305 -43.2598 -43.1807 -43.2598zM374.94 808.28c-24.4902 0 -43.2598 18.7695 -43.2598 43.2598
c0 24.9404 18.7695 43.1709 43.2598 43.1709c24.9404 0 43.1709 -18.2305 43.1709 -43.1709c0 -24.4902 -18.2305 -43.2598 -43.1709 -43.2598zM99.7705 0v708h414.46v-61.75h-332.58c-5 0 -9.08008 1.91992 -13.25 6.08984l-6.71973 -6.16992
c4.62988 -4.62988 6.08984 -7.62988 6.08984 -14.3398v-217.12c0 -6.70996 -1.45996 -9.70996 -6.08984 -14.3398l6.71973 -6.16992c4.16992 4.16992 8.25 6.08008 13.25 6.08008h283.43v-61.7402h-283.43c-5 0 -9.08008 1.91016 -13.25 6.08984l-6.71973 -6.17969
c4.62988 -4.62012 6.08984 -7.62012 6.08984 -14.3398v-247.94c0 -6.71973 -1.45996 -9.71973 -6.08984 -14.3398l6.71973 -6.17969c4.16992 4.17969 8.25 6.08984 13.25 6.08984h332.58v-61.7402h-414.46z" />
    <glyph glyph-name="Egrave" unicode="&#xc8;" horiz-adv-x="566" 
d="M386.68 765.45l-206.14 108.8l32.29 58.4004l203.68 -115.42zM99.7705 0v708h414.46v-61.75h-332.58c-5 0 -9.08008 1.91992 -13.25 6.08984l-6.71973 -6.16992c4.62988 -4.62988 6.08984 -7.62988 6.08984 -14.3398v-217.12
c0 -6.70996 -1.45996 -9.70996 -6.08984 -14.3398l6.71973 -6.16992c4.16992 4.16992 8.25 6.08008 13.25 6.08008h283.43v-61.7402h-283.43c-5 0 -9.08008 1.91016 -13.25 6.08984l-6.71973 -6.17969c4.62988 -4.62012 6.08984 -7.62012 6.08984 -14.3398v-247.94
c0 -6.71973 -1.45996 -9.71973 -6.08984 -14.3398l6.71973 -6.17969c4.16992 4.17969 8.25 6.08984 13.25 6.08984h332.58v-61.7402h-414.46z" />
    <glyph glyph-name="F" unicode="F" horiz-adv-x="552" 
d="M99.7695 0l-0.000976562 708h422.94v-63.9199h-341.06c-5 0 -9.08008 1.91992 -13.25 6.08984l-6.71973 -6.16992c4.62988 -4.62988 6.08984 -7.62988 6.08984 -14.3496v-232.11c0 -6.70996 -1.45996 -9.70996 -6.08984 -14.3398l6.71973 -6.16992
c4.16992 4.16992 8.25 6.08008 13.25 6.08008h296.8v-61.7402h-296.8c-5 0 -9.08008 1.91016 -13.25 6.08008l-6.71973 -6.16992c4.62988 -4.62988 6.08984 -7.62988 6.08984 -14.3398v-306.94h-68z" />
    <glyph glyph-name="G" unicode="G" horiz-adv-x="720" 
d="M406.83 -13c-199.83 0 -358.801 156.97 -358.801 369.25c0 199.32 153.25 365.38 361.25 365.38c93.6602 0 180.351 -34.8301 243.66 -98.4004l-46.0596 -42.7998c-47 48.25 -115.28 81.0801 -196.511 81.0801c-173.37 0 -293.8 -137.26 -293.8 -305.8
c0 -176.54 125.51 -307.51 290.26 -307.51c77.7695 0 141.42 27.7402 188.62 68.2002v173.43c0 6.70996 1.45996 9.70996 6.08984 14.3398l-6.70996 6.16992c-4.17969 -4.16992 -8.25977 -6.08984 -13.2598 -6.08984h-187.46v61.2002h263v-278.34
c-62.4297 -59.8604 -147.569 -100.11 -250.279 -100.11z" />
    <glyph glyph-name="H" unicode="H" horiz-adv-x="749" 
d="M99.7695 0v708h68v-296.75c0 -6.70996 -1.45996 -9.70996 -6.08984 -14.3398l6.71973 -6.16992c4.16992 4.16992 8.25 6.08984 13.25 6.08984h386.06c5 0 9.08984 -1.91992 13.2598 -6.08984l6.70996 6.16992c-4.62988 4.62988 -6.08008 7.62988 -6.08008 14.3398v296.75
h68v-708h-68v321.2c0 6.70996 1.4502 9.70996 6.08008 14.3398l-6.70996 6.16992c-4.16992 -4.16992 -8.25977 -6.08008 -13.2598 -6.08008h-386.06c-5 0 -9.08008 1.91016 -13.25 6.08008l-6.71973 -6.16992c4.62988 -4.62988 6.08984 -7.62988 6.08984 -14.3398v-321.2
h-68z" />
    <glyph glyph-name="I" unicode="I" horiz-adv-x="268" 
d="M99.7695 0v708h68v-708h-68z" />
    <glyph glyph-name="Iacute" unicode="&#xcd;" horiz-adv-x="268" 
d="M45.1104 765.45l-29.8301 51.2295l204.23 115.97l32.29 -57.3096zM99.7705 -0v708h68v-708h-68z" />
    <glyph glyph-name="Icircumflex" unicode="&#xce;" horiz-adv-x="268" 
d="M9.91016 765.71l-36.54 36.54l143.48 141.12h36.75l140.11 -141.12l-37.0801 -36.54l-121.86 119.77zM99.7705 0v708h68v-708h-68z" />
    <glyph glyph-name="Idieresis" unicode="&#xcf;" horiz-adv-x="268" 
d="M57.4004 808.28c-24.4902 0 -43.2598 18.7695 -43.2598 43.2598c0 24.9404 18.7695 43.1709 43.2598 43.1709c24.9404 0 43.1709 -18.2305 43.1709 -43.1709c0 -24.4902 -18.2305 -43.2598 -43.1709 -43.2598zM209.681 808.28c-24.4805 0 -43.25 18.7695 -43.25 43.2598
c0 24.9404 18.7695 43.1709 43.25 43.1709c24.9502 0 43.1699 -18.2305 43.1699 -43.1709c0 -24.4902 -18.2197 -43.2598 -43.1699 -43.2598zM99.7705 0v708h68v-708h-68z" />
    <glyph glyph-name="Igrave" unicode="&#xcc;" horiz-adv-x="268" 
d="M221.43 765.45l-206.149 108.8l32.29 58.4004l203.68 -115.42zM99.7705 0v708h68v-708h-68z" />
    <glyph glyph-name="J" unicode="J" horiz-adv-x="491" 
d="M197 -13c-104.46 0 -161.32 57.4307 -189.15 128.45l57.5801 28.8301c23.2803 -56.0498 65.25 -95.4502 131.11 -95.4502c80.9697 0 134.489 54.1699 134.489 174.22v484.95h68v-494.17c0 -146 -84.4297 -226.83 -202.029 -226.83z" />
    <glyph glyph-name="K" unicode="K" horiz-adv-x="585" 
d="M99.7695 0v708.001h68v-328.26h8.7998c0 7.25977 2.08008 14.0596 10.9697 23.4893l302.46 304.771h85.7998l-336 -338.49c-4.5498 -4.54004 -10.2598 -5 -14.3496 -5v-8.7998c4.08984 0 10.2598 0 15.3496 -5.08008l352.31 -350.63h-91.0596l-314.51 306.85
c-8.88965 9.42969 -10.9697 16.2295 -10.9697 23.4893h-8.7998v-330.34h-68z" />
    <glyph glyph-name="L" unicode="L" horiz-adv-x="520" 
d="M99.7695 0l0.000976562 708h68v-631.83c0 -6.71973 -2 -10.2598 -7.16992 -15.4297l6.70996 -6.16992c4.71973 4.70996 9.33984 7.16992 14.3398 7.16992h326.52v-61.7402h-408.4z" />
    <glyph glyph-name="Ldot" unicode="&#x13f;" horiz-adv-x="600" 
d="M99.7695 0l0.000976562 708h68v-631.83c0 -6.71973 -2 -10.2598 -7.16992 -15.4297l6.70996 -6.16992c4.71973 4.70996 9.33984 7.16992 14.3398 7.16992h326.52v-61.7402h-408.4zM427.541 325.59c-25.9004 0 -45.7607 19.8604 -45.7607 45.7607
c0 26.3799 19.8604 45.6602 45.7607 45.6602c26.3799 0 45.6602 -19.2803 45.6602 -45.6602c0 -25.9004 -19.2803 -45.7607 -45.6602 -45.7607z" />
    <glyph glyph-name="Lslash" unicode="&#x141;" horiz-adv-x="563" 
d="M181.65 61.7402h326.521v-61.7402h-408.4v288.95l-81.8398 -56.04v65.8301l81.8398 56.04v353.22h68v-306.66l84.5195 57.8896v-65.8301l-84.5195 -57.8799v-259.35c0 -6.71973 -2 -10.2598 -7.16992 -15.4297l6.70996 -6.16992
c4.71973 4.70996 9.33984 7.16992 14.3398 7.16992z" />
    <glyph glyph-name="M" unicode="M" horiz-adv-x="880" 
d="M99.7695 0l0.000976562 707.999h95.4004l235.91 -353.12c4.62988 -7.25 4.62988 -13.8799 4.62988 -20.1396h8.7998c0 6.25977 0 13.8896 4.62988 20.1396l237.29 353.12h93.3096v-708h-68v604.88c0 11.7998 2.54004 17.7197 6.54004 23.2598l-7.25 5.16992
l-241.86 -359.77h-60.7402l-240.49 359.771l-7.25977 -5.16992c4 -5.54004 7.08984 -12 7.08984 -23.7998v-604.34h-68z" />
    <glyph glyph-name="N" unicode="N" horiz-adv-x="739" 
d="M99.7695 0v708.001h85.8604l387.25 -598.15l6.71973 5.17969c-4 6.4502 -6.62988 11.54 -6.62988 24.9697v568h66.3701v-708h-70.3701l-403.29 621.14l-6.70996 -5.16992c4.54004 -6.54004 7.16992 -13 7.16992 -26.4297v-589.54h-66.3701z" />
    <glyph glyph-name="Ntilde" unicode="&#xd1;" horiz-adv-x="739" 
d="M444.97 787.2c-55.46 0 -98.999 41 -142.999 41c-25 0 -46 -13 -64 -30l-34.5703 45.9697c25.7998 24.2598 59.6797 42.0596 97.8496 42.0596c59.29 0 97.9199 -41 141.92 -41c23.46 0 47.46 12 68.46 33l33.2197 -42.5996
c-28.6201 -29.3496 -61.8799 -48.4297 -99.8799 -48.4297zM99.7705 0v708.001h85.8604l387.25 -598.15l6.71973 5.17969c-4 6.4502 -6.62988 11.54 -6.62988 24.9697v568h66.3701v-708h-70.3701l-403.29 621.14l-6.70996 -5.16992
c4.54004 -6.54004 7.16992 -13 7.16992 -26.4297v-589.54h-66.3701z" />
    <glyph glyph-name="O" unicode="O" horiz-adv-x="800" 
d="M400.08 -13c-197.05 0 -352.05 162.05 -352.05 367.08c0 202.29 151.8 367.55 351.6 367.55c198.42 0 352.05 -163.43 352.05 -367.09c0 -204.11 -154.08 -367.54 -351.6 -367.54zM400.08 49.8301c162.26 0 281.97 136.97 281.97 304.25
c0 167.46 -120.88 304.72 -282.42 304.72c-164.09 0 -281.979 -138.63 -281.979 -305.17c0 -167.75 122.26 -303.8 282.43 -303.8z" />
    <glyph glyph-name="Oacute" unicode="&#xd3;" horiz-adv-x="800" 
d="M311.97 765.45l-29.8311 51.2295l204.23 115.97l32.2803 -57.3096zM400.079 -13c-197.05 0 -352.05 162.05 -352.05 367.08c0 202.29 151.8 367.55 351.6 367.55c198.42 0 352.05 -163.43 352.05 -367.09c0 -204.11 -154.08 -367.54 -351.6 -367.54zM400.079 49.8301
c162.26 0 281.97 136.97 281.97 304.25c0 167.46 -120.88 304.72 -282.42 304.72c-164.09 0 -281.979 -138.63 -281.979 -305.17c0 -167.75 122.26 -303.8 282.43 -303.8z" />
    <glyph glyph-name="Ocircumflex" unicode="&#xd4;" horiz-adv-x="800" 
d="M276.77 765.71l-36.541 36.54l143.48 141.12h36.7402l140.12 -141.12l-37.0898 -36.54l-121.85 119.77zM400.078 -13c-197.05 0 -352.05 162.05 -352.05 367.08c0 202.29 151.8 367.55 351.6 367.55c198.42 0 352.05 -163.43 352.05 -367.09
c0 -204.11 -154.08 -367.54 -351.6 -367.54zM400.078 49.8301c162.26 0 281.97 136.97 281.97 304.25c0 167.46 -120.88 304.72 -282.42 304.72c-164.09 0 -281.979 -138.63 -281.979 -305.17c0 -167.75 122.26 -303.8 282.43 -303.8z" />
    <glyph glyph-name="Odieresis" unicode="&#xd6;" horiz-adv-x="800" 
d="M324.25 808.28c-24.4805 0 -43.25 18.7695 -43.25 43.2598c0 24.9404 18.7695 43.1709 43.25 43.1709c24.9502 0 43.1807 -18.2305 43.1807 -43.1709c0 -24.4902 -18.2305 -43.2598 -43.1807 -43.2598zM476.54 808.28c-24.4902 0 -43.2598 18.7695 -43.2598 43.2598
c0 24.9404 18.7695 43.1709 43.2598 43.1709c24.9404 0 43.1709 -18.2305 43.1709 -43.1709c0 -24.4902 -18.2305 -43.2598 -43.1709 -43.2598zM400.08 -13c-197.05 0 -352.05 162.05 -352.05 367.08c0 202.29 151.8 367.55 351.6 367.55
c198.42 0 352.05 -163.43 352.05 -367.09c0 -204.11 -154.08 -367.54 -351.6 -367.54zM400.08 49.8301c162.26 0 281.97 136.97 281.97 304.25c0 167.46 -120.88 304.72 -282.42 304.72c-164.09 0 -281.979 -138.63 -281.979 -305.17c0 -167.75 122.26 -303.8 282.43 -303.8
z" />
    <glyph glyph-name="Ograve" unicode="&#xd2;" horiz-adv-x="800" 
d="M488.28 765.45l-206.14 108.8l32.29 58.4004l203.68 -115.42zM400.081 -13c-197.05 0 -352.05 162.05 -352.05 367.08c0 202.29 151.8 367.55 351.6 367.55c198.42 0 352.05 -163.43 352.05 -367.09c0 -204.11 -154.08 -367.54 -351.6 -367.54zM400.081 49.8301
c162.26 0 281.97 136.97 281.97 304.25c0 167.46 -120.88 304.72 -282.42 304.72c-164.09 0 -281.979 -138.63 -281.979 -305.17c0 -167.75 122.26 -303.8 282.43 -303.8z" />
    <glyph glyph-name="Oslash" unicode="&#xd8;" horiz-adv-x="800" 
d="M623.6 639.49c78.7998 -67.1504 128.08 -169.6 128.08 -284.949c0 -204.11 -154.08 -367.54 -351.6 -367.54c-64.7402 0 -124.95 17.4902 -176.61 48.2598l-48.5596 -73.3203l-48.5098 29.3701l50.8496 76.9004c-79.2598 66.9102 -129.22 169.47 -129.22 285.87
c0 202.29 151.8 367.55 351.6 367.55c65.2998 0 125.75 -17.7002 177.47 -48.71l47.7002 72.1299l48.5996 -30.3701zM117.649 353.631c0 -91.9102 36.7002 -174.301 96.2305 -230.021l327.57 495.4c-41.1504 25.2998 -89.3408 39.79 -141.821 39.79
c-164.09 0 -281.979 -138.63 -281.979 -305.17zM400.079 49.8301c162.26 0 281.97 136.97 281.97 304.25c0 91.4902 -36.0801 173.971 -95.1602 229.971l-327.73 -494.9c41.0703 -25.0303 89.0107 -39.3203 140.921 -39.3203z" />
    <glyph glyph-name="Otilde" unicode="&#xd5;" horiz-adv-x="800" 
d="M470.97 787.2c-55.46 0 -98.999 41 -142.999 41c-25 0 -46 -13 -64 -30l-34.5703 45.9697c25.7998 24.2598 59.6797 42.0596 97.8496 42.0596c59.29 0 97.9199 -41 141.92 -41c23.46 0 47.46 12 68.46 33l33.2197 -42.5996
c-28.6201 -29.3496 -61.8799 -48.4297 -99.8799 -48.4297zM400.081 -13c-197.05 0 -352.05 162.05 -352.05 367.08c0 202.29 151.8 367.55 351.6 367.55c198.42 0 352.05 -163.43 352.05 -367.09c0 -204.11 -154.08 -367.54 -351.6 -367.54zM400.081 49.8301
c162.26 0 281.97 136.97 281.97 304.25c0 167.46 -120.88 304.72 -282.42 304.72c-164.09 0 -281.979 -138.63 -281.979 -305.17c0 -167.75 122.26 -303.8 282.43 -303.8z" />
    <glyph glyph-name="OE" unicode="&#x152;" horiz-adv-x="1154" 
d="M400.97 -13c-191.32 0 -353.4 158.801 -353.4 369.251c0 201.2 157.26 365.38 353.479 365.38c128.03 0 233.181 -66.0303 283.801 -170.55l7.71973 4.71973c-3.08984 5 -6.08984 11.3701 -6.08984 20.4502v131.75h415.55v-61.75h-332.58
c-5 0 -9.08008 1.91992 -13.25 6.08984l-6.71973 -6.16992c4.62988 -4.62988 6.08984 -7.62988 6.08984 -14.3398v-217.12c0 -6.70996 -1.45996 -9.70996 -6.08984 -14.3398l6.71973 -6.16992c4.16992 4.16992 8.25 6.08008 13.25 6.08008h283.43v-61.7402h-283.43
c-5 0 -9.08008 1.91016 -13.25 6.08984l-6.71973 -6.17969c4.62988 -4.62012 6.08984 -7.62012 6.08984 -14.3398v-247.94c0 -6.71973 -1.45996 -9.71973 -6.08984 -14.3398l6.71973 -6.17969c4.16992 4.17969 8.25 6.08984 13.25 6.08984h332.58v-61.7402h-415.55v135.63
c0 9.08008 3 15.4502 6.08984 20.4502l-7.71973 4.71973c-52.7998 -107.23 -156.31 -173.801 -283.88 -173.801zM402.88 48.2012c161.72 0 286.319 132.08 286.319 308.05c0 167.46 -123.6 305.26 -287.319 305.26c-163.54 0 -285.771 -137 -285.771 -306.26
c0 -176.97 129.32 -307.05 286.771 -307.05z" />
    <glyph glyph-name="P" unicode="P" horiz-adv-x="592" 
d="M99.7695 0v707.999h194.63c164.8 0 266.77 -77.7998 266.77 -224.149c0 -144.08 -101.97 -224.14 -266.77 -224.14h-112.75c-5 0 -9.08008 1.91992 -13.25 6.08984l-6.71973 -6.16992c4.62988 -4.62988 6.08984 -7.62988 6.08984 -14.3496v-245.28h-68zM168.399 315.369
c4.16992 4.16992 8.25 6.08105 13.25 6.08105h112.75c123.63 0 198.77 53.5996 198.77 162.399s-75.1396 162.399 -198.77 162.399h-112.75c-5 0 -9.08008 1.91992 -13.25 6.08984l-6.71973 -6.16992c4.62988 -4.62988 6.08984 -7.62988 6.08984 -14.3398v-295.95
c0 -6.70996 -1.45996 -9.70996 -6.08984 -14.3398z" />
    <glyph glyph-name="Thorn" unicode="&#xde;" horiz-adv-x="609" 
d="M99.7695 0l0.000976562 707.999h68v-108.23c0 -6.71973 -1.45996 -9.71973 -6.08984 -14.3398l6.71973 -6.17969c4.16992 4.17969 8.25 6.08984 13.25 6.08984h117.86c166.43 0 266.229 -76 266.229 -222.09c0 -148.17 -94.9102 -231.31 -266.23 -231.31h-117.86
c-5 0 -9.08008 1.91016 -13.25 6.08984l-6.71973 -6.17969c4.62988 -4.62012 6.08984 -7.62012 6.08984 -14.3398v-117.51h-68zM168.4 188.139c4.16992 4.16992 8.25 6.09082 13.25 6.09082h116.78c123.62 0 198.22 52.8799 198.22 162.51
c0 107.46 -68.0801 166.31 -198.22 166.31h-116.78c-5 0 -9.08008 1.91992 -13.25 6.08984l-6.71973 -6.16992c4.62988 -4.62988 6.08984 -7.62988 6.08984 -14.3398v-299.98c0 -6.70996 -1.45996 -9.70996 -6.08984 -14.3398z" />
    <glyph glyph-name="Q" unicode="Q" horiz-adv-x="800" 
d="M586.52 32.8301c5.08984 0.459961 9.86035 0.140625 16.2607 -8.08984l76.5703 -98.2002l-52.3096 -39.25l-97.0303 124.91c-40 -16.2803 -83.7803 -25.2002 -129.931 -25.2002c-197.05 0 -352.05 162.05 -352.05 367.08c0 202.29 151.8 367.55 351.6 367.55
c198.42 0 352.05 -163.43 352.05 -367.09c0 -133.14 -65.5596 -248.979 -165.97 -313.43zM117.65 353.631c0 -167.75 122.26 -303.8 282.43 -303.8c162.26 0 281.97 136.97 281.97 304.25c0 167.46 -120.88 304.72 -282.42 304.72
c-164.09 0 -281.979 -138.63 -281.979 -305.17z" />
    <glyph glyph-name="R" unicode="R" horiz-adv-x="631" 
d="M99.7695 0v707.998h227.11c142.72 0 241.43 -66.3496 241.43 -202.689c0 -133.63 -98.1699 -197.43 -219.97 -201.6v-7.70996c7.88965 0.540039 15.7695 -4.34961 22.0293 -12.1494l232.83 -283.85h-82.6904l-249.6 303.17h-89.2598
c-5 0 -9.08008 1.91016 -13.25 6.08008l-6.71973 -6.16992c4.62988 -4.62988 6.08984 -7.62988 6.08984 -14.3398v-288.74h-68zM168.399 357.738c4.16992 4.16992 8.25 6.08984 13.25 6.08984h145.78c100.08 0 172.34 42.4004 172.34 141.48
c0 99.0898 -72.2598 140.939 -172.34 140.939h-145.78c-5 0 -9.08008 1.91992 -13.25 6.08984l-6.71973 -6.16992c4.62988 -4.62988 6.08984 -7.62988 6.08984 -14.3398v-253.58c0 -6.70996 -1.45996 -9.70996 -6.08984 -14.3398z" />
    <glyph glyph-name="S" unicode="S" horiz-adv-x="545" 
d="M271.08 -13c-105.4 0 -179.341 38.1094 -239.23 95.8496l41.1797 51.9502c51.1104 -52.1504 113.65 -84.9707 195.511 -84.9707c103.6 0 161.569 55.1699 161.569 130.8c0 89.9102 -78.0801 123.37 -166.37 156.65c-105.77 38.7197 -194.71 84.3994 -194.71 197.829
c0 108.32 76.5703 186.521 221.511 186.521c80.0596 0 141.859 -25.4297 193.77 -64.7197l-38.54 -51.7695c-37.9404 31.9404 -93.7705 53.6602 -155.141 53.6602c-84.7998 0 -153.06 -39.3203 -153.06 -120.771c0 -78.1797 66.2002 -106.55 154.311 -139.38
c111.92 -42.9697 207.86 -89.3994 207.86 -215.02c0 -125.8 -93.1699 -196.63 -228.66 -196.63z" />
    <glyph glyph-name="Scaron" unicode="&#x160;" horiz-adv-x="545" 
d="M246.51 767.6l-142.399 141.11l37.0898 36.54l125.05 -120.22l122.12 120.22l36.54 -36.54l-141.66 -141.11h-36.7402zM271.08 -13c-105.4 0 -179.341 38.1094 -239.23 95.8496l41.1797 51.9502c51.1104 -52.1504 113.65 -84.9707 195.511 -84.9707
c103.6 0 161.569 55.1699 161.569 130.8c0 89.9102 -78.0801 123.37 -166.37 156.65c-105.77 38.7197 -194.71 84.3994 -194.71 197.829c0 108.32 76.5703 186.521 221.511 186.521c80.0596 0 141.859 -25.4297 193.77 -64.7197l-38.54 -51.7695
c-37.9404 31.9404 -93.7705 53.6602 -155.141 53.6602c-84.7998 0 -153.06 -39.3203 -153.06 -120.771c0 -78.1797 66.2002 -106.55 154.311 -139.38c111.92 -42.9697 207.86 -89.3994 207.86 -215.02c0 -125.8 -93.1699 -196.63 -228.66 -196.63z" />
    <glyph glyph-name="T" unicode="T" horiz-adv-x="568" 
d="M250.71 0v631.83c0 6.70996 1.45996 9.70996 6.08984 14.3398l-6.71973 6.16992c-4.16992 -4.16992 -8.25 -6.08984 -13.25 -6.08984h-226.83v61.75h548.43v-61.75h-225.83c-5 0 -9.08984 1.91992 -13.2598 6.08984l-6.70996 -6.16992
c4.62012 -4.62988 6.08008 -7.62988 6.08008 -14.3398v-631.83h-68z" />
    <glyph glyph-name="U" unicode="U" horiz-adv-x="736" 
d="M367.45 -13c-165.71 0 -278.05 111 -278.05 308.05v412.95h68v-400.55c0 -173.82 83.4297 -257.62 210.05 -257.62c126.72 0 212.229 83.7998 212.229 257.62v400.55h66.9199v-412.95c0 -197.05 -112.89 -308.05 -279.149 -308.05z" />
    <glyph glyph-name="Uacute" unicode="&#xda;" horiz-adv-x="736" 
d="M279.34 765.45l-29.8301 51.2295l204.23 115.97l32.29 -57.3096zM367.45 -13c-165.71 0 -278.05 111 -278.05 308.05v412.95h68v-400.55c0 -173.82 83.4297 -257.62 210.05 -257.62c126.72 0 212.229 83.7998 212.229 257.62v400.55h66.9199v-412.95
c0 -197.05 -112.89 -308.05 -279.149 -308.05z" />
    <glyph glyph-name="Ucircumflex" unicode="&#xdb;" horiz-adv-x="736" 
d="M244.14 765.71l-36.541 36.54l143.48 141.12h36.75l140.11 -141.12l-37.0898 -36.54l-121.85 119.77zM367.448 -13c-165.71 0 -278.05 111 -278.05 308.05v412.95h68v-400.55c0 -173.82 83.4297 -257.62 210.05 -257.62c126.72 0 212.229 83.7998 212.229 257.62v400.55
h66.9199v-412.95c0 -197.05 -112.89 -308.05 -279.149 -308.05z" />
    <glyph glyph-name="Udieresis" unicode="&#xdc;" horiz-adv-x="736" 
d="M291.63 808.28c-24.4902 0 -43.2598 18.7695 -43.2598 43.2598c0 24.9404 18.7695 43.1709 43.2598 43.1709c24.9404 0 43.1709 -18.2305 43.1709 -43.1709c0 -24.4902 -18.2305 -43.2598 -43.1709 -43.2598zM443.91 808.28
c-24.4805 0 -43.2607 18.7695 -43.2607 43.2598c0 24.9404 18.7803 43.1709 43.2607 43.1709c24.9404 0 43.1709 -18.2305 43.1709 -43.1709c0 -24.4902 -18.2305 -43.2598 -43.1709 -43.2598zM367.45 -13c-165.71 0 -278.05 111 -278.05 308.05v412.95h68v-400.55
c0 -173.82 83.4297 -257.62 210.05 -257.62c126.72 0 212.229 83.7998 212.229 257.62v400.55h66.9199v-412.95c0 -197.05 -112.89 -308.05 -279.149 -308.05z" />
    <glyph glyph-name="Ugrave" unicode="&#xd9;" horiz-adv-x="736" 
d="M455.65 765.45l-206.14 108.8l32.29 58.4004l203.68 -115.42zM367.451 -13c-165.71 0 -278.05 111 -278.05 308.05v412.95h68v-400.55c0 -173.82 83.4297 -257.62 210.05 -257.62c126.72 0 212.229 83.7998 212.229 257.62v400.55h66.9199v-412.95
c0 -197.05 -112.89 -308.05 -279.149 -308.05z" />
    <glyph glyph-name="V" unicode="V" horiz-adv-x="629" 
d="M282.31 0l-269.659 708h74.4297l221.32 -594.52c3.62988 -10.8799 3.62988 -17.3398 3.62988 -23.9697h8.7998c0 6.16992 0 12.6299 4.08008 23.9697l219.14 594.52h72.2598l-270.11 -708h-63.8896z" />
    <glyph glyph-name="W" unicode="W" horiz-adv-x="976" 
d="M239.77 0l-223.2 708h72l175.03 -579.75c3.16992 -11.0498 3.70996 -19.8496 3.70996 -26.9395h8.7998c0 7.08984 0 15.8896 3.16992 26.9395l174.66 579.75h69.46l175.65 -579.75c3.17969 -11.0498 3.17969 -19.8496 3.17969 -26.9395h8.7998
c0 7.08984 0.540039 15.8896 3.70996 26.9395l174.49 579.75h70.4502l-223.2 -708h-61.25l-179.03 575.88c-3.16992 11.0596 -3.71973 20.3994 -3.71973 29.6592h-8.7998c0 -9.25977 0 -18.5996 -3.16992 -29.6592l-179.48 -575.88h-61.2598z" />
    <glyph glyph-name="X" unicode="X" horiz-adv-x="602" 
d="M10.7402 0l250.259 361.91l-238.89 346.09h76.7197l197.34 -284.52c3 -4.54004 3.45996 -10.54 3.45996 -14.71h8.7998c0 4.62988 0 10.71 3 15.2598l191 283.97h76.3398l-238.52 -347.55l251.98 -360.45h-76.7998l-209.72 297.8c-3.54004 5.08008 -4 11.0801 -4 15.7998
h-8.7998c0 -5.16992 0 -10.7197 -3 -15.2598l-202.91 -298.34h-76.2598z" />
    <glyph glyph-name="Y" unicode="Y" horiz-adv-x="608" 
d="M270.03 0v308.77l-255.92 399.23h75.7998l207.94 -325.86c4.62988 -6.70996 5.08984 -14.3398 5.08984 -17.9697h8.7998c0 4.08008 0 11.2598 4.08984 17.4297l206.57 326.4h72l-256.37 -398.69v-309.31h-68z" />
    <glyph glyph-name="Yacute" unicode="&#xdd;" horiz-adv-x="608" 
d="M211.34 765.45l-29.8301 51.2295l204.23 115.97l32.29 -57.3096zM270.029 -0v308.77l-255.92 399.23h75.7998l207.94 -325.86c4.62988 -6.70996 5.08984 -14.3398 5.08984 -17.9697h8.7998c0 4.08008 0 11.2598 4.08984 17.4297l206.57 326.4h72l-256.37 -398.69v-309.31
h-68z" />
    <glyph glyph-name="Ydieresis" unicode="&#x178;" horiz-adv-x="608" 
d="M223.63 808.28c-24.4902 0 -43.2598 18.7695 -43.2598 43.2598c0 24.9404 18.7695 43.1709 43.2598 43.1709c24.9404 0 43.1709 -18.2305 43.1709 -43.1709c0 -24.4902 -18.2305 -43.2598 -43.1709 -43.2598zM375.91 808.28
c-24.4805 0 -43.2607 18.7695 -43.2607 43.2598c0 24.9404 18.7803 43.1709 43.2607 43.1709c24.9404 0 43.1709 -18.2305 43.1709 -43.1709c0 -24.4902 -18.2305 -43.2598 -43.1709 -43.2598zM270.03 0v308.77l-255.92 399.23h75.7998l207.94 -325.86
c4.62988 -6.70996 5.08984 -14.3398 5.08984 -17.9697h8.7998c0 4.08008 0 11.2598 4.08984 17.4297l206.57 326.4h72l-256.37 -398.69v-309.31h-68z" />
    <glyph glyph-name="Z" unicode="Z" horiz-adv-x="609" 
d="M31.0498 0v54.71l439.49 574.29c5.54004 7 10.0898 8.4502 16.3398 8.4502v8.7998h-442.8v61.75h522.63v-55.2598l-438.94 -574.29c-6.08984 -7 -10.6299 -8.4502 -16.3398 -8.4502v-8.7998h464v-61.2002h-544.38z" />
    <glyph glyph-name="Zcaron" unicode="&#x17d;" horiz-adv-x="609" 
d="M281.43 767.6l-142.399 141.11l37.0801 36.54l125.06 -120.22l122.11 120.22l36.5498 -36.54l-141.66 -141.11h-36.7402zM31.0498 -0v54.71l439.49 574.29c5.54004 7 10.0898 8.4502 16.3398 8.4502v8.7998h-442.8v61.75h522.63v-55.2598l-438.94 -574.29
c-6.08984 -7 -10.6299 -8.4502 -16.3398 -8.4502v-8.7998h464v-61.2002h-544.38z" />
    <glyph glyph-name="a" unicode="a" horiz-adv-x="600" 
d="M275.57 -12.46c-127.66 0 -232.54 107.291 -232.54 248.541c0 142.35 106.88 248.46 232.54 248.46c102.8 0 157.34 -58.54 183.109 -98.46l7.71973 5.25977c-5.7998 8.25977 -8.25977 16.2598 -8.25977 26.4297v57.2305h64.9102v-475h-64.9102v54.7695
c0 11.2598 3 19.2598 8.25977 26.4297l-7.71973 5.25c-24.8496 -38.54 -80.3096 -98.9102 -183.109 -98.9102zM284.801 47.2012c105.74 0 177.51 84.6299 177.51 188.88c0 103.17 -71.7695 188.8 -177.51 188.8c-102.43 0 -176.859 -85.8799 -176.859 -188.8
c0 -105.63 74.5996 -188.88 176.859 -188.88z" />
    <glyph glyph-name="aacute" unicode="&#xe1;" horiz-adv-x="600" 
d="M203.17 542.97l-29.8311 51.2305l204.23 115.97l32.2803 -57.3203zM275.569 -12.46c-127.66 0 -232.54 107.291 -232.54 248.541c0 142.35 106.88 248.46 232.54 248.46c102.8 0 157.34 -58.54 183.109 -98.46l7.71973 5.25977
c-5.7998 8.25977 -8.25977 16.2598 -8.25977 26.4297v57.2305h64.9102v-475h-64.9102v54.7695c0 11.2598 3 19.2598 8.25977 26.4297l-7.71973 5.25c-24.8496 -38.54 -80.3096 -98.9102 -183.109 -98.9102zM284.8 47.2012c105.74 0 177.51 84.6299 177.51 188.88
c0 103.17 -71.7695 188.8 -177.51 188.8c-102.43 0 -176.859 -85.8799 -176.859 -188.8c0 -105.63 74.5996 -188.88 176.859 -188.88z" />
    <glyph glyph-name="acircumflex" unicode="&#xe2;" horiz-adv-x="600" 
d="M167.51 543.23l-36.54 36.54l143.48 141.11h36.75l140.11 -141.11l-37.0801 -36.54l-121.86 119.77zM275.569 -12.459c-127.66 0 -232.54 107.291 -232.54 248.541c0 142.35 106.88 248.46 232.54 248.46c102.8 0 157.34 -58.54 183.109 -98.46l7.71973 5.25977
c-5.7998 8.25977 -8.25977 16.2598 -8.25977 26.4297v57.2305h64.9102v-475h-64.9102v54.7695c0 11.2598 3 19.2598 8.25977 26.4297l-7.71973 5.25c-24.8496 -38.54 -80.3096 -98.9102 -183.109 -98.9102zM284.8 47.2021c105.74 0 177.51 84.6299 177.51 188.88
c0 103.17 -71.7695 188.8 -177.51 188.8c-102.43 0 -176.859 -85.8799 -176.859 -188.8c0 -105.63 74.5996 -188.88 176.859 -188.88z" />
    <glyph glyph-name="adieresis" unicode="&#xe4;" horiz-adv-x="600" 
d="M206.31 585.8c-24.4805 0 -43.2607 18.7695 -43.2607 43.25c0 24.9502 18.7803 43.1807 43.2607 43.1807c24.9404 0 43.1709 -18.2305 43.1709 -43.1807c0 -24.4805 -18.2305 -43.25 -43.1709 -43.25zM376.88 585.8c-24.4805 0 -43.25 18.7695 -43.25 43.25
c0 24.9502 18.7695 43.1807 43.25 43.1807c24.9502 0 43.1699 -18.2305 43.1699 -43.1807c0 -24.4805 -18.2197 -43.25 -43.1699 -43.25zM275.57 -12.46c-127.66 0 -232.54 107.291 -232.54 248.541c0 142.35 106.88 248.46 232.54 248.46
c102.8 0 157.34 -58.54 183.109 -98.46l7.71973 5.25977c-5.7998 8.25977 -8.25977 16.2598 -8.25977 26.4297v57.2305h64.9102v-475h-64.9102v54.7695c0 11.2598 3 19.2598 8.25977 26.4297l-7.71973 5.25c-24.8496 -38.54 -80.3096 -98.9102 -183.109 -98.9102z
M284.801 47.2012c105.74 0 177.51 84.6299 177.51 188.88c0 103.17 -71.7695 188.8 -177.51 188.8c-102.43 0 -176.859 -85.8799 -176.859 -188.8c0 -105.63 74.5996 -188.88 176.859 -188.88z" />
    <glyph glyph-name="agrave" unicode="&#xe0;" horiz-adv-x="600" 
d="M379.48 542.97l-206.14 108.799l32.29 58.4004l203.68 -115.43zM275.571 -12.4609c-127.66 0 -232.54 107.291 -232.54 248.541c0 142.35 106.88 248.46 232.54 248.46c102.8 0 157.34 -58.54 183.109 -98.46l7.71973 5.25977
c-5.7998 8.25977 -8.25977 16.2598 -8.25977 26.4297v57.2305h64.9102v-475h-64.9102v54.7695c0 11.2598 3 19.2598 8.25977 26.4297l-7.71973 5.25c-24.8496 -38.54 -80.3096 -98.9102 -183.109 -98.9102zM284.802 47.2002c105.74 0 177.51 84.6299 177.51 188.88
c0 103.17 -71.7695 188.8 -177.51 188.8c-102.43 0 -176.859 -85.8799 -176.859 -188.8c0 -105.63 74.5996 -188.88 176.859 -188.88z" />
    <glyph glyph-name="aring" unicode="&#xe5;" horiz-adv-x="600" 
d="M291.28 531.83c-57.54 0 -105.08 47.54 -105.08 104.62c0 56.5498 46.54 105.63 105.08 105.63c57.6299 0 105.17 -47.0801 105.17 -105.17c0 -58.54 -48.0801 -105.08 -105.17 -105.08zM290.83 576.83c31.7695 0 59.1709 24.9404 59.1709 59.6201
c0 34.1504 -26.4004 60.0908 -58.7207 60.0908c-33.2305 0 -59.1709 -27.8604 -59.1709 -60.0908c0 -33.2197 26.4004 -59.6201 58.7207 -59.6201zM275.571 -12.46c-127.66 0 -232.54 107.291 -232.54 248.541c0 142.35 106.88 248.46 232.54 248.46
c102.8 0 157.34 -58.54 183.109 -98.46l7.71973 5.25977c-5.7998 8.25977 -8.25977 16.2598 -8.25977 26.4297v57.2305h64.9102v-475h-64.9102v54.7695c0 11.2598 3 19.2598 8.25977 26.4297l-7.71973 5.25c-24.8496 -38.54 -80.3096 -98.9102 -183.109 -98.9102z
M284.802 47.2012c105.74 0 177.51 84.6299 177.51 188.88c0 103.17 -71.7695 188.8 -177.51 188.8c-102.43 0 -176.859 -85.8799 -176.859 -188.8c0 -105.63 74.5996 -188.88 176.859 -188.88z" />
    <glyph glyph-name="atilde" unicode="&#xe3;" horiz-adv-x="600" 
d="M362.17 564.71c-55.46 0 -98.999 41 -142.999 41c-25 0 -46 -13 -64 -30l-34.5703 45.9697c25.7998 24.2598 59.6797 42.0596 97.8496 42.0596c59.29 0 97.9199 -41 141.92 -41c23.46 0 47.46 12 68.46 33l33.2197 -42.5996
c-28.6201 -29.3398 -61.8799 -48.4297 -99.8799 -48.4297zM275.571 -12.46c-127.66 0 -232.54 107.291 -232.54 248.541c0 142.35 106.88 248.46 232.54 248.46c102.8 0 157.34 -58.54 183.109 -98.46l7.71973 5.25977c-5.7998 8.25977 -8.25977 16.2598 -8.25977 26.4297
v57.2305h64.9102v-475h-64.9102v54.7695c0 11.2598 3 19.2598 8.25977 26.4297l-7.71973 5.25c-24.8496 -38.54 -80.3096 -98.9102 -183.109 -98.9102zM284.802 47.2012c105.74 0 177.51 84.6299 177.51 188.88c0 103.17 -71.7695 188.8 -177.51 188.8
c-102.43 0 -176.859 -85.8799 -176.859 -188.8c0 -105.63 74.5996 -188.88 176.859 -188.88z" />
    <glyph glyph-name="ae" unicode="&#xe6;" horiz-adv-x="968" 
d="M702.08 484.54c134.6 0 231.691 -106.001 231.691 -248.461c0 -7.96973 -0.540039 -14.7695 -1.08984 -21.1094h-383.97c-11.5098 0 -13.9697 1.45996 -17.0596 5.08008l-6.70996 -6.16992c4.16992 -4.16992 6.16992 -7.16992 6.70996 -12.1699
c7.88965 -78.9404 73.1201 -154.511 173.15 -154.511c66.6299 0 117.63 29.4004 150.83 76.8008l46.5098 -35.0898c-43.54 -62 -111.69 -101.37 -197.891 -101.37c-78.0801 0 -143.57 40.2598 -181.74 98.9102l-7.70996 -5.25c5.25 -7.16992 8.25 -15.1699 8.25 -26.4297
v-54.7695h-64.9102v54.7695c0 11.2598 3 19.2598 8.25977 26.4297l-7.71973 5.25c-30.8301 -42.3398 -79.2305 -98.9102 -176.601 -98.9102c-129.83 0 -239.05 104.57 -239.05 248.54s110.14 248.46 239.05 248.46c98.46 0 150.29 -57.46 176.6 -97.3701l7.71973 5.25977
c-5.7998 8.25 -8.25977 16.25 -8.25977 26.4199v56.1504h64.9102v-56.1504c0 -10.1699 -2.4502 -18.1699 -8.25 -26.4199l7.70996 -5.25977c40.7197 60.2002 105.77 97.3701 179.569 97.3701zM284.802 47.1992c107.91 0 179.141 84.6299 179.141 188.88
c0 103.17 -71.2305 188.8 -179.141 188.8c-102.43 0 -176.859 -84.25 -176.859 -188.8c0 -105.63 72.4297 -188.88 176.859 -188.88zM531.571 264.109c3.08008 3.08984 6.08203 4 13.2617 4h310.31c7.16992 0 10.1699 -0.910156 13.2598 -4l6.70996 6.16992
c-4.70996 4.71973 -9.42969 9.88965 -11.0596 15.9697c-11.4004 71.6602 -75.7705 138.63 -161.421 138.63c-97.8604 0 -154.78 -77 -166.181 -138.63c-1.62012 -6.08008 -6.87988 -11.25 -11.5996 -15.9697z" />
    <glyph glyph-name="b" unicode="b" horiz-adv-x="600" 
d="M318.17 -12.46c-92.7998 0 -144.49 55.4883 -176.49 98.9082l-7.70996 -5.25c5.25977 -7.16992 8.25977 -15.1699 8.25977 -26.4297v-54.7695h-64.9199v708h64.9199v-289.6c0 -10.1699 -2.45996 -18.1699 -8.25977 -26.4297l7.70996 -5.25977
c28.0303 42.0898 84.1504 97.8301 176.49 97.8301c129.77 0 239.17 -105.94 239.17 -248.46c0 -143.05 -108.49 -248.54 -239.17 -248.54zM313.28 47.1982c107.92 0 179.15 84.71 179.15 188.88c0 103.09 -72.6904 188.8 -179.15 188.8c-100 0 -175.23 -83 -175.23 -188.8
c0 -104.8 75.2305 -188.88 175.23 -188.88z" />
    <glyph glyph-name="c" unicode="c" horiz-adv-x="517" 
d="M282.88 -12.46c-134.88 0 -240.397 108.909 -240.397 247.999c0 140.34 106.06 249 240.399 249c86.8896 0 162.689 -42.7998 201.149 -116.63l-51.8604 -30.9102c-29.7402 54.9404 -85.6006 87.8809 -149.291 87.8809c-100.54 0 -175.48 -84.2002 -175.48 -189.88
c0 -100.63 72.2305 -187.8 175.48 -187.8c67.6904 0 121.171 35.0303 150.921 88.3398l51.3096 -31.46c-40.0801 -71.3701 -114.061 -116.54 -202.23 -116.54z" />
    <glyph glyph-name="ccedilla" unicode="&#xe7;" horiz-adv-x="517" 
d="M485.11 104.08c-37.4199 -66.6299 -104.378 -110.431 -184.858 -115.95l-10.4805 -28.6201h8.54004c44.0898 0 93.54 -24.4297 93.54 -90.1396c0 -65.54 -44.4502 -97.7705 -107.4 -97.7705c-53.4805 0 -100.28 25.6299 -103.021 91.3994h47.7998
c3.82031 -35.4902 28.1104 -48.2305 57.1406 -48.2305c30.8604 0 53.5107 15.7402 53.5107 51.6006c0 30.3701 -16.71 50.6797 -58.2295 50.6797h-54.5703l24.6904 72.46c-119.65 15.2803 -209.29 117.84 -209.29 246.03c0 140.34 106.06 249 240.399 249
c86.8896 0 162.689 -42.7998 201.149 -116.63l-51.8604 -30.9102c-29.7402 54.9404 -85.6006 87.8809 -149.291 87.8809c-100.54 0 -175.48 -84.2002 -175.48 -189.88c0 -100.63 72.2305 -187.8 175.48 -187.8c67.6904 0 121.171 35.0303 150.921 88.3398z" />
    <glyph glyph-name="d" unicode="d" horiz-adv-x="600" 
d="M276.48 -12.46c-127.2 0 -233.45 102.712 -233.45 248.542c0 146.92 108.25 248.46 233.45 248.46c100.97 0 156.43 -58.54 182.199 -98.46l7.71973 5.25977c-5.7998 8.25977 -8.25977 16.2598 -8.25977 26.4297v290.229h64.9102v-708h-64.9102v54.7695
c0 11.2598 3 19.2598 8.25977 26.4297l-7.71973 5.25c-24.8496 -38.54 -81.6797 -98.9102 -182.199 -98.9102zM285.711 47.2021c103 0 176.14 84.6299 176.14 188.88c0 103.17 -72.6797 188.8 -176.14 188.8c-101.97 0 -177.77 -81.3096 -177.77 -188.8
c0 -110.2 75.9697 -188.88 177.77 -188.88z" />
    <glyph glyph-name="eth" unicode="&#xf0;" horiz-adv-x="579" 
d="M320.02 658.33c110.16 -71.4697 206.51 -197.241 207.49 -393.991v-16.1104c0 -158.4 -110.14 -260.69 -245.26 -260.69c-138.05 0 -239.77 114.26 -239.77 247.54c0 138.35 106.52 249.46 239.689 249.46c73.7998 0 137.68 -34.5098 172.34 -99.6299l7.71973 4.16992
c-27.0098 97.4502 -99.5293 178.32 -186.339 230.88l-80.4102 -69.9102l-31.9102 33.1201l68.8301 60.2002c-37.4805 17.7803 -76.5303 30.3906 -114.95 37.001l15.5498 50.4004c44.1201 -6.62988 94.7197 -22.0898 144.63 -47.8398l69.0801 60.4102l32.29 -33.7402z
M284.17 47.1982c110.28 0 178.06 91.6299 178.06 188.8c0 103.17 -72.4297 188.88 -178.52 188.88c-103.17 0 -176.31 -88 -176.31 -189.8c0 -101.25 72.8496 -187.88 176.77 -187.88z" />
    <glyph glyph-name="e" unicode="e" horiz-adv-x="537" 
d="M283.71 -12.46c-143.26 0 -240.229 109.369 -240.229 247.999c0 138.2 98.1201 249 236.43 249c127.54 0 223 -103.83 223 -248.46c0 -7.96973 -0.540039 -14.7695 -1.08008 -21.1094h-373.12c-11.5098 0 -13.9697 1.45996 -17.0596 5.08008l-6.70996 -6.16992
c4.16992 -4.16992 6.16992 -7.16992 6.70996 -12.1699c7.88965 -78.9404 69.3193 -154.511 172.06 -154.511c63.3701 0 110.03 29.4004 141.061 76.8008l46.5098 -35.0898c-41.3701 -62 -105.17 -101.37 -187.57 -101.37zM111.57 264.109
c3.08008 3.08984 6.08105 4 13.2607 4h299.45c7.16992 0 10.1699 -0.910156 13.2598 -4l6.70996 6.16992c-4.70996 4.71973 -9.41992 9.88965 -10.5098 15.9697c-8.13965 71.6602 -72.5098 138.63 -154.91 138.63c-95.6904 0 -153.69 -77 -162.381 -138.63
c-1.08008 -6.08008 -6.87988 -11.25 -11.5996 -15.9697z" />
    <glyph glyph-name="eacute" unicode="&#xe9;" horiz-adv-x="537" 
d="M186 542.97l-29.8311 51.2305l204.23 115.97l32.2803 -57.3203zM283.709 -12.46c-143.26 0 -240.229 109.369 -240.229 247.999c0 138.2 98.1201 249 236.43 249c127.54 0 223 -103.83 223 -248.46c0 -7.96973 -0.540039 -14.7695 -1.08008 -21.1094h-373.12
c-11.5098 0 -13.9697 1.45996 -17.0596 5.08008l-6.70996 -6.16992c4.16992 -4.16992 6.16992 -7.16992 6.70996 -12.1699c7.88965 -78.9404 69.3193 -154.511 172.06 -154.511c63.3701 0 110.03 29.4004 141.061 76.8008l46.5098 -35.0898
c-41.3701 -62 -105.17 -101.37 -187.57 -101.37zM111.569 264.109c3.08008 3.08984 6.08105 4 13.2607 4h299.45c7.16992 0 10.1699 -0.910156 13.2598 -4l6.70996 6.16992c-4.70996 4.71973 -9.41992 9.88965 -10.5098 15.9697
c-8.13965 71.6602 -72.5098 138.63 -154.91 138.63c-95.6904 0 -153.69 -77 -162.381 -138.63c-1.08008 -6.08008 -6.87988 -11.25 -11.5996 -15.9697z" />
    <glyph glyph-name="ecircumflex" unicode="&#xea;" horiz-adv-x="537" 
d="M150.34 543.23l-36.541 36.54l143.48 141.11h36.75l140.11 -141.11l-37.0898 -36.54l-121.85 119.77zM283.709 -12.459c-143.26 0 -240.229 109.369 -240.229 247.999c0 138.2 98.1201 249 236.43 249c127.54 0 223 -103.83 223 -248.46
c0 -7.96973 -0.540039 -14.7695 -1.08008 -21.1094h-373.12c-11.5098 0 -13.9697 1.45996 -17.0596 5.08008l-6.70996 -6.16992c4.16992 -4.16992 6.16992 -7.16992 6.70996 -12.1699c7.88965 -78.9404 69.3193 -154.511 172.06 -154.511
c63.3701 0 110.03 29.4004 141.061 76.8008l46.5098 -35.0898c-41.3701 -62 -105.17 -101.37 -187.57 -101.37zM111.569 264.11c3.08008 3.08984 6.08105 4 13.2607 4h299.45c7.16992 0 10.1699 -0.910156 13.2598 -4l6.70996 6.16992
c-4.70996 4.71973 -9.41992 9.88965 -10.5098 15.9697c-8.13965 71.6602 -72.5098 138.63 -154.91 138.63c-95.6904 0 -153.69 -77 -162.381 -138.63c-1.08008 -6.08008 -6.87988 -11.25 -11.5996 -15.9697z" />
    <glyph glyph-name="edieresis" unicode="&#xeb;" horiz-adv-x="537" 
d="M189.14 585.8c-24.4902 0 -43.2598 18.7695 -43.2598 43.25c0 24.9502 18.7695 43.1807 43.2598 43.1807c24.9404 0 43.1709 -18.2305 43.1709 -43.1807c0 -24.4805 -18.2305 -43.25 -43.1709 -43.25zM359.71 585.8c-24.4805 0 -43.2607 18.7695 -43.2607 43.25
c0 24.9502 18.7803 43.1807 43.2607 43.1807c24.9404 0 43.1709 -18.2305 43.1709 -43.1807c0 -24.4805 -18.2305 -43.25 -43.1709 -43.25zM283.71 -12.46c-143.26 0 -240.229 109.369 -240.229 247.999c0 138.2 98.1201 249 236.43 249c127.54 0 223 -103.83 223 -248.46
c0 -7.96973 -0.540039 -14.7695 -1.08008 -21.1094h-373.12c-11.5098 0 -13.9697 1.45996 -17.0596 5.08008l-6.70996 -6.16992c4.16992 -4.16992 6.16992 -7.16992 6.70996 -12.1699c7.88965 -78.9404 69.3193 -154.511 172.06 -154.511
c63.3701 0 110.03 29.4004 141.061 76.8008l46.5098 -35.0898c-41.3701 -62 -105.17 -101.37 -187.57 -101.37zM111.57 264.109c3.08008 3.08984 6.08105 4 13.2607 4h299.45c7.16992 0 10.1699 -0.910156 13.2598 -4l6.70996 6.16992
c-4.70996 4.71973 -9.41992 9.88965 -10.5098 15.9697c-8.13965 71.6602 -72.5098 138.63 -154.91 138.63c-95.6904 0 -153.69 -77 -162.381 -138.63c-1.08008 -6.08008 -6.87988 -11.25 -11.5996 -15.9697z" />
    <glyph glyph-name="egrave" unicode="&#xe8;" horiz-adv-x="537" 
d="M362.31 542.97l-206.141 108.799l32.2803 58.4004l203.69 -115.43zM283.709 -12.4609c-143.26 0 -240.229 109.369 -240.229 247.999c0 138.2 98.1201 249 236.43 249c127.54 0 223 -103.83 223 -248.46c0 -7.96973 -0.540039 -14.7695 -1.08008 -21.1094h-373.12
c-11.5098 0 -13.9697 1.45996 -17.0596 5.08008l-6.70996 -6.16992c4.16992 -4.16992 6.16992 -7.16992 6.70996 -12.1699c7.88965 -78.9404 69.3193 -154.511 172.06 -154.511c63.3701 0 110.03 29.4004 141.061 76.8008l46.5098 -35.0898
c-41.3701 -62 -105.17 -101.37 -187.57 -101.37zM111.569 264.108c3.08008 3.08984 6.08105 4 13.2607 4h299.45c7.16992 0 10.1699 -0.910156 13.2598 -4l6.70996 6.16992c-4.70996 4.71973 -9.41992 9.88965 -10.5098 15.9697
c-8.13965 71.6602 -72.5098 138.63 -154.91 138.63c-95.6904 0 -153.69 -77 -162.381 -138.63c-1.08008 -6.08008 -6.87988 -11.25 -11.5996 -15.9697z" />
    <glyph glyph-name="f" unicode="f" horiz-adv-x="318" 
d="M105.71 0l-0.000976562 402.45c0 6.71973 1.45996 9.25977 5.16992 12.9795l-6.70996 6.16992c-3.71973 -3.71973 -7.33984 -5.16992 -11.8896 -5.16992h-64.1699v58.5703h64.1699c4.5498 0 8.16992 -1.45996 11.8896 -5.16992l6.70996 6.16992
c-3.70996 3.70996 -5.16992 6.25 -5.16992 12.9697v20.6299c0 132.91 60.7998 203.851 170.66 203.851c8.66016 0 24.1104 -0.910156 39.6602 -3.82031v-60.8301h-2.62988c-4.16992 0 -16.5498 2.83008 -31.3193 2.83008c-76.2002 0 -111.45 -49.1504 -111.45 -132.46
v-30.2002c0 -6.71973 -1.45996 -9.25977 -5.17969 -12.9697l6.71973 -6.16992c3.70996 3.70996 7.33984 5.16992 11.8799 5.16992h122.52v-58.5703h-122.52c-4.54004 0 -8.16992 1.4502 -11.8799 5.16992l-6.71973 -6.16992
c3.71973 -3.71973 5.17969 -6.25977 5.17969 -12.9795v-402.45h-64.9199z" />
    <glyph glyph-name="g" unicode="g" horiz-adv-x="600" 
d="M280.83 -241.55l-0.999023 60.75c107.77 0 178.31 49.1396 178.31 185.83v44c0 17 2.45996 24.4502 8.25977 32.1699l-7.71973 5.25c-30.8301 -42.3398 -79.2305 -98.9102 -176.051 -98.9102c-132.55 0 -239.6 104.57 -239.6 248.54s107.97 248.46 240.14 248.46
c97.9102 0 149.2 -57.46 175.51 -97.3701l7.71973 5.25977c-5.7998 8.25 -8.25977 16.25 -8.25977 26.4199v56.1504h64.9102v-457.57c0 -205.46 -116.85 -258.979 -242.22 -258.979zM285.881 47.2002c105.2 0 178.061 84.0801 178.061 188.88
c0 105.35 -72.8604 188.8 -178.601 188.8c-105.14 0 -177.399 -86.4297 -177.399 -188.8c0 -105.08 71.8896 -188.88 177.939 -188.88z" />
    <glyph glyph-name="h" unicode="h" horiz-adv-x="553" 
d="M77.3096 0l-0.000976562 707.999h64.9199v-274.35c0 -10.71 -2.45996 -19.25 -8.25977 -27.5098l7.70996 -5.25977c25.0898 45.7197 79.1201 83.6602 149.97 83.6602c113.46 0 190.979 -71.0303 190.979 -215.54v-269h-64.9199v258.14
c0 102.94 -44.3096 165.66 -135.279 165.66c-96.1797 0 -140.199 -71.75 -140.199 -162.6v-261.2h-64.9199z" />
    <glyph glyph-name="i" unicode="i" horiz-adv-x="220" 
d="M109.31 601.08c-24.4805 0 -43.2607 18.7695 -43.2607 43.2598c0 24.9404 18.7803 43.1709 43.2607 43.1709c24.9404 0 43.1709 -18.2305 43.1709 -43.1709c0 -24.4902 -18.2305 -43.2598 -43.1709 -43.2598zM142.229 0h-64.9199v475h64.9199v-475z" />
    <glyph glyph-name="dotlessi" unicode="&#x131;" horiz-adv-x="220" 
d="M142.23 0h-64.9199v475h64.9199v-475z" />
    <glyph glyph-name="iacute" unicode="&#xed;" horiz-adv-x="220" 
d="M21.1104 542.97l-29.8301 51.2305l204.23 115.97l32.29 -57.3203zM142.23 0h-64.9199v475h64.9199v-475z" />
    <glyph glyph-name="icircumflex" unicode="&#xee;" horiz-adv-x="220" 
d="M-14.5498 543.23l-36.54 36.54l143.49 141.11h36.7402l140.11 -141.11l-37.0801 -36.54l-121.86 119.77zM142.23 0h-64.9199v475h64.9199v-475z" />
    <glyph glyph-name="idieresis" unicode="&#xef;" horiz-adv-x="220" 
d="M24.25 585.8c-24.4805 0 -43.25 18.7695 -43.25 43.25c0 24.9502 18.7695 43.1807 43.25 43.1807c24.9502 0 43.1807 -18.2305 43.1807 -43.1807c0 -24.4805 -18.2305 -43.25 -43.1807 -43.25zM194.83 585.8c-24.4902 0 -43.2598 18.7695 -43.2598 43.25
c0 24.9502 18.7695 43.1807 43.2598 43.1807c24.9404 0 43.1709 -18.2305 43.1709 -43.1807c0 -24.4805 -18.2305 -43.25 -43.1709 -43.25zM142.23 -0h-64.9199v475h64.9199v-475z" />
    <glyph glyph-name="igrave" unicode="&#xec;" horiz-adv-x="220" 
d="M197.43 542.97l-206.149 108.799l32.29 58.4004l203.68 -115.43zM142.23 -0.00195312h-64.9199v475h64.9199v-475z" />
    <glyph glyph-name="j" unicode="j" horiz-adv-x="228" 
d="M118.4 601.08c-24.4902 0 -43.2598 18.7695 -43.2598 43.2598c0 24.9404 18.7695 43.1709 43.2598 43.1709c24.9404 0 43.1709 -18.2305 43.1709 -43.1709c0 -24.4902 -18.2305 -43.2598 -43.1709 -43.2598zM-12.6895 -241.55v62.9209c47.29 0 98 22.3398 98 105.939
v547.69h64.9199v-537.49c0 -122.83 -58.75 -179.061 -162.92 -179.061z" />
    <glyph glyph-name="uni0237" unicode="&#x237;" horiz-adv-x="228" 
d="M-12.6904 -241.55v62.9209c47.29 0 98 22.3398 98 105.939v547.69h64.9199v-537.49c0 -122.83 -58.75 -179.061 -162.92 -179.061z" />
    <glyph glyph-name="k" unicode="k" horiz-adv-x="455" 
d="M77.3096 0l0.000976562 708.001h64.9199v-433.57h8.7998c0 10.5996 9.13965 21.5693 15.5996 27.5693l185.14 173h85.0596l-221.55 -207.03c-5.08008 -4.62988 -9.7998 -6.7998 -16.0498 -6.7998v-8.7998c6.25 0 11.9697 -1.62988 18.5996 -8.33984l242.71 -244.03
h-89.2305l-207.31 207.28c-6 6.08984 -12.9697 16.0596 -12.9697 26.5693h-8.7998v-233.85h-64.9199z" />
    <glyph glyph-name="l" unicode="l" horiz-adv-x="220" 
d="M77.3096 0v708h64.9199v-708h-64.9199z" />
    <glyph glyph-name="ldot" unicode="&#x140;" horiz-adv-x="279" 
d="M77.3096 0v708h64.9199v-708h-64.9199zM252.149 287.56c-25.9004 0 -45.75 19.8604 -45.75 45.75c0 26.3799 19.8496 45.6602 45.75 45.6602c26.3799 0 45.6602 -19.2803 45.6602 -45.6602c0 -25.8896 -19.2803 -45.75 -45.6602 -45.75z" />
    <glyph glyph-name="lslash" unicode="&#x142;" horiz-adv-x="290" 
d="M255.54 471.05v-65.8203l-78.2305 -56.5996v-348.63h-64.9102v301.67l-78.6904 -56.9297v65.8301l78.6904 56.9297v340.5h64.9102v-293.54z" />
    <glyph glyph-name="m" unicode="m" horiz-adv-x="846" 
d="M77.3096 0v474.998h64.9199v-40.8896c0 -15.5098 -5.17969 -22.9697 -8.25977 -27.9697l7.70996 -5.25977c28.8896 50.8896 77.1201 83.6592 146.23 83.6592c61.9404 0 125.431 -31.6602 148.32 -100c39.5098 79.4297 103.649 100 161.68 100
c95.5195 0 176.939 -61.71 176.939 -206.229v-278.31h-64.9102v267.17c0 81.4805 -25.9697 156.631 -121.09 156.631c-87.3398 0 -130.31 -65.0303 -130.31 -156.63v-267.17h-64.9102v271.28c0 82.8604 -30.5498 152.521 -122.46 152.521
c-83.6904 0 -128.94 -68.6904 -128.94 -148.4v-275.4h-64.9199z" />
    <glyph glyph-name="n" unicode="n" horiz-adv-x="555" 
d="M77.3096 0l-0.000976562 474.999h64.9199v-39.1699c0 -12.3496 -1.91992 -20.8896 -8.25977 -29.6895l7.70996 -5.25977c26.1699 46.2598 77.3203 83.6602 152.521 83.6602c112.54 0 189.51 -70.1104 189.51 -213.63v-270.91h-64.9102v260.05
c0 101.95 -45.4004 163.75 -134.92 163.75c-95.6299 0 -141.649 -71.75 -141.649 -162.6v-261.2h-64.9199z" />
    <glyph glyph-name="ntilde" unicode="&#xf1;" horiz-adv-x="555" 
d="M345.31 564.71c-55.46 0 -99 41 -143 41c-25 0 -46 -13 -64 -30l-34.5703 45.9697c25.7998 24.2598 59.6895 42.0596 97.8594 42.0596c59.2803 0 97.9102 -41 141.91 -41c23.46 0 47.46 12 68.46 33l33.2305 -42.5996
c-28.6299 -29.3398 -61.8896 -48.4297 -99.8896 -48.4297zM77.3096 -0l-0.000976562 474.999h64.9199v-39.1699c0 -12.3496 -1.91992 -20.8896 -8.25977 -29.6895l7.70996 -5.25977c26.1699 46.2598 77.3203 83.6602 152.521 83.6602
c112.54 0 189.51 -70.1104 189.51 -213.63v-270.91h-64.9102v260.05c0 101.95 -45.4004 163.75 -134.92 163.75c-95.6299 0 -141.649 -71.75 -141.649 -162.6v-261.2h-64.9199z" />
    <glyph glyph-name="o" unicode="o" horiz-adv-x="569" 
d="M285.63 -12.46c-140.26 0 -243.149 111.09 -243.149 249.54c0 136.46 104.72 247.46 243.149 247.46c138.25 0 241.05 -110.54 241.05 -247.46c0 -138 -102.8 -249.54 -241.05 -249.54zM285.17 47.2002c102.63 0 176.6 84.3398 176.6 189.43
c0 103.45 -73.0596 188.25 -176.6 188.25c-102.34 0 -177.77 -84.7998 -177.77 -188.25c0 -105.09 74.5098 -189.43 177.77 -189.43z" />
    <glyph glyph-name="oacute" unicode="&#xf3;" horiz-adv-x="569" 
d="M196.43 542.97l-29.8311 51.2305l204.23 115.97l32.2803 -57.3203zM285.629 -12.46c-140.26 0 -243.149 111.09 -243.149 249.54c0 136.46 104.72 247.46 243.149 247.46c138.25 0 241.05 -110.54 241.05 -247.46c0 -138 -102.8 -249.54 -241.05 -249.54z
M285.169 47.2002c102.63 0 176.6 84.3398 176.6 189.43c0 103.45 -73.0596 188.25 -176.6 188.25c-102.34 0 -177.77 -84.7998 -177.77 -188.25c0 -105.09 74.5098 -189.43 177.77 -189.43z" />
    <glyph glyph-name="ocircumflex" unicode="&#xf4;" horiz-adv-x="569" 
d="M160.77 543.23l-36.541 36.54l143.48 141.11h36.7402l140.12 -141.11l-37.0898 -36.54l-121.85 119.77zM285.629 -12.459c-140.26 0 -243.149 111.09 -243.149 249.54c0 136.46 104.72 247.46 243.149 247.46c138.25 0 241.05 -110.54 241.05 -247.46
c0 -138 -102.8 -249.54 -241.05 -249.54zM285.169 47.2012c102.63 0 176.6 84.3398 176.6 189.43c0 103.45 -73.0596 188.25 -176.6 188.25c-102.34 0 -177.77 -84.7998 -177.77 -188.25c0 -105.09 74.5098 -189.43 177.77 -189.43z" />
    <glyph glyph-name="odieresis" unicode="&#xf6;" horiz-adv-x="569" 
d="M199.57 585.8c-24.4902 0 -43.2598 18.7695 -43.2598 43.25c0 24.9502 18.7695 43.1807 43.2598 43.1807c24.9404 0 43.1709 -18.2305 43.1709 -43.1807c0 -24.4805 -18.2305 -43.25 -43.1709 -43.25zM370.141 585.8c-24.4902 0 -43.2598 18.7695 -43.2598 43.25
c0 24.9502 18.7695 43.1807 43.2598 43.1807c24.9404 0 43.1709 -18.2305 43.1709 -43.1807c0 -24.4805 -18.2305 -43.25 -43.1709 -43.25zM285.631 -12.46c-140.26 0 -243.149 111.09 -243.149 249.54c0 136.46 104.72 247.46 243.149 247.46
c138.25 0 241.05 -110.54 241.05 -247.46c0 -138 -102.8 -249.54 -241.05 -249.54zM285.171 47.2002c102.63 0 176.6 84.3398 176.6 189.43c0 103.45 -73.0596 188.25 -176.6 188.25c-102.34 0 -177.77 -84.7998 -177.77 -188.25c0 -105.09 74.5098 -189.43 177.77 -189.43z
" />
    <glyph glyph-name="ograve" unicode="&#xf2;" horiz-adv-x="569" 
d="M372.74 542.97l-206.141 108.799l32.2803 58.4004l203.69 -115.43zM285.63 -12.4609c-140.26 0 -243.149 111.09 -243.149 249.54c0 136.46 104.72 247.46 243.149 247.46c138.25 0 241.05 -110.54 241.05 -247.46c0 -138 -102.8 -249.54 -241.05 -249.54z
M285.17 47.1992c102.63 0 176.6 84.3398 176.6 189.43c0 103.45 -73.0596 188.25 -176.6 188.25c-102.34 0 -177.77 -84.7998 -177.77 -188.25c0 -105.09 74.5098 -189.43 177.77 -189.43z" />
    <glyph glyph-name="oslash" unicode="&#xf8;" horiz-adv-x="569" 
d="M404.22 453.93c74.4902 -42.0801 122.458 -123.31 122.458 -216.85c0 -138 -102.8 -249.54 -241.05 -249.54c-27.3496 0 -53.2793 4.21973 -77.2988 12.0498l-32.9297 -76.3896l-44.1699 18.1396l33.3301 77.6104c-74.5195 42.5195 -122.079 124 -122.079 218.13
c0 136.46 104.72 247.46 243.149 247.46c26.1104 0 50.96 -3.94043 74.0898 -11.2607l33.96 79.0596l44.7197 -19.1396zM107.397 236.631c0 -68.1602 31.3398 -127.59 81.54 -160.939l146.89 341.96c-15.8398 4.70996 -32.79 7.22949 -50.6602 7.22949
c-102.34 0 -177.77 -84.7998 -177.77 -188.25zM285.167 47.2012c102.63 0 176.601 84.3398 176.601 189.43c0 67.7197 -31.3096 127.45 -81.9795 160.63l-147.53 -342.17c16.5195 -5.13965 34.2393 -7.88965 52.9092 -7.88965z" />
    <glyph glyph-name="otilde" unicode="&#xf5;" horiz-adv-x="569" 
d="M355.43 564.71c-55.46 0 -99 41 -143 41c-25 0 -46 -13 -64 -30l-34.5801 45.9697c25.7998 24.2598 59.6895 42.0596 97.8594 42.0596c59.29 0 97.9199 -41 141.92 -41c23.4502 0 47.4502 12 68.4502 33l33.2305 -42.5996
c-28.6299 -29.3398 -61.8799 -48.4297 -99.8799 -48.4297zM285.63 -12.46c-140.26 0 -243.149 111.09 -243.149 249.54c0 136.46 104.72 247.46 243.149 247.46c138.25 0 241.05 -110.54 241.05 -247.46c0 -138 -102.8 -249.54 -241.05 -249.54zM285.17 47.2002
c102.63 0 176.6 84.3398 176.6 189.43c0 103.45 -73.0596 188.25 -176.6 188.25c-102.34 0 -177.77 -84.7998 -177.77 -188.25c0 -105.09 74.5098 -189.43 177.77 -189.43z" />
    <glyph glyph-name="oe" unicode="&#x153;" horiz-adv-x="968" 
d="M285.63 -12.46c-139.18 0 -243.15 110.539 -243.15 248.459c0 137 105.26 248.54 243.149 248.54c107.68 0 188.34 -67.1699 205.05 -144.46h8.7998c20.1699 78.2002 99.8301 144.46 201.97 144.46c134.6 0 231.689 -106 231.689 -248.46
c0 -7.96973 -0.540039 -14.7695 -1.08984 -21.1094h-383.97c-11.5098 0 -13.9697 1.45996 -17.0498 5.08008l-6.71973 -6.16992c4.16992 -4.16992 6.16992 -7.16992 6.71973 -12.1699c7.87988 -78.9404 73.1104 -154.511 173.141 -154.511
c66.6299 0 117.63 29.4004 150.83 76.8008l46.5098 -35.0898c-43.54 -62 -111.68 -101.37 -197.88 -101.37c-100.72 0 -189.979 63.29 -204.149 142.09h-8.7998c-19.4297 -78.7197 -105 -142.09 -205.05 -142.09zM285.169 47.1992c102.63 0 177.14 83.7998 177.14 188.34
s-72.5098 189.34 -177.14 189.34c-101.8 0 -177.77 -84.7998 -177.77 -189.34s75.0498 -188.34 177.77 -188.34zM530.938 264.109c3.08984 3.08984 6.0918 4 13.2617 4h310.31c7.16992 0 10.1699 -0.910156 13.2598 -4l6.70996 6.16992
c-4.70996 4.71973 -9.42969 9.88965 -11.0498 15.9697c-11.4004 71.6602 -75.7803 138.63 -161.431 138.63c-97.8604 0 -154.771 -77 -166.171 -138.63c-1.62988 -6.08008 -6.88965 -11.25 -11.5996 -15.9697z" />
    <glyph glyph-name="p" unicode="p" horiz-adv-x="601" 
d="M77.3096 -231l-0.000976562 705.999h64.9199v-57.6904c0 -10.1699 -2.45996 -18.1699 -8.25977 -26.4297l7.70996 -5.25c24.8604 38.54 81.6904 98.9102 182.2 98.9102c126.12 0 233.46 -101.09 233.46 -248c0 -145.83 -107.17 -249 -233.46 -249
c-100.97 0 -156.43 58.54 -182.199 98.46l-7.70996 -5.25977c5.25977 -7.16992 8.25977 -15.1699 8.25977 -26.4297v-285.31h-64.9199zM314.648 47.1992c100.89 0 177.778 79.1396 177.778 189.34c0 107.49 -74.8896 188.34 -177.779 188.34
c-103 0 -176.14 -85.1699 -176.14 -188.34c0 -104.26 72.6904 -189.34 176.141 -189.34z" />
    <glyph glyph-name="thorn" unicode="&#xfe;" horiz-adv-x="601" 
d="M77.3096 -231v938.999h64.9199v-290.69c0 -11.2598 -4.62988 -19.7998 -8.25977 -25.3398l7.70996 -5.25977c29.2002 40.7197 82.2305 97.8301 177.86 97.8301c132.09 0 237.8 -103.8 237.8 -248s-107.17 -249 -239.97 -249c-94.46 0 -145.57 56.3701 -175.69 98.46
l-7.70996 -5.25977c4.70996 -6.62988 8.25977 -14.0898 8.25977 -26.4297v-285.31h-64.9199zM314.109 47.1992c103.06 0 178.319 79.6787 178.319 189.339c0 106.94 -74.3496 188.341 -178.319 188.341c-101.91 0 -175.601 -84.0801 -175.601 -188.34
c0 -104.8 73.2305 -189.34 175.601 -189.34z" />
    <glyph glyph-name="q" unicode="q" horiz-adv-x="600" 
d="M281.54 -12.46c-129.29 0 -238.509 104.57 -238.509 248.54s110.14 248.46 238.51 248.46c98.46 0 151.37 -57.46 177.14 -97.3701l7.71973 5.25977c-5.7998 8.25 -8.25977 16.25 -8.25977 26.4199v56.1504h64.9102v-706h-64.9102v285.771
c0 11.2598 3 19.2598 8.25977 26.4297l-7.71973 5.25c-30.2803 -41.7998 -79.7705 -98.9102 -177.141 -98.9102zM285.881 47.2002c104.12 0 176.431 84.0801 176.431 188.88c0 105.35 -73.4004 188.8 -176.971 188.8c-104.06 0 -177.399 -86.4297 -177.399 -188.8
c0 -104 72.4297 -188.88 177.939 -188.88z" />
    <glyph glyph-name="r" unicode="r" horiz-adv-x="321" 
d="M142.23 0l-64.9219 -0.000976562v475h64.9199v-45.5195c0 -13.1699 -3.08984 -20.7998 -8.25977 -28.7998l7.70996 -5.25c33.79 61.3701 89.6201 88.5703 145.9 88.5205c6.7002 0 12.8506 -0.490234 18.501 -1.32031v-68.3496c-11.54 2 -20.71 2.5498 -30.71 2.5498
c-83.3398 0 -133.14 -64.7197 -133.14 -156.95v-259.88z" />
    <glyph glyph-name="s" unicode="s" horiz-adv-x="419" 
d="M205.71 -12.46c-64.7998 0 -125.682 18.7988 -174.682 59.8291l30.5703 50.4004c46.2803 -40.4004 99.8301 -52.2002 145.65 -52.2002c69.46 0 106.95 27.3398 106.95 77.8594c0 126.94 -260.17 53.1104 -260.17 230.25c0 74.4902 56.8496 130.86 160.42 130.86
c56.2305 0 110.83 -14.4297 154.03 -48.7998l-32.7402 -48.0596c-39.3701 29.29 -77.8301 38.8301 -120.03 38.8301c-69.1699 0 -98.9395 -32.5098 -98.9395 -71.2793c0 -116.32 261.26 -47.3799 261.26 -227.46c0 -87.3203 -61.2598 -140.23 -172.319 -140.23z" />
    <glyph glyph-name="scaron" unicode="&#x161;" horiz-adv-x="419" 
d="M188.88 545.11l-142.399 141.12l37.0898 36.54l125.06 -120.23l122.11 120.23l36.54 -36.54l-141.65 -141.12h-36.75zM205.711 -12.46c-64.7998 0 -125.682 18.7988 -174.682 59.8291l30.5703 50.4004c46.2803 -40.4004 99.8301 -52.2002 145.65 -52.2002
c69.46 0 106.95 27.3398 106.95 77.8594c0 126.94 -260.17 53.1104 -260.17 230.25c0 74.4902 56.8496 130.86 160.42 130.86c56.2305 0 110.83 -14.4297 154.03 -48.7998l-32.7402 -48.0596c-39.3701 29.29 -77.8301 38.8301 -120.03 38.8301
c-69.1699 0 -98.9395 -32.5098 -98.9395 -71.2793c0 -116.32 261.26 -47.3799 261.26 -227.46c0 -87.3203 -61.2598 -140.23 -172.319 -140.23z" />
    <glyph glyph-name="germandbls" unicode="&#xdf;" horiz-adv-x="568" 
d="M77.3096 0l-0.000976562 480.881c0 142.2 67.1396 236.66 205.17 236.2c121.32 -0.450195 197.03 -76.54 197.03 -178.48c0 -92.9199 -43.5996 -135.49 -94.5098 -154.431v-8.7998c67.1699 -10.6602 140.91 -60.0898 140.91 -172.12
c0 -126.08 -87.6299 -203.25 -222.54 -203.25h-78.6904v60.2002h78.6904c101.34 0 157.63 56.8301 157.63 143.6c0 81.9102 -54 139.2 -167.72 139.2h-68.5996v59.1104h66.9697c67.29 0 122.4 40.46 122.4 128.43c0 72.8896 -49.0801 125.34 -131.57 125.8
c-105.57 0.459961 -140.25 -71.3398 -140.25 -177.63v-478.71h-64.9199z" />
    <glyph glyph-name="t" unicode="t" horiz-adv-x="317" 
d="M119.37 0v402.45c0 6.71973 1.45996 9.25977 5.16992 12.9795l-6.70996 6.16992c-3.71973 -3.71973 -7.34961 -5.16992 -11.8896 -5.16992h-91.3096v58.5703h91.3096c4.54004 0 8.16992 -1.45996 11.8896 -5.16992l6.70996 6.16992
c-3.70996 3.70996 -5.16992 6.25 -5.16992 12.9697v145.57h64.9102v-145.57c0 -6.71973 -1.4502 -9.25977 -5.16992 -12.9697l6.71973 -6.16992c3.70996 3.70996 7.33984 5.16992 11.8799 5.16992h106.49v-58.5703h-106.49c-4.54004 0 -8.16992 1.4502 -11.8799 5.16992
l-6.71973 -6.16992c3.71973 -3.71973 5.16992 -6.25977 5.16992 -12.9795v-402.45h-64.9102z" />
    <glyph glyph-name="u" unicode="u" horiz-adv-x="547" 
d="M273.97 -12.46c-126.06 0 -203.66 81.0303 -203.66 220.261v267.2h64.9199v-263.86c0 -107.29 50.7695 -162.86 138.739 -163.94c87.4297 0 137.66 57.7402 137.66 163.94v263.86h64.9102v-267.2c0 -139.23 -77.5996 -220.261 -202.569 -220.261z" />
    <glyph glyph-name="uacute" unicode="&#xfa;" horiz-adv-x="547" 
d="M184.23 542.97l-29.8311 51.2305l204.23 115.97l32.2803 -57.3203zM273.97 -12.46c-126.06 0 -203.66 81.0303 -203.66 220.261v267.2h64.9199v-263.86c0 -107.29 50.7695 -162.86 138.739 -163.94c87.4297 0 137.66 57.7402 137.66 163.94v263.86h64.9102v-267.2
c0 -139.23 -77.5996 -220.261 -202.569 -220.261z" />
    <glyph glyph-name="ucircumflex" unicode="&#xfb;" horiz-adv-x="547" 
d="M148.57 543.23l-36.541 36.54l143.48 141.11h36.7402l140.12 -141.11l-37.0898 -36.54l-121.85 119.77zM273.97 -12.459c-126.06 0 -203.66 81.0303 -203.66 220.261v267.2h64.9199v-263.86c0 -107.29 50.7695 -162.86 138.739 -163.94
c87.4297 0 137.66 57.7402 137.66 163.94v263.86h64.9102v-267.2c0 -139.23 -77.5996 -220.261 -202.569 -220.261z" />
    <glyph glyph-name="udieresis" unicode="&#xfc;" horiz-adv-x="547" 
d="M187.37 585.8c-24.4902 0 -43.2598 18.7695 -43.2598 43.25c0 24.9502 18.7695 43.1807 43.2598 43.1807c24.9404 0 43.1709 -18.2305 43.1709 -43.1807c0 -24.4805 -18.2305 -43.25 -43.1709 -43.25zM357.94 585.8c-24.4902 0 -43.2598 18.7695 -43.2598 43.25
c0 24.9502 18.7695 43.1807 43.2598 43.1807c24.9404 0 43.1709 -18.2305 43.1709 -43.1807c0 -24.4805 -18.2305 -43.25 -43.1709 -43.25zM273.971 -12.46c-126.06 0 -203.66 81.0303 -203.66 220.261v267.2h64.9199v-263.86c0 -107.29 50.7695 -162.86 138.739 -163.94
c87.4297 0 137.66 57.7402 137.66 163.94v263.86h64.9102v-267.2c0 -139.23 -77.5996 -220.261 -202.569 -220.261z" />
    <glyph glyph-name="ugrave" unicode="&#xf9;" horiz-adv-x="547" 
d="M360.54 542.97l-206.141 108.799l32.2803 58.4004l203.69 -115.43zM273.97 -12.4609c-126.06 0 -203.66 81.0303 -203.66 220.261v267.2h64.9199v-263.86c0 -107.29 50.7695 -162.86 138.739 -163.94c87.4297 0 137.66 57.7402 137.66 163.94v263.86h64.9102v-267.2
c0 -139.23 -77.5996 -220.261 -202.569 -220.261z" />
    <glyph glyph-name="v" unicode="v" horiz-adv-x="471" 
d="M197.51 0l-185.309 475h69.1699l144.88 -378.2c4.62988 -12.3496 6.7998 -21.6895 6.7998 -32.2891h9.25977c0 10.5996 2.16992 19.3994 6.7998 32.8291l143.52 377.66h65.3701l-184.86 -475h-75.6299z" />
    <glyph glyph-name="w" unicode="w" horiz-adv-x="728" 
d="M183.23 0l-170.659 475h68.0801l132.12 -376.06c4.54004 -12.71 5.62988 -20.8896 5.62988 -29.6895h8.7998c0 8.7998 1.54004 15.8896 5.62988 29.6895l109 376.06h45.1396l112.63 -376.06c3.54004 -12.71 5.62988 -20.8896 5.62988 -29.6895h8.7998
c0 8.7998 0.540039 15.8896 5.62012 29.6895l130.12 376.06h66.2803l-172.65 -475h-73.7197l-95.4805 316.65c-3.5498 12.7197 -5.62988 21.9795 -5.62988 30.7793h-8.7998c0 -8.7998 -1.08984 -16.9795 -5.62988 -30.7793l-96.7402 -316.65h-74.1699z" />
    <glyph glyph-name="x" unicode="x" horiz-adv-x="452" 
d="M13.6504 0l171.891 246.91l-155.97 228.09h73.2598l115.42 -169.52c3.08984 -5.16992 4.17969 -10.7998 4.17969 -16.5996h8.7998c0 5.7998 0.540039 11.4297 3.62012 16.0596l116.43 170.06h71.2598l-158.69 -226.63l175.06 -248.37h-73.7998l-134.97 189.34
c-3.08984 4.62988 -3.62988 10.2598 -3.62988 16.0596h-8.7998c0 -5.7998 -0.540039 -11.4297 -4.16992 -16.5996l-129.17 -188.8h-70.7197z" />
    <glyph glyph-name="y" unicode="y" horiz-adv-x="477" 
d="M125.11 -231l85.4004 225.711l-197.31 480.29h71.1699l150.97 -370.32c4.08984 -10.71 5.70996 -19.5098 5.70996 -29.5693h9.25977c0 10.0596 1.62988 18.8594 5.71973 30.1191l144.08 369.77h66.9199l-278.18 -706h-63.7402z" />
    <glyph glyph-name="yacute" unicode="&#xfd;" horiz-adv-x="477" 
d="M151.68 542.97l-29.8301 51.2305l204.23 115.97l32.29 -57.3203zM125.109 -231l85.4004 225.711l-197.31 480.29h71.1699l150.97 -370.32c4.08984 -10.71 5.70996 -19.5098 5.70996 -29.5693h9.25977c0 10.0596 1.62988 18.8594 5.71973 30.1191l144.08 369.77h66.9199
l-278.18 -706h-63.7402z" />
    <glyph glyph-name="ydieresis" unicode="&#xff;" horiz-adv-x="477" 
d="M154.83 585.8c-24.4902 0 -43.2598 18.7695 -43.2598 43.25c0 24.9502 18.7695 43.1807 43.2598 43.1807c24.9404 0 43.1709 -18.2305 43.1709 -43.1807c0 -24.4805 -18.2305 -43.25 -43.1709 -43.25zM325.4 585.8c-24.4902 0 -43.2598 18.7695 -43.2598 43.25
c0 24.9502 18.7695 43.1807 43.2598 43.1807c24.9404 0 43.1709 -18.2305 43.1709 -43.1807c0 -24.4805 -18.2305 -43.25 -43.1709 -43.25zM125.11 -231l85.4004 225.711l-197.31 480.29h71.1699l150.97 -370.32c4.08984 -10.71 5.70996 -19.5098 5.70996 -29.5693h9.25977
c0 10.0596 1.62988 18.8594 5.71973 30.1191l144.08 369.77h66.9199l-278.18 -706h-63.7402z" />
    <glyph glyph-name="z" unicode="z" horiz-adv-x="452" 
d="M39.1699 0v56.5703l297.91 364.03l-6.70996 6.16992c-6.71973 -6.16992 -12.4297 -10.3398 -24.9395 -10.3398h-268.35v58.5703h373.17v-57.4004l-297.91 -363.2l6.70996 -6.16992c6.71973 6.16992 12.4297 10.3398 24.9492 10.3398h273.229v-58.5703h-378.06z" />
    <glyph glyph-name="zcaron" unicode="&#x17e;" horiz-adv-x="452" 
d="M203.88 545.11l-142.399 141.12l37.0898 36.54l125.06 -120.23l122.11 120.23l36.54 -36.54l-141.65 -141.12h-36.75zM39.1709 0l-0.000976562 56.5703l297.91 364.03l-6.70996 6.16992c-6.71973 -6.16992 -12.4297 -10.3398 -24.9395 -10.3398h-268.35v58.5703h373.17
v-57.4004l-297.91 -363.2l6.70996 -6.16992c6.71973 6.16992 12.4297 10.3398 24.9492 10.3398h273.23v-58.5703h-378.06z" />
    <glyph glyph-name="b.ss01" horiz-adv-x="588" 
d="M305.41 -12.46c-148.67 0 -239.56 118.369 -239.56 248.539v471.92h64.9199v-289.6c0 -10.1699 -2.45996 -18.1699 -8.25977 -26.4297l7.71973 -5.25977c28.0195 42.0898 84.1396 97.8301 176.479 97.8301c129.77 0 239.17 -105.94 239.17 -248.46
c0 -142.29 -106.75 -248.54 -240.47 -248.54zM301.83 47.1992c107.91 0 179.141 84.71 179.141 188.88c0 103.09 -72.6904 188.8 -179.141 188.8c-100 0 -175.23 -83 -175.23 -188.8c0 -104.8 75.2305 -188.88 175.23 -188.88z" />
    <glyph glyph-name="d.ss01" horiz-adv-x="587" 
d="M280.74 -12.46c-134.28 0 -238.8 103.47 -238.8 248.54c0 146.92 108.26 248.46 233.46 248.46c100.97 0 156.43 -58.54 182.199 -98.46l7.70996 5.25977c-5.7998 8.25977 -8.25977 16.2598 -8.25977 26.4297v290.23h64.9199v-465.95
c0 -143.74 -93.5996 -254.51 -241.229 -254.51zM284.63 47.2002c103 0 176.141 84.6299 176.141 188.88c0 103.17 -72.6904 188.8 -176.141 188.8c-101.98 0 -177.78 -81.3096 -177.78 -188.8c0 -110.2 75.9805 -188.88 177.78 -188.88z" />
    <glyph glyph-name="f.ss01" horiz-adv-x="290" 
d="M77.3096 0l-0.000976562 509.6c0 132.91 60.7998 203.851 170.66 203.851c8.2002 0 25.4805 -0.450195 39.6602 -2.91016v-60.8301h-2.62988c-4.16992 0 -16.5498 1.91992 -31.3193 1.91992c-76.2002 0 -111.45 -49.1504 -111.45 -132.46v-30.2002
c0 -6.71973 -1.45996 -9.25977 -5.17969 -12.9697l6.71973 -6.16992c3.70996 3.70996 7.33984 5.16992 11.8799 5.16992h122.52v-58.5703h-122.52c-4.54004 0 -8.16992 1.4502 -11.8799 5.16992l-6.71973 -6.16992c3.71973 -3.71973 5.17969 -6.25977 5.17969 -12.9795
v-402.45h-64.9199z" />
    <glyph glyph-name="g.ss01" horiz-adv-x="589" 
d="M280.83 -241.55l-1 60.75c107.77 0 178.31 49.1396 178.31 185.83v44c0 17 2.45996 24.4502 8.25977 32.1699l-7.71973 5.25c-30.8301 -42.3398 -79.2305 -98.9102 -176.051 -98.9102c-132.55 0 -239.6 104.57 -239.6 248.54s107.97 248.46 240.14 248.46
c155.98 0 239.881 -108.86 239.881 -247.04v-220.07c0 -205.46 -116.85 -258.979 -242.22 -258.979zM285.88 47.2002c105.2 0 178.061 84.0801 178.061 188.88c0 105.35 -72.8604 188.8 -178.601 188.8c-105.14 0 -177.399 -86.4297 -177.399 -188.8
c0 -105.08 71.8896 -188.88 177.939 -188.88z" />
    <glyph glyph-name="l.ss01" horiz-adv-x="252" 
d="M242.68 -5.62988c-104.47 0 -170.83 38.2314 -170.83 177.911v535.72h64.9199v-538.32c0 -90.4004 43.8604 -118.28 105.91 -118.28v-57.0303z" />
    <glyph glyph-name="lslash.ss01" horiz-adv-x="304" 
d="M170.68 169.68c0 -90.4004 43.8604 -118.28 105.92 -118.28v-57.0303c-104.47 0 -170.83 38.2305 -170.83 177.91v136.04l-73.4297 -53.1201v65.8301l73.4297 53.1201v333.85h64.9102v-286.89l83.4902 60.4004v-65.8301l-83.4902 -60.4004v-185.6z" />
    <glyph glyph-name="p.ss01" horiz-adv-x="588" 
d="M65.4004 -231l-0.000976562 464.42c0 149.06 104.49 251.119 238.641 251.119c134.04 0 241.39 -101.09 241.39 -248c0 -145.83 -107.18 -249 -233.46 -249c-100.97 0 -156.43 58.54 -182.199 98.46l-7.71973 -5.25977
c5.25977 -7.16992 8.25977 -15.1699 8.25977 -26.4297v-285.31h-64.9102zM302.739 47.2002c100.89 0 177.77 79.1396 177.77 189.34c0 107.49 -74.8799 188.34 -177.77 188.34c-103 0 -176.14 -85.1699 -176.14 -188.34c0 -104.26 72.6797 -189.34 176.14 -189.34z" />
    <glyph glyph-name="q.ss01" horiz-adv-x="588" 
d="M457.6 -231l0.000976562 285.771c0 11.2598 3 19.2598 8.25 26.4297l-7.70996 5.25c-30.29 -41.7998 -79.7705 -98.9102 -177.141 -98.9102c-129.29 0 -238.521 104.57 -238.521 248.54s110.15 248.46 242.32 248.46c142.17 0 237.71 -103.88 237.71 -245.5v-470.04
h-64.9102zM285.341 47.2002c104.11 0 176.431 84.0801 176.431 188.88c0 105.35 -73.4004 188.8 -176.971 188.8c-104.06 0 -177.399 -86.4297 -177.399 -188.8c0 -104 72.4297 -188.88 177.939 -188.88z" />
    <glyph glyph-name="t.ss01" horiz-adv-x="326" 
d="M305.23 -5.16992c-130.78 -2.29004 -191.89 37.3691 -191.89 177.449v230.17c0 6.71973 1.45996 9.25977 5.16992 12.9795l-6.70996 6.16992c-3.71973 -3.71973 -7.34961 -5.16992 -11.8896 -5.16992h-85.3701v58.5703h85.3701
c4.54004 0 8.16992 -1.45996 11.8896 -5.16992l6.70996 6.16992c-3.70996 3.70996 -5.16992 6.25 -5.16992 12.9697v146.11h64.9102v-146.11c0 -6.71973 -1.4502 -9.25977 -5.16992 -12.9697l6.71973 -6.16992c3.70996 3.70996 7.33984 5.16992 11.8799 5.16992h113.55
v-58.5703h-113.55c-4.54004 0 -8.16992 1.4502 -11.8799 5.16992l-6.71973 -6.16992c3.71973 -3.71973 5.16992 -6.25977 5.16992 -12.9795v-232.77c0 -100.68 42.46 -119.649 126.979 -117.369v-57.4805z" />
    <glyph glyph-name="ordfeminine" unicode="&#xaa;" horiz-adv-x="465" 
d="M213.77 373.08c-97.1699 0 -170.198 74.0898 -170.198 169.55c0 94 71.2002 171.91 170.2 171.91c50.1396 0 99.7393 -22.2305 124.739 -66l6.08984 4.16992c-3.62988 4.54004 -7.08984 12.9199 -7.08984 22.6299l1.62988 31.29h54.0596v-325h-55.6904v31.2002
c0 7.54004 2.91992 17 6.54004 21.54l-5.54004 4.16992c-27.3701 -46.0596 -76.0605 -65.46 -124.74 -65.46zM219.111 422.97c68.7998 0 118.939 50.1689 118.939 119.569c0 74.8896 -50.0498 121.569 -119.399 121.569c-74.0498 0 -119.939 -54.5996 -119.939 -121.029
c0 -68.0498 48.9697 -120.109 120.399 -120.109z" />
    <glyph glyph-name="ordmasculine" unicode="&#xba;" horiz-adv-x="433" 
d="M390.48 544.63c0 -94 -76 -171 -174 -171c-95 0 -174 73 -174 169c0 94 75 173 174 173c96 0 174 -75 174 -171zM216.94 426.229c69.71 0 117.859 53.0498 117.859 118.399c0 65.3398 -48.5996 118.399 -118.319 118.399c-69.71 0 -118.31 -54.0596 -118.31 -119.399
c0 -65.3496 50.0596 -117.399 118.77 -117.399z" />
    <glyph glyph-name="uni03BC" unicode="&#x3bc;" horiz-adv-x="555" 
d="M77.3096 -231l-0.000976562 706h64.9199v-264.15c0 -108.65 40.2002 -163.11 137.37 -163.11c100.37 0 139.65 56.29 139.65 163.11v264.15h64.9199v-278.35c0 -147.17 -78.6904 -209.65 -201.32 -209.65c-66.8496 0 -112.819 21.3096 -141.169 68.2793l-7.16992 -5.25
c2.54004 -4.45996 7.71973 -11.9199 7.71973 -23.1797v-257.85h-64.9199z" />
    <glyph glyph-name="zero" unicode="0" horiz-adv-x="592" 
d="M296.17 -13c-144.06 0 -229.4 109.199 -229.4 251.049v241.12c0 133.71 88.5996 242.37 229.399 242.37c137 0 229.4 -104.31 229.4 -242.369v-241.12c0 -137.51 -82.0898 -251.05 -229.399 -251.05zM296.169 55.249c106.08 0 158.681 81.6592 158.681 186.6v229.72
c0 97.3398 -55.3096 181.17 -158.68 181.17c-101.2 0 -158.69 -80.0303 -158.69 -181.17v-229.72c0 -101.14 50.4297 -186.6 158.689 -186.6z" />
    <glyph glyph-name="one" unicode="1" horiz-adv-x="319" 
d="M155.83 0l-0.000976562 628.57c0 6.70996 2 10.2598 6.62012 14.8799l-6.70996 6.17969c-4.16992 -4.17969 -8.7998 -6.62988 -13.7998 -6.62988h-131.06v65h214.03v-708h-69.0801z" />
    <glyph glyph-name="two" unicode="2" horiz-adv-x="535" 
d="M47.71 0l-0.540039 62.2803l239.51 244.4c84.6299 87.3496 118 139.569 118 204.149c0 84.0195 -63.0801 142.449 -149.34 142.449c-66.5098 0 -128.66 -34.7695 -154.29 -117.68l-62.7402 23.8301c34.4297 110.05 121.37 162.109 221.03 162.109
c122.6 0 216.06 -78.1104 216.06 -205.2c0 -97.0303 -54.4902 -167.29 -125.37 -240.34l-184 -185.35c-13.0596 -13.5996 -18.6895 -16.8496 -27.1191 -16.8496v-8.7998h349.92v-65h-441.12z" />
    <glyph glyph-name="three" unicode="3" horiz-adv-x="542" 
d="M260.45 -13c-123.14 0 -198.711 77.1709 -220.881 181.341l67.0801 18.3096c15.8301 -77.6797 69.4297 -131.399 153.72 -131.399c84.5703 0 158.431 51.6299 158.431 149.09c0 94.7998 -66.0303 149.109 -179.261 149.109v59.2002
c92.9404 0 152.171 42.5996 152.171 122.689c0 69.1396 -47.1396 119.029 -126.68 119.029c-77.1504 0 -128.78 -48.0596 -143.15 -118.229l-63.2803 14.8604c19.6299 101.28 98.3701 170.54 207.51 170.54c120.23 0 195.4 -74.8896 195.4 -178.14
c0 -74.9697 -43.2803 -131.17 -106.2 -152.32v-8.7998c72.7998 -13.4805 134.2 -80.54 134.2 -182.83c0 -128.48 -98.71 -212.45 -229.06 -212.45z" />
    <glyph glyph-name="four" unicode="4" horiz-adv-x="563" 
d="M371.25 0v163.74c0 6.70996 1.45996 9.25977 5.17969 12.9697l-6.71973 6.16992c-3.70996 -3.70996 -7.33984 -5.16992 -11.8799 -5.16992h-338.92v60.1201l356.54 471.08h64.3496v-455.48c0 -6.71973 -1.45996 -9.25977 -5.16992 -12.9795l6.70996 -6.16992
c3.70996 3.71973 7.33984 5.16992 11.8896 5.16992h71.25v-61.7402h-71.25c-4.5498 0 -8.17969 1.45996 -11.8896 5.16992l-6.70996 -6.16992c3.70996 -3.70996 5.16992 -6.25977 5.16992 -12.9697v-163.74h-68.5498zM369.71 234.28l6.71875 6.1709
c-3.71973 3.71973 -5.17969 6.25977 -5.17969 12.9795v317.51c0 12.1699 3.45996 18.1699 8.08984 25.9697l-8.16992 5.08984l-258.06 -343.86c-5.70996 -7.25977 -8.70996 -9.88965 -16.6797 -9.88965v-8.7998h261.4c4.54004 0 8.16992 -1.4502 11.8799 -5.16992z" />
    <glyph glyph-name="five" unicode="5" horiz-adv-x="548" 
d="M267.97 -13c-116.77 0 -200.74 75.0498 -231.12 177.939l67.3799 19.6904c19.2002 -69.4297 73.54 -129.38 163.57 -129.38c101.45 0 170.601 66.29 170.601 170.26c0 98.3701 -61.7197 172.54 -168.029 172.54c-54.2305 0 -112.23 -25.1104 -148.341 -74.54
l-59.9199 11.2598l61 373.23h329.66l-4.16992 -65h-268.63l-38.0596 -227.57l8.25977 -1.5498c36.5996 32.7998 86.4795 49.1699 138.109 49.1699c124.57 0 220.29 -96.54 220.29 -237.08c0 -141.34 -104.32 -238.97 -240.601 -238.97z" />
    <glyph glyph-name="six" unicode="6" horiz-adv-x="559" 
d="M287.91 -13c-132.26 0 -242.881 103.63 -242.881 237.08c0 53.0303 18.2002 104.12 48.6201 162.351l165.63 321.57h76.4297l-138.94 -266.17l7.70996 -4.08984c14.5703 17.0596 59.5205 31.9092 97.001 31.9092c128.66 0 227.771 -101.28 227.771 -243.021
c0 -136 -108 -239.63 -241.34 -239.63zM288.909 54.71c98.8301 0 169.63 74.5703 169.63 172.29c0 104.11 -73.54 178.74 -170.09 178.74c-100.91 0 -172.71 -77.5703 -172.71 -180.11c0 -98.6299 74.2598 -170.92 173.17 -170.92z" />
    <glyph glyph-name="seven" unicode="7" horiz-adv-x="490" 
d="M14.6299 643.27v64.7305h461.25v-65l-294.91 -643h-74.4297l286.74 622.68c4.16992 8.88965 10.3496 11.5195 13.9697 11.5195v9.07031h-392.62z" />
    <glyph glyph-name="eight" unicode="8" horiz-adv-x="563" 
d="M281.39 -13.5498c-126.19 0 -229.729 87.79 -229.729 215.16c0 81.7402 49.2002 156.46 122.08 181.68v5.78027c-60.9199 29.1504 -95.2402 85.7607 -95.2402 153.171c0 100.36 87.1797 178.761 202.89 178.761c115.7 0 202.88 -78.4004 202.88 -178.761
c0 -67.4102 -34.3203 -124.021 -95.2402 -153.171v-5.78027c72.8799 -25.2197 122.08 -99.9395 122.08 -181.68c0 -127.37 -103.54 -215.16 -229.72 -215.16zM281.391 410.5c81.9697 0 134.15 55.9502 134.15 122.66c0 72.3301 -53.2402 123.05 -134.15 123.05
c-80.9199 0 -134.16 -50.7197 -134.16 -123.05c0 -66.71 52.1797 -122.66 134.16 -122.66zM281.392 53.2998c96.8301 0 161.601 62.71 161.601 147.86c0 82.7197 -61.3301 149.689 -161.6 149.689c-100.28 0 -161.601 -66.9697 -161.601 -149.689
c0 -85.1504 64.7598 -147.86 161.6 -147.86z" />
    <glyph glyph-name="nine" unicode="9" horiz-adv-x="559" 
d="M223.11 0l139.491 266.171l-7.71973 4.08008c-14.5703 -17.0498 -59.5107 -31.9102 -97.001 -31.9102c-128.65 0 -227.771 101.29 -227.771 243.03c0 136.32 108 240.17 241.34 240.17c132.26 0 242.89 -103.85 242.89 -237.63
c0 -53.0303 -18.2002 -104.11 -48.6299 -162.341l-165.63 -321.57h-76.9697zM270.911 302.251c100.92 0 172.72 77.5801 172.72 180.12c0 98.9502 -74.2598 171.46 -173.18 171.46c-98.8203 0 -169.62 -74.79 -169.62 -172.83c0 -104.12 73.54 -178.75 170.08 -178.75z" />
    <glyph glyph-name="zero.osf" horiz-adv-x="590" 
d="M296.45 -13c-146.62 0 -253.97 111.08 -253.97 257.63c0 144.54 109.17 254.97 253.97 254.97c144.63 0 251.43 -110.43 251.43 -254.97c0 -146.09 -106.8 -257.63 -251.43 -257.63zM295.94 54.1699c105.58 0 181.279 80.4102 181.229 189.94
c0.0498047 106.48 -74.7305 188.32 -181.23 188.32c-105.24 0 -182.8 -81.8398 -182.74 -188.32c-0.0595703 -109.53 76.5908 -189.94 182.741 -189.94z" />
    <glyph glyph-name="one.osf" horiz-adv-x="319" 
d="M155.83 0l-0.000976562 404.2c0 6.70996 2 10.25 6.62012 14.8799l-6.70996 6.16992c-4.16992 -4.16992 -8.7998 -6.62012 -13.7998 -6.62012h-131.06v65h214.03v-483.63h-69.0801z" />
    <glyph glyph-name="two.osf" horiz-adv-x="524" 
d="M47.1699 0l0.270508 55.2285l201.03 136.48c73.0498 49.2695 122.74 88.0898 122.74 146.6c0 59.2598 -45.3096 93.1396 -110.939 93.1396c-63.6904 0 -114.23 -32.3096 -133.221 -100.25l-66.1602 19.71c25.5195 96.2305 110.18 148.801 205.09 148.801
c105.35 0 175.029 -63.46 175.029 -159.77c0 -77.7695 -46.7002 -127.26 -140.54 -189.06l-106.26 -71c-6.84961 -4.44043 -13.0801 -6.08008 -20.8701 -6.08008v-8.7998h310.33v-65h-436.5z" />
    <glyph glyph-name="three.osf" horiz-adv-x="542" 
d="M260.45 -234.83c-123.14 0 -198.711 77.1699 -220.881 181.34l67.0801 18.3203c15.8301 -77.6904 69.4297 -131.4 153.72 -131.4c84.5703 0 158.431 51.6201 158.431 149.08c0 94.7998 -66.0303 149.12 -179.261 149.12v59.2002
c92.9404 0 152.171 42.5996 152.171 122.68c0 69.1396 -47.1396 119.029 -126.68 119.029c-77.1504 0 -128.78 -48.0596 -143.15 -118.229l-63.2803 14.8604c19.6299 101.28 98.3701 170.54 207.51 170.54c120.23 0 195.4 -74.8799 195.4 -178.14
c0 -74.9697 -43.2803 -131.17 -106.2 -152.32v-8.7998c72.7998 -13.4805 134.2 -80.54 134.2 -182.82c0 -128.49 -98.71 -212.46 -229.06 -212.46z" />
    <glyph glyph-name="four.osf" horiz-adv-x="558" 
d="M366.28 -208.8v194.83c0 6.70996 1.45996 9.25 5.16992 12.9697l-6.70996 6.16992c-3.70996 -3.71973 -7.33984 -5.16992 -11.8896 -5.16992h-338.28v60.1104l358.2 426h62.0596v-410.4c0 -6.70996 -1.45996 -9.25977 -5.17969 -12.9697l6.71973 -6.16992
c3.70996 3.70996 7.33984 5.16992 11.8799 5.16992h71.2598v-61.7402h-71.2598c-4.54004 0 -8.16992 1.4502 -11.8799 5.16992l-6.71973 -6.16992c3.71973 -3.71973 5.17969 -6.25977 5.17969 -12.9697v-194.83h-68.5498zM364.74 56.5703l6.70996 6.16992
c-3.70996 3.70996 -5.16992 6.25977 -5.16992 12.9697v277.86c0 12.1699 3.45996 18.1699 8.08984 25.9697l-8.16992 5.08984l-252.72 -304.2c-5.7998 -7.16992 -8.70996 -9.88965 -16.6797 -9.88965v-8.7998h256.05c4.5498 0 8.17969 -1.45996 11.8896 -5.16992z" />
    <glyph glyph-name="five.osf" horiz-adv-x="548" 
d="M267.97 -234.83c-116.77 0 -200.74 75.0596 -231.12 177.939l67.3799 19.6904c19.2002 -69.4297 73.54 -129.37 163.57 -129.37c101.45 0 170.601 66.2803 170.601 170.25c0 98.3701 -61.7197 172.55 -168.029 172.55c-54.2305 0 -112.23 -25.1201 -148.341 -74.5498
l-59.9199 11.2598l61 373.23h329.66l-4.16992 -65h-268.63l-38.0596 -227.57l8.25977 -1.5498c36.5996 32.7998 86.4795 49.1797 138.109 49.1797c124.57 0 220.29 -96.5498 220.29 -237.09c0 -141.34 -104.32 -238.97 -240.601 -238.97z" />
    <glyph glyph-name="six.osf" horiz-adv-x="572" 
d="M287 -13c-132.26 0 -242.891 103.63 -242.891 237.08c0 53.0303 18.2002 104.12 48.6299 162.351l165.63 321.57h76.4297l-138.95 -266.17l7.71973 -4.08984c14.5703 17.0596 59.5107 31.9092 97.001 31.9092c128.66 0 227.771 -101.28 227.771 -243.021
c0 -136 -108 -239.63 -241.34 -239.63zM287.999 54.71c98.8301 0 169.63 74.5703 169.63 172.29c0 104.11 -73.5498 178.74 -170.09 178.74c-100.91 0 -172.71 -77.5703 -172.71 -180.11c0 -98.6299 74.25 -170.92 173.17 -170.92z" />
    <glyph glyph-name="seven.osf" horiz-adv-x="490" 
d="M14.6299 421.44v64.7305h461.25v-65l-294.91 -643h-74.4297l286.74 622.68c4.16992 8.88965 10.3496 11.5195 13.9697 11.5195v9.07031h-392.62z" />
    <glyph glyph-name="eight.osf" horiz-adv-x="563" 
d="M281.39 -13.5498c-126.19 0 -229.729 87.79 -229.729 215.16c0 81.7402 49.2002 156.46 122.08 181.68v5.78027c-60.9199 29.1504 -95.2402 85.7607 -95.2402 153.171c0 100.36 87.1797 178.761 202.89 178.761c115.7 0 202.88 -78.4004 202.88 -178.761
c0 -67.4102 -34.3203 -124.021 -95.2402 -153.171v-5.78027c72.8799 -25.2197 122.08 -99.9395 122.08 -181.68c0 -127.37 -103.54 -215.16 -229.72 -215.16zM281.391 410.5c81.9697 0 134.15 55.9502 134.15 122.66c0 72.3301 -53.2402 123.05 -134.15 123.05
c-80.9199 0 -134.16 -50.7197 -134.16 -123.05c0 -66.71 52.1797 -122.66 134.16 -122.66zM281.392 53.2998c96.8301 0 161.601 62.71 161.601 147.86c0 82.7197 -61.3301 149.689 -161.6 149.689c-100.28 0 -161.601 -66.9697 -161.601 -149.689
c0 -85.1504 64.7598 -147.86 161.6 -147.86z" />
    <glyph glyph-name="nine.osf" horiz-adv-x="572" 
d="M237.11 -221.83l139.491 266.171l-7.71973 4.08984c-14.5703 -17.0596 -59.5107 -31.9199 -97.001 -31.9199c-128.65 0 -227.771 101.29 -227.771 243.03c0 136.33 108 240.17 241.34 240.17c132.26 0 242.89 -103.84 242.89 -237.63
c0 -53.0303 -18.2002 -104.11 -48.6299 -162.341l-165.63 -321.57h-76.9697zM284.911 80.4307c100.92 0 172.72 77.5703 172.72 180.11c0 98.9502 -74.2598 171.46 -173.18 171.46c-98.8203 0 -169.62 -74.79 -169.62 -172.83c0 -104.12 73.54 -178.74 170.08 -178.74z" />
    <glyph glyph-name="uni00B9" unicode="&#xb9;" horiz-adv-x="241" 
d="M112.4 267.37v380.159c0 7.44043 1.67969 9.44043 4.85938 13.2002l-4.66992 4.08984c-4.66992 -5.16992 -7.30957 -5.93945 -11.9795 -5.93945h-76.9805v50.2002h144.28v-441.71h-55.5098z" />
    <glyph glyph-name="uni00B2" unicode="&#xb2;" horiz-adv-x="408" 
d="M57.4805 604.18c15.9297 74.9404 75.1084 112.451 143.328 112.451c81.7803 0 138.5 -52.2598 138.5 -130.439c0 -55.2305 -37.5498 -106.601 -74.7197 -144.081l-108.51 -109.51c-6.9502 -6.9502 -10.3105 -8.81055 -15.0801 -8.81055v-6.21973h205.03v-50.2002h-284.51
l0.0400391 46.6299l156.23 157.14c36 36.2305 64.6504 74.1709 64.6504 114.541c0 48.0195 -33.7695 80.3291 -83.8594 80.3291c-45.3203 0 -79.1504 -28.1602 -89.4004 -74.4902z" />
    <glyph glyph-name="uni00B3" unicode="&#xb3;" horiz-adv-x="393" 
d="M343.57 393.6c0 -79.3896 -62.999 -133.188 -150.839 -133.188c-75.9004 0 -132.881 41.6201 -148.881 108.24l51.8203 14.0996c11.9199 -42.9404 47.7197 -72.2705 97.2393 -72.2705c53.8701 0 93.3398 30.2197 93.3398 85.25
c0 58.2402 -41.6602 86.4199 -109.43 86.4199v45.7197c55.2598 0 90.75 24.6699 90.75 73.5498c0 43.0596 -31.5098 67.4492 -72.8398 67.4492c-43.8604 0 -72.9502 -27.3604 -82 -65.7305l-52.8799 12.5596c12.75 61.1904 66.1699 100.931 135.08 100.931
c75.8604 0 128.92 -42.9102 128.92 -109.99c0 -42.9404 -19.7197 -77.54 -63.7197 -93.4297v-5.66992c51.3896 -10.79 83.4395 -57.4697 83.4395 -113.939z" />
    <glyph glyph-name="fraction" unicode="&#x2044;" horiz-adv-x="440" 
d="M50.1699 0h-57.7695l398.4 733.48h57.7695z" />
    <glyph glyph-name="onehalf" unicode="&#xbd;" horiz-adv-x="791" 
d="M178.83 0h-57.7803l398.4 733.48h57.7803zM120.149 267.37v380.159c0 7.44043 1.67969 9.44043 4.84961 13.2002l-4.66992 4.08984c-4.66992 -5.16992 -7.2998 -5.93945 -11.9795 -5.93945h-76.9805v50.2002h144.28v-441.71h-55.5zM457.85 338.18
c15.9297 74.9404 75.1084 112.451 143.328 112.451c81.7803 0 138.5 -52.2598 138.5 -130.439c0 -55.2305 -37.5498 -106.601 -74.7197 -144.081l-108.51 -109.51c-6.9502 -6.9502 -10.3105 -8.81055 -15.0801 -8.81055v-6.21973h205.03v-50.2002h-284.51l0.0400391 46.6299
l156.23 157.14c36 36.2305 64.6504 74.1709 64.6504 114.541c0 48.0195 -33.7695 80.3291 -83.8594 80.3291c-45.3203 0 -79.1504 -28.1602 -89.4004 -74.4902z" />
    <glyph glyph-name="onequarter" unicode="&#xbc;" horiz-adv-x="751" 
d="M178.28 0h-57.7695l398.4 733.48h57.7695zM120.15 267.37v380.159c0 7.44043 1.67969 9.44043 4.84961 13.2002l-4.66992 4.08984c-4.66992 -5.16992 -7.2998 -5.93945 -11.9795 -5.93945h-76.9805v50.2002h144.28v-441.71h-55.5zM597.851 -0.000976562
l-0.000976562 83.6006c0 4.61035 2.61035 7.43066 4.89062 9.54102l-4.82031 5c-2.83008 -2.80957 -5.70996 -5.58984 -10.3096 -5.58984h-222.1v52.0498l229.16 294.97h60.1602v-283.84c0 -4.62012 -2.61035 -7.42969 -4.87988 -9.54004l4.82031 -4.9502
c2.82031 2.70996 5.70996 5.5498 10.2998 5.5498h47.3096v-54.2402h-47.3096c-4.58984 0 -7.47949 2.78027 -10.2998 5.58984l-4.82031 -5c2.26953 -2.11035 4.87988 -4.93066 4.87988 -9.54102v-83.5996h-56.9805zM597.92 141.239l4.82031 4.94922
c-2.28027 2.11035 -4.89062 4.91992 -4.89062 9.54004v184.86c0 10.5498 3.41992 15.5 6.95996 19.4404l-6.12988 4.13965l-163.12 -206.41c-3.13965 -3.67969 -6.30957 -4.5293 -9.59961 -4.5293v-6.44043h161.65c4.59961 0 7.47949 -2.83984 10.3096 -5.5498z" />
    <glyph glyph-name="threequarters" unicode="&#xbe;" horiz-adv-x="848" 
d="M289.17 0h-57.7695l398.4 733.48h57.7695zM337.74 393.6c0 -79.3896 -63.001 -133.188 -150.841 -133.188c-75.8896 0 -132.88 41.6201 -148.87 108.24l51.8203 14.0996c11.9102 -42.9404 47.71 -72.2705 97.2295 -72.2705c53.8701 0 93.3398 30.2197 93.3398 85.25
c0 58.2402 -41.6602 86.4199 -109.43 86.4199v45.7197c55.2598 0 90.7598 24.6699 90.7598 73.5498c0 43.0596 -31.5195 67.4492 -72.8496 67.4492c-43.8496 0 -72.9492 -27.3604 -81.999 -65.7305l-52.8799 12.5596c12.75 61.1904 66.1699 100.931 135.08 100.931
c75.8604 0 128.92 -42.9102 128.92 -109.99c0 -42.9404 -19.7197 -77.54 -63.71 -93.4297v-5.66992c51.3799 -10.79 83.4297 -57.4697 83.4297 -113.939zM698.109 0.000976562l-0.000976562 83.6006c0 4.61035 2.61035 7.43066 4.89062 9.54102l-4.82031 5
c-2.83008 -2.80957 -5.71973 -5.58984 -10.3096 -5.58984h-222.1v52.0498l229.15 294.97h60.1699v-283.84c0 -4.62012 -2.61035 -7.42969 -4.89062 -9.54004l4.82031 -4.9502c2.82031 2.70996 5.7207 5.5498 10.3105 5.5498h47.3096v-54.2402h-47.3096
c-4.58984 0 -7.49023 2.78027 -10.3105 5.58984l-4.82031 -5c2.28027 -2.11035 4.89062 -4.93066 4.89062 -9.54102v-83.5996h-56.9805zM698.179 141.241l4.82031 4.94922c-2.28027 2.11035 -4.89062 4.91992 -4.89062 9.54004v184.86
c0 10.5498 3.41016 15.5 6.9502 19.4404l-6.12012 4.13965l-163.13 -206.41c-3.12988 -3.67969 -6.2998 -4.5293 -9.59961 -4.5293v-6.44043h161.66c4.58984 0 7.47949 -2.83984 10.3096 -5.5498z" />
    <glyph glyph-name="asterisk" unicode="*" horiz-adv-x="408" 
d="M178.99 752.01l48.5801 -0.000976562v-94.6104c0 -14.3096 -5.58008 -22.75 -8.71973 -25.9297l7.71973 -4.66992c1.54004 4.71973 5.86035 13.9297 18.3506 21.1602l82.0596 47.4102l24.5801 -42.0898l-82.6504 -47.4102
c-11.9404 -6.82031 -22.1104 -6.68066 -26.5605 -5.10059l0.540039 -9.2998c4.4502 1.58984 14.6201 1.71973 26.5605 -5.08984l82.6602 -47.4199l-24.5898 -42.0898l-82.0596 47.4199c-12.4805 7.23047 -17.3506 16.4404 -18.3506 21.1602l-7.70996 -4.67969
c3.12988 -3.16992 8.70996 -11.6201 8.70996 -25.9297v-94.5996h-48.5801v94.5996c0 14.3096 5.58984 22.7598 8.71973 25.9297l-7.71973 4.67969c-1 -4.71973 -5.86035 -13.9297 -18.3408 -21.1602l-82.0703 -47.4199l-24.5801 42.0898l82.6504 47.4199
c11.9404 6.80957 22.1201 6.67969 26.5703 5.08984v8.75977c-5 -1.58984 -15.2197 -1.76953 -27.1094 5.09082l-82.1104 47.4199l24.04 42.0898l82.6104 -47.4199c12.5303 -7.16992 16.7998 -16.4395 17.7998 -20.6094l7.71973 4.66992
c-3.13965 3.17969 -8.71973 11.6201 -8.71973 25.9297v94.6104z" />
    <glyph glyph-name="backslash" unicode="\" horiz-adv-x="523" 
d="M497.2 0h-65.3701l-406.55 740h65.3701z" />
    <glyph glyph-name="periodcentered" unicode="&#xb7;" horiz-adv-x="216" 
d="M108.2 211.28c-24.4902 0 -43.2598 18.7695 -43.2598 43.2598c0 24.9404 18.7695 43.1709 43.2598 43.1709c24.9404 0 43.1709 -18.2305 43.1709 -43.1709c0 -24.4902 -18.2305 -43.2598 -43.1709 -43.2598z" />
    <glyph glyph-name="bullet" unicode="&#x2022;" horiz-adv-x="417" 
d="M209.05 239.19c-75.5498 0 -135.369 63.1396 -135.369 137.81c0 75.5498 60.3096 137.26 136.319 137.26c75.6396 0 133.97 -64.0898 133.97 -137.26c0 -74.6699 -59.8203 -137.81 -134.92 -137.81z" />
    <glyph glyph-name="colon" unicode=":" horiz-adv-x="218" 
d="M108.83 388.57c-24.4902 0 -43.2598 18.7695 -43.2598 43.2598c0 24.9404 18.7695 43.1709 43.2598 43.1709c24.9404 0 43.1709 -18.2305 43.1709 -43.1709c0 -24.4902 -18.2305 -43.2598 -43.1709 -43.2598zM108.83 -5.5498
c-24.4902 0 -43.2598 18.7803 -43.2598 43.2607c0 24.9404 18.7695 43.1709 43.2598 43.1709c24.9404 0 43.1709 -18.2305 43.1709 -43.1709c0 -24.4805 -18.2305 -43.2607 -43.1709 -43.2607z" />
    <glyph glyph-name="comma" unicode="," horiz-adv-x="204" 
d="M100.92 80.8799c30.5195 0 46.1602 -21.8496 46.1602 -55.6299c0 -63.6699 -29.46 -114.61 -81.71 -123.57v33.9502c19.8398 6.2002 35.5801 22.6104 40.6504 47.1699c1.71973 5.84961 4.75977 7.43945 9.20996 8.15918v5.49023
c-8.33984 -1.4502 -13.5195 -2 -17.0693 -2c-23.3604 0 -41.6807 16.5195 -41.6807 42.7197c0 24.4805 17.7695 43.7109 44.4395 43.7109z" />
    <glyph glyph-name="ellipsis" unicode="&#x2026;" horiz-adv-x="771" 
d="M98.6504 -5.5498c-24.4805 0 -43.25 18.7803 -43.25 43.2607c0 24.9404 18.7695 43.1709 43.25 43.1709c24.9502 0 43.1807 -18.2305 43.1807 -43.1709c0 -24.4805 -18.2305 -43.2607 -43.1807 -43.2607zM385.08 -5.5498c-24.4805 0 -43.25 18.7803 -43.25 43.2607
c0 24.9404 18.7695 43.1709 43.25 43.1709c24.9502 0 43.7197 -18.2305 43.7197 -43.1709c0 -24.4805 -18.7695 -43.2607 -43.7197 -43.2607zM672.05 -5.5498c-24.4805 0 -43.25 18.7803 -43.25 43.2607c0 24.9404 18.7695 43.1709 43.25 43.1709
c24.9502 0 43.1807 -18.2305 43.1807 -43.1709c0 -24.4805 -18.2305 -43.2607 -43.1807 -43.2607z" />
    <glyph glyph-name="exclam" unicode="!" horiz-adv-x="237" 
d="M136.54 172.83h-35.8301l-16.3096 274.17v268.54h68v-268.54zM116.94 -5.5498c-24.4902 0 -43.2598 18.7803 -43.2598 43.2607c0 24.9404 18.7695 43.1709 43.2598 43.1709c24.9404 0 43.71 -18.2305 43.71 -43.1709c0 -24.4805 -18.7695 -43.2607 -43.71 -43.2607z" />
    <glyph glyph-name="exclamdown" unicode="&#xa1;" horiz-adv-x="221" 
d="M109.57 518.02c24.9502 0 43.7197 -18.7695 43.7197 -43.2598c0 -24.9404 -18.7695 -43.1709 -43.7197 -43.1709c-24.4805 0 -43.25 18.2305 -43.25 43.1709c0 24.4902 18.7695 43.2598 43.25 43.2598zM129.17 339.649l15.8594 -274.17v-268.55h-68v268.55
l16.3203 274.17h35.8203z" />
    <glyph glyph-name="numbersign" unicode="#" horiz-adv-x="635" 
d="M588.67 433.43l-117.29 -0.000976562l-20.6104 -145.57c-0.860352 -7.08008 -2.5 -9.94043 -7.12988 -14.3008l6.48047 -6.16992c4.67969 4.49023 8.80957 6.18066 14.4893 6.18066h109.95v-54.4004h-133.45l-27.5498 -193.17h-55.4004l24.9697 178.88
c0.860352 7.03027 2.5 9.94043 7.12988 14.29l-6.49023 6.17969c-4.66992 -4.5 -8.7998 -6.17969 -14.4902 -6.17969h-150.88l-27.5596 -193.17h-55.4004l25.5195 178.88c0.860352 7.03027 2.5 9.94043 7.12988 14.29l-6.49023 6.17969
c-4.66992 -4.5 -8.7998 -6.17969 -14.4902 -6.17969h-101.34v54.4004h124.89l20.21 145.02c0.860352 7.04004 2.5 9.94043 7.12988 14.3008l-6.49023 6.16992c-4.66992 -4.49023 -8.7998 -6.18066 -14.4902 -6.18066h-117.68v54.9502h141.23l26.8701 189.17h54.9502
l-24.0195 -174.88c-0.860352 -7.08008 -2.5 -9.9502 -7.12988 -14.2998l6.48047 -6.16992c4.67969 4.49023 8.80957 6.18066 14.4893 6.18066h151.07l26.8799 189.17h54.9404l-24.0195 -174.88c-0.860352 -7.08008 -2.5 -9.9502 -7.12988 -14.2998l6.49023 -6.16992
c4.66992 4.49023 8.7998 6.18066 14.4902 6.18066h93.7402v-54.4004zM248.12 433.429l-19.5186 -145.569c-0.870117 -7.08008 -2.50977 -9.94043 -7.12988 -14.3008l6.48047 -6.16992c4.67969 4.49023 8.80957 6.18066 14.4893 6.18066h150.39l20.75 145.56
c0.860352 7.04004 2.5 9.9502 7.12988 14.2998l-6.48047 6.16992c-4.67969 -4.49023 -8.80957 -6.16992 -14.5 -6.16992h-151.61z" />
    <glyph glyph-name="period" unicode="." horiz-adv-x="197" 
d="M98.6504 -5.5498c-24.4805 0 -43.25 18.7803 -43.25 43.2607c0 24.9404 18.7695 43.1709 43.25 43.1709c24.9502 0 43.1807 -18.2305 43.1807 -43.1709c0 -24.4805 -18.2305 -43.2607 -43.1807 -43.2607z" />
    <glyph glyph-name="question" unicode="?" horiz-adv-x="484" 
d="M31.4199 557.26c24.4199 102.59 104.15 165.28 214.03 165.28c111.54 0 196.521 -77.9297 196.521 -190.37c0 -91.2002 -43.9102 -142.72 -103.08 -185.06c-53.7598 -39.1104 -80.2598 -76.1299 -80.2598 -128.8v-49.2402h-66.46v61.8896
c0 82.6699 47.2998 121.77 106.01 162.97c51.2305 35.3604 75.25 74.9102 75.25 137.42c0 75.5195 -55.79 127.279 -131.24 127.279c-79.3203 0 -129.141 -44.0996 -146.4 -115.649zM225.17 -5.5498c-24.4902 0 -43.2598 18.7803 -43.2598 43.2607
c0 24.9404 18.7695 43.1709 43.2598 43.1709c24.9404 0 43.71 -18.2305 43.71 -43.1709c0 -24.4805 -18.7695 -43.2607 -43.71 -43.2607z" />
    <glyph glyph-name="questiondown" unicode="&#xbf;" horiz-adv-x="474" 
d="M253.31 518.11c24.4805 0 43.25 -18.7695 43.25 -43.2598c0 -24.9404 -18.7695 -43.1709 -43.25 -43.1709c-24.9502 0 -43.7197 18.2305 -43.7197 43.1709c0 24.4902 18.7695 43.2598 43.7197 43.2598zM447.05 -44.6895
c-24.4199 -102.59 -104.151 -165.279 -214.021 -165.279c-111.55 0 -196.52 77.9297 -196.52 190.359c0 91.2002 43.7998 142.82 103.069 185.061c53.7695 39.1104 80.2695 76.1406 80.2695 128.811v49.2305h66.46v-61.8896c0 -82.6602 -47.2998 -121.771 -106.02 -162.961
c-51.2197 -35.3604 -75.2393 -74.9199 -75.2393 -137.42c0 -75.5303 55.79 -127.28 131.23 -127.28c79.3203 0 129.141 44.0898 146.4 115.649z" />
    <glyph glyph-name="quotedbl" unicode="&#x22;" horiz-adv-x="346" 
d="M123.43 484h-50.4004l-12.7197 256h76.8301zM272.539 484h-50.4004l-12.71 256h76.8203z" />
    <glyph glyph-name="quotesingle" unicode="'" horiz-adv-x="196" 
d="M123.43 484h-50.4004l-12.7197 256h76.8301z" />
    <glyph glyph-name="semicolon" unicode=";" horiz-adv-x="227" 
d="M111.74 388.04c-24.4902 0 -43.2598 18.7695 -43.2598 43.2598c0 24.9404 18.7695 43.1709 43.2598 43.1709c24.9404 0 43.1709 -18.2305 43.1709 -43.1709c0 -24.4902 -18.2305 -43.2598 -43.1709 -43.2598zM112.92 80.8799
c30.5195 0 46.1602 -21.8496 46.1602 -55.6299c0 -63.6699 -29.46 -114.61 -81.71 -123.57v33.9502c19.8398 6.2002 35.5801 22.6104 40.6504 47.1699c1.71973 5.84961 4.75977 7.43945 9.20996 8.15918v5.49023c-8.33984 -1.4502 -13.5195 -2 -17.0693 -2
c-23.3604 0 -41.6807 16.5195 -41.6807 42.7197c0 24.4805 17.7695 43.7109 44.4395 43.7109z" />
    <glyph glyph-name="slash" unicode="/" horiz-adv-x="523" 
d="M91.6504 0h-65.3701l406 740h65.3701z" />
    <glyph glyph-name="underscore" unicode="_" horiz-adv-x="635" 
d="M579 -57.2305h-523v57.2305h523v-57.2305z" />
    <glyph glyph-name="braceleft" unicode="{" horiz-adv-x="321" 
d="M220.57 -199.52c-61.1602 0 -92.2891 50.4111 -92.2891 109.471v204.76c0 61.6797 -26.2305 117.819 -113.051 119.449v66.9502c85.7402 1.62988 113.05 58.8604 113.05 120v204.76c0 59.0596 31.1299 109.47 92.29 109.47h76.8799v-55.3096h-51.6201
c-36.9697 0 -48 -30.6797 -48 -69.1299v-207.45c0 -61.4004 -25.7598 -115.141 -100.899 -130.921v-8.7002c74.5898 -12.5195 100.899 -74.9492 100.899 -139.069v-199.84c0 -38.4502 11.0303 -69.1299 48 -69.1299h51.6201v-55.3096h-76.8799z" />
    <glyph glyph-name="braceright" unicode="}" horiz-adv-x="321" 
d="M100.88 -199.52l-76.8789 -0.000976562v55.3096h51.6299c36.96 0 48 30.6797 48 69.1299v199.84c0 64.1201 26.2998 126.55 100.89 139.069v8.7002c-75.1299 15.7803 -100.89 69.5205 -100.89 130.921v207.45c0 38.4502 -11.04 69.1299 -48 69.1299h-51.6299v55.3096
h76.8799c61.1602 0 92.29 -50.4102 92.29 -109.47v-204.76c0 -61.1396 27.3096 -118.37 113.06 -120v-66.9502c-86.8301 -1.62988 -113.061 -57.7695 -113.061 -119.449v-204.76c0 -59.0596 -31.1299 -109.47 -92.29 -109.47z" />
    <glyph glyph-name="bracketleft" unicode="[" horiz-adv-x="325" 
d="M305.65 -137.06v-61.29h-217.17v934.23h217.17v-61.2803h-147.62v-811.66h147.62z" />
    <glyph glyph-name="bracketright" unicode="]" horiz-adv-x="325" 
d="M19.7998 -137.06h147.63v811.66h-147.63v61.2803h217.17v-934.23h-217.17v61.29z" />
    <glyph glyph-name="parenleft" unicode="(" horiz-adv-x="347" 
d="M338.57 -149.23l-31.459 -51.3203c-124 72.5498 -264 230.79 -264 476.55c0 245.21 140 404 264 476l31.46 -51.8604c-104.48 -62.2197 -225.461 -211.609 -225.461 -423.6c0 -214.17 123.16 -364.1 225.46 -425.77z" />
    <glyph glyph-name="parenright" unicode=")" horiz-adv-x="347" 
d="M234.08 276.54c0 211.99 -120.98 361.38 -225.45 423.6l31.4502 51.8604c124 -72 264 -230.79 264 -476c0 -245.76 -140 -404 -264 -476.55l-31.4502 51.3203c102.3 61.6699 225.45 211.6 225.45 425.77z" />
    <glyph glyph-name="emdash" unicode="&#x2014;" horiz-adv-x="1113" 
d="M1047.71 232.68h-982.14v63.2002h982.14v-63.2002z" />
    <glyph glyph-name="endash" unicode="&#x2013;" horiz-adv-x="668" 
d="M602.71 232.68h-537.14v63.2002h537.14v-63.2002z" />
    <glyph glyph-name="hyphen" unicode="-" horiz-adv-x="411" 
d="M345.71 232.68h-280.14v63.2002h280.14v-63.2002z" />
    <glyph glyph-name="uni00AD" unicode="&#xad;" horiz-adv-x="411" 
d="M345.71 232.68h-280.14v63.2002h280.14v-63.2002z" />
    <glyph glyph-name="guillemotleft" unicode="&#xab;" horiz-adv-x="472" 
d="M245.03 52h-74.1797l-127 201l127 199h72.1797l-124 -199zM423.251 52h-74.1699l-127 201l127 199h72.1699l-124 -199z" />
    <glyph glyph-name="guillemotright" unicode="&#xbb;" horiz-adv-x="472" 
d="M48.3096 52l126 201l-124 199h72.1699l127 -199l-127 -201h-74.1699zM226.54 52l126 201l-124 199h72.1699l127 -199l-127 -201h-74.1699z" />
    <glyph glyph-name="guilsinglleft" unicode="&#x2039;" horiz-adv-x="293" 
d="M245.03 52h-74.1797l-127 201l127 199h72.1797l-124 -199z" />
    <glyph glyph-name="guilsinglright" unicode="&#x203a;" horiz-adv-x="293" 
d="M48.6699 52l126 201l-124 199h72.1699l127 -199l-127 -201h-74.1699z" />
    <glyph glyph-name="quotedblbase" unicode="&#x201e;" horiz-adv-x="335" 
d="M100.92 80.8799c30.5195 0 46.1602 -21.8496 46.1602 -55.6299c0 -63.6699 -29.46 -114.61 -81.71 -123.57v33.9502c19.8398 6.2002 35.5801 22.6104 40.6504 47.1699c1.71973 5.84961 4.75977 7.43945 9.20996 8.15918v5.49023
c-8.33984 -1.4502 -13.5195 -2 -17.0693 -2c-23.3604 0 -41.6807 16.5195 -41.6807 42.7197c0 24.4805 17.7695 43.7109 44.4395 43.7109zM232.491 80.8799c30.5195 0 46.1592 -21.8496 46.1592 -55.6299c0 -63.6699 -29.46 -114.61 -81.71 -123.57v33.9502
c19.8496 6.2002 35.5801 22.6104 40.6504 47.1699c1.71973 5.84961 4.75977 7.43945 9.20996 8.15918v5.49023c-8.33984 -1.4502 -13.5195 -2 -17.0693 -2c-23.3604 0 -41.6807 16.5195 -41.6807 42.7197c0 24.4805 17.7803 43.7109 44.4404 43.7109z" />
    <glyph glyph-name="quotedblleft" unicode="&#x201c;" horiz-adv-x="323" 
d="M95.5596 554.94c-30.5195 0 -46.1602 21.8623 -46.1602 55.6318c0 63.6699 29.46 114.62 81.71 123.58v-33.96c-19.8398 -6.19043 -35.5801 -22.6104 -40.6504 -47.1602c-1.71973 -5.86035 -4.75977 -7.44043 -9.20996 -8.1709v-5.49023
c8.33984 1.4502 13.5195 2 17.0693 2c23.3604 0 41.6807 -16.5195 41.6807 -42.7197c0 -24.4805 -17.7695 -43.7109 -44.4395 -43.7109zM227.129 554.942c-30.5195 0 -46.1602 21.8623 -46.1602 55.6318c0 63.6699 29.46 114.62 81.71 123.58v-33.96
c-19.8398 -6.19043 -35.5703 -22.6104 -40.6504 -47.1602c-1.71973 -5.86035 -4.75977 -7.44043 -9.2002 -8.1709v-5.49023c8.33008 1.4502 13.5098 2 17.0596 2c23.3604 0 41.6807 -16.5195 41.6807 -42.7197c0 -24.4805 -17.7695 -43.7109 -44.4395 -43.7109z" />
    <glyph glyph-name="quotedblright" unicode="&#x201d;" horiz-adv-x="320" 
d="M97.9199 734.15c30.5195 0 46.1602 -21.8613 46.1602 -55.6309c0 -63.6797 -29.46 -114.62 -81.71 -123.58v33.9502c19.8398 6.2002 35.5801 22.6201 40.6504 47.1699c1.71973 5.84961 4.75977 7.43945 9.20996 8.16992v5.49023
c-8.33984 -1.4502 -13.5195 -2 -17.0693 -2c-23.3604 0 -41.6807 16.5098 -41.6807 42.71c0 24.4902 17.7695 43.7207 44.4395 43.7207zM229.491 734.149c30.5195 0 46.1592 -21.8613 46.1592 -55.6309c0 -63.6797 -29.46 -114.62 -81.71 -123.58v33.9502
c19.8496 6.2002 35.5801 22.6201 40.6504 47.1699c1.71973 5.84961 4.75977 7.43945 9.20996 8.16992v5.49023c-8.33984 -1.4502 -13.5195 -2 -17.0693 -2c-23.3604 0 -41.6807 16.5098 -41.6807 42.71c0 24.4902 17.7803 43.7207 44.4404 43.7207z" />
    <glyph glyph-name="quoteleft" unicode="&#x2018;" horiz-adv-x="191" 
d="M95.5596 554.94c-30.5195 0 -46.1602 21.8613 -46.1602 55.6309c0 63.6797 29.46 114.62 81.71 123.58v-33.96c-19.8398 -6.19043 -35.5801 -22.6104 -40.6504 -47.1602c-1.71973 -5.84961 -4.75977 -7.43945 -9.20996 -8.16992v-5.49023
c8.33984 1.4502 13.5195 2 17.0693 2c23.3604 0 41.6807 -16.5098 41.6807 -42.71c0 -24.4902 -17.7695 -43.7207 -44.4395 -43.7207z" />
    <glyph glyph-name="quoteright" unicode="&#x2019;" horiz-adv-x="188" 
d="M97.4902 734.14c30.5195 0 46.1592 -21.8623 46.1592 -55.6318c0 -63.6699 -29.4697 -114.62 -81.7197 -123.58v33.96c19.8496 6.19043 35.5801 22.6104 40.6504 47.1602c1.71973 5.86035 4.75977 7.44043 9.20996 8.1709v5.49023
c-8.33984 -1.4502 -13.5098 -2 -17.0693 -2c-23.3604 0 -41.6699 16.5195 -41.6699 42.7197c0 24.4805 17.7695 43.7109 44.4395 43.7109z" />
    <glyph glyph-name="quotesinglbase" unicode="&#x201a;" horiz-adv-x="204" 
d="M100.92 80.8799c30.5195 0 46.1602 -21.8496 46.1602 -55.6299c0 -63.6699 -29.46 -114.61 -81.71 -123.57v33.9502c19.8398 6.2002 35.5801 22.6104 40.6504 47.1699c1.71973 5.84961 4.75977 7.43945 9.20996 8.15918v5.49023
c-8.33984 -1.4502 -13.5195 -2 -17.0693 -2c-23.3604 0 -41.6807 16.5195 -41.6807 42.7197c0 24.4805 17.7695 43.7109 44.4395 43.7109z" />
    <glyph glyph-name="space" unicode=" " horiz-adv-x="248" 
 />
    <glyph glyph-name="uni00A0" unicode="&#xa0;" horiz-adv-x="248" 
 />
    <glyph glyph-name="Euro" unicode="&#x20ac;" horiz-adv-x="765" 
d="M472.94 721.63c104.03 0 185.112 -36.7217 247.462 -102.401l-46.1504 -45.0596c-50.8203 55.8799 -115.681 87.3398 -200.221 87.3398c-126.11 0 -225.12 -79.7197 -263.99 -203.79l6.75977 -6.12012c4.62988 5.16992 7.62988 7.70996 19.7695 7.70996h172.49
l-6.88965 -59.4805h-195.43c-4.08984 0 -8.62988 1.4502 -13.2598 6.08008l-6.70996 -6.16992c5.08008 -5.08984 6.08008 -8.08984 6.08008 -14.3398v-60.6602c0 -6.70996 -1.4502 -9.70996 -6.08008 -14.3398l6.70996 -6.16992
c4.62988 4.62012 8.71973 6.08008 13.2598 6.08008h202.32l-6.88965 -59.4805h-171.93c-4.5498 0 -8.62988 1.4502 -13.2598 6.08008l-6.75977 -6.12012c36.9297 -120.88 140.71 -202.59 262.63 -202.59c84.0898 0 150.12 35.1699 201.4 87.1699l45.5996 -43.5996
c-61.71 -65.5195 -144.05 -104.77 -247 -104.77c-156.84 0 -292.79 107.29 -335.2 263.83h-101.42l7.25977 59.4805h66.3896c4.5498 0 8.62988 -1.45996 13.2598 -6.08008l6.70996 6.16992c-4.62012 4.62988 -6.08008 7.62988 -6.08008 14.3398v60.6602
c0 6.25 1 9.25 6.08008 14.3398l-6.70996 6.16992c-4.62988 -4.62988 -9.16992 -6.08008 -13.2598 -6.08008h-73.6504l7.25977 59.4805h96.0996c43.6201 154.82 171.58 262.32 333.35 262.32z" />
    <glyph glyph-name="cent" unicode="&#xa2;" horiz-adv-x="529" 
d="M248.25 740l60.6582 -0.000976562v-121.63c75.9199 -7.25977 141.74 -48.5195 179.83 -115l-54.0303 -30.9199c-25.6602 43.5195 -63.7402 69.4893 -108.11 78.749c-5.16992 1.80957 -10.7998 5.25 -15.9697 10.9697l-6.17969 -6.71973
c3.5498 -3.54004 4.45996 -6.54004 4.45996 -13.25v-341.95c0 -6.70996 -0.910156 -9.70996 -4.45996 -13.25l6.17969 -6.71973c5.16992 5.16992 10.8799 9.11035 16.6201 10.9707c42.4004 7.36035 83.4307 34.1504 109.091 79.75l53.4902 -31.46
c-38.0898 -65.6602 -102.63 -108.74 -180.92 -116v-123.54h-60.6602v126.17c-116.02 18.8604 -202.68 119.88 -202.68 244.28c0 122.95 86.1104 228.061 202.681 245.291v124.26zM109.398 370.449c0 -85.0195 54.71 -154.341 120.71 -174.4
c5.62988 -2.88965 10.7998 -6.33984 15.9697 -11.5098l6.16992 6.70996c-3.54004 3.5498 -4 6.08984 -4 13.2598v331.8c0 7.16992 0.459961 9.71973 4 13.2598l-6.16992 6.70996c-5.16992 -5.16992 -10.29 -9.01953 -15.9697 -11.5098
c-64.2803 -16.7197 -120.71 -85.8594 -120.71 -174.319z" />
    <glyph glyph-name="currency" unicode="&#xa4;" horiz-adv-x="649" 
d="M325.28 584.86c-54.6904 0 -96.5117 -12.5801 -136.332 -43.04c-3.26953 -2.58984 -5.98926 -6.62988 -5.98926 -14.0703h-9.07031c0 7.44043 -1.76953 11.4805 -4.85938 14.5703l-66.2002 66.2002l-38.9102 -38.9199l66.9199 -66.3799
c3 -2.99023 6.49023 -5.85059 13.9404 -5.85059v-9.08008c-7.4502 0 -11.6201 -1.71973 -14.5303 -4.75977c-25.4902 -31.3203 -43.54 -82.2402 -43.54 -137.21c0 -54.8398 18.3301 -105.68 44.2305 -137.77c2.5 -3.12988 6.54004 -5.84961 13.9805 -5.84961v-9.07031
c-7.44043 0 -11.4805 -1.82031 -14.5205 -4.86035l-67.0303 -67.0195l38.9199 -38.9199l66.9805 67.5703c3.12988 3.12988 5.97949 6.62988 5.97949 14.0703h9.08008c0 -7.44043 1.67969 -11.5303 4.85938 -14.5703c31.5801 -24.8096 81.8105 -42.6299 136.091 -42.6299
c54.29 0 103.97 17.2803 135.56 42.0898c3.16992 2.49023 5.40039 7.12012 5.40039 14.5703h9.07031c0 -7.4502 1.76953 -11.4902 4.89941 -14.6201l66.4404 -66.4805l38.9102 38.9199l-67.0195 66.4805c-3.04004 3.04004 -6.54004 5.94043 -13.9805 5.94043v9.07031
c7.44043 0 11.4805 1.63965 14.5205 4.76953c25.9102 32.0898 44.7705 83.4697 44.7705 138.85c0 54.9697 -18.5898 105.35 -44.0801 137.75c-2.36035 3.04004 -7.08008 5.30957 -14.5303 5.30957v9.08008c7.4502 0 11.4902 1.76953 14.4805 4.75977l65.8398 65.8398
l-38.9102 38.9199l-65.6602 -66.2002c-3.08008 -3.08984 -5.94043 -6.58984 -5.94043 -14.0303h-9.08008c0 7.44043 -1.62988 11.4805 -4.89941 14.6201c-31.6699 24.4902 -81.6299 41.9502 -135.79 41.9502zM325.279 171.641c-97.5098 0 -173.65 78.1201 -173.65 174.22
s74.6797 175.22 173.649 175.22s173.12 -79.1201 173.12 -175.22c0 -95.5498 -75.5996 -174.22 -173.119 -174.22z" />
    <glyph glyph-name="dollar" unicode="$" horiz-adv-x="538" 
d="M69.5 132.65c46.8604 -44.6904 97.709 -72.8809 164.499 -80.4805c6.7998 -1.62012 11.8799 -5.7998 17.5996 -12.0498l6.70996 6.16992c-4.54004 4 -4.54004 7.99023 -4.54004 13.7998v275.18c-114.13 44.0303 -181.49 96.5801 -181.49 206.43
c0 91.6699 59.9004 168.18 181.49 178.479v70.8203h60.6602v-70.5498c61.0898 -3.12012 114.6 -22.0801 165.42 -60.9102l-33.7305 -52.1797c-38.2998 28.1299 -73.9697 42.0703 -114.59 47.2402c-4.12988 1.12988 -9.75977 5.83984 -14.3896 10.4697l-6.70996 -5.62988
c4 -4 4 -7.71973 4 -13.25v-262.77c87.3701 -38.5898 178.94 -80.04 178.94 -202.18c0 -105.4 -70.7598 -178.181 -178.939 -191.07v-70.1699h-60.6602v67.54c-93.2803 2.94043 -168.34 40.1006 -221.17 92.2607zM137.369 544.41
c0 -73.3496 48.1113 -106.743 98.2109 -127.233c5.34961 -2.76953 10.8496 -7.11914 16.0195 -12.2891l6.16992 6.70996c-4 4 -4 6.36035 -4 13.2607v218.15c0 5.82031 0 9.26074 4 13.2607l-6.16992 6.71973c-5.16992 -5.17969 -10.5303 -9.34961 -16.0205 -11.6094
c-49.9297 -8.70996 -98.21 -41.0098 -98.21 -106.97zM427.2 178.236c0 64.2002 -41.8691 95.1992 -94.4492 121.819c-6.08008 4.03027 -10.9805 7.98047 -16.1504 13.7002l-6.16992 -6.71973c4 -4 4 -6.62988 4 -13.25v-223.96c0 -6.62988 0 -9.25977 -4 -13.2598
l6.16992 -6.71973c5.16992 5.17969 10.7998 9.20996 16.0098 11.6104c51.4697 12.7197 94.5898 54.0693 94.5898 116.779z" />
    <glyph glyph-name="florin" unicode="&#x192;" horiz-adv-x="364" 
d="M129.4 532.48c0 126.95 60.249 197.891 170.649 197.891c8.66016 0 24.1201 -0.919922 39.6602 -3.83008v-60.8301h-2.62988c-4.16992 0 -16 2.83008 -29.6797 2.83008c-77.29 0 -113.09 -38.8301 -113.09 -132.46v-47.1104
c0 -6.71973 -1.45996 -9.25977 -5.16992 -12.9697l6.70996 -6.16992c3.71973 3.70996 7.34961 5.16992 11.8896 5.16992h98.7695v-58.5703h-98.7695c-4.54004 0 -8.16992 1.4502 -11.8896 5.16992l-6.70996 -6.16992c3.70996 -3.71973 5.16992 -6.25977 5.16992 -12.9795
v-392.37c0 -116.95 -56.2803 -187.03 -153.57 -187.03c-7.74023 0 -22.7402 0.509766 -38.29 3.41992v61.2402c5.19043 -0.55957 19.75 -2.8291 30.9502 -2.8291c66.3701 0 96 41.75 96 121.6v395.97c0 6.71973 1.4502 9.25977 5.16992 12.9795l-6.71973 6.16992
c-3.70996 -3.71973 -7.33984 -5.16992 -11.8799 -5.16992h-57.6602v58.5703h57.6602c4.54004 0 8.16992 -1.45996 11.8799 -5.16992l6.71973 6.16992c-3.71973 3.70996 -5.16992 6.25 -5.16992 12.9697v43.5098z" />
    <glyph glyph-name="sterling" unicode="&#xa3;" horiz-adv-x="567" 
d="M50.6299 0l-0.000976562 62.7373h22.4199c54.6904 44.0303 76.5205 104.17 76.5205 169.31c0 26.29 -3.91992 66.29 -12.7402 93.6602h-76.6299v60.5703h45.3701c6.37012 0 11.3701 -1.4502 15.54 -5.62988l6.71973 6.17969
c-14.9199 18 -30.4902 66.4004 -30.4902 129.62c0 120.43 80.9697 205.63 207.14 205.63c106.15 0 168.4 -57 190.03 -123.88l-61.2803 -18.7695c-15 48 -58.8604 82 -129.75 82c-90.6299 0 -138.68 -61.2598 -138.68 -144.979c0 -50.1396 9.74023 -91.1699 26.1406 -130.17
h186.71v-60.5703h-154.74c-5 0 -9.54004 1.45996 -14.6299 6.54004l-6.70996 -6.16992c9.37012 -17.1396 14.9102 -56.5098 14.9102 -94.5693c0 -61.0596 -17.0303 -124.569 -65.6006 -159.51v-9.25977h208.4c68 0 104.57 31.5703 104.57 95.4307h64.9199
c0 -102.06 -55.1699 -158.17 -159.72 -158.17h-318.42z" />
    <glyph glyph-name="yen" unicode="&#xa5;" horiz-adv-x="644" 
d="M286.2 0v124.37c0 6.25977 1 9.25977 6.08008 14.3398l-6.70996 6.16992c-4.62988 -4.62988 -9.16992 -6.08008 -13.2598 -6.08008h-175.74v59.4805h175.74c4.54004 0 8.62988 -1.4502 13.2598 -6.08008l6.70996 6.16992
c-4.62988 4.62988 -6.08008 7.62988 -6.08008 14.3398v60.6602c0 6.70996 1.4502 9.70996 6.08008 14.3398l-6.70996 6.16992c-4.62988 -4.62988 -8.71973 -6.08008 -13.2598 -6.08008h-175.74v59.4805h141.03c12.5996 0 15.5996 -3 19.7695 -7.70996l6.70996 6.16992
l-232.71 362.26h76.3398l204.57 -321.12c6 -9 7.37012 -16.6299 7.37012 -21.6299h8.7998c0 5 0.919922 12.6299 6.37988 21.0898l202.11 321.66h74.1699l-233.17 -362.26l6.70996 -6.16992c4.17969 4.70996 7.17969 7.70996 19.7793 7.70996h145.37v-59.4805h-180.63
c-4.54004 0 -8.62988 1.4502 -13.2598 6.08008l-6.70996 -6.16992c4.62988 -4.62988 6.08008 -7.62988 6.08008 -14.3398v-60.6602c0 -6.70996 -1.4502 -9.70996 -6.08008 -14.3398l6.70996 -6.16992c4.62988 4.62988 8.71973 6.08008 13.2598 6.08008h180.63v-59.4805
h-180.63c-4.08984 0 -8.62988 1.4502 -13.2598 6.08008l-6.70996 -6.16992c5.08008 -5.08008 6.08008 -8.08008 6.08008 -14.3398v-124.37h-69.0801z" />
    <glyph glyph-name="plus" unicode="+" horiz-adv-x="594" 
d="M328.54 85.9404h-63.29v228.14h-227.14v63.29h227.14v228.14h63.29v-228.14h227.69v-63.29h-227.69v-228.14z" />
    <glyph glyph-name="minus" unicode="&#x2212;" horiz-adv-x="658" 
d="M588.14 314.08h-518.11v63.29h518.11v-63.29z" />
    <glyph glyph-name="multiply" unicode="&#xd7;" horiz-adv-x="558" 
d="M447.31 132.48l-168 168l-168.46 -168.45l-44.9697 44.4199l169 169l-168 167.46l44.4297 44.9697l168 -168l168.46 168.46l44.4297 -44.9697l-167.92 -167.92l168 -168.54z" />
    <glyph glyph-name="divide" unicode="&#xf7;" horiz-adv-x="648" 
d="M324.23 485.45c-24.4902 0 -43.2598 18.7803 -43.2598 43.2607c0 24.9404 18.7695 43.1709 43.2598 43.1709c24.9404 0 43.1709 -18.2305 43.1709 -43.1709c0 -24.4805 -18.2305 -43.2607 -43.1709 -43.2607zM65.1709 377.37h518.11v-63.29h-518.11v63.29z
M324.231 119.57c-24.4902 0 -43.2598 18.7695 -43.2598 43.2598c0 24.9404 18.7695 43.71 43.2598 43.71c24.9404 0 43.1709 -18.7695 43.1709 -43.71c0 -24.4902 -18.2305 -43.2598 -43.1709 -43.2598z" />
    <glyph glyph-name="equal" unicode="=" horiz-adv-x="651" 
d="M581.71 419.97h-512.14v63.2803h512.14v-63.2803zM581.71 208.739h-512.14v63.29h512.14v-63.29z" />
    <glyph glyph-name="greater" unicode="&#x3e;" horiz-adv-x="470" 
d="M441.34 346l-343 -340l-49.4297 45.7998l300.12 294.2l-299.2 294.11l48.5098 45.8896z" />
    <glyph glyph-name="less" unicode="&#x3c;" horiz-adv-x="469" 
d="M420.63 51.7998l-49.4297 -45.7998l-343 340l343 340l47.9697 -45.8896l-298.66 -294.11z" />
    <glyph glyph-name="plusminus" unicode="&#xb1;" horiz-adv-x="644" 
d="M353.28 146.4h-63.2803v220h-227.15v63.2803h227.15v220h63.2803v-220h227.69v-63.2803h-227.69v-220zM62.8496 63.2803h518.12v-63.2803h-518.12v63.2803z" />
    <glyph glyph-name="asciitilde" unicode="~" horiz-adv-x="624" 
d="M500.17 383.74h57.6602c0 -81.5996 -48.3496 -138.029 -131.92 -138.029c-91.7998 0 -133.88 80 -220.97 80c-54.7998 0 -74.3398 -38.4297 -74.3398 -79.46h-57.6602c0 81.5996 47.4297 138.029 138.54 138.029c101.97 0 137.35 -80 215.72 -80
c50.6797 0 72.9697 35.6904 72.9697 79.46z" />
    <glyph glyph-name="logicalnot" unicode="&#xac;" horiz-adv-x="659" 
d="M586 85.9404l-63.29 -0.000976562v228.69h-460.83v63.2803h524.12v-291.97z" />
    <glyph glyph-name="uni00B5" unicode="&#xb5;" horiz-adv-x="572" 
d="M86.0303 -231l-0.000976562 706h64.9102v-264.15c0 -108.65 40.2002 -163.11 137.37 -163.11c100.37 0 139.66 56.29 139.66 163.11v264.15h64.9102v-278.35c0 -147.17 -78.6797 -209.65 -201.31 -209.65c-66.8604 0 -112.83 21.3096 -141.17 68.2793l-7.16992 -5.25
c2.54004 -4.45996 7.70996 -11.9199 7.70996 -23.1797v-257.85h-64.9102z" />
    <glyph glyph-name="percent" unicode="%" horiz-adv-x="858" 
d="M410.74 568.63c0 -103 -86 -187 -189 -187s-189 84 -189 187s86 187 189 187s189 -84 189 -187zM256.431 -0h-60.4902l406 740h60.4902zM221.74 438.03c73.0898 0 129.51 58.4199 129.51 130.6c0 72.1699 -56.4199 131.05 -129.51 131.05
s-129.51 -58.8799 -129.51 -131.05c0 -72.1797 56.4199 -130.6 129.51 -130.6zM824.54 173c0 -103 -86 -187 -189 -187s-189 84 -189 187s86 187 189 187s189 -84 189 -187zM635.54 41.8496c73.0898 0 129.51 58.9805 129.51 131.15s-56.4199 130.51 -129.51 130.51
s-129.51 -58.3398 -129.51 -130.51s56.4199 -131.15 129.51 -131.15z" />
    <glyph glyph-name="perthousand" unicode="&#x2030;" horiz-adv-x="1273" 
d="M410.74 568.63c0 -103 -86 -187 -189 -187s-189 84 -189 187s86 187 189 187s189 -84 189 -187zM255.971 -0h-60.4902l406 740h60.4902zM221.74 438.03c73.0898 0 129.51 58.4199 129.51 130.6c0 72.1699 -56.4199 131.05 -129.51 131.05
s-129.51 -58.8799 -129.51 -131.05c0 -72.1797 56.4199 -130.6 129.51 -130.6zM824.08 173c0 -103 -86 -187 -189 -187s-189 84 -189 187s86 187 189 187s189 -84 189 -187zM1240.94 173c0 -103 -86 -187 -189 -187s-189 84 -189 187s86 187 189 187s189 -84 189 -187z
M635.08 41.8496c73.0898 0 129.52 58.9805 129.52 131.15s-56.4297 130.51 -129.52 130.51c-73.0801 0 -129.51 -58.3398 -129.51 -130.51s56.4297 -131.15 129.51 -131.15zM1051.94 41.8496c73.0898 0 129.51 58.9805 129.51 131.15s-56.4199 130.51 -129.51 130.51
s-129.51 -58.3398 -129.51 -130.51s56.4199 -131.15 129.51 -131.15z" />
    <glyph glyph-name="uniF8FF" unicode="&#xf8ff;" horiz-adv-x="881" 
d="M236.3 704h365.399v-117.8h-241.6v-185.5c127.7 -45.2002 248.5 -156.101 385 -156.101c25.5 0 46.2002 3.90039 46.2002 3.90039s-20.7002 -31.4004 -95.2998 -31.4004c-110 0 -237.7 59.9004 -335.9 110.9v-328h-123.8v379.1s-23.5 9.7998 -51 9.7998
c-41.2998 0 -76.5996 -17.5996 -76.5996 -55.8994c0 -25.5996 14.7002 -48.1992 36.2998 -55.999c-34.4004 1.90039 -55 25.5 -55 61.7998c0 51.0996 44.2002 88.3994 123.8 88.3994c5.7998 0 13.7002 0 22.5 -1.90039v278.7z" />
    <glyph glyph-name="at" unicode="@" horiz-adv-x="965" 
d="M46.5703 233.8c0 281.89 210.348 451.173 451.798 451.173c222.67 0 414 -148.22 414 -396.92c0 -150.91 -72.1201 -269.54 -178.57 -269.54c-62.0801 0 -104.53 28.2998 -104.53 82.3994c0 12.7598 2.36035 19.21 5.26074 24.54l-6.98047 5.20996
c-32.5996 -59.2197 -87.2998 -98.1797 -167.229 -98.1797c-116.3 0 -196.55 90.4902 -196.55 208.19c0 117.74 81.9805 209.101 198.181 209.101c76.1299 0 126.06 -35.5996 157.449 -89.6191l6.99023 5.20996c-6.2998 9.26953 -9.06934 15.5293 -9.06934 24.2891v52.8496
h61.1201v-294.53c0 -46.4404 23.0801 -70.8008 60.71 -70.8008c64.3896 0 112.02 89.3496 112.02 203.279c0 197.55 -142.33 344.399 -350.17 344.399c-207.18 0 -392.229 -140.72 -392.229 -391.6c0 -236.79 167.9 -387.771 386.061 -387.771
c84.9404 0 163.511 29.8496 220.551 73.5498l33.2598 -51.1201c-65.8896 -46.4404 -150.54 -80.3701 -258.99 -80.3701c-245.86 0 -443.08 174.1 -443.08 446.26zM323.799 240.673c0 -87.7598 57.71 -153.42 141.95 -153.42c87.6602 0 148.18 66.0596 148.18 152.88
c0 87.46 -61.1602 154.33 -148.18 154.33c-83.7803 0 -141.95 -66.8896 -141.95 -153.79z" />
    <glyph glyph-name="ampersand" unicode="&#x26;" horiz-adv-x="688" 
d="M169.08 368.11c23.1201 17.8896 36.8486 23.6816 46.2783 23.6816v9.12012c-9.42969 0.540039 -19.1797 9.80957 -29.5693 23.5098c-25.9902 30.4102 -61.1406 77.4102 -61.1406 140.03c0 89.4902 66.3799 157.55 164.43 157.55
c98.5303 0 164.891 -63.8799 164.891 -154.28c0 -86.4697 -77.3096 -138.83 -134.529 -173c-9.38965 -5.62012 -15.25 -5.75977 -21.9697 -5.75977v-9.12012c6.16992 0 10.1699 -1 18.6602 -9.44043l149.08 -153c11.21 -11.71 11.1201 -19.0596 11.1201 -23.5996h9.12012
c0 4.54004 -0.0498047 13.1201 7.58008 23.0498l87.0703 116.15h78.0303l-136.73 -175.82l146.68 -157.18h-85.6504l-96.8701 103.4c-5.91016 6.12988 -6.41016 15.25 -6.41016 20.3398h-9.12012c0 -5.08984 0.0898438 -13.5303 -8.66016 -23.9707
c-42.3096 -54.9004 -109.409 -109.771 -209.939 -109.771c-116 0 -206.86 72 -206.86 190.09c0 101.1 76.1904 155.51 124.511 188.02zM186.678 564.452c0 -52.3398 33.9395 -92.79 78.7295 -139.75c81.1797 46.9404 125.439 80.3408 125.439 141.391
c0 64.6797 -43.9697 100.68 -101.22 100.68c-55.3096 0 -102.949 -35.9102 -102.949 -102.32zM247.467 355.652c-84.0098 -48.6104 -137.07 -96.5293 -137.07 -170.56c0 -85.4199 61.4004 -137.15 145.92 -137.15c74.5498 0 132.53 45.9297 179.561 108.979z" />
    <glyph glyph-name="paragraph" unicode="&#xb6;" horiz-adv-x="675" 
d="M524.34 -193h-59.3105v874.2h-136.58v-874.2h-59.8496v471.4c-153.37 15 -234.95 112.31 -234.95 226.8c0 116.25 83 230.68 243.86 230.68h368.12v-54.6797h-121.29v-874.2z" />
    <glyph glyph-name="section" unicode="&#xa7;" horiz-adv-x="526" 
d="M274 727.09c71.2402 0 125.47 -23.8184 166.609 -71.6484l-45.2803 -44.7002c-33.1504 37.2598 -72.3604 53.5195 -125 53.5195c-65.6104 0 -111.58 -36.71 -111.58 -96.6299c0 -69.5596 52.1797 -88.9199 135.88 -127.03
c91.2803 -40.8604 190.98 -81.5703 190.98 -185.221c0 -59.2598 -41.9404 -115.12 -86.7705 -127.86v-9.12012c42.6299 -20.7998 58.5098 -76.5898 58.5098 -120.85c0 -110.02 -92.0596 -173.55 -194.5 -173.55c-79.4697 0 -143.3 30.1104 -190.97 79.1504l42.2002 50.4102
c38.21 -40.9902 88.0098 -67.2803 148.229 -67.2803c66.9297 0 127.58 35.0303 127.58 108.45c0 75.3496 -59.8096 99.1396 -180.069 153.67c-86.5098 38.96 -172.16 74.5098 -172.16 172.859c0 73.6797 53.4199 118.93 101.07 132.37v9.12012
c-34.5195 26.1797 -47.4395 56.5596 -47.4395 105.97c0 94.6602 81.3799 158.37 182.71 158.37zM105.659 327.651c0 -61.1797 49.3408 -79.2803 131.931 -119.12l117.619 -54.7705c36.8701 19.3301 61.8604 55.71 61.8604 94.46c0 66.1201 -59.7598 91.8203 -129.71 123.5
l-107.83 52.4902c-43.8799 -19.46 -73.8701 -55.1699 -73.8701 -96.5596z" />
    <glyph glyph-name="copyright" unicode="&#xa9;" horiz-adv-x="821" 
d="M410.63 721.08c205.44 0 360.971 -159.08 360.971 -366.54c0 -205.2 -155.99 -367 -361.061 -367c-204.03 0 -361.511 157.17 -361.511 366.54c0 206.63 154.19 367 361.601 367zM409.54 671.83c-180.43 0 -308.64 -141.89 -308.64 -318.199
c0 -178.6 131.04 -316.83 309.63 -316.83c178.55 0 309.17 141.85 309.17 317.279c0 176.69 -130.16 317.75 -310.16 317.75zM412.9 189.62c59.4102 0 106.131 31.8408 132.051 78.251l48.6504 -28.25c-36.7197 -64.7305 -96.4102 -105.311 -180.7 -105.311
c-123.7 0 -213.51 98.4502 -213.51 220.37c0 120.2 89.8096 222.42 212.97 222.42c83.2695 0 144.52 -39.4805 181.189 -104.9l-48.6396 -28.2002c-26.4697 46.4004 -70.4395 77.29 -132.55 77.29c-93.9199 0 -154.57 -79.0801 -154.57 -166.61
c0 -88.6699 60.5596 -165.06 155.109 -165.06z" />
    <glyph glyph-name="registered" unicode="&#xae;" horiz-adv-x="821" 
d="M410.63 721.08c205.44 0 360.971 -159.08 360.971 -366.54c0 -205.2 -155.99 -367 -361.061 -367c-204.03 0 -361.511 157.17 -361.511 366.54c0 206.63 154.19 367 361.601 367zM409.54 671.83c-180.43 0 -308.64 -141.89 -308.64 -318.199
c0 -178.6 131.04 -316.83 309.63 -316.83c178.55 0 309.17 141.85 309.17 317.279c0 176.69 -130.16 317.75 -310.16 317.75zM412.04 576.61c86.6299 0 159.39 -32.54 159.39 -123.67c0 -78.29 -49.3203 -117.28 -126.74 -124.08v-8.25977
c5.99023 0 12.4707 -1.5 17.4707 -9.11035l111.77 -169h-63.5498l-120.39 183.03h-59.8799v-182.49h-52.2002v433.58h134.13zM408.87 372.41c61.6299 0 108.72 17.7393 108.72 78.8994c0 59.4805 -44.8799 77.2109 -108.72 77.2109h-78.7598v-156.11h78.7598z" />
    <glyph glyph-name="trademark" unicode="&#x2122;" horiz-adv-x="755" 
d="M181.83 360.57h-52.4297v299.54h-93.4902v47.8896h238.4v-47.8896h-92.4805v-299.54zM338.94 360.57l-0.00195312 347.431h55.7998l111.89 -139.26l118.42 139.26h49.7197v-347.43h-52.4297v248.17c0 9.71973 3.49023 15.8096 6.94043 20.2598l-6.16992 4.08984
l-105.06 -126.66h-22.8496l-104.6 126.52l-6.16992 -4.08008c3.4502 -4.45996 6.94043 -10.5498 6.94043 -20.2695v-248.03h-52.4297z" />
    <glyph glyph-name="degree" unicode="&#xb0;" horiz-adv-x="386" 
d="M342.94 570c0 -83 -67 -150 -150 -150s-150 67 -150 150s67 150 150 150s150 -67 150 -150zM295.94 570c0 57.6797 -45.3096 103 -103 103s-103.54 -45.3203 -103.54 -103c0 -57.6904 45.8496 -103.551 103.54 -103.551s103 45.8604 103 103.551z" />
    <glyph glyph-name="bar" unicode="|" horiz-adv-x="245" 
d="M156.48 -140h-68v848.91h68v-848.91z" />
    <glyph glyph-name="brokenbar" unicode="&#xa6;" horiz-adv-x="252" 
d="M159.94 390h-68v318h68v-318zM159.94 -140h-68v335.37h68v-335.37z" />
    <glyph glyph-name="dagger" unicode="&#x2020;" horiz-adv-x="538" 
d="M236.45 708h65.8311v-219.37c0 -6.25977 -1.4502 -9.25977 -6.08008 -13.8896l6.70996 -6.16992c4.16992 4.16992 8.25977 6.08008 13.2598 6.08008h168.77v-59.0195h-168.82c-4.9502 0 -9.04004 1.91016 -13.21 6.08008l-6.70996 -6.16992
c4.62988 -4.62988 6.08008 -7.62988 6.08008 -14.3398v-541.2h-65.8301v541.2c0 6.70996 1.45996 9.70996 6.08984 14.3398l-6.70996 6.16992c-4.17969 -4.16992 -8.25977 -6.08008 -13.2598 -6.08008h-169.32v59.0195h169.32c5 0 9.08008 -1.91016 13.2598 -6.08008
l6.70996 6.16992c-4.62988 4.62988 -6.08984 7.62988 -6.08984 13.8896v219.37z" />
    <glyph glyph-name="daggerdbl" unicode="&#x2021;" horiz-adv-x="538" 
d="M236.45 708h65.8301v-219.37c0 -6.25977 -1.4502 -9.25977 -6.08008 -13.8896l6.70996 -6.16992c4.16992 4.16992 8.25977 6.08008 13.2598 6.08008h168.77v-59.0195h-168.82c-4.9502 0 -9.04004 1.91016 -13.21 6.08008l-6.70996 -6.16992
c4.62988 -4.62988 6.08008 -7.62988 6.08008 -14.3398v-234.4c0 -6.71973 -1.4502 -9.71973 -6.08008 -14.3496l6.70996 -6.16992c4.16992 4.16992 8.25977 6.08984 13.21 6.08984h168.82v-59.0303h-168.77c-5 0 -9.08984 1.91016 -13.2598 6.08984l-6.70996 -6.17969
c4.62988 -4.62012 6.08008 -7.62012 6.08008 -13.8799v-219.37h-65.8301v219.37c0 6.25977 1.45996 9.25977 6.08984 13.8799l-6.70996 6.17969c-4.17969 -4.17969 -8.25977 -6.08984 -13.2598 -6.08984h-169.32v59.0303h169.32c5 0 9.08008 -1.91992 13.2598 -6.08984
l6.70996 6.16992c-4.62988 4.62988 -6.08984 7.62988 -6.08984 14.3496v234.4c0 6.70996 1.45996 9.70996 6.08984 14.3398l-6.70996 6.16992c-4.17969 -4.16992 -8.25977 -6.08008 -13.2598 -6.08008h-169.32v59.0195h169.32c5 0 9.08008 -1.91016 13.2598 -6.08008
l6.70996 6.16992c-4.62988 4.62988 -6.08984 7.62988 -6.08984 13.8896v219.37z" />
    <glyph glyph-name="asciicircum" unicode="^" horiz-adv-x="544" 
d="M235.85 740h71.0889l197.2 -404h-68.9102l-155.52 322.63c-4.13965 8.7998 -4.40918 13.7998 -4.40918 21.5996h-8.7998c0 -7.7998 -0.320312 -12.75 -4.4502 -21.5996l-153.57 -322.63h-68.9102z" />
    <glyph glyph-name="ampersand.ss01" horiz-adv-x="747" 
d="M30.4805 233.28c0 142.43 105.797 245.828 229.027 245.828c28.3203 0 58.5801 -9.66016 73.29 -22.0898l6.16992 5.62988l-131.13 185.73v59.6201h389v-60.6602h-289.13c-12.0596 0 -16.1396 5.4502 -18.6797 8.53027l-7.25977 -5.62988l463.88 -650.24h-75.5098
l-163.5 229.73l-6.76953 -4.66016c8.5 -125.02 -91.0996 -237.529 -224.619 -237.529c-139.17 0 -244.77 108.37 -244.77 245.74zM95.3975 232.828c0 -102.92 76.1396 -185.63 179.399 -185.63c101 0 176.05 82.71 176.05 186.71c0 107.26 -74.1396 190.97 -176.05 190.97
c-102.35 0 -179.399 -83.71 -179.399 -192.05z" />
    <glyph glyph-name="uni0308" unicode="&#x308;" 
d="M-253.72 585.8c-24.4805 0 -43.25 18.7695 -43.25 43.25c0 24.9502 18.7695 43.1807 43.25 43.1807c24.9502 0 43.1699 -18.2305 43.1699 -43.1807c0 -24.4805 -18.2197 -43.25 -43.1699 -43.25zM-83.1494 585.8c-24.4805 0 -43.25 18.7695 -43.25 43.25
c0 24.9502 18.7695 43.1807 43.25 43.1807c24.9502 0 43.1807 -18.2305 43.1807 -43.1807c0 -24.4805 -18.2305 -43.25 -43.1807 -43.25z" />
    <glyph glyph-name="uni0307" unicode="&#x307;" 
d="M-106 601.08c-24.4902 0 -43.2598 18.7695 -43.2598 43.2598c0 24.9404 18.7695 43.1709 43.2598 43.1709c24.9404 0 43.1709 -18.2305 43.1709 -43.1709c0 -24.4902 -18.2305 -43.2598 -43.1709 -43.2598z" />
    <glyph glyph-name="gravecomb" unicode="&#x300;" 
d="M-77.6602 542.97l-206.141 108.799l32.2803 58.4004l203.69 -115.43z" />
    <glyph glyph-name="acutecomb" unicode="&#x301;" 
d="M-253.97 542.97l-29.8311 51.2305l204.23 115.97l32.2803 -57.3203z" />
    <glyph glyph-name="uni030B" unicode="&#x30b;" 
d="M-397.8 532.6l-47.5205 34l127.69 176.77l52.5098 -37zM-206.17 532.6l-47.5205 34l127.69 176.77l52.5098 -37z" />
    <glyph glyph-name="uni0302" unicode="&#x302;" 
d="M-337.03 543.23l-36.541 36.54l143.48 141.11h36.7402l140.12 -141.11l-37.0898 -36.54l-121.85 119.77z" />
    <glyph glyph-name="uni030C" unicode="&#x30c;" 
d="M-234.83 545.11l-142.399 141.12l37.0801 36.54l125.06 -120.23l122.12 120.23l36.54 -36.54l-141.66 -141.12h-36.7402z" />
    <glyph glyph-name="uni0306" unicode="&#x306;" 
d="M-218.14 569.68c-80.5801 0 -124.859 51.8896 -124.859 113.319h46c0.459961 -37.5703 28.4795 -65.6006 77.8594 -65.6006c49.3701 0 78.4004 26.5703 78.8506 65.6006h46c-0.450195 -62.8896 -44.7402 -113.319 -123.851 -113.319z" />
    <glyph glyph-name="uni030A" unicode="&#x30a;" 
d="M-154.29 531.83c-57.54 0 -105.08 47.54 -105.08 104.62c0 56.5498 46.54 105.63 105.08 105.63c57.6299 0 105.17 -47.0801 105.17 -105.17c0 -58.54 -48.0801 -105.08 -105.17 -105.08zM-154.75 576.83c31.7803 0 59.1816 24.9404 59.1816 59.6201
c0 34.1504 -26.4004 60.0908 -58.7207 60.0908c-33.2305 0 -59.1709 -27.8604 -59.1709 -60.0908c0 -33.2197 26.4004 -59.6201 58.71 -59.6201z" />
    <glyph glyph-name="tildecomb" unicode="&#x303;" 
d="M-147.17 564.71c-55.46 0 -99 41 -143 41c-25 0 -46 -13 -64 -30l-34.5801 45.9697c25.7998 24.2598 59.6895 42.0596 97.8594 42.0596c59.29 0 97.9199 -41 141.92 -41c23.4502 0 47.4502 12 68.4502 33l33.2305 -42.5996
c-28.6299 -29.3398 -61.8799 -48.4297 -99.8799 -48.4297z" />
    <glyph glyph-name="uni0304" unicode="&#x304;" 
d="M-392.55 568.51v59.0303h343.43v-59.0303h-343.43z" />
    <glyph glyph-name="uni0327" unicode="&#x327;" 
d="M-144.03 -228.4c-53.4902 0 -100.29 25.6309 -103.03 91.4004h47.7998c3.83008 -35.4902 28.1104 -48.2305 57.1406 -48.2305c30.8604 0 53.5205 15.7402 53.5205 51.6006c0 30.3701 -16.7197 50.6797 -58.2295 50.6797h-54.5703l28.25 82.9502h49.2598
l-14.8301 -40.4902h8.5498c44.0801 0 93.54 -24.4297 93.54 -90.1396c0 -65.54 -44.46 -97.7705 -107.4 -97.7705z" />
    <glyph glyph-name="uni0328" unicode="&#x328;" 
d="M-83.9697 -192.89c-55.0898 0 -105.551 32.0908 -105.551 98.001c0 34.7998 14.2598 70.8896 34.4297 94.8896h46.2002c-15 -21 -29 -49.6299 -29 -77.8301c0 -40.6904 28.8604 -69.5205 68.6006 -69.5205c8.62988 0 25.6299 1.5498 38.6299 7.17969v-41.3799
c-17.71 -7.70996 -34.9697 -11.3398 -53.3096 -11.3398z" />
    <glyph glyph-name="uni0337" unicode="&#x337;" 
d="M-241.35 232.91v65.8301l221.83 160.49v-65.8301z" />
    <glyph glyph-name="uni0338" unicode="&#x338;" 
d="M-411.03 -78.3496l-44.1699 18.1504l262.46 611l44.71 -19.1504z" />
    <glyph glyph-name="uni0308.case" 
d="M-244.57 795.8c-24.4902 0 -43.2598 18.7695 -43.2598 43.25c0 24.9502 18.7695 43.1807 43.2598 43.1807c24.9404 0 43.1709 -18.2305 43.1709 -43.1807c0 -24.4805 -18.2305 -43.25 -43.1709 -43.25zM-92.29 795.8c-24.4805 0 -43.2607 18.7695 -43.2607 43.25
c0 24.9502 18.7803 43.1807 43.2607 43.1807c24.9404 0 43.1709 -18.2305 43.1709 -43.1807c0 -24.4805 -18.2305 -43.25 -43.1709 -43.25z" />
    <glyph glyph-name="uni0307.case" 
d="M-106 811.08c-24.4902 0 -43.2598 18.7695 -43.2598 43.2598c0 24.9404 18.7695 43.1709 43.2598 43.1709c24.9404 0 43.1709 -18.2305 43.1709 -43.1709c0 -24.4902 -18.2305 -43.2598 -43.1709 -43.2598z" />
    <glyph glyph-name="gravecomb.case" 
d="M-77.6602 752.97l-206.141 108.799l32.2803 58.4004l203.69 -115.43z" />
    <glyph glyph-name="acutecomb.case" 
d="M-253.97 752.97l-29.8311 51.2305l204.23 115.97l32.2803 -57.3203z" />
    <glyph glyph-name="uni030B.case" 
d="M-397.8 742.6l-47.5205 34l127.69 176.77l52.5098 -37zM-206.17 742.6l-47.5205 34l127.69 176.77l52.5098 -37z" />
    <glyph glyph-name="uni0302.case" 
d="M-337.03 753.23l-36.541 36.54l143.48 141.11h36.7402l140.12 -141.11l-37.0898 -36.54l-121.85 119.77z" />
    <glyph glyph-name="uni030C.case" 
d="M-234.83 755.11l-142.399 141.12l37.0801 36.54l125.06 -120.23l122.12 120.23l36.54 -36.54l-141.66 -141.12h-36.7402z" />
    <glyph glyph-name="uni0306.case" 
d="M-218.14 779.68c-80.5801 0 -124.859 51.8896 -124.859 113.319h46c0.459961 -37.5703 28.4795 -65.6006 77.8594 -65.6006c49.3701 0 78.4004 26.5703 78.8506 65.6006h46c-0.450195 -62.8896 -44.7402 -113.319 -123.851 -113.319z" />
    <glyph glyph-name="uni030A.case" 
d="M-154.29 741.83c-57.54 0 -105.08 47.54 -105.08 104.62c0 56.5498 46.54 105.63 105.08 105.63c57.6299 0 105.17 -47.0801 105.17 -105.17c0 -58.54 -48.0801 -105.08 -105.17 -105.08zM-154.75 786.83c31.7803 0 59.1816 24.9404 59.1816 59.6201
c0 34.1504 -26.4004 60.0908 -58.7207 60.0908c-33.2305 0 -59.1709 -27.8604 -59.1709 -60.0908c0 -33.2197 26.4004 -59.6201 58.71 -59.6201z" />
    <glyph glyph-name="tildecomb.case" 
d="M-147.17 774.71c-55.46 0 -99 41 -143 41c-25 0 -46 -13 -64 -30l-34.5801 45.9697c25.7998 24.2598 59.6895 42.0596 97.8594 42.0596c59.29 0 97.9199 -41 141.92 -41c23.4502 0 47.4502 12 68.4502 33l33.2305 -42.5996
c-28.6299 -29.3398 -61.8799 -48.4297 -99.8799 -48.4297z" />
    <glyph glyph-name="uni0304.case" 
d="M-392.55 778.51v59.0303h343.43v-59.0303h-343.43z" />
    <glyph glyph-name="uni0327.case" 
d="M-144.03 -228.4c-53.4902 0 -100.29 25.6309 -103.03 91.4004h47.7998c3.83008 -35.4902 28.1104 -48.2305 57.1406 -48.2305c30.8604 0 53.5205 15.7402 53.5205 51.6006c0 30.3701 -16.7197 50.6797 -58.2295 50.6797h-54.5703l28.25 82.9502h49.2598
l-14.8301 -40.4902h8.5498c44.0801 0 93.54 -24.4297 93.54 -90.1396c0 -65.54 -44.46 -97.7705 -107.4 -97.7705z" />
    <glyph glyph-name="uni0328.case" 
d="M-83.9697 -192.89c-55.0898 0 -105.551 32.0908 -105.551 98.001c0 34.7998 14.2598 70.8896 34.4297 94.8896h46.2002c-15 -21 -29 -49.6299 -29 -77.8301c0 -40.6904 28.8604 -69.5205 68.6006 -69.5205c8.62988 0 25.6299 1.5498 38.6299 7.17969v-41.3799
c-17.71 -7.70996 -34.9697 -11.3398 -53.3096 -11.3398z" />
    <glyph glyph-name="uni0337.case" 
d="M-241.35 232.91v65.8301l221.83 160.49v-65.8301z" />
    <glyph glyph-name="uni0338.case" 
d="M-533.4 -33l-48.5195 29.3701l498.4 753.74l48.5996 -30.3701z" />
    <glyph glyph-name="acute" unicode="&#xb4;" horiz-adv-x="335" 
d="M77.1104 542.97l-29.8301 51.2305l204.23 115.97l32.29 -57.3203z" />
    <glyph glyph-name="breve" unicode="&#x2d8;" horiz-adv-x="424" 
d="M206.03 569.68c-80.5801 0 -124.859 51.8896 -124.859 113.319h46c0.459961 -37.5703 28.4795 -65.6006 77.8594 -65.6006c49.3701 0 78.4004 26.5703 78.8506 65.6006h46c-0.450195 -62.8896 -44.7402 -113.319 -123.851 -113.319z" />
    <glyph glyph-name="caron" unicode="&#x2c7;" horiz-adv-x="429" 
d="M194.25 545.11l-142.399 141.12l37.0898 36.54l125.06 -120.23l122.11 120.23l36.54 -36.54l-141.65 -141.12h-36.75z" />
    <glyph glyph-name="cedilla" unicode="&#xb8;" horiz-adv-x="297" 
d="M152.63 -228.4c-53.4902 0 -100.29 25.6309 -103.03 91.4004h47.7998c3.83008 -35.4902 28.1104 -48.2305 57.1406 -48.2305c30.8604 0 53.5107 15.7402 53.5107 51.6006c0 30.3701 -16.71 50.6797 -58.2197 50.6797h-54.5801l28.2598 82.9502h49.2598l-14.8301 -40.4902
h8.54004c44.0898 0 93.5498 -24.4297 93.5498 -90.1396c0 -65.54 -44.46 -97.7705 -107.4 -97.7705z" />
    <glyph glyph-name="circumflex" unicode="&#x2c6;" horiz-adv-x="429" 
d="M88.4004 543.23l-36.5508 36.54l143.49 141.11h36.7402l140.12 -141.11l-37.0898 -36.54l-121.86 119.77z" />
    <glyph glyph-name="dieresis" unicode="&#xa8;" horiz-adv-x="337" 
d="M83.2305 585.8c-24.4902 0 -43.2598 18.7695 -43.2598 43.25c0 24.9502 18.7695 43.1807 43.2598 43.1807c24.9404 0 43.1709 -18.2305 43.1709 -43.1807c0 -24.4805 -18.2305 -43.25 -43.1709 -43.25zM253.801 585.8c-24.4902 0 -43.2598 18.7695 -43.2598 43.25
c0 24.9502 18.7695 43.1807 43.2598 43.1807c24.9404 0 43.1709 -18.2305 43.1709 -43.1807c0 -24.4805 -18.2305 -43.25 -43.1709 -43.25z" />
    <glyph glyph-name="dotaccent" unicode="&#x2d9;" horiz-adv-x="185" 
d="M106.08 601.08c-24.4805 0 -43.25 18.7695 -43.25 43.2598c0 24.9404 18.7695 43.1709 43.25 43.1709c24.9502 0 43.1699 -18.2305 43.1699 -43.1709c0 -24.4902 -18.2197 -43.2598 -43.1699 -43.2598z" />
    <glyph glyph-name="grave" unicode="`" horiz-adv-x="467" 
d="M253.43 542.97l-206.149 108.799l32.29 58.4004l203.68 -115.43z" />
    <glyph glyph-name="hungarumlaut" unicode="&#x2dd;" horiz-adv-x="496" 
d="M106.43 532.6l-47.5205 34l127.69 176.77l52.5098 -37zM298.049 532.6l-47.5098 34l127.69 176.77l52.5098 -37z" />
    <glyph glyph-name="macron" unicode="&#xaf;" horiz-adv-x="442" 
d="M49.1104 568.51v59.0303h343.43v-59.0303h-343.43z" />
    <glyph glyph-name="ogonek" unicode="&#x2db;" horiz-adv-x="246" 
d="M162.25 -192.89c-55.0801 0 -105.541 32.0908 -105.541 98.001c0 34.7998 14.2598 70.8896 34.4297 94.8896h46.2002c-15 -21 -29 -49.6299 -29 -77.8301c0 -40.6904 28.8604 -69.5205 68.6006 -69.5205c8.62988 0 25.6299 1.5498 38.6299 7.17969v-41.3799
c-17.7197 -7.70996 -34.9697 -11.3398 -53.3193 -11.3398z" />
    <glyph glyph-name="ring" unicode="&#x2da;" horiz-adv-x="308" 
d="M154.2 531.83c-57.5498 0 -105.09 47.54 -105.09 104.62c0 56.5498 46.54 105.63 105.09 105.63c57.6299 0 105.17 -47.0801 105.17 -105.17c0 -58.54 -48.0898 -105.08 -105.17 -105.08zM153.74 576.83c31.7695 0 59.1709 24.9404 59.1709 59.6201
c0 34.1504 -26.4004 60.0908 -58.71 60.0908c-33.2305 0 -59.1709 -27.8604 -59.1709 -60.0908c0 -33.2197 26.4004 -59.6201 58.71 -59.6201z" />
    <glyph glyph-name="tilde" unicode="&#x2dc;" horiz-adv-x="440" 
d="M292.51 564.71c-55.46 0 -99 41 -143 41c-25 0 -46 -13 -64 -30l-34.5703 45.9697c25.7998 24.2598 59.6895 42.0596 97.8594 42.0596c59.2803 0 97.9102 -41 141.91 -41c23.46 0 47.46 12 68.46 33l33.2305 -42.5996
c-28.6299 -29.3398 -61.8896 -48.4297 -99.8896 -48.4297z" />
    </font>
</defs>
</svg>
