<?xml version="1.0" standalone="no"?>
<!DOCTYPE svg PUBLIC "-//W3C//DTD SVG 1.1//EN" "http://www.w3.org/Graphics/SVG/1.1/DTD/svg11.dtd" >
<svg xmlns="http://www.w3.org/2000/svg" width="100%" height="100%">
<metadata>
Created by FontXChange 20100429 at Mon Jan  2 15:37:36 2017
 By Killian Grant
Copyright 2013 \(c\) Rick Banks / Face37. All rights reserved.
</metadata>
<defs>
<font id="F37Jan-LightItalic" horiz-adv-x="0" >
  <font-face 
    font-family="F37 Jan Light Italic"
    font-weight="300"
    font-style="italic"
    font-stretch="normal"
    units-per-em="1000"
    panose-1="0 0 4 0 0 0 0 0 0 0"
    ascent="800"
    descent="-200"
    x-height="474.999"
    cap-height="708"
    bbox="-571.301 -241.552 1251.98 964.619"
    underline-thickness="50"
    underline-position="-50"
    slope="-10"
    stemh="61"
    stemv="64"
    unicode-range="U+0020-FB02"
  />
<missing-glyph horiz-adv-x="713" 
d="M616.05 0h-518.4l133.1 740h518.4zM562.069 67.71l108.58 604.03h-385.97l-108.58 -604.03h385.97z" />
    <glyph glyph-name="fi" unicode="fi" horiz-adv-x="499" 
d="M508.67 475l-85.4492 -475h-64.5801l72.4004 402.45c1.20996 6.71973 2.99023 9.25977 7.33008 12.9795l-5.58008 6.16992c-4.29004 -3.71973 -8.16992 -5.16992 -12.7197 -5.16992h-164.05c-4.5498 0 -7.87988 1.4502 -10.96 5.16992l-7.74023 -6.16992
c3.07031 -3.71973 4.20996 -6.25977 3.12012 -12.9795l-72.5703 -401.91h-64.75l72.5596 401.91c1.09961 6.71973 2.98926 9.25977 7.28906 12.9795l-5.53027 6.16992c-4.34961 -3.71973 -8.21973 -5.16992 -12.7197 -5.16992h-62.3701l10.5596 58.5703h62.3701
c4.5 0 7.83984 -1.45996 10.8096 -5.16992l7.74023 6.16992c-2.91992 3.70996 -3.91992 6.2002 -2.78027 12.9697l3.75 20.6299c24.5498 141.2 88.2295 203.851 204.149 203.851c8.90039 0 23.8809 -0.910156 38.5811 -3.82031l-10.96 -60.8301h-2.51953
c-4 0 -15.5596 2.83008 -30.3799 2.83008c-74.2402 0 -118.521 -49.1602 -132.79 -132.46l-4.91016 -30.2002c-1.41016 -6.71973 -3.37988 -9.25977 -7.78027 -12.9697l5.58008 -6.16992c4.41016 3.70996 8.27051 5.16992 12.8203 5.16992h242.08zM513.911 687.51
c22.04 0 36.2002 -15.1104 36.2002 -36.1104c0 -27.8496 -23.7598 -50.3193 -51.6602 -50.3193c-21.5195 0 -35.96 15.7002 -35.96 36.4902c0 28.1299 24.0303 49.9395 51.4199 49.9395z" />
    <glyph glyph-name="fl" unicode="fl" horiz-adv-x="495" 
d="M423.43 712.91c51.3398 0 93.9512 -5.71973 122.361 -13.7197l-125.7 -699.2h-64.75l116.12 645.69c-14.1396 3.44043 -31.46 5.94043 -58.4697 5.94043c-83.8496 0 -137.189 -51 -151.76 -132.45l-5.45996 -30.2002
c-1.13965 -6.71973 -3.33984 -9.25977 -7.67969 -12.9697l5.58008 -6.16992c4.34961 3.70996 8.16992 5.16992 12.7197 5.16992h119.51l-10.5703 -58.5703h-119.5c-4.5498 0 -7.83008 1.4502 -10.9004 5.16992l-7.74023 -6.16992
c3.05957 -3.71973 4.25 -6.25977 3.11035 -12.9795l-72.7305 -402.45h-64.75l72.7305 402.45c1.13965 6.71973 2.97949 9.25977 7.2793 12.9795l-5.51953 6.16992c-4.36035 -3.71973 -8.28027 -5.16992 -12.7803 -5.16992h-62.3701l10.5596 58.5703h62.3701
c4.5 0 7.87988 -1.45996 10.9102 -5.16992l7.74023 6.16992c-2.96973 3.70996 -3.10938 6.25 -2.88965 12.9697l3.2002 18.46c16.5098 139.39 105.859 205.479 229.379 205.479z" />
    <glyph glyph-name=".notdef" horiz-adv-x="713" 
d="M616.05 0h-518.4l133.1 740h518.4zM562.069 67.71l108.58 604.03h-385.97l-108.58 -604.03h385.97z" />
    <glyph glyph-name="A" unicode="A" horiz-adv-x="646" 
d="M10.5195 0l400.28 708h76.6904l148.55 -708h-72.7695l-39.8799 193.51h-331.65l-108.94 -193.51h-72.2803zM229.31 243.83c4.4502 5.16992 11.1484 8.70996 19.2188 8.70996h239.76c8.08008 0 13.5605 -3.54004 16.1104 -8.70996l9.04004 3.62012l-72.0703 367.8
c-1.41016 7.17969 -0.44043 14.7197 0.419922 19.2598h-8.75c-0.80957 -4.54004 -3.15918 -12.0801 -7.04883 -19.2598l-204.06 -367.8z" />
    <glyph glyph-name="Aacute" unicode="&#xc1;" horiz-adv-x="658" 
d="M375.1 765.45l-24.5 51.6396l218.55 119.93l28.8203 -61.6797zM10.5195 -0l400.28 708h76.6904l148.55 -708h-72.7695l-39.8799 193.51h-331.65l-108.94 -193.51h-72.2803zM229.31 243.83c4.4502 5.16992 11.1484 8.70996 19.2188 8.70996h239.76
c8.08008 0 13.5605 -3.54004 16.1104 -8.70996l9.04004 3.62012l-72.0703 367.8c-1.41016 7.17969 -0.44043 14.7197 0.419922 19.2598h-8.75c-0.80957 -4.54004 -3.15918 -12.0801 -7.04883 -19.2598l-204.06 -367.8z" />
    <glyph glyph-name="Acircumflex" unicode="&#xc2;" horiz-adv-x="658" 
d="M344.55 761.49l-34.8594 40.7598l166.25 141.12h36.2695l112.68 -141.53l-43.0801 -35.8896l-93.5596 114.49zM10.5205 0l400.28 708h76.6904l148.55 -708h-72.7695l-39.8799 193.51h-331.65l-108.94 -193.51h-72.2803zM229.311 243.83
c4.4502 5.16992 11.1484 8.70996 19.2188 8.70996h239.76c8.08008 0 13.5605 -3.54004 16.1104 -8.70996l9.04004 3.62012l-72.0703 367.8c-1.41016 7.17969 -0.44043 14.7197 0.419922 19.2598h-8.75c-0.80957 -4.54004 -3.15918 -12.0801 -7.04883 -19.2598
l-204.06 -367.8z" />
    <glyph glyph-name="Adieresis" unicode="&#xc4;" horiz-adv-x="658" 
d="M397.81 808.34c-27.0098 0.209961 -38.4697 18.4092 -38.3193 36.9092c0.209961 26.0801 21.3799 49.3496 49.1494 49.3496c23.4805 0 38.4707 -16.5996 38.3203 -36.6992c-0.209961 -25.8496 -19.9502 -49.7695 -49.1504 -49.5596zM548.189 808.339
c-27.0098 0.209961 -38.4697 18.4092 -38.3193 36.9092c0.209961 26.0801 21.3799 49.3496 49.1494 49.3496c23.4805 0 38.4707 -16.5996 38.3105 -36.6992c-0.200195 -25.8496 -19.9502 -49.7695 -49.1406 -49.5596zM10.5195 -0.00195312l400.28 708h76.6904l148.55 -708
h-72.7695l-39.8799 193.51h-331.65l-108.94 -193.51h-72.2803zM229.31 243.828c4.4502 5.16992 11.1484 8.70996 19.2188 8.70996h239.76c8.08008 0 13.5605 -3.54004 16.1104 -8.70996l9.04004 3.62012l-72.0703 367.8c-1.41016 7.17969 -0.44043 14.7197 0.419922 19.2598
h-8.75c-0.80957 -4.54004 -3.15918 -12.0801 -7.04883 -19.2598l-204.06 -367.8z" />
    <glyph glyph-name="Agrave" unicode="&#xc0;" horiz-adv-x="658" 
d="M547.67 765.45l-183.01 108.8l39.8096 55.8604l178.88 -117.33zM10.5205 0l400.28 708h76.6904l148.55 -708h-72.7695l-39.8799 193.51h-331.65l-108.94 -193.51h-72.2803zM229.311 243.83c4.4502 5.16992 11.1484 8.70996 19.2188 8.70996h239.76
c8.08008 0 13.5605 -3.54004 16.1104 -8.70996l9.04004 3.62012l-72.0703 367.8c-1.41016 7.17969 -0.44043 14.7197 0.419922 19.2598h-8.75c-0.80957 -4.54004 -3.15918 -12.0801 -7.04883 -19.2598l-204.06 -367.8z" />
    <glyph glyph-name="Aring" unicode="&#xc5;" horiz-adv-x="658" 
d="M463.18 754.56c-61.3701 0 -88.8008 44.1299 -88.8008 90.8604c0 62.8096 50.1699 119.199 117.22 119.199c56.1602 0 88.4004 -39.4297 88.4004 -90.2695c0 -62.8496 -47.5596 -119.79 -116.819 -119.79zM468.009 799.829c37.0498 0 65.8398 31.0391 65.8398 68.7793
c0 28.6201 -16.9697 50.7402 -47.8193 50.7402c-37.54 0 -65.7002 -32.9199 -65.7002 -69.0596c0 -27.5303 15.8896 -50.46 47.6797 -50.46zM10.5186 -0.00195312l400.28 708h76.6904l148.55 -708h-72.7695l-39.8799 193.51h-331.65l-108.94 -193.51h-72.2803z
M229.309 243.828c4.4502 5.16992 11.1484 8.70996 19.2188 8.70996h239.76c8.08008 0 13.5605 -3.54004 16.1104 -8.70996l9.04004 3.62012l-72.0703 367.8c-1.41016 7.17969 -0.44043 14.7197 0.419922 19.2598h-8.75
c-0.80957 -4.54004 -3.15918 -12.0801 -7.04883 -19.2598l-204.06 -367.8z" />
    <glyph glyph-name="Atilde" unicode="&#xc3;" horiz-adv-x="658" 
d="M537.28 787.2c-56.4404 0 -82.8887 41 -131.749 41c-28.8604 0 -50.8408 -12.4102 -72.791 -29.6797l-25.5195 45.6504c29.6299 24.2598 61.7695 42.0596 103.479 42.0596c58.1396 0 87.9697 -41 130.62 -41c26.7598 0 50.25 12.5996 74.79 33.54l25.75 -45.7998
c-29.9102 -27.4502 -64.1699 -45.7705 -104.58 -45.7705zM10.5225 0l400.28 708h76.6904l148.55 -708h-72.7695l-39.8799 193.51h-331.65l-108.94 -193.51h-72.2803zM229.312 243.83c4.4502 5.16992 11.1484 8.70996 19.2188 8.70996h239.76
c8.08008 0 13.5605 -3.54004 16.1104 -8.70996l9.04004 3.62012l-72.0703 367.8c-1.41016 7.17969 -0.44043 14.7197 0.419922 19.2598h-8.75c-0.80957 -4.54004 -3.15918 -12.0801 -7.04883 -19.2598l-204.06 -367.8z" />
    <glyph glyph-name="AE" unicode="&#xc6;" horiz-adv-x="829" 
d="M-9.53027 0l492.599 708h419.23l-11.0898 -61.75h-297.54c-5.00977 0 -8.71973 1.91992 -12.0996 6.08984l-7.69043 -6.16992c3.7002 -4.62988 4.33008 -7.58008 3.04004 -14.3398l-39.1504 -217.12c-1.17969 -6.70996 -2.83984 -9.70996 -8.03027 -14.3398
l5.48047 -6.16992c4.74023 4.16992 9.25977 6.08008 14.2695 6.08008h252.67l-11.0898 -61.7402h-252.67c-5.00977 0 -8.85938 1.91016 -12.1494 6.08984l-7.69043 -6.17969c3.59961 -4.62012 4.68945 -7.67969 3.60938 -14.3398l-45.1396 -247.94
c-1.01953 -6.71973 -2.88965 -9.71973 -8.2793 -14.3398l5.48047 -6.17969c4.90039 4.17969 9.26074 6.08984 14.3311 6.08984h301.22l-11.04 -61.7402h-383.771l32.2002 176.91c1.16016 6.71973 3.06055 9.71973 8.41016 14.3398l-5.48047 6.17969
c-4.83984 -4.17969 -9.21973 -6.08984 -14.2295 -6.08984h-219.8l-134.16 -191.34h-71.4404zM241.408 242.74c4.45996 5.16992 11.21 8.70996 19.2803 8.70996h165.95c5.00977 0 8.76953 -1.91016 12.0996 -6.08008l7.74023 6.16992
c-3.7002 4.62988 -4.5498 7.62988 -3.16016 14.3398l66.4297 370.63h-8.30957c-0.860352 -5.08008 -2.9707 -13.4297 -7.04102 -18.9697l-260.47 -371.17z" />
    <glyph glyph-name="B" unicode="B" horiz-adv-x="635" 
d="M97.6602 0l127.349 708.001h214.66c121.67 0 200.63 -46.0498 200.63 -160.03c0 -78.9805 -55.4404 -152.891 -125.46 -174.301l-1.5498 -8.7998c67.2402 -15.8203 114.561 -58.8701 114.561 -142.75c0 -150.33 -111.18 -222.12 -287.6 -222.12h-242.59zM235.759 388.941
c4.84961 4.16992 9.2793 6.08887 14.2891 6.08887h162.29c83.6104 0 158.551 54.2402 158.551 141.48c0 80.2002 -53.9404 109.74 -138.95 109.74h-136.67c-5.05957 0 -8.86914 1.91992 -12.1494 6.08984l-7.63965 -6.16992
c3.5498 -4.62988 4.71973 -7.62988 3.58008 -14.3398l-40.6904 -222.38c-0.980469 -6.70996 -2.79004 -9.70996 -8.08008 -14.3398zM175.829 55.6504c4.79004 4.17969 9.31934 6.08887 14.3193 6.08887h167.36c119.81 0 202.489 55.9697 202.489 154.13
c0 88.6104 -63.5498 119.04 -152.1 119.04h-168.67c-5.00977 0 -8.76953 1.91992 -12.0498 6.08984l-7.79004 -6.16992c3.7002 -4.62988 4.66992 -7.62988 3.37988 -14.3496l-43.5996 -244.31c-1.37988 -6.71973 -3.58008 -9.71973 -8.82031 -14.3398z" />
    <glyph glyph-name="C" unicode="C" horiz-adv-x="676" 
d="M505.65 721.63c105.4 0 181.89 -35.7998 238.6 -106.66l-52.6104 -42.9697c-45.6104 58.6299 -101.73 87.7998 -188.53 87.7998c-188.37 0 -329.46 -153.26 -329.8 -344.21c0.339844 -155.51 93.6602 -266.22 248.37 -266.22c72.8301 0 141.86 24.54 201.49 78.6797
l41.2002 -48.4502c-70.54 -66.5996 -161.14 -92.5996 -243.77 -92.5996c-187.8 0 -317.03 133.45 -316.94 326.12c-0.0898438 225.99 176.11 408.51 401.99 408.51z" />
    <glyph glyph-name="Ccedilla" unicode="&#xc7;" horiz-adv-x="690" 
d="M505.65 721.63c105.4 0 181.891 -35.8008 238.601 -106.661l-52.6104 -42.9697c-45.6104 58.6299 -101.73 87.7998 -188.53 87.7998c-188.37 0 -329.46 -153.26 -329.8 -344.21c0.339844 -155.51 93.6602 -266.22 248.37 -266.22c72.8301 0 141.86 24.54 201.49 78.6797
l41.2002 -48.4502c-70.54 -66.5996 -161.14 -92.5996 -243.77 -92.5996c-2.29004 0 -4.57031 0.0195312 -6.83984 0.0595703l-14.6396 -27.5498h8.17969c43.8096 0 77.8496 -30.1797 77.8496 -79.6992c0 -59.46 -40.5 -107.979 -119.5 -107.979
c-57.1201 0 -96.9004 35.25 -88.7803 91.21h46.7598c-2.70996 -32.7402 18.1602 -47.7207 47.4502 -47.7207c37.9297 0 62.9795 23.2998 62.9795 59.2598c0 25.3203 -16.9502 42.4707 -50.4102 42.4707h-53.54l37.5498 73.6504c-158.72 22.75 -264.08 148.45 -264 322.42
c-0.0898438 225.99 176.11 408.51 401.99 408.51z" />
    <glyph glyph-name="D" unicode="D" horiz-adv-x="735" 
d="M97.46 0l127.352 708h209.35c194.43 0 323.56 -115.71 323.56 -295.86c0 -260.6 -182.29 -412.14 -450.86 -412.14h-209.4zM175.632 55.6504c4.79004 4.17969 9.26953 6.08984 14.3291 6.08984h121.24c204.12 0 377.5 124.27 377.5 342.3
c0 163.4 -111.46 242.21 -268.32 242.21h-125.36c-5.00977 0 -8.75977 1.91992 -12.0898 6.08984l-7.63965 -6.16992c3.58984 -4.62988 4.70996 -7.62988 3.57031 -14.3398l-99.8896 -555.66c-1.28027 -6.71973 -3.52051 -9.71973 -8.82031 -14.3398z" />
    <glyph glyph-name="Eth" unicode="&#xd0;" horiz-adv-x="743" 
d="M442.3 708c194.44 0 323.561 -115.71 323.561 -295.86c0 -260.6 -182.29 -412.14 -450.86 -412.14h-209.4l58.8398 327.08h-85.21l10.6602 59.0303h85.1699l57.9004 321.89h209.34zM319.35 61.7402c204.11 0 377.489 124.27 377.489 342.3
c0 163.4 -111.46 242.21 -268.32 242.21h-125.35c-5.00977 0 -8.76953 1.91992 -12.0996 6.08984l-7.63965 -6.16992c3.59961 -4.62988 4.71973 -7.62988 3.56934 -14.3398l-44.1699 -245.72h183.95l-10.6504 -59.0303h-183.91l-45.0996 -250.91
c-1.28027 -6.71973 -3.53027 -9.71973 -8.82031 -14.3398l5.48047 -6.17969c4.79004 4.17969 9.25977 6.08984 14.3301 6.08984h121.24z" />
    <glyph glyph-name="E" unicode="E" horiz-adv-x="555" 
d="M97.5303 0l127.296 708h407.021l-11.1396 -61.75h-325.62c-5 0 -8.75977 1.91992 -12.1396 6.08984l-7.63965 -6.16992c3.63965 -4.62988 4.70996 -7.62988 3.62012 -14.3398l-38.5996 -217.12c-1.29004 -6.70996 -3.98047 -9.70996 -9.27051 -14.3398l5.53027 -6.16992
c4.79004 4.16992 9.27051 6.08008 14.2803 6.08008h277.22l-11.0801 -61.7402h-277.229c-5.05957 0 -8.81934 1.91016 -12.0996 6.08984l-7.74023 -6.17969c3.65039 -4.62012 4.80078 -7.62012 3.71094 -14.3398l-44.5996 -247.94
c-1.29004 -6.71973 -3.53027 -9.71973 -8.87988 -14.3398l5.48047 -6.17969c4.83984 4.17969 9.26953 6.08984 14.3291 6.08984h325.78l-11.0498 -61.7402h-407.18z" />
    <glyph glyph-name="Eacute" unicode="&#xc9;" horiz-adv-x="566" 
d="M344.62 765.45l-24.5098 51.6396l218.55 119.93l28.8301 -61.6797zM97.5303 -0l127.296 708h407.021l-11.1396 -61.75h-325.62c-5 0 -8.75977 1.91992 -12.1396 6.08984l-7.63965 -6.16992c3.63965 -4.62988 4.70996 -7.62988 3.62012 -14.3398l-38.5996 -217.12
c-1.29004 -6.70996 -3.98047 -9.70996 -9.27051 -14.3398l5.53027 -6.16992c4.79004 4.16992 9.27051 6.08008 14.2803 6.08008h277.22l-11.0801 -61.7402h-277.229c-5.05957 0 -8.81934 1.91016 -12.0996 6.08984l-7.74023 -6.17969
c3.65039 -4.62012 4.80078 -7.62012 3.71094 -14.3398l-44.5996 -247.94c-1.29004 -6.71973 -3.53027 -9.71973 -8.87988 -14.3398l5.48047 -6.17969c4.83984 4.17969 9.26953 6.08984 14.3291 6.08984h325.78l-11.0498 -61.7402h-407.18z" />
    <glyph glyph-name="Ecircumflex" unicode="&#xca;" horiz-adv-x="566" 
d="M314.07 761.49l-34.8594 40.7598l166.25 141.12h36.2598l112.69 -141.53l-43.0801 -35.8896l-93.5703 114.49zM97.5312 0l127.297 708h407.021l-11.1396 -61.75h-325.62c-5 0 -8.75977 1.91992 -12.1396 6.08984l-7.63965 -6.16992
c3.63965 -4.62988 4.70996 -7.62988 3.62012 -14.3398l-38.5996 -217.12c-1.29004 -6.70996 -3.98047 -9.70996 -9.27051 -14.3398l5.53027 -6.16992c4.79004 4.16992 9.27051 6.08008 14.2803 6.08008h277.22l-11.0801 -61.7402h-277.23
c-5.05957 0 -8.81934 1.91016 -12.0996 6.08984l-7.74023 -6.17969c3.65039 -4.62012 4.80078 -7.62012 3.71094 -14.3398l-44.5996 -247.94c-1.29004 -6.71973 -3.53027 -9.71973 -8.87988 -14.3398l5.48047 -6.17969c4.83984 4.17969 9.26953 6.08984 14.3291 6.08984
h325.78l-11.0498 -61.7402h-407.18z" />
    <glyph glyph-name="Edieresis" unicode="&#xcb;" horiz-adv-x="566" 
d="M367.33 808.34c-27.0098 0.209961 -38.4795 18.4092 -38.3193 36.9092c0.209961 26.0801 21.3701 49.3496 49.1396 49.3496c23.4805 0 38.4805 -16.5996 38.3203 -36.6992c-0.209961 -25.8496 -19.9502 -49.7695 -49.1406 -49.5596zM517.7 808.339
c-27.0098 0.209961 -38.4697 18.4092 -38.3096 36.9092c0.200195 26.0801 21.3701 49.3496 49.1396 49.3496c23.4805 0 38.4707 -16.5996 38.3203 -36.6992c-0.209961 -25.8496 -19.9502 -49.7695 -49.1504 -49.5596zM97.5303 -0.00195312l127.296 708h407.021
l-11.1396 -61.75h-325.62c-5 0 -8.75977 1.91992 -12.1396 6.08984l-7.63965 -6.16992c3.63965 -4.62988 4.70996 -7.62988 3.62012 -14.3398l-38.5996 -217.12c-1.29004 -6.70996 -3.98047 -9.70996 -9.27051 -14.3398l5.53027 -6.16992
c4.79004 4.16992 9.27051 6.08008 14.2803 6.08008h277.22l-11.0801 -61.7402h-277.229c-5.05957 0 -8.81934 1.91016 -12.0996 6.08984l-7.74023 -6.17969c3.65039 -4.62012 4.80078 -7.62012 3.71094 -14.3398l-44.5996 -247.94
c-1.29004 -6.71973 -3.53027 -9.71973 -8.87988 -14.3398l5.48047 -6.17969c4.83984 4.17969 9.26953 6.08984 14.3291 6.08984h325.78l-11.0498 -61.7402h-407.18z" />
    <glyph glyph-name="Egrave" unicode="&#xc8;" horiz-adv-x="566" 
d="M517.18 765.45l-183.01 108.8l39.8203 55.8604l178.88 -117.33zM97.5303 0l127.296 708h407.021l-11.1396 -61.75h-325.62c-5 0 -8.75977 1.91992 -12.1396 6.08984l-7.63965 -6.16992c3.63965 -4.62988 4.70996 -7.62988 3.62012 -14.3398l-38.5996 -217.12
c-1.29004 -6.70996 -3.98047 -9.70996 -9.27051 -14.3398l5.53027 -6.16992c4.79004 4.16992 9.27051 6.08008 14.2803 6.08008h277.22l-11.0801 -61.7402h-277.229c-5.05957 0 -8.81934 1.91016 -12.0996 6.08984l-7.74023 -6.17969
c3.65039 -4.62012 4.80078 -7.62012 3.71094 -14.3398l-44.5996 -247.94c-1.29004 -6.71973 -3.53027 -9.71973 -8.87988 -14.3398l5.48047 -6.17969c4.83984 4.17969 9.26953 6.08984 14.3291 6.08984h325.78l-11.0498 -61.7402h-407.18z" />
    <glyph glyph-name="F" unicode="F" horiz-adv-x="541" 
d="M97.46 0l127.31 708h415.16l-11.5195 -63.9199h-333.81c-5.00977 0 -8.76953 1.91992 -12.0996 6.08984l-7.69043 -6.16992c3.65039 -4.62988 4.65039 -7.62988 3.51074 -14.3496l-42.1504 -232.11c-1.12988 -6.70996 -2.96973 -9.70996 -8.25977 -14.3398
l5.48047 -6.16992c4.79004 4.16992 9.25977 6.08008 14.2695 6.08008h290.09l-11.0996 -61.7402h-290.03c-5.00977 0 -8.87012 1.91016 -12.1904 6.08008l-7.7002 -6.16992c3.65039 -4.62988 4.99023 -7.62988 3.83984 -14.3398l-55.1104 -306.94h-68z" />
    <glyph glyph-name="G" unicode="G" horiz-adv-x="705" 
d="M417.86 -13c-185.17 0 -313.658 136.188 -313.928 329.358c0.269531 221.16 172.029 405.271 399.14 405.271c105.25 0 181.49 -34.5801 234.471 -98.1504l-51.4502 -43.3398c-37.0801 47.71 -93.5205 79.6602 -182.98 79.6602
c-187.63 0 -329.28 -154.71 -329.33 -343.33c0.0498047 -162.21 97.1895 -267.1 247.529 -267.1c67.7598 0 131.43 20.4902 181.93 59.21l32.3203 181.25c0.870117 4.54004 0.00976562 7 8.06934 14.3398l-5.58008 6.16992
c-4.84961 -4.16992 -9.21973 -6.08984 -14.29 -6.08984h-183l10.9297 61.2002h258.13l-53.6299 -297.34c-68.04 -57.2598 -157.99 -81.1094 -238.33 -81.1094z" />
    <glyph glyph-name="H" unicode="H" horiz-adv-x="734" 
d="M97.4805 0l127.3 708h67.7002l-53.2002 -296.75c-1.29004 -6.70996 -3.53027 -9.70996 -8.91992 -14.3398l5.48047 -6.16992c4.83984 4.16992 9.26953 6.08984 14.3291 6.08984h377.21c5.05957 0 8.80957 -1.91992 12.1494 -6.08984l7.69043 6.16992
c-3.59961 4.62988 -4.85938 7.62988 -3.56934 14.3398l53.2002 296.75h67.8896l-127.3 -708h-67.0498l57.6602 321.2c1.13965 6.70996 2.7998 9.70996 8.2002 14.3398l-5.58008 6.16992c-4.7998 -4.16992 -9.20996 -6.08008 -14.2695 -6.08008h-377.21
c-5.05957 0 -8.7793 1.91016 -12.0996 6.08008l-7.74023 -6.16992c3.63965 -4.62988 4.92969 -7.62988 3.7793 -14.3398l-57.6504 -321.2h-68z" />
    <glyph glyph-name="I" unicode="I" horiz-adv-x="262" 
d="M97.46 0l127.3 708h67.6201l-127.3 -708h-67.6201z" />
    <glyph glyph-name="Iacute" unicode="&#xcd;" horiz-adv-x="268" 
d="M179.36 765.45l-24.5 51.6396l218.54 119.93l28.8301 -61.6797zM97.46 -0l127.3 708h67.6201l-127.3 -708h-67.6201z" />
    <glyph glyph-name="Icircumflex" unicode="&#xce;" horiz-adv-x="268" 
d="M148.81 761.49l-34.8584 40.7598l166.25 141.12h36.2695l112.68 -141.53l-43.0801 -35.8896l-93.5703 114.49zM97.4609 0l127.3 708h67.6201l-127.3 -708h-67.6201z" />
    <glyph glyph-name="Idieresis" unicode="&#xcf;" horiz-adv-x="268" 
d="M202.07 808.34c-27.0098 0.209961 -38.4697 18.4092 -38.3193 36.9092c0.209961 26.0801 21.3799 49.3496 49.1494 49.3496c23.4805 0 38.4707 -16.5996 38.3105 -36.6992c-0.200195 -25.8496 -19.9502 -49.7695 -49.1406 -49.5596zM352.45 808.339
c-27.0098 0.209961 -38.4795 18.4092 -38.3193 36.9092c0.209961 26.0801 21.3701 49.3496 49.1396 49.3496c23.4805 0 38.4805 -16.5996 38.3203 -36.6992c-0.209961 -25.8496 -19.9502 -49.7695 -49.1406 -49.5596zM97.46 -0.00195312l127.3 708h67.6201l-127.3 -708
h-67.6201z" />
    <glyph glyph-name="Igrave" unicode="&#xcc;" horiz-adv-x="268" 
d="M351.93 765.45l-183.01 108.8l39.8096 55.8604l178.88 -117.33zM97.46 0l127.3 708h67.6201l-127.3 -708h-67.6201z" />
    <glyph glyph-name="J" unicode="J" horiz-adv-x="481" 
d="M190.91 -13c-92.3701 0 -148.198 57.4307 -162.938 128.45l60.3496 27.7998c13.7695 -56.8896 46.3691 -94.4199 111.31 -94.4199c80.4404 0 142.5 56.2998 163.75 174.22l87.3701 484.95h67.46l-89 -494.17c-26.7305 -148.92 -102.9 -226.83 -238.301 -226.83z" />
    <glyph glyph-name="K" unicode="K" horiz-adv-x="575" 
d="M97.5703 0l127.399 708.011h67.6201l-58.8096 -326.63h8.7002c1.34961 7.25977 4.58008 14.0596 14.9297 23.4795l347.4 303.15h88.79l-392.43 -347.5c-5.25 -4.61035 -10.8398 -5 -14.8301 -5l-1.65039 -8.7998c4.03027 0 10.2305 0 14.3906 -5.09961l283.83 -341.61
h-86.5098l-256.42 308.13c-6.99023 9.42969 -7.7207 16.2295 -6.38086 23.4893h-8.74023l-59.6699 -331.62h-67.6201z" />
    <glyph glyph-name="L" unicode="L" horiz-adv-x="510" 
d="M97.5703 0l127.339 708h68.1602l-113.99 -631.83c-1.04004 -6.71973 -4.08008 -10.2598 -10.1201 -15.4297l5.53027 -6.16992c5.44043 4.70996 10.5107 7.16992 15.5703 7.16992h319.74l-11.0996 -61.7402h-401.13z" />
    <glyph glyph-name="Ldot" unicode="&#x13f;" horiz-adv-x="510" 
d="M97.5703 0l127.339 708h68.1602l-113.99 -631.83c-1.04004 -6.71973 -4.08008 -10.2598 -10.1201 -15.4297l5.53027 -6.16992c5.44043 4.70996 10.5107 7.16992 15.5703 7.16992h319.74l-11.0996 -61.7402h-401.13zM445.829 310.65
c-29.71 0.230469 -42.3193 20.249 -42.1494 40.6094c0.219727 28.6904 23.5098 54.29 54.0596 54.29c25.8301 0 42.3203 -18.2695 42.1504 -40.3799c-0.230469 -28.4297 -21.9404 -54.75 -54.0605 -54.5195z" />
    <glyph glyph-name="Lslash" unicode="&#x141;" horiz-adv-x="510" 
d="M190.06 61.7402h319.739l-11.0996 -61.7402h-401.13l51.0303 283.71l-78.1904 -50.7998l11.7998 65.8301l78.2305 50.8203l64.4697 358.44h68.1602l-55.6396 -308.44l91.8496 59.6699l-11.8604 -65.8301l-91.8701 -59.7002l-46.4697 -257.53
c-1.04004 -6.71973 -4.08008 -10.2598 -10.1201 -15.4297l5.53027 -6.16992c5.44043 4.70996 10.5107 7.16992 15.5703 7.16992z" />
    <glyph glyph-name="M" unicode="M" horiz-adv-x="862" 
d="M97.4199 0l127.299 707.999h93.2305l165.3 -353.12c3.37988 -7.2002 2.16016 -13.8799 1.06055 -20.1396h8.63965c1.16016 6.25977 2.85059 13.7793 8.31055 20.1396l288.8 353.12h101.83l-127.3 -708h-67.5195l108.6 603.96
c2.16016 11.7998 5.74023 17.71 10.7402 23.2598l-6.25977 5.16992l-298.51 -358.85h-62.7002l-170 359.771l-7.99023 -5.16992c2.83984 -5.54004 4.83984 -12 2.63965 -23.7998l-108.66 -604.34h-67.5098z" />
    <glyph glyph-name="N" unicode="N" horiz-adv-x="724" 
d="M97.4902 0l127.339 708.001h82.9404l273.04 -598.15l7.65039 5.17969c-2.91016 6.4502 -4.49023 11.54 -2.2002 24.9697l102.43 568h65.7305l-127.34 -708h-67.6797l-284.62 621.14l-7.59961 -5.16992c3.29004 -6.54004 4.73047 -13 2.36035 -26.4297l-106.23 -589.54
h-65.8203z" />
    <glyph glyph-name="Ntilde" unicode="&#xd1;" horiz-adv-x="739" 
d="M582.39 787.2c-56.4297 0 -82.8789 41 -131.749 41c-28.8604 0 -50.8408 -12.4102 -72.791 -29.6797l-25.5195 45.6504c29.6396 24.2598 61.7793 42.0596 103.479 42.0596c58.1396 0 87.9795 -41 130.63 -41c26.7598 0 50.25 12.5996 74.7803 33.54l25.75 -45.7998
c-29.9102 -27.4502 -64.1602 -45.7705 -104.58 -45.7705zM97.4902 0l127.339 708.001h82.9404l273.04 -598.15l7.65039 5.17969c-2.91016 6.4502 -4.49023 11.54 -2.2002 24.9697l102.43 568h65.7305l-127.34 -708h-67.6797l-284.62 621.14l-7.59961 -5.16992
c3.29004 -6.54004 4.73047 -13 2.36035 -26.4297l-106.23 -589.54h-65.8203z" />
    <glyph glyph-name="O" unicode="O" horiz-adv-x="790" 
d="M420.05 -13.5498c-192.88 0 -316.48 144.349 -316.48 330.889c0 227.14 183.03 404.83 397.08 404.83c190.72 0 314.95 -142.09 314.95 -330.89c-0.549805 -228.77 -183.03 -404.829 -395.55 -404.829zM420.049 49.3691c179.06 0 325.919 147.679 325.919 342.909
c0 152.83 -89.7998 267.521 -246.319 267.521c-177.6 0 -326.449 -148.32 -326.449 -344c0 -152.83 90.3398 -266.43 246.85 -266.43z" />
    <glyph glyph-name="Oacute" unicode="&#xd3;" horiz-adv-x="800" 
d="M446.22 765.45l-24.5098 51.6396l218.55 119.93l28.8301 -61.6797zM420.05 -13.5498c-192.88 0 -316.48 144.349 -316.48 330.889c0 227.14 183.03 404.83 397.08 404.83c190.72 0 314.95 -142.09 314.95 -330.89c-0.549805 -228.77 -183.03 -404.829 -395.55 -404.829z
M420.049 49.3691c179.06 0 325.919 147.679 325.919 342.909c0 152.83 -89.7998 267.521 -246.319 267.521c-177.6 0 -326.449 -148.32 -326.449 -344c0 -152.83 90.3398 -266.43 246.85 -266.43z" />
    <glyph glyph-name="Ocircumflex" unicode="&#xd4;" horiz-adv-x="800" 
d="M415.67 761.49l-34.8594 40.7598l166.25 141.12h36.2598l112.69 -141.53l-43.0801 -35.8896l-93.5703 114.49zM420.051 -13.5498c-192.88 0 -316.48 144.349 -316.48 330.889c0 227.14 183.03 404.83 397.08 404.83c190.72 0 314.95 -142.09 314.95 -330.89
c-0.549805 -228.77 -183.03 -404.829 -395.55 -404.829zM420.05 49.3691c179.06 0 325.919 147.679 325.919 342.909c0 152.83 -89.7998 267.521 -246.319 267.521c-177.6 0 -326.449 -148.32 -326.449 -344c0 -152.83 90.3398 -266.43 246.85 -266.43z" />
    <glyph glyph-name="Odieresis" unicode="&#xd6;" horiz-adv-x="800" 
d="M468.93 808.34c-27.0098 0.209961 -38.4795 18.4092 -38.3193 36.9092c0.209961 26.0801 21.3701 49.3496 49.1396 49.3496c23.4805 0 38.4805 -16.5996 38.3203 -36.6992c-0.209961 -25.8496 -19.9502 -49.7695 -49.1406 -49.5596zM619.3 808.339
c-27.0098 0.209961 -38.4697 18.4092 -38.3096 36.9092c0.200195 26.0801 21.3701 49.3496 49.1396 49.3496c23.4805 0 38.4707 -16.5996 38.3203 -36.6992c-0.209961 -25.8496 -19.9502 -49.7695 -49.1504 -49.5596zM420.05 -13.5518
c-192.88 0 -316.48 144.349 -316.48 330.889c0 227.14 183.03 404.83 397.08 404.83c190.72 0 314.95 -142.09 314.95 -330.89c-0.549805 -228.77 -183.03 -404.829 -395.55 -404.829zM420.049 49.3672c179.06 0 325.919 147.679 325.919 342.909
c0 152.83 -89.7998 267.521 -246.319 267.521c-177.6 0 -326.449 -148.32 -326.449 -344c0 -152.83 90.3398 -266.43 246.85 -266.43z" />
    <glyph glyph-name="Ograve" unicode="&#xd2;" horiz-adv-x="800" 
d="M618.78 765.45l-183.01 108.8l39.8203 55.8604l178.88 -117.33zM420.051 -13.5498c-192.88 0 -316.48 144.349 -316.48 330.889c0 227.14 183.03 404.83 397.08 404.83c190.72 0 314.95 -142.09 314.95 -330.89c-0.549805 -228.77 -183.03 -404.829 -395.55 -404.829z
M420.05 49.3691c179.06 0 325.919 147.679 325.919 342.909c0 152.83 -89.7998 267.521 -246.319 267.521c-177.6 0 -326.449 -148.32 -326.449 -344c0 -152.83 90.3398 -266.43 246.85 -266.43z" />
    <glyph glyph-name="Oslash" unicode="&#xd8;" horiz-adv-x="800" 
d="M724.06 633.38c58.3701 -59.46 91.54 -144.542 91.54 -242.102c-0.549805 -228.77 -183.03 -404.829 -395.55 -404.829c-72.8604 0 -135.841 20.5996 -186.001 56.2998l-67.04 -80.8096l-43.1699 29.3701l70.6904 85.3203c-58.1699 59.7305 -90.96 144.62 -90.96 240.71
c0 227.14 183.03 404.83 397.08 404.83c71.46 0 133.58 -19.9502 183.33 -54.8203l64.3799 77.7002l43.1504 -30.3701zM173.199 315.798c0 -75.4502 22.0098 -141.33 63.1396 -188.71l406.64 490.78c-38.1797 26.7197 -86.3301 41.9297 -143.33 41.9297
c-177.6 0 -326.449 -148.32 -326.449 -344zM420.049 49.3682c179.06 0 325.919 147.681 325.919 342.911c0 76.0898 -22.2598 142.72 -63.9297 190.46l-407.06 -490.66c38.5303 -27.2305 87.29 -42.7109 145.07 -42.7109z" />
    <glyph glyph-name="Otilde" unicode="&#xd5;" horiz-adv-x="800" 
d="M608.39 787.2c-56.4297 0 -82.8789 41 -131.749 41c-28.8604 0 -50.8408 -12.4102 -72.791 -29.6797l-25.5195 45.6504c29.6396 24.2598 61.7793 42.0596 103.479 42.0596c58.1396 0 87.9795 -41 130.63 -41c26.7598 0 50.25 12.5996 74.7803 33.54l25.75 -45.7998
c-29.9102 -27.4502 -64.1602 -45.7705 -104.58 -45.7705zM420.051 -13.5498c-192.88 0 -316.48 144.349 -316.48 330.889c0 227.14 183.03 404.83 397.08 404.83c190.72 0 314.95 -142.09 314.95 -330.89c-0.549805 -228.77 -183.03 -404.829 -395.55 -404.829z
M420.05 49.3691c179.06 0 325.919 147.679 325.919 342.909c0 152.83 -89.7998 267.521 -246.319 267.521c-177.6 0 -326.449 -148.32 -326.449 -344c0 -152.83 90.3398 -266.43 246.85 -266.43z" />
    <glyph glyph-name="OE" unicode="&#x152;" horiz-adv-x="1140" 
d="M420.05 -13.5498c-192.88 0 -316.484 144.35 -316.484 330.89c0 227.14 183.03 404.83 397.08 404.83c141.83 0 241.65 -81.3203 275.62 -192.34l8.40039 4.70996c-2.13965 5 -4.00977 11.3701 -2.39941 20.46l27.2197 153h407.021l-11.1396 -61.75h-325.62
c-5.00977 0 -8.75977 1.91992 -12.1494 6.08984l-7.63965 -6.16992c3.65039 -4.62988 4.76074 -7.62988 3.63086 -14.3398l-38.5996 -217.12c-1.24023 -6.70996 -3.98047 -9.70996 -9.27051 -14.3398l5.51953 -6.16992c4.7998 4.16992 9.28027 6.08008 14.29 6.08008h277.22
l-11.0898 -61.7402h-277.22c-5.07031 0 -8.82031 1.91016 -12.1104 6.08984l-7.74023 -6.17969c3.65039 -4.62012 4.90039 -7.62012 3.70996 -14.3398l-44.5996 -247.94c-1.24023 -6.71973 -3.53027 -9.71973 -8.87012 -14.3398l5.48047 -6.17969
c4.83984 4.17969 9.25977 6.08984 14.3301 6.08984h325.771l-11.04 -61.7402h-407.18l17.46 97.2305c1.62012 9.08008 5.12988 15.46 9.16992 20.46l-6.73047 4.70996c-64.5996 -81.3799 -164.77 -135.95 -282.039 -135.95zM420.045 49.3701
c179.06 0 325.919 147.679 325.919 342.909c0 152.83 -89.7998 267.521 -246.319 267.521c-177.6 0 -326.449 -148.32 -326.449 -344c0 -152.83 90.3398 -266.43 246.85 -266.43z" />
    <glyph glyph-name="P" unicode="P" horiz-adv-x="581" 
d="M97.5303 0l127.3 708h191.97c142.79 0 225.73 -67.7695 225.73 -190.81c0 -162.79 -101.93 -257.48 -306.3 -257.48h-110.67c-5.00977 0 -8.76953 1.91992 -12.0996 6.08984l-7.74023 -6.16992c3.69043 -4.62988 4.66016 -7.62988 3.46973 -14.3496l-44.2002 -245.28
h-67.46zM222.42 315.37c4.74023 4.16992 9.21777 6.08008 14.2275 6.08008h110.66c138.49 0 226.36 66.4502 226.36 185.2c0 100.42 -59.4404 139.6 -167.96 139.6h-110.62c-5 0 -8.75977 1.91992 -12.1396 6.08984l-7.63965 -6.16992
c3.63965 -4.62988 4.70996 -7.62988 3.62012 -14.3398l-53.5996 -295.95c-1.08984 -6.70996 -3.08984 -9.70996 -8.43945 -14.3398z" />
    <glyph glyph-name="Thorn" unicode="&#xde;" horiz-adv-x="599" 
d="M97.5596 0l127.302 707.999h67.7002l-19.3701 -108.23c-1.19043 -6.71973 -3.16016 -9.71973 -8.4502 -14.3398l5.53027 -6.17969c4.7998 4.17969 9.22949 6.08984 14.2393 6.08984h107.72c146.34 0 233.59 -66.25 233.59 -188.43
c0 -168.8 -111.45 -264.97 -307.13 -264.97h-115.7c-5.05957 0 -8.80957 1.91016 -12.0996 6.08984l-7.74023 -6.17969c3.7002 -4.62012 4.46973 -7.62012 3.23926 -14.3398l-20.8301 -117.51h-68zM199.861 188.139c4.84961 4.16992 9.32031 6.09082 14.3301 6.09082h114.72
c137.24 0 226.96 67.71 226.96 192.1c0 93.96 -57.0898 136.72 -175.87 136.72h-106.7c-5.00977 0 -8.76953 1.91992 -12.0498 6.08984l-7.74023 -6.16992c3.65039 -4.62988 4.39062 -7.58008 2.99023 -14.3398l-53.9697 -299.98
c-1.2998 -6.66016 -2.84961 -9.70996 -8.13965 -14.3398z" />
    <glyph glyph-name="Q" unicode="Q" horiz-adv-x="790" 
d="M815.6 391.28c-0.389648 -162.89 -93.0205 -299.06 -223.061 -363.979l-0.480469 -8.58008c5.2998 0.459961 10.0303 0.0996094 14.7705 -8.09082l56.2402 -96.7305l-58.3701 -38.5703l-73.96 127.44c-35.3398 -10.6396 -72.5303 -16.3193 -110.69 -16.3193
c-192.88 0 -316.479 144.35 -316.479 330.89c0 227.14 183.03 404.83 397.08 404.83c190.72 0 314.95 -142.09 314.95 -330.89zM173.198 315.8c0 -152.83 90.3389 -266.431 246.849 -266.431c179.06 0 325.92 147.68 325.92 342.91
c0 152.83 -89.7998 267.521 -246.319 267.521c-177.6 0 -326.449 -148.32 -326.449 -344z" />
    <glyph glyph-name="R" unicode="R" horiz-adv-x="619" 
d="M97.5703 0l127.401 708h209.22c128.83 0 218.8 -56.4697 218.8 -181.09c0 -141.19 -111.54 -218.631 -255.71 -223.201l-1.38965 -7.70996c7.88965 0.540039 14.5996 -4.37988 19.3896 -12.1494l176.26 -283.85h-78.9199l-190.23 303.17h-88.8604
c-5.05957 0 -8.81934 1.91016 -12.1494 6.08008l-7.69043 -6.16992c3.59961 -4.62988 4.66992 -7.62988 3.54004 -14.3398l-52.2002 -288.74h-67.46zM230.132 357.74c4.74023 4.16992 9.2207 6.08984 14.2803 6.08984h138.62c111.02 0 200.649 53.5 200.649 156.18
c0 93.1201 -62.1904 126.24 -160.141 126.24h-128.36c-5.00977 0 -8.76953 1.91992 -12.0996 6.08984l-7.63965 -6.16992c3.59961 -4.62988 4.66992 -7.62988 3.43945 -14.3398l-46.0498 -253.58c-1.08008 -6.70996 -2.88965 -9.70996 -8.17969 -14.3398z" />
    <glyph glyph-name="S" unicode="S" horiz-adv-x="533" 
d="M262.96 -13c-94.9404 0 -164.929 32.8086 -217.369 95.8486l50.1299 51.9502c41.6299 -54.2002 98.4902 -84.9697 176.28 -84.9697c119.05 0 183.18 74.6396 183.18 146.319c0 68.04 -46.0195 103.67 -136.64 141.13c-103.66 42.6299 -158.44 90.5 -158.44 183.87
c0 118.24 100.47 200.48 254.21 200.48c77.8896 0 133.939 -25.25 178.31 -64.7197l-47.4805 -51.7695c-31.2197 31.4902 -81.5498 53.6602 -142.17 53.6602c-97.2002 0 -173.07 -52.8701 -173.07 -130.84c0 -71.1904 56.2197 -98.8701 127.84 -129.311
c108.09 -45.9297 168.45 -94.4297 168.45 -192.42c0 -132.64 -107.64 -219.229 -263.229 -219.229z" />
    <glyph glyph-name="Scaron" unicode="&#x160;" horiz-adv-x="545" 
d="M379.47 767.6l-114.511 141.111l42.3701 35.7998l97.3604 -117.28l139.52 119.02l35.9502 -37.54l-164.42 -141.11h-36.2695zM262.959 -12.999c-94.9404 0 -164.929 32.8086 -217.369 95.8486l50.1299 51.9502c41.6299 -54.2002 98.4902 -84.9697 176.28 -84.9697
c119.05 0 183.18 74.6396 183.18 146.319c0 68.04 -46.0195 103.67 -136.64 141.13c-103.66 42.6299 -158.44 90.5 -158.44 183.87c0 118.24 100.47 200.48 254.21 200.48c77.8896 0 133.939 -25.25 178.31 -64.7197l-47.4805 -51.7695
c-31.2197 31.4902 -81.5498 53.6602 -142.17 53.6602c-97.2002 0 -173.07 -52.8701 -173.07 -130.84c0 -71.1904 56.2197 -98.8701 127.84 -129.311c108.09 -45.9297 168.45 -94.4297 168.45 -192.42c0 -132.64 -107.64 -219.229 -263.229 -219.229z" />
    <glyph glyph-name="T" unicode="T" horiz-adv-x="558" 
d="M245.6 0l113.4 631.83c1.29004 6.75977 3.55957 9.70996 8.80957 14.3398l-5.48047 6.16992c-4.75 -4.16992 -9.26953 -6.08984 -14.3291 -6.08984h-222.24l11.0898 61.75h538.66l-11.0898 -61.75h-221.23c-5.05957 0 -8.81934 1.91992 -12.0996 6.08984
l-7.74023 -6.16992c3.7002 -4.62988 4.40039 -7.58008 3.10059 -14.3398l-113.4 -631.83h-67.4502z" />
    <glyph glyph-name="U" unicode="U" horiz-adv-x="722" 
d="M357.92 -13c-162.73 0 -253.021 111 -217.69 308.05l74.1699 412.95h67.4502l-72 -400.55c-31.3896 -174.86 27.6602 -257.62 159.37 -257.62c121.61 0 223.71 94.8398 253.01 257.62l72 400.55h66.9102l-74.1699 -412.95
c-35.3799 -197.27 -148.22 -308.05 -329.05 -308.05z" />
    <glyph glyph-name="Uacute" unicode="&#xda;" horiz-adv-x="736" 
d="M413.59 765.45l-24.5 51.6396l218.54 119.93l28.8301 -61.6797zM357.92 -13c-162.73 0 -253.021 111 -217.69 308.05l74.1699 412.95h67.4502l-72 -400.55c-31.3896 -174.86 27.6602 -257.62 159.37 -257.62c121.61 0 223.71 94.8398 253.01 257.62l72 400.55h66.9102
l-74.1699 -412.95c-35.3799 -197.27 -148.22 -308.05 -329.05 -308.05z" />
    <glyph glyph-name="Ucircumflex" unicode="&#xdb;" horiz-adv-x="736" 
d="M383.04 761.49l-34.8594 40.7598l166.25 141.12h36.2598l112.69 -141.53l-43.0801 -35.8896l-93.5703 114.49zM357.921 -13c-162.73 0 -253.021 111 -217.69 308.05l74.1699 412.95h67.4502l-72 -400.55c-31.3896 -174.86 27.6602 -257.62 159.37 -257.62
c121.61 0 223.71 94.8398 253.01 257.62l72 400.55h66.9102l-74.1699 -412.95c-35.3799 -197.27 -148.22 -308.05 -329.05 -308.05z" />
    <glyph glyph-name="Udieresis" unicode="&#xdc;" horiz-adv-x="736" 
d="M436.3 808.34c-27.0098 0.209961 -38.4707 18.4092 -38.3203 36.9092c0.209961 26.0801 21.3701 49.3496 49.1504 49.3496c23.4805 0 38.4707 -16.5996 38.3105 -36.6992c-0.209961 -25.8496 -19.9502 -49.7695 -49.1406 -49.5596zM586.669 808.339
c-27 0.209961 -38.4697 18.4092 -38.3096 36.9092c0.209961 26.0801 21.3701 49.3496 49.1396 49.3496c23.4805 0 38.4707 -16.5996 38.3203 -36.6992c-0.209961 -25.8496 -19.9502 -49.7695 -49.1504 -49.5596zM357.919 -13.002c-162.73 0 -253.021 111 -217.69 308.05
l74.1699 412.95h67.4502l-72 -400.55c-31.3896 -174.86 27.6602 -257.62 159.37 -257.62c121.61 0 223.71 94.8398 253.01 257.62l72 400.55h66.9102l-74.1699 -412.95c-35.3799 -197.27 -148.22 -308.05 -329.05 -308.05z" />
    <glyph glyph-name="Ugrave" unicode="&#xd9;" horiz-adv-x="736" 
d="M586.15 765.45l-182.999 108.8l39.8096 55.8604l178.88 -117.33zM357.921 -13c-162.73 0 -253.021 111 -217.69 308.05l74.1699 412.95h67.4502l-72 -400.55c-31.3896 -174.86 27.6602 -257.62 159.37 -257.62c121.61 0 223.71 94.8398 253.01 257.62l72 400.55h66.9102
l-74.1699 -412.95c-35.3799 -197.27 -148.22 -308.05 -329.05 -308.05z" />
    <glyph glyph-name="V" unicode="V" horiz-adv-x="621" 
d="M276.42 0l-136.97 708h74.04l109.09 -594.52c1.91016 -10.7803 0.799805 -17.3398 -0.370117 -23.9697h8.63965c1.12988 6.16992 2.24023 12.54 8.24023 23.9697l318.34 594.52h79.9805l-390.88 -708h-70.1104z" />
    <glyph glyph-name="W" unicode="W" horiz-adv-x="963" 
d="M234.52 0l-91.4102 707.999h72.1504l66.4297 -579.75c1.2002 -11.0098 -0.200195 -19.8496 -1.50977 -26.9395h8.69043c1.25977 7.08984 2.75 15.9297 7.95996 26.9395l274.8 579.75h70l68.4297 -579.75c1.20996 -11.0098 -0.429688 -19.8496 -1.75 -26.9395h8.74023
c1.26953 7.08984 4 15.8799 9.15039 26.9395l275.09 579.75h74.5898l-347.1 -708h-67.4902l-68.2598 575.88c-1.2002 10.96 -0.270508 20.4004 1.42969 29.6602h-8.65039c-1.69043 -9.25977 -3.20996 -18.5996 -8.45996 -29.6592l-275.92 -575.88h-66.9102z" />
    <glyph glyph-name="X" unicode="X" horiz-adv-x="590" 
d="M9.7998 0l308.4 366.32l-169.92 341.68h75.0596l140.91 -285.56c2.25977 -4.58984 1.55957 -10.54 0.779297 -14.71h8.75c0.820312 4.62012 1.51074 10.71 5.27051 15.25l238.15 285.02h81.04l-298.53 -354.61l180.92 -353.39h-76.5996l-148.85 296.49
c-2.53027 5.08008 -1.7207 11.0801 -0.831055 15.7998h-8.75c-0.980469 -5.16992 -1.87012 -10.7197 -5.67969 -15.2598l-249.24 -297.03h-80.8799z" />
    <glyph glyph-name="Y" unicode="Y" horiz-adv-x="596" 
d="M263.97 0l55.6191 308.77l-178.92 399.23h74.9102l141.29 -325.86c2.91992 -6.91016 1.83984 -14.3398 1.26953 -17.9697h8.69043c0.660156 4.08008 2.14062 11.21 7.01074 17.4297l257.97 326.4h78.0898l-322.68 -398.69l-55.6299 -309.31h-67.6201z" />
    <glyph glyph-name="Yacute" unicode="&#xdd;" horiz-adv-x="608" 
d="M345.59 765.45l-24.5 51.6396l218.54 119.93l28.8301 -61.6797zM263.97 -0l55.6191 308.77l-178.92 399.23h74.9102l141.29 -325.86c2.91992 -6.91016 1.83984 -14.3398 1.26953 -17.9697h8.69043c0.660156 4.08008 2.14062 11.21 7.01074 17.4297l257.97 326.4h78.0898
l-322.68 -398.69l-55.6299 -309.31h-67.6201z" />
    <glyph glyph-name="Ydieresis" unicode="&#x178;" horiz-adv-x="608" 
d="M368.3 808.34c-27.0098 0.209961 -38.4707 18.4092 -38.3203 36.9092c0.209961 26.0801 21.3701 49.3496 49.1504 49.3496c23.4805 0 38.4707 -16.5996 38.3105 -36.6992c-0.209961 -25.8496 -19.9502 -49.7695 -49.1406 -49.5596zM518.669 808.339
c-27 0.209961 -38.4697 18.4092 -38.3096 36.9092c0.209961 26.0801 21.3701 49.3496 49.1396 49.3496c23.4805 0 38.4707 -16.5996 38.3203 -36.6992c-0.209961 -25.8496 -19.9502 -49.7695 -49.1504 -49.5596zM263.969 -0.00195312l55.6191 308.77l-178.92 399.23h74.9102
l141.29 -325.86c2.91992 -6.91016 1.83984 -14.3398 1.26953 -17.9697h8.69043c0.660156 4.08008 2.14062 11.21 7.01074 17.4297l257.97 326.4h78.0898l-322.68 -398.69l-55.6299 -309.31h-67.6201z" />
    <glyph glyph-name="Z" unicode="Z" horiz-adv-x="597" 
d="M29.9004 0l10.0596 54.71l526.8 574.29c6.83984 6.9502 11.46 8.4502 17.6104 8.4502l1.59961 8.7998h-426.66l11.04 61.75h513.63l-9.88965 -55.2598l-525.8 -574.29c-7.33984 -6.9502 -12.1797 -8.4502 -17.8398 -8.4502l-1.5 -8.7998h446.46l-11.04 -61.2002h-534.47z
" />
    <glyph glyph-name="Zcaron" unicode="&#x17d;" horiz-adv-x="609" 
d="M414.39 767.6l-114.521 141.111l42.3799 35.7998l97.3604 -117.28l139.52 119.02l35.9404 -37.54l-164.42 -141.11h-36.2598zM29.8994 0.000976562l10.0596 54.71l526.8 574.29c6.83984 6.9502 11.46 8.4502 17.6104 8.4502l1.59961 8.7998h-426.66l11.04 61.75h513.63
l-9.88965 -55.2598l-525.8 -574.29c-7.33984 -6.9502 -12.1797 -8.4502 -17.8398 -8.4502l-1.5 -8.7998h446.46l-11.04 -61.2002h-534.47z" />
    <glyph glyph-name="a" unicode="a" horiz-adv-x="588" 
d="M354.42 484.54c101.15 0 145.57 -58.5391 163.91 -98.459l8.5 5.25977c-4.19043 8.25977 -5.33008 16.2598 -3.63965 26.4297l10.3096 57.2305h65.0303l-85.5 -475h-65.0703l9.40039 52.3496c2.0498 11.25 6.79004 19.25 13.1699 26.4199l-6.55957 5.25977
c-30.3701 -38.6396 -92.0898 -96.4893 -187.28 -96.4893c-107.53 0 -196.96 89.3301 -196.96 214.51c0 160.68 123.27 282.489 274.689 282.489zM351.55 424.881c-118.47 0 -205.839 -100.529 -205.839 -220.449c0 -88.5898 58.7197 -157.229 150.609 -157.229
c103.72 0 201.569 104.52 201.569 221.039c0 86.8799 -54.0596 156.64 -146.34 156.64z" />
    <glyph glyph-name="aacute" unicode="&#xe1;" horiz-adv-x="600" 
d="M299.91 542.97l-24.5 51.6299l218.55 119.93l28.8301 -61.6797zM354.42 484.54c101.15 0 145.57 -58.5391 163.91 -98.459l8.5 5.25977c-4.19043 8.25977 -5.33008 16.2598 -3.63965 26.4297l10.3096 57.2305h65.0303l-85.5 -475h-65.0703l9.40039 52.3496
c2.0498 11.25 6.79004 19.25 13.1699 26.4199l-6.55957 5.25977c-30.3701 -38.6396 -92.0898 -96.4893 -187.28 -96.4893c-107.53 0 -196.96 89.3301 -196.96 214.51c0 160.68 123.27 282.489 274.689 282.489zM351.55 424.881
c-118.47 0 -205.839 -100.529 -205.839 -220.449c0 -88.5898 58.7197 -157.229 150.609 -157.229c103.72 0 201.569 104.52 201.569 221.039c0 86.8799 -54.0596 156.64 -146.34 156.64z" />
    <glyph glyph-name="acircumflex" unicode="&#xe2;" horiz-adv-x="600" 
d="M268.87 539.01l-34.8594 40.7598l166.25 141.11h36.2598l112.69 -141.52l-43.0801 -35.9004l-93.5703 114.49zM354.421 484.539c101.15 0 145.57 -58.5391 163.91 -98.459l8.5 5.25977c-4.19043 8.25977 -5.33008 16.2598 -3.63965 26.4297l10.3096 57.2305h65.0303
l-85.5 -475h-65.0703l9.40039 52.3496c2.0498 11.25 6.79004 19.25 13.1699 26.4199l-6.55957 5.25977c-30.3701 -38.6396 -92.0898 -96.4893 -187.28 -96.4893c-107.53 0 -196.96 89.3301 -196.96 214.51c0 160.68 123.27 282.489 274.689 282.489zM351.551 424.88
c-118.47 0 -205.839 -100.529 -205.839 -220.449c0 -88.5898 58.7197 -157.229 150.609 -157.229c103.72 0 201.569 104.52 201.569 221.039c0 86.8799 -54.0596 156.64 -146.34 156.64z" />
    <glyph glyph-name="adieresis" unicode="&#xe4;" horiz-adv-x="600" 
d="M313.44 585.85c-27.0098 0.209961 -38.4307 18.4102 -38.3203 36.9102c0.209961 26.0898 21.3799 49.3594 49.1494 49.3594c23.4805 0 38.3809 -16.6104 38.3213 -36.71c-0.209961 -25.8398 -19.96 -49.7197 -49.1504 -49.5596zM481.459 585.85
c-27.0098 0.209961 -38.4697 18.4102 -38.3096 36.9102c0.200195 26.0898 21.3701 49.3594 49.1396 49.3594c23.4805 0 38.4707 -16.6104 38.3203 -36.71c-0.209961 -25.8398 -19.9502 -49.7695 -49.1504 -49.5596zM354.419 484.54c101.15 0 145.57 -58.5391 163.91 -98.459
l8.5 5.25977c-4.19043 8.25977 -5.33008 16.2598 -3.63965 26.4297l10.3096 57.2305h65.0303l-85.5 -475h-65.0703l9.40039 52.3496c2.0498 11.25 6.79004 19.25 13.1699 26.4199l-6.55957 5.25977c-30.3701 -38.6396 -92.0898 -96.4893 -187.28 -96.4893
c-107.53 0 -196.96 89.3301 -196.96 214.51c0 160.68 123.27 282.489 274.689 282.489zM351.549 424.881c-118.47 0 -205.839 -100.529 -205.839 -220.449c0 -88.5898 58.7197 -157.229 150.609 -157.229c103.72 0 201.569 104.52 201.569 221.039
c0 86.8799 -54.0596 156.64 -146.34 156.64z" />
    <glyph glyph-name="agrave" unicode="&#xe0;" horiz-adv-x="600" 
d="M472.53 542.97l-183.01 108.8l39.8096 55.8604l178.88 -117.33zM354.421 484.539c101.15 0 145.57 -58.5391 163.91 -98.459l8.5 5.25977c-4.19043 8.25977 -5.33008 16.2598 -3.63965 26.4297l10.3096 57.2305h65.0303l-85.5 -475h-65.0703l9.40039 52.3496
c2.0498 11.25 6.79004 19.25 13.1699 26.4199l-6.55957 5.25977c-30.3701 -38.6396 -92.0898 -96.4893 -187.28 -96.4893c-107.53 0 -196.96 89.3301 -196.96 214.51c0 160.68 123.27 282.489 274.689 282.489zM351.551 424.88
c-118.47 0 -205.839 -100.529 -205.839 -220.449c0 -88.5898 58.7197 -157.229 150.609 -157.229c103.72 0 201.569 104.52 201.569 221.039c0 86.8799 -54.0596 156.64 -146.34 156.64z" />
    <glyph glyph-name="aring" unicode="&#xe5;" horiz-adv-x="600" 
d="M387.03 532.07c-61.3701 0 -88.791 44.1299 -88.791 90.8604c0 62.8096 50.1699 119.21 117.22 119.21c56.1504 0 88.3906 -39.4404 88.3906 -90.2803c0 -62.8496 -47.5498 -119.79 -116.819 -119.79zM391.869 577.34c37.0498 0 65.8301 31.0498 65.8301 68.7803
c0 28.6201 -16.9697 50.75 -47.8193 50.75c-37.5303 0 -65.6904 -32.9199 -65.6904 -69.0703c0 -27.5303 15.8896 -50.46 47.6797 -50.46zM354.419 484.54c101.15 0 145.57 -58.5391 163.91 -98.459l8.5 5.25977c-4.19043 8.25977 -5.33008 16.2598 -3.63965 26.4297
l10.3096 57.2305h65.0303l-85.5 -475h-65.0703l9.40039 52.3496c2.0498 11.25 6.79004 19.25 13.1699 26.4199l-6.55957 5.25977c-30.3701 -38.6396 -92.0898 -96.4893 -187.28 -96.4893c-107.53 0 -196.96 89.3301 -196.96 214.51c0 160.68 123.27 282.489 274.689 282.489
zM351.549 424.881c-118.47 0 -205.839 -100.529 -205.839 -220.449c0 -88.5898 58.7197 -157.229 150.609 -157.229c103.72 0 201.569 104.52 201.569 221.039c0 86.8799 -54.0596 156.64 -146.34 156.64z" />
    <glyph glyph-name="atilde" unicode="&#xe3;" horiz-adv-x="600" 
d="M461.59 564.71c-56.4297 0 -82.8789 40.999 -131.749 40.999c-28.8604 0 -50.8408 -12.4102 -72.791 -29.6797l-25.5195 45.6504c29.6396 24.2598 61.7793 42.0596 103.479 42.0596c58.1396 0 87.9795 -41 130.63 -41c26.7598 0 50.25 12.6104 74.7803 33.5508
l25.75 -45.8096c-29.9102 -27.4404 -64.1602 -45.7705 -104.58 -45.7705zM354.421 484.539c101.15 0 145.57 -58.5391 163.91 -98.459l8.5 5.25977c-4.19043 8.25977 -5.33008 16.2598 -3.63965 26.4297l10.3096 57.2305h65.0303l-85.5 -475h-65.0703l9.40039 52.3496
c2.0498 11.25 6.79004 19.25 13.1699 26.4199l-6.55957 5.25977c-30.3701 -38.6396 -92.0898 -96.4893 -187.28 -96.4893c-107.53 0 -196.96 89.3301 -196.96 214.51c0 160.68 123.27 282.489 274.689 282.489zM351.551 424.88
c-118.47 0 -205.839 -100.529 -205.839 -220.449c0 -88.5898 58.7197 -157.229 150.609 -157.229c103.72 0 201.569 104.52 201.569 221.039c0 86.8799 -54.0596 156.64 -146.34 156.64z" />
    <glyph glyph-name="ae" unicode="&#xe6;" horiz-adv-x="943" 
d="M276.69 -12.46c-107.53 0 -196.96 89.3281 -196.96 214.508c0 160.68 123.27 282.489 274.689 282.489c101.15 0 145.57 -58.54 163.91 -98.46l8.5 5.25977c-4.19043 8.25977 -5.33008 16.2598 -3.63965 26.4297l10.3096 57.2305h65.0303l-10.7998 -58.4404
c-1.94043 -10.1699 -5.45996 -18.1699 -12.6504 -26.4297l6.66016 -5.25977c49.2695 65.5195 116.489 99.6699 193.259 99.6699c116.06 0 185.46 -83.8701 182.37 -203.01c-0.820312 -34.2197 -4.9707 -49.8994 -9.55078 -66.5596h-368.2
c-11.0801 0 -13.3604 1.45996 -15.6602 5.08008l-7.7002 -6.16992c3.23047 -4.16992 4.63086 -7.16992 4.49121 -12.1699c-4.04004 -86.8496 59.2695 -154.51 148.21 -154.51c68.4805 0 117.591 32.4697 152.711 76.8301l48.0596 -38.2402
c-42.75 -56.1396 -108.77 -98.25 -210.42 -98.25c-74.2197 0 -138.26 39.6904 -171.17 98.1709l-8.55957 -5.25977c3.87012 -7.16992 5.33984 -15.1699 3.25 -26.4297l-9.7998 -54.0195h-65.0703l9.40039 52.3496c2.0498 11.25 6.79004 19.25 13.1699 26.4199
l-6.55957 5.25977c-30.3701 -38.6396 -92.0898 -96.4893 -187.28 -96.4893zM296.32 47.1982c103.72 0 201.57 104.521 201.57 221.04c0 86.8799 -54.0596 156.64 -146.34 156.64c-118.47 0 -205.84 -100.53 -205.84 -220.45c0 -88.5898 58.7197 -157.229 150.609 -157.229z
M572.231 264.109c3.65039 3.08984 6.73926 3.99902 13.8096 3.99902h291.1c7.07031 0 9.89062 -0.910156 12.4609 -4l7.74023 6.16992c-3.62988 4.53027 -5.36035 9.48047 -5.79004 27.3105c-3.20996 67.2197 -43.9902 127.29 -125.601 127.29
c-101.54 0 -160 -77.8301 -184.84 -138.63c-2.75977 -5.91992 -8.91016 -11.25 -14.46 -15.9697z" />
    <glyph glyph-name="b" unicode="b" horiz-adv-x="589" 
d="M318.13 -12.46c-101.15 0 -145.571 58.5391 -163.911 98.459l-8.5 -5.25977c4.19043 -8.25977 5.53027 -16.1494 3.58984 -26.3193l-9.99023 -54.4199h-64.5996l127.3 708h65.1104l-52.1201 -288.16c-2 -11.25 -7.05957 -19.3604 -13.4395 -26.5303l6.55957 -5.25977
c30.3701 38.6396 92.54 96.4893 187.73 96.4893c107.53 0 196.96 -89.3301 196.96 -214.51c0 -160.68 -123.27 -282.489 -274.689 -282.489zM318.989 47.1992c120.48 0 207.851 102.971 207.851 220.451c0 88.5898 -57.25 157.229 -149.2 157.229
c-105.13 0 -202.979 -100.61 -202.979 -221.04c0 -88.7803 54.0596 -156.641 144.329 -156.641z" />
    <glyph glyph-name="c" unicode="c" horiz-adv-x="506" 
d="M286.69 -12.46c-120.15 0 -207.479 91.209 -207.479 215.389c0 159.98 125.31 281.61 275.97 281.61c88.8096 0 152.56 -41.4297 185.56 -115.26l-57.4199 -30.9102c-21.7998 54.9404 -68.0195 86.5107 -134.189 86.5107c-112.02 0 -204.1 -96.3799 -204.1 -216.97
c0 -89.3604 56.9004 -160.71 150 -160.71c60.5195 0 114.029 28.2402 151.789 79.1299l48.3896 -37.0498c-51.7803 -67.9199 -121.771 -101.74 -208.521 -101.74z" />
    <glyph glyph-name="ccedilla" unicode="&#xe7;" horiz-adv-x="517" 
d="M295.03 47.2002c60.5195 0 114.041 28.2402 151.801 79.1299l48.3896 -37.0498c-50.5996 -66.3799 -118.59 -100.18 -202.62 -101.689l-14.9199 -28.0801h8.17969c43.7998 -0.320312 77.8398 -30.1807 77.8398 -79.7002c0 -59.46 -40.5 -107.979 -119.5 -107.979
c-57.1104 0 -96.9004 35.25 -88.7803 91.21h46.7695c-2.71973 -32.7402 18.1504 -47.7207 47.4404 -47.7207c37.9404 0 62.9805 23.2998 62.9805 59.2598c0 25.3203 -16.9502 42.25 -50.4102 42.4697h-53.54l37.7598 74.0596
c-98.9004 17.9697 -167.21 102.01 -167.21 211.819c0 159.98 125.31 281.61 275.97 281.61c88.8096 0 152.56 -41.4297 185.56 -115.26l-57.4199 -30.9102c-21.7998 54.9404 -68.0195 86.5107 -134.189 86.5107c-112.02 0 -204.1 -96.3799 -204.1 -216.97
c0 -89.3604 56.9004 -160.71 150 -160.71z" />
    <glyph glyph-name="d" unicode="d" horiz-adv-x="590" 
d="M356.29 484.54c101.16 0 145.58 -58.5381 163.91 -98.458l8.50977 5.25977c-4.2002 8.25977 -5.48047 16.2598 -3.65039 26.4297l52.1104 290.229h65.04l-127.3 -708h-65.0801l9.40039 52.3496c2.0498 11.25 6.79004 19.25 13.1699 26.4199l-6.55957 5.25977
c-30.3701 -38.6396 -92.0801 -96.4893 -187.271 -96.4893c-107.54 0 -196.96 89.3301 -196.96 214.51c0 160.68 123.27 282.489 274.68 282.489zM353.42 424.882c-118.46 0 -205.841 -100.529 -205.841 -220.449c0 -88.5898 58.7197 -157.229 150.62 -157.229
c103.71 0 201.57 104.52 201.57 221.039c0 86.8799 -54.0596 156.64 -146.35 156.64z" />
    <glyph glyph-name="eth" unicode="&#xf0;" horiz-adv-x="576" 
d="M426.32 652.17c101.71 -74.0801 151.58 -180.6 151.58 -322.56c0 -191.48 -98.5 -342.07 -284.46 -342.07c-138 0 -211.86 103.46 -211.86 219.43c0 147.91 119.26 277.57 271.76 277.57c86.2402 0 137.471 -39.5596 158.021 -99.6299l8.38965 4.16992
c-4.75 82.0098 -56.2803 166.18 -141.521 226.25l-85.2305 -65.2803l-25.7998 33.1201l72.9004 56.1201c-30.3203 16.9199 -63.9199 30.9795 -100.36 41.3096l23.9805 50.1699c47 -14.8096 88.6504 -32.79 124.99 -54.0498l86.5303 66.6201l26.0498 -33.7402z
M300.851 47.2002c117.55 0 203.46 101.97 203.46 215.37c0 93.4297 -58.7402 162.31 -153.83 162.31c-118.45 0 -203.13 -105.63 -203.13 -216.74c0 -91.1396 57.0498 -160.939 153.5 -160.939z" />
    <glyph glyph-name="e" unicode="e" horiz-adv-x="531" 
d="M287.39 -12.46c-114.15 0 -205.112 88.2793 -205.112 215.869c0 154.36 115.45 281.13 280.8 281.13c116.06 0 185.46 -83.8701 182.36 -203.01c-0.80957 -34.2197 -4.96973 -49.8994 -9.5498 -66.5596h-367.11c-11.0801 0 -13.3604 1.45996 -15.6602 5.08008
l-7.7002 -6.16992c3.23047 -4.16992 4.52051 -7.16992 4.49023 -12.1699c-1 -79.2197 53.9502 -154.51 147.141 -154.51c68.4805 0 117.591 32.4697 152.701 76.8301l48.0703 -38.2402c-42.75 -56.1396 -108.77 -98.25 -210.43 -98.25zM156.588 264.109
c3.65039 3.08984 6.73926 3.99902 13.8096 3.99902h294.81c7.07031 0 9.89062 -0.910156 12.4707 -4l7.74023 6.16992c-3.63965 4.53027 -5.35938 9.48047 -5.7998 27.3105c-3.2002 67.2197 -43.9902 127.29 -125.59 127.29c-106.44 0 -167.811 -76.3203 -188.561 -138.63
c-2.36035 -5.96973 -8.91016 -11.25 -14.46 -15.9697z" />
    <glyph glyph-name="eacute" unicode="&#xe9;" horiz-adv-x="537" 
d="M282.74 542.97l-24.5 51.6299l218.55 119.93l28.8203 -61.6797zM287.391 -12.46c-114.15 0 -205.112 88.2793 -205.112 215.869c0 154.36 115.45 281.13 280.8 281.13c116.06 0 185.46 -83.8701 182.36 -203.01c-0.80957 -34.2197 -4.96973 -49.8994 -9.5498 -66.5596
h-367.11c-11.0801 0 -13.3604 1.45996 -15.6602 5.08008l-7.7002 -6.16992c3.23047 -4.16992 4.52051 -7.16992 4.49023 -12.1699c-1 -79.2197 53.9502 -154.51 147.141 -154.51c68.4805 0 117.591 32.4697 152.701 76.8301l48.0703 -38.2402
c-42.75 -56.1396 -108.77 -98.25 -210.43 -98.25zM156.589 264.109c3.65039 3.08984 6.73926 3.99902 13.8096 3.99902h294.81c7.07031 0 9.89062 -0.910156 12.4707 -4l7.74023 6.16992c-3.63965 4.53027 -5.35938 9.48047 -5.7998 27.3105
c-3.2002 67.2197 -43.9902 127.29 -125.59 127.29c-106.44 0 -167.811 -76.3203 -188.561 -138.63c-2.36035 -5.96973 -8.91016 -11.25 -14.46 -15.9697z" />
    <glyph glyph-name="ecircumflex" unicode="&#xea;" horiz-adv-x="537" 
d="M251.7 539.01l-34.8682 40.7598l166.26 141.11h36.2598l112.68 -141.52l-43.0703 -35.9004l-93.5703 114.49zM287.392 -12.4609c-114.15 0 -205.112 88.2793 -205.112 215.869c0 154.36 115.45 281.13 280.8 281.13c116.06 0 185.46 -83.8701 182.36 -203.01
c-0.80957 -34.2197 -4.96973 -49.8994 -9.5498 -66.5596h-367.11c-11.0801 0 -13.3604 1.45996 -15.6602 5.08008l-7.7002 -6.16992c3.23047 -4.16992 4.52051 -7.16992 4.49023 -12.1699c-1 -79.2197 53.9502 -154.51 147.141 -154.51
c68.4805 0 117.591 32.4697 152.701 76.8301l48.0703 -38.2402c-42.75 -56.1396 -108.77 -98.25 -210.43 -98.25zM156.59 264.108c3.65039 3.08984 6.73926 3.99902 13.8096 3.99902h294.81c7.07031 0 9.89062 -0.910156 12.4707 -4l7.74023 6.16992
c-3.63965 4.53027 -5.35938 9.48047 -5.7998 27.3105c-3.2002 67.2197 -43.9902 127.29 -125.59 127.29c-106.44 0 -167.811 -76.3203 -188.561 -138.63c-2.36035 -5.96973 -8.91016 -11.25 -14.46 -15.9697z" />
    <glyph glyph-name="edieresis" unicode="&#xeb;" horiz-adv-x="537" 
d="M296.27 585.85c-27.0098 0.209961 -38.4297 18.4102 -38.3193 36.9102c0.209961 26.0898 21.3799 49.3594 49.1494 49.3594c23.4805 0 38.3809 -16.6104 38.3105 -36.71c-0.200195 -25.8398 -19.9502 -49.7197 -49.1406 -49.5596zM464.289 585.85
c-27.0098 0.209961 -38.4697 18.4102 -38.3193 36.9102c0.209961 26.0898 21.3799 49.3594 49.1494 49.3594c23.4805 0 38.4707 -16.6104 38.3203 -36.71c-0.209961 -25.8398 -19.9502 -49.7695 -49.1504 -49.5596zM287.389 -12.46
c-114.15 0 -205.112 88.2793 -205.112 215.869c0 154.36 115.45 281.13 280.8 281.13c116.06 0 185.46 -83.8701 182.36 -203.01c-0.80957 -34.2197 -4.96973 -49.8994 -9.5498 -66.5596h-367.11c-11.0801 0 -13.3604 1.45996 -15.6602 5.08008l-7.7002 -6.16992
c3.23047 -4.16992 4.52051 -7.16992 4.49023 -12.1699c-1 -79.2197 53.9502 -154.51 147.141 -154.51c68.4805 0 117.591 32.4697 152.701 76.8301l48.0703 -38.2402c-42.75 -56.1396 -108.77 -98.25 -210.43 -98.25zM156.587 264.109
c3.65039 3.08984 6.73926 3.99902 13.8096 3.99902h294.81c7.07031 0 9.89062 -0.910156 12.4707 -4l7.74023 6.16992c-3.63965 4.53027 -5.35938 9.48047 -5.7998 27.3105c-3.2002 67.2197 -43.9902 127.29 -125.59 127.29c-106.44 0 -167.811 -76.3203 -188.561 -138.63
c-2.36035 -5.96973 -8.91016 -11.25 -14.46 -15.9697z" />
    <glyph glyph-name="egrave" unicode="&#xe8;" horiz-adv-x="537" 
d="M455.35 542.97l-182.999 108.8l39.8096 55.8604l178.88 -117.33zM287.391 -12.4609c-114.15 0 -205.112 88.2793 -205.112 215.869c0 154.36 115.45 281.13 280.8 281.13c116.06 0 185.46 -83.8701 182.36 -203.01c-0.80957 -34.2197 -4.96973 -49.8994 -9.5498 -66.5596
h-367.11c-11.0801 0 -13.3604 1.45996 -15.6602 5.08008l-7.7002 -6.16992c3.23047 -4.16992 4.52051 -7.16992 4.49023 -12.1699c-1 -79.2197 53.9502 -154.51 147.141 -154.51c68.4805 0 117.591 32.4697 152.701 76.8301l48.0703 -38.2402
c-42.75 -56.1396 -108.77 -98.25 -210.43 -98.25zM156.589 264.108c3.65039 3.08984 6.73926 3.99902 13.8096 3.99902h294.81c7.07031 0 9.89062 -0.910156 12.4707 -4l7.74023 6.16992c-3.63965 4.53027 -5.35938 9.48047 -5.7998 27.3105
c-3.2002 67.2197 -43.9902 127.29 -125.59 127.29c-106.44 0 -167.811 -76.3203 -188.561 -138.63c-2.36035 -5.96973 -8.91016 -11.25 -14.46 -15.9697z" />
    <glyph glyph-name="f" unicode="f" horiz-adv-x="312" 
d="M103.04 0.540039l72.5488 401.91c1.09961 6.71973 2.98926 9.25977 7.28906 12.9795l-5.53027 6.16992c-4.34961 -3.71973 -8.21973 -5.16992 -12.7197 -5.16992h-62.3701l10.5596 58.5703h62.3701c4.5 0 7.83984 -1.45996 10.8096 -5.16992l7.74023 6.16992
c-2.91992 3.70996 -3.91992 6.2002 -2.78027 12.9697l3.75 20.6299c24.75 142.19 89.2002 203.851 204.141 203.851c8.91016 0 23.8906 -0.910156 38.5908 -3.82031l-10.96 -60.8301h-2.51953c-4.00977 0 -15.5596 2.83008 -30.3799 2.83008
c-70.8896 0 -118.149 -45.2002 -133.109 -134.69l-4.58984 -27.9697c-1.41016 -6.71973 -3.37988 -9.25977 -7.78027 -12.9697l5.58008 -6.16992c4.41016 3.70996 8.27051 5.16992 12.8203 5.16992h119.51l-10.5703 -58.5703h-119.5
c-4.5498 0 -7.87988 1.4502 -10.96 5.16992l-7.74023 -6.16992c3.07031 -3.71973 4.20996 -6.25977 3.11035 -12.9795l-72.5596 -401.91h-64.75z" />
    <glyph glyph-name="g" unicode="g" horiz-adv-x="588" 
d="M354.71 484.54c100.86 0 145.278 -58.5391 163.618 -98.459l8.5 5.25977c-4.19043 8.25977 -5.33008 16.2598 -3.63965 26.4297l10.3096 57.2305h65.0303l-82.4404 -457.57c-34.3701 -190.82 -147.55 -258.98 -284.38 -258.98l10 60.75
c103.75 0 182.61 47.6104 207.38 187.561l7.83008 44.4502c2.33008 13.04 7.23047 20.3896 13.6104 27.5596l-6.55957 5.25977c-30.3701 -38.6396 -92.0898 -96.4893 -185.1 -96.4893c-110.88 0 -199.18 91.04 -199.18 214.22c0 161.68 124.66 282.779 275.021 282.779z
M352.378 424.881c-121.04 0 -206.95 -101.35 -206.95 -219.909c0 -88.0498 58.2803 -157.77 151.61 -157.77c103 0 200.85 104.52 200.85 221.039c0 86.8799 -54.0596 156.64 -145.51 156.64z" />
    <glyph glyph-name="h" unicode="h" horiz-adv-x="543" 
d="M74.9102 0l126.913 708h65.0098l-48.4902 -272.17c-2.16016 -12.1904 -6.06055 -20.8906 -13.791 -29.6904l6.55957 -5.25977c34.1504 46.2598 90.5303 83.6602 164.021 83.6602c110.08 0 172.51 -72.8799 147.1 -213.63l-49 -270.91h-64.3799l46.8301 260.05
c18.3096 101.95 -15.1807 163.75 -99.8408 163.75c-90.5801 0 -153.53 -74.0498 -166.431 -145.56l-50.1299 -278.24h-64.3701z" />
    <glyph glyph-name="i" unicode="i" horiz-adv-x="220" 
d="M218.53 601.14c-27.0098 0.209961 -38.4795 18.4092 -38.3193 36.9092c0.209961 26.0801 21.3701 49.3496 49.1396 49.3496c23.4805 0 38.4805 -16.5996 38.3203 -36.6992c-0.209961 -25.8496 -19.9502 -49.7695 -49.1406 -49.5596zM139.771 -0.000976562h-64.75
l85.5 475h64.75z" />
    <glyph glyph-name="dotlessi" unicode="&#x131;" horiz-adv-x="215" 
d="M139.77 0h-64.75l85.5 475h64.75z" />
    <glyph glyph-name="iacute" unicode="&#xed;" horiz-adv-x="220" 
d="M117.86 542.97l-24.5098 51.6299l218.55 119.93l28.8301 -61.6797zM139.771 -0h-64.75l85.5 475h64.75z" />
    <glyph glyph-name="icircumflex" unicode="&#xee;" horiz-adv-x="220" 
d="M86.8096 539.01l-34.8584 40.7598l166.25 141.11h36.2695l112.68 -141.52l-43.0801 -35.9004l-93.5703 114.49zM139.771 -0h-64.75l85.5 475h64.75z" />
    <glyph glyph-name="idieresis" unicode="&#xef;" horiz-adv-x="220" 
d="M131.38 585.85c-27.0098 0.209961 -38.4209 18.4102 -38.3105 36.9102c0.200195 26.0898 21.3701 49.3594 49.1396 49.3594c23.4805 0 38.3809 -16.6104 38.3213 -36.71c-0.209961 -25.8398 -19.9502 -49.7197 -49.1504 -49.5596zM299.409 585.85
c-27.0098 0.209961 -38.4795 18.4102 -38.3193 36.9102c0.209961 26.0898 21.3701 49.3594 49.1396 49.3594c23.4805 0 38.4805 -16.6104 38.3203 -36.71c-0.209961 -25.8398 -19.9502 -49.7695 -49.1406 -49.5596zM139.77 -0h-64.75l85.5 475h64.75z" />
    <glyph glyph-name="igrave" unicode="&#xec;" horiz-adv-x="220" 
d="M290.47 542.97l-183.01 108.8l39.8096 55.8604l178.88 -117.33zM139.77 -0h-64.75l85.5 475h64.75z" />
    <glyph glyph-name="j" unicode="j" horiz-adv-x="228" 
d="M227.61 601.14c-27.0098 0.209961 -38.4697 18.4092 -38.3193 36.9092c0.209961 26.0801 21.3799 49.3496 49.1494 49.3496c23.4805 0 38.4707 -16.5996 38.3203 -36.6992c-0.209961 -25.8496 -19.9502 -49.7695 -49.1504 -49.5596zM-55.9893 -241.552l11.2793 62.9189
c49.1201 0 101.28 28.9404 115.11 105.94l98.6201 547.69h64.9697l-96.96 -537.49c-22.3896 -124.39 -81.3496 -179.06 -193.02 -179.06z" />
    <glyph glyph-name="uni0237" unicode="&#x237;" horiz-adv-x="223" 
d="M-55.9902 -241.55l11.2793 62.9189c49.1201 0 101.28 28.9404 115.11 105.94l98.6201 547.69h64.9697l-96.96 -537.49c-22.3896 -124.39 -81.3496 -179.06 -193.02 -179.06z" />
    <glyph glyph-name="k" unicode="k" horiz-adv-x="443" 
d="M74.8701 0l127.341 708h64.75l-77.5898 -431.46h8.75c1.86035 10.5996 12.8105 21.3496 20.1504 27.5693l207.8 170.89h88.8496l-255.23 -209.98c-5.70996 -4.87988 -10.8701 -6.7998 -17.0205 -6.7998l-1.5498 -8.7998c6.15039 0 11.7402 -1.5498 16.9404 -8.33984
l191.38 -241.08h-82.5996l-168.33 208.49c-4.91016 6.28027 -9.70996 16.0605 -7.82031 26.5703h-8.7002l-42.3701 -235.06h-64.75z" />
    <glyph glyph-name="l" unicode="l" horiz-adv-x="216" 
d="M75.1699 0l127.3 708h64.75l-127.3 -708h-64.75z" />
    <glyph glyph-name="ldot" unicode="&#x140;" horiz-adv-x="262" 
d="M75.1699 0l127.3 708h64.75l-127.3 -708h-64.75zM297 289.63c-29.71 0.230469 -42.3203 20.249 -42.1504 40.6094c0.230469 28.6904 23.5107 54.29 54.0605 54.29c25.8301 0 42.3301 -18.2695 42.1602 -40.3691c-0.230469 -28.4404 -21.9502 -54.7607 -54.0703 -54.5303z
" />
    <glyph glyph-name="lslash" unicode="&#x142;" horiz-adv-x="290" 
d="M334.28 472.84l-12.2305 -67.6094l-84 -54.5801l-63.0498 -350.65h-64.75l54.4902 303.02l-89.71 -58.2803l12.1797 67.6104l89.6797 58.25l60.6602 337.4h64.75l-52.0996 -289.771z" />
    <glyph glyph-name="m" unicode="m" horiz-adv-x="827" 
d="M677.19 484.54c100.41 0 155.143 -73.0215 129.723 -213.632l-49 -270.91h-64.3701l46.8301 260.05c18.3496 101.81 -10.4102 163.75 -86.3398 163.75c-77.7002 0 -141.03 -68.1299 -156.431 -152.89l-49 -270.91h-64.3701l46.8203 260.05
c18.3604 101.81 -10.3994 163.75 -86.3398 163.75c-80.1396 0 -142.84 -76.25 -155.189 -144.91l-50.2402 -278.89h-64.3701l85.46 475h65l-7.03027 -39.1699c-2.58008 -12.29 -6.06055 -20.8896 -13.791 -29.6895l6.55957 -5.25977
c34.1504 46.2598 85.9199 83.6602 156.77 83.6602c68.2695 0 115.069 -34.3496 129.489 -100.569c51.0596 70.3604 104 100.57 179.82 100.57z" />
    <glyph glyph-name="n" unicode="n" horiz-adv-x="543" 
d="M74.9102 0l85.4629 474.999h65l-7.03027 -39.1699c-2.58008 -12.29 -6.06055 -20.8896 -13.791 -29.6895l6.55957 -5.25977c34.1504 46.2598 90.5303 83.6602 164.021 83.6602c110.08 0 172.51 -72.8799 147.1 -213.63l-49 -270.91h-64.3799l46.8301 260.05
c18.3096 101.95 -15.1807 163.75 -99.8408 163.75c-90.5801 0 -153.53 -74.0498 -166.431 -145.56l-50.1299 -278.24h-64.3701z" />
    <glyph glyph-name="ntilde" unicode="&#xf1;" horiz-adv-x="555" 
d="M444.74 564.71c-56.4404 0 -82.8887 40.999 -131.759 40.999c-28.8604 0 -50.8408 -12.4102 -72.791 -29.6797l-25.5195 45.6504c29.6396 24.2598 61.7793 42.0596 103.479 42.0596c58.1396 0 87.9795 -41 130.63 -41c26.7598 0 50.25 12.6104 74.79 33.5508
l25.75 -45.8096c-29.9199 -27.4404 -64.1699 -45.7705 -104.58 -45.7705zM74.9121 -0.000976562l85.4629 474.999h65l-7.03027 -39.1699c-2.58008 -12.29 -6.06055 -20.8896 -13.791 -29.6895l6.55957 -5.25977c34.1504 46.2598 90.5303 83.6602 164.021 83.6602
c110.08 0 172.51 -72.8799 147.1 -213.63l-49 -270.91h-64.3799l46.8301 260.05c18.3096 101.95 -15.1807 163.75 -99.8408 163.75c-90.5801 0 -153.53 -74.0498 -166.431 -145.56l-50.1299 -278.24h-64.3701z" />
    <glyph glyph-name="o" unicode="o" horiz-adv-x="562" 
d="M353.83 484.54c135.51 0 214.4 -98.8896 214.4 -219.89c0 -147.45 -116.52 -277.11 -273.8 -277.11c-141 0 -214.86 103.46 -214.86 219.43c0 147.91 119.26 277.57 274.26 277.57zM348.481 424.88c-118.45 0 -203.13 -105.63 -203.13 -216.74
c0 -91.1396 57.0498 -160.939 153.5 -160.939c117.55 0 203.46 101.97 203.46 215.37c0 93.4297 -58.7402 162.31 -153.83 162.31z" />
    <glyph glyph-name="oacute" unicode="&#xf3;" horiz-adv-x="569" 
d="M293.17 542.97l-24.5 51.6299l218.54 119.93l28.8301 -61.6797zM353.83 484.54c135.51 0 214.4 -98.8896 214.4 -219.89c0 -147.45 -116.52 -277.11 -273.8 -277.11c-141 0 -214.86 103.46 -214.86 219.43c0 147.91 119.26 277.57 274.26 277.57zM348.481 424.88
c-118.45 0 -203.13 -105.63 -203.13 -216.74c0 -91.1396 57.0498 -160.939 153.5 -160.939c117.55 0 203.46 101.97 203.46 215.37c0 93.4297 -58.7402 162.31 -153.83 162.31z" />
    <glyph glyph-name="ocircumflex" unicode="&#xf4;" horiz-adv-x="569" 
d="M262.13 539.01l-34.8682 40.7598l166.25 141.11h36.2695l112.68 -141.52l-43.0703 -35.9004l-93.5703 114.49zM353.832 484.539c135.51 0 214.4 -98.8896 214.4 -219.89c0 -147.45 -116.52 -277.11 -273.8 -277.11c-141 0 -214.86 103.46 -214.86 219.43
c0 147.91 119.26 277.57 274.26 277.57zM348.483 424.879c-118.45 0 -203.13 -105.63 -203.13 -216.74c0 -91.1396 57.0498 -160.939 153.5 -160.939c117.55 0 203.46 101.97 203.46 215.37c0 93.4297 -58.7402 162.31 -153.83 162.31z" />
    <glyph glyph-name="odieresis" unicode="&#xf6;" horiz-adv-x="569" 
d="M306.7 585.85c-27.0098 0.209961 -38.4307 18.4102 -38.3203 36.9102c0.209961 26.0898 21.3701 49.3594 49.1504 49.3594c23.4805 0 38.3809 -16.6104 38.3105 -36.71c-0.209961 -25.8398 -19.9502 -49.7197 -49.1406 -49.5596zM474.719 585.85
c-27.0098 0.209961 -38.4697 18.4102 -38.3193 36.9102c0.209961 26.0898 21.3799 49.3594 49.1494 49.3594c23.4805 0 38.4707 -16.6104 38.3203 -36.71c-0.209961 -25.8398 -19.96 -49.7695 -49.1504 -49.5596zM353.829 484.54c135.51 0 214.4 -98.8896 214.4 -219.89
c0 -147.45 -116.52 -277.11 -273.8 -277.11c-141 0 -214.86 103.46 -214.86 219.43c0 147.91 119.26 277.57 274.26 277.57zM348.48 424.88c-118.45 0 -203.13 -105.63 -203.13 -216.74c0 -91.1396 57.0498 -160.939 153.5 -160.939c117.55 0 203.46 101.97 203.46 215.37
c0 93.4297 -58.7402 162.31 -153.83 162.31z" />
    <glyph glyph-name="ograve" unicode="&#xf2;" horiz-adv-x="569" 
d="M465.78 542.97l-183.01 108.8l39.8203 55.8604l178.88 -117.33zM353.83 484.539c135.51 0 214.4 -98.8896 214.4 -219.89c0 -147.45 -116.52 -277.11 -273.8 -277.11c-141 0 -214.86 103.46 -214.86 219.43c0 147.91 119.26 277.57 274.26 277.57zM348.481 424.879
c-118.45 0 -203.13 -105.63 -203.13 -216.74c0 -91.1396 57.0498 -160.939 153.5 -160.939c117.55 0 203.46 101.97 203.46 215.37c0 93.4297 -58.7402 162.31 -153.83 162.31z" />
    <glyph glyph-name="oslash" unicode="&#xf8;" horiz-adv-x="569" 
d="M475.36 450.84c59.9102 -39 92.8701 -107.97 92.8701 -186.189c0 -147.45 -116.52 -277.11 -273.8 -277.11c-33.2695 0 -62.7998 5.75977 -88.5 16.0801l-48.46 -80.4199l-40.5996 18.1396l50.0596 83.3096c-57.6699 40.29 -87.3604 108.79 -87.3604 182.32
c0 147.91 119.26 277.57 274.26 277.57c29.9102 0 57.0703 -4.82031 81.2305 -13.6299l48.9297 81.4297l40.9805 -19.1396zM145.351 208.14c0 -53.21 19.4404 -99.1504 54.8203 -128.16l202.21 336.54c-16.2998 5.4502 -34.3301 8.36035 -53.9004 8.36035
c-118.45 0 -203.13 -105.63 -203.13 -216.74zM298.851 47.1992c117.55 0 203.461 101.969 203.461 215.369c0 56.8096 -21.7197 104.54 -60.1094 133.23l-203.65 -338.03c17.8496 -6.84961 38.0293 -10.5693 60.2988 -10.5693z" />
    <glyph glyph-name="otilde" unicode="&#xf5;" horiz-adv-x="569" 
d="M454.85 564.71c-56.4404 0 -82.8789 40.999 -131.749 40.999c-28.8604 0 -50.8408 -12.4102 -72.791 -29.6797l-25.5195 45.6504c29.6299 24.2598 61.7695 42.0596 103.479 42.0596c58.1396 0 87.9697 -41 130.62 -41c26.7598 0 50.25 12.6104 74.79 33.5508
l25.75 -45.8096c-29.9102 -27.4404 -64.1699 -45.7705 -104.58 -45.7705zM353.832 484.539c135.51 0 214.4 -98.8896 214.4 -219.89c0 -147.45 -116.52 -277.11 -273.8 -277.11c-141 0 -214.86 103.46 -214.86 219.43c0 147.91 119.26 277.57 274.26 277.57z
M348.483 424.879c-118.45 0 -203.13 -105.63 -203.13 -216.74c0 -91.1396 57.0498 -160.939 153.5 -160.939c117.55 0 203.46 101.97 203.46 215.37c0 93.4297 -58.7402 162.31 -153.83 162.31z" />
    <glyph glyph-name="oe" unicode="&#x153;" horiz-adv-x="948" 
d="M294.43 -12.46c-141 0 -214.871 103.459 -214.871 219.429c0 147.91 119.26 277.57 274.26 277.57c100.72 0 173.45 -52.9297 189.83 -142.17l8.7998 -0.0498047c38.0703 84.8096 126.36 142.22 227.45 142.22c116.06 0 185.46 -83.8701 182.37 -203.01
c-0.80957 -34.2197 -4.96973 -49.8994 -9.5498 -66.5596h-367.11c-11.0801 0 -13.3604 1.45996 -15.6602 5.08008l-7.7002 -6.16992c3.23047 -4.16992 4.52051 -7.16992 4.49023 -12.1699c-1 -79.2197 53.9502 -154.51 147.141 -154.51
c68.4805 0 117.591 32.4697 152.701 76.8301l48.0703 -38.2402c-42.75 -56.1396 -108.78 -98.25 -210.431 -98.25c-83.6504 0 -157.181 51.6504 -181.511 124.15h-8.7998c-40.7598 -70.9902 -121.68 -124.15 -219.479 -124.15zM298.839 47.1992
c117.55 0 203.46 101.97 203.46 215.37c0 93.4297 -58.7402 162.31 -153.83 162.31c-118.45 0 -203.13 -105.63 -203.13 -216.74c0 -91.1396 57.0498 -160.939 153.5 -160.939zM580.479 264.109c3.63965 3.08984 6.73828 4 13.8086 4h287.75
c7.07031 0 9.89062 -0.910156 12.4707 -4l7.74023 6.16992c-3.63965 4.53027 -5.37012 9.48047 -5.7998 27.3105c-3.2002 67.2197 -43.9902 127.29 -125.59 127.29c-106.44 0 -160.12 -77.1904 -181.5 -138.631c-2.41016 -5.96973 -8.91992 -11.25 -14.46 -15.9697z" />
    <glyph glyph-name="p" unicode="p" horiz-adv-x="589" 
d="M224.87 475l-9.94922 -55.1602c-1.99023 -11.25 -7.06055 -19.3604 -13.4404 -26.5303l6.55957 -5.25977c30.3701 38.6396 92.54 96.4893 187.73 96.4893c107.54 0 196.96 -89.3301 196.96 -214.51c0 -160.68 -123.27 -282.489 -274.68 -282.489
c-101.16 0 -145.58 58.54 -163.91 98.46l-8.50977 -5.25977c4.2002 -8.25977 5.7002 -16.4697 3.91992 -26.3701l-51.1797 -285.37h-64.9805l126.96 706h64.5195zM318.911 47.2002c120.47 0 207.851 102.971 207.851 220.451c0 88.5898 -57.25 157.229 -149.21 157.229
c-105.12 0 -202.98 -100.61 -202.98 -221.04c0 -88.7803 54.0596 -156.641 144.34 -156.641z" />
    <glyph glyph-name="thorn" unicode="&#xfe;" horiz-adv-x="589" 
d="M266.75 708l-51.8301 -288.161c-1.99023 -11.3096 -7.06055 -19.3594 -13.4404 -26.5293l6.55957 -5.25977c30.3701 38.6396 92.54 96.4893 187.73 96.4893c107.54 0 196.96 -89.3301 196.96 -214.51c0 -160.68 -123.27 -282.489 -274.68 -282.489
c-101.16 0 -145.58 58.54 -163.91 98.46l-8.50977 -5.25977c4.2002 -8.25977 5.7002 -16.4697 3.91992 -26.3701l-51.1797 -285.37h-64.9805l168.83 939h64.5303zM318.91 47.1992c120.47 0 207.851 102.971 207.851 220.451c0 88.5898 -57.25 157.229 -149.21 157.229
c-105.12 0 -202.98 -100.61 -202.98 -221.04c0 -88.7803 54.0596 -156.641 144.34 -156.641z" />
    <glyph glyph-name="q" unicode="q" horiz-adv-x="590" 
d="M356.42 484.54c101.15 0 145.57 -58.5391 163.91 -98.459l8.5 5.25977c-4.19043 8.25977 -5.33008 16.2598 -3.63965 26.4297l10.3096 57.2305h65.0303l-127.04 -706h-64.8604l50.9404 283.35c2 11.2002 6.58008 19.25 12.96 26.4199l-6.55957 5.25977
c-30.3701 -38.6396 -92.0898 -96.4893 -187.28 -96.4893c-107.53 0 -196.96 89.3301 -196.96 214.51c0 160.68 123.27 282.489 274.689 282.489zM353.55 424.881c-118.47 0 -205.839 -100.529 -205.839 -220.449c0 -88.5898 58.7197 -157.229 150.609 -157.229
c103.72 0 201.569 104.52 201.569 221.039c0 86.8799 -54.0596 156.64 -146.34 156.64z" />
    <glyph glyph-name="r" unicode="r" horiz-adv-x="315" 
d="M139.54 0l-64.3721 -0.000976562l85.4502 475h64.9199l-8.03027 -45.5195c-2.26953 -13.1699 -7.17969 -20.7998 -13.6494 -28.7998l6.61035 -5.25c44.3203 61.3701 103.36 88.5205 158.841 88.5205c6.65039 0 12.7607 -0.490234 18.1211 -1.32031l-12.9004 -70.8398
c-9.79004 1.94043 -19.3496 2.54004 -30.1797 2.54004c-79.4404 0 -143.4 -74.6504 -157.011 -150z" />
    <glyph glyph-name="s" unicode="s" horiz-adv-x="413" 
d="M199.93 -12.46c-64.25 0 -120.631 18.7979 -161.201 59.8281l39.6699 50.4004c38.1602 -40.4004 88.3799 -52.2002 133.42 -52.2002c73.4004 0 119.49 39.04 119.49 83.5205c0 110.54 -217.68 56.1904 -217.68 212.921c0 82.5 66.6396 142.53 182.55 142.53
c56.9697 0 107.54 -14.4297 144.17 -48.7998l-41.2598 -48.0596c-33.4297 29.29 -69.5996 38.8301 -112.239 38.8301c-69.1299 0 -108.92 -33 -108.92 -76.46c0 -104.75 219.06 -57.4004 219.06 -210.971c0 -89.8203 -67.5195 -151.54 -197.06 -151.54z" />
    <glyph glyph-name="scaron" unicode="&#x161;" horiz-adv-x="419" 
d="M283.3 545.11l-114.511 141.121l42.3701 35.79l97.3604 -117.28l139.52 119.02l35.9502 -37.5303l-164.42 -141.12h-36.2695zM199.929 -12.459c-64.25 0 -120.631 18.7979 -161.201 59.8281l39.6699 50.4004c38.1602 -40.4004 88.3799 -52.2002 133.42 -52.2002
c73.4004 0 119.49 39.04 119.49 83.5205c0 110.54 -217.68 56.1904 -217.68 212.921c0 82.5 66.6396 142.53 182.55 142.53c56.9697 0 107.54 -14.4297 144.17 -48.7998l-41.2598 -48.0596c-33.4297 29.29 -69.5996 38.8301 -112.239 38.8301
c-69.1299 0 -108.92 -33 -108.92 -76.46c0 -104.75 219.06 -57.4004 219.06 -210.971c0 -89.8203 -67.5195 -151.54 -197.06 -151.54z" />
    <glyph glyph-name="germandbls" unicode="&#xdf;" horiz-adv-x="557" 
d="M75.21 0l86.7979 480.882c27.3604 151.58 94.8604 236.89 243.971 236.199c104.52 -0.450195 164.22 -63.6699 164.22 -149.76c0 -104.13 -55.3301 -165.92 -123.71 -189.87l-1.61035 -8.7998c56.5 -9.25977 111.38 -47.4902 111.38 -131.88
c0 -153.16 -88.9902 -236.771 -259.58 -236.771h-76.0801l10.8301 60.2002h76.3604c118.4 0 182.841 57.4697 182.841 168.5c0 67.71 -44.96 114.3 -141.6 114.3h-66.7002l10.6201 59.1104h64.9004c74.0996 0 145.01 54.7002 145.01 151.19
c0 60.1797 -38.1699 102.77 -107.5 103.039c-101.05 0.459961 -149.64 -73.1904 -168.43 -177.631l-86.7998 -478.71h-64.9199z" />
    <glyph glyph-name="t" unicode="t" horiz-adv-x="310" 
d="M116.25 0l72.4004 402.45c1.16016 6.71973 3.29004 9.25977 7.62988 12.9795l-5.53027 6.16992c-4.34961 -3.71973 -8.16992 -5.16992 -12.7197 -5.16992h-89.1602l10.5596 58.5703h89.1602c4.55957 0 7.83984 -1.45996 10.8096 -5.16992l7.74023 6.16992
c-2.95996 3.70996 -3.97949 6.25 -2.88965 12.9697l26.3799 145.57h64.9102l-26.3701 -145.57c-1.09961 -6.71973 -3.26953 -9.25977 -7.61914 -12.9697l5.51953 -6.16992c4.41016 3.70996 8.27051 5.16992 12.8203 5.16992h103.76l-10.5098 -58.5703h-103.81
c-4.5498 0 -7.87988 1.4502 -10.8994 5.16992l-7.74023 -6.16992c2.96973 -3.71973 3.48926 -6.25977 2.33887 -12.9795l-72.4004 -402.45h-64.3799z" />
    <glyph glyph-name="u" unicode="u" horiz-adv-x="536" 
d="M154.31 475h64.3701l-47.3701 -263.86c-19.29 -107.29 16.8604 -163.94 105.73 -163.94c91.0303 0 144.71 58.3799 163.67 163.939l47.3701 263.86h64.9199l-48.46 -267.2c-25.5498 -141.71 -85.9502 -220.26 -238.23 -220.26c-121.3 0 -185.52 81.0303 -160.46 220.261z
" />
    <glyph glyph-name="uacute" unicode="&#xfa;" horiz-adv-x="547" 
d="M280.97 542.97l-24.5 51.6299l218.54 119.93l28.8301 -61.6797zM154.31 475h64.3701l-47.3701 -263.86c-19.29 -107.29 16.8604 -163.94 105.73 -163.94c91.0303 0 144.71 58.3799 163.67 163.939l47.3701 263.86h64.9199l-48.46 -267.2
c-25.5498 -141.71 -85.9502 -220.26 -238.23 -220.26c-121.3 0 -185.52 81.0303 -160.46 220.261z" />
    <glyph glyph-name="ucircumflex" unicode="&#xfb;" horiz-adv-x="547" 
d="M249.93 539.01l-34.8682 40.7598l166.25 141.11h36.2695l112.68 -141.52l-43.0703 -35.9004l-93.5703 114.49zM154.312 475h64.3701l-47.3701 -263.86c-19.29 -107.29 16.8604 -163.94 105.73 -163.94c91.0303 0 144.71 58.3799 163.67 163.939l47.3701 263.86h64.9199
l-48.46 -267.2c-25.5498 -141.71 -85.9502 -220.26 -238.23 -220.26c-121.3 0 -185.52 81.0303 -160.46 220.261z" />
    <glyph glyph-name="udieresis" unicode="&#xfc;" horiz-adv-x="547" 
d="M294.5 585.85c-27.0098 0.209961 -38.4307 18.4102 -38.3203 36.9102c0.209961 26.0898 21.3701 49.3594 49.1504 49.3594c23.4805 0 38.3809 -16.6104 38.3105 -36.71c-0.209961 -25.8398 -19.9502 -49.7197 -49.1406 -49.5596zM462.519 585.85
c-27.0098 0.209961 -38.4697 18.4102 -38.3193 36.9102c0.209961 26.0898 21.3799 49.3594 49.1494 49.3594c23.4805 0 38.4707 -16.6104 38.3203 -36.71c-0.209961 -25.8398 -19.96 -49.7695 -49.1504 -49.5596zM154.309 475h64.3701l-47.3701 -263.86
c-19.29 -107.29 16.8604 -163.94 105.73 -163.94c91.0303 0 144.71 58.3799 163.67 163.939l47.3701 263.86h64.9199l-48.46 -267.2c-25.5498 -141.71 -85.9502 -220.26 -238.23 -220.26c-121.3 0 -185.52 81.0303 -160.46 220.261z" />
    <glyph glyph-name="ugrave" unicode="&#xf9;" horiz-adv-x="547" 
d="M453.58 542.97l-183.01 108.8l39.8203 55.8604l178.88 -117.33zM154.311 475h64.3701l-47.3701 -263.86c-19.29 -107.29 16.8604 -163.94 105.73 -163.94c91.0303 0 144.71 58.3799 163.67 163.939l47.3701 263.86h64.9199l-48.46 -267.2
c-25.5498 -141.71 -85.9502 -220.26 -238.23 -220.26c-121.3 0 -185.52 81.0303 -160.46 220.261z" />
    <glyph glyph-name="v" unicode="v" horiz-adv-x="468" 
d="M193.17 0l-96.4014 474.999h69.3701l72.2002 -378.2c2.19043 -12.2998 2.51074 -21.6895 0.650391 -32.2891h9.09961c1.91992 10.5996 5.36035 19.5098 12.5605 32.8301l207.66 377.66h73.0098l-266.85 -475h-81.2998z" />
    <glyph glyph-name="w" unicode="w" horiz-adv-x="728" 
d="M178.81 0l-81.501 474.999h67.29l60.7998 -376.06c1.95996 -12.7598 2.34961 -20.8896 0.75 -29.6895h8.69043c1.66016 8.7998 4.29004 15.8896 10.6201 29.6895l173.85 376.06h53.6602l42.7695 -376.06c1.41992 -12.6602 1.74023 -20.8906 0.0800781 -29.6904h8.7002
c1.70996 8.7998 3.65039 15.79 10.7402 29.6904l193.88 376.06h73l-255.44 -475h-80.8096l-36.0596 316.65c-1.41992 12.6602 -1.76953 21.9805 -0.219727 30.7803h-8.7002c-1.5498 -8.7998 -5.04004 -17.9395 -10.96 -30.7793l-148.14 -316.65h-83z" />
    <glyph glyph-name="x" unicode="x" horiz-adv-x="444" 
d="M12.7998 0l209.73 255.8l-107.74 219.2h73.0098l81.5801 -168.51c2.30957 -5.16992 2.10938 -10.7998 1.10938 -16.5996h8.75c1 5.7998 3 11.3096 6.74023 16.0596l140.41 169.05h74.5801l-193 -232.26l123.58 -242.74h-72.79l-95.4404 189.25
c-2.25 4.63965 -2.30957 10.2598 -1.25977 16.0596h-8.7002c-1.0498 -5.7998 -2.92969 -11.3193 -7.09961 -16.5996l-157.2 -188.71h-76.2598z" />
    <glyph glyph-name="y" unicode="y" horiz-adv-x="473" 
d="M80.2598 -231l123.85 225.121l-106.41 480.88h70.8701l80.46 -370.32c2.17969 -10.6699 2.21973 -19.5098 0.469727 -29.5693h9.15039c1.7998 10.0596 5.45996 18.8994 11.5195 30.1191l207.23 369.77h71.3096l-399.729 -706h-68.7197z" />
    <glyph glyph-name="yacute" unicode="&#xfd;" horiz-adv-x="477" 
d="M248.43 542.97l-24.5 51.6299l218.54 119.93l28.8301 -61.6797zM80.2598 -231l123.85 225.121l-106.41 480.88h70.8701l80.46 -370.32c2.17969 -10.6699 2.21973 -19.5098 0.469727 -29.5693h9.15039c1.7998 10.0596 5.45996 18.8994 11.5195 30.1191l207.23 369.77
h71.3096l-399.729 -706h-68.7197z" />
    <glyph glyph-name="ydieresis" unicode="&#xff;" horiz-adv-x="477" 
d="M261.95 585.85c-27 0.209961 -38.4209 18.4102 -38.3105 36.9102c0.209961 26.0898 21.3701 49.3594 49.1396 49.3594c23.4805 0 38.3809 -16.6104 38.3213 -36.71c-0.209961 -25.8398 -19.9502 -49.7197 -49.1504 -49.5596zM429.979 585.85
c-27.0098 0.209961 -38.4707 18.4102 -38.3203 36.9102c0.209961 26.0898 21.3701 49.3594 49.1504 49.3594c23.4805 0 38.4707 -16.6104 38.3105 -36.71c-0.209961 -25.8398 -19.9502 -49.7695 -49.1406 -49.5596zM80.2588 -231l123.851 225.121l-106.41 480.88h70.8701
l80.46 -370.32c2.17969 -10.6699 2.21973 -19.5098 0.469727 -29.5693h9.15039c1.7998 10.0596 5.45996 18.8994 11.5195 30.1191l207.23 369.77h71.3096l-399.73 -706h-68.7197z" />
    <glyph glyph-name="z" unicode="z" horiz-adv-x="444" 
d="M38.2402 0l10.2598 56.5703l351.01 364.03l-5.53027 6.16992c-7.62988 -6.16992 -14.1797 -10.3398 -26.6494 -10.3398h-256.13l10.5596 58.5703h366.26l-10.3301 -57.4004l-349.98 -363.2l5.53027 -6.16992c7.69043 6.16992 14.0908 10.3398 26.5508 10.3398h260.15
l-10.46 -58.5703h-371.24z" />
    <glyph glyph-name="zcaron" unicode="&#x17e;" horiz-adv-x="452" 
d="M298.3 545.11l-114.511 141.121l42.3701 35.79l97.3604 -117.28l139.52 119.02l35.9502 -37.5303l-164.42 -141.12h-36.2695zM38.2393 0.00195312l10.2588 56.5703l351.01 364.03l-5.53027 6.16992c-7.62988 -6.16992 -14.1797 -10.3398 -26.6494 -10.3398h-256.13
l10.5596 58.5703h366.26l-10.3301 -57.4004l-349.979 -363.2l5.53027 -6.16992c7.69043 6.16992 14.0908 10.3398 26.5508 10.3398h260.15l-10.46 -58.5703h-371.24z" />
    <glyph glyph-name="b.ss01" horiz-adv-x="578" 
d="M307.4 -12.46c-148.76 0 -225.731 110.83 -199.611 256.1l83.5 464.36h65.1104l-52.1201 -288.16c-2 -11.25 -7.05957 -19.3604 -13.4395 -26.5303l6.55957 -5.25977c30.3701 38.6396 92.54 96.4893 187.73 96.4893c107.54 0 196.96 -89.3301 196.96 -214.51
c0 -160.68 -123.27 -282.489 -274.689 -282.489zM308.269 47.2002c120.47 0 207.851 102.971 207.851 220.451c0 88.5898 -57.2598 157.229 -149.21 157.229c-105.12 0 -202.98 -100.61 -202.98 -221.04c0 -88.7803 55.1602 -156.641 144.34 -156.641z" />
    <glyph glyph-name="d.ss01" horiz-adv-x="577" 
d="M287.99 -12.46c-119.05 0 -207.059 89.3311 -207.059 214.511c0 160.68 123.27 282.489 274.68 282.489c101.16 0 145.58 -58.54 163.91 -98.46l8.50977 5.25977c-4.2002 8.25977 -5.48047 16.2598 -3.65039 26.4297l52.1104 290.229h65.04l-84.9004 -472.18
c-23.4902 -130.6 -107.351 -248.279 -268.641 -248.279zM295.451 47.2012c111.04 0 203.64 102.07 203.64 221.04c0 86.8799 -54.0596 156.64 -146.35 156.64c-118.46 0 -205.84 -100.53 -205.84 -220.45c0 -88.5898 58.7197 -157.229 148.55 -157.229z" />
    <glyph glyph-name="f.ss01" horiz-adv-x="284" 
d="M75.1797 0.540039l91.6709 509.06c24.5195 142.05 89.7998 203.85 204.149 203.85c8.49023 0 25.2998 -0.450195 38.7695 -2.91016l-10.96 -60.8301h-2.51953c-4.00977 0 -15.7402 1.91992 -30.5205 1.91992c-72.9902 0 -118.11 -47.3496 -132.7 -134.689
l-4.58984 -27.9697c-1.41016 -6.71973 -3.37988 -9.25977 -7.72949 -12.9697l5.53027 -6.16992c4.41016 3.70996 8.27051 5.16992 12.8203 5.16992h119.05l-10.5596 -58.5703h-119.46c-4.59961 0 -7.92969 1.4502 -11.0098 5.16992l-7.69043 -6.16992
c3.01953 -3.71973 4.15918 -6.25977 3.06934 -12.9795l-72.5703 -401.91h-64.75z" />
    <glyph glyph-name="g.ss01" horiz-adv-x="579" 
d="M233.71 -241.55l9.99902 60.751c103.75 0 182.61 47.6104 207.38 187.561l7.83008 44.4502c2.33008 13.04 7.23047 20.3896 13.6104 27.5596l-6.55957 5.25977c-30.3701 -38.6396 -92.0898 -96.4893 -185.1 -96.4893c-110.88 0 -199.18 91.04 -199.18 214.22
c0 161.68 124.66 282.779 279.25 282.779c146.43 0 221.229 -110.86 194.489 -259.48l-37.3398 -207.63c-34.3701 -190.82 -147.55 -258.98 -284.38 -258.98zM299.039 47.2012c103 0 200.85 104.52 200.85 221.039c0 86.8799 -54.0596 156.64 -145.51 156.64
c-121.04 0 -206.95 -101.35 -206.95 -219.909c0 -88.0498 58.2803 -157.77 151.61 -157.77z" />
    <glyph glyph-name="l.ss01" horiz-adv-x="247" 
d="M236.21 -5.62988c-102.27 0 -160.881 38.2305 -135.73 177.91l96.2803 535.72h64.75l-96.9102 -538.32c-18.0801 -100.39 20.96 -118.279 81.9102 -118.279z" />
    <glyph glyph-name="lslash.ss01" horiz-adv-x="304" 
d="M232.49 358.38l-33.9805 -188.7c-18.0703 -100.39 20.9697 -118.279 81.9199 -118.279l-10.2998 -57.0303c-102.27 0 -160.89 38.2305 -135.739 177.91l24.9004 138.55l-85.6299 -55.6299l12.1699 67.6104l85.6104 55.5996l59.2402 329.59h64.75l-50.7803 -282.03
l88.2598 57.3203l-12.2305 -67.6104z" />
    <glyph glyph-name="p.ss01" horiz-adv-x="576" 
d="M21.3896 -231l83.3496 463.659c27.3301 152.05 119.73 251.88 274.53 251.88c112.04 0 201.46 -89.3301 201.46 -214.51c0 -160.68 -123.27 -282.489 -274.68 -282.489c-101.16 0 -145.58 58.54 -163.91 98.46l-8.50977 -5.25977
c4.2002 -8.25977 5.7002 -16.4697 3.91992 -26.3701l-51.1797 -285.37h-64.9805zM306.909 47.1992c120.47 0 207.85 102.971 207.85 220.451c0 88.5898 -57.25 157.229 -149.21 157.229c-106.02 0 -202.979 -100.14 -202.979 -222.46
c0 -87.3604 54.0596 -155.221 144.34 -155.221z" />
    <glyph glyph-name="q.ss01" horiz-adv-x="579" 
d="M408.09 -231l50.9424 283.352c2 11.2002 6.57031 19.25 12.96 26.4199l-6.57031 5.25977c-30.3701 -38.6396 -92.0801 -96.4893 -187.271 -96.4893c-107.54 0 -196.96 89.3301 -196.96 214.51c0 160.68 123.27 282.489 274.689 282.489
c151.35 0 224.84 -116.69 199.77 -255.851l-82.7002 -459.69h-64.8604zM297.782 47.2012c103.71 0 201.569 104.521 201.569 221.04c0 86.8799 -54.0596 156.64 -146.34 156.64c-118.47 0 -205.84 -100.53 -205.84 -220.45c0 -88.5898 58.71 -157.229 150.61 -157.229z" />
    <glyph glyph-name="t.ss01" horiz-adv-x="320" 
d="M298.42 -5.16992c-130.45 -2.29004 -181.899 39.3799 -157.189 177.45l41.2305 230.17c1.38965 6.71973 3.56934 9.25977 7.86914 12.9795l-5.53027 6.16992c-4.30957 -3.71973 -8.22949 -5.16992 -12.8193 -5.16992h-83.3604l10.5703 58.5703h83.3496
c4.59961 0 7.92969 -1.45996 11.0098 -5.16992l7.69043 6.16992c-3.03027 3.70996 -3.76074 6.25 -2.7207 12.9697l26.96 146.11h64.9102l-26.9102 -146.11c-1.08984 -6.71973 -3.5498 -9.25977 -7.83984 -12.9697l5.53027 -6.16992
c4.33984 3.70996 8.16992 5.16992 12.7695 5.16992h111.35l-10.5596 -58.5703h-111.35c-4.5498 0 -7.88965 1.4502 -10.9092 5.16992l-7.74023 -6.16992c3.01953 -3.71973 3.47949 -6.21973 2.14941 -12.9795l-41.96 -236.08
c-17.9902 -101.38 16.79 -117.939 103.85 -114.06z" />
    <glyph glyph-name="ordfeminine" unicode="&#xaa;" horiz-adv-x="457" 
d="M278.97 372.93c-76.9697 0 -140.477 60.6836 -140.477 148.004c0 110.89 86.1201 194.899 193.5 194.899c72.2002 0 105.42 -40.3604 118.1 -67.2607l6.79004 4.08984c-3.28027 6.76953 -4.14062 12.3193 -2.87109 19.3389l6.71973 37.25h53.8799l-58.8604 -327.7
h-54.0498l5.70996 31.9297c1.75977 9.41992 6.2793 16.8398 10.6689 21.8096l-5.33008 4.21973c-21.7002 -26.5898 -65.4199 -66.5801 -133.78 -66.5801zM294.683 421.613c69.4297 0 135.939 68.1992 135.939 143.64c0 56.2002 -36.7695 101.82 -100.779 101.82
c-80.1104 0 -138.11 -65.5 -138.11 -143.15c0 -55.7197 37.7998 -102.31 102.95 -102.31z" />
    <glyph glyph-name="ordmasculine" unicode="&#xba;" horiz-adv-x="426" 
d="M290.42 372.89c-100.13 0 -152.349 71.4199 -152.349 151.39c0 102.09 84.0098 191.55 193.34 191.51c96.4297 0.0400391 152.489 -68.2197 152.489 -151.67c0 -101.77 -82.2305 -191.229 -193.48 -191.229zM294.761 423.739c77.5498 0 134.509 65.0801 134.509 137.57
c0 59.6602 -39.0195 103.68 -102.789 103.68c-77.9199 0 -133.87 -67.46 -133.87 -138.49c0 -58.1602 37.7402 -102.76 102.15 -102.76z" />
    <glyph glyph-name="uni03BC" unicode="&#x3bc;" horiz-adv-x="543" 
d="M33.21 -231l126.998 705.998h65.0703l-47.7695 -264.15c-19.3799 -107.05 13.8604 -163.109 104.41 -163.109c90.3496 0 145.76 53.8604 165.51 163.11l47.7695 264.15h64.2998l-49.2695 -274.82c-27 -150.29 -110.91 -213.18 -235.84 -213.18
c-65.2598 0 -105.96 22.4502 -125.479 68.2803l-8.00977 -5.25c1.86035 -4.45996 5.29004 -11.9199 3.2002 -23.1797l-46.2695 -257.85h-64.6201z" />
    <glyph glyph-name="zero" unicode="0" horiz-adv-x="581" 
d="M291.44 -13c-139.34 0 -209.93 105.98 -183.79 251.051l43.4004 241.12c26.2598 145.19 120.74 242.37 269.141 242.37c132.67 0 206.58 -107.13 182.12 -242.37l-43.8604 -241.12c-28.25 -155.61 -98.7803 -251.051 -267.011 -251.051zM300.41 55.25
c111.57 0 168.399 75.041 188.419 186.601l41.2197 229.72c17.9297 100.34 -22.8799 181.17 -122.16 181.17c-101.4 0 -168.5 -77.8701 -187.21 -181.17l-41.7695 -229.72c-18.6396 -103.49 18.3906 -186.601 121.501 -186.601z" />
    <glyph glyph-name="one" unicode="1" horiz-adv-x="313" 
d="M152.71 0l112.96 628.57c1.2002 6.75977 3.4502 10.2598 8.85059 14.8799l-5.53027 6.17969c-4.7998 -4.17969 -9.87012 -6.62988 -14.9297 -6.62988h-127.95l11.6797 65h210.66l-127.3 -708h-68.4404z" />
    <glyph glyph-name="two" unicode="2" horiz-adv-x="524" 
d="M46.4697 0l10.8096 62.2803l277.92 244.4c112.48 99.6396 154.99 155.39 154.99 232.159c0 67.5898 -42.7305 114.439 -122.45 114.439c-64.0801 0 -124.33 -35.2197 -169.61 -118.55l-60.1396 24.7002c53.79 110.83 148.04 162.11 243.22 162.11
c108.72 0 181.77 -68.9502 181.77 -179.07c0 -100.19 -71.9805 -179.381 -167.9 -266.471l-208.8 -185.35c-14.9102 -13.8096 -21.0898 -16.8496 -29.3496 -16.8496l-1.5498 -8.7998h335.32l-11.6396 -65h-432.59z" />
    <glyph glyph-name="three" unicode="3" horiz-adv-x="531" 
d="M264.68 -13c-129.64 0 -193.37 80.2578 -196.09 181.338l70.0596 18.3096c1.12012 -77.6797 44.1797 -131.399 138.62 -131.399c100.76 0 171.939 68.9199 171.939 162.97c0 83.7402 -56.7695 133.36 -151.02 135.23l10.6904 59.2002
c102.58 0 172.771 52.0195 172.771 138.89c0 63.4004 -36.5801 102.83 -104.39 102.83c-74.8701 0 -133.851 -48.0596 -160.541 -118.229l-62.5898 14.8604c36.1904 103.13 126.921 170.54 234.751 170.54c104.27 0 164.67 -70.4004 164.67 -160.66
c0 -79.6396 -54.9902 -157.34 -134.4 -178.149l-1.61035 -8.7998c55.2998 -18.0098 102.229 -67.9297 102.229 -151.12c0 -139.64 -101.47 -235.81 -255.09 -235.81z" />
    <glyph glyph-name="four" unicode="4" horiz-adv-x="551" 
d="M363.13 0l29.3896 163.74c1.23047 6.70996 3.21094 9.25977 7.50098 12.9697l-5.48047 6.16992c-4.38965 -3.70996 -8.26953 -5.16992 -12.8193 -5.16992h-331.58l10.7695 60.1201l433 471.08h64.8799l-81.8896 -455.48
c-1.19043 -6.71973 -3.11035 -9.25977 -7.51074 -12.9795l5.53027 -6.16992c4.40039 3.71973 8.27051 5.16992 12.7705 5.16992h69.6797l-11.0898 -61.7402h-69.6904c-4.5498 0 -7.87988 1.45996 -10.8496 5.16992l-7.79004 -6.16992
c3.01953 -3.70996 4.12988 -6.25977 2.83984 -12.9697l-29.4404 -163.74h-68.2197zM403.72 234.28l7.73926 6.1709c-2.91016 3.71973 -4.07031 6.25977 -2.83984 12.9795l55.5703 309.35c2.13965 12.1699 6.75977 18.1699 12.7402 25.9697l-7.42969 5.08984l-307.8 -335.7
c-6.80957 -7.25977 -9.96973 -9.88965 -17.71 -9.88965l-1.61035 -8.7998h250.49c4.5 0 7.87988 -1.4502 10.8496 -5.16992z" />
    <glyph glyph-name="five" unicode="5" horiz-adv-x="537" 
d="M272.08 -13c-126.02 0 -193.842 75.002 -206.302 177.932l67.6104 19.0703c9.74023 -74.2695 50.7998 -128.76 150.97 -128.76c110.1 0 188.899 80.8496 188.899 202.77c0 82.7305 -46.8398 140.03 -134.02 140.03c-53.8896 0 -114.76 -26.5303 -160.569 -74.5303
l-59.6602 11.2598l126.62 373.23h326.37l-15.8604 -65h-261.71l-76.4102 -222.4l7.99023 -1.54004c41.7998 32.0195 90.0596 43.9893 140.63 43.9893c105.11 0 177.811 -82.0801 177.811 -194c0 -164.61 -109.27 -282.051 -272.369 -282.051z" />
    <glyph glyph-name="six" unicode="6" horiz-adv-x="547" 
d="M279.65 -13c-120.19 0 -199.35 92.5107 -199.35 197.271c0 69.3496 23.9697 127.479 75.3301 202.159l220.54 321.57h81.2197l-184.03 -266.17l6.88965 -4.08984c17.3799 17.0596 63.7002 31.9092 99.96 31.9092c108.78 0 184.12 -81.2197 184.12 -200.569
c0 -161.05 -111.52 -282.08 -284.68 -282.08zM296.251 55.1514c115.32 0 197.22 96.9805 197.22 203.2c0 94.5801 -57.6797 147.5 -144.479 147.5c-110.42 0 -198.729 -105.16 -198.729 -205.8c0 -86.4805 58.9297 -144.9 145.989 -144.9z" />
    <glyph glyph-name="seven" unicode="7" horiz-adv-x="480" 
d="M129.89 643l11.6406 64.999l452.37 -0.549805l-11.6904 -65l-404.09 -643h-78.5098l392.6 622.69c5.63965 8.98047 12.0898 11.5107 15.7197 11.5107l1.5498 8.7998z" />
    <glyph glyph-name="eight" unicode="8" horiz-adv-x="552" 
d="M276.87 -13.5498c-110.03 0 -193.601 74.6602 -193.601 186.67c0 98.2998 66.9902 182.24 155.98 210.17l1.05957 5.78027c-43.2803 23.6396 -69.1602 71.1396 -69.1602 124.39c0 116.63 104.96 207.54 234.64 207.54c101.21 0 169.9 -70 169.9 -158.99
c0 -73.8496 -45.6904 -150.189 -124.98 -177.34l-1.0498 -5.76953c57.5 -27.3398 91.5703 -79.6602 91.5703 -153.061c0 -138.93 -103.14 -239.39 -264.359 -239.39zM353.44 412.75c84.9902 0 150.73 64.54 150.73 138.82c0 62.3896 -43.4805 105.569 -113.33 105.569
c-87.1299 0 -150.86 -66.8799 -150.86 -139.51c0 -61.46 45.4902 -104.88 113.46 -104.88zM290.44 53.4902c106.76 0 180.899 77.0186 180.899 169.249c0 74.1201 -53.6699 127.33 -136.52 127.33c-104.75 0 -182.14 -80.7598 -182.14 -166.279
c0 -78.0498 54.2695 -130.3 137.76 -130.3z" />
    <glyph glyph-name="nine" unicode="9" horiz-adv-x="547" 
d="M217.24 0l182.599 263.24l-6.88965 4.08984c-19.4697 -17.0596 -59.7998 -28.4492 -97.9902 -28.4492c-108.56 0 -184.069 88.3701 -184.069 200.04c0 170.26 138.37 282.62 284.62 282.62c115.11 0 199.41 -88.96 199.41 -198.4
c0 -68.5703 -28.1299 -129.17 -77.9795 -201.57l-220.54 -321.57h-79.1602zM326.438 302.63c111.1 0 197.01 106.09 197.01 209.97c0 80.2305 -55.46 141.391 -144.59 141.391c-107.71 0 -195.54 -96.8496 -195.54 -201.189c0 -90.1904 56.7305 -150.171 143.12 -150.171z
" />
    <glyph glyph-name="zero.osf" horiz-adv-x="585" 
d="M310.71 -12.46c-144.46 0 -228.14 100.63 -228.14 233.43c0 163.46 126.34 278.74 279.26 278.74c140.34 0 229.05 -97.4297 229.05 -233.43c0 -160.71 -123.6 -278.74 -280.17 -278.74zM316.68 54.1699c114.66 0 204.03 90.4297 204.03 209.479
c0 104.46 -69.0303 169.43 -165.311 169.43c-114.2 0 -202.66 -90.8799 -202.66 -210.399c0 -103.54 66.7402 -168.51 163.94 -168.51z" />
    <glyph glyph-name="one.osf" horiz-adv-x="313" 
d="M152.71 0l72.6797 404.2c1.17969 6.75977 3.44922 10.25 8.84961 14.8799l-5.54004 6.16992c-4.79004 -4.16992 -9.86035 -6.62012 -14.9199 -6.62012h-127.96l11.6904 65h210.66l-87.0195 -483.63h-68.4404z" />
    <glyph glyph-name="two.osf" horiz-adv-x="520" 
d="M49.3398 0l10.0195 55.2197l223.48 145.14c100.5 65.2402 138.12 98.3799 137.9 154.26c0.219727 48.46 -34.54 78.4502 -92.7402 78.4502c-63.4004 0 -109.271 -29.8604 -147.931 -96.0605l-63.4404 20.0898c46.3604 94.1201 124.73 142.601 219.49 142.601
c92.3701 0 157.72 -57.0498 157.67 -139.6c0.0498047 -78.0195 -48.2803 -131.039 -154.45 -198.27l-130.64 -82.4502c-5.83984 -3.58008 -13.9795 -5.58008 -21.7891 -5.58008l-1.59961 -8.7998h306.47l-11.4805 -65h-430.96z" />
    <glyph glyph-name="three.osf" horiz-adv-x="531" 
d="M225.89 -234.86c-129.64 0 -193.383 80.2705 -196.093 181.351l70.0498 18.3096c1.12988 -77.6904 44.1895 -131.4 138.619 -131.4c100.76 0 171.95 68.9199 171.95 162.96c0 83.7402 -56.7695 133.37 -151.02 135.24l10.6904 59.2002
c102.58 0 172.771 52 172.771 138.88c0 63.3896 -36.5898 102.819 -114.399 102.8c-69.4199 0.0195312 -123.85 -33.4805 -150.529 -118.2l-62.5996 14.8496c36.1904 117.69 122.37 170.54 224.75 170.54c114.28 0.0195312 174.681 -70.3906 174.681 -160.65
c0 -79.6299 -55 -157.33 -134.41 -178.14l-1.59961 -8.7998c55.29 -18.0195 102.23 -67.9395 102.23 -151.119c0 -139.65 -101.48 -235.82 -255.091 -235.82z" />
    <glyph glyph-name="four.osf" horiz-adv-x="566" 
d="M345.4 -185.32l32.8604 180.539c1.23047 6.71973 3.21094 9.25977 7.50098 12.9697l-5.48047 6.17969c-4.38965 -3.71973 -8.26953 -5.17969 -12.8193 -5.17969h-343.86l11.2305 61.0303l434.81 416h64.25l-71.25 -401.31
c-1.19043 -6.71973 -3.11035 -9.25977 -7.51074 -12.9697l5.53027 -6.16992c4.40039 3.70996 8.27051 5.16992 12.7705 5.16992h69.6797l-11.0898 -61.75h-69.6904c-4.5498 0 -7.87988 1.45996 -10.8496 5.17969l-7.79004 -6.17969
c3.01953 -3.70996 4.12988 -6.25 2.83984 -12.9697l-32.9004 -180.54h-68.2305zM389.461 65.7686l7.74121 6.16992c-2.91016 3.70996 -4.07031 6.25 -2.83984 12.9697l47.6504 267.12c2.12988 12.1201 6.75 18.1797 12.7305 25.9795l-7.42969 5.08008l-306.44 -293.47
c-7.28027 -6.83984 -9.9707 -9.87988 -17.7109 -9.87988l-1.61035 -8.7998h257.06c4.5 0 7.87988 -1.45996 10.8496 -5.16992z" />
    <glyph glyph-name="five.osf" horiz-adv-x="538" 
d="M233.31 -234.84c-126.02 0 -193.841 75.002 -206.301 177.932l67.6104 19.0703c9.74023 -74.2695 50.7998 -128.76 150.97 -128.76c110.1 0 188.899 80.8496 188.899 202.77c0 82.7305 -46.8398 140.03 -134.02 140.03c-53.8896 0 -114.76 -26.5303 -160.58 -74.5303
l-59.6504 11.2598l126.62 373.23h326.37l-15.8604 -65h-261.71l-76.4102 -222.4l7.99023 -1.54004c41.7998 32.0195 90.0498 43.9893 140.63 43.9893c105.11 0 177.811 -82.0801 177.811 -194c0 -164.61 -109.27 -282.051 -272.369 -282.051z" />
    <glyph glyph-name="six.osf" horiz-adv-x="564" 
d="M291.74 -13c-136.91 0 -211.171 90.4502 -211.44 204.05c0.269531 62.4297 23.7793 120.09 75.7295 195.38l220.54 321.57h80.8203l-184.95 -266.17l6.90039 -4.08984c22.8301 17.0596 58.2002 30.8291 97.6299 30.8291c111.28 0 191.86 -87.0898 192.021 -210.3
c-0.160156 -148.47 -118.08 -271.27 -277.25 -271.27zM299.009 55.5996c115.19 0.110352 199.1 91.8311 199.26 198.641c-0.160156 93.1904 -63.8701 151.5 -148.45 151.61c-112.85 -0.110352 -199.619 -104.341 -199.789 -206.501
c0.169922 -79.21 51.9395 -143.64 148.979 -143.75z" />
    <glyph glyph-name="seven.osf" horiz-adv-x="479" 
d="M90.46 421.17l11.6406 65h452.37l-11.6904 -65l-404.08 -643h-78.9697l392.6 622.68c5.63965 8.98047 12.0898 11.5205 15.7197 11.5205l1.5498 8.7998h-379.14z" />
    <glyph glyph-name="eight.osf" horiz-adv-x="552" 
d="M276.87 -13.5498c-110.03 0 -193.601 74.6602 -193.601 186.67c0 98.2998 66.9902 182.24 155.98 210.17l1.05957 5.78027c-43.2803 23.6396 -69.1602 71.1396 -69.1602 124.39c0 116.63 104.96 207.54 234.64 207.54c101.21 0 169.9 -70 169.9 -158.99
c0 -73.8496 -45.6904 -150.189 -124.98 -177.34l-1.0498 -5.76953c57.5 -27.3398 91.5703 -79.6602 91.5703 -153.061c0 -138.93 -103.14 -239.39 -264.359 -239.39zM353.44 412.75c84.9902 0 150.73 64.54 150.73 138.82c0 62.3896 -43.4805 105.569 -113.33 105.569
c-87.1299 0 -150.86 -66.8799 -150.86 -139.51c0 -61.46 45.4902 -104.88 113.46 -104.88zM290.44 53.4902c106.76 0 180.899 77.0186 180.899 169.249c0 74.1201 -53.6699 127.33 -136.52 127.33c-104.75 0 -182.14 -80.7598 -182.14 -166.279
c0 -78.0498 54.2695 -130.3 137.76 -130.3z" />
    <glyph glyph-name="nine.osf" horiz-adv-x="563" 
d="M191.07 -221.83l185.48 266.17l-6.90039 4.08984c-22.6602 -17.0596 -61.0703 -31.3799 -101.91 -31.3799c-108.52 0 -187.729 88.5596 -187.729 204.39c0 166.87 129.36 278.271 282.841 278.271c126.81 0 205.899 -91.3799 205.899 -202.7
c0 -65.96 -26.54 -124 -76.9805 -197.27l-220.54 -321.57h-80.1602zM299.171 80.8096c111.88 0 198.38 104.391 198.38 206.44c0 81.5996 -55.4102 144.449 -149.57 144.449c-114.16 0 -195.63 -92.6904 -195.63 -198.58c0 -94.2197 64.0898 -152.31 146.82 -152.31z" />
    <glyph glyph-name="uni00B9" unicode="&#xb9;" horiz-adv-x="239" 
d="M159.76 267.37l68.1084 380.029c1.32031 7.48047 2.9707 9.57031 6.82031 13.3301l-3.96973 4.08984c-5.5 -5.16992 -8.33008 -5.93945 -13.0098 -5.93945h-76.1299l9.03027 50.2002h143.67l-79.4297 -441.71h-55.0898z" />
    <glyph glyph-name="uni00B2" unicode="&#xb2;" horiz-adv-x="400" 
d="M164.35 604.18c30.8496 75.3496 91.4707 112.45 161.341 112.45c70.0596 0 115.01 -46.9697 115.01 -108.34c0 -67.3203 -49.8896 -123.23 -98.5 -166.181l-124.45 -109.51c-8.07031 -7.16992 -11.6201 -8.80957 -16.5498 -8.80957l-1.17969 -6.21973h196.44
l-8.98047 -50.2002h-279.2l8.07031 46.6299l179.34 156.6c48.79 42.5498 86.9004 84.1094 86.9004 131.55c0 36.1904 -22.8301 63.8604 -67.0605 63.8604c-40.4004 0 -74.7607 -27.6699 -99.6611 -75.0898z" />
    <glyph glyph-name="uni00B3" unicode="&#xb3;" horiz-adv-x="386" 
d="M410.11 408.71c0 -86.25 -65.1709 -148.307 -168.211 -148.307c-78.3096 0 -125.829 44.3301 -133.099 108.24l54.5498 14.0996c3.91016 -42.9404 35.4502 -72.2705 87.7002 -72.2705c58.8398 0 101.46 40.2305 101.46 93.2002
c0 50.6299 -34.6602 78.4697 -93.1201 78.4697l8.21973 45.7197c60.7803 0 103.2 30.2598 103.2 85.5098c0 34.0996 -23.6396 55.4893 -61.2197 55.4893c-42.9404 0 -69.8604 -23.54 -90.3105 -65.7305l-50.6396 12.5596c24.7197 65.5 80.7998 100.93 151.1 100.93
c64.4697 0 109.069 -39 109.069 -100.15c0 -43.4805 -29.0996 -90.5 -82.4092 -108.15l-1.03027 -5.67969c40.5703 -13.5098 64.7402 -47.4102 64.7402 -93.9297z" />
    <glyph glyph-name="fraction" unicode="&#x2044;" horiz-adv-x="436" 
d="M54.1104 0h-61.9805l522.82 733.48h61.8701z" />
    <glyph glyph-name="onehalf" unicode="&#xbd;" horiz-adv-x="761" 
d="M182.77 0h-61.9795l522.81 733.48h61.8799zM167.5 267.37l68.1104 380.029c1.33008 7.48047 2.96973 9.57031 6.81934 13.3301l-3.95996 4.08984c-5.50977 -5.16992 -8.33984 -5.93945 -13.0195 -5.93945h-76.1299l9.04004 50.2002h143.67l-79.4404 -441.71h-55.0898z
M534.721 338.18c30.8496 75.3496 91.4707 112.45 161.341 112.45c70.0596 0 115.01 -46.9697 115.01 -108.34c0 -67.3203 -49.8896 -123.23 -98.5 -166.181l-124.45 -109.51c-8.07031 -7.16992 -11.6201 -8.80957 -16.5498 -8.80957l-1.17969 -6.21973h196.44
l-8.98047 -50.2002h-279.2l8.07031 46.6299l179.34 156.6c48.79 42.5498 86.9102 84.1094 86.9102 131.55c0 36.1904 -22.8398 63.8604 -67.0703 63.8604c-40.4004 0 -74.7607 -27.6699 -99.6611 -75.0898z" />
    <glyph glyph-name="onequarter" unicode="&#xbc;" horiz-adv-x="730" 
d="M182.22 0h-61.9697l522.81 733.48h61.8701zM167.12 267.37l68.1191 380.029c1.32031 7.48047 2.9707 9.57031 6.81055 13.3301l-3.95996 4.08984c-5.5 -5.16992 -8.33984 -5.93945 -13.0098 -5.93945h-76.1299l9.03027 50.2002h143.67l-79.4404 -441.71h-55.0898z
M576.869 -0.000976562l14.7393 83.6006c0.769531 4.61035 3.89941 7.43066 6.53906 9.54102l-3.94043 5c-3.2998 -2.80957 -6.70996 -5.58984 -11.2998 -5.58984h-222.11l9.23047 52.0498l281.15 294.97h60.1699l-50.0996 -283.84
c-0.769531 -4.62012 -3.89941 -7.42969 -6.53906 -9.54004l3.9502 -4.9502c3.33984 2.70996 6.70996 5.5498 11.2998 5.5498h47.3096l-9.59961 -54.2402h-47.3096c-4.58984 0 -6.95996 2.78027 -9.30957 5.58984l-5.7002 -5
c1.91992 -2.11035 4.00977 -4.93066 3.24023 -9.54102l-14.7803 -83.5996h-56.9404zM601.818 141.239l5.69043 4.94922c-1.91992 2.11035 -4.00977 4.91992 -3.24023 9.54004l31.6904 179.55c1.84961 10.5498 6.17969 15.4902 10.3701 19.4404l-5.42969 4.13965
l-190.72 -201.1c-3.74023 -3.67969 -7.02051 -4.5293 -10.3203 -4.5293l-1.12988 -6.44043h153.77c4.58984 0 7.00977 -2.83984 9.31934 -5.5498z" />
    <glyph glyph-name="threequarters" unicode="&#xbe;" horiz-adv-x="838" 
d="M293.11 0h-61.9805l522.82 733.48h61.8701zM404.28 408.71c0 -86.25 -65.1699 -148.307 -168.21 -148.307c-78.3096 0 -125.829 44.3301 -133.099 108.24l54.5498 14.0996c3.91016 -42.9404 35.4502 -72.2705 87.7002 -72.2705c58.8398 0 101.46 40.2305 101.46 93.2002
c0 50.6299 -34.6504 78.4697 -93.1104 78.4697l8.21973 45.7197c60.7803 0 103.2 30.2598 103.2 85.5098c0 34.0996 -23.6504 55.4893 -61.2207 55.4893c-42.9502 0 -69.8701 -23.54 -90.3203 -65.7305l-50.6396 12.5596c24.7197 65.5 80.7998 100.93 151.1 100.93
c64.4697 0 109.069 -39 109.069 -100.15c0 -43.4805 -29.0996 -90.5 -82.4092 -108.15l-1.03027 -5.67969c40.5703 -13.5098 64.7402 -47.4102 64.7402 -93.9297zM684.931 -0.00683594l14.7383 83.6006c0.769531 4.61035 3.89941 7.43066 6.53906 9.54102l-3.94043 5
c-3.2998 -2.80957 -6.71973 -5.58984 -11.3096 -5.58984h-222.1l9.21973 52.0498l281.16 294.97h60.1699l-50.0996 -283.84c-0.769531 -4.62012 -3.89941 -7.42969 -6.53906 -9.54004l3.9502 -4.9502c3.33984 2.70996 6.7002 5.5498 11.29 5.5498h47.3096l-9.58984 -54.2402
h-47.3096c-4.58984 0 -6.95996 2.78027 -9.30957 5.58984l-5.7002 -5c1.91992 -2.11035 4.00977 -4.93066 3.24023 -9.54102l-14.79 -83.5996h-56.9297zM709.869 141.233l5.7002 4.94922c-1.91992 2.11035 -4.00977 4.91992 -3.24023 9.54004l31.6797 179.55
c1.86035 10.5498 6.19043 15.4902 10.3809 19.4404l-5.44043 4.13965l-190.71 -201.1c-3.75 -3.67969 -7.01953 -4.5293 -10.3193 -4.5293l-1.12988 -6.44043h153.77c4.58984 0 7 -2.83984 9.30957 -5.5498z" />
    <glyph glyph-name="asterisk" unicode="*" horiz-adv-x="402" 
d="M310.54 751.83l48.2598 0.0195312l-16.46 -94.29c-2.58008 -14.3096 -9.62988 -22.8896 -13.4395 -26.0693l7.12988 -4.9502c2.36035 4.71973 8.19043 13.8301 21.8408 21.1201l89.2002 47.3701l17.1797 -44.3096l-89.96 -47.4297
c-13.0703 -6.86035 -23.2803 -6.7207 -27.54 -5.14062l-1.79004 -9.33984c4.80957 1.58008 14.5693 1.58008 25.1494 -5.29004l72.0898 -46.9404l-29.5498 -39.0996l-72.7402 47.3701c-11.0703 7.23047 -14.1201 16.5303 -14.2998 21.25l-8.91016 -5.32031
c2.62988 -3.16992 7.20996 -11.4395 4.58008 -25.7393l-16.4502 -94.75h-48.7197l16.46 94.75c2.62012 14.2998 9.61035 22.5693 13.3604 25.7393l-6.79004 4.67969c-1.92969 -4.71973 -8.62988 -14.0098 -22.29 -21.25l-88.7402 -47.3701l-17.9199 43.8496l90.4199 47.7998
c13.0195 6.86035 23.7197 6.86035 27.9795 5.27051l2.08984 8.75977c-5.37012 -1.58984 -16.1006 -1.93945 -26.5605 5.13086l-70.6602 47.3799l29.3496 39.3398l72.8301 -47.3701c11.1201 -7.26953 13.4404 -16.3896 13.7305 -20.5693l8.82031 5.04004
c-2.62988 3.17969 -6.68945 11.7598 -4.10938 26.0693z" />
    <glyph glyph-name="backslash" unicode="\" horiz-adv-x="513" 
d="M488.24 0h-65.2598l-265.29 740h65.2598z" />
    <glyph glyph-name="periodcentered" unicode="&#xb7;" horiz-adv-x="212" 
d="M146.24 211.34c-27.0098 0.209961 -38.4697 18.4092 -38.3193 36.9092c0.209961 26.0801 21.3799 49.3496 49.1494 49.3496c23.4805 0 38.4707 -16.5996 38.3203 -36.6992c-0.209961 -25.8496 -19.96 -49.7695 -49.1504 -49.5596z" />
    <glyph glyph-name="bullet" unicode="&#x2022;" horiz-adv-x="410" 
d="M250.64 239.37c-75.3398 0 -113.229 52.0078 -113.229 114.618c0 83.7305 66.8799 160.091 156.39 160.091c73.4697 0 113.689 -51.5098 113.689 -118.14c0 -85.9297 -68.71 -156.569 -156.85 -156.569z" />
    <glyph glyph-name="colon" unicode=":" horiz-adv-x="218" 
d="M183.18 388.62c-27.0098 0.209961 -38.4697 18.4102 -38.3193 36.9102c0.209961 26.0898 21.3799 49.3594 49.1494 49.3594c23.4805 0 38.4707 -16.6104 38.3203 -36.7002c-0.209961 -25.8496 -19.9502 -49.7793 -49.1504 -49.5693zM111.87 -5.49023
c-27.0098 0.209961 -38.4697 18.4092 -38.3193 36.9092c0.209961 26.0801 21.3799 49.3496 49.1494 49.3496c23.4805 0 38.4707 -16.5996 38.3105 -36.6992c-0.200195 -25.8496 -19.9502 -49.7695 -49.1406 -49.5596z" />
    <glyph glyph-name="comma" unicode="," horiz-adv-x="200" 
d="M46.3701 -98.3203l5.92969 34.2314c20.3398 6.0498 39.3496 21.1797 48.6699 45.8096c2.62988 6.12988 6.37012 8.51953 10.9199 9.23926l0.929688 5.49023c-4.33008 -1.48047 -10.46 -1.94043 -13.2402 -1.94043c-27.0098 0.209961 -38.4697 18.4102 -38.3096 36.9102
c0.200195 26.0801 21.3701 49.3496 49.1396 49.3496c25.54 0 40.9805 -16.2695 40.9805 -44.5498c0 -57.0801 -40.5596 -125.43 -105.02 -134.54z" />
    <glyph glyph-name="ellipsis" unicode="&#x2026;" horiz-adv-x="761" 
d="M98.5 -5.49023c-27.0098 0.209961 -38.4707 18.4092 -38.3203 36.9092c0.209961 26.0801 21.3701 49.3496 49.1504 49.3496c23.4805 0 38.4707 -16.5996 38.3105 -36.6992c-0.209961 -25.8496 -19.9502 -49.7695 -49.1406 -49.5596zM381.469 -5.49121
c-27.0098 0.209961 -38.4697 18.4092 -38.3193 36.9092c0.209961 26.0801 21.3799 49.3496 49.1494 49.3496c23.4805 0 38.4707 -16.5996 38.3105 -36.6992c-0.200195 -25.8496 -19.9502 -49.7695 -49.1406 -49.5596zM664.438 -5.49219
c-27.0098 0.209961 -38.4697 18.4092 -38.3193 36.9092c0.209961 26.0801 21.3799 49.3496 49.1494 49.3496c23.4805 0 38.4707 -16.5996 38.3203 -36.6992c-0.209961 -25.8496 -19.96 -49.7695 -49.1504 -49.5596z" />
    <glyph glyph-name="exclam" unicode="!" horiz-adv-x="232" 
d="M165.6 172.83h-36.1094l33.2197 274.17l48.3398 268.54h67.7803l-48.29 -268.54zM115.87 -5.49023c-27.0098 0.209961 -38.4697 18.4092 -38.3193 36.9092c0.209961 26.0801 21.3799 49.3496 49.1494 49.3496c23.4805 0 38.4707 -16.5996 38.3105 -36.6992
c-0.200195 -25.8496 -19.9502 -49.7695 -49.1406 -49.5596z" />
    <glyph glyph-name="exclamdown" unicode="&#xa1;" horiz-adv-x="217" 
d="M187.44 431.74c-27.0098 0.209961 -38.4697 18.4092 -38.3193 36.9092c0.209961 26.0801 21.3799 49.3496 49.1494 49.3496c23.4805 0 38.4707 -16.5996 38.3203 -36.6992c-0.209961 -25.8496 -19.96 -49.7695 -49.1504 -49.5596zM188.08 339.649l-33.6699 -274.17
l-48.3398 -268.55h-67.79l48.3496 268.55l65.3398 274.17h36.1104z" />
    <glyph glyph-name="numbersign" unicode="#" horiz-adv-x="623" 
d="M655.56 433.43l-114.683 -0.00390625l-46.2305 -145.43c-2.2998 -7.04004 -4.38965 -10.0801 -9.68945 -14.4404l5.2998 -6.16992c5.4502 4.49023 9.87012 6.18066 15.6904 6.18066h107.79l-9.83984 -54.4004h-131.37l-61.5996 -193.17h-55.1904l56.4004 178.74
c2.2002 6.99023 4.33008 10.0801 9.63965 14.4297l-5.2998 6.17969c-5.5 -4.5 -9.87012 -6.17969 -15.6797 -6.17969h-146.74l-61.71 -193.17h-55.3301l56.9502 178.74c2.25977 6.99023 4.58008 10.0801 9.82031 14.4297l-5.34961 6.17969
c-5.4502 -4.5 -9.82031 -6.17969 -15.6299 -6.17969h-98.0303l9.83984 54.4004h121.2l46.1504 144.88c2.05957 7.08008 4.42969 10.0801 9.67969 14.4404l-5.36035 6.16992c-5.5 -4.49023 -9.82031 -6.18066 -15.7305 -6.18066h-114.76l9.83984 54.9502h138.38
l60.2305 189.17h54.6299l-54.8604 -174.75c-2.26953 -7.01953 -4.0293 -10.0791 -9.37891 -14.4287l5.34961 -6.16992c5.40039 4.49023 9.77051 6.18066 15.6309 6.18066h146.97l60.2402 189.17h54.7598l-54.8496 -174.75
c-2.26953 -7.01953 -4.26953 -10.0791 -9.51953 -14.4287l5.2998 -6.16992c5.4502 4.49023 9.82031 6.18066 15.6299 6.18066h91.2002zM321.617 433.426l-45.1387 -145.43c-2.24023 -7.04004 -4.31055 -10.0801 -9.56055 -14.4404l5.2998 -6.16992
c5.5 4.49023 9.87012 6.18066 15.6797 6.18066h146.09l46.6904 145.43c2.05957 7.08008 4.30957 10.0801 9.5498 14.4297l-5.34961 6.16992c-5.40039 -4.49023 -9.77051 -6.16992 -15.6807 -6.16992h-147.58z" />
    <glyph glyph-name="period" unicode="." horiz-adv-x="194" 
d="M98.5 -5.49023c-27.0098 0.209961 -38.4707 18.4092 -38.3203 36.9092c0.209961 26.0801 21.3701 49.3496 49.1504 49.3496c23.4805 0 38.4707 -16.5996 38.3105 -36.6992c-0.209961 -25.8496 -19.9502 -49.7695 -49.1406 -49.5596z" />
    <glyph glyph-name="question" unicode="?" horiz-adv-x="474" 
d="M130.57 557.26c44.8496 106.22 125.329 165.281 237.06 165.281c97.1299 0 165.11 -68.8496 165.11 -160.869c0 -108.4 -57.2695 -165.771 -136.25 -216.421c-59.6299 -38.7402 -93.8496 -74.1299 -103.149 -126.85l-8.74023 -49.3701h-66.46l10.9199 62.0195
c14.5498 82.6699 68.4697 124.93 132.88 166.149c61.2598 39.2002 101.689 76.8301 101.689 155.54c0 65.0098 -41.8096 105.89 -107.96 105.89c-76.54 0 -130.6 -46.1504 -163.619 -115.65zM222.01 -5.48828c-27.0098 0.209961 -38.4697 18.4092 -38.3193 36.9092
c0.209961 26.0801 21.3799 49.3496 49.1494 49.3496c23.4805 0 38.4707 -16.5996 38.3203 -36.6992c-0.209961 -25.8496 -19.9502 -49.7695 -49.1504 -49.5596z" />
    <glyph glyph-name="questiondown" unicode="&#xbf;" horiz-adv-x="465" 
d="M327.67 431.74c-27.0098 0.209961 -38.4697 18.4092 -38.3193 36.9092c0.209961 26.0801 21.3799 49.3496 49.1494 49.3496c23.4805 0 38.4707 -16.5996 38.3105 -36.6992c-0.200195 -25.8496 -19.9502 -49.7695 -49.1406 -49.5596zM430.16 -44.6904
c-37.9102 -101.86 -113.55 -165.279 -232.55 -165.279c-100.54 0 -169.62 66.1904 -169.62 164.79c0 105.45 57.8896 158.681 136.75 209.78c59 38.7402 93.3604 76.8506 102.601 129.57l8.75 49.3701h65.9102l-10.9102 -62.0303
c-14.5098 -82.6602 -68.1396 -126.37 -137.75 -170.86c-56.8496 -37.1104 -96.1895 -74.3906 -96.1895 -150.181c0 -62.8096 45.0996 -106.529 106.489 -106.529c78.8799 0 135.52 44.0898 165.039 115.649z" />
    <glyph glyph-name="quotedbl" unicode="&#x22;" horiz-adv-x="340" 
d="M208.22 484h-50.1201l33.4297 256h76.3604zM355.31 484h-50.1211l33.4404 256h76.3604z" />
    <glyph glyph-name="quotesingle" unicode="'" horiz-adv-x="192" 
d="M208.21 484h-50.1201l33.4297 256h76.3701z" />
    <glyph glyph-name="semicolon" unicode=";" horiz-adv-x="227" 
d="M182.61 388.09c-27.0098 0.209961 -38.4697 18.4102 -38.3193 36.9199c0.209961 26.0801 21.3799 49.3496 49.1494 49.3496c23.4805 0 38.4707 -16.6104 38.3203 -36.7002c-0.209961 -25.8496 -19.9502 -49.7695 -49.1504 -49.5693zM58.3701 -98.3203l5.92969 34.2314
c20.3398 6.0498 39.3496 21.1797 48.6699 45.8096c2.62988 6.12988 6.37012 8.51953 10.9199 9.23926l0.929688 5.49023c-4.33008 -1.48047 -10.46 -1.94043 -13.2402 -1.94043c-27.0098 0.209961 -38.4697 18.4102 -38.3096 36.9102
c0.200195 26.0801 21.3701 49.3496 49.1396 49.3496c25.54 0 40.9805 -16.2695 40.9805 -44.5498c0 -57.0801 -40.5596 -125.43 -105.02 -134.54z" />
    <glyph glyph-name="slash" unicode="/" horiz-adv-x="519" 
d="M96.5996 0h-71.5195l530.96 740h71.5195z" />
    <glyph glyph-name="underscore" unicode="_" horiz-adv-x="621" 
d="M556.51 -57.2305h-512.5l10.2998 57.2305h512.5z" />
    <glyph glyph-name="braceleft" unicode="{" horiz-adv-x="316" 
d="M185.3 -199.52c-63.0195 0 -86.293 52.0801 -75.9229 109.6l36.9404 204.72c11.1201 61.6797 -4.64941 117.729 -89.5098 119.359l12.0195 66.9502c84.5303 1.62988 121.73 58.8096 132.921 120l37.0801 204.72c11.7402 64.9697 47.2598 109.51 109.51 109.51h76.5596
l-9.96973 -55.3096h-40.5898c-40.0801 0 -61.8301 -25.4297 -68.9297 -65.0996l-37.7803 -211.48c-11.5498 -64.0596 -46.5498 -121.029 -123.27 -131.829l-1.55957 -8.70996c71.21 -14.6904 85.4902 -78.6006 74.75 -138.061l-36.7402 -203.81
c-7.34961 -40.6396 -1.85938 -65.25 35.1807 -65.25h50.7402l-9.91992 -55.3096h-71.5098z" />
    <glyph glyph-name="braceright" unicode="}" horiz-adv-x="316" 
d="M60.6201 -199.52l-73.041 -0.000976562l9.96973 55.3096h48.9902c38.6602 0 53.5 25.4697 60.2197 62.8096l36.9902 206.25c11.3604 64.1201 48.79 128.08 124.47 140.6l1.55957 8.70996c-69.3096 17.0996 -85.6797 75.29 -73.9893 139.61l35.7598 197.08
c6.88965 38.4502 2.80957 69.1807 -41.3604 69.1807h-44.4404l9.96973 55.3096h76.5703c64.4004 0 81.4004 -50.2402 70.1104 -113.63l-35.71 -200.6c-11.5996 -64.3398 5.09082 -118.37 88.8711 -120l-12.0195 -66.9502c-85.46 -1.62988 -121.17 -57.7695 -132.28 -119.359
l-38.6797 -213.79c-11.3398 -62.5996 -46.6396 -100.529 -111.96 -100.529z" />
    <glyph glyph-name="bracketleft" unicode="[" horiz-adv-x="319" 
d="M275.54 -137.06l-11 -61.29h-214.16l168.03 934.23h214.11l-11 -61.2803h-144.79l-145.98 -811.66h144.79z" />
    <glyph glyph-name="bracketright" unicode="]" horiz-adv-x="319" 
d="M-5.30957 -137.06h144.78l146.03 811.66h-144.79l11.0098 61.2803h214.12l-167.99 -934.23h-214.16z" />
    <glyph glyph-name="parenleft" unicode="(" horiz-adv-x="340" 
d="M264.49 -200.55c-91.3799 61.1797 -183.06 199.312 -183.06 386.911c0 299.39 184.64 482.84 353.67 566.609l24.0898 -55.5498c-137.44 -77.0703 -306.721 -237.66 -306.721 -500.75c0 -176.78 77.9199 -291.58 152.58 -345.9z" />
    <glyph glyph-name="parenright" unicode=")" horiz-adv-x="340" 
d="M286.64 356.08c0 175.81 -74.1104 279.33 -154.181 341.84l41.9805 54.2402c100.82 -73 183.03 -200.83 183.03 -386.75c0 -291.39 -186.21 -493.54 -352.11 -571.64l-24.5195 57.1797c133.91 70.0303 305.8 249.07 305.8 505.13z" />
    <glyph glyph-name="emdash" unicode="&#x2014;" horiz-adv-x="1090" 
d="M1068.35 232.68h-963.02l11.3398 63.2002h963.01z" />
    <glyph glyph-name="endash" unicode="&#x2013;" horiz-adv-x="654" 
d="M632.25 232.68h-526.921l11.4404 63.2002h526.91z" />
    <glyph glyph-name="hyphen" unicode="-" horiz-adv-x="402" 
d="M380.35 232.68h-275.121l11.4404 63.2002h275.11z" />
    <glyph glyph-name="uni00AD" unicode="&#xad;" horiz-adv-x="411" 
d="M380.35 232.68h-275.121l11.4404 63.2002h275.11z" />
    <glyph glyph-name="guillemotleft" unicode="&#xab;" horiz-adv-x="471" 
d="M247.47 52h-70.96l-88.2998 201l160.2 199h79.2998l-163.5 -203.1zM423.7 52h-70.96l-88.2998 201l160.2 199h79.2998l-163.51 -203.1z" />
    <glyph glyph-name="guillemotright" unicode="&#xbb;" horiz-adv-x="464" 
d="M49.8496 52l165.28 206.41l-83.5801 193.59h70.5098l88.7998 -199l-160.7 -201h-80.3096zM225.62 52l165.29 206.41l-83.5898 193.59h70.5098l88.7998 -199l-160.7 -201h-80.3096z" />
    <glyph glyph-name="guilsinglleft" unicode="&#x2039;" horiz-adv-x="288" 
d="M247.47 52h-70.96l-88.2998 201l160.2 199h79.2998l-163.5 -203.1z" />
    <glyph glyph-name="guilsinglright" unicode="&#x203a;" horiz-adv-x="287" 
d="M49.8496 52l165.28 206.41l-83.5801 193.59h70.5098l88.7998 -199l-160.7 -201h-80.3096z" />
    <glyph glyph-name="quotedblbase" unicode="&#x201e;" horiz-adv-x="332" 
d="M46.3701 -98.3203l5.92969 34.2314c20.3398 6.0498 39.3496 21.1797 48.6699 45.8096c2.62988 6.12988 6.37012 8.51953 10.9199 9.23926l0.929688 5.49023c-4.33008 -1.48047 -10.46 -1.94043 -13.2402 -1.94043c-27.0098 0.209961 -38.4697 18.4102 -38.3096 36.9102
c0.200195 26.0801 21.3701 49.3496 49.1396 49.3496c25.54 0 40.9805 -16.2695 40.9805 -44.5498c0 -57.0801 -40.5596 -125.43 -105.02 -134.54zM177.95 -98.3193l5.9209 34.2314c20.3398 6.0498 39.3496 21.1797 48.6699 45.8096
c2.62988 6.12988 6.37012 8.51953 10.9199 9.23926l0.929688 5.49023c-4.33008 -1.48047 -10.46 -1.94043 -13.2402 -1.94043c-27 0.209961 -38.4697 18.4102 -38.3096 36.9102c0.209961 26.0801 21.3701 49.3496 49.1396 49.3496
c25.5498 0 40.9795 -16.2695 40.9795 -44.5498c0 -57.0801 -40.5596 -125.43 -105.01 -134.54z" />
    <glyph glyph-name="quotedblleft" unicode="&#x201c;" horiz-adv-x="320" 
d="M261.85 734.15l-5.92969 -34.2314c-20.3398 -6.05957 -39.3496 -21.1895 -48.6699 -45.8193c-2.62988 -6.12988 -6.36035 -8.50977 -10.9199 -9.24023l-0.919922 -5.49023c4.32031 1.49023 10.4502 1.94043 13.2305 1.94043
c27.0098 -0.200195 38.4697 -18.4004 38.3193 -36.9102c-0.209961 -26.0801 -21.3799 -49.3496 -49.1494 -49.3496c-25.54 0 -40.9805 16.2803 -40.9805 44.5498c0 57.0801 40.5596 125.44 105.02 134.551zM393.42 734.149l-5.92969 -34.2314
c-20.3398 -6.05957 -39.3398 -21.1895 -48.6699 -45.8193c-2.62988 -6.12988 -6.36035 -8.50977 -10.9199 -9.24023l-0.919922 -5.49023c4.33008 1.49023 10.4502 1.94043 13.2305 1.94043c27.0098 -0.200195 38.4697 -18.4004 38.3193 -36.9102
c-0.209961 -26.0801 -21.3799 -49.3496 -49.1494 -49.3496c-25.54 0 -40.9805 16.2803 -40.9805 44.5498c0 57.0801 40.5596 125.44 105.02 134.551z" />
    <glyph glyph-name="quotedblright" unicode="&#x201d;" horiz-adv-x="317" 
d="M159.86 554.94l5.92969 34.2305c20.3398 6.05957 39.3398 21.1797 48.6699 45.8193c2.62988 6.12012 6.36035 8.50977 10.9199 9.24023l0.919922 5.49023c-4.33008 -1.49023 -10.4502 -1.9502 -13.2305 -1.9502c-27.0098 0.209961 -38.4697 18.4102 -38.3193 36.9102
c0.209961 26.0898 21.3799 49.3594 49.1494 49.3594c25.54 0 40.9805 -16.2803 40.9805 -44.5498c0 -57.0898 -40.5596 -125.439 -105.02 -134.55zM291.43 554.94l5.92969 34.2305c20.3398 6.05957 39.3496 21.1797 48.6699 45.8193
c2.62988 6.12012 6.36035 8.50977 10.9199 9.24023l0.919922 5.49023c-4.32031 -1.49023 -10.4502 -1.9502 -13.2305 -1.9502c-27.0098 0.209961 -38.4697 18.4102 -38.3193 36.9102c0.209961 26.0898 21.3799 49.3594 49.1494 49.3594
c25.54 0 40.9805 -16.2803 40.9805 -44.5498c0 -57.0898 -40.5596 -125.439 -105.02 -134.55z" />
    <glyph glyph-name="quoteleft" unicode="&#x2018;" horiz-adv-x="188" 
d="M261.85 734.15l-5.92969 -34.2305c-20.3398 -6.05957 -39.3496 -21.1797 -48.6699 -45.8193c-2.62988 -6.12012 -6.36035 -8.50977 -10.9199 -9.24023l-0.919922 -5.49023c4.32031 1.49023 10.4502 1.9502 13.2305 1.9502
c27.0098 -0.209961 38.4697 -18.4102 38.3193 -36.9102c-0.209961 -26.0898 -21.3799 -49.3594 -49.1494 -49.3594c-25.54 0 -40.9805 16.2803 -40.9805 44.5498c0 57.0898 40.5596 125.439 105.02 134.55z" />
    <glyph glyph-name="quoteright" unicode="&#x2019;" horiz-adv-x="185" 
d="M159.42 554.93l5.92969 34.2314c20.3398 6.05957 39.3496 21.1895 48.6699 45.8193c2.62988 6.12988 6.37012 8.50977 10.9199 9.24023l0.929688 5.49023c-4.33008 -1.49023 -10.46 -1.94043 -13.2402 -1.94043c-27.0098 0.200195 -38.4697 18.4004 -38.3096 36.9102
c0.200195 26.0801 21.3701 49.3496 49.1396 49.3496c25.54 0 40.9805 -16.2803 40.9805 -44.5498c0 -57.0801 -40.5596 -125.44 -105.02 -134.551z" />
    <glyph glyph-name="quotesinglbase" unicode="&#x201a;" horiz-adv-x="200" 
d="M46.3701 -98.3203l5.92969 34.2314c20.3398 6.0498 39.3496 21.1797 48.6699 45.8096c2.62988 6.12988 6.37012 8.51953 10.9199 9.23926l0.929688 5.49023c-4.33008 -1.48047 -10.46 -1.94043 -13.2402 -1.94043c-27.0098 0.209961 -38.4697 18.4102 -38.3096 36.9102
c0.200195 26.0801 21.3701 49.3496 49.1396 49.3496c25.54 0 40.9805 -16.2695 40.9805 -44.5498c0 -57.0801 -40.5596 -125.43 -105.02 -134.54z" />
    <glyph glyph-name="space" unicode=" " horiz-adv-x="242" 
 />
    <glyph glyph-name="uni00A0" unicode="&#xa0;" horiz-adv-x="242" 
 />
    <glyph glyph-name="Euro" unicode="&#x20ac;" horiz-adv-x="758" 
d="M487.63 -13c-161.43 0 -277.532 105.482 -301.603 263.832h-105.04l17.8496 59.4805h66.04c4.5498 0 8.5 -1.45996 12.1504 -6.08008l7.74023 6.16992c-3.7002 4.62988 -4.14062 7.41016 -3.86035 14.7197c0.379883 17.4697 2.83008 43.8096 5.81055 60.2793
c1 6.25 2.7002 9.25 8.65039 14.3398l-5.53027 6.16992c-5.33984 -4.62988 -10.1895 -6.08008 -14.3291 -6.08008h-68.1602l17.8496 59.4805h81.9004c54.7998 153.97 196.01 262.319 365.58 262.319c105.4 0 181.891 -35.7998 238.601 -106.66l-52.6104 -42.9697
c-45.6201 58.6299 -101.73 87.7998 -188.53 87.7998c-131.46 0 -239.84 -81.6699 -289.99 -202.08l5.51953 -6.12012c5.45996 5.16992 8.96973 7.70996 20.6797 7.70996h175.25l-17.5303 -59.4805h-190.84c-4.09961 0 -8.34961 1.4502 -12.1094 6.08008l-7.74023 -6.16992
c4.07031 -5.08984 4.66016 -8.13965 3.37012 -14.3398c-4.44043 -19.25 -6.19043 -39.8096 -6.14062 -59.6094c0 -7.30957 -2.55957 -10.3994 -8.40918 -15.3896l5.58008 -6.16992c5.40039 4.62012 9.68066 6.08008 14.2803 6.08008h191.35l-17.4805 -59.4805h-158.65
c-4.59961 0 -8.34961 1.4502 -12.0996 6.08008l-7.79004 -6.12012c21.4404 -119.98 106.591 -201.421 231.321 -201.421c72.8301 0 141.86 24.54 201.48 78.6797l41.21 -48.4502c-70.5498 -66.5996 -161.149 -92.5996 -243.77 -92.5996z" />
    <glyph glyph-name="cent" unicode="&#xa2;" horiz-adv-x="522" 
d="M244.89 0l23.1787 128.79c-95.5098 19.8496 -159.689 104.38 -159.689 211.06c0 150.08 110.07 267.15 248.07 280.561l21.54 119.59h60.2197l-21.5996 -120.12c72.1504 -8.65039 124.48 -48.6201 153.301 -113.68l-57.4199 -30.9199
c-15.9805 41.3799 -47.6104 69.1797 -90.3105 79.1895c-5.16992 1.80957 -9.75 5.25977 -13.6602 10.9697l-7.30957 -6.70996c2.87988 -3.54004 3.36035 -7.36035 2.33008 -13.2607l-62.75 -346.48c-0.969727 -5.51953 -2.63965 -9.71973 -6.7998 -13.2598l4.87988 -6.71973
c5.88965 5.17969 11.5801 9.21973 18.4102 10.8701c46.9697 7.26953 88.2598 32.1797 118.71 73.3701l48.3896 -37.0498c-49.6504 -65.2695 -116.03 -98.9697 -196.83 -101.529l-22.4805 -124.67h-60.1797zM276.818 187.74l7.25977 6.70898
c-2.83984 3.54004 -3.05957 6.08984 -1.7793 13.2598l61.3701 335.36c1.41992 7.44043 2.29004 9.98047 6.49023 13.5205l-4.92969 6.71973c-4.30957 -4.13965 -9.96973 -8.35938 -17.6396 -11.5693c-84.6504 -19.96 -153.381 -102.61 -153.381 -206.91
c0 -66.3496 32.5898 -125.08 89.2695 -145.58c4.54004 -2.91992 9.25977 -6.33984 13.3398 -11.5098z" />
    <glyph glyph-name="currency" unicode="&#xa4;" horiz-adv-x="649" 
d="M563.67 74.2695l-54.3467 67.2676c-2.46973 3.08008 -3.41016 7.16992 -2.08984 14.6201h-8.86035c-1.42969 -7.4502 -3.66016 -12.1904 -7.79004 -14.5703c-38.8301 -22.7998 -84.7803 -36.2998 -135.07 -36.2998c-57.4404 0 -103.2 17.1699 -137.16 45.1299
c-2.76953 2.5498 -3.18945 6.96973 -1.81934 14.4102h-8.96973c-1.32031 -7.44043 -4.73047 -10.9404 -8.37012 -14.0703l-78.04 -67.9697l-32.2402 38.9102l78.0195 66.9404c3.5 3.04004 7.62988 4.86035 14.9199 4.86035l1.59961 9.07031
c-7.2998 0 -10.71 2.33984 -12.75 5.84961c-17.6504 32.3496 -26.3604 69.7793 -26.3604 108.489c0 65.9102 25.0098 128.23 66.9102 175.82c4.08984 4.24023 8.2998 5.48047 15.5898 5.48047l1.59961 9.07031c-7.29004 0 -10.3301 2.91016 -12.7002 5.85059
l-51.7402 64.6699l45.4502 38.9102l52.8604 -65.7998c2.45996 -3.08008 3.41992 -7.12012 2.08984 -14.5703h8.96973c1.37988 7.4502 4.33008 11.7598 8.27051 14.0801c38.6104 22.46 83.6299 35.5498 132.399 35.5498c56.4502 0 102.76 -17.2197 136.399 -45.4102
c4.00977 -3.29004 4.50977 -7.96973 3.12988 -15.4102h8.96973c1.37988 7.44043 4.9502 10.9404 8.5498 14.0303l76.3301 65.9805l31.1602 -38.9102l-76.29 -65.8398c-3.45996 -3 -7.7998 -4.76953 -15.0898 -4.76953l-1.58984 -9.07031
c7.29004 0 11.5098 -2.13965 13.4902 -5.98926c16.5996 -30.5801 25.6992 -67.3105 25.6992 -106.74c0 -65.4004 -24.1201 -127.36 -65.4297 -174.75c-3.16016 -3.4502 -7.50977 -4.75977 -14.7998 -4.75977l-1.59961 -9.08008c7.29004 0 10.2197 -2.90039 12.6396 -5.94043
l53.5098 -66.1299zM359.833 163.478c115.86 0 200.631 98.6299 200.631 208.33c0 89.7402 -57.8203 155.92 -151.601 155.92c-116.78 0 -200.37 -102.2 -200.37 -209.641c0 -87.5996 56.1797 -154.609 151.34 -154.609z" />
    <glyph glyph-name="dollar" unicode="$" horiz-adv-x="536" 
d="M240.08 -80l12.1475 67.4297c-88.2402 2.82031 -154.4 34.3398 -204.761 95.4199l50.1396 51.9502c36.25 -47.9502 83.6699 -76.2305 147.04 -81.8203c6.63965 -1.25 10.8398 -5.71973 15.2998 -11.9697l7.69043 6.16992c-3.74023 4 -2.83984 7.88965 -1.76953 13.71
l50.0703 278.25c-92.5098 38.7002 -152.319 86.2305 -152.319 182.011c0 109.51 86.0098 188.279 220.37 198.989l12.6904 70.8604h60.2803l-12.7998 -71.0498c63.4902 -5.29004 111.3 -28.1396 150.35 -63.04l-47.4902 -51.7695
c-23.46 23.9102 -57.3096 39.9502 -98.0596 46.79c-5.12988 1.32031 -8.87012 5.61035 -12.6201 10.2402l-7.58984 -5.62988c3.25977 -4 2.4502 -7.53027 1.41992 -13.0703l-45.5996 -255.99c93.1602 -43.2803 142.42 -91.9307 142.42 -181.251
c0 -118.26 -85.5801 -200.359 -214.05 -216.079l-12.6797 -70.1504h-60.1797zM326.298 410.25l7.25879 6.7207c-3.26953 4 -3.35938 6.45996 -2.0293 13.6201l38.6797 210.86c1.08008 5.75977 1.41992 9.08008 6.07031 13.0801l-4.87988 6.70996
c-6 -5.16992 -11.1201 -8.83008 -17.7305 -11.0205c-70.5996 -13.8096 -120.26 -60.9795 -120.26 -122.26c0 -54.6504 35.04 -81.7607 79.2002 -105.421c5.54004 -3.25 9.82031 -7.33008 13.6904 -12.29zM326.257 52.0107c5.88965 5.16992 12.3594 9.06055 17.5693 11.3506
c70.2197 20.5195 112.149 75.6191 112.149 132.789c0 46.2598 -19.8496 76.3994 -69.2598 105.659c-4.86035 4.04004 -9.20996 7.99023 -13.1797 13.7002l-7.30957 -6.70996c3.30957 -4 2.94922 -6.63965 1.79883 -12.8496l-40.6396 -224.2
c-1.13965 -6.01953 -1.35938 -9.01953 -6.06934 -13.0195z" />
    <glyph glyph-name="florin" unicode="&#x192;" horiz-adv-x="357" 
d="M222.02 532.48c24.6201 136.65 90.0996 197.891 202.979 197.891c8.95996 0 23.8799 -0.919922 38.6396 -3.83008l-11.0098 -60.8301h-2.51953c-4.00977 0 -15.0293 2.83008 -28.8193 2.83008c-73.8203 0 -118.851 -42.25 -134.28 -132.46l-7.91016 -47.1104
c-1.29004 -6.71973 -3.48047 -9.25977 -7.83008 -12.9697l5.58008 -6.16992c4.34961 3.70996 8.26953 5.16992 12.8193 5.16992h96.8496l-10.5596 -58.5703h-96.8604c-4.5498 0 -7.92969 1.4502 -10.96 5.16992l-7.74023 -6.16992
c3.03027 -3.71973 4.20996 -6.25977 3.00977 -12.9795l-70.6602 -392.37c-22.8896 -127.13 -85.25 -187.03 -184.92 -187.03c-8.08984 0 -22.6494 0.509766 -37.3496 3.41992l11 61.2402c5.03027 -0.55957 18.7002 -2.8291 30.0605 -2.8291
c63.5703 0 101.551 43.2998 115.671 121.6l71.29 395.97c1.17969 6.71973 3.20996 9.25977 7.5498 12.9795l-5.58008 6.16992c-4.29004 -3.71973 -8.16992 -5.16992 -12.7197 -5.16992h-56.6299l10.5596 58.5703h56.6299c4.5498 0 7.88965 -1.45996 10.8594 -5.16992
l7.74023 6.16992c-3 3.70996 -3.91016 6.25 -2.71973 12.9697z" />
    <glyph glyph-name="sterling" unicode="&#xa3;" horiz-adv-x="556" 
d="M49.2305 0l11.2422 62.7402h22.0195c79.9697 57.4199 111.31 133.189 111.31 223.709c0 9.7998 -0.490234 30.9697 -1.60059 39.2598h-75.0703l10.8604 60.5703h44.1504c6.33008 0 11.0898 -1.4502 14.3799 -5.62988l7.7998 6.17969
c-6.88965 12.04 -12.5 42.1504 -12.5 79.1201c0 158.25 100.01 256.13 238.39 256.13c109.64 0 158.72 -58.4102 172.42 -123.88l-63.8203 -18.6797c-10.4004 46.5801 -44.1006 81.9102 -115.86 81.9102c-99.5996 0 -163.93 -80.3301 -163.93 -197.2
c0 -27.5 2.9502 -57.8896 8.37012 -77.9492h182.2l-10.9199 -60.5703h-150.74c-5.05957 0 -9.31934 1.45996 -13.4395 6.54004l-7.74023 -6.16992c2.62988 -5.99023 4.13965 -25.1602 4.13965 -40.1006c0 -74.1504 -20.8301 -165.37 -95.9102 -213.98l-1.69043 -9.25977
h199.7c65.8301 0 108.05 31.5703 119.56 95.4307h64.5303c-13.7002 -102.06 -76.4004 -158.17 -185.46 -158.17h-312.39z" />
    <glyph glyph-name="yen" unicode="&#xa5;" horiz-adv-x="632" 
d="M280.01 0l22.3984 124.37c1.09961 6.25977 3.13965 9.25977 9.08984 14.3398l-5.58008 6.16992c-5.40039 -4.62988 -10.1904 -6.08008 -14.3301 -6.08008h-171.71l10.7002 59.4805h171.71c4.5498 0 8.39941 -1.4502 12.1992 -6.08008l7.74023 6.16992
c-3.7998 4.62988 -4.71973 7.62988 -3.67969 14.3398l10.6602 60.6602c1.24023 6.70996 3.61035 9.70996 9.01074 14.3398l-5.48047 6.16992c-5.40039 -4.62988 -9.83008 -6.08008 -14.3799 -6.08008h-171.76l10.7402 59.4805h137.82c12 0 14.5703 -3 17.8398 -7.70996
l7.75 6.16992l-162.72 362.26h74.8604l138.92 -321.12c3.91992 -9.11035 4.32031 -16.6299 3.48047 -21.6299h8.69043c0.900391 5 3.16992 12.5303 9.96973 21.0898l255.22 321.66h77.9297l-293.479 -362.26l5.53027 -6.16992
c4.95996 4.70996 8.62012 7.70996 20.7197 7.70996h142l-10.75 -59.4805h-176.54c-4.5498 0 -8.33984 1.4502 -12.0498 6.08008l-7.74023 -6.16992c3.65039 -4.62988 4.64062 -7.67969 3.56055 -14.3398l-11.2002 -60.6602
c-1.13965 -6.70996 -3.09961 -9.70996 -8.44922 -14.3398l5.58008 -6.16992c5.2998 4.62988 9.68945 6.08008 14.1797 6.08008h176.64l-10.7002 -59.4805h-176.64c-4.08984 0 -8.33984 1.4502 -12.0498 6.08008l-7.74023 -6.16992
c4.07031 -5.08008 4.62988 -8.08008 3.51953 -14.3398l-22.4004 -124.37h-69.0801z" />
    <glyph glyph-name="plus" unicode="+" horiz-adv-x="583" 
d="M339.64 85.9404h-66.3799l41.04 228.14h-220.94l11.4004 63.29h220.94l41 228.14h66.3301l-41 -228.14h221.43l-11.3896 -63.29h-221.44z" />
    <glyph glyph-name="minus" unicode="&#x2212;" horiz-adv-x="646" 
d="M633.98 314.08h-508.699l11.3896 63.29h508.71z" />
    <glyph glyph-name="multiply" unicode="&#xd7;" horiz-adv-x="547" 
d="M461.62 132.48l-132.329 165.789l-194.91 -168.46l-38.6104 46.6396l195.57 169l-134.07 167.46l50.71 43.5703l134.02 -168l196.57 169.86l38.0996 -47.2695l-196.17 -169.42l132.03 -166.24z" />
    <glyph glyph-name="divide" unicode="&#xf7;" horiz-adv-x="635" 
d="M407.03 485.4c-27.0098 0.209961 -38.4697 18.4092 -38.3193 36.9092c0.209961 26.0801 21.3799 49.3604 49.1494 49.3604c23.4805 0 38.4707 -16.6104 38.3105 -36.71c-0.200195 -25.8496 -19.9502 -49.7695 -49.1406 -49.5596zM130.82 377.369h508.7l-11.4004 -63.29
h-508.7zM341.49 119.509c-27.0098 0.209961 -38.4795 18.4102 -38.3193 36.9199c0.209961 26.0801 21.3701 49.3496 49.1396 49.3496c23.4805 0 38.4805 -16.6104 38.3203 -36.7002c-0.209961 -25.8496 -19.9502 -49.7695 -49.1406 -49.5693z" />
    <glyph glyph-name="equal" unicode="=" horiz-adv-x="638" 
d="M645.46 419.97h-502.46l11.3496 63.2803h502.46zM607.43 208.739h-502.421l11.3604 63.29h502.41z" />
    <glyph glyph-name="greater" unicode="&#x3e;" horiz-adv-x="464" 
d="M499.32 346l-397.251 -340l-44.71 49.8701l348.16 295.43l-235.93 290.05l54.7305 44.6504z" />
    <glyph glyph-name="less" unicode="&#x3c;" horiz-adv-x="464" 
d="M419.47 49.46l-54.5898 -43.46l-274.95 340l397.25 340l42.79 -49.5303l-347.79 -296.46z" />
    <glyph glyph-name="plusminus" unicode="&#xb1;" horiz-adv-x="631" 
d="M374.57 146.4h-66.1699l39.5303 220h-220.94l11.4004 63.2803h220.94l39.4805 220h66.2695l-39.5303 -220h221.59l-11.4502 -63.2803h-221.54zM72.4502 63.2803h508.7l-11.3496 -63.2803h-508.7z" />
    <glyph glyph-name="asciitilde" unicode="~" horiz-adv-x="611" 
d="M558.77 383.74l56.959 0.000976562c-9.95996 -80.0303 -59.7197 -138.03 -147.62 -138.03c-99.9697 0 -123.84 80 -204.84 80c-52.3896 0 -82.5098 -34.1602 -91.3193 -79.46h-56.9004c9.71973 80.4297 69.21 138.029 154.84 138.029c98.5 0 126.66 -80 202.82 -80
c49.6104 0 78.1807 35.6904 86.0605 79.46z" />
    <glyph glyph-name="logicalnot" unicode="&#xac;" horiz-adv-x="646" 
d="M590.28 85.9404l-63.1201 -0.000976562l41.1504 228.69h-451.48l11.3496 63.2803h514.61z" />
    <glyph glyph-name="uni00B5" unicode="&#xb5;" horiz-adv-x="559" 
d="M41.9297 -231l126.999 706h64.6104l-47.3203 -264.15c-18.8701 -105.23 14.0898 -163.11 104.42 -163.11c96.2803 0 146.79 58.8301 165.5 163.11l47.3203 264.15h64.75l-49.9199 -278.35c-26.7305 -148.61 -108.631 -209.65 -235.181 -209.65
c-59.1396 0 -105.649 22.6396 -125.479 68.2793l-8.01953 -5.25c1.86035 -4.45996 5.30078 -11.9199 3.21094 -23.1797l-46.2803 -257.85h-64.6104z" />
    <glyph glyph-name="percent" unicode="%" horiz-adv-x="846" 
d="M340.56 756.06c103.15 0 163.109 -74.1904 163.109 -164.891c0 -110.62 -88.2998 -207.91 -207.609 -207.91c-107.4 0 -163.431 77.6699 -163.431 164.62c0 110.94 90.4004 208.181 207.931 208.181zM251.528 -0h-61.4805l530.9 740h61.4404zM335.328 701.02
c-83.6699 0 -143.66 -73.4004 -143.66 -150.83c0 -63.29 40.2695 -111.89 108.93 -111.89c82.9404 0 143.841 70.7998 143.841 149.87c0 64.8799 -41.5 112.85 -109.11 112.85zM682.588 359.35c103.14 0 163.1 -74.2002 163.1 -164.9
c0 -110.62 -88.2998 -207.9 -207.6 -207.9c-107.4 0 -163.431 77.6602 -163.431 164.61c0 110.94 90.4004 208.19 207.931 208.19zM677.357 304.3c-83.6699 0 -143.66 -73.7607 -143.66 -150.82c0 -63.29 40.2695 -111.89 108.93 -111.89
c82.9404 0 143.841 70.79 143.841 149.86c0 64.8896 -41.5 112.85 -109.11 112.85z" />
    <glyph glyph-name="perthousand" unicode="&#x2030;" horiz-adv-x="1252" 
d="M340.56 756.06c103.15 0 163.109 -74.1904 163.109 -164.891c0 -110.62 -88.2998 -207.91 -207.609 -207.91c-107.4 0 -163.431 77.6699 -163.431 164.62c0 110.94 90.4004 208.181 207.931 208.181zM251.528 -0h-61.4805l530.9 740h61.4404zM335.328 701.02
c-83.6699 0 -143.66 -73.4004 -143.66 -150.83c0 -63.29 40.2695 -111.89 108.93 -111.89c82.9404 0 143.841 70.7998 143.841 149.87c0 64.8799 -41.5 112.85 -109.11 112.85zM682.588 359.35c103.14 0 163.1 -74.2002 163.1 -164.9
c0 -110.62 -88.2998 -207.9 -207.6 -207.9c-107.4 0 -163.431 77.6602 -163.431 164.61c0 110.94 90.4004 208.19 207.931 208.19zM1088.87 359.35c103.15 0 163.11 -74.2002 163.11 -164.9c0 -110.62 -88.2998 -207.9 -207.609 -207.9
c-107.4 0 -163.431 77.6602 -163.431 164.61c0 110.94 90.4102 208.19 207.93 208.19zM677.358 304.3c-83.6699 0 -143.66 -73.7607 -143.66 -150.82c0 -63.29 40.2695 -111.89 108.93 -111.89c82.9404 0 143.841 70.79 143.841 149.86
c0 64.8896 -41.5 112.85 -109.11 112.85zM1083.64 304.299c-83.6699 0 -143.66 -73.7607 -143.66 -150.82c0 -63.29 40.2695 -111.89 108.93 -111.89c82.9404 0 143.851 70.79 143.851 149.86c0 64.8896 -41.5098 112.85 -109.12 112.85z" />
    <glyph glyph-name="uniF8FF" unicode="&#xf8ff;" horiz-adv-x="898" 
d="M255.3 704h365.399v-117.8h-241.6v-185.5c127.7 -45.2002 248.5 -156.101 385 -156.101c25.5 0 46.2002 3.90039 46.2002 3.90039s-20.7002 -31.4004 -95.2998 -31.4004c-110 0 -237.7 59.9004 -335.9 110.9v-328h-123.8v379.1s-23.5 9.7998 -51 9.7998
c-41.2998 0 -76.5996 -17.5996 -76.5996 -55.8994c0 -25.5996 14.7002 -48.1992 36.2998 -55.999c-34.4004 1.90039 -55 25.5 -55 61.7998c0 51.0996 44.2002 88.3994 123.8 88.3994c5.7998 0 13.7002 0 22.5 -1.90039v278.7z" />
    <glyph glyph-name="at" unicode="@" horiz-adv-x="953" 
d="M447.91 -212.46c-210.27 0 -364.082 151.11 -364.082 385.11c0 290.28 215.04 512.32 516.99 512.32c220.29 0 357.17 -149.22 357.11 -336.239c-0.0498047 -187.5 -107.79 -330.22 -232.271 -330.22c-52.4805 0 -85.7402 26.4004 -85.7402 69.8701
c0 17.4902 5.7998 27.6602 10.0098 32.8604l-5.58008 5.13965c-17.5596 -29.3096 -72.6992 -98.2695 -172.369 -98.2695c-95.0898 0 -169.16 77.0098 -169.16 183.609c0 135.33 103.43 238.83 234.949 238.83c80.9004 0 118.301 -48.7402 133.551 -81.5898l7.45996 5.08984
c-3.46973 5.9502 -5.5293 13.1201 -3.50977 20.9902l9.67969 47.4102l63.5303 -0.240234l-54.9502 -305.11c-7.87012 -43.7402 17.2803 -59.9307 45.6699 -59.9307c75.4102 0 153.45 119.86 155.19 263.17c2.16992 164.42 -109.811 284.51 -302.36 284.51
c-261.8 0 -449.58 -200.2 -445.72 -450.46c2.98047 -200.12 135.301 -328.91 311.261 -328.91c80.21 0 164.09 23.0498 230.91 74.2695l26.54 -53.96c-78.54 -54.2402 -172.89 -78.25 -267.109 -78.25zM488.098 86.4209c87.3203 0 165.682 82.7598 165.682 179.18
c0 69.8604 -42.6904 126.66 -120.431 126.66c-93.9004 0 -165.851 -79.2002 -165.851 -177.96c0 -72.6299 47.7695 -127.88 120.6 -127.88z" />
    <glyph glyph-name="ampersand" unicode="&#x26;" horiz-adv-x="674" 
d="M253.3 -10c-107.9 0 -179.79 64.6816 -179.79 161.491c0 106.13 88.1699 173.62 154.2 215.62c22.8096 15.4199 42.0693 22.79 55.5195 22.6797l1.59961 9.12012c-6.76953 0.0498047 -16 7.70996 -23.9004 21.3203c-17.8203 28.46 -40.5898 67.7998 -40.5898 118.92
c0 104.64 80.6797 182.85 188.58 182.85c85.5303 0 141.55 -54.4697 141.55 -130.59c0 -92.9805 -84.5703 -155.471 -155.58 -194.11c-13.4199 -7.53027 -20.4199 -9.06055 -31.0498 -9.28027l-1.58984 -9.12012c6.75977 0 10.6602 -1.76953 16.7002 -10.0898
l114.74 -149.05c6.32031 -8.66016 8.41016 -19.4902 6.62012 -23.8701h9.01953c1.73047 8.94043 3.04004 13.9805 11.2197 22.7803l107.64 114.33h77.2803l-166.32 -177.93l117.05 -155.07h-83.96l-71.3096 98.0801c-4.90039 7.23047 -3.56055 15.7402 -2.81055 20.3398
h-9.05957c-1.34961 -7.91016 -4.06934 -14.2705 -12.8193 -24.0605c-52.0498 -59.6602 -133.39 -104.36 -222.939 -104.36zM333.569 425.192c96.3799 49.1201 153.699 88.6006 153.699 158.971c0 52.2695 -35.0801 82.6094 -85.3896 82.6094
c-60.2998 0 -119.43 -48.2197 -119.43 -123.399c0 -47.0303 20.6504 -77.0205 51.1201 -118.181zM262.049 47.9424c72.8701 0 134.409 43.29 192.85 110.2l-145.55 194.21c-109.08 -57.3701 -171.51 -109.71 -171.51 -194.64c0 -66.0703 50.1299 -109.771 124.21 -109.771z
" />
    <glyph glyph-name="paragraph" unicode="&#xb6;" horiz-adv-x="663" 
d="M481.02 -193l-59.1084 -0.000976562l157.28 874.2h-133.24l-157.28 -874.2h-59.5898l84.79 471.4c-118.13 0 -194.03 94.8301 -194.03 196.78c0 122.83 88.3398 260.7 284.97 260.7h361.64l-9.7998 -54.6797h-118.4z" />
    <glyph glyph-name="section" unicode="&#xa7;" horiz-adv-x="515" 
d="M394.53 727.09c68.9102 0 123.098 -28.0713 155.117 -71.6514l-52.21 -44.4297c-27.7197 33.9805 -62.4502 53.25 -113.44 53.25c-71.9404 0 -128 -43.1797 -128 -107.55c0 -62 44.1504 -83.1699 111.181 -116.56c74.29 -36.6299 156.85 -75.5303 156.85 -168.431
c0 -76.0801 -56.9199 -131.9 -110.689 -143.87l-1.58984 -9.12012c28.3496 -26.8896 38.71 -61.4795 38.71 -102.909c0 -135.03 -104.19 -191.811 -217.75 -191.811c-83.9697 0 -142.81 31.0195 -180.649 79.1494l49.4199 48.9199
c31.21 -40.7598 75.6602 -65.79 138.2 -65.79c69.9502 0 142.311 38.1504 142.311 124.271c0 72.9199 -53.0498 89.2803 -150.069 138.771c-70.2305 35.8203 -140.461 69.4707 -140.461 160.081c0 83.0498 70.7002 129.05 125.17 144.22l1.65039 9.12012
c-19.0195 19.3496 -32.6299 48.9795 -32.6299 92.8193c0 101.91 90.6504 171.521 208.881 171.521zM160.957 316.839c0 -51.5098 45.2793 -71.9297 111.02 -108.13l99.79 -53.21c49.7305 19.6299 82.3105 57.2695 82.3105 106.899
c0 56.5996 -50.4902 79.3691 -107.61 109.229l-93 52.1709c-54.0195 -21.54 -92.5098 -54.9697 -92.5098 -106.96z" />
    <glyph glyph-name="copyright" unicode="&#xa9;" horiz-adv-x="801" 
d="M414.37 -13.0996c-209.03 0 -308.239 154.699 -308.239 315.699c0 220 174.64 417.4 408.04 417.4c194.17 0 306.84 -140.2 306.84 -316.8c0 -218.5 -165.69 -416.3 -406.641 -416.3zM421.321 38.1191c206.51 0 348.56 170.16 348.56 358.12
c0 152.7 -96.1797 272.49 -262.819 272.49c-200.1 0 -349.8 -169.82 -349.8 -358.971c0 -139.05 83.2598 -271.64 264.06 -271.64zM440.411 134.56c-106.87 0 -184.441 81.1182 -184.441 191.438c0 142.3 111.37 250.47 245.351 250.47
c78.8896 0 135.47 -37.29 164.84 -102.42l-51.5498 -27.8799c-19.3301 48.8604 -60.1699 76.6904 -118.63 76.6904c-99.04 0 -180.42 -85.5596 -180.42 -192.449c0 -79.0195 50.0996 -142.17 132.17 -142.17c53.54 0 101 24.5 134.74 69.9902l43.2402 -33.1396
c-46.5098 -59.71 -108.229 -90.5303 -185.3 -90.5303z" />
    <glyph glyph-name="registered" unicode="&#xae;" horiz-adv-x="801" 
d="M414.37 -13.0996c-209.03 0 -308.239 154.699 -308.239 315.699c0 220 174.64 417.4 408.04 417.4c194.17 0 306.84 -140.2 306.84 -316.8c0 -218.5 -165.69 -416.3 -406.641 -416.3zM421.321 38.1191c206.51 0 348.56 170.16 348.56 358.12
c0 152.7 -96.1797 272.49 -262.819 272.49c-200.1 0 -349.8 -169.82 -349.8 -358.971c0 -139.05 83.2598 -271.64 264.06 -271.64zM295.052 141.629l77.6992 431.9h149.57c73.6904 0 129.341 -37.4102 129.341 -107.58c0 -81.6602 -53.9297 -136.74 -153.93 -141.61
l-1.71973 -8.11035c6.83984 -0.509766 10.96 -2.0293 13.7598 -7.21973l94.1104 -167.38h-58.2998l-101.49 178.97h-62.8203l-32.0303 -178.97h-54.1904zM390.211 370.799h101.34c59.0898 0 105.82 29.5898 105.82 85.04c0 45.8301 -33.3398 66.8604 -82.0996 66.8604
h-98.4004z" />
    <glyph glyph-name="trademark" unicode="&#x2122;" horiz-adv-x="741" 
d="M243.8 360.57h-52.4395l53.8896 299.54h-91.6602l8.58984 47.8896h234.81l-8.63965 -47.8896h-90.6602zM397.29 360.57l62.5303 347.43h53.0703l83.8398 -139.26l137.22 139.26h56.3604l-62.4805 -347.43h-52.2305l44.21 246.49
c1.76953 9.71973 6.10938 15.7998 10.3594 20.2598l-5.34961 4.08984l-125.06 -124.98h-22.4297l-79.4902 125.49l-6.83008 -4.08984c2.55957 -4.4502 5.16992 -10.4004 3.40039 -20.1201l-44.3301 -247.14h-52.79z" />
    <glyph glyph-name="degree" unicode="&#xb0;" horiz-adv-x="381" 
d="M274.84 420.74c-86.5703 0 -131.699 62.0791 -131.699 131.659c0 88.75 73.1104 166.54 168.25 166.54c83.0996 0 131.43 -59.3301 131.43 -131.93c0 -88.4697 -71.4102 -166.27 -167.98 -166.27zM278.661 465.159c66.8896 0 115.829 56.541 115.829 119.371
c0 51.8096 -33.3301 89.9893 -87.4697 89.9893c-67.4199 0 -115.63 -58.54 -115.63 -120.14c0 -50.5303 32.3203 -89.2207 87.2705 -89.2207z" />
    <glyph glyph-name="bar" unicode="|" horiz-adv-x="241" 
d="M129.4 -140h-67.7793l152.68 848.91h67.79z" />
    <glyph glyph-name="brokenbar" unicode="&#xa6;" horiz-adv-x="247" 
d="M227.76 390h-67.7402l57.0996 318h67.7803zM132.399 -140h-67.7803l60.29 335.37h67.8398z" />
    <glyph glyph-name="dagger" unicode="&#x2020;" horiz-adv-x="528" 
d="M358.6 708h65.833l-39.2002 -219.37c-1.2002 -6.20996 -3.14062 -9.25977 -8.48047 -13.8896l5.51953 -6.16992c4.79004 4.16992 9.21973 6.08008 14.2295 6.08008h165.4l-10.5996 -59.0195h-165.44c-4.96973 0 -8.72949 1.91016 -12.0596 6.08008l-7.69043 -6.16992
c3.63965 -4.62988 4.85938 -7.62988 3.51953 -14.3398l-97.2002 -541.2h-66.0596l97.4297 541.2c1.25 6.70996 3.26953 9.70996 8.60938 14.3398l-5.48047 6.16992c-4.84961 -4.16992 -9.25977 -6.08008 -14.3301 -6.08008h-165.88l10.5996 59.0195h165.88
c5.07031 0 8.77051 -1.91016 12.1104 -6.08008l7.74023 6.16992c-3.61035 4.62988 -4.84082 7.67969 -3.65039 13.8896z" />
    <glyph glyph-name="daggerdbl" unicode="&#x2021;" horiz-adv-x="528" 
d="M358.1 708h65.8301l-39.2002 -219.37c-1.2998 -6.20996 -3.0498 -9.25977 -8.38965 -13.8896l5.48047 -6.16992c4.79004 4.16992 9.25977 6.08008 14.3301 6.08008h165.39l-10.6504 -59.0195h-165.44c-4.96973 0 -8.7793 1.91016 -12.0596 6.08008l-7.69043 -6.16992
c3.59961 -4.62988 4.71973 -7.62988 3.42969 -14.3398l-41.8604 -234.4c-1.38965 -6.66016 -3.87988 -9.71973 -8.88965 -14.3496l5.53027 -6.16992c4.78027 4.16992 9.2207 6.08984 14.1807 6.08984h165.44l-10.6504 -59.0303h-165.4
c-5.00977 0 -8.71973 1.91016 -12.0498 6.08984l-7.67969 -6.17969c3.36035 -4.62012 5.12012 -7.67969 3.91992 -13.8799l-39.2002 -219.37h-65.8301l39.2002 219.37c1.2002 6.2002 3.12988 9.25977 8.2002 13.8799l-5.48047 6.17969
c-4.79004 -4.17969 -9.32031 -6.08984 -14.3799 -6.08984h-165.89l10.6602 59.0303h165.88c5.07031 0 8.77051 -1.91992 12.1104 -6.08984l7.74023 6.16992c-3.66016 4.62988 -4.53027 7.62988 -3.24023 14.3496l41.8604 234.4
c1.33008 6.66016 3.34961 9.70996 8.69922 14.3398l-5.53027 6.16992c-4.79004 -4.16992 -9.21973 -6.08008 -14.2793 -6.08008h-165.93l10.5996 59.0195h165.94c5.00977 0 8.80957 -1.91016 12.1494 -6.08008l7.67969 6.16992
c-3.58984 4.62988 -5.03027 7.67969 -3.73047 13.8896z" />
    <glyph glyph-name="asciicircum" unicode="^" horiz-adv-x="533" 
d="M363.42 740h71.3008l120.55 -404h-65.8096l-94.1699 322.63c-2.5 8.7998 -1.91016 13.7998 -0.5 21.5996h-8.65039c-1.45996 -7.7998 -3.07031 -12.71 -8.73047 -21.5996l-207.69 -322.63h-71.2998z" />
    <glyph glyph-name="ampersand.ss01" horiz-adv-x="731" 
d="M69.6602 202.75c0 170.3 132.108 276.36 257.948 276.36c37.4004 0 70.0107 -10.4805 81.751 -22.0908l7.19043 5.62988l-94.0596 185.73l10.7197 59.6201h382.76l-10.8799 -60.6602h-286.69c-11.6201 0 -14.8896 5.4502 -16.8193 8.53027l-8.12012 -5.62988
l337.04 -650.24h-72.21l-116.07 225.93l-7.50977 -4.66016c-11.4297 -131.67 -106.989 -233.729 -255.489 -233.729c-127.4 0 -209.561 92.71 -209.561 215.21zM135.349 205.101c0 -91.5303 60.1201 -157.899 149.16 -157.899c122.67 0 204.71 98.04 204.71 217.79
c0 89.5801 -54.96 159.89 -150.1 159.89c-103.98 0 -203.771 -86.21 -203.771 -219.78z" />
    <glyph glyph-name="uni0308" unicode="&#x308;" 
d="M-142.13 585.85c-27.0098 0.209961 -38.4297 18.4102 -38.3193 36.9102c0.209961 26.0898 21.3799 49.3594 49.1494 49.3594c23.4805 0 38.3809 -16.6104 38.3105 -36.71c-0.200195 -25.8398 -19.9502 -49.7197 -49.1406 -49.5596zM25.8896 585.85
c-27.0098 0.209961 -38.4697 18.4102 -38.3193 36.9102c0.209961 26.0898 21.3799 49.3594 49.1494 49.3594c23.4805 0 38.4707 -16.6104 38.3203 -36.71c-0.209961 -25.8398 -19.9502 -49.7695 -49.1504 -49.5596z" />
    <glyph glyph-name="uni0307" unicode="&#x307;" 
d="M5.5 601.14c-27.0098 0.209961 -38.4707 18.4092 -38.3203 36.9092c0.209961 26.0801 21.3701 49.3496 49.1504 49.3496c23.4805 0 38.4707 -16.5996 38.3105 -36.6992c-0.209961 -25.8496 -19.9502 -49.7695 -49.1406 -49.5596z" />
    <glyph glyph-name="gravecomb" unicode="&#x300;" 
d="M21.2998 542.97l-183.01 108.8l39.8096 55.8604l178.88 -117.33z" />
    <glyph glyph-name="acutecomb" unicode="&#x301;" 
d="M-151.77 542.97l-24.5 51.6299l218.54 119.93l28.8301 -61.6797z" />
    <glyph glyph-name="uni030B" unicode="&#x30b;" 
d="M-293.76 532.6l-41.2402 34l156.41 176.77l45.9697 -37zM-105.34 532.6l-41.2402 34l156.47 176.77l45.9102 -37z" />
    <glyph glyph-name="uni0302" unicode="&#x302;" 
d="M-227.67 539.01l-34.8682 40.7598l166.25 141.11h36.2695l112.68 -141.52l-43.0703 -35.9004l-93.5703 114.49z" />
    <glyph glyph-name="uni030C" unicode="&#x30c;" 
d="M-132.5 545.11l-114.511 141.121l42.3701 35.79l97.3604 -117.28l139.52 119.02l35.9502 -37.5303l-164.42 -141.12h-36.2695z" />
    <glyph glyph-name="uni0306" unicode="&#x306;" 
d="M-108.64 569.68c-76.0596 0 -115.721 51.8896 -104.69 113.319h46.1904c-5.01953 -37.5703 18.7705 -65.6006 62.3105 -65.6006c45.5596 0 77.2998 27.1602 85.3193 65.6006h54.1201c-11.7803 -62.8896 -54.9004 -113.319 -143.25 -113.319z" />
    <glyph glyph-name="uni030A" unicode="&#x30a;" 
d="M-48.3398 532.07c-61.3701 0 -88.791 44.1299 -88.791 90.8604c0 62.8096 50.1602 119.21 117.22 119.21c56.1504 0 88.3906 -39.4404 88.3906 -90.2803c0 -62.8496 -47.5498 -119.79 -116.819 -119.79zM-43.5107 577.34c37.0596 0 65.8398 31.0498 65.8398 68.7803
c0 28.6201 -16.9697 50.75 -47.8193 50.75c-37.5303 0 -65.6904 -32.9199 -65.6904 -69.0703c0 -27.5303 15.8896 -50.46 47.6699 -50.46z" />
    <glyph glyph-name="tildecomb" unicode="&#x303;" 
d="M-39.8301 564.71c-56.4404 0 -82.8887 40.999 -131.759 40.999c-28.8604 0 -50.8408 -12.4102 -72.791 -29.6797l-25.5195 45.6504c29.6396 24.2598 61.7793 42.0596 103.479 42.0596c58.1396 0 87.9795 -41 130.63 -41c26.7598 0 50.25 12.6104 74.79 33.5508
l25.75 -45.8096c-29.9199 -27.4404 -64.1699 -45.7705 -104.58 -45.7705z" />
    <glyph glyph-name="uni0304" unicode="&#x304;" 
d="M-282.68 568.51l10.6494 59.0303h336.9l-10.6602 -59.0303h-336.89z" />
    <glyph glyph-name="uni0327" unicode="&#x327;" 
d="M-177.46 -228.17c-57.1201 0 -96.9092 35.251 -88.7793 91.2109h46.7598c-2.70996 -32.7402 18.1602 -47.7207 47.4502 -47.7207c37.9297 0 62.9795 23.2998 62.9795 59.2598c0 25.3203 -16.96 42.25 -50.4199 42.4697h-53.5303l42.2803 82.9502h48.25l-21.5195 -40.4902
h8.17969c43.8096 -0.320312 77.8398 -30.1807 77.8398 -79.7002c0 -59.46 -40.5 -107.979 -119.49 -107.979z" />
    <glyph glyph-name="uni0328" unicode="&#x328;" 
d="M-116.94 -192.89c-48.0303 0 -87.8408 26.9199 -87.8408 80.8701c0 40.3496 24.04 83.1094 53.4404 112.02h45.6904c-21.6602 -24.5996 -43.7998 -57.0996 -43.7998 -98.0293c0 -32.3604 21.8496 -49.3203 55.4893 -49.3203c8.58008 0 25.4404 1.5498 39.1006 7.17969
l-7.40039 -41.3799c-18.8398 -7.70996 -36.6895 -11.3398 -54.6797 -11.3398z" />
    <glyph glyph-name="uni0337" unicode="&#x337;" 
d="M-195.65 232.91l12.1689 67.6104l247.07 160.49l-12.2197 -67.6104z" />
    <glyph glyph-name="uni0338" unicode="&#x338;" 
d="M-415.96 -78.3496l-40.5908 18.1504l367.11 611l40.9805 -19.1504z" />
    <glyph glyph-name="uni0308.case" 
d="M-96.4502 795.85c-27 0.209961 -38.4697 18.4102 -38.3096 36.9102c0.209961 26.0898 21.3701 49.3594 49.1396 49.3594c23.4805 0 38.4707 -16.6104 38.3203 -36.71c-0.209961 -25.8398 -19.9502 -49.7695 -49.1504 -49.5596zM53.9297 795.85
c-27.0098 0.209961 -38.4697 18.4102 -38.3193 36.9102c0.209961 26.0898 21.3799 49.3594 49.1494 49.3594c23.4805 0 38.4707 -16.6104 38.3203 -36.71c-0.209961 -25.8398 -19.9502 -49.7695 -49.1504 -49.5596z" />
    <glyph glyph-name="uni0307.case" 
d="M43.5 811.14c-27.0098 0.209961 -38.4707 18.4092 -38.3203 36.9092c0.209961 26.0801 21.3701 49.3496 49.1504 49.3496c23.4805 0 38.4707 -16.5996 38.3105 -36.6992c-0.209961 -25.8496 -19.9502 -49.7695 -49.1406 -49.5596z" />
    <glyph glyph-name="gravecomb.case" 
d="M59.2998 752.97l-183.01 108.8l39.8096 55.8604l178.88 -117.33z" />
    <glyph glyph-name="acutecomb.case" 
d="M-113.73 752.97l-24.5 51.6299l218.55 119.93l28.8301 -61.6797z" />
    <glyph glyph-name="uni030B.case" 
d="M-255.72 742.6l-41.2295 34l156.36 176.77l46.0195 -37zM-67.2988 742.6l-41.2295 34l156.42 176.77l45.96 -37z" />
    <glyph glyph-name="uni0302.case" 
d="M-190.22 749.01l-34.8584 40.7598l166.25 141.11h36.2695l112.68 -141.52l-43.0801 -35.9004l-93.5703 114.49z" />
    <glyph glyph-name="uni030C.case" 
d="M-93.96 755.11l-114.511 141.121l42.3799 35.79l97.3496 -117.28l139.53 119.02l35.9404 -37.5303l-164.42 -141.12h-36.2695z" />
    <glyph glyph-name="uni0306.case" 
d="M-73.3496 779.68c-76.0596 0 -115.721 51.8896 -104.69 113.319h46.1904c-5.01953 -37.5703 18.7705 -65.6006 62.3105 -65.6006c45.5498 0 77.29 27.1602 85.3096 65.6006h54.1201c-11.7803 -62.8896 -54.8906 -113.319 -143.24 -113.319z" />
    <glyph glyph-name="uni030A.case" 
d="M-13.6201 742.07c-61.3701 0 -88.8008 44.1299 -88.8008 90.8604c0 62.8096 50.1699 119.21 117.22 119.21c56.1602 0 88.4004 -39.4404 88.4004 -90.2803c0 -62.8496 -47.5596 -119.79 -116.819 -119.79zM-8.79102 787.34c37.0498 0 65.8398 31.0498 65.8398 68.7803
c0 28.6201 -16.9697 50.75 -47.8193 50.75c-37.54 0 -65.7002 -32.9199 -65.7002 -69.0703c0 -27.5303 15.8896 -50.46 47.6797 -50.46z" />
    <glyph glyph-name="tildecomb.case" 
d="M-1.83008 774.71c-56.4404 0 -82.8887 40.999 -131.759 40.999c-28.8604 0 -50.8408 -12.4102 -72.791 -29.6797l-25.5195 45.6504c29.6396 24.2598 61.7793 42.0596 103.479 42.0596c58.1396 0 87.9795 -41 130.63 -41c26.7598 0 50.25 12.6104 74.79 33.5508
l25.75 -45.8096c-29.9199 -27.4404 -64.1699 -45.7705 -104.58 -45.7705z" />
    <glyph glyph-name="uni0304.case" 
d="M-245.12 778.51l10.5498 59.0303h336.89l-10.5498 -59.0303h-336.89z" />
    <glyph glyph-name="uni0327.case" 
d="M-177 -228.17c-57.1104 0 -96.9004 35.249 -88.7803 91.209h46.7695c-2.71973 -32.7402 18.1504 -47.7207 47.4404 -47.7207c37.9404 0 62.9805 23.2998 62.9805 59.2598c0 25.3203 -16.9502 42.4707 -50.4102 42.4707h-53.54l42.29 82.9502h48.2402l-21.5098 -40.4902
h8.17969c43.7998 0 77.8398 -30.1797 77.8398 -79.6992c0 -59.46 -40.5 -107.979 -119.5 -107.979z" />
    <glyph glyph-name="uni0328.case" 
d="M-116.94 -192.89c-48.0303 0 -87.8408 26.9199 -87.8408 80.8701c0 40.3496 24.04 83.1094 53.4404 112.02h45.6904c-21.6602 -24.5996 -43.7998 -57.0996 -43.7998 -98.0293c0 -32.3604 21.8496 -49.3203 55.4893 -49.3203c8.58008 0 25.4404 1.5498 39.1006 7.17969
l-7.40039 -41.3799c-18.8398 -7.70996 -36.6895 -11.3398 -54.6797 -11.3398z" />
    <glyph glyph-name="uni0337.case" 
d="M-195.65 232.91l11.7998 65.8301l247.08 160.49l-11.8604 -65.8301z" />
    <glyph glyph-name="uni0338.case" 
d="M-528.13 -33l-43.1709 29.3701l624.521 753.74l43.1504 -30.3701z" />
    <glyph glyph-name="acute" unicode="&#xb4;" horiz-adv-x="335" 
d="M173.86 542.97l-24.5098 51.6299l218.55 119.93l28.8301 -61.6797z" />
    <glyph glyph-name="breve" unicode="&#x2d8;" horiz-adv-x="424" 
d="M306.08 569.68c-76.0596 0 -115.729 51.8896 -104.689 113.319h46.1797c-5.00977 -37.5703 18.7803 -65.6006 62.3203 -65.6006c45.5498 0 77.29 27.1602 85.3096 65.6006h54.1201c-11.7803 -62.8896 -54.8906 -113.319 -143.24 -113.319z" />
    <glyph glyph-name="caron" unicode="&#x2c7;" horiz-adv-x="429" 
d="M288.67 545.11l-114.511 141.121l42.3701 35.79l97.3604 -117.28l139.52 119.02l35.9502 -37.5303l-164.42 -141.12h-36.2695z" />
    <glyph glyph-name="cedilla" unicode="&#xb8;" horiz-adv-x="297" 
d="M112.37 -228.17c-57.1201 0 -96.9102 35.251 -88.7803 91.2109h46.7598c-2.71973 -32.7402 18.1602 -47.7207 47.4404 -47.7207c37.9404 0 62.9805 23.2998 62.9805 59.2598c0 25.3203 -16.9502 42.25 -50.4102 42.4697h-53.5303l42.2803 82.9502h48.2402
l-21.5098 -40.4902h8.17969c43.8096 -0.320312 77.8398 -30.1807 77.8398 -79.7002c0 -59.46 -40.5 -107.979 -119.49 -107.979z" />
    <glyph glyph-name="circumflex" unicode="&#x2c6;" horiz-adv-x="429" 
d="M189.75 539.01l-34.8594 40.7598l166.25 141.11h36.2695l112.68 -141.52l-43.0801 -35.9004l-93.5596 114.49z" />
    <glyph glyph-name="dieresis" unicode="&#xa8;" horiz-adv-x="337" 
d="M190.35 585.85c-27 0.209961 -38.4209 18.4102 -38.3105 36.9102c0.209961 26.0898 21.3701 49.3594 49.1396 49.3594c23.4805 0 38.3809 -16.6104 38.3213 -36.71c-0.209961 -25.8398 -19.9502 -49.7197 -49.1504 -49.5596zM358.379 585.85
c-27.0098 0.209961 -38.4707 18.4102 -38.3203 36.9102c0.209961 26.0898 21.3701 49.3594 49.1504 49.3594c23.4805 0 38.4707 -16.6104 38.3105 -36.71c-0.209961 -25.8398 -19.9502 -49.7695 -49.1406 -49.5596z" />
    <glyph glyph-name="dotaccent" unicode="&#x2d9;" horiz-adv-x="185" 
d="M215.3 601.14c-27.0098 0.209961 -38.4707 18.4092 -38.3203 36.9092c0.209961 26.0801 21.3701 49.3496 49.1504 49.3496c23.4805 0 38.4707 -16.5996 38.3105 -36.6992c-0.209961 -25.8496 -19.9502 -49.7695 -49.1406 -49.5596z" />
    <glyph glyph-name="grave" unicode="`" horiz-adv-x="467" 
d="M346.47 542.97l-183.01 108.8l39.8096 55.8604l178.88 -117.33z" />
    <glyph glyph-name="hungarumlaut" unicode="&#x2dd;" horiz-adv-x="496" 
d="M200.29 532.6l-41.2393 34l156.42 176.77l45.9697 -37zM388.711 532.6l-41.2402 34l156.48 176.77l45.9102 -37z" />
    <glyph glyph-name="macron" unicode="&#xaf;" horiz-adv-x="442" 
d="M150.52 568.51l10.6494 59.0303h336.9l-10.6602 -59.0303h-336.89z" />
    <glyph glyph-name="ogonek" unicode="&#x2db;" horiz-adv-x="246" 
d="M124.83 -192.89c-48.0303 0 -87.8408 26.9199 -87.8408 80.8701c0 40.3496 24.04 83.1094 53.4404 112.02h45.6904c-21.6602 -24.5996 -43.7998 -57.0996 -43.7998 -98.0293c0 -32.3604 21.8496 -49.3203 55.4893 -49.3203c8.58008 0 25.4404 1.5498 39.1006 7.17969
l-7.40039 -41.3799c-18.8398 -7.70996 -36.6895 -11.3398 -54.6797 -11.3398z" />
    <glyph glyph-name="ring" unicode="&#x2da;" horiz-adv-x="308" 
d="M249.95 532.07c-61.3701 0 -88.8008 44.1299 -88.8008 90.8604c0 62.8096 50.1699 119.21 117.22 119.21c56.1602 0 88.4004 -39.4404 88.4004 -90.2803c0 -62.8496 -47.5596 -119.79 -116.819 -119.79zM254.779 577.34c37.0498 0 65.8398 31.0498 65.8398 68.7803
c0 28.6201 -16.9697 50.75 -47.8193 50.75c-37.54 0 -65.6904 -32.9199 -65.6904 -69.0703c0 -27.5303 15.8799 -50.46 47.6699 -50.46z" />
    <glyph glyph-name="tilde" unicode="&#x2dc;" horiz-adv-x="440" 
d="M391.94 564.71c-56.4404 0 -82.8887 40.999 -131.759 40.999c-28.8604 0 -50.8408 -12.4102 -72.791 -29.6797l-25.5195 45.6504c29.6396 24.2598 61.7793 42.0596 103.479 42.0596c58.1396 0 87.9795 -41 130.63 -41c26.7598 0 50.25 12.6104 74.79 33.5508
l25.75 -45.8096c-29.9199 -27.4404 -64.1699 -45.7705 -104.58 -45.7705z" />
    </font>
</defs>
</svg>
