<?xml version="1.0" standalone="no"?>
<!DOCTYPE svg PUBLIC "-//W3C//DTD SVG 1.1//EN" "http://www.w3.org/Graphics/SVG/1.1/DTD/svg11.dtd" >
<svg xmlns="http://www.w3.org/2000/svg" width="100%" height="100%">
<metadata>
Created by FontXChange 20110222 at Fri Oct  2 13:45:40 2015
 By Killian Grant
2005 published by Monotype GmbH
</metadata>
<defs>
<font id="DINOT-BoldItalic" horiz-adv-x="515" >
  <font-face 
    font-family="DINOT"
    font-weight="700"
    font-style="italic"
    font-stretch="normal"
    units-per-em="1000"
    panose-1="2 11 8 4 2 1 1 1 1 2"
    ascent="764"
    descent="-236"
    x-height="521"
    cap-height="712"
    bbox="-219 -292 1113 1137"
    underline-thickness="82"
    underline-position="-50"
    slope="-11.31"
    stemh="111"
    stemv="123"
    unicode-range="U+000D-FEFF"
  />
<missing-glyph horiz-adv-x="535" 
d="M495 712v-712h-417v712h417zM413 636h-253v-560h253v560z" />
    <glyph glyph-name=".notdef" horiz-adv-x="535" 
d="M495 712v-712h-417v712h417zM413 636h-253v-560h253v560z" />
    <glyph glyph-name=".null" horiz-adv-x="0" 
 />
    <glyph glyph-name=".null" horiz-adv-x="0" 
 />
    <glyph glyph-name="CR" unicode="&#xd;" horiz-adv-x="220" 
 />
    <glyph glyph-name="space" unicode=" " horiz-adv-x="220" 
 />
    <glyph glyph-name="exclam" unicode="!" horiz-adv-x="330" 
d="M348 712l-126 -490h-93l66 490h153zM225 133l-26 -133h-131l26 133h131z" />
    <glyph glyph-name="quotedbl" unicode="&#x22;" horiz-adv-x="441" 
d="M468 712l-42 -211h-117l42 211h117zM273 712l-42 -211h-117l42 211h117z" />
    <glyph glyph-name="numbersign" unicode="#" horiz-adv-x="666" 
d="M672 718l-63 -180h66l-23 -114h-82l-41 -116h70l-23 -114h-87l-68 -194h-132l68 194h-114l-68 -194h-132l68 194h-67l23 114h84l41 116h-71l23 114h87l63 180h132l-63 -180h114l63 180h132zM437 424h-114l-41 -116h114z" />
    <glyph glyph-name="dollar" unicode="$" horiz-adv-x="594" 
d="M183 -114l20 110c-92 5 -152 34 -206 97l96 85c36 -43 83 -64 145 -66l37 192l-29 8c-122 32 -152 102 -152 166c0 126 89 229 245 240l18 88h96l-17 -91c71 -7 131 -34 172 -85l-93 -81c-30 37 -69 50 -114 52l-35 -185l26 -7c117 -29 161 -85 161 -179
c0 -167 -138 -228 -253 -236l-21 -108h-96zM343 292l-34 -181c65 10 112 49 112 102s-30 68 -78 79zM298 428l33 174c-60 -8 -105 -53 -105 -107c0 -41 34 -58 72 -67z" />
    <glyph glyph-name="percent" unicode="%" horiz-adv-x="817" 
d="M148 0l463 712h99l-462 -712h-100zM215 345c-63 0 -121 33 -121 110c0 9 1 22 3 32l18 95c18 94 73 136 156 136c63 0 121 -33 121 -110c0 -9 -1 -22 -3 -32l-18 -95c-18 -94 -73 -136 -156 -136zM225 425c35 0 51 26 57 58l18 93c1 5 2 15 2 21c0 20 -9 41 -41 41
c-35 0 -51 -26 -57 -58l-18 -93c-1 -5 -2 -15 -2 -21c0 -20 9 -41 41 -41zM586 -6c-63 0 -121 33 -121 110c0 9 1 22 3 32l18 95c18 94 73 136 156 136c63 0 121 -33 121 -110c0 -9 -1 -22 -3 -32l-18 -95c-18 -94 -73 -136 -156 -136zM596 74c35 0 51 26 57 58l18 93
c1 5 2 15 2 21c0 20 -9 41 -41 41c-35 0 -51 -26 -57 -58l-18 -93c-1 -5 -2 -15 -2 -21c0 -20 9 -41 41 -41z" />
    <glyph glyph-name="ampersand" unicode="&#x26;" horiz-adv-x="671" 
d="M364 718c140 0 160 -98 160 -149c0 -60 -40 -110 -99 -148l-57 -37l87 -141c30 31 49 73 60 122h118c-19 -91 -55 -159 -116 -220l95 -145h-151l-39 61c-44 -35 -109 -67 -191 -67c-95 0 -193 46 -193 177c0 124 75 182 167 239c-29 46 -44 79 -44 124
c0 73 44 184 203 184zM363 154l-105 168c-58 -35 -96 -74 -96 -133c0 -49 34 -84 84 -84c40 0 83 20 117 49zM358 613c-51 0 -71 -42 -71 -78c0 -22 13 -46 27 -68l32 20c35 22 59 43 59 77c0 31 -19 49 -47 49z" />
    <glyph glyph-name="quotesingle" unicode="'" horiz-adv-x="246" 
d="M273 712l-42 -211h-117l42 211h117z" />
    <glyph glyph-name="parenleft" unicode="(" horiz-adv-x="311" 
d="M280 806l70 -92c-21 -18 -48 -42 -63 -62c-13 -18 -25 -43 -32 -79l-85 -424c-5 -25 -8 -47 -8 -60c0 -24 9 -54 48 -100l-94 -83c-63 77 -78 117 -78 170c0 16 4 46 10 77l85 426c9 43 18 86 46 126c25 35 61 68 101 101z" />
    <glyph glyph-name="parenright" unicode=")" horiz-adv-x="311" 
d="M140 723l94 83c63 -77 78 -117 78 -170c0 -16 -4 -46 -10 -77l-85 -426c-9 -43 -18 -86 -46 -126c-25 -35 -61 -68 -101 -101l-70 92c21 18 48 42 63 62c13 18 25 43 32 79l85 424c4 21 8 44 8 60c0 24 -9 54 -48 100z" />
    <glyph glyph-name="asterisk" unicode="*" horiz-adv-x="470" 
d="M282 712l84 -16l-27 -118l111 43l29 -80l-116 -35l93 -76l-57 -64l-86 83l-20 -119l-84 16l28 118l-112 -43l-28 80l116 35l-94 76l57 64l87 -82z" />
    <glyph glyph-name="plus" unicode="+" horiz-adv-x="516" 
d="M365 507l-33 -164h153l-23 -115h-153l-32 -164h-116l33 164h-152l23 115h152l33 164h115z" />
    <glyph glyph-name="comma" unicode="," horiz-adv-x="260" 
d="M173 142l-39 -197l-157 -110l62 307h134z" />
    <glyph glyph-name="hyphen" unicode="-" horiz-adv-x="408" 
d="M367 343l-23 -115h-293l23 115h293z" />
    <glyph glyph-name="period" unicode="." horiz-adv-x="267" 
d="M181 148l-29 -148h-141l30 148h140z" />
    <glyph glyph-name="slash" unicode="/" horiz-adv-x="390" 
d="M495 786l-442 -860h-120l443 860h119z" />
    <glyph glyph-name="zero" unicode="0" horiz-adv-x="520" 
d="M344 718c108 0 177 -71 177 -171c0 -13 -2 -34 -5 -49l-57 -290c-32 -164 -141 -214 -237 -214c-108 0 -178 71 -178 171c0 13 2 34 5 49l58 290c32 164 141 214 237 214zM333 607c-41 0 -87 -20 -103 -99l-58 -299c-2 -11 -5 -24 -5 -35c0 -51 34 -69 65 -69
c41 0 87 20 103 99l59 299c2 11 4 24 4 35c0 51 -34 69 -65 69z" />
    <glyph glyph-name="one" unicode="1" horiz-adv-x="520" 
d="M451 712l-142 -712h-124l114 570l-162 -117l28 143l162 116h124z" />
    <glyph glyph-name="two" unicode="2" horiz-adv-x="520" 
d="M339 718c111 0 180 -64 180 -177c0 -89 -54 -143 -97 -187l-238 -243h262l-23 -111h-420l23 111l308 313c41 42 60 68 60 111c0 46 -25 72 -68 72c-45 0 -87 -24 -103 -93h-125c24 136 111 204 241 204z" />
    <glyph glyph-name="three" unicode="3" horiz-adv-x="520" 
d="M337 718c106 0 174 -74 174 -169c0 -75 -32 -146 -109 -185c44 -25 64 -61 64 -127c0 -136 -104 -243 -237 -243c-125 0 -202 67 -202 169c0 13 1 23 3 36h122c-2 -8 -2 -11 -2 -22c0 -40 26 -72 80 -72c62 0 111 60 111 127c0 47 -25 78 -80 78h-19l21 108h20
c60 0 104 59 104 117c0 46 -26 72 -67 72c-44 0 -88 -30 -102 -87h-125c31 134 119 198 244 198z" />
    <glyph glyph-name="four" unicode="4" horiz-adv-x="520" 
d="M487 712l-328 -491h141l27 132h118l-26 -132h65l-24 -117h-63l-21 -104h-118l20 104h-281l23 117l329 491h138z" />
    <glyph glyph-name="five" unicode="5" horiz-adv-x="520" 
d="M542 712l-22 -111h-273l-31 -158c31 25 62 33 102 33c110 0 159 -79 159 -162c0 -23 -3 -52 -7 -74c-13 -67 -35 -136 -83 -184c-37 -37 -89 -62 -163 -62c-114 0 -179 72 -179 166c0 5 0 21 2 36h119c-1 -7 -1 -14 -1 -20c0 -40 18 -71 66 -71c68 0 97 57 112 135
c4 23 7 42 7 58c0 41 -14 73 -64 73c-48 0 -78 -27 -96 -59h-112l80 400h384z" />
    <glyph glyph-name="six" unicode="6" horiz-adv-x="520" 
d="M472 712l-203 -300c14 4 25 6 42 6c94 0 159 -72 159 -184c0 -137 -93 -240 -229 -240c-144 0 -201 101 -201 189c0 72 26 122 82 207l213 322h137zM267 318c-69 0 -103 -65 -103 -124c0 -56 30 -89 78 -89c66 0 104 62 104 125c0 56 -31 88 -79 88z" />
    <glyph glyph-name="seven" unicode="7" horiz-adv-x="520" 
d="M571 712l-22 -111l-334 -601h-137l333 601h-180l-22 -109h-118l43 220h437z" />
    <glyph glyph-name="eight" unicode="8" horiz-adv-x="520" 
d="M334 718c110 0 190 -71 190 -184c0 -77 -47 -145 -109 -176c28 -22 59 -60 59 -131c0 -127 -87 -233 -244 -233c-107 0 -197 58 -197 186c0 82 41 154 122 195c-26 23 -52 60 -52 123c0 121 92 220 231 220zM269 311c-64 0 -111 -52 -111 -121c0 -46 29 -85 80 -85
c64 0 110 51 110 121c0 46 -28 85 -79 85zM328 607c-60 0 -101 -53 -101 -113c0 -41 24 -75 71 -75c60 0 101 52 101 112c0 41 -24 76 -71 76z" />
    <glyph glyph-name="nine" unicode="9" horiz-adv-x="520" 
d="M325 718c144 0 201 -101 201 -189c0 -72 -26 -122 -82 -207l-213 -322h-137l203 300c-14 -4 -25 -6 -42 -6c-94 0 -159 72 -159 184c0 137 93 240 229 240zM324 607c-66 0 -104 -62 -104 -125c0 -56 31 -88 79 -88c69 0 103 65 103 124c0 56 -30 89 -78 89z" />
    <glyph glyph-name="colon" unicode=":" horiz-adv-x="294" 
d="M209 148l-30 -148h-141l30 148h141zM261 419l-29 -148h-141l30 148h140z" />
    <glyph glyph-name="semicolon" unicode=";" horiz-adv-x="294" 
d="M205 142l-39 -197l-158 -110l62 307h135zM262 419l-30 -148h-141l30 148h141z" />
    <glyph glyph-name="less" unicode="&#x3c;" horiz-adv-x="516" 
d="M492 532l-27 -138l-264 -109l222 -117l-25 -127l-354 199l22 106z" />
    <glyph glyph-name="equal" unicode="=" horiz-adv-x="516" 
d="M508 448l-23 -115h-422l24 115h421zM467 238l-24 -115h-421l24 115h421z" />
    <glyph glyph-name="greater" unicode="&#x3e;" horiz-adv-x="516" 
d="M34 38l27 138l264 109l-222 117l25 127l354 -199l-22 -106z" />
    <glyph glyph-name="question" unicode="?" horiz-adv-x="497" 
d="M353 718c86 0 165 -59 165 -159c0 -68 -28 -116 -74 -166l-89 -99c-11 -12 -24 -32 -28 -51l-5 -21h-124l7 31c8 38 22 70 55 105l88 94c25 27 45 56 45 94c0 33 -21 61 -59 61c-53 0 -85 -32 -95 -83h-125c24 136 120 194 239 194zM312 133l-26 -133h-131l26 133h131z
" />
    <glyph glyph-name="at" unicode="@" horiz-adv-x="722" 
d="M376 716h147c75 0 124 -23 154 -56c32 -35 41 -80 41 -119c0 -20 -5 -54 -9 -76l-93 -465h-113l9 46c-37 -38 -73 -52 -118 -52c-94 0 -140 64 -140 134c0 27 5 57 14 102c18 89 31 145 79 190c36 34 80 47 125 47c51 0 86 -19 109 -51l10 53c3 15 5 30 5 43
c0 28 -7 48 -21 64c-19 21 -47 30 -85 30h-118c-47 0 -77 -9 -104 -33c-33 -28 -44 -62 -52 -104l-59 -295c-3 -13 -5 -27 -5 -44c0 -19 8 -36 26 -57l-97 -84c-38 43 -49 83 -49 118c0 22 3 48 6 63l59 300c17 88 43 143 83 183c43 43 108 63 196 63zM493 364
c-61 0 -88 -43 -107 -134c-5 -23 -8 -45 -8 -66c0 -35 16 -67 59 -67c61 0 88 42 107 133c5 23 8 46 8 67c0 35 -16 67 -59 67z" />
    <glyph glyph-name="A" unicode="A" horiz-adv-x="607" 
d="M447 712l105 -712h-134l-15 130h-241l-67 -130h-141l388 712h105zM359 512l-143 -274h177z" />
    <glyph glyph-name="B" unicode="B" horiz-adv-x="626" 
d="M171 712h258c131 0 185 -79 185 -165c0 -65 -26 -141 -116 -186c41 -26 68 -59 68 -125c0 -143 -104 -236 -240 -236h-298zM358 303h-137l-37 -186h138c69 0 111 49 111 113c0 42 -24 73 -75 73zM406 595h-126l-36 -175h127c78 0 109 59 109 105c0 33 -14 70 -74 70z" />
    <glyph glyph-name="C" unicode="C" horiz-adv-x="590" 
d="M380 718c146 0 216 -97 216 -220h-132c-1 58 -27 104 -92 104c-44 0 -71 -16 -96 -41c-29 -30 -46 -76 -71 -205c-11 -59 -20 -115 -20 -150c0 -61 41 -96 95 -96c70 0 113 51 132 104h132c-48 -147 -148 -220 -274 -220c-136 0 -218 89 -218 202c0 31 4 80 21 160
c28 138 45 215 106 281c54 57 130 81 201 81z" />
    <glyph glyph-name="D" unicode="D" horiz-adv-x="625" 
d="M171 712h233c118 0 210 -61 210 -199c0 -31 -5 -63 -23 -154c-34 -174 -53 -230 -114 -289c-48 -46 -115 -70 -196 -70h-253zM381 596h-101l-96 -480h100c42 0 76 12 104 39c29 28 45 69 71 204c16 82 22 120 22 143c0 64 -39 94 -100 94z" />
    <glyph glyph-name="E" unicode="E" horiz-adv-x="578" 
d="M615 712l-23 -116h-312l-36 -179h269l-23 -116h-269l-37 -185h318l-23 -116h-451l143 712h444z" />
    <glyph glyph-name="F" unicode="F" horiz-adv-x="560" 
d="M615 712l-23 -116h-312l-37 -186h267l-23 -116h-268l-59 -294h-132l143 712h444z" />
    <glyph glyph-name="G" unicode="G" horiz-adv-x="615" 
d="M382 718c146 0 219 -96 219 -223h-132c-2 65 -34 107 -95 107c-41 0 -70 -15 -96 -41c-34 -35 -48 -86 -73 -205c-13 -60 -20 -115 -20 -150c0 -61 42 -96 96 -96c63 0 128 47 146 143l6 31h-124l22 110h254l-19 -102c-18 -95 -45 -161 -98 -218
c-50 -52 -119 -80 -197 -80c-146 0 -219 96 -219 202c0 41 7 94 21 160c34 167 49 218 108 281c52 55 129 81 201 81z" />
    <glyph glyph-name="H" unicode="H" horiz-adv-x="655" 
d="M665 712l-143 -712h-132l61 302h-230l-61 -302h-132l143 712h132l-58 -294h230l58 294h132z" />
    <glyph glyph-name="I" unicode="I" horiz-adv-x="293" 
d="M303 712l-143 -712h-132l143 712h132z" />
    <glyph glyph-name="J" unicode="J" horiz-adv-x="487" 
d="M507 712l-98 -487c-39 -193 -176 -231 -260 -231c-87 0 -139 26 -179 77l95 81c21 -27 47 -42 87 -42c46 0 108 26 127 123l96 479h132z" />
    <glyph glyph-name="K" unicode="K" horiz-adv-x="644" 
d="M702 712l-281 -297l163 -415h-144l-125 329l-111 -110l-44 -219h-132l143 712h132l-62 -310l297 310h164z" />
    <glyph glyph-name="L" unicode="L" horiz-adv-x="550" 
d="M303 712l-119 -596h310l-23 -116h-443l143 712h132z" />
    <glyph glyph-name="M" unicode="M" horiz-adv-x="773" 
d="M783 712l-143 -712h-132l85 421l-179 -263h-89l-80 265l-85 -423h-132l143 712h124l101 -380l258 380h129z" />
    <glyph glyph-name="N" unicode="N" horiz-adv-x="680" 
d="M690 712l-143 -712h-112l-185 445l-90 -445h-132l143 712h112l186 -446l89 446h132z" />
    <glyph glyph-name="O" unicode="O" horiz-adv-x="611" 
d="M379 718c137 0 215 -91 215 -202c0 -32 -4 -80 -20 -160c-27 -138 -45 -216 -106 -280c-55 -59 -129 -82 -201 -82c-137 0 -215 91 -215 202c0 32 4 80 20 160c27 138 45 216 106 280c55 59 129 82 201 82zM370 602c-39 0 -69 -14 -95 -43s-45 -73 -71 -203
c-12 -60 -20 -114 -20 -149c0 -64 43 -97 92 -97c39 0 69 14 95 43s45 72 71 203c12 59 20 114 20 149c0 64 -42 97 -92 97z" />
    <glyph glyph-name="P" unicode="P" horiz-adv-x="597" 
d="M171 712h253c121 0 191 -77 191 -188c0 -127 -92 -248 -263 -248h-137l-55 -276h-132zM402 595h-122l-41 -202h118c86 0 125 66 125 120c0 45 -21 82 -80 82z" />
    <glyph glyph-name="Q" unicode="Q" horiz-adv-x="610" 
d="M380 718c137 0 215 -91 215 -202c0 -32 -4 -80 -20 -160c-25 -126 -42 -202 -91 -263l48 -63l-79 -70l-50 66c-42 -23 -89 -32 -135 -32c-137 0 -215 91 -215 202c0 32 4 80 20 160c27 138 45 216 106 280c55 59 129 82 201 82zM371 602c-39 0 -69 -14 -95 -43
s-45 -73 -71 -203c-12 -60 -20 -114 -20 -149c0 -64 43 -97 92 -97c20 0 37 4 53 11l-53 70l79 70l46 -60c13 31 26 78 41 155c12 59 20 114 20 149c0 64 -42 97 -92 97z" />
    <glyph glyph-name="R" unicode="R" horiz-adv-x="625" 
d="M171 712h250c144 0 194 -91 194 -191c0 -88 -55 -181 -166 -218l98 -303h-145l-83 288h-100l-59 -288h-132zM400 595h-120l-40 -197h120c90 0 123 69 123 116c0 51 -29 81 -83 81z" />
    <glyph glyph-name="S" unicode="S" horiz-adv-x="563" 
d="M373 718c83 0 157 -28 204 -86l-93 -81c-31 37 -70 52 -126 52c-83 0 -132 -56 -132 -108c0 -45 36 -60 76 -70l59 -14c118 -29 161 -84 161 -185c0 -160 -135 -232 -285 -232c-112 0 -180 27 -240 98l96 84c38 -45 88 -65 156 -65c79 0 141 45 141 103
c0 51 -30 68 -75 79l-59 15c-117 29 -162 96 -162 169c0 136 105 241 279 241z" />
    <glyph glyph-name="T" unicode="T" horiz-adv-x="544" 
d="M605 712l-23 -117h-175l-119 -595h-132l119 595h-179l23 117h486z" />
    <glyph glyph-name="U" unicode="U" horiz-adv-x="638" 
d="M658 712l-94 -468c-35 -175 -153 -250 -285 -250c-121 0 -217 77 -217 203c0 19 4 46 7 61l91 454h132l-93 -462c-2 -10 -5 -31 -5 -44c0 -49 27 -95 94 -95c76 0 128 52 147 146l91 455h132z" />
    <glyph glyph-name="V" unicode="V" horiz-adv-x="556" 
d="M642 712l-363 -712h-104l-81 712h130l48 -472l228 472h142z" />
    <glyph glyph-name="W" unicode="W" horiz-adv-x="844" 
d="M929 712l-318 -712h-111l-37 438l-216 -438h-110l-42 712h136l16 -455l216 455h99l35 -455l192 455h140z" />
    <glyph glyph-name="X" unicode="X" horiz-adv-x="586" 
d="M647 712l-264 -352l143 -360h-148l-88 253l-180 -253h-154l280 370l-132 342h147l79 -234l163 234h154z" />
    <glyph glyph-name="Y" unicode="Y" horiz-adv-x="544" 
d="M635 712l-286 -425l-58 -287h-132l59 292l-129 420h140l76 -295l184 295h146z" />
    <glyph glyph-name="Z" unicode="Z" horiz-adv-x="531" 
d="M575 712l-21 -103l-380 -492h288l-24 -117h-450l21 103l380 492h-275l23 117h438z" />
    <glyph glyph-name="bracketleft" unicode="[" horiz-adv-x="352" 
d="M414 786l-22 -111h-116l-128 -638h126l-22 -111h-249l171 860h240z" />
    <glyph glyph-name="backslash" unicode="\" horiz-adv-x="378" 
d="M216 773l97 -847h-112l-98 847h113z" />
    <glyph glyph-name="bracketright" unicode="]" horiz-adv-x="352" 
d="M386 786l-171 -860h-240l22 110h117l128 640h-126l22 110h248z" />
    <glyph glyph-name="asciicircum" unicode="^" horiz-adv-x="582" 
d="M444 719l104 -330h-124l-62 198l-141 -198h-135l236 330h122z" />
    <glyph glyph-name="underscore" unicode="_" horiz-adv-x="516" 
d="M446 -91l-17 -82h-516l17 82h516z" />
    <glyph glyph-name="grave" unicode="`" 
d="M333 768l45 -167h-91l-72 167h118z" />
    <glyph glyph-name="a" unicode="a" horiz-adv-x="509" 
d="M160 -6c-91 0 -149 59 -149 138c0 51 17 93 47 123c39 38 92 54 152 54h124l7 31c2 10 3 17 3 27c0 35 -25 56 -77 56c-51 0 -86 -20 -112 -49l-64 83c42 43 96 70 193 70c87 0 185 -34 185 -145c0 -14 -2 -32 -5 -46l-68 -336h-119l9 45c-29 -29 -69 -51 -126 -51z
M199 94c34 0 62 13 81 32c16 16 26 41 31 67l6 31h-95c-56 0 -89 -34 -89 -80c0 -29 21 -50 66 -50z" />
    <glyph glyph-name="b" unicode="b" horiz-adv-x="533" 
d="M283 712l-47 -236c24 28 65 51 121 51c78 0 143 -45 143 -151c0 -22 -5 -63 -15 -115c-18 -98 -36 -169 -84 -217c-34 -34 -82 -50 -133 -50c-59 0 -98 21 -121 59l-10 -53h-120l142 712h124zM309 416c-74 0 -97 -60 -116 -155c-5 -27 -11 -62 -11 -84
c0 -31 9 -72 63 -72c74 0 97 61 116 156c5 27 11 61 11 83c0 31 -9 72 -63 72z" />
    <glyph glyph-name="c" unicode="c" horiz-adv-x="461" 
d="M313 527c76 0 122 -32 153 -72l-93 -82c-20 27 -41 43 -72 43c-27 0 -52 -10 -74 -33c-27 -28 -46 -73 -55 -122c-4 -23 -7 -43 -7 -67c0 -55 26 -89 74 -89c35 0 62 15 91 44l69 -89c-44 -41 -105 -66 -172 -66c-99 0 -187 63 -187 186c0 25 3 54 8 81
c39 212 159 266 265 266z" />
    <glyph glyph-name="d" unicode="d" horiz-adv-x="533" 
d="M556 712l-142 -712h-120l11 50c-35 -40 -80 -56 -129 -56c-110 0 -141 79 -141 144c0 25 2 53 16 122c21 107 43 176 83 216s85 51 132 51s92 -16 118 -56l48 241h124zM291 416c-74 0 -97 -61 -116 -156c-5 -27 -11 -62 -11 -84c0 -31 8 -71 62 -71c74 0 97 60 116 155
c5 27 11 62 11 84c0 31 -8 72 -62 72z" />
    <glyph glyph-name="e" unicode="e" horiz-adv-x="523" 
d="M301 527c110 0 185 -73 185 -186c0 -35 -7 -78 -16 -118h-312c-2 -12 -4 -25 -4 -37c0 -51 29 -87 89 -87c50 0 88 18 124 53l65 -82c-54 -50 -125 -76 -203 -76c-90 0 -193 46 -193 183c0 175 85 350 265 350zM294 425c-53 0 -97 -34 -120 -119h191c2 11 3 24 3 35
c0 55 -30 84 -74 84z" />
    <glyph glyph-name="f" unicode="f" horiz-adv-x="325" 
d="M392 720l-21 -105h-44c-30 0 -50 -16 -57 -51l-12 -59h91l-19 -95h-91l-82 -410h-124l82 410h-51l19 95h51l15 72c18 91 74 143 170 143h73z" />
    <glyph glyph-name="g" unicode="g" horiz-adv-x="527" 
d="M262 527c54 0 94 -20 118 -59l10 53h120l-100 -501c-30 -152 -130 -217 -250 -217c-76 0 -129 21 -173 71l86 75c16 -18 38 -41 87 -41c69 0 113 46 127 113l11 53c-27 -32 -64 -52 -116 -52c-77 0 -144 49 -144 147c0 25 5 62 13 106c18 100 38 160 78 200
c39 39 86 52 133 52zM285 416c-64 0 -92 -48 -110 -142c-6 -32 -9 -56 -9 -72c0 -39 16 -69 62 -69c64 0 92 48 110 142c6 32 9 56 9 72c0 43 -20 69 -62 69z" />
    <glyph glyph-name="h" unicode="h" horiz-adv-x="544" 
d="M283 712l-47 -232c33 30 77 47 128 47c64 0 137 -41 137 -144c0 -19 -3 -40 -7 -58l-65 -325h-124l64 317c2 11 4 24 4 34c0 45 -31 65 -63 65c-35 0 -89 -18 -105 -100l-64 -316h-124l142 712h124z" />
    <glyph glyph-name="i" unicode="i" horiz-adv-x="262" 
d="M243 505l-101 -505h-124l101 505h124zM285 710l-21 -103h-127l20 103h128z" />
    <glyph glyph-name="j" unicode="j" horiz-adv-x="262" 
d="M243 505l-110 -553c-18 -91 -76 -147 -168 -147h-77l21 105h45c31 0 50 21 56 53l109 542h124zM285 710l-21 -103h-127l20 103h128z" />
    <glyph glyph-name="k" unicode="k" horiz-adv-x="536" 
d="M283 712l-80 -403l206 212h147l-218 -217l138 -304h-142l-90 227l-71 -66l-32 -161h-124l142 712h124z" />
    <glyph glyph-name="l" unicode="l" horiz-adv-x="311" 
d="M279 712l-109 -546c-2 -8 -3 -20 -3 -27c0 -21 15 -34 44 -34h41l-21 -105h-55c-49 0 -83 13 -106 35c-20 20 -30 46 -30 78c0 18 4 41 7 56l108 543h124z" />
    <glyph glyph-name="m" unicode="m" horiz-adv-x="832" 
d="M643 527c70 0 145 -46 145 -144c0 -23 -3 -42 -6 -58l-65 -325h-124l63 317c2 11 4 24 4 34c0 45 -31 65 -62 65c-35 0 -90 -18 -106 -100l-63 -316h-124l63 317c2 11 4 24 4 34c0 45 -30 65 -61 65c-35 0 -91 -18 -107 -100l-63 -316h-124l104 521h119l-10 -50
c34 35 83 56 137 56c37 0 85 -17 113 -67c36 38 80 67 163 67z" />
    <glyph glyph-name="n" unicode="n" horiz-adv-x="544" 
d="M368 527c61 0 133 -41 133 -144c0 -19 -3 -41 -7 -58l-65 -325h-124l64 317c2 12 4 24 4 34c0 45 -30 65 -62 65c-36 0 -90 -18 -106 -100l-64 -316h-124l104 521h119l-9 -50c33 36 83 56 137 56z" />
    <glyph glyph-name="o" unicode="o" horiz-adv-x="516" 
d="M302 527c87 0 176 -52 176 -172c0 -32 -6 -71 -10 -94c-22 -110 -48 -163 -93 -207c-40 -38 -94 -60 -160 -60c-88 0 -177 52 -177 172c0 32 6 71 11 95c22 109 47 162 93 206c39 38 94 60 160 60zM289 416c-25 0 -48 -10 -64 -26c-25 -24 -40 -65 -53 -129
c-9 -45 -11 -69 -11 -81c0 -50 27 -75 66 -75c26 0 48 10 64 26c25 24 41 65 53 130c9 44 11 69 11 80c0 51 -27 75 -66 75z" />
    <glyph glyph-name="p" unicode="p" horiz-adv-x="532" 
d="M359 527c110 0 141 -79 141 -144c0 -25 -2 -53 -16 -122c-21 -107 -43 -176 -83 -216s-85 -51 -132 -51s-92 16 -118 56l-48 -241h-124l142 712h120l-11 -50c35 40 80 56 129 56zM309 416c-74 0 -97 -60 -116 -155c-5 -27 -11 -62 -11 -84c0 -31 8 -72 62 -72
c74 0 97 61 116 156c5 27 11 62 11 84c0 31 -8 71 -62 71z" />
    <glyph glyph-name="q" unicode="q" horiz-adv-x="533" 
d="M265 527c59 0 98 -21 121 -59l10 53h120l-142 -712h-124l47 236c-24 -28 -65 -51 -121 -51c-78 0 -143 45 -143 151c0 22 5 63 15 115c18 98 36 169 84 217c34 34 82 50 133 50zM288 416c-74 0 -97 -61 -116 -156c-5 -27 -11 -61 -11 -83c0 -31 9 -72 63 -72
c74 0 97 60 116 155c5 27 11 62 11 84c0 31 -9 72 -63 72z" />
    <glyph glyph-name="r" unicode="r" horiz-adv-x="429" 
d="M362 527c50 0 83 -16 111 -49l-107 -95c-13 17 -30 32 -57 32c-49 0 -93 -40 -105 -100l-63 -315h-124l104 521h120l-11 -51c29 35 78 57 132 57z" />
    <glyph glyph-name="s" unicode="s" horiz-adv-x="475" 
d="M286 527c74 0 128 -18 173 -64l-85 -75c-24 25 -62 37 -99 37c-63 0 -91 -31 -91 -63c0 -22 16 -34 48 -39l67 -11c93 -15 126 -63 126 -135c0 -52 -22 -93 -56 -126c-42 -41 -114 -57 -181 -57c-93 0 -155 28 -201 78l89 78c26 -30 61 -50 120 -50c71 0 106 34 106 65
c0 28 -19 38 -49 43l-68 11c-95 16 -125 69 -125 118c0 48 18 95 53 130c39 39 99 60 173 60z" />
    <glyph glyph-name="t" unicode="t" horiz-adv-x="336" 
d="M285 661l-31 -156h86l-19 -95h-86l-49 -244c-2 -8 -3 -20 -3 -27c0 -21 15 -34 44 -34h41l-21 -105h-55c-49 0 -84 12 -106 35c-19 20 -30 46 -30 78c0 18 4 41 7 56l48 241h-52l19 95h52l31 156h124z" />
    <glyph glyph-name="u" unicode="u" horiz-adv-x="544" 
d="M527 521l-104 -521h-119l9 50c-33 -36 -83 -56 -137 -56c-61 0 -133 41 -133 144c0 19 3 41 7 58l65 325h124l-64 -317c-2 -12 -4 -24 -4 -34c0 -45 30 -65 62 -65c36 0 90 18 106 100l64 316h124z" />
    <glyph glyph-name="v" unicode="v" horiz-adv-x="469" 
d="M134 0l-78 521h123l37 -336l168 336h133l-285 -521h-98z" />
    <glyph glyph-name="w" unicode="w" horiz-adv-x="718" 
d="M765 521l-249 -521h-98l-41 331l-171 -331h-100l-49 521h124l18 -325l165 325h90l38 -325l142 325h131z" />
    <glyph glyph-name="x" unicode="x" horiz-adv-x="509" 
d="M531 521l-210 -259l123 -262h-143l-65 163l-121 -163h-153l221 269l-118 252h143l61 -155l111 155h151z" />
    <glyph glyph-name="y" unicode="y" horiz-adv-x="464" 
d="M515 521l-325 -605c-12 -23 -27 -45 -43 -61c-33 -33 -72 -46 -124 -46h-48l23 112h28c36 0 52 17 71 54l33 62l-74 484h123l38 -336l167 336h131z" />
    <glyph glyph-name="z" unicode="z" horiz-adv-x="461" 
d="M470 521l-19 -95l-279 -315h223l-22 -111h-386l19 95l277 315h-208l22 111h373z" />
    <glyph glyph-name="braceleft" unicode="{" horiz-adv-x="435" 
d="M330 -74h-96c-94 0 -125 65 -125 119c0 16 2 27 4 37l30 147c2 10 3 19 3 27c0 25 -15 52 -56 52h-42l23 110h43c22 0 40 7 54 19s22 32 28 60l28 141c9 45 23 85 58 115c27 23 65 33 112 33h98l-22 -111h-46c-61 0 -72 -18 -84 -76l-29 -143c-13 -66 -48 -89 -86 -98
c29 -14 48 -38 48 -78c0 -8 -1 -19 -3 -29l-27 -136c-3 -16 -5 -28 -5 -40c0 -31 18 -38 57 -38h57z" />
    <glyph glyph-name="bar" unicode="|" horiz-adv-x="333" 
d="M334 786l-172 -860h-123l171 860h124z" />
    <glyph glyph-name="braceright" unicode="}" horiz-adv-x="435" 
d="M143 786h96c94 0 125 -65 125 -119c0 -16 -2 -27 -4 -37l-30 -147c-2 -10 -3 -19 -3 -27c0 -25 15 -52 56 -52h42l-23 -110h-43c-22 0 -40 -7 -54 -19s-22 -32 -28 -60l-28 -141c-9 -45 -23 -85 -58 -115c-27 -23 -65 -33 -112 -33h-98l22 111h46c61 0 72 18 84 76
l29 143c13 66 48 89 86 98c-29 14 -48 38 -48 78c0 8 1 19 3 29l27 136c3 16 5 28 5 40c0 31 -18 38 -57 38h-57z" />
    <glyph glyph-name="asciitilde" unicode="~" horiz-adv-x="577" 
d="M208 374c41 0 71 -11 107 -32c29 -17 50 -24 75 -24c27 0 56 6 95 42l64 -83c-77 -71 -131 -77 -169 -77c-41 0 -71 11 -107 32c-29 17 -51 24 -76 24c-27 0 -55 -7 -94 -43l-65 84c77 71 132 77 170 77z" />
    <glyph glyph-name="uni00A0" unicode="&#xa0;" horiz-adv-x="220" 
 />
    <glyph glyph-name="exclamdown" unicode="&#xa1;" horiz-adv-x="330" 
d="M-18 -191l126 490h93l-66 -490h-153zM105 388l26 133h131l-26 -133h-131z" />
    <glyph glyph-name="cent" unicode="&#xa2;" horiz-adv-x="484" 
d="M409 712l-17 -86c55 -13 92 -43 115 -79l-91 -75c-13 22 -34 37 -59 42l-59 -299c28 4 53 18 77 42l68 -83c-46 -42 -85 -63 -154 -73l-20 -101h-96l21 105c-69 17 -134 87 -134 194c0 146 76 310 236 328l17 85h96zM230 218l57 296c-20 -7 -43 -25 -59 -50
c-27 -42 -44 -103 -44 -157c0 -36 11 -77 46 -89z" />
    <glyph glyph-name="sterling" unicode="&#xa3;" horiz-adv-x="551" 
d="M401 718c87 0 139 -26 179 -77l-94 -81c-22 27 -47 42 -87 42c-47 0 -107 -26 -127 -123l-18 -86h109l-19 -95h-109l-36 -181h284l-23 -117h-416l59 298h-57l18 95h58l19 94c39 192 176 231 260 231z" />
    <glyph glyph-name="currency" unicode="&#xa4;" horiz-adv-x="659" 
d="M520 551l75 -76l-69 -68c28 -39 40 -78 40 -122c0 -43 -12 -82 -40 -121l69 -69l-75 -75l-69 68c-28 -18 -77 -30 -121 -30c-45 0 -94 12 -122 30l-68 -68l-76 75l69 69c-27 39 -39 78 -39 121c0 44 12 83 39 122l-69 68l76 76l68 -69c28 19 77 31 122 31
c44 0 93 -12 121 -31zM330 410c-68 0 -125 -57 -125 -125c0 -67 57 -124 125 -124c67 0 124 57 124 124c0 68 -57 125 -124 125z" />
    <glyph glyph-name="yen" unicode="&#xa5;" horiz-adv-x="544" 
d="M194 174h-142l15 78h143l8 40l-11 35h-125l16 78h85l-94 307h141l75 -295l184 295h146l-207 -307h90l-16 -78h-126l-27 -40l-7 -35h144l-15 -78h-145l-34 -174h-132z" />
    <glyph glyph-name="brokenbar" unicode="&#xa6;" horiz-adv-x="333" 
d="M334 786l-70 -350h-124l70 350h124zM232 276l-70 -350h-123l69 350h124z" />
    <glyph glyph-name="section" unicode="&#xa7;" horiz-adv-x="504" 
d="M326 718c104 0 158 -64 158 -143c0 -8 -1 -18 -2 -24h-111c4 45 -23 61 -57 61c-50 0 -76 -33 -76 -73c0 -28 16 -45 51 -59l53 -21c52 -21 101 -72 101 -148c0 -81 -34 -153 -116 -197c32 -23 54 -54 54 -117c0 -94 -60 -194 -215 -194c-90 0 -160 55 -160 143
c0 9 0 19 1 29h115c-4 -36 16 -63 60 -63c40 0 80 23 80 80c0 26 -14 51 -53 67l-52 21c-57 23 -101 73 -101 148c0 81 40 158 118 197c-35 29 -51 62 -51 114c0 88 66 179 203 179zM267 362c-25 0 -41 -9 -55 -21c-17 -15 -31 -37 -38 -72c-2 -10 -3 -17 -3 -27
c0 -51 35 -65 60 -65s42 8 56 20c17 15 31 37 38 72c2 10 3 18 3 28c0 49 -33 65 -61 65z" />
    <glyph glyph-name="dieresis" unicode="&#xa8;" 
d="M508 725l-24 -122h-106l24 122h106zM299 725l-24 -122h-106l24 122h106z" />
    <glyph glyph-name="copyright" unicode="&#xa9;" horiz-adv-x="835" 
d="M438 -5c-200 0 -362 162 -362 361s162 361 362 361c199 0 360 -162 360 -361s-161 -361 -360 -361zM445 164c-95 0 -176 61 -176 192s81 192 176 192c51 0 90 -17 126 -48l-50 -51c-27 23 -47 30 -76 30c-63 0 -98 -45 -98 -123s35 -123 98 -123c29 0 49 7 76 30l50 -51
c-36 -31 -75 -48 -126 -48zM437 71c160 0 281 122 281 285s-121 285 -281 285s-280 -122 -280 -285s120 -285 280 -285z" />
    <glyph glyph-name="ordfeminine" unicode="&#xaa;" horiz-adv-x="431" 
d="M291 717c70 0 148 -28 148 -116c0 -11 -2 -26 -4 -37l-54 -268h-96l7 36c-22 -24 -54 -40 -101 -40c-71 0 -118 47 -118 112c0 39 14 73 40 98c29 28 69 41 119 41h99l4 24c2 10 3 15 3 22c0 27 -19 44 -61 44c-41 0 -68 -15 -89 -38l-52 67c35 34 78 55 155 55zM317 475
h-76c-45 0 -71 -28 -71 -62c0 -25 18 -40 54 -40c27 0 48 9 64 25c12 12 20 31 24 52z" />
    <glyph glyph-name="guillemotleft" unicode="&#xab;" horiz-adv-x="598" 
d="M588 521l-33 -160l-111 -96l73 -96l-27 -142l-189 249zM323 521l-33 -160l-111 -96l73 -96l-27 -142l-189 249z" />
    <glyph glyph-name="logicalnot" unicode="&#xac;" horiz-adv-x="516" 
d="M493 359l-53 -264h-115l30 149h-313l23 115h428z" />
    <glyph glyph-name="uni00AD" unicode="&#xad;" horiz-adv-x="408" 
d="M367 343l-23 -115h-293l23 115h293z" />
    <glyph glyph-name="registered" unicode="&#xae;" horiz-adv-x="835" 
d="M438 -5c-200 0 -362 162 -362 361s162 361 362 361c199 0 360 -162 360 -361s-161 -361 -360 -361zM437 71c160 0 281 122 281 285s-121 285 -281 285s-280 -122 -280 -285s120 -285 280 -285zM300 167v378h167c74 0 122 -47 122 -116c0 -50 -28 -84 -71 -98l78 -164h-88
l-68 152h-62v-152h-78zM378 377h77c34 0 56 20 56 52c0 33 -22 53 -56 53h-77v-105z" />
    <glyph glyph-name="macron" unicode="&#xaf;" 
d="M497 701l-16 -82h-302l17 82h301z" />
    <glyph glyph-name="degree" unicode="&#xb0;" horiz-adv-x="460" 
d="M287 718c102 0 178 -77 178 -179s-76 -178 -178 -178s-178 76 -178 178s76 179 178 179zM287 619c-44 0 -79 -35 -79 -80s35 -80 79 -80s79 35 79 80s-35 80 -79 80z" />
    <glyph glyph-name="plusminus" unicode="&#xb1;" horiz-adv-x="516" 
d="M386 615l-33 -164h153l-23 -114h-153l-33 -165h-116l33 165h-152l23 114h152l33 164h116zM440 115l-23 -115h-421l23 115h421z" />
    <glyph glyph-name="twosuperior" unicode="&#xb2;" horiz-adv-x="237" 
d="M57 434l12 57l129 113c17 14 23 24 23 36c0 14 -9 22 -24 22c-16 0 -29 -8 -35 -31h-69c12 57 53 88 114 88c49 0 84 -31 84 -73c0 -30 -14 -50 -47 -78l-87 -77h108l-12 -57h-196z" />
    <glyph glyph-name="threesuperior" unicode="&#xb3;" horiz-adv-x="236" 
d="M157 431c-53 0 -90 24 -90 72c0 8 0 13 2 23h69c-1 -4 -1 -6 -1 -8c0 -16 9 -25 28 -25c26 0 38 19 38 40c0 15 -8 25 -28 25h-10l8 43h10c23 0 36 16 36 33c0 16 -9 23 -24 23s-29 -11 -34 -30h-70c14 56 50 92 113 92c56 0 86 -35 86 -71c0 -32 -18 -57 -47 -68
c17 -8 27 -24 27 -50c0 -57 -44 -99 -113 -99z" />
    <glyph glyph-name="acute" unicode="&#xb4;" 
d="M502 768l-130 -167h-100l111 167h119z" />
    <glyph glyph-name="mu" unicode="&#xb5;" horiz-adv-x="548" 
d="M-23 -191l142 712h124l-63 -317c-2 -11 -4 -24 -4 -34c0 -45 30 -65 61 -65c36 0 90 18 107 100l63 316h124l-104 -521h-119l10 50c-29 -31 -74 -50 -124 -50c-17 0 -35 3 -53 9l-40 -200h-124z" />
    <glyph glyph-name="paragraph" unicode="&#xb6;" horiz-adv-x="636" 
d="M648 712l-181 -903h-123l157 787h-95l-158 -787h-123l103 518c-64 5 -145 65 -145 176c0 103 72 209 253 209h312z" />
    <glyph glyph-name="periodcentered" unicode="&#xb7;" horiz-adv-x="271" 
d="M226 356l-28 -141h-141l28 141h141z" />
    <glyph glyph-name="cedilla" unicode="&#xb8;" 
d="M61 -201l86 144h98l-70 -144h-114z" />
    <glyph glyph-name="onesuperior" unicode="&#xb9;" horiz-adv-x="233" 
d="M260 716l-56 -282h-69l40 204l-70 -52l15 78l71 52h69z" />
    <glyph glyph-name="ordmasculine" unicode="&#xba;" horiz-adv-x="439" 
d="M300 717c63 0 141 -36 141 -137c0 -25 -4 -57 -8 -76c-15 -80 -36 -128 -75 -165c-32 -30 -75 -48 -127 -48c-63 0 -141 38 -141 139c0 25 4 55 8 74c15 80 35 128 74 165c32 30 76 48 128 48zM290 627c-24 0 -41 -9 -52 -21c-21 -21 -32 -56 -41 -102
c-7 -35 -8 -52 -8 -64c0 -41 21 -59 51 -59c24 0 42 10 53 22c21 21 31 55 40 101c7 35 9 52 9 64c0 41 -22 59 -52 59z" />
    <glyph glyph-name="guillemotright" unicode="&#xbb;" horiz-adv-x="597" 
d="M381 521l189 -248l-287 -246l32 160l111 96l-73 97zM116 521l189 -248l-287 -246l32 160l112 96l-74 97z" />
    <glyph glyph-name="onequarter" unicode="&#xbc;" horiz-adv-x="853" 
d="M731 712l-462 -712h-100l463 712h99zM665 0l13 60h-170l14 77l195 290h96l-195 -287h75l13 67h84l-13 -67h34l-15 -80h-35l-12 -60h-84zM325 712l-85 -427h-90l64 321l-101 -73l22 107l101 72h89z" />
    <glyph glyph-name="onehalf" unicode="&#xbd;" horiz-adv-x="851" 
d="M731 712l-462 -712h-100l463 712h99zM510 0l17 80l177 169c25 24 36 41 36 65c0 20 -9 37 -34 37c-35 0 -45 -23 -49 -46h-90c13 69 55 126 148 126c74 0 116 -43 116 -110c0 -50 -26 -85 -68 -124l-125 -117h151l-16 -80h-263zM325 712l-85 -427h-90l64 321l-101 -73
l22 107l101 72h89z" />
    <glyph glyph-name="threequarters" unicode="&#xbe;" horiz-adv-x="846" 
d="M724 712l-462 -712h-100l463 712h99zM658 0l13 60h-170l14 77l195 290h96l-195 -287h75l13 67h84l-13 -67h34l-15 -80h-35l-12 -60h-84zM243 716c67 0 113 -44 113 -111c0 -39 -16 -79 -63 -104c24 -16 34 -39 34 -77c0 -83 -62 -143 -150 -143c-85 0 -124 47 -124 100
c0 13 1 22 2 30h88c-1 -6 -1 -7 -1 -11c0 -24 11 -38 39 -38c35 0 56 28 56 62c0 29 -16 42 -39 42h-13l15 77h12c39 0 54 32 54 57s-13 36 -33 36c-24 0 -43 -16 -50 -45h-91c17 86 74 125 151 125z" />
    <glyph glyph-name="questiondown" unicode="&#xbf;" horiz-adv-x="497" 
d="M144 -197c-86 0 -165 59 -165 159c0 68 28 116 74 166l89 99c11 12 24 32 28 51l5 21h124l-7 -31c-8 -38 -22 -70 -55 -105l-88 -94c-25 -27 -45 -56 -45 -94c0 -33 21 -61 59 -61c53 0 85 32 95 83h125c-24 -136 -120 -194 -239 -194zM185 388l26 133h131l-26 -133h-131
z" />
    <glyph glyph-name="Agrave" unicode="&#xc0;" horiz-adv-x="607" 
d="M447 712l105 -712h-134l-15 130h-241l-67 -130h-141l388 712h105zM359 512l-143 -274h177zM405 946l45 -168h-92l-71 168h118z" />
    <glyph glyph-name="Aacute" unicode="&#xc1;" horiz-adv-x="607" 
d="M447 712l105 -712h-134l-15 130h-241l-67 -130h-141l388 712h105zM359 512l-143 -274h177zM572 946l-131 -168h-99l110 168h120z" />
    <glyph glyph-name="Acircumflex" unicode="&#xc2;" horiz-adv-x="607" 
d="M447 712l105 -712h-134l-15 130h-241l-67 -130h-141l388 712h105zM359 512l-143 -274h177zM482 947l92 -169h-91l-60 94l-98 -94h-101l159 169h99z" />
    <glyph glyph-name="Atilde" unicode="&#xc3;" horiz-adv-x="607" 
d="M447 712l105 -712h-134l-15 130h-241l-67 -130h-141l388 712h105zM359 512l-143 -274h177zM346 910c34 0 57 -10 77 -22s33 -17 53 -17c25 0 43 12 62 30l45 -59c-37 -35 -68 -52 -111 -52c-34 0 -57 10 -77 22s-33 17 -53 17c-25 0 -43 -13 -62 -31l-45 60
c37 34 68 52 111 52z" />
    <glyph glyph-name="Adieresis" unicode="&#xc4;" horiz-adv-x="607" 
d="M447 712l105 -712h-134l-15 130h-241l-67 -130h-141l388 712h105zM359 512l-143 -274h177zM580 902l-24 -122h-106l24 122h106zM371 902l-24 -122h-106l24 122h106z" />
    <glyph glyph-name="Aring" unicode="&#xc5;" horiz-adv-x="607" 
d="M447 712l105 -712h-134l-15 130h-241l-67 -130h-141l388 712h105zM359 512l-143 -274h177zM409 1005c69 0 126 -54 126 -127c0 -72 -57 -127 -126 -127c-70 0 -127 55 -127 127s57 127 127 127zM409 936c-31 0 -58 -26 -58 -58s27 -58 58 -58s58 26 58 58s-27 58 -58 58z
" />
    <glyph glyph-name="AE" unicode="&#xc6;" horiz-adv-x="942" 
d="M979 712l-23 -116h-312l-36 -179h269l-23 -116h-269l-37 -185h318l-23 -116h-451l33 163h-213l-112 -163h-146l496 712h529zM511 596l-223 -323h159z" />
    <glyph glyph-name="Ccedilla" unicode="&#xc7;" horiz-adv-x="590" 
d="M380 718c146 0 216 -97 216 -220h-132c-1 58 -27 104 -92 104c-44 0 -71 -16 -96 -41c-29 -30 -46 -76 -71 -205c-11 -59 -20 -115 -20 -150c0 -61 41 -96 95 -96c70 0 113 51 132 104h132c-48 -147 -148 -220 -274 -220c-136 0 -218 89 -218 202c0 31 4 80 21 160
c28 138 45 215 106 281c54 57 130 81 201 81zM295 -57l-70 -144h-114l86 144h98z" />
    <glyph glyph-name="Egrave" unicode="&#xc8;" horiz-adv-x="578" 
d="M615 712l-23 -116h-312l-36 -179h269l-23 -116h-269l-37 -185h318l-23 -116h-451l143 712h444zM402 946l45 -168h-92l-71 168h118z" />
    <glyph glyph-name="Eacute" unicode="&#xc9;" horiz-adv-x="578" 
d="M615 712l-23 -116h-312l-36 -179h269l-23 -116h-269l-37 -185h318l-23 -116h-451l143 712h444zM569 946l-131 -168h-99l110 168h120z" />
    <glyph glyph-name="Ecircumflex" unicode="&#xca;" horiz-adv-x="578" 
d="M615 712l-23 -116h-312l-36 -179h269l-23 -116h-269l-37 -185h318l-23 -116h-451l143 712h444zM479 947l92 -169h-91l-60 94l-98 -94h-101l159 169h99z" />
    <glyph glyph-name="Edieresis" unicode="&#xcb;" horiz-adv-x="578" 
d="M615 712l-23 -116h-312l-36 -179h269l-23 -116h-269l-37 -185h318l-23 -116h-451l143 712h444zM577 902l-24 -122h-106l24 122h106zM368 902l-24 -122h-106l24 122h106z" />
    <glyph glyph-name="Igrave" unicode="&#xcc;" horiz-adv-x="293" 
d="M303 712l-143 -712h-132l143 712h132zM255 946l45 -168h-92l-71 168h118z" />
    <glyph glyph-name="Iacute" unicode="&#xcd;" horiz-adv-x="293" 
d="M303 712l-143 -712h-132l143 712h132zM422 946l-131 -168h-99l110 168h120z" />
    <glyph glyph-name="Icircumflex" unicode="&#xce;" horiz-adv-x="293" 
d="M303 712l-143 -712h-132l143 712h132zM332 947l92 -169h-91l-60 94l-98 -94h-101l159 169h99z" />
    <glyph glyph-name="Idieresis" unicode="&#xcf;" horiz-adv-x="293" 
d="M303 712l-143 -712h-132l143 712h132zM430 902l-24 -122h-106l24 122h106zM221 902l-24 -122h-106l24 122h106z" />
    <glyph glyph-name="Eth" unicode="&#xd0;" horiz-adv-x="647" 
d="M193 712h233c118 0 210 -61 210 -199c0 -31 -5 -63 -23 -154c-34 -174 -53 -230 -114 -289c-48 -46 -115 -70 -196 -70h-253l62 309h-66l20 100h66zM403 596h-101l-38 -187h110l-20 -100h-110l-39 -193h100c42 0 78 12 106 39c29 28 44 69 70 204c16 82 22 120 22 143
c0 64 -39 94 -100 94z" />
    <glyph glyph-name="Ntilde" unicode="&#xd1;" horiz-adv-x="680" 
d="M690 712l-143 -712h-112l-185 445l-90 -445h-132l143 712h112l186 -446l89 446h132zM374 910c34 0 57 -10 77 -22s33 -17 53 -17c25 0 43 12 62 30l45 -59c-37 -35 -68 -52 -111 -52c-34 0 -57 10 -77 22s-33 17 -53 17c-25 0 -43 -13 -62 -31l-45 60c37 34 68 52 111 52
z" />
    <glyph glyph-name="Ograve" unicode="&#xd2;" horiz-adv-x="611" 
d="M379 718c137 0 215 -91 215 -202c0 -32 -4 -80 -20 -160c-27 -138 -45 -216 -106 -280c-55 -59 -129 -82 -201 -82c-137 0 -215 91 -215 202c0 32 4 80 20 160c27 138 45 216 106 280c55 59 129 82 201 82zM370 602c-39 0 -69 -14 -95 -43s-45 -73 -71 -203
c-12 -60 -20 -114 -20 -149c0 -64 43 -97 92 -97c39 0 69 14 95 43s45 72 71 203c12 59 20 114 20 149c0 64 -42 97 -92 97zM415 946l45 -168h-92l-71 168h118z" />
    <glyph glyph-name="Oacute" unicode="&#xd3;" horiz-adv-x="611" 
d="M379 718c137 0 215 -91 215 -202c0 -32 -4 -80 -20 -160c-27 -138 -45 -216 -106 -280c-55 -59 -129 -82 -201 -82c-137 0 -215 91 -215 202c0 32 4 80 20 160c27 138 45 216 106 280c55 59 129 82 201 82zM370 602c-39 0 -69 -14 -95 -43s-45 -73 -71 -203
c-12 -60 -20 -114 -20 -149c0 -64 43 -97 92 -97c39 0 69 14 95 43s45 72 71 203c12 59 20 114 20 149c0 64 -42 97 -92 97zM582 946l-131 -168h-99l110 168h120z" />
    <glyph glyph-name="Ocircumflex" unicode="&#xd4;" horiz-adv-x="611" 
d="M379 718c137 0 215 -91 215 -202c0 -32 -4 -80 -20 -160c-27 -138 -45 -216 -106 -280c-55 -59 -129 -82 -201 -82c-137 0 -215 91 -215 202c0 32 4 80 20 160c27 138 45 216 106 280c55 59 129 82 201 82zM370 602c-39 0 -69 -14 -95 -43s-45 -73 -71 -203
c-12 -60 -20 -114 -20 -149c0 -64 43 -97 92 -97c39 0 69 14 95 43s45 72 71 203c12 59 20 114 20 149c0 64 -42 97 -92 97zM492 947l92 -169h-91l-60 94l-98 -94h-101l159 169h99z" />
    <glyph glyph-name="Otilde" unicode="&#xd5;" horiz-adv-x="611" 
d="M379 718c137 0 215 -91 215 -202c0 -32 -4 -80 -20 -160c-27 -138 -45 -216 -106 -280c-55 -59 -129 -82 -201 -82c-137 0 -215 91 -215 202c0 32 4 80 20 160c27 138 45 216 106 280c55 59 129 82 201 82zM370 602c-39 0 -69 -14 -95 -43s-45 -73 -71 -203
c-12 -60 -20 -114 -20 -149c0 -64 43 -97 92 -97c39 0 69 14 95 43s45 72 71 203c12 59 20 114 20 149c0 64 -42 97 -92 97zM356 910c34 0 57 -10 77 -22s33 -17 53 -17c25 0 43 12 62 30l45 -59c-37 -35 -68 -52 -111 -52c-34 0 -57 10 -77 22s-33 17 -53 17
c-25 0 -43 -13 -62 -31l-45 60c37 34 68 52 111 52z" />
    <glyph glyph-name="Odieresis" unicode="&#xd6;" horiz-adv-x="611" 
d="M379 718c137 0 215 -91 215 -202c0 -32 -4 -80 -20 -160c-27 -138 -45 -216 -106 -280c-55 -59 -129 -82 -201 -82c-137 0 -215 91 -215 202c0 32 4 80 20 160c27 138 45 216 106 280c55 59 129 82 201 82zM370 602c-39 0 -69 -14 -95 -43s-45 -73 -71 -203
c-12 -60 -20 -114 -20 -149c0 -64 43 -97 92 -97c39 0 69 14 95 43s45 72 71 203c12 59 20 114 20 149c0 64 -42 97 -92 97zM590 902l-24 -122h-106l24 122h106zM381 902l-24 -122h-106l24 122h106z" />
    <glyph glyph-name="multiply" unicode="&#xd7;" horiz-adv-x="516" 
d="M170 509l106 -141l161 140l66 -86l-162 -141l107 -140l-90 -78l-106 142l-162 -141l-66 86l162 140l-107 141z" />
    <glyph glyph-name="Oslash" unicode="&#xd8;" horiz-adv-x="610" 
d="M595 516c0 -32 -4 -80 -20 -160c-27 -138 -45 -216 -106 -280c-55 -59 -129 -82 -201 -82c-44 0 -81 9 -112 25l-41 -63h-96l75 114c-27 35 -41 78 -41 126c0 32 4 80 20 160c27 138 45 216 106 280c55 59 129 82 201 82c44 0 82 -10 114 -27l42 65h96l-76 -117
c25 -34 39 -77 39 -123zM185 207v-5l244 381c-16 12 -36 19 -58 19c-39 0 -69 -14 -95 -43s-45 -73 -71 -203c-12 -60 -20 -114 -20 -149zM463 505v3l-244 -380c16 -12 36 -18 58 -18c39 0 69 14 95 43s45 72 71 203c12 59 20 114 20 149z" />
    <glyph glyph-name="Ugrave" unicode="&#xd9;" horiz-adv-x="638" 
d="M658 712l-94 -468c-35 -175 -153 -250 -285 -250c-121 0 -217 77 -217 203c0 19 4 46 7 61l91 454h132l-93 -462c-2 -10 -5 -31 -5 -44c0 -49 27 -95 94 -95c76 0 128 52 147 146l91 455h132zM425 946l45 -168h-92l-71 168h118z" />
    <glyph glyph-name="Uacute" unicode="&#xda;" horiz-adv-x="638" 
d="M658 712l-94 -468c-35 -175 -153 -250 -285 -250c-121 0 -217 77 -217 203c0 19 4 46 7 61l91 454h132l-93 -462c-2 -10 -5 -31 -5 -44c0 -49 27 -95 94 -95c76 0 128 52 147 146l91 455h132zM592 946l-131 -168h-99l110 168h120z" />
    <glyph glyph-name="Ucircumflex" unicode="&#xdb;" horiz-adv-x="638" 
d="M658 712l-94 -468c-35 -175 -153 -250 -285 -250c-121 0 -217 77 -217 203c0 19 4 46 7 61l91 454h132l-93 -462c-2 -10 -5 -31 -5 -44c0 -49 27 -95 94 -95c76 0 128 52 147 146l91 455h132zM502 947l92 -169h-91l-60 94l-98 -94h-101l159 169h99z" />
    <glyph glyph-name="Udieresis" unicode="&#xdc;" horiz-adv-x="638" 
d="M658 712l-94 -468c-35 -175 -153 -250 -285 -250c-121 0 -217 77 -217 203c0 19 4 46 7 61l91 454h132l-93 -462c-2 -10 -5 -31 -5 -44c0 -49 27 -95 94 -95c76 0 128 52 147 146l91 455h132zM600 902l-24 -122h-106l24 122h106zM391 902l-24 -122h-106l24 122h106z" />
    <glyph glyph-name="Yacute" unicode="&#xdd;" horiz-adv-x="544" 
d="M635 712l-286 -425l-58 -287h-132l59 292l-129 420h140l76 -295l184 295h146zM536 946l-131 -168h-99l110 168h120z" />
    <glyph glyph-name="Thorn" unicode="&#xde;" horiz-adv-x="601" 
d="M303 712l-27 -134h120c121 0 192 -77 192 -188c0 -127 -93 -248 -264 -248h-136l-28 -142h-132l143 712h132zM375 461h-122l-41 -202h118c86 0 125 66 125 120c0 45 -21 82 -80 82z" />
    <glyph glyph-name="germandbls" unicode="&#xdf;" horiz-adv-x="547" 
d="M370 718c106 0 181 -53 181 -153c0 -50 -25 -109 -84 -140c29 -18 41 -43 41 -76c0 -7 -1 -18 -3 -28l-30 -160c-21 -112 -79 -161 -184 -161h-59l21 104h27c18 0 32 6 45 16s23 29 27 50l29 148c1 8 2 15 2 20c0 30 -18 41 -46 41h-31l20 97h29c46 0 71 39 71 77
c0 14 -3 27 -12 37c-10 12 -29 21 -58 21c-70 0 -98 -38 -110 -97l-103 -514h-125l105 524c30 149 120 194 247 194z" />
    <glyph glyph-name="agrave" unicode="&#xe0;" horiz-adv-x="509" 
d="M160 -6c-91 0 -149 59 -149 138c0 51 17 93 47 123c39 38 92 54 152 54h124l7 31c2 10 3 17 3 27c0 35 -25 56 -77 56c-51 0 -86 -20 -112 -49l-64 83c42 43 96 70 193 70c87 0 185 -34 185 -145c0 -14 -2 -32 -5 -46l-68 -336h-119l9 45c-29 -29 -69 -51 -126 -51z
M199 94c34 0 62 13 81 32c16 16 26 41 31 67l6 31h-95c-56 0 -89 -34 -89 -80c0 -29 21 -50 66 -50zM319 768l45 -167h-91l-72 167h118z" />
    <glyph glyph-name="aacute" unicode="&#xe1;" horiz-adv-x="509" 
d="M160 -6c-91 0 -149 59 -149 138c0 51 17 93 47 123c39 38 92 54 152 54h124l7 31c2 10 3 17 3 27c0 35 -25 56 -77 56c-51 0 -86 -20 -112 -49l-64 83c42 43 96 70 193 70c87 0 185 -34 185 -145c0 -14 -2 -32 -5 -46l-68 -336h-119l9 45c-29 -29 -69 -51 -126 -51z
M199 94c34 0 62 13 81 32c16 16 26 41 31 67l6 31h-95c-56 0 -89 -34 -89 -80c0 -29 21 -50 66 -50zM488 768l-130 -167h-100l111 167h119z" />
    <glyph glyph-name="acircumflex" unicode="&#xe2;" horiz-adv-x="509" 
d="M160 -6c-91 0 -149 59 -149 138c0 51 17 93 47 123c39 38 92 54 152 54h124l7 31c2 10 3 17 3 27c0 35 -25 56 -77 56c-51 0 -86 -20 -112 -49l-64 83c42 43 96 70 193 70c87 0 185 -34 185 -145c0 -14 -2 -32 -5 -46l-68 -336h-119l9 45c-29 -29 -69 -51 -126 -51z
M199 94c34 0 62 13 81 32c16 16 26 41 31 67l6 31h-95c-56 0 -89 -34 -89 -80c0 -29 21 -50 66 -50zM394 770l92 -169h-91l-60 94l-98 -94h-101l159 169h99z" />
    <glyph glyph-name="atilde" unicode="&#xe3;" horiz-adv-x="509" 
d="M160 -6c-91 0 -149 59 -149 138c0 51 17 93 47 123c39 38 92 54 152 54h124l7 31c2 10 3 17 3 27c0 35 -25 56 -77 56c-51 0 -86 -20 -112 -49l-64 83c42 43 96 70 193 70c87 0 185 -34 185 -145c0 -14 -2 -32 -5 -46l-68 -336h-119l9 45c-29 -29 -69 -51 -126 -51z
M199 94c34 0 62 13 81 32c16 16 26 41 31 67l6 31h-95c-56 0 -89 -34 -89 -80c0 -29 21 -50 66 -50zM261 727c35 0 57 -10 77 -22s33 -17 53 -17c25 0 43 12 62 30l45 -59c-37 -35 -68 -52 -111 -52c-34 0 -57 10 -77 22s-33 17 -52 17c-26 0 -44 -13 -62 -31l-45 60
c36 34 67 52 110 52z" />
    <glyph glyph-name="adieresis" unicode="&#xe4;" horiz-adv-x="509" 
d="M160 -6c-91 0 -149 59 -149 138c0 51 17 93 47 123c39 38 92 54 152 54h124l7 31c2 10 3 17 3 27c0 35 -25 56 -77 56c-51 0 -86 -20 -112 -49l-64 83c42 43 96 70 193 70c87 0 185 -34 185 -145c0 -14 -2 -32 -5 -46l-68 -336h-119l9 45c-29 -29 -69 -51 -126 -51z
M199 94c34 0 62 13 81 32c16 16 26 41 31 67l6 31h-95c-56 0 -89 -34 -89 -80c0 -29 21 -50 66 -50zM494 725l-24 -122h-106l24 122h106zM285 725l-24 -122h-106l24 122h106z" />
    <glyph glyph-name="aring" unicode="&#xe5;" horiz-adv-x="509" 
d="M160 -6c-91 0 -149 59 -149 138c0 51 17 93 47 123c39 38 92 54 152 54h124l7 31c2 10 3 17 3 27c0 35 -25 56 -77 56c-51 0 -86 -20 -112 -49l-64 83c42 43 96 70 193 70c87 0 185 -34 185 -145c0 -14 -2 -32 -5 -46l-68 -336h-119l9 45c-29 -29 -69 -51 -126 -51z
M199 94c34 0 62 13 81 32c16 16 26 41 31 67l6 31h-95c-56 0 -89 -34 -89 -80c0 -29 21 -50 66 -50zM333 837c70 0 127 -54 127 -126c0 -73 -57 -127 -127 -127c-69 0 -126 54 -126 127c0 72 57 126 126 126zM333 768c-31 0 -58 -26 -58 -57c0 -32 27 -59 58 -59
s59 27 59 59c0 31 -28 57 -59 57z" />
    <glyph glyph-name="ae" unicode="&#xe6;" horiz-adv-x="802" 
d="M579 527c111 0 186 -72 186 -185c0 -35 -7 -78 -16 -119h-312c-2 -14 -4 -24 -4 -37c0 -51 29 -87 89 -87c50 0 88 18 124 53l65 -82c-54 -50 -125 -76 -203 -76c-59 0 -122 21 -158 73c-51 -55 -107 -73 -172 -73c-104 0 -167 50 -167 138c0 49 16 91 46 121
c38 38 91 56 153 56h125l6 29c2 9 3 19 3 29c0 34 -24 56 -77 56c-50 0 -86 -19 -112 -49l-64 83c42 43 97 70 194 70c54 0 110 -14 146 -56c38 34 88 56 148 56zM318 224h-96c-56 0 -89 -34 -89 -80c0 -29 21 -49 66 -49c34 0 62 13 81 32c17 16 27 39 32 65zM573 425
c-53 0 -97 -35 -120 -119h191c2 11 3 23 3 36c0 54 -30 83 -74 83z" />
    <glyph glyph-name="ccedilla" unicode="&#xe7;" horiz-adv-x="461" 
d="M313 527c76 0 122 -32 153 -72l-93 -82c-20 27 -41 43 -72 43c-27 0 -52 -10 -74 -33c-27 -28 -46 -73 -55 -122c-4 -23 -7 -43 -7 -67c0 -55 26 -89 74 -89c35 0 62 15 91 44l69 -89c-44 -41 -105 -66 -172 -66c-99 0 -187 63 -187 186c0 25 3 54 8 81
c39 212 159 266 265 266zM61 -201l86 144h98l-70 -144h-114z" />
    <glyph glyph-name="egrave" unicode="&#xe8;" horiz-adv-x="523" 
d="M301 527c110 0 185 -73 185 -186c0 -35 -7 -78 -16 -118h-312c-2 -12 -4 -25 -4 -37c0 -51 29 -87 89 -87c50 0 88 18 124 53l65 -82c-54 -50 -125 -76 -203 -76c-90 0 -193 46 -193 183c0 175 85 350 265 350zM294 425c-53 0 -97 -34 -120 -119h191c2 11 3 24 3 35
c0 55 -30 84 -74 84zM333 768l45 -167h-91l-72 167h118z" />
    <glyph glyph-name="eacute" unicode="&#xe9;" horiz-adv-x="523" 
d="M301 527c110 0 185 -73 185 -186c0 -35 -7 -78 -16 -118h-312c-2 -12 -4 -25 -4 -37c0 -51 29 -87 89 -87c50 0 88 18 124 53l65 -82c-54 -50 -125 -76 -203 -76c-90 0 -193 46 -193 183c0 175 85 350 265 350zM294 425c-53 0 -97 -34 -120 -119h191c2 11 3 24 3 35
c0 55 -30 84 -74 84zM502 768l-130 -167h-100l111 167h119z" />
    <glyph glyph-name="ecircumflex" unicode="&#xea;" horiz-adv-x="523" 
d="M301 527c110 0 185 -73 185 -186c0 -35 -7 -78 -16 -118h-312c-2 -12 -4 -25 -4 -37c0 -51 29 -87 89 -87c50 0 88 18 124 53l65 -82c-54 -50 -125 -76 -203 -76c-90 0 -193 46 -193 183c0 175 85 350 265 350zM294 425c-53 0 -97 -34 -120 -119h191c2 11 3 24 3 35
c0 55 -30 84 -74 84zM408 770l92 -169h-91l-60 94l-98 -94h-101l159 169h99z" />
    <glyph glyph-name="edieresis" unicode="&#xeb;" horiz-adv-x="523" 
d="M301 527c110 0 185 -73 185 -186c0 -35 -7 -78 -16 -118h-312c-2 -12 -4 -25 -4 -37c0 -51 29 -87 89 -87c50 0 88 18 124 53l65 -82c-54 -50 -125 -76 -203 -76c-90 0 -193 46 -193 183c0 175 85 350 265 350zM294 425c-53 0 -97 -34 -120 -119h191c2 11 3 24 3 35
c0 55 -30 84 -74 84zM508 725l-24 -122h-106l24 122h106zM299 725l-24 -122h-106l24 122h106z" />
    <glyph glyph-name="igrave" unicode="&#xec;" horiz-adv-x="262" 
d="M243 505l-101 -505h-124l101 505h124zM206 768l45 -167h-91l-72 167h118z" />
    <glyph glyph-name="iacute" unicode="&#xed;" horiz-adv-x="262" 
d="M243 505l-101 -505h-124l101 505h124zM375 768l-130 -167h-100l111 167h119z" />
    <glyph glyph-name="icircumflex" unicode="&#xee;" horiz-adv-x="262" 
d="M243 505l-101 -505h-124l101 505h124zM281 770l92 -169h-91l-60 94l-98 -94h-101l159 169h99z" />
    <glyph glyph-name="idieresis" unicode="&#xef;" horiz-adv-x="262" 
d="M243 505l-101 -505h-124l101 505h124zM381 725l-24 -122h-106l24 122h106zM172 725l-24 -122h-106l24 122h106z" />
    <glyph glyph-name="eth" unicode="&#xf0;" horiz-adv-x="514" 
d="M379 720l18 -62h86l-17 -86h-45l24 -79c21 -73 27 -108 27 -147c0 -25 -5 -61 -11 -92c-15 -75 -36 -153 -93 -205c-37 -34 -91 -55 -154 -55c-85 0 -172 49 -172 171c0 19 4 55 11 89c20 103 43 156 90 201c26 25 60 42 98 50c27 5 52 4 75 0l-22 67h-112l18 86h70
l-19 62h128zM288 403c-25 0 -46 -9 -61 -23c-25 -23 -38 -66 -51 -126c-6 -31 -10 -60 -10 -82c0 -56 33 -68 60 -68c25 0 46 10 61 24c25 23 38 65 51 126c6 30 10 59 10 82c0 55 -33 67 -60 67z" />
    <glyph glyph-name="ntilde" unicode="&#xf1;" horiz-adv-x="544" 
d="M368 527c61 0 133 -41 133 -144c0 -19 -3 -41 -7 -58l-65 -325h-124l64 317c2 12 4 24 4 34c0 45 -30 65 -62 65c-36 0 -90 -18 -106 -100l-64 -316h-124l104 521h119l-9 -50c33 36 83 56 137 56zM292 727c35 0 57 -10 77 -22s33 -17 53 -17c25 0 43 12 62 30l45 -59
c-37 -35 -68 -52 -111 -52c-34 0 -57 10 -77 22s-33 17 -52 17c-26 0 -44 -13 -62 -31l-45 60c36 34 67 52 110 52z" />
    <glyph glyph-name="ograve" unicode="&#xf2;" horiz-adv-x="516" 
d="M302 527c87 0 176 -52 176 -172c0 -32 -6 -71 -10 -94c-22 -110 -48 -163 -93 -207c-40 -38 -94 -60 -160 -60c-88 0 -177 52 -177 172c0 32 6 71 11 95c22 109 47 162 93 206c39 38 94 60 160 60zM289 416c-25 0 -48 -10 -64 -26c-25 -24 -40 -65 -53 -129
c-9 -45 -11 -69 -11 -81c0 -50 27 -75 66 -75c26 0 48 10 64 26c25 24 41 65 53 130c9 44 11 69 11 80c0 51 -27 75 -66 75zM333 768l45 -167h-91l-72 167h118z" />
    <glyph glyph-name="oacute" unicode="&#xf3;" horiz-adv-x="516" 
d="M302 527c87 0 176 -52 176 -172c0 -32 -6 -71 -10 -94c-22 -110 -48 -163 -93 -207c-40 -38 -94 -60 -160 -60c-88 0 -177 52 -177 172c0 32 6 71 11 95c22 109 47 162 93 206c39 38 94 60 160 60zM289 416c-25 0 -48 -10 -64 -26c-25 -24 -40 -65 -53 -129
c-9 -45 -11 -69 -11 -81c0 -50 27 -75 66 -75c26 0 48 10 64 26c25 24 41 65 53 130c9 44 11 69 11 80c0 51 -27 75 -66 75zM502 768l-130 -167h-100l111 167h119z" />
    <glyph glyph-name="ocircumflex" unicode="&#xf4;" horiz-adv-x="516" 
d="M302 527c87 0 176 -52 176 -172c0 -32 -6 -71 -10 -94c-22 -110 -48 -163 -93 -207c-40 -38 -94 -60 -160 -60c-88 0 -177 52 -177 172c0 32 6 71 11 95c22 109 47 162 93 206c39 38 94 60 160 60zM289 416c-25 0 -48 -10 -64 -26c-25 -24 -40 -65 -53 -129
c-9 -45 -11 -69 -11 -81c0 -50 27 -75 66 -75c26 0 48 10 64 26c25 24 41 65 53 130c9 44 11 69 11 80c0 51 -27 75 -66 75zM408 770l92 -169h-91l-60 94l-98 -94h-101l159 169h99z" />
    <glyph glyph-name="otilde" unicode="&#xf5;" horiz-adv-x="516" 
d="M302 527c87 0 176 -52 176 -172c0 -32 -6 -71 -10 -94c-22 -110 -48 -163 -93 -207c-40 -38 -94 -60 -160 -60c-88 0 -177 52 -177 172c0 32 6 71 11 95c22 109 47 162 93 206c39 38 94 60 160 60zM289 416c-25 0 -48 -10 -64 -26c-25 -24 -40 -65 -53 -129
c-9 -45 -11 -69 -11 -81c0 -50 27 -75 66 -75c26 0 48 10 64 26c25 24 41 65 53 130c9 44 11 69 11 80c0 51 -27 75 -66 75zM275 727c35 0 57 -10 77 -22s33 -17 53 -17c25 0 43 12 62 30l45 -59c-37 -35 -68 -52 -111 -52c-34 0 -57 10 -77 22s-33 17 -52 17
c-26 0 -44 -13 -62 -31l-45 60c36 34 67 52 110 52z" />
    <glyph glyph-name="odieresis" unicode="&#xf6;" horiz-adv-x="516" 
d="M302 527c87 0 176 -52 176 -172c0 -32 -6 -71 -10 -94c-22 -110 -48 -163 -93 -207c-40 -38 -94 -60 -160 -60c-88 0 -177 52 -177 172c0 32 6 71 11 95c22 109 47 162 93 206c39 38 94 60 160 60zM289 416c-25 0 -48 -10 -64 -26c-25 -24 -40 -65 -53 -129
c-9 -45 -11 -69 -11 -81c0 -50 27 -75 66 -75c26 0 48 10 64 26c25 24 41 65 53 130c9 44 11 69 11 80c0 51 -27 75 -66 75zM508 725l-24 -122h-106l24 122h106zM299 725l-24 -122h-106l24 122h106z" />
    <glyph glyph-name="divide" unicode="&#xf7;" horiz-adv-x="516" 
d="M490 343l-23 -115h-429l23 115h429zM301 153l-24 -124h-124l25 124h123zM376 543l-25 -124h-124l25 124h124z" />
    <glyph glyph-name="oslash" unicode="&#xf8;" horiz-adv-x="516" 
d="M525 563l-79 -103c19 -27 31 -61 31 -105c0 -32 -6 -71 -10 -94c-22 -110 -48 -163 -93 -207c-40 -38 -94 -60 -160 -60c-35 0 -70 8 -100 26l-46 -64h-76l77 104c-20 26 -32 61 -32 106c0 32 6 71 11 95c22 109 47 162 93 206c39 38 94 60 160 60c35 0 70 -8 100 -26
l48 62h76zM354 347l-170 -229c11 -9 25 -13 42 -13c26 0 48 10 64 26c25 24 41 65 53 130c9 44 11 69 11 80v6zM288 416c-25 0 -48 -10 -64 -26c-25 -24 -40 -65 -53 -129c-9 -45 -10 -70 -10 -93l172 232c-11 11 -27 16 -45 16z" />
    <glyph glyph-name="ugrave" unicode="&#xf9;" horiz-adv-x="544" 
d="M527 521l-104 -521h-119l9 50c-33 -36 -83 -56 -137 -56c-61 0 -133 41 -133 144c0 19 3 41 7 58l65 325h124l-64 -317c-2 -12 -4 -24 -4 -34c0 -45 30 -65 62 -65c36 0 90 18 106 100l64 316h124zM341 768l45 -167h-91l-72 167h118z" />
    <glyph glyph-name="uacute" unicode="&#xfa;" horiz-adv-x="544" 
d="M527 521l-104 -521h-119l9 50c-33 -36 -83 -56 -137 -56c-61 0 -133 41 -133 144c0 19 3 41 7 58l65 325h124l-64 -317c-2 -12 -4 -24 -4 -34c0 -45 30 -65 62 -65c36 0 90 18 106 100l64 316h124zM510 768l-130 -167h-100l111 167h119z" />
    <glyph glyph-name="ucircumflex" unicode="&#xfb;" horiz-adv-x="544" 
d="M527 521l-104 -521h-119l9 50c-33 -36 -83 -56 -137 -56c-61 0 -133 41 -133 144c0 19 3 41 7 58l65 325h124l-64 -317c-2 -12 -4 -24 -4 -34c0 -45 30 -65 62 -65c36 0 90 18 106 100l64 316h124zM416 770l92 -169h-91l-60 94l-98 -94h-101l159 169h99z" />
    <glyph glyph-name="udieresis" unicode="&#xfc;" horiz-adv-x="544" 
d="M527 521l-104 -521h-119l9 50c-33 -36 -83 -56 -137 -56c-61 0 -133 41 -133 144c0 19 3 41 7 58l65 325h124l-64 -317c-2 -12 -4 -24 -4 -34c0 -45 30 -65 62 -65c36 0 90 18 106 100l64 316h124zM516 725l-24 -122h-106l24 122h106zM307 725l-24 -122h-106l24 122h106z
" />
    <glyph glyph-name="yacute" unicode="&#xfd;" horiz-adv-x="464" 
d="M515 521l-325 -605c-12 -23 -27 -45 -43 -61c-33 -33 -72 -46 -124 -46h-48l23 112h28c36 0 52 17 71 54l33 62l-74 484h123l38 -336l167 336h131zM469 768l-130 -167h-100l111 167h119z" />
    <glyph glyph-name="thorn" unicode="&#xfe;" horiz-adv-x="532" 
d="M283 712l-47 -234c21 22 60 49 124 49c108 0 140 -80 140 -144c0 -22 -2 -51 -16 -122c-22 -109 -43 -176 -83 -216s-86 -51 -131 -51c-56 0 -97 20 -118 54l-49 -239h-124l180 903h124zM309 416c-74 0 -97 -60 -116 -155c-5 -27 -11 -62 -11 -84c0 -31 8 -72 62 -72
c74 0 97 61 116 156c5 27 11 61 11 83c0 31 -8 72 -62 72z" />
    <glyph glyph-name="ydieresis" unicode="&#xff;" horiz-adv-x="464" 
d="M515 521l-325 -605c-12 -23 -27 -45 -43 -61c-33 -33 -72 -46 -124 -46h-48l23 112h28c36 0 52 17 71 54l33 62l-74 484h123l38 -336l167 336h131zM475 725l-24 -122h-106l24 122h106zM266 725l-24 -122h-106l24 122h106z" />
    <glyph glyph-name="dotlessi" unicode="&#x131;" horiz-adv-x="262" 
d="M243 505l-101 -505h-124l101 505h124z" />
    <glyph glyph-name="IJ" unicode="&#x132;" horiz-adv-x="778" 
d="M303 712l-143 -712h-132l143 712h132zM798 712l-98 -487c-39 -193 -176 -231 -260 -231c-87 0 -139 26 -179 77l95 81c21 -27 47 -42 87 -42c46 0 108 26 127 123l96 479h132z" />
    <glyph glyph-name="ij" unicode="&#x133;" horiz-adv-x="524" 
d="M243 505l-101 -505h-124l101 505h124zM285 710l-21 -103h-127l20 103h128zM505 505l-110 -553c-18 -91 -76 -147 -168 -147h-77l21 105h45c31 0 50 21 56 53l109 542h124zM547 710l-21 -103h-127l20 103h128z" />
    <glyph glyph-name="Lslash" unicode="&#x141;" horiz-adv-x="568" 
d="M320 712l-53 -266l138 81l-24 -118l-137 -80l-43 -213h310l-22 -116h-444l49 244l-69 -40l23 117l70 41l70 350h132z" />
    <glyph glyph-name="lslash" unicode="&#x142;" horiz-adv-x="347" 
d="M294 712l-44 -222l65 36l-23 -111l-64 -36l-43 -213c-2 -8 -3 -20 -3 -27c0 -21 15 -34 44 -34h41l-21 -105h-55c-49 0 -83 13 -106 35c-20 20 -30 46 -30 78c0 18 4 41 7 56l26 133l-57 -32l22 111l57 32l60 299h124z" />
    <glyph glyph-name="OE" unicode="&#x152;" horiz-adv-x="922" 
d="M380 718c57 0 105 -21 130 -60l10 54h439l-23 -116h-312l-36 -179h269l-23 -116h-269l-37 -185h318l-23 -116h-439l9 48c-36 -39 -85 -54 -128 -54c-134 0 -212 91 -212 202c0 32 4 80 20 160c27 138 45 216 106 280c55 59 129 82 201 82zM371 602c-39 0 -69 -14 -95 -43
s-45 -73 -71 -203c-12 -60 -20 -114 -20 -149c0 -64 43 -97 92 -97c39 0 69 14 95 43s45 72 71 203c12 59 20 114 20 149c0 64 -42 97 -92 97z" />
    <glyph glyph-name="oe" unicode="&#x153;" horiz-adv-x="823" 
d="M601 527c110 0 185 -73 185 -186c0 -35 -7 -78 -16 -118h-312c-3 -12 -4 -30 -4 -37c0 -51 29 -87 89 -87c50 0 88 18 124 53l65 -82c-54 -50 -125 -76 -203 -76c-58 0 -117 20 -151 69c-45 -49 -105 -69 -163 -69c-88 0 -177 52 -177 172c0 32 6 71 11 95
c22 109 47 162 93 206c39 38 94 60 160 60c53 0 107 -22 137 -68c42 45 96 68 162 68zM289 417c-26 0 -48 -10 -64 -26c-25 -24 -41 -65 -53 -130c-9 -45 -11 -69 -11 -81c0 -50 27 -75 66 -75c26 0 48 10 64 26c25 24 41 65 53 130c9 45 11 69 11 81c0 50 -27 75 -66 75z
M594 425c-53 0 -97 -34 -120 -119h191c2 11 3 24 3 35c0 55 -30 84 -74 84z" />
    <glyph glyph-name="Scaron" unicode="&#x160;" horiz-adv-x="563" 
d="M373 718c83 0 157 -28 204 -86l-93 -81c-31 37 -70 52 -126 52c-83 0 -132 -56 -132 -108c0 -45 36 -60 76 -70l59 -14c118 -29 161 -84 161 -185c0 -160 -135 -232 -285 -232c-112 0 -180 27 -240 98l96 84c38 -45 88 -65 156 -65c79 0 141 45 141 103
c0 51 -30 68 -75 79l-59 15c-117 29 -162 96 -162 169c0 136 105 241 279 241zM603 947l-160 -169h-99l-93 169h93l59 -94l99 94h101z" />
    <glyph glyph-name="scaron" unicode="&#x161;" horiz-adv-x="475" 
d="M286 527c74 0 128 -18 173 -64l-85 -75c-24 25 -62 37 -99 37c-63 0 -91 -31 -91 -63c0 -22 16 -34 48 -39l67 -11c93 -15 126 -63 126 -135c0 -52 -22 -93 -56 -126c-42 -41 -114 -57 -181 -57c-93 0 -155 28 -201 78l89 78c26 -30 61 -50 120 -50c71 0 106 34 106 65
c0 28 -19 38 -49 43l-68 11c-95 16 -125 69 -125 118c0 48 18 95 53 130c39 39 99 60 173 60zM516 770l-160 -169h-99l-93 169h93l59 -94l99 94h101z" />
    <glyph glyph-name="Ydieresis" unicode="&#x178;" horiz-adv-x="544" 
d="M635 712l-286 -425l-58 -287h-132l59 292l-129 420h140l76 -295l184 295h146zM544 902l-24 -122h-106l24 122h106zM335 902l-24 -122h-106l24 122h106z" />
    <glyph glyph-name="Zcaron" unicode="&#x17d;" horiz-adv-x="531" 
d="M575 712l-21 -103l-380 -492h288l-24 -117h-450l21 103l380 492h-275l23 117h438zM581 947l-160 -169h-99l-93 169h93l59 -94l99 94h101z" />
    <glyph glyph-name="zcaron" unicode="&#x17e;" horiz-adv-x="461" 
d="M470 521l-19 -95l-279 -315h223l-22 -111h-386l19 95l277 315h-208l22 111h373zM506 770l-160 -169h-99l-93 169h93l59 -94l99 94h101z" />
    <glyph glyph-name="longs" unicode="&#x17f;" horiz-adv-x="262" 
d="M377 720l-21 -105h-44c-30 0 -50 -16 -57 -51l-113 -564h-124l116 577c18 91 74 143 170 143h73z" />
    <glyph glyph-name="florin" unicode="&#x192;" horiz-adv-x="406" 
d="M470 719l-21 -103h-63c-31 0 -51 -17 -62 -48l-62 -171h86l-19 -95h-102l-181 -493h-124l182 493h-53l19 95h68l64 174c40 109 100 148 201 148h67z" />
    <glyph glyph-name="uni02BB" unicode="&#x2bb;" horiz-adv-x="256" 
d="M304 816l-47 -232h-128l25 129z" />
    <glyph glyph-name="uni02BC" unicode="&#x2bc;" horiz-adv-x="255" 
d="M282 712l-25 -128l-150 -103l46 231h129z" />
    <glyph glyph-name="uni02C0" unicode="&#x2c0;" 
d="M289 583l13 63c28 -1 46 16 46 40c0 18 -12 31 -32 33l13 63c49 -2 94 -34 94 -88c0 -71 -59 -111 -125 -111h-9z" />
    <glyph glyph-name="circumflex" unicode="&#x2c6;" 
d="M409 770l92 -169h-91l-60 94l-98 -94h-101l159 169h99z" />
    <glyph glyph-name="caron" unicode="&#x2c7;" 
d="M535 770l-160 -169h-99l-93 169h93l59 -94l99 94h101z" />
    <glyph glyph-name="breve" unicode="&#x2d8;" 
d="M424 736h84c-21 -104 -78 -144 -167 -144c-87 0 -134 48 -134 113c0 10 1 20 3 31h82c-1 -10 -1 -13 -1 -16c0 -31 27 -44 59 -44c36 0 64 16 74 60z" />
    <glyph glyph-name="dotaccent" unicode="&#x2d9;" 
d="M404 725l-24 -122h-106l24 122h106z" />
    <glyph glyph-name="ring" unicode="&#x2da;" 
d="M347 837c70 0 127 -54 127 -126c0 -73 -57 -127 -127 -127c-69 0 -126 54 -126 127c0 72 57 126 126 126zM347 768c-31 0 -58 -26 -58 -57c0 -32 27 -59 58 -59s59 27 59 59c0 31 -28 57 -59 57z" />
    <glyph glyph-name="ogonek" unicode="&#x2db;" 
d="M245 -57l-70 -144h-114l86 144h98z" />
    <glyph glyph-name="tilde" unicode="&#x2dc;" 
d="M276 727c35 0 57 -10 77 -22s33 -17 53 -17c25 0 43 12 62 30l45 -59c-37 -35 -68 -52 -111 -52c-34 0 -57 10 -77 22s-33 17 -52 17c-26 0 -44 -13 -62 -31l-45 60c36 34 67 52 110 52z" />
    <glyph glyph-name="hungarumlaut" unicode="&#x2dd;" 
d="M277 768h120l-131 -167h-99zM486 768h120l-131 -167h-99z" />
    <glyph glyph-name="gravecomb" unicode="&#x300;" horiz-adv-x="1" 
d="M37 768l45 -167h-91l-72 167h118z" />
    <glyph glyph-name="acutecomb" unicode="&#x301;" horiz-adv-x="1" 
d="M116 768l-130 -167h-100l111 167h119z" />
    <glyph glyph-name="uni0302" unicode="&#x302;" horiz-adv-x="1" 
d="M84 770l92 -169h-91l-60 94l-98 -94h-101l159 169h99z" />
    <glyph glyph-name="tildecomb" unicode="&#x303;" horiz-adv-x="1" 
d="M-63 727c35 0 57 -10 77 -22s33 -17 53 -17c25 0 43 12 62 30l45 -59c-37 -35 -68 -52 -111 -52c-34 0 -57 10 -77 22s-33 17 -52 17c-26 0 -44 -13 -62 -31l-45 60c36 34 67 52 110 52z" />
    <glyph glyph-name="uni0304" unicode="&#x304;" horiz-adv-x="1" 
d="M160 701l-16 -82h-302l17 82h301z" />
    <glyph glyph-name="uni0306" unicode="&#x306;" horiz-adv-x="1" 
d="M67 736h84c-21 -104 -78 -144 -167 -144c-87 0 -134 48 -134 113c0 10 1 20 3 31h82c-1 -10 -1 -13 -1 -16c0 -31 27 -44 59 -44c36 0 64 16 74 60z" />
    <glyph glyph-name="uni0307" unicode="&#x307;" horiz-adv-x="1" 
d="M66 725l-24 -122h-106l24 122h106z" />
    <glyph glyph-name="uni0308" unicode="&#x308;" horiz-adv-x="1" 
d="M170 725l-24 -122h-106l24 122h106zM-39 725l-24 -122h-106l24 122h106z" />
    <glyph glyph-name="hookabovecomb" unicode="&#x309;" horiz-adv-x="1" 
d="M-66 583l13 63c28 -1 46 16 46 40c0 18 -12 31 -32 33l13 63c49 -2 94 -34 94 -88c0 -71 -59 -111 -125 -111h-9z" />
    <glyph glyph-name="uni030A" unicode="&#x30a;" horiz-adv-x="1" 
d="M0 837c70 0 127 -54 127 -126c0 -73 -57 -127 -127 -127c-69 0 -126 54 -126 127c0 72 57 126 126 126zM0 768c-31 0 -58 -26 -58 -57c0 -32 27 -59 58 -59s59 27 59 59c0 31 -28 57 -59 57z" />
    <glyph glyph-name="uni030B" unicode="&#x30b;" horiz-adv-x="1" 
d="M-109 768h120l-131 -167h-99zM100 768h120l-131 -167h-99z" />
    <glyph glyph-name="uni030C" unicode="&#x30c;" horiz-adv-x="1" 
d="M177 770l-160 -169h-99l-93 169h93l59 -94l99 94h101z" />
    <glyph glyph-name="uni030F" unicode="&#x30f;" horiz-adv-x="1" 
d="M138 768l45 -167h-91l-72 167h118zM-63 768l45 -167h-91l-72 167h118z" />
    <glyph glyph-name="uni0310" unicode="&#x310;" horiz-adv-x="1" 
d="M-16 592c-87 0 -134 48 -134 113c0 10 1 20 3 31h82c-1 -10 -1 -13 -1 -16c0 -31 27 -44 59 -44c36 0 64 16 74 60h84c-21 -104 -78 -144 -167 -144zM-46 783l24 123h106l-24 -123h-106z" />
    <glyph glyph-name="uni0311" unicode="&#x311;" horiz-adv-x="1" 
d="M17 745c87 0 134 -48 134 -113c0 -10 -1 -20 -3 -31h-82c1 10 1 13 1 16c0 31 -27 44 -59 44c-36 0 -64 -16 -74 -60h-84c21 104 78 144 167 144z" />
    <glyph glyph-name="uni0312" unicode="&#x312;" horiz-adv-x="1" 
d="M116 768l-131 -167h-99l110 167h120z" />
    <glyph glyph-name="uni0313" unicode="&#x313;" horiz-adv-x="1" 
d="M92 740l-91 -165h-91l67 165h115z" />
    <glyph glyph-name="uni0316" unicode="&#x316;" horiz-adv-x="1" 
d="M37 -58l45 -167h-91l-72 167h118z" />
    <glyph glyph-name="uni0317" unicode="&#x317;" horiz-adv-x="1" 
d="M116 -58l-130 -167h-100l111 167h119z" />
    <glyph glyph-name="uni031B" unicode="&#x31b;" horiz-adv-x="1" 
d="M101 557l-15 -70c-19 -95 -46 -121 -149 -121h-36l14 70h37c30 0 48 14 59 68l10 53h80z" />
    <glyph glyph-name="uni031C" unicode="&#x31c;" horiz-adv-x="1" 
d="M41 -167l-13 -63c-49 2 -94 34 -94 88c0 71 59 111 125 111h9l-13 -63c-28 1 -46 -16 -46 -40c0 -18 12 -31 32 -33z" />
    <glyph glyph-name="dotbelowcomb" unicode="&#x323;" horiz-adv-x="1" 
d="M66 -74l-24 -122h-106l24 122h106z" />
    <glyph glyph-name="uni0324" unicode="&#x324;" horiz-adv-x="1" 
d="M170 -71l-24 -122h-106l24 122h106zM-39 -71l-24 -122h-106l24 122h106z" />
    <glyph glyph-name="uni0325" unicode="&#x325;" horiz-adv-x="1" 
d="M0 -38c70 0 127 -54 127 -126c0 -73 -57 -127 -127 -127c-69 0 -126 54 -126 127c0 72 57 126 126 126zM0 -107c-31 0 -58 -26 -58 -57c0 -32 27 -59 58 -59s59 27 59 59c0 31 -28 57 -59 57z" />
    <glyph glyph-name="uni0326" unicode="&#x326;" horiz-adv-x="1" 
d="M93 -57l-70 -144h-114l86 144h98z" />
    <glyph glyph-name="uni0327" unicode="&#x327;" horiz-adv-x="1" 
d="M-91 -201l86 144h98l-70 -144h-114z" />
    <glyph glyph-name="uni0328" unicode="&#x328;" horiz-adv-x="1" 
d="M93 -57l-70 -144h-114l86 144h98z" />
    <glyph glyph-name="uni032C" unicode="&#x32c;" horiz-adv-x="1" 
d="M177 -64l-160 -169h-99l-93 169h93l59 -94l99 94h101z" />
    <glyph glyph-name="uni032D" unicode="&#x32d;" horiz-adv-x="1" 
d="M84 -58l92 -169h-91l-60 94l-98 -94h-101l159 169h99z" />
    <glyph glyph-name="uni032E" unicode="&#x32e;" horiz-adv-x="1" 
d="M67 -63h84c-21 -104 -78 -144 -167 -144c-87 0 -134 48 -134 113c0 10 1 20 3 31h82c-1 -10 -1 -13 -1 -16c0 -31 27 -44 59 -44c36 0 64 16 74 60z" />
    <glyph glyph-name="uni032F" unicode="&#x32f;" horiz-adv-x="1" 
d="M17 -50c87 0 134 -48 134 -113c0 -10 -1 -20 -3 -31h-82c1 10 1 13 1 16c0 31 -27 44 -59 44c-36 0 -64 -16 -74 -60h-84c21 104 78 144 167 144z" />
    <glyph glyph-name="uni0330" unicode="&#x330;" horiz-adv-x="1" 
d="M-63 -67c35 0 57 -10 77 -22s33 -17 53 -17c25 0 43 12 62 30l45 -59c-37 -35 -68 -52 -111 -52c-34 0 -57 10 -77 22s-33 17 -52 17c-26 0 -44 -13 -62 -31l-45 60c36 34 67 52 110 52z" />
    <glyph glyph-name="uni0331" unicode="&#x331;" horiz-adv-x="1" 
d="M160 -83l-16 -82h-302l17 82h301z" />
    <glyph glyph-name="uni0340" unicode="&#x340;" horiz-adv-x="1" 
d="M28 838l64 -168h-91l-91 168h118z" />
    <glyph glyph-name="uni0341" unicode="&#x341;" horiz-adv-x="1" 
d="M116 838l-130 -167h-100l111 167h119z" />
    <glyph glyph-name="uni037E" unicode="&#x37e;" horiz-adv-x="294" 
d="M205 142l-39 -197l-158 -110l62 307h135zM262 419l-30 -148h-141l30 148h141z" />
    <glyph glyph-name="uni0394" unicode="&#x394;" horiz-adv-x="607" 
d="M447 712l105 -712h-598l389 712h104zM360 513l-213 -404h261z" />
    <glyph glyph-name="uni03A9" unicode="&#x3a9;" horiz-adv-x="610" 
d="M10 0l23 116h66c-26 30 -38 62 -38 116c0 31 3 69 14 124c27 138 45 217 106 281c56 60 131 81 200 81c143 0 215 -95 215 -203c0 -30 -4 -78 -20 -159c-21 -104 -35 -149 -62 -188c-14 -22 -25 -36 -47 -52h66l-24 -116h-212l21 103c20 7 40 20 53 35
c28 34 43 72 72 218c12 59 21 115 21 148c0 61 -38 98 -94 98c-37 0 -67 -15 -93 -42c-27 -29 -43 -70 -69 -204c-19 -95 -25 -138 -25 -164c0 -42 15 -71 51 -89l-20 -103h-204z" />
    <glyph glyph-name="uni03BC" unicode="&#x3bc;" horiz-adv-x="548" 
d="M-23 -191l142 712h124l-63 -317c-2 -11 -4 -24 -4 -34c0 -45 30 -65 61 -65c36 0 90 18 107 100l63 316h124l-104 -521h-119l10 50c-29 -31 -74 -50 -124 -50c-17 0 -35 3 -53 9l-40 -200h-124z" />
    <glyph glyph-name="pi" unicode="&#x3c0;" horiz-adv-x="539" 
d="M522 521l-104 -521h-124l82 411h-153l-82 -411h-124l104 521h401z" />
    <glyph glyph-name="uni2007" unicode="&#x2007;" horiz-adv-x="520" 
 />
    <glyph glyph-name="uni2008" unicode="&#x2008;" horiz-adv-x="267" 
 />
    <glyph glyph-name="uni200B" unicode="&#x200b;" horiz-adv-x="0" 
 />
    <glyph glyph-name="uniFEFF" unicode="&#xfeff;" horiz-adv-x="0" 
 />
    <glyph glyph-name="endash" unicode="&#x2013;" horiz-adv-x="535" 
d="M494 343l-23 -115h-420l23 115h420z" />
    <glyph glyph-name="emdash" unicode="&#x2014;" horiz-adv-x="978" 
d="M937 343l-23 -115h-863l23 115h863z" />
    <glyph glyph-name="quoteleft" unicode="&#x2018;" horiz-adv-x="256" 
d="M304 816l-47 -232h-128l25 129z" />
    <glyph glyph-name="quoteright" unicode="&#x2019;" horiz-adv-x="255" 
d="M282 712l-25 -128l-150 -103l46 231h129z" />
    <glyph glyph-name="quotesinglbase" unicode="&#x201a;" horiz-adv-x="256" 
d="M165 124l-25 -128l-150 -104l46 232h129z" />
    <glyph glyph-name="quotedblleft" unicode="&#x201c;" horiz-adv-x="455" 
d="M304 816l-46 -232h-129l25 129zM503 816l-46 -232h-128l25 129z" />
    <glyph glyph-name="quotedblright" unicode="&#x201d;" horiz-adv-x="454" 
d="M282 712l-25 -128l-150 -103l46 231h129zM481 712l-25 -128l-149 -103l46 231h128z" />
    <glyph glyph-name="quotedblbase" unicode="&#x201e;" horiz-adv-x="455" 
d="M165 124l-25 -128l-150 -104l46 232h129zM364 124l-25 -128l-149 -104l46 232h128z" />
    <glyph glyph-name="dagger" unicode="&#x2020;" horiz-adv-x="552" 
d="M428 712l-37 -186h159l-22 -110h-159l-83 -416h-124l83 416h-159l22 110h159l37 186h124z" />
    <glyph glyph-name="daggerdbl" unicode="&#x2021;" horiz-adv-x="553" 
d="M428 712l-37 -186h159l-22 -110h-159l-62 -305h161l-22 -110h-161l-38 -192h-123l38 192h-158l22 110h158l61 305h-159l22 110h159l37 186h124z" />
    <glyph glyph-name="bullet" unicode="&#x2022;" horiz-adv-x="469" 
d="M242 438c90 0 154 -64 154 -154s-64 -154 -154 -154s-154 64 -154 154s64 154 154 154z" />
    <glyph glyph-name="ellipsis" unicode="&#x2026;" horiz-adv-x="804" 
d="M446 136l-28 -136h-134l27 136h135zM175 136l-26 -136h-135l28 136h133zM715 136l-26 -136h-135l28 136h133z" />
    <glyph glyph-name="perthousand" unicode="&#x2030;" horiz-adv-x="1161" 
d="M148 0l463 712h99l-462 -712h-100zM215 345c-63 0 -121 33 -121 110c0 9 1 22 3 32l18 95c18 94 73 136 156 136c63 0 121 -33 121 -110c0 -9 -1 -22 -3 -32l-18 -95c-18 -94 -73 -136 -156 -136zM225 425c35 0 51 26 57 58l18 93c1 5 2 15 2 21c0 20 -9 41 -41 41
c-35 0 -51 -26 -57 -58l-18 -93c-1 -5 -2 -15 -2 -21c0 -20 9 -41 41 -41zM586 -6c-63 0 -121 33 -121 110c0 9 1 22 3 32l18 95c18 94 73 136 156 136c63 0 121 -33 121 -110c0 -9 -1 -22 -3 -32l-18 -95c-18 -94 -73 -136 -156 -136zM596 74c35 0 51 26 57 58l18 93
c1 5 2 15 2 21c0 20 -9 41 -41 41c-35 0 -51 -26 -57 -58l-18 -93c-1 -5 -2 -15 -2 -21c0 -20 9 -41 41 -41zM927 -6c-60 0 -118 33 -118 110c0 9 1 22 3 32l18 95c18 94 75 136 159 136c60 0 118 -33 118 -110c0 -9 -1 -22 -3 -32l-18 -95c-18 -94 -75 -136 -159 -136z
M940 74c35 0 51 26 57 58l18 93c1 5 2 15 2 21c0 19 -9 41 -41 41c-35 0 -51 -26 -57 -58l-18 -90c-2 -10 -2 -20 -2 -24c0 -19 9 -41 41 -41z" />
    <glyph glyph-name="minute" unicode="&#x2032;" horiz-adv-x="296" 
d="M338 712l-136 -339h-131l136 339h131z" />
    <glyph glyph-name="second" unicode="&#x2033;" horiz-adv-x="512" 
d="M554 712l-136 -339h-131l136 339h131zM338 712l-136 -339h-131l136 339h131z" />
    <glyph glyph-name="guilsinglleft" unicode="&#x2039;" horiz-adv-x="333" 
d="M323 521l-33 -160l-111 -96l73 -96l-27 -142l-189 249z" />
    <glyph glyph-name="guilsinglright" unicode="&#x203a;" horiz-adv-x="332" 
d="M113 521l189 -248l-287 -246l32 160l111 96l-73 97z" />
    <glyph glyph-name="fraction" unicode="&#x2044;" horiz-adv-x="200" 
d="M401 712l-462 -712h-100l463 712h99z" />
    <glyph glyph-name="uni2070" unicode="&#x2070;" horiz-adv-x="241" 
d="M156 431c-44 0 -83 28 -83 75c0 6 1 13 2 19l20 99c15 76 67 95 116 95c44 0 83 -28 83 -75c0 -6 -1 -13 -2 -19l-20 -99c-15 -76 -67 -95 -116 -95zM167 493c17 0 29 11 35 35l21 93c2 10 2 16 1 20c-2 10 -9 16 -23 16c-17 0 -29 -11 -35 -35l-21 -93
c-2 -10 -2 -16 -1 -20c2 -10 9 -16 23 -16z" />
    <glyph glyph-name="uni2071" unicode="&#x2071;" horiz-adv-x="141" 
d="M180 599l-53 -270h-85l55 270h83zM203 712l-13 -65h-84l13 65h84z" />
    <glyph glyph-name="uni2074" unicode="&#x2074;" horiz-adv-x="239" 
d="M186 477h-132l11 56l121 183h69l-119 -181h62l10 51h57l-11 -55h27l-11 -54h-27l-8 -43h-57z" />
    <glyph glyph-name="uni2075" unicode="&#x2075;" horiz-adv-x="222" 
d="M149 431c-45 0 -76 26 -76 67v9h59c1 -13 10 -21 23 -21c24 0 34 10 40 38c1 5 2 13 2 20c0 15 -7 25 -25 25c-15 0 -27 -8 -33 -22h-54l33 169h167l-10 -49h-110l-13 -62c9 7 24 13 41 13c44 0 66 -28 66 -67c0 -11 -1 -20 -3 -29c-6 -30 -13 -45 -27 -62
c-17 -19 -41 -29 -80 -29z" />
    <glyph glyph-name="uni2076" unicode="&#x2076;" horiz-adv-x="242" 
d="M256 716l-69 -101c6 1 13 2 19 2c40 -2 73 -30 73 -74c0 -59 -37 -112 -111 -112c-52 0 -97 35 -97 85c0 26 9 50 41 97l70 103h74zM179 568c-25 0 -40 -19 -40 -44c0 -19 11 -32 32 -32c25 0 39 18 39 45c0 18 -12 31 -31 31z" />
    <glyph glyph-name="uni2077" unicode="&#x2077;" horiz-adv-x="241" 
d="M237 654h-72l-8 -40h-68l21 101h206l-14 -67l-127 -214h-69z" />
    <glyph glyph-name="uni2078" unicode="&#x2078;" horiz-adv-x="240" 
d="M162 430c-52 0 -96 28 -96 79c0 31 18 61 53 74c-14 9 -25 23 -25 50c0 43 43 85 107 85c53 0 94 -30 94 -79c0 -29 -22 -56 -47 -65c14 -5 26 -23 26 -50c0 -55 -44 -94 -112 -94zM166 486c21 0 36 16 36 40c0 16 -11 29 -27 29c-21 0 -36 -15 -36 -40
c0 -16 11 -29 27 -29zM189 600c20 0 34 15 34 37c0 15 -10 26 -25 26c-18 0 -32 -15 -32 -35c0 -15 9 -28 23 -28z" />
    <glyph glyph-name="uni2079" unicode="&#x2079;" horiz-adv-x="242" 
d="M112 434l69 101c-6 -2 -13 -2 -20 -2c-39 1 -72 29 -72 74c0 59 37 112 111 112c52 0 97 -35 97 -85c0 -26 -9 -50 -41 -97l-71 -103h-73zM189 582c25 0 40 18 40 44c0 18 -11 32 -32 32c-26 0 -39 -18 -39 -45c0 -18 12 -31 31 -31z" />
    <glyph glyph-name="uni207F" unicode="&#x207f;" horiz-adv-x="327" 
d="M260 611c38 0 82 -25 82 -84c0 -12 -1 -24 -4 -40l-32 -159h-84l31 151c2 12 3 20 3 25c0 19 -13 32 -33 32c-19 0 -49 -10 -58 -56l-31 -152h-83l56 279h83l-4 -24c20 19 46 28 74 28z" />
    <glyph glyph-name="uni2080" unicode="&#x2080;" horiz-adv-x="241" 
d="M39 -153c-44 0 -83 28 -83 75c0 6 1 13 2 19l20 99c15 76 67 95 116 95c44 0 83 -28 83 -75c0 -6 -1 -13 -2 -19l-20 -99c-15 -76 -67 -95 -116 -95zM50 -91c17 0 29 11 35 35l21 93c2 10 2 16 1 20c-2 10 -9 16 -23 16c-17 0 -29 -11 -35 -35l-21 -93
c-2 -10 -2 -16 -1 -20c2 -10 9 -16 23 -16z" />
    <glyph glyph-name="uni2081" unicode="&#x2081;" horiz-adv-x="233" 
d="M143 132l-56 -282h-69l40 204l-70 -52l15 78l71 52h69z" />
    <glyph glyph-name="uni2082" unicode="&#x2082;" horiz-adv-x="237" 
d="M-60 -150l12 57l129 113c17 14 23 24 23 36c0 14 -9 22 -24 22c-16 0 -29 -8 -35 -31h-69c12 57 53 88 114 88c49 0 84 -31 84 -73c0 -30 -14 -50 -47 -78l-87 -77h108l-12 -57h-196z" />
    <glyph glyph-name="uni2083" unicode="&#x2083;" horiz-adv-x="236" 
d="M40 -153c-53 0 -90 24 -90 72c0 8 0 13 2 23h69c-1 -4 -1 -6 -1 -8c0 -16 9 -25 28 -25c26 0 38 19 38 40c0 15 -8 25 -28 25h-10l8 43h10c23 0 36 16 36 33c0 16 -9 23 -24 23s-29 -11 -34 -30h-70c14 56 50 92 113 92c56 0 86 -35 86 -71c0 -32 -18 -57 -47 -68
c17 -8 27 -24 27 -50c0 -57 -44 -99 -113 -99z" />
    <glyph glyph-name="uni2084" unicode="&#x2084;" horiz-adv-x="239" 
d="M70 -107h-132l11 56l121 183h69l-119 -181h62l10 51h57l-11 -55h27l-11 -54h-27l-8 -43h-57z" />
    <glyph glyph-name="uni2085" unicode="&#x2085;" horiz-adv-x="222" 
d="M32 -153c-45 0 -76 26 -76 67v9h59c1 -13 10 -21 23 -21c24 0 34 10 40 38c1 5 2 13 2 20c0 15 -7 25 -25 25c-15 0 -27 -8 -33 -22h-54l33 169h167l-10 -49h-110l-13 -62c9 7 24 13 41 13c44 0 66 -28 66 -67c0 -11 -1 -20 -3 -29c-6 -30 -13 -45 -27 -62
c-17 -19 -41 -29 -80 -29z" />
    <glyph glyph-name="uni2086" unicode="&#x2086;" horiz-adv-x="242" 
d="M139 132l-69 -101c6 1 13 2 19 2c40 -2 73 -30 73 -74c0 -59 -37 -112 -111 -112c-52 0 -97 35 -97 85c0 26 9 50 41 97l70 103h74zM62 -16c-25 0 -40 -19 -40 -44c0 -19 11 -32 32 -32c25 0 39 18 39 45c0 18 -12 31 -31 31z" />
    <glyph glyph-name="uni2087" unicode="&#x2087;" horiz-adv-x="241" 
d="M120 70h-72l-8 -40h-68l21 101h206l-14 -67l-127 -214h-69z" />
    <glyph glyph-name="uni2088" unicode="&#x2088;" horiz-adv-x="240" 
d="M46 -154c-52 0 -96 28 -96 79c0 31 18 61 53 74c-14 9 -25 23 -25 50c0 43 43 85 107 85c53 0 94 -30 94 -79c0 -29 -22 -56 -47 -65c14 -5 26 -23 26 -50c0 -55 -44 -94 -112 -94zM50 -98c21 0 36 16 36 40c0 16 -11 29 -27 29c-21 0 -36 -15 -36 -40
c0 -16 11 -29 27 -29zM73 16c20 0 34 15 34 37c0 15 -10 26 -25 26c-18 0 -32 -15 -32 -35c0 -15 9 -28 23 -28z" />
    <glyph glyph-name="uni2089" unicode="&#x2089;" horiz-adv-x="242" 
d="M-5 -150l69 101c-6 -2 -13 -2 -20 -2c-39 1 -72 29 -72 74c0 59 37 112 111 112c52 0 97 -35 97 -85c0 -26 -9 -50 -41 -97l-71 -103h-73zM72 -2c25 0 40 18 40 44c0 18 -11 32 -32 32c-26 0 -39 -18 -39 -45c0 -18 12 -31 31 -31z" />
    <glyph glyph-name="uni2090" unicode="&#x2090;" horiz-adv-x="295" 
d="M33 -164c-54 0 -84 33 -84 74c0 28 8 47 26 64c19 17 43 27 85 27h71l3 14c1 7 1 10 1 14c0 14 -13 25 -43 25c-26 0 -45 -8 -58 -21l-42 53c22 22 55 37 113 37c64 0 110 -31 110 -85c0 -9 -1 -21 -3 -30l-35 -167h-79l7 29c-19 -23 -40 -34 -72 -34zM56 -104
c20 0 36 6 46 17c8 8 15 20 17 31l3 13h-51c-33 0 -49 -16 -49 -36c0 -14 10 -25 34 -25z" />
    <glyph glyph-name="uni2091" unicode="&#x2091;" horiz-adv-x="296" 
d="M77 -163c-53 0 -110 25 -110 101c0 102 51 185 150 185c60 0 102 -36 102 -99c0 -20 -4 -43 -10 -66h-174c-1 -6 -1 -10 -1 -17c0 -26 19 -42 54 -42c26 0 47 7 66 25l37 -45c-28 -26 -70 -42 -114 -42zM45 5h104c1 9 1 13 1 19c0 22 -14 38 -42 38
c-33 0 -52 -23 -63 -57z" />
    <glyph glyph-name="uni2092" unicode="&#x2092;" horiz-adv-x="309" 
d="M124 123c63 0 109 -27 109 -91c0 -15 -3 -36 -6 -52c-13 -60 -27 -89 -54 -111c-23 -19 -60 -32 -100 -32c-63 0 -109 27 -109 91c0 15 2 36 6 52c13 60 27 89 54 111c23 19 60 32 100 32zM113 49c-32 0 -50 -21 -60 -69c-3 -15 -5 -26 -5 -32c0 -23 14 -37 36 -37
c32 0 50 21 60 69c3 16 4 26 4 32c0 23 -14 37 -35 37z" />
    <glyph glyph-name="uni2093" unicode="&#x2093;" horiz-adv-x="294" 
d="M248 119l-114 -138l69 -139h-99l-26 69l-51 -69h-103l121 142l-66 135h98l24 -64l46 64h101z" />
    <glyph glyph-name="lira" unicode="&#x20a4;" horiz-adv-x="606" 
d="M53 0l36 173l-79 -44l18 87l78 44l15 77l-78 -44l18 86l77 45l58 288h132l-40 -206l148 84l-18 -86l-148 -84l-16 -77l150 83l-18 -86l-149 -83l-29 -142h74c37 0 74 12 104 36c25 19 44 46 56 75h130c-27 -76 -67 -132 -118 -169c-53 -39 -118 -57 -189 -57h-212z" />
    <glyph glyph-name="dong" unicode="&#x20ab;" horiz-adv-x="422" 
d="M456 712l-10 -53h37l-12 -59h-37l-87 -434h-92l8 41c-24 -29 -56 -45 -96 -45c-81 0 -107 60 -107 108c0 25 4 56 11 89c15 76 30 125 58 154c29 31 64 43 103 43c41 0 73 -20 89 -47l19 91h-65l12 59h65l10 53h94zM330 80l-16 -80h-311l16 80h311zM251 474
c-26 0 -44 -10 -58 -29c-13 -19 -22 -49 -30 -87c-3 -14 -6 -40 -6 -57c0 -24 10 -56 50 -56c50 0 70 40 85 113c4 20 7 44 7 61c0 20 -7 55 -48 55z" />
    <glyph glyph-name="Euro" unicode="&#x20ac;" horiz-adv-x="635" 
d="M424 718c147 0 217 -97 217 -220h-132c-1 58 -27 104 -92 104c-39 0 -69 -15 -95 -41c-19 -20 -32 -45 -43 -88h143l-16 -78h-147l-15 -75h147l-16 -78h-142c-3 -13 -3 -30 -3 -36c0 -61 41 -96 96 -96c70 0 112 51 132 104h135c-48 -147 -152 -220 -277 -220
c-137 0 -219 89 -219 202c0 15 1 28 4 46h-69l15 78h65l15 75h-64l15 78h67c18 73 39 121 81 164c53 54 126 81 198 81z" />
    <glyph glyph-name="uni20B4" unicode="&#x20b4;" horiz-adv-x="652" 
d="M307 -5c-147 0 -238 77 -238 182c0 27 2 50 8 71h-45l14 74h77c32 29 80 51 146 72l9 3h-217l15 74h392c16 14 26 31 26 53c0 46 -35 81 -113 81c-59 0 -104 -18 -148 -56c-25 29 -50 57 -74 86c69 59 136 83 234 83c148 0 230 -74 230 -178c0 -27 -3 -49 -8 -69h40
l-15 -74h-70c-30 -27 -75 -46 -137 -65l-33 -10h226l-15 -74h-386c-16 -15 -24 -33 -24 -53c0 -50 44 -86 123 -86c68 0 114 17 170 64l75 -87c-80 -69 -158 -91 -262 -91z" />
    <glyph glyph-name="uni20B8" unicode="&#x20b8;" horiz-adv-x="545" 
d="M573 547l-24 -116h-174l-87 -431h-132l87 431h-180l24 116h486zM605 712l-16 -82h-485l16 82h485z" />
    <glyph glyph-name="uni20BD" unicode="&#x20bd;" horiz-adv-x="620" 
d="M194 712h253c121 0 191 -77 191 -188c0 -127 -92 -248 -263 -248h-136l-56 -276h-132l56 276h-68l24 117h67zM425 595h-122l-40 -202h117c86 0 125 66 125 120c0 45 -21 82 -80 82z" />
    <glyph glyph-name="uni2116" unicode="&#x2116;" horiz-adv-x="923" 
d="M643 712l-144 -712h-109l-145 458l-93 -458h-124l145 712h109l145 -458l92 458h124zM891 314l-18 -90h-272l18 90h272zM828 717c55 0 121 -31 121 -119c0 -22 -4 -49 -7 -64c-13 -67 -28 -110 -62 -143c-26 -26 -63 -40 -108 -40c-54 0 -121 31 -121 119c0 22 4 49 7 64
c13 67 28 110 62 143c26 26 63 40 108 40zM816 635c-16 0 -29 -7 -39 -18c-14 -16 -23 -43 -31 -83c-4 -20 -6 -43 -6 -52c0 -34 19 -49 44 -49c16 0 30 7 39 18c14 16 23 43 31 83c5 25 6 43 6 52c0 34 -19 49 -44 49z" />
    <glyph glyph-name="uni2117" unicode="&#x2117;" horiz-adv-x="835" 
d="M438 -5c-200 0 -362 162 -362 361s162 361 362 361c199 0 360 -162 360 -361s-161 -361 -360 -361zM437 71c160 0 281 122 281 285s-121 285 -281 285s-280 -122 -280 -285s120 -285 280 -285zM312 166v379h156c86 0 133 -43 133 -114c0 -74 -46 -117 -130 -117h-82v-148
h-77zM390 377h77c35 0 57 20 57 54c0 33 -21 51 -57 51h-77v-105z" />
    <glyph glyph-name="trademark" unicode="&#x2122;" horiz-adv-x="877" 
d="M908 712l-84 -427h-92l51 253l-106 -153h-79l-46 155l-52 -255h-90l84 427h89l70 -228l163 228h92zM430 712l-15 -81h-103l-70 -346h-89l69 346h-106l16 81h298z" />
    <glyph glyph-name="Omega" unicode="&#x2126;" horiz-adv-x="610" 
d="M10 0l23 116h66c-26 30 -38 62 -38 116c0 31 3 69 14 124c27 138 45 217 106 281c56 60 131 81 200 81c143 0 215 -95 215 -203c0 -30 -4 -78 -20 -159c-21 -104 -35 -149 -62 -188c-14 -22 -25 -36 -47 -52h66l-24 -116h-212l21 103c20 7 40 20 53 35
c28 34 43 72 72 218c12 59 21 115 21 148c0 61 -38 98 -94 98c-37 0 -67 -15 -93 -42c-27 -29 -43 -70 -69 -204c-19 -95 -25 -138 -25 -164c0 -42 15 -71 51 -89l-20 -103h-204z" />
    <glyph glyph-name="uni2150" unicode="&#x2150;" horiz-adv-x="856" 
d="M731 712l-462 -712h-100l463 712h99zM758 347h-104l-13 -69h-81l30 149h276l-16 -77l-192 -350h-92zM325 712l-85 -427h-90l64 321l-101 -73l22 107l101 72h89z" />
    <glyph glyph-name="uni2151" unicode="&#x2151;" horiz-adv-x="856" 
d="M731 712l-462 -712h-100l463 712h99zM707 431c87 0 129 -63 129 -117c0 -32 -10 -66 -47 -122l-127 -192h-98l117 175c-8 -2 -14 -3 -22 -3c-53 0 -95 44 -95 112c0 78 52 147 143 147zM705 348c-30 0 -51 -29 -51 -64c0 -28 18 -42 41 -42c31 0 51 27 51 62
c0 30 -18 44 -41 44zM325 712l-85 -427h-90l64 321l-101 -73l22 107l101 72h89z" />
    <glyph glyph-name="uni2152" unicode="&#x2152;" horiz-adv-x="1135" 
d="M712 712l-462 -712h-100l463 712h99zM767 427l-85 -427h-90l64 321l-101 -73l22 107l101 72h89zM999 431c73 0 114 -50 114 -107c0 -8 -1 -20 -3 -30l-33 -165c-20 -100 -84 -133 -148 -133c-73 0 -113 50 -113 107c0 8 1 20 3 30l33 165c20 100 84 133 147 133zM989 342
c-19 0 -41 -10 -48 -48l-31 -156c-1 -4 -3 -14 -3 -19c0 -24 16 -34 33 -34c19 0 41 10 48 48l31 156c1 4 3 14 3 19c0 24 -16 34 -33 34zM325 712l-85 -427h-90l64 321l-101 -73l22 107l101 72h89z" />
    <glyph glyph-name="onethird" unicode="&#x2153;" horiz-adv-x="853" 
d="M731 712l-462 -712h-100l463 712h99zM716 431c67 0 113 -44 113 -111c0 -39 -16 -79 -63 -104c24 -16 34 -39 34 -77c0 -83 -62 -143 -150 -143c-85 0 -124 47 -124 100c0 13 1 22 2 30h88c-1 -6 -1 -7 -1 -11c0 -24 11 -38 39 -38c35 0 56 28 56 62c0 29 -16 42 -39 42
h-13l15 77h12c39 0 54 32 54 57s-13 36 -33 36c-24 0 -43 -16 -50 -45h-91c17 86 74 125 151 125zM325 712l-85 -427h-90l64 321l-101 -73l22 107l101 72h89z" />
    <glyph glyph-name="twothirds" unicode="&#x2154;" horiz-adv-x="844" 
d="M722 712l-462 -712h-100l463 712h99zM707 431c67 0 113 -44 113 -111c0 -39 -16 -79 -63 -104c24 -16 34 -39 34 -77c0 -83 -62 -143 -150 -143c-85 0 -124 47 -124 100c0 13 1 22 2 30h88c-1 -6 -1 -7 -1 -11c0 -24 11 -38 39 -38c35 0 56 28 56 62c0 29 -16 42 -39 42
h-13l15 77h12c39 0 54 32 54 57s-13 36 -33 36c-24 0 -43 -16 -50 -45h-91c17 86 74 125 151 125zM37 285l17 80l177 169c25 24 36 41 36 65c0 20 -9 37 -34 37c-35 0 -45 -23 -49 -46h-90c13 69 55 126 148 126c74 0 116 -43 116 -110c0 -50 -26 -85 -68 -124l-125 -117
h151l-16 -80h-263z" />
    <glyph glyph-name="uni2155" unicode="&#x2155;" horiz-adv-x="858" 
d="M731 712l-462 -712h-100l463 712h99zM653 -3c-66 0 -116 42 -116 103c0 4 0 11 1 19h87v-7c0 -19 8 -34 35 -34c31 0 45 23 54 66c1 7 3 16 3 25c0 24 -8 42 -36 42c-25 0 -39 -17 -46 -34h-82l50 250h246l-16 -82h-168l-15 -77c21 13 37 16 56 16c73 0 103 -49 103 -103
c0 -11 -1 -28 -3 -38c-7 -36 -19 -79 -50 -108c-24 -23 -57 -38 -103 -38zM325 712l-85 -427h-90l64 321l-101 -73l22 107l101 72h89z" />
    <glyph glyph-name="uni2156" unicode="&#x2156;" horiz-adv-x="849" 
d="M722 712l-462 -712h-100l463 712h99zM644 -3c-66 0 -116 42 -116 103c0 4 0 11 1 19h87v-7c0 -19 8 -34 35 -34c31 0 45 23 54 66c1 7 3 16 3 25c0 24 -8 42 -36 42c-25 0 -39 -17 -46 -34h-82l50 250h246l-16 -82h-168l-15 -77c21 13 37 16 56 16c73 0 103 -49 103 -103
c0 -11 -1 -28 -3 -38c-7 -36 -19 -79 -50 -108c-24 -23 -57 -38 -103 -38zM37 285l17 80l177 169c25 24 36 41 36 65c0 20 -9 37 -34 37c-35 0 -45 -23 -49 -46h-90c13 69 55 126 148 126c74 0 116 -43 116 -110c0 -50 -26 -85 -68 -124l-125 -117h151l-16 -80h-263z" />
    <glyph glyph-name="uni2157" unicode="&#x2157;" horiz-adv-x="851" 
d="M724 712l-462 -712h-100l463 712h99zM646 -3c-66 0 -116 42 -116 103c0 4 0 11 1 19h87v-7c0 -19 8 -34 35 -34c31 0 45 23 54 66c1 7 3 16 3 25c0 24 -8 42 -36 42c-25 0 -39 -17 -46 -34h-82l50 250h246l-16 -82h-168l-15 -77c21 13 37 16 56 16c73 0 103 -49 103 -103
c0 -11 -1 -28 -3 -38c-7 -36 -19 -79 -50 -108c-24 -23 -57 -38 -103 -38zM243 716c67 0 113 -44 113 -111c0 -39 -16 -79 -63 -104c24 -16 34 -39 34 -77c0 -83 -62 -143 -150 -143c-85 0 -124 47 -124 100c0 13 1 22 2 30h88c-1 -6 -1 -7 -1 -11c0 -24 11 -38 39 -38
c35 0 56 28 56 62c0 29 -16 42 -39 42h-13l15 77h12c39 0 54 32 54 57s-13 36 -33 36c-24 0 -43 -16 -50 -45h-91c17 86 74 125 151 125z" />
    <glyph glyph-name="uni2158" unicode="&#x2158;" horiz-adv-x="851" 
d="M724 712l-462 -712h-100l463 712h99zM646 -3c-66 0 -116 42 -116 103c0 4 0 11 1 19h87v-7c0 -19 8 -34 35 -34c31 0 45 23 54 66c1 7 3 16 3 25c0 24 -8 42 -36 42c-25 0 -39 -17 -46 -34h-82l50 250h246l-16 -82h-168l-15 -77c21 13 37 16 56 16c73 0 103 -49 103 -103
c0 -11 -1 -28 -3 -38c-7 -36 -19 -79 -50 -108c-24 -23 -57 -38 -103 -38zM192 285l13 60h-170l14 77l195 290h96l-195 -287h75l13 67h84l-13 -67h34l-15 -80h-35l-12 -60h-84z" />
    <glyph glyph-name="uni2159" unicode="&#x2159;" horiz-adv-x="856" 
d="M731 712l-462 -712h-100l463 712h99zM660 -4c-87 0 -129 63 -129 117c0 32 10 67 47 122l127 192h98l-117 -175c8 2 14 3 22 3c53 0 95 -44 95 -112c0 -78 -52 -147 -143 -147zM662 80c30 0 51 28 51 63c0 28 -18 42 -41 42c-31 0 -51 -27 -51 -62c0 -30 18 -43 41 -43z
M325 712l-85 -427h-90l64 321l-101 -73l22 107l101 72h89z" />
    <glyph glyph-name="uni215A" unicode="&#x215a;" horiz-adv-x="854" 
d="M729 712l-462 -712h-100l463 712h99zM658 -4c-87 0 -129 63 -129 117c0 32 10 67 47 122l127 192h98l-117 -175c8 2 14 3 22 3c53 0 95 -44 95 -112c0 -78 -52 -147 -143 -147zM660 80c30 0 51 28 51 63c0 28 -18 42 -41 42c-31 0 -51 -27 -51 -62c0 -30 18 -43 41 -43z
M180 282c-66 0 -116 42 -116 103c0 4 0 11 1 19h87v-7c0 -19 8 -34 35 -34c31 0 45 23 54 66c1 7 3 16 3 25c0 24 -8 42 -36 42c-25 0 -39 -17 -46 -34h-82l50 250h246l-16 -82h-168l-15 -77c21 13 37 16 56 16c73 0 103 -49 103 -103c0 -11 -1 -28 -3 -38
c-7 -36 -19 -79 -50 -108c-24 -23 -57 -38 -103 -38z" />
    <glyph glyph-name="oneeighth" unicode="&#x215b;" horiz-adv-x="853" 
d="M731 712l-462 -712h-100l463 712h99zM709 431c71 0 122 -45 122 -117c0 -46 -31 -85 -65 -101c14 -8 36 -33 36 -75c0 -82 -58 -142 -150 -142c-71 0 -125 39 -125 116c0 47 25 92 70 114c-14 12 -31 35 -31 76c0 65 54 129 143 129zM672 180c-33 0 -55 -24 -55 -60
c0 -26 15 -44 40 -44c33 0 54 24 54 60c0 26 -15 44 -39 44zM705 350c-29 0 -50 -23 -50 -54c0 -23 13 -40 36 -40c28 0 50 22 50 55c0 23 -13 39 -36 39zM325 712l-85 -427h-90l64 321l-101 -73l22 107l101 72h89z" />
    <glyph glyph-name="threeeighths" unicode="&#x215c;" horiz-adv-x="846" 
d="M724 712l-462 -712h-100l463 712h99zM702 431c71 0 122 -45 122 -117c0 -46 -31 -85 -65 -101c14 -8 36 -33 36 -75c0 -82 -58 -142 -150 -142c-71 0 -125 39 -125 116c0 47 25 92 70 114c-14 12 -31 35 -31 76c0 65 54 129 143 129zM665 180c-33 0 -55 -24 -55 -60
c0 -26 15 -44 40 -44c33 0 54 24 54 60c0 26 -15 44 -39 44zM698 350c-29 0 -50 -23 -50 -54c0 -23 13 -40 36 -40c28 0 50 22 50 55c0 23 -13 39 -36 39zM243 716c67 0 113 -44 113 -111c0 -39 -16 -79 -63 -104c24 -16 34 -39 34 -77c0 -83 -62 -143 -150 -143
c-85 0 -124 47 -124 100c0 13 1 22 2 30h88c-1 -6 -1 -7 -1 -11c0 -24 11 -38 39 -38c35 0 56 28 56 62c0 29 -16 42 -39 42h-13l15 77h12c39 0 54 32 54 57s-13 36 -33 36c-24 0 -43 -16 -50 -45h-91c17 86 74 125 151 125z" />
    <glyph glyph-name="fiveeighths" unicode="&#x215d;" horiz-adv-x="851" 
d="M729 712l-462 -712h-100l463 712h99zM707 431c71 0 122 -45 122 -117c0 -46 -31 -85 -65 -101c14 -8 36 -33 36 -75c0 -82 -58 -142 -150 -142c-71 0 -125 39 -125 116c0 47 25 92 70 114c-14 12 -31 35 -31 76c0 65 54 129 143 129zM670 180c-33 0 -55 -24 -55 -60
c0 -26 15 -44 40 -44c33 0 54 24 54 60c0 26 -15 44 -39 44zM703 350c-29 0 -50 -23 -50 -54c0 -23 13 -40 36 -40c28 0 50 22 50 55c0 23 -13 39 -36 39zM180 282c-66 0 -116 42 -116 103c0 4 0 11 1 19h87v-7c0 -19 8 -34 35 -34c31 0 45 23 54 66c1 7 3 16 3 25
c0 24 -8 42 -36 42c-25 0 -39 -17 -46 -34h-82l50 250h246l-16 -82h-168l-15 -77c21 13 37 16 56 16c73 0 103 -49 103 -103c0 -11 -1 -28 -3 -38c-7 -36 -19 -79 -50 -108c-24 -23 -57 -38 -103 -38z" />
    <glyph glyph-name="seveneighths" unicode="&#x215e;" horiz-adv-x="849" 
d="M727 712l-462 -712h-100l463 712h99zM705 431c71 0 122 -45 122 -117c0 -46 -31 -85 -65 -101c14 -8 36 -33 36 -75c0 -82 -58 -142 -150 -142c-71 0 -125 39 -125 116c0 47 25 92 70 114c-14 12 -31 35 -31 76c0 65 54 129 143 129zM668 180c-33 0 -55 -24 -55 -60
c0 -26 15 -44 40 -44c33 0 54 24 54 60c0 26 -15 44 -39 44zM701 350c-29 0 -50 -23 -50 -54c0 -23 13 -40 36 -40c28 0 50 22 50 55c0 23 -13 39 -36 39zM285 632h-104l-13 -69h-81l30 149h276l-16 -77l-192 -350h-92z" />
    <glyph glyph-name="uni215F" unicode="&#x215f;" horiz-adv-x="530" 
d="M731 712l-462 -712h-100l463 712h99zM325 712l-85 -427h-90l64 321l-101 -73l22 107l101 72h89z" />
    <glyph glyph-name="uni2189" unicode="&#x2189;" horiz-adv-x="1027" 
d="M814 712l-462 -712h-100l463 712h99zM799 431c67 0 113 -44 113 -111c0 -39 -16 -79 -63 -104c24 -16 34 -39 34 -77c0 -83 -62 -143 -150 -143c-85 0 -124 47 -124 100c0 13 1 22 2 30h88c-1 -6 -1 -7 -1 -11c0 -24 11 -38 39 -38c35 0 56 28 56 62c0 29 -16 42 -39 42
h-13l15 77h12c39 0 54 32 54 57s-13 36 -33 36c-24 0 -43 -16 -50 -45h-91c17 86 74 125 151 125zM335 716c73 0 114 -50 114 -107c0 -8 -1 -20 -3 -30l-33 -165c-20 -100 -84 -133 -148 -133c-73 0 -113 50 -113 107c0 8 1 20 3 30l33 165c20 100 84 133 147 133zM325 627
c-19 0 -41 -10 -48 -48l-31 -156c-1 -4 -3 -14 -3 -19c0 -24 16 -34 33 -34c19 0 41 10 48 48l31 156c1 4 3 14 3 19c0 24 -16 34 -33 34z" />
    <glyph glyph-name="arrowleft" unicode="&#x2190;" horiz-adv-x="1027" 
d="M599 670l-327 -324h704v-123h-704l327 -323h-164l-386 385l386 385h164z" />
    <glyph glyph-name="arrowup" unicode="&#x2191;" horiz-adv-x="1027" 
d="M514 749l385 -385v-164l-324 327v-705h-122v705l-324 -327v164z" />
    <glyph glyph-name="arrowright" unicode="&#x2192;" horiz-adv-x="1027" 
d="M755 346l-327 324h164l386 -385l-386 -385h-164l327 323h-704v123h704z" />
    <glyph glyph-name="arrowdown" unicode="&#x2193;" horiz-adv-x="1027" 
d="M898 208l-385 -385l-385 385v164l324 -327v705h122v-705l324 327v-164z" />
    <glyph glyph-name="uni2196" unicode="&#x2196;" horiz-adv-x="1027" 
d="M730 613l117 -116l-460 1l497 -497l-87 -86l-497 497l1 -460l-116 116v545h545z" />
    <glyph glyph-name="uni2197" unicode="&#x2197;" horiz-adv-x="1027" 
d="M179 497l117 116h545v-545l-116 -116l1 460l-497 -497l-87 86l497 497z" />
    <glyph glyph-name="uni2198" unicode="&#x2198;" horiz-adv-x="1027" 
d="M229 613l498 -497l-2 459l116 -116v-544h-544l-117 116l460 -3l-498 498z" />
    <glyph glyph-name="uni2199" unicode="&#x2199;" horiz-adv-x="1027" 
d="M300 116l498 497l87 -87l-498 -498l460 3l-117 -116h-544v544l116 116z" />
    <glyph glyph-name="partialdiff" unicode="&#x2202;" horiz-adv-x="529" 
d="M316 718c113 0 192 -59 192 -180c0 -15 -2 -41 -5 -60l-42 -225c-18 -97 -38 -154 -84 -200c-37 -37 -88 -59 -154 -59c-112 0 -180 64 -180 174c0 22 4 58 10 85c21 101 44 160 91 205c36 33 83 54 146 54c40 0 71 -12 89 -40l6 38c1 6 2 13 2 19c0 54 -28 84 -82 84
c-46 0 -73 -11 -108 -40l-64 82c60 51 121 63 183 63zM284 400c-24 0 -42 -7 -57 -21c-24 -23 -37 -65 -50 -126c-6 -27 -11 -56 -11 -79c0 -42 25 -68 64 -68c24 0 42 8 56 21c25 23 38 67 51 126c6 27 11 56 11 80c0 42 -25 67 -64 67z" />
    <glyph glyph-name="Delta" unicode="&#x2206;" horiz-adv-x="607" 
d="M447 712l105 -712h-598l389 712h104zM360 513l-213 -404h261z" />
    <glyph glyph-name="product" unicode="&#x220f;" horiz-adv-x="651" 
d="M673 760l-189 -951h-132l166 836h-228l-168 -836h-131l189 951h493z" />
    <glyph glyph-name="summation" unicode="&#x2211;" horiz-adv-x="520" 
d="M584 760l-23 -116h-297l88 -297l-25 -122l-199 -300h298l-23 -116h-451l20 104l258 390l-111 357l20 100h445z" />
    <glyph glyph-name="minus" unicode="&#x2212;" horiz-adv-x="516" 
d="M485 343l-23 -115h-420l23 115h420z" />
    <glyph glyph-name="uni2219" unicode="&#x2219;" horiz-adv-x="516" 
d="M258 438c90 0 154 -64 154 -154s-64 -154 -154 -154s-154 64 -154 154s64 154 154 154z" />
    <glyph glyph-name="radical" unicode="&#x221a;" horiz-adv-x="556" 
d="M619 712l-23 -116h-90l-318 -596h-96l-59 405h118l24 -218l261 525h183z" />
    <glyph glyph-name="uni221B" unicode="&#x221b;" horiz-adv-x="556" 
d="M619 712l-23 -116h-90l-318 -596h-96l-59 405h118l24 -218l261 525h183zM144 429c-53 0 -90 24 -90 72c0 8 0 13 2 23h69c-1 -4 -1 -6 -1 -8c0 -16 9 -25 28 -25c26 0 38 19 38 40c0 15 -8 25 -28 25h-10l8 43h10c23 0 36 16 36 33c0 16 -9 23 -24 23s-29 -11 -34 -30
h-70c14 56 50 92 113 92c56 0 86 -35 86 -71c0 -32 -18 -57 -47 -68c17 -8 27 -24 27 -50c0 -57 -44 -99 -113 -99z" />
    <glyph glyph-name="uni221C" unicode="&#x221c;" horiz-adv-x="556" 
d="M619 712l-23 -116h-90l-318 -596h-96l-59 405h118l24 -218l261 525h183zM178 473h-132l11 56l121 183h69l-119 -181h62l10 51h57l-11 -55h27l-11 -54h-27l-8 -43h-57z" />
    <glyph glyph-name="infinity" unicode="&#x221e;" horiz-adv-x="809" 
d="M581 466c118 0 181 -81 181 -181c0 -99 -63 -179 -181 -179c-67 0 -123 35 -172 90c-48 -55 -104 -90 -171 -90c-118 0 -181 80 -181 179c0 100 63 181 181 181c66 0 123 -36 171 -91c49 55 105 91 172 91zM239 346c-34 0 -63 -24 -63 -64c0 -41 29 -64 63 -64
c35 0 60 29 89 64c-29 35 -54 64 -89 64zM580 346c-35 0 -61 -29 -89 -64c28 -35 54 -64 89 -64c34 0 63 23 63 64c0 40 -29 64 -63 64z" />
    <glyph glyph-name="integral" unicode="&#x222b;" horiz-adv-x="468" 
d="M500 714l-21 -104h-43c-47 0 -71 -21 -81 -70l-110 -549c-29 -143 -103 -182 -211 -182h-65l21 105h42c47 0 72 20 82 69l110 550c29 143 103 181 211 181h65z" />
    <glyph glyph-name="approxequal" unicode="&#x2248;" horiz-adv-x="576" 
d="M230 482c41 0 71 -11 107 -32c29 -17 50 -24 75 -24c27 0 56 6 95 42l64 -83c-77 -71 -131 -78 -169 -78c-41 0 -71 11 -107 32c-29 17 -51 24 -76 24c-27 0 -55 -6 -94 -42l-65 84c77 71 132 77 170 77zM186 264c41 0 72 -11 108 -32c29 -17 50 -24 75 -24
c27 0 56 6 95 42l64 -83c-77 -71 -131 -78 -169 -78c-41 0 -71 11 -107 32c-29 17 -51 24 -76 24c-27 0 -56 -6 -95 -42l-64 84c77 71 131 77 169 77z" />
    <glyph glyph-name="notequal" unicode="&#x2260;" horiz-adv-x="576" 
d="M508 584l66 -64l-68 -72h57l-24 -115h-138l-93 -95h213l-23 -115h-294l-128 -136l-66 64l68 72h-57l24 115h138l93 95h-214l24 115h295z" />
    <glyph glyph-name="lessequal" unicode="&#x2264;" horiz-adv-x="516" 
d="M526 644l-27 -136l-264 -110l222 -116l-25 -125l-353 199l20 103zM65 277l353 -199l-24 -120l-353 199z" />
    <glyph glyph-name="greaterequal" unicode="&#x2265;" horiz-adv-x="516" 
d="M141 649l353 -199l-21 -103l-426 -185l27 136l263 109l-222 116zM460 268l-25 -131l-426 -185l25 130z" />
    <glyph glyph-name="dotmath" unicode="&#x22c5;" horiz-adv-x="516" 
d="M342 356l-28 -141h-141l28 141h141z" />
    <glyph glyph-name="uni2460" unicode="&#x2460;" horiz-adv-x="896" 
d="M420 165v287l-81 -70v96l81 71h86v-384h-86zM463 718c200 0 362 -162 362 -362s-162 -362 -362 -362s-362 162 -362 362s162 362 362 362zM463 653c-164 0 -291 -127 -291 -297s127 -297 291 -297s291 127 291 297s-127 297 -291 297z" />
    <glyph glyph-name="uni2460" unicode="&#x2780;" horiz-adv-x="896" 
d="M420 165v287l-81 -70v96l81 71h86v-384h-86zM463 718c200 0 362 -162 362 -362s-162 -362 -362 -362s-362 162 -362 362s162 362 362 362zM463 653c-164 0 -291 -127 -291 -297s127 -297 291 -297s291 127 291 297s-127 297 -291 297z" />
    <glyph glyph-name="uni2461" unicode="&#x2461;" horiz-adv-x="896" 
d="M339 165v77l143 151c16 16 20 27 20 45c0 21 -14 37 -39 37c-22 0 -39 -10 -39 -40h-85c1 34 10 61 29 80c23 24 56 37 95 37s71 -12 92 -34c20 -20 31 -47 31 -80c0 -37 -15 -57 -50 -94l-96 -105h148v-74h-249zM463 718c200 0 362 -162 362 -362s-162 -362 -362 -362
s-362 162 -362 362s162 362 362 362zM463 653c-164 0 -291 -127 -291 -297s127 -297 291 -297s291 127 291 297s-127 297 -291 297z" />
    <glyph glyph-name="uni2461" unicode="&#x2781;" horiz-adv-x="896" 
d="M339 165v77l143 151c16 16 20 27 20 45c0 21 -14 37 -39 37c-22 0 -39 -10 -39 -40h-85c1 34 10 61 29 80c23 24 56 37 95 37s71 -12 92 -34c20 -20 31 -47 31 -80c0 -37 -15 -57 -50 -94l-96 -105h148v-74h-249zM463 718c200 0 362 -162 362 -362s-162 -362 -362 -362
s-362 162 -362 362s162 362 362 362zM463 653c-164 0 -291 -127 -291 -297s127 -297 291 -297s291 127 291 297s-127 297 -291 297z" />
    <glyph glyph-name="uni2462" unicode="&#x2462;" horiz-adv-x="896" 
d="M465 161c-67 0 -129 33 -130 121h85c2 -31 20 -47 45 -47s43 19 43 47c0 30 -17 46 -44 46h-12v69h11c26 0 41 17 41 39c0 27 -16 42 -39 42s-38 -16 -39 -42h-86c2 74 56 116 125 116c74 0 125 -48 125 -112c0 -43 -16 -62 -43 -75c27 -16 47 -42 47 -87
c0 -77 -58 -117 -129 -117zM463 718c200 0 362 -162 362 -362s-162 -362 -362 -362s-362 162 -362 362s162 362 362 362zM463 653c-164 0 -291 -127 -291 -297s127 -297 291 -297s291 127 291 297s-127 297 -291 297z" />
    <glyph glyph-name="uni2462" unicode="&#x2782;" horiz-adv-x="896" 
d="M465 161c-67 0 -129 33 -130 121h85c2 -31 20 -47 45 -47s43 19 43 47c0 30 -17 46 -44 46h-12v69h11c26 0 41 17 41 39c0 27 -16 42 -39 42s-38 -16 -39 -42h-86c2 74 56 116 125 116c74 0 125 -48 125 -112c0 -43 -16 -62 -43 -75c27 -16 47 -42 47 -87
c0 -77 -58 -117 -129 -117zM463 718c200 0 362 -162 362 -362s-162 -362 -362 -362s-362 162 -362 362s162 362 362 362zM463 653c-164 0 -291 -127 -291 -297s127 -297 291 -297s291 127 291 297s-127 297 -291 297z" />
    <glyph glyph-name="uni2463" unicode="&#x2463;" horiz-adv-x="896" 
d="M475 165v56h-158v67l128 261h83l-128 -261h75v71h74v-71h44v-67h-44v-56h-74zM463 718c200 0 362 -162 362 -362s-162 -362 -362 -362s-362 162 -362 362s162 362 362 362zM463 653c-164 0 -291 -127 -291 -297s127 -297 291 -297s291 127 291 297s-127 297 -291 297z
" />
    <glyph glyph-name="uni2463" unicode="&#x2783;" horiz-adv-x="896" 
d="M475 165v56h-158v67l128 261h83l-128 -261h75v71h74v-71h44v-67h-44v-56h-74zM463 718c200 0 362 -162 362 -362s-162 -362 -362 -362s-362 162 -362 362s162 362 362 362zM463 653c-164 0 -291 -127 -291 -297s127 -297 291 -297s291 127 291 297s-127 297 -291 297z
" />
    <glyph glyph-name="uni2464" unicode="&#x2464;" horiz-adv-x="896" 
d="M465 161c-43 0 -73 14 -92 33c-25 24 -31 43 -34 79h86c2 -25 16 -40 40 -40c12 0 22 4 29 12c9 10 11 26 11 49c0 41 -11 58 -40 58c-24 0 -34 -12 -40 -29h-80v226h239v-72h-165v-77c16 15 33 21 59 21c34 0 61 -11 77 -27c30 -29 36 -63 36 -100c0 -46 -8 -72 -34 -99
c-20 -20 -50 -34 -92 -34zM463 718c200 0 362 -162 362 -362s-162 -362 -362 -362s-362 162 -362 362s162 362 362 362zM463 653c-164 0 -291 -127 -291 -297s127 -297 291 -297s291 127 291 297s-127 297 -291 297z" />
    <glyph glyph-name="uni2464" unicode="&#x2784;" horiz-adv-x="896" 
d="M465 161c-43 0 -73 14 -92 33c-25 24 -31 43 -34 79h86c2 -25 16 -40 40 -40c12 0 22 4 29 12c9 10 11 26 11 49c0 41 -11 58 -40 58c-24 0 -34 -12 -40 -29h-80v226h239v-72h-165v-77c16 15 33 21 59 21c34 0 61 -11 77 -27c30 -29 36 -63 36 -100c0 -46 -8 -72 -34 -99
c-20 -20 -50 -34 -92 -34zM463 718c200 0 362 -162 362 -362s-162 -362 -362 -362s-362 162 -362 362s162 362 362 362zM463 653c-164 0 -291 -127 -291 -297s127 -297 291 -297s291 127 291 297s-127 297 -291 297z" />
    <glyph glyph-name="uni2465" unicode="&#x2465;" horiz-adv-x="896" 
d="M462 161c-70 0 -127 43 -127 125c0 27 6 54 31 103l79 160h95l-78 -154c7 4 16 6 26 6c51 0 102 -40 102 -115c0 -82 -56 -125 -128 -125zM462 239c25 0 43 15 43 47s-18 48 -43 48c-24 0 -41 -16 -41 -48s17 -47 41 -47zM463 718c200 0 362 -162 362 -362
s-162 -362 -362 -362s-362 162 -362 362s162 362 362 362zM463 653c-164 0 -291 -127 -291 -297s127 -297 291 -297s291 127 291 297s-127 297 -291 297z" />
    <glyph glyph-name="uni2465" unicode="&#x2785;" horiz-adv-x="896" 
d="M462 161c-70 0 -127 43 -127 125c0 27 6 54 31 103l79 160h95l-78 -154c7 4 16 6 26 6c51 0 102 -40 102 -115c0 -82 -56 -125 -128 -125zM462 239c25 0 43 15 43 47s-18 48 -43 48c-24 0 -41 -16 -41 -48s17 -47 41 -47zM463 718c200 0 362 -162 362 -362
s-162 -362 -362 -362s-362 162 -362 362s162 362 362 362zM463 653c-164 0 -291 -127 -291 -297s127 -297 291 -297s291 127 291 297s-127 297 -291 297z" />
    <glyph glyph-name="uni2466" unicode="&#x2466;" horiz-adv-x="896" 
d="M390 165l122 312h-97v-67h-76v139h255v-72l-122 -312h-82zM463 718c200 0 362 -162 362 -362s-162 -362 -362 -362s-362 162 -362 362s162 362 362 362zM463 653c-164 0 -291 -127 -291 -297s127 -297 291 -297s291 127 291 297s-127 297 -291 297z" />
    <glyph glyph-name="uni2466" unicode="&#x2786;" horiz-adv-x="896" 
d="M390 165l122 312h-97v-67h-76v139h255v-72l-122 -312h-82zM463 718c200 0 362 -162 362 -362s-162 -362 -362 -362s-362 162 -362 362s162 362 362 362zM463 653c-164 0 -291 -127 -291 -297s127 -297 291 -297s291 127 291 297s-127 297 -291 297z" />
    <glyph glyph-name="uni2467" unicode="&#x2467;" horiz-adv-x="896" 
d="M460 161c-71 0 -130 39 -130 118c0 43 22 68 46 84c-21 14 -41 37 -41 76c0 72 59 113 125 113c67 0 127 -41 127 -113c0 -39 -21 -62 -42 -76c24 -16 46 -41 46 -84c0 -79 -59 -118 -131 -118zM460 235c28 0 45 20 45 46s-19 45 -45 45c-25 0 -44 -19 -44 -45
s17 -46 44 -46zM460 396c24 0 41 17 41 41s-16 42 -41 42c-24 0 -40 -18 -40 -42s17 -41 40 -41zM463 718c200 0 362 -162 362 -362s-162 -362 -362 -362s-362 162 -362 362s162 362 362 362zM463 653c-164 0 -291 -127 -291 -297s127 -297 291 -297s291 127 291 297
s-127 297 -291 297z" />
    <glyph glyph-name="uni2467" unicode="&#x2787;" horiz-adv-x="896" 
d="M460 161c-71 0 -130 39 -130 118c0 43 22 68 46 84c-21 14 -41 37 -41 76c0 72 59 113 125 113c67 0 127 -41 127 -113c0 -39 -21 -62 -42 -76c24 -16 46 -41 46 -84c0 -79 -59 -118 -131 -118zM460 235c28 0 45 20 45 46s-19 45 -45 45c-25 0 -44 -19 -44 -45
s17 -46 44 -46zM460 396c24 0 41 17 41 41s-16 42 -41 42c-24 0 -40 -18 -40 -42s17 -41 40 -41zM463 718c200 0 362 -162 362 -362s-162 -362 -362 -362s-362 162 -362 362s162 362 362 362zM463 653c-164 0 -291 -127 -291 -297s127 -297 291 -297s291 127 291 297
s-127 297 -291 297z" />
    <glyph glyph-name="uni2468" unicode="&#x2468;" horiz-adv-x="896" 
d="M385 165l78 154c-7 -4 -16 -6 -26 -6c-51 0 -102 40 -102 115c0 82 56 125 128 125c70 0 127 -43 127 -125c0 -27 -6 -54 -31 -103l-79 -160h-95zM463 380c24 0 41 16 41 48s-17 47 -41 47c-25 0 -43 -15 -43 -47s18 -48 43 -48zM463 718c200 0 362 -162 362 -362
s-162 -362 -362 -362s-362 162 -362 362s162 362 362 362zM463 653c-164 0 -291 -127 -291 -297s127 -297 291 -297s291 127 291 297s-127 297 -291 297z" />
    <glyph glyph-name="uni2468" unicode="&#x2788;" horiz-adv-x="896" 
d="M385 165l78 154c-7 -4 -16 -6 -26 -6c-51 0 -102 40 -102 115c0 82 56 125 128 125c70 0 127 -43 127 -125c0 -27 -6 -54 -31 -103l-79 -160h-95zM463 380c24 0 41 16 41 48s-17 47 -41 47c-25 0 -43 -15 -43 -47s18 -48 43 -48zM463 718c200 0 362 -162 362 -362
s-162 -362 -362 -362s-362 162 -362 362s162 362 362 362zM463 653c-164 0 -291 -127 -291 -297s127 -297 291 -297s291 127 291 297s-127 297 -291 297z" />
    <glyph glyph-name="uni2469" unicode="&#x2469;" horiz-adv-x="896" 
d="M559 160c-31 0 -56 8 -73 24c-22 19 -33 48 -33 85v175c0 38 11 67 33 86c17 15 42 23 73 23s56 -8 73 -23c22 -19 33 -48 33 -86v-175c0 -37 -11 -66 -33 -85c-17 -16 -42 -24 -73 -24zM559 218c27 0 42 16 42 52v174c0 35 -15 51 -42 51s-42 -16 -42 -51v-174
c0 -36 15 -52 42 -52zM325 165v310l-67 -54v74l67 54h65v-384h-65zM463 718c200 0 362 -162 362 -362s-162 -362 -362 -362s-362 162 -362 362s162 362 362 362zM463 653c-164 0 -291 -127 -291 -297s127 -297 291 -297s291 127 291 297s-127 297 -291 297z" />
    <glyph glyph-name="uni2469" unicode="&#x2789;" horiz-adv-x="896" 
d="M559 160c-31 0 -56 8 -73 24c-22 19 -33 48 -33 85v175c0 38 11 67 33 86c17 15 42 23 73 23s56 -8 73 -23c22 -19 33 -48 33 -86v-175c0 -37 -11 -66 -33 -85c-17 -16 -42 -24 -73 -24zM559 218c27 0 42 16 42 52v174c0 35 -15 51 -42 51s-42 -16 -42 -51v-174
c0 -36 15 -52 42 -52zM325 165v310l-67 -54v74l67 54h65v-384h-65zM463 718c200 0 362 -162 362 -362s-162 -362 -362 -362s-362 162 -362 362s162 362 362 362zM463 653c-164 0 -291 -127 -291 -297s127 -297 291 -297s291 127 291 297s-127 297 -291 297z" />
    <glyph glyph-name="uni246A" unicode="&#x246a;" horiz-adv-x="896" 
d="M325 165v310l-67 -54v74l67 54h65v-384h-65zM540 165v310l-67 -54v74l67 54h65v-384h-65zM463 718c200 0 362 -162 362 -362s-162 -362 -362 -362s-362 162 -362 362s162 362 362 362zM463 653c-164 0 -291 -127 -291 -297s127 -297 291 -297s291 127 291 297
s-127 297 -291 297z" />
    <glyph glyph-name="uni246B" unicode="&#x246b;" horiz-adv-x="896" 
d="M325 165v310l-67 -54v74l67 54h65v-384h-65zM461 165v55l116 174c16 24 22 40 22 60c0 27 -14 41 -39 41c-24 0 -41 -13 -41 -42v-18h-64v18c0 31 11 57 32 76c15 15 40 24 73 24c32 0 57 -9 73 -23c19 -16 30 -45 30 -76c0 -28 -10 -48 -32 -82l-100 -149h132v-58h-202z
M463 718c200 0 362 -162 362 -362s-162 -362 -362 -362s-362 162 -362 362s162 362 362 362zM463 653c-164 0 -291 -127 -291 -297s127 -297 291 -297s291 127 291 297s-127 297 -291 297z" />
    <glyph glyph-name="uni246C" unicode="&#x246c;" horiz-adv-x="896" 
d="M325 165v310l-67 -54v74l67 54h65v-384h-65zM559 160c-31 0 -55 8 -73 23c-22 18 -32 46 -32 89h60l1 -14c1 -27 20 -40 44 -40c13 0 23 3 31 13c8 8 11 22 11 45c0 32 -4 43 -11 53c-7 8 -16 12 -29 12h-19v52h18c13 0 23 5 29 14c5 6 9 16 9 35c0 21 -5 36 -13 44
c-7 6 -16 9 -27 9c-23 0 -37 -13 -39 -37l-1 -18h-62c0 45 11 72 30 90c17 16 43 23 72 23c31 0 54 -7 71 -22c24 -23 33 -45 33 -83c0 -25 -3 -44 -11 -57c-6 -10 -16 -18 -29 -25c12 -5 20 -12 28 -23c11 -15 15 -38 15 -67c0 -47 -12 -75 -35 -94
c-16 -14 -43 -22 -71 -22zM463 718c200 0 362 -162 362 -362s-162 -362 -362 -362s-362 162 -362 362s162 362 362 362zM463 653c-164 0 -291 -127 -291 -297s127 -297 291 -297s291 127 291 297s-127 297 -291 297z" />
    <glyph glyph-name="uni246D" unicode="&#x246d;" horiz-adv-x="896" 
d="M565 165v56h-130v57l110 271h66l-109 -270h63v67h65v-67h35v-58h-35v-56h-65zM325 165v310l-67 -54v74l67 54h65v-384h-65zM463 718c200 0 362 -162 362 -362s-162 -362 -362 -362s-362 162 -362 362s162 362 362 362zM463 653c-164 0 -291 -127 -291 -297
s127 -297 291 -297s291 127 291 297s-127 297 -291 297z" />
    <glyph glyph-name="uni246E" unicode="&#x246e;" horiz-adv-x="896" 
d="M325 165v310l-67 -54v74l67 54h65v-384h-65zM556 160c-32 0 -58 9 -75 25c-19 18 -29 45 -30 76v8h64v-10c0 -25 16 -41 41 -41c15 0 25 5 31 14c8 11 11 29 11 61c0 33 -3 52 -13 63c-7 7 -16 11 -30 11c-25 0 -36 -14 -40 -33h-58v215h204v-58h-146v-93
c19 19 32 27 60 27s47 -7 60 -21c20 -23 28 -53 28 -111c0 -54 -7 -85 -32 -108c-18 -17 -44 -25 -75 -25zM463 718c200 0 362 -162 362 -362s-162 -362 -362 -362s-362 162 -362 362s162 362 362 362zM463 653c-164 0 -291 -127 -291 -297s127 -297 291 -297
s291 127 291 297s-127 297 -291 297z" />
    <glyph glyph-name="uni246F" unicode="&#x246f;" horiz-adv-x="896" 
d="M325 165v310l-67 -54v74l67 54h65v-384h-65zM463 718c200 0 362 -162 362 -362s-162 -362 -362 -362s-362 162 -362 362s162 362 362 362zM463 653c-164 0 -291 -127 -291 -297s127 -297 291 -297s291 127 291 297s-127 297 -291 297zM559 160c-32 0 -57 10 -75 27
c-21 21 -30 43 -30 90c0 37 6 61 18 90l75 182h68l-67 -162c8 5 19 6 30 6c23 0 48 -10 62 -28c17 -20 24 -40 24 -88c0 -47 -9 -69 -30 -90c-18 -17 -43 -27 -75 -27zM600 277c0 22 -4 36 -9 44c-7 10 -19 16 -32 16c-14 0 -25 -6 -32 -16c-6 -8 -9 -22 -9 -44
c0 -21 3 -34 8 -41c7 -12 19 -18 33 -18s26 6 33 18c5 7 8 20 8 41z" />
    <glyph glyph-name="uni2470" unicode="&#x2470;" horiz-adv-x="896" 
d="M470 165l108 327h-87v-56h-57v113h207v-54l-108 -330h-63zM325 165v310l-67 -54v74l67 54h65v-384h-65zM463 718c200 0 362 -162 362 -362s-162 -362 -362 -362s-362 162 -362 362s162 362 362 362zM463 653c-164 0 -291 -127 -291 -297s127 -297 291 -297
s291 127 291 297s-127 297 -291 297z" />
    <glyph glyph-name="uni2471" unicode="&#x2471;" horiz-adv-x="896" 
d="M325 165v310l-67 -54v74l67 54h65v-384h-65zM463 718c200 0 362 -162 362 -362s-162 -362 -362 -362s-362 162 -362 362s162 362 362 362zM463 653c-164 0 -291 -127 -291 -297s127 -297 291 -297s291 127 291 297s-127 297 -291 297zM559 160c-32 0 -59 10 -77 27
c-23 22 -32 49 -32 92c0 26 5 45 15 61c6 10 14 19 28 26c-13 9 -22 19 -29 32c-6 13 -9 29 -9 47c0 37 10 64 29 82c17 17 43 26 75 26s58 -9 75 -26c19 -18 29 -45 29 -82c0 -18 -3 -34 -9 -47c-7 -13 -16 -23 -29 -32c14 -7 22 -16 28 -26c10 -16 15 -35 15 -61
c0 -43 -9 -70 -32 -92c-18 -17 -45 -27 -77 -27zM559 341c-14 0 -25 -5 -32 -15c-9 -11 -12 -27 -12 -47c0 -19 2 -33 10 -45c7 -11 19 -16 34 -16s27 5 34 16c8 12 10 26 10 45c0 20 -3 36 -12 47c-7 10 -18 15 -32 15zM559 495c-14 0 -23 -4 -30 -14c-6 -8 -9 -21 -9 -36
c0 -12 1 -23 6 -32c6 -11 18 -18 33 -18s27 7 33 18c5 9 6 20 6 32c0 15 -3 28 -9 36c-7 10 -16 14 -30 14z" />
    <glyph glyph-name="uni2472" unicode="&#x2472;" horiz-adv-x="896" 
d="M325 165v310l-67 -54v74l67 54h65v-384h-65zM463 718c200 0 362 -162 362 -362s-162 -362 -362 -362s-362 162 -362 362s162 362 362 362zM463 653c-164 0 -291 -127 -291 -297s127 -297 291 -297s291 127 291 297s-127 297 -291 297zM559 554c32 0 57 -10 75 -27
c21 -21 30 -43 30 -90c0 -37 -6 -61 -18 -90l-75 -182h-68l67 162c-8 -5 -19 -6 -30 -6c-23 0 -48 10 -62 28c-17 20 -24 40 -24 88c0 47 9 69 30 90c18 17 43 27 75 27zM518 437c0 -22 4 -36 9 -44c7 -10 19 -16 32 -16c14 0 25 6 32 16c6 8 9 22 9 44c0 21 -3 34 -8 41
c-7 12 -19 18 -33 18s-26 -6 -33 -18c-5 -7 -8 -20 -8 -41z" />
    <glyph glyph-name="uni2473" unicode="&#x2473;" horiz-adv-x="896" 
d="M583 158c-31 0 -56 8 -73 24c-22 19 -33 48 -33 85v175c0 38 11 67 33 86c17 15 42 23 73 23s56 -8 73 -23c22 -19 33 -48 33 -86v-175c0 -37 -11 -66 -33 -85c-17 -16 -42 -24 -73 -24zM583 216c27 0 42 16 42 52v174c0 35 -15 51 -42 51s-42 -16 -42 -51v-174
c0 -36 15 -52 42 -52zM250 165v55l116 174c16 24 22 40 22 60c0 27 -14 41 -39 41c-24 0 -41 -13 -41 -42v-18h-64v18c0 31 11 57 32 76c15 15 40 24 73 24c32 0 57 -9 73 -23c19 -16 30 -45 30 -76c0 -28 -10 -48 -32 -82l-100 -149h132v-58h-202zM463 718
c200 0 362 -162 362 -362s-162 -362 -362 -362s-362 162 -362 362s162 362 362 362zM463 653c-164 0 -291 -127 -291 -297s127 -297 291 -297s291 127 291 297s-127 297 -291 297z" />
    <glyph glyph-name="uni24EA" unicode="&#x24ea;" horiz-adv-x="896" 
d="M461 161c-67 0 -125 42 -125 121v149c0 80 58 121 125 121s125 -41 125 -121v-149c0 -79 -58 -121 -125 -121zM461 238c23 0 39 16 39 44v149c0 29 -16 44 -39 44s-39 -15 -39 -44v-149c0 -28 15 -44 39 -44zM463 718c200 0 362 -162 362 -362s-162 -362 -362 -362
s-362 162 -362 362s162 362 362 362zM463 653c-164 0 -291 -127 -291 -297s127 -297 291 -297s291 127 291 297s-127 297 -291 297z" />
    <glyph glyph-name="uni24EB" unicode="&#x24eb;" horiz-adv-x="896" 
d="M325 475v-310h65v384h-65l-67 -54v-74zM540 475v-310h65v384h-65l-67 -54v-74zM463 718c200 0 362 -162 362 -362s-162 -362 -362 -362s-362 162 -362 362s162 362 362 362z" />
    <glyph glyph-name="uni24EC" unicode="&#x24ec;" horiz-adv-x="896" 
d="M325 475v-310h65v384h-65l-67 -54v-74zM461 220v-55h202v58h-132l100 149c22 34 32 54 32 82c0 31 -11 60 -30 76c-16 14 -41 23 -73 23c-33 0 -58 -9 -73 -24c-21 -19 -32 -45 -32 -76v-18h64v18c0 29 17 42 41 42c25 0 39 -14 39 -41c0 -20 -6 -36 -22 -60zM463 718
c200 0 362 -162 362 -362s-162 -362 -362 -362s-362 162 -362 362s162 362 362 362z" />
    <glyph glyph-name="uni24ED" unicode="&#x24ed;" horiz-adv-x="896" 
d="M325 475v-310h65v384h-65l-67 -54v-74zM559 160c28 0 55 8 71 22c23 19 35 47 35 94c0 29 -4 52 -15 67c-8 11 -16 18 -28 23c13 7 23 15 29 25c8 13 11 32 11 57c0 38 -9 60 -33 83c-17 15 -40 22 -71 22c-29 0 -55 -7 -72 -23c-19 -18 -30 -45 -30 -90h62l1 18
c2 24 16 37 39 37c11 0 20 -3 27 -9c8 -8 13 -23 13 -44c0 -19 -4 -29 -9 -35c-6 -9 -16 -14 -29 -14h-18v-52h19c13 0 22 -4 29 -12c7 -10 11 -21 11 -53c0 -23 -3 -37 -11 -45c-8 -10 -18 -13 -31 -13c-24 0 -43 13 -44 40l-1 14h-60c0 -43 10 -71 32 -89
c18 -15 42 -23 73 -23zM463 718c200 0 362 -162 362 -362s-162 -362 -362 -362s-362 162 -362 362s162 362 362 362z" />
    <glyph glyph-name="uni24EE" unicode="&#x24ee;" horiz-adv-x="896" 
d="M570 221v-56h65v56h35v58h-35v67h-65v-67h-73l109 270h-66l-110 -271v-57h140zM325 475v-310h65v384h-65l-67 -54v-74zM463 718c200 0 362 -162 362 -362s-162 -362 -362 -362s-362 162 -362 362s162 362 362 362z" />
    <glyph glyph-name="uni24EF" unicode="&#x24ef;" horiz-adv-x="896" 
d="M325 475v-310h65v384h-65l-67 -54v-74zM463 718c200 0 362 -162 362 -362s-162 -362 -362 -362s-362 162 -362 362s162 362 362 362zM556 160c31 0 57 8 75 25c25 23 32 54 32 108c0 58 -8 88 -28 111c-13 14 -32 21 -60 21s-41 -8 -60 -27v93h146v58h-204v-215h58
c4 19 15 33 40 33c14 0 23 -4 30 -11c10 -11 13 -30 13 -63c0 -32 -3 -50 -11 -61c-6 -9 -16 -14 -31 -14c-25 0 -41 16 -41 41v10h-64v-8c1 -31 11 -58 30 -76c17 -16 43 -25 75 -25z" />
    <glyph glyph-name="uni24F0" unicode="&#x24f0;" horiz-adv-x="896" 
d="M325 475v-310h65v384h-65l-67 -54v-74zM463 718c200 0 362 -162 362 -362s-162 -362 -362 -362s-362 162 -362 362s162 362 362 362zM559 160c32 0 57 10 75 27c21 21 30 43 30 90c0 48 -7 68 -24 88c-14 18 -39 28 -62 28c-11 0 -22 -1 -30 -6l67 162h-68l-75 -182
c-12 -29 -18 -53 -18 -90c0 -47 9 -69 30 -90c18 -17 43 -27 75 -27zM600 277c0 -21 -3 -34 -8 -41c-7 -12 -19 -18 -33 -18s-26 6 -33 18c-5 7 -8 20 -8 41c0 22 3 36 9 44c7 10 18 16 32 16c13 0 25 -6 32 -16c5 -8 9 -22 9 -44z" />
    <glyph glyph-name="uni24F1" unicode="&#x24f1;" horiz-adv-x="896" 
d="M325 475v-310h65v384h-65l-67 -54v-74zM463 718c200 0 362 -162 362 -362s-162 -362 -362 -362s-362 162 -362 362s162 362 362 362zM578 492l-108 -327h63l108 330v54h-207v-113h57v56h87z" />
    <glyph glyph-name="uni24F2" unicode="&#x24f2;" horiz-adv-x="896" 
d="M325 475v-310h65v384h-65l-67 -54v-74zM463 718c200 0 362 -162 362 -362s-162 -362 -362 -362s-362 162 -362 362s162 362 362 362zM559 160c32 0 59 10 77 27c23 22 32 49 32 92c0 26 -5 45 -15 61c-6 10 -14 19 -28 26c13 9 22 19 29 32c6 13 9 29 9 47
c0 37 -10 64 -29 82c-17 17 -43 26 -75 26s-58 -9 -75 -26c-19 -18 -29 -45 -29 -82c0 -18 3 -34 9 -47c7 -13 16 -23 29 -32c-14 -7 -22 -16 -28 -26c-10 -16 -15 -35 -15 -61c0 -43 9 -70 32 -92c18 -17 45 -27 77 -27zM559 341c14 0 25 -5 32 -15c9 -11 12 -27 12 -47
c0 -19 -2 -33 -10 -45c-7 -11 -19 -16 -34 -16s-27 5 -34 16c-8 12 -10 26 -10 45c0 20 3 36 12 47c7 10 18 15 32 15zM559 495c14 0 23 -4 30 -14c6 -8 9 -21 9 -36c0 -12 -1 -23 -6 -32c-6 -11 -18 -18 -33 -18s-27 7 -33 18c-5 9 -6 20 -6 32c0 15 3 28 9 36
c7 10 16 14 30 14z" />
    <glyph glyph-name="uni24F3" unicode="&#x24f3;" horiz-adv-x="896" 
d="M325 475v-310h65v384h-65l-67 -54v-74zM463 718c200 0 362 -162 362 -362s-162 -362 -362 -362s-362 162 -362 362s162 362 362 362zM559 554c-32 0 -57 -10 -75 -27c-21 -21 -30 -43 -30 -90c0 -48 7 -68 24 -88c14 -18 39 -28 62 -28c11 0 22 1 30 6l-67 -162h68
l75 182c12 29 18 53 18 90c0 47 -9 69 -30 90c-18 17 -43 27 -75 27zM518 437c0 21 3 34 8 41c7 12 19 18 33 18s26 -6 33 -18c5 -7 8 -20 8 -41c0 -22 -3 -36 -9 -44c-7 -10 -18 -16 -32 -16c-13 0 -25 6 -32 16c-5 8 -9 22 -9 44z" />
    <glyph glyph-name="uni24F4" unicode="&#x24f4;" horiz-adv-x="896" 
d="M583 158c31 0 56 8 73 24c22 19 33 48 33 85v175c0 38 -11 67 -33 86c-17 15 -42 23 -73 23s-56 -8 -73 -23c-22 -19 -33 -48 -33 -86v-175c0 -37 11 -66 33 -85c17 -16 42 -24 73 -24zM583 216c-27 0 -42 16 -42 52v174c0 35 15 51 42 51s42 -16 42 -51v-174
c0 -36 -15 -52 -42 -52zM250 220v-55h202v58h-132l100 149c22 34 32 54 32 82c0 31 -11 60 -30 76c-16 14 -41 23 -73 23c-33 0 -58 -9 -73 -24c-21 -19 -32 -45 -32 -76v-18h64v18c0 29 17 42 41 42c25 0 39 -14 39 -41c0 -20 -6 -36 -22 -60zM463 718
c200 0 362 -162 362 -362s-162 -362 -362 -362s-362 162 -362 362s162 362 362 362z" />
    <glyph glyph-name="uni24FF" unicode="&#x24ff;" horiz-adv-x="896" 
d="M462 161c67 0 125 42 125 121v149c0 80 -58 121 -125 121s-125 -41 -125 -121v-149c0 -79 58 -121 125 -121zM462 238c-24 0 -39 16 -39 44v149c0 29 16 44 39 44s39 -15 39 -44v-149c0 -28 -16 -44 -39 -44zM463 718c200 0 362 -162 362 -362s-162 -362 -362 -362
s-362 162 -362 362s162 362 362 362z" />
    <glyph glyph-name="filledbox" unicode="&#x25a0;" horiz-adv-x="816" 
d="M854 712l-142 -712h-712l142 712h712z" />
    <glyph glyph-name="uni25A1" unicode="&#x25a1;" horiz-adv-x="818" 
d="M855 712l-142 -712h-712l142 712h712zM753 631h-539l-111 -550h540z" />
    <glyph glyph-name="lozenge" unicode="&#x25ca;" horiz-adv-x="622" 
d="M403 723l187 -368l-332 -365l-187 368zM363 521l-146 -165l82 -165l146 165z" />
    <glyph glyph-name="circle" unicode="&#x25cb;" horiz-adv-x="896" 
d="M463 718c200 0 362 -162 362 -362s-162 -362 -362 -362s-362 162 -362 362s162 362 362 362zM463 653c-164 0 -291 -127 -291 -297s127 -297 291 -297s291 127 291 297s-127 297 -291 297z" />
    <glyph glyph-name="uni25CF" unicode="&#x25cf;" horiz-adv-x="896" 
d="M463 718c200 0 362 -162 362 -362s-162 -362 -362 -362s-362 162 -362 362s162 362 362 362z" />
    <glyph glyph-name="uni278A" unicode="&#x2776;" horiz-adv-x="896" 
d="M463 -6c-200 0 -362 162 -362 362s162 362 362 362s362 -162 362 -362s-162 -362 -362 -362zM421 165h86v384h-86l-81 -71v-96l81 70v-287z" />
    <glyph glyph-name="uni278A" unicode="&#x278a;" horiz-adv-x="896" 
d="M463 -6c-200 0 -362 162 -362 362s162 362 362 362s362 -162 362 -362s-162 -362 -362 -362zM421 165h86v384h-86l-81 -71v-96l81 70v-287z" />
    <glyph glyph-name="uni278B" unicode="&#x2777;" horiz-adv-x="896" 
d="M463 -6c-200 0 -362 162 -362 362s162 362 362 362s362 -162 362 -362s-162 -362 -362 -362zM339 165h249v74h-148l96 105c35 37 50 57 50 94c0 33 -11 60 -31 80c-21 22 -53 34 -92 34s-72 -13 -95 -37c-19 -19 -28 -46 -29 -80h85c0 30 17 40 39 40c25 0 39 -16 39 -37
c0 -18 -4 -29 -20 -45l-143 -151v-77z" />
    <glyph glyph-name="uni278B" unicode="&#x278b;" horiz-adv-x="896" 
d="M463 -6c-200 0 -362 162 -362 362s162 362 362 362s362 -162 362 -362s-162 -362 -362 -362zM339 165h249v74h-148l96 105c35 37 50 57 50 94c0 33 -11 60 -31 80c-21 22 -53 34 -92 34s-72 -13 -95 -37c-19 -19 -28 -46 -29 -80h85c0 30 17 40 39 40c25 0 39 -16 39 -37
c0 -18 -4 -29 -20 -45l-143 -151v-77z" />
    <glyph glyph-name="uni278C" unicode="&#x2778;" horiz-adv-x="896" 
d="M463 -6c-200 0 -362 162 -362 362s162 362 362 362s362 -162 362 -362s-162 -362 -362 -362zM464 161c71 0 129 40 129 117c0 45 -20 71 -47 87c27 13 43 32 43 75c0 64 -51 112 -125 112c-69 0 -123 -42 -125 -116h86c1 26 16 42 39 42s39 -15 39 -42
c0 -22 -15 -39 -41 -39h-11v-69h12c27 0 44 -16 44 -46c0 -28 -18 -47 -43 -47s-43 16 -45 47h-85c1 -88 63 -121 130 -121z" />
    <glyph glyph-name="uni278C" unicode="&#x278c;" horiz-adv-x="896" 
d="M463 -6c-200 0 -362 162 -362 362s162 362 362 362s362 -162 362 -362s-162 -362 -362 -362zM464 161c71 0 129 40 129 117c0 45 -20 71 -47 87c27 13 43 32 43 75c0 64 -51 112 -125 112c-69 0 -123 -42 -125 -116h86c1 26 16 42 39 42s39 -15 39 -42
c0 -22 -15 -39 -41 -39h-11v-69h12c27 0 44 -16 44 -46c0 -28 -18 -47 -43 -47s-43 16 -45 47h-85c1 -88 63 -121 130 -121z" />
    <glyph glyph-name="uni278D" unicode="&#x2779;" horiz-adv-x="896" 
d="M463 -6c-200 0 -362 162 -362 362s162 362 362 362s362 -162 362 -362s-162 -362 -362 -362zM475 221v-56h74v56h44v67h-44v71h-74v-71h-75l128 261h-83l-128 -261v-67h158z" />
    <glyph glyph-name="uni278D" unicode="&#x278d;" horiz-adv-x="896" 
d="M463 -6c-200 0 -362 162 -362 362s162 362 362 362s362 -162 362 -362s-162 -362 -362 -362zM475 221v-56h74v56h44v67h-44v71h-74v-71h-75l128 261h-83l-128 -261v-67h158z" />
    <glyph glyph-name="uni278E" unicode="&#x277a;" horiz-adv-x="896" 
d="M463 -6c-200 0 -362 162 -362 362s162 362 362 362s362 -162 362 -362s-162 -362 -362 -362zM465 161c42 0 72 14 92 34c26 27 34 53 34 99c0 37 -6 71 -36 100c-16 16 -43 27 -77 27c-26 0 -43 -6 -59 -21v77h165v72h-239v-226h80c6 17 16 29 40 29c29 0 40 -17 40 -58
c0 -23 -2 -39 -11 -49c-7 -8 -17 -12 -29 -12c-24 0 -38 15 -40 40h-86c3 -36 9 -55 34 -79c19 -19 49 -33 92 -33z" />
    <glyph glyph-name="uni278E" unicode="&#x278e;" horiz-adv-x="896" 
d="M463 -6c-200 0 -362 162 -362 362s162 362 362 362s362 -162 362 -362s-162 -362 -362 -362zM465 161c42 0 72 14 92 34c26 27 34 53 34 99c0 37 -6 71 -36 100c-16 16 -43 27 -77 27c-26 0 -43 -6 -59 -21v77h165v72h-239v-226h80c6 17 16 29 40 29c29 0 40 -17 40 -58
c0 -23 -2 -39 -11 -49c-7 -8 -17 -12 -29 -12c-24 0 -38 15 -40 40h-86c3 -36 9 -55 34 -79c19 -19 49 -33 92 -33z" />
    <glyph glyph-name="uni278F" unicode="&#x277b;" horiz-adv-x="896" 
d="M463 -6c-200 0 -362 162 -362 362s162 362 362 362s362 -162 362 -362s-162 -362 -362 -362zM463 238c-24 0 -41 15 -41 47s17 48 41 48c25 0 43 -16 43 -48s-18 -47 -43 -47zM463 160c72 0 128 43 128 125c0 75 -51 115 -102 115c-10 0 -19 -2 -26 -6l78 154h-95
l-79 -160c-25 -49 -31 -76 -31 -103c0 -82 57 -125 127 -125z" />
    <glyph glyph-name="uni278F" unicode="&#x278f;" horiz-adv-x="896" 
d="M463 -6c-200 0 -362 162 -362 362s162 362 362 362s362 -162 362 -362s-162 -362 -362 -362zM463 238c-24 0 -41 15 -41 47s17 48 41 48c25 0 43 -16 43 -48s-18 -47 -43 -47zM463 160c72 0 128 43 128 125c0 75 -51 115 -102 115c-10 0 -19 -2 -26 -6l78 154h-95
l-79 -160c-25 -49 -31 -76 -31 -103c0 -82 57 -125 127 -125z" />
    <glyph glyph-name="uni2790" unicode="&#x277c;" horiz-adv-x="896" 
d="M463 -6c-200 0 -362 162 -362 362s162 362 362 362s362 -162 362 -362s-162 -362 -362 -362zM512 477l-122 -312h82l122 312v72h-255v-139h76v67h97z" />
    <glyph glyph-name="uni2790" unicode="&#x2790;" horiz-adv-x="896" 
d="M463 -6c-200 0 -362 162 -362 362s162 362 362 362s362 -162 362 -362s-162 -362 -362 -362zM512 477l-122 -312h82l122 312v72h-255v-139h76v67h97z" />
    <glyph glyph-name="uni2791" unicode="&#x277d;" horiz-adv-x="896" 
d="M463 -6c-200 0 -362 162 -362 362s162 362 362 362s362 -162 362 -362s-162 -362 -362 -362zM463 235c-27 0 -44 20 -44 46s19 45 44 45c26 0 45 -19 45 -45s-17 -46 -45 -46zM463 161c72 0 131 39 131 118c0 43 -22 68 -46 84c21 14 42 37 42 76c0 72 -60 113 -127 113
c-66 0 -125 -41 -125 -113c0 -39 20 -62 41 -76c-24 -16 -46 -41 -46 -84c0 -79 59 -118 130 -118zM463 396c-23 0 -40 17 -40 41s16 42 40 42c25 0 41 -18 41 -42s-17 -41 -41 -41z" />
    <glyph glyph-name="uni2791" unicode="&#x2791;" horiz-adv-x="896" 
d="M463 -6c-200 0 -362 162 -362 362s162 362 362 362s362 -162 362 -362s-162 -362 -362 -362zM463 235c-27 0 -44 20 -44 46s19 45 44 45c26 0 45 -19 45 -45s-17 -46 -45 -46zM463 161c72 0 131 39 131 118c0 43 -22 68 -46 84c21 14 42 37 42 76c0 72 -60 113 -127 113
c-66 0 -125 -41 -125 -113c0 -39 20 -62 41 -76c-24 -16 -46 -41 -46 -84c0 -79 59 -118 130 -118zM463 396c-23 0 -40 17 -40 41s16 42 40 42c25 0 41 -18 41 -42s-17 -41 -41 -41z" />
    <glyph glyph-name="uni2792" unicode="&#x277e;" horiz-adv-x="896" 
d="M463 -6c-200 0 -362 162 -362 362s162 362 362 362s362 -162 362 -362s-162 -362 -362 -362zM385 165h95l79 160c25 49 31 76 31 103c0 82 -57 125 -127 125c-72 0 -128 -43 -128 -125c0 -75 51 -115 102 -115c10 0 19 2 26 6zM463 380c-25 0 -43 16 -43 48s18 47 43 47
c24 0 41 -15 41 -47s-17 -48 -41 -48z" />
    <glyph glyph-name="uni2792" unicode="&#x2792;" horiz-adv-x="896" 
d="M463 -6c-200 0 -362 162 -362 362s162 362 362 362s362 -162 362 -362s-162 -362 -362 -362zM385 165h95l79 160c25 49 31 76 31 103c0 82 -57 125 -127 125c-72 0 -128 -43 -128 -125c0 -75 51 -115 102 -115c10 0 19 2 26 6zM463 380c-25 0 -43 16 -43 48s18 47 43 47
c24 0 41 -15 41 -47s-17 -48 -41 -48z" />
    <glyph glyph-name="uni2793" unicode="&#x277f;" horiz-adv-x="896" 
d="M559 160c31 0 56 8 73 24c22 19 33 48 33 85v175c0 38 -11 67 -33 86c-17 15 -42 23 -73 23s-56 -8 -73 -23c-22 -19 -33 -48 -33 -86v-175c0 -37 11 -66 33 -85c17 -16 42 -24 73 -24zM559 218c-27 0 -42 16 -42 52v174c0 35 15 51 42 51s42 -16 42 -51v-174
c0 -36 -15 -52 -42 -52zM325 475v-310h65v384h-65l-67 -54v-74zM463 718c200 0 362 -162 362 -362s-162 -362 -362 -362s-362 162 -362 362s162 362 362 362z" />
    <glyph glyph-name="uni2793" unicode="&#x2793;" horiz-adv-x="896" 
d="M559 160c31 0 56 8 73 24c22 19 33 48 33 85v175c0 38 -11 67 -33 86c-17 15 -42 23 -73 23s-56 -8 -73 -23c-22 -19 -33 -48 -33 -86v-175c0 -37 11 -66 33 -85c17 -16 42 -24 73 -24zM559 218c-27 0 -42 16 -42 52v174c0 35 15 51 42 51s42 -16 42 -51v-174
c0 -36 -15 -52 -42 -52zM325 475v-310h65v384h-65l-67 -54v-74zM463 718c200 0 362 -162 362 -362s-162 -362 -362 -362s-362 162 -362 362s162 362 362 362z" />
    <glyph glyph-name="fi" unicode="&#xfb01;" horiz-adv-x="577" 
d="M392 720l-21 -105h-44c-30 0 -50 -16 -57 -51l-12 -59h91l-19 -95h-91l-82 -410h-124l82 410h-51l19 95h51l15 72c18 91 74 143 170 143h73zM558 505l-101 -505h-124l101 505h124zM600 710l-21 -103h-127l20 103h128z" />
    <glyph glyph-name="fl" unicode="&#xfb02;" horiz-adv-x="631" 
d="M392 720l-21 -105h-44c-30 0 -50 -16 -57 -51l-12 -59h91l-19 -95h-91l-82 -410h-124l82 410h-51l19 95h51l15 72c18 91 74 143 170 143h73zM599 712l-109 -546c-2 -8 -3 -20 -3 -27c0 -21 15 -34 44 -34h41l-21 -105h-55c-49 0 -83 13 -106 35c-20 20 -30 46 -30 78
c0 18 4 41 7 56l108 543h124z" />
    <glyph glyph-name="onequarter.afrc" horiz-adv-x="286" 
d="M297 387l-13 -62h-257l13 62h257zM135 43h-132l11 56l121 183h69l-119 -181h62l10 51h57l-11 -55h27l-11 -54h-27l-8 -43h-57zM267 712l-56 -282h-69l40 204l-70 -52l15 78l71 52h69z" />
    <glyph glyph-name="onehalf.afrc" horiz-adv-x="286" 
d="M297 387l-13 -62h-257l13 62h257zM-9 0l12 57l129 113c17 14 23 24 23 36c0 14 -9 22 -24 22c-16 0 -29 -8 -35 -31h-69c12 57 53 88 114 88c49 0 84 -31 84 -73c0 -30 -14 -50 -47 -78l-87 -77h108l-12 -57h-196zM267 712l-56 -282h-69l40 204l-70 -52l15 78l71 52h69z
" />
    <glyph glyph-name="threequarters.afrc" horiz-adv-x="286" 
d="M297 387l-13 -62h-257l13 62h257zM180 427c-53 0 -90 24 -90 72c0 8 0 13 2 23h69c-1 -4 -1 -6 -1 -8c0 -16 9 -25 28 -25c26 0 38 19 38 40c0 15 -8 25 -28 25h-10l8 43h10c23 0 36 16 36 33c0 16 -9 23 -24 23s-29 -11 -34 -30h-70c14 56 50 92 113 92
c56 0 86 -35 86 -71c0 -32 -18 -57 -47 -68c17 -8 27 -24 27 -50c0 -57 -44 -99 -113 -99zM135 43h-132l11 56l121 183h69l-119 -181h62l10 51h57l-11 -55h27l-11 -54h-27l-8 -43h-57z" />
    <glyph glyph-name="fraction.afrc" horiz-adv-x="286" 
d="M297 387l-13 -62h-257l13 62h257z" />
    <glyph glyph-name="uni2150.afrc" horiz-adv-x="286" 
d="M297 387l-13 -62h-257l13 62h257zM174 220h-72l-8 -40h-68l21 101h206l-14 -67l-127 -214h-69zM267 712l-56 -282h-69l40 204l-70 -52l15 78l71 52h69z" />
    <glyph glyph-name="uni2151.afrc" horiz-adv-x="286" 
d="M297 387l-13 -62h-257l13 62h257zM60 0l69 101c-6 -2 -13 -2 -20 -2c-39 1 -72 29 -72 74c0 59 37 112 111 112c52 0 97 -35 97 -85c0 -26 -9 -50 -41 -97l-71 -103h-73zM137 148c25 0 40 18 40 44c0 18 -11 32 -32 32c-26 0 -39 -18 -39 -45c0 -18 12 -31 31 -31z
M267 712l-56 -282h-69l40 204l-70 -52l15 78l71 52h69z" />
    <glyph glyph-name="uni2152.afrc" horiz-adv-x="444" 
d="M40 387h415l-12 -62h-416zM181 282l-56 -282h-69l40 204l-70 -52l15 78l71 52h69zM283 -3c-44 0 -83 28 -83 75c0 6 1 13 2 19l20 99c15 76 67 95 116 95c44 0 83 -28 83 -75c0 -6 -1 -13 -2 -19l-20 -99c-15 -76 -67 -95 -116 -95zM294 59c17 0 29 11 35 35l21 93
c2 10 2 16 1 20c-2 10 -9 16 -23 16c-17 0 -29 -11 -35 -35l-21 -93c-2 -10 -2 -16 -1 -20c2 -10 9 -16 23 -16zM347 712l-56 -282h-69l40 204l-70 -52l15 78l71 52h69z" />
    <glyph glyph-name="onethird.afrc" horiz-adv-x="286" 
d="M297 387l-13 -62h-257l13 62h257zM94 -3c-53 0 -90 24 -90 72c0 8 0 13 2 23h69c-1 -4 -1 -6 -1 -8c0 -16 9 -25 28 -25c26 0 38 19 38 40c0 15 -8 25 -28 25h-10l8 43h10c23 0 36 16 36 33c0 16 -9 23 -24 23s-29 -11 -34 -30h-70c14 56 50 92 113 92
c56 0 86 -35 86 -71c0 -32 -18 -57 -47 -68c17 -8 27 -24 27 -50c0 -57 -44 -99 -113 -99zM267 712l-56 -282h-69l40 204l-70 -52l15 78l71 52h69z" />
    <glyph glyph-name="twothirds.afrc" horiz-adv-x="286" 
d="M297 387l-13 -62h-257l13 62h257zM80 430l12 57l129 113c17 14 23 24 23 36c0 14 -9 22 -24 22c-16 0 -29 -8 -35 -31h-69c12 57 53 88 114 88c49 0 84 -31 84 -73c0 -30 -14 -50 -47 -78l-87 -77h108l-12 -57h-196zM94 -3c-53 0 -90 24 -90 72c0 8 0 13 2 23h69
c-1 -4 -1 -6 -1 -8c0 -16 9 -25 28 -25c26 0 38 19 38 40c0 15 -8 25 -28 25h-10l8 43h10c23 0 36 16 36 33c0 16 -9 23 -24 23s-29 -11 -34 -30h-70c14 56 50 92 113 92c56 0 86 -35 86 -71c0 -32 -18 -57 -47 -68c17 -8 27 -24 27 -50c0 -57 -44 -99 -113 -99z" />
    <glyph glyph-name="uni2155.afrc" horiz-adv-x="286" 
d="M297 387l-13 -62h-257l13 62h257zM104 -3c-45 0 -76 26 -76 67v9h59c1 -13 10 -21 23 -21c24 0 34 10 40 38c1 5 2 13 2 20c0 15 -7 25 -25 25c-15 0 -27 -8 -33 -22h-54l33 169h167l-10 -49h-110l-13 -62c9 7 24 13 41 13c44 0 66 -28 66 -67c0 -11 -1 -20 -3 -29
c-6 -30 -13 -45 -27 -62c-17 -19 -41 -29 -80 -29zM267 712l-56 -282h-69l40 204l-70 -52l15 78l71 52h69z" />
    <glyph glyph-name="uni2156.afrc" horiz-adv-x="286" 
d="M297 387l-13 -62h-257l13 62h257zM80 430l12 57l129 113c17 14 23 24 23 36c0 14 -9 22 -24 22c-16 0 -29 -8 -35 -31h-69c12 57 53 88 114 88c49 0 84 -31 84 -73c0 -30 -14 -50 -47 -78l-87 -77h108l-12 -57h-196zM104 -3c-45 0 -76 26 -76 67v9h59
c1 -13 10 -21 23 -21c24 0 34 10 40 38c1 5 2 13 2 20c0 15 -7 25 -25 25c-15 0 -27 -8 -33 -22h-54l33 169h167l-10 -49h-110l-13 -62c9 7 24 13 41 13c44 0 66 -28 66 -67c0 -11 -1 -20 -3 -29c-6 -30 -13 -45 -27 -62c-17 -19 -41 -29 -80 -29z" />
    <glyph glyph-name="uni2157.afrc" horiz-adv-x="286" 
d="M297 387l-13 -62h-257l13 62h257zM180 427c-53 0 -90 24 -90 72c0 8 0 13 2 23h69c-1 -4 -1 -6 -1 -8c0 -16 9 -25 28 -25c26 0 38 19 38 40c0 15 -8 25 -28 25h-10l8 43h10c23 0 36 16 36 33c0 16 -9 23 -24 23s-29 -11 -34 -30h-70c14 56 50 92 113 92
c56 0 86 -35 86 -71c0 -32 -18 -57 -47 -68c17 -8 27 -24 27 -50c0 -57 -44 -99 -113 -99zM104 -3c-45 0 -76 26 -76 67v9h59c1 -13 10 -21 23 -21c24 0 34 10 40 38c1 5 2 13 2 20c0 15 -7 25 -25 25c-15 0 -27 -8 -33 -22h-54l33 169h167l-10 -49h-110l-13 -62
c9 7 24 13 41 13c44 0 66 -28 66 -67c0 -11 -1 -20 -3 -29c-6 -30 -13 -45 -27 -62c-17 -19 -41 -29 -80 -29z" />
    <glyph glyph-name="uni2158.afrc" horiz-adv-x="286" 
d="M297 387l-13 -62h-257l13 62h257zM205 473h-132l11 56l121 183h69l-119 -181h62l10 51h57l-11 -55h27l-11 -54h-27l-8 -43h-57zM104 -3c-45 0 -76 26 -76 67v9h59c1 -13 10 -21 23 -21c24 0 34 10 40 38c1 5 2 13 2 20c0 15 -7 25 -25 25c-15 0 -27 -8 -33 -22h-54
l33 169h167l-10 -49h-110l-13 -62c9 7 24 13 41 13c44 0 66 -28 66 -67c0 -11 -1 -20 -3 -29c-6 -30 -13 -45 -27 -62c-17 -19 -41 -29 -80 -29z" />
    <glyph glyph-name="uni2159.afrc" horiz-adv-x="286" 
d="M297 387l-13 -62h-257l13 62h257zM201 282l-69 -101c6 1 13 2 19 2c40 -2 73 -30 73 -74c0 -59 -37 -112 -111 -112c-52 0 -97 35 -97 85c0 26 9 50 41 97l70 103h74zM124 134c-25 0 -40 -19 -40 -44c0 -19 11 -32 32 -32c25 0 39 18 39 45c0 18 -12 31 -31 31zM267 712
l-56 -282h-69l40 204l-70 -52l15 78l71 52h69z" />
    <glyph glyph-name="uni215A.afrc" horiz-adv-x="286" 
d="M297 387l-13 -62h-257l13 62h257zM172 427c-45 0 -76 26 -76 67v9h59c1 -13 10 -21 23 -21c24 0 34 10 40 38c1 5 2 13 2 20c0 15 -7 25 -25 25c-15 0 -27 -8 -33 -22h-54l33 169h167l-10 -49h-110l-13 -62c9 7 24 13 41 13c44 0 66 -28 66 -67c0 -11 -1 -20 -3 -29
c-6 -30 -13 -45 -27 -62c-17 -19 -41 -29 -80 -29zM201 282l-69 -101c6 1 13 2 19 2c40 -2 73 -30 73 -74c0 -59 -37 -112 -111 -112c-52 0 -97 35 -97 85c0 26 9 50 41 97l70 103h74zM124 134c-25 0 -40 -19 -40 -44c0 -19 11 -32 32 -32c25 0 39 18 39 45
c0 18 -12 31 -31 31z" />
    <glyph glyph-name="oneeighth.afrc" horiz-adv-x="286" 
d="M297 387l-13 -62h-257l13 62h257zM102 -4c-52 0 -96 28 -96 79c0 31 18 61 53 74c-14 9 -25 23 -25 50c0 43 43 85 107 85c53 0 94 -30 94 -79c0 -29 -22 -56 -47 -65c14 -5 26 -23 26 -50c0 -55 -44 -94 -112 -94zM106 52c21 0 36 16 36 40c0 16 -11 29 -27 29
c-21 0 -36 -15 -36 -40c0 -16 11 -29 27 -29zM129 166c20 0 34 15 34 37c0 15 -10 26 -25 26c-18 0 -32 -15 -32 -35c0 -15 9 -28 23 -28zM267 712l-56 -282h-69l40 204l-70 -52l15 78l71 52h69z" />
    <glyph glyph-name="threeeighths.afrc" horiz-adv-x="286" 
d="M297 387l-13 -62h-257l13 62h257zM180 427c-53 0 -90 24 -90 72c0 8 0 13 2 23h69c-1 -4 -1 -6 -1 -8c0 -16 9 -25 28 -25c26 0 38 19 38 40c0 15 -8 25 -28 25h-10l8 43h10c23 0 36 16 36 33c0 16 -9 23 -24 23s-29 -11 -34 -30h-70c14 56 50 92 113 92
c56 0 86 -35 86 -71c0 -32 -18 -57 -47 -68c17 -8 27 -24 27 -50c0 -57 -44 -99 -113 -99zM101 -4c-52 0 -96 28 -96 79c0 31 18 61 53 74c-14 9 -25 23 -25 50c0 43 43 85 107 85c53 0 94 -30 94 -79c0 -29 -22 -56 -47 -65c14 -5 26 -23 26 -50c0 -55 -44 -94 -112 -94z
M105 52c21 0 36 16 36 40c0 16 -11 29 -27 29c-21 0 -36 -15 -36 -40c0 -16 11 -29 27 -29zM128 166c20 0 34 15 34 37c0 15 -10 26 -25 26c-18 0 -32 -15 -32 -35c0 -15 9 -28 23 -28z" />
    <glyph glyph-name="fiveeighths.afrc" horiz-adv-x="286" 
d="M297 387l-13 -62h-257l13 62h257zM172 427c-45 0 -76 26 -76 67v9h59c1 -13 10 -21 23 -21c24 0 34 10 40 38c1 5 2 13 2 20c0 15 -7 25 -25 25c-15 0 -27 -8 -33 -22h-54l33 169h167l-10 -49h-110l-13 -62c9 7 24 13 41 13c44 0 66 -28 66 -67c0 -11 -1 -20 -3 -29
c-6 -30 -13 -45 -27 -62c-17 -19 -41 -29 -80 -29zM102 -4c-52 0 -96 28 -96 79c0 31 18 61 53 74c-14 9 -25 23 -25 50c0 43 43 85 107 85c53 0 94 -30 94 -79c0 -29 -22 -56 -47 -65c14 -5 26 -23 26 -50c0 -55 -44 -94 -112 -94zM106 52c21 0 36 16 36 40
c0 16 -11 29 -27 29c-21 0 -36 -15 -36 -40c0 -16 11 -29 27 -29zM129 166c20 0 34 15 34 37c0 15 -10 26 -25 26c-18 0 -32 -15 -32 -35c0 -15 9 -28 23 -28z" />
    <glyph glyph-name="seveneighths.afrc" horiz-adv-x="286" 
d="M297 387l-13 -62h-257l13 62h257zM254 651h-72l-8 -40h-68l21 101h206l-14 -67l-127 -214h-69zM102 -4c-52 0 -96 28 -96 79c0 31 18 61 53 74c-14 9 -25 23 -25 50c0 43 43 85 107 85c53 0 94 -30 94 -79c0 -29 -22 -56 -47 -65c14 -5 26 -23 26 -50
c0 -55 -44 -94 -112 -94zM106 52c21 0 36 16 36 40c0 16 -11 29 -27 29c-21 0 -36 -15 -36 -40c0 -16 11 -29 27 -29zM129 166c20 0 34 15 34 37c0 15 -10 26 -25 26c-18 0 -32 -15 -32 -35c0 -15 9 -28 23 -28z" />
    <glyph glyph-name="uni215F.afrc" horiz-adv-x="286" 
d="M297 387l-13 -62h-257l13 62h257zM267 712l-56 -282h-69l40 204l-70 -52l15 78l71 52h69z" />
    <glyph glyph-name="uni2189.afrc" horiz-adv-x="286" 
d="M297 387l-13 -62h-257l13 62h257zM177 427c-44 0 -83 28 -83 75c0 6 1 13 2 19l20 99c15 76 67 95 116 95c44 0 83 -28 83 -75c0 -6 -1 -13 -2 -19l-20 -99c-15 -76 -67 -95 -116 -95zM188 489c17 0 29 11 35 35l21 93c2 10 2 16 1 20c-2 10 -9 16 -23 16
c-17 0 -29 -11 -35 -35l-21 -93c-2 -10 -2 -16 -1 -20c2 -10 9 -16 23 -16zM94 -3c-53 0 -90 24 -90 72c0 8 0 13 2 23h69c-1 -4 -1 -6 -1 -8c0 -16 9 -25 28 -25c26 0 38 19 38 40c0 15 -8 25 -28 25h-10l8 43h10c23 0 36 16 36 33c0 16 -9 23 -24 23s-29 -11 -34 -30h-70
c14 56 50 92 113 92c56 0 86 -35 86 -71c0 -32 -18 -57 -47 -68c17 -8 27 -24 27 -50c0 -57 -44 -99 -113 -99z" />
    <glyph glyph-name="zero.sinf" horiz-adv-x="241" 
d="M69 -3c-44 0 -83 28 -83 75c0 6 1 13 2 19l20 99c15 76 67 95 116 95c44 0 83 -28 83 -75c0 -6 -1 -13 -2 -19l-20 -99c-15 -76 -67 -95 -116 -95zM80 59c17 0 29 11 35 35l21 93c2 10 2 16 1 20c-2 10 -9 16 -23 16c-17 0 -29 -11 -35 -35l-21 -93c-2 -10 -2 -16 -1 -20
c2 -10 9 -16 23 -16z" />
    <glyph glyph-name="one.sinf" horiz-adv-x="233" 
d="M173 282l-56 -282h-69l40 204l-70 -52l15 78l71 52h69z" />
    <glyph glyph-name="two.sinf" horiz-adv-x="237" 
d="M-30 0l12 57l129 113c17 14 23 24 23 36c0 14 -9 22 -24 22c-16 0 -29 -8 -35 -31h-69c12 57 53 88 114 88c49 0 84 -31 84 -73c0 -30 -14 -50 -47 -78l-87 -77h108l-12 -57h-196z" />
    <glyph glyph-name="three.sinf" horiz-adv-x="236" 
d="M70 -3c-53 0 -90 24 -90 72c0 8 0 13 2 23h69c-1 -4 -1 -6 -1 -8c0 -16 9 -25 28 -25c26 0 38 19 38 40c0 15 -8 25 -28 25h-10l8 43h10c23 0 36 16 36 33c0 16 -9 23 -24 23s-29 -11 -34 -30h-70c14 56 50 92 113 92c56 0 86 -35 86 -71c0 -32 -18 -57 -47 -68
c17 -8 27 -24 27 -50c0 -57 -44 -99 -113 -99z" />
    <glyph glyph-name="four.sinf" horiz-adv-x="239" 
d="M100 43h-132l11 56l121 183h69l-119 -181h62l10 51h57l-11 -55h27l-11 -54h-27l-8 -43h-57z" />
    <glyph glyph-name="five.sinf" horiz-adv-x="222" 
d="M62 -3c-45 0 -76 26 -76 67v9h59c1 -13 10 -21 23 -21c24 0 34 10 40 38c1 5 2 13 2 20c0 15 -7 25 -25 25c-15 0 -27 -8 -33 -22h-54l33 169h167l-10 -49h-110l-13 -62c9 7 24 13 41 13c44 0 66 -28 66 -67c0 -11 -1 -20 -3 -29c-6 -30 -13 -45 -27 -62
c-17 -19 -41 -29 -80 -29z" />
    <glyph glyph-name="six.sinf" horiz-adv-x="242" 
d="M169 282l-69 -101c6 1 13 2 19 2c40 -2 73 -30 73 -74c0 -59 -37 -112 -111 -112c-52 0 -97 35 -97 85c0 26 9 50 41 97l70 103h74zM92 134c-25 0 -40 -19 -40 -44c0 -19 11 -32 32 -32c25 0 39 18 39 45c0 18 -12 31 -31 31z" />
    <glyph glyph-name="seven.sinf" horiz-adv-x="241" 
d="M150 220h-72l-8 -40h-68l21 101h206l-14 -67l-127 -214h-69z" />
    <glyph glyph-name="eight.sinf" horiz-adv-x="240" 
d="M76 -4c-52 0 -96 28 -96 79c0 31 18 61 53 74c-14 9 -25 23 -25 50c0 43 43 85 107 85c53 0 94 -30 94 -79c0 -29 -22 -56 -47 -65c14 -5 26 -23 26 -50c0 -55 -44 -94 -112 -94zM80 52c21 0 36 16 36 40c0 16 -11 29 -27 29c-21 0 -36 -15 -36 -40c0 -16 11 -29 27 -29z
M103 166c20 0 34 15 34 37c0 15 -10 26 -25 26c-18 0 -32 -15 -32 -35c0 -15 9 -28 23 -28z" />
    <glyph glyph-name="nine.sinf" horiz-adv-x="242" 
d="M25 0l69 101c-6 -2 -13 -2 -20 -2c-39 1 -72 29 -72 74c0 59 37 112 111 112c52 0 97 -35 97 -85c0 -26 -9 -50 -41 -97l-71 -103h-73zM102 148c25 0 40 18 40 44c0 18 -11 32 -32 32c-26 0 -39 -18 -39 -45c0 -18 12 -31 31 -31z" />
    <glyph glyph-name="zero.sups" horiz-adv-x="241" 
d="M156 431c-44 0 -83 28 -83 75c0 6 1 13 2 19l20 99c15 76 67 95 116 95c44 0 83 -28 83 -75c0 -6 -1 -13 -2 -19l-20 -99c-15 -76 -67 -95 -116 -95zM167 493c17 0 29 11 35 35l21 93c2 10 2 16 1 20c-2 10 -9 16 -23 16c-17 0 -29 -11 -35 -35l-21 -93
c-2 -10 -2 -16 -1 -20c2 -10 9 -16 23 -16z" />
    <glyph glyph-name="one.sups" horiz-adv-x="233" 
d="M260 716l-56 -282h-69l40 204l-70 -52l15 78l71 52h69z" />
    <glyph glyph-name="two.sups" horiz-adv-x="237" 
d="M57 434l12 57l129 113c17 14 23 24 23 36c0 14 -9 22 -24 22c-16 0 -29 -8 -35 -31h-69c12 57 53 88 114 88c49 0 84 -31 84 -73c0 -30 -14 -50 -47 -78l-87 -77h108l-12 -57h-196z" />
    <glyph glyph-name="three.sups" horiz-adv-x="236" 
d="M157 431c-53 0 -90 24 -90 72c0 8 0 13 2 23h69c-1 -4 -1 -6 -1 -8c0 -16 9 -25 28 -25c26 0 38 19 38 40c0 15 -8 25 -28 25h-10l8 43h10c23 0 36 16 36 33c0 16 -9 23 -24 23s-29 -11 -34 -30h-70c14 56 50 92 113 92c56 0 86 -35 86 -71c0 -32 -18 -57 -47 -68
c17 -8 27 -24 27 -50c0 -57 -44 -99 -113 -99z" />
    <glyph glyph-name="four.sups" horiz-adv-x="239" 
d="M186 477h-132l11 56l121 183h69l-119 -181h62l10 51h57l-11 -55h27l-11 -54h-27l-8 -43h-57z" />
    <glyph glyph-name="five.sups" horiz-adv-x="222" 
d="M149 431c-45 0 -76 26 -76 67v9h59c1 -13 10 -21 23 -21c24 0 34 10 40 38c1 5 2 13 2 20c0 15 -7 25 -25 25c-15 0 -27 -8 -33 -22h-54l33 169h167l-10 -49h-110l-13 -62c9 7 24 13 41 13c44 0 66 -28 66 -67c0 -11 -1 -20 -3 -29c-6 -30 -13 -45 -27 -62
c-17 -19 -41 -29 -80 -29z" />
    <glyph glyph-name="six.sups" horiz-adv-x="242" 
d="M256 716l-69 -101c6 1 13 2 19 2c40 -2 73 -30 73 -74c0 -59 -37 -112 -111 -112c-52 0 -97 35 -97 85c0 26 9 50 41 97l70 103h74zM179 568c-25 0 -40 -19 -40 -44c0 -19 11 -32 32 -32c25 0 39 18 39 45c0 18 -12 31 -31 31z" />
    <glyph glyph-name="seven.sups" horiz-adv-x="241" 
d="M237 654h-72l-8 -40h-68l21 101h206l-14 -67l-127 -214h-69z" />
    <glyph glyph-name="eight.sups" horiz-adv-x="240" 
d="M162 430c-52 0 -96 28 -96 79c0 31 18 61 53 74c-14 9 -25 23 -25 50c0 43 43 85 107 85c53 0 94 -30 94 -79c0 -29 -22 -56 -47 -65c14 -5 26 -23 26 -50c0 -55 -44 -94 -112 -94zM166 486c21 0 36 16 36 40c0 16 -11 29 -27 29c-21 0 -36 -15 -36 -40
c0 -16 11 -29 27 -29zM189 600c20 0 34 15 34 37c0 15 -10 26 -25 26c-18 0 -32 -15 -32 -35c0 -15 9 -28 23 -28z" />
    <glyph glyph-name="nine.sups" horiz-adv-x="242" 
d="M112 434l69 101c-6 -2 -13 -2 -20 -2c-39 1 -72 29 -72 74c0 59 37 112 111 112c52 0 97 -35 97 -85c0 -26 -9 -50 -41 -97l-71 -103h-73zM189 582c25 0 40 18 40 44c0 18 -11 32 -32 32c-26 0 -39 -18 -39 -45c0 -18 12 -31 31 -31z" />
    <glyph glyph-name="a.sups" horiz-adv-x="295" 
d="M131 324c-54 0 -84 33 -84 74c0 28 8 47 26 64c19 17 43 27 85 27h71l3 14c1 7 1 10 1 14c0 14 -13 25 -43 25c-26 0 -45 -8 -58 -21l-42 53c22 22 55 37 113 37c64 0 110 -31 110 -85c0 -9 -1 -21 -3 -30l-35 -167h-79l7 29c-19 -23 -40 -34 -72 -34zM154 384
c20 0 36 6 46 17c8 8 15 20 17 31l3 13h-51c-33 0 -49 -16 -49 -36c0 -14 10 -25 34 -25z" />
    <glyph glyph-name="b.sups" horiz-adv-x="318" 
d="M205 325c-31 0 -53 11 -65 36l-7 -32h-82l77 384h84l-27 -133c19 23 45 31 70 31c42 0 85 -24 85 -82c0 -13 -2 -36 -7 -62c-8 -43 -23 -89 -47 -113c-19 -19 -51 -29 -81 -29zM194 399c24 0 44 17 55 68c4 17 5 28 5 36c0 18 -12 34 -36 34c-21 0 -44 -12 -55 -70
c-3 -15 -4 -26 -4 -34c0 -16 9 -34 35 -34z" />
    <glyph glyph-name="c.sups" horiz-adv-x="269" 
d="M221 611c47 0 78 -22 91 -39l-64 -55c-11 14 -20 19 -37 19c-13 0 -23 -4 -32 -12c-14 -12 -23 -28 -28 -56c-2 -12 -3 -19 -3 -26c0 -29 14 -43 38 -43c15 0 29 4 47 21l44 -58c-19 -18 -61 -37 -102 -37c-62 0 -111 40 -111 101c0 13 1 28 4 43c23 116 95 142 153 142z
" />
    <glyph glyph-name="d.sups" horiz-adv-x="319" 
d="M372 712l-78 -383h-81l5 27c-20 -23 -46 -31 -71 -31c-42 0 -85 24 -85 81c0 14 2 36 8 63c12 55 25 93 47 115c18 18 42 27 73 27c40 0 60 -15 71 -37l27 138h84zM209 536c-25 0 -44 -16 -56 -67c-4 -17 -4 -28 -4 -36c0 -19 11 -34 36 -34c20 0 43 12 55 70
c3 15 4 26 4 33c0 16 -10 34 -35 34z" />
    <glyph glyph-name="e.sups" horiz-adv-x="296" 
d="M175 325c-53 0 -110 25 -110 101c0 102 51 185 150 185c60 0 102 -36 102 -99c0 -20 -4 -43 -10 -66h-174c-1 -6 -1 -10 -1 -17c0 -26 19 -42 54 -42c26 0 47 7 66 25l37 -45c-28 -26 -70 -42 -114 -42zM143 493h104c1 9 1 13 1 19c0 22 -14 38 -42 38
c-33 0 -52 -23 -63 -57z" />
    <glyph glyph-name="g.sups" horiz-adv-x="320" 
d="M145 221c-49 0 -82 13 -112 43l49 42c14 -14 34 -21 64 -21c35 0 60 13 69 58l4 21c-16 -18 -36 -28 -72 -28c-50 0 -85 26 -85 78c0 14 2 32 6 54c12 57 24 90 47 113c18 19 44 30 78 30c39 0 59 -12 69 -36l6 32h84l-55 -274c-15 -78 -60 -112 -152 -112zM185 398
c30 0 44 19 54 70c4 18 5 27 5 36c0 14 -10 33 -36 33c-32 0 -45 -24 -54 -69c-4 -19 -5 -29 -5 -37c0 -18 11 -33 36 -33z" />
    <glyph glyph-name="h.sups" horiz-adv-x="327" 
d="M212 712l-26 -129c20 19 46 28 74 28c38 0 82 -25 82 -84c0 -12 -1 -24 -4 -40l-32 -158h-84l31 150c2 12 3 20 3 25c0 19 -13 32 -33 32c-19 0 -49 -10 -58 -56l-31 -151h-83l77 383h84z" />
    <glyph glyph-name="l.sups" horiz-adv-x="194" 
d="M193 329h-30c-43 0 -65 7 -79 21c-12 12 -19 29 -19 50c0 7 4 30 9 54l51 258h84l-52 -261c-1 -7 -3 -16 -3 -21c0 -18 10 -27 31 -27h22z" />
    <glyph glyph-name="m.sups" horiz-adv-x="499" 
d="M425 611c43 0 89 -28 89 -84c0 -12 -3 -30 -5 -40l-31 -158h-84l30 150c3 12 4 20 4 25c0 19 -13 32 -34 32s-49 -12 -58 -56l-30 -151h-84l31 150c2 12 3 20 3 25c0 19 -13 32 -33 32c-19 0 -49 -10 -58 -56l-31 -151h-83l56 278h83l-5 -30c21 25 47 34 75 34
c26 0 54 -13 70 -39c22 22 50 39 95 39z" />
    <glyph glyph-name="o.sups" horiz-adv-x="309" 
d="M222 611c63 0 109 -27 109 -91c0 -15 -3 -36 -6 -52c-13 -60 -27 -89 -54 -111c-23 -19 -60 -32 -100 -32c-63 0 -109 27 -109 91c0 15 2 36 6 52c13 60 27 89 54 111c23 19 60 32 100 32zM211 537c-32 0 -50 -21 -60 -69c-3 -15 -5 -26 -5 -32c0 -23 14 -37 36 -37
c32 0 50 21 60 69c3 16 4 26 4 32c0 23 -14 37 -35 37z" />
    <glyph glyph-name="p.sups" horiz-adv-x="317" 
d="M255 611c42 0 84 -24 84 -82c0 -13 -2 -36 -7 -62c-11 -56 -25 -93 -47 -115c-19 -19 -42 -27 -73 -27c-40 0 -60 14 -71 37l-28 -138h-83l77 383h82l-5 -27c20 23 46 31 71 31zM217 537c-20 0 -44 -12 -55 -70c-3 -15 -4 -26 -4 -34c0 -16 10 -34 35 -34
c24 0 45 17 55 68c4 17 5 28 5 36c0 18 -12 34 -36 34z" />
    <glyph glyph-name="r.sups" horiz-adv-x="262" 
d="M261 611c31 0 51 -12 66 -31l-66 -59c-7 7 -17 15 -37 15c-26 0 -52 -18 -60 -57l-30 -150h-83l56 278h81l-6 -26c17 18 46 30 79 30z" />
    <glyph glyph-name="s.sups" horiz-adv-x="289" 
d="M159 325c-58 0 -96 15 -125 40l53 45c13 -14 38 -29 76 -29c40 0 61 12 61 35c0 15 -9 22 -26 24l-43 6c-56 8 -77 35 -77 65c0 24 11 48 33 67c24 22 61 33 106 33c48 0 79 -11 107 -34l-47 -42c-17 14 -40 20 -65 20c-39 0 -55 -14 -55 -32c0 -12 7 -20 26 -23l43 -5
c55 -7 78 -35 78 -73c0 -29 -14 -51 -33 -67c-28 -22 -71 -30 -112 -30z" />
    <glyph glyph-name="t.sups" horiz-adv-x="219" 
d="M216 683l-16 -79h51l-12 -60h-51l-19 -93c-1 -7 -2 -16 -2 -21c0 -18 10 -27 31 -27h23l-16 -74h-30c-43 0 -64 7 -78 21c-12 12 -18 29 -18 49c0 7 3 31 8 55l18 90h-32l12 60h32l16 79h83z" />
    <glyph glyph-name="u.sups" horiz-adv-x="327" 
d="M359 607l-56 -278h-83l4 23c-20 -18 -46 -28 -73 -28c-39 0 -83 26 -83 84c0 12 1 24 4 40l32 159h84l-31 -151c-2 -12 -3 -20 -3 -25c0 -19 13 -32 33 -32s49 11 58 56l31 152h83z" />
    <glyph glyph-name="copyright.sups" horiz-adv-x="516" 
d="M294 266c-125 0 -226 101 -226 226s101 226 226 226s226 -101 226 -226s-101 -226 -226 -226zM301 371c-50 0 -106 31 -106 121s56 121 106 121c29 0 52 -10 74 -29l-34 -34c-14 11 -25 16 -40 16s-26 -5 -37 -16s-16 -32 -16 -58s5 -47 16 -58s22 -16 37 -16s26 5 40 16
l34 -34c-22 -19 -45 -29 -74 -29zM294 314c100 0 175 76 175 178c0 103 -74 178 -175 178c-100 0 -175 -76 -175 -178s75 -178 175 -178z" />
    <glyph glyph-name="registered.sups" horiz-adv-x="516" 
d="M294 266c-125 0 -226 101 -226 226s101 226 226 226s226 -101 226 -226s-101 -226 -226 -226zM294 314c100 0 175 76 175 178c0 103 -74 178 -175 178c-100 0 -175 -76 -175 -178s75 -178 175 -178zM202 376v233h107c47 0 80 -28 80 -72c0 -32 -16 -55 -45 -65l51 -96
h-56l-48 88h-36v-88h-53zM255 508h46c22 0 34 10 34 29c0 18 -12 28 -34 28h-46v-57z" />
    <glyph glyph-name="egrave.sups" horiz-adv-x="296" 
d="M232 737l25 -93h-53l-40 93h68zM175 325c-53 0 -110 25 -110 101c0 102 51 185 150 185c60 0 102 -36 102 -99c0 -20 -4 -43 -10 -66h-174c-1 -6 -1 -10 -1 -17c0 -26 19 -42 54 -42c26 0 47 7 66 25l37 -45c-28 -26 -70 -42 -114 -42zM143 493h104c1 9 1 13 1 19
c0 22 -14 38 -42 38c-33 0 -52 -23 -63 -57z" />
    <glyph glyph-name="uni2117.sups" horiz-adv-x="516" 
d="M294 266c-125 0 -226 101 -226 226s101 226 226 226s226 -101 226 -226s-101 -226 -226 -226zM294 314c100 0 175 76 175 178c0 103 -74 178 -175 178c-100 0 -175 -76 -175 -178s75 -178 175 -178zM214 376v233h107c46 0 79 -28 79 -73c0 -46 -33 -75 -79 -75h-54v-85
h-53zM267 506h46c22 0 34 10 34 30c0 19 -12 29 -34 29h-46v-59z" />
    <glyph glyph-name="zero.numr" horiz-adv-x="323" 
d="M245 716c73 0 114 -50 114 -107c0 -8 -1 -20 -3 -30l-33 -165c-20 -100 -84 -133 -148 -133c-73 0 -113 50 -113 107c0 8 1 20 3 30l33 165c20 100 84 133 147 133zM235 627c-19 0 -41 -10 -48 -48l-31 -156c-1 -4 -3 -14 -3 -19c0 -24 16 -34 33 -34c19 0 41 10 48 48
l31 156c1 4 3 14 3 19c0 24 -16 34 -33 34z" />
    <glyph glyph-name="one.numr" horiz-adv-x="330" 
d="M325 712l-85 -427h-90l64 321l-101 -73l22 107l101 72h89z" />
    <glyph glyph-name="two.numr" horiz-adv-x="321" 
d="M37 285l17 80l177 169c25 24 36 41 36 65c0 20 -9 37 -34 37c-35 0 -45 -23 -49 -46h-90c13 69 55 126 148 126c74 0 116 -43 116 -110c0 -50 -26 -85 -68 -124l-125 -117h151l-16 -80h-263z" />
    <glyph glyph-name="three.numr" horiz-adv-x="323" 
d="M243 716c67 0 113 -44 113 -111c0 -39 -16 -79 -63 -104c24 -16 34 -39 34 -77c0 -83 -62 -143 -150 -143c-85 0 -124 47 -124 100c0 13 1 22 2 30h88c-1 -6 -1 -7 -1 -11c0 -24 11 -38 39 -38c35 0 56 28 56 62c0 29 -16 42 -39 42h-13l15 77h12c39 0 54 32 54 57
s-13 36 -33 36c-24 0 -43 -16 -50 -45h-91c17 86 74 125 151 125z" />
    <glyph glyph-name="four.numr" horiz-adv-x="323" 
d="M192 285l13 60h-170l14 77l195 290h96l-195 -287h75l13 67h84l-13 -67h34l-15 -80h-35l-12 -60h-84z" />
    <glyph glyph-name="five.numr" horiz-adv-x="328" 
d="M180 282c-66 0 -116 42 -116 103c0 4 0 11 1 19h87v-7c0 -19 8 -34 35 -34c31 0 45 23 54 66c1 7 3 16 3 25c0 24 -8 42 -36 42c-25 0 -39 -17 -46 -34h-82l50 250h246l-16 -82h-168l-15 -77c21 13 37 16 56 16c73 0 103 -49 103 -103c0 -11 -1 -28 -3 -38
c-7 -36 -19 -79 -50 -108c-24 -23 -57 -38 -103 -38z" />
    <glyph glyph-name="six.numr" horiz-adv-x="326" 
d="M187 281c-87 0 -129 63 -129 117c0 32 10 67 47 122l127 192h98l-117 -175c8 2 14 3 22 3c53 0 95 -44 95 -112c0 -78 -52 -147 -143 -147zM189 365c30 0 51 28 51 63c0 28 -18 42 -41 42c-31 0 -51 -27 -51 -62c0 -30 18 -43 41 -43z" />
    <glyph glyph-name="seven.numr" horiz-adv-x="326" 
d="M285 632h-104l-13 -69h-81l30 149h276l-16 -77l-192 -350h-92z" />
    <glyph glyph-name="eight.numr" horiz-adv-x="323" 
d="M235 716c71 0 122 -45 122 -117c0 -46 -31 -85 -65 -101c14 -8 36 -33 36 -75c0 -82 -58 -142 -150 -142c-71 0 -125 39 -125 116c0 47 25 92 70 114c-14 12 -31 35 -31 76c0 65 54 129 143 129zM198 465c-33 0 -55 -24 -55 -60c0 -26 15 -44 40 -44c33 0 54 24 54 60
c0 26 -15 44 -39 44zM231 635c-29 0 -50 -23 -50 -54c0 -23 13 -40 36 -40c28 0 50 22 50 55c0 23 -13 39 -36 39z" />
    <glyph glyph-name="nine.numr" horiz-adv-x="326" 
d="M233 716c87 0 129 -63 129 -117c0 -32 -10 -66 -47 -122l-127 -192h-98l117 175c-8 -2 -14 -3 -22 -3c-53 0 -95 44 -95 112c0 78 52 147 143 147zM231 633c-30 0 -51 -29 -51 -64c0 -28 18 -42 41 -42c31 0 51 27 51 62c0 30 -18 44 -41 44z" />
    <glyph glyph-name="zero.dnom" horiz-adv-x="323" 
d="M187 431c73 0 114 -50 114 -107c0 -8 -1 -20 -3 -30l-33 -165c-20 -100 -84 -133 -148 -133c-73 0 -113 50 -113 107c0 8 1 20 3 30l33 165c20 100 84 133 147 133zM177 342c-19 0 -41 -10 -48 -48l-31 -156c-1 -4 -3 -14 -3 -19c0 -24 16 -34 33 -34c19 0 41 10 48 48
l31 156c1 4 3 14 3 19c0 24 -16 34 -33 34z" />
    <glyph glyph-name="one.dnom" horiz-adv-x="330" 
d="M268 427l-85 -427h-90l64 321l-101 -73l22 107l101 72h89z" />
    <glyph glyph-name="two.dnom" horiz-adv-x="321" 
d="M-20 0l17 80l177 169c25 24 36 41 36 65c0 20 -9 37 -34 37c-35 0 -45 -23 -49 -46h-90c13 69 55 126 148 126c74 0 116 -43 116 -110c0 -50 -26 -85 -68 -124l-125 -117h151l-16 -80h-263z" />
    <glyph glyph-name="three.dnom" horiz-adv-x="323" 
d="M186 431c67 0 113 -44 113 -111c0 -39 -16 -79 -63 -104c24 -16 34 -39 34 -77c0 -83 -62 -143 -150 -143c-85 0 -124 47 -124 100c0 13 1 22 2 30h88c-1 -6 -1 -7 -1 -11c0 -24 11 -38 39 -38c35 0 56 28 56 62c0 29 -16 42 -39 42h-13l15 77h12c39 0 54 32 54 57
s-13 36 -33 36c-24 0 -43 -16 -50 -45h-91c17 86 74 125 151 125z" />
    <glyph glyph-name="four.dnom" horiz-adv-x="323" 
d="M135 0l13 60h-170l14 77l195 290h96l-195 -287h75l13 67h84l-13 -67h34l-15 -80h-35l-12 -60h-84z" />
    <glyph glyph-name="five.dnom" horiz-adv-x="328" 
d="M123 -3c-66 0 -116 42 -116 103c0 4 0 11 1 19h87v-7c0 -19 8 -34 35 -34c31 0 45 23 54 66c1 7 3 16 3 25c0 24 -8 42 -36 42c-25 0 -39 -17 -46 -34h-82l50 250h246l-16 -82h-168l-15 -77c21 13 37 16 56 16c73 0 103 -49 103 -103c0 -11 -1 -28 -3 -38
c-7 -36 -19 -79 -50 -108c-24 -23 -57 -38 -103 -38z" />
    <glyph glyph-name="six.dnom" horiz-adv-x="326" 
d="M130 -4c-87 0 -129 63 -129 117c0 32 10 67 47 122l127 192h98l-117 -175c8 2 14 3 22 3c53 0 95 -44 95 -112c0 -78 -52 -147 -143 -147zM132 80c30 0 51 28 51 63c0 28 -18 42 -41 42c-31 0 -51 -27 -51 -62c0 -30 18 -43 41 -43z" />
    <glyph glyph-name="seven.dnom" horiz-adv-x="326" 
d="M228 347h-104l-13 -69h-81l30 149h276l-16 -77l-192 -350h-92z" />
    <glyph glyph-name="eight.dnom" horiz-adv-x="323" 
d="M179 431c71 0 122 -45 122 -117c0 -46 -31 -85 -65 -101c14 -8 36 -33 36 -75c0 -82 -58 -142 -150 -142c-71 0 -125 39 -125 116c0 47 25 92 70 114c-14 12 -31 35 -31 76c0 65 54 129 143 129zM142 180c-33 0 -55 -24 -55 -60c0 -26 15 -44 40 -44c33 0 54 24 54 60
c0 26 -15 44 -39 44zM175 350c-29 0 -50 -23 -50 -54c0 -23 13 -40 36 -40c28 0 50 22 50 55c0 23 -13 39 -36 39z" />
    <glyph glyph-name="nine.dnom" horiz-adv-x="326" 
d="M177 431c87 0 129 -63 129 -117c0 -32 -10 -66 -47 -122l-127 -192h-98l117 175c-8 -2 -14 -3 -22 -3c-53 0 -95 44 -95 112c0 78 52 147 143 147zM175 348c-30 0 -51 -29 -51 -64c0 -28 18 -42 41 -42c31 0 51 27 51 62c0 30 -18 44 -41 44z" />
    <glyph glyph-name="space.frac" horiz-adv-x="44" 
 />
    <glyph glyph-name="zero.osf" horiz-adv-x="516" 
d="M218 -6c-108 0 -178 71 -178 171c0 13 2 34 5 49l35 175c33 164 141 214 237 214c108 0 177 -71 177 -171c0 -13 -2 -34 -5 -49l-35 -175c-33 -164 -140 -214 -236 -214zM228 105c41 0 88 20 103 99l36 184c2 11 4 24 4 35c0 51 -34 69 -65 69c-41 0 -88 -20 -103 -99
l-36 -184c-2 -11 -4 -24 -4 -35c0 -51 34 -69 65 -69z" />
    <glyph glyph-name="one.osf" horiz-adv-x="416" 
d="M381 597l-119 -597h-124l91 455l-162 -117l28 143l162 116h124z" />
    <glyph glyph-name="two.osf" horiz-adv-x="526" 
d="M-2 0l22 111l257 204c73 58 94 84 94 126c0 41 -26 71 -70 71c-41 0 -84 -19 -100 -90h-125c26 140 117 201 240 201c116 0 181 -76 181 -177c0 -75 -49 -128 -153 -213l-149 -122h256l-22 -111h-431z" />
    <glyph glyph-name="three.osf" horiz-adv-x="509" 
d="M308 602c106 0 174 -74 174 -169c0 -75 -32 -146 -109 -185c44 -25 64 -61 64 -127c0 -136 -104 -243 -237 -243c-125 0 -202 67 -202 169c0 13 1 23 3 36h122c-2 -8 -2 -11 -2 -22c0 -40 26 -72 80 -72c62 0 111 60 111 127c0 47 -25 78 -80 78h-19l21 108h20
c60 0 104 59 104 117c0 46 -26 72 -67 72c-44 0 -88 -30 -102 -87h-125c31 134 119 198 244 198z" />
    <glyph glyph-name="four.osf" horiz-adv-x="564" 
d="M479 641l-326 -491h158l30 148h118l-29 -148h77l-23 -116h-76l-31 -157h-119l31 157h-295l23 116l325 491h137z" />
    <glyph glyph-name="five.osf" horiz-adv-x="524" 
d="M206 -121c-114 0 -179 72 -179 166c0 5 0 21 2 36h119c-1 -7 -1 -14 -1 -20c0 -40 18 -71 66 -71c68 0 97 57 112 135c4 23 7 42 7 58c0 41 -14 73 -64 73c-48 0 -78 -27 -96 -59h-112l80 400h384l-22 -111h-273l-31 -158c31 25 62 33 102 33c110 0 159 -79 159 -162
c0 -23 -3 -52 -7 -74c-13 -67 -35 -136 -83 -184c-37 -37 -89 -62 -163 -62z" />
    <glyph glyph-name="six.osf" horiz-adv-x="519" 
d="M475 728l-217 -297c17 6 36 8 52 8c77 0 168 -52 168 -194c0 -136 -91 -251 -239 -251c-151 0 -209 106 -209 205c0 77 35 144 89 220l221 309h135zM268 340c-66 0 -115 -61 -115 -133c0 -66 37 -103 87 -103c63 0 115 57 115 133c0 66 -37 103 -87 103z" />
    <glyph glyph-name="seven.osf" horiz-adv-x="528" 
d="M564 597l-22 -111l-366 -604h-136l366 604h-200l-22 -109h-118l44 220h454z" />
    <glyph glyph-name="eight.osf" horiz-adv-x="536" 
d="M339 718c110 0 190 -71 190 -184c0 -77 -47 -145 -109 -176c28 -22 59 -60 59 -131c0 -127 -87 -233 -244 -233c-107 0 -197 58 -197 186c0 82 41 154 122 195c-26 23 -52 60 -52 123c0 121 92 220 231 220zM274 311c-64 0 -111 -52 -111 -121c0 -46 29 -85 80 -85
c64 0 110 51 110 121c0 46 -28 85 -79 85zM333 607c-60 0 -101 -53 -101 -113c0 -41 24 -75 71 -75c60 0 101 52 101 112c0 41 -24 76 -71 76z" />
    <glyph glyph-name="nine.osf" horiz-adv-x="519" 
d="M297 603c151 0 209 -106 209 -205c0 -77 -35 -144 -89 -220l-221 -309h-135l217 297c-17 -6 -36 -8 -52 -8c-77 0 -168 52 -168 194c0 136 91 251 239 251zM296 493c-63 0 -115 -57 -115 -133c0 -66 37 -103 87 -103c66 0 115 61 115 133c0 66 -37 103 -87 103z" />
    <glyph glyph-name="zero.lf" horiz-adv-x="520" 
d="M218 -6c-108 0 -178 71 -178 171c0 13 2 34 5 49l58 290c32 164 141 214 237 214c108 0 177 -71 177 -171c0 -13 -2 -34 -5 -49l-57 -290c-32 -164 -141 -214 -237 -214zM228 105c41 0 87 20 103 99l59 299c2 11 4 24 4 35c0 51 -34 69 -65 69c-41 0 -87 -20 -103 -99
l-58 -299c-2 -11 -5 -24 -5 -35c0 -51 34 -69 65 -69z" />
    <glyph glyph-name="one.lf" horiz-adv-x="486" 
d="M451 712l-142 -712h-124l114 570l-162 -117l28 143l162 116h124z" />
    <glyph glyph-name="two.lf" horiz-adv-x="516" 
d="M339 718c111 0 180 -64 180 -177c0 -89 -54 -143 -97 -187l-238 -243h262l-23 -111h-420l23 111l308 313c41 42 60 68 60 111c0 46 -25 72 -68 72c-45 0 -87 -24 -103 -93h-125c24 136 111 204 241 204z" />
    <glyph glyph-name="three.lf" horiz-adv-x="516" 
d="M337 718c106 0 174 -74 174 -169c0 -75 -32 -146 -109 -185c44 -25 64 -61 64 -127c0 -136 -104 -243 -237 -243c-125 0 -202 67 -202 169c0 13 1 23 3 36h122c-2 -8 -2 -11 -2 -22c0 -40 26 -72 80 -72c62 0 111 60 111 127c0 47 -25 78 -80 78h-19l21 108h20
c60 0 104 59 104 117c0 46 -26 72 -67 72c-44 0 -88 -30 -102 -87h-125c31 134 119 198 244 198z" />
    <glyph glyph-name="four.lf" horiz-adv-x="516" 
d="M487 712l-328 -491h141l27 132h118l-26 -132h65l-24 -117h-63l-21 -104h-118l20 104h-281l23 117l329 491h138z" />
    <glyph glyph-name="five.lf" horiz-adv-x="516" 
d="M542 712l-22 -111h-273l-31 -158c31 25 62 33 102 33c110 0 159 -79 159 -162c0 -23 -3 -52 -7 -74c-13 -67 -35 -136 -83 -184c-37 -37 -89 -62 -163 -62c-114 0 -179 72 -179 166c0 5 0 21 2 36h119c-1 -7 -1 -14 -1 -20c0 -40 18 -71 66 -71c68 0 97 57 112 135
c4 23 7 42 7 58c0 41 -14 73 -64 73c-48 0 -78 -27 -96 -59h-112l80 400h384z" />
    <glyph glyph-name="six.lf" horiz-adv-x="516" 
d="M468 712l-203 -300c14 4 25 6 42 6c94 0 159 -72 159 -184c0 -137 -93 -240 -229 -240c-144 0 -201 101 -201 189c0 72 26 122 82 207l213 322h137zM263 318c-69 0 -103 -65 -103 -124c0 -56 30 -89 78 -89c66 0 104 62 104 125c0 56 -31 88 -79 88z" />
    <glyph glyph-name="seven.lf" horiz-adv-x="516" 
d="M571 712l-22 -111l-334 -601h-137l333 601h-180l-22 -109h-118l43 220h437z" />
    <glyph glyph-name="eight.lf" horiz-adv-x="516" 
d="M330 718c110 0 190 -71 190 -184c0 -77 -47 -145 -109 -176c28 -22 59 -60 59 -131c0 -127 -87 -233 -244 -233c-107 0 -197 58 -197 186c0 82 41 154 122 195c-26 23 -52 60 -52 123c0 121 92 220 231 220zM265 311c-64 0 -111 -52 -111 -121c0 -46 29 -85 80 -85
c64 0 110 51 110 121c0 46 -28 85 -79 85zM324 607c-60 0 -101 -53 -101 -113c0 -41 24 -75 71 -75c60 0 101 52 101 112c0 41 -24 76 -71 76z" />
    <glyph glyph-name="nine.lf" horiz-adv-x="516" 
d="M321 718c144 0 201 -101 201 -189c0 -72 -26 -122 -82 -207l-213 -322h-137l203 300c-14 -4 -25 -6 -42 -6c-94 0 -159 72 -159 184c0 137 93 240 229 240zM320 607c-66 0 -104 -62 -104 -125c0 -56 31 -88 79 -88c69 0 103 65 103 124c0 56 -30 89 -78 89z" />
    <glyph glyph-name="zero.tosf" horiz-adv-x="520" 
d="M221 -6c-108 0 -178 71 -178 171c0 13 2 34 5 49l35 175c33 164 141 214 237 214c108 0 177 -71 177 -171c0 -13 -2 -34 -5 -49l-35 -175c-33 -164 -140 -214 -236 -214zM231 105c41 0 88 20 103 99l36 184c2 11 4 24 4 35c0 51 -34 69 -65 69c-41 0 -88 -20 -103 -99
l-36 -184c-2 -11 -4 -24 -4 -35c0 -51 34 -69 65 -69z" />
    <glyph glyph-name="one.tosf" horiz-adv-x="520" 
d="M397 597l-119 -597h-124l91 455l-162 -117l28 143l162 116h124z" />
    <glyph glyph-name="two.tosf" horiz-adv-x="520" 
d="M-10 0l22 111l257 204c73 58 94 84 94 126c0 41 -26 71 -70 71c-41 0 -84 -19 -100 -90h-125c26 140 117 201 240 201c116 0 181 -76 181 -177c0 -75 -49 -128 -153 -213l-149 -122h256l-22 -111h-431z" />
    <glyph glyph-name="three.tosf" horiz-adv-x="520" 
d="M318 602c106 0 174 -74 174 -169c0 -75 -32 -146 -109 -185c44 -25 64 -61 64 -127c0 -136 -104 -243 -237 -243c-125 0 -202 67 -202 169c0 13 1 23 3 36h122c-2 -8 -2 -11 -2 -22c0 -40 26 -72 80 -72c62 0 111 60 111 127c0 47 -25 78 -80 78h-19l21 108h20
c60 0 104 59 104 117c0 46 -26 72 -67 72c-44 0 -88 -30 -102 -87h-125c31 134 119 198 244 198z" />
    <glyph glyph-name="four.tosf" horiz-adv-x="520" 
d="M474 641l-331 -491h147l29 148h118l-29 -148h64l-23 -116h-63l-31 -157h-118l31 157h-287l23 116l331 491h139z" />
    <glyph glyph-name="five.tosf" horiz-adv-x="520" 
d="M508 597l-22 -111h-273l-31 -158c31 25 62 33 102 33c110 0 159 -79 159 -162c0 -23 -3 -52 -7 -74c-13 -67 -35 -136 -83 -184c-37 -37 -89 -62 -163 -62c-114 0 -179 72 -179 166c0 5 0 21 2 36h119c-1 -7 -1 -14 -1 -20c0 -40 18 -71 66 -71c68 0 97 57 112 135
c4 23 7 42 7 58c0 41 -14 73 -64 73c-48 0 -78 -27 -96 -59h-112l80 400h384z" />
    <glyph glyph-name="six.tosf" horiz-adv-x="520" 
d="M471 728l-217 -297c17 6 36 8 52 8c77 0 168 -52 168 -194c0 -136 -91 -251 -239 -251c-151 0 -209 106 -209 205c0 77 35 144 89 220l221 309h135zM264 340c-66 0 -115 -61 -115 -133c0 -66 37 -103 87 -103c63 0 115 57 115 133c0 66 -37 103 -87 103z" />
    <glyph glyph-name="seven.tosf" horiz-adv-x="520" 
d="M542 597l-22 -111l-366 -604h-136l366 604h-200l-22 -109h-118l44 220h454z" />
    <glyph glyph-name="eight.tosf" horiz-adv-x="520" 
d="M325 718c110 0 190 -71 190 -184c0 -77 -47 -145 -109 -176c28 -22 59 -60 59 -131c0 -127 -87 -233 -244 -233c-107 0 -197 58 -197 186c0 82 41 154 122 195c-26 23 -52 60 -52 123c0 121 92 220 231 220zM260 311c-64 0 -111 -52 -111 -121c0 -46 29 -85 80 -85
c64 0 110 51 110 121c0 46 -28 85 -79 85zM319 607c-60 0 -101 -53 -101 -113c0 -41 24 -75 71 -75c60 0 101 52 101 112c0 41 -24 76 -71 76z" />
    <glyph glyph-name="nine.tosf" horiz-adv-x="520" 
d="M291 603c151 0 209 -106 209 -205c0 -77 -35 -144 -89 -220l-221 -309h-135l217 297c-17 -6 -36 -8 -52 -8c-77 0 -168 52 -168 194c0 136 91 251 239 251zM290 493c-63 0 -115 -57 -115 -133c0 -66 37 -103 87 -103c66 0 115 61 115 133c0 66 -37 103 -87 103z" />
    <glyph glyph-name="uni2007.tosf" horiz-adv-x="520" 
 />
    <glyph glyph-name="hyphen.case" horiz-adv-x="408" 
d="M381 413l-23 -115h-293l23 115h293z" />
    <glyph glyph-name="exclamdown.case" horiz-adv-x="330" 
d="M22 0l126 490h93l-66 -490h-153zM145 579l26 133h131l-26 -133h-131z" />
    <glyph glyph-name="guillemotleft.case" horiz-adv-x="598" 
d="M605 603l-33 -160l-111 -96l73 -96l-27 -142l-189 249zM340 603l-33 -160l-111 -96l73 -96l-27 -142l-189 249z" />
    <glyph glyph-name="uni00AD.case" horiz-adv-x="408" 
d="M381 413l-23 -115h-293l23 115h293z" />
    <glyph glyph-name="periodcentered.case" horiz-adv-x="271" 
d="M241 430l-28 -141h-141l28 141h141z" />
    <glyph glyph-name="guillemotright.case" horiz-adv-x="598" 
d="M395 603l189 -248l-287 -246l32 160l111 96l-73 97zM130 603l189 -248l-287 -246l32 160l112 96l-74 97z" />
    <glyph glyph-name="questiondown.case" horiz-adv-x="497" 
d="M182 -6c-86 0 -165 59 -165 159c0 68 28 116 74 166l89 99c11 12 24 32 28 51l5 21h124l-7 -31c-8 -38 -22 -70 -55 -105l-88 -94c-25 -27 -45 -56 -45 -94c0 -33 21 -61 59 -61c53 0 85 32 95 83h125c-24 -136 -120 -194 -239 -194zM223 579l26 133h131l-26 -133h-131z
" />
    <glyph glyph-name="endash.case" horiz-adv-x="535" 
d="M508 413l-23 -115h-420l23 115h420z" />
    <glyph glyph-name="emdash.case" horiz-adv-x="978" 
d="M951 413l-23 -115h-863l23 115h863z" />
    <glyph glyph-name="bullet.case" horiz-adv-x="469" 
d="M257 511c90 0 154 -64 154 -154s-64 -154 -154 -154s-154 64 -154 154s64 154 154 154z" />
    <glyph glyph-name="guilsinglleft.case" horiz-adv-x="333" 
d="M340 603l-33 -160l-111 -96l73 -96l-27 -142l-189 249z" />
    <glyph glyph-name="guilsinglright.case" horiz-adv-x="333" 
d="M130 603l189 -248l-287 -246l32 160l111 96l-73 97z" />
    <glyph glyph-name="zero.zero" horiz-adv-x="520" 
d="M233 298l23 117h69l-23 -117h-69zM340 718c108 0 177 -71 177 -171c0 -13 -2 -34 -5 -49l-57 -290c-32 -164 -141 -214 -237 -214c-108 0 -178 71 -178 171c0 13 2 34 5 49l58 290c32 164 141 214 237 214zM329 607c-41 0 -87 -20 -103 -99l-58 -299
c-2 -11 -5 -24 -5 -35c0 -51 34 -69 65 -69c41 0 87 20 103 99l59 299c2 11 4 24 4 35c0 51 -34 69 -65 69z" />
    <glyph glyph-name="zero.osf.zero" horiz-adv-x="516" 
d="M221 240l23 117h69l-23 -117h-69zM218 -6c-108 0 -178 71 -178 171c0 13 2 34 5 49l35 175c33 164 141 214 237 214c108 0 177 -71 177 -171c0 -13 -2 -34 -5 -49l-35 -175c-33 -164 -140 -214 -236 -214zM228 105c41 0 88 20 103 99l36 184c2 11 4 24 4 35
c0 51 -34 69 -65 69c-41 0 -88 -20 -103 -99l-36 -184c-2 -11 -4 -24 -4 -35c0 -51 34 -69 65 -69z" />
    <glyph glyph-name="zero.lf.zero" horiz-adv-x="520" 
d="M233 298l23 117h69l-23 -117h-69zM218 -6c-108 0 -178 71 -178 171c0 13 2 34 5 49l58 290c32 164 141 214 237 214c108 0 177 -71 177 -171c0 -13 -2 -34 -5 -49l-57 -290c-32 -164 -141 -214 -237 -214zM228 105c41 0 87 20 103 99l59 299c2 11 4 24 4 35
c0 51 -34 69 -65 69c-41 0 -87 -20 -103 -99l-58 -299c-2 -11 -5 -24 -5 -35c0 -51 34 -69 65 -69z" />
    <glyph glyph-name="zero.tosf.zero" horiz-adv-x="516" 
d="M219 240l23 117h69l-23 -117h-69zM209 -6c-108 0 -178 71 -178 171c0 13 2 34 5 49l35 175c33 164 141 214 237 214c108 0 177 -71 177 -171c0 -13 -2 -34 -5 -49l-35 -175c-33 -164 -140 -214 -236 -214zM219 105c41 0 88 20 103 99l36 184c2 11 4 24 4 35
c0 51 -34 69 -65 69c-41 0 -88 -20 -103 -99l-36 -184c-2 -11 -4 -24 -4 -35c0 -51 34 -69 65 -69z" />
    <glyph glyph-name="exclam.ss01" horiz-adv-x="330" 
d="M348 712l-126 -490h-93l66 490h153zM148 147c41 0 75 -35 75 -76s-34 -74 -75 -74s-74 33 -74 74s33 76 74 76z" />
    <glyph glyph-name="period.ss01" horiz-adv-x="280" 
d="M105 164c46 0 83 -38 83 -84s-37 -83 -83 -83s-83 37 -83 83s37 84 83 84z" />
    <glyph glyph-name="colon.ss01" horiz-adv-x="303" 
d="M182 430c46 0 83 -37 83 -83s-37 -83 -83 -83s-83 37 -83 83s37 83 83 83zM129 164c46 0 83 -38 83 -84s-37 -83 -83 -83s-82 37 -82 83s36 84 82 84z" />
    <glyph glyph-name="semicolon.ss01" horiz-adv-x="303" 
d="M213 142l-40 -197l-157 -110l61 307h136zM181 431c46 0 83 -37 83 -83s-37 -83 -83 -83s-83 37 -83 83s37 83 83 83z" />
    <glyph glyph-name="question.ss01" horiz-adv-x="497" 
d="M352 718c86 0 166 -59 166 -159c0 -68 -28 -116 -74 -166l-89 -99c-11 -12 -24 -32 -28 -51l-5 -21h-124l7 31c8 38 21 70 54 105l89 94c25 27 45 56 45 94c0 33 -21 61 -59 61c-53 0 -86 -32 -96 -83h-124c24 136 119 194 238 194zM234 147c41 0 75 -35 75 -76
s-34 -74 -75 -74s-74 33 -74 74s33 76 74 76z" />
    <glyph glyph-name="at.ss01" horiz-adv-x="946" 
d="M515 701c236 0 393 -151 393 -364c0 -160 -122 -300 -301 -300h-100l9 47c-34 -36 -68 -53 -113 -53c-89 0 -141 56 -141 134c0 26 5 58 12 95c17 85 33 143 83 187c36 32 77 41 118 41c54 0 87 -21 107 -53l9 47h113l-74 -371c120 7 185 113 185 226
c0 169 -120 277 -300 277c-204 0 -364 -157 -364 -360c0 -222 141 -358 369 -358h73l-16 -81h-74c-271 0 -450 184 -450 439c0 254 201 447 462 447zM493 388c-21 0 -42 -7 -57 -21c-21 -19 -37 -50 -48 -108c-4 -21 -7 -42 -7 -62c0 -46 27 -66 60 -66c22 0 42 7 58 22
c20 19 35 50 46 107c4 21 7 42 7 62c0 46 -26 66 -59 66z" />
    <glyph glyph-name="i.ss01" horiz-adv-x="262" 
d="M243 505l-101 -505h-124l101 505h124zM210 745c43 0 78 -35 78 -78s-35 -78 -78 -78s-78 35 -78 78s35 78 78 78z" />
    <glyph glyph-name="j.ss01" horiz-adv-x="262" 
d="M243 505l-110 -553c-18 -91 -76 -147 -168 -147h-77l21 105h45c31 0 50 21 56 53l109 542h124zM210 745c43 0 78 -35 78 -78s-35 -78 -78 -78s-78 35 -78 78s35 78 78 78z" />
    <glyph glyph-name="exclamdown.ss01" horiz-adv-x="330" 
d="M-18 -191l126 490h93l-66 -490h-153zM182 374c-41 0 -75 35 -75 76s34 74 75 74s74 -33 74 -74s-33 -76 -74 -76z" />
    <glyph glyph-name="dieresis.ss01" 
d="M446 727c36 0 65 -29 65 -64c0 -36 -29 -65 -65 -65c-35 0 -64 29 -64 64c0 36 29 65 64 65zM231 727c35 0 64 -29 64 -64c0 -36 -29 -65 -64 -65c-36 0 -65 29 -65 64c0 36 29 65 65 65z" />
    <glyph glyph-name="periodcentered.ss01" horiz-adv-x="280" 
d="M146 368c46 0 83 -37 83 -83s-37 -84 -83 -84s-83 38 -83 84s37 83 83 83z" />
    <glyph glyph-name="cedilla.ss01" 
d="M127 -228l13 63c28 -1 46 16 46 40c0 18 -12 31 -32 33l13 63c49 -2 94 -34 94 -88c0 -71 -59 -111 -125 -111h-9z" />
    <glyph glyph-name="questiondown.ss01" horiz-adv-x="497" 
d="M145 -197c-86 0 -166 59 -166 159c0 68 28 116 74 166l89 99c11 12 24 32 28 51l5 21h124l-7 -31c-8 -38 -21 -70 -54 -105l-89 -94c-25 -27 -45 -56 -45 -94c0 -33 21 -61 59 -61c53 0 86 32 96 83h124c-24 -136 -119 -194 -238 -194zM263 374c-41 0 -75 35 -75 76
s34 74 75 74s74 -33 74 -74s-33 -76 -74 -76z" />
    <glyph glyph-name="Adieresis.ss01" horiz-adv-x="607" 
d="M447 712l105 -712h-134l-15 130h-241l-67 -130h-141l388 712h105zM359 512l-143 -274h177zM516 905c36 0 65 -29 65 -64c0 -36 -29 -65 -65 -65c-35 0 -64 29 -64 64c0 36 29 65 64 65zM302 905c35 0 64 -29 64 -64c0 -36 -29 -65 -64 -65c-36 0 -65 29 -65 64
c0 36 29 65 65 65z" />
    <glyph glyph-name="Ccedilla.ss01" horiz-adv-x="590" 
d="M380 718c146 0 216 -97 216 -220h-132c-1 58 -27 104 -92 104c-44 0 -71 -16 -96 -41c-29 -30 -46 -76 -71 -205c-11 -59 -20 -115 -20 -150c0 -61 41 -96 95 -96c70 0 113 51 132 104h132c-48 -147 -148 -220 -274 -220c-136 0 -218 89 -218 202c0 31 4 80 21 160
c28 138 45 215 106 281c54 57 130 81 201 81zM158 -228l13 63c28 -1 46 16 46 40c0 18 -12 31 -32 33l13 63c49 -2 94 -34 94 -88c0 -71 -59 -111 -125 -111h-9z" />
    <glyph glyph-name="Edieresis.ss01" horiz-adv-x="578" 
d="M615 712l-23 -116h-312l-36 -179h269l-23 -116h-269l-37 -185h318l-23 -116h-451l143 712h444zM513 905c36 0 65 -29 65 -64c0 -36 -29 -65 -65 -65c-35 0 -64 29 -64 64c0 36 29 65 64 65zM299 905c35 0 64 -29 64 -64c0 -36 -29 -65 -64 -65c-36 0 -65 29 -65 64
c0 36 29 65 65 65z" />
    <glyph glyph-name="Idieresis.ss01" horiz-adv-x="293" 
d="M303 712l-143 -712h-132l143 712h132zM366 905c36 0 65 -29 65 -64c0 -36 -29 -65 -65 -65c-35 0 -64 29 -64 64c0 36 29 65 64 65zM152 905c35 0 64 -29 64 -64c0 -36 -29 -65 -64 -65c-36 0 -65 29 -65 64c0 36 29 65 65 65z" />
    <glyph glyph-name="Odieresis.ss01" horiz-adv-x="610" 
d="M380 718c137 0 215 -91 215 -202c0 -32 -4 -80 -20 -160c-27 -138 -45 -216 -106 -280c-55 -59 -129 -82 -201 -82c-137 0 -215 91 -215 202c0 32 4 80 20 160c27 138 45 216 106 280c55 59 129 82 201 82zM371 602c-39 0 -69 -14 -95 -43s-45 -73 -71 -203
c-12 -60 -20 -114 -20 -149c0 -64 43 -97 92 -97c39 0 69 14 95 43s45 72 71 203c12 59 20 114 20 149c0 64 -42 97 -92 97zM526 905c36 0 65 -29 65 -64c0 -36 -29 -65 -65 -65c-35 0 -64 29 -64 64c0 36 29 65 64 65zM312 905c35 0 64 -29 64 -64c0 -36 -29 -65 -64 -65
c-36 0 -65 29 -65 64c0 36 29 65 65 65z" />
    <glyph glyph-name="Udieresis.ss01" horiz-adv-x="638" 
d="M658 712l-94 -468c-35 -175 -153 -250 -285 -250c-121 0 -217 77 -217 203c0 19 4 46 7 61l91 454h132l-93 -462c-2 -10 -5 -31 -5 -44c0 -49 27 -95 94 -95c76 0 128 52 147 146l91 455h132zM536 905c36 0 65 -29 65 -64c0 -36 -29 -65 -65 -65c-35 0 -64 29 -64 64
c0 36 29 65 64 65zM322 905c35 0 64 -29 64 -64c0 -36 -29 -65 -64 -65c-36 0 -65 29 -65 64c0 36 29 65 65 65z" />
    <glyph glyph-name="adieresis.ss01" horiz-adv-x="509" 
d="M160 -6c-91 0 -149 59 -149 138c0 51 17 93 47 123c39 38 92 54 152 54h124l7 31c2 10 3 17 3 27c0 35 -25 56 -77 56c-51 0 -86 -20 -112 -49l-64 83c42 43 96 70 193 70c87 0 185 -34 185 -145c0 -14 -2 -32 -5 -46l-68 -336h-119l9 45c-29 -29 -69 -51 -126 -51z
M199 94c34 0 62 13 81 32c16 16 26 41 31 67l6 31h-95c-56 0 -89 -34 -89 -80c0 -29 21 -50 66 -50zM432 727c36 0 65 -29 65 -64c0 -36 -29 -65 -65 -65c-35 0 -64 29 -64 64c0 36 29 65 64 65zM217 727c35 0 64 -29 64 -64c0 -36 -29 -65 -64 -65c-36 0 -65 29 -65 64
c0 36 29 65 65 65z" />
    <glyph glyph-name="ccedilla.ss01" horiz-adv-x="461" 
d="M313 527c76 0 122 -32 153 -72l-93 -82c-20 27 -41 43 -72 43c-27 0 -52 -10 -74 -33c-27 -28 -46 -73 -55 -122c-4 -23 -7 -43 -7 -67c0 -55 26 -89 74 -89c35 0 62 15 91 44l69 -89c-44 -41 -105 -66 -172 -66c-99 0 -187 63 -187 186c0 25 3 54 8 81
c39 212 159 266 265 266zM127 -228l13 63c28 -1 46 16 46 40c0 18 -12 31 -32 33l13 63c49 -2 94 -34 94 -88c0 -71 -59 -111 -125 -111h-9z" />
    <glyph glyph-name="edieresis.ss01" horiz-adv-x="532" 
d="M301 527c110 0 185 -73 185 -186c0 -35 -7 -78 -16 -118h-312c-2 -12 -4 -25 -4 -37c0 -51 29 -87 89 -87c50 0 88 18 124 53l65 -82c-54 -50 -125 -76 -203 -76c-90 0 -193 46 -193 183c0 175 85 350 265 350zM294 425c-53 0 -97 -34 -120 -119h191c2 11 3 24 3 35
c0 55 -30 84 -74 84zM446 727c36 0 65 -29 65 -64c0 -36 -29 -65 -65 -65c-35 0 -64 29 -64 64c0 36 29 65 64 65zM231 727c35 0 64 -29 64 -64c0 -36 -29 -65 -64 -65c-36 0 -65 29 -65 64c0 36 29 65 65 65z" />
    <glyph glyph-name="idieresis.ss01" horiz-adv-x="262" 
d="M243 505l-101 -505h-124l101 505h124zM319 727c36 0 65 -29 65 -64c0 -36 -29 -65 -65 -65c-35 0 -64 29 -64 64c0 36 29 65 64 65zM104 727c35 0 64 -29 64 -64c0 -36 -29 -65 -64 -65c-36 0 -65 29 -65 64c0 36 29 65 65 65z" />
    <glyph glyph-name="odieresis.ss01" horiz-adv-x="516" 
d="M302 527c87 0 176 -52 176 -172c0 -32 -6 -71 -10 -94c-22 -110 -48 -163 -93 -207c-40 -38 -94 -60 -160 -60c-88 0 -177 52 -177 172c0 32 6 71 11 95c22 109 47 162 93 206c39 38 94 60 160 60zM289 416c-25 0 -48 -10 -64 -26c-25 -24 -40 -65 -53 -129
c-9 -45 -11 -69 -11 -81c0 -50 27 -75 66 -75c26 0 48 10 64 26c25 24 41 65 53 130c9 44 11 69 11 80c0 51 -27 75 -66 75zM446 727c36 0 65 -29 65 -64c0 -36 -29 -65 -65 -65c-35 0 -64 29 -64 64c0 36 29 65 64 65zM231 727c35 0 64 -29 64 -64c0 -36 -29 -65 -64 -65
c-36 0 -65 29 -65 64c0 36 29 65 65 65z" />
    <glyph glyph-name="divide.ss01" horiz-adv-x="516" 
d="M489 344l-23 -117h-429l23 117h429zM227 166c46 0 83 -37 83 -83s-37 -84 -83 -84s-82 38 -82 84s36 83 82 83zM300 572c46 0 83 -38 83 -84s-37 -83 -83 -83s-83 37 -83 83s37 84 83 84z" />
    <glyph glyph-name="udieresis.ss01" horiz-adv-x="544" 
d="M527 521l-104 -521h-119l9 50c-33 -36 -83 -56 -137 -56c-61 0 -133 41 -133 144c0 19 3 41 7 58l65 325h124l-64 -317c-2 -12 -4 -24 -4 -34c0 -45 30 -65 62 -65c36 0 90 18 106 100l64 316h124zM454 727c36 0 65 -29 65 -64c0 -36 -29 -65 -65 -65
c-35 0 -64 29 -64 64c0 36 29 65 64 65zM239 727c35 0 64 -29 64 -64c0 -36 -29 -65 -64 -65c-36 0 -65 29 -65 64c0 36 29 65 65 65z" />
    <glyph glyph-name="ydieresis.ss01" horiz-adv-x="464" 
d="M515 521l-325 -605c-12 -23 -27 -45 -43 -61c-33 -33 -72 -46 -124 -46h-48l23 112h28c36 0 52 17 71 54l33 62l-74 484h123l38 -336l167 336h131zM413 727c36 0 65 -29 65 -64c0 -36 -29 -65 -65 -65c-35 0 -64 29 -64 64c0 36 29 65 64 65zM198 727c35 0 64 -29 64 -64
c0 -36 -29 -65 -64 -65c-36 0 -65 29 -65 64c0 36 29 65 65 65z" />
    <glyph glyph-name="ij.ss01" horiz-adv-x="524" 
d="M243 505l-101 -505h-124l101 505h124zM210 745c43 0 78 -35 78 -78s-35 -78 -78 -78s-78 35 -78 78s35 78 78 78zM505 505l-110 -553c-18 -91 -76 -147 -168 -147h-77l21 105h45c31 0 50 21 56 53l109 542h124zM472 745c43 0 78 -35 78 -78s-35 -78 -78 -78
s-78 35 -78 78s35 78 78 78z" />
    <glyph glyph-name="Ydieresis.ss01" horiz-adv-x="544" 
d="M635 712l-286 -425l-58 -287h-132l59 292l-129 420h140l76 -295l184 295h146zM480 905c36 0 65 -29 65 -64c0 -36 -29 -65 -65 -65c-35 0 -64 29 -64 64c0 36 29 65 64 65zM266 905c35 0 64 -29 64 -64c0 -36 -29 -65 -64 -65c-36 0 -65 29 -65 64c0 36 29 65 65 65z" />
    <glyph glyph-name="dotaccent.ss01" 
d="M339 733c36 0 64 -29 64 -64c0 -36 -28 -65 -64 -65s-64 29 -64 64c0 36 28 65 64 65z" />
    <glyph glyph-name="ogonek.ss01" 
d="M235 -166l-13 -63c-49 2 -94 35 -94 88c0 71 58 111 125 111h9l-13 -63c-28 0 -46 -16 -46 -40c0 -16 12 -31 32 -33z" />
    <glyph glyph-name="uni0312.ss01" horiz-adv-x="1" 
d="M68 783l-13 -63c-28 1 -46 -16 -46 -40c0 -18 12 -31 32 -33l-13 -63c-49 2 -94 34 -94 88c0 71 59 111 125 111h9z" />
    <glyph glyph-name="uni0313.ss01" horiz-adv-x="1" 
d="M76 747l-24 -121l-126 -85l42 206h108z" />
    <glyph glyph-name="uni0324.ss01" horiz-adv-x="1" 
d="M108 -65c36 0 65 -29 65 -64c0 -36 -29 -65 -65 -65c-35 0 -64 29 -64 64c0 36 29 65 64 65zM-107 -65c35 0 64 -29 64 -64c0 -36 -29 -65 -64 -65c-36 0 -65 29 -65 64c0 36 29 65 65 65z" />
    <glyph glyph-name="uni0327.ss01" horiz-adv-x="1" 
d="M-66 -228l13 63c28 -1 46 16 46 40c0 18 -12 31 -32 33l13 63c49 -2 94 -34 94 -88c0 -71 -59 -111 -125 -111h-9z" />
    <glyph glyph-name="uni0328.ss01" horiz-adv-x="1" 
d="M41 -166l-13 -63c-49 2 -94 35 -94 88c0 71 58 111 125 111h9l-13 -63c-28 0 -46 -16 -46 -40c0 -16 12 -31 32 -33z" />
    <glyph glyph-name="uni037E.ss01" horiz-adv-x="303" 
d="M213 142l-40 -197l-157 -110l61 307h136zM181 431c46 0 83 -37 83 -83s-37 -83 -83 -83s-83 37 -83 83s37 83 83 83z" />
    <glyph glyph-name="uni03A9.ss01" horiz-adv-x="611" 
d="M390 718c79 0 136 -27 169 -71c26 -34 39 -78 39 -128c0 -21 -3 -43 -7 -66c-20 -101 -53 -155 -91 -193c-39 -39 -103 -73 -208 -73c-79 0 -135 27 -168 71c-26 34 -39 78 -39 128c0 21 3 43 7 66c20 101 53 155 91 193c39 39 103 73 207 73zM7 0l20 104h489l-20 -104
h-489zM372 607c-43 0 -76 -18 -100 -43c-20 -20 -34 -46 -48 -112c-4 -18 -5 -35 -5 -51c0 -58 26 -103 93 -103c43 0 75 18 99 43c20 20 34 46 48 112c4 18 5 35 5 51c0 58 -26 103 -92 103z" />
    <glyph glyph-name="ellipsis.ss01" horiz-adv-x="804" 
d="M630 164c46 0 83 -38 83 -84s-37 -83 -83 -83s-83 37 -83 83s37 84 83 84zM105 164c46 0 83 -38 83 -84s-37 -83 -83 -83s-83 37 -83 83s37 84 83 84zM367 164c46 0 84 -38 84 -84s-38 -83 -84 -83s-82 37 -82 83s36 84 82 84z" />
    <glyph glyph-name="uni2071.ss01" horiz-adv-x="156" 
d="M188 599l-54 -270h-84l55 270h83zM162 724c26 0 45 -19 45 -43c0 -25 -19 -44 -45 -44c-25 0 -45 19 -45 44c0 24 20 43 45 43z" />
    <glyph glyph-name="lira.ss01" horiz-adv-x="525" 
d="M51 0l35 172l-76 -42l18 88l75 42l16 76l-76 -42l18 87l75 42l58 289h132l-41 -205l144 81l-17 -87l-144 -81l-15 -76l144 81l-18 -88l-144 -81l-28 -141h54c49 0 87 15 141 65l63 -86c-74 -68 -131 -94 -225 -94h-189z" />
    <glyph glyph-name="Euro.ss01" horiz-adv-x="585" 
d="M424 718c86 0 138 -28 184 -87l-98 -83c-28 39 -56 54 -94 54c-36 0 -65 -13 -91 -39c-22 -22 -34 -50 -45 -90h153l-16 -78h-157l-15 -75h157l-15 -78h-153c-2 -17 -3 -28 -3 -38c0 -54 35 -94 96 -94c49 0 83 23 112 54l76 -93c-45 -45 -108 -77 -194 -77
c-144 0 -223 94 -223 203c0 12 0 25 3 45h-68l15 78h65l15 75h-65l15 78h67c21 80 45 127 85 167c54 55 123 78 194 78z" />
    <glyph glyph-name="uni20BD.ss01" horiz-adv-x="619" 
d="M50 0l20 98h-67l19 95h67l104 519h253c121 0 191 -77 191 -188c0 -127 -92 -248 -263 -248h-137l-17 -83h110l-19 -95h-109l-20 -98h-132zM261 393h118c86 0 125 66 125 120c0 45 -21 82 -80 82h-122z" />
    <glyph glyph-name="dotmath.ss01" horiz-adv-x="516" 
d="M263 368c46 0 83 -37 83 -83s-37 -84 -83 -84s-83 38 -83 84s37 83 83 83z" />
    <glyph glyph-name="fi.ss01" horiz-adv-x="585" 
d="M392 720l-21 -105h-44c-30 0 -50 -16 -57 -51l-12 -59h91l-19 -95h-91l-82 -410h-124l82 410h-51l19 95h51l15 72c18 91 74 143 170 143h73zM557 505l-101 -505h-124l101 505h124zM524 745c43 0 78 -35 78 -78s-35 -78 -78 -78s-78 35 -78 78s35 78 78 78z" />
    <glyph glyph-name="exclamdown.case.ss01" horiz-adv-x="330" 
d="M23 0l126 490h93l-66 -490h-153zM223 565c-41 0 -75 35 -75 76s34 74 75 74s74 -33 74 -74s-33 -76 -74 -76z" />
    <glyph glyph-name="periodcentered.case.ss01" horiz-adv-x="279" 
d="M160 440c46 0 83 -37 83 -83s-37 -84 -83 -84s-83 38 -83 84s37 83 83 83z" />
    <glyph glyph-name="questiondown.case.ss01" horiz-adv-x="497" 
d="M185 -6c-86 0 -166 59 -166 159c0 68 28 116 74 166l89 99c11 12 24 32 28 51l5 21h124l-7 -31c-8 -38 -21 -70 -54 -105l-89 -94c-25 -27 -45 -56 -45 -94c0 -33 21 -61 59 -61c53 0 86 32 96 83h124c-24 -136 -119 -194 -238 -194zM303 565c-41 0 -75 35 -75 76
s34 74 75 74s74 -33 74 -74s-33 -76 -74 -76z" />
    <glyph glyph-name="zero.zero.ss01" horiz-adv-x="520" 
d="M340 718c108 0 177 -71 177 -171c0 -13 -2 -34 -5 -49l-57 -290c-32 -164 -141 -214 -237 -214c-108 0 -178 71 -178 171c0 13 2 34 5 49l58 290c32 164 141 214 237 214zM329 607c-41 0 -87 -20 -103 -99l-58 -299c-2 -11 -5 -24 -5 -35c0 -51 34 -69 65 -69
c41 0 87 20 103 99l59 299c2 11 4 24 4 35c0 51 -34 69 -65 69zM278 420c36 0 65 -29 65 -64c0 -36 -29 -65 -64 -65c-36 0 -65 29 -65 65c0 35 29 64 64 64z" />
    <glyph glyph-name="zero.osf.zero.ss01" horiz-adv-x="516" 
d="M218 -6c-108 0 -178 71 -178 171c0 13 2 34 5 49l35 175c33 164 141 214 237 214c108 0 177 -71 177 -171c0 -13 -2 -34 -5 -49l-35 -175c-33 -164 -140 -214 -236 -214zM228 105c41 0 88 20 103 99l36 184c2 11 4 24 4 35c0 51 -34 69 -65 69c-41 0 -88 -20 -103 -99
l-36 -184c-2 -11 -4 -24 -4 -35c0 -51 34 -69 65 -69zM266 363c36 0 65 -29 65 -64c0 -36 -29 -65 -64 -65c-36 0 -65 29 -65 65c0 35 29 64 64 64z" />
    <glyph glyph-name="zero.lf.zero.ss01" horiz-adv-x="520" 
d="M218 -6c-108 0 -178 71 -178 171c0 13 2 34 5 49l58 290c32 164 141 214 237 214c108 0 177 -71 177 -171c0 -13 -2 -34 -5 -49l-57 -290c-32 -164 -141 -214 -237 -214zM228 105c41 0 87 20 103 99l59 299c2 11 4 24 4 35c0 51 -34 69 -65 69c-41 0 -87 -20 -103 -99
l-58 -299c-2 -11 -5 -24 -5 -35c0 -51 34 -69 65 -69zM279 420c36 0 65 -29 65 -64c0 -36 -29 -65 -64 -65c-36 0 -65 29 -65 65c0 35 29 64 64 64z" />
    <glyph glyph-name="zero.tosf.zero.ss01" horiz-adv-x="516" 
d="M209 -6c-108 0 -178 71 -178 171c0 13 2 34 5 49l35 175c33 164 141 214 237 214c108 0 177 -71 177 -171c0 -13 -2 -34 -5 -49l-35 -175c-33 -164 -140 -214 -236 -214zM219 105c41 0 88 20 103 99l36 184c2 11 4 24 4 35c0 51 -34 69 -65 69c-41 0 -88 -20 -103 -99
l-36 -184c-2 -11 -4 -24 -4 -35c0 -51 34 -69 65 -69zM258 363c36 0 65 -29 65 -64c0 -36 -29 -65 -64 -65c-36 0 -65 29 -65 65c0 35 29 64 64 64z" />
    <glyph glyph-name="dieresis.lc.ss01" 
d="M446 727c36 0 65 -29 65 -64c0 -36 -29 -65 -65 -65c-35 0 -64 29 -64 64c0 36 29 65 64 65zM231 727c35 0 64 -29 64 -64c0 -36 -29 -65 -64 -65c-36 0 -65 29 -65 64c0 36 29 65 65 65z" />
    <glyph glyph-name="cedilla.lc.ss01" 
d="M127 -228l13 63c28 -1 46 16 46 40c0 18 -12 31 -32 33l13 63c49 -2 94 -34 94 -88c0 -71 -59 -111 -125 -111h-9z" />
    <glyph glyph-name="dotaccent.lc.ss01" 
d="M339 733c36 0 64 -29 64 -64c0 -36 -28 -65 -64 -65s-64 29 -64 64c0 36 28 65 64 65z" />
    <glyph glyph-name="ogonek.lc.ss01" 
d="M235 -166l-13 -63c-49 2 -94 35 -94 88c0 71 58 111 125 111h9l-13 -63c-28 0 -46 -16 -46 -40c0 -16 12 -31 32 -33z" />
    <glyph glyph-name="dotbelowcomb.lc.ss01" 
d="M179 -66c36 0 64 -29 64 -64c0 -36 -28 -65 -64 -65s-64 29 -64 64c0 36 28 65 64 65z" />
    <glyph glyph-name="uni0324.lc.ss01" 
d="M287 -65c36 0 65 -29 65 -64c0 -36 -29 -65 -65 -65c-35 0 -64 29 -64 64c0 36 29 65 64 65zM72 -65c35 0 64 -29 64 -64c0 -36 -29 -65 -64 -65c-36 0 -65 29 -65 64c0 36 29 65 65 65z" />
    <glyph glyph-name="commaaccent.lc.ss01" 
d="M127 -228l13 63c28 -1 46 16 46 40c0 18 -12 31 -32 33l13 63c49 -2 94 -34 94 -88c0 -71 -59 -111 -125 -111h-9z" />
    <glyph glyph-name="dieresis.uc.ss01" horiz-adv-x="610" 
d="M526 905c36 0 65 -29 65 -64c0 -36 -29 -65 -65 -65c-35 0 -64 29 -64 64c0 36 29 65 64 65zM312 905c35 0 64 -29 64 -64c0 -36 -29 -65 -64 -65c-36 0 -65 29 -65 64c0 36 29 65 65 65z" />
    <glyph glyph-name="cedilla.uc.ss01" horiz-adv-x="610" 
d="M158 -228l13 63c28 -1 46 16 46 40c0 18 -12 31 -32 33l13 63c49 -2 94 -34 94 -88c0 -71 -59 -111 -125 -111h-9z" />
    <glyph glyph-name="dotaccent.uc.ss01" horiz-adv-x="610" 
d="M421 907c36 0 65 -29 65 -64c0 -36 -29 -65 -64 -65c-36 0 -65 29 -65 65c0 35 29 64 64 64z" />
    <glyph glyph-name="ogonek.uc.ss01" horiz-adv-x="610" 
d="M283 -166l-13 -63c-49 2 -94 35 -94 88c0 71 58 111 125 111h9l-13 -63c-28 0 -46 -16 -46 -40c0 -16 12 -31 32 -33z" />
    <glyph glyph-name="dotbelowcomb.uc.ss01" horiz-adv-x="610" 
d="M227 -66c36 0 64 -29 64 -64c0 -36 -28 -65 -64 -65s-64 29 -64 64c0 36 28 65 64 65z" />
    <glyph glyph-name="uni0324.uc.ss01" horiz-adv-x="610" 
d="M334 -65c36 0 65 -29 65 -64c0 -36 -29 -65 -65 -65c-35 0 -64 29 -64 64c0 36 29 65 64 65zM119 -65c35 0 64 -29 64 -64c0 -36 -29 -65 -64 -65c-36 0 -65 29 -65 64c0 36 29 65 65 65z" />
    <glyph glyph-name="commaaccent.uc.ss01" horiz-adv-x="610" 
d="M158 -228l13 63c28 -1 46 16 46 40c0 18 -12 31 -32 33l13 63c49 -2 94 -34 94 -88c0 -71 -59 -111 -125 -111h-9z" />
    <glyph glyph-name="C.ss02" horiz-adv-x="539" 
d="M378 718c86 0 138 -28 184 -87l-98 -83c-28 39 -56 54 -94 54c-40 0 -69 -15 -93 -41c-29 -32 -43 -71 -71 -205c-12 -60 -20 -115 -20 -150c0 -56 34 -96 95 -96c51 0 85 25 112 54l76 -93c-46 -44 -108 -77 -193 -77c-145 0 -224 92 -224 202c0 31 6 80 22 160
c32 156 52 225 110 284c54 55 123 78 194 78z" />
    <glyph glyph-name="G.ss02" horiz-adv-x="614" 
d="M382 718c95 0 152 -40 194 -97l-101 -83c-26 39 -55 64 -102 64c-42 0 -75 -18 -96 -40c-36 -36 -48 -88 -72 -206c-13 -62 -21 -116 -21 -151c0 -69 48 -95 96 -95c63 0 127 47 146 143l6 31h-123l20 110h255l-19 -102c-19 -101 -44 -163 -99 -218
c-52 -52 -121 -80 -195 -80c-146 0 -220 96 -220 202c0 41 8 94 22 160c34 170 49 224 106 281c53 54 125 81 203 81z" />
    <glyph glyph-name="a.ss02" horiz-adv-x="538" 
d="M179 -6c-104 0 -145 73 -145 145c0 25 2 55 15 122c22 110 45 176 86 215s88 51 134 51c56 0 95 -21 121 -60l11 54h119l-103 -521h-120l11 52c-31 -37 -75 -58 -129 -58zM227 105c27 0 50 10 66 26c24 24 39 64 52 130c5 27 10 62 10 83c0 37 -17 72 -64 72
c-27 0 -50 -10 -66 -26c-24 -24 -39 -63 -52 -129c-5 -27 -10 -63 -10 -84c0 -37 17 -72 64 -72z" />
    <glyph glyph-name="ordfeminine.ss02" horiz-adv-x="439" 
d="M200 291c-72 0 -115 49 -115 126c0 38 4 68 8 87c16 85 34 134 65 167c33 34 66 46 116 46c42 0 72 -21 86 -46l8 43h99l-83 -418h-99l8 41c-20 -26 -58 -46 -93 -46zM235 381c24 0 41 10 52 22c19 18 27 43 39 101c5 25 10 47 10 64c0 40 -19 59 -51 59
c-23 0 -41 -9 -52 -21c-21 -21 -32 -56 -41 -102c-5 -28 -9 -47 -9 -64c0 -41 22 -59 52 -59z" />
    <glyph glyph-name="Ccedilla.ss02" horiz-adv-x="539" 
d="M378 718c86 0 138 -28 184 -87l-98 -83c-28 39 -56 54 -94 54c-40 0 -69 -15 -93 -41c-29 -32 -43 -71 -71 -205c-12 -60 -20 -115 -20 -150c0 -56 34 -96 95 -96c51 0 85 25 112 54l76 -93c-46 -44 -108 -77 -193 -77c-145 0 -224 92 -224 202c0 31 6 80 22 160
c32 156 52 225 110 284c54 55 123 78 194 78zM286 -57l-70 -144h-114l86 144h98z" />
    <glyph glyph-name="agrave.ss02" horiz-adv-x="538" 
d="M179 -6c-104 0 -145 73 -145 145c0 25 2 55 15 122c22 110 45 176 86 215s88 51 134 51c56 0 95 -21 121 -60l11 54h119l-103 -521h-120l11 52c-31 -37 -75 -58 -129 -58zM227 105c27 0 50 10 66 26c24 24 39 64 52 130c5 27 10 62 10 83c0 37 -17 72 -64 72
c-27 0 -50 -10 -66 -26c-24 -24 -39 -63 -52 -129c-5 -27 -10 -63 -10 -84c0 -37 17 -72 64 -72zM329 768l45 -167h-91l-72 167h118z" />
    <glyph glyph-name="aacute.ss02" horiz-adv-x="538" 
d="M179 -6c-104 0 -145 73 -145 145c0 25 2 55 15 122c22 110 45 176 86 215s88 51 134 51c56 0 95 -21 121 -60l11 54h119l-103 -521h-120l11 52c-31 -37 -75 -58 -129 -58zM227 105c27 0 50 10 66 26c24 24 39 64 52 130c5 27 10 62 10 83c0 37 -17 72 -64 72
c-27 0 -50 -10 -66 -26c-24 -24 -39 -63 -52 -129c-5 -27 -10 -63 -10 -84c0 -37 17 -72 64 -72zM498 768l-130 -167h-100l111 167h119z" />
    <glyph glyph-name="acircumflex.ss02" horiz-adv-x="538" 
d="M179 -6c-104 0 -145 73 -145 145c0 25 2 55 15 122c22 110 45 176 86 215s88 51 134 51c56 0 95 -21 121 -60l11 54h119l-103 -521h-120l11 52c-31 -37 -75 -58 -129 -58zM227 105c27 0 50 10 66 26c24 24 39 64 52 130c5 27 10 62 10 83c0 37 -17 72 -64 72
c-27 0 -50 -10 -66 -26c-24 -24 -39 -63 -52 -129c-5 -27 -10 -63 -10 -84c0 -37 17 -72 64 -72zM404 770l92 -169h-91l-60 94l-98 -94h-101l159 169h99z" />
    <glyph glyph-name="atilde.ss02" horiz-adv-x="538" 
d="M179 -6c-104 0 -145 73 -145 145c0 25 2 55 15 122c22 110 45 176 86 215s88 51 134 51c56 0 95 -21 121 -60l11 54h119l-103 -521h-120l11 52c-31 -37 -75 -58 -129 -58zM227 105c27 0 50 10 66 26c24 24 39 64 52 130c5 27 10 62 10 83c0 37 -17 72 -64 72
c-27 0 -50 -10 -66 -26c-24 -24 -39 -63 -52 -129c-5 -27 -10 -63 -10 -84c0 -37 17 -72 64 -72zM271 727c35 0 57 -10 77 -22s33 -17 53 -17c25 0 43 12 62 30l45 -59c-37 -35 -68 -52 -111 -52c-34 0 -57 10 -77 22s-33 17 -52 17c-26 0 -44 -13 -62 -31l-45 60
c36 34 67 52 110 52z" />
    <glyph glyph-name="adieresis.ss02" horiz-adv-x="538" 
d="M179 -6c-104 0 -145 73 -145 145c0 25 2 55 15 122c22 110 45 176 86 215s88 51 134 51c56 0 95 -21 121 -60l11 54h119l-103 -521h-120l11 52c-31 -37 -75 -58 -129 -58zM227 105c27 0 50 10 66 26c24 24 39 64 52 130c5 27 10 62 10 83c0 37 -17 72 -64 72
c-27 0 -50 -10 -66 -26c-24 -24 -39 -63 -52 -129c-5 -27 -10 -63 -10 -84c0 -37 17 -72 64 -72zM504 725l-24 -122h-106l24 122h106zM295 725l-24 -122h-106l24 122h106z" />
    <glyph glyph-name="aring.ss02" horiz-adv-x="538" 
d="M179 -6c-104 0 -145 73 -145 145c0 25 2 55 15 122c22 110 45 176 86 215s88 51 134 51c56 0 95 -21 121 -60l11 54h119l-103 -521h-120l11 52c-31 -37 -75 -58 -129 -58zM227 105c27 0 50 10 66 26c24 24 39 64 52 130c5 27 10 62 10 83c0 37 -17 72 -64 72
c-27 0 -50 -10 -66 -26c-24 -24 -39 -63 -52 -129c-5 -27 -10 -63 -10 -84c0 -37 17 -72 64 -72zM343 837c70 0 127 -54 127 -126c0 -73 -57 -127 -127 -127c-69 0 -126 54 -126 127c0 72 57 126 126 126zM343 768c-31 0 -58 -26 -58 -57c0 -32 27 -59 58 -59s59 27 59 59
c0 31 -28 57 -59 57z" />
    <glyph glyph-name="ae.ss02" horiz-adv-x="834" 
d="M181 -6c-94 0 -146 66 -146 154c0 24 4 64 14 113c26 129 51 180 87 215c37 35 82 51 137 51c60 0 98 -24 121 -63l11 57h84l-11 -58c29 40 67 64 138 64s178 -50 178 -186c0 -35 -7 -77 -16 -118h-316c-2 -12 -3 -22 -3 -36c0 -52 31 -88 92 -88c50 0 88 19 124 53
l64 -82c-54 -51 -125 -76 -200 -76c-60 0 -105 18 -136 67l-12 -61h-84l12 56c-26 -32 -71 -62 -138 -62zM231 105c32 0 55 13 70 29c24 26 40 69 51 127c6 30 10 60 10 78c0 45 -24 77 -68 77c-31 0 -53 -12 -68 -27c-25 -25 -41 -68 -53 -128c-6 -31 -9 -59 -9 -78
c0 -45 23 -78 67 -78zM478 306h194c2 11 4 24 4 35c0 54 -30 84 -75 84c-53 0 -99 -33 -123 -119z" />
    <glyph glyph-name="uni2090.ss02" horiz-adv-x="319" 
d="M49 -163c-42 0 -85 24 -85 82c0 13 2 36 7 62c8 42 23 89 47 113c19 19 51 29 81 29c34 0 55 -14 64 -36l6 32h84l-56 -278h-82l5 27c-20 -23 -46 -31 -71 -31zM86 -89c20 0 44 12 55 70c3 15 4 26 4 33c0 16 -10 35 -35 35c-24 0 -45 -17 -55 -68c-4 -17 -5 -28 -5 -36
c0 -18 12 -34 36 -34z" />
    <glyph glyph-name="Omega.ss02" horiz-adv-x="611" 
d="M390 718c79 0 136 -27 169 -71c26 -34 39 -78 39 -128c0 -21 -3 -43 -7 -66c-20 -101 -53 -155 -91 -193c-39 -39 -103 -73 -208 -73c-79 0 -135 27 -168 71c-26 34 -39 78 -39 128c0 21 3 43 7 66c20 101 53 155 91 193c39 39 103 73 207 73zM7 0l20 104h489l-20 -104
h-489zM372 607c-43 0 -76 -18 -100 -43c-20 -20 -34 -46 -48 -112c-4 -18 -5 -35 -5 -51c0 -58 26 -103 93 -103c43 0 75 18 99 43c20 20 34 46 48 112c4 18 5 35 5 51c0 58 -26 103 -92 103z" />
    <glyph glyph-name="a.sups.ss02" horiz-adv-x="319" 
d="M147 325c-42 0 -85 24 -85 82c0 13 2 36 7 62c8 42 23 89 47 113c19 19 51 29 81 29c34 0 55 -14 64 -36l6 32h84l-56 -278h-82l5 27c-20 -23 -46 -31 -71 -31zM184 399c20 0 44 12 55 70c3 15 4 26 4 33c0 16 -10 35 -35 35c-24 0 -45 -17 -55 -68c-4 -17 -5 -28 -5 -36
c0 -18 12 -34 36 -34z" />
    <glyph glyph-name="Ccedilla.ss03" horiz-adv-x="538" 
d="M377 718c86 0 138 -28 184 -87l-98 -83c-28 39 -56 54 -94 54c-40 0 -69 -15 -93 -41c-29 -32 -43 -71 -71 -205c-12 -60 -20 -115 -20 -150c0 -56 34 -96 95 -96c51 0 85 25 112 54l76 -93c-46 -44 -108 -77 -193 -77c-145 0 -224 92 -224 202c0 31 6 80 22 160
c32 156 52 225 110 284c54 55 123 78 194 78zM148 -228l13 63c28 -1 46 16 46 40c0 18 -12 31 -32 33l13 63c49 -2 94 -34 94 -88c0 -71 -59 -111 -125 -111h-9z" />
    <glyph glyph-name="adieresis.ss03" horiz-adv-x="539" 
d="M179 -6c-104 0 -145 73 -145 145c0 25 2 55 15 122c22 110 45 176 86 215s88 51 134 51c56 0 95 -21 121 -60l11 54h119l-103 -521h-120l11 52c-31 -37 -75 -58 -129 -58zM227 105c27 0 50 10 66 26c24 24 39 64 52 130c5 27 10 62 10 83c0 37 -17 72 -64 72
c-27 0 -50 -10 -66 -26c-24 -24 -39 -63 -52 -129c-5 -27 -10 -63 -10 -84c0 -37 17 -72 64 -72zM442 727c36 0 65 -29 65 -64c0 -36 -29 -65 -65 -65c-35 0 -64 29 -64 64c0 36 29 65 64 65zM227 727c35 0 64 -29 64 -64c0 -36 -29 -65 -64 -65c-36 0 -65 29 -65 64
c0 36 29 65 65 65z" />
    <glyph glyph-name="Iacute_J_acutecomb" horiz-adv-x="778" 
d="M798 712l-98 -487c-39 -193 -176 -231 -260 -231c-87 0 -139 26 -179 77l95 81c21 -27 47 -42 87 -42c46 0 108 26 127 123l96 479h132zM913 946l-131 -168h-99l110 168h120zM303 712l-143 -712h-132l143 712h132zM422 946l-131 -168h-99l110 168h120z" />
    <glyph glyph-name="J_acutecomb" horiz-adv-x="487" 
d="M507 712l-98 -487c-39 -193 -176 -231 -260 -231c-87 0 -139 26 -179 77l95 81c21 -27 47 -42 87 -42c46 0 108 26 127 123l96 479h132zM622 946l-131 -168h-99l110 168h120z" />
    <glyph glyph-name="breveacute" horiz-adv-x="516" 
d="M335 592c-87 0 -134 48 -134 113c0 10 1 20 3 31h82c-1 -10 -1 -13 -1 -16c0 -31 27 -44 59 -44c36 0 64 16 74 60h84c-21 -104 -78 -144 -167 -144zM320 785l111 167h119l-130 -167h-100z" />
    <glyph glyph-name="brevegrave" horiz-adv-x="516" 
d="M334 592c-87 0 -134 48 -134 113c0 10 1 20 3 31h82c-1 -10 -1 -13 -1 -16c0 -31 27 -44 59 -44c36 0 64 16 74 60h84c-21 -104 -78 -144 -167 -144zM320 784l-72 167h118l45 -167h-91z" />
    <glyph glyph-name="brevehook" horiz-adv-x="516" 
d="M334 592c-86 0 -133 48 -133 113c0 10 1 20 2 31h83c-1 -10 -1 -13 -1 -16c0 -31 27 -44 59 -44c36 0 64 16 74 60h84c-21 -104 -78 -144 -168 -144zM327 759l13 63c28 -1 46 16 46 40c0 18 -12 31 -32 33l13 63c49 -2 94 -34 94 -88c0 -71 -59 -111 -125 -111h-9z" />
    <glyph glyph-name="brevetilde" horiz-adv-x="516" 
d="M333 592c-86 0 -133 48 -133 113c0 10 1 20 2 31h83c-1 -10 -1 -13 -1 -16c0 -31 27 -44 59 -44c36 0 64 16 74 60h84c-21 -104 -78 -144 -168 -144zM440 791c-34 0 -57 11 -77 23s-33 17 -52 17c-25 0 -44 -13 -62 -31l-45 59c37 35 67 53 110 53c35 0 58 -10 78 -22
s32 -18 52 -18c25 0 43 13 62 31l45 -59c-37 -35 -68 -53 -111 -53z" />
    <glyph glyph-name="circumflexacute" horiz-adv-x="516" 
d="M150 601l159 169h99l92 -169h-91l-60 94l-98 -94h-101zM499 671l111 167h119l-130 -167h-100z" />
    <glyph glyph-name="circumflexgrave" horiz-adv-x="516" 
d="M150 601l159 169h100l91 -169h-91l-60 94l-98 -94h-101zM525 670l-91 168h118l64 -168h-91z" />
    <glyph glyph-name="circumflexhook" horiz-adv-x="516" 
d="M150 601l159 169h99l92 -169h-91l-60 94l-98 -94h-101zM493 653l13 63c28 -1 46 16 46 40c0 18 -12 31 -32 33l13 63c49 -2 94 -34 94 -88c0 -71 -59 -111 -125 -111h-9z" />
    <glyph glyph-name="circumflextilde" horiz-adv-x="516" 
d="M150 601l159 169h99l92 -169h-91l-60 94l-98 -94h-101zM436 812c-34 0 -57 10 -77 22s-33 17 -52 17c-26 0 -44 -13 -62 -31l-45 60c36 34 67 52 110 52c35 0 57 -10 77 -22s33 -17 53 -17c25 0 43 12 62 30l45 -59c-37 -35 -68 -52 -111 -52z" />
    <glyph glyph-name="caroncomma.uc.ss01.comp" horiz-adv-x="610" 
d="M456 747l-24 -121l-126 -85l42 206h108z" />
    <glyph glyph-name="iacute_j_acutecomb" horiz-adv-x="524" 
d="M505 505l-110 -553c-18 -91 -76 -147 -168 -147h-77l21 105h45c31 0 50 21 56 53l109 542h124zM632 768l-130 -167h-100l111 167h119zM243 505l-101 -505h-124l101 505h124zM375 768l-130 -167h-100l111 167h119z" />
    <glyph glyph-name="j_acutecomb" horiz-adv-x="262" 
d="M243 505l-110 -553c-18 -91 -76 -147 -168 -147h-77l21 105h45c31 0 50 21 56 53l109 542h124zM370 768l-130 -167h-100l111 167h119z" />
    <glyph glyph-name="grave.lc" 
d="M333 768l45 -167h-91l-72 167h118z" />
    <glyph glyph-name="dieresis.lc" 
d="M508 725l-24 -122h-106l24 122h106zM299 725l-24 -122h-106l24 122h106z" />
    <glyph glyph-name="macron.lc" 
d="M496 701l-16 -82h-302l17 82h301z" />
    <glyph glyph-name="acute.lc" 
d="M502 768l-130 -167h-100l111 167h119z" />
    <glyph glyph-name="cedilla.lc" 
d="M61 -201l86 144h98l-70 -144h-114z" />
    <glyph glyph-name="uni02C0.lc" 
d="M289 583l13 63c28 -1 46 16 46 40c0 18 -12 31 -32 33l13 63c49 -2 94 -34 94 -88c0 -71 -59 -111 -125 -111h-9z" />
    <glyph glyph-name="circumflex.lc" 
d="M408 770l92 -169h-91l-60 94l-98 -94h-101l159 169h99z" />
    <glyph glyph-name="caron.lc" 
d="M536 770l-160 -169h-99l-93 169h93l59 -94l99 94h101z" />
    <glyph glyph-name="breve.lc" 
d="M418 736h84c-21 -104 -78 -144 -167 -144c-87 0 -134 48 -134 113c0 10 1 20 3 31h82c-1 -10 -1 -13 -1 -16c0 -31 27 -44 59 -44c36 0 64 16 74 60z" />
    <glyph glyph-name="dotaccent.lc" 
d="M403 725l-24 -122h-106l24 122h106z" />
    <glyph glyph-name="ring.lc" 
d="M347 837c70 0 127 -54 127 -126c0 -73 -57 -127 -127 -127c-69 0 -126 54 -126 127c0 72 57 126 126 126zM347 768c-31 0 -58 -26 -58 -57c0 -32 27 -59 58 -59s59 27 59 59c0 31 -28 57 -59 57z" />
    <glyph glyph-name="ogonek.lc" 
d="M245 -57l-70 -144h-114l86 144h98z" />
    <glyph glyph-name="tilde.lc" 
d="M275 727c35 0 57 -10 77 -22s33 -17 53 -17c25 0 43 12 62 30l45 -59c-37 -35 -68 -52 -111 -52c-34 0 -57 10 -77 22s-33 17 -52 17c-26 0 -44 -13 -62 -31l-45 60c36 34 67 52 110 52z" />
    <glyph glyph-name="hungarumlaut.lc" 
d="M277 768h120l-131 -167h-99zM486 768h120l-131 -167h-99z" />
    <glyph glyph-name="uni030F.lc" 
d="M424 768l45 -167h-91l-72 167h118zM223 768l45 -167h-91l-72 167h118z" />
    <glyph glyph-name="uni0310.lc" 
d="M335 592c-87 0 -134 48 -134 113c0 10 1 20 3 31h82c-1 -10 -1 -13 -1 -16c0 -31 27 -44 59 -44c36 0 64 16 74 60h84c-21 -104 -78 -144 -167 -144zM305 783l24 123h106l-24 -123h-106z" />
    <glyph glyph-name="uni0311.lc" 
d="M342 745c87 0 134 -48 134 -113c0 -10 -1 -20 -3 -31h-82c1 10 1 13 1 16c0 31 -27 44 -59 44c-36 0 -64 -16 -74 -60h-84c21 104 78 144 167 144z" />
    <glyph glyph-name="uni0316.lc" 
d="M171 -58l45 -167h-91l-72 167h118z" />
    <glyph glyph-name="uni0317.lc" 
d="M272 -58l-130 -167h-100l111 167h119z" />
    <glyph glyph-name="uni031B.lc" 
d="M672 557l-15 -70c-19 -95 -46 -121 -149 -121h-36l14 70h37c30 0 48 14 59 68l10 53h80z" />
    <glyph glyph-name="uni031C.lc" 
d="M235 -167l-13 -63c-49 2 -94 34 -94 88c0 71 59 111 125 111h9l-13 -63c-28 1 -46 -16 -46 -40c0 -18 12 -31 32 -33z" />
    <glyph glyph-name="dotbelowcomb.lc" 
d="M243 -74l-24 -122h-106l24 122h106z" />
    <glyph glyph-name="uni0324.lc" 
d="M348 -71l-24 -122h-106l24 122h106zM139 -71l-24 -122h-106l24 122h106z" />
    <glyph glyph-name="uni0325.lc" 
d="M174 -38c70 0 127 -54 127 -126c0 -73 -57 -127 -127 -127c-69 0 -126 54 -126 127c0 72 57 126 126 126zM174 -107c-31 0 -58 -26 -58 -57c0 -32 27 -59 58 -59s59 27 59 59c0 31 -28 57 -59 57z" />
    <glyph glyph-name="uni032C.lc" 
d="M368 -64l-160 -169h-99l-93 169h93l59 -94l99 94h101z" />
    <glyph glyph-name="uni032D.lc" 
d="M243 -58l92 -169h-91l-60 94l-98 -94h-101l159 169h99z" />
    <glyph glyph-name="uni032E.lc" 
d="M275 -63h84c-21 -104 -78 -144 -167 -144c-87 0 -134 48 -134 113c0 10 1 20 3 31h82c-1 -10 -1 -13 -1 -16c0 -31 27 -44 59 -44c36 0 64 16 74 60z" />
    <glyph glyph-name="uni032F.lc" 
d="M189 -50c87 0 134 -48 134 -113c0 -10 -1 -20 -3 -31h-82c1 10 1 13 1 16c0 31 -27 44 -59 44c-36 0 -64 -16 -74 -60h-84c21 104 78 144 167 144z" />
    <glyph glyph-name="uni0330.lc" 
d="M115 -67c35 0 57 -10 77 -22s33 -17 53 -17c25 0 43 12 62 30l45 -59c-37 -35 -68 -52 -111 -52c-34 0 -57 10 -77 22s-33 17 -52 17c-26 0 -44 -13 -62 -31l-45 60c36 34 67 52 110 52z" />
    <glyph glyph-name="uni0331.lc" horiz-adv-x="516" 
d="M359 -83l-16 -82h-302l17 82h301z" />
    <glyph glyph-name="uni0340.lc" horiz-adv-x="516" 
d="M552 838l64 -168h-91l-91 168h118z" />
    <glyph glyph-name="uni0341.lc" horiz-adv-x="516" 
d="M729 838l-130 -167h-100l111 167h119z" />
    <glyph glyph-name="commaaccent.lc" 
d="M245 -57l-70 -144h-114l86 144h98z" />
    <glyph glyph-name="breveacute.uc" horiz-adv-x="610" 
d="M418 771c-87 0 -134 48 -134 113c0 10 1 20 3 31h82c-1 -10 -1 -13 -1 -16c0 -31 27 -44 59 -44c36 0 64 16 74 60h84c-21 -104 -78 -144 -167 -144zM403 964l111 167h119l-130 -167h-100z" />
    <glyph glyph-name="brevegrave.uc" horiz-adv-x="610" 
d="M418 771c-87 0 -134 48 -134 113c0 10 1 20 3 31h82c-1 -10 -1 -13 -1 -16c0 -31 27 -44 59 -44c36 0 64 16 74 60h84c-21 -104 -78 -144 -167 -144zM404 963l-72 167h118l45 -167h-91z" />
    <glyph glyph-name="brevehook.uc" horiz-adv-x="610" 
d="M417 771c-86 0 -133 48 -133 113c0 10 1 20 2 31h83c-1 -10 -1 -13 -1 -16c0 -31 27 -44 59 -44c36 0 64 16 74 60h84c-21 -104 -78 -144 -168 -144zM410 938l13 63c28 -1 46 16 46 40c0 18 -12 31 -32 33l13 63c49 -2 94 -34 94 -88c0 -71 -59 -111 -125 -111h-9z" />
    <glyph glyph-name="brevetilde.uc" horiz-adv-x="610" 
d="M416 771c-86 0 -133 48 -133 113c0 10 1 20 2 31h83c-1 -10 -1 -13 -1 -16c0 -31 27 -44 59 -44c36 0 64 16 74 60h84c-21 -104 -78 -144 -168 -144zM523 970c-34 0 -57 11 -77 23s-33 17 -52 17c-25 0 -44 -13 -62 -31l-45 59c37 35 67 53 110 53c35 0 58 -11 78 -22
c20 -13 32 -18 52 -18c25 0 43 13 62 31l45 -59c-37 -35 -68 -53 -111 -53z" />
    <glyph glyph-name="circumflexacute.uc" horiz-adv-x="610" 
d="M234 779l159 169h99l92 -169h-91l-60 94l-98 -94h-101zM583 849l111 167h119l-130 -167h-100z" />
    <glyph glyph-name="circumflexgrave.uc" horiz-adv-x="610" 
d="M234 778l159 169h100l91 -169h-91l-60 94l-98 -94h-101zM609 847l-91 168h118l64 -168h-91z" />
    <glyph glyph-name="circumflexhook.uc" horiz-adv-x="610" 
d="M234 778l159 169h99l92 -169h-91l-60 94l-98 -94h-101zM577 830l13 63c28 -1 46 16 46 40c0 18 -12 31 -32 33l13 63c49 -2 94 -34 94 -88c0 -71 -59 -111 -125 -111h-9z" />
    <glyph glyph-name="circumflextilde.uc" horiz-adv-x="610" 
d="M234 778l159 169h99l92 -169h-91l-60 94l-98 -94h-101zM520 989c-34 0 -57 10 -77 22s-33 17 -52 17c-26 0 -44 -13 -62 -31l-45 60c36 34 67 52 110 52c35 0 57 -10 77 -22s33 -17 53 -17c25 0 43 12 62 30l45 -59c-37 -35 -68 -52 -111 -52z" />
    <glyph glyph-name="grave.uc" horiz-adv-x="610" 
d="M415 946l45 -168h-92l-71 168h118z" />
    <glyph glyph-name="dieresis.uc" horiz-adv-x="610" 
d="M590 902l-24 -122h-106l24 122h106zM381 902l-24 -122h-106l24 122h106z" />
    <glyph glyph-name="macron.uc" horiz-adv-x="610" 
d="M578 874l-16 -82h-302l17 82h301z" />
    <glyph glyph-name="acute.uc" horiz-adv-x="610" 
d="M582 946l-131 -168h-99l110 168h120z" />
    <glyph glyph-name="cedilla.uc" horiz-adv-x="610" 
d="M295 -57l-70 -144h-114l86 144h98z" />
    <glyph glyph-name="uni02C0.uc" horiz-adv-x="610" 
d="M374 895l13 63c50 -4 95 -36 95 -92c0 -70 -60 -107 -126 -107h-9l13 63c29 0 46 16 46 41c0 18 -13 30 -32 32z" />
    <glyph glyph-name="circumflex.uc" horiz-adv-x="610" 
d="M492 947l92 -169h-91l-60 94l-98 -94h-101l159 169h99z" />
    <glyph glyph-name="caron.uc" horiz-adv-x="610" 
d="M619 947l-160 -169h-99l-93 169h93l59 -94l99 94h101z" />
    <glyph glyph-name="breve.uc" horiz-adv-x="610" 
d="M501 915h84c-21 -104 -78 -144 -167 -144c-87 0 -134 48 -134 113c0 10 1 20 3 31h82c-1 -10 -1 -13 -1 -16c0 -31 27 -44 59 -44c36 0 64 16 74 60z" />
    <glyph glyph-name="dotaccent.uc" horiz-adv-x="610" 
d="M486 902l-24 -122h-106l24 122h106z" />
    <glyph glyph-name="ring.uc" horiz-adv-x="610" 
d="M419 1005c69 0 126 -54 126 -127c0 -72 -57 -127 -126 -127c-70 0 -127 55 -127 127s57 127 127 127zM419 936c-31 0 -58 -26 -58 -58s27 -58 58 -58s58 26 58 58s-27 58 -58 58z" />
    <glyph glyph-name="ogonek.uc" horiz-adv-x="610" 
d="M295 -57l-70 -144h-114l86 144h98z" />
    <glyph glyph-name="tilde.uc" horiz-adv-x="610" 
d="M356 910c34 0 57 -10 77 -22s33 -17 53 -17c25 0 43 12 62 30l45 -59c-37 -35 -68 -52 -111 -52c-34 0 -57 10 -77 22s-33 17 -53 17c-25 0 -43 -13 -62 -31l-45 60c37 34 68 52 111 52z" />
    <glyph glyph-name="hungarumlaut.uc" horiz-adv-x="610" 
d="M353 946h119l-130 -168h-100zM562 946h120l-131 -168h-99z" />
    <glyph glyph-name="uni030F.uc" horiz-adv-x="610" 
d="M505 945l45 -167h-91l-72 167h118zM304 945l45 -167h-91l-72 167h118z" />
    <glyph glyph-name="uni0311.uc" horiz-adv-x="610" 
d="M426 922c87 0 134 -48 134 -113c0 -10 -1 -20 -3 -31h-82c1 10 1 13 1 16c0 31 -27 44 -59 44c-36 0 -64 -16 -74 -60h-84c21 104 78 144 167 144z" />
    <glyph glyph-name="dotbelowcomb.uc" horiz-adv-x="610" 
d="M291 -74l-24 -122h-106l24 122h106z" />
    <glyph glyph-name="uni0324.uc" horiz-adv-x="610" 
d="M396 -71l-24 -122h-106l24 122h106zM187 -71l-24 -122h-106l24 122h106z" />
    <glyph glyph-name="uni0325.uc" horiz-adv-x="610" 
d="M231 -29c73 0 132 -58 132 -131s-59 -132 -132 -132s-131 59 -131 132s58 131 131 131zM231 -100c-33 0 -60 -27 -60 -60s27 -60 60 -60s60 27 60 60s-27 60 -60 60z" />
    <glyph glyph-name="uni032D.uc" horiz-adv-x="610" 
d="M290 -58l92 -169h-91l-60 94l-98 -94h-101l159 169h99z" />
    <glyph glyph-name="uni032E.uc" horiz-adv-x="610" 
d="M316 -49h84c-21 -104 -78 -144 -167 -144c-87 0 -134 48 -134 113c0 10 1 20 3 31h82c-1 -10 -1 -13 -1 -16c0 -31 27 -44 59 -44c36 0 64 16 74 60z" />
    <glyph glyph-name="uni0330.uc" horiz-adv-x="610" 
d="M164 -67c34 0 57 -10 77 -22s33 -17 53 -17c25 0 43 12 62 30l45 -59c-37 -35 -68 -52 -111 -52c-34 0 -57 10 -77 22s-33 17 -53 17c-25 0 -43 -13 -62 -31l-45 60c37 34 68 52 111 52z" />
    <glyph glyph-name="uni0331.uc" horiz-adv-x="610" 
d="M387 -82l-16 -82h-302l17 82h301z" />
    <glyph glyph-name="commaaccent.uc" horiz-adv-x="610" 
d="M295 -57l-70 -144h-114l86 144h98z" />
    </font>
</defs>
</svg>
