<?xml version="1.0" standalone="no"?>
<!DOCTYPE svg PUBLIC "-//W3C//DTD SVG 1.1//EN" "http://www.w3.org/Graphics/SVG/1.1/DTD/svg11.dtd" >
<svg xmlns="http://www.w3.org/2000/svg" width="100%" height="100%">
<metadata>
Created by FontXChange 20110222 at Fri Oct  2 13:45:40 2015
 By Killian Grant
2005 published by Monotype GmbH
</metadata>
<defs>
<font id="DINOT-MediumItalic" horiz-adv-x="508" >
  <font-face 
    font-family="DINOT"
    font-weight="500"
    font-style="italic"
    font-stretch="normal"
    units-per-em="1000"
    panose-1="2 11 6 4 2 1 1 1 1 2"
    ascent="764"
    descent="-236"
    x-height="507"
    cap-height="712"
    bbox="-204 -283 1087 1123"
    underline-thickness="66"
    underline-position="-69"
    slope="-11.31"
    stemh="86"
    stemv="96"
    unicode-range="U+000D-FEFF"
  />
<missing-glyph horiz-adv-x="527" 
d="M482 712v-712h-396v712h396zM416 651h-264v-590h264v590z" />
    <glyph glyph-name=".notdef" horiz-adv-x="527" 
d="M482 712v-712h-396v712h396zM416 651h-264v-590h264v590z" />
    <glyph glyph-name=".null" horiz-adv-x="0" 
 />
    <glyph glyph-name=".null" horiz-adv-x="0" 
 />
    <glyph glyph-name="CR" unicode="&#xd;" horiz-adv-x="228" 
 />
    <glyph glyph-name="space" unicode=" " horiz-adv-x="228" 
 />
    <glyph glyph-name="exclam" unicode="!" horiz-adv-x="315" 
d="M323 712l-120 -503h-76l79 503h117zM201 109l-22 -109h-107l22 109h107z" />
    <glyph glyph-name="quotedbl" unicode="&#x22;" horiz-adv-x="422" 
d="M440 712l-38 -191h-96l39 191h95zM262 712l-38 -191h-96l39 191h95z" />
    <glyph glyph-name="numbersign" unicode="#" horiz-adv-x="646" 
d="M647 716l-69 -198h74l-18 -88h-87l-46 -132h79l-18 -88h-92l-73 -210h-103l74 210h-133l-74 -210h-102l73 210h-75l18 88h88l47 132h-81l18 88h93l69 198h103l-70 -198h134l68 198h103zM445 430h-133l-47 -132h133z" />
    <glyph glyph-name="dollar" unicode="$" horiz-adv-x="580" 
d="M183 -114l21 110c-88 5 -145 33 -198 97l75 66c39 -47 84 -70 148 -73l44 231l-28 7c-107 27 -144 90 -144 161c0 112 78 223 239 233l17 88h77l-17 -90c68 -7 124 -32 167 -83l-73 -63c-31 36 -67 54 -119 57l-43 -225l26 -6c112 -27 157 -80 157 -175
c0 -154 -127 -219 -251 -227l-21 -108h-77zM331 306l-41 -221c80 11 139 57 139 125s-39 83 -98 96zM291 413l41 215c-76 -8 -129 -68 -129 -132c0 -53 43 -72 88 -83z" />
    <glyph glyph-name="percent" unicode="%" horiz-adv-x="808" 
d="M155 0l460 712h80l-461 -712h-79zM215 345c-57 0 -116 29 -116 107c0 11 1 23 4 36l19 95c18 90 69 135 153 135c57 0 116 -30 116 -107c0 -11 -1 -23 -4 -36l-19 -95c-18 -90 -69 -135 -153 -135zM223 409c44 0 65 31 73 71l19 95c2 10 3 19 3 28c0 28 -12 51 -51 51
c-44 0 -65 -31 -73 -71l-19 -95c-2 -10 -3 -19 -3 -28c0 -28 12 -51 51 -51zM574 -6c-57 0 -116 29 -116 107c0 11 1 25 4 36l19 95c18 90 69 135 153 135c57 0 116 -30 116 -107c0 -11 -1 -23 -4 -36l-19 -95c-18 -90 -69 -135 -153 -135zM582 58c44 0 65 31 73 71l19 95
c2 10 3 19 3 28c0 28 -12 51 -51 51c-44 0 -65 -31 -73 -71l-19 -95c-2 -10 -3 -19 -3 -28c0 -28 12 -51 51 -51z" />
    <glyph glyph-name="ampersand" unicode="&#x26;" horiz-adv-x="664" 
d="M368 718c115 0 145 -80 145 -139c0 -60 -35 -109 -102 -150l-57 -36l107 -179c33 36 53 79 65 142h94c-16 -88 -47 -156 -110 -219l88 -137h-119l-43 70c-40 -35 -112 -76 -203 -76c-99 0 -189 52 -189 173c0 123 77 183 181 247c-23 36 -45 76 -45 128
c0 76 47 176 188 176zM389 144l-122 199c-77 -47 -124 -89 -124 -164c0 -57 39 -98 99 -98c47 0 99 20 147 63zM362 635c-55 0 -83 -45 -83 -93c0 -24 12 -51 32 -83l37 23c41 25 71 50 71 94c0 39 -25 59 -57 59z" />
    <glyph glyph-name="quotesingle" unicode="'" horiz-adv-x="244" 
d="M262 712l-38 -191h-96l39 191h95z" />
    <glyph glyph-name="parenleft" unicode="(" horiz-adv-x="296" 
d="M281 806l55 -72c-27 -23 -48 -43 -63 -62c-13 -18 -23 -43 -30 -76l-94 -466c-4 -21 -7 -42 -7 -59c0 -23 8 -53 47 -100l-74 -65c-59 70 -70 112 -70 154c0 17 3 42 9 74l93 468c8 39 15 75 42 112c23 32 57 63 92 92z" />
    <glyph glyph-name="parenright" unicode=")" horiz-adv-x="295" 
d="M148 741l73 65c59 -70 70 -112 70 -154c0 -17 -3 -42 -9 -74l-93 -468c-8 -39 -15 -75 -42 -112c-23 -32 -57 -63 -92 -92l-55 72c27 23 48 43 63 62c13 18 23 43 30 76l94 466c4 21 7 42 7 59c0 23 -7 53 -46 100z" />
    <glyph glyph-name="asterisk" unicode="*" horiz-adv-x="461" 
d="M286 712l69 -14l-28 -122l117 44l23 -66l-120 -37l96 -79l-46 -53l-91 86l-21 -124l-69 14l29 122l-117 -44l-23 66l120 36l-97 80l47 53l91 -86z" />
    <glyph glyph-name="plus" unicode="+" horiz-adv-x="506" 
d="M347 493l-34 -171h159l-18 -90h-159l-34 -170h-91l34 170h-159l18 90h159l34 171h91z" />
    <glyph glyph-name="comma" unicode="," horiz-adv-x="253" 
d="M153 116l-35 -176l-128 -95l54 271h109z" />
    <glyph glyph-name="hyphen" unicode="-" horiz-adv-x="406" 
d="M356 323l-18 -91h-277l17 91h278z" />
    <glyph glyph-name="period" unicode="." horiz-adv-x="261" 
d="M162 122l-24 -122h-116l24 122h116z" />
    <glyph glyph-name="slash" unicode="/" horiz-adv-x="365" 
d="M472 786l-442 -860h-96l443 860h95z" />
    <glyph glyph-name="zero" unicode="0" 
d="M505 555c0 -14 -2 -33 -5 -48l-61 -306c-32 -162 -141 -207 -228 -207c-94 0 -167 59 -167 163c0 14 2 33 5 48l61 306c32 162 141 207 228 207c94 0 167 -59 167 -163zM409 550c0 60 -40 82 -77 82c-50 0 -108 -28 -126 -119l-61 -311c-3 -13 -5 -27 -5 -40
c0 -60 40 -82 77 -82c50 0 108 28 126 119l61 311c3 13 5 27 5 40z" />
    <glyph glyph-name="one" unicode="1" 
d="M430 712l-143 -712h-96l120 600l-157 -116l22 114l157 114h97z" />
    <glyph glyph-name="two" unicode="2" 
d="M336 718c105 0 171 -61 171 -170c0 -82 -41 -131 -94 -187l-263 -275h276l-17 -86h-400l18 86l320 335c43 44 62 75 62 123c0 57 -30 88 -82 88c-53 0 -104 -30 -123 -111h-97c24 132 108 197 229 197z" />
    <glyph glyph-name="three" unicode="3" 
d="M330 718c100 0 166 -67 166 -162c0 -83 -37 -156 -117 -191c48 -23 70 -61 70 -129c0 -128 -94 -242 -234 -242c-123 0 -188 67 -188 163c0 13 0 24 2 32h95c-1 -4 -1 -17 -1 -21c0 -49 29 -87 92 -87c77 0 137 70 137 152c0 56 -30 89 -95 89h-17l16 84h18
c75 0 125 68 125 141c0 52 -30 84 -82 84c-56 0 -105 -38 -121 -102h-98c31 128 117 189 232 189z" />
    <glyph glyph-name="four" unicode="4" 
d="M468 712l-337 -512h168l33 164h93l-33 -164h76l-19 -90h-74l-22 -110h-93l22 110h-277l18 90l337 512h108z" />
    <glyph glyph-name="five" unicode="5" 
d="M529 712l-17 -86h-276l-39 -192c35 29 68 39 115 39c107 0 151 -72 151 -155c0 -27 -3 -54 -8 -81c-15 -72 -34 -136 -81 -183c-36 -37 -87 -60 -156 -60c-116 0 -169 72 -169 158c0 8 0 18 2 31h93c-1 -6 -1 -13 -1 -21c0 -47 23 -81 78 -81c85 0 120 68 136 156
c5 25 7 48 7 68c0 49 -16 86 -75 86c-52 0 -90 -25 -114 -66h-86l77 387h363z" />
    <glyph glyph-name="six" unicode="6" 
d="M449 712l-208 -311c15 5 28 9 48 9c99 0 160 -73 160 -181c0 -136 -94 -235 -218 -235c-137 0 -188 96 -188 184c0 67 23 117 78 199l222 335h106zM260 331c-84 0 -121 -82 -121 -146c0 -63 34 -105 91 -105c78 0 122 75 122 146c0 63 -35 105 -92 105z" />
    <glyph glyph-name="seven" unicode="7" 
d="M557 712l-17 -86l-345 -626h-107l346 626h-210l-21 -108h-93l38 194h409z" />
    <glyph glyph-name="eight" unicode="8" 
d="M331 718c100 0 176 -66 176 -173c0 -81 -47 -152 -116 -184c37 -27 65 -66 65 -137c0 -120 -83 -230 -238 -230c-99 0 -185 55 -185 178c0 89 42 161 130 202c-31 25 -56 62 -56 122c0 123 92 222 224 222zM264 324c-80 0 -134 -65 -134 -145c0 -59 35 -99 94 -99
c81 0 134 62 134 145c0 59 -35 99 -94 99zM325 632c-75 0 -121 -68 -121 -136c0 -51 28 -88 84 -88c75 0 122 68 122 136c0 51 -29 88 -85 88z" />
    <glyph glyph-name="nine" unicode="9" 
d="M319 718c137 0 188 -96 188 -184c0 -67 -23 -117 -78 -199l-222 -335h-106l208 311c-15 -5 -28 -9 -48 -9c-99 0 -160 73 -160 181c0 136 94 235 218 235zM320 632c-78 0 -122 -75 -122 -146c0 -63 35 -105 92 -105c84 0 121 82 121 146c0 63 -34 105 -91 105z" />
    <glyph glyph-name="colon" unicode=":" horiz-adv-x="288" 
d="M190 122l-25 -122h-115l24 122h116zM244 407l-24 -121h-116l25 121h115z" />
    <glyph glyph-name="semicolon" unicode=";" horiz-adv-x="288" 
d="M185 116l-35 -176l-129 -95l54 271h110zM244 407l-24 -121h-116l25 121h115z" />
    <glyph glyph-name="less" unicode="&#x3c;" horiz-adv-x="506" 
d="M464 501l-21 -107l-262 -117l217 -122l-20 -98l-317 185l18 84z" />
    <glyph glyph-name="equal" unicode="=" horiz-adv-x="506" 
d="M491 416l-18 -90h-409l18 90h409zM455 229l-18 -90h-409l18 90h409z" />
    <glyph glyph-name="greater" unicode="&#x3e;" horiz-adv-x="506" 
d="M53 52l21 107l262 117l-217 122l20 98l317 -185l-18 -84z" />
    <glyph glyph-name="question" unicode="?" horiz-adv-x="486" 
d="M347 718c82 0 157 -57 157 -153c0 -65 -27 -113 -71 -162l-96 -108c-13 -15 -24 -36 -28 -55l-7 -31h-97l8 38c8 39 20 65 51 100l95 105c29 32 48 62 48 105c0 41 -25 74 -74 74c-60 0 -101 -38 -114 -99h-98c23 124 110 186 226 186zM292 109l-21 -109h-107l21 109h107
z" />
    <glyph glyph-name="at" unicode="@" horiz-adv-x="699" 
d="M691 543c0 -18 -3 -49 -7 -68l-95 -475h-90l10 52c-39 -44 -77 -58 -126 -58c-94 0 -140 65 -140 139c0 28 4 59 13 102c18 89 34 144 77 188c36 37 85 53 133 53c55 0 91 -23 113 -58l12 63c3 17 6 32 6 45c0 28 -8 49 -22 66c-20 24 -48 35 -91 35h-120
c-47 0 -79 -11 -108 -36c-33 -28 -45 -62 -55 -110l-62 -309c-3 -16 -5 -32 -5 -49c0 -23 10 -42 31 -63l-74 -65c-38 40 -52 74 -52 113c0 19 4 45 7 62l61 310c17 87 42 136 81 173c40 38 101 59 178 59h143c69 0 116 -22 145 -56c27 -31 37 -72 37 -113zM553 314
c0 39 -16 81 -73 81c-79 0 -110 -60 -131 -160c-6 -28 -10 -55 -10 -78c0 -39 16 -81 73 -81c79 0 110 59 131 159c6 28 10 56 10 79z" />
    <glyph glyph-name="A" unicode="A" horiz-adv-x="594" 
d="M431 712l106 -712h-105l-18 146h-268l-77 -146h-111l390 712h83zM362 558l-173 -327h216z" />
    <glyph glyph-name="B" unicode="B" horiz-adv-x="630" 
d="M181 712h249c141 0 182 -88 182 -163c0 -64 -25 -144 -124 -187c47 -27 75 -62 75 -130c0 -140 -99 -232 -235 -232h-290zM366 317h-161l-45 -226h165c81 0 134 58 134 137c0 56 -33 89 -93 89zM414 621h-148l-43 -213h152c88 0 133 64 133 128c0 40 -18 85 -94 85z" />
    <glyph glyph-name="C" unicode="C" horiz-adv-x="599" 
d="M384 718c142 0 210 -93 211 -215h-103c-1 73 -38 125 -113 125c-49 0 -85 -19 -115 -51c-34 -35 -50 -84 -77 -221c-15 -76 -23 -126 -23 -159c0 -71 53 -113 116 -113c85 0 137 61 159 125h103c-45 -140 -145 -215 -269 -215c-125 0 -212 79 -212 197c0 30 4 76 22 165
c31 150 47 219 107 282c49 53 121 80 194 80z" />
    <glyph glyph-name="D" unicode="D" horiz-adv-x="633" 
d="M181 712h227c108 0 205 -52 205 -196c0 -34 -5 -65 -21 -154c-32 -170 -55 -237 -118 -295c-48 -45 -115 -67 -191 -67h-245zM390 622h-124l-106 -532h122c47 0 89 13 124 45c35 33 56 88 83 227c16 83 21 118 21 146c0 72 -40 114 -120 114z" />
    <glyph glyph-name="E" unicode="E" horiz-adv-x="575" 
d="M613 712l-18 -90h-329l-43 -218h282l-18 -90h-282l-45 -224h335l-18 -90h-439l143 712h432z" />
    <glyph glyph-name="F" unicode="F" horiz-adv-x="556" 
d="M613 712l-18 -90h-329l-45 -226h282l-18 -91h-283l-61 -305h-103l143 712h432z" />
    <glyph glyph-name="G" unicode="G" horiz-adv-x="618" 
d="M598 502h-103c-2 77 -42 126 -114 126c-49 0 -85 -18 -116 -51c-37 -38 -52 -91 -79 -221c-15 -76 -22 -126 -22 -159c0 -71 53 -113 116 -113c69 0 149 50 172 168l8 45h-145l16 86h248l-20 -107c-17 -89 -44 -151 -94 -203c-47 -48 -113 -79 -192 -79
c-131 0 -212 83 -212 197c0 37 5 85 22 165c34 168 49 221 107 282c48 51 122 80 195 80c141 0 212 -92 213 -216z" />
    <glyph glyph-name="H" unicode="H" horiz-adv-x="658" 
d="M661 712l-143 -712h-103l63 315h-273l-64 -315h-103l143 712h103l-61 -307h274l61 307h103z" />
    <glyph glyph-name="I" unicode="I" horiz-adv-x="281" 
d="M284 712l-143 -712h-103l143 712h103z" />
    <glyph glyph-name="J" unicode="J" horiz-adv-x="481" 
d="M494 712l-98 -493c-34 -169 -148 -225 -251 -225c-80 0 -130 26 -166 71l74 64c24 -29 51 -45 95 -45c63 0 126 41 147 145l96 483h103z" />
    <glyph glyph-name="K" unicode="K" horiz-adv-x="629" 
d="M685 712l-275 -288l164 -424h-113l-133 355l-145 -145l-42 -210h-103l143 712h103l-71 -357l344 357h128z" />
    <glyph glyph-name="L" unicode="L" horiz-adv-x="548" 
d="M284 712l-124 -622h328l-18 -90h-432l143 712h103z" />
    <glyph glyph-name="M" unicode="M" horiz-adv-x="775" 
d="M778 712l-143 -712h-103l97 480l-223 -336h-76l-91 340l-97 -484h-104l143 712h98l110 -436l288 436h101z" />
    <glyph glyph-name="N" unicode="N" horiz-adv-x="688" 
d="M691 712l-143 -712h-90l-214 510l-103 -510h-103l143 712h91l214 -510l102 510h103z" />
    <glyph glyph-name="O" unicode="O" horiz-adv-x="614" 
d="M592 521c0 -31 -4 -76 -22 -165c-30 -149 -47 -220 -106 -282c-51 -54 -121 -80 -197 -80c-126 0 -206 83 -206 197c0 31 4 76 22 165c30 149 47 220 106 282c51 54 121 80 196 80c127 0 207 -83 207 -197zM489 513c0 76 -52 115 -110 115c-48 0 -85 -18 -116 -51
s-49 -81 -77 -221c-15 -76 -22 -124 -22 -157c0 -76 52 -115 110 -115c48 0 85 18 116 51s49 81 77 221c15 76 22 124 22 157z" />
    <glyph glyph-name="P" unicode="P" horiz-adv-x="598" 
d="M181 712h247c125 0 187 -80 187 -180c0 -131 -93 -245 -258 -245h-158l-58 -287h-103zM413 621h-147l-49 -244h144c96 0 151 70 151 147c0 52 -26 97 -99 97z" />
    <glyph glyph-name="Q" unicode="Q" horiz-adv-x="614" 
d="M592 521c0 -31 -4 -76 -22 -165c-28 -138 -45 -210 -94 -269l54 -70l-64 -56l-55 71c-42 -26 -92 -38 -144 -38c-126 0 -206 83 -206 197c0 31 4 76 22 165c30 149 47 220 106 282c51 54 121 80 196 80c127 0 207 -83 207 -197zM489 513c0 76 -52 115 -110 115
c-48 0 -85 -18 -116 -51s-49 -81 -77 -221c-15 -76 -22 -124 -22 -157c0 -76 52 -115 110 -115c31 0 57 7 81 22l-63 82l64 57l58 -76c18 34 33 87 53 187c15 76 22 124 22 157z" />
    <glyph glyph-name="R" unicode="R" horiz-adv-x="626" 
d="M181 712h248c139 0 186 -87 186 -178c0 -95 -61 -190 -177 -220l101 -314h-113l-91 304h-132l-62 -304h-103zM414 621h-148l-47 -231h149c99 0 143 76 143 139c0 57 -32 92 -97 92z" />
    <glyph glyph-name="S" unicode="S" horiz-adv-x="561" 
d="M369 718c80 0 147 -24 195 -84l-72 -63c-32 39 -71 58 -135 58c-96 0 -153 -67 -153 -133c0 -51 40 -72 89 -84l62 -15c113 -27 158 -79 158 -179c0 -149 -128 -224 -276 -224c-106 0 -172 29 -231 98l76 66c40 -51 91 -73 164 -73c92 0 164 53 164 126
c0 62 -37 81 -88 94l-63 15c-95 23 -158 77 -158 165c0 117 90 233 268 233z" />
    <glyph glyph-name="T" unicode="T" horiz-adv-x="531" 
d="M595 712l-18 -91h-184l-125 -621h-103l125 621h-188l19 91h474z" />
    <glyph glyph-name="U" unicode="U" horiz-adv-x="643" 
d="M656 712l-95 -473c-33 -165 -146 -245 -281 -245c-108 0 -208 67 -208 198c0 20 4 47 7 62l91 458h103l-93 -466c-3 -12 -5 -32 -5 -48c0 -56 31 -113 112 -113c84 0 152 55 174 166l92 461h103z" />
    <glyph glyph-name="V" unicode="V" horiz-adv-x="536" 
d="M623 712l-362 -712h-82l-82 712h102l56 -526l258 526h110z" />
    <glyph glyph-name="W" unicode="W" horiz-adv-x="828" 
d="M910 712l-314 -712h-89l-38 504l-241 -504h-89l-37 712h106l17 -515l240 515h82l36 -515l217 515h110z" />
    <glyph glyph-name="X" unicode="X" horiz-adv-x="553" 
d="M617 712l-262 -351l142 -361h-115l-100 277l-202 -277h-120l280 371l-131 341h115l89 -258l184 258h120z" />
    <glyph glyph-name="Y" unicode="Y" horiz-adv-x="515" 
d="M605 712l-284 -423l-58 -289h-103l59 294l-125 418h109l85 -319l204 319h113z" />
    <glyph glyph-name="Z" unicode="Z" horiz-adv-x="532" 
d="M570 712l-17 -82l-416 -539h315l-18 -91h-437l16 82l414 539h-299l18 91h424z" />
    <glyph glyph-name="bracketleft" unicode="[" horiz-adv-x="325" 
d="M387 786l-17 -86h-106l-138 -688h115l-17 -86h-211l171 860h203z" />
    <glyph glyph-name="backslash" unicode="\" horiz-adv-x="356" 
d="M194 778l98 -852h-88l-99 852h89z" />
    <glyph glyph-name="bracketright" unicode="]" horiz-adv-x="325" 
d="M353 786l-171 -860h-203l17 84h108l138 692h-117l17 84h211z" />
    <glyph glyph-name="asciicircum" unicode="^" horiz-adv-x="548" 
d="M414 718l100 -318h-96l-67 215l-153 -215h-104l226 318h94z" />
    <glyph glyph-name="underscore" unicode="_" horiz-adv-x="506" 
d="M436 -102l-13 -66h-506l13 66h506z" />
    <glyph glyph-name="grave" unicode="`" 
d="M317 754l51 -159h-77l-71 159h97z" />
    <glyph glyph-name="a" unicode="a" horiz-adv-x="505" 
d="M167 -6c-84 0 -149 45 -149 129c0 47 15 88 46 119c39 39 89 53 148 53h134l9 41c2 9 3 19 3 30c0 41 -30 65 -87 65c-56 0 -92 -19 -123 -54l-53 65c43 45 95 71 186 71c77 0 175 -29 175 -137c0 -13 -2 -27 -5 -42l-67 -334h-94l10 47c-33 -33 -73 -53 -133 -53z
M195 74c39 0 71 12 94 35c19 19 28 42 35 73l9 45h-112c-65 0 -107 -36 -107 -96c0 -36 24 -57 81 -57z" />
    <glyph glyph-name="b" unicode="b" horiz-adv-x="525" 
d="M266 712l-50 -256c23 28 60 57 127 57c84 0 142 -50 142 -154c0 -21 -4 -58 -13 -105c-17 -92 -37 -163 -84 -210c-35 -35 -83 -50 -132 -50c-55 0 -99 19 -123 64l-11 -58h-95l142 712h97zM311 427c-87 0 -117 -75 -136 -173c-5 -28 -11 -63 -11 -86
c0 -44 14 -88 76 -88c87 0 117 76 135 174c5 28 11 62 11 85c0 44 -14 88 -75 88z" />
    <glyph glyph-name="c" unicode="c" horiz-adv-x="464" 
d="M311 513c72 0 117 -30 148 -73l-73 -63c-23 33 -48 50 -85 50c-32 0 -64 -13 -91 -41c-32 -33 -51 -83 -60 -132c-5 -23 -7 -47 -7 -71c0 -69 38 -103 90 -103c41 0 73 16 106 51l55 -70c-47 -44 -105 -67 -169 -67c-108 0 -179 71 -179 182c0 23 2 51 7 78
c35 188 140 259 258 259z" />
    <glyph glyph-name="d" unicode="d" horiz-adv-x="526" 
d="M541 712l-142 -712h-95l12 54c-40 -47 -86 -60 -133 -60c-108 0 -141 73 -141 149c0 27 2 55 13 110c19 96 41 165 84 208c39 39 83 52 132 52c47 0 93 -15 120 -62l53 261h97zM288 427c-87 0 -118 -76 -136 -174c-5 -28 -11 -62 -11 -86c0 -43 14 -87 76 -87
c87 0 116 75 135 173c5 28 11 63 11 87c0 43 -13 87 -75 87z" />
    <glyph glyph-name="e" unicode="e" horiz-adv-x="517" 
d="M300 513c108 0 173 -73 173 -177c0 -31 -6 -71 -15 -110h-314c-3 -16 -5 -32 -5 -49c0 -59 29 -101 97 -101c55 0 92 20 131 56l54 -64c-52 -49 -117 -74 -194 -74c-94 0 -181 52 -181 177c0 160 78 342 254 342zM295 433c-63 0 -112 -43 -139 -140h220c3 15 4 27 4 43
c0 65 -37 97 -85 97z" />
    <glyph glyph-name="f" unicode="f" horiz-adv-x="312" 
d="M377 712l-17 -82h-40c-37 0 -59 -20 -67 -61l-13 -62h95l-14 -74h-95l-87 -433h-97l87 433h-55l14 74h55l15 71c20 96 79 134 156 134h63z" />
    <glyph glyph-name="g" unicode="g" horiz-adv-x="521" 
d="M268 513c51 0 95 -17 120 -64l12 58h94l-100 -503c-32 -164 -141 -215 -241 -215c-72 0 -122 22 -162 69l68 59c19 -23 44 -46 95 -46c69 0 125 43 144 134l13 64c-29 -35 -66 -57 -126 -57c-84 0 -142 52 -142 149c0 25 4 59 12 102c17 93 37 155 80 198
c39 39 86 52 133 52zM283 427c-81 0 -112 -68 -131 -165c-7 -32 -10 -59 -10 -79c0 -48 16 -85 75 -85c81 0 113 69 132 165c7 32 10 59 10 79c0 57 -25 85 -76 85z" />
    <glyph glyph-name="h" unicode="h" horiz-adv-x="540" 
d="M266 712l-51 -252c33 33 77 53 136 53c69 0 136 -45 136 -142c0 -16 -2 -37 -5 -53l-64 -318h-97l62 311c3 15 5 28 5 40c0 52 -35 76 -76 76c-36 0 -106 -17 -126 -118l-62 -309h-97l142 712h97z" />
    <glyph glyph-name="i" unicode="i" horiz-adv-x="250" 
d="M225 507l-101 -507h-97l101 507h97zM268 708l-18 -88h-103l17 88h104z" />
    <glyph glyph-name="j" unicode="j" horiz-adv-x="250" 
d="M226 507l-116 -577c-18 -88 -70 -138 -155 -138h-64l16 83h39c38 0 61 21 69 64l114 568h97zM268 708l-18 -88h-103l17 88h104z" />
    <glyph glyph-name="k" unicode="k" horiz-adv-x="523" 
d="M266 712l-86 -437l232 232h118l-208 -204l135 -303h-111l-98 242l-93 -88l-31 -154h-97l142 712h97z" />
    <glyph glyph-name="l" unicode="l" horiz-adv-x="298" 
d="M263 712l-112 -558c-2 -11 -4 -24 -4 -33c0 -24 16 -39 50 -39h39l-16 -82h-48c-44 0 -75 11 -96 32c-19 19 -28 41 -28 71c0 17 4 38 7 53l111 556h97z" />
    <glyph glyph-name="m" unicode="m" horiz-adv-x="833" 
d="M639 513c74 0 142 -49 142 -142c0 -17 -3 -38 -6 -53l-64 -318h-97l63 311c3 17 5 30 5 40c0 52 -34 76 -77 76c-34 0 -105 -17 -125 -118l-62 -309h-97l62 311c3 17 5 30 5 40c0 52 -35 76 -76 76c-34 0 -106 -17 -126 -118l-62 -309h-97l101 507h94l-10 -52
c33 36 81 58 141 58c47 0 91 -22 118 -74c39 44 84 74 168 74z" />
    <glyph glyph-name="n" unicode="n" horiz-adv-x="540" 
d="M353 513c68 0 134 -45 134 -142c0 -16 -2 -37 -5 -53l-64 -318h-97l62 311c3 15 5 28 5 40c0 52 -35 76 -76 76c-34 0 -106 -17 -126 -118l-62 -309h-97l101 507h94l-10 -52c33 36 81 58 141 58z" />
    <glyph glyph-name="o" unicode="o" 
d="M297 513c83 0 167 -48 167 -167c0 -31 -5 -69 -9 -92c-22 -110 -50 -163 -93 -203c-41 -38 -92 -57 -151 -57c-83 0 -167 48 -167 167c0 31 5 70 9 93c21 109 50 162 93 202c41 38 91 57 151 57zM288 427c-31 0 -57 -11 -78 -32c-27 -27 -45 -69 -60 -141
c-8 -41 -10 -68 -10 -83c0 -64 36 -91 80 -91c31 0 58 12 78 32c27 27 45 66 60 142c8 41 10 67 10 83c0 64 -35 90 -80 90z" />
    <glyph glyph-name="p" unicode="p" horiz-adv-x="525" 
d="M344 513c108 0 141 -73 141 -149c0 -27 -2 -55 -13 -110c-19 -96 -41 -165 -84 -208c-39 -39 -83 -52 -132 -52c-47 0 -93 15 -120 62l-53 -261h-97l142 712h95l-12 -54c40 47 86 60 133 60zM310 427c-87 0 -116 -75 -135 -173c-5 -28 -11 -63 -11 -87
c0 -43 13 -87 75 -87c87 0 118 76 136 174c5 28 11 62 11 86c0 43 -14 87 -76 87z" />
    <glyph glyph-name="q" unicode="q" horiz-adv-x="525" 
d="M269 513c55 0 99 -19 123 -64l11 58h95l-142 -712h-97l50 256c-23 -28 -60 -57 -127 -57c-84 0 -142 50 -142 154c0 21 4 58 13 105c17 92 37 163 84 210c35 35 83 50 132 50zM285 427c-87 0 -117 -76 -135 -174c-5 -28 -11 -62 -11 -85c0 -44 14 -88 75 -88
c87 0 117 75 136 173c5 28 11 63 11 86c0 44 -14 88 -76 88z" />
    <glyph glyph-name="r" unicode="r" horiz-adv-x="415" 
d="M347 513c48 0 81 -16 108 -48l-81 -72c-11 15 -29 33 -64 33c-60 0 -110 -49 -124 -118l-62 -308h-97l101 507h95l-12 -56c31 39 80 62 136 62z" />
    <glyph glyph-name="s" unicode="s" horiz-adv-x="473" 
d="M282 513c71 0 121 -18 164 -59l-67 -60c-27 26 -62 39 -107 39c-73 0 -107 -41 -107 -81c0 -26 20 -42 60 -48l67 -10c91 -14 123 -56 123 -128c0 -43 -17 -82 -52 -116c-40 -39 -108 -56 -176 -56c-88 0 -147 25 -191 74l70 62c29 -35 66 -53 129 -53
c84 0 123 45 123 82c0 36 -23 48 -59 53l-67 10c-99 16 -124 66 -124 112c0 43 16 89 49 122c38 38 93 57 165 57z" />
    <glyph glyph-name="t" unicode="t" horiz-adv-x="329" 
d="M266 652l-28 -145h92l-15 -74h-92l-56 -279c-2 -11 -5 -24 -5 -33c0 -24 17 -39 50 -39h40l-16 -82h-49c-44 0 -75 11 -96 32c-18 19 -27 41 -27 71c0 17 3 38 6 53l56 277h-57l15 74h57l28 145h97z" />
    <glyph glyph-name="u" unicode="u" horiz-adv-x="540" 
d="M513 507l-101 -507h-94l10 52c-33 -36 -81 -58 -141 -58c-68 0 -134 45 -134 142c0 16 2 37 5 53l64 318h97l-62 -311c-3 -15 -5 -28 -5 -40c0 -52 35 -76 76 -76c34 0 106 17 126 118l62 309h97z" />
    <glyph glyph-name="v" unicode="v" horiz-adv-x="455" 
d="M134 0l-76 507h97l44 -367l186 367h105l-276 -507h-80z" />
    <glyph glyph-name="w" unicode="w" horiz-adv-x="702" 
d="M745 507l-245 -507h-80l-45 356l-184 -356h-82l-50 507h98l24 -360l182 360h74l42 -360l163 360h103z" />
    <glyph glyph-name="x" unicode="x" horiz-adv-x="487" 
d="M499 507l-203 -252l118 -255h-112l-74 179l-136 -179h-120l214 262l-113 245h112l69 -170l127 170h118z" />
    <glyph glyph-name="y" unicode="y" horiz-adv-x="444" 
d="M489 507l-329 -612c-15 -27 -28 -45 -43 -60c-29 -28 -63 -40 -112 -40h-40l18 87h25c41 0 56 17 79 60l42 78l-71 487h97l42 -371l188 371h104z" />
    <glyph glyph-name="z" unicode="z" horiz-adv-x="450" 
d="M454 507l-15 -77l-305 -344h243l-17 -86h-367l16 77l303 344h-228l18 86h352z" />
    <glyph glyph-name="braceleft" unicode="{" horiz-adv-x="389" 
d="M281 -74h-67c-90 0 -115 56 -115 104c0 15 2 30 4 41l34 167c2 10 3 20 3 30c0 28 -13 50 -54 50h-31l18 85h34c20 0 37 8 51 19c14 12 22 33 28 61l32 164c10 49 21 83 52 110c24 20 58 29 104 29h70l-17 -86h-36c-59 0 -69 -19 -80 -75l-34 -169
c-13 -64 -44 -89 -84 -100c32 -16 46 -41 46 -74c0 -8 -1 -20 -3 -31l-32 -161c-3 -15 -5 -27 -5 -39c0 -31 16 -39 55 -39h44z" />
    <glyph glyph-name="bar" unicode="|" horiz-adv-x="321" 
d="M316 786l-172 -860h-96l171 860h97z" />
    <glyph glyph-name="braceright" unicode="}" horiz-adv-x="389" 
d="M149 786h67c90 0 115 -56 115 -104c0 -15 -2 -30 -4 -41l-34 -167c-2 -10 -3 -20 -3 -30c0 -28 13 -50 54 -50h31l-18 -85h-34c-20 0 -37 -8 -51 -19c-14 -12 -22 -33 -28 -61l-32 -164c-10 -49 -21 -83 -52 -110c-24 -20 -58 -29 -104 -29h-70l17 86h36
c59 0 69 19 80 75l34 169c13 64 44 89 84 100c-32 16 -46 41 -46 74c0 8 1 20 3 31l32 161c3 15 5 27 5 39c0 31 -16 39 -55 39h-44z" />
    <glyph glyph-name="asciitilde" unicode="~" horiz-adv-x="544" 
d="M193 353c39 0 64 -9 104 -32c31 -17 50 -23 73 -23c27 0 49 6 92 43l50 -65c-72 -64 -115 -71 -150 -71c-39 0 -63 9 -103 32c-31 17 -50 23 -73 23c-27 0 -50 -6 -93 -43l-50 66c72 64 115 70 150 70z" />
    <glyph glyph-name="uni00A0" unicode="&#xa0;" horiz-adv-x="228" 
 />
    <glyph glyph-name="exclamdown" unicode="&#xa1;" horiz-adv-x="315" 
d="M-8 -205l120 503h76l-79 -503h-117zM114 398l22 109h107l-22 -109h-107z" />
    <glyph glyph-name="cent" unicode="&#xa2;" horiz-adv-x="480" 
d="M393 712l-18 -91c57 -11 92 -37 119 -77l-72 -58c-19 27 -40 41 -72 48l-65 -338c34 4 64 20 91 49l55 -65c-47 -44 -91 -66 -155 -73l-21 -107h-76l22 111c-79 17 -134 89 -134 186c0 144 74 305 232 324l18 91h76zM226 199l65 336c-27 -7 -52 -25 -71 -52
c-39 -52 -56 -120 -56 -181c0 -47 19 -91 62 -103z" />
    <glyph glyph-name="sterling" unicode="&#xa3;" horiz-adv-x="537" 
d="M400 718c79 0 129 -26 165 -71l-74 -64c-23 29 -51 45 -95 45c-64 0 -126 -41 -147 -145l-19 -97h124l-14 -74h-125l-44 -221h291l-18 -91h-394l62 312h-58l14 74h59l21 107c33 169 148 225 252 225z" />
    <glyph glyph-name="currency" unicode="&#xa4;" horiz-adv-x="659" 
d="M527 534l59 -59l-70 -69c30 -39 44 -82 44 -129c0 -46 -14 -89 -44 -128l70 -69l-59 -59l-70 69c-30 -22 -80 -36 -127 -36s-98 14 -128 36l-70 -69l-59 59l70 69c-30 39 -44 82 -44 128c0 47 14 90 44 129l-70 69l59 59l70 -70c30 23 81 36 128 36s97 -13 127 -36z
M330 419c-78 0 -142 -64 -142 -142c0 -77 64 -141 142 -141c77 0 141 64 141 141c0 78 -64 142 -141 142z" />
    <glyph glyph-name="yen" unicode="&#xa5;" horiz-adv-x="515" 
d="M197 185h-143l11 63h145l9 46l-12 41h-124l12 62h93l-94 315h109l85 -319l203 319h114l-211 -315h94l-13 -62h-124l-30 -46l-8 -41h145l-12 -63h-146l-37 -185h-103z" />
    <glyph glyph-name="brokenbar" unicode="&#xa6;" horiz-adv-x="327" 
d="M316 786l-70 -350h-97l70 350h97zM214 276l-70 -350h-96l69 350h97z" />
    <glyph glyph-name="section" unicode="&#xa7;" horiz-adv-x="516" 
d="M490 580c0 -8 0 -17 -1 -22h-89c5 52 -29 76 -72 76c-61 0 -99 -41 -99 -95c0 -37 20 -57 57 -70l60 -21c48 -17 100 -64 100 -145c0 -84 -37 -161 -126 -204c35 -21 62 -56 62 -117c0 -104 -71 -193 -211 -193c-89 0 -156 52 -156 140c0 7 0 16 1 25h92
c-5 -48 21 -79 75 -79c53 0 103 33 103 102c0 33 -18 61 -59 76l-59 22c-50 18 -100 63 -100 144c0 84 40 165 127 205c-39 26 -58 63 -58 114c0 100 78 180 198 180c105 0 155 -67 155 -138zM354 294c0 56 -38 79 -75 79c-29 0 -53 -11 -72 -28c-22 -20 -36 -46 -44 -84
c-2 -12 -3 -20 -3 -32c0 -61 44 -79 75 -79c29 0 53 10 72 27c22 20 36 46 44 84c2 12 3 21 3 33z" />
    <glyph glyph-name="dieresis" unicode="&#xa8;" 
d="M491 705l-21 -105h-88l21 105h88zM286 705l-21 -105h-88l21 105h88z" />
    <glyph glyph-name="copyright" unicode="&#xa9;" horiz-adv-x="850" 
d="M446 -4c-199 0 -361 161 -361 360s162 360 361 360s359 -161 359 -360s-160 -360 -359 -360zM452 160c-100 0 -175 67 -175 196s75 196 175 196c51 0 88 -17 125 -48l-40 -42c-30 26 -52 34 -85 34c-73 0 -112 -50 -112 -140s39 -140 112 -140c33 0 55 8 85 34l40 -42
c-37 -31 -74 -48 -125 -48zM445 57c166 0 295 130 295 299s-129 299 -295 299s-295 -130 -295 -299s129 -299 295 -299z" />
    <glyph glyph-name="ordfeminine" unicode="&#xaa;" horiz-adv-x="429" 
d="M290 716c63 0 139 -24 139 -109c0 -11 -2 -23 -4 -34l-53 -266h-76l8 37c-24 -27 -60 -41 -107 -41c-67 0 -117 36 -117 104c0 36 10 70 37 95c31 29 70 40 117 40h107l6 33c2 13 3 18 3 25c0 33 -23 49 -69 49c-47 0 -74 -14 -98 -41l-43 53c36 36 78 55 150 55z
M330 487h-88c-52 0 -86 -31 -86 -75c0 -30 22 -45 66 -45c31 0 55 9 74 28c13 13 21 34 26 57z" />
    <glyph glyph-name="guillemotleft" unicode="&#xab;" horiz-adv-x="562" 
d="M544 500l-26 -128l-125 -108l83 -109l-22 -113l-175 230zM304 500l-26 -128l-125 -108l83 -109l-22 -113l-175 230z" />
    <glyph glyph-name="logicalnot" unicode="&#xac;" horiz-adv-x="506" 
d="M477 333l-47 -234h-90l29 145h-324l18 89h414z" />
    <glyph glyph-name="uni00AD" unicode="&#xad;" horiz-adv-x="406" 
d="M356 323l-18 -91h-277l17 91h278z" />
    <glyph glyph-name="registered" unicode="&#xae;" horiz-adv-x="850" 
d="M446 -4c-199 0 -361 161 -361 360s162 360 361 360s359 -161 359 -360s-160 -360 -359 -360zM445 57c166 0 295 130 295 299s-129 299 -295 299s-295 -130 -295 -299s129 -299 295 -299zM312 163v385h168c74 0 119 -45 119 -113c0 -57 -31 -89 -78 -101l84 -171h-72
l-76 162h-82v-162h-63zM374 373h95c43 0 67 22 67 62c0 39 -24 61 -67 61h-95v-123z" />
    <glyph glyph-name="macron" unicode="&#xaf;" 
d="M488 684l-14 -68h-294l14 68h294z" />
    <glyph glyph-name="degree" unicode="&#xb0;" horiz-adv-x="458" 
d="M288 718c96 0 169 -74 169 -170s-73 -169 -169 -169s-170 73 -170 169s74 170 170 170zM287 641c-51 0 -90 -40 -90 -93s40 -92 91 -92s91 39 91 92c0 52 -40 93 -92 93z" />
    <glyph glyph-name="plusminus" unicode="&#xb1;" horiz-adv-x="506" 
d="M362 572l-34 -171h159l-18 -90h-159l-34 -171h-90l34 171h-159l18 90h159l34 171h90zM427 90l-18 -90h-409l18 90h409z" />
    <glyph glyph-name="twosuperior" unicode="&#xb2;" horiz-adv-x="224" 
d="M61 434l9 47l130 122c17 15 23 27 23 41c0 18 -10 28 -29 28s-34 -10 -41 -37h-56c13 57 52 84 104 84c45 0 78 -31 78 -71c0 -29 -14 -49 -41 -75l-97 -92h110l-10 -47h-180z" />
    <glyph glyph-name="threesuperior" unicode="&#xb3;" horiz-adv-x="226" 
d="M153 431c-51 0 -85 27 -85 69c0 7 0 11 2 19h55c-1 -5 -1 -6 -1 -8c0 -19 11 -29 34 -29c31 0 47 23 47 48c0 19 -9 31 -35 31h-11l8 38h11c27 0 44 19 44 42c0 19 -11 28 -29 28s-35 -14 -42 -35h-56c14 52 50 85 105 85c50 0 78 -33 78 -70c0 -34 -20 -59 -49 -68
c19 -7 30 -26 30 -53c0 -52 -41 -97 -106 -97z" />
    <glyph glyph-name="acute" unicode="&#xb4;" 
d="M491 754l-130 -159h-84l114 159h100z" />
    <glyph glyph-name="mu" unicode="&#xb5;" horiz-adv-x="542" 
d="M-18 -205l142 712h97l-62 -311c-3 -13 -5 -28 -5 -40c0 -52 34 -76 76 -76c35 0 106 17 126 118l62 309h97l-101 -507h-94l10 53c-34 -39 -81 -53 -129 -53c-28 0 -54 7 -77 22l-46 -227h-96z" />
    <glyph glyph-name="paragraph" unicode="&#xb6;" horiz-adv-x="605" 
d="M609 712l-183 -917h-97l165 827h-102l-166 -827h-97l108 540c-77 5 -149 71 -149 171c0 101 73 206 246 206h275z" />
    <glyph glyph-name="periodcentered" unicode="&#xb7;" horiz-adv-x="264" 
d="M207 336l-23 -116h-116l23 116h116z" />
    <glyph glyph-name="cedilla" unicode="&#xb8;" 
d="M64 -206l90 145h82l-77 -145h-95z" />
    <glyph glyph-name="onesuperior" unicode="&#xb9;" horiz-adv-x="227" 
d="M251 716l-56 -282h-57l44 219l-69 -51l13 63l68 51h57z" />
    <glyph glyph-name="ordmasculine" unicode="&#xba;" horiz-adv-x="435" 
d="M299 716c53 0 134 -28 134 -133c0 -25 -4 -54 -8 -73c-15 -76 -36 -126 -74 -162c-33 -30 -73 -45 -120 -45c-54 0 -133 29 -133 134c0 25 3 54 7 73c15 76 36 125 74 161c33 30 73 45 120 45zM292 646c-29 0 -50 -14 -62 -26c-24 -24 -38 -62 -47 -110
c-5 -28 -8 -49 -8 -66c0 -52 30 -71 63 -71c29 0 51 14 63 26c24 24 37 63 46 111c5 28 9 48 9 65c0 52 -31 71 -64 71z" />
    <glyph glyph-name="guillemotright" unicode="&#xbb;" horiz-adv-x="562" 
d="M117 500l175 -230l-265 -228l26 127l125 109l-83 109zM358 500l174 -230l-264 -228l26 127l124 109l-82 109z" />
    <glyph glyph-name="onequarter" unicode="&#xbc;" horiz-adv-x="825" 
d="M708 712l-461 -712h-79l460 712h80zM661 63h-167l11 62l201 302h77l-201 -300h91l18 87h67l-18 -87h42l-12 -64h-42l-13 -63h-67zM219 624l-95 -70l18 90l95 68h73l-84 -427h-74z" />
    <glyph glyph-name="onehalf" unicode="&#xbd;" horiz-adv-x="826" 
d="M708 712l-461 -712h-79l460 712h80zM495 0l14 64l187 186c26 26 36 44 36 70c0 29 -16 46 -46 46s-51 -14 -60 -58h-73c17 83 69 123 139 123c66 0 112 -42 112 -107c0 -47 -26 -83 -64 -120l-141 -139h160l-13 -65h-251zM219 624l-95 -70l18 90l95 68h73l-84 -427h-74z
" />
    <glyph glyph-name="threequarters" unicode="&#xbe;" horiz-adv-x="821" 
d="M704 712l-461 -712h-79l460 712h80zM657 63h-167l11 62l201 302h77l-201 -300h91l18 87h67l-18 -87h42l-12 -64h-42l-13 -63h-67zM239 716c63 0 109 -41 109 -107c0 -41 -19 -83 -68 -106c28 -17 39 -41 39 -80c0 -78 -59 -142 -146 -142c-80 0 -120 46 -120 99
c0 10 1 18 2 25h71c-1 -6 -1 -9 -1 -13c0 -28 15 -46 50 -46c44 0 71 36 71 77c0 36 -18 51 -48 51h-13l13 62h11c44 0 66 36 66 70c0 32 -15 45 -42 45c-29 0 -52 -19 -64 -55h-73c18 80 72 120 143 120z" />
    <glyph glyph-name="questiondown" unicode="&#xbf;" horiz-adv-x="486" 
d="M139 -211c-82 0 -157 57 -157 153c0 65 27 113 71 162l96 108c13 15 24 36 28 55l7 31h97l-8 -38c-8 -39 -20 -65 -51 -100l-95 -105c-29 -32 -48 -62 -48 -105c0 -41 25 -74 74 -74c60 0 101 38 114 99h98c-23 -124 -110 -186 -226 -186zM194 398l21 109h107l-21 -109
h-107z" />
    <glyph glyph-name="Agrave" unicode="&#xc0;" horiz-adv-x="594" 
d="M431 712l106 -712h-105l-18 146h-268l-77 -146h-111l390 712h83zM362 558l-173 -327h216zM388 936l51 -159h-77l-71 159h97z" />
    <glyph glyph-name="Aacute" unicode="&#xc1;" horiz-adv-x="594" 
d="M431 712l106 -712h-105l-18 146h-268l-77 -146h-111l390 712h83zM362 558l-173 -327h216zM564 936l-130 -159h-84l114 159h100z" />
    <glyph glyph-name="Acircumflex" unicode="&#xc2;" horiz-adv-x="594" 
d="M431 712l106 -712h-105l-18 146h-268l-77 -146h-111l390 712h83zM362 558l-173 -327h216zM472 938l91 -162h-77l-62 101l-104 -101h-85l155 162h82z" />
    <glyph glyph-name="Atilde" unicode="&#xc3;" horiz-adv-x="594" 
d="M431 712l106 -712h-105l-18 146h-268l-77 -146h-111l390 712h83zM362 558l-173 -327h216zM352 897c30 0 53 -11 73 -21c19 -10 35 -20 52 -20c23 0 41 11 62 32l38 -49c-36 -35 -65 -50 -104 -50c-28 0 -50 9 -69 19c-21 11 -38 22 -56 22c-23 0 -39 -11 -62 -32l-38 49
c36 35 65 50 104 50z" />
    <glyph glyph-name="Adieresis" unicode="&#xc4;" horiz-adv-x="594" 
d="M431 712l106 -712h-105l-18 146h-268l-77 -146h-111l390 712h83zM362 558l-173 -327h216zM567 887l-21 -105h-88l21 105h88zM361 887l-20 -105h-88l21 105h87z" />
    <glyph glyph-name="Aring" unicode="&#xc5;" horiz-adv-x="594" 
d="M431 712l106 -712h-105l-18 146h-268l-77 -146h-111l390 712h83zM362 558l-173 -327h216zM403 992c68 0 122 -54 122 -122c0 -69 -54 -123 -122 -123s-122 54 -122 123c0 68 54 122 122 122zM403 934c-35 0 -64 -29 -64 -64s29 -64 64 -64s65 29 65 64s-30 64 -65 64z
" />
    <glyph glyph-name="AE" unicode="&#xc6;" horiz-adv-x="914" 
d="M952 712l-18 -90h-329l-43 -218h282l-18 -90h-282l-45 -224h335l-18 -90h-439l33 167h-221l-116 -167h-115l497 712h497zM502 622l-255 -368h181z" />
    <glyph glyph-name="Ccedilla" unicode="&#xc7;" horiz-adv-x="599" 
d="M384 718c142 0 210 -93 211 -215h-103c-1 73 -38 125 -113 125c-49 0 -85 -19 -115 -51c-34 -35 -50 -84 -77 -221c-15 -76 -23 -126 -23 -159c0 -71 53 -113 116 -113c85 0 137 61 159 125h103c-45 -140 -145 -215 -269 -215c-125 0 -212 79 -212 197c0 30 4 76 22 165
c31 150 47 219 107 282c49 53 121 80 194 80zM287 -61l-77 -145h-95l90 145h82z" />
    <glyph glyph-name="Egrave" unicode="&#xc8;" horiz-adv-x="575" 
d="M613 712l-18 -90h-329l-43 -218h282l-18 -90h-282l-45 -224h335l-18 -90h-439l143 712h432zM390 936l51 -159h-77l-71 159h97z" />
    <glyph glyph-name="Eacute" unicode="&#xc9;" horiz-adv-x="575" 
d="M613 712l-18 -90h-329l-43 -218h282l-18 -90h-282l-45 -224h335l-18 -90h-439l143 712h432zM566 936l-130 -159h-84l114 159h100z" />
    <glyph glyph-name="Ecircumflex" unicode="&#xca;" horiz-adv-x="575" 
d="M613 712l-18 -90h-329l-43 -218h282l-18 -90h-282l-45 -224h335l-18 -90h-439l143 712h432zM474 938l91 -162h-77l-62 101l-104 -101h-85l155 162h82z" />
    <glyph glyph-name="Edieresis" unicode="&#xcb;" horiz-adv-x="575" 
d="M613 712l-18 -90h-329l-43 -218h282l-18 -90h-282l-45 -224h335l-18 -90h-439l143 712h432zM569 887l-21 -105h-88l21 105h88zM363 887l-20 -105h-88l21 105h87z" />
    <glyph glyph-name="Igrave" unicode="&#xcc;" horiz-adv-x="281" 
d="M284 712l-143 -712h-103l143 712h103zM236 936l51 -159h-77l-71 159h97z" />
    <glyph glyph-name="Iacute" unicode="&#xcd;" horiz-adv-x="281" 
d="M284 712l-143 -712h-103l143 712h103zM412 936l-130 -159h-84l114 159h100z" />
    <glyph glyph-name="Icircumflex" unicode="&#xce;" horiz-adv-x="281" 
d="M284 712l-143 -712h-103l143 712h103zM320 938l91 -162h-77l-62 101l-104 -101h-85l155 162h82z" />
    <glyph glyph-name="Idieresis" unicode="&#xcf;" horiz-adv-x="281" 
d="M284 712l-143 -712h-103l143 712h103zM415 887l-21 -105h-88l21 105h88zM209 887l-20 -105h-88l21 105h87z" />
    <glyph glyph-name="Eth" unicode="&#xd0;" horiz-adv-x="650" 
d="M199 712h227c108 0 205 -52 205 -196c0 -32 -6 -65 -22 -154c-32 -170 -55 -237 -118 -295c-48 -45 -114 -67 -190 -67h-245l64 320h-70l16 79h70zM408 622h-124l-45 -223h131l-15 -79h-132l-46 -230h123c47 0 89 13 124 45c35 33 55 88 82 227c16 83 22 118 22 146
c0 72 -40 114 -120 114z" />
    <glyph glyph-name="Ntilde" unicode="&#xd1;" horiz-adv-x="688" 
d="M691 712l-143 -712h-90l-214 510l-103 -510h-103l143 712h91l214 -510l102 510h103zM401 897c30 0 53 -11 73 -21c19 -10 35 -20 52 -20c23 0 41 11 62 32l38 -49c-36 -35 -65 -50 -104 -50c-28 0 -50 9 -69 19c-21 11 -38 22 -56 22c-23 0 -39 -11 -62 -32l-38 49
c36 35 65 50 104 50z" />
    <glyph glyph-name="Ograve" unicode="&#xd2;" horiz-adv-x="614" 
d="M592 521c0 -31 -4 -76 -22 -165c-30 -149 -47 -220 -106 -282c-51 -54 -121 -80 -197 -80c-126 0 -206 83 -206 197c0 31 4 76 22 165c30 149 47 220 106 282c51 54 121 80 196 80c127 0 207 -83 207 -197zM489 513c0 76 -52 115 -110 115c-48 0 -85 -18 -116 -51
s-49 -81 -77 -221c-15 -76 -22 -124 -22 -157c0 -76 52 -115 110 -115c48 0 85 18 116 51s49 81 77 221c15 76 22 124 22 157zM400 936l51 -159h-77l-71 159h97z" />
    <glyph glyph-name="Oacute" unicode="&#xd3;" horiz-adv-x="614" 
d="M592 521c0 -31 -4 -76 -22 -165c-30 -149 -47 -220 -106 -282c-51 -54 -121 -80 -197 -80c-126 0 -206 83 -206 197c0 31 4 76 22 165c30 149 47 220 106 282c51 54 121 80 196 80c127 0 207 -83 207 -197zM489 513c0 76 -52 115 -110 115c-48 0 -85 -18 -116 -51
s-49 -81 -77 -221c-15 -76 -22 -124 -22 -157c0 -76 52 -115 110 -115c48 0 85 18 116 51s49 81 77 221c15 76 22 124 22 157zM576 936l-130 -159h-84l114 159h100z" />
    <glyph glyph-name="Ocircumflex" unicode="&#xd4;" horiz-adv-x="614" 
d="M592 521c0 -31 -4 -76 -22 -165c-30 -149 -47 -220 -106 -282c-51 -54 -121 -80 -197 -80c-126 0 -206 83 -206 197c0 31 4 76 22 165c30 149 47 220 106 282c51 54 121 80 196 80c127 0 207 -83 207 -197zM489 513c0 76 -52 115 -110 115c-48 0 -85 -18 -116 -51
s-49 -81 -77 -221c-15 -76 -22 -124 -22 -157c0 -76 52 -115 110 -115c48 0 85 18 116 51s49 81 77 221c15 76 22 124 22 157zM484 938l91 -162h-77l-62 101l-104 -101h-85l155 162h82z" />
    <glyph glyph-name="Otilde" unicode="&#xd5;" horiz-adv-x="614" 
d="M592 521c0 -31 -4 -76 -22 -165c-30 -149 -47 -220 -106 -282c-51 -54 -121 -80 -197 -80c-126 0 -206 83 -206 197c0 31 4 76 22 165c30 149 47 220 106 282c51 54 121 80 196 80c127 0 207 -83 207 -197zM489 513c0 76 -52 115 -110 115c-48 0 -85 -18 -116 -51
s-49 -81 -77 -221c-15 -76 -22 -124 -22 -157c0 -76 52 -115 110 -115c48 0 85 18 116 51s49 81 77 221c15 76 22 124 22 157zM364 897c30 0 53 -11 73 -21c19 -10 35 -20 52 -20c23 0 41 11 62 32l38 -49c-36 -35 -65 -50 -104 -50c-28 0 -50 9 -69 19
c-21 11 -38 22 -56 22c-23 0 -39 -11 -62 -32l-38 49c36 35 65 50 104 50z" />
    <glyph glyph-name="Odieresis" unicode="&#xd6;" horiz-adv-x="614" 
d="M592 521c0 -31 -4 -76 -22 -165c-30 -149 -47 -220 -106 -282c-51 -54 -121 -80 -197 -80c-126 0 -206 83 -206 197c0 31 4 76 22 165c30 149 47 220 106 282c51 54 121 80 196 80c127 0 207 -83 207 -197zM489 513c0 76 -52 115 -110 115c-48 0 -85 -18 -116 -51
s-49 -81 -77 -221c-15 -76 -22 -124 -22 -157c0 -76 52 -115 110 -115c48 0 85 18 116 51s49 81 77 221c15 76 22 124 22 157zM579 887l-21 -105h-88l21 105h88zM373 887l-20 -105h-88l21 105h87z" />
    <glyph glyph-name="multiply" unicode="&#xd7;" horiz-adv-x="506" 
d="M158 488l110 -147l167 145l51 -67l-167 -145l111 -146l-70 -61l-110 148l-167 -146l-51 67l166 145l-110 147z" />
    <glyph glyph-name="Oslash" unicode="&#xd8;" horiz-adv-x="614" 
d="M625 756l-73 -113c25 -33 40 -75 40 -122c0 -31 -4 -76 -22 -165c-30 -149 -47 -220 -106 -282c-51 -54 -121 -80 -197 -80c-44 0 -83 10 -114 28l-44 -66h-79l71 110c-26 34 -40 76 -40 125c0 31 4 76 22 165c30 149 47 220 106 282c51 54 121 80 196 80
c45 0 85 -11 117 -30l43 68h80zM489 513c0 12 -2 24 -4 34l-281 -440c19 -15 44 -23 70 -23c48 0 85 18 116 51s49 81 77 221c15 76 22 124 22 157zM450 603c-19 16 -45 25 -71 25c-48 0 -85 -18 -116 -51s-49 -81 -77 -221c-15 -76 -22 -124 -22 -157c0 -13 1 -25 4 -36z
" />
    <glyph glyph-name="Ugrave" unicode="&#xd9;" horiz-adv-x="643" 
d="M656 712l-95 -473c-33 -165 -146 -245 -281 -245c-108 0 -208 67 -208 198c0 20 4 47 7 62l91 458h103l-93 -466c-3 -12 -5 -32 -5 -48c0 -56 31 -113 112 -113c84 0 152 55 174 166l92 461h103zM415 936l51 -159h-77l-71 159h97z" />
    <glyph glyph-name="Uacute" unicode="&#xda;" horiz-adv-x="643" 
d="M656 712l-95 -473c-33 -165 -146 -245 -281 -245c-108 0 -208 67 -208 198c0 20 4 47 7 62l91 458h103l-93 -466c-3 -12 -5 -32 -5 -48c0 -56 31 -113 112 -113c84 0 152 55 174 166l92 461h103zM591 936l-130 -159h-84l114 159h100z" />
    <glyph glyph-name="Ucircumflex" unicode="&#xdb;" horiz-adv-x="643" 
d="M656 712l-95 -473c-33 -165 -146 -245 -281 -245c-108 0 -208 67 -208 198c0 20 4 47 7 62l91 458h103l-93 -466c-3 -12 -5 -32 -5 -48c0 -56 31 -113 112 -113c84 0 152 55 174 166l92 461h103zM499 938l91 -162h-77l-62 101l-104 -101h-85l155 162h82z" />
    <glyph glyph-name="Udieresis" unicode="&#xdc;" horiz-adv-x="643" 
d="M656 712l-95 -473c-33 -165 -146 -245 -281 -245c-108 0 -208 67 -208 198c0 20 4 47 7 62l91 458h103l-93 -466c-3 -12 -5 -32 -5 -48c0 -56 31 -113 112 -113c84 0 152 55 174 166l92 461h103zM594 887l-21 -105h-88l21 105h88zM388 887l-20 -105h-88l21 105h87z" />
    <glyph glyph-name="Yacute" unicode="&#xdd;" horiz-adv-x="515" 
d="M605 712l-284 -423l-58 -289h-103l59 294l-125 418h109l85 -319l204 319h113zM521 936l-130 -159h-84l114 159h100z" />
    <glyph glyph-name="Thorn" unicode="&#xde;" horiz-adv-x="606" 
d="M284 712l-28 -139h144c125 0 187 -80 187 -180c0 -131 -93 -245 -258 -245h-158l-30 -148h-103l143 712h103zM385 482h-147l-49 -244h144c95 0 150 70 150 147c0 52 -25 97 -98 97z" />
    <glyph glyph-name="germandbls" unicode="&#xdf;" horiz-adv-x="538" 
d="M367 718c100 0 170 -52 170 -149c0 -55 -26 -112 -85 -143c31 -17 42 -44 42 -77c0 -9 -2 -22 -4 -33l-32 -165c-19 -101 -76 -151 -172 -151h-58l16 82h34c23 0 37 6 53 18c15 11 26 34 31 59l32 159c1 5 2 13 2 22c0 35 -23 50 -54 50h-37l15 77h32c57 0 88 50 88 95
c0 19 -4 34 -16 47c-15 15 -35 25 -67 25c-79 0 -115 -48 -129 -117l-104 -517h-98l105 524c28 139 111 194 236 194z" />
    <glyph glyph-name="agrave" unicode="&#xe0;" horiz-adv-x="505" 
d="M167 -6c-84 0 -149 45 -149 129c0 47 15 88 46 119c39 39 89 53 148 53h134l9 41c2 9 3 19 3 30c0 41 -30 65 -87 65c-56 0 -92 -19 -123 -54l-53 65c43 45 95 71 186 71c77 0 175 -29 175 -137c0 -13 -2 -27 -5 -42l-67 -334h-94l10 47c-33 -33 -73 -53 -133 -53z
M195 74c39 0 71 12 94 35c19 19 28 42 35 73l9 45h-112c-65 0 -107 -36 -107 -96c0 -36 24 -57 81 -57zM304 754l51 -159h-77l-71 159h97z" />
    <glyph glyph-name="aacute" unicode="&#xe1;" horiz-adv-x="505" 
d="M167 -6c-84 0 -149 45 -149 129c0 47 15 88 46 119c39 39 89 53 148 53h134l9 41c2 9 3 19 3 30c0 41 -30 65 -87 65c-56 0 -92 -19 -123 -54l-53 65c43 45 95 71 186 71c77 0 175 -29 175 -137c0 -13 -2 -27 -5 -42l-67 -334h-94l10 47c-33 -33 -73 -53 -133 -53z
M195 74c39 0 71 12 94 35c19 19 28 42 35 73l9 45h-112c-65 0 -107 -36 -107 -96c0 -36 24 -57 81 -57zM478 754l-130 -159h-84l114 159h100z" />
    <glyph glyph-name="acircumflex" unicode="&#xe2;" horiz-adv-x="505" 
d="M167 -6c-84 0 -149 45 -149 129c0 47 15 88 46 119c39 39 89 53 148 53h134l9 41c2 9 3 19 3 30c0 41 -30 65 -87 65c-56 0 -92 -19 -123 -54l-53 65c43 45 95 71 186 71c77 0 175 -29 175 -137c0 -13 -2 -27 -5 -42l-67 -334h-94l10 47c-33 -33 -73 -53 -133 -53z
M195 74c39 0 71 12 94 35c19 19 28 42 35 73l9 45h-112c-65 0 -107 -36 -107 -96c0 -36 24 -57 81 -57zM382 756l91 -162h-77l-62 101l-104 -101h-85l155 162h82z" />
    <glyph glyph-name="atilde" unicode="&#xe3;" horiz-adv-x="505" 
d="M167 -6c-84 0 -149 45 -149 129c0 47 15 88 46 119c39 39 89 53 148 53h134l9 41c2 9 3 19 3 30c0 41 -30 65 -87 65c-56 0 -92 -19 -123 -54l-53 65c43 45 95 71 186 71c77 0 175 -29 175 -137c0 -13 -2 -27 -5 -42l-67 -334h-94l10 47c-33 -33 -73 -53 -133 -53z
M195 74c39 0 71 12 94 35c19 19 28 42 35 73l9 45h-112c-65 0 -107 -36 -107 -96c0 -36 24 -57 81 -57zM262 712c34 0 58 -13 80 -25c16 -8 30 -16 45 -16c23 0 41 11 62 32l38 -49c-36 -35 -65 -50 -104 -50c-34 0 -58 13 -80 25c-16 8 -30 16 -45 16
c-23 0 -39 -11 -62 -32l-38 49c36 35 65 50 104 50z" />
    <glyph glyph-name="adieresis" unicode="&#xe4;" horiz-adv-x="505" 
d="M167 -6c-84 0 -149 45 -149 129c0 47 15 88 46 119c39 39 89 53 148 53h134l9 41c2 9 3 19 3 30c0 41 -30 65 -87 65c-56 0 -92 -19 -123 -54l-53 65c43 45 95 71 186 71c77 0 175 -29 175 -137c0 -13 -2 -27 -5 -42l-67 -334h-94l10 47c-33 -33 -73 -53 -133 -53z
M195 74c39 0 71 12 94 35c19 19 28 42 35 73l9 45h-112c-65 0 -107 -36 -107 -96c0 -36 24 -57 81 -57zM478 705l-21 -105h-88l21 105h88zM273 705l-21 -105h-88l21 105h88z" />
    <glyph glyph-name="aring" unicode="&#xe5;" horiz-adv-x="505" 
d="M167 -6c-84 0 -149 45 -149 129c0 47 15 88 46 119c39 39 89 53 148 53h134l9 41c2 9 3 19 3 30c0 41 -30 65 -87 65c-56 0 -92 -19 -123 -54l-53 65c43 45 95 71 186 71c77 0 175 -29 175 -137c0 -13 -2 -27 -5 -42l-67 -334h-94l10 47c-33 -33 -73 -53 -133 -53z
M195 74c39 0 71 12 94 35c19 19 28 42 35 73l9 45h-112c-65 0 -107 -36 -107 -96c0 -36 24 -57 81 -57zM329 820c67 0 123 -54 123 -122c0 -69 -56 -123 -123 -123c-68 0 -122 54 -122 123c0 68 54 122 122 122zM329 762c-35 0 -64 -29 -64 -64s29 -64 64 -64s65 29 65 64
s-30 64 -65 64z" />
    <glyph glyph-name="ae" unicode="&#xe6;" horiz-adv-x="800" 
d="M582 513c108 0 174 -72 174 -177c0 -31 -6 -71 -14 -110h-315c-3 -17 -5 -32 -5 -49c0 -59 29 -101 97 -101c55 0 92 20 131 56l54 -64c-52 -49 -118 -74 -195 -74c-64 0 -123 26 -154 79c-44 -56 -99 -79 -175 -79c-96 0 -162 40 -162 129c0 45 13 87 44 118
c39 39 89 54 149 54h135l8 40c2 9 4 20 4 31c0 43 -29 65 -88 65c-56 0 -92 -19 -123 -54l-52 65c43 47 95 71 186 71c53 0 115 -14 147 -67c39 41 90 67 154 67zM332 227h-111c-67 0 -107 -36 -107 -96c0 -36 22 -57 81 -57c39 0 70 12 93 35c18 18 30 42 36 73zM578 433
c-64 0 -112 -43 -139 -140h220c3 11 4 26 4 43c0 65 -38 97 -85 97z" />
    <glyph glyph-name="ccedilla" unicode="&#xe7;" horiz-adv-x="464" 
d="M311 513c72 0 117 -30 148 -73l-73 -63c-23 33 -48 50 -85 50c-32 0 -64 -13 -91 -41c-32 -33 -51 -83 -60 -132c-5 -23 -7 -47 -7 -71c0 -69 38 -103 90 -103c41 0 73 16 106 51l55 -70c-47 -44 -105 -67 -169 -67c-108 0 -179 71 -179 182c0 23 2 51 7 78
c35 188 140 259 258 259zM64 -206l90 145h82l-77 -145h-95z" />
    <glyph glyph-name="egrave" unicode="&#xe8;" horiz-adv-x="517" 
d="M300 513c108 0 173 -73 173 -177c0 -31 -6 -71 -15 -110h-314c-3 -16 -5 -32 -5 -49c0 -59 29 -101 97 -101c55 0 92 20 131 56l54 -64c-52 -49 -117 -74 -194 -74c-94 0 -181 52 -181 177c0 160 78 342 254 342zM295 433c-63 0 -112 -43 -139 -140h220c3 15 4 27 4 43
c0 65 -37 97 -85 97zM317 754l51 -159h-77l-71 159h97z" />
    <glyph glyph-name="eacute" unicode="&#xe9;" horiz-adv-x="517" 
d="M300 513c108 0 173 -73 173 -177c0 -31 -6 -71 -15 -110h-314c-3 -16 -5 -32 -5 -49c0 -59 29 -101 97 -101c55 0 92 20 131 56l54 -64c-52 -49 -117 -74 -194 -74c-94 0 -181 52 -181 177c0 160 78 342 254 342zM295 433c-63 0 -112 -43 -139 -140h220c3 15 4 27 4 43
c0 65 -37 97 -85 97zM491 754l-130 -159h-84l114 159h100z" />
    <glyph glyph-name="ecircumflex" unicode="&#xea;" horiz-adv-x="517" 
d="M300 513c108 0 173 -73 173 -177c0 -31 -6 -71 -15 -110h-314c-3 -16 -5 -32 -5 -49c0 -59 29 -101 97 -101c55 0 92 20 131 56l54 -64c-52 -49 -117 -74 -194 -74c-94 0 -181 52 -181 177c0 160 78 342 254 342zM295 433c-63 0 -112 -43 -139 -140h220c3 15 4 27 4 43
c0 65 -37 97 -85 97zM395 756l91 -162h-77l-62 101l-104 -101h-85l155 162h82z" />
    <glyph glyph-name="edieresis" unicode="&#xeb;" horiz-adv-x="517" 
d="M300 513c108 0 173 -73 173 -177c0 -31 -6 -71 -15 -110h-314c-3 -16 -5 -32 -5 -49c0 -59 29 -101 97 -101c55 0 92 20 131 56l54 -64c-52 -49 -117 -74 -194 -74c-94 0 -181 52 -181 177c0 160 78 342 254 342zM295 433c-63 0 -112 -43 -139 -140h220c3 15 4 27 4 43
c0 65 -37 97 -85 97zM491 705l-21 -105h-88l21 105h88zM286 705l-21 -105h-88l21 105h88z" />
    <glyph glyph-name="igrave" unicode="&#xec;" horiz-adv-x="250" 
d="M225 507l-101 -507h-97l101 507h97zM183 754l51 -159h-77l-71 159h97z" />
    <glyph glyph-name="iacute" unicode="&#xed;" horiz-adv-x="250" 
d="M225 507l-101 -507h-97l101 507h97zM357 754l-130 -159h-84l114 159h100z" />
    <glyph glyph-name="icircumflex" unicode="&#xee;" horiz-adv-x="250" 
d="M225 507l-101 -507h-97l101 507h97zM261 756l91 -162h-77l-62 101l-104 -101h-85l155 162h82z" />
    <glyph glyph-name="idieresis" unicode="&#xef;" horiz-adv-x="250" 
d="M225 507l-101 -507h-97l101 507h97zM357 705l-21 -105h-88l21 105h88zM152 705l-21 -105h-88l21 105h88z" />
    <glyph glyph-name="eth" unicode="&#xf0;" 
d="M358 717l24 -72h82l-13 -69h-50l32 -94c23 -68 27 -106 27 -144c0 -26 -4 -61 -9 -89c-17 -86 -43 -156 -93 -201c-40 -36 -91 -54 -147 -54c-72 0 -165 38 -165 167c0 23 4 59 10 88c21 105 48 159 91 200c32 29 79 51 129 51c23 0 42 -4 59 -10l-31 86h-112l13 69h79
l-25 72h99zM287 419c-29 0 -57 -13 -75 -31c-28 -27 -45 -69 -59 -139c-6 -31 -10 -61 -10 -84c0 -67 41 -85 76 -85c30 0 57 12 76 31c28 26 45 68 59 138c6 31 10 61 10 85c0 66 -41 85 -77 85z" />
    <glyph glyph-name="ntilde" unicode="&#xf1;" horiz-adv-x="540" 
d="M353 513c68 0 134 -45 134 -142c0 -16 -2 -37 -5 -53l-64 -318h-97l62 311c3 15 5 28 5 40c0 52 -35 76 -76 76c-34 0 -106 -17 -126 -118l-62 -309h-97l101 507h94l-10 -52c33 36 81 58 141 58zM292 712c34 0 58 -13 80 -25c16 -8 30 -16 45 -16c23 0 41 11 62 32
l38 -49c-36 -35 -65 -50 -104 -50c-34 0 -58 13 -80 25c-16 8 -30 16 -45 16c-23 0 -39 -11 -62 -32l-38 49c36 35 65 50 104 50z" />
    <glyph glyph-name="ograve" unicode="&#xf2;" 
d="M297 513c83 0 167 -48 167 -167c0 -31 -5 -69 -9 -92c-22 -110 -50 -163 -93 -203c-41 -38 -92 -57 -151 -57c-83 0 -167 48 -167 167c0 31 5 70 9 93c21 109 50 162 93 202c41 38 91 57 151 57zM288 427c-31 0 -57 -11 -78 -32c-27 -27 -45 -69 -60 -141
c-8 -41 -10 -68 -10 -83c0 -64 36 -91 80 -91c31 0 58 12 78 32c27 27 45 66 60 142c8 41 10 67 10 83c0 64 -35 90 -80 90zM317 754l51 -159h-77l-71 159h97z" />
    <glyph glyph-name="oacute" unicode="&#xf3;" 
d="M297 513c83 0 167 -48 167 -167c0 -31 -5 -69 -9 -92c-22 -110 -50 -163 -93 -203c-41 -38 -92 -57 -151 -57c-83 0 -167 48 -167 167c0 31 5 70 9 93c21 109 50 162 93 202c41 38 91 57 151 57zM288 427c-31 0 -57 -11 -78 -32c-27 -27 -45 -69 -60 -141
c-8 -41 -10 -68 -10 -83c0 -64 36 -91 80 -91c31 0 58 12 78 32c27 27 45 66 60 142c8 41 10 67 10 83c0 64 -35 90 -80 90zM491 754l-130 -159h-84l114 159h100z" />
    <glyph glyph-name="ocircumflex" unicode="&#xf4;" 
d="M297 513c83 0 167 -48 167 -167c0 -31 -5 -69 -9 -92c-22 -110 -50 -163 -93 -203c-41 -38 -92 -57 -151 -57c-83 0 -167 48 -167 167c0 31 5 70 9 93c21 109 50 162 93 202c41 38 91 57 151 57zM288 427c-31 0 -57 -11 -78 -32c-27 -27 -45 -69 -60 -141
c-8 -41 -10 -68 -10 -83c0 -64 36 -91 80 -91c31 0 58 12 78 32c27 27 45 66 60 142c8 41 10 67 10 83c0 64 -35 90 -80 90zM395 756l91 -162h-77l-62 101l-104 -101h-85l155 162h82z" />
    <glyph glyph-name="otilde" unicode="&#xf5;" 
d="M297 513c83 0 167 -48 167 -167c0 -31 -5 -69 -9 -92c-22 -110 -50 -163 -93 -203c-41 -38 -92 -57 -151 -57c-83 0 -167 48 -167 167c0 31 5 70 9 93c21 109 50 162 93 202c41 38 91 57 151 57zM288 427c-31 0 -57 -11 -78 -32c-27 -27 -45 -69 -60 -141
c-8 -41 -10 -68 -10 -83c0 -64 36 -91 80 -91c31 0 58 12 78 32c27 27 45 66 60 142c8 41 10 67 10 83c0 64 -35 90 -80 90zM275 712c34 0 58 -13 80 -25c16 -8 30 -16 45 -16c23 0 41 11 62 32l38 -49c-36 -35 -65 -50 -104 -50c-34 0 -58 13 -80 25c-16 8 -30 16 -45 16
c-23 0 -39 -11 -62 -32l-38 49c36 35 65 50 104 50z" />
    <glyph glyph-name="odieresis" unicode="&#xf6;" 
d="M297 513c83 0 167 -48 167 -167c0 -31 -5 -69 -9 -92c-22 -110 -50 -163 -93 -203c-41 -38 -92 -57 -151 -57c-83 0 -167 48 -167 167c0 31 5 70 9 93c21 109 50 162 93 202c41 38 91 57 151 57zM288 427c-31 0 -57 -11 -78 -32c-27 -27 -45 -69 -60 -141
c-8 -41 -10 -68 -10 -83c0 -64 36 -91 80 -91c31 0 58 12 78 32c27 27 45 66 60 142c8 41 10 67 10 83c0 64 -35 90 -80 90zM491 705l-21 -105h-88l21 105h88zM286 705l-21 -105h-88l21 105h88z" />
    <glyph glyph-name="divide" unicode="&#xf7;" horiz-adv-x="506" 
d="M475 323l-18 -90h-414l18 90h414zM286 146l-20 -103h-104l21 103h103zM355 513l-20 -103h-104l21 103h103z" />
    <glyph glyph-name="oslash" unicode="&#xf8;" 
d="M511 551l-76 -103c18 -26 29 -59 29 -102c0 -31 -5 -69 -9 -92c-22 -110 -50 -163 -93 -203c-41 -38 -92 -57 -151 -57c-35 0 -70 8 -99 27l-48 -65h-66l76 102c-19 25 -30 59 -30 103c0 31 5 70 9 93c21 109 50 162 93 202c41 38 91 57 151 57c35 0 71 -9 100 -28l49 66
h65zM366 364l-199 -266c14 -12 33 -18 53 -18c31 0 58 12 78 32c27 27 45 66 60 142c8 41 10 67 10 83c0 10 -1 19 -2 27zM288 427c-31 0 -57 -11 -78 -32c-27 -27 -45 -69 -60 -141c-8 -41 -10 -68 -10 -83c0 -11 1 -21 3 -30l199 267c-14 13 -33 19 -54 19z" />
    <glyph glyph-name="ugrave" unicode="&#xf9;" horiz-adv-x="540" 
d="M513 507l-101 -507h-94l10 52c-33 -36 -81 -58 -141 -58c-68 0 -134 45 -134 142c0 16 2 37 5 53l64 318h97l-62 -311c-3 -15 -5 -28 -5 -40c0 -52 35 -76 76 -76c34 0 106 17 126 118l62 309h97zM328 754l51 -159h-77l-71 159h97z" />
    <glyph glyph-name="uacute" unicode="&#xfa;" horiz-adv-x="540" 
d="M513 507l-101 -507h-94l10 52c-33 -36 -81 -58 -141 -58c-68 0 -134 45 -134 142c0 16 2 37 5 53l64 318h97l-62 -311c-3 -15 -5 -28 -5 -40c0 -52 35 -76 76 -76c34 0 106 17 126 118l62 309h97zM502 754l-130 -159h-84l114 159h100z" />
    <glyph glyph-name="ucircumflex" unicode="&#xfb;" horiz-adv-x="540" 
d="M513 507l-101 -507h-94l10 52c-33 -36 -81 -58 -141 -58c-68 0 -134 45 -134 142c0 16 2 37 5 53l64 318h97l-62 -311c-3 -15 -5 -28 -5 -40c0 -52 35 -76 76 -76c34 0 106 17 126 118l62 309h97zM406 756l91 -162h-77l-62 101l-104 -101h-85l155 162h82z" />
    <glyph glyph-name="udieresis" unicode="&#xfc;" horiz-adv-x="540" 
d="M513 507l-101 -507h-94l10 52c-33 -36 -81 -58 -141 -58c-68 0 -134 45 -134 142c0 16 2 37 5 53l64 318h97l-62 -311c-3 -15 -5 -28 -5 -40c0 -52 35 -76 76 -76c34 0 106 17 126 118l62 309h97zM502 705l-21 -105h-88l21 105h88zM297 705l-21 -105h-88l21 105h88z" />
    <glyph glyph-name="yacute" unicode="&#xfd;" horiz-adv-x="444" 
d="M489 507l-329 -612c-15 -27 -28 -45 -43 -60c-29 -28 -63 -40 -112 -40h-40l18 87h25c41 0 56 17 79 60l42 78l-71 487h97l42 -371l188 371h104zM451 754l-130 -159h-84l114 159h100z" />
    <glyph glyph-name="thorn" unicode="&#xfe;" horiz-adv-x="525" 
d="M266 712l-50 -254c21 24 57 55 129 55c103 0 140 -72 140 -149c0 -21 -1 -50 -13 -110c-20 -100 -41 -166 -84 -209c-39 -39 -84 -51 -131 -51c-52 0 -98 18 -121 61l-53 -260h-97l183 917h97zM310 427c-87 0 -116 -75 -135 -173c-5 -28 -11 -63 -11 -86
c0 -44 13 -88 75 -88c87 0 118 76 136 174c5 28 11 62 11 85c0 44 -14 88 -76 88z" />
    <glyph glyph-name="ydieresis" unicode="&#xff;" horiz-adv-x="444" 
d="M489 507l-329 -612c-15 -27 -28 -45 -43 -60c-29 -28 -63 -40 -112 -40h-40l18 87h25c41 0 56 17 79 60l42 78l-71 487h97l42 -371l188 371h104zM451 705l-21 -105h-88l21 105h88zM246 705l-21 -105h-88l21 105h88z" />
    <glyph glyph-name="dotlessi" unicode="&#x131;" horiz-adv-x="250" 
d="M225 507l-101 -507h-97l101 507h97z" />
    <glyph glyph-name="IJ" unicode="&#x132;" horiz-adv-x="762" 
d="M284 712l-143 -712h-103l143 712h103zM773 712l-98 -493c-34 -169 -148 -225 -251 -225c-80 0 -130 26 -166 71l74 64c24 -29 51 -45 95 -45c63 0 126 41 147 145l96 483h103z" />
    <glyph glyph-name="ij" unicode="&#x133;" horiz-adv-x="500" 
d="M225 507l-101 -507h-97l101 507h97zM268 708l-18 -88h-103l17 88h104zM477 507l-116 -577c-18 -88 -70 -138 -155 -138h-64l16 83h39c38 0 61 21 69 64l114 568h97zM519 708l-18 -88h-103l17 88h104z" />
    <glyph glyph-name="Lslash" unicode="&#x141;" horiz-adv-x="562" 
d="M297 712l-57 -287l152 89l-19 -92l-152 -89l-48 -243h328l-17 -90h-432l53 267l-73 -43l18 92l74 43l70 353h103z" />
    <glyph glyph-name="lslash" unicode="&#x142;" horiz-adv-x="310" 
d="M275 712l-49 -244l77 43l-18 -88l-77 -43l-45 -226c-2 -11 -4 -24 -4 -33c0 -24 16 -39 50 -39h39l-16 -82h-48c-44 0 -75 11 -96 32c-19 19 -28 41 -28 71c0 17 4 38 7 53l33 164l-61 -34l17 88l61 34l61 304h97z" />
    <glyph glyph-name="OE" unicode="&#x152;" horiz-adv-x="934" 
d="M385 718c68 0 119 -29 144 -73l13 67h430l-18 -90h-330l-42 -218h282l-18 -90h-282l-45 -224h335l-18 -90h-432l12 57c-33 -39 -85 -63 -153 -63c-122 0 -202 82 -202 197c0 31 4 76 22 165c30 149 48 221 106 282c51 55 120 80 196 80zM379 628c-48 0 -85 -18 -116 -51
c-31 -31 -50 -83 -77 -221c-15 -76 -22 -124 -22 -157c0 -76 51 -115 110 -115c48 0 84 18 116 51c32 34 49 81 78 221c15 76 21 124 21 157c0 76 -51 115 -110 115z" />
    <glyph glyph-name="oe" unicode="&#x153;" horiz-adv-x="821" 
d="M603 513c108 0 173 -73 173 -177c0 -31 -6 -71 -14 -110h-315c-3 -19 -5 -32 -5 -49c0 -59 30 -101 98 -101c55 0 92 20 131 56l53 -64c-52 -49 -116 -74 -193 -74c-59 0 -119 20 -151 84c-41 -56 -101 -84 -169 -84c-83 0 -168 48 -168 167c0 31 6 70 10 93
c21 107 50 162 93 202c40 38 90 57 150 57s114 -26 141 -83c45 61 105 83 166 83zM288 427c-31 0 -57 -11 -78 -32c-27 -27 -45 -69 -60 -141c-8 -41 -10 -68 -10 -83c0 -64 36 -91 80 -91c31 0 58 12 78 32c27 27 45 66 60 142c8 41 10 67 10 83c0 64 -35 90 -80 90z
M598 433c-63 0 -112 -43 -139 -140h220c3 15 4 27 4 43c0 65 -37 97 -85 97z" />
    <glyph glyph-name="Scaron" unicode="&#x160;" horiz-adv-x="561" 
d="M369 718c80 0 147 -24 195 -84l-72 -63c-32 39 -71 58 -135 58c-96 0 -153 -67 -153 -133c0 -51 40 -72 89 -84l62 -15c113 -27 158 -79 158 -179c0 -149 -128 -224 -276 -224c-106 0 -172 29 -231 98l76 66c40 -51 91 -73 164 -73c92 0 164 53 164 126
c0 62 -37 81 -88 94l-63 15c-95 23 -158 77 -158 165c0 117 90 233 268 233zM587 938l-155 -162h-82l-91 162h77l62 -100l104 100h85z" />
    <glyph glyph-name="scaron" unicode="&#x161;" horiz-adv-x="473" 
d="M282 513c71 0 121 -18 164 -59l-67 -60c-27 26 -62 39 -107 39c-73 0 -107 -41 -107 -81c0 -26 20 -42 60 -48l67 -10c91 -14 123 -56 123 -128c0 -43 -17 -82 -52 -116c-40 -39 -108 -56 -176 -56c-88 0 -147 25 -191 74l70 62c29 -35 66 -53 129 -53
c84 0 123 45 123 82c0 36 -23 48 -59 53l-67 10c-99 16 -124 66 -124 112c0 43 16 89 49 122c38 38 93 57 165 57zM497 756l-155 -162h-82l-91 162h77l62 -100l104 100h85z" />
    <glyph glyph-name="Ydieresis" unicode="&#x178;" horiz-adv-x="515" 
d="M605 712l-284 -423l-58 -289h-103l59 294l-125 418h109l85 -319l204 319h113zM524 887l-21 -105h-88l21 105h88zM318 887l-20 -105h-88l21 105h87z" />
    <glyph glyph-name="Zcaron" unicode="&#x17d;" horiz-adv-x="532" 
d="M570 712l-17 -82l-416 -539h315l-18 -91h-437l16 82l414 539h-299l18 91h424zM572 938l-155 -162h-82l-91 162h77l62 -100l104 100h85z" />
    <glyph glyph-name="zcaron" unicode="&#x17e;" horiz-adv-x="450" 
d="M454 507l-15 -77l-305 -344h243l-17 -86h-367l16 77l303 344h-228l18 86h352zM487 756l-155 -162h-82l-91 162h77l62 -100l104 100h85z" />
    <glyph glyph-name="longs" unicode="&#x17f;" horiz-adv-x="250" 
d="M363 717l-17 -82h-40c-37 0 -59 -20 -67 -61l-115 -574h-97l117 583c19 96 79 134 156 134h63z" />
    <glyph glyph-name="florin" unicode="&#x192;" horiz-adv-x="394" 
d="M459 716l-17 -81h-53c-39 0 -63 -21 -78 -60l-67 -184h91l-14 -74h-104l-191 -522h-97l192 522h-58l15 74h70l68 185c34 94 84 140 185 140h58z" />
    <glyph glyph-name="uni02BB" unicode="&#x2bb;" horiz-adv-x="252" 
d="M289 803l-40 -203h-107l22 112z" />
    <glyph glyph-name="uni02BC" unicode="&#x2bc;" horiz-adv-x="252" 
d="M271 712l-22 -113l-125 -90l40 203h107z" />
    <glyph glyph-name="uni02C0" unicode="&#x2c0;" 
d="M288 577l11 53h2c33 0 53 22 53 50c0 22 -16 36 -38 38l11 53c50 -2 91 -36 91 -84c0 -72 -59 -110 -125 -110h-5z" />
    <glyph glyph-name="circumflex" unicode="&#x2c6;" 
d="M395 756l91 -162h-77l-62 101l-104 -101h-85l155 162h82z" />
    <glyph glyph-name="caron" unicode="&#x2c7;" 
d="M519 756l-155 -162h-82l-91 162h77l62 -100l104 100h85z" />
    <glyph glyph-name="breve" unicode="&#x2d8;" 
d="M421 720h70c-21 -96 -74 -134 -161 -134c-83 0 -129 40 -129 107c0 17 1 18 2 27h69c-1 -5 -1 -8 -1 -17c0 -32 27 -48 66 -48c45 0 73 18 84 65z" />
    <glyph glyph-name="dotaccent" unicode="&#x2d9;" 
d="M388 705l-21 -105h-88l21 105h88z" />
    <glyph glyph-name="ring" unicode="&#x2da;" 
d="M342 820c67 0 123 -54 123 -122c0 -69 -56 -123 -123 -123c-68 0 -122 54 -122 123c0 68 54 122 122 122zM342 762c-35 0 -64 -29 -64 -64s29 -64 64 -64s65 29 65 64s-30 64 -65 64z" />
    <glyph glyph-name="ogonek" unicode="&#x2db;" 
d="M236 -61l-77 -145h-95l90 145h82z" />
    <glyph glyph-name="tilde" unicode="&#x2dc;" 
d="M275 712c34 0 58 -13 80 -25c16 -8 30 -16 45 -16c23 0 41 11 62 32l38 -49c-36 -35 -65 -50 -104 -50c-34 0 -58 13 -80 25c-16 8 -30 16 -45 16c-23 0 -39 -11 -62 -32l-38 49c36 35 65 50 104 50z" />
    <glyph glyph-name="hungarumlaut" unicode="&#x2dd;" 
d="M292 754h100l-130 -159h-84zM488 754h100l-130 -159h-84z" />
    <glyph glyph-name="gravecomb" unicode="&#x300;" horiz-adv-x="1" 
d="M24 754l51 -159h-77l-71 159h97z" />
    <glyph glyph-name="acutecomb" unicode="&#x301;" horiz-adv-x="1" 
d="M108 754l-130 -159h-84l114 159h100z" />
    <glyph glyph-name="uni0302" unicode="&#x302;" horiz-adv-x="1" 
d="M74 756l91 -162h-77l-62 101l-104 -101h-85l155 162h82z" />
    <glyph glyph-name="tildecomb" unicode="&#x303;" horiz-adv-x="1" 
d="M-60 712c34 0 58 -13 80 -25c16 -8 30 -16 45 -16c23 0 41 11 62 32l38 -49c-36 -35 -65 -50 -104 -50c-34 0 -58 13 -80 25c-16 8 -30 16 -45 16c-23 0 -39 -11 -62 -32l-38 49c36 35 65 50 104 50z" />
    <glyph glyph-name="uni0304" unicode="&#x304;" horiz-adv-x="1" 
d="M155 684l-14 -68h-294l14 68h294z" />
    <glyph glyph-name="uni0306" unicode="&#x306;" horiz-adv-x="1" 
d="M76 720h70c-21 -96 -74 -134 -161 -134c-83 0 -129 40 -129 107c0 17 1 18 2 27h69c-1 -5 -1 -8 -1 -17c0 -32 27 -48 66 -48c45 0 73 18 84 65z" />
    <glyph glyph-name="uni0307" unicode="&#x307;" horiz-adv-x="1" 
d="M55 705l-21 -105h-88l21 105h88z" />
    <glyph glyph-name="uni0308" unicode="&#x308;" horiz-adv-x="1" 
d="M158 705l-21 -105h-88l21 105h88zM-47 705l-21 -105h-88l21 105h88z" />
    <glyph glyph-name="hookabovecomb" unicode="&#x309;" horiz-adv-x="1" 
d="M-64 577l11 53h2c33 0 53 22 53 50c0 22 -16 36 -38 38l11 53c50 -2 91 -36 91 -84c0 -72 -59 -110 -125 -110h-5z" />
    <glyph glyph-name="uni030A" unicode="&#x30a;" horiz-adv-x="1" 
d="M0 820c67 0 123 -54 123 -122c0 -69 -56 -123 -123 -123c-68 0 -122 54 -122 123c0 68 54 122 122 122zM0 762c-35 0 -64 -29 -64 -64s29 -64 64 -64s65 29 65 64s-30 64 -65 64z" />
    <glyph glyph-name="uni030B" unicode="&#x30b;" horiz-adv-x="1" 
d="M-90 754h100l-130 -159h-84zM106 754h100l-130 -159h-84z" />
    <glyph glyph-name="uni030C" unicode="&#x30c;" horiz-adv-x="1" 
d="M165 756l-155 -162h-82l-91 162h77l62 -100l104 100h85z" />
    <glyph glyph-name="uni030F" unicode="&#x30f;" horiz-adv-x="1" 
d="M118 754l51 -159h-77l-71 159h97zM-71 754l51 -159h-77l-71 159h97z" />
    <glyph glyph-name="uni0310" unicode="&#x310;" horiz-adv-x="1" 
d="M-15 586c-83 0 -129 40 -129 107c0 17 1 18 2 27h69c-1 -5 -1 -8 -1 -17c0 -32 27 -48 66 -48c45 0 73 18 84 65h70c-21 -96 -74 -134 -161 -134zM-34 769l21 105h88l-21 -105h-88z" />
    <glyph glyph-name="uni0311" unicode="&#x311;" horiz-adv-x="1" 
d="M17 729c83 0 129 -40 129 -107c0 -17 -1 -18 -2 -27h-69c1 5 1 8 1 17c0 32 -27 48 -66 48c-45 0 -73 -18 -84 -65h-70c21 96 74 134 161 134z" />
    <glyph glyph-name="uni0312" unicode="&#x312;" horiz-adv-x="1" 
d="M108 754l-130 -159h-84l114 159h100z" />
    <glyph glyph-name="uni0313" unicode="&#x313;" horiz-adv-x="1" 
d="M81 730l-86 -159h-75l68 159h93z" />
    <glyph glyph-name="uni0316" unicode="&#x316;" horiz-adv-x="1" 
d="M24 -62l51 -159h-77l-71 159h97z" />
    <glyph glyph-name="uni0317" unicode="&#x317;" horiz-adv-x="1" 
d="M108 -62l-130 -159h-84l114 159h100z" />
    <glyph glyph-name="uni031B" unicode="&#x31b;" horiz-adv-x="1" 
d="M93 539l-13 -67c-18 -87 -42 -110 -134 -110h-37l12 59h35c31 0 49 14 59 66l11 52h67z" />
    <glyph glyph-name="uni031C" unicode="&#x31c;" horiz-adv-x="1" 
d="M38 -175l-11 -53c-50 2 -91 36 -91 84c0 72 59 110 125 110h5l-11 -53h-2c-33 0 -53 -22 -53 -50c0 -22 16 -36 38 -38z" />
    <glyph glyph-name="dotbelowcomb" unicode="&#x323;" horiz-adv-x="1" 
d="M55 -77l-21 -105h-88l21 105h88z" />
    <glyph glyph-name="uni0324" unicode="&#x324;" horiz-adv-x="1" 
d="M158 -74l-21 -105h-88l21 105h88zM-47 -74l-21 -105h-88l21 105h88z" />
    <glyph glyph-name="uni0325" unicode="&#x325;" horiz-adv-x="1" 
d="M0 -38c67 0 123 -54 123 -122c0 -69 -56 -123 -123 -123c-68 0 -122 54 -122 123c0 68 54 122 122 122zM0 -96c-35 0 -64 -29 -64 -64s29 -64 64 -64s65 29 65 64s-30 64 -65 64z" />
    <glyph glyph-name="uni0326" unicode="&#x326;" horiz-adv-x="1" 
d="M87 -61l-77 -145h-95l90 145h82z" />
    <glyph glyph-name="uni0327" unicode="&#x327;" horiz-adv-x="1" 
d="M-85 -206l90 145h82l-77 -145h-95z" />
    <glyph glyph-name="uni0328" unicode="&#x328;" horiz-adv-x="1" 
d="M87 -61l-77 -145h-95l90 145h82z" />
    <glyph glyph-name="uni032C" unicode="&#x32c;" horiz-adv-x="1" 
d="M165 -66l-155 -162h-82l-91 162h77l62 -100l104 100h85z" />
    <glyph glyph-name="uni032D" unicode="&#x32d;" horiz-adv-x="1" 
d="M74 -61l91 -162h-77l-62 100l-104 -100h-85l155 162h82z" />
    <glyph glyph-name="uni032E" unicode="&#x32e;" horiz-adv-x="1" 
d="M76 -66h70c-21 -96 -74 -134 -161 -134c-83 0 -129 40 -129 107c0 12 1 18 2 27h69c-1 -5 -1 -8 -1 -17c0 -32 27 -48 66 -48c45 0 73 18 84 65z" />
    <glyph glyph-name="uni032F" unicode="&#x32f;" horiz-adv-x="1" 
d="M17 -57c83 0 129 -40 129 -107c0 -17 -1 -18 -2 -27h-69c1 5 1 8 1 17c0 32 -27 48 -66 48c-45 0 -73 -18 -84 -65h-70c21 96 74 134 161 134z" />
    <glyph glyph-name="uni0330" unicode="&#x330;" horiz-adv-x="1" 
d="M-60 -71c34 0 58 -13 80 -25c16 -8 30 -16 45 -16c23 0 41 11 62 32l38 -49c-36 -35 -65 -50 -104 -50c-34 0 -58 13 -80 25c-16 8 -30 16 -45 16c-23 0 -39 -11 -62 -32l-38 49c36 35 65 50 104 50z" />
    <glyph glyph-name="uni0331" unicode="&#x331;" horiz-adv-x="1" 
d="M155 -86l-14 -68h-294l14 68h294z" />
    <glyph glyph-name="uni0340" unicode="&#x340;" horiz-adv-x="1" 
d="M15 829l70 -160h-77l-91 160h98z" />
    <glyph glyph-name="uni0341" unicode="&#x341;" horiz-adv-x="1" 
d="M108 829l-130 -159h-84l114 159h100z" />
    <glyph glyph-name="uni037E" unicode="&#x37e;" horiz-adv-x="288" 
d="M185 116l-35 -176l-129 -95l54 271h110zM244 407l-24 -121h-116l25 121h115z" />
    <glyph glyph-name="uni0394" unicode="&#x394;" horiz-adv-x="593" 
d="M348 712h82l106 -712h-578zM424 87l-61 472l-253 -472h314z" />
    <glyph glyph-name="uni03A9" unicode="&#x3a9;" horiz-adv-x="614" 
d="M19 0l18 91h80c-36 30 -51 69 -51 127c0 29 3 67 17 138c30 149 48 223 106 283c54 57 125 79 195 79c138 0 209 -90 209 -198c0 -28 -4 -74 -22 -164c-25 -125 -40 -173 -74 -215c-15 -21 -29 -35 -52 -50h79l-19 -91h-200l16 82c25 8 49 22 67 42c33 38 48 77 79 232
c15 76 22 126 22 154c0 72 -44 117 -113 117c-44 0 -81 -17 -112 -49c-32 -34 -48 -76 -77 -222c-20 -101 -25 -142 -25 -166c0 -52 21 -89 66 -108l-16 -82h-193z" />
    <glyph glyph-name="uni03BC" unicode="&#x3bc;" horiz-adv-x="542" 
d="M-18 -205l142 712h97l-62 -311c-3 -13 -5 -28 -5 -40c0 -52 34 -76 76 -76c35 0 106 17 126 118l62 309h97l-101 -507h-94l10 53c-34 -39 -81 -53 -129 -53c-28 0 -54 7 -77 22l-46 -227h-96z" />
    <glyph glyph-name="pi" unicode="&#x3c0;" horiz-adv-x="538" 
d="M511 507l-101 -507h-97l84 421h-190l-83 -421h-97l101 507h383z" />
    <glyph glyph-name="uni2007" unicode="&#x2007;" 
 />
    <glyph glyph-name="uni2008" unicode="&#x2008;" horiz-adv-x="261" 
 />
    <glyph glyph-name="uni200B" unicode="&#x200b;" horiz-adv-x="0" 
 />
    <glyph glyph-name="uniFEFF" unicode="&#xfeff;" horiz-adv-x="0" 
 />
    <glyph glyph-name="endash" unicode="&#x2013;" horiz-adv-x="537" 
d="M487 323l-18 -90h-409l18 90h409z" />
    <glyph glyph-name="emdash" unicode="&#x2014;" horiz-adv-x="925" 
d="M875 323l-18 -90h-797l18 90h797z" />
    <glyph glyph-name="quoteleft" unicode="&#x2018;" horiz-adv-x="252" 
d="M289 803l-40 -203h-107l22 112z" />
    <glyph glyph-name="quoteright" unicode="&#x2019;" horiz-adv-x="252" 
d="M271 712l-22 -113l-125 -90l40 203h107z" />
    <glyph glyph-name="quotesinglbase" unicode="&#x201a;" horiz-adv-x="250" 
d="M148 105l-22 -113l-125 -91l41 204h106z" />
    <glyph glyph-name="quotedblleft" unicode="&#x201c;" horiz-adv-x="433" 
d="M470 803l-40 -203h-107l22 112zM289 803l-40 -203h-107l22 112z" />
    <glyph glyph-name="quotedblright" unicode="&#x201d;" horiz-adv-x="433" 
d="M452 712l-22 -113l-125 -90l40 203h107zM271 712l-22 -113l-125 -90l40 203h107z" />
    <glyph glyph-name="quotedblbase" unicode="&#x201e;" horiz-adv-x="431" 
d="M329 105l-22 -113l-125 -91l41 204h106zM148 105l-22 -113l-125 -91l41 204h106z" />
    <glyph glyph-name="dagger" unicode="&#x2020;" horiz-adv-x="560" 
d="M420 712l-39 -196h171l-17 -85h-171l-86 -431h-96l86 431h-171l18 85h170l39 196h96z" />
    <glyph glyph-name="daggerdbl" unicode="&#x2021;" horiz-adv-x="563" 
d="M421 712l-39 -196h171l-17 -85h-171l-71 -351h173l-17 -86h-173l-40 -199h-96l40 199h-169l17 86h169l70 351h-171l18 85h170l39 196h97z" />
    <glyph glyph-name="bullet" unicode="&#x2022;" horiz-adv-x="487" 
d="M248 430c90 0 154 -64 154 -154s-64 -154 -154 -154s-154 64 -154 154s64 154 154 154z" />
    <glyph glyph-name="ellipsis" unicode="&#x2026;" horiz-adv-x="762" 
d="M661 113l-22 -113h-112l23 113h111zM158 113l-22 -113h-112l23 113h111zM410 113l-23 -113h-111l22 113h112z" />
    <glyph glyph-name="perthousand" unicode="&#x2030;" horiz-adv-x="1145" 
d="M155 0l460 712h80l-461 -712h-79zM215 345c-57 0 -116 29 -116 107c0 11 1 23 4 36l19 95c18 90 69 135 153 135c57 0 116 -30 116 -107c0 -11 -1 -23 -4 -36l-19 -95c-18 -90 -69 -135 -153 -135zM223 409c44 0 65 31 73 71l19 95c2 10 3 19 3 28c0 28 -12 51 -51 51
c-44 0 -65 -31 -73 -71l-19 -95c-2 -10 -3 -19 -3 -28c0 -28 12 -51 51 -51zM574 -6c-57 0 -116 29 -116 107c0 11 1 23 4 36l19 95c18 90 69 135 153 135c57 0 116 -30 116 -107c0 -11 -1 -23 -4 -36l-19 -95c-18 -90 -69 -135 -153 -135zM582 58c44 0 65 31 73 71l19 95
c2 10 3 19 3 28c0 28 -12 51 -51 51c-44 0 -65 -31 -73 -71l-19 -95c-2 -10 -3 -19 -3 -28c0 -28 12 -51 51 -51zM911 -6c-57 0 -116 29 -116 107c0 11 1 23 4 36l19 95c18 90 69 135 153 135c57 0 116 -30 116 -107c0 -11 -1 -23 -4 -36l-19 -95
c-18 -90 -69 -135 -153 -135zM919 58c44 0 65 31 73 71l19 95c2 10 3 19 3 28c0 28 -12 51 -51 51c-44 0 -65 -31 -73 -71l-19 -95c-2 -10 -3 -19 -3 -28c0 -28 12 -51 51 -51z" />
    <glyph glyph-name="minute" unicode="&#x2032;" horiz-adv-x="274" 
d="M313 712l-131 -325h-102l131 325h102z" />
    <glyph glyph-name="second" unicode="&#x2033;" horiz-adv-x="460" 
d="M499 712l-131 -325h-102l131 325h102zM313 712l-131 -325h-102l131 325h102z" />
    <glyph glyph-name="guilsinglleft" unicode="&#x2039;" horiz-adv-x="322" 
d="M304 500l-26 -128l-125 -108l83 -109l-22 -113l-175 230z" />
    <glyph glyph-name="guilsinglright" unicode="&#x203a;" horiz-adv-x="322" 
d="M115 500l175 -230l-265 -228l26 127l125 109l-83 109z" />
    <glyph glyph-name="fraction" unicode="&#x2044;" horiz-adv-x="189" 
d="M386 712l-461 -712h-79l460 712h80z" />
    <glyph glyph-name="uni2070" unicode="&#x2070;" horiz-adv-x="225" 
d="M159 481c21 0 37 13 43 43l22 104c1 5 2 13 2 18c0 15 -11 23 -29 23c-21 0 -38 -13 -44 -43l-22 -104c-1 -5 -2 -13 -2 -18c0 -15 12 -23 30 -23zM152 431c-42 0 -77 28 -77 71c0 6 1 13 2 19l22 107c14 68 57 91 104 91c42 0 77 -28 77 -71c0 -6 -1 -13 -2 -19
l-22 -107c-14 -68 -57 -91 -104 -91z" />
    <glyph glyph-name="uni2071" unicode="&#x2071;" horiz-adv-x="147" 
d="M176 597l-53 -269h-67l53 269h67zM199 712l-12 -60h-67l11 60h68z" />
    <glyph glyph-name="uni2074" unicode="&#x2074;" horiz-adv-x="225" 
d="M183 478h-125l9 46l126 192h56l-125 -191h68l13 61h47l-12 -63h26l-9 -45h-26l-9 -44h-47z" />
    <glyph glyph-name="uni2075" unicode="&#x2075;" horiz-adv-x="218" 
d="M150 431c-43 0 -74 25 -74 64v7h48c0 -15 13 -25 28 -25c31 0 43 17 49 46c1 6 2 14 2 21c0 20 -8 34 -30 34c-17 0 -32 -10 -38 -27h-46l33 165h159l-9 -42h-111l-14 -70c9 8 23 15 42 15c43 0 66 -30 66 -69c0 -10 -2 -21 -3 -28c-6 -31 -14 -47 -30 -64
s-38 -27 -72 -27z" />
    <glyph glyph-name="uni2076" unicode="&#x2076;" horiz-adv-x="231" 
d="M248 716l-74 -108c7 2 14 3 20 3c41 -1 72 -32 72 -74c0 -57 -38 -106 -101 -106c-52 0 -90 35 -90 81c0 26 9 50 35 87l80 117h58zM175 570c-29 0 -45 -23 -45 -53c0 -22 12 -36 36 -36c28 0 44 21 44 52c0 21 -14 37 -35 37z" />
    <glyph glyph-name="uni2077" unicode="&#x2077;" horiz-adv-x="225" 
d="M237 666h-78l-8 -40h-54l18 90h186l-11 -54l-131 -228h-56z" />
    <glyph glyph-name="uni2078" unicode="&#x2078;" horiz-adv-x="227" 
d="M157 431c-49 0 -87 28 -87 75c0 35 21 67 56 78c-16 9 -27 23 -27 50c0 41 40 85 100 85c47 0 84 -30 84 -75c0 -32 -23 -59 -50 -67c18 -7 29 -28 29 -55c0 -52 -42 -91 -105 -91zM160 477c27 0 45 20 45 48c0 20 -13 34 -32 34c-28 0 -45 -19 -45 -48
c0 -20 12 -34 32 -34zM185 598c23 0 40 19 40 45c0 18 -11 30 -29 30c-23 0 -39 -19 -39 -42c0 -19 11 -33 28 -33z" />
    <glyph glyph-name="uni2079" unicode="&#x2079;" horiz-adv-x="231" 
d="M111 434l74 109c-7 -3 -13 -3 -20 -3c-41 1 -71 31 -71 73c0 57 38 106 101 106c52 0 90 -35 90 -81c0 -26 -9 -50 -35 -87l-81 -117h-58zM185 581c29 0 45 22 45 52c0 23 -13 37 -36 37c-29 0 -45 -21 -45 -53c0 -21 15 -36 36 -36z" />
    <glyph glyph-name="uni207F" unicode="&#x207f;" horiz-adv-x="318" 
d="M250 605c41 0 81 -26 81 -81c0 -12 -2 -24 -5 -38l-31 -158h-67l31 152c2 14 3 23 3 28c0 25 -15 38 -39 38c-19 0 -56 -9 -67 -63l-31 -155h-67l54 274h68l-5 -27c20 20 46 30 75 30z" />
    <glyph glyph-name="uni2080" unicode="&#x2080;" horiz-adv-x="225" 
d="M42 -103c21 0 37 13 43 43l22 104c1 5 2 13 2 18c0 15 -11 23 -29 23c-21 0 -38 -13 -44 -43l-22 -104c-1 -5 -2 -13 -2 -18c0 -15 12 -23 30 -23zM35 -153c-42 0 -77 28 -77 71c0 6 1 13 2 19l22 107c14 68 57 91 104 91c42 0 77 -28 77 -71c0 -6 -1 -13 -2 -19
l-22 -107c-14 -68 -57 -91 -104 -91z" />
    <glyph glyph-name="uni2081" unicode="&#x2081;" horiz-adv-x="227" 
d="M134 132l-56 -282h-57l44 219l-69 -51l13 63l68 51h57z" />
    <glyph glyph-name="uni2082" unicode="&#x2082;" horiz-adv-x="224" 
d="M-56 -150l9 47l130 122c17 15 23 27 23 41c0 18 -10 28 -29 28s-34 -10 -41 -37h-56c13 57 52 84 104 84c45 0 78 -31 78 -71c0 -29 -14 -49 -41 -75l-97 -92h110l-10 -47h-180z" />
    <glyph glyph-name="uni2083" unicode="&#x2083;" horiz-adv-x="226" 
d="M36 -153c-51 0 -85 27 -85 69c0 7 0 11 2 19h55c-1 -5 -1 -6 -1 -8c0 -19 11 -29 34 -29c31 0 47 23 47 48c0 19 -9 31 -35 31h-11l8 38h11c27 0 44 19 44 42c0 19 -11 28 -29 28s-35 -14 -42 -35h-56c14 52 50 85 105 85c50 0 78 -33 78 -70c0 -34 -20 -59 -49 -68
c19 -7 30 -26 30 -53c0 -52 -41 -97 -106 -97z" />
    <glyph glyph-name="uni2084" unicode="&#x2084;" horiz-adv-x="225" 
d="M67 -106h-125l9 46l126 192h56l-125 -191h68l13 61h47l-12 -63h26l-9 -45h-26l-9 -44h-47z" />
    <glyph glyph-name="uni2085" unicode="&#x2085;" horiz-adv-x="218" 
d="M33 -153c-43 0 -74 25 -74 64v7h48c0 -15 13 -25 28 -25c31 0 43 17 49 46c1 6 2 14 2 21c0 20 -8 34 -30 34c-17 0 -32 -10 -38 -27h-46l33 165h159l-9 -42h-111l-14 -70c9 8 23 15 42 15c43 0 66 -30 66 -69c0 -10 -2 -21 -3 -28c-6 -31 -14 -47 -30 -64
s-38 -27 -72 -27z" />
    <glyph glyph-name="uni2086" unicode="&#x2086;" horiz-adv-x="231" 
d="M131 132l-74 -108c7 2 14 3 20 3c41 -1 72 -32 72 -74c0 -57 -38 -106 -101 -106c-52 0 -90 35 -90 81c0 26 9 50 35 87l80 117h58zM58 -14c-29 0 -45 -23 -45 -53c0 -22 12 -36 36 -36c28 0 44 21 44 52c0 21 -14 37 -35 37z" />
    <glyph glyph-name="uni2087" unicode="&#x2087;" horiz-adv-x="225" 
d="M120 82h-78l-8 -40h-54l18 90h186l-11 -54l-131 -228h-56z" />
    <glyph glyph-name="uni2088" unicode="&#x2088;" horiz-adv-x="227" 
d="M40 -153c-49 0 -87 28 -87 75c0 35 21 67 56 78c-16 9 -27 23 -27 50c0 41 40 85 100 85c47 0 84 -30 84 -75c0 -32 -23 -59 -50 -67c18 -7 29 -28 29 -55c0 -52 -42 -91 -105 -91zM43 -107c27 0 45 20 45 48c0 20 -13 34 -32 34c-28 0 -45 -19 -45 -48
c0 -20 12 -34 32 -34zM68 14c23 0 40 19 40 45c0 18 -11 30 -29 30c-23 0 -39 -19 -39 -42c0 -19 11 -33 28 -33z" />
    <glyph glyph-name="uni2089" unicode="&#x2089;" horiz-adv-x="231" 
d="M-6 -150l74 109c-7 -3 -13 -3 -20 -3c-41 1 -71 31 -71 73c0 57 38 106 101 106c52 0 90 -35 90 -81c0 -26 -9 -50 -35 -87l-81 -117h-58zM68 -3c29 0 45 22 45 52c0 23 -13 37 -36 37c-29 0 -45 -21 -45 -53c0 -21 15 -36 36 -36z" />
    <glyph glyph-name="uni2090" unicode="&#x2090;" horiz-adv-x="291" 
d="M38 -163c-53 0 -83 28 -83 70c0 27 8 47 25 63c18 18 43 26 83 26h74l4 20c1 6 2 11 2 16c0 16 -15 30 -49 30c-26 0 -45 -9 -60 -25l-35 44c22 22 54 36 106 36c57 0 102 -27 102 -78c0 -9 -1 -20 -3 -29l-35 -170h-63l6 31c-18 -22 -41 -34 -74 -34zM56 -114
c22 0 40 8 52 21c9 10 16 23 18 35l4 16h-59c-37 0 -56 -17 -56 -43c0 -17 11 -29 41 -29z" />
    <glyph glyph-name="uni2091" unicode="&#x2091;" horiz-adv-x="290" 
d="M75 -163c-52 0 -104 27 -104 99c0 96 49 183 142 183c55 0 97 -34 97 -97c0 -19 -4 -43 -8 -62h-173c-1 -8 -2 -13 -2 -22c0 -32 20 -50 56 -50c27 0 48 7 67 25l32 -37c-25 -24 -63 -39 -107 -39zM38 1h114c1 9 1 15 1 21c0 29 -16 45 -46 45c-36 0 -58 -29 -69 -66z
" />
    <glyph glyph-name="uni2092" unicode="&#x2092;" horiz-adv-x="298" 
d="M118 118c56 0 102 -28 102 -89c0 -15 -3 -34 -6 -52c-11 -58 -27 -88 -53 -110c-23 -19 -56 -30 -91 -30c-57 0 -103 28 -103 89c0 15 3 34 7 51c12 59 27 89 53 111c23 19 56 30 91 30zM110 59c-37 0 -59 -26 -70 -82c-4 -17 -5 -30 -5 -37c0 -28 17 -44 42 -44
c38 0 60 26 71 81c3 18 5 30 5 38c0 28 -17 44 -43 44z" />
    <glyph glyph-name="uni2093" unicode="&#x2093;" horiz-adv-x="278" 
d="M47 -18l-63 132h77l31 -76l56 76h81l-111 -135l66 -137h-78l-33 82l-62 -82h-81z" />
    <glyph glyph-name="lira" unicode="&#x20a4;" horiz-adv-x="585" 
d="M55 0l37 182l-78 -43l15 69l76 43l18 89l-77 -43l14 69l77 44l61 302h103l-48 -238l169 95l-14 -69l-169 -95l-18 -89l170 95l-15 -69l-168 -95l-32 -157h89c43 0 87 12 123 42c26 22 47 51 61 87h102c-26 -72 -62 -124 -109 -160c-52 -40 -117 -59 -187 -59h-200z" />
    <glyph glyph-name="dong" unicode="&#x20ab;" horiz-adv-x="427" 
d="M457 712l-13 -63h40l-10 -48h-39l-90 -452h-74l9 50c-26 -35 -60 -53 -103 -53c-81 0 -112 59 -112 114c0 25 3 56 9 87c13 71 30 120 58 152c29 32 66 47 110 47c47 0 79 -25 95 -56l23 111h-80l10 48h79l12 63h76zM328 64l-13 -64h-306l13 64h306zM256 480
c-32 0 -56 -13 -72 -35c-17 -23 -27 -58 -35 -100c-3 -17 -6 -43 -6 -62c0 -36 16 -71 63 -71c58 0 86 50 103 133c5 25 8 49 8 68c0 26 -13 67 -61 67z" />
    <glyph glyph-name="Euro" unicode="&#x20ac;" horiz-adv-x="637" 
d="M422 718c141 0 211 -93 211 -215h-103c-1 73 -36 125 -112 125c-51 0 -84 -19 -115 -51c-24 -24 -38 -53 -54 -113h176l-13 -63h-178l-17 -86h179l-13 -63h-175c-5 -25 -5 -44 -5 -55c0 -72 52 -113 116 -113c85 0 135 61 159 125h105c-44 -141 -147 -215 -272 -215
s-212 79 -212 197c0 16 2 33 6 61h-66l12 63h63l17 86h-63l13 63h64c20 83 41 130 84 174c51 53 121 80 193 80z" />
    <glyph glyph-name="uni20B4" unicode="&#x20b4;" horiz-adv-x="642" 
d="M308 -6c-146 0 -232 80 -232 183c0 30 5 57 15 79h-52l12 60h77c23 23 56 39 97 51l62 19c12 4 30 10 47 17h-266l12 60h401c22 17 32 39 32 70c0 55 -41 98 -128 98c-63 0 -111 -21 -160 -64l-59 67c69 59 131 84 228 84c144 0 220 -75 220 -173c0 -33 -6 -60 -18 -82
h46l-12 -60h-74c-22 -18 -49 -32 -85 -42l-64 -18c-25 -7 -50 -17 -73 -27h279l-12 -60h-399c-15 -18 -23 -38 -23 -66c0 -60 50 -106 141 -106c74 0 122 19 183 73l60 -69c-77 -68 -149 -94 -255 -94z" />
    <glyph glyph-name="uni20B8" unicode="&#x20b8;" horiz-adv-x="531" 
d="M565 561l-18 -90h-184l-95 -471h-103l95 471h-188l18 90h475zM595 712l-13 -65h-475l13 65h475z" />
    <glyph glyph-name="uni20BD" unicode="&#x20bd;" horiz-adv-x="617" 
d="M200 712h247c125 0 187 -80 187 -180c0 -131 -93 -245 -258 -245h-158l-58 -287h-103l57 287h-70l18 90h71zM432 621h-147l-49 -244h144c96 0 151 70 151 147c0 52 -26 97 -99 97z" />
    <glyph glyph-name="uni2116" unicode="&#x2116;" horiz-adv-x="908" 
d="M638 712l-144 -712h-88l-167 516l-104 -516h-97l144 712h87l168 -516l104 516h97zM882 318l-15 -71h-260l14 71h261zM813 650c-21 0 -36 -9 -47 -21c-16 -17 -26 -47 -35 -92c-5 -24 -6 -42 -6 -54c0 -43 24 -60 53 -60c20 0 36 9 47 21c15 17 25 48 34 93
c5 24 6 41 6 53c0 43 -24 60 -52 60zM822 716c47 0 116 -25 116 -117c0 -21 -4 -47 -7 -62c-13 -65 -25 -110 -60 -142c-26 -25 -60 -38 -102 -38c-47 0 -116 25 -116 117c0 21 3 48 6 63c13 64 28 109 61 141c26 25 60 38 102 38z" />
    <glyph glyph-name="uni2117" unicode="&#x2117;" horiz-adv-x="850" 
d="M446 -4c-199 0 -361 161 -361 360s162 360 361 360s359 -161 359 -360s-160 -360 -359 -360zM445 57c166 0 295 130 295 299s-129 299 -295 299s-295 -130 -295 -299s129 -299 295 -299zM321 162v387h161c84 0 128 -44 128 -116c0 -73 -43 -118 -126 -118h-100v-153h-63z
M384 368h96c43 0 67 23 67 65c0 41 -24 63 -67 63h-96v-128z" />
    <glyph glyph-name="trademark" unicode="&#x2122;" horiz-adv-x="839" 
d="M873 712l-84 -427h-74l56 282l-121 -178h-65l-52 181l-57 -285h-73l84 427h72l71 -244l169 244h74zM419 712l-13 -66h-107l-72 -361h-73l73 361h-111l14 66h289z" />
    <glyph glyph-name="Omega" unicode="&#x2126;" horiz-adv-x="614" 
d="M19 0l18 91h80c-36 30 -51 69 -51 127c0 29 3 67 17 138c30 149 48 223 106 283c54 57 125 79 195 79c138 0 209 -90 209 -198c0 -28 -4 -74 -22 -164c-25 -125 -40 -173 -74 -215c-15 -21 -29 -35 -52 -50h79l-19 -91h-200l16 82c25 8 49 22 67 42c33 38 48 77 79 232
c15 76 22 126 22 154c0 72 -44 117 -113 117c-44 0 -81 -17 -112 -49c-32 -34 -48 -76 -77 -222c-20 -101 -25 -142 -25 -166c0 -52 21 -89 66 -108l-16 -82h-193z" />
    <glyph glyph-name="uni2150" unicode="&#x2150;" horiz-adv-x="828" 
d="M708 712l-461 -712h-79l460 712h80zM749 362h-116l-13 -70h-67l27 135h257l-13 -63l-201 -364h-75zM219 624l-95 -70l18 90l95 68h73l-84 -427h-74z" />
    <glyph glyph-name="uni2151" unicode="&#x2151;" horiz-adv-x="829" 
d="M708 712l-461 -712h-79l460 712h80zM685 431c79 0 123 -57 123 -113c0 -32 -10 -67 -41 -113l-137 -205h-79l121 182c-8 -3 -16 -5 -25 -5c-54 0 -97 46 -97 110c0 74 50 144 135 144zM685 364c-37 0 -62 -36 -62 -77c0 -31 20 -52 50 -52c38 0 62 35 62 76
c0 34 -20 53 -50 53zM219 624l-95 -70l18 90l95 68h73l-84 -427h-74z" />
    <glyph glyph-name="uni2152" unicode="&#x2152;" horiz-adv-x="1066" 
d="M675 712l-461 -712h-79l460 712h80zM615 339l-95 -70l18 90l95 68h73l-84 -427h-74zM862 -4c-65 0 -106 43 -106 103c0 9 1 19 3 29l34 174c19 100 87 129 142 129c67 0 107 -43 107 -103c0 -8 -1 -20 -3 -29l-34 -174c-20 -100 -84 -129 -143 -129zM870 67
c25 0 54 13 63 60l33 170c2 9 3 15 3 22c0 31 -20 41 -41 41c-25 0 -53 -13 -62 -60l-34 -169c-2 -8 -3 -15 -3 -22c0 -31 18 -42 41 -42zM219 624l-95 -70l18 90l95 68h73l-84 -427h-74z" />
    <glyph glyph-name="onethird" unicode="&#x2153;" horiz-adv-x="829" 
d="M708 712l-461 -712h-79l460 712h80zM693 431c63 0 109 -41 109 -107c0 -41 -19 -83 -68 -106c28 -17 39 -41 39 -80c0 -78 -59 -142 -146 -142c-80 0 -120 46 -120 99c0 10 1 18 2 25h71c-1 -6 -1 -9 -1 -13c0 -28 15 -46 50 -46c44 0 71 36 71 77c0 36 -18 51 -48 51
h-13l13 62h11c44 0 66 36 66 70c0 32 -15 45 -42 45c-29 0 -52 -19 -64 -55h-73c18 80 72 120 143 120zM219 624l-95 -70l18 90l95 68h73l-84 -427h-74z" />
    <glyph glyph-name="twothirds" unicode="&#x2154;" horiz-adv-x="822" 
d="M701 712l-461 -712h-79l460 712h80zM686 431c63 0 109 -41 109 -107c0 -41 -19 -83 -68 -106c28 -17 39 -41 39 -80c0 -78 -59 -142 -146 -142c-80 0 -120 46 -120 99c0 10 1 18 2 25h71c-1 -6 -1 -9 -1 -13c0 -28 15 -46 50 -46c44 0 71 36 71 77c0 36 -18 51 -48 51
h-13l13 62h11c44 0 66 36 66 70c0 32 -15 45 -42 45c-29 0 -52 -19 -64 -55h-73c18 80 72 120 143 120zM41 285l14 64l187 186c26 26 36 44 36 70c0 29 -16 46 -46 46s-51 -14 -60 -58h-73c17 83 69 123 139 123c66 0 112 -42 112 -107c0 -47 -26 -83 -64 -120l-141 -139
h160l-13 -65h-251z" />
    <glyph glyph-name="uni2155" unicode="&#x2155;" horiz-adv-x="832" 
d="M708 712l-461 -712h-79l460 712h80zM632 -4c-66 0 -111 42 -111 98c0 4 0 10 1 19h70v-11c0 -23 12 -40 44 -40c42 0 59 29 69 79c2 8 4 18 4 27c0 34 -11 56 -45 56c-28 0 -46 -16 -57 -38h-66l47 241h235l-13 -66h-170l-19 -98c20 16 39 21 60 21
c74 0 102 -49 102 -106c0 -11 -2 -29 -4 -39c-7 -37 -21 -78 -50 -106c-23 -22 -54 -37 -97 -37zM219 624l-95 -70l18 90l95 68h73l-84 -427h-74z" />
    <glyph glyph-name="uni2156" unicode="&#x2156;" horiz-adv-x="825" 
d="M701 712l-461 -712h-79l460 712h80zM625 -4c-66 0 -111 42 -111 98c0 4 0 10 1 19h70v-11c0 -23 12 -40 44 -40c42 0 59 29 69 79c2 8 4 18 4 27c0 34 -11 56 -45 56c-28 0 -46 -16 -57 -38h-66l47 241h235l-13 -66h-170l-19 -98c20 16 39 21 60 21
c74 0 102 -49 102 -106c0 -11 -2 -29 -4 -39c-7 -37 -21 -78 -50 -106c-23 -22 -54 -37 -97 -37zM41 285l14 64l187 186c26 26 36 44 36 70c0 29 -16 46 -46 46s-51 -14 -60 -58h-73c17 83 69 123 139 123c66 0 112 -42 112 -107c0 -47 -26 -83 -64 -120l-141 -139h160
l-13 -65h-251z" />
    <glyph glyph-name="uni2157" unicode="&#x2157;" horiz-adv-x="828" 
d="M704 712l-461 -712h-79l460 712h80zM628 -4c-66 0 -111 42 -111 98c0 4 0 10 1 19h70v-11c0 -23 12 -40 44 -40c42 0 59 29 69 79c2 8 4 18 4 27c0 34 -11 56 -45 56c-28 0 -46 -16 -57 -38h-66l47 241h235l-13 -66h-170l-19 -98c20 16 39 21 60 21
c74 0 102 -49 102 -106c0 -11 -2 -29 -4 -39c-7 -37 -21 -78 -50 -106c-23 -22 -54 -37 -97 -37zM239 716c63 0 109 -41 109 -107c0 -41 -19 -83 -68 -106c28 -17 39 -41 39 -80c0 -78 -59 -142 -146 -142c-80 0 -120 46 -120 99c0 10 1 18 2 25h71c-1 -6 -1 -9 -1 -13
c0 -28 15 -46 50 -46c44 0 71 36 71 77c0 36 -18 51 -48 51h-13l13 62h11c44 0 66 36 66 70c0 32 -15 45 -42 45c-29 0 -52 -19 -64 -55h-73c18 80 72 120 143 120z" />
    <glyph glyph-name="uni2158" unicode="&#x2158;" horiz-adv-x="824" 
d="M700 712l-461 -712h-79l460 712h80zM624 -4c-66 0 -111 42 -111 98c0 4 0 10 1 19h70v-11c0 -23 12 -40 44 -40c42 0 59 29 69 79c2 8 4 18 4 27c0 34 -11 56 -45 56c-28 0 -46 -16 -57 -38h-66l47 241h235l-13 -66h-170l-19 -98c20 16 39 21 60 21
c74 0 102 -49 102 -106c0 -11 -2 -29 -4 -39c-7 -37 -21 -78 -50 -106c-23 -22 -54 -37 -97 -37zM208 348h-167l11 62l201 302h77l-201 -300h91l18 87h67l-18 -87h42l-12 -64h-42l-13 -63h-67z" />
    <glyph glyph-name="uni2159" unicode="&#x2159;" horiz-adv-x="830" 
d="M708 712l-461 -712h-79l460 712h80zM640 -4c-78 0 -123 57 -123 113c0 32 10 67 41 113l138 205h79l-122 -182c9 3 16 5 26 5c54 0 96 -46 96 -110c0 -74 -49 -144 -135 -144zM641 63c37 0 62 36 62 77c0 31 -20 52 -51 52c-38 0 -62 -35 -62 -76c0 -34 21 -53 51 -53z
M219 624l-95 -70l18 90l95 68h73l-84 -427h-74z" />
    <glyph glyph-name="uni215A" unicode="&#x215a;" horiz-adv-x="829" 
d="M707 712l-461 -712h-79l460 712h80zM639 -4c-78 0 -123 57 -123 113c0 32 10 67 41 113l138 205h79l-122 -182c9 3 16 5 26 5c54 0 96 -46 96 -110c0 -74 -49 -144 -135 -144zM640 63c37 0 62 36 62 77c0 31 -20 52 -51 52c-38 0 -62 -35 -62 -76c0 -34 21 -53 51 -53z
M179 281c-66 0 -111 42 -111 98c0 4 0 10 1 19h70v-11c0 -23 12 -40 44 -40c42 0 59 29 69 79c2 8 4 18 4 27c0 34 -11 56 -45 56c-28 0 -46 -16 -57 -38h-66l47 241h235l-13 -66h-170l-19 -98c20 16 39 21 60 21c74 0 102 -49 102 -106c0 -11 -2 -29 -4 -39
c-7 -37 -21 -78 -50 -106c-23 -22 -54 -37 -97 -37z" />
    <glyph glyph-name="oneeighth" unicode="&#x215b;" horiz-adv-x="826" 
d="M708 712l-461 -712h-79l460 712h80zM690 431c67 0 114 -43 114 -110c0 -51 -31 -91 -70 -106c21 -10 41 -38 41 -78c0 -79 -56 -142 -145 -142c-68 0 -119 42 -119 113c0 51 27 99 77 118c-18 12 -35 36 -35 76c0 63 52 129 137 129zM654 188c-44 0 -70 -30 -70 -75
c0 -32 18 -52 49 -52c42 0 69 30 69 75c0 31 -18 52 -48 52zM688 366c-37 0 -62 -32 -62 -67c0 -30 15 -49 43 -49c36 0 63 28 63 69c0 29 -17 47 -44 47zM219 624l-95 -70l18 90l95 68h73l-84 -427h-74z" />
    <glyph glyph-name="threeeighths" unicode="&#x215c;" horiz-adv-x="822" 
d="M704 712l-461 -712h-79l460 712h80zM686 431c67 0 114 -43 114 -110c0 -51 -31 -91 -70 -106c21 -10 41 -38 41 -78c0 -79 -56 -142 -145 -142c-68 0 -119 42 -119 113c0 51 27 99 77 118c-18 12 -35 36 -35 76c0 63 52 129 137 129zM650 188c-44 0 -70 -30 -70 -75
c0 -32 18 -52 49 -52c42 0 69 30 69 75c0 31 -18 52 -48 52zM684 366c-37 0 -62 -32 -62 -67c0 -30 15 -49 43 -49c36 0 63 28 63 69c0 29 -17 47 -44 47zM239 716c63 0 109 -41 109 -107c0 -41 -19 -83 -68 -106c28 -17 39 -41 39 -80c0 -78 -59 -142 -146 -142
c-80 0 -120 46 -120 99c0 10 1 18 2 25h71c-1 -6 -1 -9 -1 -13c0 -28 15 -46 50 -46c44 0 71 36 71 77c0 36 -18 51 -48 51h-13l13 62h11c44 0 66 36 66 70c0 32 -15 45 -42 45c-29 0 -52 -19 -64 -55h-73c18 80 72 120 143 120z" />
    <glyph glyph-name="fiveeighths" unicode="&#x215d;" horiz-adv-x="825" 
d="M707 712l-461 -712h-79l460 712h80zM689 431c67 0 114 -43 114 -110c0 -51 -31 -91 -70 -106c21 -10 41 -38 41 -78c0 -79 -56 -142 -145 -142c-68 0 -119 42 -119 113c0 51 27 99 77 118c-18 12 -35 36 -35 76c0 63 52 129 137 129zM653 188c-44 0 -70 -30 -70 -75
c0 -32 18 -52 49 -52c42 0 69 30 69 75c0 31 -18 52 -48 52zM687 366c-37 0 -62 -32 -62 -67c0 -30 15 -49 43 -49c36 0 63 28 63 69c0 29 -17 47 -44 47zM179 281c-66 0 -111 42 -111 98c0 4 0 10 1 19h70v-11c0 -23 12 -40 44 -40c42 0 59 29 69 79c2 8 4 18 4 27
c0 34 -11 56 -45 56c-28 0 -46 -16 -57 -38h-66l47 241h235l-13 -66h-170l-19 -98c20 16 39 21 60 21c74 0 102 -49 102 -106c0 -11 -2 -29 -4 -39c-7 -37 -21 -78 -50 -106c-23 -22 -54 -37 -97 -37z" />
    <glyph glyph-name="seveneighths" unicode="&#x215e;" horiz-adv-x="821" 
d="M703 712l-461 -712h-79l460 712h80zM685 431c67 0 114 -43 114 -110c0 -51 -31 -91 -70 -106c21 -10 41 -38 41 -78c0 -79 -56 -142 -145 -142c-68 0 -119 42 -119 113c0 51 27 99 77 118c-18 12 -35 36 -35 76c0 63 52 129 137 129zM649 188c-44 0 -70 -30 -70 -75
c0 -32 18 -52 49 -52c42 0 69 30 69 75c0 31 -18 52 -48 52zM683 366c-37 0 -62 -32 -62 -67c0 -30 15 -49 43 -49c36 0 63 28 63 69c0 29 -17 47 -44 47zM296 647h-116l-13 -70h-67l27 135h257l-13 -63l-201 -364h-75z" />
    <glyph glyph-name="uni215F" unicode="&#x215f;" horiz-adv-x="511" 
d="M708 712l-461 -712h-79l460 712h80zM219 624l-95 -70l18 90l95 68h73l-84 -427h-74z" />
    <glyph glyph-name="uni2189" unicode="&#x2189;" horiz-adv-x="825" 
d="M704 712l-461 -712h-79l460 712h80zM689 431c63 0 109 -41 109 -107c0 -41 -19 -83 -68 -106c28 -17 39 -41 39 -80c0 -78 -59 -142 -146 -142c-80 0 -120 46 -120 99c0 10 1 18 2 25h71c-1 -6 -1 -9 -1 -13c0 -28 15 -46 50 -46c44 0 71 36 71 77c0 36 -18 51 -48 51
h-13l13 62h11c44 0 66 36 66 70c0 32 -15 45 -42 45c-29 0 -52 -19 -64 -55h-73c18 80 72 120 143 120zM171 281c-65 0 -106 43 -106 103c0 9 1 19 3 29l34 174c19 100 87 129 142 129c67 0 107 -43 107 -103c0 -8 -1 -20 -3 -29l-34 -174c-20 -100 -84 -129 -143 -129z
M179 352c25 0 54 13 63 60l33 170c2 9 3 15 3 22c0 31 -20 41 -41 41c-25 0 -53 -13 -62 -60l-34 -169c-2 -8 -3 -15 -3 -22c0 -31 18 -42 41 -42z" />
    <glyph glyph-name="arrowleft" unicode="&#x2190;" horiz-adv-x="1027" 
d="M574 669l-345 -343h745v-97h-745l345 -343h-130l-392 391l392 392h130z" />
    <glyph glyph-name="arrowup" unicode="&#x2191;" horiz-adv-x="1027" 
d="M513 739l392 -392v-130l-343 345v-745h-97v745l-343 -345v130z" />
    <glyph glyph-name="arrowright" unicode="&#x2192;" horiz-adv-x="1027" 
d="M798 326l-345 343h130l392 -392l-392 -391h-130l345 343h-745v97h745z" />
    <glyph glyph-name="arrowdown" unicode="&#x2193;" horiz-adv-x="1027" 
d="M905 209l-392 -392l-391 392v130l343 -345v745h97v-745l343 345v-130z" />
    <glyph glyph-name="uni2196" unicode="&#x2196;" horiz-adv-x="1027" 
d="M742 603l92 -92l-487 1l526 -526l-68 -68l-527 526l1 -487l-92 92v554h555z" />
    <glyph glyph-name="uni2197" unicode="&#x2197;" horiz-adv-x="1027" 
d="M192 511l92 92h555v-554l-92 -92l1 487l-527 -526l-68 68l526 526z" />
    <glyph glyph-name="uni2198" unicode="&#x2198;" horiz-adv-x="1027" 
d="M221 603l528 -526l-1 487l91 -92v-554h-554l-92 91l487 -1l-527 527z" />
    <glyph glyph-name="uni2199" unicode="&#x2199;" horiz-adv-x="1027" 
d="M277 77l528 526l68 -68l-527 -527l487 1l-92 -91h-554v554l91 92z" />
    <glyph glyph-name="partialdiff" unicode="&#x2202;" horiz-adv-x="526" 
d="M320 718c97 0 179 -47 179 -174c0 -14 -1 -39 -5 -58l-44 -238c-18 -98 -40 -153 -84 -197c-36 -36 -84 -57 -147 -57c-103 0 -171 59 -171 167c0 25 5 62 10 87c21 100 45 157 89 200c35 33 80 54 141 54c49 0 83 -18 103 -56l11 64c2 13 2 18 2 27c0 65 -32 99 -92 99
c-50 0 -79 -13 -116 -45l-51 65c58 49 113 62 175 62zM283 415c-29 0 -52 -10 -71 -28c-27 -26 -44 -71 -57 -139c-5 -26 -11 -57 -11 -82c0 -56 35 -84 80 -84c30 0 53 9 71 27c28 26 45 72 58 139c5 26 11 58 11 83c0 55 -35 84 -81 84z" />
    <glyph glyph-name="Delta" unicode="&#x2206;" horiz-adv-x="593" 
d="M348 712h82l106 -712h-578zM424 87l-61 472l-253 -472h314z" />
    <glyph glyph-name="product" unicode="&#x220f;" horiz-adv-x="656" 
d="M669 760l-192 -965h-103l175 875h-273l-176 -875h-102l192 965h479z" />
    <glyph glyph-name="summation" unicode="&#x2211;" horiz-adv-x="513" 
d="M579 760l-18 -90h-318l96 -343l-20 -95l-224 -347h317l-18 -90h-436l16 82l269 417l-112 386l16 80h432z" />
    <glyph glyph-name="minus" unicode="&#x2212;" horiz-adv-x="506" 
d="M472 324l-18 -90h-409l18 90h409z" />
    <glyph glyph-name="uni2219" unicode="&#x2219;" horiz-adv-x="506" 
d="M253 430c90 0 154 -64 154 -154s-64 -154 -154 -154s-154 64 -154 154s64 154 154 154z" />
    <glyph glyph-name="radical" unicode="&#x221a;" horiz-adv-x="540" 
d="M605 712l-18 -90h-86l-330 -622h-78l-57 398h93l30 -253l288 567h158z" />
    <glyph glyph-name="uni221B" unicode="&#x221b;" horiz-adv-x="540" 
d="M605 712l-18 -90h-86l-330 -622h-78l-57 398h93l30 -253l288 567h158zM142 429c-51 0 -85 27 -85 69c0 7 0 11 2 19h55c-1 -5 -1 -6 -1 -8c0 -19 11 -29 34 -29c31 0 47 23 47 48c0 19 -9 31 -35 31h-11l8 38h11c27 0 44 19 44 42c0 19 -11 28 -29 28s-35 -14 -42 -35
h-56c14 52 50 85 105 85c50 0 78 -33 78 -70c0 -34 -20 -59 -49 -68c19 -7 30 -26 30 -53c0 -52 -41 -97 -106 -97z" />
    <glyph glyph-name="uni221C" unicode="&#x221c;" horiz-adv-x="540" 
d="M605 712l-18 -90h-86l-330 -622h-78l-57 398h93l30 -253l288 567h158zM176 474h-125l9 46l126 192h56l-125 -191h68l13 61h47l-12 -63h26l-9 -45h-26l-9 -44h-47z" />
    <glyph glyph-name="infinity" unicode="&#x221e;" horiz-adv-x="788" 
d="M569 444c105 0 166 -74 166 -167s-61 -165 -166 -165c-67 0 -118 33 -170 94c-52 -61 -104 -95 -170 -95c-105 0 -166 73 -166 166s61 167 166 167c65 0 118 -34 170 -95c52 61 103 95 170 95zM231 352c-43 0 -76 -30 -76 -77s33 -75 76 -75c40 0 69 31 105 75
c-36 44 -65 77 -105 77zM567 351c-41 0 -70 -32 -106 -76c36 -44 65 -75 106 -75c43 0 75 28 75 75s-32 76 -75 76z" />
    <glyph glyph-name="integral" unicode="&#x222b;" horiz-adv-x="412" 
d="M456 712l-17 -81h-39c-47 0 -72 -21 -83 -74l-120 -600c-23 -113 -77 -162 -184 -162h-57l17 82h39c47 0 72 20 83 73l120 601c23 113 77 161 184 161h57z" />
    <glyph glyph-name="approxequal" unicode="&#x2248;" horiz-adv-x="545" 
d="M173 255c39 0 64 -9 104 -32c31 -17 50 -24 73 -24c27 0 50 6 93 43l50 -65c-72 -64 -115 -71 -150 -71c-39 0 -64 9 -104 32c-31 17 -50 24 -73 24c-27 0 -50 -6 -93 -43l-50 65c72 64 115 71 150 71zM213 451c39 0 64 -9 104 -32c31 -17 50 -24 73 -24c27 0 50 6 93 43
l50 -65c-72 -64 -115 -70 -150 -70c-39 0 -64 9 -104 32c-31 17 -50 23 -73 23c-27 0 -50 -6 -93 -43l-50 65c72 64 115 71 150 71z" />
    <glyph glyph-name="notequal" unicode="&#x2260;" horiz-adv-x="545" 
d="M487 542l52 -53l-74 -72h62l-19 -90h-129l-102 -99h213l-18 -90h-280l-126 -125l-52 53l74 72h-59l17 90h127l103 99h-212l18 90h280z" />
    <glyph glyph-name="lessequal" unicode="&#x2264;" horiz-adv-x="506" 
d="M491 582l-21 -107l-262 -117l218 -121l-20 -97l-317 185l17 81zM75 250l317 -185l-19 -94l-317 185z" />
    <glyph glyph-name="greaterequal" unicode="&#x2265;" horiz-adv-x="506" 
d="M145 586l317 -185l-17 -82l-385 -175l21 106l262 117l-217 121zM433 244l-20 -103l-385 -176l20 103z" />
    <glyph glyph-name="dotmath" unicode="&#x22c5;" horiz-adv-x="506" 
d="M322 336l-23 -116h-116l23 116h116z" />
    <glyph glyph-name="uni2460" unicode="&#x2460;" horiz-adv-x="886" 
d="M421 164v306l-79 -68v78l79 68h68v-384h-68zM458 718c200 0 362 -162 362 -362s-162 -362 -362 -362s-362 162 -362 362s162 362 362 362zM458 665c-169 0 -303 -136 -303 -309s134 -309 303 -309c170 0 303 136 303 309s-133 309 -303 309z" />
    <glyph glyph-name="uni2460" unicode="&#x2780;" horiz-adv-x="886" 
d="M421 164v306l-79 -68v78l79 68h68v-384h-68zM458 718c200 0 362 -162 362 -362s-162 -362 -362 -362s-362 162 -362 362s162 362 362 362zM458 665c-169 0 -303 -136 -303 -309s134 -309 303 -309c170 0 303 136 303 309s-133 309 -303 309z" />
    <glyph glyph-name="uni2461" unicode="&#x2461;" horiz-adv-x="886" 
d="M340 164v61l146 165c17 19 22 31 22 53c0 26 -18 47 -50 47c-28 0 -49 -15 -50 -51h-67c1 32 9 58 28 77c21 22 52 35 89 35s67 -11 87 -32c19 -19 30 -45 30 -76c0 -37 -14 -56 -45 -92l-110 -128h157v-59h-237zM458 718c200 0 362 -162 362 -362s-162 -362 -362 -362
s-362 162 -362 362s162 362 362 362zM458 665c-169 0 -303 -136 -303 -309s134 -309 303 -309c170 0 303 136 303 309s-133 309 -303 309z" />
    <glyph glyph-name="uni2461" unicode="&#x2781;" horiz-adv-x="886" 
d="M340 164v61l146 165c17 19 22 31 22 53c0 26 -18 47 -50 47c-28 0 -49 -15 -50 -51h-67c1 32 9 58 28 77c21 22 52 35 89 35s67 -11 87 -32c19 -19 30 -45 30 -76c0 -37 -14 -56 -45 -92l-110 -128h157v-59h-237zM458 718c200 0 362 -162 362 -362s-162 -362 -362 -362
s-362 162 -362 362s162 362 362 362zM458 665c-169 0 -303 -136 -303 -309s134 -309 303 -309c170 0 303 136 303 309s-133 309 -303 309z" />
    <glyph glyph-name="uni2462" unicode="&#x2462;" horiz-adv-x="886" 
d="M457 161c-63 0 -122 33 -124 114h68c2 -36 28 -54 56 -54c32 0 55 22 55 57c0 37 -21 57 -56 57h-12v56h12c32 0 51 21 51 49c0 34 -20 52 -50 52c-28 0 -47 -19 -50 -50h-68c4 70 53 110 118 110c71 0 118 -46 118 -109c0 -42 -17 -64 -47 -78c32 -15 52 -43 52 -89
c0 -76 -54 -115 -123 -115zM458 718c200 0 362 -162 362 -362s-162 -362 -362 -362s-362 162 -362 362s162 362 362 362zM458 665c-169 0 -303 -136 -303 -309s134 -309 303 -309c170 0 303 136 303 309s-133 309 -303 309z" />
    <glyph glyph-name="uni2462" unicode="&#x2782;" horiz-adv-x="886" 
d="M457 161c-63 0 -122 33 -124 114h68c2 -36 28 -54 56 -54c32 0 55 22 55 57c0 37 -21 57 -56 57h-12v56h12c32 0 51 21 51 49c0 34 -20 52 -50 52c-28 0 -47 -19 -50 -50h-68c4 70 53 110 118 110c71 0 118 -46 118 -109c0 -42 -17 -64 -47 -78c32 -15 52 -43 52 -89
c0 -76 -54 -115 -123 -115zM458 718c200 0 362 -162 362 -362s-162 -362 -362 -362s-362 162 -362 362s162 362 362 362zM458 665c-169 0 -303 -136 -303 -309s134 -309 303 -309c170 0 303 136 303 309s-133 309 -303 309z" />
    <glyph glyph-name="uni2463" unicode="&#x2463;" horiz-adv-x="886" 
d="M476 164v58h-156v55l132 271h67l-132 -271h89v85h61v-85h46v-55h-46v-58h-61zM458 718c200 0 362 -162 362 -362s-162 -362 -362 -362s-362 162 -362 362s162 362 362 362zM458 665c-169 0 -303 -136 -303 -309s134 -309 303 -309c170 0 303 136 303 309
s-133 309 -303 309z" />
    <glyph glyph-name="uni2463" unicode="&#x2783;" horiz-adv-x="886" 
d="M476 164v58h-156v55l132 271h67l-132 -271h89v85h61v-85h46v-55h-46v-58h-61zM458 718c200 0 362 -162 362 -362s-162 -362 -362 -362s-362 162 -362 362s162 362 362 362zM458 665c-169 0 -303 -136 -303 -309s134 -309 303 -309c170 0 303 136 303 309
s-133 309 -303 309z" />
    <glyph glyph-name="uni2464" unicode="&#x2464;" horiz-adv-x="886" 
d="M458 160c-41 0 -69 12 -88 31c-22 23 -28 41 -31 74h68c3 -30 21 -47 51 -47c15 0 28 5 36 15c12 13 15 33 15 59c0 44 -11 71 -51 71c-27 0 -41 -13 -49 -34h-63v219h225v-58h-166v-95c17 17 36 24 63 24c32 0 59 -10 75 -26c29 -29 34 -66 34 -101
c0 -45 -8 -73 -33 -100c-19 -20 -47 -32 -86 -32zM458 718c200 0 362 -162 362 -362s-162 -362 -362 -362s-362 162 -362 362s162 362 362 362zM458 665c-169 0 -303 -136 -303 -309s134 -309 303 -309c170 0 303 136 303 309s-133 309 -303 309z" />
    <glyph glyph-name="uni2464" unicode="&#x2784;" horiz-adv-x="886" 
d="M458 160c-41 0 -69 12 -88 31c-22 23 -28 41 -31 74h68c3 -30 21 -47 51 -47c15 0 28 5 36 15c12 13 15 33 15 59c0 44 -11 71 -51 71c-27 0 -41 -13 -49 -34h-63v219h225v-58h-166v-95c17 17 36 24 63 24c32 0 59 -10 75 -26c29 -29 34 -66 34 -101
c0 -45 -8 -73 -33 -100c-19 -20 -47 -32 -86 -32zM458 718c200 0 362 -162 362 -362s-162 -362 -362 -362s-362 162 -362 362s162 362 362 362zM458 665c-169 0 -303 -136 -303 -309s134 -309 303 -309c170 0 303 136 303 309s-133 309 -303 309z" />
    <glyph glyph-name="uni2465" unicode="&#x2465;" horiz-adv-x="886" 
d="M458 161c-68 0 -119 43 -119 120c0 27 6 53 28 97l84 170h76l-82 -161c10 6 20 8 32 8c55 0 102 -42 102 -114c0 -76 -51 -120 -121 -120zM458 224c31 0 53 20 53 57c0 38 -22 60 -53 60c-29 0 -51 -22 -51 -60s21 -57 51 -57zM458 718c200 0 362 -162 362 -362
s-162 -362 -362 -362s-362 162 -362 362s162 362 362 362zM458 665c-169 0 -303 -136 -303 -309s134 -309 303 -309c170 0 303 136 303 309s-133 309 -303 309z" />
    <glyph glyph-name="uni2465" unicode="&#x2785;" horiz-adv-x="886" 
d="M458 161c-68 0 -119 43 -119 120c0 27 6 53 28 97l84 170h76l-82 -161c10 6 20 8 32 8c55 0 102 -42 102 -114c0 -76 -51 -120 -121 -120zM458 224c31 0 53 20 53 57c0 38 -22 60 -53 60c-29 0 -51 -22 -51 -60s21 -57 51 -57zM458 718c200 0 362 -162 362 -362
s-162 -362 -362 -362s-362 162 -362 362s162 362 362 362zM458 665c-169 0 -303 -136 -303 -309s134 -309 303 -309c170 0 303 136 303 309s-133 309 -303 309z" />
    <glyph glyph-name="uni2466" unicode="&#x2466;" horiz-adv-x="886" 
d="M391 164l126 326h-109v-66h-61v124h236v-58l-126 -326h-66zM458 718c200 0 362 -162 362 -362s-162 -362 -362 -362s-362 162 -362 362s162 362 362 362zM458 665c-169 0 -303 -136 -303 -309s134 -309 303 -309c170 0 303 136 303 309s-133 309 -303 309z" />
    <glyph glyph-name="uni2466" unicode="&#x2786;" horiz-adv-x="886" 
d="M391 164l126 326h-109v-66h-61v124h236v-58l-126 -326h-66zM458 718c200 0 362 -162 362 -362s-162 -362 -362 -362s-362 162 -362 362s162 362 362 362zM458 665c-169 0 -303 -136 -303 -309s134 -309 303 -309c170 0 303 136 303 309s-133 309 -303 309z" />
    <glyph glyph-name="uni2467" unicode="&#x2467;" horiz-adv-x="886" 
d="M456 161c-69 0 -124 41 -124 115c0 43 22 71 50 87c-25 16 -44 41 -44 80c0 68 54 109 118 109c65 0 119 -41 119 -109c0 -39 -19 -64 -44 -80c28 -16 50 -44 50 -87c0 -74 -55 -115 -125 -115zM456 220c34 0 56 25 56 57c0 33 -24 56 -56 56s-56 -23 -56 -56
c0 -32 23 -57 56 -57zM456 390c30 0 51 21 51 51s-20 52 -51 52c-30 0 -50 -22 -50 -52s21 -51 50 -51zM458 718c200 0 362 -162 362 -362s-162 -362 -362 -362s-362 162 -362 362s162 362 362 362zM458 665c-169 0 -303 -136 -303 -309s134 -309 303 -309
c170 0 303 136 303 309s-133 309 -303 309z" />
    <glyph glyph-name="uni2467" unicode="&#x2787;" horiz-adv-x="886" 
d="M456 161c-69 0 -124 41 -124 115c0 43 22 71 50 87c-25 16 -44 41 -44 80c0 68 54 109 118 109c65 0 119 -41 119 -109c0 -39 -19 -64 -44 -80c28 -16 50 -44 50 -87c0 -74 -55 -115 -125 -115zM456 220c34 0 56 25 56 57c0 33 -24 56 -56 56s-56 -23 -56 -56
c0 -32 23 -57 56 -57zM456 390c30 0 51 21 51 51s-20 52 -51 52c-30 0 -50 -22 -50 -52s21 -51 50 -51zM458 718c200 0 362 -162 362 -362s-162 -362 -362 -362s-362 162 -362 362s162 362 362 362zM458 665c-169 0 -303 -136 -303 -309s134 -309 303 -309
c170 0 303 136 303 309s-133 309 -303 309z" />
    <glyph glyph-name="uni2468" unicode="&#x2468;" horiz-adv-x="886" 
d="M389 164l82 161c-10 -6 -20 -8 -32 -8c-55 0 -102 42 -102 114c0 76 51 120 121 120c68 0 119 -43 119 -120c0 -27 -6 -53 -28 -97l-84 -170h-76zM458 371c29 0 51 22 51 60s-21 57 -51 57c-31 0 -53 -20 -53 -57c0 -38 22 -60 53 -60zM458 718c200 0 362 -162 362 -362
s-162 -362 -362 -362s-362 162 -362 362s162 362 362 362zM458 665c-169 0 -303 -136 -303 -309s134 -309 303 -309c170 0 303 136 303 309s-133 309 -303 309z" />
    <glyph glyph-name="uni2468" unicode="&#x2788;" horiz-adv-x="886" 
d="M389 164l82 161c-10 -6 -20 -8 -32 -8c-55 0 -102 42 -102 114c0 76 51 120 121 120c68 0 119 -43 119 -120c0 -27 -6 -53 -28 -97l-84 -170h-76zM458 371c29 0 51 22 51 60s-21 57 -51 57c-31 0 -53 -20 -53 -57c0 -38 22 -60 53 -60zM458 718c200 0 362 -162 362 -362
s-162 -362 -362 -362s-362 162 -362 362s162 362 362 362zM458 665c-169 0 -303 -136 -303 -309s134 -309 303 -309c170 0 303 136 303 309s-133 309 -303 309z" />
    <glyph glyph-name="uni2469" unicode="&#x2469;" horiz-adv-x="886" 
d="M548 160c-31 0 -55 8 -72 22c-22 20 -33 48 -33 85v177c0 37 11 66 33 85c17 15 41 23 72 23c30 0 55 -8 72 -23c22 -19 33 -48 33 -85v-177c0 -37 -11 -65 -33 -85c-17 -14 -42 -22 -72 -22zM548 208c34 0 51 21 51 61v174c0 40 -17 61 -51 61c-35 0 -52 -21 -52 -61
v-174c0 -40 17 -61 52 -61zM323 164v323l-68 -56v61l68 56h53v-384h-53zM458 718c200 0 362 -162 362 -362s-162 -362 -362 -362s-362 162 -362 362s162 362 362 362zM458 665c-169 0 -303 -136 -303 -309s134 -309 303 -309c170 0 303 136 303 309s-133 309 -303 309z" />
    <glyph glyph-name="uni2469" unicode="&#x2789;" horiz-adv-x="886" 
d="M548 160c-31 0 -55 8 -72 22c-22 20 -33 48 -33 85v177c0 37 11 66 33 85c17 15 41 23 72 23c30 0 55 -8 72 -23c22 -19 33 -48 33 -85v-177c0 -37 -11 -65 -33 -85c-17 -14 -42 -22 -72 -22zM548 208c34 0 51 21 51 61v174c0 40 -17 61 -51 61c-35 0 -52 -21 -52 -61
v-174c0 -40 17 -61 52 -61zM323 164v323l-68 -56v61l68 56h53v-384h-53zM458 718c200 0 362 -162 362 -362s-162 -362 -362 -362s-362 162 -362 362s162 362 362 362zM458 665c-169 0 -303 -136 -303 -309s134 -309 303 -309c170 0 303 136 303 309s-133 309 -303 309z" />
    <glyph glyph-name="uni246A" unicode="&#x246a;" horiz-adv-x="886" 
d="M323 164v323l-68 -56v61l68 56h53v-384h-53zM556 164v323l-68 -56v61l68 56h53v-384h-53zM458 718c200 0 362 -162 362 -362s-162 -362 -362 -362s-362 162 -362 362s162 362 362 362zM458 665c-169 0 -303 -136 -303 -309s134 -309 303 -309c170 0 303 136 303 309
s-133 309 -303 309z" />
    <glyph glyph-name="uni246B" unicode="&#x246b;" horiz-adv-x="886" 
d="M323 164v323l-68 -56v61l68 56h53v-384h-53zM449 164v46l126 181c16 24 23 41 23 63c0 31 -18 50 -49 50c-29 0 -51 -16 -51 -51v-14h-53v14c0 29 10 55 30 73c16 16 41 26 74 26c31 0 56 -9 72 -24c19 -16 30 -44 30 -74s-10 -50 -32 -82l-112 -160h144v-48h-202z
M458 718c200 0 362 -162 362 -362s-162 -362 -362 -362s-362 162 -362 362s162 362 362 362zM458 665c-169 0 -303 -136 -303 -309s134 -309 303 -309c170 0 303 136 303 309s-133 309 -303 309z" />
    <glyph glyph-name="uni246C" unicode="&#x246c;" horiz-adv-x="886" 
d="M323 164v323l-68 -56v61l68 56h53v-384h-53zM548 161c-28 0 -52 7 -70 20c-29 22 -38 51 -39 87h53c2 -38 18 -59 56 -59c16 0 29 4 39 14c11 10 15 26 15 51c0 31 -5 45 -14 56c-9 10 -22 15 -39 15h-17v44h17c18 0 32 6 39 18c6 8 10 19 10 37c0 24 -7 40 -17 50
c-8 7 -20 11 -33 11c-37 0 -46 -21 -50 -59h-53c2 38 9 63 32 83c17 17 42 24 71 24s52 -8 69 -22c24 -21 33 -45 33 -82c0 -24 -3 -42 -11 -55c-7 -12 -19 -21 -34 -27c14 -6 23 -13 31 -23c13 -16 19 -40 19 -70c0 -46 -14 -75 -38 -94c-17 -12 -42 -19 -69 -19zM458 718
c200 0 362 -162 362 -362s-162 -362 -362 -362s-362 162 -362 362s162 362 362 362zM458 665c-169 0 -303 -136 -303 -309s134 -309 303 -309c170 0 303 136 303 309s-133 309 -303 309z" />
    <glyph glyph-name="uni246D" unicode="&#x246d;" horiz-adv-x="886" 
d="M323 164v323l-68 -56v61l68 56h53v-384h-53zM573 164v58h-132v47l119 279h55l-118 -278h76v83h53v-83h35v-48h-35v-58h-53zM458 718c200 0 362 -162 362 -362s-162 -362 -362 -362s-362 162 -362 362s162 362 362 362zM458 665c-169 0 -303 -136 -303 -309
s134 -309 303 -309c170 0 303 136 303 309s-133 309 -303 309z" />
    <glyph glyph-name="uni246E" unicode="&#x246e;" horiz-adv-x="886" 
d="M323 164v323l-68 -56v61l68 56h53v-384h-53zM546 160c-32 0 -57 8 -74 25c-21 20 -28 46 -29 77h53c3 -36 16 -54 50 -54c19 0 31 5 40 17c10 14 14 35 14 66c0 34 -3 58 -18 71c-8 8 -19 12 -35 12c-31 0 -44 -14 -49 -37h-48v211h199v-48h-151v-107c7 8 15 14 25 20
c11 6 24 9 38 9c29 0 49 -7 62 -22c23 -25 30 -58 30 -109s-8 -82 -32 -106c-18 -17 -43 -25 -75 -25zM458 718c200 0 362 -162 362 -362s-162 -362 -362 -362s-362 162 -362 362s162 362 362 362zM458 665c-169 0 -303 -136 -303 -309s134 -309 303 -309
c170 0 303 136 303 309s-133 309 -303 309z" />
    <glyph glyph-name="uni246F" unicode="&#x246f;" horiz-adv-x="886" 
d="M323 164v323l-68 -56v61l68 56h53v-384h-53zM548 160c-32 0 -57 9 -74 27c-20 21 -29 44 -29 87c0 33 5 58 18 86l82 188h56l-74 -168c10 6 22 9 35 9c25 0 50 -11 65 -28c17 -21 25 -43 25 -89c0 -40 -11 -65 -29 -84c-17 -18 -42 -28 -75 -28zM548 208c17 0 31 6 40 19
c7 9 11 25 11 47c0 23 -5 39 -12 49c-9 12 -23 19 -39 19s-30 -7 -38 -19c-8 -10 -12 -26 -12 -49c0 -22 3 -37 9 -46c9 -13 24 -20 41 -20zM458 718c200 0 362 -162 362 -362s-162 -362 -362 -362s-362 162 -362 362s162 362 362 362zM458 665c-169 0 -303 -136 -303 -309
s134 -309 303 -309c170 0 303 136 303 309s-133 309 -303 309z" />
    <glyph glyph-name="uni2470" unicode="&#x2470;" horiz-adv-x="886" 
d="M323 164v323l-68 -56v61l68 56h53v-384h-53zM474 164l116 337h-104v-57h-48v104h205v-45l-116 -339h-53zM458 718c200 0 362 -162 362 -362s-162 -362 -362 -362s-362 162 -362 362s162 362 362 362zM458 665c-169 0 -303 -136 -303 -309s134 -309 303 -309
c170 0 303 136 303 309s-133 309 -303 309z" />
    <glyph glyph-name="uni2471" unicode="&#x2471;" horiz-adv-x="886" 
d="M323 164v323l-68 -56v61l68 56h53v-384h-53zM458 718c200 0 362 -162 362 -362s-162 -362 -362 -362s-362 162 -362 362s162 362 362 362zM458 665c-169 0 -303 -136 -303 -309s134 -309 303 -309c170 0 303 136 303 309s-133 309 -303 309zM548 161c-32 0 -60 10 -78 28
c-21 22 -31 48 -31 87c0 27 7 47 19 64c8 11 16 19 29 26c-14 8 -25 18 -32 32s-10 31 -10 49c0 34 10 61 28 79c17 17 43 27 75 27s58 -10 75 -27c18 -18 28 -45 28 -79c0 -18 -3 -35 -10 -49s-18 -24 -32 -32c13 -7 21 -15 29 -26c12 -17 19 -37 19 -64
c0 -39 -10 -65 -31 -87c-18 -18 -46 -28 -78 -28zM548 344c-16 0 -30 -5 -39 -16c-11 -13 -17 -30 -17 -52c0 -20 4 -35 13 -48c10 -13 25 -19 43 -19s33 6 43 19c9 13 13 28 13 48c0 22 -6 39 -17 52c-9 11 -23 16 -39 16zM548 505c-16 0 -28 -6 -37 -16s-13 -25 -13 -42
c0 -13 2 -25 8 -34c9 -15 23 -23 42 -23s33 8 42 23c6 9 8 21 8 34c0 17 -4 32 -13 42s-21 16 -37 16z" />
    <glyph glyph-name="uni2472" unicode="&#x2472;" horiz-adv-x="886" 
d="M323 164v323l-68 -56v61l68 56h53v-384h-53zM458 718c200 0 362 -162 362 -362s-162 -362 -362 -362s-362 162 -362 362s162 362 362 362zM458 665c-169 0 -303 -136 -303 -309s134 -309 303 -309c170 0 303 136 303 309s-133 309 -303 309zM548 552c32 0 57 -9 74 -27
c20 -21 29 -44 29 -87c0 -33 -5 -58 -18 -86l-82 -188h-56l74 168c-10 -6 -22 -9 -35 -9c-25 0 -50 11 -65 28c-17 21 -25 43 -25 89c0 40 11 65 29 84c17 18 42 28 75 28zM548 504c-17 0 -31 -6 -40 -19c-7 -9 -11 -25 -11 -47c0 -23 5 -39 12 -49c9 -12 23 -19 39 -19
s30 7 38 19c8 10 12 26 12 49c0 22 -3 37 -9 46c-9 13 -24 20 -41 20z" />
    <glyph glyph-name="uni2473" unicode="&#x2473;" horiz-adv-x="886" 
d="M580 160c-31 0 -55 8 -72 22c-22 20 -33 48 -33 85v177c0 37 11 66 33 85c17 15 41 23 72 23c30 0 55 -8 72 -23c22 -19 33 -48 33 -85v-177c0 -37 -11 -65 -33 -85c-17 -14 -42 -22 -72 -22zM580 208c34 0 51 21 51 61v174c0 40 -17 61 -51 61c-35 0 -52 -21 -52 -61
v-174c0 -40 17 -61 52 -61zM245 164v46l126 181c16 24 23 41 23 63c0 31 -18 50 -49 50c-29 0 -51 -16 -51 -51v-14h-53v14c0 29 10 55 30 73c16 16 41 26 74 26c31 0 56 -9 72 -24c19 -16 30 -44 30 -74s-10 -50 -32 -82l-112 -160h144v-48h-202zM458 718
c200 0 362 -162 362 -362s-162 -362 -362 -362s-362 162 -362 362s162 362 362 362zM458 665c-169 0 -303 -136 -303 -309s134 -309 303 -309c170 0 303 136 303 309s-133 309 -303 309z" />
    <glyph glyph-name="uni24EA" unicode="&#x24ea;" horiz-adv-x="886" 
d="M457 161c-67 0 -118 42 -118 117v158c0 74 51 116 118 116s118 -42 118 -116v-158c0 -75 -51 -117 -118 -117zM457 222c32 0 50 22 50 56v157c0 34 -19 56 -50 56c-32 0 -50 -22 -50 -56v-157c0 -34 18 -56 50 -56zM458 718c200 0 362 -162 362 -362s-162 -362 -362 -362
s-362 162 -362 362s162 362 362 362zM458 665c-169 0 -303 -136 -303 -309s134 -309 303 -309c170 0 303 136 303 309s-133 309 -303 309z" />
    <glyph glyph-name="uni24EB" unicode="&#x24eb;" horiz-adv-x="886" 
d="M458 718c200 0 362 -162 362 -362s-162 -362 -362 -362s-362 162 -362 362s162 362 362 362zM323 487v-323h53v384h-53l-68 -56v-61zM556 487v-323h53v384h-53l-68 -56v-61z" />
    <glyph glyph-name="uni24EC" unicode="&#x24ec;" horiz-adv-x="886" 
d="M323 487v-323h53v384h-53l-68 -56v-61zM449 210v-46h202v48h-144l112 160c22 32 32 52 32 82s-11 58 -30 74c-16 15 -41 24 -72 24c-33 0 -58 -10 -74 -26c-20 -18 -30 -44 -30 -73v-14h53v14c0 35 22 51 51 51c31 0 49 -19 49 -50c0 -22 -7 -39 -23 -63zM458 718
c200 0 362 -162 362 -362s-162 -362 -362 -362s-362 162 -362 362s162 362 362 362z" />
    <glyph glyph-name="uni24ED" unicode="&#x24ed;" horiz-adv-x="886" 
d="M323 487v-323h53v384h-53l-68 -56v-61zM548 161c27 0 52 7 69 19c24 19 38 48 38 94c0 30 -6 54 -19 70c-8 10 -17 17 -31 23c15 6 27 15 34 27c8 13 11 31 11 55c0 37 -9 61 -33 82c-17 14 -40 22 -69 22s-54 -7 -71 -24c-23 -20 -30 -45 -32 -83h53c4 38 13 59 50 59
c13 0 25 -4 33 -11c10 -10 17 -26 17 -50c0 -18 -4 -29 -10 -37c-7 -12 -21 -18 -39 -18h-17v-44h17c17 0 30 -5 39 -15c9 -11 14 -25 14 -56c0 -25 -4 -41 -15 -51c-10 -10 -23 -14 -39 -14c-38 0 -54 21 -56 59h-53c1 -36 10 -65 39 -87c18 -13 42 -20 70 -20zM458 718
c200 0 362 -162 362 -362s-162 -362 -362 -362s-362 162 -362 362s162 362 362 362z" />
    <glyph glyph-name="uni24EE" unicode="&#x24ee;" horiz-adv-x="886" 
d="M323 487v-323h53v384h-53l-68 -56v-61zM458 718c200 0 362 -162 362 -362s-162 -362 -362 -362s-362 162 -362 362s162 362 362 362zM573 222v-58h53v58h35v48h-35v83h-53v-83h-76l118 278h-55l-119 -279v-47h132z" />
    <glyph glyph-name="uni24EF" unicode="&#x24ef;" horiz-adv-x="886" 
d="M323 487v-323h53v384h-53l-68 -56v-61zM458 718c200 0 362 -162 362 -362s-162 -362 -362 -362s-362 162 -362 362s162 362 362 362zM546 160c32 0 57 8 75 25c24 24 32 55 32 106s-7 84 -30 109c-13 15 -33 22 -62 22c-14 0 -27 -3 -38 -9c-10 -6 -18 -12 -25 -20v107
h151v48h-199v-211h48c5 23 18 37 49 37c16 0 27 -4 35 -12c15 -13 18 -37 18 -71c0 -31 -4 -52 -14 -66c-9 -12 -21 -17 -40 -17c-34 0 -47 18 -50 54h-53c1 -31 8 -57 29 -77c17 -17 42 -25 74 -25z" />
    <glyph glyph-name="uni24F0" unicode="&#x24f0;" horiz-adv-x="886" 
d="M323 487v-323h53v384h-53l-68 -56v-61zM548 160c33 0 58 10 75 28c18 19 29 44 29 84c0 46 -8 68 -25 89c-15 17 -40 28 -65 28c-13 0 -25 -3 -35 -9l74 168h-56l-82 -188c-13 -28 -18 -53 -18 -86c0 -43 9 -66 29 -87c17 -18 42 -27 74 -27zM548 208c-17 0 -32 7 -41 20
c-6 9 -9 24 -9 46c0 23 4 39 12 49c8 12 22 19 38 19s30 -7 39 -19c7 -10 12 -26 12 -49c0 -22 -4 -38 -11 -47c-9 -13 -23 -19 -40 -19zM458 718c200 0 362 -162 362 -362s-162 -362 -362 -362s-362 162 -362 362s162 362 362 362z" />
    <glyph glyph-name="uni24F1" unicode="&#x24f1;" horiz-adv-x="886" 
d="M323 487v-323h53v384h-53l-68 -56v-61zM458 718c200 0 362 -162 362 -362s-162 -362 -362 -362s-362 162 -362 362s162 362 362 362zM590 501l-116 -337h53l116 339v45h-205v-104h48v57h104z" />
    <glyph glyph-name="uni24F2" unicode="&#x24f2;" horiz-adv-x="886" 
d="M323 487v-323h53v384h-53l-68 -56v-61zM458 718c200 0 362 -162 362 -362s-162 -362 -362 -362s-362 162 -362 362s162 362 362 362zM548 161c32 0 60 10 78 28c21 22 31 48 31 87c0 27 -7 47 -19 64c-8 11 -16 19 -29 26c14 8 25 18 32 32s10 31 10 49
c0 34 -10 61 -28 79c-17 17 -43 27 -75 27s-58 -10 -75 -27c-18 -18 -28 -45 -28 -79c0 -18 3 -35 10 -49s18 -24 32 -32c-13 -7 -21 -15 -29 -26c-12 -17 -19 -37 -19 -64c0 -39 10 -65 31 -87c18 -18 46 -28 78 -28zM548 344c16 0 30 -5 39 -16c11 -13 17 -30 17 -52
c0 -20 -4 -35 -13 -48c-10 -13 -25 -19 -43 -19s-33 6 -43 19c-9 13 -13 28 -13 48c0 22 6 39 17 52c9 11 23 16 39 16zM548 505c16 0 28 -6 37 -16s13 -25 13 -42c0 -13 -2 -25 -8 -34c-9 -15 -23 -23 -42 -23s-33 8 -42 23c-6 9 -8 21 -8 34c0 17 4 32 13 42s21 16 37 16z
" />
    <glyph glyph-name="uni24F3" unicode="&#x24f3;" horiz-adv-x="886" 
d="M323 487v-323h53v384h-53l-68 -56v-61zM458 718c200 0 362 -162 362 -362s-162 -362 -362 -362s-362 162 -362 362s162 362 362 362zM548 552c-33 0 -58 -10 -75 -28c-18 -19 -29 -44 -29 -84c0 -46 8 -68 25 -89c15 -17 40 -28 65 -28c13 0 25 3 35 9l-74 -168h56
l82 188c13 28 18 53 18 86c0 43 -9 66 -29 87c-17 18 -42 27 -74 27zM548 504c17 0 32 -7 41 -20c6 -9 9 -24 9 -46c0 -23 -4 -39 -12 -49c-8 -12 -22 -19 -38 -19s-30 7 -39 19c-7 10 -12 26 -12 49c0 22 4 38 11 47c9 13 23 19 40 19z" />
    <glyph glyph-name="uni24F4" unicode="&#x24f4;" horiz-adv-x="886" 
d="M580 160c30 0 55 8 72 22c22 20 33 48 33 85v177c0 37 -11 66 -33 85c-17 15 -42 23 -72 23c-31 0 -55 -8 -72 -23c-22 -19 -33 -48 -33 -85v-177c0 -37 11 -65 33 -85c17 -14 41 -22 72 -22zM580 208c-35 0 -52 21 -52 61v174c0 40 17 61 52 61c34 0 51 -21 51 -61v-174
c0 -40 -17 -61 -51 -61zM245 210v-46h202v48h-144l112 160c22 32 32 52 32 82s-11 58 -30 74c-16 15 -41 24 -72 24c-33 0 -58 -10 -74 -26c-20 -18 -30 -44 -30 -73v-14h53v14c0 35 22 51 51 51c31 0 49 -19 49 -50c0 -22 -7 -39 -23 -63zM458 718c200 0 362 -162 362 -362
s-162 -362 -362 -362s-362 162 -362 362s162 362 362 362z" />
    <glyph glyph-name="uni24FF" unicode="&#x24ff;" horiz-adv-x="886" 
d="M458 161c67 0 118 42 118 117v158c0 74 -51 116 -118 116s-118 -42 -118 -116v-158c0 -75 51 -117 118 -117zM458 222c-32 0 -50 22 -50 56v157c0 34 18 56 50 56c31 0 50 -22 50 -56v-157c0 -34 -18 -56 -50 -56zM458 -6c-200 0 -362 162 -362 362s162 362 362 362
s362 -162 362 -362s-162 -362 -362 -362z" />
    <glyph glyph-name="filledbox" unicode="&#x25a0;" horiz-adv-x="845" 
d="M870 712l-142 -712h-712l142 712h712z" />
    <glyph glyph-name="uni25A1" unicode="&#x25a1;" horiz-adv-x="847" 
d="M871 712l-142 -712h-712l142 712h712zM786 645h-568l-116 -578h568z" />
    <glyph glyph-name="lozenge" unicode="&#x25ca;" horiz-adv-x="617" 
d="M394 721l182 -377l-313 -353l-181 377zM370 568l-182 -212l99 -212l183 212z" />
    <glyph glyph-name="circle" unicode="&#x25cb;" horiz-adv-x="886" 
d="M458 718c200 0 362 -162 362 -362s-162 -362 -362 -362s-362 162 -362 362s162 362 362 362zM458 627c-141 0 -260 -119 -260 -271s119 -271 260 -271c142 0 261 119 261 271s-119 271 -261 271z" />
    <glyph glyph-name="uni25CF" unicode="&#x25cf;" horiz-adv-x="886" 
d="M458 718c200 0 362 -162 362 -362s-162 -362 -362 -362s-362 162 -362 362s162 362 362 362z" />
    <glyph glyph-name="uni278A" unicode="&#x2776;" horiz-adv-x="886" 
d="M458 -7c-200 0 -362 163 -362 363s162 362 362 362s362 -162 362 -362s-162 -363 -362 -363zM422 164h68v384h-68l-79 -68v-78l79 68v-306z" />
    <glyph glyph-name="uni278A" unicode="&#x278a;" horiz-adv-x="886" 
d="M458 -7c-200 0 -362 163 -362 363s162 362 362 362s362 -162 362 -362s-162 -363 -362 -363zM422 164h68v384h-68l-79 -68v-78l79 68v-306z" />
    <glyph glyph-name="uni278B" unicode="&#x2777;" horiz-adv-x="886" 
d="M458 -6c-200 0 -362 162 -362 362s162 362 362 362s362 -162 362 -362s-162 -362 -362 -362zM340 164h237v59h-157l110 128c31 36 45 55 45 92c0 31 -11 57 -30 76c-20 21 -50 32 -87 32s-68 -13 -89 -35c-19 -19 -27 -45 -28 -77h67c1 36 22 51 50 51
c32 0 50 -21 50 -47c0 -22 -5 -34 -22 -53l-146 -165v-61z" />
    <glyph glyph-name="uni278B" unicode="&#x278b;" horiz-adv-x="886" 
d="M458 -6c-200 0 -362 162 -362 362s162 362 362 362s362 -162 362 -362s-162 -362 -362 -362zM340 164h237v59h-157l110 128c31 36 45 55 45 92c0 31 -11 57 -30 76c-20 21 -50 32 -87 32s-68 -13 -89 -35c-19 -19 -27 -45 -28 -77h67c1 36 22 51 50 51
c32 0 50 -21 50 -47c0 -22 -5 -34 -22 -53l-146 -165v-61z" />
    <glyph glyph-name="uni278C" unicode="&#x2778;" horiz-adv-x="886" 
d="M458 -6c-200 0 -362 162 -362 362s162 362 362 362s362 -162 362 -362s-162 -362 -362 -362zM457 161c69 0 123 39 123 115c0 46 -20 74 -52 89c30 14 47 36 47 78c0 63 -47 109 -118 109c-65 0 -114 -40 -118 -110h68c3 31 22 50 50 50c30 0 50 -18 50 -52
c0 -28 -19 -49 -51 -49h-12v-56h12c35 0 56 -20 56 -57c0 -35 -23 -57 -55 -57c-28 0 -54 18 -56 54h-68c2 -81 61 -114 124 -114z" />
    <glyph glyph-name="uni278C" unicode="&#x278c;" horiz-adv-x="886" 
d="M458 -6c-200 0 -362 162 -362 362s162 362 362 362s362 -162 362 -362s-162 -362 -362 -362zM457 161c69 0 123 39 123 115c0 46 -20 74 -52 89c30 14 47 36 47 78c0 63 -47 109 -118 109c-65 0 -114 -40 -118 -110h68c3 31 22 50 50 50c30 0 50 -18 50 -52
c0 -28 -19 -49 -51 -49h-12v-56h12c35 0 56 -20 56 -57c0 -35 -23 -57 -55 -57c-28 0 -54 18 -56 54h-68c2 -81 61 -114 124 -114z" />
    <glyph glyph-name="uni278D" unicode="&#x2779;" horiz-adv-x="886" 
d="M458 -6c-200 0 -362 162 -362 362s162 362 362 362s362 -162 362 -362s-162 -362 -362 -362zM476 222v-58h61v58h46v55h-46v85h-61v-85h-89l132 271h-67l-132 -271v-55h156z" />
    <glyph glyph-name="uni278D" unicode="&#x278d;" horiz-adv-x="886" 
d="M458 -6c-200 0 -362 162 -362 362s162 362 362 362s362 -162 362 -362s-162 -362 -362 -362zM476 222v-58h61v58h46v55h-46v85h-61v-85h-89l132 271h-67l-132 -271v-55h156z" />
    <glyph glyph-name="uni278E" unicode="&#x277a;" horiz-adv-x="886" 
d="M458 -6c-200 0 -362 162 -362 362s162 362 362 362s362 -162 362 -362s-162 -362 -362 -362zM458 160c39 0 67 12 86 32c25 27 33 55 33 100c0 35 -5 72 -34 101c-16 16 -43 26 -75 26c-27 0 -46 -7 -63 -24v95h166v58h-225v-219h63c8 21 22 34 49 34c40 0 51 -27 51 -71
c0 -26 -3 -46 -15 -59c-8 -10 -21 -15 -36 -15c-30 0 -48 17 -51 47h-68c3 -33 9 -51 31 -74c19 -19 47 -31 88 -31z" />
    <glyph glyph-name="uni278E" unicode="&#x278e;" horiz-adv-x="886" 
d="M458 -6c-200 0 -362 162 -362 362s162 362 362 362s362 -162 362 -362s-162 -362 -362 -362zM458 160c39 0 67 12 86 32c25 27 33 55 33 100c0 35 -5 72 -34 101c-16 16 -43 26 -75 26c-27 0 -46 -7 -63 -24v95h166v58h-225v-219h63c8 21 22 34 49 34c40 0 51 -27 51 -71
c0 -26 -3 -46 -15 -59c-8 -10 -21 -15 -36 -15c-30 0 -48 17 -51 47h-68c3 -33 9 -51 31 -74c19 -19 47 -31 88 -31z" />
    <glyph glyph-name="uni278F" unicode="&#x277b;" horiz-adv-x="886" 
d="M458 -7c-200 0 -362 162 -362 362s162 362 362 362s362 -162 362 -362s-162 -362 -362 -362zM458 224c-30 0 -51 19 -51 57s22 60 51 60c31 0 53 -22 53 -60c0 -37 -22 -57 -53 -57zM458 161c70 0 121 44 121 120c0 72 -47 114 -102 114c-12 0 -22 -2 -32 -8l82 161h-76
l-84 -170c-22 -44 -28 -70 -28 -97c0 -77 51 -120 119 -120z" />
    <glyph glyph-name="uni278F" unicode="&#x278f;" horiz-adv-x="886" 
d="M458 -7c-200 0 -362 162 -362 362s162 362 362 362s362 -162 362 -362s-162 -362 -362 -362zM458 224c-30 0 -51 19 -51 57s22 60 51 60c31 0 53 -22 53 -60c0 -37 -22 -57 -53 -57zM458 161c70 0 121 44 121 120c0 72 -47 114 -102 114c-12 0 -22 -2 -32 -8l82 161h-76
l-84 -170c-22 -44 -28 -70 -28 -97c0 -77 51 -120 119 -120z" />
    <glyph glyph-name="uni2790" unicode="&#x277c;" horiz-adv-x="886" 
d="M458 -6c-200 0 -362 162 -362 362s162 362 362 362s362 -162 362 -362s-162 -362 -362 -362zM517 490l-126 -326h66l126 326v58h-236v-124h61v66h109z" />
    <glyph glyph-name="uni2790" unicode="&#x2790;" horiz-adv-x="886" 
d="M458 -6c-200 0 -362 162 -362 362s162 362 362 362s362 -162 362 -362s-162 -362 -362 -362zM517 490l-126 -326h66l126 326v58h-236v-124h61v66h109z" />
    <glyph glyph-name="uni2791" unicode="&#x277d;" horiz-adv-x="886" 
d="M458 -6c-200 0 -362 162 -362 362s162 362 362 362s362 -162 362 -362s-162 -362 -362 -362zM458 220c-33 0 -56 25 -56 57c0 33 24 56 56 56s56 -23 56 -56c0 -32 -22 -57 -56 -57zM458 161c70 0 125 41 125 115c0 43 -22 71 -50 87c25 16 44 41 44 80
c0 68 -54 109 -119 109c-64 0 -118 -41 -118 -109c0 -39 19 -64 44 -80c-28 -16 -50 -44 -50 -87c0 -74 55 -115 124 -115zM458 390c-29 0 -50 21 -50 51s20 52 50 52c31 0 51 -22 51 -52s-21 -51 -51 -51z" />
    <glyph glyph-name="uni2791" unicode="&#x2791;" horiz-adv-x="886" 
d="M458 -6c-200 0 -362 162 -362 362s162 362 362 362s362 -162 362 -362s-162 -362 -362 -362zM458 220c-33 0 -56 25 -56 57c0 33 24 56 56 56s56 -23 56 -56c0 -32 -22 -57 -56 -57zM458 161c70 0 125 41 125 115c0 43 -22 71 -50 87c25 16 44 41 44 80
c0 68 -54 109 -119 109c-64 0 -118 -41 -118 -109c0 -39 19 -64 44 -80c-28 -16 -50 -44 -50 -87c0 -74 55 -115 124 -115zM458 390c-29 0 -50 21 -50 51s20 52 50 52c31 0 51 -22 51 -52s-21 -51 -51 -51z" />
    <glyph glyph-name="uni2792" unicode="&#x277e;" horiz-adv-x="886" 
d="M458 -6c-200 0 -362 162 -362 362s162 362 362 362s362 -162 362 -362s-162 -362 -362 -362zM389 164h76l84 170c22 44 28 70 28 97c0 77 -51 120 -119 120c-70 0 -121 -44 -121 -120c0 -72 47 -114 102 -114c12 0 22 2 32 8zM458 371c-31 0 -53 22 -53 60
c0 37 22 57 53 57c30 0 51 -19 51 -57s-22 -60 -51 -60z" />
    <glyph glyph-name="uni2792" unicode="&#x2792;" horiz-adv-x="886" 
d="M458 -6c-200 0 -362 162 -362 362s162 362 362 362s362 -162 362 -362s-162 -362 -362 -362zM389 164h76l84 170c22 44 28 70 28 97c0 77 -51 120 -119 120c-70 0 -121 -44 -121 -120c0 -72 47 -114 102 -114c12 0 22 2 32 8zM458 371c-31 0 -53 22 -53 60
c0 37 22 57 53 57c30 0 51 -19 51 -57s-22 -60 -51 -60z" />
    <glyph glyph-name="uni2793" unicode="&#x277f;" horiz-adv-x="886" 
d="M548 160c30 0 55 8 72 22c22 20 33 48 33 85v177c0 37 -11 66 -33 85c-17 15 -42 23 -72 23c-31 0 -55 -8 -72 -23c-22 -19 -33 -48 -33 -85v-177c0 -37 11 -65 33 -85c17 -14 41 -22 72 -22zM548 208c-35 0 -52 21 -52 61v174c0 40 17 61 52 61c34 0 51 -21 51 -61v-174
c0 -40 -17 -61 -51 -61zM323 487v-323h53v384h-53l-68 -56v-61zM458 718c200 0 362 -162 362 -362s-162 -362 -362 -362s-362 162 -362 362s162 362 362 362z" />
    <glyph glyph-name="uni2793" unicode="&#x2793;" horiz-adv-x="886" 
d="M548 160c30 0 55 8 72 22c22 20 33 48 33 85v177c0 37 -11 66 -33 85c-17 15 -42 23 -72 23c-31 0 -55 -8 -72 -23c-22 -19 -33 -48 -33 -85v-177c0 -37 11 -65 33 -85c17 -14 41 -22 72 -22zM548 208c-35 0 -52 21 -52 61v174c0 40 17 61 52 61c34 0 51 -21 51 -61v-174
c0 -40 -17 -61 -51 -61zM323 487v-323h53v384h-53l-68 -56v-61zM458 718c200 0 362 -162 362 -362s-162 -362 -362 -362s-362 162 -362 362s162 362 362 362z" />
    <glyph glyph-name="fi" unicode="&#xfb01;" horiz-adv-x="553" 
d="M377 712l-17 -82h-40c-37 0 -59 -20 -67 -61l-13 -62h95l-14 -74h-95l-87 -433h-97l87 433h-55l14 74h55l15 71c20 96 79 134 156 134h63zM530 507l-101 -507h-97l101 507h97zM573 708l-18 -88h-103l17 88h104z" />
    <glyph glyph-name="fl" unicode="&#xfb02;" horiz-adv-x="602" 
d="M377 712l-17 -82h-40c-37 0 -59 -20 -67 -61l-13 -62h95l-14 -74h-95l-87 -433h-97l87 433h-55l14 74h55l15 71c20 96 79 134 156 134h63zM569 712l-112 -558c-2 -11 -4 -24 -4 -33c0 -24 16 -39 50 -39h39l-16 -82h-48c-44 0 -75 11 -96 32c-19 19 -28 41 -28 71
c0 17 4 38 7 53l111 556h97z" />
    <glyph glyph-name="onequarter.afrc" horiz-adv-x="272" 
d="M286 381l-10 -50h-248l10 50h248zM119 44h-125l9 46l126 192h56l-125 -191h68l13 61h47l-12 -63h26l-9 -45h-26l-9 -44h-47zM257 712l-56 -282h-57l44 219l-69 -51l13 63l68 51h57z" />
    <glyph glyph-name="onehalf.afrc" horiz-adv-x="272" 
d="M286 381l-10 -50h-248l10 50h248zM6 0l9 47l130 122c17 15 23 27 23 41c0 18 -10 28 -29 28s-34 -10 -41 -37h-56c13 57 52 84 104 84c45 0 78 -31 78 -71c0 -29 -14 -49 -41 -75l-97 -92h110l-10 -47h-180zM257 712l-56 -282h-57l44 219l-69 -51l13 63l68 51h57z" />
    <glyph glyph-name="threequarters.afrc" horiz-adv-x="272" 
d="M286 381l-10 -50h-248l10 50h248zM180 427c-51 0 -85 27 -85 69c0 7 0 11 2 19h55c-1 -5 -1 -6 -1 -8c0 -19 11 -29 34 -29c31 0 47 23 47 48c0 19 -9 31 -35 31h-11l8 38h11c27 0 44 19 44 42c0 19 -11 28 -29 28s-35 -14 -42 -35h-56c14 52 50 85 105 85
c50 0 78 -33 78 -70c0 -34 -20 -59 -49 -68c19 -7 30 -26 30 -53c0 -52 -41 -97 -106 -97zM119 44h-125l9 46l126 192h56l-125 -191h68l13 61h47l-12 -63h26l-9 -45h-26l-9 -44h-47z" />
    <glyph glyph-name="fraction.afrc" horiz-adv-x="272" 
d="M286 381l-10 -50h-248l10 50h248z" />
    <glyph glyph-name="uni2150.afrc" horiz-adv-x="272" 
d="M286 381l-10 -50h-248l10 50h248zM177 232h-78l-8 -40h-54l18 90h186l-11 -54l-131 -228h-56zM257 712l-56 -282h-57l44 219l-69 -51l13 63l68 51h57z" />
    <glyph glyph-name="uni2151.afrc" horiz-adv-x="272" 
d="M286 381l-10 -50h-248l10 50h248zM49 0l74 109c-7 -3 -13 -3 -20 -3c-41 1 -71 31 -71 73c0 57 38 106 101 106c52 0 90 -35 90 -81c0 -26 -9 -50 -35 -87l-81 -117h-58zM123 147c29 0 45 22 45 52c0 23 -13 37 -36 37c-29 0 -45 -21 -45 -53c0 -21 15 -36 36 -36z
M257 712l-56 -282h-57l44 219l-69 -51l13 63l68 51h57z" />
    <glyph glyph-name="uni2152.afrc" horiz-adv-x="422" 
d="M38 381h398l-10 -50h-398zM168 282l-56 -282h-57l44 219l-69 -51l13 63l68 51h57zM266 47c21 0 37 13 43 43l22 104c1 5 2 13 2 18c0 15 -11 23 -29 23c-21 0 -38 -13 -44 -43l-22 -104c-1 -5 -2 -13 -2 -18c0 -15 12 -23 30 -23zM259 -3c-42 0 -77 28 -77 71
c0 6 1 13 2 19l22 107c14 68 57 91 104 91c42 0 77 -28 77 -71c0 -6 -1 -13 -2 -19l-22 -107c-14 -68 -57 -91 -104 -91zM315 712l-56 -282h-57l44 219l-69 -51l13 63l68 51h57z" />
    <glyph glyph-name="onethird.afrc" horiz-adv-x="272" 
d="M286 381l-10 -50h-248l10 50h248zM94 -3c-51 0 -85 27 -85 69c0 7 0 11 2 19h55c-1 -5 -1 -6 -1 -8c0 -19 11 -29 34 -29c31 0 47 23 47 48c0 19 -9 31 -35 31h-11l8 38h11c27 0 44 19 44 42c0 19 -11 28 -29 28s-35 -14 -42 -35h-56c14 52 50 85 105 85
c50 0 78 -33 78 -70c0 -34 -20 -59 -49 -68c19 -7 30 -26 30 -53c0 -52 -41 -97 -106 -97zM257 712l-56 -282h-57l44 219l-69 -51l13 63l68 51h57z" />
    <glyph glyph-name="twothirds.afrc" horiz-adv-x="272" 
d="M286 381l-10 -50h-248l10 50h248zM83 430l9 47l130 122c17 15 23 27 23 41c0 18 -10 28 -29 28s-34 -10 -41 -37h-56c13 57 52 84 104 84c45 0 78 -31 78 -71c0 -29 -14 -49 -41 -75l-97 -92h110l-10 -47h-180zM95 -3c-51 0 -85 27 -85 69c0 7 0 11 2 19h55
c-1 -5 -1 -6 -1 -8c0 -19 11 -29 34 -29c31 0 47 23 47 48c0 19 -9 31 -35 31h-11l8 38h11c27 0 44 19 44 42c0 19 -11 28 -29 28s-35 -14 -42 -35h-56c14 52 50 85 105 85c50 0 78 -33 78 -70c0 -34 -20 -59 -49 -68c19 -7 30 -26 30 -53c0 -52 -41 -97 -106 -97z" />
    <glyph glyph-name="uni2155.afrc" horiz-adv-x="272" 
d="M286 381l-10 -50h-248l10 50h248zM97 -3c-43 0 -74 25 -74 64v7h48c0 -15 13 -25 28 -25c31 0 43 17 49 46c1 6 2 14 2 21c0 20 -8 34 -30 34c-17 0 -32 -10 -38 -27h-46l33 165h159l-9 -42h-111l-14 -70c9 8 23 15 42 15c43 0 66 -30 66 -69c0 -10 -2 -21 -3 -28
c-6 -31 -14 -47 -30 -64s-38 -27 -72 -27zM257 712l-56 -282h-57l44 219l-69 -51l13 63l68 51h57z" />
    <glyph glyph-name="uni2156.afrc" horiz-adv-x="272" 
d="M286 381l-10 -50h-248l10 50h248zM83 430l9 47l130 122c17 15 23 27 23 41c0 18 -10 28 -29 28s-34 -10 -41 -37h-56c13 57 52 84 104 84c45 0 78 -31 78 -71c0 -29 -14 -49 -41 -75l-97 -92h110l-10 -47h-180zM97 -3c-43 0 -74 25 -74 64v7h48c0 -15 13 -25 28 -25
c31 0 43 17 49 46c1 6 2 14 2 21c0 20 -8 34 -30 34c-17 0 -32 -10 -38 -27h-46l33 165h159l-9 -42h-111l-14 -70c9 8 23 15 42 15c43 0 66 -30 66 -69c0 -10 -2 -21 -3 -28c-6 -31 -14 -47 -30 -64s-38 -27 -72 -27z" />
    <glyph glyph-name="uni2157.afrc" horiz-adv-x="272" 
d="M286 381l-10 -50h-248l10 50h248zM180 427c-51 0 -85 27 -85 69c0 7 0 11 2 19h55c-1 -5 -1 -6 -1 -8c0 -19 11 -29 34 -29c31 0 47 23 47 48c0 19 -9 31 -35 31h-11l8 38h11c27 0 44 19 44 42c0 19 -11 28 -29 28s-35 -14 -42 -35h-56c14 52 50 85 105 85
c50 0 78 -33 78 -70c0 -34 -20 -59 -49 -68c19 -7 30 -26 30 -53c0 -52 -41 -97 -106 -97zM97 -3c-43 0 -74 25 -74 64v7h48c0 -15 13 -25 28 -25c31 0 43 17 49 46c1 6 2 14 2 21c0 20 -8 34 -30 34c-17 0 -32 -10 -38 -27h-46l33 165h159l-9 -42h-111l-14 -70
c9 8 23 15 42 15c43 0 66 -30 66 -69c0 -10 -2 -21 -3 -28c-6 -31 -14 -47 -30 -64s-38 -27 -72 -27z" />
    <glyph glyph-name="uni2158.afrc" horiz-adv-x="272" 
d="M286 381l-10 -50h-248l10 50h248zM197 474h-125l9 46l126 192h56l-125 -191h68l13 61h47l-12 -63h26l-9 -45h-26l-9 -44h-47zM93 -3c-43 0 -74 25 -74 64v7h48c0 -15 13 -25 28 -25c31 0 43 17 49 46c1 6 2 14 2 21c0 20 -8 34 -30 34c-17 0 -32 -10 -38 -27h-46l33 165
h159l-9 -42h-111l-14 -70c9 8 23 15 42 15c43 0 66 -30 66 -69c0 -10 -2 -21 -3 -28c-6 -31 -14 -47 -30 -64s-38 -27 -72 -27z" />
    <glyph glyph-name="uni2159.afrc" horiz-adv-x="272" 
d="M286 381l-10 -50h-248l10 50h248zM192 282l-74 -108c7 2 14 3 20 3c41 -1 72 -32 72 -74c0 -57 -38 -106 -101 -106c-52 0 -90 35 -90 81c0 26 9 50 35 87l80 117h58zM119 136c-29 0 -45 -23 -45 -53c0 -22 12 -36 36 -36c28 0 44 21 44 52c0 21 -14 37 -35 37zM257 712
l-56 -282h-57l44 219l-69 -51l13 63l68 51h57z" />
    <glyph glyph-name="uni215A.afrc" horiz-adv-x="272" 
d="M286 381l-10 -50h-248l10 50h248zM172 427c-43 0 -74 25 -74 64v7h48c0 -15 13 -25 28 -25c31 0 43 17 49 46c1 6 2 14 2 21c0 20 -8 34 -30 34c-17 0 -32 -10 -38 -27h-46l33 165h159l-9 -42h-111l-14 -70c9 8 23 15 42 15c43 0 66 -30 66 -69c0 -10 -2 -21 -3 -28
c-6 -31 -14 -47 -30 -64s-38 -27 -72 -27zM191 282l-74 -108c7 2 14 3 20 3c41 -1 72 -32 72 -74c0 -57 -38 -106 -101 -106c-52 0 -90 35 -90 81c0 26 9 50 35 87l80 117h58zM118 136c-29 0 -45 -23 -45 -53c0 -22 12 -36 36 -36c28 0 44 21 44 52c0 21 -14 37 -35 37z" />
    <glyph glyph-name="oneeighth.afrc" horiz-adv-x="272" 
d="M286 381l-10 -50h-248l10 50h248zM95 -3c-49 0 -87 28 -87 75c0 35 21 67 56 78c-16 9 -27 23 -27 50c0 41 40 85 100 85c47 0 84 -30 84 -75c0 -32 -23 -59 -50 -67c18 -7 29 -28 29 -55c0 -52 -42 -91 -105 -91zM98 43c27 0 45 20 45 48c0 20 -13 34 -32 34
c-28 0 -45 -19 -45 -48c0 -20 12 -34 32 -34zM123 164c23 0 40 19 40 45c0 18 -11 30 -29 30c-23 0 -39 -19 -39 -42c0 -19 11 -33 28 -33zM257 712l-56 -282h-57l44 219l-69 -51l13 63l68 51h57z" />
    <glyph glyph-name="threeeighths.afrc" horiz-adv-x="272" 
d="M286 381l-10 -50h-248l10 50h248zM180 427c-51 0 -85 27 -85 69c0 7 0 11 2 19h55c-1 -5 -1 -6 -1 -8c0 -19 11 -29 34 -29c31 0 47 23 47 48c0 19 -9 31 -35 31h-11l8 38h11c27 0 44 19 44 42c0 19 -11 28 -29 28s-35 -14 -42 -35h-56c14 52 50 85 105 85
c50 0 78 -33 78 -70c0 -34 -20 -59 -49 -68c19 -7 30 -26 30 -53c0 -52 -41 -97 -106 -97zM97 -3c-49 0 -87 28 -87 75c0 35 21 67 56 78c-16 9 -27 23 -27 50c0 41 40 85 100 85c47 0 84 -30 84 -75c0 -32 -23 -59 -50 -67c18 -7 29 -28 29 -55c0 -52 -42 -91 -105 -91z
M100 43c27 0 45 20 45 48c0 20 -13 34 -32 34c-28 0 -45 -19 -45 -48c0 -20 12 -34 32 -34zM125 164c23 0 40 19 40 45c0 18 -11 30 -29 30c-23 0 -39 -19 -39 -42c0 -19 11 -33 28 -33z" />
    <glyph glyph-name="fiveeighths.afrc" horiz-adv-x="272" 
d="M286 381l-10 -50h-248l10 50h248zM172 427c-43 0 -74 25 -74 64v7h48c0 -15 13 -25 28 -25c31 0 43 17 49 46c1 6 2 14 2 21c0 20 -8 34 -30 34c-17 0 -32 -10 -38 -27h-46l33 165h159l-9 -42h-111l-14 -70c9 8 23 15 42 15c43 0 66 -30 66 -69c0 -10 -2 -21 -3 -28
c-6 -31 -14 -47 -30 -64s-38 -27 -72 -27zM95 -3c-49 0 -87 28 -87 75c0 35 21 67 56 78c-16 9 -27 23 -27 50c0 41 40 85 100 85c47 0 84 -30 84 -75c0 -32 -23 -59 -50 -67c18 -7 29 -28 29 -55c0 -52 -42 -91 -105 -91zM98 43c27 0 45 20 45 48c0 20 -13 34 -32 34
c-28 0 -45 -19 -45 -48c0 -20 12 -34 32 -34zM123 164c23 0 40 19 40 45c0 18 -11 30 -29 30c-23 0 -39 -19 -39 -42c0 -19 11 -33 28 -33z" />
    <glyph glyph-name="seveneighths.afrc" horiz-adv-x="272" 
d="M286 381l-10 -50h-248l10 50h248zM254 662h-78l-8 -40h-54l18 90h186l-11 -54l-131 -228h-56zM95 -3c-49 0 -87 28 -87 75c0 35 21 67 56 78c-16 9 -27 23 -27 50c0 41 40 85 100 85c47 0 84 -30 84 -75c0 -32 -23 -59 -50 -67c18 -7 29 -28 29 -55
c0 -52 -42 -91 -105 -91zM98 43c27 0 45 20 45 48c0 20 -13 34 -32 34c-28 0 -45 -19 -45 -48c0 -20 12 -34 32 -34zM123 164c23 0 40 19 40 45c0 18 -11 30 -29 30c-23 0 -39 -19 -39 -42c0 -19 11 -33 28 -33z" />
    <glyph glyph-name="uni215F.afrc" horiz-adv-x="272" 
d="M286 381l-10 -50h-248l10 50h248zM257 712l-56 -282h-57l44 219l-69 -51l13 63l68 51h57z" />
    <glyph glyph-name="uni2189.afrc" horiz-adv-x="272" 
d="M286 381l-10 -50h-248l10 50h248zM182 477c21 0 37 13 43 43l22 104c1 5 2 13 2 18c0 15 -11 23 -29 23c-21 0 -38 -13 -44 -43l-22 -104c-1 -5 -2 -13 -2 -18c0 -15 12 -23 30 -23zM175 427c-42 0 -77 28 -77 71c0 6 1 13 2 19l22 107c14 68 57 91 104 91
c42 0 77 -28 77 -71c0 -6 -1 -13 -2 -19l-22 -107c-14 -68 -57 -91 -104 -91zM95 -3c-51 0 -85 27 -85 69c0 7 0 11 2 19h55c-1 -5 -1 -6 -1 -8c0 -19 11 -29 34 -29c31 0 47 23 47 48c0 19 -9 31 -35 31h-11l8 38h11c27 0 44 19 44 42c0 19 -11 28 -29 28s-35 -14 -42 -35
h-56c14 52 50 85 105 85c50 0 78 -33 78 -70c0 -34 -20 -59 -49 -68c19 -7 30 -26 30 -53c0 -52 -41 -97 -106 -97z" />
    <glyph glyph-name="zero.sinf" horiz-adv-x="225" 
d="M72 47c21 0 37 13 43 43l22 104c1 5 2 13 2 18c0 15 -11 23 -29 23c-21 0 -38 -13 -44 -43l-22 -104c-1 -5 -2 -13 -2 -18c0 -15 12 -23 30 -23zM65 -3c-42 0 -77 28 -77 71c0 6 1 13 2 19l22 107c14 68 57 91 104 91c42 0 77 -28 77 -71c0 -6 -1 -13 -2 -19l-22 -107
c-14 -68 -57 -91 -104 -91z" />
    <glyph glyph-name="one.sinf" horiz-adv-x="227" 
d="M164 282l-56 -282h-57l44 219l-69 -51l13 63l68 51h57z" />
    <glyph glyph-name="two.sinf" horiz-adv-x="224" 
d="M-26 0l9 47l130 122c17 15 23 27 23 41c0 18 -10 28 -29 28s-34 -10 -41 -37h-56c13 57 52 84 104 84c45 0 78 -31 78 -71c0 -29 -14 -49 -41 -75l-97 -92h110l-10 -47h-180z" />
    <glyph glyph-name="three.sinf" horiz-adv-x="226" 
d="M66 -3c-51 0 -85 27 -85 69c0 7 0 11 2 19h55c-1 -5 -1 -6 -1 -8c0 -19 11 -29 34 -29c31 0 47 23 47 48c0 19 -9 31 -35 31h-11l8 38h11c27 0 44 19 44 42c0 19 -11 28 -29 28s-35 -14 -42 -35h-56c14 52 50 85 105 85c50 0 78 -33 78 -70c0 -34 -20 -59 -49 -68
c19 -7 30 -26 30 -53c0 -52 -41 -97 -106 -97z" />
    <glyph glyph-name="four.sinf" horiz-adv-x="225" 
d="M97 44h-125l9 46l126 192h56l-125 -191h68l13 61h47l-12 -63h26l-9 -45h-26l-9 -44h-47z" />
    <glyph glyph-name="five.sinf" horiz-adv-x="218" 
d="M63 -3c-43 0 -74 25 -74 64v7h48c0 -15 13 -25 28 -25c31 0 43 17 49 46c1 6 2 14 2 21c0 20 -8 34 -30 34c-17 0 -32 -10 -38 -27h-46l33 165h159l-9 -42h-111l-14 -70c9 8 23 15 42 15c43 0 66 -30 66 -69c0 -10 -2 -21 -3 -28c-6 -31 -14 -47 -30 -64s-38 -27 -72 -27
z" />
    <glyph glyph-name="six.sinf" horiz-adv-x="231" 
d="M161 282l-74 -108c7 2 14 3 20 3c41 -1 72 -32 72 -74c0 -57 -38 -106 -101 -106c-52 0 -90 35 -90 81c0 26 9 50 35 87l80 117h58zM88 136c-29 0 -45 -23 -45 -53c0 -22 12 -36 36 -36c28 0 44 21 44 52c0 21 -14 37 -35 37z" />
    <glyph glyph-name="seven.sinf" horiz-adv-x="225" 
d="M150 232h-78l-8 -40h-54l18 90h186l-11 -54l-131 -228h-56z" />
    <glyph glyph-name="eight.sinf" horiz-adv-x="227" 
d="M70 -3c-49 0 -87 28 -87 75c0 35 21 67 56 78c-16 9 -27 23 -27 50c0 41 40 85 100 85c47 0 84 -30 84 -75c0 -32 -23 -59 -50 -67c18 -7 29 -28 29 -55c0 -52 -42 -91 -105 -91zM73 43c27 0 45 20 45 48c0 20 -13 34 -32 34c-28 0 -45 -19 -45 -48c0 -20 12 -34 32 -34z
M98 164c23 0 40 19 40 45c0 18 -11 30 -29 30c-23 0 -39 -19 -39 -42c0 -19 11 -33 28 -33z" />
    <glyph glyph-name="nine.sinf" horiz-adv-x="231" 
d="M24 0l74 109c-7 -3 -13 -3 -20 -3c-41 1 -71 31 -71 73c0 57 38 106 101 106c52 0 90 -35 90 -81c0 -26 -9 -50 -35 -87l-81 -117h-58zM98 147c29 0 45 22 45 52c0 23 -13 37 -36 37c-29 0 -45 -21 -45 -53c0 -21 15 -36 36 -36z" />
    <glyph glyph-name="zero.sups" horiz-adv-x="225" 
d="M159 481c21 0 37 13 43 43l22 104c1 5 2 13 2 18c0 15 -11 23 -29 23c-21 0 -38 -13 -44 -43l-22 -104c-1 -5 -2 -13 -2 -18c0 -15 12 -23 30 -23zM152 431c-42 0 -77 28 -77 71c0 6 1 13 2 19l22 107c14 68 57 91 104 91c42 0 77 -28 77 -71c0 -6 -1 -13 -2 -19
l-22 -107c-14 -68 -57 -91 -104 -91z" />
    <glyph glyph-name="one.sups" horiz-adv-x="227" 
d="M251 716l-56 -282h-57l44 219l-69 -51l13 63l68 51h57z" />
    <glyph glyph-name="two.sups" horiz-adv-x="224" 
d="M61 434l9 47l130 122c17 15 23 27 23 41c0 18 -10 28 -29 28s-34 -10 -41 -37h-56c13 57 52 84 104 84c45 0 78 -31 78 -71c0 -29 -14 -49 -41 -75l-97 -92h110l-10 -47h-180z" />
    <glyph glyph-name="three.sups" horiz-adv-x="226" 
d="M153 431c-51 0 -85 27 -85 69c0 7 0 11 2 19h55c-1 -5 -1 -6 -1 -8c0 -19 11 -29 34 -29c31 0 47 23 47 48c0 19 -9 31 -35 31h-11l8 38h11c27 0 44 19 44 42c0 19 -11 28 -29 28s-35 -14 -42 -35h-56c14 52 50 85 105 85c50 0 78 -33 78 -70c0 -34 -20 -59 -49 -68
c19 -7 30 -26 30 -53c0 -52 -41 -97 -106 -97z" />
    <glyph glyph-name="four.sups" horiz-adv-x="225" 
d="M183 478h-125l9 46l126 192h56l-125 -191h68l13 61h47l-12 -63h26l-9 -45h-26l-9 -44h-47z" />
    <glyph glyph-name="five.sups" horiz-adv-x="218" 
d="M150 431c-43 0 -74 25 -74 64v7h48c0 -15 13 -25 28 -25c31 0 43 17 49 46c1 6 2 14 2 21c0 20 -8 34 -30 34c-17 0 -32 -10 -38 -27h-46l33 165h159l-9 -42h-111l-14 -70c9 8 23 15 42 15c43 0 66 -30 66 -69c0 -10 -2 -21 -3 -28c-6 -31 -14 -47 -30 -64
s-38 -27 -72 -27z" />
    <glyph glyph-name="six.sups" horiz-adv-x="231" 
d="M248 716l-74 -108c7 2 14 3 20 3c41 -1 72 -32 72 -74c0 -57 -38 -106 -101 -106c-52 0 -90 35 -90 81c0 26 9 50 35 87l80 117h58zM175 570c-29 0 -45 -23 -45 -53c0 -22 12 -36 36 -36c28 0 44 21 44 52c0 21 -14 37 -35 37z" />
    <glyph glyph-name="seven.sups" horiz-adv-x="225" 
d="M237 666h-78l-8 -40h-54l18 90h186l-11 -54l-131 -228h-56z" />
    <glyph glyph-name="eight.sups" horiz-adv-x="227" 
d="M157 431c-49 0 -87 28 -87 75c0 35 21 67 56 78c-16 9 -27 23 -27 50c0 41 40 85 100 85c47 0 84 -30 84 -75c0 -32 -23 -59 -50 -67c18 -7 29 -28 29 -55c0 -52 -42 -91 -105 -91zM160 477c27 0 45 20 45 48c0 20 -13 34 -32 34c-28 0 -45 -19 -45 -48
c0 -20 12 -34 32 -34zM185 598c23 0 40 19 40 45c0 18 -11 30 -29 30c-23 0 -39 -19 -39 -42c0 -19 11 -33 28 -33z" />
    <glyph glyph-name="nine.sups" horiz-adv-x="231" 
d="M111 434l74 109c-7 -3 -13 -3 -20 -3c-41 1 -71 31 -71 73c0 57 38 106 101 106c52 0 90 -35 90 -81c0 -26 -9 -50 -35 -87l-81 -117h-58zM185 581c29 0 45 22 45 52c0 23 -13 37 -36 37c-29 0 -45 -21 -45 -53c0 -21 15 -36 36 -36z" />
    <glyph glyph-name="a.sups" horiz-adv-x="291" 
d="M136 325c-53 0 -83 28 -83 70c0 27 8 47 25 63c18 18 43 26 83 26h74l4 20c1 6 2 11 2 16c0 16 -15 30 -49 30c-26 0 -45 -9 -60 -25l-35 44c22 22 54 36 106 36c57 0 102 -27 102 -78c0 -9 -1 -20 -3 -29l-35 -170h-63l6 31c-18 -22 -41 -34 -74 -34zM154 374
c22 0 40 8 52 21c9 10 16 23 18 35l4 16h-59c-37 0 -56 -17 -56 -43c0 -17 11 -29 41 -29z" />
    <glyph glyph-name="b.sups" horiz-adv-x="305" 
d="M194 325c-30 0 -53 12 -64 39l-7 -36h-65l77 386h66l-28 -141c18 23 43 33 71 33c43 0 81 -27 81 -83c0 -15 -2 -36 -7 -60c-7 -40 -21 -82 -44 -106c-19 -21 -49 -32 -80 -32zM187 384c32 0 55 27 65 79c3 19 5 33 5 43c0 23 -14 41 -41 41c-28 0 -52 -19 -64 -83
c-3 -15 -4 -29 -4 -40c0 -17 10 -40 39 -40z" />
    <glyph glyph-name="c.sups" horiz-adv-x="263" 
d="M218 605c43 0 71 -19 84 -37l-50 -44c-12 16 -23 22 -42 22c-17 0 -28 -5 -40 -16c-16 -14 -26 -34 -32 -64c-2 -14 -4 -22 -4 -31c0 -36 17 -51 45 -51c18 0 33 5 53 24l36 -46c-21 -21 -58 -37 -96 -37c-67 0 -104 44 -104 100c0 12 1 27 4 42c21 105 85 138 146 138z
" />
    <glyph glyph-name="d.sups" horiz-adv-x="305" 
d="M355 712l-77 -384h-65l5 29c-18 -23 -43 -33 -71 -33c-43 0 -81 28 -81 84c0 14 2 36 7 59c9 49 23 85 45 108c18 20 43 30 74 30c36 0 58 -14 67 -39l30 146h66zM204 546c-32 0 -55 -27 -65 -79c-3 -19 -5 -32 -5 -42c0 -24 14 -41 41 -41c28 0 52 19 65 83
c3 15 4 28 4 39c0 18 -11 40 -40 40z" />
    <glyph glyph-name="e.sups" horiz-adv-x="289" 
d="M172 325c-52 0 -104 27 -104 99c0 96 49 183 142 183c55 0 97 -34 97 -97c0 -19 -4 -43 -8 -62h-173c-1 -8 -2 -13 -2 -22c0 -32 20 -50 56 -50c27 0 48 7 67 25l32 -37c-25 -24 -63 -39 -107 -39zM135 489h114c1 9 1 15 1 21c0 29 -16 45 -46 45c-36 0 -58 -29 -69 -66z
" />
    <glyph glyph-name="g.sups" horiz-adv-x="306" 
d="M137 216c-44 0 -74 12 -100 40l40 35c14 -15 33 -22 61 -22c36 0 66 17 76 68l5 27c-15 -19 -36 -30 -71 -30c-49 0 -81 28 -81 81c0 15 1 33 5 52c10 49 23 83 45 107c18 20 44 32 77 32c36 0 58 -14 66 -39l8 35h66l-54 -271c-17 -83 -64 -115 -143 -115zM176 385
c34 0 51 22 63 82c4 17 5 29 5 40c0 17 -11 40 -40 40c-37 0 -55 -31 -64 -80c-4 -19 -5 -31 -5 -41c0 -23 14 -41 41 -41z" />
    <glyph glyph-name="h.sups" horiz-adv-x="317" 
d="M201 712l-27 -137c20 20 46 30 75 30c41 0 81 -26 81 -81c0 -12 -2 -24 -5 -38l-31 -158h-67l31 152c3 14 3 23 3 28c0 25 -15 38 -39 38c-19 0 -56 -9 -67 -63l-31 -155h-66l77 384h66z" />
    <glyph glyph-name="l.sups" horiz-adv-x="184" 
d="M184 328h-27c-38 0 -57 7 -69 19s-17 28 -17 47c0 7 4 30 7 46l54 272h67l-55 -274c-1 -7 -3 -19 -3 -24c0 -17 10 -26 31 -26h23z" />
    <glyph glyph-name="m.sups" horiz-adv-x="486" 
d="M414 605c45 0 85 -28 85 -81c0 -12 -1 -24 -4 -38l-32 -158h-66l30 152c3 14 4 23 4 28c0 25 -16 38 -39 38c-22 0 -57 -12 -68 -65l-30 -153h-67l31 152c3 14 3 23 3 28c0 25 -15 38 -39 38c-19 0 -56 -9 -67 -63l-31 -155h-66l54 274h67l-6 -30c21 23 47 33 76 33
c30 0 58 -14 71 -41c24 25 53 41 94 41z" />
    <glyph glyph-name="o.sups" horiz-adv-x="298" 
d="M215 606c56 0 102 -28 102 -89c0 -15 -3 -34 -6 -52c-11 -58 -27 -88 -53 -110c-23 -19 -56 -30 -91 -30c-57 0 -103 28 -103 89c0 15 3 34 7 51c12 59 27 89 53 111c23 19 56 30 91 30zM207 547c-37 0 -59 -26 -70 -82c-4 -17 -5 -30 -5 -37c0 -28 17 -44 42 -44
c38 0 60 26 71 81c3 18 5 30 5 38c0 28 -17 44 -43 44z" />
    <glyph glyph-name="p.sups" horiz-adv-x="305" 
d="M244 606c43 0 81 -27 81 -83c0 -15 -3 -36 -7 -60c-9 -48 -23 -85 -45 -108c-19 -20 -43 -30 -74 -30c-37 0 -58 15 -68 40l-29 -147h-67l78 384h65l-5 -29c18 23 43 33 71 33zM215 547c-27 0 -51 -19 -64 -83c-3 -15 -4 -29 -4 -40c0 -17 11 -40 39 -40
c33 0 55 27 65 79c4 19 6 33 6 43c0 23 -14 41 -42 41z" />
    <glyph glyph-name="r.sups" horiz-adv-x="248" 
d="M248 605c30 0 50 -12 64 -28l-52 -47c-8 8 -20 16 -40 16c-30 0 -57 -22 -65 -64l-31 -154h-66l54 274h65l-5 -28c16 19 43 31 76 31z" />
    <glyph glyph-name="s.sups" horiz-adv-x="280" 
d="M156 325c-53 0 -89 13 -116 39l43 36c13 -14 37 -28 76 -28c43 0 68 14 68 41c0 19 -12 26 -32 29l-40 6c-56 8 -74 35 -74 65c0 22 10 44 30 62c22 20 54 31 98 31c42 0 71 -10 99 -32l-39 -35c-18 14 -40 20 -64 20c-44 0 -60 -19 -61 -38c0 -15 9 -25 31 -28l41 -5
c50 -7 75 -32 75 -70c0 -27 -13 -48 -31 -63c-25 -21 -64 -30 -104 -30z" />
    <glyph glyph-name="t.sups" horiz-adv-x="205" 
d="M203 680l-16 -80h52l-9 -48h-53l-22 -114c-2 -9 -4 -19 -4 -24c0 -17 10 -26 31 -26h24l-12 -60h-27c-37 0 -56 7 -69 19c-11 12 -17 28 -17 46c0 7 4 29 8 47l22 112h-33l9 48h33l17 80h66z" />
    <glyph glyph-name="u.sups" horiz-adv-x="316" 
d="M344 602l-55 -274h-66l5 27c-21 -20 -47 -30 -75 -30c-41 0 -81 26 -81 81c0 12 2 24 5 38l31 158h67l-31 -152c-3 -14 -4 -23 -4 -29c0 -24 16 -37 40 -37c19 0 56 9 67 63l31 155h66z" />
    <glyph glyph-name="copyright.sups" horiz-adv-x="521" 
d="M316 266c-125 0 -226 100 -226 226s101 226 226 226c126 0 226 -100 226 -226s-100 -226 -226 -226zM321 368c-60 0 -108 41 -108 124s48 124 108 124c30 0 53 -10 76 -30l-28 -29c-17 15 -30 20 -48 20c-20 0 -35 -5 -47 -20c-12 -14 -17 -36 -17 -65s5 -51 17 -65
c12 -15 27 -20 47 -20c18 0 31 5 48 20l28 -29c-23 -20 -46 -30 -76 -30zM316 307c104 0 183 79 183 185s-79 185 -183 185c-103 0 -182 -79 -182 -185s79 -185 182 -185z" />
    <glyph glyph-name="registered.sups" horiz-adv-x="521" 
d="M316 266c-125 0 -226 100 -226 226s101 226 226 226c126 0 226 -100 226 -226s-100 -226 -226 -226zM316 307c104 0 183 79 183 185s-79 185 -183 185c-103 0 -182 -79 -182 -185s79 -185 182 -185zM229 373v240h105c46 0 79 -28 79 -72c0 -33 -17 -57 -48 -66l52 -102
h-47l-50 95h-47v-95h-44zM273 506h55c27 0 40 11 40 35c0 23 -13 35 -40 35h-55v-70z" />
    <glyph glyph-name="egrave.sups" horiz-adv-x="289" 
d="M216 733l28 -88h-43l-40 88h55zM172 325c-52 0 -104 27 -104 99c0 96 49 183 142 183c55 0 97 -34 97 -97c0 -19 -4 -43 -8 -62h-173c-1 -8 -2 -13 -2 -22c0 -32 20 -50 56 -50c27 0 48 7 67 25l32 -37c-25 -24 -63 -39 -107 -39zM135 489h114c1 9 1 15 1 21
c0 29 -16 45 -46 45c-36 0 -58 -29 -69 -66z" />
    <glyph glyph-name="uni2117.sups" horiz-adv-x="521" 
d="M316 266c-125 0 -226 100 -226 226s101 226 226 226c126 0 226 -100 226 -226s-100 -226 -226 -226zM316 307c104 0 183 79 183 185s-79 185 -183 185c-103 0 -182 -79 -182 -185s79 -185 182 -185zM238 373v240h104c46 0 79 -28 79 -74c0 -48 -33 -76 -79 -76h-60v-90
h-44zM282 501h54c27 0 41 12 41 38c0 25 -14 37 -41 37h-54v-75z" />
    <glyph glyph-name="zero.numr" horiz-adv-x="318" 
d="M171 281c-65 0 -106 43 -106 103c0 9 1 19 3 29l34 174c19 100 87 129 142 129c67 0 107 -43 107 -103c0 -8 -1 -20 -3 -29l-34 -174c-20 -100 -84 -129 -143 -129zM179 352c25 0 54 13 63 60l33 170c2 9 3 15 3 22c0 31 -20 41 -41 41c-25 0 -53 -13 -62 -60l-34 -169
c-2 -8 -3 -15 -3 -22c0 -31 18 -42 41 -42z" />
    <glyph glyph-name="one.numr" horiz-adv-x="322" 
d="M219 624l-95 -70l18 90l95 68h73l-84 -427h-74z" />
    <glyph glyph-name="two.numr" horiz-adv-x="315" 
d="M41 285l14 64l187 186c26 26 36 44 36 70c0 29 -16 46 -46 46s-51 -14 -60 -58h-73c17 83 69 123 139 123c66 0 112 -42 112 -107c0 -47 -26 -83 -64 -120l-141 -139h160l-13 -65h-251z" />
    <glyph glyph-name="three.numr" horiz-adv-x="318" 
d="M239 716c63 0 109 -41 109 -107c0 -41 -19 -83 -68 -106c28 -17 39 -41 39 -80c0 -78 -59 -142 -146 -142c-80 0 -120 46 -120 99c0 10 1 18 2 25h71c-1 -6 -1 -9 -1 -13c0 -28 15 -46 50 -46c44 0 71 36 71 77c0 36 -18 51 -48 51h-13l13 62h11c44 0 66 36 66 70
c0 32 -15 45 -42 45c-29 0 -52 -19 -64 -55h-73c18 80 72 120 143 120z" />
    <glyph glyph-name="four.numr" horiz-adv-x="314" 
d="M208 348h-167l11 62l201 302h77l-201 -300h91l18 87h67l-18 -87h42l-12 -64h-42l-13 -63h-67z" />
    <glyph glyph-name="five.numr" horiz-adv-x="321" 
d="M179 281c-66 0 -111 42 -111 98c0 4 0 10 1 19h70v-11c0 -23 12 -40 44 -40c42 0 59 29 69 79c2 8 4 18 4 27c0 34 -11 56 -45 56c-28 0 -46 -16 -57 -38h-66l47 241h235l-13 -66h-170l-19 -98c20 16 39 21 60 21c74 0 102 -49 102 -106c0 -11 -2 -29 -4 -39
c-7 -37 -21 -78 -50 -106c-23 -22 -54 -37 -97 -37z" />
    <glyph glyph-name="six.numr" horiz-adv-x="319" 
d="M185 281c-78 0 -123 57 -123 113c0 32 10 67 41 113l138 205h79l-122 -182c9 3 16 5 26 5c54 0 96 -46 96 -110c0 -74 -49 -144 -135 -144zM186 348c37 0 62 36 62 77c0 31 -20 52 -51 52c-38 0 -62 -35 -62 -76c0 -34 21 -53 51 -53z" />
    <glyph glyph-name="seven.numr" horiz-adv-x="317" 
d="M296 647h-116l-13 -70h-67l27 135h257l-13 -63l-201 -364h-75z" />
    <glyph glyph-name="eight.numr" horiz-adv-x="315" 
d="M236 716c67 0 114 -43 114 -110c0 -51 -31 -91 -70 -106c21 -10 41 -38 41 -78c0 -79 -56 -142 -145 -142c-68 0 -119 42 -119 113c0 51 27 99 77 118c-18 12 -35 36 -35 76c0 63 52 129 137 129zM200 473c-44 0 -70 -30 -70 -75c0 -32 18 -52 49 -52c42 0 69 30 69 75
c0 31 -18 52 -48 52zM234 651c-37 0 -62 -32 -62 -67c0 -30 15 -49 43 -49c36 0 63 28 63 69c0 29 -17 47 -44 47z" />
    <glyph glyph-name="nine.numr" horiz-adv-x="318" 
d="M230 716c79 0 123 -57 123 -113c0 -32 -10 -67 -41 -113l-137 -205h-79l121 182c-8 -3 -16 -5 -25 -5c-54 0 -97 46 -97 110c0 74 50 144 135 144zM230 649c-37 0 -62 -36 -62 -77c0 -31 20 -52 50 -52c38 0 62 35 62 76c0 34 -20 53 -50 53z" />
    <glyph glyph-name="zero.dnom" horiz-adv-x="318" 
d="M114 -4c-65 0 -106 43 -106 103c0 9 1 19 3 29l34 174c19 100 87 129 142 129c67 0 107 -43 107 -103c0 -8 -1 -20 -3 -29l-34 -174c-20 -100 -84 -129 -143 -129zM122 67c25 0 54 13 63 60l33 170c2 9 3 15 3 22c0 31 -20 41 -41 41c-25 0 -53 -13 -62 -60l-34 -169
c-2 -8 -3 -15 -3 -22c0 -31 18 -42 41 -42z" />
    <glyph glyph-name="one.dnom" horiz-adv-x="322" 
d="M162 339l-95 -70l18 90l95 68h73l-84 -427h-74z" />
    <glyph glyph-name="two.dnom" horiz-adv-x="315" 
d="M-16 0l14 64l187 186c26 26 36 44 36 70c0 29 -16 46 -46 46s-51 -14 -60 -58h-73c17 83 69 123 139 123c66 0 112 -42 112 -107c0 -47 -26 -83 -64 -120l-141 -139h160l-13 -65h-251z" />
    <glyph glyph-name="three.dnom" horiz-adv-x="318" 
d="M182 431c63 0 109 -41 109 -107c0 -41 -19 -83 -68 -106c28 -17 39 -41 39 -80c0 -78 -59 -142 -146 -142c-80 0 -120 46 -120 99c0 10 1 18 2 25h71c-1 -6 -1 -9 -1 -13c0 -28 15 -46 50 -46c44 0 71 36 71 77c0 36 -18 51 -48 51h-13l13 62h11c44 0 66 36 66 70
c0 32 -15 45 -42 45c-29 0 -52 -19 -64 -55h-73c18 80 72 120 143 120z" />
    <glyph glyph-name="four.dnom" horiz-adv-x="314" 
d="M150 63h-167l11 62l201 302h77l-201 -300h91l18 87h67l-18 -87h42l-12 -64h-42l-13 -63h-67z" />
    <glyph glyph-name="five.dnom" horiz-adv-x="321" 
d="M121 -4c-66 0 -111 42 -111 98c0 4 0 10 1 19h70v-11c0 -23 12 -40 44 -40c42 0 59 29 69 79c2 8 4 18 4 27c0 34 -11 56 -45 56c-28 0 -46 -16 -57 -38h-66l47 241h235l-13 -66h-170l-19 -98c20 16 39 21 60 21c74 0 102 -49 102 -106c0 -11 -2 -29 -4 -39
c-7 -37 -21 -78 -50 -106c-23 -22 -54 -37 -97 -37z" />
    <glyph glyph-name="six.dnom" horiz-adv-x="319" 
d="M129 -4c-78 0 -123 57 -123 113c0 32 10 67 41 113l138 205h79l-122 -182c9 3 16 5 26 5c54 0 96 -46 96 -110c0 -74 -49 -144 -135 -144zM130 63c37 0 62 36 62 77c0 31 -20 52 -51 52c-38 0 -62 -35 -62 -76c0 -34 21 -53 51 -53z" />
    <glyph glyph-name="seven.dnom" horiz-adv-x="317" 
d="M238 362h-116l-13 -70h-67l27 135h257l-13 -63l-201 -364h-75z" />
    <glyph glyph-name="eight.dnom" horiz-adv-x="315" 
d="M179 431c67 0 114 -43 114 -110c0 -51 -31 -91 -70 -106c21 -10 41 -38 41 -78c0 -79 -56 -142 -145 -142c-68 0 -119 42 -119 113c0 51 27 99 77 118c-18 12 -35 36 -35 76c0 63 52 129 137 129zM143 188c-44 0 -70 -30 -70 -75c0 -32 18 -52 49 -52c42 0 69 30 69 75
c0 31 -18 52 -48 52zM177 366c-37 0 -62 -32 -62 -67c0 -30 15 -49 43 -49c36 0 63 28 63 69c0 29 -17 47 -44 47z" />
    <glyph glyph-name="nine.dnom" horiz-adv-x="318" 
d="M174 431c79 0 123 -57 123 -113c0 -32 -10 -67 -41 -113l-137 -205h-79l121 182c-8 -3 -16 -5 -25 -5c-54 0 -97 46 -97 110c0 74 50 144 135 144zM174 364c-37 0 -62 -36 -62 -77c0 -31 20 -52 50 -52c38 0 62 35 62 76c0 34 -20 53 -50 53z" />
    <glyph glyph-name="space.frac" horiz-adv-x="45" 
 />
    <glyph glyph-name="zero.osf" horiz-adv-x="506" 
d="M213 -6c-99 0 -170 62 -170 162c0 12 2 34 5 49l38 191c31 154 127 207 225 207c99 0 170 -62 170 -162c0 -12 -2 -34 -5 -49l-38 -191c-31 -154 -127 -207 -225 -207zM222 80c51 0 101 30 119 119l39 196c3 12 5 29 5 38c0 63 -45 84 -83 84c-51 0 -101 -30 -119 -119
l-39 -196c-3 -12 -5 -29 -5 -38c0 -63 45 -84 83 -84z" />
    <glyph glyph-name="one.osf" horiz-adv-x="386" 
d="M348 597l-119 -597h-97l98 485l-157 -116l22 114l156 114h97z" />
    <glyph glyph-name="two.osf" horiz-adv-x="505" 
d="M-5 0l17 86l270 225c70 58 95 91 95 139c0 51 -34 87 -85 87c-48 0 -100 -21 -119 -106h-97c27 140 117 192 226 192c107 0 173 -69 173 -169c0 -77 -51 -133 -137 -206l-190 -162h277l-18 -86h-412z" />
    <glyph glyph-name="three.osf" horiz-adv-x="500" 
d="M303 603c100 0 166 -67 166 -162c0 -83 -37 -157 -117 -192c48 -23 70 -61 70 -129c0 -128 -94 -243 -234 -243c-123 0 -188 67 -188 163c0 13 0 24 2 32h95c-1 -4 -1 -17 -1 -21c0 -49 29 -87 92 -87c77 0 137 71 137 153c0 56 -30 89 -95 89h-17l16 84h18
c75 0 125 69 125 142c0 52 -30 84 -82 84c-56 0 -105 -38 -121 -102h-98c31 128 117 189 232 189z" />
    <glyph glyph-name="four.osf" horiz-adv-x="540" 
d="M456 635l-339 -512h186l35 174h93l-34 -174h83l-18 -90h-83l-31 -156h-93l31 156h-293l18 90l339 512h106z" />
    <glyph glyph-name="five.osf" 
d="M194 -122c-116 0 -169 72 -169 158c0 8 0 18 2 31h93c-1 -6 -1 -13 -1 -21c0 -47 23 -81 78 -81c85 0 120 69 136 157c5 25 7 48 7 68c0 49 -16 86 -75 86c-52 0 -90 -25 -114 -66h-86l77 387h363l-17 -86h-276l-39 -192c35 29 68 39 115 39c107 0 151 -72 151 -155
c0 -27 -3 -54 -8 -81c-15 -72 -34 -137 -81 -184c-36 -37 -87 -60 -156 -60z" />
    <glyph glyph-name="six.osf" horiz-adv-x="510" 
d="M459 728l-223 -302c17 7 37 10 59 10c89 0 169 -61 169 -193c0 -131 -85 -249 -229 -249s-200 101 -200 199c0 73 29 135 86 215l232 320h106zM266 358c-86 0 -135 -83 -135 -159c0 -72 39 -120 102 -120c81 0 135 76 135 160c0 72 -39 119 -102 119z" />
    <glyph glyph-name="seven.osf" horiz-adv-x="503" 
d="M539 597l-17 -86l-384 -632h-106l384 632h-229l-22 -108h-93l39 194h428z" />
    <glyph glyph-name="eight.osf" horiz-adv-x="527" 
d="M339 718c100 0 176 -66 176 -173c0 -81 -47 -152 -116 -184c37 -27 65 -66 65 -137c0 -120 -83 -230 -238 -230c-99 0 -185 55 -185 178c0 89 42 161 130 202c-31 25 -56 62 -56 122c0 123 92 222 224 222zM272 324c-80 0 -134 -65 -134 -145c0 -59 35 -99 94 -99
c81 0 134 62 134 145c0 59 -35 99 -94 99zM333 632c-75 0 -121 -68 -121 -136c0 -51 28 -88 84 -88c75 0 122 68 122 136c0 51 -29 88 -85 88z" />
    <glyph glyph-name="nine.osf" horiz-adv-x="510" 
d="M294 603c144 0 200 -101 200 -199c0 -73 -29 -135 -86 -215l-232 -320h-106l223 302c-17 -7 -37 -10 -59 -10c-89 0 -169 61 -169 193c0 131 85 249 229 249zM296 518c-81 0 -135 -76 -135 -160c0 -72 39 -119 102 -119c86 0 135 83 135 159c0 72 -39 120 -102 120z" />
    <glyph glyph-name="zero.lf" 
d="M211 -6c-93 0 -167 59 -167 163c0 15 2 31 5 48l61 306c32 163 141 207 228 207c93 0 167 -59 167 -163c0 -15 -2 -31 -5 -48l-61 -306c-32 -163 -141 -207 -228 -207zM217 80c51 0 108 28 126 119l61 311c3 15 5 28 5 40c0 60 -41 82 -77 82c-51 0 -108 -28 -126 -119
l-61 -311c-3 -15 -5 -28 -5 -40c0 -60 41 -82 77 -82z" />
    <glyph glyph-name="one.lf" horiz-adv-x="449" 
d="M430 712l-143 -712h-96l120 600l-157 -116l22 114l157 114h97z" />
    <glyph glyph-name="two.lf" horiz-adv-x="506" 
d="M336 718c105 0 171 -61 171 -170c0 -82 -41 -131 -94 -187l-263 -275h276l-17 -86h-400l18 86l320 335c43 44 62 75 62 123c0 57 -30 88 -82 88c-53 0 -104 -30 -123 -111h-97c24 132 108 197 229 197z" />
    <glyph glyph-name="three.lf" horiz-adv-x="505" 
d="M331 718c100 0 166 -67 166 -162c0 -83 -37 -156 -117 -191c48 -23 70 -61 70 -129c0 -128 -94 -242 -234 -242c-123 0 -188 67 -188 163c0 13 0 24 2 32h95c-1 -4 -1 -17 -1 -21c0 -49 29 -87 92 -87c77 0 137 70 137 152c0 56 -30 89 -95 89h-17l16 84h18
c75 0 125 68 125 141c0 52 -30 84 -82 84c-56 0 -105 -38 -121 -102h-98c31 128 117 189 232 189z" />
    <glyph glyph-name="four.lf" horiz-adv-x="506" 
d="M467 712l-337 -512h168l33 164h93l-33 -164h76l-19 -90h-74l-22 -110h-93l22 110h-277l18 90l337 512h108z" />
    <glyph glyph-name="five.lf" horiz-adv-x="506" 
d="M529 712l-17 -86h-276l-39 -192c35 29 68 39 115 39c107 0 151 -72 151 -155c0 -27 -3 -54 -8 -81c-15 -72 -34 -136 -81 -183c-36 -37 -87 -60 -156 -60c-116 0 -169 72 -169 158c0 8 0 18 2 31h93c-1 -6 -1 -13 -1 -21c0 -47 23 -81 78 -81c85 0 120 68 136 156
c5 25 7 48 7 68c0 49 -16 86 -75 86c-52 0 -90 -25 -114 -66h-86l77 387h363z" />
    <glyph glyph-name="six.lf" horiz-adv-x="506" 
d="M449 712l-208 -311c15 5 28 9 48 9c99 0 160 -73 160 -181c0 -136 -94 -235 -218 -235c-137 0 -188 96 -188 184c0 67 23 117 78 199l222 335h106zM260 331c-84 0 -121 -82 -121 -146c0 -63 34 -105 91 -105c78 0 122 75 122 146c0 63 -35 105 -92 105z" />
    <glyph glyph-name="seven.lf" horiz-adv-x="506" 
d="M557 712l-17 -86l-345 -626h-107l346 626h-210l-21 -108h-93l38 194h409z" />
    <glyph glyph-name="eight.lf" horiz-adv-x="507" 
d="M330 718c100 0 176 -66 176 -173c0 -81 -47 -152 -116 -184c37 -27 65 -66 65 -137c0 -120 -83 -230 -238 -230c-99 0 -185 55 -185 178c0 89 42 161 130 202c-31 25 -56 62 -56 122c0 123 92 222 224 222zM263 324c-80 0 -134 -65 -134 -145c0 -59 35 -99 94 -99
c81 0 134 62 134 145c0 59 -35 99 -94 99zM324 632c-75 0 -121 -68 -121 -136c0 -51 28 -88 84 -88c75 0 122 68 122 136c0 51 -29 88 -85 88z" />
    <glyph glyph-name="nine.lf" horiz-adv-x="506" 
d="M318 718c137 0 188 -96 188 -184c0 -67 -23 -117 -78 -199l-222 -335h-106l208 311c-15 -5 -28 -9 -48 -9c-99 0 -160 73 -160 181c0 136 94 235 218 235zM319 632c-78 0 -122 -75 -122 -146c0 -63 35 -105 92 -105c84 0 121 82 121 146c0 63 -34 105 -91 105z" />
    <glyph glyph-name="zero.tosf" 
d="M214 -6c-99 0 -170 62 -170 162c0 12 2 34 5 49l38 191c31 154 127 207 225 207c99 0 170 -62 170 -162c0 -12 -2 -34 -5 -49l-38 -191c-31 -154 -127 -207 -225 -207zM223 80c51 0 101 30 119 119l39 196c3 12 5 29 5 38c0 63 -45 84 -83 84c-51 0 -101 -30 -119 -119
l-39 -196c-3 -12 -5 -29 -5 -38c0 -63 45 -84 83 -84z" />
    <glyph glyph-name="one.tosf" 
d="M408 597l-119 -597h-97l97 485l-156 -116l22 114l156 114h97z" />
    <glyph glyph-name="two.tosf" 
d="M0 0l17 86l270 225c70 58 95 91 95 139c0 51 -34 87 -85 87c-48 0 -100 -21 -119 -106h-97c27 140 117 192 226 192c107 0 173 -69 173 -169c0 -77 -51 -133 -137 -206l-190 -162h277l-18 -86h-412z" />
    <glyph glyph-name="three.tosf" 
d="M307 603c100 0 166 -67 166 -162c0 -83 -37 -157 -117 -192c48 -23 70 -61 70 -129c0 -128 -94 -243 -234 -243c-123 0 -188 67 -188 163c0 13 0 24 2 32h95c-1 -4 -1 -17 -1 -21c0 -49 29 -87 92 -87c77 0 137 71 137 153c0 56 -30 89 -95 89h-17l16 84h18
c75 0 125 69 125 142c0 52 -30 84 -82 84c-56 0 -105 -38 -121 -102h-98c31 128 117 189 232 189z" />
    <glyph glyph-name="four.tosf" 
d="M453 635l-342 -512h178l35 174h94l-35 -174h75l-18 -90h-75l-31 -156h-93l31 156h-287l18 90l343 512h107z" />
    <glyph glyph-name="five.tosf" 
d="M502 597l-17 -86h-276l-39 -192c35 29 68 39 115 39c107 0 151 -72 151 -155c0 -27 -3 -54 -8 -81c-15 -72 -34 -137 -81 -184c-36 -37 -87 -60 -156 -60c-116 0 -169 72 -169 158c0 8 0 18 2 31h93c-1 -6 -1 -13 -1 -21c0 -47 23 -81 78 -81c85 0 120 69 136 157
c5 25 7 48 7 68c0 49 -16 86 -75 86c-52 0 -90 -25 -114 -66h-86l77 387h363z" />
    <glyph glyph-name="six.tosf" 
d="M458 728l-223 -302c17 7 37 10 59 10c89 0 169 -61 169 -193c0 -131 -85 -249 -229 -249s-200 101 -200 199c0 73 29 135 86 215l232 320h106zM265 358c-86 0 -135 -83 -135 -159c0 -72 39 -120 102 -120c81 0 135 76 135 160c0 72 -39 119 -102 119z" />
    <glyph glyph-name="seven.tosf" 
d="M539 597l-17 -86l-384 -632h-106l384 632h-229l-22 -108h-93l39 194h428z" />
    <glyph glyph-name="eight.tosf" 
d="M333 718c100 0 176 -66 176 -173c0 -81 -47 -152 -116 -184c37 -27 65 -66 65 -137c0 -120 -83 -230 -238 -230c-99 0 -185 55 -185 178c0 89 42 161 130 202c-31 25 -56 62 -56 122c0 123 92 222 224 222zM266 324c-80 0 -134 -65 -134 -145c0 -59 35 -99 94 -99
c81 0 134 62 134 145c0 59 -35 99 -94 99zM327 632c-75 0 -121 -68 -121 -136c0 -51 28 -88 84 -88c75 0 122 68 122 136c0 51 -29 88 -85 88z" />
    <glyph glyph-name="nine.tosf" 
d="M293 602c144 0 200 -101 200 -199c0 -73 -29 -135 -86 -215l-232 -320h-106l223 302c-17 -7 -37 -10 -59 -10c-89 0 -169 61 -169 193c0 131 85 249 229 249zM295 517c-81 0 -135 -76 -135 -160c0 -72 39 -119 102 -119c86 0 135 83 135 159c0 72 -39 120 -102 120z" />
    <glyph glyph-name="uni2007.tosf" 
 />
    <glyph glyph-name="hyphen.case" horiz-adv-x="406" 
d="M372 401l-18 -91h-277l17 91h278z" />
    <glyph glyph-name="exclamdown.case" horiz-adv-x="315" 
d="M35 0l120 503h76l-79 -503h-117zM157 603l22 109h107l-22 -109h-107z" />
    <glyph glyph-name="guillemotleft.case" horiz-adv-x="562" 
d="M561 587l-26 -128l-125 -108l83 -109l-22 -113l-175 230zM321 587l-26 -128l-125 -108l83 -109l-22 -113l-175 230z" />
    <glyph glyph-name="uni00AD.case" horiz-adv-x="406" 
d="M356 401l-18 -91h-277l17 91h278z" />
    <glyph glyph-name="periodcentered.case" horiz-adv-x="263" 
d="M223 417l-23 -116h-116l23 116h116z" />
    <glyph glyph-name="guillemotright.case" horiz-adv-x="562" 
d="M132 585l175 -230l-265 -228l26 127l125 109l-83 109zM373 585l174 -230l-264 -228l26 127l124 109l-82 109z" />
    <glyph glyph-name="questiondown.case" horiz-adv-x="486" 
d="M180 -6c-82 0 -157 57 -157 153c0 65 27 113 71 162l96 108c13 15 24 36 28 55l7 31h97l-8 -38c-8 -39 -20 -65 -51 -100l-95 -105c-29 -32 -48 -62 -48 -105c0 -41 25 -74 74 -74c60 0 101 38 114 99h98c-23 -124 -110 -186 -226 -186zM235 603l21 109h107l-21 -109
h-107z" />
    <glyph glyph-name="endash.case" horiz-adv-x="537" 
d="M503 401l-18 -90h-409l18 90h409z" />
    <glyph glyph-name="emdash.case" horiz-adv-x="925" 
d="M891 401l-18 -90h-797l18 90h797z" />
    <glyph glyph-name="bullet.case" horiz-adv-x="487" 
d="M264 508c90 0 154 -64 154 -154s-64 -154 -154 -154s-154 64 -154 154s64 154 154 154z" />
    <glyph glyph-name="guilsinglleft.case" horiz-adv-x="322" 
d="M321 585l-26 -128l-125 -108l83 -109l-22 -113l-175 230z" />
    <glyph glyph-name="guilsinglright.case" horiz-adv-x="322" 
d="M132 585l175 -230l-265 -228l26 127l125 109l-83 109z" />
    <glyph glyph-name="zero.zero" 
d="M230 306l20 100h69l-20 -100h-69zM505 555c0 -14 -2 -33 -5 -48l-61 -306c-32 -162 -141 -207 -228 -207c-94 0 -167 59 -167 163c0 14 2 33 5 48l61 306c32 162 141 207 228 207c94 0 167 -59 167 -163zM409 550c0 60 -40 82 -77 82c-50 0 -108 -28 -126 -119l-61 -311
c-3 -13 -5 -27 -5 -40c0 -60 40 -82 77 -82c50 0 108 28 126 119l61 311c3 13 5 27 5 40z" />
    <glyph glyph-name="zero.osf.zero" horiz-adv-x="506" 
d="M218 249l20 100h69l-20 -100h-69zM213 -6c-99 0 -170 62 -170 162c0 12 2 34 5 49l38 191c31 154 127 207 225 207c99 0 170 -62 170 -162c0 -12 -2 -34 -5 -49l-38 -191c-31 -154 -127 -207 -225 -207zM222 80c51 0 101 30 119 119l39 196c3 12 5 29 5 38
c0 63 -45 84 -83 84c-51 0 -101 -30 -119 -119l-39 -196c-3 -12 -5 -29 -5 -38c0 -63 45 -84 83 -84z" />
    <glyph glyph-name="zero.lf.zero" 
d="M230 306l20 100h69l-20 -100h-69zM211 -6c-93 0 -167 59 -167 163c0 15 2 31 5 48l61 306c32 163 141 207 228 207c93 0 167 -59 167 -163c0 -15 -2 -31 -5 -48l-61 -306c-32 -163 -141 -207 -228 -207zM217 80c51 0 108 28 126 119l61 311c3 15 5 28 5 40
c0 60 -41 82 -77 82c-51 0 -108 -28 -126 -119l-61 -311c-3 -15 -5 -28 -5 -40c0 -60 41 -82 77 -82z" />
    <glyph glyph-name="zero.tosf.zero" horiz-adv-x="506" 
d="M218 249l20 100h69l-20 -100h-69zM213 -6c-99 0 -170 62 -170 162c0 12 2 34 5 49l38 191c31 154 127 207 225 207c99 0 170 -62 170 -162c0 -12 -2 -34 -5 -49l-38 -191c-31 -154 -127 -207 -225 -207zM222 80c51 0 101 30 119 119l39 196c3 12 5 29 5 38
c0 63 -45 84 -83 84c-51 0 -101 -30 -119 -119l-39 -196c-3 -12 -5 -29 -5 -38c0 -63 45 -84 83 -84z" />
    <glyph glyph-name="exclam.ss01" horiz-adv-x="315" 
d="M324 712l-120 -503h-76l79 503h117zM138 120c35 0 62 -27 62 -62s-27 -61 -62 -61s-61 26 -61 61s26 62 61 62z" />
    <glyph glyph-name="period.ss01" horiz-adv-x="270" 
d="M98 135c39 0 69 -30 69 -69s-30 -69 -69 -69s-69 30 -69 69s30 69 69 69z" />
    <glyph glyph-name="colon.ss01" horiz-adv-x="294" 
d="M180 418c39 0 69 -30 69 -69s-30 -69 -69 -69s-68 30 -68 69s29 69 68 69zM123 135c39 0 69 -30 69 -69s-30 -69 -69 -69s-68 30 -68 69s29 69 68 69z" />
    <glyph glyph-name="semicolon.ss01" horiz-adv-x="294" 
d="M191 116l-35 -176l-129 -95l54 271h110zM178 418c39 0 69 -30 69 -69s-30 -69 -69 -69s-69 30 -69 69s30 69 69 69z" />
    <glyph glyph-name="question.ss01" horiz-adv-x="486" 
d="M347 718c82 0 157 -57 157 -153c0 -65 -28 -113 -72 -162l-95 -108c-13 -15 -25 -36 -29 -55l-6 -31h-97l8 38c8 39 20 65 51 100l94 105c29 32 48 62 48 105c0 41 -25 74 -74 74c-60 0 -101 -38 -114 -99h-97c23 124 110 186 226 186zM228 120c35 0 61 -27 61 -62
s-26 -61 -61 -61s-62 26 -62 61s27 62 62 62z" />
    <glyph glyph-name="at.ss01" horiz-adv-x="938" 
d="M510 689c228 0 384 -148 384 -360c0 -159 -124 -297 -297 -297h-81l11 53c-35 -39 -70 -59 -118 -59c-85 0 -140 51 -140 138c0 27 3 58 10 89c17 83 36 143 83 184c37 32 79 43 119 43c60 0 92 -27 109 -60l11 54h90l-76 -380c124 5 201 115 201 235
c0 173 -126 287 -306 287c-205 0 -367 -162 -367 -368c0 -221 144 -369 373 -369h62l-14 -67h-61c-262 0 -442 184 -442 436c0 249 197 441 449 441zM492 400c-27 0 -50 -9 -69 -27c-23 -23 -40 -55 -53 -120c-5 -23 -7 -48 -7 -68c0 -56 33 -79 70 -79c27 0 51 11 70 28
c23 23 40 56 52 120c5 25 8 47 8 67c0 56 -34 79 -71 79z" />
    <glyph glyph-name="i.ss01" horiz-adv-x="250" 
d="M227 507l-102 -507h-97l102 507h97zM208 735c35 0 64 -28 64 -63s-29 -64 -64 -64s-63 28 -63 63s28 64 63 64z" />
    <glyph glyph-name="j.ss01" horiz-adv-x="250" 
d="M226 507l-116 -577c-18 -88 -70 -138 -155 -138h-64l16 83h39c38 0 61 21 69 64l114 568h97zM207 735c35 0 64 -28 64 -63s-29 -64 -64 -64s-63 28 -63 63s28 64 63 64z" />
    <glyph glyph-name="exclamdown.ss01" horiz-adv-x="315" 
d="M-7 -205l120 503h76l-79 -503h-117zM179 387c-35 0 -62 27 -62 62s27 61 62 61s61 -26 61 -61s-26 -62 -61 -62z" />
    <glyph glyph-name="dieresis.ss01" 
d="M438 706c31 0 55 -24 55 -55s-24 -55 -55 -55s-55 24 -55 55s24 55 55 55zM230 706c31 0 55 -24 55 -55s-24 -55 -55 -55s-55 24 -55 55s24 55 55 55z" />
    <glyph glyph-name="periodcentered.ss01" horiz-adv-x="270" 
d="M140 347c39 0 69 -30 69 -69s-30 -69 -69 -69s-69 30 -69 69s30 69 69 69z" />
    <glyph glyph-name="cedilla.ss01" 
d="M128 -226l11 53h2c33 0 53 22 53 50c0 22 -16 36 -38 38l11 53c50 -2 91 -36 91 -84c0 -72 -59 -110 -125 -110h-5z" />
    <glyph glyph-name="questiondown.ss01" horiz-adv-x="486" 
d="M139 -211c-82 0 -157 57 -157 153c0 65 28 113 72 162l95 108c13 15 25 36 29 55l6 31h97l-8 -38c-8 -39 -20 -65 -51 -100l-94 -105c-29 -32 -48 -62 -48 -105c0 -41 25 -74 74 -74c60 0 101 38 114 99h97c-23 -124 -110 -186 -226 -186zM258 387c-35 0 -61 27 -61 62
s26 61 61 61s62 -26 62 -61s-27 -62 -62 -62z" />
    <glyph glyph-name="Adieresis.ss01" horiz-adv-x="594" 
d="M431 712l106 -712h-105l-18 146h-268l-77 -146h-111l390 712h83zM362 558l-173 -327h216zM510 888c31 0 55 -24 55 -55s-24 -55 -55 -55s-55 24 -55 55s24 55 55 55zM302 888c31 0 55 -24 55 -55s-24 -55 -55 -55s-55 24 -55 55s24 55 55 55z" />
    <glyph glyph-name="Ccedilla.ss01" horiz-adv-x="599" 
d="M384 718c142 0 210 -93 211 -215h-103c-1 73 -38 125 -113 125c-49 0 -85 -19 -115 -51c-34 -35 -50 -84 -77 -221c-15 -76 -23 -126 -23 -159c0 -71 53 -113 116 -113c85 0 137 61 159 125h103c-45 -140 -145 -215 -269 -215c-125 0 -212 79 -212 197c0 30 4 76 22 165
c31 150 47 219 107 282c49 53 121 80 194 80zM162 -226l11 53h2c33 0 53 22 53 50c0 22 -16 36 -38 38l11 53c50 -2 91 -36 91 -84c0 -72 -59 -110 -125 -110h-5z" />
    <glyph glyph-name="Edieresis.ss01" horiz-adv-x="575" 
d="M613 712l-18 -90h-329l-43 -218h282l-18 -90h-282l-45 -224h335l-18 -90h-439l143 712h432zM512 888c31 0 55 -24 55 -55s-24 -55 -55 -55s-55 24 -55 55s24 55 55 55zM304 888c31 0 55 -24 55 -55s-24 -55 -55 -55s-55 24 -55 55s24 55 55 55z" />
    <glyph glyph-name="Idieresis.ss01" horiz-adv-x="281" 
d="M284 712l-143 -712h-103l143 712h103zM358 888c31 0 55 -24 55 -55s-24 -55 -55 -55s-55 24 -55 55s24 55 55 55zM150 888c31 0 55 -24 55 -55s-24 -55 -55 -55s-55 24 -55 55s24 55 55 55z" />
    <glyph glyph-name="Odieresis.ss01" horiz-adv-x="612" 
d="M592 521c0 -31 -4 -76 -22 -165c-30 -149 -47 -220 -106 -282c-51 -54 -121 -80 -197 -80c-126 0 -206 83 -206 197c0 31 4 76 22 165c30 149 47 220 106 282c51 54 121 80 196 80c127 0 207 -83 207 -197zM489 513c0 76 -52 115 -110 115c-48 0 -85 -18 -116 -51
s-49 -81 -77 -221c-15 -76 -22 -124 -22 -157c0 -76 52 -115 110 -115c48 0 85 18 116 51s49 81 77 221c15 76 22 124 22 157zM522 888c31 0 55 -24 55 -55s-24 -55 -55 -55s-55 24 -55 55s24 55 55 55zM314 888c31 0 55 -24 55 -55s-24 -55 -55 -55s-55 24 -55 55
s24 55 55 55z" />
    <glyph glyph-name="Udieresis.ss01" horiz-adv-x="643" 
d="M656 712l-95 -473c-33 -165 -146 -245 -281 -245c-108 0 -208 67 -208 198c0 20 4 47 7 62l91 458h103l-93 -466c-3 -12 -5 -32 -5 -48c0 -56 31 -113 112 -113c84 0 152 55 174 166l92 461h103zM537 888c31 0 55 -24 55 -55s-24 -55 -55 -55s-55 24 -55 55s24 55 55 55z
M329 888c31 0 55 -24 55 -55s-24 -55 -55 -55s-55 24 -55 55s24 55 55 55z" />
    <glyph glyph-name="adieresis.ss01" horiz-adv-x="505" 
d="M167 -6c-84 0 -149 45 -149 129c0 47 15 88 46 119c39 39 89 53 148 53h134l9 41c2 9 3 19 3 30c0 41 -30 65 -87 65c-56 0 -92 -19 -123 -54l-53 65c43 45 95 71 186 71c77 0 175 -29 175 -137c0 -13 -2 -27 -5 -42l-67 -334h-94l10 47c-33 -33 -73 -53 -133 -53z
M195 74c39 0 71 12 94 35c19 19 28 42 35 73l9 45h-112c-65 0 -107 -36 -107 -96c0 -36 24 -57 81 -57zM425 706c31 0 55 -24 55 -55s-24 -55 -55 -55s-55 24 -55 55s24 55 55 55zM217 706c31 0 55 -24 55 -55s-24 -55 -55 -55s-55 24 -55 55s24 55 55 55z" />
    <glyph glyph-name="ccedilla.ss01" horiz-adv-x="464" 
d="M311 513c72 0 117 -30 148 -73l-73 -63c-23 33 -48 50 -85 50c-32 0 -64 -13 -91 -41c-32 -33 -51 -83 -60 -132c-5 -23 -7 -47 -7 -71c0 -69 38 -103 90 -103c41 0 73 16 106 51l55 -70c-47 -44 -105 -67 -169 -67c-108 0 -179 71 -179 182c0 23 2 51 7 78
c35 188 140 259 258 259zM128 -226l11 53h2c33 0 53 22 53 50c0 22 -16 36 -38 38l11 53c50 -2 91 -36 91 -84c0 -72 -59 -110 -125 -110h-5z" />
    <glyph glyph-name="edieresis.ss01" horiz-adv-x="517" 
d="M300 513c108 0 173 -73 173 -177c0 -31 -6 -71 -15 -110h-314c-3 -16 -5 -32 -5 -49c0 -59 29 -101 97 -101c55 0 92 20 131 56l54 -64c-52 -49 -117 -74 -194 -74c-94 0 -181 52 -181 177c0 160 78 342 254 342zM295 433c-63 0 -112 -43 -139 -140h220c3 15 4 27 4 43
c0 65 -37 97 -85 97zM438 706c31 0 55 -24 55 -55s-24 -55 -55 -55s-55 24 -55 55s24 55 55 55zM230 706c31 0 55 -24 55 -55s-24 -55 -55 -55s-55 24 -55 55s24 55 55 55z" />
    <glyph glyph-name="idieresis.ss01" horiz-adv-x="250" 
d="M225 507l-101 -507h-97l101 507h97zM304 706c31 0 55 -24 55 -55s-24 -55 -55 -55s-55 24 -55 55s24 55 55 55zM96 706c31 0 55 -24 55 -55s-24 -55 -55 -55s-55 24 -55 55s24 55 55 55z" />
    <glyph glyph-name="odieresis.ss01" 
d="M297 513c83 0 167 -48 167 -167c0 -31 -5 -69 -9 -92c-22 -110 -50 -163 -93 -203c-41 -38 -92 -57 -151 -57c-83 0 -167 48 -167 167c0 31 5 70 9 93c21 109 50 162 93 202c41 38 91 57 151 57zM288 427c-31 0 -57 -11 -78 -32c-27 -27 -45 -69 -60 -141
c-8 -41 -10 -68 -10 -83c0 -64 36 -91 80 -91c31 0 58 12 78 32c27 27 45 66 60 142c8 41 10 67 10 83c0 64 -35 90 -80 90zM438 706c31 0 55 -24 55 -55s-24 -55 -55 -55s-55 24 -55 55s24 55 55 55zM230 706c31 0 55 -24 55 -55s-24 -55 -55 -55s-55 24 -55 55
s24 55 55 55z" />
    <glyph glyph-name="divide.ss01" horiz-adv-x="506" 
d="M475 323l-18 -91h-415l19 91h414zM224 157c39 0 69 -31 69 -70s-30 -69 -69 -69s-68 30 -68 69s29 70 68 70zM294 537c39 0 69 -30 69 -69s-30 -69 -69 -69s-69 30 -69 69s30 69 69 69z" />
    <glyph glyph-name="udieresis.ss01" horiz-adv-x="540" 
d="M513 507l-101 -507h-94l10 52c-33 -36 -81 -58 -141 -58c-68 0 -134 45 -134 142c0 16 2 37 5 53l64 318h97l-62 -311c-3 -15 -5 -28 -5 -40c0 -52 35 -76 76 -76c34 0 106 17 126 118l62 309h97zM449 706c31 0 55 -24 55 -55s-24 -55 -55 -55s-55 24 -55 55s24 55 55 55
zM241 706c31 0 55 -24 55 -55s-24 -55 -55 -55s-55 24 -55 55s24 55 55 55z" />
    <glyph glyph-name="ydieresis.ss01" horiz-adv-x="444" 
d="M489 507l-329 -612c-15 -27 -28 -45 -43 -60c-29 -28 -63 -40 -112 -40h-40l18 87h25c41 0 56 17 79 60l42 78l-71 487h97l42 -371l188 371h104zM398 706c31 0 55 -24 55 -55s-24 -55 -55 -55s-55 24 -55 55s24 55 55 55zM190 706c31 0 55 -24 55 -55s-24 -55 -55 -55
s-55 24 -55 55s24 55 55 55z" />
    <glyph glyph-name="ij.ss01" horiz-adv-x="500" 
d="M227 507l-102 -507h-97l102 507h97zM208 735c35 0 64 -28 64 -63s-29 -64 -64 -64s-63 28 -63 63s28 64 63 64zM476 507l-116 -577c-18 -88 -70 -138 -155 -138h-64l16 83h39c38 0 61 21 69 64l114 568h97zM457 735c35 0 64 -28 64 -63s-29 -64 -64 -64s-63 28 -63 63
s28 64 63 64z" />
    <glyph glyph-name="Ydieresis.ss01" horiz-adv-x="515" 
d="M605 712l-284 -423l-58 -289h-103l59 294l-125 418h109l85 -319l204 319h113zM467 888c31 0 55 -24 55 -55s-24 -55 -55 -55s-55 24 -55 55s24 55 55 55zM259 888c31 0 55 -24 55 -55s-24 -55 -55 -55s-55 24 -55 55s24 55 55 55z" />
    <glyph glyph-name="dotaccent.ss01" 
d="M335 713c31 0 55 -23 55 -54s-23 -55 -54 -55s-55 23 -55 54s23 55 54 55z" />
    <glyph glyph-name="ogonek.ss01" 
d="M215 -174l-11 -53c-51 3 -91 36 -91 85c0 70 58 109 123 109h7l-11 -53h-2c-35 0 -53 -22 -53 -50c0 -23 15 -35 38 -38z" />
    <glyph glyph-name="uni0312.ss01" horiz-adv-x="1" 
d="M65 772l-10 -53c-35 0 -56 -20 -56 -50c0 -22 18 -36 38 -38l-11 -53c-51 4 -90 37 -90 89c0 68 57 105 123 105h6z" />
    <glyph glyph-name="uni0313.ss01" horiz-adv-x="1" 
d="M65 734l-25 -123l-104 -75l40 198h89z" />
    <glyph glyph-name="uni0324.ss01" horiz-adv-x="1" 
d="M105 -70c31 0 55 -24 55 -55s-24 -55 -55 -55s-55 24 -55 55s24 55 55 55zM-103 -70c31 0 55 -24 55 -55s-24 -55 -55 -55s-55 24 -55 55s24 55 55 55z" />
    <glyph glyph-name="uni0327.ss01" horiz-adv-x="1" 
d="M-64 -226l11 53h2c33 0 53 22 53 50c0 22 -16 36 -38 38l11 53c50 -2 91 -36 91 -84c0 -72 -59 -110 -125 -110h-5z" />
    <glyph glyph-name="uni0328.ss01" horiz-adv-x="1" 
d="M38 -174l-11 -53c-51 3 -91 36 -91 85c0 70 58 109 123 109h7l-11 -53h-2c-35 0 -53 -22 -53 -50c0 -23 15 -35 38 -38z" />
    <glyph glyph-name="uni037E.ss01" horiz-adv-x="294" 
d="M191 116l-35 -176l-129 -95l54 271h110zM178 418c39 0 69 -30 69 -69s-30 -69 -69 -69s-69 30 -69 69s30 69 69 69z" />
    <glyph glyph-name="uni03A9.ss01" horiz-adv-x="614" 
d="M293 168c-109 0 -175 57 -194 139c-5 22 -7 43 -7 64c0 23 3 46 8 72c22 109 50 158 91 200c41 43 106 75 200 75c109 0 175 -57 194 -139c5 -22 7 -43 7 -64c0 -23 -3 -46 -8 -72c-22 -109 -50 -158 -91 -200c-41 -43 -106 -75 -200 -75zM16 0l17 83h474l-17 -83h-474z
M305 256c50 0 89 19 118 50c25 26 41 58 58 137c7 35 10 59 10 77c0 5 -1 10 -1 14c-6 63 -56 96 -111 96c-50 0 -89 -19 -118 -50c-25 -26 -41 -58 -58 -137c-7 -35 -10 -59 -10 -77c0 -5 1 -10 1 -14c6 -63 57 -96 111 -96z" />
    <glyph glyph-name="ellipsis.ss01" horiz-adv-x="762" 
d="M592 135c39 0 69 -30 69 -69s-30 -69 -69 -69s-69 30 -69 69s30 69 69 69zM98 135c39 0 69 -30 69 -69s-30 -69 -69 -69s-69 30 -69 69s30 69 69 69zM345 135c39 0 69 -30 69 -69s-30 -69 -69 -69s-69 30 -69 69s30 69 69 69z" />
    <glyph glyph-name="uni2071.ss01" horiz-adv-x="148" 
d="M177 597l-54 -269h-66l54 269h66zM159 718c22 0 38 -16 38 -37s-16 -37 -38 -37c-21 0 -38 16 -38 37s17 37 38 37z" />
    <glyph glyph-name="lira.ss01" horiz-adv-x="512" 
d="M51 0l36 181l-72 -40l14 69l72 40l18 87l-73 -41l13 69l73 40l62 307h103l-49 -241l160 89l-14 -69l-159 -89l-18 -87l161 90l-15 -69l-159 -90l-32 -156h73c53 0 98 16 157 74l51 -68c-74 -69 -133 -96 -222 -96h-180z" />
    <glyph glyph-name="Euro.ss01" horiz-adv-x="590" 
d="M423 718c87 0 138 -30 183 -87l-76 -65c-32 43 -63 62 -112 62c-43 0 -81 -16 -112 -49c-27 -27 -39 -59 -54 -115h179l-12 -63h-183l-17 -86h186l-12 -63h-183c-4 -27 -5 -41 -5 -56c0 -68 48 -112 115 -112c56 0 96 23 133 62l60 -73c-51 -49 -114 -79 -198 -79
c-129 0 -213 82 -213 198c0 15 0 32 4 60h-64l12 63h62l17 86h-65l12 63h67c21 88 43 134 86 177c49 51 118 77 190 77z" />
    <glyph glyph-name="uni20BD.ss01" horiz-adv-x="616" 
d="M56 0l24 118h-70l16 73h68l105 521h247c125 0 187 -80 187 -180c0 -131 -93 -245 -258 -245h-158l-19 -96h132l-15 -73h-132l-24 -118h-103zM235 377h144c96 0 151 70 151 147c0 52 -26 97 -99 97h-147z" />
    <glyph glyph-name="dotmath.ss01" horiz-adv-x="506" 
d="M257 347c39 0 69 -30 69 -69s-30 -69 -69 -69s-69 30 -69 69s30 69 69 69z" />
    <glyph glyph-name="fi.ss01" horiz-adv-x="562" 
d="M377 712l-17 -82h-40c-37 0 -59 -20 -67 -61l-13 -62h95l-14 -74h-95l-87 -433h-97l87 433h-55l14 74h55l15 71c20 96 79 134 156 134h63zM530 507l-102 -507h-97l102 507h97zM511 735c35 0 64 -28 64 -63s-29 -64 -64 -64s-63 28 -63 63s28 64 63 64z" />
    <glyph glyph-name="exclamdown.case.ss01" horiz-adv-x="315" 
d="M35 0l120 503h76l-79 -503h-117zM221 592c-35 0 -62 27 -62 62s27 61 62 61s61 -26 61 -61s-26 -62 -61 -62z" />
    <glyph glyph-name="periodcentered.case.ss01" horiz-adv-x="270" 
d="M156 425c39 0 69 -30 69 -69s-30 -69 -69 -69s-69 30 -69 69s30 69 69 69z" />
    <glyph glyph-name="questiondown.case.ss01" horiz-adv-x="486" 
d="M180 -6c-82 0 -157 57 -157 153c0 65 28 113 72 162l95 108c13 15 25 36 29 55l6 31h97l-8 -38c-8 -39 -20 -65 -51 -100l-94 -105c-29 -32 -48 -62 -48 -105c0 -41 25 -74 74 -74c60 0 101 38 114 99h97c-23 -124 -110 -186 -226 -186zM299 592c-35 0 -61 27 -61 62
s26 61 61 61s62 -26 62 -61s-27 -62 -62 -62z" />
    <glyph glyph-name="zero.zero.ss01" 
d="M505 555c0 -14 -2 -33 -5 -48l-61 -306c-32 -162 -141 -207 -228 -207c-94 0 -167 59 -167 163c0 14 2 33 5 48l61 306c32 162 141 207 228 207c94 0 167 -59 167 -163zM409 550c0 60 -40 82 -77 82c-50 0 -108 -28 -126 -119l-61 -311c-3 -13 -5 -27 -5 -40
c0 -60 40 -82 77 -82c50 0 108 28 126 119l61 311c3 13 5 27 5 40zM274 411c31 0 55 -25 55 -54c0 -31 -24 -56 -55 -56s-55 24 -55 55s24 55 55 55z" />
    <glyph glyph-name="zero.osf.zero.ss01" horiz-adv-x="506" 
d="M213 -6c-99 0 -170 62 -170 162c0 12 2 34 5 49l38 191c31 154 127 207 225 207c99 0 170 -62 170 -162c0 -12 -2 -34 -5 -49l-38 -191c-31 -154 -127 -207 -225 -207zM222 80c51 0 101 30 119 119l39 196c3 12 5 29 5 38c0 63 -45 84 -83 84c-51 0 -101 -30 -119 -119
l-39 -196c-3 -12 -5 -29 -5 -38c0 -63 45 -84 83 -84zM262 353c31 0 55 -25 55 -54c0 -31 -24 -56 -55 -56s-55 24 -55 55s24 55 55 55z" />
    <glyph glyph-name="zero.lf.zero.ss01" 
d="M211 -6c-93 0 -167 59 -167 163c0 15 2 31 5 48l61 306c32 163 141 207 228 207c93 0 167 -59 167 -163c0 -15 -2 -31 -5 -48l-61 -306c-32 -163 -141 -207 -228 -207zM217 80c51 0 108 28 126 119l61 311c3 15 5 28 5 40c0 60 -41 82 -77 82c-51 0 -108 -28 -126 -119
l-61 -311c-3 -15 -5 -28 -5 -40c0 -60 41 -82 77 -82zM274 411c31 0 55 -25 55 -54c0 -31 -24 -56 -55 -56s-55 24 -55 55s24 55 55 55z" />
    <glyph glyph-name="zero.tosf.zero.ss01" horiz-adv-x="506" 
d="M213 -6c-99 0 -170 62 -170 162c0 12 2 34 5 49l38 191c31 154 127 207 225 207c99 0 170 -62 170 -162c0 -12 -2 -34 -5 -49l-38 -191c-31 -154 -127 -207 -225 -207zM222 80c51 0 101 30 119 119l39 196c3 12 5 29 5 38c0 63 -45 84 -83 84c-51 0 -101 -30 -119 -119
l-39 -196c-3 -12 -5 -29 -5 -38c0 -63 45 -84 83 -84zM262 353c31 0 55 -25 55 -54c0 -31 -24 -56 -55 -56s-55 24 -55 55s24 55 55 55z" />
    <glyph glyph-name="dieresis.lc.ss01" 
d="M438 706c31 0 55 -24 55 -55s-24 -55 -55 -55s-55 24 -55 55s24 55 55 55zM230 706c31 0 55 -24 55 -55s-24 -55 -55 -55s-55 24 -55 55s24 55 55 55z" />
    <glyph glyph-name="cedilla.lc.ss01" 
d="M128 -226l11 53h2c33 0 53 22 53 50c0 22 -16 36 -38 38l11 53c50 -2 91 -36 91 -84c0 -72 -59 -110 -125 -110h-5z" />
    <glyph glyph-name="dotaccent.lc.ss01" 
d="M335 713c31 0 55 -23 55 -54s-23 -55 -54 -55s-55 23 -55 54s23 55 54 55z" />
    <glyph glyph-name="ogonek.lc.ss01" 
d="M215 -174l-11 -53c-51 3 -91 36 -91 85c0 70 58 109 123 109h7l-11 -53h-2c-35 0 -53 -22 -53 -50c0 -23 15 -35 38 -38z" />
    <glyph glyph-name="dotbelowcomb.lc.ss01" 
d="M177 -71c31 0 55 -23 55 -54s-23 -55 -54 -55s-55 23 -55 54s23 55 54 55z" />
    <glyph glyph-name="uni0324.lc.ss01" 
d="M282 -70c31 0 55 -24 55 -55s-24 -55 -55 -55s-55 24 -55 55s24 55 55 55zM74 -70c31 0 55 -24 55 -55s-24 -55 -55 -55s-55 24 -55 55s24 55 55 55z" />
    <glyph glyph-name="commaaccent.lc.ss01" 
d="M128 -226l11 53h2c33 0 53 22 53 50c0 22 -16 36 -38 38l11 53c50 -2 91 -36 91 -84c0 -72 -59 -110 -125 -110h-5z" />
    <glyph glyph-name="dieresis.uc.ss01" horiz-adv-x="612" 
d="M522 888c31 0 55 -24 55 -55s-24 -55 -55 -55s-55 24 -55 55s24 55 55 55zM314 888c31 0 55 -24 55 -55s-24 -55 -55 -55s-55 24 -55 55s24 55 55 55z" />
    <glyph glyph-name="cedilla.uc.ss01" horiz-adv-x="612" 
d="M162 -226l11 53h2c33 0 53 22 53 50c0 22 -16 36 -38 38l11 53c50 -2 91 -36 91 -84c0 -72 -59 -110 -125 -110h-5z" />
    <glyph glyph-name="dotaccent.uc.ss01" horiz-adv-x="612" 
d="M423 890c31 0 55 -25 55 -54c0 -31 -24 -56 -55 -56s-55 24 -55 55s24 55 55 55z" />
    <glyph glyph-name="ogonek.uc.ss01" horiz-adv-x="612" 
d="M280 -174l-11 -53c-51 3 -91 36 -91 85c0 70 58 109 123 109h7l-11 -53h-2c-35 0 -53 -22 -53 -50c0 -23 15 -35 38 -38z" />
    <glyph glyph-name="dotbelowcomb.uc.ss01" horiz-adv-x="612" 
d="M229 -71c31 0 55 -23 55 -54s-23 -55 -54 -55s-55 23 -55 54s23 55 54 55z" />
    <glyph glyph-name="uni0324.uc.ss01" horiz-adv-x="612" 
d="M334 -70c31 0 55 -24 55 -55s-24 -55 -55 -55s-55 24 -55 55s24 55 55 55zM126 -70c31 0 55 -24 55 -55s-24 -55 -55 -55s-55 24 -55 55s24 55 55 55z" />
    <glyph glyph-name="commaaccent.uc.ss01" horiz-adv-x="612" 
d="M162 -226l11 53h2c33 0 53 22 53 50c0 22 -16 36 -38 38l11 53c50 -2 91 -36 91 -84c0 -72 -59 -110 -125 -110h-5z" />
    <glyph glyph-name="C.ss02" horiz-adv-x="550" 
d="M383 718c87 0 138 -30 183 -87l-76 -65c-32 43 -63 62 -112 62c-45 0 -83 -17 -113 -50c-35 -38 -49 -83 -78 -222c-15 -76 -22 -126 -22 -159c0 -68 48 -113 115 -113c57 0 97 26 133 62l60 -73c-52 -49 -114 -79 -198 -79c-128 0 -214 81 -214 197c0 31 5 76 23 165
c33 160 52 226 109 285c50 51 117 77 190 77z" />
    <glyph glyph-name="G.ss02" horiz-adv-x="616" 
d="M386 718c93 0 148 -38 192 -98l-78 -65c-31 43 -63 73 -120 73c-49 0 -88 -21 -116 -50c-38 -40 -51 -91 -78 -222c-16 -79 -22 -126 -22 -159c0 -76 57 -113 115 -113c68 0 148 49 172 168l9 45h-145l16 86h248l-21 -107c-19 -94 -43 -152 -94 -203
c-48 -48 -113 -79 -192 -79c-130 0 -212 82 -212 197c0 37 6 85 23 165c35 171 49 224 106 283c49 51 118 79 197 79z" />
    <glyph glyph-name="a.ss02" horiz-adv-x="533" 
d="M190 -6c-98 0 -148 64 -148 151c0 27 3 58 13 109c20 101 45 168 88 208c42 38 88 51 134 51c63 0 102 -28 123 -68l12 62h94l-101 -507h-94l12 58c-33 -41 -77 -64 -133 -64zM221 80c31 0 59 13 79 33c27 27 44 67 59 141c6 29 10 63 10 85c0 55 -30 88 -79 88
c-31 0 -59 -13 -79 -33c-27 -27 -44 -66 -59 -140c-6 -29 -11 -64 -11 -86c0 -55 31 -88 80 -88z" />
    <glyph glyph-name="ordfeminine.ss02" horiz-adv-x="434" 
d="M210 303c-59 0 -118 36 -118 126c0 32 4 62 8 81c15 78 35 130 68 162c33 33 68 44 112 44c48 0 78 -25 90 -51l9 49h78l-81 -406h-78l9 42c-21 -27 -61 -47 -97 -47zM233 373c29 0 50 13 62 26c20 21 30 46 44 111c5 24 9 49 9 65c0 50 -23 71 -61 71
c-29 0 -50 -12 -63 -26c-23 -24 -37 -62 -46 -110c-5 -24 -9 -46 -9 -66c0 -52 30 -71 64 -71z" />
    <glyph glyph-name="Ccedilla.ss02" horiz-adv-x="550" 
d="M383 718c87 0 138 -30 183 -87l-76 -65c-32 43 -63 62 -112 62c-45 0 -83 -17 -113 -50c-35 -38 -49 -83 -78 -222c-15 -76 -22 -126 -22 -159c0 -68 48 -113 115 -113c57 0 97 26 133 62l60 -73c-52 -49 -114 -79 -198 -79c-128 0 -214 81 -214 197c0 31 5 76 23 165
c33 160 52 226 109 285c50 51 117 77 190 77zM277 -61l-77 -145h-95l90 145h82z" />
    <glyph glyph-name="agrave.ss02" horiz-adv-x="533" 
d="M190 -6c-98 0 -148 64 -148 151c0 27 3 58 13 109c20 101 45 168 88 208c42 38 88 51 134 51c63 0 102 -28 123 -68l12 62h94l-101 -507h-94l12 58c-33 -41 -77 -64 -133 -64zM221 80c31 0 59 13 79 33c27 27 44 67 59 141c6 29 10 63 10 85c0 55 -30 88 -79 88
c-31 0 -59 -13 -79 -33c-27 -27 -44 -66 -59 -140c-6 -29 -11 -64 -11 -86c0 -55 31 -88 80 -88zM309 754l51 -159h-77l-71 159h97z" />
    <glyph glyph-name="aacute.ss02" horiz-adv-x="533" 
d="M190 -6c-98 0 -148 64 -148 151c0 27 3 58 13 109c20 101 45 168 88 208c42 38 88 51 134 51c63 0 102 -28 123 -68l12 62h94l-101 -507h-94l12 58c-33 -41 -77 -64 -133 -64zM221 80c31 0 59 13 79 33c27 27 44 67 59 141c6 29 10 63 10 85c0 55 -30 88 -79 88
c-31 0 -59 -13 -79 -33c-27 -27 -44 -66 -59 -140c-6 -29 -11 -64 -11 -86c0 -55 31 -88 80 -88zM483 754l-130 -159h-84l114 159h100z" />
    <glyph glyph-name="acircumflex.ss02" horiz-adv-x="533" 
d="M190 -6c-98 0 -148 64 -148 151c0 27 3 58 13 109c20 101 45 168 88 208c42 38 88 51 134 51c63 0 102 -28 123 -68l12 62h94l-101 -507h-94l12 58c-33 -41 -77 -64 -133 -64zM221 80c31 0 59 13 79 33c27 27 44 67 59 141c6 29 10 63 10 85c0 55 -30 88 -79 88
c-31 0 -59 -13 -79 -33c-27 -27 -44 -66 -59 -140c-6 -29 -11 -64 -11 -86c0 -55 31 -88 80 -88zM387 756l91 -162h-77l-62 101l-104 -101h-85l155 162h82z" />
    <glyph glyph-name="atilde.ss02" horiz-adv-x="533" 
d="M190 -6c-98 0 -148 64 -148 151c0 27 3 58 13 109c20 101 45 168 88 208c42 38 88 51 134 51c63 0 102 -28 123 -68l12 62h94l-101 -507h-94l12 58c-33 -41 -77 -64 -133 -64zM221 80c31 0 59 13 79 33c27 27 44 67 59 141c6 29 10 63 10 85c0 55 -30 88 -79 88
c-31 0 -59 -13 -79 -33c-27 -27 -44 -66 -59 -140c-6 -29 -11 -64 -11 -86c0 -55 31 -88 80 -88zM267 712c34 0 58 -13 80 -25c16 -8 30 -16 45 -16c23 0 41 11 62 32l38 -49c-36 -35 -65 -50 -104 -50c-34 0 -58 13 -80 25c-16 8 -30 16 -45 16c-23 0 -39 -11 -62 -32
l-38 49c36 35 65 50 104 50z" />
    <glyph glyph-name="adieresis.ss02" horiz-adv-x="533" 
d="M190 -6c-98 0 -148 64 -148 151c0 27 3 58 13 109c20 101 45 168 88 208c42 38 88 51 134 51c63 0 102 -28 123 -68l12 62h94l-101 -507h-94l12 58c-33 -41 -77 -64 -133 -64zM221 80c31 0 59 13 79 33c27 27 44 67 59 141c6 29 10 63 10 85c0 55 -30 88 -79 88
c-31 0 -59 -13 -79 -33c-27 -27 -44 -66 -59 -140c-6 -29 -11 -64 -11 -86c0 -55 31 -88 80 -88zM483 705l-21 -105h-88l21 105h88zM278 705l-21 -105h-88l21 105h88z" />
    <glyph glyph-name="aring.ss02" horiz-adv-x="533" 
d="M190 -6c-98 0 -148 64 -148 151c0 27 3 58 13 109c20 101 45 168 88 208c42 38 88 51 134 51c63 0 102 -28 123 -68l12 62h94l-101 -507h-94l12 58c-33 -41 -77 -64 -133 -64zM221 80c31 0 59 13 79 33c27 27 44 67 59 141c6 29 10 63 10 85c0 55 -30 88 -79 88
c-31 0 -59 -13 -79 -33c-27 -27 -44 -66 -59 -140c-6 -29 -11 -64 -11 -86c0 -55 31 -88 80 -88zM334 820c67 0 123 -54 123 -122c0 -69 -56 -123 -123 -123c-68 0 -122 54 -122 123c0 68 54 122 122 122zM334 762c-35 0 -64 -29 -64 -64s29 -64 64 -64s65 29 65 64
s-30 64 -65 64z" />
    <glyph glyph-name="ae.ss02" horiz-adv-x="828" 
d="M191 -6c-99 0 -149 64 -149 151c0 27 3 58 13 109c20 101 45 168 88 208c42 38 88 51 135 51c64 0 104 -26 126 -69l13 63h70l-12 -61c36 49 78 67 140 67c83 0 168 -59 168 -177c0 -30 -6 -70 -14 -110h-317c-3 -16 -5 -31 -5 -49c0 -58 33 -101 100 -101
c54 0 92 20 131 56l53 -64c-53 -50 -117 -74 -192 -74c-59 0 -107 18 -136 73l-13 -67h-71l13 61c-28 -37 -71 -67 -141 -67zM221 80c31 0 59 13 79 33c27 27 44 67 59 141c6 29 10 63 10 85c0 55 -30 88 -79 88c-31 0 -59 -13 -79 -33c-27 -27 -44 -66 -59 -140
c-6 -29 -11 -64 -11 -86c0 -55 31 -88 80 -88zM465 293h221c2 13 4 27 4 43c0 65 -37 97 -85 97c-63 0 -114 -42 -140 -140z" />
    <glyph glyph-name="uni2090.ss02" horiz-adv-x="305" 
d="M49 -163c-43 0 -81 27 -81 83c0 15 2 36 7 59c8 40 21 83 44 107c19 21 49 32 80 32c33 0 54 -15 63 -39l7 35h66l-55 -274h-65l5 29c-18 -22 -43 -32 -71 -32zM77 -104c27 0 52 19 64 83c3 15 4 28 4 39c0 18 -10 41 -39 41c-32 0 -54 -27 -65 -80c-4 -18 -5 -32 -5 -42
c0 -23 14 -41 41 -41z" />
    <glyph glyph-name="Omega.ss02" horiz-adv-x="614" 
d="M293 168c-109 0 -175 57 -194 139c-5 22 -7 43 -7 64c0 23 3 46 8 72c22 109 50 158 91 200c41 43 106 75 200 75c109 0 175 -57 194 -139c5 -22 7 -43 7 -64c0 -23 -3 -46 -8 -72c-22 -109 -50 -158 -91 -200c-41 -43 -106 -75 -200 -75zM16 0l17 83h474l-17 -83h-474z
M305 256c50 0 89 19 118 50c25 26 41 58 58 137c7 35 10 59 10 77c0 5 -1 10 -1 14c-6 63 -56 96 -111 96c-50 0 -89 -19 -118 -50c-25 -26 -41 -58 -58 -137c-7 -35 -10 -59 -10 -77c0 -5 1 -10 1 -14c6 -63 57 -96 111 -96z" />
    <glyph glyph-name="a.sups.ss02" horiz-adv-x="305" 
d="M147 325c-43 0 -81 27 -81 83c0 15 2 36 7 59c8 40 21 83 44 107c19 21 49 32 80 32c33 0 54 -15 63 -39l7 35h66l-55 -274h-65l5 29c-18 -22 -43 -32 -71 -32zM175 384c27 0 52 19 64 83c3 15 4 28 4 39c0 18 -10 41 -39 41c-32 0 -54 -27 -65 -80c-4 -18 -5 -32 -5 -42
c0 -23 14 -41 41 -41z" />
    <glyph glyph-name="Ccedilla.ss03" horiz-adv-x="549" 
d="M382 718c87 0 138 -30 183 -87l-76 -65c-32 43 -63 62 -112 62c-45 0 -83 -17 -113 -50c-35 -38 -49 -83 -78 -222c-15 -76 -22 -126 -22 -159c0 -68 48 -113 115 -113c57 0 97 26 133 62l60 -73c-52 -49 -114 -79 -198 -79c-128 0 -214 81 -214 197c0 31 5 76 23 165
c33 160 52 226 109 285c50 51 117 77 190 77zM152 -226l11 53h2c33 0 53 22 53 50c0 22 -16 36 -38 38l11 53c50 -2 91 -36 91 -84c0 -72 -59 -110 -125 -110h-5z" />
    <glyph glyph-name="adieresis.ss03" horiz-adv-x="532" 
d="M190 -6c-98 0 -148 64 -148 151c0 27 3 58 13 109c20 101 45 168 88 208c42 38 88 51 134 51c63 0 102 -28 123 -68l12 62h94l-101 -507h-94l12 58c-33 -41 -77 -64 -133 -64zM221 80c31 0 59 13 79 33c27 27 44 67 59 141c6 29 10 63 10 85c0 55 -30 88 -79 88
c-31 0 -59 -13 -79 -33c-27 -27 -44 -66 -59 -140c-6 -29 -11 -64 -11 -86c0 -55 31 -88 80 -88zM430 706c31 0 55 -24 55 -55s-24 -55 -55 -55s-55 24 -55 55s24 55 55 55zM222 706c31 0 55 -24 55 -55s-24 -55 -55 -55s-55 24 -55 55s24 55 55 55z" />
    <glyph glyph-name="Iacute_J_acutecomb" horiz-adv-x="762" 
d="M775 712l-98 -493c-34 -169 -148 -225 -251 -225c-80 0 -130 26 -166 71l74 64c24 -29 51 -45 95 -45c63 0 126 41 147 145l96 483h103zM906 936l-130 -159h-84l114 159h100zM284 712l-143 -712h-103l143 712h103zM412 936l-130 -159h-84l114 159h100z" />
    <glyph glyph-name="J_acutecomb" horiz-adv-x="481" 
d="M494 712l-98 -493c-34 -169 -148 -225 -251 -225c-80 0 -130 26 -166 71l74 64c24 -29 51 -45 95 -45c63 0 126 41 147 145l96 483h103zM625 936l-130 -159h-84l114 159h100z" />
    <glyph glyph-name="breveacute" 
d="M330 586c-83 0 -129 40 -129 107c0 17 1 18 2 27h69c-1 -5 -1 -8 -1 -17c0 -32 27 -48 66 -48c45 0 73 18 84 65h70c-21 -96 -74 -134 -161 -134zM316 766l114 159h100l-130 -159h-84z" />
    <glyph glyph-name="brevegrave" 
d="M330 586c-83 0 -129 40 -129 107c0 17 1 18 2 27h69c-1 -5 -1 -8 -1 -17c0 -32 27 -48 66 -48c45 0 73 18 84 65h70c-21 -96 -74 -134 -161 -134zM312 767l-71 159h97l51 -159h-77z" />
    <glyph glyph-name="brevehook" 
d="M330 586c-83 0 -129 40 -129 107c0 17 1 18 2 27h69c-1 -5 -1 -8 -1 -17c0 -32 27 -48 66 -48c45 0 73 18 84 65h70c-21 -96 -74 -134 -161 -134zM320 743l11 53h2c33 0 53 22 53 50c0 22 -16 36 -38 38l11 53c50 -2 91 -36 91 -84c0 -72 -59 -110 -125 -110h-5z" />
    <glyph glyph-name="brevetilde" 
d="M330 586c-83 0 -129 40 -129 107c0 17 1 18 2 27h69c-1 -5 -1 -8 -1 -17c0 -32 27 -48 66 -48c45 0 73 18 84 65h70c-21 -96 -74 -134 -161 -134zM425 776c-32 0 -54 10 -73 23c-21 14 -32 18 -52 18c-23 0 -41 -12 -62 -32l-38 49c36 34 66 50 104 50
c31 0 54 -11 73 -23c21 -14 32 -19 52 -19c23 0 40 12 62 33l37 -49c-35 -34 -65 -50 -103 -50z" />
    <glyph glyph-name="circumflexacute" 
d="M158 594l155 162h82l91 -162h-77l-62 101l-104 -101h-85zM485 670l114 159h100l-130 -159h-84z" />
    <glyph glyph-name="circumflexgrave" 
d="M158 594l155 162h82l91 -162h-77l-62 101l-104 -101h-85zM508 669l-91 160h98l70 -160h-77z" />
    <glyph glyph-name="circumflexhook" 
d="M158 594l155 162h82l91 -162h-77l-62 101l-104 -101h-85zM473 653l11 53h2c33 0 53 22 53 50c0 22 -16 36 -38 38l11 53c50 -2 91 -36 91 -84c0 -72 -59 -110 -125 -110h-5z" />
    <glyph glyph-name="circumflextilde" 
d="M158 594l155 162h82l91 -162h-77l-62 101l-104 -101h-85zM426 790c-34 0 -58 13 -80 25c-16 8 -30 16 -45 16c-23 0 -39 -11 -62 -32l-38 49c36 35 65 50 104 50c34 0 58 -13 80 -25c16 -8 30 -16 45 -16c23 0 41 11 62 32l38 -49c-36 -35 -65 -50 -104 -50z" />
    <glyph glyph-name="caroncomma.uc.ss01.comp" horiz-adv-x="612" 
d="M449 734l-25 -123l-104 -75l40 198h89z" />
    <glyph glyph-name="iacute_j_acutecomb" horiz-adv-x="500" 
d="M476 507l-116 -577c-18 -88 -70 -138 -155 -138h-64l16 83h39c38 0 61 21 69 64l114 568h97zM607 754l-130 -159h-84l114 159h100zM225 507l-101 -507h-97l101 507h97zM357 754l-130 -159h-84l114 159h100z" />
    <glyph glyph-name="j_acutecomb" horiz-adv-x="250" 
d="M226 507l-116 -577c-18 -88 -70 -138 -155 -138h-64l16 83h39c38 0 61 21 69 64l114 568h97zM357 754l-130 -159h-84l114 159h100z" />
    <glyph glyph-name="grave.lc" 
d="M317 754l51 -159h-77l-71 159h97z" />
    <glyph glyph-name="dieresis.lc" 
d="M491 705l-21 -105h-88l21 105h88zM286 705l-21 -105h-88l21 105h88z" />
    <glyph glyph-name="macron.lc" 
d="M488 684l-14 -68h-294l14 68h294z" />
    <glyph glyph-name="acute.lc" 
d="M491 754l-130 -159h-84l114 159h100z" />
    <glyph glyph-name="cedilla.lc" 
d="M64 -206l90 145h82l-77 -145h-95z" />
    <glyph glyph-name="uni02C0.lc" 
d="M288 577l11 53h2c33 0 53 22 53 50c0 22 -16 36 -38 38l11 53c50 -2 91 -36 91 -84c0 -72 -59 -110 -125 -110h-5z" />
    <glyph glyph-name="circumflex.lc" 
d="M395 756l91 -162h-77l-62 101l-104 -101h-85l155 162h82z" />
    <glyph glyph-name="caron.lc" 
d="M519 756l-155 -162h-82l-91 162h77l62 -100l104 100h85z" />
    <glyph glyph-name="breve.lc" 
d="M421 720h70c-21 -96 -74 -134 -161 -134c-83 0 -129 40 -129 107c0 17 1 18 2 27h69c-1 -5 -1 -8 -1 -17c0 -32 27 -48 66 -48c45 0 73 18 84 65z" />
    <glyph glyph-name="dotaccent.lc" 
d="M388 705l-21 -105h-88l21 105h88z" />
    <glyph glyph-name="ring.lc" 
d="M342 820c67 0 123 -54 123 -122c0 -69 -56 -123 -123 -123c-68 0 -122 54 -122 123c0 68 54 122 122 122zM342 762c-35 0 -64 -29 -64 -64s29 -64 64 -64s65 29 65 64s-30 64 -65 64z" />
    <glyph glyph-name="ogonek.lc" 
d="M236 -61l-77 -145h-95l90 145h82z" />
    <glyph glyph-name="tilde.lc" 
d="M275 712c34 0 58 -13 80 -25c16 -8 30 -16 45 -16c23 0 41 11 62 32l38 -49c-36 -35 -65 -50 -104 -50c-34 0 -58 13 -80 25c-16 8 -30 16 -45 16c-23 0 -39 -11 -62 -32l-38 49c36 35 65 50 104 50z" />
    <glyph glyph-name="hungarumlaut.lc" 
d="M292 754h100l-130 -159h-84zM488 754h100l-130 -159h-84z" />
    <glyph glyph-name="uni030F.lc" 
d="M399 754l51 -159h-77l-71 159h97zM210 754l51 -159h-77l-71 159h97z" />
    <glyph glyph-name="uni0310.lc" 
d="M330 586c-83 0 -129 40 -129 107c0 17 1 18 2 27h69c-1 -5 -1 -8 -1 -17c0 -32 27 -48 66 -48c45 0 73 18 84 65h70c-21 -96 -74 -134 -161 -134zM311 769l21 105h88l-21 -105h-88z" />
    <glyph glyph-name="uni0311.lc" 
d="M339 729c83 0 129 -40 129 -107c0 -17 -1 -18 -2 -27h-69c1 5 1 8 1 17c0 32 -27 48 -66 48c-45 0 -73 -18 -84 -65h-70c21 96 74 134 161 134z" />
    <glyph glyph-name="uni0316.lc" 
d="M160 -62l51 -159h-77l-71 159h97z" />
    <glyph glyph-name="uni0317.lc" 
d="M258 -62l-130 -159h-84l114 159h100z" />
    <glyph glyph-name="uni031B.lc" 
d="M657 539l-13 -67c-18 -87 -42 -110 -134 -110h-37l12 59h35c31 0 49 14 59 66l11 52h67z" />
    <glyph glyph-name="uni031C.lc" 
d="M225 -175l-11 -53c-50 2 -91 36 -91 84c0 72 59 110 125 110h5l-11 -53h-2c-33 0 -53 -22 -53 -50c0 -22 16 -36 38 -38z" />
    <glyph glyph-name="dotbelowcomb.lc" 
d="M232 -77l-21 -105h-88l21 105h88z" />
    <glyph glyph-name="uni0324.lc" 
d="M335 -74l-21 -105h-88l21 105h88zM130 -74l-21 -105h-88l21 105h88z" />
    <glyph glyph-name="uni0325.lc" 
d="M171 -38c67 0 123 -54 123 -122c0 -69 -56 -123 -123 -123c-68 0 -122 54 -122 123c0 68 54 122 122 122zM171 -96c-35 0 -64 -29 -64 -64s29 -64 64 -64s65 29 65 64s-30 64 -65 64z" />
    <glyph glyph-name="uni032C.lc" 
d="M354 -66l-155 -162h-82l-91 162h77l62 -100l104 100h85z" />
    <glyph glyph-name="uni032D.lc" 
d="M232 -61l91 -162h-77l-62 100l-104 -100h-85l155 162h82z" />
    <glyph glyph-name="uni032E.lc" 
d="M269 -66h70c-21 -96 -74 -134 -161 -134c-83 0 -129 40 -129 107c0 12 1 18 2 27h69c-1 -5 -1 -8 -1 -17c0 -32 27 -48 66 -48c45 0 73 18 84 65z" />
    <glyph glyph-name="uni032F.lc" 
d="M182 -57c83 0 129 -40 129 -107c0 -17 -1 -18 -2 -27h-69c1 5 1 8 1 17c0 32 -27 48 -66 48c-45 0 -73 -18 -84 -65h-70c21 96 74 134 161 134z" />
    <glyph glyph-name="uni0330.lc" 
d="M117 -71c34 0 58 -13 80 -25c16 -8 30 -16 45 -16c23 0 41 11 62 32l38 -49c-36 -35 -65 -50 -104 -50c-34 0 -58 13 -80 25c-16 8 -30 16 -45 16c-23 0 -39 -11 -62 -32l-38 49c36 35 65 50 104 50z" />
    <glyph glyph-name="uni0331.lc" 
d="M353 -86l-14 -68h-294l14 68h294z" />
    <glyph glyph-name="uni0340.lc" 
d="M515 829l70 -160h-77l-91 160h98z" />
    <glyph glyph-name="uni0341.lc" 
d="M699 829l-130 -159h-84l114 159h100z" />
    <glyph glyph-name="commaaccent.lc" 
d="M236 -61l-77 -145h-95l90 145h82z" />
    <glyph glyph-name="breveacute.uc" horiz-adv-x="612" 
d="M420 772c-83 0 -129 40 -129 107c0 17 1 18 2 27h69c-1 -5 -1 -8 -1 -17c0 -32 27 -48 66 -48c45 0 73 18 84 65h70c-21 -96 -74 -134 -161 -134zM406 952l114 159h100l-130 -159h-84z" />
    <glyph glyph-name="brevegrave.uc" horiz-adv-x="612" 
d="M420 772c-83 0 -129 40 -129 107c0 17 1 18 2 27h69c-1 -5 -1 -8 -1 -17c0 -32 27 -48 66 -48c45 0 73 18 84 65h70c-21 -96 -74 -134 -161 -134zM402 953l-71 159h97l51 -159h-77z" />
    <glyph glyph-name="brevehook.uc" horiz-adv-x="612" 
d="M420 772c-83 0 -129 40 -129 107c0 17 1 18 2 27h69c-1 -5 -1 -8 -1 -17c0 -32 27 -48 66 -48c45 0 73 18 84 65h70c-21 -96 -74 -134 -161 -134zM410 929l11 53h2c33 0 53 22 53 50c0 22 -16 36 -38 38l11 53c50 -2 91 -36 91 -84c0 -72 -59 -110 -125 -110h-5z" />
    <glyph glyph-name="brevetilde.uc" horiz-adv-x="612" 
d="M420 772c-83 0 -129 40 -129 107c0 17 1 18 2 27h69c-1 -5 -1 -8 -1 -17c0 -32 27 -48 66 -48c45 0 73 18 84 65h70c-21 -96 -74 -134 -161 -134zM515 962c-32 0 -54 10 -73 23c-21 14 -32 18 -52 18c-23 0 -41 -12 -62 -32l-38 49c36 34 66 50 104 50
c31 0 54 -11 73 -23c21 -14 32 -19 52 -19c23 0 40 12 62 33l37 -49c-35 -34 -65 -50 -103 -50z" />
    <glyph glyph-name="circumflexacute.uc" horiz-adv-x="612" 
d="M247 776l155 162h82l91 -162h-77l-62 101l-104 -101h-85zM574 852l114 159h100l-130 -159h-84z" />
    <glyph glyph-name="circumflexgrave.uc" horiz-adv-x="612" 
d="M247 776l155 162h82l91 -162h-77l-62 101l-104 -101h-85zM597 851l-91 160h98l70 -160h-77z" />
    <glyph glyph-name="circumflexhook.uc" horiz-adv-x="612" 
d="M247 776l155 162h82l91 -162h-77l-62 101l-104 -101h-85zM562 835l11 53h2c33 0 53 22 53 50c0 22 -16 36 -38 38l11 53c50 -2 91 -36 91 -84c0 -72 -59 -110 -125 -110h-5z" />
    <glyph glyph-name="circumflextilde.uc" horiz-adv-x="612" 
d="M247 776l155 162h82l91 -162h-77l-62 101l-104 -101h-85zM515 972c-34 0 -58 13 -80 25c-16 8 -30 16 -45 16c-23 0 -39 -11 -62 -32l-38 49c36 35 65 50 104 50c34 0 58 -13 80 -25c16 -8 30 -16 45 -16c23 0 41 11 62 32l38 -49c-36 -35 -65 -50 -104 -50z" />
    <glyph glyph-name="grave.uc" horiz-adv-x="612" 
d="M400 936l51 -159h-77l-71 159h97z" />
    <glyph glyph-name="dieresis.uc" horiz-adv-x="612" 
d="M579 887l-21 -105h-88l21 105h88zM373 887l-20 -105h-88l21 105h87z" />
    <glyph glyph-name="macron.uc" horiz-adv-x="612" 
d="M575 863l-14 -68h-294l14 68h294z" />
    <glyph glyph-name="acute.uc" horiz-adv-x="612" 
d="M576 936l-130 -159h-84l114 159h100z" />
    <glyph glyph-name="cedilla.uc" horiz-adv-x="612" 
d="M287 -61l-77 -145h-95l90 145h82z" />
    <glyph glyph-name="uni02C0.uc" horiz-adv-x="612" 
d="M380 900l11 53c51 -4 91 -37 91 -88c0 -69 -57 -106 -123 -106h-7l11 53c34 0 55 20 55 50c0 23 -17 36 -38 38z" />
    <glyph glyph-name="circumflex.uc" horiz-adv-x="612" 
d="M484 938l91 -162h-77l-62 101l-104 -101h-85l155 162h82z" />
    <glyph glyph-name="caron.uc" horiz-adv-x="612" 
d="M607 938l-155 -162h-82l-91 162h77l62 -100l104 100h85z" />
    <glyph glyph-name="breve.uc" horiz-adv-x="612" 
d="M501 906h70c-21 -96 -74 -134 -161 -134c-83 0 -129 40 -129 107c0 12 1 18 2 27h69c-1 -5 -1 -8 -1 -17c0 -32 27 -48 66 -48c45 0 73 18 84 65z" />
    <glyph glyph-name="dotaccent.uc" horiz-adv-x="612" 
d="M477 888l-21 -105h-88l21 105h88z" />
    <glyph glyph-name="ring.uc" horiz-adv-x="612" 
d="M415 992c68 0 122 -54 122 -122c0 -69 -54 -123 -122 -123s-122 54 -122 123c0 68 54 122 122 122zM415 934c-35 0 -64 -29 -64 -64s29 -64 64 -64s65 29 65 64s-30 64 -65 64z" />
    <glyph glyph-name="ogonek.uc" horiz-adv-x="612" 
d="M287 -61l-77 -145h-95l90 145h82z" />
    <glyph glyph-name="tilde.uc" horiz-adv-x="612" 
d="M364 897c30 0 53 -11 73 -21c19 -10 35 -20 52 -20c23 0 41 11 62 32l38 -49c-36 -35 -65 -50 -104 -50c-28 0 -50 9 -69 19c-21 11 -38 22 -56 22c-23 0 -39 -11 -62 -32l-38 49c36 35 65 50 104 50z" />
    <glyph glyph-name="hungarumlaut.uc" horiz-adv-x="612" 
d="M372 936h100l-129 -159h-85zM568 936h100l-130 -159h-83z" />
    <glyph glyph-name="uni030F.uc" horiz-adv-x="612" 
d="M483 936l52 -159h-77l-72 159h97zM294 936l52 -159h-77l-72 159h97z" />
    <glyph glyph-name="uni0311.uc" horiz-adv-x="612" 
d="M428 911c83 0 129 -40 129 -107c0 -12 -1 -18 -2 -27h-69c1 5 1 8 1 17c0 32 -27 48 -66 48c-45 0 -73 -18 -84 -65h-70c21 96 74 134 161 134z" />
    <glyph glyph-name="dotbelowcomb.uc" horiz-adv-x="614" 
d="M284 -77l-21 -105h-88l21 105h88z" />
    <glyph glyph-name="uni0324.uc" horiz-adv-x="614" 
d="M387 -74l-21 -105h-88l21 105h88zM182 -74l-21 -105h-88l21 105h88z" />
    <glyph glyph-name="uni0325.uc" horiz-adv-x="614" 
d="M234 -27c70 0 126 -56 126 -125c0 -70 -56 -126 -126 -126c-69 0 -125 56 -125 126c0 69 56 125 125 125zM234 -87c-35 0 -65 -30 -65 -65c0 -36 30 -66 65 -66c36 0 66 30 66 66c0 35 -30 65 -66 65z" />
    <glyph glyph-name="uni032D.uc" horiz-adv-x="614" 
d="M284 -61l91 -162h-77l-62 100l-104 -100h-85l155 162h82z" />
    <glyph glyph-name="uni032E.uc" horiz-adv-x="614" 
d="M322 -45h70c-21 -96 -74 -134 -161 -134c-83 0 -129 40 -129 107c0 17 1 18 2 27h69c-1 -5 -1 -8 -1 -17c0 -32 27 -48 66 -48c45 0 73 18 84 65z" />
    <glyph glyph-name="uni0330.uc" horiz-adv-x="614" 
d="M169 -71c30 0 53 -11 73 -21c19 -10 35 -20 52 -20c23 0 41 11 62 32l38 -49c-36 -35 -65 -50 -104 -50c-28 0 -50 9 -69 19c-21 11 -38 22 -56 22c-23 0 -39 -11 -62 -32l-38 49c36 35 65 50 104 50z" />
    <glyph glyph-name="uni0331.uc" horiz-adv-x="614" 
d="M383 -86l-14 -68h-294l14 68h294z" />
    <glyph glyph-name="commaaccent.uc" horiz-adv-x="614" 
d="M287 -61l-77 -145h-95l90 145h82z" />
    </font>
</defs>
</svg>
