<?xml version="1.0" standalone="no"?>
<!DOCTYPE svg PUBLIC "-//W3C//DTD SVG 1.1//EN" "http://www.w3.org/Graphics/SVG/1.1/DTD/svg11.dtd" >
<svg xmlns="http://www.w3.org/2000/svg" width="100%" height="100%">
<metadata>
Created by FontXChange 20100429 at Mon Jan  2 15:37:37 2017
 By Killian Grant
Copyright 2013 \(c\) Rick Banks / Face37. All rights reserved.
</metadata>
<defs>
<font id="F37Jan-ThinItalic" horiz-adv-x="0" >
  <font-face 
    font-family="F37 Jan Thin Italic"
    font-weight="250"
    font-style="italic"
    font-stretch="normal"
    units-per-em="1000"
    panose-1="0 0 3 0 0 0 0 0 0 0"
    ascent="800"
    descent="-200"
    x-height="475"
    cap-height="708"
    bbox="-551.989 -241.261 1235.09 957.45"
    underline-thickness="50"
    underline-position="-50"
    slope="-10"
    stemh="43"
    stemv="45"
    unicode-range="U+0020-FB02"
  />
<missing-glyph horiz-adv-x="718" 
d="M618.34 0h-518.4l133.1 740h518.4zM579.609 46.2803l116.33 647.17h-424.15l-116.38 -647.17h424.2z" />
    <glyph glyph-name="fi" unicode="fi" horiz-adv-x="478" 
d="M483.84 475l-85.4707 -474.999h-45.4297l76.4004 422.74c0.830078 5.29004 2.73047 7.54004 5.4707 9.83008l-4.37988 5.03027c-2.66016 -2.29004 -5.70996 -4.03027 -9.91992 -4.03027h-184.71c-4.20996 0 -6.67969 1.74023 -8.55957 4.03027l-6.13965 -5.03027
c1.92969 -2.29004 3.46973 -4.54004 2.68945 -9.83008l-76.4805 -422.49h-45.4102l76.4805 422.49c0.780273 5.29004 2.73047 7.54004 5.40039 9.83008l-4.36035 5.03027c-2.69043 -2.29004 -5.73047 -4.03027 -9.9209 -4.03027h-61.54l7.46973 41.4297h61.5498
c4.17969 0 6.60938 -1.75 8.42969 -4.03027l6.13965 5.03027c-1.7998 2.28027 -3.06934 4.51074 -2.20898 9.83105l5.45996 29.7695c24.8896 139.51 88.3193 198.14 195.489 198.14c10.8496 0 26 -1.49023 40.3301 -4.9707l-7.55957 -41.9697h-1.71973
c-2.9502 0 -15.1602 3.96973 -34.5 3.96973c-75.9502 0 -127.72 -45.1299 -146.529 -152.74l-5.48047 -32.2002c-1.04004 -5.29004 -3.17969 -7.5498 -5.94922 -9.83008l4.37988 -5.03027c2.71973 2.28027 5.80957 4.03027 10.0195 4.03027h240.56zM496.119 674.081
c16.4404 0 26.8301 -11.0508 26.8301 -26.6807c0 -20.5596 -17.3604 -36.8896 -38.2607 -36.8896c-15.7197 0 -26.1895 11.3799 -26.1895 26.5498c0 20.9502 17.4902 37.0205 37.6201 37.0205z" />
    <glyph glyph-name="fl" unicode="fl" horiz-adv-x="476" 
d="M417.2 713.48c38.4297 0 75.9834 -4.27051 104.653 -12.2705l-126.07 -701.2h-45.4102l119.58 664.9c-12.3799 3 -30.1299 5.86035 -58.5898 5.86035c-89.5098 0 -152.25 -47.3203 -170.99 -152.74l-5.74023 -32.2002
c-0.910156 -5.29004 -3.11035 -7.5498 -5.85059 -9.83008l4.37988 -5.03027c2.69043 2.28027 5.70996 4.03027 9.91992 4.03027h135.82l-7.48047 -41.4297h-135.82c-4.20996 0 -6.59961 1.74023 -8.5293 4.03027l-6.13965 -5.03027
c1.98047 -2.29004 3.54004 -4.54004 2.67969 -9.83008l-76.5498 -422.74h-45.4102l76.5596 422.74c0.849609 5.29004 2.7793 7.54004 5.38965 9.83008l-4.34961 5.03027c-2.63965 -2.29004 -5.75977 -4.03027 -9.9502 -4.03027h-61.54l7.46973 41.4297h61.5498
c4.17969 0 6.67969 -1.75 8.5293 -4.03027l6.13965 5.03027c-1.82031 2.28027 -2.68066 4.54004 -2.31055 9.83008l5.2002 28.7402c20.8203 136.76 102.511 198.91 222.86 198.91z" />
    <glyph glyph-name=".notdef" horiz-adv-x="718" 
d="M618.34 0h-518.4l133.1 740h518.4zM579.609 46.2803l116.33 647.17h-424.15l-116.38 -647.17h424.2z" />
    <glyph glyph-name="A" unicode="A" horiz-adv-x="638" 
d="M12.3496 0l405.079 708h56.75l152.89 -708h-51.3096l-42.6797 200.08h-355.31l-114.34 -200.08h-51.0801zM204.879 234.97c3.48047 4.03027 8.49219 7.28027 15.4219 7.28027h285.68c6.92969 0 10.8398 -3.25 12.7295 -7.28027l7.12988 2.76953l-83.9805 405.8
c-1.2998 6.03027 -0.160156 13.29 0.669922 17.54h-6.78027c-0.75 -4.25 -3.07031 -11.5098 -6.39062 -17.54l-230.34 -405.8z" />
    <glyph glyph-name="Aacute" unicode="&#xc1;" horiz-adv-x="651" 
d="M370.73 765.74l-16.8193 37.0898l214.58 114.7l19.9697 -44.4805zM12.3516 0l405.079 708h56.75l152.89 -708h-51.3096l-42.6797 200.08h-355.31l-114.34 -200.08h-51.0801zM204.881 234.97c3.48047 4.03027 8.49219 7.28027 15.4219 7.28027h285.68
c6.92969 0 10.8398 -3.25 12.7295 -7.28027l7.12988 2.76953l-83.9805 405.8c-1.2998 6.03027 -0.160156 13.29 0.669922 17.54h-6.78027c-0.75 -4.25 -3.07031 -11.5098 -6.39062 -17.54l-230.34 -405.8z" />
    <glyph glyph-name="Acircumflex" unicode="&#xc2;" horiz-adv-x="651" 
d="M335.84 760.86l-24.7803 29.6797l169.91 143.69h18.5l114.79 -144.36l-30.5596 -25.2598l-98.1104 121.23zM12.3496 0l405.079 708h56.75l152.89 -708h-51.3096l-42.6797 200.08h-355.31l-114.34 -200.08h-51.0801zM204.879 234.97
c3.48047 4.03027 8.49219 7.28027 15.4219 7.28027h285.68c6.92969 0 10.8398 -3.25 12.7295 -7.28027l7.12988 2.76953l-83.9805 405.8c-1.2998 6.03027 -0.160156 13.29 0.669922 17.54h-6.78027c-0.75 -4.25 -3.07031 -11.5098 -6.39062 -17.54l-230.34 -405.8z" />
    <glyph glyph-name="Adieresis" unicode="&#xc4;" horiz-adv-x="651" 
d="M404.38 809.74c-19.9502 0.150391 -28.3301 13.3496 -28.2002 27.1699c0.150391 19.1904 15.5508 36.3203 36.1709 36.3203c17.2803 0 28.3301 -12.2305 28.21 -27.0205c-0.150391 -19.1904 -14.6104 -36.6201 -36.1807 -36.4697zM536.25 809.739
c-19.96 0.150391 -28.3311 13.3496 -28.2109 27.1699c0.150391 19.1904 15.5508 36.3203 36.1807 36.3203c17.2803 0 28.3301 -12.2305 28.2002 -27.0205c-0.150391 -19.1904 -14.6104 -36.6201 -36.1699 -36.4697zM12.3486 -0.00195312l405.079 708h56.75l152.89 -708
h-51.3096l-42.6797 200.08h-355.31l-114.34 -200.08h-51.0801zM204.878 234.968c3.48047 4.03027 8.49219 7.28027 15.4219 7.28027h285.68c6.92969 0 10.8398 -3.25 12.7295 -7.28027l7.12988 2.76953l-83.9805 405.8c-1.2998 6.03027 -0.160156 13.29 0.669922 17.54
h-6.78027c-0.75 -4.25 -3.07031 -11.5098 -6.39062 -17.54l-230.34 -405.8z" />
    <glyph glyph-name="Agrave" unicode="&#xc0;" horiz-adv-x="651" 
d="M547.53 765.74l-178.96 106.8l29.0703 40.1396l175 -113.47zM12.3506 0l405.079 708h56.75l152.89 -708h-51.3096l-42.6797 200.08h-355.31l-114.34 -200.08h-51.0801zM204.88 234.97c3.48047 4.03027 8.49219 7.28027 15.4219 7.28027h285.68
c6.92969 0 10.8398 -3.25 12.7295 -7.28027l7.12988 2.76953l-83.9805 405.8c-1.2998 6.03027 -0.160156 13.29 0.669922 17.54h-6.78027c-0.75 -4.25 -3.07031 -11.5098 -6.39062 -17.54l-230.34 -405.8z" />
    <glyph glyph-name="Aring" unicode="&#xc5;" horiz-adv-x="651" 
d="M458.98 749.16c-60.2305 0 -87.1699 43.5898 -87.1699 89.7695c0 62.4404 49.4004 118.521 115.42 118.521c55.1299 0 86.7695 -39.2002 86.7695 -89.7598c0 -62.1904 -46.8496 -118.53 -115.02 -118.53zM462.271 784.29c42.7002 0 75.9199 35.75 75.9199 79.2598
c0 33.1396 -19.5098 58.7695 -55.0195 58.7695c-43.3096 0 -75.75 -38.1201 -75.75 -79.9697c0 -31.6797 18.3096 -58.0596 54.8496 -58.0596zM12.3516 0l405.079 708h56.75l152.89 -708h-51.3096l-42.6797 200.08h-355.31l-114.34 -200.08h-51.0801zM204.881 234.97
c3.48047 4.03027 8.49219 7.28027 15.4219 7.28027h285.68c6.92969 0 10.8398 -3.25 12.7295 -7.28027l7.12988 2.76953l-83.9805 405.8c-1.2998 6.03027 -0.160156 13.29 0.669922 17.54h-6.78027c-0.75 -4.25 -3.07031 -11.5098 -6.39062 -17.54l-230.34 -405.8z" />
    <glyph glyph-name="Atilde" unicode="&#xc3;" horiz-adv-x="651" 
d="M532.39 789.2c-55.5195 0 -81.3096 41.001 -130.72 41.001c-29.46 0 -52.2402 -12.3496 -73.5303 -29.4795l-20.7197 32.3096c27.4004 22.54 58.9404 38.3398 97.2803 38.3398c59.54 0 88.1396 -41 130.449 -41c27.3604 0 52.5908 13.5498 76.2207 33.8896
l22.4004 -30.75c-30.4805 -26.1602 -62.7109 -44.3105 -101.381 -44.3105zM12.3496 0.000976562l405.079 708h56.75l152.89 -708h-51.3096l-42.6797 200.08h-355.31l-114.34 -200.08h-51.0801zM204.879 234.971c3.48047 4.03027 8.49219 7.28027 15.4219 7.28027h285.68
c6.92969 0 10.8398 -3.25 12.7295 -7.28027l7.12988 2.76953l-83.9805 405.8c-1.2998 6.03027 -0.160156 13.29 0.669922 17.54h-6.78027c-0.75 -4.25 -3.07031 -11.5098 -6.39062 -17.54l-230.34 -405.8z" />
    <glyph glyph-name="AE" unicode="&#xc6;" horiz-adv-x="824" 
d="M-8.36035 0l501.921 707.999h400.05l-7.83008 -43.46h-309.94c-4.9502 0 -7.91992 2.49023 -10.4102 5.50977l-6.12012 -5.01953c3.07031 -3.78027 3.79004 -6.7002 2.80957 -12.0605l-44.8604 -249.69c-0.929688 -5.28027 -2.87012 -8.28027 -7.12012 -12.0498
l4.28027 -5.03027c3.4502 3.03027 7.49023 5.51074 12.4404 5.51074h271.53l-7.83008 -43.46h-271.53c-4.9502 0 -8.08984 2.49023 -10.4902 5.52051l-6.07031 -5.03027c2.91992 -3.76953 4.07031 -6.7998 3.19043 -12.0596l-50.8604 -281.65
c-0.849609 -5.29004 -2.94922 -8.29004 -7.38965 -12.0596l4.28027 -5.03027c3.58008 3.03027 7.49023 5.51074 12.4707 5.51074h315.729l-7.75 -43.4502h-375.68l34.2002 187.48c0.80957 5.29004 2.65918 8.29004 7.0293 12.0596l-4.28027 5.03027
c-3.5498 -3.03027 -7.41992 -5.52051 -12.3701 -5.52051h-236.43l-141.76 -199.05h-51.21zM216.98 234.449c3.42969 4.03027 8.47168 7.28906 15.4014 7.28906h196.29c4.9502 0 8 -2.49023 10.4697 -5.50977l6.13965 5.01953
c-3.07031 3.78027 -3.89062 6.78027 -2.76074 12.0605l73.5703 409.771h-6.94043c-0.769531 -4.50977 -2.13965 -10.5693 -6.12012 -15.8291l-292.01 -410.021z" />
    <glyph glyph-name="B" unicode="B" horiz-adv-x="623" 
d="M102.57 0l127.33 707.999h189.26c119.58 0 205.771 -41.71 205.771 -158.49c0 -83.46 -60.1602 -156.63 -134.38 -176.67l-1.2002 -6.7998c69.2695 -14.0195 123.84 -55.7295 123.84 -146.409c0 -144.1 -106.66 -219.63 -288.601 -219.63h-222.02zM218.99 382.649
c3.50977 3.03027 7.45117 5.52051 12.4014 5.52051h171.66c93.8701 0 172.9 60.96 172.9 153.229c0 93.2002 -65.6602 123.141 -162.98 123.141h-131.84c-4.98047 0 -8.10059 2.49023 -10.501 5.50977l-6.04004 -5.01953
c2.90039 -3.78027 4.24023 -6.78027 3.37988 -12.0605l-46.1104 -253.23c-0.730469 -5.29004 -2.85059 -8.29004 -7.2002 -12.0596zM156.972 37.9395c3.48047 3.03027 7.51953 5.50879 12.4697 5.50879h165.96c140.75 0 229.6 62.5195 229.6 170.96
c0 98.5 -72.2598 131.07 -167.1 131.07h-174.21c-4.95996 0 -8 2.49023 -10.4004 5.52051l-6.16016 -5.03027c3.01953 -3.76953 4.15918 -6.76953 3.12891 -12.0596l-49.5996 -278.88c-1.17969 -5.29004 -3.69922 -8.29004 -7.96875 -12.0596z" />
    <glyph glyph-name="C" unicode="C" horiz-adv-x="670" 
d="M507.94 720.77c99.4004 0 169.311 -33.8008 226.28 -98.9404l-36.1797 -29.8301c-48.8701 57.7695 -107.561 85.7998 -192.36 85.7998c-199.23 0 -349.74 -161.55 -350.11 -364.47c0.370117 -163.82 98.2598 -283.101 261.54 -283.101
c73.9697 0 146.14 24.25 206.6 78.4805l28.8301 -33.1104c-67.5703 -62.5996 -154.17 -88.5996 -235.939 -88.5996c-185.8 0 -310.17 133.74 -310.03 324.95c-0.139648 229.73 178.061 408.82 401.37 408.82z" />
    <glyph glyph-name="Ccedilla" unicode="&#xc7;" horiz-adv-x="684" 
d="M507.94 720.77c99.4004 0 169.308 -33.7998 226.277 -98.9395l-36.1797 -29.8301c-48.8701 57.7695 -107.561 85.7998 -192.36 85.7998c-199.23 0 -349.74 -161.55 -350.11 -364.47c0.370117 -163.82 98.2598 -283.101 261.54 -283.101
c73.9697 0 146.14 24.25 206.6 78.4805l28.8301 -33.1104c-67.5703 -62.5996 -154.17 -88.5996 -235.939 -88.5996c-2.38965 0 -4.76953 0.0195312 -7.13965 0.0595703l-16.5098 -30.9805h7.98047c47.75 0 77.8799 -31.6602 77.8799 -77.0098
c0 -54.3799 -37.8203 -101.1 -111.19 -101.1c-55 0 -89.21 34.54 -83.5801 85.0996h34.6797c-2.29004 -34.46 19.4404 -52.5498 52.4707 -52.5498c44.71 0 70.7803 27.6104 70.7803 64.8604c0 27.5195 -17.5996 47.96 -55.6592 47.96h-46.6299l34.25 66.0996
c-161.93 18.9502 -267.489 146.34 -267.359 322.51c-0.139648 229.73 178.061 408.82 401.37 408.82z" />
    <glyph glyph-name="D" unicode="D" horiz-adv-x="738" 
d="M102.37 0l127.33 708h200.37c193.21 0 327.85 -113.34 327.85 -296.46c0 -258.6 -194.35 -411.54 -455.149 -411.54h-200.4zM156.72 37.9404c3.53027 3.03027 7.48828 5.50977 12.4688 5.50977h138.64c217 0 401.18 137.82 401.18 360.62
c0 168.4 -115.06 260.471 -287.52 260.471h-140.64c-4.9502 0 -7.99023 2.49023 -10.46 5.50977l-6.04004 -5.01953c2.95996 -3.78027 4.28027 -6.78027 3.41992 -12.0605l-107.31 -597.94c-1.08008 -5.29004 -3.66992 -8.29004 -8.01953 -12.0596z" />
    <glyph glyph-name="Eth" unicode="&#xd0;" horiz-adv-x="742" 
d="M433.93 708c193.21 0 327.84 -113.34 327.84 -296.46c0 -258.6 -194.34 -411.54 -455.14 -411.54h-200.4l60.5195 336.51h-85.4297l7.62988 42.1699h85.3799l59.2305 329.32h200.37zM311.689 43.4502c217 0 401.178 137.819 401.178 360.619
c0 168.4 -115.06 260.471 -287.52 260.471h-140.64c-4.9502 0 -8 2.49023 -10.4697 5.50977l-6.04004 -5.01953c2.96973 -3.78027 4.29004 -6.78027 3.42969 -12.0605l-49.2305 -274.29h200.49l-7.62012 -42.1699h-200.43l-50.5195 -281.48
c-1.08008 -5.29004 -3.66992 -8.29004 -8.01953 -12.0596l4.28027 -5.03027c3.53027 3.03027 7.49023 5.51074 12.4707 5.51074h138.64z" />
    <glyph glyph-name="E" unicode="E" horiz-adv-x="553" 
d="M102.3 0l127.297 707.999h397.22l-7.84961 -43.46h-338.19c-4.9502 0 -7.99023 2.49023 -10.4902 5.50977l-6.04004 -5.01953c2.99023 -3.78027 4.28027 -6.78027 3.4502 -12.0605l-44.5996 -249.69c-1.03027 -5.28027 -3.78027 -8.28027 -8.12988 -12.0498
l4.36035 -5.03027c3.48047 3.03027 7.44043 5.51074 12.4004 5.51074h294.05l-7.83008 -43.46h-294.06c-4.96973 0 -8.01953 2.49023 -10.4092 5.52051l-6.13965 -5.03027c2.99023 -3.76953 4.43066 -6.76953 3.65039 -12.0596l-50.5996 -281.65
c-1.03027 -5.29004 -3.66992 -8.29004 -8.0498 -12.0596l4.28027 -5.03027c3.55957 3.03027 7.5 5.51074 12.4697 5.51074h338.27l-7.75977 -43.4502h-397.3z" />
    <glyph glyph-name="Eacute" unicode="&#xc9;" horiz-adv-x="564" 
d="M336.82 765.74l-16.8203 37.0898l214.57 114.7l19.9805 -44.4805zM102.3 0l127.297 707.999h397.22l-7.84961 -43.46h-338.19c-4.9502 0 -7.99023 2.49023 -10.4902 5.50977l-6.04004 -5.01953c2.99023 -3.78027 4.28027 -6.78027 3.4502 -12.0605l-44.5996 -249.69
c-1.03027 -5.28027 -3.78027 -8.28027 -8.12988 -12.0498l4.36035 -5.03027c3.48047 3.03027 7.44043 5.51074 12.4004 5.51074h294.05l-7.83008 -43.46h-294.06c-4.96973 0 -8.01953 2.49023 -10.4092 5.52051l-6.13965 -5.03027
c2.99023 -3.76953 4.43066 -6.76953 3.65039 -12.0596l-50.5996 -281.65c-1.03027 -5.29004 -3.66992 -8.29004 -8.0498 -12.0596l4.28027 -5.03027c3.55957 3.03027 7.5 5.51074 12.4697 5.51074h338.27l-7.75977 -43.4502h-397.3z" />
    <glyph glyph-name="Ecircumflex" unicode="&#xca;" horiz-adv-x="564" 
d="M301.93 760.86l-24.7803 29.6797l169.91 143.69h18.4902l114.8 -144.36l-30.5596 -25.2598l-98.1201 121.23zM102.3 0l127.297 707.999h397.22l-7.84961 -43.46h-338.19c-4.9502 0 -7.99023 2.49023 -10.4902 5.50977l-6.04004 -5.01953
c2.99023 -3.78027 4.28027 -6.78027 3.4502 -12.0605l-44.5996 -249.69c-1.03027 -5.28027 -3.78027 -8.28027 -8.12988 -12.0498l4.36035 -5.03027c3.48047 3.03027 7.44043 5.51074 12.4004 5.51074h294.05l-7.83008 -43.46h-294.06
c-4.96973 0 -8.01953 2.49023 -10.4092 5.52051l-6.13965 -5.03027c2.99023 -3.76953 4.43066 -6.76953 3.65039 -12.0596l-50.5996 -281.65c-1.03027 -5.29004 -3.66992 -8.29004 -8.0498 -12.0596l4.28027 -5.03027c3.55957 3.03027 7.5 5.51074 12.4697 5.51074h338.27
l-7.75977 -43.4502h-397.3z" />
    <glyph glyph-name="Edieresis" unicode="&#xcb;" horiz-adv-x="564" 
d="M370.47 809.74c-19.9502 0.150391 -28.3301 13.3496 -28.2002 27.1699c0.150391 19.1904 15.54 36.3203 36.1699 36.3203c17.2803 0 28.3301 -12.2305 28.2002 -27.0205c-0.150391 -19.1904 -14.6104 -36.6201 -36.1699 -36.4697zM502.33 809.739
c-19.9502 0.150391 -28.3291 13.3496 -28.1992 27.1699c0.150391 19.1904 15.54 36.3203 36.1699 36.3203c17.2803 0 28.3301 -12.2305 28.21 -27.0205c-0.160156 -19.1904 -14.6104 -36.6201 -36.1807 -36.4697zM102.301 -0.00195312l127.296 707.999h397.22
l-7.84961 -43.46h-338.19c-4.9502 0 -7.99023 2.49023 -10.4902 5.50977l-6.04004 -5.01953c2.99023 -3.78027 4.28027 -6.78027 3.4502 -12.0605l-44.5996 -249.69c-1.03027 -5.28027 -3.78027 -8.28027 -8.12988 -12.0498l4.36035 -5.03027
c3.48047 3.03027 7.44043 5.51074 12.4004 5.51074h294.05l-7.83008 -43.46h-294.06c-4.96973 0 -8.01953 2.49023 -10.4092 5.52051l-6.13965 -5.03027c2.99023 -3.76953 4.43066 -6.76953 3.65039 -12.0596l-50.5996 -281.65
c-1.03027 -5.29004 -3.66992 -8.29004 -8.0498 -12.0596l4.28027 -5.03027c3.55957 3.03027 7.5 5.51074 12.4697 5.51074h338.271l-7.75977 -43.4502h-397.3z" />
    <glyph glyph-name="Egrave" unicode="&#xc8;" horiz-adv-x="564" 
d="M513.61 765.74l-178.95 106.8l29.0703 40.1396l175 -113.47zM102.3 0l127.297 707.999h397.22l-7.84961 -43.46h-338.19c-4.9502 0 -7.99023 2.49023 -10.4902 5.50977l-6.04004 -5.01953c2.99023 -3.78027 4.28027 -6.78027 3.4502 -12.0605l-44.5996 -249.69
c-1.03027 -5.28027 -3.78027 -8.28027 -8.12988 -12.0498l4.36035 -5.03027c3.48047 3.03027 7.44043 5.51074 12.4004 5.51074h294.05l-7.83008 -43.46h-294.06c-4.96973 0 -8.01953 2.49023 -10.4092 5.52051l-6.13965 -5.03027
c2.99023 -3.76953 4.43066 -6.76953 3.65039 -12.0596l-50.5996 -281.65c-1.03027 -5.29004 -3.66992 -8.29004 -8.0498 -12.0596l4.28027 -5.03027c3.55957 3.03027 7.5 5.51074 12.4697 5.51074h338.27l-7.75977 -43.4502h-397.3z" />
    <glyph glyph-name="F" unicode="F" horiz-adv-x="541" 
d="M102.37 0l127.301 707.999h408.76l-8.03027 -44.4902h-349.75c-4.95996 0 -8 2.49023 -10.4697 5.52051l-6.07031 -5.03027c3 -3.76953 4.25977 -6.76953 3.41016 -12.0596l-47.8604 -264.69c-0.910156 -5.28027 -3.15039 -8.28027 -7.49023 -12.0498l4.28027 -5.03027
c3.53027 3.03027 7.49023 5.51074 12.4404 5.51074h307.83l-7.78027 -43.4502h-307.81c-4.9502 0 -8.08984 2.48047 -10.5596 5.51074l-6.07031 -5.03027c2.99023 -3.76953 4.41992 -6.76953 3.55957 -12.0596l-57.6904 -320.65h-48z" />
    <glyph glyph-name="G" unicode="G" horiz-adv-x="701" 
d="M412.77 -13c-179.02 0 -305.94 132.56 -306.07 327.59c0.129883 225.76 175.49 406.18 398.91 406.18c113.54 0 181.18 -37.4297 228.96 -93.8594l-36.79 -31.0596c-37.5098 46.29 -92.3496 81.9502 -192.1 81.9502c-197.4 0 -350.08 -162.65 -350.1 -362.16
c0.0195312 -172.47 102.25 -285.41 260.3 -285.41c76.3604 0 143.57 24.54 194.391 62.46l37.5195 208.28c0.780273 4.25977 1.27051 7 6.98047 12.0596l-4.37988 5.01953c-3.55957 -3.01953 -7.41992 -5.50977 -12.4004 -5.50977h-193.32l7.70996 43.2002h248.27
l-52.4004 -291.37c-63.1299 -49.2305 -147.42 -77.3701 -235.479 -77.3701z" />
    <glyph glyph-name="H" unicode="H" horiz-adv-x="725" 
d="M102.28 0l127.302 708h47.7002l-55.2002 -308.46c-1.03027 -5.29004 -3.36035 -8.29004 -7.81055 -12.0596l4.28027 -5.03027c3.55957 3.03027 7.5 5.52051 12.4805 5.52051h403.15c4.96973 0 8.06934 -2.49023 10.4893 -5.52051l6.05957 5.03027
c-2.91016 3.76953 -4.45996 6.76953 -3.41992 12.0596l55.2002 308.46h48.2598l-127.3 -708h-47.71l59.9502 333.2c0.849609 5.28027 3.10938 8.28027 7.50977 12.0498l-4.37988 5.03027c-3.48047 -3.03027 -7.4707 -5.51074 -12.4404 -5.51074h-403.15
c-4.98047 0 -7.9502 2.48047 -10.4199 5.51074l-6.13965 -5.03027c3.04004 -3.76953 4.38965 -6.76953 3.5293 -12.0498l-59.9404 -333.2h-48z" />
    <glyph glyph-name="I" unicode="I" horiz-adv-x="252" 
d="M102.37 0l127.3 708h47.8203l-127.3 -708h-47.8203z" />
    <glyph glyph-name="Iacute" unicode="&#xcd;" horiz-adv-x="257" 
d="M173.27 765.74l-16.8096 37.0898l214.57 114.7l19.9697 -44.4805zM102.37 0l127.3 708h47.8203l-127.3 -708h-47.8203z" />
    <glyph glyph-name="Icircumflex" unicode="&#xce;" horiz-adv-x="257" 
d="M138.38 760.86l-24.7695 29.6797l169.9 143.69h18.5l114.8 -144.36l-30.5703 -25.2598l-98.1104 121.23zM102.37 0l127.3 708h47.8203l-127.3 -708h-47.8203z" />
    <glyph glyph-name="Idieresis" unicode="&#xcf;" horiz-adv-x="257" 
d="M206.93 809.74c-19.96 0.150391 -28.3311 13.3496 -28.2109 27.1699c0.150391 19.1904 15.5508 36.3203 36.1807 36.3203c17.2803 0 28.3301 -12.2305 28.2002 -27.0205c-0.150391 -19.1904 -14.6104 -36.6201 -36.1699 -36.4697zM338.789 809.739
c-19.9502 0.150391 -28.3301 13.3496 -28.2002 27.1699c0.150391 19.1904 15.54 36.3203 36.1699 36.3203c17.2803 0 28.3301 -12.2305 28.2002 -27.0205c-0.150391 -19.1904 -14.6104 -36.6201 -36.1699 -36.4697zM102.369 -0.00195312l127.3 708h47.8203l-127.3 -708
h-47.8203z" />
    <glyph glyph-name="Igrave" unicode="&#xcc;" horiz-adv-x="257" 
d="M350.07 765.74l-178.95 106.8l29.0703 40.1396l174.99 -113.47zM102.37 0l127.3 708h47.8203l-127.3 -708h-47.8203z" />
    <glyph glyph-name="J" unicode="J" horiz-adv-x="478" 
d="M191.17 -13c-88.5996 0 -143.57 54.5713 -158.71 128.741l42.0596 18.8496c14.6299 -60.6299 50.9102 -104.62 122.2 -104.62c89.21 0 156.5 64.2998 179.09 189.37l88.2305 488.66h47.7402l-89 -493.03c-26.8701 -149.49 -103.9 -227.971 -231.61 -227.971z" />
    <glyph glyph-name="K" unicode="K" horiz-adv-x="558" 
d="M102.43 0l127.409 707.998h47.8203l-60.4404 -335.77h6.7002c1 5.54004 3.37012 10.3398 10.75 16.9102l372.71 318.86h64.2197l-401.89 -347.5c-4.95996 -4.24023 -9.24023 -5 -12.6602 -5l-1.2998 -6.7998c3.48047 0 8.68066 -0.0996094 12.4404 -4.51953
l297.29 -344.18h-62.4502l-280.25 323.22c-5.0498 6.57031 -5.60938 11.3701 -4.5498 16.9102h-6.76953l-61.21 -340.13h-47.8203z" />
    <glyph glyph-name="L" unicode="L" horiz-adv-x="509" 
d="M102.43 0l127.369 707.999h48.4404l-117.73 -652.97c-0.759766 -5.29004 -3.87988 -8.5498 -8.63965 -12.5801l4.36035 -5.01953c3.83984 3.28027 8.08008 6.02051 13.0605 6.02051h335.82l-7.78027 -43.4502h-394.9z" />
    <glyph glyph-name="Ldot" unicode="&#x13f;" horiz-adv-x="509" 
d="M102.43 0l127.369 707.999h48.4404l-117.73 -652.97c-0.759766 -5.29004 -3.87988 -8.5498 -8.63965 -12.5801l4.36035 -5.01953c3.83984 3.28027 8.08008 6.02051 13.0605 6.02051h335.82l-7.78027 -43.4502h-394.9zM442.169 317.309
c-23.2002 0.179688 -32.9404 15.5195 -32.79 31.5898c0.179688 22.3203 18.0801 42.2305 42.0605 42.2305c20.0898 0 32.9395 -14.2197 32.7891 -31.4102c-0.179688 -22.3096 -16.9795 -42.5898 -42.0596 -42.4102z" />
    <glyph glyph-name="Lslash" unicode="&#x141;" horiz-adv-x="509" 
d="M169.29 43.4502l335.82 -0.000976562l-7.78027 -43.4502h-394.9l53.71 298.57l-84.79 -55.0898l8.42969 46.9697l84.8096 55.0996l65.21 362.45h48.4404l-58.9404 -326.91l97.4102 63.2803l-8.45996 -46.9697l-97.4199 -63.2998l-50.3203 -279.07
c-0.759766 -5.29004 -3.87988 -8.5498 -8.63965 -12.5801l4.36035 -5.01953c3.83984 3.28027 8.08008 6.02051 13.0605 6.02051z" />
    <glyph glyph-name="M" unicode="M" horiz-adv-x="858" 
d="M102.25 0l127.3 708h66.6904l182.35 -375.69c2.80957 -5.51953 1.75977 -11.3096 0.979492 -15.8594h6.66992c0.80957 4.5498 2.18945 11.2695 6.61914 15.8594l316.8 375.69h73.9697l-127.3 -708h-47.7695l113.6 631.87c1.80957 9.7998 5.18945 16.29 10.1396 21.5498
l-4.80957 4.03027l-328.14 -384.2h-43.3799l-188.63 384.63l-6.09961 -4.03027c2.91992 -5.25 4.24023 -12 2.41016 -21.7998l-113.63 -632.05h-47.7695z" />
    <glyph glyph-name="N" unicode="N" horiz-adv-x="717" 
d="M102.23 0l127.369 708h57.71l294.39 -633.86l5.99023 4.03027c-2.7998 6.74023 -3.5498 11.2598 -1.83008 21.8301l109.57 608h46.8203l-127.37 -708h-48.8496l-301.14 646.85l-5.91016 -4.01953c3.03027 -6.25977 3.5 -13 1.58984 -23.5801l-111.37 -619.25h-46.9697z
" />
    <glyph glyph-name="Ntilde" unicode="&#xd1;" horiz-adv-x="732" 
d="M580.08 789.2c-55.5195 0 -81.3115 41.001 -130.731 41.001c-29.46 0 -52.2402 -12.3496 -73.5303 -29.4795l-20.7197 32.3096c27.4102 22.54 58.9502 38.3398 97.2803 38.3398c59.54 0 88.1504 -41 130.46 -41c27.3604 0 52.5908 13.5498 76.2109 33.8896
l22.4102 -30.75c-30.4902 -26.1602 -62.71 -44.3105 -101.38 -44.3105zM102.229 0.000976562l127.369 708h57.71l294.39 -633.86l5.99023 4.03027c-2.7998 6.74023 -3.5498 11.2598 -1.83008 21.8301l109.57 608h46.8203l-127.37 -708h-48.8496l-301.14 646.85
l-5.91016 -4.01953c3.03027 -6.25977 3.5 -13 1.58984 -23.5801l-111.37 -619.25h-46.9697z" />
    <glyph glyph-name="O" unicode="O" horiz-adv-x="788" 
d="M416.34 -13.2598c-190.31 0 -309.91 142.059 -309.91 328.309c0 232.86 186.17 405.98 396.51 405.98c189.29 0 308.66 -141.52 308.66 -328.319c-0.259766 -233.63 -186.17 -405.97 -395.26 -405.97zM416.339 30.2295c185.34 0 346.489 153.109 346.489 363.479
c0 163.97 -97.7998 284.09 -260.89 284.09c-183.6 0 -346.739 -152.89 -346.739 -364c0 -163.97 98.0498 -283.569 261.14 -283.569z" />
    <glyph glyph-name="Oacute" unicode="&#xd3;" horiz-adv-x="798" 
d="M444.42 765.74l-16.8203 37.0898l214.57 114.7l19.9805 -44.4805zM416.34 -13.2598c-190.31 0 -309.91 142.059 -309.91 328.309c0 232.86 186.17 405.98 396.51 405.98c189.29 0 308.66 -141.52 308.66 -328.319c-0.259766 -233.63 -186.17 -405.97 -395.26 -405.97z
M416.339 30.2295c185.34 0 346.489 153.109 346.489 363.479c0 163.97 -97.7998 284.09 -260.89 284.09c-183.6 0 -346.739 -152.89 -346.739 -364c0 -163.97 98.0498 -283.569 261.14 -283.569z" />
    <glyph glyph-name="Ocircumflex" unicode="&#xd4;" horiz-adv-x="798" 
d="M409.53 760.86l-24.7803 29.6797l169.91 143.69h18.4902l114.8 -144.36l-30.5596 -25.2598l-98.1201 121.23zM416.34 -13.2598c-190.31 0 -309.91 142.059 -309.91 328.309c0 232.86 186.17 405.98 396.51 405.98c189.29 0 308.66 -141.52 308.66 -328.319
c-0.259766 -233.63 -186.17 -405.97 -395.26 -405.97zM416.339 30.2295c185.34 0 346.489 153.109 346.489 363.479c0 163.97 -97.7998 284.09 -260.89 284.09c-183.6 0 -346.739 -152.89 -346.739 -364c0 -163.97 98.0498 -283.569 261.14 -283.569z" />
    <glyph glyph-name="Odieresis" unicode="&#xd6;" horiz-adv-x="798" 
d="M478.07 809.74c-19.9502 0.150391 -28.3301 13.3496 -28.2002 27.1699c0.150391 19.1904 15.54 36.3203 36.1699 36.3203c17.2803 0 28.3301 -12.2305 28.2002 -27.0205c-0.150391 -19.1904 -14.6104 -36.6201 -36.1699 -36.4697zM609.931 809.739
c-19.9502 0.150391 -28.3291 13.3496 -28.1992 27.1699c0.150391 19.1904 15.54 36.3203 36.1699 36.3203c17.2803 0 28.3301 -12.2305 28.21 -27.0205c-0.160156 -19.1904 -14.6104 -36.6201 -36.1807 -36.4697zM416.342 -13.2617
c-190.31 0 -309.91 142.059 -309.91 328.309c0 232.86 186.17 405.98 396.51 405.98c189.29 0 308.66 -141.52 308.66 -328.319c-0.259766 -233.63 -186.17 -405.97 -395.26 -405.97zM416.341 30.2275c185.34 0 346.489 153.109 346.489 363.479
c0 163.97 -97.7998 284.09 -260.89 284.09c-183.6 0 -346.739 -152.89 -346.739 -364c0 -163.97 98.0498 -283.569 261.14 -283.569z" />
    <glyph glyph-name="Ograve" unicode="&#xd2;" horiz-adv-x="798" 
d="M621.21 765.74l-178.95 106.8l29.0703 40.1396l175 -113.47zM416.34 -13.2598c-190.31 0 -309.91 142.059 -309.91 328.309c0 232.86 186.17 405.98 396.51 405.98c189.29 0 308.66 -141.52 308.66 -328.319c-0.259766 -233.63 -186.17 -405.97 -395.26 -405.97z
M416.339 30.2295c185.34 0 346.489 153.109 346.489 363.479c0 163.97 -97.7998 284.09 -260.89 284.09c-183.6 0 -346.739 -152.89 -346.739 -364c0 -163.97 98.0498 -283.569 261.14 -283.569z" />
    <glyph glyph-name="Oslash" unicode="&#xd8;" horiz-adv-x="798" 
d="M718.78 636.83c59.4404 -59.2305 92.8203 -145.34 92.8203 -244.12c-0.259766 -233.63 -186.17 -405.97 -395.26 -405.97c-74.8096 0 -138.689 21.9502 -188.68 59.9102l-67.3896 -81l-31.4004 20.2305l70.79 85.1104c-59.7402 59.3096 -93.2305 145.5 -93.2305 244.06
c0 232.86 186.17 405.98 396.51 405.98c74.3799 0 137.97 -21.8604 187.76 -59.7207l66.5703 80.0303l30.8096 -21.2305zM155.2 313.801c0 -84.4805 26.0293 -157.189 73.5693 -207.819l433.21 520.8c-41.9502 32.4697 -95.9502 51.0195 -160.04 51.0195
c-183.6 0 -346.739 -152.89 -346.739 -364zM416.339 30.2314c185.34 0 346.49 153.109 346.49 363.479c0 84.4102 -25.9199 157.19 -73.3096 207.95l-433.25 -520.64c41.9902 -32.3398 96.0098 -50.79 160.069 -50.79z" />
    <glyph glyph-name="Otilde" unicode="&#xd5;" horiz-adv-x="798" 
d="M606.08 789.2c-55.5195 0 -81.3115 41.001 -130.731 41.001c-29.46 0 -52.2402 -12.3496 -73.5303 -29.4795l-20.7197 32.3096c27.4102 22.54 58.9502 38.3398 97.2803 38.3398c59.54 0 88.1504 -41 130.46 -41c27.3604 0 52.5908 13.5498 76.2109 33.8896
l22.4102 -30.75c-30.4902 -26.1602 -62.71 -44.3105 -101.38 -44.3105zM416.338 -13.2588c-190.31 0 -309.91 142.059 -309.91 328.309c0 232.86 186.17 405.98 396.51 405.98c189.29 0 308.66 -141.52 308.66 -328.319c-0.259766 -233.63 -186.17 -405.97 -395.26 -405.97z
M416.337 30.2305c185.34 0 346.489 153.109 346.489 363.479c0 163.97 -97.7998 284.09 -260.89 284.09c-183.6 0 -346.739 -152.89 -346.739 -364c0 -163.97 98.0498 -283.569 261.14 -283.569z" />
    <glyph glyph-name="OE" unicode="&#x152;" horiz-adv-x="1150" 
d="M416.34 -13.2598c-190.31 0 -309.91 142.058 -309.91 328.308c0 232.86 186.17 405.98 396.51 405.98c149.34 0 254.99 -91.21 285.87 -221.06l6.71973 3.28027c-1.54004 5 -3.27051 12.2305 -1.77051 20.75l32.79 184h397.22l-7.86035 -43.46h-338.19
c-4.9502 0 -7.99023 2.49023 -10.4902 5.50977l-6.04004 -5.01953c2.99023 -3.78027 4.36035 -6.78027 3.45996 -12.0605l-44.5996 -249.69c-0.959961 -5.28027 -3.78027 -8.28027 -8.12988 -12.0498l4.34961 -5.03027c3.48047 3.03027 7.4502 5.51074 12.4004 5.51074
h294.05l-7.83008 -43.46h-294.05c-4.98047 0 -8.02051 2.49023 -10.4209 5.52051l-6.13965 -5.03027c2.99023 -3.76953 4.58008 -6.76953 3.65039 -12.0596l-50.5996 -281.65c-0.959961 -5.29004 -3.66992 -8.29004 -8.04004 -12.0596l4.28027 -5.03027
c3.5498 3.03027 7.49023 5.51074 12.4707 5.51074h338.26l-7.75977 -43.4502h-397.29l22.3701 124.69c1.50977 8.50977 5.26953 15.7402 8.70996 20.7402l-5.5498 3.28027c-68.5996 -96.8604 -181.26 -161.971 -308.439 -161.971zM416.339 30.2285
c185.34 0 346.489 153.109 346.489 363.479c0 163.97 -97.7998 284.09 -260.89 284.09c-183.6 0 -346.739 -152.89 -346.739 -364c0 -163.97 98.0498 -283.569 261.14 -283.569z" />
    <glyph glyph-name="P" unicode="P" horiz-adv-x="582" 
d="M102.3 0l127.301 707.999h180.83c148.85 0 231.189 -66 231.189 -183.12c0 -163.85 -103.39 -256.6 -310.25 -256.6h-121.9c-4.9502 0 -7.99023 2.49023 -10.4102 5.52051l-6.13965 -5.03027c3.05957 -3.76953 4.25977 -6.76953 3.33008 -12.0596l-46.2002 -256.71
h-47.75zM204.931 306.229c3.45996 3.01953 7.4209 5.50977 12.3809 5.50977h121.89c161.23 0 253.641 72.79 253.641 205.2c0 102.99 -65.1504 147.601 -190.24 147.601h-121.82c-4.9502 0 -7.99023 2.49023 -10.4902 5.50977l-6.04004 -5.01953
c2.99023 -3.78027 4.28027 -6.78027 3.4502 -12.0605l-59.5996 -329.66c-0.830078 -5.28027 -3.15039 -8.28027 -7.52051 -12.0605z" />
    <glyph glyph-name="Thorn" unicode="&#xde;" horiz-adv-x="603" 
d="M102.47 0l127.3 707.999h47.7002l-20.2197 -113.37c-0.94043 -5.29004 -3.13086 -8.29004 -7.48047 -12.0596l4.36035 -5.03027c3.48047 3.03027 7.37012 5.51074 12.3203 5.51074h122.87c148.11 0 237.33 -65.9004 237.33 -187.25
c0 -165.75 -111.42 -260.15 -311.27 -260.15h-129.33c-4.98047 0 -8.07031 2.49023 -10.4707 5.52051l-6.08984 -5.03027c3.01953 -3.76953 3.95996 -6.76953 2.95996 -12.0596l-21.9805 -124.08h-48zM181.46 173.849c3.50977 3.03027 7.51953 5.51953 12.4697 5.51953
h128.87c159.32 0 254.561 76.2803 254.561 208.42c0 104.56 -69.7803 151.55 -196.36 151.55h-122.39c-4.9502 0 -7.99023 2.49023 -10.3906 5.50977l-6.13965 -5.01953c2.99023 -3.78027 4.12988 -6.75 3.0498 -12.0596l-60.8301 -336.83
c-0.980469 -5.20996 -2.82031 -8.29004 -7.16992 -12.0596z" />
    <glyph glyph-name="Q" unicode="Q" horiz-adv-x="788" 
d="M811.6 392.71c-0.19043 -167.74 -96.0693 -303.88 -227.529 -367.33l0.219727 -7.15039c4.66992 0.75 8.49023 0.0996094 13 -7.51074l58.2695 -97.8203l-40.2305 -26.4297l-72.8604 121.69c-40.0596 -13.9502 -82.5898 -21.4199 -126.13 -21.4199
c-190.31 0 -309.909 142.06 -309.909 328.31c0 232.86 186.17 405.98 396.51 405.98c189.29 0 308.66 -141.52 308.66 -328.319zM416.341 30.2305c185.34 0 346.489 153.109 346.489 363.479c0 163.97 -97.7998 284.09 -260.89 284.09
c-183.6 0 -346.739 -152.89 -346.739 -364c0 -163.97 98.0498 -283.569 261.14 -283.569z" />
    <glyph glyph-name="R" unicode="R" horiz-adv-x="614" 
d="M102.43 0l127.4 707.988h199.73c128.29 0 218.49 -54 218.49 -176.19c0 -140.88 -114.63 -216.09 -261.66 -219.52l-1.12988 -6.28027c5.32031 0.25 9.91992 -2.17969 13.4502 -7.85938l184.54 -298.14h-54.7998l-194.37 312.03h-116.46
c-4.98047 0 -8.02051 2.48047 -10.4404 5.51074l-6.12012 -5.03027c2.91992 -3.76953 4.20996 -6.76953 3.30957 -12.0596l-54.2002 -300.45h-47.7402zM212.9 349.438c3.45996 3.03027 7.41797 5.51953 12.3984 5.51953h150.19c122.53 0 223.62 57.4502 223.62 170.931
c0 103 -70.8799 138.64 -177.17 138.64h-140.96c-4.9502 0 -8 2.49023 -10.4697 5.50977l-6.04004 -5.01953c2.96973 -3.78027 4.20996 -6.78027 3.20996 -12.0605l-51.71 -286.43c-0.879883 -5.29004 -3 -8.29004 -7.34961 -12.0596z" />
    <glyph glyph-name="S" unicode="S" horiz-adv-x="529" 
d="M262.19 -13c-93.9697 0 -160.019 32.0596 -211.858 100.13l36.2197 35.6602c43.7695 -61.2002 101.229 -91.8301 181.449 -91.8301c121.02 0 199.609 77.9902 199.609 163.521c0 72.3896 -42.2197 110.84 -145.359 154.22
c-111.57 46.7695 -158.521 94.1797 -158.521 180.1c0 112.27 99.3301 191.96 249.84 191.96c74.2598 0 128.97 -22.2803 173.56 -63.2803l-34.5898 -36.6299c-33.79 34.9199 -85.2598 55.9502 -147.399 55.9502c-108.88 0 -191.93 -62.0996 -191.93 -143.93
c0 -80.9297 66.1104 -110.04 140.24 -141.93c112.52 -48.3896 164.109 -97.21 164.109 -187.94c0 -128.04 -104.67 -216 -255.37 -216z" />
    <glyph glyph-name="Scaron" unicode="&#x160;" horiz-adv-x="541" 
d="M385.64 763.6l-117.77 143.679l30.5498 25.4902l102.64 -123.08l145.04 124.9l24.9697 -27.3096l-166.93 -143.68h-18.5zM262.19 -13.002c-93.9697 0 -160.019 32.0596 -211.858 100.13l36.2197 35.6602c43.7695 -61.2002 101.229 -91.8301 181.449 -91.8301
c121.02 0 199.609 77.9902 199.609 163.521c0 72.3896 -42.2197 110.84 -145.359 154.22c-111.57 46.7695 -158.521 94.1797 -158.521 180.1c0 112.27 99.3301 191.96 249.84 191.96c74.2598 0 128.97 -22.2803 173.56 -63.2803l-34.5898 -36.6299
c-33.79 34.9199 -85.2598 55.9502 -147.399 55.9502c-108.88 0 -191.93 -62.0996 -191.93 -143.93c0 -80.9297 66.1104 -110.04 140.24 -141.93c112.52 -48.3896 164.109 -97.21 164.109 -187.94c0 -128.04 -104.67 -216 -255.37 -216z" />
    <glyph glyph-name="T" unicode="T" horiz-adv-x="554" 
d="M253.6 0l117.401 652.97c0.980469 5.36035 3.4707 8.28027 7.75098 12.0605l-4.28027 5.01953c-3.45996 -3.01953 -7.5 -5.50977 -12.4697 -5.50977h-233l7.83008 43.46h535.26l-7.83008 -43.46h-232c-4.98047 0 -8.02051 2.49023 -10.4209 5.50977l-6.13965 -5.01953
c3.01953 -3.78027 4.01953 -6.7002 3.03906 -12.0605l-117.4 -652.97h-47.7402z" />
    <glyph glyph-name="U" unicode="U" horiz-adv-x="721" 
d="M358.12 -13c-161.19 0 -249.221 111 -212.751 314.34l73.0303 406.66h47.7402l-72 -400.26c-35.0801 -195.46 41.6299 -276.77 171.91 -276.77c121.55 0 237.97 91.5596 271.319 276.77l72 400.26h47.4805l-73.0195 -406.66
c-36.5 -203.45 -154.11 -314.34 -325.71 -314.34z" />
    <glyph glyph-name="Uacute" unicode="&#xda;" horiz-adv-x="736" 
d="M412.65 765.74l-16.8203 37.0898l214.57 114.7l19.9697 -44.4805zM358.12 -13c-161.19 0 -249.221 111 -212.751 314.34l73.0303 406.66h47.7402l-72 -400.26c-35.0801 -195.46 41.6299 -276.77 171.91 -276.77c121.55 0 237.97 91.5596 271.319 276.77l72 400.26
h47.4805l-73.0195 -406.66c-36.5 -203.45 -154.11 -314.34 -325.71 -314.34z" />
    <glyph glyph-name="Ucircumflex" unicode="&#xdb;" horiz-adv-x="736" 
d="M377.75 760.86l-24.7695 29.6797l169.91 143.69h18.4902l114.8 -144.36l-30.5703 -25.2598l-98.1104 121.23zM358.12 -13c-161.19 0 -249.221 111 -212.751 314.34l73.0303 406.66h47.7402l-72 -400.26c-35.0801 -195.46 41.6299 -276.77 171.91 -276.77
c121.55 0 237.97 91.5596 271.319 276.77l72 400.26h47.4805l-73.0195 -406.66c-36.5 -203.45 -154.11 -314.34 -325.71 -314.34z" />
    <glyph glyph-name="Udieresis" unicode="&#xdc;" horiz-adv-x="736" 
d="M446.3 809.74c-19.9502 0.150391 -28.3301 13.3496 -28.21 27.1699c0.160156 19.1904 15.5498 36.3203 36.1797 36.3203c17.2803 0 28.3301 -12.2305 28.2002 -27.0205c-0.150391 -19.1904 -14.6104 -36.6201 -36.1699 -36.4697zM578.16 809.739
c-19.9502 0.150391 -28.3291 13.3496 -28.1992 27.1699c0.150391 19.1904 15.54 36.3203 36.1699 36.3203c17.2803 0 28.3301 -12.2305 28.2002 -27.0205c-0.150391 -19.1904 -14.6006 -36.6201 -36.1709 -36.4697zM358.121 -13.002c-161.19 0 -249.221 111 -212.751 314.34
l73.0303 406.66h47.7402l-72 -400.26c-35.0801 -195.46 41.6299 -276.77 171.91 -276.77c121.55 0 237.97 91.5596 271.319 276.77l72 400.26h47.4805l-73.0195 -406.66c-36.5 -203.45 -154.11 -314.34 -325.71 -314.34z" />
    <glyph glyph-name="Ugrave" unicode="&#xd9;" horiz-adv-x="736" 
d="M589.44 765.74l-178.95 106.8l29.0703 40.1396l174.99 -113.47zM358.12 -13c-161.19 0 -249.221 111 -212.751 314.34l73.0303 406.66h47.7402l-72 -400.26c-35.0801 -195.46 41.6299 -276.77 171.91 -276.77c121.55 0 237.97 91.5596 271.319 276.77l72 400.26h47.4805
l-73.0195 -406.66c-36.5 -203.45 -154.11 -314.34 -325.71 -314.34z" />
    <glyph glyph-name="V" unicode="V" horiz-adv-x="605" 
d="M280.93 0l-139.19 707.999h51.4404l118.51 -621.09c1.54004 -8.20996 0.490234 -15.0596 -0.540039 -20.8291h6.66992c0.959961 5.03027 2.00977 11.6299 6.95996 20.8301l339.79 621.09h55.7305l-394 -708h-45.3701z" />
    <glyph glyph-name="W" unicode="W" horiz-adv-x="952" 
d="M239.35 0l-93.2988 707.999h52.1201l73.5801 -611.46c0.879883 -7.26953 -0.200195 -14.1396 -1.45996 -20.6592h6.75c1.17969 6.51953 2.08984 13.3896 5.55957 20.6592l292.8 611.46h50l75.5703 -611.46c0.839844 -7.26953 -0.200195 -14.1396 -1.40039 -20.6592
h6.76953c1.17969 6.51953 3.0498 13.3691 6.49023 20.6592l294.52 611.46h53.3301l-348.47 -708h-44.8604l-76.5498 613.31c-0.830078 7.24023 0.189453 14.4004 1.56934 21.9404h-6.66992c-1.37988 -7.54004 -2.46973 -14.5996 -6.00977 -21.9395l-296.49 -613.31h-43.8496
z" />
    <glyph glyph-name="X" unicode="X" horiz-adv-x="587" 
d="M11.7998 0l316.708 366.151l-177.43 341.85h53.9697l155.49 -300.85c2.23047 -4.33008 1.84082 -10.25 1.26074 -13.2803h6.78027c0.650391 3.76953 1.08008 9.2793 4.75977 13.5391l259.86 300.59h58.0703l-304.67 -351.87l189.17 -356.13h-54.5996l-164.88 314.55
c-2.34961 4.50977 -1.91992 10.5098 -1.28027 13.7998h-6.78027c-0.780273 -4.03027 -1.73047 -9.24023 -5.48047 -13.5498l-272.64 -314.8h-58.3096z" />
    <glyph glyph-name="Y" unicode="Y" horiz-adv-x="582" 
d="M267.14 0l56.5098 313.63l-180.44 394.37h53.4805l152.72 -340.15c2.44043 -5.48047 1.56055 -12.0508 1.13086 -14.8203h6.75c0.570312 3.50977 1.85059 9.45996 5.9502 14.5703l274.83 340.4h56.1396l-322.79 -394.12l-56.46 -313.88h-47.8203z" />
    <glyph glyph-name="Yacute" unicode="&#xdd;" horiz-adv-x="594" 
d="M334.65 765.74l-16.8203 37.0898l214.57 114.7l19.9697 -44.4805zM267.14 0l56.5098 313.63l-180.44 394.37h53.4805l152.72 -340.15c2.44043 -5.48047 1.56055 -12.0508 1.13086 -14.8203h6.75c0.570312 3.50977 1.85059 9.45996 5.9502 14.5703l274.83 340.4h56.1396
l-322.79 -394.12l-56.46 -313.88h-47.8203z" />
    <glyph glyph-name="Ydieresis" unicode="&#x178;" horiz-adv-x="594" 
d="M368.3 809.74c-19.9502 0.150391 -28.3301 13.3496 -28.21 27.1699c0.160156 19.1904 15.5498 36.3203 36.1797 36.3203c17.2803 0 28.3301 -12.2305 28.2002 -27.0205c-0.150391 -19.1904 -14.6104 -36.6201 -36.1699 -36.4697zM500.16 809.739
c-19.9502 0.150391 -28.3291 13.3496 -28.1992 27.1699c0.150391 19.1904 15.54 36.3203 36.1699 36.3203c17.2803 0 28.3301 -12.2305 28.2002 -27.0205c-0.150391 -19.1904 -14.6006 -36.6201 -36.1709 -36.4697zM267.142 -0.00195312l56.5098 313.63l-180.44 394.37
h53.4805l152.72 -340.15c2.44043 -5.48047 1.56055 -12.0508 1.13086 -14.8203h6.75c0.570312 3.50977 1.85059 9.45996 5.9502 14.5703l274.83 340.4h56.1396l-322.79 -394.12l-56.46 -313.88h-47.8203z" />
    <glyph glyph-name="Z" unicode="Z" horiz-adv-x="593" 
d="M26.21 0l6.34863 33.2793l561.11 615.72c6.55957 6.91992 10.75 8.74023 15.2402 8.74023l1.23047 6.7998h-447.89l7.75977 43.46h513.08l-5.94043 -33.5498l-560.12 -615.71c-6.79004 -6.92969 -11.3496 -8.73926 -15.6094 -8.73926l-1.12988 -6.7998h469.06
l-7.80957 -43.2002h-535.33z" />
    <glyph glyph-name="Zcaron" unicode="&#x17d;" horiz-adv-x="605" 
d="M421.13 763.6l-117.769 143.679l30.5498 25.4902l102.64 -123.08l145.04 124.9l24.9697 -27.3096l-166.94 -143.68h-18.4902zM26.2109 -0.00195312l6.34863 33.2793l561.11 615.72c6.55957 6.91992 10.75 8.74023 15.2402 8.74023l1.23047 6.7998h-447.89l7.75977 43.46
h513.08l-5.94043 -33.5498l-560.12 -615.71c-6.79004 -6.92969 -11.3496 -8.73926 -15.6094 -8.73926l-1.12988 -6.7998h469.06l-7.80957 -43.2002h-535.33z" />
    <glyph glyph-name="a" unicode="a" horiz-adv-x="589" 
d="M356.93 484.25c117.81 0 159.75 -78.251 172.86 -118.741l6.80957 3.54004c-2.55957 6.5498 -4.09961 14.5498 -2.66992 23.5801l14.8799 82.3701h45.8096l-85.5 -475h-45.5596l13.4004 75.6904c1.70996 9.54004 6.53027 17.54 11.0303 23.5703l-5.48047 3.54004
c-23.9102 -37.3496 -91.2002 -115.55 -204.13 -115.55c-111.62 0 -195.88 90.4805 -195.88 212.141c0 160.8 121.13 284.859 274.43 284.859zM353.21 442.309c-126.7 0 -224.24 -109.67 -224.24 -241.74c0 -96.3301 61.5996 -171.37 161.18 -171.37
c114.29 0 222.11 115.03 222.11 241.75c0 94.3701 -55.3398 171.36 -159.05 171.36z" />
    <glyph glyph-name="aacute" unicode="&#xe1;" horiz-adv-x="601" 
d="M299.8 549.83l-16.8193 37.0801l214.58 114.71l19.9697 -44.4805zM356.931 484.25c117.81 0 159.75 -78.251 172.86 -118.741l6.80957 3.54004c-2.55957 6.5498 -4.09961 14.5498 -2.66992 23.5801l14.8799 82.3701h45.8096l-85.5 -475h-45.5596l13.4004 75.6904
c1.70996 9.54004 6.53027 17.54 11.0303 23.5703l-5.48047 3.54004c-23.9102 -37.3496 -91.2002 -115.55 -204.13 -115.55c-111.62 0 -195.88 90.4805 -195.88 212.141c0 160.8 121.13 284.859 274.43 284.859zM353.211 442.309c-126.7 0 -224.24 -109.67 -224.24 -241.74
c0 -96.3301 61.5996 -171.37 161.18 -171.37c114.29 0 222.11 115.03 222.11 241.75c0 94.3701 -55.3398 171.36 -159.05 171.36z" />
    <glyph glyph-name="acircumflex" unicode="&#xe2;" horiz-adv-x="601" 
d="M264.73 544.95l-24.7803 29.6787l169.91 143.68h18.4902l114.8 -144.35l-30.5596 -25.2695l-98.1201 121.23zM356.931 484.249c117.81 0 159.75 -78.251 172.86 -118.741l6.80957 3.54004c-2.55957 6.5498 -4.09961 14.5498 -2.66992 23.5801l14.8799 82.3701h45.8096
l-85.5 -475h-45.5596l13.4004 75.6904c1.70996 9.54004 6.53027 17.54 11.0303 23.5703l-5.48047 3.54004c-23.9102 -37.3496 -91.2002 -115.55 -204.13 -115.55c-111.62 0 -195.88 90.4805 -195.88 212.141c0 160.8 121.13 284.859 274.43 284.859zM353.211 442.308
c-126.7 0 -224.24 -109.67 -224.24 -241.74c0 -96.3301 61.5996 -171.37 161.18 -171.37c114.29 0 222.11 115.03 222.11 241.75c0 94.3701 -55.3398 171.36 -159.05 171.36z" />
    <glyph glyph-name="adieresis" unicode="&#xe4;" horiz-adv-x="601" 
d="M319.15 593.82c-19.9502 0.150391 -28.25 13.3506 -28.2002 27.1709c0.150391 19.2002 15.5508 36.3301 36.1807 36.3301c17.2803 0 28.1807 -12.2402 28.2002 -27.0205c-0.150391 -19.1904 -14.6104 -36.5508 -36.1807 -36.4805zM479.69 593.82
c-19.9502 0.150391 -28.3291 13.3506 -28.1992 27.1709c0.150391 19.2002 15.54 36.3301 36.1699 36.3301c17.2803 0 28.3301 -12.2402 28.21 -27.0205c-0.160156 -19.1904 -14.6104 -36.6309 -36.1807 -36.4805zM356.932 484.25c117.81 0 159.75 -78.251 172.86 -118.741
l6.80957 3.54004c-2.55957 6.5498 -4.09961 14.5498 -2.66992 23.5801l14.8799 82.3701h45.8096l-85.5 -475h-45.5596l13.4004 75.6904c1.70996 9.54004 6.53027 17.54 11.0303 23.5703l-5.48047 3.54004c-23.9102 -37.3496 -91.2002 -115.55 -204.13 -115.55
c-111.62 0 -195.88 90.4805 -195.88 212.141c0 160.8 121.13 284.859 274.43 284.859zM353.212 442.309c-126.7 0 -224.24 -109.67 -224.24 -241.74c0 -96.3301 61.5996 -171.37 161.18 -171.37c114.29 0 222.11 115.03 222.11 241.75
c0 94.3701 -55.3398 171.36 -159.05 171.36z" />
    <glyph glyph-name="agrave" unicode="&#xe0;" horiz-adv-x="601" 
d="M476.67 549.83l-178.95 106.8l29.0703 40.1396l174.99 -113.47zM356.93 484.25c117.81 0 159.75 -78.251 172.86 -118.741l6.80957 3.54004c-2.55957 6.5498 -4.09961 14.5498 -2.66992 23.5801l14.8799 82.3701h45.8096l-85.5 -475h-45.5596l13.4004 75.6904
c1.70996 9.54004 6.53027 17.54 11.0303 23.5703l-5.48047 3.54004c-23.9102 -37.3496 -91.2002 -115.55 -204.13 -115.55c-111.62 0 -195.88 90.4805 -195.88 212.141c0 160.8 121.13 284.859 274.43 284.859zM353.21 442.309c-126.7 0 -224.24 -109.67 -224.24 -241.74
c0 -96.3301 61.5996 -171.37 161.18 -171.37c114.29 0 222.11 115.03 222.11 241.75c0 94.3701 -55.3398 171.36 -159.05 171.36z" />
    <glyph glyph-name="aring" unicode="&#xe5;" horiz-adv-x="601" 
d="M387.12 533.24c-60.2305 0 -87.1699 43.5898 -87.1699 89.7803c0 62.4297 49.4004 118.52 115.42 118.52c55.1299 0 86.7695 -39.21 86.7695 -89.7695c0 -62.1904 -46.8398 -118.53 -115.02 -118.53zM390.411 568.37c42.71 0 75.9189 35.7607 75.9189 79.2607
c0 33.1396 -19.5098 58.7793 -55.0195 58.7793c-43.2998 0 -75.75 -38.1201 -75.75 -79.9805c0 -31.6699 18.3203 -58.0596 54.8506 -58.0596zM356.93 484.251c117.81 0 159.75 -78.251 172.86 -118.741l6.80957 3.54004c-2.55957 6.5498 -4.09961 14.5498 -2.66992 23.5801
l14.8799 82.3701h45.8096l-85.5 -475h-45.5596l13.4004 75.6904c1.70996 9.54004 6.53027 17.54 11.0303 23.5703l-5.48047 3.54004c-23.9102 -37.3496 -91.2002 -115.55 -204.13 -115.55c-111.62 0 -195.88 90.4805 -195.88 212.141c0 160.8 121.13 284.859 274.43 284.859
zM353.21 442.31c-126.7 0 -224.24 -109.67 -224.24 -241.74c0 -96.3301 61.5996 -171.37 161.18 -171.37c114.29 0 222.11 115.03 222.11 241.75c0 94.3701 -55.3398 171.36 -159.05 171.36z" />
    <glyph glyph-name="atilde" unicode="&#xe3;" horiz-adv-x="601" 
d="M461.28 573.28c-55.5195 0 -81.3115 41.001 -130.731 41.001c-29.46 0 -52.2402 -12.3496 -73.5303 -29.4795l-20.7197 32.3096c27.4102 22.54 58.9502 38.3398 97.2803 38.3398c59.54 0 88.1504 -41 130.46 -41c27.3604 0 52.5908 13.5596 76.2109 33.8994
l22.4102 -30.7598c-30.4902 -26.1504 -62.71 -44.3105 -101.38 -44.3105zM356.929 484.251c117.81 0 159.75 -78.251 172.86 -118.741l6.80957 3.54004c-2.55957 6.5498 -4.09961 14.5498 -2.66992 23.5801l14.8799 82.3701h45.8096l-85.5 -475h-45.5596l13.4004 75.6904
c1.70996 9.54004 6.53027 17.54 11.0303 23.5703l-5.48047 3.54004c-23.9102 -37.3496 -91.2002 -115.55 -204.13 -115.55c-111.62 0 -195.88 90.4805 -195.88 212.141c0 160.8 121.13 284.859 274.43 284.859zM353.209 442.31c-126.7 0 -224.24 -109.67 -224.24 -241.74
c0 -96.3301 61.5996 -171.37 161.18 -171.37c114.29 0 222.11 115.03 222.11 241.75c0 94.3701 -55.3398 171.36 -159.05 171.36z" />
    <glyph glyph-name="ae" unicode="&#xe6;" horiz-adv-x="956" 
d="M278.38 -12.75c-111.62 0 -195.884 90.4814 -195.884 212.142c0 160.8 121.13 284.859 274.43 284.859c117.81 0 159.75 -78.25 172.86 -118.74l6.80957 3.54004c-2.55957 6.5498 -4.09961 14.5498 -2.66992 23.5801l14.8799 82.3701h45.8096l-15.4297 -83.8398
c-1.70996 -9.03027 -5.37988 -17.0303 -10.3096 -23.5703l5.57031 -3.5498c50.8203 79.0898 124.92 120.21 211.86 120.21c118.66 0 182.061 -84.7197 180.601 -203.95c-0.389648 -36.0498 -5.50977 -49.21 -7.88965 -58.4697h-389.2
c-7.87988 0 -10.3301 1.74023 -12.2598 4.50977l-6.07031 -5.03027c2.37012 -3.03027 3.77051 -6.03027 3.23047 -11.0303c-10.1201 -104.19 64.1299 -181.08 158.47 -181.08c74.2803 0 129.65 32.6396 168.021 82.5996l35.29 -25.9502
c-42.0898 -56.8604 -109.63 -98.6006 -208.93 -98.6006c-81.79 0 -150.55 48.75 -179.72 116.72l-6.83984 -3.5498c2.41016 -6.03027 3.74023 -14.0303 1.95996 -23.5703l-13.8496 -76.8496h-45.5596l13.4004 75.6904c1.70996 9.54004 6.53027 17.54 11.0303 23.5703
l-5.48047 3.54004c-23.9102 -37.3496 -91.2002 -115.55 -204.13 -115.55zM290.146 29.2012c114.29 0 222.11 115.03 222.11 241.75c0 94.3701 -55.3398 171.36 -159.05 171.36c-126.7 0 -224.24 -109.67 -224.24 -241.74c0 -96.3301 61.5996 -171.37 161.18 -171.37z
M563.686 256.682c2.99023 2.51953 6.14062 4 12.0605 4h331.79c5.92969 0 8.62988 -1.48047 10.6895 -4l6.13965 5.03027c-2.40039 2.99023 -2.28027 6.65039 -2.48047 31.25c-1.51953 76.7402 -45.7295 149.351 -141.649 149.351c-120.94 0 -188 -99.29 -210.87 -167.771
c-2.0498 -5.44043 -6.16992 -9.54004 -10.0596 -12.8301z" />
    <glyph glyph-name="b" unicode="b" horiz-adv-x="589" 
d="M315.9 -12.75c-117.81 0 -159.74 78.2598 -172.851 118.75l-6.82031 -3.5498c2.57031 -6.54004 4.31055 -14.4902 2.65039 -23.5205l-14.3604 -78.9297h-45.5996l127.3 708h45.3701l-56.3203 -312.13c-1.69043 -9.54004 -6.66016 -17.5898 -11.1602 -23.6201
l5.48047 -3.54004c23.9102 37.3496 91.9404 115.54 204.87 115.54c111.62 0 195.87 -90.4697 195.87 -212.13c0 -160.8 -121.12 -284.87 -274.43 -284.87zM318.68 29.2002c127.65 0 225.191 110.829 225.191 241.739c0 96.3301 -60.9102 171.37 -160.521 171.37
c-114.95 0 -222.78 -113.18 -222.78 -241.76c0 -95.2598 55.3496 -171.35 158.109 -171.35z" />
    <glyph glyph-name="c" unicode="c" horiz-adv-x="503" 
d="M284.38 -12.75c-119.81 0 -201.871 91.791 -201.871 210.771c0 162.46 122.94 286.229 274.521 286.229c84.3799 0 146.47 -38.5703 177.109 -113.54l-39.9902 -21.4805c-21.4297 58.6504 -72.54 93.0801 -141.93 93.0801c-124.22 0 -223.42 -109.5 -223.42 -239.83
c0 -94.96 59.9004 -173.28 160.37 -173.28c65.6699 0 124.12 32.2695 163.851 86.8994l35.4502 -25.3896c-50.9502 -69.75 -120.32 -103.46 -204.09 -103.46z" />
    <glyph glyph-name="ccedilla" unicode="&#xe7;" horiz-adv-x="513" 
d="M352.22 442.31c-124.22 0 -223.422 -109.501 -223.422 -239.831c0 -94.96 59.9004 -173.28 160.37 -173.28c65.6699 0 124.12 32.2695 163.851 86.8994l35.4502 -25.3896c-50.9502 -69.75 -120.32 -103.46 -204.09 -103.46
c-2.17969 0 -4.34961 0.0400391 -6.50977 0.0996094l-16.6602 -31.2695h7.98047c47.75 -0.519531 77.8701 -31.6592 77.8701 -77.0088c0 -54.3799 -37.8096 -101.1 -111.18 -101.1c-55 0 -89.2197 34.54 -83.5801 85.0996h34.6797
c-2.29004 -34.46 19.4404 -52.5498 52.4707 -52.5498c44.71 0 70.7803 27.6104 70.7803 64.8604c0 27.5195 -17.6104 47.5898 -55.6699 47.96h-46.6201l35.0996 67.75c-96.9404 18.54 -160.53 102.2 -160.53 206.931c0 162.46 122.94 286.229 274.521 286.229
c84.3799 0 146.47 -38.5703 177.109 -113.54l-39.9902 -21.4805c-21.4297 58.6504 -72.54 93.0801 -141.93 93.0801z" />
    <glyph glyph-name="d" unicode="d" horiz-adv-x="591" 
d="M358.98 484.25c117.81 0 159.751 -78.251 172.851 -118.741l6.82031 3.54004c-2.57031 6.5498 -4.28027 14.5498 -2.68066 23.5801l56.6904 315.37h45.8096l-127.3 -708h-45.5703l13.4004 75.6904c1.70996 9.54004 6.53027 17.54 11.0303 23.5703l-5.48047 3.54004
c-23.9102 -37.3496 -91.1904 -115.55 -204.12 -115.55c-111.63 0 -195.88 90.4805 -195.88 212.141c0 160.8 121.13 284.859 274.43 284.859zM355.251 442.309c-126.69 0 -224.24 -109.67 -224.24 -241.74c0 -96.3301 61.5996 -171.37 161.189 -171.37
c114.28 0 222.11 115.03 222.11 241.75c0 94.3701 -55.3398 171.36 -159.06 171.36z" />
    <glyph glyph-name="eth" unicode="&#xf0;" horiz-adv-x="572" 
d="M412.76 656.93c103.48 -77.4805 160.45 -186.554 160.45 -327.754c0 -193.91 -100.5 -341.93 -281.06 -341.93c-139.58 0 -207.72 103.75 -207.72 216.58c0 148.48 117.54 280.421 271.36 280.421c93.6396 0 150.64 -46.8398 170.899 -118.77l6.75977 3.03027
c-2.2998 97.6699 -61.96 195.28 -154.46 263.63l-89.6299 -65.7998l-17.7998 25.6904l79.9297 58.9404c-32.7998 20.7803 -68.9697 38.0205 -107.62 50.6309l20.7803 34.0303c44.71 -16.6602 85.0703 -36.5303 120.75 -59.6504l88.2402 65.0703l19.0195 -25.4502z
M295.14 29.1973c127.26 0 223.74 108.829 223.74 236.229c0 100.57 -60.4502 176.88 -164.97 176.88c-128.74 0 -223.221 -114.77 -223.221 -238.46c0 -96.8496 57.71 -174.649 164.45 -174.649z" />
    <glyph glyph-name="e" unicode="e" horiz-adv-x="533" 
d="M285.08 -12.75c-111.81 0 -200.102 87.7715 -200.102 209.731c0 159.33 115.47 287.271 278.85 287.271c118.66 0 182.061 -84.7197 180.591 -203.95c-0.379883 -36.0498 -5.50977 -49.21 -7.88965 -58.4697h-388.68c-7.87988 0 -10.3301 1.74023 -12.2598 4.50977
l-6.07031 -5.03027c2.37012 -3.03027 3.71973 -6.03027 3.22949 -11.0303c-6.58008 -95.0996 56.71 -181.08 157.96 -181.08c74.2803 0 129.641 32.6396 168.011 82.5996l35.2998 -25.9502c-42.0898 -56.8604 -109.63 -98.6006 -208.939 -98.6006zM138.908 256.682
c3 2.51953 6.13867 3.99902 12.0684 3.99902h334.07c5.92969 0 8.62988 -1.48047 10.7002 -4l6.13965 5.03027c-2.41016 2.99023 -2.28027 6.65039 -2.49023 31.25c-1.50977 76.7402 -45.7295 149.351 -141.649 149.351c-125.84 0 -195.06 -96.8398 -213.159 -167.77
c-1.63965 -5.45996 -6.15918 -9.54004 -10.0596 -12.8301z" />
    <glyph glyph-name="eacute" unicode="&#xe9;" horiz-adv-x="541" 
d="M283.77 549.83l-16.8193 37.0801l214.58 114.71l19.9697 -44.4805zM285.08 -12.75c-111.81 0 -200.102 87.7715 -200.102 209.731c0 159.33 115.47 287.271 278.85 287.271c118.66 0 182.061 -84.7197 180.591 -203.95
c-0.379883 -36.0498 -5.50977 -49.21 -7.88965 -58.4697h-388.68c-7.87988 0 -10.3301 1.74023 -12.2598 4.50977l-6.07031 -5.03027c2.37012 -3.03027 3.71973 -6.03027 3.22949 -11.0303c-6.58008 -95.0996 56.71 -181.08 157.96 -181.08
c74.2803 0 129.641 32.6396 168.011 82.5996l35.2998 -25.9502c-42.0898 -56.8604 -109.63 -98.6006 -208.939 -98.6006zM138.908 256.682c3 2.51953 6.13867 3.99902 12.0684 3.99902h334.07c5.92969 0 8.62988 -1.48047 10.7002 -4l6.13965 5.03027
c-2.41016 2.99023 -2.28027 6.65039 -2.49023 31.25c-1.50977 76.7402 -45.7295 149.351 -141.649 149.351c-125.84 0 -195.06 -96.8398 -213.159 -167.77c-1.63965 -5.45996 -6.15918 -9.54004 -10.0596 -12.8301z" />
    <glyph glyph-name="ecircumflex" unicode="&#xea;" horiz-adv-x="541" 
d="M248.7 544.95l-24.7803 29.6787l169.91 143.68h18.4902l114.8 -144.35l-30.5596 -25.2695l-98.1104 121.23zM285.08 -12.751c-111.81 0 -200.102 87.7715 -200.102 209.731c0 159.33 115.47 287.271 278.85 287.271c118.66 0 182.061 -84.7197 180.591 -203.95
c-0.379883 -36.0498 -5.50977 -49.21 -7.88965 -58.4697h-388.68c-7.87988 0 -10.3301 1.74023 -12.2598 4.50977l-6.07031 -5.03027c2.37012 -3.03027 3.71973 -6.03027 3.22949 -11.0303c-6.58008 -95.0996 56.71 -181.08 157.96 -181.08
c74.2803 0 129.641 32.6396 168.011 82.5996l35.2998 -25.9502c-42.0898 -56.8604 -109.63 -98.6006 -208.939 -98.6006zM138.908 256.681c3 2.51953 6.13867 3.99902 12.0684 3.99902h334.07c5.92969 0 8.62988 -1.48047 10.7002 -4l6.13965 5.03027
c-2.41016 2.99023 -2.28027 6.65039 -2.49023 31.25c-1.50977 76.7402 -45.7295 149.351 -141.649 149.351c-125.84 0 -195.06 -96.8398 -213.159 -167.77c-1.63965 -5.45996 -6.15918 -9.54004 -10.0596 -12.8301z" />
    <glyph glyph-name="edieresis" unicode="&#xeb;" horiz-adv-x="541" 
d="M303.13 593.82c-19.96 0.150391 -28.2607 13.3506 -28.2109 27.1709c0.150391 19.2002 15.5508 36.3301 36.1807 36.3301c17.2803 0 28.1807 -12.2402 28.2002 -27.0205c-0.150391 -19.1904 -14.6104 -36.5508 -36.1699 -36.4805zM463.659 593.82
c-19.9502 0.150391 -28.3301 13.3506 -28.2002 27.1709c0.150391 19.2002 15.5508 36.3301 36.1709 36.3301c17.2803 0 28.3301 -12.2402 28.21 -27.0205c-0.150391 -19.1904 -14.6104 -36.6309 -36.1807 -36.4805zM285.079 -12.75
c-111.81 0 -200.102 87.7715 -200.102 209.731c0 159.33 115.47 287.271 278.85 287.271c118.66 0 182.061 -84.7197 180.591 -203.95c-0.379883 -36.0498 -5.50977 -49.21 -7.88965 -58.4697h-388.68c-7.87988 0 -10.3301 1.74023 -12.2598 4.50977l-6.07031 -5.03027
c2.37012 -3.03027 3.71973 -6.03027 3.22949 -11.0303c-6.58008 -95.0996 56.71 -181.08 157.96 -181.08c74.2803 0 129.641 32.6396 168.011 82.5996l35.2998 -25.9502c-42.0898 -56.8604 -109.63 -98.6006 -208.939 -98.6006zM138.907 256.682
c3 2.51953 6.13867 3.99902 12.0684 3.99902h334.07c5.92969 0 8.62988 -1.48047 10.7002 -4l6.13965 5.03027c-2.41016 2.99023 -2.28027 6.65039 -2.49023 31.25c-1.50977 76.7402 -45.7295 149.351 -141.649 149.351c-125.84 0 -195.06 -96.8398 -213.159 -167.77
c-1.63965 -5.45996 -6.15918 -9.54004 -10.0596 -12.8301z" />
    <glyph glyph-name="egrave" unicode="&#xe8;" horiz-adv-x="541" 
d="M460.64 549.83l-178.95 106.8l29.0703 40.1396l174.99 -113.47zM285.079 -12.75c-111.81 0 -200.102 87.7715 -200.102 209.731c0 159.33 115.47 287.271 278.85 287.271c118.66 0 182.061 -84.7197 180.591 -203.95
c-0.379883 -36.0498 -5.50977 -49.21 -7.88965 -58.4697h-388.68c-7.87988 0 -10.3301 1.74023 -12.2598 4.50977l-6.07031 -5.03027c2.37012 -3.03027 3.71973 -6.03027 3.22949 -11.0303c-6.58008 -95.0996 56.71 -181.08 157.96 -181.08
c74.2803 0 129.641 32.6396 168.011 82.5996l35.2998 -25.9502c-42.0898 -56.8604 -109.63 -98.6006 -208.939 -98.6006zM138.907 256.682c3 2.51953 6.13867 3.99902 12.0684 3.99902h334.07c5.92969 0 8.62988 -1.48047 10.7002 -4l6.13965 5.03027
c-2.41016 2.99023 -2.28027 6.65039 -2.49023 31.25c-1.50977 76.7402 -45.7295 149.351 -141.649 149.351c-125.84 0 -195.06 -96.8398 -213.159 -167.77c-1.63965 -5.45996 -6.15918 -9.54004 -10.0596 -12.8301z" />
    <glyph glyph-name="f" unicode="f" horiz-adv-x="303" 
d="M101.75 0.25l76.4814 422.491c0.780273 5.29004 2.73047 7.54004 5.40039 9.83008l-4.36035 5.03027c-2.69043 -2.29004 -5.73047 -4.03027 -9.9209 -4.03027h-61.54l7.48047 41.4297h61.54c4.17969 0 6.60938 -1.75 8.43945 -4.03027l6.13965 5.03027
c-1.80957 2.28027 -3.0791 4.51074 -2.21875 9.83105l5.45996 29.7695c24.7197 138.25 87.5195 198.14 195.489 198.14c10.8496 0 26 -1.49023 40.3301 -4.9707l-7.55957 -41.9697h-1.71973c-2.9502 0 -15.1602 3.96973 -34.5 3.96973
c-71.6299 0 -127.12 -40.5703 -146.68 -153.801l-5.33008 -31.1396c-1.04004 -5.29004 -3.17969 -7.5498 -5.94922 -9.83008l4.37988 -5.03027c2.71973 2.28027 5.80957 4.03027 10.0195 4.03027h135.82l-7.48047 -41.4297h-135.82
c-4.2002 0 -6.68066 1.74023 -8.56055 4.03027l-6.13965 -5.03027c1.92969 -2.29004 3.46973 -4.54004 2.68945 -9.83008l-76.4805 -422.49h-45.4102z" />
    <glyph glyph-name="g" unicode="g" horiz-adv-x="589" 
d="M358.65 484.25c116.09 0 158.032 -78.251 171.143 -118.741l6.80957 3.54004c-2.55957 6.5498 -4.09961 14.5498 -2.66992 23.5801l14.8799 82.3701h45.8096l-82.8398 -460.43c-30.8604 -171.7 -132.841 -255.83 -278.811 -255.83l6.67969 42.46
c108.04 0 198.18 53.1797 225.81 209.79l11.29 64.1602c1.83984 10.3896 6.74023 18.0801 11.2402 24.1104l-5.48047 3.54004c-23.9102 -37.3496 -91.2002 -115.55 -203.101 -115.55c-112.68 0 -196.979 90.7598 -196.979 210.42c0 161.8 120.26 286.58 276.22 286.58z
M355.183 442.309c-132.13 0 -226.66 -111.641 -226.66 -241.48c0 -96.0801 62.7598 -171.63 160.92 -171.63c115 0 222.82 115.03 222.82 241.75c0 94.3701 -55.3398 171.36 -157.08 171.36z" />
    <glyph glyph-name="h" unicode="h" horiz-adv-x="536" 
d="M79.4805 0l127.171 708h45.3203l-51.9199 -291.03c-1.75977 -9.92969 -5.96973 -18.3193 -11.1602 -25.1191l5.48047 -3.54004c34.4902 54.54 97.2998 95.9404 172.85 95.9404c109.93 0 169.13 -73.9902 144.149 -212.771l-49 -271.48h-45.2305l47.9697 266.34
c18.9404 105.66 -16.9795 175.46 -109.56 175.46c-100.06 0 -167.3 -88.71 -180.25 -160.53l-50.5898 -281.27h-45.2305z" />
    <glyph glyph-name="i" unicode="i" horiz-adv-x="209" 
d="M213.67 610.54c-19.9502 0.150391 -28.3301 13.3496 -28.2002 27.1699c0.150391 19.1904 15.54 36.3203 36.1699 36.3203c17.2803 0 28.3301 -12.2305 28.2002 -27.0205c-0.150391 -19.1904 -14.6104 -36.6201 -36.1699 -36.4697zM124.939 -0.000976562h-45.4102
l85.5 475h45.4102z" />
    <glyph glyph-name="dotlessi" unicode="&#x131;" horiz-adv-x="205" 
d="M124.94 0h-45.4102l85.5 475h45.4102z" />
    <glyph glyph-name="iacute" unicode="&#xed;" horiz-adv-x="209" 
d="M111.46 549.83l-16.8203 37.0801l214.57 114.71l19.9805 -44.4805zM124.939 0h-45.4102l85.5 475h45.4102z" />
    <glyph glyph-name="icircumflex" unicode="&#xee;" horiz-adv-x="209" 
d="M76.3799 544.95l-24.7695 29.6787l169.9 143.68h18.5l114.8 -144.35l-30.5703 -25.2695l-98.1104 121.23zM124.94 -0.000976562h-45.4102l85.5 475h45.4102z" />
    <glyph glyph-name="idieresis" unicode="&#xef;" horiz-adv-x="209" 
d="M130.81 593.82c-19.9502 0.150391 -28.25 13.3506 -28.2002 27.1709c0.150391 19.2002 15.54 36.3301 36.1699 36.3301c17.2803 0 28.1807 -12.2402 28.2109 -27.0205c-0.160156 -19.1904 -14.6104 -36.5508 -36.1807 -36.4805zM291.35 593.82
c-19.9502 0.150391 -28.3301 13.3506 -28.2002 27.1709c0.150391 19.2002 15.54 36.3301 36.1699 36.3301c17.2803 0 28.3301 -12.2402 28.2002 -27.0205c-0.150391 -19.1904 -14.6104 -36.6309 -36.1699 -36.4805zM124.939 0h-45.4102l85.5 475h45.4102z" />
    <glyph glyph-name="igrave" unicode="&#xec;" horiz-adv-x="209" 
d="M288.33 549.83l-178.96 106.8l29.0703 40.1396l175 -113.47zM124.94 -0h-45.4102l85.5 475h45.4102z" />
    <glyph glyph-name="j" unicode="j" horiz-adv-x="217" 
d="M222.18 610.54c-19.9502 0.150391 -28.3301 13.3496 -28.2002 27.1699c0.150391 19.1904 15.5508 36.3203 36.1709 36.3203c17.2803 0 28.3301 -12.2305 28.21 -27.0205c-0.150391 -19.1904 -14.6104 -36.6201 -36.1807 -36.4697zM-51.7305 -241.261l7.75977 43.4902
c56.3203 0 102.4 34.0195 116 109.649l101.5 563.12h45.5195l-101.25 -560.92c-17.4502 -96.7598 -64.0098 -155.34 -169.529 -155.34z" />
    <glyph glyph-name="uni0237" unicode="&#x237;" horiz-adv-x="213" 
d="M-51.7305 -241.26l7.75977 43.4902c56.3203 0 102.4 34.0195 116 109.649l101.5 563.12h45.5195l-101.25 -560.92c-17.4502 -96.7598 -64.0098 -155.34 -169.529 -155.34z" />
    <glyph glyph-name="k" unicode="k" horiz-adv-x="424" 
d="M79.4102 0l127.371 708h45.4102l-78.3301 -435.43h6.76953c1.15039 6.59961 7.44043 14.3799 15.1309 20.4297l236.85 182h63.1396l-275 -213.47c-4.96973 -3.99023 -8.41992 -4.7998 -12.9102 -4.7998l-1.20996 -6.7998c4.5 0 8.83008 -0.570312 13.3398 -6.05078
l206.87 -243.88h-58.5996l-187.79 218.55c-4.84961 5.75977 -7.33984 12.3398 -6.07031 19.4199h-6.7002l-42.8604 -237.97h-45.4102z" />
    <glyph glyph-name="l" unicode="l" horiz-adv-x="205" 
d="M79.71 0l127.3 708h45.4102l-127.3 -708h-45.4102z" />
    <glyph glyph-name="ldot" unicode="&#x140;" horiz-adv-x="229" 
d="M79.71 0l127.3 708h45.4102l-127.3 -708h-45.4102zM276.939 302.09c-23.2002 0.179688 -32.9414 15.5195 -32.791 31.5898c0.169922 22.3203 18.0703 42.2305 42.0605 42.2305c20.0898 0 32.9297 -14.2197 32.79 -31.4102
c-0.179688 -22.3096 -16.9893 -42.5898 -42.0596 -42.4102z" />
    <glyph glyph-name="lslash" unicode="&#x142;" horiz-adv-x="276" 
d="M321.08 460.24l-9.05957 -49.8691l-89 -57.8301l-63.3896 -352.54h-45.4102l57.3896 319.14l-96.4902 -62.6904l9.03027 49.8701l96.4102 62.6396l60.96 339.04h45.4102l-54.9502 -305.64z" />
    <glyph glyph-name="m" unicode="m" horiz-adv-x="826" 
d="M672.56 484.25c100.04 0 153.913 -74.2197 128.923 -212.77l-49 -271.479h-45.2305l47.9805 266.34c19 105.43 -13.3604 175.46 -96.0605 175.46c-84.3799 0 -154.86 -77.5898 -171.57 -170.32l-49 -271.48h-45.2305l47.9697 266.34
c19.0098 105.43 -13.3506 175.46 -96.0605 175.46c-92.2197 0 -157.87 -92.96 -169.93 -160.22l-50.6396 -281.58h-45.2305l85.4297 475h45.3203l-10.1797 -58.0303c-2.05957 -10.0303 -5.96973 -18.3203 -11.1602 -25.1201l5.48047 -3.54004
c34.4902 54.54 89.7998 95.9404 164.31 95.9404c72.1299 0 119.93 -39 131.229 -112.74c45.6602 74.2803 104.63 112.74 182.649 112.74z" />
    <glyph glyph-name="n" unicode="n" horiz-adv-x="535" 
d="M79.4805 0l85.4307 475.001h45.3203l-10.1797 -58.0303c-2.05957 -10.0303 -5.96973 -18.3203 -11.1602 -25.1201l5.48047 -3.54004c34.4902 54.54 97.2998 95.9404 172.85 95.9404c109.93 0 169.13 -73.9902 144.149 -212.771l-49 -271.48h-45.2305l47.9697 266.34
c18.9404 105.66 -16.9795 175.46 -109.56 175.46c-100.06 0 -167.3 -88.71 -180.25 -160.53l-50.5898 -281.27h-45.2305z" />
    <glyph glyph-name="ntilde" unicode="&#xf1;" horiz-adv-x="547" 
d="M440.14 573.28c-55.5303 0 -81.3213 41.001 -130.731 41.001c-29.46 0 -52.2402 -12.3496 -73.5303 -29.4795l-20.7197 32.3096c27.4102 22.54 58.9502 38.3398 97.2803 38.3398c59.54 0 88.1504 -41 130.45 -41c27.3604 0 52.6006 13.5596 76.2207 33.8994
l22.4102 -30.7598c-30.4902 -26.1504 -62.71 -44.3105 -101.38 -44.3105zM79.4785 0.000976562l85.4307 475.002h45.3203l-10.1797 -58.0303c-2.05957 -10.0303 -5.96973 -18.3203 -11.1602 -25.1201l5.48047 -3.54004c34.4902 54.54 97.2998 95.9404 172.85 95.9404
c109.93 0 169.13 -73.9902 144.149 -212.771l-49 -271.48h-45.2305l47.9697 266.34c18.9404 105.66 -16.9795 175.46 -109.56 175.46c-100.06 0 -167.3 -88.71 -180.25 -160.53l-50.5898 -281.271h-45.2305z" />
    <glyph glyph-name="o" unicode="o" horiz-adv-x="561" 
d="M354.97 484.25c132.08 0 208.399 -96.3105 208.399 -217.311c0 -147.74 -113.09 -279.69 -271.8 -279.69c-141 0 -209.14 103.75 -209.14 216.58c0 148.48 117.54 280.421 272.54 280.421zM351.909 442.309c-128.74 0 -223.221 -114.771 -223.221 -238.461
c0 -96.8496 57.71 -174.649 164.45 -174.649c127.26 0 223.74 108.83 223.74 236.23c0 100.57 -60.4502 176.88 -164.97 176.88z" />
    <glyph glyph-name="oacute" unicode="&#xf3;" horiz-adv-x="568" 
d="M291.34 549.83l-16.8096 37.0801l214.57 114.71l19.9697 -44.4805zM354.971 484.25c132.08 0 208.399 -96.3105 208.399 -217.311c0 -147.74 -113.09 -279.69 -271.8 -279.69c-141 0 -209.14 103.75 -209.14 216.58c0 148.48 117.54 280.421 272.54 280.421z
M351.91 442.309c-128.74 0 -223.221 -114.771 -223.221 -238.461c0 -96.8496 57.71 -174.649 164.45 -174.649c127.26 0 223.74 108.83 223.74 236.23c0 100.57 -60.4502 176.88 -164.97 176.88z" />
    <glyph glyph-name="ocircumflex" unicode="&#xf4;" horiz-adv-x="568" 
d="M256.27 544.95l-24.7803 29.6787l169.91 143.68h18.4902l114.8 -144.35l-30.5596 -25.2695l-98.1104 121.23zM354.97 484.249c132.08 0 208.399 -96.3105 208.399 -217.311c0 -147.74 -113.09 -279.69 -271.8 -279.69c-141 0 -209.14 103.75 -209.14 216.58
c0 148.48 117.54 280.421 272.54 280.421zM351.909 442.308c-128.74 0 -223.221 -114.771 -223.221 -238.461c0 -96.8496 57.71 -174.649 164.45 -174.649c127.26 0 223.74 108.83 223.74 236.23c0 100.57 -60.4502 176.88 -164.97 176.88z" />
    <glyph glyph-name="odieresis" unicode="&#xf6;" horiz-adv-x="568" 
d="M310.7 593.82c-19.9502 0.150391 -28.2598 13.3506 -28.21 27.1709c0.160156 19.2002 15.5498 36.3301 36.1797 36.3301c17.2803 0 28.1807 -12.2402 28.2002 -27.0205c-0.150391 -19.1904 -14.6104 -36.5508 -36.1699 -36.4805zM471.23 593.82
c-19.9502 0.150391 -28.3203 13.3506 -28.2002 27.1709c0.150391 19.2002 15.5508 36.3301 36.1807 36.3301c17.2803 0 28.3203 -12.2402 28.2002 -27.0205c-0.150391 -19.1904 -14.6104 -36.6309 -36.1807 -36.4805zM354.971 484.25
c132.08 0 208.399 -96.3105 208.399 -217.311c0 -147.74 -113.09 -279.69 -271.8 -279.69c-141 0 -209.14 103.75 -209.14 216.58c0 148.48 117.54 280.421 272.54 280.421zM351.91 442.309c-128.74 0 -223.221 -114.771 -223.221 -238.461
c0 -96.8496 57.71 -174.649 164.45 -174.649c127.26 0 223.74 108.83 223.74 236.23c0 100.57 -60.4502 176.88 -164.97 176.88z" />
    <glyph glyph-name="ograve" unicode="&#xf2;" horiz-adv-x="568" 
d="M468.21 549.83l-178.95 106.8l29.0703 40.1396l175 -113.47zM354.97 484.25c132.08 0 208.399 -96.3105 208.399 -217.311c0 -147.74 -113.09 -279.69 -271.8 -279.69c-141 0 -209.14 103.75 -209.14 216.58c0 148.48 117.54 280.421 272.54 280.421zM351.909 442.309
c-128.74 0 -223.221 -114.771 -223.221 -238.461c0 -96.8496 57.71 -174.649 164.45 -174.649c127.26 0 223.74 108.83 223.74 236.23c0 100.57 -60.4502 176.88 -164.97 176.88z" />
    <glyph glyph-name="oslash" unicode="&#xf8;" horiz-adv-x="568" 
d="M469.89 453.45c60.3604 -37.8096 93.4795 -106.801 93.4795 -186.511c0 -147.74 -113.09 -279.69 -271.8 -279.69c-35.0898 0 -65.6699 6.42969 -91.8096 17.8193l-48.1201 -79.8701l-30.2803 13.8496l49.25 81.9199c-59.2197 39.6104 -88.1797 109.301 -88.1797 182.86
c0 148.48 117.54 280.421 272.54 280.421c31.5596 0 59.9492 -5.5 84.8594 -15.5195l48.9004 81.3203l30.4102 -14.8496zM128.688 203.85c0 -60.2803 22.3604 -113.18 64.9805 -144.54l223.34 371.46c-19.2197 7.48047 -40.9893 11.54 -65.0996 11.54
c-128.74 0 -223.221 -114.77 -223.221 -238.46zM293.139 29.2002c127.26 0 223.74 108.829 223.74 236.229c0 64.4004 -24.79 118.86 -70.0703 149.7l-224.3 -372.3c20.4004 -8.79004 43.9902 -13.6299 70.6299 -13.6299z" />
    <glyph glyph-name="otilde" unicode="&#xf5;" horiz-adv-x="568" 
d="M452.82 573.28c-55.5195 0 -81.3096 41.001 -130.72 41.001c-29.46 0 -52.2402 -12.3496 -73.5303 -29.4795l-20.7197 32.3096c27.4004 22.54 58.9404 38.3398 97.2803 38.3398c59.54 0 88.1396 -41 130.449 -41c27.3604 0 52.5908 13.5596 76.2109 33.8994
l22.4102 -30.7598c-30.4805 -26.1504 -62.7109 -44.3105 -101.381 -44.3105zM354.971 484.251c132.08 0 208.399 -96.3105 208.399 -217.311c0 -147.74 -113.09 -279.69 -271.8 -279.69c-141 0 -209.14 103.75 -209.14 216.58c0 148.48 117.54 280.421 272.54 280.421z
M351.91 442.31c-128.74 0 -223.221 -114.771 -223.221 -238.461c0 -96.8496 57.71 -174.649 164.45 -174.649c127.26 0 223.74 108.83 223.74 236.23c0 100.57 -60.4502 176.88 -164.97 176.88z" />
    <glyph glyph-name="oe" unicode="&#x153;" horiz-adv-x="961" 
d="M291.57 -12.75c-141 0 -209.143 103.751 -209.143 216.581c0 148.48 117.54 280.421 272.54 280.421c104.87 0 179.74 -61.3799 191.601 -158.34l6.7998 -0.0800781c37.2998 93.7598 131.28 158.42 238.431 158.42c118.66 0 182.061 -84.7197 180.591 -203.95
c-0.379883 -36.0498 -5.50977 -49.21 -7.88965 -58.4697h-388.68c-7.87988 0 -10.3301 1.74023 -12.2598 4.50977l-6.07031 -5.03027c2.37012 -3.03027 3.71973 -6.03027 3.22949 -11.0303c-6.58008 -95.0996 56.71 -181.08 157.96 -181.08
c74.2803 0 129.65 32.6396 168.011 82.5996l35.2998 -25.9502c-42.0898 -56.8604 -109.63 -98.6006 -208.939 -98.6006c-88.9404 0 -162.61 58 -184.771 140.5h-6.7998c-41.9902 -80.0498 -123.79 -140.5 -229.91 -140.5zM293.138 29.2012
c127.26 0 223.74 108.829 223.74 236.229c0 100.57 -60.4502 176.88 -164.97 176.88c-128.74 0 -223.221 -114.77 -223.221 -238.46c0 -96.8496 57.71 -174.649 164.45 -174.649zM570.228 256.681c2.99023 2.51953 6.13965 3.99902 12.0693 3.99902h330.72
c5.92969 0 8.62988 -1.48047 10.7002 -4l6.13965 5.03027c-2.41016 2.99023 -2.28027 6.65039 -2.49023 31.25c-1.50977 76.7402 -45.7295 149.351 -141.64 149.351c-125.84 0 -190.689 -98.25 -209.819 -167.77c-1.71973 -5.45996 -6.16992 -9.54004 -10.0596 -12.8301z
" />
    <glyph glyph-name="p" unicode="p" horiz-adv-x="591" 
d="M210.04 475l-14.29 -79.1299c-1.67969 -9.54004 -6.66016 -17.5898 -11.1602 -23.6201l5.48047 -3.54004c23.9102 37.3496 91.9404 115.54 204.87 115.54c111.63 0 195.88 -90.4697 195.88 -212.13c0 -160.8 -121.13 -284.87 -274.43 -284.87
c-117.81 0 -159.75 78.2598 -172.85 118.75l-6.82031 -3.5498c2.57031 -6.54004 4.37988 -14.6396 2.7998 -23.54l-55.6602 -309.91h-45.7803l126.93 706h45.0303zM319.17 29.2002c127.64 0 225.191 110.829 225.191 241.739c0 96.3301 -60.9102 171.37 -160.521 171.37
c-114.95 0 -222.78 -113.18 -222.78 -241.76c0 -95.2598 55.3398 -171.35 158.109 -171.35z" />
    <glyph glyph-name="thorn" unicode="&#xfe;" horiz-adv-x="591" 
d="M252.09 708l-56.3398 -312.13c-1.67969 -9.57031 -6.66016 -17.5898 -11.1602 -23.6201l5.48047 -3.54004c23.9102 37.3496 91.9404 115.54 204.87 115.54c111.63 0 195.88 -90.4697 195.88 -212.13c0 -160.8 -121.13 -284.87 -274.43 -284.87
c-117.81 0 -159.75 78.2598 -172.85 118.75l-6.82031 -3.5498c2.57031 -6.54004 4.37988 -14.6396 2.7998 -23.54l-55.6602 -309.91h-45.7803l168.97 939h45.04zM319.17 29.2002c127.64 0 225.191 110.829 225.191 241.739c0 96.3301 -60.9102 171.37 -160.521 171.37
c-114.95 0 -222.78 -113.18 -222.78 -241.76c0 -95.2598 55.3398 -171.35 158.109 -171.35z" />
    <glyph glyph-name="q" unicode="q" horiz-adv-x="591" 
d="M358.93 484.25c117.81 0 159.752 -78.25 172.862 -118.74l6.80957 3.54004c-2.55957 6.5498 -4.09961 14.5498 -2.66992 23.5801l14.8799 82.3701h45.8096l-127.07 -706h-45.46l54.9697 306.69c1.67969 9.51953 6.42969 17.5391 10.9297 23.5693l-5.48047 3.54004
c-23.9102 -37.3496 -91.2002 -115.55 -204.13 -115.55c-111.62 0 -195.88 90.4805 -195.88 212.141c0 160.8 121.13 284.859 274.43 284.859zM355.212 442.31c-126.7 0 -224.24 -109.67 -224.24 -241.74c0 -96.3301 61.5996 -171.37 161.18 -171.37
c114.29 0 222.11 115.03 222.11 241.75c0 94.3701 -55.3398 171.36 -159.05 171.36z" />
    <glyph glyph-name="r" unicode="r" horiz-adv-x="313" 
d="M124.94 0l-45.2285 -0.000976562l85.4199 475h45.8096l-11.1699 -62.0898c-2.12988 -12.0303 -6.2998 -18.7998 -11.6797 -26.7998l5.5498 -3.54004c39.8896 63.8604 106.279 100.67 171.609 100.67c7.30957 0 14.3096 -0.549805 20.9492 -1.46973l-8.58008 -47.2402
c-10.1699 1.96973 -18.3301 2.25977 -28.6104 2.25977c-87.1602 0 -160.72 -84.3096 -175.64 -167.369z" />
    <glyph glyph-name="s" unicode="s" horiz-adv-x="408" 
d="M198.02 -12.75c-61.9102 0 -116.089 16.8018 -156.199 60.9814l29.5801 34.4004c38.7598 -44.4004 89.1797 -54.2002 135.25 -54.2002c81.7695 0 135.92 45.75 135.92 99.0303c0 122.31 -224.8 63.9297 -224.8 218.489c0 78.4502 62.04 138.3 177.21 138.3
c53.1396 0 100.569 -11.5703 138.709 -46.8008l-30.54 -34.3398c-33.8896 30.7197 -70.29 39.9697 -116.01 39.9697c-76.2197 0 -123.75 -39.6299 -123.75 -91.0596c0 -118.72 225.34 -65.0801 225.34 -216.83c0 -85.7002 -68.7197 -147.94 -190.71 -147.94z" />
    <glyph glyph-name="scaron" unicode="&#x161;" horiz-adv-x="415" 
d="M290.61 547.68l-117.76 143.689l30.54 25.4805l102.64 -123.08l145.04 124.9l24.9805 -27.2998l-166.94 -143.69h-18.5zM198.021 -12.751c-61.9102 0 -116.089 16.8018 -156.199 60.9814l29.5801 34.4004c38.7598 -44.4004 89.1797 -54.2002 135.25 -54.2002
c81.7695 0 135.92 45.75 135.92 99.0303c0 122.31 -224.8 63.9297 -224.8 218.489c0 78.4502 62.04 138.3 177.21 138.3c53.1396 0 100.569 -11.5703 138.709 -46.8008l-30.54 -34.3398c-33.8896 30.7197 -70.29 39.9697 -116.01 39.9697
c-76.2197 0 -123.75 -39.6299 -123.75 -91.0596c0 -118.72 225.34 -65.0801 225.34 -216.83c0 -85.7002 -68.7197 -147.94 -190.71 -147.94z" />
    <glyph glyph-name="germandbls" unicode="&#xdf;" horiz-adv-x="560" 
d="M79.7803 0l84.7988 468.31c29.2803 162.06 95.7803 249.319 244.511 248.199c100.04 -0.740234 158.42 -63.8398 158.42 -145.68c0 -98.5801 -47.4697 -163.8 -130.96 -193.09l-1.24023 -6.7998c70.8701 -11.1797 120.86 -57.1797 120.86 -136.31
c0 -151.08 -89.04 -234.63 -258.38 -234.63h-81.8799l7.61035 42.2002h82.0098c131.35 0 204.56 62.3301 204.56 186.13c0 76.3398 -53.25 124.67 -157.92 124.67h-72.75l7.5 41.6797h71.9004c74.0996 0 161.949 53.0195 161.949 168.619
c0 66.6104 -45.3896 110.311 -118.81 110.751c-114.71 0.75 -169.04 -79.9297 -191.89 -206.77l-84.7998 -467.28h-45.4902z" />
    <glyph glyph-name="t" unicode="t" horiz-adv-x="292" 
d="M116.54 0l76.3994 422.74c0.80957 5.29004 3.39941 7.54004 6.13965 9.83008l-4.36035 5.03027c-2.69043 -2.29004 -5.70996 -4.03027 -9.91992 -4.03027h-93.7598l7.48047 41.4297h93.7598c4.20996 0 6.61035 -1.75 8.43066 -4.03027l6.13965 5.03027
c-1.87012 2.28027 -3.08984 4.54004 -2.30957 9.83008l27.2305 148.42h45.4805l-27.2197 -148.42c-0.790039 -5.29004 -3.12988 -7.5498 -5.82031 -9.83008l4.34961 -5.03027c2.71973 2.28027 5.80957 4.03027 10.0195 4.03027h107.36l-7.40039 -41.4297h-107.44
c-4.20996 0 -6.67969 1.74023 -8.5293 4.03027l-6.13965 -5.03027c1.83008 -2.29004 2.5498 -4.54004 1.74023 -9.83008l-76.4004 -422.74h-45.2305z" />
    <glyph glyph-name="u" unicode="u" horiz-adv-x="530" 
d="M158.88 475h45.2285l-48.2305 -268.15c-21.3496 -118.71 21.1504 -177.65 114.87 -177.65c97.8096 0 157.29 59.4902 178.53 177.65l48.2305 268.15h45.4902l-48.75 -269.2c-26.8896 -148.97 -92.29 -218.55 -231.05 -218.55c-116.25 0 -179.04 74.1797 -153.06 218.55z
" />
    <glyph glyph-name="uacute" unicode="&#xfa;" horiz-adv-x="541" 
d="M277.14 549.83l-16.8096 37.0801l214.57 114.71l19.9697 -44.4805zM158.88 475h45.2285l-48.2305 -268.15c-21.3496 -118.71 21.1504 -177.65 114.87 -177.65c97.8096 0 157.29 59.4902 178.53 177.65l48.2305 268.15h45.4902l-48.75 -269.2
c-26.8896 -148.97 -92.29 -218.55 -231.05 -218.55c-116.25 0 -179.04 74.1797 -153.06 218.55z" />
    <glyph glyph-name="ucircumflex" unicode="&#xfb;" horiz-adv-x="541" 
d="M242.07 544.95l-24.7803 29.6787l169.91 143.68h18.4902l114.8 -144.35l-30.5596 -25.2695l-98.1104 121.23zM158.88 474.999h45.2285l-48.2305 -268.15c-21.3496 -118.71 21.1504 -177.65 114.87 -177.65c97.8096 0 157.29 59.4902 178.53 177.65l48.2305 268.15
h45.4902l-48.75 -269.2c-26.8896 -148.97 -92.29 -218.55 -231.05 -218.55c-116.25 0 -179.04 74.1797 -153.06 218.55z" />
    <glyph glyph-name="udieresis" unicode="&#xfc;" horiz-adv-x="541" 
d="M296.5 593.82c-19.9502 0.150391 -28.2598 13.3506 -28.21 27.1709c0.160156 19.2002 15.5498 36.3301 36.1797 36.3301c17.2803 0 28.1807 -12.2402 28.2002 -27.0205c-0.150391 -19.1904 -14.6104 -36.5508 -36.1699 -36.4805zM457.03 593.82
c-19.9502 0.150391 -28.3203 13.3506 -28.2002 27.1709c0.150391 19.2002 15.5508 36.3301 36.1807 36.3301c17.2803 0 28.3203 -12.2402 28.2002 -27.0205c-0.150391 -19.1904 -14.6104 -36.6309 -36.1807 -36.4805zM158.88 475h45.2285l-48.2305 -268.15
c-21.3496 -118.71 21.1504 -177.65 114.87 -177.65c97.8096 0 157.29 59.4902 178.53 177.65l48.2305 268.15h45.4902l-48.75 -269.2c-26.8896 -148.97 -92.29 -218.55 -231.05 -218.55c-116.25 0 -179.04 74.1797 -153.06 218.55z" />
    <glyph glyph-name="ugrave" unicode="&#xf9;" horiz-adv-x="541" 
d="M454.01 549.83l-178.95 106.8l29.0703 40.1396l175 -113.47zM158.88 475h45.2285l-48.2305 -268.15c-21.3496 -118.71 21.1504 -177.65 114.87 -177.65c97.8096 0 157.29 59.4902 178.53 177.65l48.2305 268.15h45.4902l-48.75 -269.2
c-26.8896 -148.97 -92.29 -218.55 -231.05 -218.55c-116.25 0 -179.04 74.1797 -153.06 218.55z" />
    <glyph glyph-name="v" unicode="v" horiz-adv-x="458" 
d="M199.34 0l-100.709 475.001h48.2197l84.2002 -410.2c1.94043 -9.99023 1.45996 -17.1201 0.30957 -23.7197h7.41992c1.16992 6.59961 3.33008 13.4492 9.16016 23.9688l229.94 409.95h51.2695l-270.82 -475h-58.9902z" />
    <glyph glyph-name="w" unicode="w" horiz-adv-x="712" 
d="M184.07 0l-83.8779 475h46.71l68.7998 -402.35c1.87988 -11.3604 2.00977 -18.3105 0.779297 -25.1104h6.75c1.25977 6.7998 3.34961 13.3096 8.81934 25.1094l188.14 402.35h35.9404l47.6299 -402.35c1.2998 -11.2598 1.81934 -18.3096 0.55957 -25.1094h6.7002
c1.33984 6.7998 2.62988 13.21 8.83008 25.1104l211.31 402.35h52.3701l-257.21 -475h-56.7002l-42.3398 358.94c-1.30957 11.2598 -1.30957 18.8301 -0.0996094 25.6299h-6.7002c-1.20996 -6.7998 -4.44043 -15.3398 -9.24023 -25.6299l-169.49 -358.94h-57.6797z" />
    <glyph glyph-name="x" unicode="x" horiz-adv-x="438" 
d="M15.4297 0l218.24 254.43l-115.14 220.57h51.9004l95.0596 -184.45c1.94043 -4.03027 1.06055 -8.7998 0.420898 -12.5996h6.78027c0.629883 3.7998 2.25977 8.55957 5.39941 12.3398l160.67 184.71h52.7002l-198.95 -229.86l130.38 -245.14h-50.9004l-109.47 206.91
c-1.91016 3.71973 -1.94043 8.54004 -1.23047 12.3398h-6.7002c-0.709961 -3.7998 -2.07031 -8.56934 -5.41992 -12.5996l-179.2 -206.65h-54.54z" />
    <glyph glyph-name="y" unicode="y" horiz-adv-x="467" 
d="M82.8604 -231l127.188 223.32l-110.35 482.68h50.04l90.75 -404.89c1.98047 -9.20996 1.4209 -16.0801 0.321289 -22.4297h7.5c1.11035 6.34961 3.74023 13.2197 9.03027 22.6895l232.37 404.63h51.2598l-408.19 -706h-49.9199z" />
    <glyph glyph-name="yacute" unicode="&#xfd;" horiz-adv-x="472" 
d="M244.89 549.83l-16.8203 37.0801l214.57 114.71l19.9697 -44.4805zM82.8594 -231l127.188 223.32l-110.35 482.68h50.04l90.75 -404.89c1.98047 -9.20996 1.4209 -16.0801 0.321289 -22.4297h7.5c1.11035 6.34961 3.74023 13.2197 9.03027 22.6895l232.37 404.63h51.2598
l-408.19 -706h-49.9199z" />
    <glyph glyph-name="ydieresis" unicode="&#xff;" horiz-adv-x="472" 
d="M264.24 593.82c-19.9502 0.150391 -28.249 13.3506 -28.1992 27.1709c0.150391 19.2002 15.54 36.3301 36.1699 36.3301c17.2803 0 28.1807 -12.2402 28.2002 -27.0205c-0.150391 -19.1904 -14.6006 -36.5508 -36.1709 -36.4805zM424.781 593.82
c-19.9502 0.150391 -28.3301 13.3506 -28.21 27.1709c0.160156 19.2002 15.5498 36.3301 36.1797 36.3301c17.2803 0 28.3301 -12.2402 28.2002 -27.0205c-0.150391 -19.1904 -14.6104 -36.6309 -36.1699 -36.4805zM82.8613 -231l127.188 223.32l-110.35 482.68h50.04
l90.75 -404.89c1.98047 -9.20996 1.4209 -16.0801 0.321289 -22.4297h7.5c1.11035 6.34961 3.74023 13.2197 9.03027 22.6895l232.37 404.63h51.2598l-408.19 -706h-49.9199z" />
    <glyph glyph-name="z" unicode="z" horiz-adv-x="439" 
d="M36.9502 0l7.18066 39.4307l378.64 397.17l-4.36035 5.03027c-6.08984 -5.03027 -10.9795 -8.06055 -19.9893 -8.06055h-284.91l7.48047 41.4297h364.86l-7.46973 -41.4004l-376.78 -395.2l4.34961 -5.03027c6.12012 5.03027 10.8398 8.06055 19.8994 8.06055h285.8
l-7.37012 -41.4297h-367.33z" />
    <glyph glyph-name="zcaron" unicode="&#x17e;" horiz-adv-x="448" 
d="M305.61 547.68l-117.76 143.689l30.54 25.4805l102.64 -123.08l145.04 124.9l24.9805 -27.2998l-166.94 -143.69h-18.5zM36.9502 -0.000976562l7.18066 39.4307l378.64 397.17l-4.36035 5.03027c-6.08984 -5.03027 -10.9795 -8.06055 -19.9893 -8.06055h-284.91
l7.48047 41.4297h364.86l-7.46973 -41.4004l-376.78 -395.2l4.34961 -5.03027c6.12012 5.03027 10.8398 8.06055 19.8994 8.06055h285.8l-7.37012 -41.4297h-367.33z" />
    <glyph glyph-name="b.ss01" horiz-adv-x="578" 
d="M305.03 -12.75c-142.99 0 -218.501 115.659 -194.501 249.1l84.8203 471.65h45.3701l-56.3203 -312.13c-1.69043 -9.54004 -6.66016 -17.5898 -11.1602 -23.6201l5.48047 -3.54004c23.9102 37.3496 91.9404 115.54 204.87 115.54
c111.62 0 195.87 -90.4697 195.87 -212.13c0 -160.8 -121.12 -284.87 -274.43 -284.87zM307.81 29.1992c127.65 0 225.19 110.829 225.19 241.739c0 96.3301 -60.9102 171.37 -160.521 171.37c-114.95 0 -222.78 -113.18 -222.78 -241.76
c0 -95.2598 57.1299 -171.35 158.11 -171.35z" />
    <glyph glyph-name="d.ss01" horiz-adv-x="578" 
d="M284.73 -12.75c-117.08 0 -200.659 90.4805 -200.659 212.141c0 160.8 121.13 284.859 274.43 284.859c117.81 0 159.75 -78.25 172.85 -118.74l6.82031 3.54004c-2.57031 6.5498 -4.28027 14.5498 -2.68066 23.5801l56.6904 315.37h45.8096l-85.2197 -473.979
c-25.2305 -140.29 -124.69 -246.771 -268.04 -246.771zM290.741 29.2002c118.12 0 223.09 113.56 223.09 241.75c0 94.3701 -55.3398 171.36 -159.06 171.36c-126.69 0 -224.24 -109.67 -224.24 -241.74c0 -96.3301 61.5996 -171.37 160.21 -171.37z" />
    <glyph glyph-name="f.ss01" horiz-adv-x="281" 
d="M79.6104 0.25l92.8916 515.35c24.3496 138.02 88.4795 198.14 195.489 198.14c10.1797 0 28.2998 -0.740234 40.6299 -3.49023l-7.55957 -41.9697h-1.71973c-2.95996 0 -15.46 2.49023 -34.7197 2.49023c-75.0498 0 -127.05 -44.0596 -146.01 -153.8l-5.33008 -31.1396
c-1.04004 -5.29004 -3.17969 -7.5498 -5.87012 -9.83008l4.2998 -5.03027c2.71973 2.28027 5.80957 4.03027 10.0195 4.03027h135.08l-7.48047 -41.4297h-135.74c-4.29004 0 -6.75977 1.74023 -8.63965 4.03027l-6.05957 -5.03027
c1.84961 -2.29004 3.38965 -4.54004 2.60938 -9.83008l-76.4805 -422.49h-45.4102z" />
    <glyph glyph-name="g.ss01" horiz-adv-x="579" 
d="M234.97 -241.26l6.68066 42.459c108.04 0 198.18 53.1797 225.81 209.79l11.29 64.1602c1.83984 10.3896 6.74023 18.0801 11.2402 24.1104l-5.48047 3.54004c-23.9102 -37.3496 -91.2002 -115.55 -203.101 -115.55c-112.68 0 -196.979 90.7598 -196.979 210.42
c0 161.8 120.26 286.58 278.22 286.58c138.21 0 215.69 -110.14 188.551 -261.279l-37.4199 -208.4c-30.8604 -171.7 -132.841 -255.83 -278.811 -255.83zM291.44 29.1992c115 0 222.82 115.029 222.82 241.749c0 94.3701 -55.3398 171.36 -157.08 171.36
c-132.13 0 -226.66 -111.64 -226.66 -241.479c0 -96.0801 62.7598 -171.63 160.92 -171.63z" />
    <glyph glyph-name="l.ss01" horiz-adv-x="239" 
d="M232.1 -4.76953c-104.13 0 -151.312 43.3691 -128.821 168.479l97.71 544.29h45.4102l-97.4902 -542.89c-18.5596 -103.45 13.8809 -129.71 90.4912 -129.71z" />
    <glyph glyph-name="lslash.ss01" horiz-adv-x="296" 
d="M218.75 361.96l-35.3516 -196.85c-18.5596 -103.45 13.8809 -129.71 90.4912 -129.71l-7.2998 -40.1699c-104.13 0 -151.32 43.3701 -128.83 168.48l29.5996 164.86l-94.4697 -61.3701l9.03027 49.8701l94.3799 61.3096l59.1797 329.62h45.4102l-53.2002 -296.24
l91.1602 59.2197l-9.05957 -49.8701z" />
    <glyph glyph-name="p.ss01" horiz-adv-x="578" 
d="M26.0801 -231l84.0605 467.57c26.4199 147.08 122.82 247.68 270.67 247.68c113.76 0 198.01 -90.4697 198.01 -212.13c0 -160.8 -121.13 -284.87 -274.43 -284.87c-117.81 0 -159.75 78.2598 -172.85 118.75l-6.82031 -3.5498
c2.57031 -6.54004 4.37988 -14.6396 2.7998 -23.54l-55.6602 -309.91h-45.7803zM307.171 29.2002c127.64 0 225.19 110.829 225.19 241.739c0 96.3301 -60.9102 171.37 -160.521 171.37c-119.22 0 -222.779 -109.54 -222.779 -244.06
c0 -92.96 55.3398 -169.05 158.109 -169.05z" />
    <glyph glyph-name="q.ss01" horiz-adv-x="579" 
d="M423.83 -231l54.9805 306.69c1.69043 9.51953 6.43066 17.5391 10.9307 23.5693l-5.48047 3.54004c-23.9102 -37.3496 -91.2002 -115.55 -204.13 -115.55c-111.62 0 -195.87 90.4805 -195.87 212.141c0 160.8 121.12 284.859 274.43 284.859
c142 0 218.54 -115.74 194.25 -250.5l-83.6504 -464.75h-45.46zM291.9 29.2002c114.29 0 222.12 115.03 222.12 241.75c0 94.3701 -55.3496 171.36 -159.06 171.36c-126.7 0 -224.24 -109.67 -224.24 -241.74c0 -96.3301 61.5996 -171.37 161.18 -171.37z" />
    <glyph glyph-name="t.ss01" horiz-adv-x="301" 
d="M283.93 -4.03027c-124.79 -3.71973 -169.579 39.1816 -146.609 167.741l46.3701 259.03c1.12988 5.29004 3.7998 7.54004 6.41016 9.83008l-4.2998 5.03027c-2.62012 -2.29004 -5.74023 -4.03027 -10.0205 -4.03027h-84.3301l7.48047 41.4297h84.3203
c4.29004 0 6.70996 -1.75 8.63965 -4.03027l6.05957 5.03027c-1.84961 2.28027 -2.66992 4.54004 -1.91992 9.83008l27.5596 148.68h45.4902l-27.4902 -148.68c-0.830078 -5.29004 -3.57031 -7.5498 -6.24023 -9.83008l4.30957 -5.03027
c2.74023 2.28027 5.70996 4.03027 9.99023 4.03027h120.7l-7.48047 -41.4297h-120.69c-4.20996 0 -6.62988 1.74023 -8.54004 4.03027l-6.13965 -5.03027c1.91016 -2.29004 2.60059 -4.46973 1.49023 -9.83008l-46.2402 -259.2
c-19.0498 -106.86 12.5303 -132.971 108.561 -126.661z" />
    <glyph glyph-name="ordfeminine" unicode="&#xaa;" horiz-adv-x="464" 
d="M284.14 372.02c-81.5098 0 -142.592 60.8496 -142.592 146.369c0 110.94 85.3203 196.53 195.811 196.53c85.2002 0 118.311 -53.96 127.421 -80.8604l6.20996 3.2002c-2.38965 6.25977 -3.54004 11.8301 -2.41016 18.0498l9.61035 53.2305h39.9902l-58.7695 -327.7
h-40.0801l8.01953 45.4404c1.67969 9.25 7.08008 17.8701 10.1602 22.0703l-5.09961 3.41992c-17.7002 -25.6504 -65.9902 -79.75 -148.271 -79.75zM294.107 409.18c77.5703 0 152.34 75.1992 152.34 157.039c0 60.8896 -38.6299 111.39 -112.58 111.39
c-87.3701 0 -152.68 -71.5498 -152.68 -156.859c0 -59.5498 39.4297 -111.569 112.92 -111.569z" />
    <glyph glyph-name="ordmasculine" unicode="&#xba;" horiz-adv-x="432" 
d="M291.93 371.95c-101.9 0 -151 71.6211 -151 149.441c0 102.47 83.9502 193.529 194.74 193.459c95.8799 0.0703125 151.229 -66.4199 151.229 -149.9c0 -101.94 -81.0596 -193 -194.97 -193zM294.359 410.142c86.21 0 151.77 70.1914 151.77 152.432
c0 64.8896 -41.54 114.159 -113.85 114.159c-86.8096 0 -150.729 -74.0596 -150.729 -153.92c0 -62.4404 39.46 -112.671 112.81 -112.671z" />
    <glyph glyph-name="uni03BC" unicode="&#x3bc;" horiz-adv-x="536" 
d="M37.7803 -231l127.001 705.999h45.9297l-48.9404 -269.86c-21.5 -118.34 21.0898 -175.689 112.979 -175.689c95.3799 0 158.04 53.7803 180.14 175.69l48.9404 269.86h44.6699l-49.1299 -274.39c-26.3701 -147.03 -103.22 -213.61 -230.609 -213.61
c-69.4902 0 -116.19 27.7402 -132.28 79.71l-6.58008 -3.54004c1.45996 -4.74023 3.66016 -12.4902 1.83008 -22.0303l-48.7598 -272.14h-45.1904z" />
    <glyph glyph-name="zero" unicode="0" horiz-adv-x="578" 
d="M288.47 -13c-127.06 0 -203.393 99.0898 -178.532 237.34l47.4004 263.69c25.54 141.56 124.19 233.22 261.591 233.22c123.84 0 202.01 -100.27 177.95 -233.22l-48.1396 -263.69c-27.9102 -152.87 -106.21 -237.34 -260.27 -237.34zM295.297 33.54
c114.79 0 183.449 74.4404 204.669 192.601l46.3701 258.29c19.4404 108.42 -35.3096 190.02 -135.76 190.02c-102.4 0 -184.45 -79.04 -204.47 -190.021l-46.6299 -258.29c-20.04 -111.55 32.8203 -192.6 135.82 -192.6z" />
    <glyph glyph-name="one" unicode="1" horiz-adv-x="307" 
d="M163.28 0l117.25 651.431c0.879883 5.36035 3.09961 8.54004 7.5 12.3096l-4.2998 5.03027c-3.48047 -3.03027 -7.78027 -5.77051 -12.7607 -5.77051h-143.92l8.11035 45h203.58l-127.3 -708h-48.1602z" />
    <glyph glyph-name="two" unicode="2" horiz-adv-x="518" 
d="M45 0l7.69922 43.7109l308.49 268.4c99.9102 87.4102 144.73 147.45 144.73 230.13c0 79.3301 -49.8701 132.47 -136.79 132.47c-68.25 0 -139.16 -40.7402 -184.87 -133.521l-42.54 15.3799c52.4805 117.6 149.391 164.68 238.421 164.68
c103.87 0 176.26 -68.9697 176.26 -177.29c0 -98.8799 -64.4102 -175.5 -157.9 -257.96l-256.8 -223.06c-10.7998 -9.7002 -15.8301 -11.1406 -21.3203 -11.1406l-1.20996 -6.7998h359.15l-8.04004 -45h-425.28z" />
    <glyph glyph-name="three" unicode="3" horiz-adv-x="530" 
d="M264.11 -13c-126.04 0 -190.869 77.4932 -192.839 179.053l48.71 12.8896c0.950195 -83.1104 48.6104 -145.4 153.141 -145.4c114.04 0 193.97 78.7998 193.97 187.88c0 86.1396 -60.6299 139.27 -157.54 142.319l7.42969 41.2002c107.38 0 184.63 59.5898 184.63 155.31
c0 70.0898 -41 114.979 -117.44 114.979c-80.7197 0 -149.819 -54.3496 -178.939 -133.38l-43.96 9.15039c36.25 103.59 127.75 170.25 231.04 170.25c99.8096 0 158.529 -67.71 158.529 -155.57c0 -67.4102 -41.6797 -154.11 -137.029 -181.86l-1.24023 -6.7998
c61.6699 -20.9004 103.689 -77.0205 103.689 -153.641c0 -139.35 -99.96 -236.38 -252.15 -236.38z" />
    <glyph glyph-name="four" unicode="4" horiz-adv-x="544" 
d="M371.27 0l31.4492 175.45c1 5.29004 3.15039 7.5498 5.81055 9.83008l-4.28027 5.03027c-2.75977 -2.28027 -5.80957 -4.03027 -10.0195 -4.03027h-342.06l7.62988 42.6904l435 480.51h52.0498l-84.3203 -468.91c-0.929688 -5.29004 -3 -7.54004 -5.76953 -9.83008
l4.36035 -5.03027c2.70996 2.29004 5.75977 4.03027 9.93945 4.03027h77.7998l-7.78027 -43.46h-77.7998c-4.20996 0 -6.67969 1.75 -8.50977 4.03027l-6.16016 -5.03027c1.90039 -2.28027 3.27051 -4.54004 2.24023 -9.83008l-31.5303 -175.45h-48.0498zM410.549 225.71
l6.13965 5.0293c-1.7998 2.29004 -3.24023 4.54004 -2.24023 9.83008l66.4297 369.32c1.91016 11.0303 6.73047 17.0303 11.5107 22.8301l-6.58008 4.51953l-355.11 -393.39c-5.12012 -5.54004 -7.87988 -7.30957 -12.6494 -7.30957l-1.24023 -6.7998h285.229
c4.19043 0 6.68066 -1.74023 8.51074 -4.03027z" />
    <glyph glyph-name="five" unicode="5" horiz-adv-x="533" 
d="M270.19 -13c-122.22 0 -186.921 71.2686 -201.301 171.648l47.1904 14.25c12.5098 -84.4502 58.1699 -139.36 163.51 -139.36c119.47 0 207.27 89.8701 207.27 225.99c0 84.1904 -44.9297 154.811 -145.22 154.811c-56.6299 0 -127.729 -29.9902 -178.43 -84.2598
l-39.6299 9.5498l125.82 368.37h317.229l-11.0898 -45h-271.34l-88.6699 -256.09l6.37012 -1.25c49.1699 39.5303 105.71 53.6807 155.45 53.6807c114.37 0 179.39 -89.5098 179.39 -191.63c0 -165.24 -107.13 -280.71 -266.55 -280.71z" />
    <glyph glyph-name="six" unicode="6" horiz-adv-x="548" 
d="M280.31 -13c-118.94 0 -197.009 91.4004 -197.009 193.44c0 75.3799 29.5098 135.6 75.4697 203.13l220.26 324.43h57.0996l-189.17 -275.03l5.58008 -3.51953c21.2305 23.3496 81.75 42.4893 121.56 42.4893c111.63 0 188.37 -78.7402 188.37 -200.75
c0 -159.39 -114.72 -284.189 -282.16 -284.189zM291.222 33.4902c128.52 0 221.739 108.101 221.739 231.15c0 108.38 -61.4297 162.87 -156.279 162.87c-120.57 0 -224.19 -120.76 -224.19 -234.12c0 -95.96 63.4404 -159.9 158.73 -159.9z" />
    <glyph glyph-name="seven" unicode="7" horiz-adv-x="477" 
d="M132.63 663l8.04102 45l450.54 -0.259766l-8.05957 -45l-418.2 -663h-54.0801l408.6 648.11c4.04004 6.46973 9.45996 8.08984 12.2295 8.08984l1.20996 6.7998z" />
    <glyph glyph-name="eight" unicode="8" horiz-adv-x="547" 
d="M274.04 -13.2598c-111.8 0 -188.91 75.2627 -188.91 181.893c0 102.3 76.3604 187.33 168.091 211.35l1.03027 5.62988c-49.1299 22.04 -80.7598 73.4902 -80.7598 130.08c0 113.46 104.19 205.31 230.04 205.31c100.47 0 165.529 -69.3701 165.529 -156.05
c0 -80.1904 -54.0596 -157.301 -137.46 -181.421l-1.03027 -5.62988c63.1904 -24.7402 101.75 -82.9502 101.75 -157.351c0 -134.7 -102.86 -233.811 -258.28 -233.811zM347.47 401.413c94.7305 0 172.241 71.6201 172.241 156.7c0 69.0801 -46.6504 118.43 -125.841 118.43
c-98.2197 0 -172.46 -74.3701 -172.46 -158.14c0 -68.3701 49.9199 -116.99 126.06 -116.99zM282.841 32.2334c118.36 0 201.529 82.1699 201.529 185.91c0 79.6299 -56.8398 139.79 -148.04 139.79c-115.09 0 -203.54 -87.6797 -203.54 -183.08
c0 -86.0801 57.8203 -142.62 150.051 -142.62z" />
    <glyph glyph-name="nine" unicode="9" horiz-adv-x="548" 
d="M239.64 0l186.23 270.271l-5.58008 3.51953c-24.7002 -23.3496 -75.4805 -37.4795 -118.421 -37.4795c-111.47 0 -188.239 86.9102 -188.239 203.44c0 164.54 138.54 281.5 282.14 281.5c113.68 0 196.979 -87.2402 196.979 -192.71
c0 -75.4805 -34.2197 -139.711 -78.0996 -204.111l-220.25 -324.43h-54.7598zM319.47 280.721c122.78 0 223.32 122.2 223.32 240.88c0 85.3701 -58.4297 153.45 -158.02 153.45c-117.28 0 -220.94 -107.51 -220.94 -227.25c0 -101.25 60.5098 -167.08 155.64 -167.08z" />
    <glyph glyph-name="zero.osf" horiz-adv-x="585" 
d="M309.28 -12.75c-144.74 0 -223.851 99.7803 -223.851 230.58c0 163.74 124.05 280.45 277.54 280.45c138.06 0 225.34 -94.5703 225.34 -230.57c0 -159.28 -119.6 -280.46 -279.029 -280.46zM312.11 33.0303c126.94 0 227.17 97.5693 227.17 232.909
c0 114.74 -72.1699 186.57 -179.88 186.57c-126.2 0 -224.95 -98.3096 -224.95 -234.399c0 -113.26 68.46 -185.08 177.66 -185.08z" />
    <glyph glyph-name="one.osf" horiz-adv-x="307" 
d="M163.28 0l76.8496 426.2c0.929688 5.36035 3.10938 8.54004 7.50977 12.3096l-4.30957 5.03027c-3.48047 -3.03027 -7.78027 -5.77051 -12.75 -5.77051h-143.93l8.12012 45h203.57l-86.9004 -482.77h-48.1602z" />
    <glyph glyph-name="two.osf" horiz-adv-x="517" 
d="M46.7402 0l7.2207 40.3682l231.28 146.49c103.81 65.6904 151.319 105.181 151.209 173.541c0.110352 55.0596 -42.25 92.1094 -107.82 92.1094c-71.7197 0 -122.81 -32.7803 -164.02 -104.98l-43.8896 14.1504c47.3301 93.3203 121.55 136.601 214.229 136.601
c88.2305 0 151.921 -55.3896 151.901 -135.279c0.0195312 -84.8496 -53.7705 -136.39 -169.801 -208.76l-156.04 -97.1104c-5.5498 -3.42969 -12.46 -5.33008 -18.21 -5.33008l-1.23047 -6.7998h342.32l-7.95996 -45h-429.19z" />
    <glyph glyph-name="three.osf" horiz-adv-x="530" 
d="M225.3 -236.03c-126.04 0 -190.87 77.4922 -192.84 179.052l48.71 12.8896c0.959961 -83.1201 48.6201 -145.4 153.14 -145.4c114.04 0 193.97 78.7998 193.97 187.88c0 86.1396 -60.6201 139.27 -157.53 142.319l7.42969 41.2002
c107.38 0 184.63 59.5801 184.63 155.311c0 70.0898 -41.0195 114.97 -127.439 114.97c-78.1396 0 -139.819 -36.9199 -168.949 -133.37l-43.9697 9.15039c36.2695 121 120.35 170.25 221.06 170.25c109.8 0 168.51 -67.71 168.51 -155.57
c0 -67.4102 -41.6797 -154.11 -137.029 -181.86l-1.23047 -6.7998c61.6602 -20.9004 103.68 -77.0205 103.68 -153.641c0 -139.36 -99.96 -236.38 -252.14 -236.38z" />
    <glyph glyph-name="four.osf" horiz-adv-x="562" 
d="M357.03 -183.52l33.8281 187.57c1 5.29004 3.15039 7.54004 5.81055 9.83008l-4.28027 5.03027c-2.75977 -2.29004 -5.80957 -4.03027 -10.0195 -4.03027h-355.77l8.37012 44.1699l437.38 426h52.2803l-73.96 -415.88c-0.929688 -5.29004 -3 -7.5498 -5.76953 -9.83008
l4.36035 -5.03027c2.70996 2.28027 5.75977 4.03027 9.93945 4.03027h77.7998l-7.78027 -43.46h-77.7998c-4.20996 0 -6.67969 1.74023 -8.50977 4.03027l-6.16016 -5.03027c1.90039 -2.29004 3.27051 -4.54004 2.24023 -9.83008l-33.9004 -187.57h-48.0596z
M398.688 54.3105l6.1377 5.03027c-1.7998 2.28027 -3.24023 4.54004 -2.24023 9.83008l57.3604 321.95c1.90039 11 6.7207 17.0303 11.501 22.8301l-6.57031 4.50977l-355.47 -346.01c-5.4502 -5.24023 -7.87988 -7.31055 -12.6494 -7.31055l-1.24023 -6.7998h294.66
c4.19043 0 6.68066 -1.75 8.51074 -4.03027z" />
    <glyph glyph-name="five.osf" horiz-adv-x="533" 
d="M231.04 -235.98c-122.22 0 -186.93 71.2705 -201.3 171.66l47.1797 14.2402c12.5098 -84.4404 58.1699 -139.36 163.51 -139.36c119.47 0 207.27 89.8799 207.27 226c0 84.1904 -44.9199 154.801 -145.22 154.801c-56.6299 0 -127.729 -29.9805 -178.43 -84.25
l-39.6299 9.54004l125.82 368.37h317.229l-11.0898 -45h-271.34l-88.6602 -256.08l6.36035 -1.25977c49.1699 39.54 105.71 53.6797 155.46 53.6797c114.36 0 179.38 -89.5098 179.38 -191.63c0 -165.23 -107.13 -280.711 -266.54 -280.711z" />
    <glyph glyph-name="six.osf" horiz-adv-x="568" 
d="M293.45 -13c-137.48 0 -210.02 90.7402 -210.149 200.34c0.129883 69.5703 30.21 129.511 75.8701 196.23l220.26 324.43h56.7002l-190.66 -275.03l5.58008 -3.51953c29.9805 23.3496 76.2002 41.9795 122.78 41.9795c112.71 0 196.14 -86.5195 196.22 -213.3
c-0.0800781 -150.33 -118.57 -271.13 -276.601 -271.13zM297.951 34.2305c128.25 0.0498047 222.73 100.34 222.811 223.04c-0.0800781 107.3 -72.3604 170.18 -162.431 170.239c-124.5 -0.0595703 -226.13 -119.43 -226.21 -235.189
c0.0800781 -86.4697 56.71 -158.04 165.83 -158.09z" />
    <glyph glyph-name="seven.osf" horiz-adv-x="477" 
d="M93.3701 440.03l8.04102 45h450.55l-8.07031 -45l-418.19 -663h-54.8301l408.6 648.11c4.04004 6.45996 9.45996 8.08984 12.2402 8.08984l1.2002 6.7998h-399.54z" />
    <glyph glyph-name="eight.osf" horiz-adv-x="547" 
d="M274.04 -13.2598c-111.8 0 -188.91 75.2627 -188.91 181.893c0 102.3 76.3604 187.33 168.091 211.35l1.03027 5.62988c-49.1299 22.04 -80.7598 73.4902 -80.7598 130.08c0 113.46 104.19 205.31 230.04 205.31c100.47 0 165.529 -69.3701 165.529 -156.05
c0 -80.1904 -54.0596 -157.301 -137.46 -181.421l-1.03027 -5.62988c63.1904 -24.7402 101.75 -82.9502 101.75 -157.351c0 -134.7 -102.86 -233.811 -258.28 -233.811zM347.47 401.413c94.7305 0 172.241 71.6201 172.241 156.7c0 69.0801 -46.6504 118.43 -125.841 118.43
c-98.2197 0 -172.46 -74.3701 -172.46 -158.14c0 -68.3701 49.9199 -116.99 126.06 -116.99zM282.841 32.2334c118.36 0 201.529 82.1699 201.529 185.91c0 79.6299 -56.8398 139.79 -148.04 139.79c-115.09 0 -203.54 -87.6797 -203.54 -183.08
c0 -86.0801 57.8203 -142.62 150.051 -142.62z" />
    <glyph glyph-name="nine.osf" horiz-adv-x="562" 
d="M212.61 -222.97l190.909 275.02l-5.58008 3.51953c-29.8896 -23.3398 -77.5596 -42.2295 -124.8 -42.2295c-111.41 0 -194.19 87.21 -194.19 210.5c0 159.04 123.91 274.44 279.24 274.44c132.7 0 207.53 -91.1797 207.53 -199.699
c0 -71.2402 -31.6201 -131.311 -76.46 -197.131l-220.26 -324.42h-56.3896zM290.659 57.75c124.05 0 225.55 119.45 225.55 235.16c0 87.5996 -58.3604 158.42 -166.12 158.42c-127.76 0 -221.08 -100.75 -221.08 -223.01c0 -107.79 72.46 -170.57 161.65 -170.57z" />
    <glyph glyph-name="uni00B9" unicode="&#xb9;" horiz-adv-x="231" 
d="M163.36 268.23l70.6807 393.169c0.839844 5.28027 2.50977 7.43066 5.70996 10.4209l-3.2002 3.50977c-3.82031 -3.38965 -6.41992 -4.64941 -10.2695 -4.64941h-83.5898l6.80957 37.8301h134.21l-79.2002 -440.28h-41.1504z" />
    <glyph glyph-name="uni00B2" unicode="&#xb2;" horiz-adv-x="397" 
d="M169 609.29c32.8203 74.3301 93.6416 107.111 156.052 107.111c66.3496 0 109.949 -45.8301 109.949 -107.05c0 -67.5195 -48.2598 -121.06 -98.1797 -164.67l-144.74 -126.08c-7.2998 -6.40039 -10.1895 -7.44043 -14.2598 -7.44043l-0.980469 -5.09961h211.52
l-6.78027 -37.8301h-270.88l5.98047 35.7695l187.06 162.6c56.1602 48.8896 88.5303 90 88.5303 139.52c0 40.9297 -26.9199 71.7793 -75.9795 71.7793c-42.71 0 -80.9902 -26.1602 -109.891 -79.4697z" />
    <glyph glyph-name="uni00B3" unicode="&#xb3;" horiz-adv-x="387" 
d="M407.68 406.97c0 -84.5996 -65.0303 -146.301 -165.15 -146.301c-74.5703 0 -123.29 45.7803 -129.1 109.641l40.8896 10.7305c3.16992 -46.6602 36.4795 -82.1299 95.3896 -82.1299c66.2402 0 115.37 45.7402 115.37 104.57c0 52.0898 -35.9404 85.0098 -99 85.0098
l6.41992 35.5498c64.5801 0 112.2 34.1797 112.2 92.4492c0 37.4199 -24.6699 62.9199 -70.4199 62.9199c-48.9697 0 -81.4102 -27.3096 -104.57 -75.2393l-37.6699 8.83984c25.2305 66.5 81.4307 103.39 149.73 103.39c64.0098 0 105.609 -39.2695 105.609 -98.4395
c0 -42.9102 -30.0996 -93.5 -85.9795 -109.44l-0.860352 -4.84961c42.1104 -12.7695 67.1406 -47.6699 67.1406 -96.7002z" />
    <glyph glyph-name="fraction" unicode="&#x2044;" horiz-adv-x="431" 
d="M42.3701 0h-46.1504l527.07 736.91h46.04z" />
    <glyph glyph-name="onehalf" unicode="&#xbd;" horiz-adv-x="747" 
d="M163.31 0h-46.1504l527.07 736.91h46.0498zM172.81 268.23l70.6904 393.169c0.839844 5.28027 2.50977 7.43066 5.7002 10.4209l-3.19043 3.50977c-3.82031 -3.38965 -6.41992 -4.64941 -10.2695 -4.64941h-83.5898l6.80957 37.8301h134.21l-79.21 -440.28h-41.1504z
M530.23 343.289c32.8301 74.3301 93.6494 107.111 156.06 107.111c66.3398 0 109.95 -45.8301 109.95 -107.05c0 -67.5195 -48.2598 -121.06 -98.1797 -164.67l-144.74 -126.08c-7.2998 -6.40039 -10.1895 -7.44043 -14.2598 -7.44043l-0.980469 -5.09961h211.52
l-6.78027 -37.8301h-270.88l5.98047 35.7695l187.05 162.6c56.1699 48.8896 88.54 90 88.54 139.52c0 40.9297 -26.9199 71.7793 -75.9795 71.7793c-42.7197 0 -80.9893 -26.1602 -109.89 -79.4697z" />
    <glyph glyph-name="onequarter" unicode="&#xbc;" horiz-adv-x="711" 
d="M163.05 0h-46.1396l527.06 736.91h46.0498zM172.45 268.23l70.6914 393.169c0.830078 5.28027 2.50977 7.43066 5.7002 10.4209l-3.19043 3.50977c-3.82031 -3.38965 -6.43066 -4.64941 -10.2705 -4.64941h-83.5898l6.7998 37.8301h134.22l-79.21 -440.28h-41.1504z
M569.731 -0.000976562l17.1387 97.2314c0.620117 3.87012 2.90039 5.94043 4.94043 7.62012l-3.33984 4c-2.2998 -2.05957 -4.96973 -3.95996 -8.62012 -3.95996h-229.42l6.74023 38.0195l286.44 296.83h45.71l-50.7803 -287.87
c-0.629883 -3.87012 -2.89941 -5.94043 -4.93945 -7.62012l3.29004 -3.98047c2.41992 1.96973 5.01953 3.88965 8.66992 3.88965h51.25l-6.96973 -39.2695h-51.25c-3.65039 0 -5.56055 1.90039 -7.25098 3.95996l-4.7002 -4c1.49023 -1.67969 2.9502 -3.75 2.32031 -7.62012
l-17.21 -97.2305h-42.0195zM594.021 140.271l4.74902 3.98047c-1.49023 1.67969 -2.95996 3.75 -2.33008 7.62012l37.1201 210.52c1.50977 8.58008 5.29004 12.8701 8.86035 16.5303l-4.51953 3.16992l-219.61 -228.42c-3.4502 -3.48047 -6.21973 -4.30078 -9.2002 -4.30078
l-0.900391 -5.20996h178.62c3.65039 0 5.64062 -1.91992 7.21094 -3.88965z" />
    <glyph glyph-name="threequarters" unicode="&#xbe;" horiz-adv-x="826" 
d="M281.37 0h-46.1504l527.07 736.91h46.04zM400.71 406.97c0 -84.5996 -65.0303 -146.301 -165.15 -146.301c-74.5703 0 -123.29 45.7803 -129.1 109.641l40.8896 10.7305c3.16992 -46.6602 36.4795 -82.1299 95.3799 -82.1299c66.2402 0 115.38 45.7402 115.38 104.57
c0 52.0898 -35.9404 85.0098 -99 85.0098l6.41992 35.5498c64.5801 0 112.2 34.1797 112.2 92.4492c0 37.4199 -24.6797 62.9199 -70.4199 62.9199c-48.9805 0 -81.4102 -27.3096 -104.57 -75.2393l-37.6699 8.83984c25.2305 66.5 81.4307 103.39 149.73 103.39
c64.0098 0 105.609 -39.2695 105.609 -98.4395c0 -42.9102 -30.0996 -93.5 -85.9795 -109.44l-0.860352 -4.84961c42.1104 -12.7695 67.1406 -47.6699 67.1406 -96.7002zM684.07 -0.000976562l17.1387 97.2314c0.629883 3.87012 2.89941 5.94043 4.93945 7.62012l-3.33984 4
c-2.2998 -2.05957 -4.96973 -3.95996 -8.62012 -3.95996h-229.42l6.74023 38.0195l286.44 296.83h45.7197l-50.79 -287.87c-0.629883 -3.87012 -2.89941 -5.94043 -4.93945 -7.62012l3.29004 -3.98047c2.42969 1.96973 5.01953 3.88965 8.66992 3.88965h51.25
l-6.95996 -39.2695h-51.2598c-3.63965 0 -5.55957 1.90039 -7.25 3.95996l-4.7002 -4c1.49023 -1.67969 2.9502 -3.75 2.33008 -7.62012l-17.2197 -97.2305h-42.0195zM708.359 140.271l4.74902 3.98047c-1.49023 1.67969 -2.9502 3.75 -2.32031 7.62012l37.1104 210.52
c1.50977 8.58008 5.2998 12.8701 8.85938 16.5303l-4.51953 3.16992l-219.6 -228.42c-3.45996 -3.48047 -6.21973 -4.30078 -9.20996 -4.30078l-0.900391 -5.20996h178.63c3.65039 0 5.63086 -1.91992 7.20117 -3.88965z" />
    <glyph glyph-name="asterisk" unicode="*" horiz-adv-x="388" 
d="M310.25 752.97l36.5488 -0.00195312l-16.75 -95.7197c-2.37988 -13.25 -8.39941 -20.9404 -11.5195 -23.6104l5.95996 -4.29004c1.95996 3.91992 6.92969 11.9697 19.5498 18.6895l91.2002 48.2305l12.6699 -33.5703l-91.5596 -48.2598
c-11.6201 -6.08984 -20.4004 -6.5498 -24.3105 -5.21973l-2.16992 -7.69043c4.38965 1.33008 12.75 0.650391 22.1797 -5.44922l74.1504 -48.0195l-21.8896 -29.0498l-74.46 48.2305c-10.2998 6.69043 -12.6895 14.9902 -12.9795 18.9102l-7.54004 -4.88965
c2.13965 -2.66016 5.83984 -9.83984 3.37988 -23.0898l-16.7402 -96.46h-37.29l16.75 96.46c2.4502 13.25 8.5498 20.4297 11.5898 23.0898l-5.48047 3.84961c-1.75977 -3.91992 -7.76953 -12.2695 -20.3994 -18.9092l-90.46 -48.2305l-13.4297 33.5098l91.25 48.4297
c11.5898 6.13965 21.29 6.7793 25.1504 5.44922l2.13965 7.36035c-4.58984 -1.33008 -14.0996 -1.03027 -23.4697 5.21973l-72.9502 48.2305l22.7002 29.6904l73.9697 -48.2305c10.3203 -6.75977 12.4707 -14.7598 12.8203 -18.4297l7.38965 4.44043
c-2.08984 2.66992 -5.12012 10.3604 -2.74023 23.6104z" />
    <glyph glyph-name="backslash" unicode="\" horiz-adv-x="497" 
d="M470.27 0h-46.1797l-265.03 740h46.1797z" />
    <glyph glyph-name="periodcentered" unicode="&#xb7;" horiz-adv-x="197" 
d="M139.95 222.74c-19.9502 0.150391 -28.3203 13.3496 -28.2002 27.1699c0.150391 19.1904 15.5508 36.3203 36.1807 36.3203c17.2803 0 28.3203 -12.2305 28.2002 -27.0205c-0.150391 -19.1904 -14.6104 -36.6201 -36.1807 -36.4697z" />
    <glyph glyph-name="bullet" unicode="&#x2022;" horiz-adv-x="401" 
d="M248.04 248.54c-70.1104 0 -105.37 48.6396 -105.37 107.189c0 78.1904 62.3096 149.46 145.76 149.46c68.3799 0 105.8 -48.0801 105.8 -110.22c0 -80.3896 -64.0195 -146.43 -146.189 -146.43z" />
    <glyph glyph-name="colon" unicode=":" horiz-adv-x="200" 
d="M179.03 411.45c-19.9502 0.150391 -28.3291 13.3506 -28.1992 27.1709c0.150391 19.2002 15.54 36.3301 36.1699 36.3301c17.2803 0 28.3301 -12.2402 28.21 -27.0205c-0.160156 -19.1904 -14.6104 -36.6309 -36.1807 -36.4805zM104.731 -5.22949
c-19.96 0.150391 -28.3311 13.3516 -28.2109 27.1611c0.150391 19.2002 15.5508 36.3301 36.1807 36.3301c17.2803 0 28.3301 -12.2305 28.2002 -27.0205c-0.150391 -19.1904 -14.6104 -36.6309 -36.1699 -36.4707z" />
    <glyph glyph-name="comma" unicode="," horiz-adv-x="183" 
d="M49.8604 -83.5195l4.07227 24.3711c18.4199 7.33984 32.3799 18.2998 40.21 43.7002c1.76953 4.95996 4.59961 7.08984 8.11914 7.63965l0.759766 4.5498c-3.46973 -1.23047 -8.75 -1.9707 -12.0098 -1.9707c-19.9502 0.150391 -28.3301 13.3506 -28.2002 27.1602
c0.150391 19.2002 15.54 36.3301 36.1699 36.3301c18.2598 0 29.7793 -11.7598 29.7793 -33.21c0 -44.2002 -28.1602 -98.5205 -78.9004 -108.57z" />
    <glyph glyph-name="ellipsis" unicode="&#x2026;" horiz-adv-x="700" 
d="M90.5 -5.23047c-19.9502 0.150391 -28.3301 13.3516 -28.21 27.1611c0.160156 19.2002 15.5498 36.3301 36.1797 36.3301c17.2803 0 28.3301 -12.2305 28.2002 -27.0205c-0.150391 -19.1904 -14.6104 -36.6309 -36.1699 -36.4707zM350.33 -5.22949
c-19.96 0.150391 -28.3311 13.3516 -28.2109 27.1611c0.150391 19.2002 15.5508 36.3301 36.1807 36.3301c17.2803 0 28.3301 -12.2305 28.2002 -27.0205c-0.150391 -19.1904 -14.6104 -36.6309 -36.1699 -36.4707zM610.149 -5.22852
c-19.9502 0.150391 -28.3203 13.3516 -28.2002 27.1611c0.150391 19.2002 15.5508 36.3301 36.1807 36.3301c17.2803 0 28.3203 -12.2305 28.2002 -27.0205c-0.150391 -19.1904 -14.6104 -36.6309 -36.1807 -36.4707z" />
    <glyph glyph-name="exclam" unicode="!" horiz-adv-x="221" 
d="M151.6 153.97h-27.0488l40.0996 283.03l50.0596 278.25h47.8896l-50.0303 -278.25zM108.73 -5.23047c-19.96 0.150391 -28.3311 13.3516 -28.2109 27.1611c0.150391 19.2002 15.5508 36.3301 36.1807 36.3301c17.2803 0 28.3301 -12.2305 28.2002 -27.0205
c-0.150391 -19.1904 -14.6104 -36.6309 -36.1699 -36.4707z" />
    <glyph glyph-name="exclamdown" unicode="&#xa1;" horiz-adv-x="204" 
d="M183.15 447.14c-19.9502 0.150391 -28.3203 13.3496 -28.2002 27.1699c0.150391 19.1904 15.5508 36.3203 36.1807 36.3203c17.2803 0 28.3203 -12.2305 28.2002 -27.0205c-0.150391 -19.1904 -14.6104 -36.6201 -36.1807 -36.4697zM179.511 351.309l-40.8398 -283.03
l-50.0596 -278.26h-47.9004l50.0596 278.26l61.6904 283.03h27.0498z" />
    <glyph glyph-name="numbersign" unicode="#" horiz-adv-x="627" 
d="M655.79 440.57h-121.794l-51.3701 -162.57c-1.98047 -5.80957 -4.4502 -8.87988 -8.75 -12.21l3.99023 -5.03027c4.41992 3.5498 8.36035 5.66992 14.4307 5.66992h125.85l-6.92969 -38.4004h-144.59l-64.2305 -202.03h-39.25l60.4004 190.45
c1.83008 5.74023 4.41992 8.87988 8.66992 12.21l-3.92969 5.03027c-4.5 -3.5498 -8.41016 -5.66016 -14.4805 -5.66016h-164.14l-64.3398 -202.03h-39.4697l60.6602 190.45c1.86035 5.74023 4.7002 8.87988 8.96973 12.21l-4.00977 5.03027
c-4.41992 -3.5498 -8.33984 -5.66016 -14.3994 -5.66016h-106.18l6.92969 38.4004h124.83l51.8604 162.31c1.66016 5.87988 4.2002 8.87988 8.48047 12.21l-4.00977 5.01953c-4.5 -3.54004 -8.33984 -5.66016 -14.5098 -5.66016h-129.36l6.92969 38.6602h148.18l63 198.03
h38.7695l-59.1396 -186.46c-1.80957 -5.84961 -4.16992 -8.87988 -8.5 -12.21l4.00977 -5.01953c4.40039 3.54004 8.31055 5.66016 14.4609 5.66016h164.46l63 198.03h38.9902l-59.1396 -186.46c-1.80957 -5.84961 -4.5 -8.87988 -8.71973 -12.21l3.92969 -5.01953
c4.48047 3.54004 8.39062 5.66016 14.4609 5.66016h102.88zM316.456 440.57l-50.8613 -162.57c-1.9502 -5.80957 -4.25 -8.87988 -8.46973 -12.21l3.92969 -5.03027c4.5 3.5498 8.41016 5.66992 14.4805 5.66992h164.15l52.1104 162.57
c1.66016 5.87988 3.94043 8.87988 8.20996 12.2002l-4.00977 5.03027c-4.40039 -3.5498 -8.31055 -5.66016 -14.4805 -5.66016h-165.06z" />
    <glyph glyph-name="period" unicode="." horiz-adv-x="180" 
d="M90.5 -5.23047c-19.9502 0.150391 -28.3301 13.3516 -28.21 27.1611c0.160156 19.2002 15.5498 36.3301 36.1797 36.3301c17.2803 0 28.3301 -12.2305 28.2002 -27.0205c-0.150391 -19.1904 -14.6104 -36.6309 -36.1699 -36.4707z" />
    <glyph glyph-name="question" unicode="?" horiz-adv-x="472" 
d="M132.11 556.17c46.8203 108.11 130.788 166.082 236.658 166.082c92.5898 0 161.37 -65.8701 161.37 -157.09c0 -107.35 -58.8096 -163.26 -129.909 -211.62c-58.7695 -40.46 -107.189 -74.2197 -118.859 -141.14l-10.46 -60.2305h-46.7402l11.4902 65.1699
c15.8398 89.8896 77.3301 128.439 140.311 171.859c59.54 41.2002 105.75 80.9199 105.75 168.939c0 73.2695 -46.3896 119.63 -121.189 119.63c-85.9404 0 -145.971 -52.4902 -185.141 -131.681zM220.578 -5.22852c-19.9502 0.150391 -28.3301 13.3516 -28.2002 27.1611
c0.150391 19.2002 15.5508 36.3301 36.1709 36.3301c17.2803 0 28.3301 -12.2305 28.21 -27.0205c-0.150391 -19.1904 -14.6104 -36.6309 -36.1807 -36.4707z" />
    <glyph glyph-name="questiondown" unicode="&#xbf;" horiz-adv-x="462" 
d="M328.53 447.14c-19.96 0.150391 -28.3311 13.3496 -28.2109 27.1699c0.150391 19.1904 15.5508 36.3203 36.1807 36.3203c17.2803 0 28.3301 -12.2305 28.2002 -27.0205c-0.150391 -19.1904 -14.6104 -36.6201 -36.1699 -36.4697zM425.069 -50.751
c-41.1602 -106.14 -120.57 -166.081 -234.57 -166.081c-93.9404 0 -163.45 64.25 -163.45 162.48c0 102.16 58.2598 156.48 129.72 204.95c59 40.4502 106.96 75.5098 118.6 142.43l10.46 60.2197h46.4805l-11.4805 -65.1699
c-15.8203 -89.8896 -76.5898 -129.229 -142.09 -174.09c-58.5098 -40.7402 -103.25 -80.5 -103.25 -165.66c0 -70.7598 50.7305 -120.68 118.86 -120.68c89.6797 0 152.04 49.1504 187.44 131.681z" />
    <glyph glyph-name="quotedbl" unicode="&#x22;" horiz-adv-x="312" 
d="M195.42 484h-34.3193l34.8896 256h57.5898zM325.2 484h-34.3193l34.8896 256h57.5898z" />
    <glyph glyph-name="quotesingle" unicode="'" horiz-adv-x="183" 
d="M195.47 484h-34.3193l34.8799 256h57.5996z" />
    <glyph glyph-name="semicolon" unicode=";" horiz-adv-x="210" 
d="M177.18 411.22c-19.9502 0.150391 -28.3301 13.3496 -28.2002 27.1699c0.150391 19.1904 15.5508 36.3203 36.1709 36.3203c17.2803 0 28.3301 -12.2305 28.21 -27.0205c-0.150391 -19.1904 -14.6104 -36.6201 -36.1807 -36.4697zM61.8594 -83.5215l4.07227 24.3711
c18.4199 7.33984 32.3799 18.2998 40.21 43.7002c1.76953 4.95996 4.59961 7.08984 8.11914 7.63965l0.759766 4.5498c-3.46973 -1.23047 -8.75 -1.9707 -12.0098 -1.9707c-19.9502 0.150391 -28.3301 13.3506 -28.2002 27.1602
c0.150391 19.2002 15.54 36.3301 36.1699 36.3301c18.2598 0 29.7793 -11.7598 29.7793 -33.21c0 -44.2002 -28.1602 -98.5205 -78.9004 -108.57z" />
    <glyph glyph-name="slash" unicode="/" horiz-adv-x="501" 
d="M77.2305 0h-50.7197l530.93 740h50.7197z" />
    <glyph glyph-name="underscore" unicode="_" horiz-adv-x="621" 
d="M559.45 -42.3701h-512.5l7.62012 42.3701h512.5z" />
    <glyph glyph-name="braceleft" unicode="{" horiz-adv-x="296" 
d="M175.93 -196.72c-54.2197 0 -77.3516 41.5127 -67.4414 96.2324l40.6602 223.29c12 67.1104 -9.62012 118.82 -86.0801 119.59l9.21973 51.29c76.2998 0.769531 117.18 53.0693 129.43 119.999l40.2002 223.29c10.5098 58.1396 44.9102 96.0801 98.8203 96.0801h63.79
l-7.13965 -39.8799h-40.6504c-36.25 0 -60.6602 -24.9404 -68.0703 -66.1006l-39.9502 -223.33c-12.21 -67.29 -45.21 -121.49 -117.13 -133.61l-1.16016 -6.65039c66.1504 -15.75 79.5508 -74.5996 68.7812 -134.34l-39.5098 -219.7
c-8.63965 -47.7305 0.910156 -66.2803 34.9805 -66.2803h49.8203l-7.12012 -39.8799h-61.4502z" />
    <glyph glyph-name="braceright" unicode="}" horiz-adv-x="296" 
d="M50.1299 -196.72h-62.1172l7.2002 39.8799h47.04c37.2598 0 53.8193 23.0098 60.7393 61.0693l40.7305 224.91c11.96 67.3203 45.8496 121.88 117.33 136.6l1.16016 6.65039c-63.25 14.7803 -79.4805 73.0303 -68.0508 136.24l39.0498 216.51
c7.62988 42.4697 -1.94043 68.0293 -38.2803 68.0293h-46.8398l7.13965 39.8799h63.7998c54.7197 0 74.3994 -42.6396 63.6797 -102.77l-38.6504 -216.6c-12.9102 -72.0498 9.51953 -119.229 85.4092 -119.999l-9.21973 -51.29
c-76.7402 -0.769531 -116.71 -52.6299 -128.76 -119.59l-41.4805 -230.53c-10.0596 -55.9199 -41.6699 -88.9902 -99.8799 -88.9902z" />
    <glyph glyph-name="bracketleft" unicode="[" horiz-adv-x="300" 
d="M254.94 -153.35l-7.68945 -42.71h-193.07l167.17 929.37h193l-7.62988 -42.71h-143.9l-151.78 -843.95h143.9z" />
    <glyph glyph-name="bracketright" unicode="]" horiz-adv-x="300" 
d="M-10.25 -153.35h143.899l151.86 843.95h-143.9l7.62988 42.71h193l-167.1 -929.37h-193.08z" />
    <glyph glyph-name="parenleft" unicode="(" horiz-adv-x="332" 
d="M267.18 -200.26c-91.5 60.9805 -182.979 198.248 -182.979 387.528c0 292.82 186.36 481.561 353.9 565.19l16.46 -38.8398c-143.15 -78.9297 -319.551 -250.26 -319.551 -518.779c0 -182.58 79.4404 -302.69 160.33 -359.21z" />
    <glyph glyph-name="parenright" unicode=")" horiz-adv-x="332" 
d="M296.35 357.51c0 180.12 -76.3604 293.159 -161.66 356.609l28.7803 37.2695c98.7002 -70.3203 183.54 -198.29 183.54 -386.72c0 -287.14 -184.15 -490.31 -353.051 -568.04l-16.7197 39.29c147.48 73.8604 319.11 261.931 319.11 521.591z" />
    <glyph glyph-name="emdash" unicode="&#x2014;" horiz-adv-x="1092" 
d="M1067.69 238.11h-958.591l8.11035 45.2002h958.58z" />
    <glyph glyph-name="endash" unicode="&#x2013;" horiz-adv-x="656" 
d="M631.59 238.11h-522.489l8.20996 45.2002h522.479z" />
    <glyph glyph-name="hyphen" unicode="-" horiz-adv-x="404" 
d="M379.69 238.11h-270.689l8.20996 45.2002h270.68z" />
    <glyph glyph-name="uni00AD" unicode="&#xad;" horiz-adv-x="413" 
d="M379.69 238.11h-270.689l8.20996 45.2002h270.68z" />
    <glyph glyph-name="guillemotleft" unicode="&#xab;" horiz-adv-x="442" 
d="M230.64 52h-49.8701l-88.2998 201l160.2 199h55.9297l-162.45 -201.79zM392.01 52h-49.8701l-88.2998 201l160.2 199h55.9297l-162.45 -201.79z" />
    <glyph glyph-name="guillemotright" unicode="&#xbb;" horiz-adv-x="436" 
d="M56.8203 52l164.401 204.67l-84.7002 195.33h49.1396l88.7998 -199l-160.7 -201h-56.9404zM217.452 52l164.401 204.67l-84.7002 195.33h49.1396l88.7998 -199l-160.7 -201h-56.9404z" />
    <glyph glyph-name="guilsinglleft" unicode="&#x2039;" horiz-adv-x="276" 
d="M230.64 52h-49.8701l-88.2998 201l160.2 199h55.9297l-162.45 -201.79z" />
    <glyph glyph-name="guilsinglright" unicode="&#x203a;" horiz-adv-x="276" 
d="M56.8203 52l164.401 204.67l-84.7002 195.33h49.1396l88.7998 -199l-160.7 -201h-56.9404z" />
    <glyph glyph-name="quotedblbase" unicode="&#x201e;" horiz-adv-x="288" 
d="M49.8604 -83.5195l4.07227 24.3711c18.4199 7.33984 32.3799 18.2998 40.21 43.7002c1.76953 4.95996 4.59961 7.08984 8.11914 7.63965l0.759766 4.5498c-3.46973 -1.23047 -8.75 -1.9707 -12.0098 -1.9707c-19.9502 0.150391 -28.3301 13.3506 -28.2002 27.1602
c0.150391 19.2002 15.54 36.3301 36.1699 36.3301c18.2598 0 29.7793 -11.7598 29.7793 -33.21c0 -44.2002 -28.1602 -98.5205 -78.9004 -108.57zM154.293 -83.5186l4.07227 24.3711c18.4199 7.33984 32.3701 18.2998 40.21 43.7002
c1.76953 4.95996 4.59961 7.08984 8.11914 7.63965l0.759766 4.5498c-3.48047 -1.23047 -8.75 -1.9707 -12.0098 -1.9707c-19.9502 0.150391 -28.3301 13.3506 -28.2002 27.1602c0.150391 19.2002 15.54 36.3301 36.1699 36.3301c18.2598 0 29.7793 -11.7598 29.7793 -33.21
c0 -44.2002 -28.1602 -98.5205 -78.9004 -108.57z" />
    <glyph glyph-name="quotedblleft" unicode="&#x201c;" horiz-adv-x="276" 
d="M243.51 730.49l-4.07812 -24.3701c-18.4199 -7.34961 -32.3701 -18.2998 -40.21 -43.71c-1.76953 -4.9502 -4.58984 -7.08008 -8.12012 -7.63965l-0.75 -4.54004c3.46973 1.23047 8.73926 1.9707 11.999 1.9707c19.96 -0.150391 28.3301 -13.3506 28.21 -27.1709
c-0.150391 -19.2002 -15.5508 -36.3203 -36.1807 -36.3203c-18.25 0 -29.7803 11.7598 -29.7803 33.2002c0 44.2002 28.1602 98.5303 78.9102 108.58zM347.932 730.49l-4.07031 -24.3701c-18.4199 -7.34961 -32.3701 -18.2998 -40.21 -43.71
c-1.76953 -4.9502 -4.58984 -7.08008 -8.12012 -7.63965l-0.75 -4.54004c3.46973 1.23047 8.73926 1.9707 11.999 1.9707c19.9502 -0.150391 28.3301 -13.3506 28.21 -27.1709c-0.160156 -19.2002 -15.5498 -36.3203 -36.1797 -36.3203
c-18.2598 0 -29.7793 11.7598 -29.7793 33.2002c0 44.2002 28.1602 98.5303 78.9004 108.58z" />
    <glyph glyph-name="quotedblright" unicode="&#x201d;" horiz-adv-x="273" 
d="M166.77 588.65l4.07812 24.3799c18.4199 7.33984 32.3701 18.29 40.21 43.7002c1.76953 4.9502 4.58984 7.08008 8.12012 7.63965l0.75 4.5498c-3.46973 -1.23047 -8.73926 -1.98047 -11.999 -1.98047c-19.96 0.150391 -28.3301 13.3506 -28.21 27.1709
c0.150391 19.2002 15.5508 36.3301 36.1807 36.3301c18.25 0 29.7803 -11.7695 29.7803 -33.21c0 -44.2002 -28.1602 -98.5205 -78.9102 -108.58zM271.197 588.65l4.06836 24.3799c18.4297 7.33984 32.3799 18.29 40.2197 43.7002
c1.76953 4.9502 4.58984 7.08008 8.12012 7.63965l0.75 4.5498c-3.46973 -1.23047 -8.73926 -1.98047 -12.0088 -1.98047c-19.9502 0.150391 -28.3203 13.3506 -28.2002 27.1709c0.150391 19.2002 15.5508 36.3301 36.1807 36.3301c18.25 0 29.7803 -11.7695 29.7803 -33.21
c0 -44.2002 -28.1602 -98.5205 -78.9102 -108.58z" />
    <glyph glyph-name="quoteleft" unicode="&#x2018;" horiz-adv-x="172" 
d="M243.51 730.49l-4.07812 -24.3711c-18.4199 -7.33984 -32.3701 -18.29 -40.21 -43.7002c-1.76953 -4.9502 -4.58984 -7.08984 -8.12012 -7.63965l-0.75 -4.5498c3.46973 1.23047 8.73926 1.98047 11.999 1.98047c19.96 -0.160156 28.3301 -13.3604 28.21 -27.1699
c-0.150391 -19.2002 -15.5508 -36.3301 -36.1807 -36.3301c-18.25 0 -29.7803 11.7598 -29.7803 33.21c0 44.2002 28.1602 98.5205 78.9102 108.57z" />
    <glyph glyph-name="quoteright" unicode="&#x2019;" horiz-adv-x="168" 
d="M166.07 588.64l4.07031 24.3799c18.4199 7.33984 32.3701 18.29 40.21 43.7002c1.76953 4.9502 4.58984 7.08008 8.12012 7.63965l0.75 4.5498c-3.46973 -1.23047 -8.73926 -1.98047 -11.999 -1.98047c-19.9502 0.150391 -28.3301 13.3506 -28.21 27.1709
c0.160156 19.2002 15.5498 36.3301 36.1797 36.3301c18.2598 0 29.7793 -11.7695 29.7793 -33.21c0 -44.2002 -28.1602 -98.5205 -78.9004 -108.58z" />
    <glyph glyph-name="quotesinglbase" unicode="&#x201a;" horiz-adv-x="183" 
d="M49.8604 -83.5195l4.07227 24.3711c18.4199 7.33984 32.3799 18.2998 40.21 43.7002c1.76953 4.95996 4.59961 7.08984 8.11914 7.63965l0.759766 4.5498c-3.46973 -1.23047 -8.75 -1.9707 -12.0098 -1.9707c-19.9502 0.150391 -28.3301 13.3506 -28.2002 27.1602
c0.150391 19.2002 15.54 36.3301 36.1699 36.3301c18.2598 0 29.7793 -11.7598 29.7793 -33.21c0 -44.2002 -28.1602 -98.5205 -78.9004 -108.57z" />
    <glyph glyph-name="space" unicode=" " horiz-adv-x="251" 
 />
    <glyph glyph-name="uni00A0" unicode="&#xa0;" horiz-adv-x="251" 
 />
    <glyph glyph-name="Euro" unicode="&#x20ac;" horiz-adv-x="756" 
d="M486.77 -13c-163.57 0 -277.353 110.91 -296.593 274.97h-106.12l13.1904 42.9102h76.4404c4.20996 0 7.5 -1.74023 10.4902 -5.50977l6.13965 5.03027c-3.07031 3.76953 -3.58984 6.66992 -3.45996 12.2295c0.179688 19.7002 3.29004 54.3906 6.7002 72.7705
c0.679688 4.54004 2.37988 7.54004 7.67969 12.0498l-4.36035 5.03027c-4.37012 -3.76953 -8.92969 -5.50977 -12.4697 -5.50977h-76.0801l13.1904 42.9102h86.2197c51.1699 163.2 196.95 276.891 370.38 276.891c99.4004 0 169.32 -33.7998 226.28 -98.9395
l-36.1797 -29.8301c-48.8701 57.7695 -107.561 85.7998 -192.36 85.7998c-146.37 0 -266.55 -95.5801 -317.04 -235.25l4.34961 -4.9502c4.42969 4.03027 7.87988 6.28027 15.5303 6.28027h185.54l-12.6699 -42.9102h-195.19c-3.46973 0 -7.37988 1.74023 -10.4199 5.50977
l-6.13965 -5.03027c3.61035 -4.50977 4.26074 -7.54004 3.23047 -12.0498c-5.79004 -22.9102 -7.25 -47.1201 -7.16992 -71.2402c0 -6.25 -2.53027 -9.40039 -7.66992 -13.7607l4.37988 -5.03027c4.40039 3.76953 8.11035 5.50977 12.3906 5.50977h192l-12.5898 -42.9102
h-167.68c-4.23047 0 -7.32031 1.74023 -10.4199 5.50977l-6.20996 -4.9502c17.8398 -136.78 110.01 -232.3 247.2 -232.3c73.9697 0 146.149 24.25 206.6 78.4805l28.8301 -33.1104c-67.5703 -62.5996 -154.17 -88.5996 -235.939 -88.5996z" />
    <glyph glyph-name="cent" unicode="&#xa2;" horiz-adv-x="517" 
d="M253.95 0l23.0186 127.481c-100.76 15.5596 -166.43 101.55 -166.43 208.03c0 155.51 112.61 276.8 255.25 286.47l21.2598 118.02h42.7305l-21.2803 -118.32c72.4902 -6.36035 125.96 -45.1904 153.67 -113.48l-39.9902 -21.4902
c-17.4102 48.5498 -56.5 80.3496 -108.89 88.9297c-4.01953 1.07031 -8.08984 3.55078 -11.2598 7.83105l-5.87988 -5.28027c2.62988 -3.25977 3.95996 -6.64941 3.09961 -11.5498l-70.4004 -387.91c-0.830078 -4.71973 -3.04004 -8.29004 -6.7998 -11.54l3.99023 -5.29004
c4.62988 4.03027 9.07031 6.79004 14.3506 7.78027c56.2002 5.80957 105.86 35.9795 140.66 83.9092l35.4404 -25.3896c-49.6699 -68.1299 -116.8 -101.83 -197.28 -103.36l-22.5996 -124.84h-42.6602zM283.068 167.142l5.86133 5.28125
c-2.55957 3.25977 -3.0293 5.51953 -1.94922 11.5498l69.9102 381.59c1.2998 6.20996 2.34961 8.45996 6.22949 11.7197l-4.07031 5.29004c-3.87988 -3.54004 -8.13965 -6.33008 -14.04 -8.12012c-105.94 -15.8701 -188.181 -115.86 -188.181 -234.48
c0 -78.6904 42.0195 -147.25 115.18 -164.75c4.25977 -1.7998 7.85938 -4.0498 11.0596 -8.08008z" />
    <glyph glyph-name="currency" unicode="&#xa4;" horiz-adv-x="641" 
d="M560.16 81.1299l-52.3301 65.1309c-2 2.57031 -2.96973 6.03027 -1.81934 12.5107h-7.08984c-1.25977 -6.48047 -3.25977 -10.3008 -6.5293 -12.4307c-40.3398 -25.4805 -88.9502 -40.6709 -142.931 -40.6709c-60.5195 0 -107.25 18.71 -140.81 48.5898
c-2.25977 2.20996 -2.87988 5.87988 -1.64941 12.3496h-7.2002c-1.15039 -6.46973 -3.82031 -9.64941 -6.86035 -12.2393l-74.8096 -64.8301l-24.2695 29.4805l74.8496 64.3398c2.82031 2.44043 6.45996 4.15039 12.8096 4.15039l1.28027 7.24023
c-6.34961 0 -9.33984 1.74023 -11.0898 4.50977c-19.9902 33.6904 -29.6504 73.5801 -29.6504 114.55c0 70.2197 27.96 136.739 74.54 186.02c3.15039 3 6.93066 4.32031 13.2803 4.32031l1.28027 7.24023c-6.33984 0 -9.09961 2.16992 -11.0098 4.50977l-49.8301 62.21
l34.4805 29.4902l50.46 -62.7998c2 -2.50977 2.92969 -5.9502 1.76953 -12.4307h7.2002c1.17969 6.48047 3.46973 10.04 6.80957 12.25c40.5498 25.6904 88.7197 40.8408 141.399 40.8408c58.79 0 106.36 -18.7402 140.4 -49.6699
c2.9502 -2.66016 3.4502 -6.50977 2.21973 -12.9795h7.19043c1.17969 6.46973 3.92969 9.64941 6.89941 12.1689l73.0996 63.0898l23.7598 -29.4805l-73.3496 -63.2402c-2.74023 -2.37012 -6.48047 -4 -12.8301 -4l-1.28027 -7.24023
c6.34961 0 10.0801 -1.58984 11.8604 -4.72949c18.5996 -31.75 28.6992 -70.6201 28.6992 -112.83c0 -70.0801 -27 -136.64 -73.25 -185.77c-2.70996 -2.74023 -6.40039 -3.99023 -12.75 -3.99023l-1.28027 -7.25c6.33984 0 9.09961 -2.21973 11.04 -4.66016
l51.7598 -64.2695zM350.97 146.921c126.46 0 222.399 105.089 222.399 228.159c0 96.1396 -60.0195 169.12 -163.909 169.12c-127.95 0 -221.91 -110.89 -221.91 -230.359c0 -92.5996 57.29 -166.92 163.42 -166.92z" />
    <glyph glyph-name="dollar" unicode="$" horiz-adv-x="528" 
d="M244.19 -80l12.1299 67.1904c-90.2695 1.33984 -155.35 32.1094 -206.68 99.9395l36.2305 35.6602c40.5898 -57.29 92.8398 -87.0596 164.439 -89.71c4.71973 -0.589844 8.5498 -3.58984 11.9795 -8.12988l6.05957 5.03027c-3.4502 4 -2.5498 6.58008 -1.62012 11.6504
l55.2402 306.91c-98.4502 40.7002 -158.15 87.3701 -158.15 180.271c0 105.76 88.2695 182.76 224.229 191.04l12.7402 71.1504h42.7695l-12.7998 -71.0801c65.1797 -3.34961 114.609 -24.54 155.689 -62.4404l-34.5996 -36.6299
c-28.0596 29.1699 -68.25 45.9795 -116.29 51.2197c-4.26953 0.839844 -7.72949 3.5 -10.8193 7.26953l-6.01953 -4.76953c3.23047 -4 2.79004 -6.62012 1.94043 -11.2402l-49.9199 -280.42c100.76 -46.0801 145.62 -94.7002 145.62 -179.91
c0 -116.86 -87.3799 -200.641 -217.02 -213.881l-12.4805 -69.1201h-42.6699zM329.301 398.211l5.86035 5.2998c-3.17969 4 -2.95996 6 -1.86035 12.1299l44.7998 246.77c0.929688 5.0498 0.989258 7.25 5.60938 11.25l-4 5.28027
c-4.67969 -4.01953 -9 -6.64941 -14.1797 -7.89941c-88.9199 -11.7002 -152.229 -67.7803 -152.229 -138.181c0 -68.2998 48.4404 -98.3594 104.881 -125.3c4.30957 -2.21973 8.01953 -5.41992 11.1191 -9.34961zM308.171 31.5811
c4.63965 4.03027 9.95996 6.66113 14.1201 8.01074c86.7305 18.0898 144.12 82.1895 144.12 154.899c0 57.1797 -25.1396 92.3496 -93.1797 128.21c-4.13965 2.80957 -7.7793 6.09961 -10.9795 10.3799l-5.92969 -5.28027c3.25 -4 2.96973 -6.41016 2.16992 -10.8799
l-48.3604 -268.88c-0.910156 -4.84961 -1.33008 -7.16992 -5.98047 -11.1699z" />
    <glyph glyph-name="florin" unicode="&#x192;" horiz-adv-x="357" 
d="M226.53 535.91c24.8203 138.31 89.373 195.319 195.053 195.319c10.9297 0 26 -1.49023 40.3604 -4.98047l-7.58984 -41.9697h-1.71973c-2.9502 0 -14.8506 3.96973 -33.7002 3.96973c-76.3398 0 -128.189 -41.2197 -147.399 -152.739l-8.48047 -49.6797
c-1.03027 -5.29004 -3.28027 -7.5498 -5.9707 -9.83008l4.37988 -5.03027c2.69043 2.28027 5.81055 4.03027 10.0205 4.03027h111.14l-7.48047 -41.4297h-111.14c-4.20996 0 -6.70996 1.74023 -8.55957 4.03027l-6.13965 -5.03027
c1.84961 -2.29004 3.51953 -4.54004 2.62988 -9.83008l-72.9404 -403.23c-23.5801 -130.9 -83.54 -190.17 -178.12 -190.17c-9.45996 0 -23.9902 0.820312 -38.3203 4.30078l7.67969 42.6396c3.7998 -0.469727 16.6494 -3.96973 33.2891 -3.96973
c69.4297 0 112.58 50.2998 130.21 147.6l72.7197 402.83c0.929688 5.29004 2.7793 7.54004 5.51953 9.83008l-4.37988 5.03027c-2.66016 -2.29004 -5.70996 -4.03027 -9.91992 -4.03027h-58.7695l7.48047 41.4297h58.7695c4.20996 0 6.62988 -1.75 8.45996 -4.03027
l6.13965 5.03027c-1.90039 2.28027 -3.12012 4.54004 -2.19043 9.83008z" />
    <glyph glyph-name="sterling" unicode="&#xa3;" horiz-adv-x="543" 
d="M48.3701 0l7.94043 44.4395h19.2197c88.8203 62.3096 121.25 146.619 121.25 246.659c0 10.4805 -0.599609 34.8203 -1.96973 43.1699h-74.2402l7.76953 43.4297h45.1797c7.09961 0 11.7793 -1.74023 14.1797 -4.77051l6.11035 5.03027
c-7.30957 13.0703 -14.1797 45.8105 -14.1797 88.3203c0 151.54 98.6396 255.22 236.819 255.22c101.35 0 148.92 -49.2998 164.93 -111.3l-44.3301 -13.4805c-13.0898 45.6904 -49.0898 81.8506 -125.77 81.8506c-108.65 0 -184.07 -91.1602 -184.07 -211.88
c0 -33.5 4.29004 -66.6396 12.2305 -88.9795h190.88l-7.7998 -43.4297h-162.51c-4.98047 0 -8.84082 1.75 -12.4707 6.25977l-6.13965 -5.03027c2.08008 -7.0498 3.16992 -30.3896 3.16992 -43.4199c0 -93.1201 -29.29 -188.59 -105.8 -240.09l-1.42969 -7.5498h223.7
c65.2803 0 111.391 34.4297 121.841 92.5801h45.2998c-13.7002 -88.3496 -74.7002 -137.029 -170.36 -137.029h-309.45z" />
    <glyph glyph-name="yen" unicode="&#xa5;" horiz-adv-x="614" 
d="M281.95 0l26.3975 145.229c0.730469 4.54004 2.49023 7.54004 7.78027 12.0498l-4.37988 5.03027c-4.40039 -3.76953 -8.93066 -5.50977 -12.4707 -5.50977h-173.6l7.7002 42.9102h173.6c4.25977 0 7.4502 -1.74023 10.5703 -5.50977l6.13965 5.03027
c-3.12012 3.76953 -4.29004 6.76953 -3.48047 12.0498l12.9404 72.9502c0.959961 5.28027 3.5 8.28027 7.90039 12.0498l-4.28027 5.03027c-4.40039 -3.76953 -8.29004 -5.50977 -12.5 -5.50977h-173.67l7.76953 42.9102h150.7c8.32031 0 10.8008 -3 13.2412 -6.28027
l6.09961 5.01953l-169.61 370.55h53.46l149.49 -333.69c4.07031 -9.0498 5.15039 -15.7695 4.28027 -20.7695h6.75c0.900391 5 3.34082 11.6699 10.5107 20.5098l270.37 333.95h56.0703l-303.6 -370.55l4.36035 -5.01953c3.55957 3.28027 7.13965 6.28027 15.5498 6.28027
h152.69l-7.78027 -42.9102h-175.94c-4.20996 0 -7.37012 1.74023 -10.3896 5.50977l-6.13965 -5.03027c2.99023 -3.76953 4.08984 -6.78906 3.20996 -12.0488l-13.2002 -72.9502c-0.910156 -5.28027 -3.10059 -8.28027 -7.48047 -12.0498l4.37988 -5.03027
c4.2998 3.76953 8.12012 5.50977 12.2998 5.50977h176.04l-7.7002 -42.9102h-176.04c-3.45996 0 -7.37012 1.74023 -10.3896 5.50977l-6.13965 -5.03027c3.61035 -4.50977 4.14062 -7.50977 3.40039 -12.0498l-26.4004 -145.23h-48.5098z" />
    <glyph glyph-name="plus" unicode="+" horiz-adv-x="580" 
d="M329.04 89.6504h-46.1816l42.0703 233.86h-227.34l8.08008 44.7197h227.34l42 233.85h46.1602l-42.0498 -233.85h227.57l-8.08008 -44.7197h-227.52z" />
    <glyph glyph-name="minus" unicode="&#x2212;" horiz-adv-x="644" 
d="M631.09 323.51h-501.01l8.08008 44.7197h501.02z" />
    <glyph glyph-name="multiply" unicode="&#xd7;" horiz-adv-x="536" 
d="M459.13 145.91l-133.148 166.53l-195.49 -168.74l-27.2305 33.04l195.79 169l-134.24 167.74l35.9697 30.7998l134.22 -168l196.74 169.77l27.0996 -33.4404l-196.71 -169.67l132.86 -166.64z" />
    <glyph glyph-name="divide" unicode="&#xf7;" horiz-adv-x="645" 
d="M413.49 495.71c-19.96 0.160156 -28.3311 13.3613 -28.2109 27.1709c0.150391 19.2002 15.5508 36.3301 36.1807 36.3301c17.2803 0 28.3301 -12.2402 28.2002 -27.0205c-0.150391 -19.1904 -14.6104 -36.6309 -36.1699 -36.4805zM138.02 368.23h501.01
l-8.08008 -44.7197h-501.02zM348.229 132.4c-19.9502 0.150391 -28.3301 13.3506 -28.2002 27.1709c0.150391 19.2002 15.54 36.3203 36.1699 36.3203c17.2803 0 28.3301 -12.2305 28.2002 -27.0107c-0.150391 -19.1904 -14.6104 -36.6309 -36.1699 -36.4805z" />
    <glyph glyph-name="equal" unicode="=" horiz-adv-x="639" 
d="M645.06 426.83h-498.06l8.00977 44.71h498.06zM607.89 220.45h-497.989l8.00977 44.7197h497.979z" />
    <glyph glyph-name="greater" unicode="&#x3e;" horiz-adv-x="453" 
d="M485.52 346l-397.28 -340l-32.6504 36.4102l362.76 307.52l-247.02 304.08l39.1904 31.9902z" />
    <glyph glyph-name="less" unicode="&#x3c;" horiz-adv-x="453" 
d="M407.33 38.0596l-40.3389 -32.0605l-274.97 340l397.27 340l30.8496 -35.6699l-361.53 -308.43z" />
    <glyph glyph-name="plusminus" unicode="&#xb1;" horiz-adv-x="631" 
d="M363.74 140.4h-46.0303l41.3096 230h-227.34l8.08008 44.71h227.34l41.2803 230h46.1299l-41.2998 -230h227.64l-8.09961 -44.71h-227.63zM73.1104 44.71h501.01l-8.00977 -44.71h-501.01z" />
    <glyph glyph-name="asciitilde" unicode="~" horiz-adv-x="598" 
d="M556.26 375.45l39.6094 -0.000976562c-9.92969 -66.8496 -57.29 -121.17 -136.5 -121.17c-95.2002 0 -118.931 80 -201.61 80c-58.7695 0 -88.7695 -40.3896 -97.8398 -79.7393h-39.5801c9.29004 66.5703 64.5205 121.17 142.921 121.17c94.5 0 121.58 -80 200.39 -80
c54.8701 0 85.6104 41.1201 92.6104 79.7402z" />
    <glyph glyph-name="logicalnot" unicode="&#xac;" horiz-adv-x="647" 
d="M590.39 89.6504h-44.6299l42.1201 234.12h-462.28l8.00977 44.71h506.92z" />
    <glyph glyph-name="uni00B5" unicode="&#xb5;" horiz-adv-x="550" 
d="M45.0703 -231l126.998 706h45.1797l-48.2002 -269.86c-21.3604 -119.32 21.1992 -175.69 112.989 -175.69c99.71 0 159.16 58.6104 180.13 175.69l48.2002 269.86h45.4102l-49.4297 -276.06c-26.5596 -147.87 -101.779 -211.94 -230.299 -211.94
c-66.5898 0 -115.68 28.04 -132.279 79.71l-6.58984 -3.54004c1.45996 -4.74023 3.66992 -12.4902 1.83984 -22.0303l-48.7695 -272.14h-45.1797z" />
    <glyph glyph-name="percent" unicode="%" horiz-adv-x="828" 
d="M342.16 754.97c101.49 0 160.05 -72.2402 160.05 -162.94c0 -110.82 -86.2998 -209.86 -207.55 -209.86c-108.4 0 -160.57 77.9004 -160.57 162.511c0 111.34 89.71 210.29 208.07 210.29zM234.3 -0h-45.9102l530.9 740h45.8398zM338.79 715.22
c-93.5303 0 -162.26 -81.3994 -162.26 -169.34c0 -68.6699 42.1201 -123.95 120.38 -123.95c92.3398 0 162.56 77.1699 162.56 167.78c0 71.3096 -44.1299 125.51 -120.68 125.51zM667.331 359.69c101.49 0 160.05 -72.249 160.05 -162.949
c0 -110.82 -86.2998 -209.851 -207.55 -209.851c-108.4 0 -160.57 77.8896 -160.57 162.5c0 111.34 89.71 210.3 208.07 210.3zM663.961 319.932c-93.5303 0 -162.26 -81.9912 -162.26 -169.341c0 -68.6602 42.1299 -123.94 120.39 -123.94
c92.3398 0 162.55 77.1602 162.55 167.771c0 71.3203 -44.1299 125.511 -120.68 125.511z" />
    <glyph glyph-name="perthousand" unicode="&#x2030;" horiz-adv-x="1236" 
d="M342.16 754.97c101.49 0 160.05 -72.2402 160.05 -162.94c0 -110.82 -86.2998 -209.86 -207.55 -209.86c-108.4 0 -160.57 77.9004 -160.57 162.511c0 111.34 89.71 210.29 208.07 210.29zM234.3 -0h-45.9102l530.9 740h45.8398zM338.79 715.22
c-93.5303 0 -162.26 -81.3994 -162.26 -169.34c0 -68.6699 42.1201 -123.95 120.38 -123.95c92.3398 0 162.56 77.1699 162.56 167.78c0 71.3096 -44.1299 125.51 -120.68 125.51zM667.331 359.69c101.49 0 160.05 -72.249 160.05 -162.949
c0 -110.82 -86.2998 -209.851 -207.55 -209.851c-108.4 0 -160.57 77.8896 -160.57 162.5c0 111.34 89.71 210.3 208.07 210.3zM1075.04 359.691c101.49 0 160.051 -72.249 160.051 -162.949c0 -110.82 -86.2998 -209.851 -207.55 -209.851
c-108.4 0 -160.57 77.8896 -160.57 162.5c0 111.34 89.7197 210.3 208.069 210.3zM663.962 319.933c-93.5303 0 -162.26 -81.9912 -162.26 -169.341c0 -68.6602 42.1299 -123.94 120.39 -123.94c92.3398 0 162.55 77.1602 162.55 167.771
c0 71.3203 -44.1299 125.511 -120.68 125.511zM1071.67 319.932c-93.5303 0 -162.26 -81.9912 -162.26 -169.341c0 -68.6602 42.1299 -123.94 120.39 -123.94c92.3398 0 162.56 77.1602 162.56 167.771c0 71.3203 -44.1396 125.511 -120.689 125.511z" />
    <glyph glyph-name="uniF8FF" unicode="&#xf8ff;" horiz-adv-x="898" 
d="M255.3 704h365.399v-117.8h-241.6v-185.5c127.7 -45.2002 248.5 -156.101 385 -156.101c25.5 0 46.2002 3.90039 46.2002 3.90039s-20.7002 -31.4004 -95.2998 -31.4004c-110 0 -237.7 59.9004 -335.9 110.9v-328h-123.8v379.1s-23.5 9.7998 -51 9.7998
c-41.2998 0 -76.5996 -17.5996 -76.5996 -55.8994c0 -25.5996 14.7002 -48.1992 36.2998 -55.999c-34.4004 1.90039 -55 25.5 -55 61.7998c0 51.0996 44.2002 88.3994 123.8 88.3994c5.7998 0 13.7002 0 22.5 -1.90039v278.7z" />
    <glyph glyph-name="at" unicode="@" horiz-adv-x="955" 
d="M448.48 -212.75c-204.44 0 -362.88 152.429 -362.88 387.068c0 287.08 215.81 507.521 515.729 507.521c219.67 0 355.4 -148.42 355.37 -337.33c-0.0195312 -187.81 -110.159 -329.42 -228.129 -329.42c-52.2803 0 -85.4502 28.4004 -85.4502 76.4004
c0 20.8701 6.7998 31.9502 10.2695 36.7803l-4.75 3.54004c-17.1602 -30.25 -75.0205 -103.76 -177.86 -103.76c-96.1504 0 -167.45 77.2695 -167.45 181.18c0 136.11 102.58 241.29 233.98 241.29c95.8496 0 131.619 -63.8203 143.209 -97.6504l6.05957 3.51953
c-2.33008 5.24023 -4.04004 12.2705 -2.4502 19.6807l12.4805 66.6699l44.9805 -0.269531l-57.29 -318.06c-8.73047 -48.4502 16.7695 -68.3799 51.8994 -68.3799c84.9805 0 175.11 124.77 175.931 282.02c1.03027 173.62 -115.439 301.09 -316.959 301.09
c-269.17 0 -466.75 -204.83 -464.92 -461.38c1.41016 -213.63 142.93 -348.85 325.81 -348.85c85.1504 0 175.511 24.7598 239.53 77.1797l19.2598 -38.6104c-76.9404 -57.6396 -171.58 -80.2295 -266.37 -80.2295zM481.411 69.3086c95.5195 0 183.8 93.7305 183.8 199.03
c0 77.46 -45.3799 140.89 -131.89 140.89c-103.53 0 -184.19 -89.2002 -184.19 -198.561c0 -79.7695 51 -141.359 132.28 -141.359z" />
    <glyph glyph-name="ampersand" unicode="&#x26;" horiz-adv-x="669" 
d="M246.61 -10c-101.21 0 -171.542 64.1084 -171.542 156.179c0 125.27 119.71 193.819 180.57 228.499c16.0703 9.94043 27.5605 13.2207 36.041 13.1709l1.28027 7.32031c-5.30957 0.0195312 -12.3691 3.64941 -18.9492 14.1494
c-19.6504 29.4297 -50.9707 73.1699 -50.9707 131.8c0 101.73 82.1699 180.881 187.7 180.881c81.9902 0 136.26 -56.3799 136.26 -130.33c0 -108.15 -110.48 -168.7 -174.061 -201.061c-9.99023 -5.2998 -15.9404 -5.96973 -23.0801 -6.08008l-1.28027 -7.32031
c5.30957 0 9.20996 -1.30957 14.7002 -8.50977l131.46 -165.34c5.83008 -7.62988 6.34961 -15.5498 5.12988 -19.7295h7.21973c1.19043 6.33984 1.81055 11.7295 8.79102 19.21l123.04 130.16h56.0801l-165.57 -177.76l121.07 -155.24h-61.2402l-85.8799 111.88
c-4.90039 6.69043 -3.16016 13.7705 -2.44043 18.0508h-7.29004c-1 -5.84961 -2.96973 -11.8096 -10.3799 -20.3398c-57.0195 -66.8896 -139.079 -119.59 -236.659 -119.59zM327.419 411.248c101.86 49.9502 174.379 91.5996 174.379 176.14
c0 60.1299 -41.5596 94.2402 -98.1299 94.2402c-64.6699 0 -135.939 -51.4199 -135.939 -137.4c0 -57.4902 26.9902 -89.5898 59.6904 -132.979zM253.328 31.6475c84.4102 0 156.72 55.7197 215.189 127.2l-156.52 200.79
c-110.25 -51.8604 -191.14 -112.601 -191.14 -209.671c0 -70.9297 55.2695 -118.319 132.47 -118.319z" />
    <glyph glyph-name="paragraph" unicode="&#xb6;" horiz-adv-x="643" 
d="M458.53 -193h-43.7295l159.45 886.2h-145.96l-159.45 -886.2h-43.96l85.5303 475.4c-119.96 0 -187.86 97.9199 -187.86 192.89c0 123.98 88.0596 258.021 278.199 258.021h344.36l-7.16992 -40.1104h-120.03z" />
    <glyph glyph-name="section" unicode="&#xa7;" horiz-adv-x="505" 
d="M391.99 727.15c68.1602 0 119.779 -30.6211 150.319 -73.3115l-36.1602 -30.9404c-29.9199 37.8301 -65.79 60.2705 -122.15 60.2705c-73.71 0 -145 -47.29 -145 -126.2c0 -69.2695 47.8096 -90.2998 112.29 -121.12c75.7197 -35.7695 159.83 -73.2998 159.83 -164.2
c0 -76.25 -55.1201 -131.58 -110.75 -146.41l-1.28027 -7.32031c28.3203 -27.3203 39.9707 -61.2803 39.9707 -107.54c0 -129.8 -104.3 -186.38 -211.09 -186.38c-85.5195 0 -141.76 33.5303 -178.31 81.1201l34.9297 33.8096
c34.1602 -45.0498 80.9502 -71.2197 149.2 -71.2197c69.2998 0 156.569 38.4902 156.569 140.181c0 86.1201 -56.3896 97.4004 -152.609 146.631c-71 36.3301 -143.38 66.3301 -143.38 156.19c0 86.0303 77.3896 128.66 128.35 142.69l1.36035 7.32031
c-20.9102 21.6904 -34.7705 51.1504 -34.7705 95.71c0 97.1602 85.9902 170.72 202.681 170.72zM143.56 314.239c0 -61.1396 54.709 -82.4414 120.529 -116.961l102.221 -51.4697c59.8203 20.0898 95.5703 62.4502 95.5703 118.59c0 68.2305 -61.5996 92.54 -129.869 126.37
l-77.6807 41.6602c-68.54 -23.2598 -110.771 -61.1396 -110.771 -118.189z" />
    <glyph glyph-name="copyright" unicode="&#xa9;" horiz-adv-x="802" 
d="M415.23 -13.0996c-207.49 0 -305.96 154.699 -305.96 315.699c0 220 173.67 417.4 405.76 417.4c192.71 0 304.55 -140.2 304.55 -316.8c0 -218.5 -164.75 -416.3 -404.35 -416.3zM420.521 25.3193c213.4 0 360.16 177.07 360.16 372.63
c0 159.39 -98.9805 283.55 -271.021 283.55c-206.79 0 -361.49 -176.7 -361.49 -373.51c0 -145.02 84.8604 -282.67 272.351 -282.67zM439.66 133.409c-107.22 0 -180.578 82.1494 -180.578 188.55c0 145.42 109.97 256.2 245.63 256.2
c75.4502 0 130.82 -35.2803 158.37 -101.57l-36.9004 -19.9805c-19.0996 52.46 -64.3398 82.7998 -125.77 82.7998c-110.07 0 -197.94 -97.5303 -197.94 -213.48c0 -84.2197 52.79 -153.71 141.4 -153.71c58.2598 0 110.319 27.8203 146.089 77.0508l32.2695 -23.2402
c-46.4004 -61.2695 -107.641 -92.5996 -182.57 -92.6191z" />
    <glyph glyph-name="registered" unicode="&#xae;" horiz-adv-x="802" 
d="M415.23 -13.0996c-207.49 0 -305.96 154.699 -305.96 315.699c0 220 173.67 417.4 405.76 417.4c192.71 0 304.55 -140.2 304.55 -316.8c0 -218.5 -164.75 -416.3 -404.35 -416.3zM420.521 25.3193c213.4 0 360.16 177.07 360.16 372.63
c0 159.39 -98.9805 283.55 -271.021 283.55c-206.79 0 -361.49 -176.7 -361.49 -373.51c0 -145.02 84.8604 -282.67 272.351 -282.67zM301.341 140.77l77.7002 431.899h134.79c76.0703 0 131.431 -35.04 131.431 -107.43c0 -83.8896 -62.4404 -134.09 -157.07 -137.5
l-1.29004 -6.37012c4.91992 -0.139648 8.92969 -1.85938 11.3594 -6.09961l103.73 -174.5h-44.9805l-110.55 185.14h-71.3301l-33.1797 -185.14h-40.6104zM381.781 363.109h100.061c69.8301 0 122.39 32.3398 122.39 95.4395c0 54.9805 -38.7402 76.4609 -96.1006 76.4609
h-95.7197z" />
    <glyph glyph-name="trademark" unicode="&#x2122;" horiz-adv-x="729" 
d="M235.43 363.43h-39.4697l55.6299 309.25h-94.9404l6.33008 35.3203h228.38l-6.34961 -35.3203h-93.9502zM391.66 363.43l61.9893 344.57h41.2998l89.9199 -147.55l146.05 147.55h43.96l-61.96 -344.57h-39.3203l47.7803 266.23
c1.62988 8.91992 4.37012 14.4297 8.95996 19.1699l-4.32031 3.51953l-138.66 -138.78h-16.8896l-87.9199 138.86l-5.59961 -3.50977c2.79004 -4.74023 4.03027 -10.0303 2.40039 -18.9502l-47.8398 -266.54h-39.8496z" />
    <glyph glyph-name="degree" unicode="&#xb0;" horiz-adv-x="387" 
d="M276.55 420.77c-87.79 0 -130.011 62.249 -130.011 129.939c0 89.0996 73.0498 168.26 169.54 168.26c82.1504 0 129.57 -57.79 129.57 -130.39c0 -88.6396 -70.2998 -167.81 -169.1 -167.81zM278.889 455.389c73.3203 0 128.969 60.3105 128.969 130.91
c0 55.75 -34.79 98.0498 -95.0098 98.0498c-74.25 0 -128.72 -63.5703 -128.72 -132.17c0 -53.6699 33.1504 -96.79 94.7607 -96.79z" />
    <glyph glyph-name="bar" unicode="|" horiz-adv-x="228" 
d="M113.03 -140h-47.9004l152.8 849.48h47.9004z" />
    <glyph glyph-name="brokenbar" unicode="&#xa6;" horiz-adv-x="235" 
d="M211.36 390h-47.8301l57.0996 318h47.9004zM116.03 -140h-47.8994l58.6699 326.23h47.9199z" />
    <glyph glyph-name="dagger" unicode="&#x2020;" horiz-adv-x="510" 
d="M359.23 708h46.9736l-41.2002 -230.23c-0.879883 -4.51953 -3.16992 -7.53906 -7.58984 -11.3193l4.34961 -5.01953c3.53027 3.01953 7.41992 5.50977 12.3701 5.50977h170.08l-7.59961 -42.1699h-170.15c-4.87988 0 -7.87012 2.48047 -10.3506 5.51074
l-6.11035 -5.03027c3.04004 -3.76953 4.50977 -6.76953 3.39941 -12.0498l-99.2002 -553.2h-47.3398l99.5703 553.2c0.959961 5.28027 3.17969 8.28027 7.5498 12.0498l-4.28027 5.03027c-3.50977 -3.03027 -7.49023 -5.51074 -12.4707 -5.51074h-170.31l7.59961 42.1699
h170.31c4.98047 0 8 -2.49023 10.4199 -5.50977l6.13965 5.01953c-2.91992 3.78027 -4.24023 6.7998 -3.36035 11.3193z" />
    <glyph glyph-name="daggerdbl" unicode="&#x2021;" horiz-adv-x="509" 
d="M358.41 708l46.9883 0.000976562l-41.2002 -230.23c-0.990234 -4.51953 -3.08008 -7.53906 -7.4502 -11.3193l4.28027 -5.01953c3.53027 3.01953 7.49023 5.50977 12.4707 5.50977h170.08l-7.62012 -42.1699h-170.16c-4.87988 0 -7.9502 2.48047 -10.3398 5.51074
l-6.12012 -5.03027c2.96973 -3.76953 4.29004 -6.76953 3.25977 -12.0498l-46.1504 -258.4c-1.12988 -5.25977 -3.67969 -8.29004 -7.94922 -12.0596l4.36035 -5.03027c3.53027 3.03027 7.41992 5.52051 12.2998 5.52051h170.15l-7.62012 -42.1797h-170.09
c-4.9502 0 -7.91992 2.49023 -10.3896 5.52051l-6.11035 -5.03027c2.91016 -3.76953 4.64062 -6.7998 3.75098 -11.3096l-41.2002 -230.23h-46.9697l41.2002 230.23c0.879883 4.50977 2.95996 7.54004 7.2002 11.3096l-4.28027 5.03027
c-3.48047 -3.03027 -7.52051 -5.52051 -12.501 -5.52051h-170.31l7.62988 42.1797h170.31c4.98047 0 7.98047 -2.49023 10.4102 -5.52051l6.13965 5.03027c-2.9502 3.76953 -4.04004 6.76953 -3.00977 12.0596l46.1396 258.4c1.11035 5.25977 3.33008 8.2793 7.7002 12.0488
l-4.34961 5.03027c-3.48047 -3.03027 -7.4209 -5.51074 -12.4014 -5.51074h-170.39l7.59961 42.1699h170.34c4.95996 0 8.07031 -2.49023 10.5 -5.50977l6.11035 5.01953c-2.96973 3.78027 -4.48926 6.7998 -3.50879 11.3193z" />
    <glyph glyph-name="asciicircum" unicode="^" horiz-adv-x="522" 
d="M367.62 740h50.6094l122.53 -404h-47.0703l-103.03 341.77c-2.17969 7.42969 -1.84961 11.7998 -0.80957 17.5996h-6.67969c-1.05957 -5.7998 -2.92969 -10.0195 -7.81934 -17.5996l-223.12 -341.77h-50.9805z" />
    <glyph glyph-name="ampersand.ss01" horiz-adv-x="727" 
d="M72.2598 198.09c0 174.3 131.68 283.59 265.239 283.59c40.7695 0 79.6299 -12.96 93.46 -27.1504l5.87988 4.78027l-104.29 206.18l7.59961 42.5098h372.31l-7.67969 -42.9502h-304.75c-8.13965 0 -10.9492 4.48047 -12.6494 6.99023l-6.32031 -4.76953l341.44 -667.27
h-49.4697l-131.61 259.02l-6.4502 -3.20996c1.41992 -145.21 -97.7402 -268.56 -259.55 -268.56c-125.77 0 -203.159 91.3398 -203.159 210.84zM118.319 201.09c0 -98.6699 61.6895 -171.9 160.079 -171.9c136.58 0 224.021 107.44 224.021 240.16
c0 96.75 -58.5596 172.95 -159.47 172.95c-116.1 0 -224.63 -96.7803 -224.63 -241.21z" />
    <glyph glyph-name="uni0308" unicode="&#x308;" 
d="M-119.27 593.82c-19.96 0.150391 -28.2607 13.3506 -28.2109 27.1709c0.150391 19.2002 15.5508 36.3301 36.1807 36.3301c17.2803 0 28.1807 -12.2402 28.2002 -27.0205c-0.150391 -19.1904 -14.6104 -36.5508 -36.1699 -36.4805zM41.2598 593.82
c-19.9502 0.150391 -28.3301 13.3506 -28.2002 27.1709c0.150391 19.2002 15.5508 36.3301 36.1709 36.3301c17.2803 0 28.3301 -12.2402 28.21 -27.0205c-0.150391 -19.1904 -14.6104 -36.6309 -36.1807 -36.4805z" />
    <glyph glyph-name="uni0307" unicode="&#x307;" 
d="M7.5 610.54c-19.9502 0.150391 -28.3301 13.3496 -28.21 27.1699c0.160156 19.1904 15.5498 36.3203 36.1797 36.3203c17.2803 0 28.3301 -12.2305 28.2002 -27.0205c-0.150391 -19.1904 -14.6104 -36.6201 -36.1699 -36.4697z" />
    <glyph glyph-name="gravecomb" unicode="&#x300;" 
d="M30.2998 549.83l-178.949 106.8l29.0596 40.1396l175 -113.47z" />
    <glyph glyph-name="acutecomb" unicode="&#x301;" 
d="M-147.31 549.83l-16.8203 37.0801l214.57 114.71l19.9805 -44.4805z" />
    <glyph glyph-name="uni030B" unicode="&#x30b;" 
d="M-281.36 538.6l-29.6406 24l151.3 171.63l34.1904 -27zM-103.741 538.6l-29.6406 24l151.33 171.63l34.1602 -27z" />
    <glyph glyph-name="uni0302" unicode="&#x302;" 
d="M-231.53 544.95l-24.7803 29.6787l169.91 143.68h18.5l114.79 -144.35l-30.5596 -25.2695l-98.1104 121.23z" />
    <glyph glyph-name="uni030C" unicode="&#x30c;" 
d="M-123.19 547.68l-117.76 143.689l30.54 25.4805l102.64 -123.08l145.04 124.9l24.9805 -27.2998l-166.94 -143.69h-18.5z" />
    <glyph glyph-name="uni0306" unicode="&#x306;" 
d="M-114.41 575.11c-70.6602 0 -109.239 49.3203 -98.749 107.891h35.9297c-5.90039 -40.4297 18.6299 -71.5996 66.5703 -71.5996c48.5303 0 81.6699 30.3896 90.8896 71.5996h41.3203c-11.5801 -60.3203 -56.2705 -107.891 -135.961 -107.891z" />
    <glyph glyph-name="uni030A" unicode="&#x30a;" 
d="M-49.1104 533.24c-60.2305 0 -87.1602 43.5898 -87.1602 89.7803c0 62.4297 49.3896 118.52 115.42 118.52c55.1201 0 86.7598 -39.21 86.7598 -89.7695c0 -62.1904 -46.8398 -118.53 -115.02 -118.53zM-45.8203 568.37c42.71 0 75.9189 35.7607 75.9189 79.2607
c0 33.1396 -19.5098 58.7793 -55.0195 58.7793c-43.2998 0 -75.75 -38.1201 -75.75 -79.9805c0 -31.6699 18.3203 -58.0596 54.8506 -58.0596z" />
    <glyph glyph-name="tildecomb" unicode="&#x303;" 
d="M-37.29 573.28c-55.5195 0 -81.3213 41.001 -130.731 41.001c-29.46 0 -52.2402 -12.3496 -73.5303 -29.4795l-20.7197 32.3096c27.4102 22.54 58.9502 38.3398 97.2803 38.3398c59.54 0 88.1504 -41 130.46 -41c27.3604 0 52.5908 13.5596 76.2109 33.8994
l22.4102 -30.7598c-30.4902 -26.1504 -62.71 -44.3105 -101.38 -44.3105z" />
    <glyph glyph-name="uni0304" unicode="&#x304;" 
d="M-281.17 575.08l7.62988 42.1699h333.95l-7.62988 -42.1699h-333.95z" />
    <glyph glyph-name="uni0327" unicode="&#x327;" 
d="M-178.06 -222.03c-55 0 -89.2197 34.5381 -83.5801 85.0977h34.6797c-2.29004 -34.46 19.4404 -52.5498 52.4707 -52.5498c44.71 0 70.7803 27.6104 70.7803 64.8604c0 27.5195 -17.6104 47.5898 -55.6699 47.96h-46.6201l39.71 76.6602h36.96l-23.4004 -43.9199h7.98047
c47.75 -0.519531 77.8701 -31.6592 77.8701 -77.0088c0 -54.3799 -37.8203 -101.1 -111.181 -101.1z" />
    <glyph glyph-name="uni0328" unicode="&#x328;" 
d="M-123.03 -190.32c-47.4805 0 -87.5498 26.4512 -87.5498 80.7412c0 38 21.75 80.4102 49.8398 109.58h37.75c-21.9502 -24.9697 -44.1201 -56.79 -44.1201 -100.49c0 -36.96 25.1396 -54.5703 60.5498 -54.5703c7.69043 0 24.5205 1.25977 38.1006 6.0293
l-5.76953 -32.2305c-17.1904 -6.29004 -33.0605 -9.05957 -48.8008 -9.05957z" />
    <glyph glyph-name="uni0337" unicode="&#x337;" 
d="M-190.99 243.48l9.02051 49.8701l236.93 153.92l-9.0498 -49.8701z" />
    <glyph glyph-name="uni0338" unicode="&#x338;" 
d="M-418.93 -76.0596l-30.2803 13.8604l367.37 611l30.4102 -14.8604z" />
    <glyph glyph-name="uni0308.case" 
d="M-68.1602 803.82c-19.9502 0.150391 -28.3291 13.3506 -28.1992 27.1709c0.150391 19.2002 15.54 36.3301 36.1699 36.3301c17.2803 0 28.3301 -12.2402 28.2002 -27.0205c-0.150391 -19.1904 -14.6006 -36.6309 -36.1709 -36.4805zM63.7012 803.82
c-19.9502 0.150391 -28.3301 13.3506 -28.2002 27.1709c0.150391 19.2002 15.5508 36.3301 36.1709 36.3301c17.2803 0 28.3301 -12.2402 28.21 -27.0205c-0.150391 -19.1904 -14.6104 -36.6309 -36.1807 -36.4805z" />
    <glyph glyph-name="uni0307.case" 
d="M45.5 820.54c-19.9502 0.150391 -28.3301 13.3496 -28.21 27.1699c0.160156 19.1904 15.5498 36.3203 36.1797 36.3203c17.2803 0 28.3301 -12.2305 28.2002 -27.0205c-0.150391 -19.1904 -14.6104 -36.6201 -36.1699 -36.4697z" />
    <glyph glyph-name="gravecomb.case" 
d="M68.2998 759.83l-178.95 106.8l29.0703 40.1396l174.99 -113.47z" />
    <glyph glyph-name="acutecomb.case" 
d="M-109.24 759.83l-16.8193 37.0801l214.58 114.71l19.9697 -44.4805z" />
    <glyph glyph-name="uni030B.case" 
d="M-243.29 748.6l-29.6895 24l151.28 171.63l34.2695 -27zM-65.6699 748.6l-29.6895 24l151.31 171.63l34.2402 -27z" />
    <glyph glyph-name="uni0302.case" 
d="M-193.79 754.95l-24.7803 29.6787l169.91 143.68h18.5l114.79 -144.35l-30.5596 -25.2695l-98.1104 121.23z" />
    <glyph glyph-name="uni030C.case" 
d="M-84.9297 757.68l-117.77 143.689l30.5498 25.4805l102.64 -123.08l145.04 124.9l24.9697 -27.2998l-166.93 -143.69h-18.5z" />
    <glyph glyph-name="uni0306.case" 
d="M-77.6904 785.11c-70.6602 0 -109.239 49.3203 -98.749 107.891h35.9297c-5.90039 -40.4297 18.6299 -71.5996 66.5703 -71.5996c48.5195 0 81.6592 30.3896 90.8789 71.5996h41.3203c-11.5801 -60.3203 -56.2598 -107.891 -135.95 -107.891z" />
    <glyph glyph-name="uni030A.case" 
d="M-15.8203 743.24c-60.2305 0 -87.1699 43.5898 -87.1699 89.7803c0 62.4297 49.4004 118.52 115.42 118.52c55.1299 0 86.7695 -39.21 86.7695 -89.7695c0 -62.1904 -46.8398 -118.53 -115.02 -118.53zM-12.5293 778.37c42.71 0 75.9189 35.7607 75.9189 79.2607
c0 33.1396 -19.5098 58.7793 -55.0195 58.7793c-43.3096 0 -75.75 -38.1201 -75.75 -79.9805c0 -31.6699 18.3203 -58.0596 54.8506 -58.0596z" />
    <glyph glyph-name="tildecomb.case" 
d="M0.709961 783.28c-55.5195 0 -81.3213 41.001 -130.731 41.001c-29.46 0 -52.2402 -12.3496 -73.5303 -29.4795l-20.7197 32.3096c27.4102 22.54 58.9502 38.3398 97.2803 38.3398c59.54 0 88.1504 -41 130.46 -41c27.3604 0 52.5908 13.5596 76.2109 33.8994
l22.4102 -30.7598c-30.4902 -26.1504 -62.71 -44.3105 -101.38 -44.3105z" />
    <glyph glyph-name="uni0304.case" 
d="M-243.32 785.08l7.51953 42.1699h333.95l-7.51953 -42.1699h-333.95z" />
    <glyph glyph-name="uni0327.case" 
d="M-177.32 -222.03c-55 0 -89.2207 34.5391 -83.5811 85.0986h34.6797c-2.29004 -34.46 19.4404 -52.5498 52.4707 -52.5498c44.71 0 70.7803 27.6104 70.7803 64.8604c0 27.5195 -17.6104 47.96 -55.6699 47.96h-46.6201l39.71 76.6602h36.96l-23.4004 -43.9199h7.98047
c47.75 0 77.8701 -31.6602 77.8701 -77.0098c0 -54.3799 -37.8096 -101.1 -111.18 -101.1z" />
    <glyph glyph-name="uni0328.case" 
d="M-123.03 -190.32c-47.4805 0 -87.5498 26.4512 -87.5498 80.7412c0 38 21.75 80.4102 49.8398 109.58h37.75c-21.9502 -24.9697 -44.1201 -56.79 -44.1201 -100.49c0 -36.96 25.1396 -54.5703 60.5498 -54.5703c7.69043 0 24.5205 1.25977 38.1006 6.0293
l-5.76953 -32.2305c-17.1904 -6.29004 -33.0605 -9.05957 -48.8008 -9.05957z" />
    <glyph glyph-name="uni0337.case" 
d="M-190.99 243.48l8.43066 46.9697l236.93 153.92l-8.45996 -46.9697z" />
    <glyph glyph-name="uni0338.case" 
d="M-520.59 -23l-31.3994 20.2305l628.41 755.45l30.8096 -21.2305z" />
    <glyph glyph-name="acute" unicode="&#xb4;" horiz-adv-x="327" 
d="M167.46 549.83l-16.8203 37.0801l214.57 114.71l19.9805 -44.4805z" />
    <glyph glyph-name="breve" unicode="&#x2d8;" horiz-adv-x="433" 
d="M308.88 575.11c-70.6602 0 -109.239 49.3203 -98.749 107.891h35.9297c-5.90039 -40.4297 18.6299 -71.5996 66.5703 -71.5996c48.5195 0 81.6592 30.3896 90.8789 71.5996h41.3203c-11.5801 -60.3203 -56.2598 -107.891 -135.95 -107.891z" />
    <glyph glyph-name="caron" unicode="&#x2c7;" horiz-adv-x="429" 
d="M296.84 547.68l-117.77 143.689l30.5498 25.4805l102.64 -123.08l145.04 124.9l24.9697 -27.2998l-166.93 -143.69h-18.5z" />
    <glyph glyph-name="cedilla" unicode="&#xb8;" horiz-adv-x="299" 
d="M112.91 -222.03c-55 0 -89.2197 34.5381 -83.5801 85.0977h34.6797c-2.29004 -34.46 19.4404 -52.5498 52.4707 -52.5498c44.71 0 70.7803 27.6104 70.7803 64.8604c0 27.5195 -17.6104 47.5898 -55.6699 47.96h-46.6201l39.71 76.6602h36.96l-23.4004 -43.9199h7.98047
c47.75 -0.519531 77.8701 -31.6592 77.8701 -77.0088c0 -54.3799 -37.8203 -101.1 -111.181 -101.1z" />
    <glyph glyph-name="circumflex" unicode="&#x2c6;" horiz-adv-x="429" 
d="M183.04 544.95l-24.7803 29.6787l169.91 143.68h18.5l114.79 -144.35l-30.5596 -25.2695l-98.1104 121.23z" />
    <glyph glyph-name="dieresis" unicode="&#xa8;" horiz-adv-x="301" 
d="M176.64 593.82c-19.9502 0.150391 -28.249 13.3506 -28.1992 27.1709c0.150391 19.2002 15.54 36.3301 36.1699 36.3301c17.2803 0 28.1807 -12.2402 28.2002 -27.0205c-0.150391 -19.1904 -14.6006 -36.5508 -36.1709 -36.4805zM337.181 593.82
c-19.9502 0.150391 -28.3301 13.3506 -28.21 27.1709c0.160156 19.2002 15.5498 36.3301 36.1797 36.3301c17.2803 0 28.3301 -12.2402 28.2002 -27.0205c-0.150391 -19.1904 -14.6104 -36.6309 -36.1699 -36.4805z" />
    <glyph glyph-name="dotaccent" unicode="&#x2d9;" horiz-adv-x="167" 
d="M215.3 610.54c-19.9502 0.150391 -28.3301 13.3496 -28.21 27.1699c0.160156 19.1904 15.5498 36.3203 36.1797 36.3203c17.2803 0 28.3301 -12.2305 28.2002 -27.0205c-0.150391 -19.1904 -14.6104 -36.6201 -36.1699 -36.4697z" />
    <glyph glyph-name="grave" unicode="`" horiz-adv-x="541" 
d="M344.33 549.83l-178.96 106.8l29.0703 40.1396l175 -113.47z" />
    <glyph glyph-name="hungarumlaut" unicode="&#x2dd;" horiz-adv-x="466" 
d="M188.98 538.6l-29.6396 24l151.3 171.63l34.2002 -27zM366.601 538.6l-29.6396 24l151.33 171.63l34.1699 -27z" />
    <glyph glyph-name="macron" unicode="&#xaf;" horiz-adv-x="444" 
d="M154.03 575.08l7.62988 42.1699h333.95l-7.62988 -42.1699h-333.95z" />
    <glyph glyph-name="ogonek" unicode="&#x2db;" horiz-adv-x="251" 
d="M123.6 -190.32c-47.4902 0 -87.5498 26.4512 -87.5498 80.7412c0 38 21.75 80.4102 49.8398 109.58h37.7402c-21.9404 -24.9697 -44.1104 -56.79 -44.1104 -100.49c0 -36.96 25.1396 -54.5703 60.5498 -54.5703c7.69043 0 24.5205 1.25977 38.1006 6.0293
l-5.76953 -32.2305c-17.1904 -6.29004 -33.0703 -9.05957 -48.8008 -9.05957z" />
    <glyph glyph-name="ring" unicode="&#x2da;" horiz-adv-x="312" 
d="M250.61 533.24c-60.2305 0 -87.1699 43.5898 -87.1699 89.7803c0 62.4297 49.3896 118.52 115.42 118.52c55.1299 0 86.7695 -39.21 86.7695 -89.7695c0 -62.1904 -46.8496 -118.53 -115.02 -118.53zM253.892 568.37c42.71 0 75.9297 35.7607 75.9297 79.2607
c0 33.1396 -19.5098 58.7793 -55.0195 58.7793c-43.3096 0 -75.75 -38.1201 -75.75 -79.9805c0 -31.6699 18.3096 -58.0596 54.8398 -58.0596z" />
    <glyph glyph-name="tilde" unicode="&#x2dc;" horiz-adv-x="435" 
d="M389.34 573.28c-55.5303 0 -81.3213 41.001 -130.731 41.001c-29.46 0 -52.2402 -12.3496 -73.5303 -29.4795l-20.7197 32.3096c27.4102 22.54 58.9502 38.3398 97.2803 38.3398c59.54 0 88.1504 -41 130.45 -41c27.3604 0 52.6006 13.5596 76.2207 33.8994
l22.4102 -30.7598c-30.4902 -26.1504 -62.71 -44.3105 -101.38 -44.3105z" />
    </font>
</defs>
</svg>
