<svg xmlns="http://www.w3.org/2000/svg">
<defs>
<font id="Aleo-Regular" horiz-adv-x="1545" >
  <font-face 
    font-family="Aleo"
    font-weight="400"
    font-stretch="normal"
    units-per-em="2000"
    panose-1="2 15 5 2 2 2 4 3 2 3"
    ascent="1610"
    descent="-390"
    x-height="1013"
    cap-height="1433"
    bbox="10 -364.997 2216 1837"
    underline-thickness="120"
    underline-position="-80"
    stemh="123"
    stemv="177"
    unicode-range="U+000D-FB02"
  />
<missing-glyph horiz-adv-x="1188" 
d="M312.999 1141c16.667 14.667 34.5 28.334 53.5 41.001s39.833 23.834 62.5 33.501s47.167 17.334 73.5 23.001s54.833 8.5 85.5 8.5c42 -0.00976562 80.167 -5.84277 114.5 -17.5c34.333 -11.667 63.666 -28.167 87.999 -49.5s43.333 -47.166 57 -77.499
c13.6699 -30.333 20.5029 -64.166 20.5 -101.499c0 -36.667 -5 -68.334 -15 -95.001s-22.5 -49.834 -37.5 -69.501s-31.5 -36.667 -49.5 -51l-51 -40.5s-29.833 -25.167 -41.5 -37.5c-11.667 -12.3359 -18.834 -26.1689 -21.501 -41.5l-17 -105h-122l-12 117
c-2.66699 22.668 0.333008 42.501 9 59.5c8.66699 17 20.5 32.667 35.5 47s31.667 28.166 50 41.499s35.5 27.666 51.5 42.999c16.001 15.333 29.334 32.666 40 51.999c10.6689 19.333 16.002 42.333 16 69c-0.000976562 34 -12.168 61 -36.5 81
c-24.334 20 -55.501 30 -93.5 30c-27.333 0 -50.333 -3 -69 -9s-34.667 -12.667 -48 -20s-24.666 -14 -33.999 -20s-17.666 -9 -24.999 -9c-16.667 0 -29 7.33301 -37 22zM458.999 292c0 31.333 10.334 57.6641 31.001 78.9971c20.667 21.334 47 32.001 79 32.001
c14.667 -0.00195312 28.667 -2.83496 42 -8.5c13.333 -5.66797 24.833 -13.501 34.5 -23.5c9.66797 -10 17.335 -21.833 23 -35.499c5.6709 -13.667 8.50391 -28.167 8.49902 -43.5c0 -15.333 -2.83301 -29.666 -8.5 -42.999s-13.334 -25 -23.001 -35
s-21.167 -17.833 -34.5 -23.5s-27.333 -8.5 -42 -8.5c-32 0 -58.333 10.5 -78.999 31.5c-20.668 21 -31.001 47.167 -31 78.5zM108 1433h974v-1433h-974v1433zM158 53.998h867v1324h-867v-1324z" />
    <glyph glyph-name="fi" unicode="fi" horiz-adv-x="1194" 
d="M679 86c0.00292969 20.667 10.3359 33 31 37l114 23v-146h-145v86zM1002 146l114.002 -22.999c20 -4 30 -16.333 30 -37v-86h-322v864h-428v-718c79.333 -13.334 123.666 -21.001 132.999 -23.001c20 -4 30 -16.333 30 -37v-86h-163h-179h-155v86
c0 20.667 10.333 33 31 37l123.999 23v715l-112 13c-32 7.33301 -48 22.666 -48 45.999v73h160v56c0 128 38.667 229.333 116 304c78.667 76 194 115.333 346 118c124.667 0 227 -31 307 -93c37.3398 -26.667 56.0068 -61.667 56.001 -105
c0 -33.333 -13 -62.666 -39 -87.999c-24.6689 -25.333 -50.002 -38 -76 -38c-26 0 -46.5 3.33301 -61.5 10s-28.5 16 -40.5 28c-24.667 24.667 -37 54 -37 88c0 14 2 27.333 6 40c-62.001 22 -123.168 27 -183.501 15s-106.833 -33 -139.5 -63
c-54 -49.333 -81 -123 -81 -221v-51h612v-847z" />
    <glyph glyph-name="fl" unicode="fl" horiz-adv-x="1309" 
d="M633 1460l308.003 -12h100v-1176c0.666992 -52.667 11.834 -91.167 33.501 -115.5s58.5 -36.5 110.5 -36.5h40c9.33789 0 16.6709 -1 21.999 -3c4.66699 -2.66699 7.66699 -8 9 -16l8 -96c-36 -13.333 -76.667 -20 -122 -20c-92.668 0 -163.335 28 -212.001 84
c-44.667 50 -67 118.333 -67 205v1053h-203c-86.667 0 -153.334 -24.667 -200.001 -74s-70 -118.333 -70 -207v-53h264v-129h-258v-717c79.333 -13.334 123.666 -21.001 132.999 -23.001c20 -4 30 -16.333 30 -37v-86h-163h-179h-155v86c0 20.667 10.333 33 31 37
c2.66699 0.666992 44 8.33398 124 23.001v701l-112 15c-32 7.33301 -48 24 -48 50v80h160v54c0 119.333 34.667 216.333 104 291c75.333 81.3359 179.333 122.003 312 122z" />
    <glyph glyph-name=".notdef" horiz-adv-x="1188" 
d="M312.999 1141c16.667 14.667 34.5 28.334 53.5 41.001s39.833 23.834 62.5 33.501s47.167 17.334 73.5 23.001s54.833 8.5 85.5 8.5c42 -0.00976562 80.167 -5.84277 114.5 -17.5c34.333 -11.667 63.666 -28.167 87.999 -49.5s43.333 -47.166 57 -77.499
c13.6699 -30.333 20.5029 -64.166 20.5 -101.499c0 -36.667 -5 -68.334 -15 -95.001s-22.5 -49.834 -37.5 -69.501s-31.5 -36.667 -49.5 -51l-51 -40.5s-29.833 -25.167 -41.5 -37.5c-11.667 -12.3359 -18.834 -26.1689 -21.501 -41.5l-17 -105h-122l-12 117
c-2.66699 22.668 0.333008 42.501 9 59.5c8.66699 17 20.5 32.667 35.5 47s31.667 28.166 50 41.499s35.5 27.666 51.5 42.999c16.001 15.333 29.334 32.666 40 51.999c10.6689 19.333 16.002 42.333 16 69c-0.000976562 34 -12.168 61 -36.5 81
c-24.334 20 -55.501 30 -93.5 30c-27.333 0 -50.333 -3 -69 -9s-34.667 -12.667 -48 -20s-24.666 -14 -33.999 -20s-17.666 -9 -24.999 -9c-16.667 0 -29 7.33301 -37 22zM458.999 292c0 31.333 10.334 57.6641 31.001 78.9971c20.667 21.334 47 32.001 79 32.001
c14.667 -0.00195312 28.667 -2.83496 42 -8.5c13.333 -5.66797 24.833 -13.501 34.5 -23.5c9.66797 -10 17.335 -21.833 23 -35.499c5.6709 -13.667 8.50391 -28.167 8.49902 -43.5c0 -15.333 -2.83301 -29.666 -8.5 -42.999s-13.334 -25 -23.001 -35
s-21.167 -17.833 -34.5 -23.5s-27.333 -8.5 -42 -8.5c-32 0 -58.333 10.5 -78.999 31.5c-20.668 21 -31.001 47.167 -31 78.5zM108 1433h974v-1433h-974v1433zM158 53.998h867v1324h-867v-1324z" />
    <glyph glyph-name="NULL" horiz-adv-x="263" 
 />
    <glyph glyph-name="NULL" horiz-adv-x="263" 
 />
    <glyph glyph-name="nonmarkingreturn" unicode="&#xd;" horiz-adv-x="263" 
 />
    <glyph glyph-name="space" unicode=" " horiz-adv-x="430" 
 />
    <glyph glyph-name="exclam" unicode="!" horiz-adv-x="388" 
d="M281 1433v-572c0 -30 -0.5 -59.333 -1.5 -88s-2.5 -57.5 -4.5 -86.5c-2 -29.001 -4.5 -58.668 -7.5 -89c-3 -30.333 -6.5 -62.833 -10.5 -97.5h-121c-4 34.667 -7.5 67.167 -10.5 97.5s-5.5 60 -7.5 89c-2 29.001 -3.5 57.834 -4.5 86.5c-1 28.668 -1.5 58.001 -1.5 88
v572h169zM69 110c0 17.333 3.16504 33.666 9.49805 48.999s15 28.666 26 39.999s24.167 20.333 39.5 27s31.666 10 48.999 10c17.334 0 33.667 -3.33301 49 -10c15.334 -6.66699 28.667 -15.667 40 -27c11.334 -11.333 20.167 -24.666 26.5 -39.999
c6.33496 -15.333 9.50195 -31.666 9.5 -48.999c0 -18 -3.16699 -34.5 -9.5 -49.5s-15.166 -28.167 -26.499 -39.5s-24.666 -20.166 -39.999 -26.499s-31.666 -9.5 -48.999 -9.5s-33.666 3.16699 -48.999 9.5s-28.5 15.166 -39.5 26.499s-19.667 24.5 -26 39.5
c-6.33398 15 -9.50098 31.5 -9.50098 49.5z" />
    <glyph glyph-name="quotedbl" unicode="&#x22;" horiz-adv-x="661" 
d="M242 1433v-290l-16 -155c-2 -21.333 -7.66699 -37.833 -17 -49.5s-24.333 -17.5 -45 -17.5c-17.333 0.00390625 -30.833 5.83691 -40.5 17.5c-9.66699 11.667 -16.5 28.167 -20.5 49.5l-16 155v290h155zM575 1433v-290l-16 -155
c-2.00195 -21.333 -7.66895 -37.833 -17 -49.5c-9.33301 -11.667 -24.333 -17.5 -45 -17.5c-17.333 0.00390625 -30.833 5.83691 -40.5 17.5c-9.66797 11.667 -16.501 28.167 -20.5 49.5l-16 155v290h155z" />
    <glyph glyph-name="numbersign" unicode="#" horiz-adv-x="1138" 
d="M783.002 423l-84.002 -423.001h-81c-15.333 0 -28.333 5.66699 -39 17s-16 26 -16 44c0 2.66699 0.166992 5.16699 0.5 7.5s0.833008 5.16602 1.5 8.49902l71 346h-247l-71 -355c-5.33301 -24.667 -15.5 -42.167 -30.5 -52.5s-32.167 -15.5 -51.5 -15.5h-79l85 423h-146
c-15.333 0 -27.333 3.83301 -36 11.5s-13 20.834 -13 39.501c0 3.33594 0.166992 7.00293 0.5 11c0.333008 4 0.833008 8 1.5 12l8 57h204l65 326h-232l13 74c3.33301 19.333 11 33.666 23 42.999s31 14 57 14h158l72 358c4.00098 20.0049 13.168 35.6719 27.5 47
c14.334 11.3447 31.501 17.0117 51.5 17.001h80l-84 -422h247l84 422h79c16.6689 0 30.502 -5 41.5 -15c11 -10 16.5 -23 16.5 -39c0 -5.33301 -0.333008 -9.66602 -1 -12.999l-73 -355h212l-13 -75c-3.33301 -19.335 -11.166 -33.502 -23.499 -42.5
c-12.333 -9 -31.166 -13.5 -56.499 -13.5h-138l-65 -326h179c16.002 0 28.335 -3.83301 37 -11.5c8.66699 -7.66699 13 -21.167 13 -40.5c0 -3.33301 -0.166992 -6.83301 -0.5 -10.5c-0.333008 -3.66895 -0.833008 -7.50195 -1.5 -11.5l-9 -57h-237zM408 553.999h247l65 326
h-247z" />
    <glyph glyph-name="dollar" unicode="$" horiz-adv-x="1031" 
d="M424.996 -12c-80.667 7.33301 -154.163 27.165 -220.496 59.498s-123.5 73.5 -171.5 123.5l53 82c4.66699 7.33301 11.334 13.333 20.001 18s17.667 7 27 7c12.667 -0.000976562 27 -6.33398 43 -19c16 -12.667 35.667 -27.167 59 -43.5s51.166 -32.166 83.499 -47.499
s71.166 -25.666 116.499 -30.999l37 531c-46.667 14.001 -92.5 29.834 -137.5 47.499c-45 17.667 -85.333 40.667 -120.999 69c-35.667 28.333 -64.334 64 -86.001 107s-32.5 96.833 -32.5 161.499c0 48.667 9.5 96.167 28.5 142.5c19 46.3359 46.667 87.5029 83 123.501
c36.333 36 81.166 65.5 134.499 88.5s114.666 35.833 183.999 38.5l10 144c1.33301 12.667 6.33301 24 15 34c8.66797 10 20.335 15 35 15h66l-14 -198c70 -8.66699 130.333 -26.667 180.999 -54c50.667 -27.333 96 -60.333 136 -99l-43 -66
c-13.334 -20 -28.667 -30 -45.999 -30c-9.33301 0.0185547 -20.833 4.18555 -34.5 12.501l-49.5 29.001c-19.334 11 -41.667 22 -67 33s-54.333 18.833 -87 23.5l-33 -484c48 -14.667 95.333 -30.667 141.999 -48c46.667 -17.334 88.667 -39.667 126 -67
c37.333 -27.334 67.5 -61.501 90.5 -102.5c23 -41 34.5 -92.167 34.5 -153.5c0 -60 -10 -116.333 -30 -169c-20.001 -52.667 -49.168 -99 -87.5 -139c-38.333 -40 -85.333 -72.5 -141 -97.5s-119.167 -39.5 -190.5 -43.5l-12 -176
c-1.33789 -12.667 -6.50488 -23.834 -15.5 -33.501c-9 -9.66699 -20.5 -14.5 -34.5 -14.5h-66zM818 406.999c-0.00390625 33.334 -6.16699 62 -18.4971 86c-12.335 24 -29.168 44.667 -50.5 62c-21.333 17.333 -46.333 32.333 -75 45
c-28.667 12.668 -59.334 24.335 -92.001 35l-34 -498c43.333 4 81.833 13.5 115.5 28.5s62 34.167 84.999 57.5c23.002 23.333 40.335 50.5 52 81.5c11.6699 31 17.5029 65.167 17.499 102.5zM263.004 1071c0.000976562 -32 5.66602 -59.832 16.999 -83.499
c11.334 -23.667 27.001 -44.5 47.001 -62.5c20 -18.0029 43.333 -33.6699 70 -47.001c26.667 -13.333 55.667 -25.333 87 -36l30 451c-43.334 -4 -80.834 -12.667 -112.5 -26c-31.667 -13.333 -57.667 -30 -78 -50s-35.5 -42.5 -45.5 -67.5s-15 -51.167 -15 -78.5z" />
    <glyph glyph-name="percent" unicode="%" horiz-adv-x="1531" 
d="M688.999 1087c-0.00390625 -56.001 -8.6709 -106.168 -26 -150.501c-17.334 -44.334 -40.501 -81.667 -69.5 -111.999c-29 -30.334 -62.833 -53.501 -101.5 -69.5c-38.667 -16 -79 -24 -121 -24c-45.333 0 -87.166 8 -125.499 24s-71.833 39.167 -100.5 69.5
s-51 67.666 -67 111.999s-24 94.5 -24 150.5c0 57.333 8 108.333 24 153s38.333 82.334 67 113.001s62.167 54 100.5 70c38.334 16 80.167 24 125.5 24c44.667 0 86.5 -8 125.5 -24c39 -16.0029 72.667 -39.3359 101 -70c28.333 -30.6689 50.666 -68.3359 66.999 -113
c16.333 -44.667 24.5 -95.667 24.5 -153zM549.999 1087c-0.00390625 44 -4.67285 81.3311 -14.002 111.998c-9.33398 30.667 -22.167 55.834 -38.499 75.501c-16.333 19.667 -35.333 33.834 -57 42.501s-44.834 13 -69.5 13
c-24.667 -0.0302734 -47.834 -4.36328 -69.5 -12.999c-21.667 -8.67188 -40.5 -22.8389 -56.5 -42.501c-16 -19.6689 -28.5 -44.8359 -37.5 -75.5c-9 -30.6699 -13.5 -68.0029 -13.5 -112c0 -43.333 4.5 -80.166 13.5 -110.499c9 -30.334 21.5 -55.001 37.5 -74
c16 -19.002 34.833 -32.6689 56.5 -41.001c21.667 -8.33984 44.834 -12.5068 69.501 -12.5c24.667 0 47.834 4.16699 69.501 12.5s40.667 22 57 41s29.166 43.667 38.499 74c9.33301 30.335 14 67.168 14 110.5zM1190 1397c8.66699 11.3438 17.833 20.1768 27.5 26.499
c9.66699 6.35547 22.5 9.52246 38.5 9.50098h128l-1047 -1404c-6.66699 -8.66699 -14.667 -15.667 -24 -21s-20.333 -8 -33 -8h-132zM1481 337.998c0 -56 -8.66992 -105.998 -26.0029 -149.998s-40.5 -81.167 -69.5 -111.5s-62.667 -53.5 -101 -69.5s-78.5 -24 -120.5 -24
c-45.333 0 -87.166 8 -125.499 24s-71.833 39.167 -100.5 69.5s-51 67.5 -67 111.5s-24 94 -24 150c0 57.333 8 108.5 24 153.5c16.001 45 38.334 82.833 67 113.499c28.667 30.667 62.167 54 100.5 69.999c38.3379 16 80.1709 24 125.5 24c44.667 0 86.334 -8 125.001 -24
s72.334 -39.333 101.001 -70s51 -68.5 67 -113.5s24 -96.167 24 -153.5zM1342.99 338c0 44 -4.66992 81.5 -14.0029 112.5s-22.166 56.167 -38.499 75.5s-35.333 33.333 -57 42c-21.6709 8.6709 -44.8379 13.0039 -69.5 13c-24.6689 0 -47.8359 -4.33301 -69.5 -13
c-21.6729 -8.66699 -40.5059 -22.667 -56.5 -42c-16 -19.333 -28.5 -44.5 -37.5 -75.5s-13.5 -68.5 -13.5 -112.5c0 -43.333 4.5 -80 13.5 -110s21.5 -54.5 37.5 -73.5s34.833 -32.667 56.5 -41s44.834 -12.5 69.501 -12.5s47.834 4.16699 69.501 12.5s40.667 22 57 41
c16.3389 19 29.1719 43.5 38.5 73.5c9.36426 30 14.0312 66.667 14 110z" />
    <glyph glyph-name="ampersand" unicode="&#x26;" horiz-adv-x="1401" 
d="M629.001 1449c52.667 0 100.666 -8.50586 143.999 -25.5059s80.833 -39.5 112.5 -67.5s56.667 -60.5 75 -97.5s28.833 -75.5 31.5 -115.5l-111 -22c-3.33301 -0.701172 -6.33301 -1.03418 -9 -1c-8.66699 0 -16.834 2.33301 -24.501 7s-13.167 13 -16.5 25
c-4.66699 17.333 -12.167 35.333 -22.5 54c-10.335 18.667 -23.668 35.667 -40 51c-16.3359 15.3379 -36.0029 28.0049 -59.001 38c-23 10 -49.833 15 -80.5 15c-33.333 -0.00976562 -63.333 -5.34277 -90 -15.999c-26.667 -10.6738 -49.5 -25.5068 -68.5 -44.499
c-19 -19.002 -33.667 -41.335 -44 -66.999c-10.333 -25.6689 -15.5 -53.502 -15.5 -83.5c0 -23.333 2.83301 -45.666 8.5 -66.999s14.167 -42.833 25.5 -64.5c11.334 -21.667 26.001 -44 44 -67c18 -23.001 39.667 -47.168 65 -72.501l412 -419
c25.333 44.667 45.5 91.5 60.5 140.5c15.0078 49 25.1748 98.167 30.5 147.5c1.33301 12.667 5.33301 22.667 12 30s16 11 28 11h110c-1.33301 -76.667 -13.666 -152 -36.999 -226s-57 -143.333 -101 -208l300 -304h-172c-19.333 0 -35 2.33301 -47 7
c-12.0049 4.66699 -25.3379 14.334 -40 29.001l-144 145c-62.667 -60.667 -134.834 -108.667 -216.501 -144s-171.5 -53 -269.5 -53c-53.333 0 -105.666 9 -156.999 27s-97.166 44.167 -137.499 78.5s-72.833 76.166 -97.5 125.499s-37 105 -37 167
c0 46.667 7.83301 90.834 23.5 132.501s37.334 80.167 65.001 115.5s60.5 67 98.5 95s79.667 52 125 72c-40.667 51.333 -70.667 101.333 -90 150s-29 99 -29 150.999c0 48.667 8.83301 94.334 26.5 137.001s43.167 79.834 76.5 111.501s73.833 56.667 121.5 75
c47.667 18.3447 101.167 27.5117 160.5 27.501zM232 395.994c0 -43.333 8.00195 -81.499 24.002 -114.499s37 -60.833 63 -83.5s55.667 -39.834 89 -51.501s67.333 -17.5 102 -17.5c74.667 0 141.667 13.667 201 41s111.666 63.666 156.999 108.999l-423 427
c-70.667 -38 -123.834 -83.5 -159.501 -136.5s-53.5 -110.833 -53.5 -173.499z" />
    <glyph glyph-name="quotesingle" unicode="'" horiz-adv-x="328" 
d="M242 1433v-290l-16 -155c-2 -21.333 -7.66699 -37.833 -17 -49.5s-24.333 -17.5 -45 -17.5c-17.333 0.00390625 -30.833 5.83691 -40.5 17.5c-9.66699 11.667 -16.5 28.167 -20.5 49.5l-16 155v290h155z" />
    <glyph glyph-name="parenleft" unicode="(" horiz-adv-x="480" 
d="M218 629c0 -142.667 18.333 -281.167 55 -415.5s89.667 -262.5 159 -384.5c4.00195 -7.33301 6.66895 -13.666 8 -19c1.33301 -5.33301 2 -10.666 2 -16c-0.00585938 -9.33301 -2.33887 -17 -7 -23c-4.66699 -6 -10.667 -11.333 -18 -16l-79 -48
c-50 76.667 -92.5 152.667 -127.5 228s-63.333 151 -85 227s-37.5 152.5 -47.5 229.5s-15 156.167 -15 237.5c0 80.667 5 159.667 15 237s25.833 153.833 47.5 229.5s50 151.167 85 226.5c35 75.335 77.5 151.668 127.5 229l79 -49
c7.33301 -4.67773 13.333 -10.0107 18 -15.999c4.66699 -6 7 -13.667 7 -23c-0.00195312 -10.0059 -3.33496 -21.3389 -10 -34c-70 -121.333 -123.167 -249.333 -159.5 -384s-54.5 -273.334 -54.5 -416.001z" />
    <glyph glyph-name="parenright" unicode=")" horiz-adv-x="481" 
d="M265 629c0 142.667 -18.167 281.334 -54.5 416.001s-89.5 262.667 -159.5 384c-6.66699 12.667 -10 24 -10 34c0 9.35059 2.33301 17.0176 7 23.001c4.66699 6 10.667 11.333 18 16l79 49c50 -77.333 92.5 -153.666 127.5 -228.999s63.333 -150.833 85 -226.5
s37.5 -152.167 47.5 -229.5s15 -156.333 15 -237c0 -81.333 -5 -160.5 -15 -237.5c-10.001 -77 -25.834 -153.5 -47.5 -229.5c-21.667 -76 -50 -151.667 -85 -227s-77.5 -151.333 -127.5 -228l-79 48c-7.33301 4.66602 -13.333 9.99902 -18 15.999s-7 13.667 -7 23
c0 5.33301 0.666992 10.666 2 15.999s4 11.666 8 18.999c69.333 122 122.333 250.167 159 384.5s55 272.833 55 415.5z" />
    <glyph glyph-name="asterisk" unicode="*" horiz-adv-x="736" 
d="M323.001 863l-0.00195312 196.999c0 12.667 0.833008 24.667 2.5 36s4.83398 22.333 9.50098 33c-13.333 -16.667 -31 -31.667 -53 -45l-172 -99l-44 75l172 100c24 14 48.333 22 73 24c-13.333 1.33301 -25.833 3.83301 -37.5 7.5s-23.5 9.5 -35.5 17.5l-173 101l44 75
l173 -100c23.333 -13.333 42.333 -30.666 57 -51.999c-6 12.0049 -10.167 24.1719 -12.5 36.501c-2.33301 12.3379 -3.5 25.1709 -3.5 38.499v198h88v-197c0 -27.333 -4.66699 -51.333 -14 -72c7.33398 10.0146 15.501 18.6816 24.5 26.001
c9.00098 7.34277 19.168 14.6758 30.5 21.999l172 99l44 -75l-172 -100c-11.334 -7.33301 -22.501 -13 -33.5 -17c-11 -4 -22.5 -6.66699 -34.5 -8c12 -1.33301 23.5 -3.83301 34.5 -7.5s22.167 -9.16699 33.5 -16.5l173 -101l-44 -75l-173 100
c-12 7.3418 -22.667 14.6748 -32 22c-9.33301 7.33301 -17.666 16.333 -24.999 27c10.667 -22 16 -46 16 -72v-198h-88z" />
    <glyph glyph-name="plus" unicode="+" horiz-adv-x="1069" 
d="M606 1166v-427h407v-135h-407v-430h-146v430h-405v135h405v427h146z" />
    <glyph glyph-name="comma" unicode="," horiz-adv-x="417" 
d="M92 123c0 15.333 2.83105 29.835 8.49805 43.502s13.667 25.667 24 36s22.833 18.5 37.5 24.5s30.667 9 48 9c20 0 37.833 -3.66699 53.5 -11c15.667 -7.33398 28.667 -17.501 39 -30.501c10.334 -13 18.167 -28 23.5 -45c5.33496 -17 8.00195 -35.5 8.00098 -55.5
c-0.000976562 -30 -4.33398 -61.167 -12.999 -93.5c-8.66699 -32.333 -21 -64.333 -37 -96s-35.833 -62.5 -59.5 -92.5s-50.5 -57.667 -80.5 -83l-30 29c-8.66699 8 -13 17.333 -13 28c0 8.66699 4.66699 17.667 14 27l25.5 29.499s20.833 26.5 31.5 42.5
s20.5 33.667 29.5 53s15.5 40 19.5 62h-13c-17.333 0 -33 3 -47 9s-26.167 14.5 -36.5 25.5s-18.333 24 -24 39s-8.5 31.5 -8.5 49.5z" />
    <glyph glyph-name="hyphen" unicode="-" horiz-adv-x="683" 
d="M95 675h494v-151h-494v151z" />
    <glyph glyph-name="period" unicode="." horiz-adv-x="422" 
d="M89 110c0 17.333 3.16406 33.666 9.49707 48.999s15 28.666 26 39.999s24.167 20.333 39.5 27s31.666 10 48.999 10s33.666 -3.33301 48.999 -10c15.334 -6.66699 28.667 -15.667 40 -27c11.334 -11.333 20.167 -24.666 26.5 -39.999
c6.33496 -15.333 9.50195 -31.666 9.50098 -48.999c0 -18 -3.16699 -34.5 -9.5 -49.5s-15.166 -28.167 -26.499 -39.5s-24.666 -20.166 -39.999 -26.499s-31.666 -9.5 -48.999 -9.5s-33.666 3.16699 -48.999 9.5s-28.5 15.166 -39.5 26.499s-19.667 24.5 -26 39.5
s-9.5 31.5 -9.5 49.5z" />
    <glyph glyph-name="slash" unicode="/" horiz-adv-x="841" 
d="M206 -21c-9.33301 -23.333 -23.168 -40.667 -41.501 -52s-37.166 -17 -56.499 -17h-75l601 1497c8.66797 21.3359 21.001 37.6689 37 49c16 11.3447 35 17.0117 57 17h75z" />
    <glyph glyph-name="zero" unicode="0" horiz-adv-x="1179" 
d="M1110 716c0 -125.334 -13.4971 -233.836 -40.4971 -325.502c-27 -91.667 -63.833 -167.5 -110.5 -227.5s-101.834 -104.667 -165.501 -134s-131.834 -44 -204.501 -44c-73.333 0 -141.5 14.667 -204.5 44s-117.833 74 -164.5 134s-83.334 135.833 -110.001 227.5
s-40 200.167 -40 325.5s13.333 234 40 326c26.667 92.002 63.334 168.169 110.001 228.501c46.667 60.3359 101.5 105.169 164.5 134.5c63 29.3418 131.167 44.0088 204.5 44c72.667 0 140.834 -14.667 204.5 -44c63.667 -29.333 118.834 -74.166 165.5 -134.499
c46.668 -60.333 83.501 -136.5 110.499 -228.5c27 -92 40.5 -200.667 40.5 -326zM925.003 715.998c-0.00488281 109.333 -9.17188 201.165 -27.5 275.498c-18.334 74.335 -43.001 134.168 -74 179.5c-31 45.333 -66.833 77.833 -107.5 97.5s-83 29.5 -127 29.5
c-44 -0.0146484 -86.333 -9.84766 -126.999 -29.499c-40.667 -19.667 -76.334 -52.167 -107.001 -97.5s-55.167 -105.166 -73.5 -179.499c-18.334 -74.334 -27.501 -166.167 -27.501 -275.5s9.16699 -201 27.5 -275s42.833 -133.667 73.5 -179s66.334 -77.833 107.001 -97.5
s83 -29.5 127 -29.5c44.001 0 86.334 9.83301 127 29.5c40.668 19.667 76.501 52.167 107.5 97.5c31 45.333 55.667 105 74 179s27.5 165.667 27.5 275z" />
    <glyph glyph-name="one" unicode="1" horiz-adv-x="931" 
d="M863 115c18.6719 -4 28.0049 -15.668 28 -35.001v-80h-768v59v21c0 19.333 9.33301 31 28 35l280 21v977c0 29.3369 1 59.0039 3 89.001l-256 -219c-12.667 -10 -24.667 -15 -36 -15c-22 0.00390625 -38 7.33691 -48 22l-56 77l426 369h145v-1300
c158 -12 242.667 -19 254 -21z" />
    <glyph glyph-name="two" unicode="2" horiz-adv-x="1063" 
d="M1003.32 123.506v-123.021h-954.324v61.0078c0 12.6543 2.51074 25.6484 7.50098 39.0098c5.00977 13.2891 13.167 25.6465 24.499 36.9805l459.021 460.998c37.9844 38.6602 72.6289 75.8359 103.974 111.504c31.3242 35.6582 58.1396 71.502 80.498 107.508
c22.3066 35.9961 39.4805 72.4961 51.4893 109.506c11.999 36.9805 17.9932 76.4824 17.9932 118.494c0 41.959 -6.65039 78.8164 -19.9814 110.488c-13.3613 31.6738 -31.6924 57.8125 -55.0039 78.5c-23.3418 20.6582 -50.6592 36.1504 -81.9941 46.5098
c-31.3438 10.3086 -64.9844 15.4824 -101.012 15.4824c-35.9863 0 -69.3291 -5.32812 -99.9863 -15.9941c-30.6689 -10.6777 -57.8428 -25.5137 -81.5029 -44.5117c-23.6494 -18.998 -43.6504 -41.4883 -59.9941 -67.5059
c-16.333 -26.0059 -27.8398 -54.6543 -34.4795 -85.9883c-5.36914 -19.3359 -13.3721 -33.3438 -24.0186 -42.002c-10.667 -8.67969 -24.6738 -13.0039 -42.001 -13.0039c-3.34082 0 -6.83496 0.154297 -10.4824 0.513672
c-3.68848 0.316406 -7.85938 0.830078 -12.5117 1.49609l-93.0088 16.0039c9.33496 65.3027 27.3281 123.156 54.0107 173.498c26.6514 50.3105 60.4961 92.4961 101.503 126.494c40.9971 34.0098 87.9883 59.8105 140.994 77.4961
c52.9961 17.666 110.152 26.4883 171.489 26.4883c60.6602 0 117.324 -8.98633 170.013 -26.9902c52.6367 -18.0039 98.1533 -44.1426 136.485 -78.4785c38.3125 -34.3691 68.499 -76.1855 90.4883 -125.523c22.0312 -49.3379 33.0156 -105.336 33.0156 -168.004
c0 -53.334 -8.00293 -102.662 -23.998 -147.992c-16.0156 -45.3105 -37.6973 -88.8496 -65.0156 -130.492c-27.3379 -41.6836 -58.8564 -81.9941 -94.5049 -121.014l-113.492 -119.486l-376.996 -385.992c26.6523 7.32617 53.6523 13.1367 81 17.4805
c27.3184 4.3457 53.6416 6.50781 79.002 6.50781h392.51c4.63184 56.0801 9.22168 107.988 10.708 115.398c3.91406 19.6523 21.5684 34.1309 41.4062 34.1309h96.708v-164.213v-31.2832z" />
    <glyph glyph-name="three" unicode="3" horiz-adv-x="1060" 
d="M551.994 1449c60.667 0 116.675 -8.66992 168.008 -26.0029s95.5 -42 132.5 -74c37.001 -32 65.834 -70.667 86.499 -116c20.667 -45.333 31 -95.666 31 -150.999c-0.0078125 -45.333 -5.84082 -85.833 -17.499 -121.5c-11.667 -35.667 -28.334 -67 -50.001 -94
s-47.834 -49.833 -78.501 -68.5s-65 -33.667 -103 -45c93.333 -24.667 163.5 -66 210.5 -124s70.5 -130.667 70.5 -218c0 -66 -12.5 -125.333 -37.5 -178c-25.001 -52.667 -59.168 -97.5 -102.5 -134.5c-43.333 -37 -93.833 -65.333 -151.5 -85s-119.5 -29.5 -185.5 -29.5
c-76 0 -141 9.5 -195 28.5s-99.667 45.167 -137 78.5s-68 72.833 -92 118.5s-44.333 95.167 -61 148.5l76 32c14 6 28 9 42 9c13.333 -0.00195312 25.166 -2.83496 35.499 -8.5c10.334 -5.66797 18.167 -14.501 23.5 -26.5c1.3418 -2.66797 2.6748 -5.50098 3.99902 -8.5
c1.3418 -3 2.6748 -6.16699 3.99902 -9.5c9.33398 -19.333 20.667 -41.166 34 -65.499s31.333 -47.166 54 -68.499s50.834 -39.333 84.501 -54s75.5 -22 125.5 -22s93.833 8.16699 131.499 24.5c37.668 16.333 69.001 37.5 94 63.5c25.002 26 43.835 55 56.5 87
c12.6699 32 19.0029 63.667 19 95c-0.00683594 38.667 -5.17383 74 -15.5 106c-10.335 32 -29.002 59.667 -56 83c-27 23.333 -64.333 41.666 -112 54.999s-108.834 20 -183.501 20v129c60.667 0.669922 112.5 7.33691 155.5 20.001c43 12.668 78.167 30.001 105.5 51.999
c27.333 22.001 47.166 48.334 59.499 79c12.333 30.667 18.5 64.667 18.5 102c0 41.333 -6.5 77.333 -19.5 108s-30.833 56 -53.5 76s-49.5 35 -80.5 45s-64.5 15 -100.5 15c-36 -0.00976562 -69.333 -5.34277 -100 -15.999c-30.667 -10.6719 -57.834 -25.5049 -81.5 -44.5
c-23.667 -19 -43.5 -41.667 -59.5 -68s-28 -54.833 -36 -85.5c-5.33301 -19.333 -13.333 -33.333 -24 -42c-10.667 -8.68262 -24.334 -13.0156 -41 -13c-3.33301 0.03125 -6.83301 0.198242 -10.5 0.5c-3.66699 0.333008 -7.83398 0.833008 -12.501 1.5l-93 16
c9.33301 65.334 27.333 123.167 54 173.5c26.667 50.3369 60.5 92.5039 101.5 126.5c41 34 88 59.833 141 77.5s110.167 26.5 171.5 26.5z" />
    <glyph glyph-name="four" unicode="4" horiz-adv-x="1169" 
d="M910 517h217v-102c0 -10.667 -3.16699 -19.667 -9.5 -27s-16.166 -11 -29.499 -11h-178v-377h-157v377h-635c-13.333 0 -24.833 3.83301 -34.5 11.5s-15.834 17.167 -18.501 28.5l-18 91l697 925h166v-916zM753 1108c0 17.3379 0.5 36.0029 1.5 55.999
c1 20.0049 3.16699 40.6719 6.5 62.001l-521 -709h513v591z" />
    <glyph glyph-name="five" unicode="5" horiz-adv-x="1015" 
d="M911 1355c0 -25.333 -7.99902 -46.1641 -23.999 -62.4971s-43 -24.5 -81 -24.5h-450l-66 -376c74.667 16 143.667 24 207 24c74.667 0 140.5 -11 197.5 -33s104.833 -52.333 143.499 -91c38.667 -38.667 67.834 -84.334 87.5 -137.001
c19.6709 -52.667 29.5039 -110 29.5 -172c0 -76 -13.333 -144.667 -40 -206s-63.167 -113.833 -109.5 -157.5s-100.833 -77.167 -163.5 -100.5s-130.334 -35 -203.001 -35c-42 0 -82.333 4.16699 -120.999 12.5c-38.667 8.33301 -74.667 19.5 -108 33.5s-64.333 30 -93 48
s-54 37 -76 57l54 76c12 17.333 28 26 48 26c12.667 0 27.5 -5.16699 44.5 -15.5s37.5 -21.833 61.5 -34.5s52.167 -24.167 84.5 -34.5c32.333 -10.334 70.833 -15.501 115.5 -15.501c50 0 95 8 135 24s74.167 38.833 102.5 68.5s50.166 65.167 65.499 106.5
s23 87.666 23 138.999c0 44.667 -6.5 85 -19.5 121c-13.002 36 -32.6689 66.667 -59 92c-26.334 25.333 -59.167 45 -98.5 59s-85.333 21 -138 21c-36 0 -73.333 -3 -111.999 -9c-38.667 -6.00293 -78.667 -15.6699 -120 -29l-112 33l116 670h679v-78z" />
    <glyph glyph-name="six" unicode="6" horiz-adv-x="1075" 
d="M598 878c57.333 0 111.665 -9.49805 162.998 -28.498c51.333 -19.001 96.333 -46.668 135 -83c38.668 -36.334 69.335 -81.001 92.001 -134.001c22.667 -53 34 -113.5 34 -181.5c0 -66 -12 -127.333 -36 -184s-57.5 -106 -100.5 -148s-94.833 -75 -155.5 -99
s-127.334 -36 -200.001 -36c-72 0 -137.167 11.5 -195.5 34.5s-108.166 55.667 -149.499 98s-73.166 93.666 -95.499 153.999s-33.5 127.833 -33.5 202.5c0 62.667 14 129.334 42 200c28 70.667 72.333 146.667 133 228l363 489c9.33301 12.0156 22.333 22.1826 39 30.5
c16.667 8.36621 35.667 12.5332 57 12.5h158l-497 -629c34 23.333 71.667 41.5 113 54.5s86 19.5 134 19.5zM227.999 442.002c0.000976562 -46 6.66895 -87.999 20.002 -125.999s32.833 -70.667 58.5 -98s57 -48.5 94 -63.5s79.167 -22.5 126.5 -22.5
c48 0 91.333 7.66699 129.999 23c38.667 15.333 71.834 36.666 99.5 63.999c27.668 27.333 49.001 59.666 64 96.999c15 37.334 22.5 78.001 22.5 122.001c0 46.667 -7.33301 88.834 -22 126.5c-14.667 37.667 -35.334 69.667 -62.001 96s-58.667 46.5 -96 60.5
s-78.333 21 -123 21c-48 -0.00390625 -91.333 -8.1709 -130 -24.5c-38.667 -16.333 -71.5 -38.333 -98.5 -66s-47.667 -59.667 -62 -96c-14.333 -36.334 -21.5 -74.167 -21.5 -113.5z" />
    <glyph glyph-name="seven" unicode="7" horiz-adv-x="1086" 
d="M62 1433h974.002v-80c0 -33.333 -7.66699 -64.333 -23 -93l-593 -1197c-21.333 -42 -54 -63 -98 -63h-127l602 1182c18.667 35.3369 37.667 64.0039 57 86h-640c-7.33398 -91.333 -12.001 -141.333 -14.001 -150c-4.66699 -22.6709 -18.334 -34.0039 -41.001 -34h-97v349
z" />
    <glyph glyph-name="eight" unicode="8" horiz-adv-x="1075" 
d="M539 -16c-71.333 0 -136.667 9.49805 -196 28.498s-110.333 46.167 -153 81.5s-75.667 78.166 -99 128.499s-35 106.833 -35 169.5c0 92 24 167.833 72 227.499c48 59.667 116.667 102.167 206 127.5c-75.333 28.001 -132.166 69.834 -170.499 125.5
c-38.333 55.667 -57.5 122.167 -57.5 199.5c0 52.667 10.333 102 31 148s50 86 88 120c38 34.0029 83.5 60.6699 136.5 80.001c53 19.3447 112.167 29.0117 177.5 29.001c64.667 0 123.667 -9.66699 177 -29s99 -46 137 -80c38.001 -34 67.334 -74 87.999 -120
c20.6729 -46.001 31.0059 -95.334 31 -147.999c0 -77.333 -19.333 -143.833 -58 -199.5s-95.334 -97.5 -170.001 -125.5c89.333 -25.333 158 -67.833 206 -127.5s72 -135.5 72 -227.5c-0.00390625 -62.667 -11.8369 -119.167 -35.499 -169.5
c-23.667 -50.333 -56.667 -93.166 -99 -128.499c-42.334 -35.333 -93.167 -62.5 -152.5 -81.5c-59.334 -19 -124.667 -28.5 -196 -28.5zM538.999 125.998c46.668 0 88.498 6.5 125.497 19.5c37.001 13 68.334 31.333 94 55c25.668 23.667 45.335 52 59.001 85
c13.6699 33 20.5029 69.5 20.5 109.5c-0.00292969 49.333 -8.16992 91.5 -24.5 126.5c-16.333 35 -38.333 63.5 -66 85.5s-59.5 38.167 -95.5 48.5c-36.001 10.333 -73.668 15.5 -113 15.5c-39.334 -0.00488281 -77.001 -5.17188 -113 -15.5
c-36 -10.335 -67.833 -26.502 -95.499 -48.5c-27.667 -22 -49.667 -50.5 -66 -85.5s-24.5 -77.167 -24.5 -126.5c0 -40 6.83301 -76.5 20.5 -109.5s33.334 -61.333 59.001 -85s57 -42 94 -55s78.833 -19.5 125.5 -19.5zM538.996 813.998
c46.668 0 86.5 7.16309 119.499 21.4961c33.001 14.333 59.834 33.333 80.5 57c20.667 23.6689 35.667 50.8359 45 81.501c9.33301 30.667 14 62.334 14 95.001c0 33.3359 -5.5 64.6689 -16.5 94c-11 29.3359 -27.333 55.0029 -49 77.001c-21.667 22 -48.667 39.333 -81 52
s-69.833 19 -112.5 19c-42.667 -0.00976562 -80.167 -6.34277 -112.5 -18.999c-32.333 -12.6719 -59.333 -30.0049 -81 -52c-21.667 -22 -38 -47.667 -48.999 -77c-11 -29.333 -16.5 -60.666 -16.5 -93.999c0.000976562 -32.668 4.66797 -64.335 14 -95
c9.33301 -30.667 24.333 -57.834 45 -81.501s47.5 -42.667 80.5 -57c33 -14.3379 72.833 -21.5049 119.5 -21.5z" />
    <glyph glyph-name="nine" unicode="9" horiz-adv-x="1045" 
d="M456.998 588c-54 0 -105.164 9.00488 -153.497 27.0049s-90.833 44.5 -127.5 79.5s-65.834 78 -87.501 129s-32.5 109.5 -32.5 175.5c0 62.667 11.667 121.334 35 176.001s56 102.334 98 143.001s92 72.667 150 96c58 23.3389 121.667 35.0059 191 35
c68.667 -0.00585938 131 -11.3389 187 -34c56 -22.6689 104 -54.3359 144 -95c40.001 -40.668 70.834 -89.335 92.499 -146c21.667 -56.668 32.5 -119.335 32.5 -188.001c-0.0166016 -41.334 -3.84961 -80.501 -11.5 -117.5
c-7.6709 -37.001 -18.8379 -73.168 -33.501 -108.501c-14.667 -35.334 -32.167 -70.501 -52.5 -105.5c-20.334 -35.001 -43.501 -71.168 -69.5 -108.501l-349 -504c-8.66699 -12.667 -21 -22.834 -37 -30.501c-16.001 -7.66699 -34.334 -11.5 -55 -11.5h-164l436 571
l41 54.999c12.667 17.333 24.667 34.666 36 51.999c-36.667 -29.335 -78 -51.668 -124 -67c-46 -15.3369 -94.667 -23.0039 -146 -23.001zM815.001 1007c-0.00390625 44.667 -7.16992 85.1689 -21.5 121.502c-14.334 36.3359 -34.167 67.1689 -59.499 92.5
c-25.334 25.333 -55.501 44.833 -90.5 58.5c-35 13.667 -73.5 20.5 -115.5 20.5c-44.001 0 -84.168 -7.16699 -120.501 -21.5s-67.333 -34.166 -93 -59.499s-45.5 -55.666 -59.5 -90.999s-21 -74 -21 -116c0 -45.333 6.5 -85.833 19.5 -121.5s31.667 -65.834 56 -90.501
c24.334 -24.667 54.001 -43.334 89.001 -56.001s74.167 -19 117.5 -19c48 0.00292969 90.5 7.83594 127.5 23.5c37 15.668 68.167 36.501 93.5 62.499c25.333 26 44.666 56 57.999 90c13.333 34.001 20 69.334 20 105.999z" />
    <glyph glyph-name="colon" unicode=":" horiz-adv-x="414" 
d="M85.0029 110c0 17.333 3.16406 33.666 9.49707 48.999s15 28.666 26 39.999s24.167 20.333 39.5 27s31.666 10 48.999 10c17.334 0 33.667 -3.33301 49 -10c15.334 -6.66699 28.667 -15.667 40 -27c11.334 -11.333 20.167 -24.666 26.5 -39.999
c6.33496 -15.333 9.50195 -31.666 9.50098 -48.999c0 -18 -3.16699 -34.5 -9.5 -49.5s-15.166 -28.167 -26.499 -39.5s-24.666 -20.166 -39.999 -26.499s-31.666 -9.5 -48.999 -9.5s-33.666 3.16699 -48.999 9.5s-28.5 15.166 -39.5 26.499s-19.667 24.5 -26 39.5
c-6.33398 15 -9.50098 31.5 -9.50098 49.5zM85 860c0 17.333 3.16406 33.6709 9.49707 49.0039s15 28.666 26 39.999s24.167 20.333 39.5 27c15.333 6.67383 31.666 10.0068 48.999 9.99902c17.334 0 33.667 -3.33301 49 -10c15.334 -6.66699 28.667 -15.667 40 -27
c11.334 -11.335 20.167 -24.668 26.5 -40c6.33496 -15.335 9.50195 -31.668 9.50098 -49c0 -18 -3.16699 -34.5 -9.5 -49.5c-6.33301 -15.002 -15.166 -28.1689 -26.499 -39.501c-11.333 -11.335 -24.666 -20.168 -39.999 -26.5
c-15.333 -6.33887 -31.666 -9.50586 -48.999 -9.5c-17.333 0 -33.666 3.16699 -48.999 9.5s-28.5 15.166 -39.5 26.499s-19.667 24.5 -26 39.5c-6.33398 15 -9.50098 31.5 -9.50098 49.5z" />
    <glyph glyph-name="semicolon" unicode=";" horiz-adv-x="413" 
d="M91.002 123c0 15.333 2.83105 29.835 8.49707 43.502c5.66699 13.667 13.667 25.667 24 36s22.833 18.5 37.5 24.5s30.667 9 48 9c20 0 37.833 -3.66699 53.5 -11c15.667 -7.33398 28.667 -17.501 39 -30.501c10.334 -13 18.167 -28 23.5 -45
c5.33496 -17 8.00195 -35.5 8.00098 -55.5c-0.000976562 -30 -4.33398 -61.167 -12.999 -93.5c-8.66699 -32.333 -21 -64.333 -37 -96s-35.833 -62.5 -59.499 -92.5c-23.667 -30 -50.5 -57.667 -80.5 -83l-30 29c-8.66699 8 -13 17.333 -13 28
c0 8.66699 4.66699 17.667 14 27l25.5 29.499s20.833 26.5 31.5 42.5s20.5 33.667 29.5 53s15.5 40 19.5 62h-13c-17.333 0 -33 3 -47 9s-26.167 14.5 -36.5 25.5s-18.333 24 -24 39s-8.5 31.5 -8.5 49.5zM85 860.002c0 17.333 3.16406 33.6709 9.49707 49.0039
s15 28.666 26 39.999s24.167 20.333 39.5 27c15.333 6.67383 31.666 10.0068 48.999 9.99902c17.334 0 33.667 -3.33301 49 -10c15.334 -6.66699 28.667 -15.667 40 -27c11.334 -11.335 20.167 -24.668 26.5 -40c6.33496 -15.335 9.50195 -31.668 9.50098 -49
c0 -18 -3.16699 -34.5 -9.5 -49.5c-6.33301 -15.002 -15.166 -28.1689 -26.499 -39.501c-11.333 -11.335 -24.666 -20.168 -39.999 -26.5c-15.333 -6.33887 -31.666 -9.50586 -48.999 -9.5c-17.333 0 -33.666 3.16699 -48.999 9.5s-28.5 15.166 -39.5 26.499
s-19.667 24.5 -26 39.5c-6.33398 15 -9.50098 31.5 -9.50098 49.5z" />
    <glyph glyph-name="less" unicode="&#x3c;" horiz-adv-x="909" 
d="M61 710l773.999 401v-127c-0.00683594 -11.3408 -2.67383 -21.1738 -8 -29.5c-5.33984 -8.33301 -14.6729 -15.833 -27.999 -22.5l-449 -228c-13.333 -7.33594 -27.5 -13.5029 -42.5 -18.5c-15 -5 -30.833 -9.5 -47.499 -13.5c16.667 -3.33887 32.5 -7.67188 47.5 -13
c15 -5.33301 29.167 -11.333 42.5 -18l449 -227c13.333 -6.66699 22.666 -14.334 27.999 -23c5.33301 -8.66699 8 -18.334 8 -29v-128l-774 402v74z" />
    <glyph glyph-name="equal" unicode="=" horiz-adv-x="1052" 
d="M97 574h859v-135h-859v135zM97 909h859v-135h-859v135z" />
    <glyph glyph-name="greater" unicode="&#x3e;" horiz-adv-x="911" 
d="M77 234l0.000976562 128c0 10.667 2.66699 20.334 8 29.001c5.33398 8.66699 14.667 16.334 28 23.001l449 227c13.333 6.66699 27.166 12.667 41.499 18s29.833 9.66602 46.5 12.999c-16.667 4 -32.167 8.5 -46.5 13.5c-14.335 5 -28.168 11.167 -41.5 18.5l-449 228
c-13.333 6.66699 -22.666 14.167 -27.999 22.5c-5.33398 8.33301 -8.00098 18.166 -8.00098 29.499v127l773 -401v-74z" />
    <glyph glyph-name="question" unicode="?" horiz-adv-x="822" 
d="M43 1305c20.667 19.3389 43.4961 37.6768 68.4961 55.0049c25 17.3389 52.333 32.6719 82 46c29.667 13.333 61.667 23.833 96 31.5c34.334 7.66699 71.501 11.5 111.501 11.5c52.667 0 101.5 -7.66699 146.5 -23c45.001 -15.333 83.834 -37 116.5 -65
c32.667 -28 58.334 -62 77 -102c18.6699 -40 28.0029 -85 28 -135c0 -50.668 -7.5 -94.335 -22.5 -131.001c-15 -36.667 -34 -68.834 -57 -96.501c-23.001 -27.667 -48.168 -51.667 -75.501 -72l-76.5 -57.501c-23.667 -18 -44 -36 -61 -54
c-17.001 -18 -26.834 -38 -29.499 -60l-18 -153h-122l-12 166v11c0 28.001 7.5 52.834 22.5 74.5c15 21.668 34 42.001 57 60.999c23 19 47.667 38 74 57c26.334 19 51.001 40 74.001 63s42 49.167 57 78.5c15 29.335 22.5 64.002 22.5 104
c-0.00195312 28.667 -5.66895 54.667 -17 78c-11.334 23.3379 -26.667 43.1709 -45.999 59.499c-19.333 16.333 -42.166 28.833 -68.499 37.5s-54.5 13 -84.5 13c-40.667 0 -75.5 -5 -104.5 -15s-53.5 -21 -73.5 -33s-36.167 -23 -48.5 -33s-22.5 -15 -30.5 -15
c-16.667 0.00878906 -29.667 7.67578 -39 23zM238.996 110.005c0 17.333 3.16504 33.666 9.49805 48.999s15 28.666 26 39.999s24.167 20.333 39.5 27c15.334 6.66699 31.667 10 49 10c17.334 0 33.667 -3.33301 49 -10c15.334 -6.66699 28.667 -15.667 40 -27
c11.334 -11.333 20.167 -24.666 26.499 -39.999c6.33496 -15.333 9.50195 -31.666 9.5 -48.999c0 -18 -3.16699 -34.5 -9.5 -49.5s-15.166 -28.167 -26.499 -39.5s-24.666 -20.166 -39.999 -26.499s-31.666 -9.5 -48.999 -9.5s-33.666 3.16699 -48.999 9.5
s-28.5 15.166 -39.5 26.499s-19.667 24.5 -26 39.5c-6.33398 15 -9.50098 31.5 -9.50098 49.5z" />
    <glyph glyph-name="at" unicode="@" horiz-adv-x="1599" 
d="M1142 186c-52.0029 0 -94.3379 12.5039 -127.002 37.5039c-32.667 25 -53.334 63.5 -62.001 115.5c-38.667 -54 -80.667 -92.667 -126 -116c-45.334 -23.333 -94.001 -35 -146.001 -35c-40.001 0 -74.668 6.83301 -104 20.499c-29.333 13.667 -53.833 32.667 -73.5 57
s-34.334 53.166 -44 86.499c-9.66895 33.333 -14.502 69.333 -14.499 108c0 56.667 10.833 113.834 32.5 171.501s53.834 109.667 96.5 156c42.667 46.333 95.834 84.166 159.5 113.499c63.667 29.333 137.167 44 220.5 44c44.667 0 83.834 -3.5 117.501 -10.5
c33.667 -7.00391 65.5 -17.1709 95.5 -30.501l-93 -361c-12.6748 -50 -19.0078 -91.333 -19 -123.999c0 -24.001 3 -43.834 9 -59.5c6.00781 -15.667 14.1748 -28 24.5 -37c10.333 -9 22.333 -15.167 36 -18.5s28.167 -5 43.5 -5c32.667 0 63.667 9.33301 93 28
c29.3359 18.667 55.1689 45 77.5 79c22.3389 34 40.0059 74.833 53.001 122.5c13 47.667 19.5 100.5 19.5 158.5c-0.00585938 92 -14.8389 172.667 -44.5 242c-29.6719 69.334 -70.3389 127.167 -122 173.5c-51.667 46.3369 -112.667 81.0039 -183 104.001
c-70.334 23 -146.167 34.5 -227.5 34.5c-89.334 0 -173.001 -17 -251.001 -51s-146 -81 -204 -141s-103.667 -131 -137 -213c-33.334 -82 -50.001 -171.333 -50.001 -268c0 -113.333 17.833 -212.833 53.499 -298.5c35.667 -85.667 84.334 -157.5 146.001 -215.5
s134 -101.667 217 -131s172.167 -44 267.5 -44c101.333 0 190.833 11 268.5 33s144.834 50 201.501 84c10 6 19 9 27 9c14 0 24.333 -8 31 -24l25 -66c-71.333 -48 -152.5 -85.667 -243.5 -113s-194.167 -41 -309.5 -41s-222.666 18.333 -321.999 55
s-185.5 89.5 -258.5 158.5s-130.333 153.5 -172 253.5s-62.5 213.333 -62.5 340c0 72.667 9.16699 142.667 27.5 210s44.166 130.166 77.499 188.499c33.333 58.334 73.333 111.667 120 159.999c46.667 48.3359 98.667 89.6689 156 124c57.333 34.3359 119 61.0029 185 80
c66 19 135 28.5 207 28.5c61.333 0 121.333 -6.66699 180 -20s114.167 -33 166.5 -59c52.335 -26 100.502 -58.167 144.501 -96.5c44 -38.333 81.833 -82.333 113.5 -132s56.334 -105 74.001 -166c17.667 -61.001 26.5 -127.168 26.5 -198.501
c0 -72 -10.167 -138.5 -30.5 -199.5s-48.333 -113.833 -84 -158.5s-77.667 -79.667 -126 -105s-100.5 -38 -156.5 -38zM715.999 306.004c20.6689 0 41.5039 3.33105 62.502 9.99805c21.002 6.66699 41.335 18.334 60.999 35.001c19.667 16.667 37.667 39.334 54 68.001
s30.166 64.667 41.499 108l76 295c-26 6 -54.333 9 -85 9c-50 0 -95.833 -10.5 -137.5 -31.5s-77.5 -48.5 -107.5 -82.5s-53.5 -73 -70.5 -117s-25.5 -89 -25.5 -135c0 -48 11 -86.5 33 -115.5s54.667 -43.5 98 -43.5z" />
    <glyph glyph-name="A" unicode="A" 
d="M1470 112c17.3447 -4 26.0117 -15 26 -33v-79h-411v79c0 18 9 29.333 27 34l82 23l-112 289h-618l-112 -289l82 -23c18 -4.66699 27 -16 27 -34v-79h-411v79c0 18 8.66699 29 26 33l80 24l519 1297h197l518 -1297zM518 565h510l-212 550c-14.667 36 -29 81 -43 135
c-16 -58.668 -30 -104.001 -42 -136z" />
    <glyph glyph-name="B" unicode="B" horiz-adv-x="1260" 
d="M904 737c211.334 -42 317.001 -151.668 317 -329.001c0 -123.333 -43.667 -221.666 -131 -294.999c-90 -75.333 -214 -113 -372 -113h-651v86c0 20.667 10 33 30 37l114 23v1141c-64 12.667 -102 20.334 -114 23.001c-20 4 -30 16.333 -30 37v86h601
c255.333 -0.00195312 414 -72.335 476 -217c19.3428 -46.6689 29.0098 -93.3359 29 -140c0 -46.668 -5.5 -86.335 -16.5 -119.001c-11 -32.667 -27.5 -63 -49.5 -91c-47.333 -58.667 -115 -101.667 -203 -129zM405 1280l0.000976562 -489h256
c159.333 0 259.333 48.333 300 144.999c12.667 30.668 19 64.001 19 100c0 84.002 -25.333 145.669 -76 185.001c-50.667 39.3379 -129.334 59.0049 -236.001 59h-263zM715.001 153.999c159.333 0 258.333 51.666 297 154.999c12 31.334 18 66.001 18 104.001
c0 74 -26.167 132.5 -78.5 175.5c-52.334 43 -131.501 64.5 -237.5 64.5h-309v-499h310z" />
    <glyph glyph-name="C" unicode="C" horiz-adv-x="1271" 
d="M775 1449c113.333 -0.00292969 260.996 -34.3359 442.996 -103v-112v-222h-97c-22.6709 0.00195312 -36.3379 11.335 -41 34c-2 8 -5 38.333 -9 91c-4.03223 52.667 -6.36523 82.667 -6.99902 90c-298.667 94.667 -523.667 62 -675 -98
c-97.333 -102.667 -146 -240.334 -146 -413c0 -173.333 48 -312 144 -416c90.667 -99.333 208.334 -149 353.001 -149c83.333 0 146.333 8 189 24c65.333 24 124.333 59.333 177 106c11.333 10 22.333 15 33 15c10.667 -0.000976562 20.334 -4.33398 29.001 -13l76 -83
c-124 -144 -296 -216 -516 -216c-205.333 0 -370.666 68 -495.999 204c-124.667 134.667 -187 310.667 -187 528c0 216.667 66.667 393 200 529s310 204 530 204z" />
    <glyph glyph-name="D" unicode="D" horiz-adv-x="1486" 
d="M1435 716c0 -107.333 -16.999 -205.001 -50.999 -293.001s-82 -163.333 -144 -226c-130 -131.333 -300.333 -197 -511 -197h-661v86c0 20.667 10 33 30 37l114 23v1141c-64 12.667 -102 20.334 -114 23.001c-20 4 -30 16.333 -30 37v86h661
c211.333 0 381.666 -65.667 510.999 -197c130 -132.667 195 -306 195 -520zM1236 715.999c0 88 -12 166.667 -36 236s-58 128 -102 176c-90 98.667 -213 148 -369 148h-322v-1119h322c155.333 0 278.333 49.333 369 148c92 99.333 138 236.333 138 411z" />
    <glyph glyph-name="E" unicode="E" horiz-adv-x="1174" 
d="M68 1433l1027 -0.000976562v-346h-96c-23.333 0.00390625 -37.333 11.6709 -42 35c-1.34473 6 -6.01172 57 -14 153h-536v-476h528v-152h-528v-489h537c7.33301 88.667 11.666 136 12.999 142c4.6709 22.667 18.6709 34 42 34h96v-334h-1027v86c0 20.667 10 33 30 37
l114 23v1141c-64 12.667 -102 20.334 -114 23.001c-20 4 -30 16.333 -30 37v86z" />
    <glyph glyph-name="F" unicode="F" horiz-adv-x="1169" 
d="M212 1433l917 -0.000976562v-346h-97c-22.6748 0.00390625 -36.3418 11.6709 -41 35c-1.33301 6 -6 57 -14 153h-570v-501h544v-158h-544v-470l114 -23c20 -4 30 -16.333 30 -37v-86h-483v86c0 20.667 10 33 30 37l114 23v1141c-64 12.667 -102 20.334 -114 23.001
c-20 4 -30 16.333 -30 37v86h144z" />
    <glyph glyph-name="G" unicode="G" horiz-adv-x="1368" 
d="M768 141c130.667 0 249.001 27.998 355.001 83.998v316h-222c-12.667 0 -22.834 3.66699 -30.501 11s-11.5 16.333 -11.5 27v110h440v-550c-143.333 -103.333 -325 -155 -545 -155c-208 0 -378 67.667 -510 203c-132.667 136.667 -199 313 -199 529
c0 220 66 396.667 198 530c134 135.336 312.333 203.003 535 203.001c155.333 -0.00292969 324 -34.3359 506 -103v-334h-96c-23.333 0.00195312 -37.333 11.335 -42 34c-1.33301 10 -6.33301 70.333 -15 181c-31.333 10.0098 -56.666 17.6768 -75.999 23.001
c-75.334 20.667 -161.501 31 -258.501 31s-178.167 -13.167 -243.5 -39.5s-121 -63.833 -167 -112.5c-95.333 -102 -143 -239.667 -143 -413c0 -178.667 49 -319.667 147 -423c96 -101.333 222 -152 378 -152z" />
    <glyph glyph-name="H" unicode="H" horiz-adv-x="1579" 
d="M1487 1310l-114.002 -23v-1141c64.667 -12.667 105 -20.667 121 -24s24 -15.333 24 -36v-86h-484v86c0 20.667 10 33 30 37l114 23v506h-772v-506c96 -19.333 144 -39.333 144 -60v-86h-483v86c0 20.667 10 33 30 37l114 23v1141l-120 24s-24 15.333 -24 36v86h483v-86
c-0.00195312 -20.6719 -7.16895 -32.5049 -21.5 -35.5l-122.499 -24.5v-493h772v493l-120 24s-24 15.333 -24 36v86h484v-86c-0.0175781 -20.6719 -10.3506 -33.0049 -30.999 -37z" />
    <glyph glyph-name="I" unicode="I" horiz-adv-x="611" 
d="M519 1310l-114 -23v-1141c64.667 -12.667 105 -20.667 121 -24s24 -15.333 24 -36v-86h-483v86c0 20.667 10 33 30 37l114 23v1141l-120 24s-24 15.333 -24 36v86h483v-86c0 -20.6719 -10.333 -33.0049 -31 -37z" />
    <glyph glyph-name="J" unicode="J" horiz-adv-x="884" 
d="M237 146c184.667 0 276.999 114.999 276.999 344.999v796c-76.667 12.667 -121 20.334 -133 23.001c-20 4 -30 16.333 -30 37v86h500v-86c0 -20.6719 -10 -33.0049 -30 -37l-114 -23v-792c0 -246 -86 -404.667 -258 -476c-56 -23.333 -118.333 -35 -186.999 -35
c-68.667 0 -138 9.33301 -208 28c6 84.667 13.167 131.167 21.5 139.5s19 12.5 32 12.5s29.5 -3 49.5 -9s46.667 -9 80 -9z" />
    <glyph glyph-name="K" unicode="K" horiz-adv-x="1421" 
d="M1339 118c20 -4 30 -16.332 30 -36.999v-81h-470v80c0.00585938 19.333 9.33887 31 28 35c7.33301 1.33301 38 7.33301 92 18l-415 477c-23.333 25.333 -43.833 39.333 -61.5 42c-17.667 2.67676 -34.5 4.00977 -50.5 4h-88v-510c22 -4.66699 60 -12.334 114 -23.001
c20.6689 -4 31.002 -16.333 31 -37v-86h-482v86c0 20.667 10 33 30 37l114 23v1141c-64 12.667 -102 20.334 -114 23.001c-20 4 -30 16.333 -30 37v86h482v-86c0 -20.6719 -10.333 -33.0049 -31 -37c-60.667 -12.6719 -98.667 -20.3389 -114 -23.001v-482h73
c44.667 0 79 14 102.999 42l401 454l-87 17.001c-18.667 4.00488 -28 15.6719 -28 35v80h451l3 -76c0 -20.6719 -10 -33.0049 -30 -37l-93 -23l-426 -481c-29.334 -32.667 -55.667 -54.334 -79 -65.001c29.333 -9.33301 60.333 -33.333 93 -72l453 -540
c56.0029 -11.333 89.6699 -18.333 101.001 -21z" />
    <glyph glyph-name="L" unicode="L" horiz-adv-x="1140" 
d="M1070.94 311.874v-311.889h-45.6592h-18.1475h-795.839h-144.294v86.3184c0 17.7061 12.9316 33.4756 30.4639 36.959l113.83 22.6562v1141.13l-113.83 22.6553c-17.542 3.4834 -30.4639 19.2529 -30.4639 36.96v86.3174h144.294h193.744h0.256836h144.037v-86.3174
c0 -17.707 -12.9209 -33.4766 -30.4531 -36.96l-113.584 -22.6143v-1124.09h516.996c4.65234 57.1455 8.97559 106.944 10.5332 114.742c3.9043 19.6533 21.5693 34.1211 41.4072 34.1211z" />
    <glyph glyph-name="M" unicode="M" horiz-adv-x="1908" 
d="M374.999 1150c4 -34.6699 6.00098 -67.002 6.00098 -96.999v-907c72 -12 117.167 -19.833 135.5 -23.5s27.5 -15.834 27.5 -36.501v-86h-477v86c0 20.667 10 33 30 37l114 23v1141c-64 12.667 -102 20.334 -114 23.001c-20 4 -30 16.333 -30 37v86h287
c17.334 0 30.667 -1.66699 39.999 -5c9.33301 -3.33301 18.333 -12.666 27 -27.999l495 -882c12 -20 27 -54.667 45 -104c14 38.667 29.333 73.667 46 105l485 881c8.66699 15.3438 17.667 24.6768 27 27.999c9.33984 3.37695 22.6729 5.04395 40 5h288v-86
c-0.0146484 -20.6719 -10.3477 -33.0049 -31 -37c-75.333 -15.333 -113.333 -23 -114 -23v-1141c64.667 -12.667 102.667 -20.334 114 -23.001c20.667 -4 31 -16.333 31 -37v-86h-478v86c0.0107422 20.667 9.67773 33 29 37c19.335 4 64.002 11.667 134 23v907
c0 29.335 1.33301 60.668 4 94l-491 -896c-16.6689 -30 -40.002 -45 -70 -45h-28c-30 0 -53.333 15 -70 45z" />
    <glyph glyph-name="N" unicode="N" horiz-adv-x="1552" 
d="M1209 320c-3.33301 28.667 -5.00195 61.3311 -5.00195 97.998v869c-78.001 13.3438 -122.334 21.0107 -132.999 23.001c-20 4 -30 16.333 -30 37v86h163h170h145v-86c-0.0175781 -20.6719 -10.3506 -33.0049 -30.999 -37l-114 -23v-1287h-98
c-27.333 0 -50.333 11.667 -69 35l-829 1079c2.66699 -34 4 -65 4 -93v-875c78.667 -13.334 123 -21.001 133 -23.001c20 -4 30 -16.333 30 -37v-86h-477v86c0 20.667 10 33 30 37l114 23v1141c-64 12.667 -102 20.334 -114 23.001c-20 4 -30 16.333 -30 37v86h244
c17.334 0 30.167 -2.16699 38.5 -6.5s17.833 -13.166 28.5 -26.499z" />
    <glyph glyph-name="O" unicode="O" horiz-adv-x="1509" 
d="M1458 716c0 -107.334 -17 -205.834 -51 -295.5c-34 -89.667 -82 -166.834 -144 -231.501s-136.5 -114.834 -223.5 -150.501s-183.167 -53.5 -288.5 -53.5s-201.333 17.833 -288 53.5s-161 85.834 -223 150.501s-110 141.834 -144 231.501s-51 188.167 -51 295.5
s17 205.833 51 295.5s82 167 144 232s136.333 115.5 223 151.5s182.667 54 288 54s201.5 -18 288.5 -54s161.5 -86.5 223.5 -151.5c62 -65.002 110 -142.335 144 -232c34 -89.667 51 -188.167 51 -295.5zM1259 716c0 88 -11.999 166.998 -35.999 236.998
c-24 70.002 -58 129.169 -102 177.501c-44.001 48.3359 -97.334 85.5029 -160 111.501c-62.667 26 -132.667 39 -210 39c-76.667 0 -146.334 -13 -209.001 -39s-116.167 -63.167 -160.5 -111.5s-78.5 -107.5 -102.5 -177.5s-36 -149 -36 -237s12 -166.833 36 -236.5
s58.167 -128.667 102.5 -177c44.334 -48.333 97.834 -85.333 160.5 -111c62.667 -25.667 132.334 -38.5 209 -38.5c77.333 0 147.333 12.833 210 38.5s116 62.667 160 111s78 107.333 102 177s36 148.5 36 236.5z" />
    <glyph glyph-name="P" unicode="P" horiz-adv-x="1183" 
d="M845 1402c198 -62.667 297 -200.335 297 -413.001c0 -136 -45.667 -244.667 -137 -326c-95.334 -84.667 -227.667 -127 -397 -127h-203v-390l114 -23.001c20 -4 30 -16.333 30 -37v-86h-481v86c0 20.667 10 33 30 37l114 23v1141c-64 12.667 -102 20.334 -114 23.001
c-20 4 -30 16.333 -30 37v86h540c90.667 -0.0107422 169.667 -10.3438 237 -30.999zM948 989.499c-0.000976562 91.001 -28.168 162.168 -84.5 213.5c-56.333 51.3359 -141.5 77.0029 -255.5 77h-203v-590h203c108 0 191.667 27.167 251 81.5s89 127 89 218z" />
    <glyph glyph-name="Q" unicode="Q" horiz-adv-x="1539" 
d="M1458 716c-0.0117188 -67.333 -6.8457 -131.336 -20.501 -192.003c-13.6719 -60.667 -33.5049 -117.167 -59.499 -169.5c-26 -52.333 -57.667 -99.833 -95 -142.5s-79.333 -79.667 -126 -111l368 -397h-160c-24.0029 0 -45.3359 3.33301 -64 10
c-18.667 6.66699 -35.667 18.334 -51 35.001l-252 274c-38 -12 -77.5 -21.333 -118.5 -28s-83.833 -10 -128.5 -10c-105.333 0 -201.333 17.833 -288 53.5s-161 85.834 -223 150.501s-110 141.834 -144 231.501s-51 188.167 -51 295.5s17 205.833 51 295.5s82 167 144 232
s136.333 115.5 223 151.5s182.667 54 288 54s201.5 -18 288.5 -54s161.5 -86.5 223.5 -151.5c62 -65.002 110 -142.335 144 -232c34 -89.667 51 -188.167 51 -295.5zM1259 715.997c0 88 -11.999 166.999 -35.999 236.999c-24 70.001 -58 129.168 -102 177.5
c-44.001 48.3359 -97.334 85.5029 -160 111.501c-62.667 26 -132.667 39 -210 39c-76.667 0 -146.334 -13 -209.001 -39s-116.167 -63.167 -160.5 -111.5s-78.5 -107.5 -102.5 -177.5s-36 -149 -36 -237s12 -166.833 36 -236.5s58.167 -128.667 102.5 -177
c44.334 -48.333 97.834 -85.333 160.5 -111c62.667 -25.667 132.334 -38.5 209 -38.5c77.333 0 147.333 12.833 210 38.5s116 62.667 160 111s78 107.333 102 177s36 148.5 36 236.5z" />
    <glyph glyph-name="R" unicode="R" horiz-adv-x="1338" 
d="M1256.19 123.271c17.5322 -3.4834 30.4326 -19.2432 30.4326 -36.959v-86.3184h-35.6377h-108.656h-63.335c-35.3398 0 -61.3359 13.6689 -77.9873 41.0176l-372.005 512.006c-11.333 15.9854 -23.6699 27.4717 -37.001 34.4805
c-13.3213 6.99805 -33.333 10.5029 -59.9844 10.5029h-127.715v-452.094l113.749 -22.6357c17.5312 -3.47363 30.4531 -19.2432 30.4531 -36.959v-86.3184h-144.202h-0.0917969h-192.914h-144.294v86.3184c0 17.7061 12.9102 33.4756 30.4531 36.959l113.841 22.6553
v1141.13l-113.841 22.6562c-17.543 3.4834 -30.4531 19.2529 -30.4531 36.959v86.3184h144.304h385.727c90.6621 0 168.998 -9.1709 234.997 -27.502c65.999 -18.3516 120.501 -44.8604 163.506 -79.5146c42.9951 -34.6543 74.832 -76.4912 95.5098 -125.49
c20.6367 -49 30.9756 -103.84 30.9756 -164.501c0 -50.6699 -7.99219 -97.999 -23.9873 -141.988c-16.0059 -43.999 -39.1836 -83.5 -69.5039 -118.503c-30.3398 -34.9922 -67.3408 -64.8301 -111.002 -89.4941c-43.6816 -24.6738 -93.1729 -43.3438 -148.505 -55.9883
c24.0078 -14.0068 45.3418 -34.3467 64.0107 -61.0078l311.027 -423.414zM588.023 739.004c56.6533 0 106.493 6.81445 149.499 20.4932c42.9951 13.6494 78.9912 32.9951 107.989 57.9971c29.0186 25.0117 50.8438 54.8291 65.5176 89.5039
c14.6426 34.6445 21.9893 72.998 21.9893 115.009c0 85.3145 -28.168 149.653 -84.4941 192.997c-56.3467 43.3223 -140.175 64.9941 -251.505 64.9941h-192.72v-540.994h183.724z" />
    <glyph glyph-name="S" unicode="S" horiz-adv-x="1013" 
d="M751 758c144.667 -65.333 217 -173 217 -323c-0.000976562 -130.667 -41.668 -237.334 -125 -320.001c-88.667 -87.333 -207 -131 -355 -131c-62 0 -127.5 6.33301 -196.5 19s-122.833 25.334 -161.5 38.001l-57 20v359h97c22.667 0 36.334 -11.333 41.001 -33.999
c2 -8.66699 5.16699 -41.667 9.5 -99s6.5 -86.333 6.5 -87c98.667 -36.667 179.334 -55 242.001 -55s112 6.33301 148 19s66.667 30.667 92 54c51.333 47.333 77 110.333 77 189c-0.000976562 76 -35.668 134.667 -107 176c-32 18.667 -68.333 34.667 -109 48
c-126.667 39.333 -210.667 68.166 -252 86.499s-78 41.833 -110 70.5c-71.333 64 -107 153 -107 267c0 106.667 38.333 197.667 115 273c82 80.667 188.5 121 319.5 121c131 -0.00292969 264.833 -27.3359 401.499 -82v-329h-97c-23.335 0 -37.002 11.333 -41 34
c-1.33984 4 -6.67285 63.333 -16 178c-89.334 25.3379 -168.001 38.0049 -236.001 38c-84 0 -150 -21.667 -198 -65c-45.333 -40 -68 -92.667 -68 -158c0 -70 36 -125.667 108 -167c32 -18.667 69 -35 111 -49c120 -40 203.667 -70.333 251 -91z" />
    <glyph glyph-name="T" unicode="T" horiz-adv-x="1258" 
d="M1192 1433l27.0039 -0.000976562v-317h-97c-23.333 0 -36.333 7 -39 21c-2.67578 14 -8.34277 58.333 -17.001 133h-337v-1124c0.669922 -0.000976562 9.00293 -1.66797 25 -5.00098c51.333 -10 84.166 -16.5 98.499 -19.5s21.5 -14.833 21.5 -35.5v-86h-483v86
c0 20.667 11.167 33.334 33.5 38.001l110.499 22v1124h-338c-9.33301 -75.333 -15.333 -119.833 -18 -133.5c-2.66699 -13.6748 -15.334 -20.5078 -38.001 -20.499h-97v317h1079h69z" />
    <glyph glyph-name="U" unicode="U" horiz-adv-x="1499" 
d="M1321 1433l144.998 -0.000976562v-86c-0.0175781 -20.6719 -10.3506 -33.0049 -31 -37l-114 -23v-725c0 -168.667 -50.667 -306.667 -152 -414c-104.667 -110 -244 -165 -417.999 -165c-173.333 0 -312.666 55 -417.999 165c-102 107.333 -153 245.333 -153 414v725
c-64 12.667 -102 20.334 -114 23.001c-20 4 -30 16.333 -30 37v86h501v-86c0 -20.6719 -10.333 -33.0049 -31 -37c-10 -2 -54.333 -9.66699 -133 -23v-724c0 -122 33.333 -220 100 -294c68.667 -76.667 161.334 -115 278 -115c116.667 0 209.334 38 278 114
c66 74 99 172 99 294v725c-78 13.3428 -122 21.0098 -132 23c-20.6748 4 -31.0078 16.333 -31 37v86h163h193z" />
    <glyph glyph-name="V" unicode="V" horiz-adv-x="1559" 
d="M1046 1433l476.999 -0.00292969v-86c0 -20.6719 -10 -33.0049 -30 -37l-100 -23l-525 -1287h-175l-524 1287l-101 23.001c-20 4 -30 16.333 -30 37v86h476v-86c-0.000976562 -20.667 -13.168 -33.667 -39.5 -39l-104.499 -21l365 -911c14 -33.333 30 -85.666 48 -156.999
c14.668 68 29.335 120.333 44 157l363 911c-64 12.667 -102 20.334 -114 23.001c-20 4 -30 16.333 -30 37v86z" />
    <glyph glyph-name="W" unicode="W" horiz-adv-x="2251" 
d="M2131 1433l84.999 -0.000976562v-86c0 -20.6719 -10 -33.0049 -30 -37l-100 -23l-402 -1287h-174l-363 1093c-7.33301 20.667 -14 44.667 -20 72c-3.33301 -12 -6.5 -24.5 -9.5 -37.5s-6.16699 -24.5 -9.5 -34.5l-365 -1093h-174l-401 1287l-101 23.001
c-20 4 -30 16.333 -30 37v86h486v-86c0 -20.6719 -10 -33.0049 -30 -37c-68 -14 -106 -21.667 -114 -23l266 -896c8.66699 -30 17.667 -71 27 -123c12 59.333 22 100.333 30 123l337 996c4 11.333 11.833 21.833 23.5 31.5s25.834 14.5 42.501 14.5h56
c33.333 -0.00585938 55.333 -15.3389 66 -46l335 -996c12.0059 -34.667 22.6729 -74.334 32 -119c4.03711 21.334 7.7041 42.167 11 62.5c3.3584 20.334 7.69141 39.167 13 56.5l267 896c-8 1.34766 -45.667 9.01465 -113 23c-20.6807 4 -31.0137 16.333 -31 37v86h390z" />
    <glyph glyph-name="X" unicode="X" horiz-adv-x="1509" 
d="M1420 123c20 -4 29.999 -16.334 29.999 -37.001v-86h-527v86c0 20.667 10 33 30 37c7.33301 1.33398 28 5.50098 62 12.501s51.333 10.5 52 10.5l-314 492c-4.66699 -14 -10.667 -27.333 -18 -40l-302 -452c5.33398 -1.33398 43.334 -9.00098 114 -23.001
c20 -4 30 -16.333 30 -37v-86h-515v86c0 20.667 10 33 30 37c4.66699 1.33301 49 9 133 23l396 590l-374 551c-77.333 12.667 -121.666 20.334 -132.999 23.001c-20.667 4 -31 16.333 -31 37v86h511v-86c-0.000976562 -20.667 -10.668 -33.167 -32 -37.5l-97 -19.5l299 -458
c4 14.002 11 29.335 21 46l275 409l-114 23.001c-20 4 -30 16.333 -30 37v86h514v-86c-0.0107422 -20.667 -8.34375 -32.667 -24.999 -36c-16.667 -3.33301 -62.667 -11.333 -138 -24l-374 -542l394 -599c77.3359 -12.667 121.669 -20.334 132.999 -23.001z" />
    <glyph glyph-name="Y" unicode="Y" horiz-adv-x="1402" 
d="M882.999 1433l482.001 -0.000976562v-86c0 -20.667 -8.5 -32.667 -25.5 -36s-52.167 -11.333 -105.5 -24l-437 -717v-424c9.33301 -2 47.333 -9.66699 114 -23c20 -4 30 -16.333 30 -37v-86h-144h-193h-144v86c0 20.667 10 33 30 37l114 23v424l-436 717
c-49.333 12 -83.333 19.833 -102 23.5s-28 15.834 -28 36.501v86h482v-86c0 -20.6719 -10.333 -33.0049 -31 -37c-68 -14 -105.667 -21.667 -113 -23l268 -456c21.333 -37.335 40.666 -79.668 57.999 -127c18 50.668 37 93.001 57 127l268 456
c-8 1.34766 -46 9.01465 -114 23c-20 4 -30 16.333 -30 37v86z" />
    <glyph glyph-name="Z" unicode="Z" horiz-adv-x="1215" 
d="M1127 1297l-811.002 -1139h666c7.35742 96.667 12.0244 149 14.001 157c4.66699 22.667 18.334 34 41.001 34h97v-191v-158h-1072v76c0 20 6.33301 39 19 57l812 1142h-641c-7.33301 -96.001 -12 -148.334 -14 -156.999c-4.66699 -22.6709 -18.334 -34.0039 -41 -34h-97
v191v158h1048v-72c0 -22.6689 -7 -44.002 -21 -63.999z" />
    <glyph glyph-name="bracketleft" unicode="[" horiz-adv-x="520" 
d="M111.001 -289l-0.000976562 1822h368v-70c0 -14.667 -4.5 -26.167 -13.5 -34.5s-20.833 -12.5 -35.499 -12.5h-169v-1587h169c14.667 0 26.5 -4.16699 35.5 -12.501c9 -8.33301 13.5 -20.166 13.5 -35.499v-70h-368z" />
    <glyph glyph-name="backslash" unicode="\" horiz-adv-x="844" 
d="M42 1473h76.001c22 0 41 -5.66699 57 -17s28.333 -27.666 37 -48.999l601 -1497h-75c-19.333 0 -38.333 5.66699 -57 17s-32.334 28.666 -41.001 51.999z" />
    <glyph glyph-name="bracketright" unicode="]" horiz-adv-x="519" 
d="M42 -219c0 13.333 4.5 24.666 13.5 33.999s20.833 14 35.5 14h169v1587h-169c-14.667 0 -26.5 4.5 -35.5 13.5c-9 9.00586 -13.5 20.1729 -13.5 33.501v70h368v-1822h-368v70z" />
    <glyph glyph-name="asciicircum" unicode="^" horiz-adv-x="943" 
d="M414 1433l115.001 0.000976562l358 -646h-129c-11.3369 0.00585938 -21.0039 3.33887 -29.001 9.99902c-8.00293 6.66699 -14.6699 14.667 -20 24l-196 352c-8.66699 15.3379 -16.167 30.1709 -22.5 44.5c-6.33301 14.3379 -11.833 28.5049 -16.5 42.5
c-9.33594 -29.333 -21.6689 -58.333 -37 -87l-194 -352c-5.33301 -9.33301 -11.833 -17.333 -19.5 -24s-18.167 -10 -31.5 -10h-136z" />
    <glyph glyph-name="underscore" unicode="_" horiz-adv-x="1027" 
d="M906 -165v-120h-788v120h788z" />
    <glyph glyph-name="grave" unicode="`" horiz-adv-x="542" 
d="M242 1449c22 0 38.332 -3.5 48.999 -10.5s20.667 -18.167 30 -33.5l149 -242h-102c-14 0.0527344 -25.333 2.21973 -33.999 6.5c-8.66699 4.3418 -17.667 11.5088 -27 21.5l-234 258h169z" />
    <glyph glyph-name="a" unicode="a" horiz-adv-x="1027" 
d="M943.536 125.268c17.5312 -3.4834 30.4629 -19.2324 30.4629 -36.9492v-86.3184h-129.344h-14.9512h-64.041c-17.3477 0 -31.3555 2.66504 -42.0117 8.01367c-10.666 5.32812 -17.6641 16.6504 -20.9941 33.998l-19.9922 93.9932
c-26.6719 -23.998 -52.668 -45.5059 -78.0078 -64.4824c-25.3398 -19.0176 -52.0117 -35.0234 -79.9961 -48.0156c-27.9941 -12.9932 -57.8418 -22.8604 -89.5039 -29.501c-31.6738 -6.66016 -66.8496 -10.0205 -105.5 -10.0205c-39.3477 0 -76.1641 5.5332 -110.49 16.5479
c-34.3477 11.0566 -64.1641 27.6152 -89.5059 49.707c-25.3398 22.0508 -45.4844 50.0039 -60.4844 83.7764c-15.0117 33.7734 -22.502 73.7451 -22.502 119.896c0 40.126 11.0039 78.7666 33.0039 115.91c22 37.1348 57.5039 70.0771 106.494 98.8398
c49.0098 28.7627 113.164 52.3301 192.514 70.7432c79.3203 18.3926 176.326 27.5947 290.986 27.5947v79.4932c0 79.1553 -16.8457 139.007 -50.5059 179.604c-33.6602 40.5977 -83.4902 60.9062 -149.49 60.9062c-43.3535 0 -79.8418 -5.5127 -109.496 -16.5176
c-29.6641 -11.0049 -55.3613 -23.3418 -77.0039 -37c-21.6699 -13.6797 -40.3496 -25.9961 -55.998 -37.001c-15.6875 -10.9951 -31.1797 -16.4873 -46.498 -16.4873c-12 0 -22.5117 3.17676 -31.5098 9.49902c-8.99609 6.33203 -16.168 14.1611 -21.5078 23.5059
l-31.9902 56.9922c55.998 54.0098 116.32 94.3408 180.988 121.003c64.6562 26.6621 136.342 40.0137 215.006 40.0137c56.6543 0 106.996 -9.35547 150.994 -28.0146c44 -18.6592 80.9902 -44.6553 110.992 -77.998c30.0234 -33.3525 52.668 -73.6631 68.0078 -121.003
c15.3184 -47.3496 22.9941 -99.3516 22.9941 -155.995v-505.049zM669.651 246.988v209.002c-81.9941 0 -151.672 -5.19531 -209.002 -15.6064c-57.3398 -10.4004 -103.992 -23.9766 -139.99 -40.7305c-36.0059 -16.7842 -62.166 -36.5498 -78.498 -59.3486
c-16.3438 -22.8086 -24.5117 -48.2715 -24.5117 -76.4199c0 -26.8252 4.3457 -49.9629 13.0137 -69.4209c8.6582 -19.4482 20.3203 -35.3613 35.0039 -47.7705c14.6426 -12.4082 31.9902 -21.4463 51.9902 -27.1631c20.0117 -5.69727 41.6543 -8.53613 65.0059 -8.53613
c31.3242 0 59.9941 3.16602 86 9.51953c25.9961 6.30176 50.4863 15.3184 73.4902 26.9795c23.002 11.6611 45.002 25.832 65.998 42.5029c21.0059 16.6611 41.498 35.6582 61.5 56.9922z" />
    <glyph glyph-name="b" unicode="b" horiz-adv-x="1130" 
d="M1084.1 513.265c0 -1.02441 -0.0410156 -2.00781 -0.0507812 -3.01172c0.0205078 -1.00488 0.0507812 -1.97852 0.0507812 -2.98242c0 -82.6699 -11.5068 -156.344 -34.4902 -221c-23.0039 -64.6572 -54.5225 -119.159 -94.5156 -163.496
c-40.0127 -44.3379 -87.1582 -78.1719 -141.496 -101.504c-54.3486 -23.3115 -113.164 -34.9922 -176.509 -34.9922c-180.537 0 -446.991 55.7217 -446.991 55.7217v16.9375v144.734v1124.64c-23.6084 3.91406 -112.468 18.6592 -127.644 21.6826
c-17.5312 3.47363 -30.4531 19.2432 -30.4531 36.959v86.3184h158.097h5.78906h173.189v-606.009c42.0215 48.6719 90.1709 87.834 144.509 117.498s116.484 44.5117 186.49 44.5117c58.6719 0 111.668 -11.0254 159.018 -33.0146
c47.3398 -22 87.6504 -54.8193 121.014 -98.4912c33.3223 -43.6816 58.9902 -97.6816 77.0039 -161.989c18.0029 -64.3389 26.9893 -138.515 26.9893 -222.518zM821.107 223.775c25.3398 32.3291 44.9932 72.332 59.0312 119.979
c13.249 45.1475 19.0996 96.4424 19.7969 153.864c0.102539 5.16406 0.214844 10.3291 0.214844 15.626c0 66.0195 -5.85059 122.694 -17.5215 170.014c-11.6611 47.3291 -28.4961 86.1328 -50.4854 116.504c-22.0107 30.3408 -49.0107 52.4941 -81 66.4707
c-32.001 14.0176 -68.3457 21.0361 -109.005 21.0361c-58.0059 0 -108.84 -13.3516 -152.512 -40.0029c-43.6602 -26.6719 -83.8379 -64.3389 -120.501 -113.011v-236.637v-253.349v-86.6152c26.4062 -6.62988 112.335 -26.8359 199.605 -31.8984
c12.7783 -0.737305 25.5859 -1.17773 38.2305 -1.17773h12.6143c39.9824 1.53613 76.3574 9.89746 109.034 25.1758c36.335 17.0195 67.1465 41.6836 92.4971 74.0215z" />
    <glyph glyph-name="c" unicode="c" horiz-adv-x="906" 
d="M864.998 142c-84.667 -104 -209.331 -155.998 -373.998 -155.998c-130 0 -236 45.667 -318 137c-86 94.667 -129 222.667 -129 384c0 155.333 41 280.333 123 375c86 98 204 147 354 147c77.333 -0.000976562 177.333 -24.668 300 -74v-263h-80
c-19.3359 0.00292969 -30.6689 9.33594 -34 28c-2.00488 7.33301 -4.67188 32.333 -8 75c-3.34375 42.667 -5.01074 65 -5 66.999c-32.001 10.0029 -56.668 16.3359 -74.001 18.999c-38.667 6 -76.167 8.66699 -112.5 8s-72.833 -9.5 -109.5 -26.5
c-36.667 -17.001 -68 -42.168 -94 -75.5c-51.333 -67.333 -77 -160.666 -77 -279.999c0 -120.667 26.667 -215.334 80 -284.001c52 -66 123.667 -99 215 -99c83.333 0 157.666 28 222.999 84c12.002 10.667 24.835 16 38.5 16c13.667 0 24.167 -5.66699 31.5 -17z" />
    <glyph glyph-name="d" unicode="d" horiz-adv-x="1129" 
d="M483 1031c112 0 204.333 -39.998 277 -119.998v416c-68 10.667 -112.333 18.167 -133 22.5s-31 16.833 -31 37.5v86h342v-1327c64 -12.667 102 -20.334 114 -23.001c20 -4 30 -16.333 30 -37v-86h-250c-25.333 0 -41.333 12.333 -48 37l-16 123
c-95.334 -116 -208.667 -174 -340 -174c-118.667 0 -211.667 44 -279 132c-69.333 90 -104 218.333 -104 385c0 153.333 39 278.666 117 375.999c80 101.333 187 152 321 152zM487 130.002c105.333 0 196.332 50.999 272.999 152.999v490
c-58.667 79.333 -136.5 119 -233.5 119c-97 -0.000976562 -170.833 -33.668 -221.499 -101c-50.667 -67.333 -76 -163.333 -76 -288c0 -191.333 49.333 -308.666 148 -351.999c32 -14 68.667 -21 110 -21z" />
    <glyph glyph-name="e" unicode="e" horiz-adv-x="985" 
d="M516.002 1029c60.667 -0.00585938 116.669 -10.167 168.002 -30.4941c51.333 -20.334 95.666 -49.667 132.999 -88c37.333 -38.334 66.5 -85.667 87.5 -142c21 -56.334 31.5 -120.501 31.5 -192.501c0 -28.002 -3 -46.6689 -9 -56.001c-6 -9.33301 -17.333 -14 -34 -14
h-674c1.33301 -64 10 -119.667 26 -167s38 -86.833 66 -118.5s61.333 -55.334 100 -71.001s82 -23.5 130 -23.5c44.667 0 83.167 5.16699 115.5 15.5s60.166 21.5 83.499 33.5s42.833 23.167 58.5 33.5s29.167 15.5 40.5 15.5c14.668 0 26.001 -5.66699 33.999 -17l50 -65
c-22 -26.667 -48.333 -49.834 -79 -69.501s-63.5 -35.834 -98.5 -48.501c-35.001 -12.667 -71.168 -22.167 -108.501 -28.5s-74.333 -9.5 -111 -9.5c-70 0 -134.5 11.833 -193.5 35.5s-110 58.334 -153 104.001s-76.5 102.167 -100.5 169.5s-36 144.666 -36 231.999
c0 70.667 10.833 136.667 32.5 198s52.834 114.5 93.501 159.5c40.667 45.001 90.334 80.334 149.001 105.999c58.667 25.6689 124.667 38.502 198 38.5zM520.004 898.006c-86 0 -153.665 -24.8311 -202.998 -74.498s-80 -118.5 -92 -206.5h551
c-0.00292969 41.333 -5.66992 79.166 -17 113.499c-11.3359 34.333 -28.0029 64 -50.001 89c-22 25.002 -48.833 44.335 -80.5 58c-31.667 13.6699 -67.834 20.5029 -108.501 20.499z" />
    <glyph glyph-name="f" unicode="f" horiz-adv-x="744" 
d="M593.999 1317c-136 0 -203.999 -76.999 -203.999 -230.999v-93h293v-129h-287v-718c78.667 -13.334 123 -21.001 133 -23.001c20 -4 30 -16.333 30 -37v-86h-497v86c0 20.667 10.333 33 31 37l124 23v715l-112 13c-32 7.33301 -48 22.666 -48 45.999v73h160v98
c0 114.667 31.333 204.334 94 269.001c62 62.667 146.667 94 254 94c45.333 0 87.333 -6.66699 126 -20l-4 -89c-0.666992 -13.333 -6.33398 -21.333 -17.001 -24c-10.667 -2.70703 -25.667 -4.04004 -45 -4h-31z" />
    <glyph glyph-name="g" unicode="g" horiz-adv-x="1014" 
d="M462 1030c44 -0.015625 85.1709 -4.8457 123.504 -14.4971c38.333 -9.66699 73.166 -23.834 104.499 -42.501h275v-66c0 -22 -14 -36 -42 -42l-115 -16c22.668 -43.334 34.001 -91.667 33.999 -145c0 -49.334 -9.5 -94.167 -28.5 -134.5
c-19 -40.334 -45.333 -74.834 -79 -103.5c-33.667 -28.667 -73.667 -50.667 -120 -66c-46.334 -15.333 -97.167 -23 -152.5 -23c-47.333 0.000976562 -92 5.66797 -134 17.001c-21.333 -13.333 -37.5 -27.666 -48.5 -42.999s-16.5 -30.333 -16.5 -45
c0.000976562 -24 9.66797 -42.167 29.001 -54.5c19.334 -12.334 45.001 -21.167 77.001 -26.5c32 -5.33398 68.333 -8.66699 109 -10c40.667 -1.33496 82.167 -3.50195 124.5 -6.50098c42.333 -3 83.833 -8.16699 124.5 -15.5s77 -19.333 108.999 -36
c32 -16.667 57.667 -39.667 77 -69s29 -67.333 29 -114c0 -43.333 -10.833 -85.333 -32.5 -126s-52.834 -76.834 -93.501 -108.501c-40.667 -31.666 -90.334 -56.999 -149.001 -75.999s-125 -28.5 -199 -28.5s-138.833 7.33301 -194.5 22s-101.834 34.334 -138.501 59.001
s-64.167 53.167 -82.5 85.5s-27.5 66.166 -27.5 101.499c0 50 15.833 92.5 47.5 127.5s75.167 62.833 130.5 83.5c-28.667 13.333 -51.5 31.166 -68.5 53.499s-25.5 52.166 -25.5 89.499c0 14.667 2.66699 29.834 8 45.501s13.5 31.167 24.5 46.5
c11 15.334 24.5 30.001 40.5 44.001s34.667 26.333 56 37c-50 28 -89.167 65.167 -117.5 111.5s-42.5 100.5 -42.5 162.5c0 49.333 9.5 94.166 28.5 134.499s45.5 74.666 79.5 102.999s74.5 50.166 121.5 65.499s98.5 23 154.5 23zM778.004 -54.9971
c0 25.333 -6.99902 45.6709 -20.999 61.0039s-33 27.166 -57 35.499c-24.001 8.33301 -51.668 14.5 -83.001 18.5s-64.333 6.83301 -99 8.5s-70 3.5 -106 5.5s-70.333 5.66699 -102.999 11c-38 -18 -68.833 -40 -92.5 -66s-35.5 -57 -35.5 -93
c0 -22.667 5.83301 -43.834 17.499 -63.501c11.667 -19.667 29.5 -36.667 53.5 -51s54.167 -25.666 90.5 -34c36.334 -8.33301 79.167 -12.5 128.5 -12.501c48 -0.000976562 91 4.33203 129 12.999s70.167 21 96.5 37s46.5 35 60.5 57s21 46.333 21 73zM462.005 495.008
c36 0 67.834 5.00195 95.5 15.002c27.667 10 50.834 24 69.5 42c18.667 18 32.667 39.5 42 64.5s14 52.5 14 82.5c0 62 -18.833 111.333 -56.5 147.999c-37.667 36.6689 -92.5 55.002 -164.5 54.999c-71.333 0 -125.833 -18.333 -163.5 -55s-56.5 -86 -56.5 -148
c0 -30 4.83301 -57.5 14.5 -82.5s23.834 -46.5 42.501 -64.5s41.667 -32 69 -42s58.666 -15 93.999 -15z" />
    <glyph glyph-name="h" unicode="h" horiz-adv-x="1251" 
d="M391 877c95.333 101.333 204 152 326 152c109.333 0 193.333 -35 252 -105c58 -68.667 87 -161.667 87 -279v-499c64 -12.667 102 -20.334 114 -23.001c20 -4 30 -16.333 30 -37v-86h-322v645c0 161.333 -71 242 -213 242c-98.667 0 -190 -47 -274 -141v-600l25 -5
c52 -10 81.667 -16 89 -18c20 -4 30 -16.333 30 -37v-86h-466v86c0 20.667 10 33 30 37l114 23v1181c-77.333 12.667 -122 20.334 -134 23.001c-20 4 -30 16.333 -30 37v86h342v-596z" />
    <glyph glyph-name="i" unicode="i" horiz-adv-x="579" 
d="M208.779 1242.49c-11.6602 11.6309 -20.8311 25.002 -27.502 39.9932s-9.99023 31.1396 -9.99023 48.498c0 17.3164 3.31934 33.8242 9.99023 49.501c6.6709 15.6475 15.8418 29.3262 27.502 40.9873c11.6611 11.6807 25.0127 20.8418 40.0137 27.502
c14.9912 6.6709 31.1602 9.99023 48.4873 9.99023c17.3369 0 33.6807 -3.31934 49.0098 -9.99023c15.3291 -6.66016 28.8135 -15.8213 40.4951 -27.502c11.6504 -11.6611 20.9854 -25.3398 27.9834 -40.9873c7.01953 -15.6768 10.5234 -32.1846 10.5234 -49.501
c0 -17.3477 -3.49414 -33.4971 -10.5234 -48.498c-6.98828 -15.001 -16.3232 -28.3623 -27.9834 -39.9932c-11.6709 -11.7012 -25.166 -20.8613 -40.4951 -27.502c-15.3291 -6.66992 -31.6729 -10.0107 -49.0098 -10.0107c-17.3271 0 -33.4961 3.35059 -48.4873 10.0107
c-15.001 6.65039 -28.3525 15.8105 -40.0137 27.502zM499.109 123.268c17.542 -3.48438 30.4629 -19.2334 30.4629 -36.9502v-86.3174h-466.572v86.3174c0 17.707 12.9209 33.4766 30.4531 36.96l113.841 22.6553v721.131l-113.841 22.6553
c-17.5322 3.48438 -30.4531 19.2539 -30.4531 36.96v86.3184h322.278v-867.074z" />
    <glyph glyph-name="j" unicode="j" horiz-adv-x="517" 
d="M441.5 1380.5c7 -15.667 10.5 -32.1709 10.5 -49.5039s-3.5 -33.5 -10.5 -48.5c-7.00098 -15.0049 -16.334 -28.3379 -28 -40c-11.667 -11.6758 -25.167 -20.8428 -40.5 -27.5c-15.333 -6.68555 -31.666 -10.0186 -48.999 -10c-17.333 0 -33.5 3.33301 -48.5 10
s-28.333 15.834 -39.999 27.501c-11.667 11.667 -20.834 25 -27.501 40c-6.66699 15.0078 -10 31.1748 -10 48.501c0 17.333 3.33301 33.833 9.99902 49.5c6.66699 15.667 15.834 29.334 27.5 41.001c11.667 11.667 25 20.834 40 27.501s31.167 10 48.5 10
c17.334 -0.0224609 33.667 -3.35547 49 -10c15.333 -6.67188 28.833 -15.8389 40.5 -27.5c11.667 -11.6719 21 -25.3389 28 -41zM257 -342.004c-36.667 -14.666 -77.667 -21.999 -123 -22s-86 6.66602 -122 20l8 96c2 13.333 12.333 20 31 20h39c52 0 89 12.167 111 36.5
s33 63.5 33 117.5v941c-21.333 4 -59.333 11.667 -114 23c-20 4.00195 -30 16.335 -30 37v86h144h178v-1088c0 -134.667 -51.667 -223.667 -155 -267z" />
    <glyph glyph-name="k" unicode="k" horiz-adv-x="1157" 
d="M1071 123c20.667 -4 31 -16.3311 31 -36.998v-86h-189c-26 0 -48.333 11.667 -67 35l-333 415c-10 14.001 -20 23.168 -30 27.5c-10 4.33691 -25 6.50391 -45 6.5h-50v-338c7.33301 -1.33398 45.333 -9.00098 114 -23.001c20 -4 30 -16.333 30 -37v-86h-467v86
c0 20.667 10 33 30 37l114 23v1181c-64 12.667 -102 20.334 -114 23.001c-20 4 -30 16.333 -30 37v86h144h179v-867h46c24 0.00390625 44.667 9.33691 62 28l228 245c-6.66699 1.33301 -14 2.66602 -22 3.99902c-14.667 2.68066 -25.667 5.01367 -33 7
c-20.667 4.00195 -31 16.335 -31 37v86h248h162h12v-86c-0.0126953 -20.667 -8.3457 -32.667 -25 -36l-124 -24l-236 -251c-20 -24.667 -39.333 -42.334 -58 -53.001c22.667 -14.667 42.667 -35.667 60 -63l281 -354l51.5 -10.5z" />
    <glyph glyph-name="l" unicode="l" horiz-adv-x="580" 
d="M501 123c20.6699 -4 31.0029 -16.333 31 -37v-86h-467v86c0 20.667 10 33 30 37l114 23v1181c-64 12.667 -102 20.334 -114 23.001c-20 4 -30 16.333 -30 37v86h322v-1327c64.667 -12.667 102.667 -20.334 114 -23.001z" />
    <glyph glyph-name="m" unicode="m" horiz-adv-x="1781" 
d="M378 872c85.333 104.667 181 157.002 287 157.002c68.667 0 124.167 -19 166.5 -57s72.833 -89.333 91.5 -154c26.667 70 71 123.667 133 161c55.335 33.333 114.168 50 176.5 50c62.333 0 114.333 -8.5 156 -25.5s77.167 -41.833 106.5 -74.5
c59.3369 -67.334 89.0039 -162.001 89.001 -284.001v-499c64.667 -12.667 102.667 -20.334 114 -23.001c20.667 -4 31 -16.333 31 -37v-86h-323v645c-0.00585938 79.333 -17.3389 139.5 -52 180.5c-34.668 41 -85.001 61.5 -151 61.5c-61.333 0 -112.333 -20.333 -153 -61
c-43.333 -43.334 -65 -103.667 -65 -181v-499c11.333 -2 49.333 -9.66699 114 -23c20 -4 30 -16.333 30 -37v-86h-322v645c0 161.333 -64 242 -192 242c-82.667 0 -158 -44 -226 -132v-609l53 -10.5c35.333 -7 55.666 -11.167 60.999 -12.5
c20.6689 -4 31.002 -16.333 31 -37v-86h-467v86c0 20.667 10 33 30 37l114 23v721c-64 12.668 -102 20.335 -114 23c-20 4.00195 -30 16.335 -30 37v86h144h106c25.333 0 41.333 -12.333 48 -37z" />
    <glyph glyph-name="n" unicode="n" horiz-adv-x="1251" 
d="M379 866c98.667 108.667 210.668 163.002 336.001 163.002c109.333 0 193.666 -35.333 252.999 -106c57.335 -68 86.002 -160.667 86 -278v-499c64.667 -12.667 102.667 -20.334 114 -23.001c20.667 -4 31 -16.333 31 -37v-86h-323v645c0 161.333 -71 242 -213 242
c-98.667 0 -190 -47 -274 -141v-600c4.66699 -0.666992 42.667 -8.33398 114 -23.001c20.6689 -4 31.002 -16.333 31 -37v-86h-467v86c0 20.667 10 33 30 37l114 23v721c-64 12.668 -102 20.335 -114 23c-20 4.00195 -30 16.335 -30 37v86h144h106
c25.333 0 41.333 -12.333 48 -37z" />
    <glyph glyph-name="o" unicode="o" horiz-adv-x="1056" 
d="M528 1029c74 0 140.835 -12.3311 200.501 -36.998c59.667 -24.667 110.334 -59.667 152 -105c41.667 -45.334 73.667 -100.167 96 -164.5c22.3369 -64.334 33.5039 -136.167 33.5 -215.5c0 -80 -11.167 -152 -33.5 -216s-54.333 -118.667 -96 -164
s-92.334 -80.166 -152.001 -104.499s-126.5 -36.5 -200.5 -36.5s-140.833 12.167 -200.5 36.5s-110.5 59.166 -152.5 104.499s-74.333 100 -97 164s-34 136 -34 216c0 79.333 11.333 151.166 34 215.499s55 119.166 97 164.499s92.833 80.333 152.5 105
c59.667 24.6689 126.5 37.002 200.5 37zM528.002 125.002c100 0 174.667 33.5 224 100.5s74 160.5 74 280.5c-0.000976562 120.667 -24.668 214.667 -74.001 282c-49.334 67.333 -124.001 101 -224.001 101c-50.667 -0.00292969 -94.667 -8.66992 -132 -26
c-37.333 -17.333 -68.5 -42.333 -93.5 -75s-43.667 -72.834 -56 -120.501s-18.5 -101.5 -18.5 -161.5c0.000976562 -60 6.16797 -113.667 18.501 -161c12.334 -47.333 31.001 -87.166 56.001 -119.499s56.167 -57.166 93.5 -74.499
c37.333 -17.334 81.333 -26.001 132 -26.001z" />
    <glyph glyph-name="p" unicode="p" horiz-adv-x="1113" 
d="M342 856c96 116.667 209.667 175.002 341 175.002c118.667 0 211.667 -44 279 -132c69.3369 -91.334 104.004 -220.001 104.001 -386.001c0 -152.667 -38.667 -277.667 -116 -375c-80 -101.333 -182 -152 -306 -152s-221.667 39.667 -293 119v-302
c2 -0.666992 20.167 -4.33398 54.5 -11.001c34.334 -6.66699 54.167 -10.667 59.499 -12c20 -4 30 -16.333 30 -37v-86h-466v86c0 20.667 10 33 30 37l114 23v1064c-64 12.668 -102 20.335 -114 23c-20 4.00195 -30 16.335 -30 37v86h144h106
c25.333 0 41.333 -12.333 48 -37zM351 244.002c59.334 -80 137.334 -120 234 -120c96.667 0 170.334 33.667 221 101c50.668 67.333 76.001 163.333 76 288c0 249.333 -86 374 -258 374c-104.667 0 -195.667 -51 -273 -153v-490z" />
    <glyph glyph-name="q" unicode="q" horiz-adv-x="1110" 
d="M762.001 150c-93.333 -108 -203.668 -161.997 -331.001 -161.997c-120 0 -213.333 44 -280 132c-69.333 90.667 -104 218.667 -104 384v3c0 163.333 43 292.666 129 387.999c82 90.667 188 136 318 135.999c106.667 0 231.667 -14 375 -42l72 -14v-1171
c74.667 -12 117.334 -19.333 128.001 -22c20 -4 30 -16 30 -36v-87h-501v87c0 20 8.5 31.833 25.5 35.5c17 3.66602 63.167 11.499 138.5 23.499v345zM488.999 130.003c105.333 0 196.334 51.001 273.001 153.001v577c-88 22 -167.333 33 -238 33h-12
c-132.667 -5.33398 -219.667 -78.667 -261 -220c-13.334 -44.667 -20.001 -83.334 -20.001 -116.001v-53c0 -249.333 86 -374 258 -374z" />
    <glyph glyph-name="r" unicode="r" horiz-adv-x="864" 
d="M380 806c74 150 176.669 225 308.002 225c52 0 98.333 -12 138.999 -36l-23 -133c-4.66699 -16.667 -13.334 -25 -26.001 -25s-28.667 3.16699 -48 9.5s-46.333 9.5 -81 9.5c-116 0 -202.667 -70.333 -260 -211v-499l114 -23c20 -4 30 -16.333 30 -37v-86h-466v86
c0 20.667 10 33 30 37l114 23v721c-64 12.668 -102 20.335 -114 23c-20 4.00195 -30 16.335 -30 37v86h144h102c19.334 -0.0078125 32.667 -3.6748 40 -11c7.33301 -7.33496 12.333 -20.002 15 -38z" />
    <glyph glyph-name="s" unicode="s" horiz-adv-x="821" 
d="M464 1029c70 -0.00292969 158 -17.666 264 -52.9961v-71v-189h-79c-19.335 0.00390625 -30.668 9.33691 -34 27.999c-0.666992 2.66699 -4.66699 46.334 -12 131c-60.667 14 -112.667 21 -156 21h-2c-56.667 -0.666992 -102.667 -15 -138 -43
c-35.333 -27.334 -53 -58.001 -53 -92c0.000976562 -34.001 7.66797 -59.668 23.001 -77.001c26.667 -31.335 65 -54.668 115 -70c50 -15.334 91.5 -28.501 124.5 -39.5c33 -11.001 65.167 -23.168 96.5 -36.5c31.333 -13.335 59.333 -30.002 84 -50
c54.667 -44.667 82 -104 81.999 -178c0 -96.667 -33 -174 -99 -232c-68.667 -61.333 -157.667 -92.333 -267 -93s-218.333 17.666 -327 54.999v265h71c16.667 -0.000976562 26.667 -8.33398 30 -25c1.33301 -6 5.33301 -48.667 12 -128c57.333 -26.667 126 -40 206 -40
c66 0 118 16.667 156 50c34 30 51 64 51 102s-7.5 66.167 -22.5 84.5c-15 18.334 -34.833 34.001 -59.5 47.001s-53 24.167 -85 33.5c-88 27.333 -150.167 48.833 -186.5 64.5s-66.833 33.834 -91.5 54.5c-54.667 46 -82 108.333 -82 186.999
c0 82 31.333 150.333 94 204.999c66.667 59.333 161.667 89 285 89z" />
    <glyph glyph-name="t" unicode="t" horiz-adv-x="726" 
d="M433.999 -16c-80 0 -141.499 22.335 -184.499 67.002s-64.5 109 -64.5 193v620h-122c-10.667 0 -19.667 3.16699 -27 9.5s-11 16.166 -11 29.499v71l166 21l41 313c1.33398 10.0098 5.66699 18.1768 13 24.5c7.33398 6.35352 16.667 9.52051 28 9.5h90v-349h290v-129
h-290v-608c0 -42.667 10.333 -74.334 31 -95.001s47.334 -31 80.001 -31c18.667 0 34.834 2.5 48.5 7.5c13.668 5 25.501 10.5 35.5 16.5c10 6 18.5 11.5 25.5 16.5s13.167 7.5 18.5 7.5c9.33301 0 17.666 -5.66699 24.999 -17l52 -85
c-30.667 -28.667 -67.667 -51.167 -111 -67.5c-43.334 -16.333 -88.001 -24.5 -134.001 -24.5z" />
    <glyph glyph-name="u" unicode="u" horiz-adv-x="1213" 
d="M562.999 126c100.667 0 192.001 46.667 274.001 140v601c-11.334 2.66992 -49.001 10.3369 -113 23c-20.667 4.00195 -31 16.335 -31 37v86h144h178v-867c64.667 -12.667 102.667 -20.334 114 -23.001c20.667 -4 31 -16.333 31 -37v-86h-251
c-25.333 0 -41.333 12.333 -48 37l-14 109c-97.333 -108 -209.333 -162 -336 -162c-108 0 -192.333 35 -253 105c-57.333 66.667 -86 159.334 -86 278.001v500c-64 12.668 -102 20.335 -114 23c-20 4.00195 -30 16.335 -30 37v86h322v-646c0 -76.667 17.667 -136 53 -178
s88.666 -63 159.999 -63z" />
    <glyph glyph-name="v" unicode="v" horiz-adv-x="1193" 
d="M1086 1013l69.002 0.000976562v-86c0 -20.667 -10 -33 -30 -37c-7.33301 -1.33691 -40 -8.00391 -98 -20.001l-354 -870h-161l-355 870c-11.333 2.67285 -29.833 6.50586 -55.5 11.499c-25.667 5.00684 -39.834 7.83984 -42.501 8.5c-20 4.00195 -30 16.335 -30 37v86
h454v-86c0 -20.667 -10 -33 -30 -37c-12 -2.66699 -49 -10 -111 -22l215 -544c11.333 -30 23.666 -77.667 36.999 -143c14.668 64.667 28.001 112.334 40 143.001l216 543c-15.333 3.33301 -53.333 11 -114 23c-20 4.00195 -30 16.335 -30 37v86h380z" />
    <glyph glyph-name="w" unicode="w" horiz-adv-x="1738" 
d="M1248 1013h452.001v-86c0 -20.667 -10 -33 -30 -37c-7.33301 -1.33984 -24.333 -4.67285 -51 -9.99902c-26.6729 -5.33984 -43.0059 -8.67285 -49 -10l-281 -870h-141c-18 0 -30 11.333 -36 34l-224 687c-6.00684 15.333 -10.6738 31.5 -14 48.5l-9 44.499
c-4 -17.335 -7.5 -33.502 -10.5 -48.5c-3.00977 -15.002 -7.17676 -30.1689 -12.5 -45.5l-227 -686c-7.33496 -22.667 -21.002 -34 -41.001 -34h-134l-282 870c-5.33301 0.666992 -16.333 2.66699 -33 6c-38.667 8 -61 12.667 -67 14c-20 4.00195 -30 16.335 -30 37v86h452
v-86c-0.000976562 -20.667 -10.334 -33 -30.999 -37c-12.667 -2.66699 -49.334 -10 -110.001 -22l162 -544c13.333 -60.667 22.333 -106.334 27 -137.001c6 26.667 19 72.334 39 137.001l214 656c7.33301 23.333 23.666 35 48.999 35h77c26 -0.00195312 43 -11.6689 51 -35
l209 -656c8.66699 -28.667 20.334 -74 35.001 -136c7.34277 46 17.6758 91.333 30.999 136l164 543c-9.33301 1.33301 -48.666 9 -117.999 23c-20.6768 4.00195 -31.0098 16.335 -31 37v86z" />
    <glyph glyph-name="x" unicode="x" horiz-adv-x="1142" 
d="M948.998 142l89.002 -18c24 -4.66699 36 -17.334 36 -38.001v-86h-398v86c0.00390625 20.667 10.3369 33 30.999 37c5.33301 1.33301 22 4.66602 50 9.99902l-194 301c-4.66699 -19.333 -11.667 -36.666 -21 -51.999l-169 -247l24 -5
c20.667 -4 32.334 -6.33301 35.001 -6.99902c20.667 -4 31 -16.333 31 -37v-86h-398v86c0 20.667 10 33 30 37l48.5 10s39.167 7.66699 48.5 9l257 377l-241 350l-104.001 21c-20 4.00195 -30 16.335 -30 37v86h397v-86c0 -20.667 -10.333 -33 -31 -37
c-2 -0.666992 -16 -3.66699 -42 -9l179 -275c6 18.667 14.667 37.334 26 56l148 217c-8.66699 2 -19.334 4.16699 -32.001 6.5s-19.667 3.83301 -21 4.5c-20 4.00195 -30 16.335 -30 37v86h397v-86c0 -20.667 -10.5 -33.167 -31.5 -37.5
c-21.002 -4.33691 -55.835 -11.1699 -104.5 -20.5l-240 -340z" />
    <glyph glyph-name="y" unicode="y" horiz-adv-x="1192" 
d="M1081 1013l72.999 0.000976562v-86c0 -20.667 -10 -33 -30 -37c-6 -1.34375 -23.667 -5.01074 -53 -11.001c-29.333 -6 -46.666 -9.33301 -51.999 -10l-503 -1168c-13.334 -29.333 -34.667 -44 -63.999 -44h-132l185 402l-356 813c-48.667 9.33301 -79 15.333 -91 18
c-20 4.00195 -30 16.335 -30 37v86h454v-86c0 -20.667 -10 -33 -30 -37c-10.667 -2.66699 -47.334 -10 -110.001 -22l225 -530c10.667 -26.667 19.667 -56.334 27 -89c12 39.333 22 69.333 30 90l219 529l-109.5 22c-19 4.00195 -28.5 16.335 -28.5 37v86h376z" />
    <glyph glyph-name="z" unicode="z" horiz-adv-x="923" 
d="M199 1013l651.001 0.000976562v-76c0 -24.001 -8.33301 -46.668 -25 -68l-548 -730h451c6 81.333 9.66699 125.666 11 132.999c3.33301 16.667 13.666 25 30.999 25h71v-297h-774v74c0 20.667 8.33301 42 25 64l551 735h-433c-6 -74.001 -9.66699 -114.668 -11 -122
c-3.33301 -16.667 -13.333 -25 -30 -25h-71v287h101z" />
    <glyph glyph-name="braceleft" unicode="{" horiz-adv-x="554" 
d="M182 425c0 42 -11.667 76.501 -35 103.501s-57.333 40.5 -102 40.5v107c44.667 0.000976562 78.667 13.334 102 39.999c23.333 26.667 35 61.334 35 104c0 33.333 -2.66699 66.333 -8 99s-11.166 65.334 -17.499 98c-6.33301 32.667 -12.166 65.667 -17.499 99
c-5.33398 33.333 -8.00098 67.333 -8.00098 102c0 46 6.83301 88.333 20.5 127s34.334 72 62 100c27.667 28.0029 62 49.6699 103 65.001c41 15.3447 88.833 23.0117 143.5 23h53v-79c0 -13.333 -4.66699 -23 -14 -29s-18 -9 -26 -9h-20
c-51.333 -0.0078125 -91.833 -16.8408 -121.5 -50.499c-29.667 -33.667 -44.5 -79.167 -44.5 -136.5c0 -37.333 2.33301 -73.333 7 -108c4.66699 -34.6689 10 -68.502 16 -101.5c6 -33 11.333 -65.833 16 -98.5s7 -65.667 7 -99c0 -25.333 -3.66699 -48.833 -11 -70.5
s-17.833 -41 -31.5 -58c-13.667 -17.002 -29.667 -31.6689 -48 -44c-18.333 -12.3359 -38.5 -21.5029 -60.5 -27.501c22 -6.00391 42.167 -15.1709 60.5 -27.501c18.333 -12.334 34.333 -27.167 48 -44.5c13.667 -17.334 24.167 -36.667 31.5 -57.999
c7.33496 -21.333 11.002 -44.333 11.001 -69c-0.00292969 -33.333 -2.33594 -66.333 -7 -99c-4.66699 -32.667 -10 -65.5 -15.999 -98.5c-6.00098 -33 -11.334 -66.833 -16 -101.5c-4.66992 -34.667 -7.00293 -70.667 -7 -108c0 -58 14.833 -103.667 44.5 -137
s70.167 -50 121.5 -50h20c8.00098 0 16.668 -3 26 -9c9.33496 -6 14.002 -15.667 14 -29.001v-80h-53c-54.667 0 -102.5 7.83301 -143.5 23.5s-75.333 37.5 -103 65.5s-48.334 61.333 -62.001 100s-20.5 81 -20.5 127c0 34.667 2.66699 68.5 8 101.5s11.166 66 17.499 99
s12.166 65.833 17.499 98.5s8 65.667 8 99z" />
    <glyph glyph-name="bar" unicode="|" horiz-adv-x="359" 
d="M111 1533h138v-1876h-138v1876z" />
    <glyph glyph-name="braceright" unicode="}" horiz-adv-x="555" 
d="M374.006 425c0.00195312 -33.333 2.66406 -66.3291 7.99609 -98.9961c5.33398 -32.667 11.167 -65.5 17.499 -98.5c6.33398 -33 12.167 -66 17.499 -99c5.33496 -33 8.00195 -66.833 8 -101.5c0 -46 -7 -88.333 -21 -127s-34.667 -72 -62 -100
s-61.5 -49.833 -102.5 -65.5c-41 -15.666 -88.833 -23.499 -143.5 -23.5h-53v80c0 13.333 4.66699 23 14 29s18 9 26 9h20c51.333 0 91.833 16.667 121.5 50s44.5 79 44.5 137c-0.00390625 37.333 -2.33691 73.333 -7 108c-4.66699 34.667 -10 68.5 -15.999 101.5
c-6.00098 33 -11.334 65.833 -16 98.5c-4.66895 32.667 -7.00195 65.667 -7 99c0.00195312 24.667 3.66895 47.667 11.001 69c7.33301 21.333 17.833 40.666 31.5 57.999s29.667 32.166 48 44.499c18.334 12.333 38.501 21.5 60.5 27.5c-22 6 -42.167 15.167 -60.5 27.5
s-34.333 27 -48 44c-13.667 17.001 -24.167 36.334 -31.5 57.999c-7.33301 21.667 -11 45.167 -11 70.5c0 33.333 2.33301 66.333 7 99c4.66699 32.668 10 65.501 16 98.5c6 33 11.333 66.833 16 101.5s7 70.667 7 108c0 57.333 -14.833 102.833 -44.499 136.5
c-29.667 33.667 -70.167 50.5 -121.5 50.5h-20c-8 0 -16.667 3 -26 9c-9.33301 6.01074 -14 15.6777 -14 29v79h53c54.667 0 102.5 -7.66699 143.5 -23s75.167 -37 102.5 -65c27.334 -28.0039 48.001 -61.3369 62.001 -100c14 -38.6699 21 -81.0029 21 -126.999
c0 -34.667 -2.66699 -68.667 -8 -102s-11.166 -66.333 -17.499 -99s-12.166 -65.334 -17.499 -98.001s-8 -65.667 -8 -99c0 -42.667 11.667 -77.334 35 -104.001s57.333 -40 102 -40v-107c-44.667 0 -78.667 -13.5 -102 -40.5s-35 -61.5 -35 -103.5z" />
    <glyph glyph-name="asciitilde" unicode="~" horiz-adv-x="1098" 
d="M728.998 613c43.333 0 77.1689 14.168 101.502 42.501s36.833 65.833 37.5 112.5h144c0 -44.667 -6.16699 -85.667 -18.5 -123c-12.335 -37.333 -30.002 -69.333 -53 -96c-23 -26.667 -51.5 -47.334 -85.5 -62.001c-34 -14.668 -72.333 -22.001 -115 -22
c-34.667 0 -69 5.33301 -103 16s-66.833 22.5 -98.5 35.5l-90.501 36s-55 16.5 -79 16.5c-43.333 0 -77.166 -14 -101.499 -42s-36.833 -65.667 -37.5 -113h-144c0 44.667 6.16699 85.667 18.5 123s30 69.333 53 96c23 26.6689 51.333 47.502 85 62.5
c33.667 15 72.167 22.5 115.5 22.5c34.667 0 69 -5.5 103 -16.5s66.833 -23 98.499 -36l90.5 -36c28.667 -11 55 -16.5 78.999 -16.5z" />
    <glyph glyph-name="uni00A0" unicode="&#xa0;" horiz-adv-x="263" 
 />
    <glyph glyph-name="exclamdown" unicode="&#xa1;" horiz-adv-x="400" 
d="M119 -343v541c0 30 0.5 59.167 1.5 87.5c1 28.334 2.5 57.001 4.5 86.001s4.5 58.833 7.5 89.5s6.5 63.334 10.5 98h121c4 -34.667 7.5 -67.334 10.5 -98.001s5.5 -60.5 7.5 -89.5s3.5 -57.667 4.5 -86s1.5 -57.5 1.5 -87.5v-541h-169zM75 904
c0 18 3.16602 34.502 9.49902 49.502s15.166 28.167 26.499 39.5c11.334 11.333 24.501 20.166 39.501 26.499c15 6.34863 31.5 9.51562 49.5 9.5c17.334 0 33.501 -3.16699 48.501 -9.5c15 -6.33496 28.167 -15.168 39.5 -26.499c11.333 -11.335 20.333 -24.502 27 -39.5
c6.66699 -15 10 -31.5 10 -49.5c-0.00195312 -17.335 -3.33496 -33.668 -10 -49c-6.66699 -15.3369 -15.667 -28.6699 -27 -40c-11.333 -11.333 -24.5 -20.333 -39.5 -27s-31.167 -10 -48.5 -10c-18 0.00585938 -34.5 3.33887 -49.5 10c-15 6.66699 -28.167 15.667 -39.5 27
s-20.166 24.666 -26.499 39.999c-6.33398 15.333 -9.50098 31.666 -9.50098 48.999z" />
    <glyph glyph-name="cent" unicode="&#xa2;" horiz-adv-x="920" 
d="M828.999 206l50.002 -64.998c-82 -100.667 -203 -152.667 -363 -156l-11 -172c-1.33984 -12 -6.50684 -22.833 -15.501 -32.5c-9 -9.66699 -20.5 -14.5 -34.5 -14.5h-66l15 230c-86 18.667 -158.333 60.667 -217 126c-86 94.667 -129 222.667 -129 384
c0 155.333 41.333 280 124 374c73.333 85.333 171.333 133.666 294 144.999l12 179c1.33301 14 6.5 26 15.5 36s20.5 15 34.5 15h66l-16 -231c72 -9.33398 154.333 -33.001 246.999 -71v-262h-80c-19.335 0.00292969 -30.668 9.33594 -34 28
c-2 7.33301 -6.33301 54.666 -13 141.999c-30.667 9.33301 -55 15.333 -73 18c-24.667 4 -43.667 6.66699 -57 8v-1l-52 -760v-3h41.5c22.333 0 47.5 5.16699 75.5 15.5c28.001 10.333 51.334 21.833 70 34.5c18.6689 12.667 34.002 24.167 46 34.5
c12.002 10.333 24.835 15.5 38.5 15.5c13.667 0 24.167 -5.66699 31.5 -17zM241.001 506.002c0 -120.667 26.665 -215.332 79.998 -283.999c25.334 -32 56.001 -56.667 92.001 -74c2.66699 15.333 20.334 259.333 53.001 732
c-104.667 -24.667 -173.334 -96.334 -206.001 -215.001c-12.667 -47.333 -19 -100.333 -18.999 -159z" />
    <glyph glyph-name="sterling" unicode="&#xa3;" horiz-adv-x="1162" 
d="M53 672c0 17.333 5.33105 31.9951 15.998 43.9951s25.667 18 45 18h134v261c0 62.667 9 121.5 27 176.5s45.333 103 82 144s82.334 73.333 137.001 97s118.667 35.5 192 35.5c52 0 98.167 -6.5 138.5 -19.5c40.333 -13.0078 76.166 -30.8408 107.499 -53.499
c31.333 -22.6689 58.5 -49.002 81.5 -78.999c23 -30.002 42.5 -62.335 58.5 -96.999l-72 -46c-6.66699 -4.01758 -13.5 -6.85059 -20.5 -8.5c-7 -1.70117 -13.833 -2.53418 -20.5 -2.49902c-9.34082 0 -18.1738 1.83301 -26.5 5.5
c-8.33691 3.66699 -16.1699 10.167 -23.5 19.5l-40.5 48.501s-29 29.334 -46 41.001s-36.5 21 -58.5 28s-48 10.5 -78 10.5c-42 0 -79 -7 -111 -21s-58.667 -34 -80 -60c-21.333 -26.002 -37.333 -57.335 -48 -93.999c-10.667 -36.667 -16 -77.667 -15.999 -123v-263h441
v-72c0 -12 -5 -23 -15 -33s-22.333 -15 -37 -15h-389v-243c0 -50 -9.5 -93.167 -28.5 -129.5s-45.167 -69.5 -78.5 -99.5c19.334 3.33301 38.501 6.16602 57.5 8.49902c19 2.33301 38.5 3.5 58.5 3.5h676v-76c-0.0341797 -9.33301 -1.86719 -18.5 -5.5 -27.5
c-3.6748 -9 -8.8418 -17.333 -15.5 -25c-6.66699 -7.66699 -14.667 -13.834 -24 -18.501s-20 -7 -32 -7h-964v115c22.667 6.66699 44.334 15.667 65.001 27s39 25.5 55 42.5s28.833 37 38.5 60s14.5 49.833 14.5 80.5v289h-195v58z" />
    <glyph glyph-name="currency" unicode="&#xa4;" horiz-adv-x="1017" 
d="M151.999 672c0 38.001 5.50098 73.833 16.501 107.499c11 33.667 26.167 65.167 45.5 94.5l-153 153l91 90l151 -152c29.333 20.667 61.333 36.667 96 48c34.667 11.3408 71.334 17.0078 110 17c38 0 74 -5.5 108 -16.5c34.001 -11 65.334 -26.5 94 -46.5l153 153l89 -91
l-151 -152c20.667 -29.334 36.667 -61.167 48 -95.5s17 -70.833 17 -109.5c0 -38 -5.5 -74 -16.5 -108c-11.0029 -34 -26.1699 -65.333 -45.501 -93.999l152 -151l-91 -92l-152 152c-29.333 -20 -61.333 -35.667 -96 -47s-71 -17 -109 -17s-73.833 5.5 -107.499 16.5
c-33.667 11.001 -65.167 26.168 -94.5 45.501l-153 -153l-89 91l151 152c-20 29.333 -35.667 61.166 -47 95.499c-11.334 34.333 -17.001 70.833 -17.001 109.5zM284 671.999c0 -30.667 5.83008 -59.498 17.4971 -86.498c11.667 -27.001 27.834 -50.668 48.501 -71.001
s44.5 -36.5 71.5 -48.5s56.167 -18 87.5 -18s60.833 6 88.5 18c27.667 12.001 51.667 28.168 72 48.501s36.5 44 48.5 71c12 27.001 18 55.834 18 86.5c0 31.333 -6 60.666 -18 87.999c-12.002 27.333 -28.1689 51.333 -48.5 72c-20.333 20.668 -44.333 36.835 -72 48.501
c-27.667 11.6699 -57.167 17.5029 -88.5 17.499c-31.334 0 -60.501 -5.83301 -87.5 -17.5c-27 -11.667 -50.833 -27.834 -71.499 -48.501c-20.667 -20.667 -36.834 -44.667 -48.5 -72c-11.667 -27.334 -17.5 -56.667 -17.499 -88z" />
    <glyph glyph-name="yen" unicode="&#xa5;" horiz-adv-x="1145" 
d="M145.999 625h306.001l-408 808h149c17.333 0 31.166 -4.16699 41.499 -12.5s18.833 -19.166 25.5 -32.499l276 -566c9.33301 -23.335 17.333 -44.668 24 -64c6.66895 -19.335 12.3359 -38.668 17 -58c4.66895 19.333 10.002 38.833 16 58.5
c6 19.668 13.667 40.835 23 63.5l275 566c5.33301 11.3438 13.5 21.6768 24.5 30.999c11.002 9.36621 24.835 14.0332 41.5 14h150l-409 -808h307v-102h-340v-105h340v-103h-340v-315h-179v315h-340v103h340v105h-340v102z" />
    <glyph glyph-name="brokenbar" unicode="&#xa6;" horiz-adv-x="350" 
d="M107 1533h138v-794h-138v794zM107 452h138v-795h-138v795z" />
    <glyph glyph-name="section" unicode="&#xa7;" horiz-adv-x="902" 
d="M760 1265c-8 -14.6807 -20.332 -22.0166 -36.999 -22.002c-10 0.0185547 -21.333 3.68555 -34 11c-12.667 7.34766 -28.167 15.5146 -46.5 24.5c-18.335 9 -40.168 17.333 -65.5 25c-25.333 7.66699 -55.333 11.5 -90 11.5c-32 0 -60.833 -4.16699 -86.499 -12.5
c-25.667 -8.33301 -47.334 -19.5 -65 -33.5c-17.667 -14.0068 -31.167 -30.3398 -40.5 -48.999c-9.33301 -18.6709 -14 -38.3379 -14 -59c0.000976562 -25.333 8.16797 -47.5 24.501 -66.5c16.334 -19.0039 37.667 -36.3369 64 -51.999
c26.334 -15.6709 56.501 -30.6709 90.501 -45l103.5 -44.5c35 -15.334 69.5 -32.167 103.5 -50.499c34 -18.333 64.167 -39.333 90.5 -63s47.666 -50.834 63.999 -81.501s24.5 -66.334 24.5 -107.001c0 -54 -13 -102.167 -39 -144.5s-67 -76.166 -123 -101.499
c32.667 -24.667 59.334 -53.334 80 -86.001c20.6719 -32.667 31.0049 -72 31 -118c0 -46.667 -8.33301 -89.834 -25 -129.501s-41.167 -74 -73.5 -103s-72.333 -51.833 -120 -68.5s-102.167 -25 -163.5 -25c-70.667 0 -134.667 11.5 -192 34.5s-106 52.5 -146 88.5l41 68
c5.33301 8.66699 11.833 15.334 19.5 20.001s17.167 7 28.5 7c12 0 24.667 -4.66699 38 -14s29.666 -19.833 48.999 -31.5s43.166 -22.167 71.499 -31.5c28.334 -9.33301 63.501 -14 105.501 -14c33.333 0 63.166 4.16699 89.499 12.5s48.5 20 66.5 35
s31.667 32.833 41 53.5s14 43.667 14 69c0 30 -8.33301 56 -25 78s-38.667 41.5 -66 58.5s-58.333 32.5 -93 46.5l-107.001 43s-72.334 30.5 -107 47.5c-34.667 17 -65.667 37.167 -93 60.5s-49.333 50.5 -66 81.5c-16.667 31.001 -25 67.834 -25 110.5
c0 52 14.333 98.833 43 140.499c28.667 41.667 74 74.167 136 97.5c-33.333 25.333 -60.5 55.5 -81.5 90.5s-31.5 77.5 -31.5 127.5c0 38.667 8 75.834 24 111.501s39.333 66.834 70 93.501s68.334 48 113.001 64s95.667 24 153 24
c66.667 -0.0166016 126.5 -10.3496 179.5 -31c53 -20.6689 98.833 -49.3359 137.499 -86zM215.001 725.997c0 -34 11.667 -62.833 35 -86.5s53.166 -45 89.499 -64c36.334 -19 76.501 -37.333 120.501 -55s86.667 -36.834 128 -57.5c36 17.334 62 38.501 78 63.501
s24 53.167 24 84.5c0 24.001 -5 45.334 -15 64c-10.001 18.667 -23.668 35.667 -41 51c-17.335 15.333 -37.668 29.333 -61 42c-23.334 12.668 -48.167 24.835 -74.5 36.5l-81.501 35c-28 11.667 -55.333 24.167 -81.999 37.5c-44 -20.001 -75 -42.168 -93 -66.501
c-18 -24.334 -27 -52.501 -27 -84.5z" />
    <glyph glyph-name="dieresis" unicode="&#xa8;" horiz-adv-x="749" 
d="M309 1289c0 -15.333 -3 -29.667 -9 -43s-14.333 -25 -25 -35s-22.834 -18 -36.501 -24s-28.167 -9 -43.5 -9c-14.667 0 -28.667 3 -42 9s-25.166 14 -35.499 24c-10.333 10.0049 -18.5 21.6719 -24.5 35.001c-6 13.3379 -9 27.6709 -9 42.999c0 15.3408 3 30.0078 9 44
c6 14.0049 14.167 26.1719 24.5 36.5c10.333 10.3438 22.166 18.5107 35.499 24.5c13.333 6 27.333 9 42 9c15.333 0 29.833 -3 43.5 -9s25.834 -14.167 36.501 -24.5s19 -22.5 25 -36.5s9 -28.667 9 -44zM668 1289c0 -15.333 -3 -29.666 -9 -42.999
c-6.00293 -13.333 -14.1699 -25 -24.5 -35c-10.333 -10 -22.333 -18 -36 -24s-28.167 -9 -43.5 -9s-29.833 3 -43.5 9s-25.5 14 -35.5 24c-10 10.0049 -18 21.6719 -24 35c-6 13.3379 -9 27.6709 -9 42.999c0 15.3408 3 30.0078 9 44c6 14.0049 14 26.1719 24 36.5
c10 10.3438 21.833 18.5107 35.5 24.5c13.667 6 28.167 9 43.5 9c15.334 0 29.834 -3 43.5 -9c13.667 -6 25.667 -14.167 36 -24.5s18.5 -22.5 24.5 -36.5s9 -28.667 9 -44z" />
    <glyph glyph-name="copyright" unicode="&#xa9;" horiz-adv-x="1586" 
d="M1025 463l13.5029 8.50098c3.66699 2.34082 7.5 3.50781 11.5 3.50098c7.33301 0 12.333 -1 15 -3s6 -5 10 -9l61 -64c-38 -44 -84.667 -78.167 -140 -102.5c-55.334 -24.333 -121.667 -36.5 -199 -36.5c-65.333 0 -124.833 11.333 -178.5 34s-99.667 54.334 -138 95.001
s-68 89 -89 145s-31.5 117.333 -31.5 183.999c0 67.333 11.5 129.166 34.5 185.499s54.833 104.666 95.5 144.999c40.667 40.3359 88.834 71.6689 144.5 94c55.667 22.3379 116.167 33.5049 181.5 33.5c72.001 -0.00488281 133.334 -11.3379 184 -34
c50.667 -22.668 95 -52.335 133 -89.001l-46 -65c-3.33301 -4 -7.66602 -8 -12.999 -12s-12 -6 -20 -6c-9.33301 0 -19.166 3.66699 -29.499 11s-23.833 15.5 -40.5 24.5c-16.667 9.00391 -37.667 17.3369 -63 25c-25.334 7.66699 -57.667 11.5 -97 11.5
c-46.667 0 -88.834 -7.5 -126.501 -22.5s-69.667 -36.5 -96 -64.5c-26.335 -28 -46.668 -62 -61 -102c-14.3359 -40 -21.5029 -85 -21.5 -135c0 -51.334 7.16699 -97.167 21.5 -137.5c14.333 -40.334 34.166 -74.167 59.499 -101.5s55.666 -48.166 90.999 -62.499
s73.666 -21.5 114.999 -21.5c32 0 59 2 81 6s41 9.33301 57 16s30.167 14 42.5 22zM63 716.001c0 67.333 8.66797 132.164 26.001 194.497c17.333 62.334 41.833 120.667 73.5 175c31.667 54.334 69.834 103.667 114.501 147.999c44.667 44.3359 94 82.5029 148 114.501
c54 32.0029 112 56.6699 174 74.001c62 17.3496 126.667 26.0166 194 26c67.333 0 132.166 -8.66699 194.499 -26c62.334 -17.333 120.501 -42 174.5 -74c54 -32 103.333 -70.167 148 -114.5s82.834 -93.666 114.501 -147.999s56.167 -112.666 73.5 -174.999
c17.3447 -62.334 26.0117 -127.167 26 -194.5c0 -66.667 -8.66699 -131.167 -26 -193.5s-41.833 -120.5 -73.5 -174.5c-31.6719 -54 -69.8389 -103.167 -114.5 -147.5c-44.668 -44.333 -94.001 -82.5 -148 -114.5c-54 -32 -112.167 -56.667 -174.5 -74
c-62.334 -17.333 -127.167 -26 -194.5 -26c-67.334 0 -132.001 8.66699 -194.001 26s-120 42 -174 74s-103.333 70.167 -148 114.5s-82.834 93.5 -114.501 147.5s-56.167 112 -73.5 174s-26 126.667 -26 194zM163.001 715.999c0 -59.333 7.33496 -116.333 22.002 -171
s35.667 -105.834 63 -153.501s60 -90.834 98 -129.5c38 -38.667 80.333 -71.834 127 -99.501s97 -49 151 -64s110.333 -22.5 168.999 -22.5c88 0 170.5 16.667 247.5 50s144 78.833 201 136.5s102 125.334 135 203.001s49.5 161.167 49.5 250.5
c0 59.333 -7.5 116.666 -22.5 171.999s-36.167 106.833 -63.5 154.5s-60.166 91.167 -98.499 130.5s-80.833 72.833 -127.5 100.5c-46.668 27.667 -97.168 49.167 -151.5 64.5c-54.333 15.3486 -110.833 23.0156 -169.5 23c-88 -0.00488281 -170.333 -16.8379 -247 -50.499
c-76.667 -33.667 -143.334 -79.667 -200.001 -138s-101.334 -126.666 -134.001 -204.999c-32.667 -78.334 -49 -162.167 -49 -251.5z" />
    <glyph glyph-name="ordfeminine" unicode="&#xaa;" horiz-adv-x="666" 
d="M575.997 840l-59.9971 0.00195312c-12 0.0195312 -21 1.85254 -27 5.5c-6 3.66992 -11.667 11.5029 -17 23.5l-12 49c-16 -14 -31.667 -26.333 -47 -37s-31.333 -19.834 -48 -27.501s-34.334 -13.334 -53 -17.001c-18.667 -3.66699 -39.334 -5.5 -62 -5.5
c-25.333 0.00585938 -48.833 3.33887 -70.5 9.99902c-21.667 6.66992 -40.5 16.8369 -56.5 30.5c-16 13.6689 -28.5 30.502 -37.5 50.499c-9 20 -13.5 43.667 -13.5 71c0 22.6689 6.33301 45.1689 19 67.5c12.667 22.333 33.667 42.333 63 60s68.166 32.334 116.499 44.001
s108.166 18.167 179.499 19.5v37c0 42 -9.66699 73 -29 93s-48 30 -86 30c-25.333 0 -46.333 -3 -63 -9s-31.167 -12.5 -43.5 -19.5l-33 -19c-9.66699 -5.68652 -19.834 -8.51953 -30.501 -8.5c-9.33301 0 -17.333 2.5 -24 7.5s-11.667 10.833 -15 17.5l-22 42
c34.667 32.667 72.167 56.667 112.5 72c40.333 15.3447 84.833 23.0117 133.5 23.001c36 0 68 -5.66699 96 -17s51.667 -27 71 -47s34 -44 44 -72s15 -59 15 -93v-381zM289 923.002c34 0.00390625 63.333 6.33594 88 18.999c24.667 12.667 49 30.667 73 54v105
c-46.667 -1.33301 -86.167 -4.83301 -118.5 -10.5c-32.333 -5.6748 -58.5 -13.0078 -78.5 -22c-20 -9.01172 -34.333 -19.3447 -43 -30.999c-8.66699 -11.6689 -13 -24.502 -13 -38.5c0 -28.0029 8.66699 -47.6699 26 -59c17.333 -11.3369 39.333 -17.0039 66 -17z" />
    <glyph glyph-name="guillemotleft" unicode="&#xab;" horiz-adv-x="768" 
d="M65.001 518l-0.000976562 23.002l249 389l58 -28c9.33301 -4.66699 16.333 -10.667 21 -18s7 -15.333 7 -24c-0.00195312 -11.333 -3.33496 -22.333 -10 -33l-159 -261c-9.33301 -16 -18.666 -28.333 -27.999 -37c10 -9.33594 19.333 -21.3359 28 -36l159 -261
c3.33301 -5.33398 5.83301 -11.001 7.5 -17.001s2.5 -11.667 2.5 -17c-0.000976562 -18.667 -9.33398 -32.334 -28 -41.001l-58 -28zM361 518.002l0.000976562 23.002l249 389l58 -28c9.33301 -4.66699 16.333 -10.667 21 -18c4.68457 -7.33301 7.01758 -15.333 7 -24
c0 -11.333 -3.33301 -22.333 -10 -33l-159 -261c-9.33594 -16 -18.6689 -28.333 -28 -37c10.002 -9.33594 19.335 -21.3359 27.999 -36l159 -261c3.33301 -5.33398 5.83301 -11.001 7.5 -17.001c1.69043 -6 2.52344 -11.667 2.5 -17c0 -18.667 -9.33301 -32.334 -28 -41.001
l-58 -28z" />
    <glyph glyph-name="logicalnot" unicode="&#xac;" horiz-adv-x="1045" 
d="M87 739h860v-424h-151v289h-709v135z" />
    <glyph glyph-name="uni00AD" unicode="&#xad;" horiz-adv-x="683" 
d="M95 675h494v-151h-494v151z" />
    <glyph glyph-name="registered" unicode="&#xae;" horiz-adv-x="1586" 
d="M63 716c0 67.333 8.66797 132.165 26.001 194.498c17.333 62.334 41.833 120.667 73.5 175c31.667 54.334 69.834 103.667 114.501 147.999c44.667 44.3359 94 82.5029 148 114.5c54 32.0029 112 56.6699 174 74.001c62 17.3496 126.667 26.0166 194 26
c67.333 0 132.166 -8.66699 194.499 -26c62.334 -17.333 120.501 -42 174.5 -74c54 -32 103.333 -70.167 148 -114.5s82.834 -93.666 114.501 -147.999s56.167 -112.666 73.5 -174.999c17.3447 -62.334 26.0117 -127.167 26 -194.5c0 -66.667 -8.66699 -131.167 -26 -193.5
s-41.833 -120.5 -73.5 -174.5c-31.6719 -54 -69.8389 -103.167 -114.5 -147.5c-44.668 -44.333 -94.001 -82.5 -148 -114.5c-54 -32 -112.167 -56.667 -174.5 -74c-62.334 -17.333 -127.167 -26 -194.5 -26c-67.334 0 -132.001 8.66699 -194.001 26s-120 42 -174 74
s-103.333 70.167 -148 114.5s-82.834 93.5 -114.501 147.5s-56.167 112 -73.5 174s-26 126.667 -26 194zM163.001 715.999c0 -59.333 7.33496 -116.333 22.002 -171s35.667 -105.834 63 -153.501s60 -90.834 98 -129.5c38 -38.667 80.333 -71.834 127 -99.501
s97 -49 151 -64s110.333 -22.5 168.999 -22.5c88 0 170.5 16.667 247.5 50s144 78.833 201 136.5s102 125.334 135 203.001s49.5 161.167 49.5 250.5c0 59.333 -7.5 116.666 -22.5 171.999s-36.167 106.833 -63.5 154.5s-60.166 91.167 -98.499 130.5
s-80.833 72.833 -127.5 100.5c-46.668 27.667 -97.168 49.167 -151.5 64.5c-54.333 15.3486 -110.833 23.0156 -169.5 23c-88 -0.00488281 -170.333 -16.8379 -247 -50.499c-76.667 -33.667 -143.334 -79.667 -200.001 -138s-101.334 -126.666 -134.001 -204.999
c-32.667 -78.334 -49 -162.167 -49 -251.5zM649.003 625.999l0.00292969 -353.999h-156v892h288c114.667 -0.00683594 199.667 -20.8398 255 -62.5c55.335 -41.6689 83.002 -103.169 83 -184.5c-0.00683594 -62.667 -17.8398 -116 -53.5 -160
c-35.667 -44 -88.834 -74.333 -159.5 -91c11.333 -6.66699 21.166 -15 29.499 -25c8.33301 -10.001 16.166 -21.668 23.499 -35l228 -334h-148c-22 0 -38.333 8.33301 -49 25l-201 302c-6.00488 8.66895 -13.1719 15.3359 -21.501 20
c-8.33496 4.68066 -21.168 7.01367 -38.5 6.99902h-80zM649.006 740l116.001 0.00195312c36.667 0 67.834 3.5 93.5 10.5c25.668 7 46.335 17.167 62.001 30.5c15.668 13.333 27.001 29.666 33.999 48.999c7 19.333 10.5 41.666 10.5 66.999
c-0.0078125 24.668 -3.1748 46.335 -9.50098 65c-6.33691 18.6699 -16.6699 34.0029 -31 46c-14.335 12 -33.168 21 -56.5 27c-23.333 6 -52.333 9 -87 9h-132v-304z" />
    <glyph glyph-name="macron" unicode="&#xaf;" horiz-adv-x="755" 
d="M92 1348h574v-117h-574v117z" />
    <glyph glyph-name="degree" unicode="&#xb0;" horiz-adv-x="790" 
d="M68 1128c0 44.667 8.33301 86.6641 25 125.997c16.667 39.3359 39.667 73.5029 69 102.501c29.333 29 63.833 51.833 103.5 68.5s82.5 25 128.5 25c46 -0.0107422 88.833 -8.34375 128.5 -24.999c39.667 -16.6689 74.167 -39.502 103.5 -68.499
c29.333 -29 52.333 -63.167 69 -102.5c16.6709 -39.333 25.0039 -81.333 25 -126c0 -44 -8.33301 -85.5 -25 -124.5s-39.667 -73 -69 -102s-63.833 -52 -103.5 -69s-82.5 -25.5 -128.5 -25.5s-88.833 8.5 -128.5 25.5s-74.167 40 -103.5 69s-52.333 63 -69 102
s-25 80.5 -25 124.5zM195 1127c0 -28 4.99902 -54.167 14.999 -78.5s24 -45.5 42 -63.5c18 -18.002 39.167 -32.1689 63.5 -42.5c24.334 -10.3408 50.501 -15.5078 78.501 -15.501c28 0 54 5.16699 78 15.5s45 24.5 63 42.5c18 18.002 32 39.1689 42 63.5
c10 24.335 15 50.502 15 78.5c0 28 -5 54.333 -15 79s-24 46.167 -42 64.5c-18 18.3457 -39 32.6787 -63 43c-24 10.3535 -50 15.5205 -78 15.5c-28 0 -54.167 -5.16699 -78.5 -15.5s-45.5 -24.666 -63.5 -42.999s-32 -39.833 -42 -64.5c-10 -24.6689 -15 -51.002 -15 -79z
" />
    <glyph glyph-name="plusminus" unicode="&#xb1;" horiz-adv-x="1091" 
d="M620 1202v-376h407v-136h-407v-368h-146v368h-405v136h405v376h146zM69 215h958v-135h-958v135z" />
    <glyph glyph-name="twosuperior" unicode="&#xb2;" horiz-adv-x="653" 
d="M249 1005c36 9.33301 66.332 14 90.999 14h155c2.6709 33.335 4.33789 51.668 5.00098 54.999c2.66699 13.3418 10.667 20.0088 24 20h55v-194h-511v43c0 20.6689 7.33301 38.3359 22 53.001l221 219c80 80 120 150 120 210c0 34.0029 -10 60.1699 -30 78.5
c-20 18.3447 -45 27.5117 -75 27.5c-58 0 -97 -30 -117 -90c-11.333 -20 -26 -30 -44 -30c-5.33301 0.0429688 -11.333 0.709961 -18 2l-71 12c10 70.667 38 123.667 84 159c46 35.3428 103.333 53.0098 172 53c69.333 0 125 -19 167 -57c42 -38.002 63 -88.335 63 -151
c0 -66 -31.333 -132.667 -94 -200l-57 -59z" />
    <glyph glyph-name="threesuperior" unicode="&#xb3;" horiz-adv-x="630" 
d="M324.004 1637c34 -0.0253906 64.6631 -4.85938 91.9961 -14.501c27.333 -9.67285 50.833 -23.0059 70.5 -40c19.6699 -17.0059 34.8369 -36.8389 45.5 -59.499c10.6689 -22.6699 16.002 -47.3369 16 -74.001c-0.000976562 -85.333 -39.668 -143 -119.001 -173
c44 -12.6738 77.5 -32.0068 100.5 -58c23 -26 34.5 -59.667 34.5 -101c0 -36.6689 -7 -69.002 -21 -97c-14 -28 -32.5 -51.5 -55.5 -70.5s-49.667 -33.333 -80 -43s-61.5 -14.5 -93.5 -14.5c-38 0 -71 4.16699 -99 12.5s-52.167 20.666 -72.5 36.999
s-37.666 36.5 -51.999 60.5c-14.333 24.002 -26.5 51.6689 -36.5 83l55 24c10 4 19.667 6 29 6c19.333 0 32.666 -7.66699 39.999 -23c4 -8.6748 9 -18.3418 15 -29c6 -10.667 14 -20.667 24 -30c10 -9.33691 22.167 -17.1699 36.5 -23.499
c14.334 -6.34082 32.167 -9.50781 53.5 -9.5c20.667 0.0078125 38.834 3.34082 54.501 10c15.667 6.67383 28.834 15.1738 39.501 25.5c10.667 10.3369 18.667 22.1699 24 35.499c5.33496 13.3379 8.00195 27.0049 8 41.001c-0.00195312 20.0039 -2.83496 37.1709 -8.5 51.5
c-5.66797 14.3428 -15.001 26.1758 -28 35.5c-13 9.33301 -30.333 16.333 -51.999 21c-21.667 4.66699 -48.167 7 -79.5 7v87c58 0.666992 98.833 11 122.5 31s35.5 47.333 35.5 82c0 33.3389 -9.66699 58.6719 -29 76c-19.333 17.3447 -45 26.0117 -77 26
s-57.5 -7.84473 -76.5 -23.5c-19 -15.6719 -32.5 -36.8389 -40.5 -63.5c-5.33301 -10.6826 -10.833 -18.5156 -16.5 -23.499c-5.66699 -5 -13.5 -7.5 -23.5 -7.5c-2.66699 0.0429688 -5.5 0.209961 -8.5 0.5c-3 0.333008 -6.16699 0.833008 -9.5 1.5l-67 12
c4.66699 35.335 14.334 66.168 29.001 92.5c14.667 26.333 32.834 48.333 54.501 66s46.5 31 74.5 40s58.333 13.5 91 13.5z" />
    <glyph glyph-name="acute" unicode="&#xb4;" horiz-adv-x="540" 
d="M472 1449l-233 -258c-9.33301 -10 -18.5 -17.167 -27.5 -21.5s-20.5 -6.5 -34.5 -6.5h-106l148 242c9.33398 15.3389 19.501 26.5059 30.5 33.5c11 7 27.167 10.5 48.5 10.5h174z" />
    <glyph glyph-name="mu" unicode="&#xb5;" horiz-adv-x="1049" 
d="M285 1013l-0.000976562 -658c0 -72.667 18 -129 54 -169s89 -60 159 -60c52 0 101 12.333 147 37c46.001 24.667 88.334 59 127 103v747h178v-1013h-106c-25.333 0 -41.333 12.333 -48 37l-14 109c-44.667 -48 -90.5 -83.333 -137.5 -106s-99.5 -34 -157.5 -34
c-49.333 0 -92.666 8.5 -129.999 25.5s-69 40.833 -95 71.5c4.66699 -28 8 -56.5 10 -85.5s3 -56.167 3 -81.5v-279h-89c-25.333 -0.000976562 -44.833 6.66602 -58.5 20c-13.667 13.333 -20.5 32 -20.5 56v1280h178z" />
    <glyph glyph-name="paragraph" unicode="&#xb6;" horiz-adv-x="1359" 
d="M1312 1433v-153.002h-219v-1481h-157v1481h-277v-1481h-157v861c-69.333 0 -131.666 10.167 -186.999 30.5s-102.5 48 -141.5 83s-69 76.167 -90 123.5s-31.5 98 -31.5 152c0 57.335 10.5 109.502 31.5 156.501c21 47 51 87.333 90 121s86.167 59.834 141.5 78.501
s117.666 28 186.999 28h810z" />
    <glyph glyph-name="periodcentered" unicode="&#xb7;" horiz-adv-x="478" 
d="M90 593c0 20.6689 3.83105 40.3359 11.498 59c7.66699 18.667 18.334 34.667 32.001 48s29.5 24 47.5 32s37 12 57 12c20.667 0 40.334 -4 59.001 -12c18.667 -8.00098 34.667 -18.668 48 -32c13.334 -13.333 24.001 -29.333 32.001 -48s12 -38.334 12 -59.001
c0 -20 -4 -39 -12 -57c-8 -18.001 -18.667 -33.834 -32 -47.5c-13.333 -13.668 -29.333 -24.335 -48 -32.001c-18.667 -7.66895 -38.334 -11.502 -59 -11.499c-20 0 -39 3.83301 -57 11.5s-33.833 18.334 -47.5 32.001s-24.334 29.5 -32.001 47.5s-11.5 37 -11.5 57z" />
    <glyph glyph-name="cedilla" unicode="&#xb8;" horiz-adv-x="528" 
d="M121 -247c4 0.00292969 8.66797 -1.16406 14.001 -3.5l18.999 -8s16.333 -5.66699 27 -8s23 -3.5 37 -3.5c28 0 49.167 5.5 63.5 16.5c14.334 11 21.501 25.167 21.5 42.5c0 12.666 -3.66699 23.333 -11 32s-17.833 16 -31.5 22s-30.5 11 -50.5 15
s-42.667 7.66699 -68 11l43 141h112l-24 -80c60 -13.333 103.5 -31.5 130.5 -54.5s40.5 -52.5 40.5 -88.5c-0.000976562 -21.333 -5.33398 -40.5 -16 -57.5c-10.667 -17 -25.5 -31.5 -44.5 -43.5s-41.833 -21.167 -68.499 -27.5c-26.667 -6.33301 -56 -9.5 -88 -9.5
c-27.333 0 -53.333 2.83301 -78 8.5s-47.334 13.167 -68.001 22.5l17 55c4 12 11.667 18 23 18z" />
    <glyph glyph-name="onesuperior" unicode="&#xb9;" horiz-adv-x="566" 
d="M107 985h147v440l4 43l-107 -88c-8 -6 -16.667 -9 -26 -9c-15.333 0.0205078 -26 4.6875 -32 14l-39 56l222 190h108v-646h130v-85h-407v85z" />
    <glyph glyph-name="ordmasculine" unicode="&#xba;" horiz-adv-x="759" 
d="M380 1449c46.667 0 88.835 -7.16699 126.502 -21.5s69.834 -34.833 96.5 -61.5c26.6689 -26.667 47.3359 -59.167 62 -97.5c14.6709 -38.333 22.0039 -81.166 22 -128.499c0 -48.001 -7.33301 -91.334 -22 -130c-14.667 -38.667 -35.334 -71.5 -62.001 -98.5
c-26.667 -27.002 -58.834 -47.6689 -96.501 -62.001c-37.667 -14.3379 -79.834 -21.5049 -126.5 -21.5c-47.333 0 -90 7.16699 -128 21.5s-70.5 35 -97.5 62c-27 27.001 -47.833 59.834 -62.5 98.499c-14.667 38.667 -22 82 -22 130c0 47.3359 7.33301 90.1689 22 128.5
c14.667 38.333 35.5 70.833 62.5 97.5s59.5 47.167 97.5 61.5c38 14.3447 80.667 21.5117 128 21.501zM380.001 934c56 0 97.833 17.499 125.5 52.499c27.668 35 41.501 85.833 41.5 152.5c0 66.667 -13.833 117.334 -41.5 152.001s-69.5 52 -125.5 52
c-58 -0.00488281 -100.833 -17.3379 -128.5 -52c-27.667 -34.668 -41.5 -85.335 -41.5 -152c0 -66.668 13.833 -117.501 41.5 -152.5c27.667 -35 70.5 -52.5 128.5 -52.5z" />
    <glyph glyph-name="guillemotright" unicode="&#xbb;" horiz-adv-x="772" 
d="M163 129l-57.999 28.002c-18.667 8.66699 -28 22.334 -28 41.001c0 11.333 3.33301 22.666 9.99902 33.999l159 261c8.66699 16 17.667 28 27 36c-8 7.33301 -17 19.666 -27 36.999l-159 261c-6.66699 11.333 -10 22.666 -10 33.999c0 18.668 9.33301 32.335 28 41l58 28
l249 -389v-23zM708.001 541.002l-0.000976562 -22.998l-249 -389l-58 28c-18.668 8.66699 -28.001 22.334 -28 41.001c0 11.333 3.33301 22.666 10 33.999l159 261c8.66699 16 17.667 28 27 36c-8 7.33301 -17 19.666 -27 36.999l-159 261
c-6.66797 11.333 -10.001 22.666 -9.99902 33.999c0 18.668 9.33301 32.335 28 41l58 28z" />
    <glyph glyph-name="onequarter" unicode="&#xbc;" horiz-adv-x="1381" 
d="M1233 267l109.002 0.000976562v-65c-0.0429688 -7.33398 -2.37598 -13.501 -7 -18.501c-4.67773 -5 -11.3447 -7.5 -20.001 -7.5h-82v-176h-109v176h-306c-12 0 -21.5 2.66699 -28.5 8c-7.00684 5.33301 -11.1738 12 -12.501 20l-10 57l342 468h124v-462zM93 788.001
l147 -0.000976562v440l4 43l-107 -88c-8 -6 -16.667 -9 -26 -9c-15.333 0.0273438 -26 4.69434 -32 14.001l-39 56l222 190h108v-646h130v-85h-407v85zM1124 508c0 12.6689 0.333008 26.335 1 41c0.666992 14.667 2 29.667 4 45l-241 -327h236v241zM372 52.999
c-12.667 -20.667 -26.334 -34.667 -41 -42c-14.667 -7.33301 -31.667 -11 -51 -11h-76l818 1372c12.0039 19.333 25.6709 34.333 41 45c15.3359 10.667 33.6689 16 55 16h77z" />
    <glyph glyph-name="onehalf" unicode="&#xbd;" horiz-adv-x="1371" 
d="M981.002 105c36 9.33301 66.3311 14 90.998 14h155c2.66699 33.333 4.33398 51.666 5.00098 54.999c2.66699 13.333 10.667 20 24 20h55v-194h-511v43c0.00488281 20.667 7.33789 38.334 22 53.001l221 219c80 80 120 150 120 210c0 34 -10 60.167 -30 78.5
c-20.002 18.333 -45.335 27.5 -75.999 27.5c-57.333 0 -96 -30 -116 -90c-11.3359 -20 -26.0029 -30 -44 -30c-5.33301 0.0078125 -11.333 0.674805 -18 2l-71 12c10 70.667 38 123.667 84 159s103.333 53 172 53c69.334 0 125.001 -19 167 -57c42 -38 63 -88.333 63 -151
c-0.00390625 -66 -31.3369 -132.667 -94 -200l-57 -59zM93 788h147v440l4 43l-107 -88c-8 -6 -18.167 -9 -30.5 -9c-12.333 0.0263672 -21.5 4.69336 -27.5 14l-39 56l222 190h108v-646h130v-85h-407v85zM328 53c-21.333 -35.333 -52 -53 -92 -53h-76l818 1372
c25.333 40.667 57.333 61 96 61h77z" />
    <glyph glyph-name="threequarters" unicode="&#xbe;" horiz-adv-x="1424" 
d="M1276 267l109.002 0.000976562v-65c-0.0644531 -7.33398 -2.39746 -13.501 -7 -18.501c-4.67773 -5 -11.3447 -7.5 -20.001 -7.5h-82v-176h-109v176h-306c-12 0 -21.5 2.66699 -28.5 8c-7.00684 5.33301 -11.1738 12 -12.501 20l-10 57l342 468h124v-462zM318.003 1440
c34 -0.0214844 64.6631 -4.84961 91.9961 -14.4941c27.333 -9.67188 50.833 -23.0049 70.5 -40c19.6689 -17.0049 34.8359 -36.8379 45.5 -59.499c10.6689 -22.6689 16.002 -47.3359 16 -74c0 -85.333 -39.667 -143 -119 -173c44 -12.6729 77.5 -32.0059 100.5 -58
c23 -26.001 34.5 -59.668 34.5 -101c0 -36.667 -7 -69 -21 -97s-32.5 -51.5 -55.5 -70.5s-49.667 -33.333 -80 -43s-61.5 -14.5 -93.5 -14.5c-38 0 -71 4.16699 -99 12.5s-52.167 20.666 -72.5 36.999s-37.666 36.5 -51.999 60.5s-26.5 51.667 -36.5 83l55 24
c10 4 19.667 6 29 6c19.333 -0.00488281 32.666 -7.67188 39.999 -23c4 -8.66699 9 -18.334 15 -29.001s14 -20.667 24 -30c10 -9.33691 22.167 -17.1699 36.5 -23.5c14.334 -6.33984 32.167 -9.50684 53.5 -9.50098c20.667 0.00585938 38.834 3.33887 54.501 9.99902
c15.667 6.66699 28.834 15.167 39.501 25.5s18.667 22.166 24 35.499c5.33496 13.333 8.00195 27 8 41c-0.00195312 20 -2.83496 37.167 -8.5 51.5c-5.66797 14.333 -15.001 26.166 -28 35.499c-13.001 9.33301 -30.334 16.333 -52 21c-21.667 4.66699 -48.167 7 -79.5 7v87
c58 0.666992 98.833 11 122.5 31s35.5 47.333 35.5 82c0 33.3359 -9.66699 58.6689 -29 76c-19.333 17.3486 -45 26.0156 -77 26c-32 -0.0146484 -57.5 -7.84766 -76.5 -23.499c-19 -15.6768 -32.5 -36.8438 -40.5 -63.501c-5.33301 -10.6807 -10.833 -18.5137 -16.5 -23.5
c-5.66699 -5 -13.5 -7.5 -23.5 -7.5c-2.66699 0.0371094 -5.5 0.204102 -8.5 0.5c-3 0.333008 -6.16699 0.833008 -9.5 1.5l-67 12c4.66699 35.334 14.334 66.167 29.001 92.499c14.667 26.333 32.834 48.333 54.501 66s46.5 31 74.5 40s58.333 13.5 91 13.5zM1167 508.006
c0 12.6689 0.333008 26.335 1 41c0.666992 14.667 2 29.667 4 45l-241 -327h236v241zM418.999 53.0049c-12.667 -20.667 -26.334 -34.667 -41 -42c-14.667 -7.33301 -31.667 -11 -51 -11h-76l818 1372c12.0039 19.333 25.6709 34.333 41 45c15.3359 10.667 33.6689 16 55 16
h77z" />
    <glyph glyph-name="questiondown" unicode="&#xbf;" horiz-adv-x="828" 
d="M782.999 -212c-20.667 -19.333 -43.4971 -37.665 -68.4971 -54.999c-25.001 -17.333 -52.168 -32.666 -81.501 -45.999s-61.333 -23.833 -96 -31.5c-34.667 -7.66504 -72 -11.498 -112 -11.5c-52.667 0 -101.5 7.33301 -146.5 22s-83.833 35.667 -116.5 63
s-58.334 60.666 -77.001 99.999s-28 84 -28 134c0 50.667 7.5 93.667 22.5 129s34 65.666 57 90.999s48.167 47 75.5 65l76.5 51s44 32.167 61 48.5c17 16.334 26.833 35.501 29.5 57.501l18 154h122l12 -167v-12c0 -29.333 -7.5 -54.333 -22.5 -75s-34 -39.334 -57 -56
c-23 -16.667 -47.667 -32.834 -74 -48.501s-51 -33.5 -74 -53.5s-42 -43.333 -57 -70s-22.5 -59.667 -22.5 -99c0 -29.333 5.66699 -55.5 17 -78.5s26.666 -42.667 45.999 -59s42.166 -28.833 68.499 -37.5c26.334 -8.66699 54.501 -13 84.501 -13c40.667 0 75.5 5 104.5 15
s53.5 21 73.5 33c20.002 12 36.335 23 49 33c12.6709 10 23.0039 15 31 15c9.33301 0 16.833 -2 22.5 -6c5.67773 -4 10.8447 -9.66699 15.5 -17zM337.002 903.001c0.000976562 17.333 3.16699 33.668 9.49902 49.001c6.33398 15.333 15.001 28.666 26 39.999
c11 11.333 24.167 20.333 39.5 27c15.334 6.66699 31.667 10 49 10c17.334 -0.015625 33.667 -3.34863 49 -10c15.333 -6.66699 28.666 -15.667 39.999 -27c11.333 -11.335 20.166 -24.668 26.499 -39.999c6.33301 -15.334 9.5 -31.667 9.5 -48.999
c-0.00390625 -18 -3.1709 -34.5 -9.5 -49.5c-6.33594 -15.002 -15.1689 -28.1689 -26.5 -39.501c-11.334 -11.335 -24.667 -20.168 -39.999 -26.5c-15.333 -6.33887 -31.666 -9.50586 -48.999 -9.5c-17.333 0 -33.666 3.16699 -48.999 9.5s-28.5 15.166 -39.5 26.499
s-19.667 24.5 -26 39.5s-9.5 31.5 -9.5 49.5z" />
    <glyph glyph-name="Agrave" unicode="&#xc0;" 
d="M1470 112c17.3447 -4 26.0117 -15 26 -33v-79h-411v79c0 18 9 29.333 27 34l82 23l-112 289h-618l-112 -289l82 -23c18 -4.66699 27 -16 27 -34v-79h-411v79c0 18 8.66699 29 26 33l80 24l519 1297h197l518 -1297zM518 565h510l-212 550c-14.667 36 -29 81 -43 135
c-16 -58.668 -30 -104.001 -42 -136zM612 1782c21.333 0 37.333 -2.16895 48 -6.50195s22.667 -13.166 36 -26.499l211 -203h-139c-14 0.046875 -25 1.21387 -33 3.5c-8.00293 2.35742 -17.6699 7.52441 -29 15.501l-295 217h201z" />
    <glyph glyph-name="Aacute" unicode="&#xc1;" 
d="M1470 112c17.3447 -4 26.0117 -15 26 -33v-79h-411v79c0 18 9 29.333 27 34l82 23l-112 289h-618l-112 -289l82 -23c18 -4.66699 27 -16 27 -34v-79h-411v79c0 18 8.66699 29 26 33l80 24l519 1297h197l518 -1297zM518 565h510l-212 550c-14.667 36 -29 81 -43 135
c-16 -58.668 -30 -104.001 -42 -136zM1113 1782l-293.999 -216.001c-11.333 -8.01172 -21.333 -13.3447 -30 -15.999c-8.66699 -2.71387 -20 -4.04688 -34 -4h-138l211 203c6.66992 6.66699 12.8369 12 18.5 16c5.66992 4 11.5029 7.33301 17.5 10
c6 2.66699 12.667 4.5 20 5.5s16.666 1.5 27.999 1.5h201z" />
    <glyph glyph-name="Acircumflex" unicode="&#xc2;" 
d="M1470 112c17.3447 -4 26.0117 -15 26 -33v-79h-411v79c0 18 9 29.333 27 34l82 23l-112 289h-618l-112 -289l82 -23c18 -4.66699 27 -16 27 -34v-79h-411v79c0 18 8.66699 29 26 33l80 24l519 1297h197l518 -1297zM518 565h510l-212 550c-14.667 36 -29 81 -43 135
c-16 -58.668 -30 -104.001 -42 -136zM1098 1546l-134.997 -0.00195312c-8.00391 0.046875 -16.6709 1.21387 -26.001 3.5c-9.33887 2.35742 -17.0059 5.52441 -23 9.50098l-130 95c-5.33301 2.66699 -9.33301 5.33398 -12 8.00098c-5.33301 -4 -9.33301 -6.66699 -12 -8
l-130 -95c-6.00391 -4 -13.6709 -7.16699 -23.001 -9.5c-9.33594 -2.33301 -18.0029 -3.5 -26.001 -3.5h-135l238 210h176z" />
    <glyph glyph-name="Atilde" unicode="&#xc3;" 
d="M1470 112c17.3447 -4 26.0117 -15 26 -33v-79h-411v79c0 18 9 29.333 27 34l82 23l-112 289h-618l-112 -289l82 -23c18 -4.66699 27 -16 27 -34v-79h-411v79c0 18 8.66699 29 26 33l80 24l519 1297h197l518 -1297zM518 565h510l-212 550c-14.667 36 -29 81 -43 135
c-16 -58.668 -30 -104.001 -42 -136zM893 1663c23.333 0 41.1709 6.83398 53.5039 20.501s18.833 32.834 19.5 57.501h98c0 -28.6699 -3.66699 -55.0029 -11 -79c-7.33301 -24.0098 -18 -44.8428 -32 -62.5c-14 -17.6729 -31.333 -31.3398 -52 -41.001
c-20.667 -9.69043 -44.334 -14.5234 -71.001 -14.5c-23.334 0 -45.667 4.33301 -67 13s-41.833 18.167 -61.5 28.5l-55.5 28.5c-17.335 8.66699 -34.002 13 -50 13c-22.667 0 -40.167 -7.16699 -52.5 -21.5s-18.833 -33.5 -19.5 -57.5h-100
c0.00585938 28.667 3.83887 55.167 11.5 79.5c7.66699 24.3457 18.667 45.1787 33 62.499c14.333 17.3398 32 31.0068 53 41c21 10 44.5 15 70.5 15c23.333 -0.0400391 45.666 -4.37305 66.999 -13c21.333 -8.66699 41.666 -18.167 60.999 -28.5l54.999 -28.5
c17.333 -8.70508 34 -13.0381 50 -13z" />
    <glyph glyph-name="Adieresis" unicode="&#xc4;" 
d="M1470 112c17.3447 -4 26.0117 -15 26 -33v-79h-411v79c0 18 9 29.333 27 34l82 23l-112 289h-618l-112 -289l82 -23c18 -4.66699 27 -16 27 -34v-79h-411v79c0 18 8.66699 29 26 33l80 24l519 1297h197l518 -1297zM518 565h510l-212 550c-14.667 36 -29 81 -43 135
c-16 -58.668 -30 -104.001 -42 -136zM670 1666c0 -14.6729 -3 -28.5068 -9 -41.501c-6 -13 -14 -24.5 -24 -34.5c-10 -10.0117 -21.833 -17.8447 -35.5 -23.499c-13.667 -5.69043 -28.167 -8.52344 -43.5 -8.5c-14 0 -27.5 2.83301 -40.5 8.5s-24.5 13.5 -34.5 23.5
s-18 21.5 -24 34.5s-9 26.833 -9 41.5c0 15.333 3 29.833 9 43.5s14 25.5 24 35.5s21.5 18 34.5 24s26.5 9 40.5 9c15.333 0 29.833 -3 43.5 -9c13.668 -6 25.501 -14 35.5 -24c10 -10.0068 18 -21.8398 24 -35.5c6 -13.667 9 -28.167 9 -43.5zM1096 1666
c0 -14.6729 -3 -28.5068 -9 -41.501c-6 -13 -14 -24.5 -24 -34.5c-10 -10.0117 -21.667 -17.8447 -35 -23.499c-13.333 -5.69043 -27.333 -8.52344 -42 -8.5c-15.334 0 -29.667 2.83301 -42.999 8.5c-13.335 5.66699 -25.002 13.5 -35 23.5c-10 10 -17.833 21.5 -23.5 34.5
s-8.5 26.833 -8.5 41.5c0.00683594 15.333 2.83984 29.833 8.5 43.5c5.67188 13.667 13.5049 25.5 23.5 35.5c10 10 21.667 18 35 24s27.666 9 42.999 9c14.6709 0 28.6709 -3 42 -9c13.3369 -6 25.0039 -14 35 -24c10 -10.0068 18 -21.8398 24 -35.5
c6 -13.667 9 -28.167 9 -43.5z" />
    <glyph glyph-name="Aring" unicode="&#xc5;" 
d="M1470 112c17.3447 -4 26.0117 -15 26 -33v-79h-411v79c0 18 9 29.333 27 34l82 23l-112 289h-618l-112 -289l82 -23c18 -4.66699 27 -16 27 -34v-79h-411v79c0 18 8.66699 29 26 33l80 24l519 1297h197l518 -1297zM518 565h510l-212 550c-14.667 36 -29 81 -43 135
c-16 -58.668 -30 -104.001 -42 -136zM581 1659c0 26 5.16797 49.9971 15.501 71.9971s24 40.833 41 56.5c17.001 15.667 36.834 27.834 59.499 36.501c22.667 8.66699 46.667 13 72 13c26 -0.0283203 50.5 -4.36133 73.5 -13c23.0029 -8.68066 43.3359 -20.8477 61 -36.5
c17.6689 -15.6768 31.502 -34.5098 41.5 -56.5c10 -22 15 -46 15 -72c0 -25.333 -5 -48.666 -15 -69.999s-23.833 -39.666 -41.5 -54.999s-38 -27.333 -61 -36c-23 -8.7002 -47.5 -13.0332 -73.5 -12.999c-25.333 0 -49.333 4.33301 -72 13s-42.5 20.667 -59.5 36
c-17.001 15.3389 -30.668 33.6719 -41 54.999c-10.3379 21.3369 -15.5049 44.6699 -15.5 70zM670.001 1659c0 -28.6699 9.00098 -52.5029 27.001 -71.5c18 -19 42.667 -28.5 74 -28.5c30 0 54.167 9.5 72.5 28.5s27.5 42.833 27.5 71.5
c-0.00390625 30 -9.1709 54.333 -27.501 73c-18.334 18.667 -42.501 28 -72.5 28c-31.334 -0.0136719 -56.001 -9.34668 -74 -28c-18 -18.6699 -27 -43.0029 -27 -73z" />
    <glyph glyph-name="AE" unicode="&#xc6;" horiz-adv-x="1942" 
d="M51 79c0 18 8.66699 29 26 33v1l80 23l615 1165l-26.5 5c-10.3389 2 -16.1719 3.33301 -17.499 4c-20 4 -30 16.333 -30 37v86h1165v-345h-97c-22.6738 0 -36.3408 11.333 -41.001 34c-1.33301 6 -6 57 -14 153h-597l60 -476h529v-152h-510l61 -489h458
c7.36035 88.667 11.6934 136 12.999 142c4.66699 22.667 18.334 34 41.001 34h97v-334h-916v86c0 20.667 10 33 30 37c5.33301 1.33301 20.833 4.5 46.5 9.5s42.167 8.16699 49.5 9.5l-31 250h-556l-132 -256l81 -23c18.6689 -4.66699 28.002 -16 28 -34v-79h-227h-1h-78
h-106v79zM559 532h465l-94 753c-10.667 -36 -29 -83 -55 -141z" />
    <glyph glyph-name="Ccedilla" unicode="&#xc7;" horiz-adv-x="1270" 
d="M775 1449c113.333 -0.00292969 261.002 -34.335 443.002 -102.999v-112v-222h-97c-22.6709 0.00195312 -36.3379 11.335 -41 34c-2 8 -5 38.333 -9 91c-4.04883 52.667 -6.38184 82.667 -7 90c-298.667 94.667 -523.667 62 -675 -98
c-97.333 -103.333 -146 -241 -146 -413c0 -173.333 48 -312 144 -416c90.667 -99.333 208.334 -149 353.001 -149c83.333 0 146.333 8 189 24c65.333 24 124.333 59.333 177 106c11.333 10 22.333 15 33 15c10.667 -0.000976562 20.334 -4.33398 29.001 -13l76 -83
c-117.333 -136.667 -277 -208.334 -479 -215.001l-15 -55c60 -13.333 103.5 -31.5 130.5 -54.5s40.5 -48.833 40.5 -77.5s-5.33301 -51.5 -16 -68.5s-25.667 -31.5 -45 -43.5c-38.667 -24.666 -90.667 -36.999 -156 -36.999c-51.334 0 -100.001 10.333 -146.001 31l17 55
c4 12 11.667 18 23 18c4 0.00292969 8.66699 -1.16406 14 -3.5c5.33301 -2.33301 11.666 -4.83301 18.999 -7.5c18.667 -8 41 -12 66.999 -12c26 0 46.167 5.5 60.5 16.5s21.5 24 21.5 39c-0.00878906 15 -3.67578 26.833 -11 35.5c-7.33496 8.66699 -18.002 16 -32.001 22
c-22 10 -61.333 18.667 -118 26l36 118c-172.667 15.333 -313.667 82 -423 200c-124.667 135.333 -187 311.666 -187 528.999c0 216.667 66.667 393 200 529s310 204 530 204z" />
    <glyph glyph-name="Egrave" unicode="&#xc8;" horiz-adv-x="1173" 
d="M67 1433l1027 -0.000976562v-346h-96c-23.333 0.00390625 -37.333 11.6709 -42 35c-1.34473 6 -6.01172 57 -14 153h-536v-476h528v-152h-528v-489h537c7.33301 88.667 11.666 136 12.999 142c4.6709 22.667 18.6709 34 42 34h96v-334h-1027v86c0 20.667 10 33 30 37
l114 23v1141c-64 12.667 -102 20.334 -114 23.001c-20 4 -30 16.333 -30 37v86zM505.001 1782c21.333 0 37.333 -2.16895 48 -6.50195s22.667 -13.166 36 -26.499l211 -203h-139c-14 0.046875 -25 1.21387 -33 3.5c-8.00391 2.35742 -17.6709 7.52441 -29 15.501l-295 217
h201z" />
    <glyph glyph-name="Eacute" unicode="&#xc9;" horiz-adv-x="1173" 
d="M67 1433l1027 -0.000976562v-346h-96c-23.333 0.00390625 -37.333 11.6709 -42 35c-1.34473 6 -6.01172 57 -14 153h-536v-476h528v-152h-528v-489h537c7.33301 88.667 11.666 136 12.999 142c4.6709 22.667 18.6709 34 42 34h96v-334h-1027v86c0 20.667 10 33 30 37
l114 23v1141c-64 12.667 -102 20.334 -114 23.001c-20 4 -30 16.333 -30 37v86zM1006 1782l-294 -216c-11.333 -8.01172 -21.333 -13.3447 -30 -16c-8.66699 -2.71387 -20 -4.04688 -34 -4h-138l211 203c6.67285 6.66699 12.8398 12 18.501 16
c5.66992 4 11.5029 7.33301 17.5 10c6 2.66699 12.667 4.5 20 5.5s16.666 1.5 27.999 1.5h201z" />
    <glyph glyph-name="Ecircumflex" unicode="&#xca;" horiz-adv-x="1173" 
d="M67 1433l1027 -0.000976562v-346h-96c-23.333 0.00390625 -37.333 11.6709 -42 35c-1.34473 6 -6.01172 57 -14 153h-536v-476h528v-152h-528v-489h537c7.33301 88.667 11.666 136 12.999 142c4.6709 22.667 18.6709 34 42 34h96v-334h-1027v86c0 20.667 10 33 30 37
l114 23v1141c-64 12.667 -102 20.334 -114 23.001c-20 4 -30 16.333 -30 37v86zM991.001 1546l-134.998 -0.00195312c-8.00488 0.046875 -16.6719 1.21387 -26 3.5c-9.33691 2.35742 -17.0039 5.52441 -23.001 9.50098l-130 95
c-5.33301 2.66699 -9.33301 5.33398 -12 8.00098c-5.33301 -4 -9.33301 -6.66699 -12 -8l-130 -95c-6.00195 -4 -13.6689 -7.16699 -23 -9.5c-9.33691 -2.33301 -18.0039 -3.5 -26.001 -3.5h-135l238 210h176z" />
    <glyph glyph-name="Edieresis" unicode="&#xcb;" horiz-adv-x="1173" 
d="M67 1433l1027 -0.000976562v-346h-96c-23.333 0.00390625 -37.333 11.6709 -42 35c-1.34473 6 -6.01172 57 -14 153h-536v-476h528v-152h-528v-489h537c7.33301 88.667 11.666 136 12.999 142c4.6709 22.667 18.6709 34 42 34h96v-334h-1027v86c0 20.667 10 33 30 37
l114 23v1141c-64 12.667 -102 20.334 -114 23.001c-20 4 -30 16.333 -30 37v86zM563.001 1666c0 -14.6729 -3 -28.5068 -9 -41.501c-6 -13 -14 -24.5 -24 -34.5c-10 -10.0117 -21.833 -17.8447 -35.5 -23.499c-13.667 -5.69043 -28.167 -8.52344 -43.5 -8.5
c-14 0 -27.5 2.83301 -40.5 8.5s-24.5 13.5 -34.5 23.5s-18 21.5 -24 34.5s-9 26.833 -9 41.5c0 15.333 3 29.833 9 43.5s14 25.5 24 35.5s21.5 18 34.5 24s26.5 9 40.5 9c15.333 0 29.833 -3 43.5 -9c13.668 -6 25.501 -14 35.5 -24c10 -10.0068 18 -21.8398 24 -35.5
c6 -13.667 9 -28.167 9 -43.5zM989.001 1666c0 -14.6729 -2.99805 -28.5068 -8.99805 -41.501c-6 -13 -14 -24.5 -24 -34.5c-10.002 -10.0117 -21.6689 -17.8447 -35 -23.499c-13.333 -5.69043 -27.333 -8.52344 -42 -8.5c-15.335 0 -29.668 2.83301 -43 8.5
c-13.335 5.66699 -25.002 13.5 -35 23.5c-10 10 -17.833 21.5 -23.5 34.5s-8.5 26.833 -8.5 41.5c0.00585938 15.333 2.83887 29.833 8.49902 43.5c5.66992 13.667 13.5029 25.5 23.5 35.5c10 10 21.667 18 35 24s27.666 9 42.999 9c14.667 0 28.667 -3 42 -9s25 -14 35 -24
c10 -10.0068 18 -21.8398 24 -35.5c6 -13.667 9 -28.167 9 -43.5z" />
    <glyph glyph-name="Igrave" unicode="&#xcc;" horiz-adv-x="673" 
d="M581 1310l-114 -23v-1141c64.667 -12.667 105 -20.667 121 -24s24 -15.333 24 -36v-86h-483v86c0 20.667 10 33 30 37l114 23v1141l-120 24s-24 15.333 -24 36v86h483v-86c0 -20.6719 -10.333 -33.0049 -31 -37zM212 1782c21.333 0 37.333 -2.16895 48 -6.50195
s22.667 -13.166 36 -26.499l211 -203h-139c-14 0.046875 -25 1.21387 -33 3.5c-8 2.35742 -17.667 7.52441 -29 15.501l-295 217h201z" />
    <glyph glyph-name="Iacute" unicode="&#xcd;" horiz-adv-x="660" 
d="M519 1310l-114 -23v-1141c64.667 -12.667 105 -20.667 121 -24s24 -15.333 24 -36v-86h-483v86c0 20.667 10 33 30 37l114 23v1141l-120 24s-24 15.333 -24 36v86h483v-86c0 -20.6719 -10.333 -33.0049 -31 -37zM651 1782l-294 -216.001
c-11.333 -8.01172 -21.333 -13.3447 -30 -15.999c-8.66699 -2.71387 -20 -4.04688 -34 -4h-138l211 203c6.66699 6.66699 12.834 12 18.501 16s11.5 7.33301 17.5 10c6.00098 2.66699 12.668 4.5 20 5.5c7.33496 1 16.668 1.5 27.999 1.5h201z" />
    <glyph glyph-name="Icircumflex" unicode="&#xce;" horiz-adv-x="670" 
d="M545 1310l-114 -23v-1141c64.667 -12.667 105 -20.667 121 -24s24 -15.333 24 -36v-86h-483v86c0 20.667 10 33 30 37l114 23v1141l-120 24s-24 15.333 -24 36v86h483v-86c0 -20.6719 -10.333 -33.0049 -31 -37zM662 1546l-134.999 -0.00195312
c-8.00293 0.046875 -16.6699 1.21387 -26 3.5c-9.33594 2.35742 -17.0029 5.52441 -23 9.50098l-130 95c-5.33301 2.66699 -9.33301 5.33398 -12 8.00098c-5.33301 -4 -9.33301 -6.66699 -12 -8l-130 -95c-6 -4 -13.667 -7.16699 -23 -9.5
c-9.33398 -2.33301 -18.001 -3.5 -26.001 -3.5h-135l238 210h176z" />
    <glyph glyph-name="Idieresis" unicode="&#xcf;" horiz-adv-x="666" 
d="M543 1310l-114 -23v-1141c64.667 -12.667 105 -20.667 121 -24s24 -15.333 24 -36v-86h-483v86c0 20.667 10 33 30 37l114 23v1141l-120 24s-24 15.333 -24 36v86h483v-86c0 -20.6719 -10.333 -33.0049 -31 -37zM231 1666c0 -14.6729 -3 -28.5068 -9 -41.501
c-6 -13 -14 -24.5 -24 -34.5c-10 -10.0117 -21.833 -17.8447 -35.5 -23.499c-13.667 -5.69043 -28.167 -8.52344 -43.5 -8.5c-14 0 -27.5 2.83301 -40.5 8.5s-24.5 13.5 -34.5 23.5s-18 21.5 -24 34.5s-9 26.833 -9 41.5c0 15.333 3 29.833 9 43.5s14 25.5 24 35.5
s21.5 18 34.5 24s26.5 9 40.5 9c15.333 0 29.833 -3 43.5 -9s25.5 -14 35.5 -24c10 -10.0068 18 -21.8398 24 -35.5c6 -13.667 9 -28.167 9 -43.5zM657 1666c0 -14.6729 -3.00098 -28.5068 -9.00098 -41.501c-6 -13 -14 -24.5 -24 -34.5
c-10.001 -10.0117 -21.668 -17.8447 -35 -23.499c-13.333 -5.69043 -27.333 -8.52344 -42 -8.5c-15.334 0 -29.667 2.83301 -42.999 8.5c-13.334 5.66699 -25.001 13.5 -35 23.5c-10.001 10 -17.834 21.5 -23.5 34.5c-5.66797 13 -8.50098 26.833 -8.49902 41.5
c0 15.333 2.83301 29.833 8.5 43.5s13.5 25.5 23.5 35.5s21.667 18 35 24s27.666 9 42.999 9c14.667 0 28.667 -3 42 -9s25 -14 35 -24c10 -10.0068 18 -21.8398 24 -35.5c6 -13.667 9 -28.167 9 -43.5z" />
    <glyph glyph-name="Eth" unicode="&#xd0;" horiz-adv-x="1486" 
d="M1384.09 1009.01c34.0195 -88.0088 51.0078 -185.68 51.0195 -293.004c0 -107.344 -17 -205.005 -51.0195 -292.993c-34.0078 -88.0088 -81.9941 -163.353 -143.996 -226.011c-61.9922 -62.6592 -136.352 -111.166 -222.998 -145.493
c-86.666 -34.3359 -182.668 -51.5098 -287.994 -51.5098h-517.107h-144.295v86.3184c0 17.7061 12.9219 33.4756 30.4531 36.959l113.842 22.6562v520.101h-196.092v113.994h196.092v507.037l-113.842 22.6553c-17.5312 3.47363 -30.4531 19.2432 -30.4531 36.96v86.3174
h144.295h517.107c105.326 0 201.328 -17.1729 287.994 -51.5c86.6465 -34.3359 161.006 -82.9873 222.998 -145.994c62.002 -62.9863 109.998 -138.484 143.996 -226.493zM1200.11 479.994c23.9883 69.3496 35.9863 148.014 35.9863 236.012
c0 87.999 -11.998 166.643 -35.9863 236.002c-24.0078 69.3086 -58.0059 127.981 -102.006 175.997c-44.0098 47.9951 -97.3438 84.6475 -160.002 109.987c-62.668 25.3408 -132.346 38.0059 -208.99 38.0059h-322.115v-495.971h380.889v-113.994h-380.889v-509.034h322.115
c76.6445 0 146.322 12.6543 208.99 38.0146c62.6582 25.3193 115.992 61.8291 160.002 109.496c44 47.6475 77.998 106.155 102.006 175.484z" />
    <glyph glyph-name="Ntilde" unicode="&#xd1;" horiz-adv-x="1550" 
d="M1208 320c-3.33301 28.667 -5.00195 61.3311 -5.00195 97.998v869c-78.001 13.3438 -122.334 21.0107 -132.999 23.001c-20 4 -30 16.333 -30 37v86h163h170h145v-86c-0.0175781 -20.6719 -10.3506 -33.0049 -30.999 -37l-114 -23v-1287h-98
c-27.333 0 -50.333 11.667 -69 35l-829 1079c2.66699 -34 4 -65 4 -93v-875c78.667 -13.334 123 -21.001 133 -23.001c20 -4 30 -16.333 30 -37v-86h-477v86c0 20.667 10 33 30 37l114 23v1141c-64 12.667 -102 20.334 -114 23.001c-20 4 -30 16.333 -30 37v86h244
c17.334 0 30.167 -2.16699 38.5 -6.5s17.833 -13.166 28.5 -26.499zM937.998 1663c23.3359 0 41.1719 6.83301 53.502 20.5c12.333 13.667 18.833 32.834 19.5 57.501h98c0 -28.6699 -3.66699 -55.0029 -11 -79c-7.33301 -24.0098 -18 -44.8428 -32 -62.5
c-14.0039 -17.6729 -31.3369 -31.3398 -51.999 -41c-20.668 -9.69043 -44.335 -14.5234 -71.001 -14.5c-23.335 0 -45.668 4.33301 -66.999 13c-21.333 8.66699 -41.833 18.167 -61.5 28.5l-55.5 28.5c-17.335 8.66699 -34.002 13 -50 13
c-22.667 0 -40.167 -7.16699 -52.5 -21.5s-18.833 -33.5 -19.5 -57.5h-100c0.00683594 28.667 3.83984 55.167 11.5 79.5c7.66699 24.3457 18.667 45.1787 33 62.499c14.333 17.3398 32 31.0068 53 41c21 10 44.5 15 70.5 15c23.333 -0.0400391 45.666 -4.37305 66.999 -13
c21.333 -8.66699 41.666 -18.167 60.999 -28.5l54.999 -28.5c17.333 -8.70508 34 -13.0381 50 -13z" />
    <glyph glyph-name="Ograve" unicode="&#xd2;" horiz-adv-x="1508" 
d="M1458 716c0 -107.334 -17 -205.834 -51 -295.5c-34 -89.667 -82 -166.834 -144 -231.501s-136.5 -114.834 -223.5 -150.501s-183.167 -53.5 -288.5 -53.5s-201.333 17.833 -288 53.5s-161 85.834 -223 150.501s-110 141.834 -144 231.501s-51 188.167 -51 295.5
s17 205.833 51 295.5s82 167 144 232s136.333 115.5 223 151.5s182.667 54 288 54s201.5 -18 288.5 -54s161.5 -86.5 223.5 -151.5c62 -65.002 110 -142.335 144 -232c34 -89.667 51 -188.167 51 -295.5zM1259 716c0 88 -11.999 166.998 -35.999 236.998
c-24 70.002 -58 129.169 -102 177.501c-44.001 48.3359 -97.334 85.5029 -160 111.501c-62.667 26 -132.667 39 -210 39c-76.667 0 -146.334 -13 -209.001 -39s-116.167 -63.167 -160.5 -111.5s-78.5 -107.5 -102.5 -177.5s-36 -149 -36 -237s12 -166.833 36 -236.5
s58.167 -128.667 102.5 -177c44.334 -48.333 97.834 -85.333 160.5 -111c62.667 -25.667 132.334 -38.5 209 -38.5c77.333 0 147.333 12.833 210 38.5s116 62.667 160 111s78 107.333 102 177s36 148.5 36 236.5zM593.001 1782c21.333 0 37.333 -2.16895 48 -6.50195
s22.667 -13.166 36 -26.499l211 -203h-139c-14 0.046875 -25 1.21387 -33 3.5c-8.00391 2.35742 -17.6709 7.52441 -29 15.501l-295 217h201z" />
    <glyph glyph-name="Oacute" unicode="&#xd3;" horiz-adv-x="1508" 
d="M1458 716c0 -107.334 -17 -205.834 -51 -295.5c-34 -89.667 -82 -166.834 -144 -231.501s-136.5 -114.834 -223.5 -150.501s-183.167 -53.5 -288.5 -53.5s-201.333 17.833 -288 53.5s-161 85.834 -223 150.501s-110 141.834 -144 231.501s-51 188.167 -51 295.5
s17 205.833 51 295.5s82 167 144 232s136.333 115.5 223 151.5s182.667 54 288 54s201.5 -18 288.5 -54s161.5 -86.5 223.5 -151.5c62 -65.002 110 -142.335 144 -232c34 -89.667 51 -188.167 51 -295.5zM1259 716c0 88 -11.999 166.998 -35.999 236.998
c-24 70.002 -58 129.169 -102 177.501c-44.001 48.3359 -97.334 85.5029 -160 111.501c-62.667 26 -132.667 39 -210 39c-76.667 0 -146.334 -13 -209.001 -39s-116.167 -63.167 -160.5 -111.5s-78.5 -107.5 -102.5 -177.5s-36 -149 -36 -237s12 -166.833 36 -236.5
s58.167 -128.667 102.5 -177c44.334 -48.333 97.834 -85.333 160.5 -111c62.667 -25.667 132.334 -38.5 209 -38.5c77.333 0 147.333 12.833 210 38.5s116 62.667 160 111s78 107.333 102 177s36 148.5 36 236.5zM1094 1782l-293.999 -216.001
c-11.333 -8.01172 -21.333 -13.3447 -30 -15.999c-8.66699 -2.71387 -20 -4.04688 -34 -4h-138l211 203c6.66992 6.66699 12.8369 12 18.5 16c5.66992 4 11.5029 7.33301 17.5 10c6 2.66699 12.667 4.5 20 5.5s16.666 1.5 27.999 1.5h201z" />
    <glyph glyph-name="Ocircumflex" unicode="&#xd4;" horiz-adv-x="1508" 
d="M1458 716c0 -107.334 -17 -205.834 -51 -295.5c-34 -89.667 -82 -166.834 -144 -231.501s-136.5 -114.834 -223.5 -150.501s-183.167 -53.5 -288.5 -53.5s-201.333 17.833 -288 53.5s-161 85.834 -223 150.501s-110 141.834 -144 231.501s-51 188.167 -51 295.5
s17 205.833 51 295.5s82 167 144 232s136.333 115.5 223 151.5s182.667 54 288 54s201.5 -18 288.5 -54s161.5 -86.5 223.5 -151.5c62 -65.002 110 -142.335 144 -232c34 -89.667 51 -188.167 51 -295.5zM1259 716c0 88 -11.999 166.998 -35.999 236.998
c-24 70.002 -58 129.169 -102 177.501c-44.001 48.3359 -97.334 85.5029 -160 111.501c-62.667 26 -132.667 39 -210 39c-76.667 0 -146.334 -13 -209.001 -39s-116.167 -63.167 -160.5 -111.5s-78.5 -107.5 -102.5 -177.5s-36 -149 -36 -237s12 -166.833 36 -236.5
s58.167 -128.667 102.5 -177c44.334 -48.333 97.834 -85.333 160.5 -111c62.667 -25.667 132.334 -38.5 209 -38.5c77.333 0 147.333 12.833 210 38.5s116 62.667 160 111s78 107.333 102 177s36 148.5 36 236.5zM1079 1546l-134.998 -0.00195312
c-8.00586 0.046875 -16.6729 1.21387 -26.001 3.5c-9.33691 2.35742 -17.0039 5.52441 -23 9.50098l-130 95c-5.33301 2.66699 -9.33301 5.33398 -12 8.00098c-5.33301 -4 -9.33301 -6.66699 -12 -8l-130 -95c-6.00293 -4 -13.6699 -7.16699 -23.001 -9.5
c-9.33691 -2.33301 -18.0039 -3.5 -26 -3.5h-135l238 210h176z" />
    <glyph glyph-name="Otilde" unicode="&#xd5;" horiz-adv-x="1508" 
d="M1458 716c0 -107.334 -17 -205.834 -51 -295.5c-34 -89.667 -82 -166.834 -144 -231.501s-136.5 -114.834 -223.5 -150.501s-183.167 -53.5 -288.5 -53.5s-201.333 17.833 -288 53.5s-161 85.834 -223 150.501s-110 141.834 -144 231.501s-51 188.167 -51 295.5
s17 205.833 51 295.5s82 167 144 232s136.333 115.5 223 151.5s182.667 54 288 54s201.5 -18 288.5 -54s161.5 -86.5 223.5 -151.5c62 -65.002 110 -142.335 144 -232c34 -89.667 51 -188.167 51 -295.5zM1259 716c0 88 -11.999 166.998 -35.999 236.998
c-24 70.002 -58 129.169 -102 177.501c-44.001 48.3359 -97.334 85.5029 -160 111.501c-62.667 26 -132.667 39 -210 39c-76.667 0 -146.334 -13 -209.001 -39s-116.167 -63.167 -160.5 -111.5s-78.5 -107.5 -102.5 -177.5s-36 -149 -36 -237s12 -166.833 36 -236.5
s58.167 -128.667 102.5 -177c44.334 -48.333 97.834 -85.333 160.5 -111c62.667 -25.667 132.334 -38.5 209 -38.5c77.333 0 147.333 12.833 210 38.5s116 62.667 160 111s78 107.333 102 177s36 148.5 36 236.5zM874.001 1663c23.333 0 41.1719 6.83398 53.5049 20.501
s18.833 32.834 19.5 57.501h98c0 -28.6699 -3.66699 -55.0029 -11 -79c-7.33301 -24.0098 -18 -44.8428 -32 -62.5c-14 -17.6729 -31.333 -31.3398 -52 -41.001c-20.667 -9.69043 -44.334 -14.5234 -71.001 -14.5c-23.335 0 -45.668 4.33301 -67 13
c-21.333 8.66699 -41.833 18.167 -61.5 28.5l-55.5 28.5c-17.335 8.66699 -34.002 13 -50.001 13c-22.667 0 -40.167 -7.16699 -52.5 -21.5s-18.833 -33.5 -19.5 -57.5h-100c0.00585938 28.667 3.83887 55.167 11.5 79.5c7.66699 24.3457 18.667 45.1787 33 62.499
c14.333 17.3398 32 31.0068 53 41c21 10 44.5 15 70.5 15c23.333 -0.0400391 45.666 -4.37305 66.999 -13c21.333 -8.66699 41.666 -18.167 60.999 -28.5l54.999 -28.5c17.333 -8.70508 34 -13.0381 50 -13z" />
    <glyph glyph-name="Odieresis" unicode="&#xd6;" horiz-adv-x="1508" 
d="M1458 716c0 -107.334 -17 -205.834 -51 -295.5c-34 -89.667 -82 -166.834 -144 -231.501s-136.5 -114.834 -223.5 -150.501s-183.167 -53.5 -288.5 -53.5s-201.333 17.833 -288 53.5s-161 85.834 -223 150.501s-110 141.834 -144 231.501s-51 188.167 -51 295.5
s17 205.833 51 295.5s82 167 144 232s136.333 115.5 223 151.5s182.667 54 288 54s201.5 -18 288.5 -54s161.5 -86.5 223.5 -151.5c62 -65.002 110 -142.335 144 -232c34 -89.667 51 -188.167 51 -295.5zM1259 716c0 88 -11.999 166.998 -35.999 236.998
c-24 70.002 -58 129.169 -102 177.501c-44.001 48.3359 -97.334 85.5029 -160 111.501c-62.667 26 -132.667 39 -210 39c-76.667 0 -146.334 -13 -209.001 -39s-116.167 -63.167 -160.5 -111.5s-78.5 -107.5 -102.5 -177.5s-36 -149 -36 -237s12 -166.833 36 -236.5
s58.167 -128.667 102.5 -177c44.334 -48.333 97.834 -85.333 160.5 -111c62.667 -25.667 132.334 -38.5 209 -38.5c77.333 0 147.333 12.833 210 38.5s116 62.667 160 111s78 107.333 102 177s36 148.5 36 236.5zM651.001 1666c0 -14.6729 -3 -28.5068 -9 -41.501
c-6 -13 -14 -24.5 -24 -34.5c-10 -10.0117 -21.833 -17.8447 -35.5 -23.499c-13.667 -5.69043 -28.167 -8.52344 -43.5 -8.5c-14 0 -27.5 2.83301 -40.5 8.5s-24.5 13.5 -34.5 23.5s-18 21.5 -24 34.5s-9 26.833 -9 41.5c0 15.333 3 29.833 9 43.5s14 25.5 24 35.5
s21.5 18 34.5 24s26.5 9 40.5 9c15.333 0 29.833 -3 43.5 -9c13.668 -6 25.501 -14 35.5 -24c10 -10.0068 18 -21.8398 24 -35.5c6 -13.667 9 -28.167 9 -43.5zM1077 1666c0 -14.6729 -2.99902 -28.5068 -8.99902 -41.501c-6 -13 -14 -24.5 -24 -34.5
c-10 -10.0117 -21.667 -17.8447 -35 -23.499c-13.333 -5.69043 -27.333 -8.52344 -42 -8.5c-15.3389 0 -29.6719 2.83301 -43 8.5c-13.335 5.66699 -25.002 13.5 -35 23.5c-10 10 -17.833 21.5 -23.5 34.5s-8.5 26.833 -8.5 41.5c0.00683594 15.333 2.83984 29.833 8.5 43.5
c5.66992 13.667 13.5029 25.5 23.499 35.5c10 10 21.667 18 35 24s27.666 9 42.999 9c14.667 0 28.667 -3 42 -9c13.3379 -6 25.0049 -14 35.001 -24c10 -10.0068 18 -21.8398 24 -35.5c6 -13.667 9 -28.167 9 -43.5z" />
    <glyph glyph-name="multiply" unicode="&#xd7;" horiz-adv-x="967" 
d="M924 1014l-344 -344l354 -353l-95 -96l-354 354l-357 -356l-95 96l356 356l-345 345l95 96l345 -346l344 344z" />
    <glyph glyph-name="Oslash" unicode="&#xd8;" horiz-adv-x="1508" 
d="M1458 716c0 -107.334 -17 -205.832 -51 -295.498c-34 -89.667 -82 -166.834 -144 -231.501s-136.5 -114.834 -223.5 -150.501s-183.167 -53.5 -288.5 -53.5c-72 0 -139.333 8.16699 -202 24.5s-120.334 40.5 -173.001 72.5l-100 -136
c-14.667 -19.333 -31.667 -33.333 -51 -42s-38.666 -13 -57.999 -13h-78l191 260c-74.667 65.333 -132.5 146 -173.5 242s-61.5 203.667 -61.5 323c0 107.333 17 205.833 51 295.5s82 167 144 232s136.333 115.5 223 151.5s182.667 54 288 54
c76.667 0 148.334 -9.66699 215 -29c66.667 -19.333 127.667 -47 183 -83l82 111c13.333 18 25.333 30.833 36 38.5s26.667 11.5 48 11.5h100l-172 -235c68.667 -65.333 121.667 -144.333 159 -237c37.3389 -92.667 56.0059 -196 56 -310zM243 716.002
c0 -90 12.502 -170.168 37.502 -240.501s60.5 -129.833 106.5 -178.5l659 899c-40 28.0049 -84.667 49.1719 -134 63.501c-49.334 14.3477 -103.001 21.5146 -161.001 21.5c-76.667 0 -146.334 -13 -209.001 -39s-116.167 -63.167 -160.5 -111.5s-78.5 -107.5 -102.5 -177.5
s-36 -149 -36 -237zM1259 716.001c-0.00488281 84 -10.8379 159.5 -32.5 226.5c-21.6689 67 -52.502 124.5 -92.5 172.5l-655 -892c77.333 -46.667 168 -70 272 -70c77.333 0 147.333 12.833 210 38.5s116 62.667 160 111s78 107.333 102 177s36 148.5 36 236.5z" />
    <glyph glyph-name="Ugrave" unicode="&#xd9;" horiz-adv-x="1498" 
d="M1320 1433l144.998 -0.000976562v-86c-0.0175781 -20.6719 -10.3506 -33.0049 -31 -37l-114 -23v-725c0 -168.667 -50.667 -306.667 -152 -414c-104.667 -110 -244 -165 -417.999 -165c-173.333 0 -312.666 55 -417.999 165c-102 107.333 -153 245.333 -153 414v725
c-64 12.667 -102 20.334 -114 23.001c-20 4 -30 16.333 -30 37v86h501v-86c0 -20.6719 -10.333 -33.0049 -31 -37c-10 -2 -54.333 -9.66699 -133 -23v-724c0 -122 33.333 -220 100 -294c68.667 -76.667 161.334 -115 278 -115c116.667 0 209.334 38 278 114
c66 74 99 172 99 294v725c-78 13.3428 -122 21.0098 -132 23c-20.6748 4 -31.0078 16.333 -31 37v86h163h193zM588.998 1782c21.333 0 37.333 -2.16895 48 -6.50195s22.667 -13.166 36 -26.499l211 -203h-139c-14 0.046875 -25 1.21387 -33 3.5
c-8.00293 2.35742 -17.6699 7.52441 -29 15.501l-295 217h201z" />
    <glyph glyph-name="Uacute" unicode="&#xda;" horiz-adv-x="1498" 
d="M1320 1433l144.998 -0.000976562v-86c-0.0175781 -20.6719 -10.3506 -33.0049 -31 -37l-114 -23v-725c0 -168.667 -50.667 -306.667 -152 -414c-104.667 -110 -244 -165 -417.999 -165c-173.333 0 -312.666 55 -417.999 165c-102 107.333 -153 245.333 -153 414v725
c-64 12.667 -102 20.334 -114 23.001c-20 4 -30 16.333 -30 37v86h501v-86c0 -20.6719 -10.333 -33.0049 -31 -37c-10 -2 -54.333 -9.66699 -133 -23v-724c0 -122 33.333 -220 100 -294c68.667 -76.667 161.334 -115 278 -115c116.667 0 209.334 38 278 114
c66 74 99 172 99 294v725c-78 13.3428 -122 21.0098 -132 23c-20.6748 4 -31.0078 16.333 -31 37v86h163h193zM1090 1782l-293.999 -216c-11.333 -8.01172 -21.333 -13.3447 -30 -16c-8.66699 -2.71387 -20 -4.04688 -34 -4h-138l211 203
c6.66992 6.66699 12.8369 12 18.5 16c5.66992 4 11.5029 7.33301 17.5 10c6 2.66699 12.667 4.5 20 5.5s16.666 1.5 27.999 1.5h201z" />
    <glyph glyph-name="Ucircumflex" unicode="&#xdb;" horiz-adv-x="1498" 
d="M1320 1433l144.998 -0.000976562v-86c-0.0175781 -20.6719 -10.3506 -33.0049 -31 -37l-114 -23v-725c0 -168.667 -50.667 -306.667 -152 -414c-104.667 -110 -244 -165 -417.999 -165c-173.333 0 -312.666 55 -417.999 165c-102 107.333 -153 245.333 -153 414v725
c-64 12.667 -102 20.334 -114 23.001c-20 4 -30 16.333 -30 37v86h501v-86c0 -20.6719 -10.333 -33.0049 -31 -37c-10 -2 -54.333 -9.66699 -133 -23v-724c0 -122 33.333 -220 100 -294c68.667 -76.667 161.334 -115 278 -115c116.667 0 209.334 38 278 114
c66 74 99 172 99 294v725c-78 13.3428 -122 21.0098 -132 23c-20.6748 4 -31.0078 16.333 -31 37v86h163h193zM1075 1546l-134.999 -0.00195312c-8.00391 0.046875 -16.6709 1.21387 -26 3.5c-9.33887 2.35742 -17.0059 5.52441 -23 9.50098l-130 95
c-5.33301 2.66699 -9.33301 5.33398 -12 8.00098c-5.33301 -4 -9.33301 -6.66699 -12 -8l-130 -95c-6.00391 -4 -13.6709 -7.16699 -23 -9.5c-9.33594 -2.33301 -18.0029 -3.5 -26.001 -3.5h-135l238 210h176z" />
    <glyph glyph-name="Udieresis" unicode="&#xdc;" horiz-adv-x="1498" 
d="M1320 1433l144.998 -0.000976562v-86c-0.0175781 -20.6719 -10.3506 -33.0049 -31 -37l-114 -23v-725c0 -168.667 -50.667 -306.667 -152 -414c-104.667 -110 -244 -165 -417.999 -165c-173.333 0 -312.666 55 -417.999 165c-102 107.333 -153 245.333 -153 414v725
c-64 12.667 -102 20.334 -114 23.001c-20 4 -30 16.333 -30 37v86h501v-86c0 -20.6719 -10.333 -33.0049 -31 -37c-10 -2 -54.333 -9.66699 -133 -23v-724c0 -122 33.333 -220 100 -294c68.667 -76.667 161.334 -115 278 -115c116.667 0 209.334 38 278 114
c66 74 99 172 99 294v725c-78 13.3428 -122 21.0098 -132 23c-20.6748 4 -31.0078 16.333 -31 37v86h163h193zM646.998 1666c0 -14.6729 -3 -28.5068 -9 -41.501c-6 -13 -14 -24.5 -24 -34.5c-10 -10.0117 -21.833 -17.8447 -35.5 -23.499
c-13.667 -5.69043 -28.167 -8.52344 -43.5 -8.5c-14 0 -27.5 2.83301 -40.5 8.5s-24.5 13.5 -34.5 23.5s-18 21.5 -24 34.5s-9 26.833 -9 41.5c0 15.333 3 29.833 9 43.5s14 25.5 24 35.5s21.5 18 34.5 24s26.5 9 40.5 9c15.333 0 29.833 -3 43.5 -9
c13.668 -6 25.501 -14 35.5 -24c10 -10.0068 18 -21.8398 24 -35.5c6 -13.667 9 -28.167 9 -43.5zM1073 1666c0 -14.6729 -3.00098 -28.5068 -9.00098 -41.501c-6 -13 -14 -24.5 -24 -34.5c-10 -10.0117 -21.667 -17.8447 -35 -23.499
c-13.333 -5.69043 -27.333 -8.52344 -42 -8.5c-15.334 0 -29.667 2.83301 -42.999 8.5c-13.335 5.66699 -25.002 13.5 -35 23.5c-10 10 -17.833 21.5 -23.5 34.5s-8.5 26.833 -8.5 41.5c0.00683594 15.333 2.83984 29.833 8.5 43.5c5.67188 13.667 13.5049 25.5 23.5 35.5
c10 10 21.667 18 35 24s27.666 9 42.999 9c14.667 0 28.667 -3 42 -9c13.3379 -6 25.0049 -14 35.001 -24c10 -10.0068 18 -21.8398 24 -35.5c6 -13.667 9 -28.167 9 -43.5z" />
    <glyph glyph-name="Yacute" unicode="&#xdd;" horiz-adv-x="1401" 
d="M882.999 1433l482.001 -0.000976562v-86c0 -20.667 -8.5 -32.667 -25.5 -36s-52.167 -11.333 -105.5 -24l-437 -717v-424c9.33301 -2 47.333 -9.66699 114 -23c20 -4 30 -16.333 30 -37v-86h-144h-193h-144v86c0 20.667 10 33 30 37l114 23v424l-436 717
c-49.333 12 -83.333 19.833 -102 23.5s-28 15.834 -28 36.501v86h482v-86c0 -20.6719 -10.333 -33.0049 -31 -37c-68 -14 -105.667 -21.667 -113 -23l268 -456c21.333 -37.335 40.666 -79.668 57.999 -127c18 50.668 37 93.001 57 127l268 456
c-8 1.34766 -46 9.01465 -114 23c-20 4 -30 16.333 -30 37v86zM1042 1782l-293.999 -216c-11.333 -8.01172 -21.333 -13.3447 -30 -16c-8.66699 -2.71387 -20 -4.04688 -34 -4h-138l211 203c6.66992 6.66699 12.8369 12 18.5 16c5.66992 4 11.5029 7.33301 17.5 10
c6 2.66699 12.667 4.5 20 5.5s16.666 1.5 27.999 1.5h201z" />
    <glyph glyph-name="Thorn" unicode="&#xde;" horiz-adv-x="1111" 
d="M300.999 272l0.000976562 -272h-193v1433h193v-264h230c90.667 0 169.5 -10.5 236.499 -31.5c67 -21.0029 122.5 -50.8359 166.5 -89.499c44 -38.667 76.833 -85.334 98.5 -140.001s32.5 -115.667 32.5 -183c0 -66.667 -11.667 -127.667 -35 -183s-57.5 -103 -102.5 -143
s-100.833 -71.167 -167.5 -93.5s-143 -33.5 -229 -33.5h-230zM301 426l230.002 0.00195312c55.333 0 104.166 7.33301 146.499 22s77.833 35.167 106.5 61.5c28.668 26.333 50.335 57.833 65.001 94.5c14.6699 36.667 22.0029 77 21.999 120.999
c-0.000976562 91.333 -28.168 162.666 -84.5 213.999c-56.334 51.333 -141.501 77 -255.501 77h-230v-590z" />
    <glyph glyph-name="germandbls" unicode="&#xdf;" horiz-adv-x="1085" 
d="M582 1454c68.667 0 128.169 -9.99805 178.502 -29.998s91.833 -45.5 124.5 -76.5c32.667 -31.0029 56.834 -64.8359 72.501 -101.5c15.667 -36.6689 23.5 -72.002 23.5 -106c0 -40.0029 -7.16699 -74.3359 -21.5 -102.999c-14.333 -28.667 -32.166 -54 -53.499 -76
c-21.334 -22 -44.501 -41.333 -69.5 -58c-25.001 -16.667 -48.168 -33 -69.5 -49c-21.334 -16 -39.167 -32.5 -53.5 -49.5c-14.3379 -17.002 -21.5049 -36.1689 -21.5 -57.501c0.00488281 -26.001 8.83789 -47.668 26.5 -65.001c17.667 -17.335 39.834 -33.502 66.5 -48.501
c26.668 -15 55.501 -30.333 86.5 -46c31.002 -15.667 59.835 -35.167 86.5 -58.5c26.667 -23.333 48.834 -52 66.501 -86s26.5 -77 26.5 -129s-9.5 -98.333 -28.5 -139s-45.167 -75.167 -78.5 -103.5c-33.334 -28.333 -72.501 -50 -117.5 -65
c-45 -15 -93.833 -22.5 -146.5 -22.5c-64.667 0 -123.334 11.5 -176.001 34.5s-99 52.5 -139 88.5l41 68c5.33301 8.66699 11.833 15.334 19.5 20c7.66699 4.66797 17.167 7.00098 28.5 7c12 -0.000976562 24.667 -4.66797 38 -14.001s29.166 -19.666 47.499 -30.999
s40 -21.666 65 -30.999s55.167 -14 90.5 -14c29.333 0 55.666 4.5 78.999 13.5s43.166 21.167 59.499 36.5s28.833 33.666 37.5 54.999c8.67383 21.333 13.0068 44.333 12.999 69c0 37.334 -9.33301 67.667 -28 91c-18.667 23.334 -42 43.501 -70 60.5
c-28 17 -58.333 32.5 -91 46.5s-63 30.667 -91 50s-51.333 42.833 -70 70.5c-18.667 27.668 -28 63.501 -28 107.5c0 35.333 7.5 66.166 22.5 92.499s33.667 50 56 71s46.5 40.5 72.5 58.5s50.167 37 72.5 57s41 41.833 56 65.5s22.5 51.5 22.5 83.5
c-0.00976562 21.333 -4.17676 42.833 -12.5 64.5c-8.33301 21.667 -21.833 41.167 -40.5 58.5c-18.667 17.3379 -42.834 31.5049 -72.501 42.5c-29.667 11 -65.5 16.5 -107.5 16.5c-45.334 0 -86.501 -7 -123.5 -21c-37 -14 -68.667 -35 -95 -63s-46.666 -63 -60.999 -105
s-21.5 -91 -21.5 -147v-986h-179v992c0 69.333 11.5 132.333 34.5 189s55.833 105.334 98.5 146.001s94 72 154 94s126.667 33 200 33z" />
    <glyph glyph-name="agrave" unicode="&#xe0;" horiz-adv-x="1020" 
d="M92.001 872c111.333 107.333 219.331 161 323.998 161s179 -9.33301 223 -28s81 -44.667 111 -78c60.668 -67.334 91.001 -159.667 91 -277v-505c64 -12.667 101.5 -20.167 112.5 -22.5s16.5 -13.833 16.5 -34.5v-86h-208c-36.667 0 -57.667 14 -63 42l-20 94
c-112.667 -101.333 -209.5 -152 -290.5 -152s-138.667 5.5 -173 16.5s-64.166 27.5 -89.499 49.5c-55.333 48 -83 104 -83 168s11 114.667 33 152s57.333 70.333 106 99c112 65.333 273.333 98 484 98v79c0 160.667 -66.667 241 -200 241
c-76 0 -139.333 -17.833 -189.999 -53.5c-50.667 -35.667 -83 -53.5 -97 -53.5c-24.667 0 -53.667 30 -87 90zM213.999 264c0 -102 54.167 -153 162.5 -153c108.334 0 204.834 45.333 289.5 136v209c-301.333 0 -452 -64 -452 -192zM378.999 1449c22 0 38.333 -3.5 49 -10.5
s20.667 -18.167 30 -33.5l149 -242h-102c-14.001 0.0527344 -25.334 2.21973 -34 6.5c-8.66699 4.3418 -17.667 11.5088 -27 21.5l-234 258h169z" />
    <glyph glyph-name="aacute" unicode="&#xe1;" horiz-adv-x="1020" 
d="M92.001 872c111.333 107.333 219.331 161 323.998 161s179 -9.33301 223 -28s81 -44.667 111 -78c60.668 -67.334 91.001 -159.667 91 -277v-505c64 -12.667 101.5 -20.167 112.5 -22.5s16.5 -13.833 16.5 -34.5v-86h-208c-36.667 0 -57.667 14 -63 42l-20 94
c-112.667 -101.333 -209.5 -152 -290.5 -152s-138.667 5.5 -173 16.5s-64.166 27.5 -89.499 49.5c-55.333 48 -83 104 -83 168s11 114.667 33 152s57.333 70.333 106 99c112 65.333 273.333 98 484 98v79c0 160.667 -66.667 241 -200 241
c-76 0 -139.333 -17.833 -189.999 -53.5c-50.667 -35.667 -83 -53.5 -97 -53.5c-24.667 0 -53.667 30 -87 90zM213.999 264c0 -102 54.167 -153 162.5 -153c108.334 0 204.834 45.333 289.5 136v209c-301.333 0 -452 -64 -452 -192zM768.999 1449l-233 -258
c-9.33496 -10 -18.502 -17.167 -27.5 -21.5c-9 -4.33301 -20.5 -6.5 -34.5 -6.5h-106l148 242c9.33301 15.3389 19.5 26.5059 30.5 33.5c11 7 27.167 10.5 48.5 10.5h174z" />
    <glyph glyph-name="acircumflex" unicode="&#xe2;" horiz-adv-x="1019" 
d="M92.001 872c111.333 107.333 219.331 161 323.998 161s179 -9.33301 223 -28s81 -44.667 111 -78c60.668 -67.334 91.001 -159.667 91 -277v-505c64 -12.667 101.5 -20.167 112.5 -22.5s16.5 -13.833 16.5 -34.5v-86h-208c-36.667 0 -57.667 14 -63 42l-20 94
c-112.667 -101.333 -209.5 -152 -290.5 -152s-138.667 5.5 -173 16.5s-64.166 27.5 -89.499 49.5c-55.333 48 -83 104 -83 168s11 114.667 33 152s57.333 70.333 106 99c112 65.333 273.333 98 484 98v79c0 160.667 -66.667 241 -200 241
c-76 0 -139.333 -17.833 -189.999 -53.5c-50.667 -35.667 -83 -53.5 -97 -53.5c-24.667 0 -53.667 30 -87 90zM213.999 264c0 -102 54.167 -153 162.5 -153c108.334 0 204.834 45.333 289.5 136v209c-301.333 0 -452 -64 -452 -192zM783.999 1169h-119
c-14 0.0175781 -27.333 4.68457 -40 14l-128 126l-17 17l-16 -17l-129 -126c-4 -3.33301 -9.66699 -6.5 -17 -9.5s-15 -4.5 -23 -4.5h-123l223 264h166z" />
    <glyph glyph-name="atilde" unicode="&#xe3;" horiz-adv-x="1020" 
d="M92.001 872c111.333 107.333 219.331 161 323.998 161s179 -9.33301 223 -28s81 -44.667 111 -78c60.668 -67.334 91.001 -159.667 91 -277v-505c64 -12.667 101.5 -20.167 112.5 -22.5s16.5 -13.833 16.5 -34.5v-86h-208c-36.667 0 -57.667 14 -63 42l-20 94
c-112.667 -101.333 -209.5 -152 -290.5 -152s-138.667 5.5 -173 16.5s-64.166 27.5 -89.499 49.5c-55.333 48 -83 104 -83 168s11 114.667 33 152s57.333 70.333 106 99c112 65.333 273.333 98 484 98v79c0 160.667 -66.667 241 -200 241
c-76 0 -139.333 -17.833 -189.999 -53.5c-50.667 -35.667 -83 -53.5 -97 -53.5c-24.667 0 -53.667 30 -87 90zM213.999 264c0 -102 54.167 -153 162.5 -153c108.334 0 204.834 45.333 289.5 136v209c-301.333 0 -452 -64 -452 -192zM588.999 1325
c24 0 42.502 6.99609 55.502 20.9961c13.0029 14.0029 19.8359 35.6699 20.5 65.001h108c-0.00585938 -31.333 -4.17285 -60.166 -12.5 -86.499c-8.33301 -26.333 -20.333 -48.833 -36 -67.5s-34.334 -33.167 -56.001 -43.5s-45.834 -15.5 -72.501 -15.5
c-23.334 0 -45.167 4.83301 -65.5 14.5c-20.334 9.66699 -39.501 20.167 -57.5 31.5l-51 31.5s-31.667 14.5 -47 14.5c-48 -0.00390625 -72.667 -29.3369 -74 -88h-111c0 32.002 4.33301 61.1689 12.999 87.5c8.66699 26.3359 21 49.0029 37 68c16 19.0078 35 33.6748 57 44
c22 10.3555 46 15.5225 72 15.501c23.334 -0.0322266 45.167 -4.86523 65.5 -14.499c20.334 -9.66699 39.501 -20.167 57.501 -31.5l50.5 -31.5c15.667 -9.69727 31.167 -14.5303 46.5 -14.5z" />
    <glyph glyph-name="adieresis" unicode="&#xe4;" horiz-adv-x="1019" 
d="M92.001 872c111.333 107.333 219.331 161 323.998 161s179 -9.33301 223 -28s81 -44.667 111 -78c60.668 -67.334 91.001 -159.667 91 -277v-505c64 -12.667 101.5 -20.167 112.5 -22.5s16.5 -13.833 16.5 -34.5v-86h-208c-36.667 0 -57.667 14 -63 42l-20 94
c-112.667 -101.333 -209.5 -152 -290.5 -152s-138.667 5.5 -173 16.5s-64.166 27.5 -89.499 49.5c-55.333 48 -83 104 -83 168s11 114.667 33 152s57.333 70.333 106 99c112 65.333 273.333 98 484 98v79c0 160.667 -66.667 241 -200 241
c-76 0 -139.333 -17.833 -189.999 -53.5c-50.667 -35.667 -83 -53.5 -97 -53.5c-24.667 0 -53.667 30 -87 90zM213.999 264c0 -102 54.167 -153 162.5 -153c108.334 0 204.834 45.333 289.5 136v209c-301.333 0 -452 -64 -452 -192zM410.999 1289
c0 -15.333 -3.00195 -29.667 -9.00195 -43c-6.00098 -13.333 -14.334 -25 -24.999 -35c-10.667 -10 -22.834 -18 -36.5 -24c-13.667 -6 -28.167 -9 -43.5 -9c-14.667 0 -28.667 3 -42 9s-25.166 14 -35.499 24c-10.334 10.0049 -18.501 21.6719 -24.501 35.001
c-6 13.3379 -9 27.6709 -9 42.999c0 15.3408 3 30.0078 9 44c6 14.0049 14.167 26.1719 24.5 36.5c10.334 10.3438 22.167 18.5107 35.5 24.5c13.333 6 27.333 9 42 9c15.333 0 29.833 -3 43.5 -9s25.834 -14.167 36.501 -24.5s19 -22.5 25 -36.5s9 -28.667 9 -44z
M769.997 1289c0 -15.333 -2.99902 -29.666 -8.99902 -42.999c-6.00293 -13.333 -14.1699 -25 -24.5 -35c-10.333 -10 -22.333 -18 -36 -24s-28.167 -9 -43.5 -9s-29.833 3 -43.5 9s-25.5 14 -35.5 24c-10 10.0049 -18 21.6719 -24 35c-6 13.3379 -9 27.6709 -9 42.999
c0 15.3408 3 30.0078 9 44c6 14.0049 14 26.1719 24 36.5c10.001 10.3438 21.834 18.5107 35.499 24.5c13.667 6 28.167 9 43.5 9s29.833 -3 43.5 -9s25.667 -14.167 36 -24.5s18.5 -22.5 24.5 -36.5s9 -28.667 9 -44z" />
    <glyph glyph-name="aring" unicode="&#xe5;" horiz-adv-x="1019" 
d="M92.001 872c111.333 107.333 219.331 161 323.998 161s179 -9.33301 223 -28s81 -44.667 111 -78c60.668 -67.334 91.001 -159.667 91 -277v-505c64 -12.667 101.5 -20.167 112.5 -22.5s16.5 -13.833 16.5 -34.5v-86h-208c-36.667 0 -57.667 14 -63 42l-20 94
c-112.667 -101.333 -209.5 -152 -290.5 -152s-138.667 5.5 -173 16.5s-64.166 27.5 -89.499 49.5c-55.333 48 -83 104 -83 168s11 114.667 33 152s57.333 70.333 106 99c112 65.333 273.333 98 484 98v79c0 160.667 -66.667 241 -200 241
c-76 0 -139.333 -17.833 -189.999 -53.5c-50.667 -35.667 -83 -53.5 -97 -53.5c-24.667 0 -53.667 30 -87 90zM213.999 264c0 -102 54.167 -153 162.5 -153c108.334 0 204.834 45.333 289.5 136v209c-301.333 0 -452 -64 -452 -192zM278.999 1315
c0 28 5.33301 53.3311 16 75.998s25.167 42.334 43.5 59.001c18.334 16.667 39.501 29.5 63.501 38.5s49.333 13.5 76 13.5c27.333 0 53.166 -4.5 77.499 -13.5c24.333 -9.00586 45.833 -21.8389 64.5 -38.5c18.667 -16.6777 33.334 -36.3447 44 -59.001
c10.6689 -22.6689 16.002 -48.002 15.999 -75.999c0 -27.333 -5.33301 -52.333 -16 -75c-10.667 -22.6709 -25.334 -42.0039 -44.001 -57.999c-18.667 -16 -40.167 -28.5 -64.5 -37.5c-24.334 -9 -50.167 -13.5 -77.499 -13.5c-26.667 0 -52 4.5 -76 13.5
s-45.167 21.5 -63.5 37.5s-32.833 35.333 -43.5 58s-16 47.667 -15.999 75zM378.999 1315c0 -29.333 9.00098 -53.3359 27.001 -72.0029c18 -18.6758 42.667 -28.0088 74 -27.999c30 0 54.167 9.33301 72.5 28s27.5 42.667 27.5 72c-0.00195312 30 -9.16895 54.333 -27.5 73
c-18.334 18.667 -42.501 28 -72.501 28c-31.333 -0.015625 -56 -9.34863 -74 -27.999c-18 -18.6689 -27 -43.002 -27 -72.999z" />
    <glyph glyph-name="ae" unicode="&#xe6;" horiz-adv-x="1554" 
d="M1119 1029c54.667 -0.00195312 105.502 -10.665 152.502 -31.9961c47.0029 -21.333 87.6699 -52.333 122.001 -93c34.333 -40.667 61.333 -90.167 81 -148.5s29.5 -124.833 29.5 -199.5c0 -27.334 -2.66699 -45.834 -8 -55.5
c-5.33301 -9.66992 -16.333 -14.5029 -33 -14.5h-627c2.66699 -60.667 11.667 -113.5 27 -158.5s35.833 -82.5 61.5 -112.5c25.668 -30 56.001 -52.333 90.999 -67c35.002 -14.667 74.1689 -22 117.5 -22c46 0 84.333 4.83301 115 14.499
c30.667 9.66699 56.167 20.5 76.5 32.5s36.833 22.833 49.5 32.5s24.334 14.5 35.001 14.5c9.35059 0 17.0176 -1.5 23.001 -4.5c6 -3 11 -7.16699 15 -12.5l47 -61c-22 -26.667 -47.5 -49.834 -76.5 -69.501s-60 -35.834 -93 -48.501s-67.167 -22.167 -102.5 -28.5
s-70.333 -9.5 -105 -9.5c-78 0 -148.833 18.833 -212.5 56.5s-113.834 95.167 -150.501 172.5c-18 -41.333 -41.5 -76.666 -70.5 -105.999c-29.001 -29.333 -61.168 -53.333 -96.501 -72s-72.833 -32.167 -112.5 -40.5s-79.167 -12.5 -118.5 -12.5
c-46 0 -88 5.83301 -126 17.5s-70.833 29.167 -98.5 52.5s-49 52.666 -64 87.999s-22.5 77 -22.5 125c0 40 11 79.333 33 118s57.5 73.334 106.5 104.001s113.167 55.834 192.5 75.5c79.334 19.6689 176.334 30.8359 291 33.5v50c0 78.667 -16.833 139 -50.5 180.999
c-33.667 42 -83.5 63 -149.5 63c-43.333 0 -79.833 -5.83301 -109.5 -17.5s-55.334 -24.5 -77 -38.5c-21.667 -14 -40.334 -26.833 -56 -38.5c-15.667 -11.667 -31.167 -17.5 -46.5 -17.5c-12 0 -22.5 3.16699 -31.5 9.5s-16.167 14.166 -21.5 23.499l-32 57
c56 54.001 114.167 94.334 174.5 121c60.333 26.6689 128.166 40.002 203.499 40c80 0 144.333 -17 192.999 -51c48.668 -34 84.001 -81.333 106 -142c36 58.667 82.833 105.167 140.499 139.5c57.667 34.333 126.834 51.5 207.501 51.5zM668 486.004
c-82 -3.33301 -151.667 -10.834 -209 -22.501s-104 -26.834 -140 -45.5c-36 -18.667 -62.167 -40 -78.5 -64s-24.5 -50 -24.5 -78c0 -58 16.667 -100.333 50 -127s77 -40 131 -40c38 0 73.5 6 106.5 18s61.667 30.333 86 55s43.5 55.334 57.5 92.001s21 79.667 21 129v83z
M1112 898.003c-40.6699 0 -77.002 -6.83203 -108.999 -20.499c-32 -13.667 -59.5 -33.5 -82.5 -59.5c-23 -26.001 -41.333 -57.668 -55 -95c-13.667 -37.333 -22.834 -79.333 -27.501 -126h508c0 43.333 -5.16699 83.5 -15.5 120.5c-10.333 37.001 -25.5 68.834 -45.5 95.5
c-20 26.668 -44.5 47.501 -73.5 62.499c-29 15 -62.167 22.5 -99.5 22.5z" />
    <glyph glyph-name="ccedilla" unicode="&#xe7;" horiz-adv-x="904" 
d="M814.997 207l50.0039 -65c-74.667 -92 -183.334 -143.333 -326.001 -154l-17 -58c60 -13.333 103.5 -31.5 130.5 -54.5s40.5 -48.833 40.5 -77.5s-5.33301 -51.5 -16 -68.5s-25.334 -31.5 -44.001 -43.5c-39.334 -24.666 -91.667 -36.999 -157 -36.999
c-51.333 0 -100 10.333 -146 31l17 55c4.00098 12 11.668 18 23 18c4 0.00292969 8.83301 -1.16406 14.5 -3.5l18.501 -7.5c18.667 -8 41 -12 67 -12s46.167 5.5 60.5 16.5s21.5 24 21.5 39c-0.00390625 15 -3.6709 26.833 -11 35.5c-7.33789 8.66699 -17.6709 16 -31 22
c-22.667 10 -62.334 18.667 -119 26l37 121c-102.667 13.333 -187.667 57.666 -255 132.999c-86 94.667 -129 222.667 -129 384c0 155.333 41 280 123 374c86 98.667 204 148 354 148c77.333 0 177.333 -25 300 -75v-262h-80c-19.335 0.00292969 -30.668 9.33594 -34 28
c-2.00586 7.33301 -4.67285 32.333 -8.00098 75c-3.34375 42.668 -5.01074 65.001 -5 67c-30.667 9.33301 -55 15.333 -73 18c-38.667 6.66699 -76.334 9.66699 -113.001 9s-73.334 -9.5 -110 -26.5c-36.667 -17.001 -68 -42.168 -94 -75.5
c-51.333 -67.333 -77 -160.666 -77 -279.999c0 -120.667 26.667 -215.334 80 -284.001c52 -66 123.667 -99 215 -99c83.333 0 157.666 28 222.999 84c12.002 10.667 24.835 16 38.5 16c13.667 0 24.167 -5.66699 31.5 -17z" />
    <glyph glyph-name="egrave" unicode="&#xe8;" horiz-adv-x="980" 
d="M515.002 1029c60.667 -0.00585938 116.669 -10.167 168.002 -30.4941c51.333 -20.334 95.666 -49.667 132.999 -88c37.333 -38.334 66.5 -85.667 87.5 -142c21 -56.334 31.5 -120.501 31.5 -192.501c0 -28.002 -3 -46.6689 -9 -56.001c-6 -9.33301 -17.333 -14 -34 -14
h-674c1.33301 -64 10 -119.667 26 -167s38 -86.833 66 -118.5s61.333 -55.334 100 -71.001s82 -23.5 130 -23.5c44.667 0 83.167 5.16699 115.5 15.5s60.166 21.5 83.499 33.5s42.833 23.167 58.5 33.5s29.167 15.5 40.5 15.5c14.668 0 26.001 -5.66699 33.999 -17l50 -65
c-22 -26.667 -48.333 -49.834 -79 -69.501s-63.5 -35.834 -98.5 -48.501c-35.001 -12.667 -71.168 -22.167 -108.501 -28.5s-74.333 -9.5 -111 -9.5c-70 0 -134.5 11.833 -193.5 35.5s-110 58.334 -153 104.001s-76.5 102.167 -100.5 169.5s-36 144.666 -36 231.999
c0 70.667 10.833 136.667 32.5 198s52.834 114.5 93.501 159.5c40.667 45.001 90.334 80.334 149.001 105.999c58.667 25.6689 124.667 38.502 198 38.5zM519.004 898.006c-86 0 -153.665 -24.8311 -202.998 -74.498s-80 -118.5 -92 -206.5h551
c-0.00292969 41.333 -5.66992 79.166 -17 113.499c-11.3359 34.333 -28.0029 64 -50.001 89c-22 25.002 -48.833 44.335 -80.5 58c-31.667 13.6699 -67.834 20.5029 -108.501 20.499zM419.006 1449.01c22 0 38.333 -3.5 49 -10.5s20.667 -18.167 30 -33.5l149 -242h-102
c-14 0.0527344 -25.333 2.21973 -34 6.5c-8.66699 4.3418 -17.667 11.5088 -27 21.5l-234 258h169z" />
    <glyph glyph-name="eacute" unicode="&#xe9;" horiz-adv-x="980" 
d="M515.002 1029c60.667 -0.00585938 116.669 -10.167 168.002 -30.4941c51.333 -20.334 95.666 -49.667 132.999 -88c37.333 -38.334 66.5 -85.667 87.5 -142c21 -56.334 31.5 -120.501 31.5 -192.501c0 -28.002 -3 -46.6689 -9 -56.001c-6 -9.33301 -17.333 -14 -34 -14
h-674c1.33301 -64 10 -119.667 26 -167s38 -86.833 66 -118.5s61.333 -55.334 100 -71.001s82 -23.5 130 -23.5c44.667 0 83.167 5.16699 115.5 15.5s60.166 21.5 83.499 33.5s42.833 23.167 58.5 33.5s29.167 15.5 40.5 15.5c14.668 0 26.001 -5.66699 33.999 -17l50 -65
c-22 -26.667 -48.333 -49.834 -79 -69.501s-63.5 -35.834 -98.5 -48.501c-35.001 -12.667 -71.168 -22.167 -108.501 -28.5s-74.333 -9.5 -111 -9.5c-70 0 -134.5 11.833 -193.5 35.5s-110 58.334 -153 104.001s-76.5 102.167 -100.5 169.5s-36 144.666 -36 231.999
c0 70.667 10.833 136.667 32.5 198s52.834 114.5 93.501 159.5c40.667 45.001 90.334 80.334 149.001 105.999c58.667 25.6689 124.667 38.502 198 38.5zM519.004 898.006c-86 0 -153.665 -24.8311 -202.998 -74.498s-80 -118.5 -92 -206.5h551
c-0.00292969 41.333 -5.66992 79.166 -17 113.499c-11.3359 34.333 -28.0029 64 -50.001 89c-22 25.002 -48.833 44.335 -80.5 58c-31.667 13.6699 -67.834 20.5029 -108.501 20.499zM809.006 1449.01l-232.999 -258c-9.33691 -10 -18.5039 -17.167 -27.501 -21.5
c-9 -4.33301 -20.5 -6.5 -34.5 -6.5h-106l148 242c9.33301 15.3389 19.5 26.5059 30.5 33.5c11 7 27.167 10.5 48.5 10.5h174z" />
    <glyph glyph-name="ecircumflex" unicode="&#xea;" horiz-adv-x="979" 
d="M514.002 1029c60.667 -0.00585938 116.669 -10.167 168.002 -30.4941c51.333 -20.334 95.666 -49.667 132.999 -88c37.333 -38.334 66.5 -85.667 87.5 -142c21 -56.334 31.5 -120.501 31.5 -192.501c0 -28.002 -3 -46.6689 -9 -56.001c-6 -9.33301 -17.333 -14 -34 -14
h-674c1.33301 -64 10 -119.667 26 -167s38 -86.833 66 -118.5s61.333 -55.334 100 -71.001s82 -23.5 130 -23.5c44.667 0 83.167 5.16699 115.5 15.5s60.166 21.5 83.499 33.5s42.833 23.167 58.5 33.5s29.167 15.5 40.5 15.5c14.668 0 26.001 -5.66699 33.999 -17l50 -65
c-22 -26.667 -48.333 -49.834 -79 -69.501s-63.5 -35.834 -98.5 -48.501c-35.001 -12.667 -71.168 -22.167 -108.501 -28.5s-74.333 -9.5 -111 -9.5c-70 0 -134.5 11.833 -193.5 35.5s-110 58.334 -153 104.001s-76.5 102.167 -100.5 169.5s-36 144.666 -36 231.999
c0 70.667 10.833 136.667 32.5 198s52.834 114.5 93.501 159.5c40.667 45.001 90.334 80.334 149.001 105.999c58.667 25.6689 124.667 38.502 198 38.5zM518.004 898.006c-86 0 -153.665 -24.8311 -202.998 -74.498s-80 -118.5 -92 -206.5h551
c-0.00292969 41.333 -5.66992 79.166 -17 113.499c-11.3359 34.333 -28.0029 64 -50.001 89c-22 25.002 -48.833 44.335 -80.5 58c-31.667 13.6699 -67.834 20.5029 -108.501 20.499zM823.006 1169.01h-119c-14 0.0175781 -27.333 4.68457 -40 14l-128 126l-17 17l-16 -17
l-129 -126c-4 -3.33301 -9.66699 -6.5 -17 -9.5s-15 -4.5 -23 -4.5h-123l223 264h166z" />
    <glyph glyph-name="edieresis" unicode="&#xeb;" horiz-adv-x="979" 
d="M514.002 1029c60.667 -0.00585938 116.669 -10.167 168.002 -30.4941c51.333 -20.334 95.666 -49.667 132.999 -88c37.333 -38.334 66.5 -85.667 87.5 -142c21 -56.334 31.5 -120.501 31.5 -192.501c0 -28.002 -3 -46.6689 -9 -56.001c-6 -9.33301 -17.333 -14 -34 -14
h-674c1.33301 -64 10 -119.667 26 -167s38 -86.833 66 -118.5s61.333 -55.334 100 -71.001s82 -23.5 130 -23.5c44.667 0 83.167 5.16699 115.5 15.5s60.166 21.5 83.499 33.5s42.833 23.167 58.5 33.5s29.167 15.5 40.5 15.5c14.668 0 26.001 -5.66699 33.999 -17l50 -65
c-22 -26.667 -48.333 -49.834 -79 -69.501s-63.5 -35.834 -98.5 -48.501c-35.001 -12.667 -71.168 -22.167 -108.501 -28.5s-74.333 -9.5 -111 -9.5c-70 0 -134.5 11.833 -193.5 35.5s-110 58.334 -153 104.001s-76.5 102.167 -100.5 169.5s-36 144.666 -36 231.999
c0 70.667 10.833 136.667 32.5 198s52.834 114.5 93.501 159.5c40.667 45.001 90.334 80.334 149.001 105.999c58.667 25.6689 124.667 38.502 198 38.5zM518.004 898.006c-86 0 -153.665 -24.8311 -202.998 -74.498s-80 -118.5 -92 -206.5h551
c-0.00292969 41.333 -5.66992 79.166 -17 113.499c-11.3359 34.333 -28.0029 64 -50.001 89c-22 25.002 -48.833 44.335 -80.5 58c-31.667 13.6699 -67.834 20.5029 -108.501 20.499zM450.006 1289.01c0 -15.333 -3.00293 -29.667 -9.00293 -43
c-6.00098 -13.333 -14.334 -25 -24.999 -35c-10.668 -10 -22.835 -18 -36.501 -24c-13.667 -6 -28.167 -9 -43.5 -9c-14.667 0 -28.667 3 -42 9s-25.166 14 -35.499 24c-10.333 10.0049 -18.5 21.6719 -24.5 35.001c-6 13.3379 -9 27.6709 -9 42.999
c0 15.3408 3 30.0078 9 44c6.00098 14.0049 14.168 26.1719 24.501 36.5c10.334 10.3438 22.167 18.5107 35.5 24.5c13.333 6 27.333 9 42 9c15.333 0 29.833 -3 43.5 -9s25.834 -14.167 36.501 -24.5s19 -22.5 25 -36.5s9 -28.667 9 -44zM809.003 1289.01
c0 -15.333 -2.99902 -29.666 -8.99902 -42.999c-6.00293 -13.333 -14.1699 -25 -24.5 -35c-10.333 -10 -22.333 -18 -36 -24s-28.167 -9 -43.5 -9s-29.833 3 -43.5 9s-25.5 14 -35.5 24c-10 10.0049 -18 21.6719 -24 35c-6 13.3379 -9 27.6709 -9 42.999
c0 15.3408 3 30.0078 9 44c6 14.0049 14 26.1719 24 36.5c10.001 10.3438 21.834 18.5107 35.499 24.5c13.667 6 28.167 9 43.5 9s29.833 -3 43.5 -9s25.667 -14.167 36 -24.5s18.5 -22.5 24.5 -36.5s9 -28.667 9 -44z" />
    <glyph glyph-name="igrave" unicode="&#xec;" horiz-adv-x="582" 
d="M332.992 1162.99c-31.7471 0 -44.1748 9.9873 -60.998 27.9932l-233.994 257.991h168.998c46.293 0 60.9053 -14.2998 79.002 -43.9893l148.998 -241.995h-102.006zM502.83 123.312c17.5332 -3.48438 30.4531 -19.2334 30.4531 -36.9492v-86.3184h-466.572v86.3184
c0 17.7061 12.9219 33.4756 30.4648 36.959l113.83 22.6553v721.121l-113.83 22.665c-17.543 3.46387 -30.4648 19.2334 -30.4648 36.9395v86.3281l144.295 -0.0302734h177.984v-867.033z" />
    <glyph glyph-name="iacute" unicode="&#xed;" horiz-adv-x="611" 
d="M360.309 1191c-16.8477 -18.0098 -30.1816 -27.9941 -61.9922 -27.9941h-105.992l147.982 241.996c17.8506 29.2969 33.6523 43.9883 79.002 43.9883h173.988zM499.141 123.312c17.5312 -3.48438 30.4434 -19.2334 30.4434 -36.9502v-86.3174h-466.584v86.3174
c0 17.707 12.9219 33.4766 30.4648 36.96l113.83 22.6553v721.12l-113.83 22.666c-17.543 3.46387 -30.4648 19.2334 -30.4648 36.9395v86.3281l144.305 -0.0302734h177.996v-867.033z" />
    <glyph glyph-name="icircumflex" unicode="&#xee;" horiz-adv-x="636" 
d="M178.004 1182.99c-8.05762 -6.75098 -24.8145 -14.0068 -40.0029 -13.9863h-123.001l222.998 263.995h165.996l222.988 -263.995h-118.994c-13.9873 0 -27.3389 4.65137 -39.9834 13.9863l-145 143.003c-47.0508 -48.9502 -96.8311 -95.1719 -145.001 -143.003z
M518.85 123.312c17.5312 -3.48438 30.4531 -19.2334 30.4531 -36.9492v-86.3184h-466.583v86.3184c0 17.7061 12.9209 33.4756 30.4639 36.959l113.83 22.6562v721.12l-113.83 22.665c-17.543 3.46387 -30.4639 19.2334 -30.4639 36.9395v86.3281l144.294 -0.0302734
h177.995v-867.033z" />
    <glyph glyph-name="idieresis" unicode="&#xef;" horiz-adv-x="643" 
d="M609.003 1332.98c5.99414 -13.9863 8.99707 -28.6602 8.99707 -43.9893c0 -15.3496 -3.00293 -29.6738 -8.99707 -43.0049c-6.00488 -13.3408 -14.1709 -24.9922 -24.5 -34.9922c-10.3486 -10.001 -22.3584 -18.0039 -36.0068 -24.0088
c-13.6689 -5.99414 -28.1777 -8.99609 -43.5068 -8.99609s-29.8389 3.00195 -43.4873 8.99609c-13.6689 6.00488 -25.4941 14.0078 -35.5049 24.0088c-10.0107 10 -18.0029 21.6514 -23.9971 34.9922c-6.00488 13.3311 -9.00684 27.6553 -9.00684 43.0049
c0 15.3291 3.00195 30.0029 9.00684 43.9893c5.99414 14.0176 13.9863 26.1602 23.9971 36.5088c10.0107 10.3291 21.8359 18.5059 35.5049 24.5c13.6484 6.00488 28.1582 9.00684 43.4873 9.00684s29.8379 -3.00195 43.5068 -9.00684
c13.6484 -5.99414 25.6582 -14.1709 36.0068 -24.5c10.3291 -10.3486 18.4951 -22.502 24.5 -36.5088zM145.013 1177.99c-14.6729 0 -28.6699 3.00195 -42.001 8.99609c-13.3516 6.00488 -25.1758 14.0078 -35.5049 24.0088c-10.3281 10 -18.4951 21.6514 -24.5 34.9922
c-6.00391 13.3311 -9.00684 27.6553 -9.00684 43.0049c0 15.3291 3.00293 30.0029 9.00684 43.9893c6.00488 14.0176 14.1719 26.1602 24.5 36.5088c10.3291 10.3291 22.1533 18.5059 35.5049 24.5c13.3311 6.00488 27.3281 9.00684 42.001 9.00684
c15.3291 0 29.8281 -3.00195 43.4971 -9.00684c13.6689 -5.99414 25.832 -14.1709 36.5088 -24.5c10.6465 -10.3486 18.9873 -22.502 24.9922 -36.5088c6.00488 -13.9863 9.00684 -28.6602 9.00684 -43.9893c0 -15.3496 -3.00195 -29.6738 -9.00684 -43.0049
c-5.99414 -13.3408 -14.3457 -24.9922 -24.9922 -34.9922c-10.6768 -10.001 -22.8496 -18.0039 -36.5088 -24.0088c-13.6689 -5.99414 -28.168 -8.99609 -43.4971 -8.99609zM522.849 123.312c17.5322 -3.4834 30.4531 -19.2334 30.4531 -36.9492v-86.3184h-466.582v86.3184
c0 17.7061 12.9209 33.4756 30.4629 36.96l113.831 22.6553v721.12l-113.831 22.666c-17.542 3.46289 -30.4629 19.2324 -30.4629 36.9385v86.3291l144.294 -0.03125h177.994v-867.033z" />
    <glyph glyph-name="eth" unicode="&#xf0;" horiz-adv-x="1042" 
d="M382.001 1065c-2.66992 4.66699 -4.83789 9.16797 -6.50098 13.501c-1.67285 4.34961 -2.50586 8.5166 -2.5 12.5c0.000976562 14.667 7.66797 27 23 37l103 72c-30 13.3379 -61.833 25.6709 -95.499 36.999c-33.667 11.3428 -69.5 21.6758 -107.5 30.999
c-12 3.34277 -22.167 9.50977 -30.5 18.5c-8.33301 9.00488 -12.5 21.1719 -12.5 36.5c0.00195312 10.0098 1.66895 19.6768 5 29l20 62c64 -10.6719 126 -26.0049 186 -45.999c60 -20 117 -46 171 -78l167 122l35 -57c5.33301 -8.66699 8 -16.667 8 -24
c0 -14.0049 -7.33301 -26.3379 -22 -36.999l-97 -67c40 -32.667 76.5 -69.667 109.5 -111s61.167 -87.833 84.5 -139.5s41.5 -108.334 54.5 -170.001s19.5 -129.167 19.5 -202.5c0 -95.333 -10.333 -181 -31 -257s-51.5 -140.667 -92.5 -194s-92 -94.333 -153 -123
s-131.5 -43 -211.5 -43c-65.333 0 -126.333 11 -183 33s-105.834 53.5 -147.501 94.5s-74.5 91.167 -98.5 150.5s-36 126.333 -36 201c0 62.667 10.333 121.834 31 177.5c20.667 55.667 50.334 104.5 89.001 146.5c38.667 42.001 85.5 75.334 140.5 100
c55 24.6689 117.167 37.002 186.5 37c66.667 0 129.5 -14.333 188.5 -43s110.167 -72 153.5 -130c-13.334 90.667 -39.501 167.667 -78.5 231c-39 63.333 -89.833 116.333 -152.5 159l-184 -135zM510 125.001c47.333 0 90.167 9.00098 128.5 27.001s71 45.167 98 81.5
s48.167 82 63.5 137s24 119.5 26 193.5c-10.667 28.667 -24.667 56.5 -42 83.499c-17.335 27 -38.502 51 -63.5 72c-25 21 -54 37.667 -87 50c-33.001 12.333 -70.168 18.5 -111.501 18.5c-50 0 -93.833 -8.33301 -131.5 -25s-69.167 -39.5 -94.5 -68.5
s-44.5 -63.333 -57.5 -103s-19.5 -82.167 -19.5 -127.5c0.000976562 -54 7.66797 -102.167 23.001 -144.5s36.333 -77.833 63 -106.5s57.5 -50.5 92.5 -65.5s72.5 -22.5 112.5 -22.5z" />
    <glyph glyph-name="ntilde" unicode="&#xf1;" horiz-adv-x="1245" 
d="M376 866c98.667 108.667 210.668 163.002 336.001 163.002c109.333 0 193.666 -35.333 252.999 -106c57.335 -68 86.002 -160.667 86 -278v-499c64.667 -12.667 102.667 -20.334 114 -23.001c20.667 -4 31 -16.333 31 -37v-86h-323v645c0 161.333 -71 242 -213 242
c-98.667 0 -190 -47 -274 -141v-600c4.66699 -0.666992 42.667 -8.33398 114 -23.001c20.6689 -4 31.002 -16.333 31 -37v-86h-467v86c0 20.667 10 33 30 37l114 23v721c-64 12.668 -102 20.335 -114 23c-20 4.00195 -30 16.335 -30 37v86h144h106
c25.333 0 41.333 -12.333 48 -37zM737.001 1325c24 0 42.5068 6.99609 55.5068 20.9961c13.0029 14.0029 19.8359 35.6699 20.499 65.001h108c-0.0078125 -31.333 -4.1748 -60.166 -12.501 -86.499c-8.33301 -26.333 -20.333 -48.833 -36 -67.5
s-34.334 -33.167 -56.001 -43.5s-45.834 -15.5 -72.501 -15.5c-23.335 0 -45.168 4.83301 -65.5 14.5c-20.335 9.66699 -39.502 20.167 -57.501 31.5l-51 31.5c-16.002 9.66699 -31.6689 14.5 -47.001 14.5c-48 -0.00390625 -72.667 -29.3369 -74 -88h-111
c0 32.002 4.33301 61.1689 13 87.5c8.66699 26.3359 21 49.0029 37 68c16 19.0078 35 33.6748 57 44c22 10.3555 46 15.5225 72 15.501c23.333 -0.0322266 45.166 -4.86523 65.499 -14.499c20.333 -9.66699 39.5 -20.167 57.5 -31.5l50.5 -31.5
c15.667 -9.69727 31.167 -14.5303 46.5 -14.5z" />
    <glyph glyph-name="ograve" unicode="&#xf2;" horiz-adv-x="1053" 
d="M526 1029c74 0 140.835 -12.3311 200.501 -36.998c59.667 -24.667 110.334 -59.667 152 -105c41.667 -45.334 73.667 -100.167 96 -164.5c22.3369 -64.334 33.5039 -136.167 33.5 -215.5c0 -80 -11.167 -152 -33.5 -216s-54.333 -118.667 -96 -164
s-92.334 -80.166 -152.001 -104.499s-126.5 -36.5 -200.5 -36.5s-140.833 12.167 -200.5 36.5s-110.5 59.166 -152.5 104.499s-74.333 100 -97 164s-34 136 -34 216c0 79.333 11.333 151.166 34 215.499s55 119.166 97 164.499s92.833 80.333 152.5 105
c59.667 24.6689 126.5 37.002 200.5 37zM526.002 125.002c100 0 174.667 33.5 224 100.5s74 160.5 74 280.5c-0.000976562 120.667 -24.668 214.667 -74.001 282c-49.334 67.333 -124.001 101 -224.001 101c-50.667 -0.00292969 -94.667 -8.66992 -132 -26
c-37.333 -17.333 -68.5 -42.333 -93.5 -75s-43.667 -72.834 -56 -120.501s-18.5 -101.5 -18.5 -161.5c0.000976562 -60 6.16797 -113.667 18.501 -161c12.334 -47.333 31.001 -87.166 56.001 -119.499s56.167 -57.166 93.5 -74.499
c37.333 -17.334 81.333 -26.001 132 -26.001zM428.002 1449c22 0 38.333 -3.5 49 -10.5s20.667 -18.167 30 -33.5l149 -242h-102c-14 0.0527344 -25.333 2.21973 -34 6.5c-8.66699 4.3418 -17.667 11.5088 -27 21.5l-234 258h169z" />
    <glyph glyph-name="oacute" unicode="&#xf3;" horiz-adv-x="1053" 
d="M527 1029c74 0 140.835 -12.3311 200.501 -36.998c59.667 -24.667 110.334 -59.667 152 -105c41.667 -45.334 73.667 -100.167 96 -164.5c22.3369 -64.334 33.5039 -136.167 33.5 -215.5c0 -80 -11.167 -152 -33.5 -216s-54.333 -118.667 -96 -164
s-92.334 -80.166 -152.001 -104.499s-126.5 -36.5 -200.5 -36.5s-140.833 12.167 -200.5 36.5s-110.5 59.166 -152.5 104.499s-74.333 100 -97 164s-34 136 -34 216c0 79.333 11.333 151.166 34 215.499s55 119.166 97 164.499s92.833 80.333 152.5 105
c59.667 24.6689 126.5 37.002 200.5 37zM527.002 125.002c100 0 174.667 33.5 224 100.5s74 160.5 74 280.5c-0.000976562 120.667 -24.668 214.667 -74.001 282c-49.334 67.333 -124.001 101 -224.001 101c-50.667 -0.00292969 -94.667 -8.66992 -132 -26
c-37.333 -17.333 -68.5 -42.333 -93.5 -75s-43.667 -72.834 -56 -120.501s-18.5 -101.5 -18.5 -161.5c0.000976562 -60 6.16797 -113.667 18.501 -161c12.334 -47.333 31.001 -87.166 56.001 -119.499s56.167 -57.166 93.5 -74.499
c37.333 -17.334 81.333 -26.001 132 -26.001zM819.002 1449l-232.999 -258c-9.33594 -10 -18.5029 -17.167 -27.501 -21.5c-9 -4.33301 -20.5 -6.5 -34.5 -6.5h-106l148 242c9.33301 15.3389 19.5 26.5059 30.5 33.5c11 7 27.167 10.5 48.5 10.5h174z" />
    <glyph glyph-name="ocircumflex" unicode="&#xf4;" horiz-adv-x="1052" 
d="M526 1029c74 0 140.835 -12.3311 200.501 -36.998c59.667 -24.667 110.334 -59.667 152 -105c41.667 -45.334 73.667 -100.167 96 -164.5c22.3369 -64.334 33.5039 -136.167 33.5 -215.5c0 -80 -11.167 -152 -33.5 -216s-54.333 -118.667 -96 -164
s-92.334 -80.166 -152.001 -104.499s-126.5 -36.5 -200.5 -36.5s-140.833 12.167 -200.5 36.5s-110.5 59.166 -152.5 104.499s-74.333 100 -97 164s-34 136 -34 216c0 79.333 11.333 151.166 34 215.499s55 119.166 97 164.499s92.833 80.333 152.5 105
c59.667 24.6689 126.5 37.002 200.5 37zM526.002 125.002c100 0 174.667 33.5 224 100.5s74 160.5 74 280.5c-0.000976562 120.667 -24.668 214.667 -74.001 282c-49.334 67.333 -124.001 101 -224.001 101c-50.667 -0.00292969 -94.667 -8.66992 -132 -26
c-37.333 -17.333 -68.5 -42.333 -93.5 -75s-43.667 -72.834 -56 -120.501s-18.5 -101.5 -18.5 -161.5c0.000976562 -60 6.16797 -113.667 18.501 -161c12.334 -47.333 31.001 -87.166 56.001 -119.499s56.167 -57.166 93.5 -74.499
c37.333 -17.334 81.333 -26.001 132 -26.001zM833.002 1169h-119c-14 0.0175781 -27.333 4.68457 -40 14l-128 126l-17 17l-16 -17l-129 -126c-4 -3.33301 -9.66699 -6.5 -17 -9.5s-15 -4.5 -23 -4.5h-123l223 264h166z" />
    <glyph glyph-name="otilde" unicode="&#xf5;" horiz-adv-x="1052" 
d="M526 1029c74 0 140.835 -12.3311 200.501 -36.998c59.667 -24.667 110.334 -59.667 152 -105c41.667 -45.334 73.667 -100.167 96 -164.5c22.3369 -64.334 33.5039 -136.167 33.5 -215.5c0 -80 -11.167 -152 -33.5 -216s-54.333 -118.667 -96 -164
s-92.334 -80.166 -152.001 -104.499s-126.5 -36.5 -200.5 -36.5s-140.833 12.167 -200.5 36.5s-110.5 59.166 -152.5 104.499s-74.333 100 -97 164s-34 136 -34 216c0 79.333 11.333 151.166 34 215.499s55 119.166 97 164.499s92.833 80.333 152.5 105
c59.667 24.6689 126.5 37.002 200.5 37zM526.002 125.002c100 0 174.667 33.5 224 100.5s74 160.5 74 280.5c-0.000976562 120.667 -24.668 214.667 -74.001 282c-49.334 67.333 -124.001 101 -224.001 101c-50.667 -0.00292969 -94.667 -8.66992 -132 -26
c-37.333 -17.333 -68.5 -42.333 -93.5 -75s-43.667 -72.834 -56 -120.501s-18.5 -101.5 -18.5 -161.5c0.000976562 -60 6.16797 -113.667 18.501 -161c12.334 -47.333 31.001 -87.166 56.001 -119.499s56.167 -57.166 93.5 -74.499
c37.333 -17.334 81.333 -26.001 132 -26.001zM638.002 1325c24 0 42.502 6.99609 55.502 20.9961c13.0029 14.0029 19.8359 35.6699 20.5 65.001h108c-0.00976562 -31.333 -4.17676 -60.166 -12.5 -86.499c-8.33301 -26.333 -20.333 -48.833 -36 -67.5
s-34.334 -33.167 -56.001 -43.5s-45.834 -15.5 -72.501 -15.5c-23.335 0 -45.168 4.83301 -65.5 14.5c-20.335 9.66699 -39.502 20.167 -57.5 31.5l-51 31.5s-31.667 14.5 -47 14.5c-48 -0.00390625 -72.667 -29.3369 -74 -88h-111c0 32.002 4.33301 61.1689 13 87.5
c8.66699 26.3359 21 49.0029 37 68c16 19.0078 35 33.6748 57 44c22 10.3555 46 15.5225 72 15.501c23.334 -0.0322266 45.167 -4.86523 65.5 -14.499c20.333 -9.66699 39.5 -20.167 57.5 -31.5l50.5 -31.5c15.667 -9.69727 31.167 -14.5303 46.5 -14.5z" />
    <glyph glyph-name="odieresis" unicode="&#xf6;" horiz-adv-x="1052" 
d="M526 1029c74 0 140.835 -12.3311 200.501 -36.998c59.667 -24.667 110.334 -59.667 152 -105c41.667 -45.334 73.667 -100.167 96 -164.5c22.3369 -64.334 33.5039 -136.167 33.5 -215.5c0 -80 -11.167 -152 -33.5 -216s-54.333 -118.667 -96 -164
s-92.334 -80.166 -152.001 -104.499s-126.5 -36.5 -200.5 -36.5s-140.833 12.167 -200.5 36.5s-110.5 59.166 -152.5 104.499s-74.333 100 -97 164s-34 136 -34 216c0 79.333 11.333 151.166 34 215.499s55 119.166 97 164.499s92.833 80.333 152.5 105
c59.667 24.6689 126.5 37.002 200.5 37zM526.002 125.002c100 0 174.667 33.5 224 100.5s74 160.5 74 280.5c-0.000976562 120.667 -24.668 214.667 -74.001 282c-49.334 67.333 -124.001 101 -224.001 101c-50.667 -0.00292969 -94.667 -8.66992 -132 -26
c-37.333 -17.333 -68.5 -42.333 -93.5 -75s-43.667 -72.834 -56 -120.501s-18.5 -101.5 -18.5 -161.5c0.000976562 -60 6.16797 -113.667 18.501 -161c12.334 -47.333 31.001 -87.166 56.001 -119.499s56.167 -57.166 93.5 -74.499
c37.333 -17.334 81.333 -26.001 132 -26.001zM460.002 1289c0 -15.333 -3.00293 -29.667 -9.00293 -43c-6.00098 -13.333 -14.334 -25 -25 -35c-10.667 -10 -22.834 -18 -36.5 -24c-13.667 -6 -28.167 -9 -43.5 -9c-14.667 0 -28.667 3 -42 9s-25.166 14 -35.499 24
c-10.333 10.0049 -18.5 21.6719 -24.5 35.001c-6 13.3379 -9 27.6709 -9 42.999c0 15.3408 3 30.0078 9 44c6.00098 14.0049 14.168 26.1719 24.501 36.5c10.334 10.3438 22.167 18.5107 35.5 24.5c13.333 6 27.333 9 42 9c15.333 0 29.833 -3 43.5 -9
s25.834 -14.167 36.501 -24.5s19 -22.5 25 -36.5s9 -28.667 9 -44zM818.999 1289c0 -15.333 -2.99902 -29.666 -8.99902 -42.999c-6.00488 -13.333 -14.1719 -25 -24.5 -35c-10.333 -10 -22.333 -18 -36 -24s-28.167 -9 -43.5 -9s-29.833 3 -43.5 9s-25.5 14 -35.5 24
c-10 10.0049 -18 21.6719 -24 35c-6 13.3379 -9 27.6709 -9 42.999c0 15.3408 3 30.0078 9 44c6 14.0049 14 26.1719 24 36.5c10.001 10.3438 21.834 18.5107 35.499 24.5c13.667 6 28.167 9 43.5 9s29.833 -3 43.5 -9s25.667 -14.167 36 -24.5s18.5 -22.5 24.5 -36.5
s9 -28.667 9 -44z" />
    <glyph glyph-name="divide" unicode="&#xf7;" horiz-adv-x="1039" 
d="M38 739h958v-135h-958v135zM392 1026c0.00195312 17.335 3.1709 33.668 9.50293 48.999c6.33398 15.3379 15.001 28.6709 26 40c11 11.333 24 20.333 39 27s31.5 10 49.5 10c17.333 -0.0175781 33.5 -3.35059 48.5 -10c15 -6.66699 28.167 -15.667 39.5 -27
s20.333 -24.666 27 -39.999c6.67188 -15.333 10.0049 -31.666 9.99902 -48.999c0 -18 -3.33301 -34.5 -10 -49.5c-6.66699 -15.002 -15.667 -28.1689 -27 -39.5c-11.335 -11.3369 -24.502 -20.1699 -39.501 -26.5c-15.002 -6.33984 -31.1689 -9.50684 -48.501 -9.5
c-18 0 -34.5 3.16699 -49.5 9.5s-28 15.166 -39 26.499s-19.667 24.5 -26 39.5s-9.5 31.5 -9.5 49.5zM392.002 314c0.00195312 17.334 3.1709 33.666 9.50293 48.999c6.33398 15.334 15.001 28.667 26 40c11 11.333 24 20.333 39 27s31.5 10 49.5 10
c17.333 -0.00195312 33.5 -3.33496 48.5 -10c15 -6.66699 28.167 -15.667 39.5 -27s20.333 -24.666 27 -39.999c6.67188 -15.333 10.0049 -31.666 9.99902 -48.999c0 -18 -3.33301 -34.5 -10 -49.5s-15.667 -28.167 -27 -39.5
c-11.335 -11.333 -24.502 -20.166 -39.501 -26.499c-15.002 -6.33398 -31.1689 -9.50098 -48.501 -9.50098c-18 0 -34.5 3.16699 -49.5 9.5s-28 15.166 -39 26.499s-19.667 24.5 -26 39.5s-9.5 31.5 -9.5 49.5z" />
    <glyph glyph-name="oslash" unicode="&#xf8;" horiz-adv-x="1076" 
d="M888 884c40.668 -45.333 72.0039 -99.832 94.0029 -163.499c22 -63.667 33 -134.834 33 -213.501c0 -80 -11.167 -152 -33.5 -216s-54.333 -118.667 -96 -164s-92.334 -80.166 -152.001 -104.499s-126.5 -36.5 -200.5 -36.5c-50.667 0 -97.834 5.66699 -141.501 17
s-83.5 27.666 -119.5 48.999l-55 -74c-14.667 -19.333 -31.834 -33.166 -51.501 -41.499s-39.167 -12.5 -58.5 -12.5h-67l145 196c-44 46 -77.667 101.333 -101 166s-35 138.334 -35 221.001c0 79.333 11.333 151.166 34 215.499s55 119.166 97 164.499
s92.833 80.333 152.5 105c59.667 24.6689 126.5 37.002 200.5 37c52.667 0 101.5 -6.33301 146.5 -19s86.167 -30.667 123.5 -54l68 91c13.333 18 25.333 30.833 36 38.5s26.667 11.5 48 11.5h90zM222.003 506.001c0 -106.667 19.668 -192.332 59.001 -256.999l436 590
c-48.667 37.333 -110 56 -184 56c-50.667 0 -95.334 -9 -134.001 -27c-38.667 -18.001 -71.167 -43.668 -97.5 -77c-26.333 -33.335 -46.166 -74.168 -59.499 -122.5c-13.334 -48.334 -20.001 -102.501 -20.001 -162.501zM533.004 120.003c50 0 94.168 8.83301 132.501 26.5
s70.666 43.167 96.999 76.5s46.166 73.833 59.499 121.5s20 101.5 20 161.5c0 100.667 -17.333 183 -52 247l-433 -585c46.667 -32 105.334 -48 176.001 -48z" />
    <glyph glyph-name="ugrave" unicode="&#xf9;" horiz-adv-x="1210" 
d="M561.999 126c100.667 0 192.001 46.667 274.001 140v601c-11.334 2.66992 -49.001 10.3369 -113 23c-20.667 4.00195 -31 16.335 -31 37v86h144h178v-867c64.667 -12.667 102.667 -20.334 114 -23.001c20.667 -4 31 -16.333 31 -37v-86h-251
c-25.333 0 -41.333 12.333 -48 37l-14 109c-97.333 -108 -209.333 -162 -336 -162c-108 0 -192.333 35 -253 105c-57.333 66.667 -86 159.334 -86 278.001v500c-64 12.668 -102 20.335 -114 23c-20 4.00195 -30 16.335 -30 37v86h322v-646c0 -76.667 17.667 -136 53 -178
s88.666 -63 159.999 -63zM501 1449c22.002 0 38.335 -3.5 49 -10.5c10.667 -7 20.667 -18.167 30 -33.5l149 -242h-102c-14 0.0527344 -25.333 2.21973 -34 6.5c-8.66699 4.3418 -17.667 11.5088 -27 21.5l-234 258h169z" />
    <glyph glyph-name="uacute" unicode="&#xfa;" horiz-adv-x="1209" 
d="M561.999 126c100.667 0 192.001 46.667 274.001 140v601c-11.334 2.66992 -49.001 10.3369 -113 23c-20.667 4.00195 -31 16.335 -31 37v86h144h178v-867c64.667 -12.667 102.667 -20.334 114 -23.001c20.667 -4 31 -16.333 31 -37v-86h-251
c-25.333 0 -41.333 12.333 -48 37l-14 109c-97.333 -108 -209.333 -162 -336 -162c-108 0 -192.333 35 -253 105c-57.333 66.667 -86 159.334 -86 278.001v500c-64 12.668 -102 20.335 -114 23c-20 4.00195 -30 16.335 -30 37v86h322v-646c0 -76.667 17.667 -136 53 -178
s88.666 -63 159.999 -63zM891 1449l-233 -258c-9.33691 -10 -18.5039 -17.167 -27.5 -21.5c-9 -4.33301 -20.5 -6.5 -34.5 -6.5h-106l148 242c9.33301 15.3389 19.5 26.5059 30.5 33.5c11 7 27.167 10.5 48.5 10.5h174z" />
    <glyph glyph-name="ucircumflex" unicode="&#xfb;" horiz-adv-x="1209" 
d="M561.999 126c100.667 0 192.001 46.667 274.001 140v601c-11.334 2.66992 -49.001 10.3369 -113 23c-20.667 4.00195 -31 16.335 -31 37v86h144h178v-867c64.667 -12.667 102.667 -20.334 114 -23.001c20.667 -4 31 -16.333 31 -37v-86h-251
c-25.333 0 -41.333 12.333 -48 37l-14 109c-97.333 -108 -209.333 -162 -336 -162c-108 0 -192.333 35 -253 105c-57.333 66.667 -86 159.334 -86 278.001v500c-64 12.668 -102 20.335 -114 23c-20 4.00195 -30 16.335 -30 37v86h322v-646c0 -76.667 17.667 -136 53 -178
s88.666 -63 159.999 -63zM906 1169h-119c-14 0.0175781 -27.333 4.68457 -40 14l-128 126l-17 17l-16 -17l-129 -126c-4 -3.33301 -9.66699 -6.5 -17 -9.5s-15 -4.5 -23 -4.5h-123l223 264h166z" />
    <glyph glyph-name="udieresis" unicode="&#xfc;" horiz-adv-x="1209" 
d="M561.999 126c100.667 0 192.001 46.667 274.001 140v601c-11.334 2.66992 -49.001 10.3369 -113 23c-20.667 4.00195 -31 16.335 -31 37v86h144h178v-867c64.667 -12.667 102.667 -20.334 114 -23.001c20.667 -4 31 -16.333 31 -37v-86h-251
c-25.333 0 -41.333 12.333 -48 37l-14 109c-97.333 -108 -209.333 -162 -336 -162c-108 0 -192.333 35 -253 105c-57.333 66.667 -86 159.334 -86 278.001v500c-64 12.668 -102 20.335 -114 23c-20 4.00195 -30 16.335 -30 37v86h322v-646c0 -76.667 17.667 -136 53 -178
s88.666 -63 159.999 -63zM533 1289c0 -15.333 -3.00098 -29.667 -9.00098 -43s-14.333 -25 -25 -35s-22.834 -18 -36.501 -24s-28.167 -9 -43.5 -9c-14.667 0 -28.667 3 -42 9s-25.166 14 -35.499 24c-10.333 10.0049 -18.5 21.6719 -24.5 35.001
c-6 13.3379 -9 27.6709 -9 42.999c0 15.3408 3 30.0078 9 44c6.00098 14.0049 14.168 26.1719 24.5 36.5c10.334 10.3438 22.167 18.5107 35.5 24.5c13.333 6 27.333 9 42 9c15.333 0 29.833 -3 43.5 -9c13.668 -6 25.835 -14.167 36.501 -24.5
c10.6689 -10.333 19.002 -22.5 25 -36.5c6 -14 9 -28.667 9 -44zM891.999 1289c0 -15.333 -2.99902 -29.666 -8.99902 -42.999c-6.00488 -13.333 -14.1719 -25 -24.5 -35c-10.333 -10 -22.333 -18 -36 -24s-28.167 -9 -43.5 -9s-29.833 3 -43.5 9s-25.5 14 -35.5 24
c-10 10.0049 -18 21.6719 -24 35c-6 13.3379 -9 27.6709 -9 42.999c0 15.3408 3 30.0078 9 44c6 14.0049 14 26.1719 24 36.5c10.001 10.3438 21.834 18.5107 35.499 24.5c13.667 6 28.167 9 43.5 9s29.833 -3 43.5 -9s25.667 -14.167 36 -24.5s18.5 -22.5 24.5 -36.5
s9 -28.667 9 -44z" />
    <glyph glyph-name="yacute" unicode="&#xfd;" horiz-adv-x="1189" 
d="M1080 1013l72.999 0.000976562v-86c0 -20.667 -10 -33 -30 -37c-6 -1.34375 -23.667 -5.01074 -53 -11.001c-29.333 -6 -46.666 -9.33301 -51.999 -10l-503 -1168c-13.334 -29.333 -34.667 -44 -63.999 -44h-132l185 402l-356 813c-48.667 9.33301 -79 15.333 -91 18
c-20 4.00195 -30 16.335 -30 37v86h454v-86c0 -20.667 -10 -33 -30 -37c-10.667 -2.66699 -47.334 -10 -110.001 -22l225 -530c10.667 -26.667 19.667 -56.334 27 -89c12 39.333 22 69.333 30 90l219 529l-109.5 22c-19 4.00195 -28.5 16.335 -28.5 37v86h376zM896.998 1449
l-233 -258c-9.33691 -10 -18.5039 -17.167 -27.5 -21.5c-9 -4.33301 -20.5 -6.5 -34.5 -6.5h-106l148 242c9.33301 15.3389 19.5 26.5059 30.5 33.5c11 7 27.167 10.5 48.5 10.5h174z" />
    <glyph glyph-name="thorn" unicode="&#xfe;" horiz-adv-x="1047" 
d="M109 -343l0.00292969 1816h178v-607c42 49.333 90.333 88.833 145 118.5c54.667 29.6699 117 44.5029 187 44.5c58 0 110.667 -11 158 -33s87.666 -54.833 120.999 -98.5s59 -97.667 77 -162c18 -64.334 27 -138.501 27 -222.501c0 -74.667 -10 -144.167 -30 -208.5
c-20.001 -64.333 -48.668 -120 -86 -167c-37.334 -47 -83.167 -84 -137.5 -111c-54.334 -27 -115.501 -40.5 -183.501 -40.5c-63.334 0 -117.001 11.5 -161.001 34.5s-83 55.5 -117 97.5v-461h-178zM560.003 887.001c-58 0 -108.831 -13.3311 -152.498 -39.998
s-83.834 -64.334 -120.5 -113.001v-490c32.667 -44 68.5 -75 107.5 -93s82.5 -27 130.5 -27c94 0 166.333 33.667 216.999 101c50.667 67.333 76 163.333 75.999 288c0 66 -5.83301 122.667 -17.5 170s-28.5 86.166 -50.5 116.499s-49 52.5 -81 66.5s-68.333 21 -109 21z
" />
    <glyph glyph-name="ydieresis" unicode="&#xff;" horiz-adv-x="1189" 
d="M1080 1013l72.999 0.000976562v-86c0 -20.667 -10 -33 -30 -37c-6 -1.34375 -23.667 -5.01074 -53 -11.001c-29.333 -6 -46.666 -9.33301 -51.999 -10l-503 -1168c-13.334 -29.333 -34.667 -44 -63.999 -44h-132l185 402l-356 813c-48.667 9.33301 -79 15.333 -91 18
c-20 4.00195 -30 16.335 -30 37v86h454v-86c0 -20.667 -10 -33 -30 -37c-10.667 -2.66699 -47.334 -10 -110.001 -22l225 -530c10.667 -26.667 19.667 -56.334 27 -89c12 39.333 22 69.333 30 90l219 529l-109.5 22c-19 4.00195 -28.5 16.335 -28.5 37v86h376zM538.998 1289
c0 -15.333 -3.00195 -29.666 -9.00195 -42.999s-14.333 -25 -25 -35s-22.834 -18 -36.501 -24s-28.167 -9 -43.5 -9c-14.667 0 -28.667 3 -42 9s-25.166 14 -35.499 24c-10.333 10.0049 -18.5 21.6719 -24.5 35c-6 13.3379 -9 27.6709 -9 42.999c0 15.3408 3 30.0078 9 44
c6.00098 14.0049 14.168 26.1719 24.501 36.5c10.334 10.3438 22.167 18.5107 35.5 24.5c13.333 6 27.333 9 42 9c15.333 0 29.833 -3 43.5 -9c13.6689 -6 25.8359 -14.167 36.501 -24.5c10.6699 -10.333 19.0029 -22.5 25 -36.5c6 -14 9 -28.667 9 -44zM897.996 1289
c0 -15.333 -2.99805 -29.666 -8.99805 -42.999c-6.00391 -13.333 -14.1709 -25 -24.501 -35c-10.333 -10 -22.333 -18 -36 -24s-28.167 -9 -43.5 -9s-29.833 3 -43.5 9s-25.5 14 -35.5 24c-10 10.0049 -18 21.6719 -24 35c-6 13.3379 -9 27.6709 -9 42.999
c0 15.3408 3 30.0078 9 44c6 14.0049 14 26.1719 24 36.5c10.001 10.3438 21.834 18.5107 35.499 24.5c13.667 6 28.167 9 43.5 9s29.833 -3 43.5 -9s25.667 -14.167 36 -24.5s18.5 -22.5 24.5 -36.5s9 -28.667 9 -44z" />
    <glyph glyph-name="Aogonek" unicode="&#x104;" 
d="M1489.85 -223.954l28.0254 -65.9893c-20.002 -15.3281 -45.5059 -27.8291 -76.502 -37.502c-31.0059 -9.65234 -63.498 -14.5 -97.4961 -14.5c-58.6738 0 -104.846 13.168 -138.506 39.501c-33.6699 26.334 -50.4941 61.4912 -50.4941 105.49
c0 38.6807 13.1465 74.8516 39.4902 108.502c26.3125 33.6504 59.4609 63.1299 99.4238 88.4492h-102.334h-106.197v79.002c0 9.80566 3.50391 18.085 10.5547 24.8174c4.58984 4.39551 10.2363 7.20312 16.7637 8.71973l0.0410156 0.18457l81.5215 23.2803
l0.0117188 -0.00976562l-86.8926 224.371l-24.7969 64.2363h-617.947l-53.6816 -138.914l-58.0684 -149.919l0.205078 0.225586l81.5332 -23.2803l0.0410156 -0.18457c6.51758 -1.52734 12.1719 -4.32422 16.7422 -8.71973
c7.04102 -6.73242 10.5645 -15.0117 10.5645 -24.8174v-79.002h-106.195h-103.656h-16.7012h-78.6035h-54.6973h-51.498v79.002c0 9.80566 3.51367 18.085 10.5645 24.8174c4.375 4.20117 9.76367 6.93652 15.9336 8.51465l-0.03125 0.173828l79.3711 23.3828
l518.645 1297.13h197.004l518.645 -1297.08l79.5039 -23.4238l-0.0292969 -0.174805c6.16797 -1.57715 11.5469 -4.31348 15.9336 -8.51465c7.03906 -6.73242 10.5645 -15.0117 10.5645 -24.8174v-79.002h-51.6133h-37.2168
c-13.3301 -7.32617 -26.959 -16.1279 -40.9238 -26.4463c-13.998 -10.3291 -26.6719 -22 -37.9961 -35.0029c-11.3418 -12.9932 -20.666 -27.3281 -27.9922 -42.9951c-7.34766 -15.6465 -10.9961 -32.1543 -10.9961 -49.4912c0 -25.3398 8.15625 -45.168 24.5 -59.5029
c16.3242 -14.335 38.498 -21.5078 66.4902 -21.5078c15.3301 0 27.9941 1.16797 38.0059 3.50488c9.99023 2.33594 18.3203 4.99023 24.9922 7.99219c6.65039 3.00195 12.1523 5.84082 16.4961 8.50488c4.33398 2.66406 8.15625 3.99609 11.498 3.99609
c4.66211 0 8.50391 -1.33203 11.4961 -3.99609c3.00195 -2.66406 5.16406 -5.66699 6.50586 -9.00684zM518.586 564.579h509.844l-17.1934 44.542l-195.25 505.889c-14.6426 35.9971 -28.9883 80.9902 -42.9863 134.99
c-7.3457 -27.3379 -14.5078 -52.4941 -21.5176 -75.4775c-6.98828 -23.0137 -13.832 -43.1787 -20.4922 -60.5166l-175.66 -454.399h-0.00976562l-11.2812 -29.1719z" />
    <glyph glyph-name="aogonek" unicode="&#x105;" horiz-adv-x="1027" 
d="M765.989 -59.4482c-11.3438 -12.9932 -20.6777 -27.3281 -27.9629 -43.0156c-7.34766 -15.6465 -10.9941 -32.1543 -10.9941 -49.4912c0 -25.3408 8.15625 -45.168 24.5 -59.5029c16.332 -14.335 38.4961 -21.5078 66.5 -21.5078
c15.3184 0 27.9941 1.16797 37.9941 3.50488c9.99023 2.33594 18.3223 4.98926 24.9922 7.99219c6.65039 3.00195 12.1523 5.84082 16.498 8.50488c4.33398 2.66406 8.15625 3.99609 11.4961 3.99609c4.66211 0 8.50391 -1.33203 11.5078 -3.99609
c2.99023 -2.66406 5.15234 -5.66699 6.49609 -9.00684l27.9941 -65.9893c-19.9922 -15.3291 -45.5059 -27.8301 -76.502 -37.5029c-30.9961 -9.65234 -63.5 -14.499 -97.498 -14.499c-58.6719 0 -104.844 13.167 -138.504 39.501
c-33.6699 26.334 -50.4961 61.4902 -50.4961 105.49c0 19.3555 3.64844 38.3525 10.9941 57.002c7.32812 18.6797 17.5117 36.499 30.5059 53.5078c12.9922 17.0098 28.3203 33.0049 45.9961 48.0059c17.6445 14.9912 36.8164 28.8447 57.4941 41.499l1.52734 -0.0410156
c-5.32812 1.28125 -10.2578 2.86914 -14.5098 5.00098c-10.666 5.32812 -17.6758 16.6504 -20.9941 33.998l-20.0117 93.9932c-26.6523 -23.998 -52.6582 -45.5059 -77.998 -64.4824c-25.3301 -19.0186 -52.0137 -35.0234 -80.0059 -48.0166
c-27.9746 -13.0029 -57.834 -22.8604 -89.4961 -29.5c-31.6816 -6.66016 -66.8477 -10.0215 -105.498 -10.0215c-39.3477 0 -76.1641 5.5332 -110.49 16.5488c-34.3477 11.0566 -64.166 27.6152 -89.5059 49.707c-25.3398 22.0508 -45.4844 50.0029 -60.4863 83.7871
c-15.0117 33.7627 -22.502 73.7344 -22.502 119.886c0 40.126 11.0059 78.7666 33.0059 115.91c22 37.124 57.5039 70.0674 106.494 98.8398c49.0098 28.7627 113.164 52.3301 192.514 70.7432c79.3203 18.3926 176.324 27.5938 290.984 27.5938v79.4941
c0 79.166 -16.8438 139.017 -50.5059 179.614c-33.6602 40.5869 -83.5 60.8955 -149.498 60.8955c-43.3535 0 -79.8418 -5.5127 -109.496 -16.5068c-29.6738 -11.0049 -55.3633 -23.3418 -77.0137 -37.001c-21.6719 -13.6797 -40.3516 -25.9961 -55.998 -37.001
c-15.668 -10.9941 -31.1699 -16.4863 -46.4902 -16.4863c-12.0078 0 -22.5117 3.17578 -31.5078 9.49805c-8.99609 6.33301 -16.1699 14.1611 -21.5078 23.5059l-31.9902 56.9922c55.998 54.0205 116.33 94.3516 180.986 121.014
c64.6582 26.6611 136.344 40.0127 215.008 40.0127c56.6426 0 106.994 -9.35449 150.994 -28.0137c44 -18.6602 81 -44.6553 111.002 -77.998c30.002 -33.3535 52.6582 -73.6631 67.998 -121.003c15.3184 -47.3506 23.0039 -99.3525 23.0039 -155.996v-505.059
l98.8691 -19.6738c17.543 -3.47363 30.4531 -19.2432 30.4531 -36.959v-86.3184h-129.322h-0.103516c-13.3301 -7.31641 -26.9492 -16.1279 -40.9258 -26.4473c-13.9961 -10.3281 -26.6719 -21.999 -37.9941 -35.002zM670.009 247.009l-0.00976562 208.991
c-81.9941 0 -151.662 -5.19434 -209.002 -15.6055c-57.3398 -10.4004 -103.994 -23.9766 -139.99 -40.7197c-36.0059 -16.7842 -62.166 -36.5498 -78.5 -59.3486c-16.3438 -22.8096 -24.5098 -48.2725 -24.5098 -76.4199c0 -26.8262 4.34375 -49.9629 13.0137 -69.4219
c8.6582 -19.4482 20.3184 -35.3613 35.002 -47.7695c14.6426 -12.4092 32 -21.457 51.9922 -27.1641c20.0117 -5.69727 41.6523 -8.53516 65.0039 -8.53516c31.3242 0 60.0059 3.16602 86.002 9.51855c25.9941 6.30176 50.4941 15.3193 73.498 26.9795
c23.0039 11.6611 45.0039 25.832 65.9883 42.5039c21.0176 16.6611 41.5098 35.6582 61.5117 56.9912z" />
    <glyph glyph-name="Cacute" unicode="&#x106;" horiz-adv-x="1270" 
d="M775 1449c113.333 -0.00292969 260.996 -34.3359 442.996 -103v-112v-222h-97c-22.6709 0.00195312 -36.3379 11.335 -41 34c-2 8 -5 38.333 -9 91c-4.03223 52.667 -6.36523 82.667 -6.99902 90c-298.667 94.667 -523.667 62 -675 -98
c-97.333 -102.667 -146 -240.334 -146 -413c0 -173.333 48 -312 144 -416c90.667 -99.333 208.334 -149 353.001 -149c83.333 0 146.333 8 189 24c65.333 24 124.333 59.333 177 106c11.333 10 22.333 15 33 15c10.667 -0.000976562 20.334 -4.33398 29.001 -13l76 -83
c-124 -144 -296 -216 -516 -216c-205.333 0 -370.666 68 -495.999 204c-124.667 134.667 -187 310.667 -187 528c0 216.667 66.667 393 200 529s310 204 530 204zM1102 1782l-293.999 -216.001c-11.333 -8.01172 -21.333 -13.3447 -30 -15.999
c-8.66699 -2.71387 -20 -4.04688 -34 -4h-138l211 203c6.66992 6.66699 12.8369 12 18.5 16c5.66992 4 11.5029 7.33301 17.5 10c6 2.66699 12.667 4.5 20 5.5s16.666 1.5 27.999 1.5h201z" />
    <glyph glyph-name="cacute" unicode="&#x107;" horiz-adv-x="899" 
d="M863.998 142c-84.667 -104 -209.331 -155.998 -373.998 -155.998c-130 0 -236 45.667 -318 137c-86 94.667 -129 222.667 -129 384c0 155.333 41 280.333 123 375c86 98 204 147 354 147c77.333 -0.000976562 177.333 -24.668 300 -74v-263h-80
c-19.3359 0.00292969 -30.6689 9.33594 -34 28c-2.00488 7.33301 -4.67188 32.333 -8 75c-3.34375 42.667 -5.01074 65 -5 66.999c-32.001 10.0029 -56.668 16.3359 -74.001 18.999c-38.667 6 -76.167 8.66699 -112.5 8s-72.833 -9.5 -109.5 -26.5
c-36.667 -17.001 -68 -42.168 -94 -75.5c-51.333 -67.333 -77 -160.666 -77 -279.999c0 -120.667 26.667 -215.334 80 -284.001c52 -66 123.667 -99 215 -99c83.333 0 157.666 28 222.999 84c12.002 10.667 24.835 16 38.5 16c13.667 0 24.167 -5.66699 31.5 -17z
M809.001 1449l-232.999 -258c-9.33594 -10 -18.5029 -17.167 -27.501 -21.5c-9 -4.33301 -20.5 -6.5 -34.5 -6.5h-106l148 242c9.33301 15.3389 19.5 26.5059 30.5 33.5c11 7 27.167 10.5 48.5 10.5h174z" />
    <glyph glyph-name="Eogonek" unicode="&#x118;" horiz-adv-x="1173" 
d="M1084.89 -223.956l28.0039 -65.9893c-20.002 -15.3281 -45.5059 -27.8291 -76.502 -37.502c-31.0059 -9.65234 -63.498 -14.499 -97.4961 -14.499c-58.6738 0 -104.844 13.167 -138.506 39.5c-33.6699 26.334 -50.4941 61.4912 -50.4941 105.49
c0 38.6807 13.1465 74.8516 39.4902 108.502c26.3027 33.6504 59.4609 63.1299 99.4141 88.4492h-677.818h-144.295v86.3184c0 17.7061 12.9316 33.4756 30.4648 36.96l113.83 22.6553v1141.13l-113.83 22.6553c-17.5332 3.47363 -30.4648 19.2432 -30.4648 36.96v86.3174
h144.295h883.008v-41.9395v-116.064v-187.493h-96.709c-19.8379 0 -37.4922 14.4785 -41.4062 34.1211c-1.4043 7.01855 -8.11523 85.5703 -13.6992 153.372h-536.18v-475.988h527.664v-152.01h-527.664v-488.992h537.143c5.36914 64.8516 11.4141 135.103 12.7363 141.722
c3.91406 19.6426 21.5684 34.1221 41.4062 34.1221h96.709v-175.834v-158.014h-91.1758c-13.3301 -7.31641 -26.959 -16.1279 -40.9258 -26.4463c-13.9961 -10.3291 -26.6719 -22 -37.9941 -35.0029c-11.3438 -12.9932 -20.668 -27.3281 -27.9941 -42.9951
c-7.3457 -15.6465 -10.9941 -32.1543 -10.9941 -49.4912c0 -25.3398 8.15625 -45.168 24.5 -59.5029c16.3223 -14.335 38.4961 -21.5078 66.4902 -21.5078c15.3301 0 27.9941 1.16797 38.0059 3.50488c9.99023 2.33594 18.3203 4.99023 24.9902 7.99219
c6.65039 3.00195 12.1523 5.84082 16.498 8.50488c4.32422 2.66406 8.15625 3.99609 11.4961 3.99609c4.65234 0 8.50586 -1.33203 11.498 -3.99609c3.00195 -2.66406 5.16406 -5.66699 6.50586 -9.00684z" />
    <glyph glyph-name="eogonek" unicode="&#x119;" horiz-adv-x="985" 
d="M713.996 -211c4.67578 0 8.51465 -1.33301 11.5059 -4c3 -2.66699 5.16699 -5.66699 6.5 -9l28 -66c-20 -15.333 -45.5 -27.833 -76.5 -37.5c-31 -9.66504 -63.5 -14.498 -97.5 -14.499c-58.667 0 -104.834 13.167 -138.501 39.501
c-33.667 26.333 -50.5 61.5 -50.5 105.5c0 35.333 11 68.5 33 99.5s50.333 58.833 85 83.5c-68.667 1.33301 -131.834 14 -189.501 38s-107.5 59 -149.5 105s-74.667 102.333 -98 169s-35 143 -35 229c0 70.667 10.833 136.667 32.5 198s52.834 114.5 93.501 159.5
c40.667 45.001 90.334 80.334 149.001 105.999c58.667 25.6689 124.667 38.502 198 38.5c60.667 -0.00585938 116.667 -10.1729 168 -30.5c51.333 -20.334 95.666 -49.667 132.999 -88c37.333 -38.334 66.5 -85.667 87.5 -142c21 -56.334 31.5 -120.501 31.5 -192.501
c0 -28.002 -3 -46.6689 -9 -56.001c-6 -9.33301 -17.333 -14 -34 -14h-674c1.33301 -64 10 -119.667 26 -167s38 -86.833 66 -118.5s61.333 -55.334 100 -71.001s82 -23.5 130 -23.5c44.667 0 83.167 5.16699 115.5 15.5s60.166 21.5 83.499 33.5s42.833 23.167 58.5 33.5
s29.167 15.5 40.5 15.5c14.668 0 26.001 -5.66699 33.999 -17l50 -65c-33.335 -40 -74.502 -71.833 -123.501 -95.5c-49 -23.667 -100.833 -40.167 -155.5 -49.5c-13.335 -7.33301 -26.502 -16.166 -39.501 -26.499c-13 -10.333 -25 -21.833 -36 -34.5
s-19.833 -26.667 -26.5 -42s-10 -31.333 -10 -48c0 -25.333 8.16699 -45.166 24.5 -59.499s38.5 -21.5 66.5 -21.5c15.333 0 28 1.16699 38 3.5c10.0039 2.33301 18.3369 5 25 8c6.66699 3 12.167 5.83301 16.5 8.5c4.33301 2.66602 8.16602 3.99902 11.499 4zM520.002 898
c-86 0 -153.665 -24.8311 -202.998 -74.498s-80 -118.5 -92 -206.5h551c-0.00292969 41.333 -5.66992 79.166 -17 113.499c-11.3359 34.333 -28.0029 64 -50.001 89c-22 25.002 -48.833 44.335 -80.5 58c-31.667 13.6699 -67.834 20.5029 -108.501 20.499z" />
    <glyph glyph-name="dotlessi" unicode="&#x131;" horiz-adv-x="578" 
d="M499.141 123.312c17.5312 -3.48438 30.4434 -19.2334 30.4434 -36.9502v-86.3174h-466.584v86.3174c0 17.707 12.9219 33.4766 30.4648 36.96l113.83 22.6553v721.12l-113.83 22.666c-17.543 3.46387 -30.4648 19.2334 -30.4648 36.9395v86.3281l144.305 -0.0302734
h177.996v-867.033z" />
    <glyph glyph-name="Lslash" unicode="&#x141;" horiz-adv-x="1159" 
d="M1092 312v-312.001h-1004v86c0 20.667 10 33 30 37l114 23v408l-187 -95v133c0 17.333 8.33301 30.333 25 39l162 86v570c-64 12.667 -102 20.334 -114 23.001c-20 4 -30 16.333 -30 37v86h144h194h144v-86c0 -20.6719 -10 -33.0049 -30 -37
c-67.333 -13.333 -105.333 -21 -114 -23v-482l384 196v-129c0 -19.335 -9 -33.668 -27 -43l-357 -188v-478h517c5.33301 70 9 108.333 11 115c4 22.667 17.667 34 41 34h97z" />
    <glyph glyph-name="lslash" unicode="&#x142;" horiz-adv-x="622" 
d="M400.999 899l178.001 77.002v-102c0 -21.335 -9 -36.002 -27 -44l-151 -67v-617c64.667 -12.667 102.667 -20.334 114 -23.001c20.6689 -4 31.002 -16.333 31 -37v-86h-467v86c0 20.667 10.333 33 31 37c8.66699 2 29.5 6.16699 62.5 12.5s49.833 9.83301 50.5 10.5v551
l-177 -76v105c0 19.333 8.33301 32.666 25 39.999l152 68v493l-113.001 22c-20.667 4.66699 -31 17 -31 37v87h144h178v-574z" />
    <glyph glyph-name="Nacute" unicode="&#x143;" horiz-adv-x="1550" 
d="M1208 320c-3.33301 28.667 -5.00195 61.3311 -5.00195 97.998v869c-78.001 13.3438 -122.334 21.0107 -132.999 23.001c-20 4 -30 16.333 -30 37v86h163h170h145v-86c-0.0175781 -20.6719 -10.3506 -33.0049 -30.999 -37l-114 -23v-1287h-98
c-27.333 0 -50.333 11.667 -69 35l-829 1079c2.66699 -34 4 -65 4 -93v-875c78.667 -13.334 123 -21.001 133 -23.001c20 -4 30 -16.333 30 -37v-86h-477v86c0 20.667 10 33 30 37l114 23v1141c-64 12.667 -102 20.334 -114 23.001c-20 4 -30 16.333 -30 37v86h244
c17.334 0 30.167 -2.16699 38.5 -6.5s17.833 -13.166 28.5 -26.499zM1159 1782l-293.998 -216c-11.333 -8.01172 -21.333 -13.3447 -30 -16c-8.66699 -2.71387 -20 -4.04688 -34 -4h-138l211 203c6.66992 6.66699 12.8369 12 18.5 16c5.66992 4 11.5029 7.33301 17.499 10
c6 2.66699 12.667 4.5 20 5.5s16.666 1.5 27.999 1.5h201z" />
    <glyph glyph-name="nacute" unicode="&#x144;" horiz-adv-x="1245" 
d="M376 866c98.667 108.667 210.668 163.002 336.001 163.002c109.333 0 193.666 -35.333 252.999 -106c57.335 -68 86.002 -160.667 86 -278v-499c64.667 -12.667 102.667 -20.334 114 -23.001c20.667 -4 31 -16.333 31 -37v-86h-323v645c0 161.333 -71 242 -213 242
c-98.667 0 -190 -47 -274 -141v-600c4.66699 -0.666992 42.667 -8.33398 114 -23.001c20.6689 -4 31.002 -16.333 31 -37v-86h-467v86c0 20.667 10 33 30 37l114 23v721c-64 12.668 -102 20.335 -114 23c-20 4.00195 -30 16.335 -30 37v86h144h106
c25.333 0 41.333 -12.333 48 -37zM921.001 1449l-232.999 -258c-9.33789 -10 -18.5049 -17.167 -27.501 -21.5c-9 -4.33301 -20.5 -6.5 -34.5 -6.5h-106l148 242c9.33301 15.3389 19.5 26.5059 30.5 33.5c11 7 27.167 10.5 48.5 10.5h174z" />
    <glyph glyph-name="OE" unicode="&#x152;" horiz-adv-x="2121" 
d="M1889 1275l-536.001 -0.000976562v-476h528v-152h-528v-489h537c7.34766 88.667 11.6807 136 13 142c4.66699 22.667 18.334 34 41.001 34h97v-334h-860v240c-56.001 -80 -126.334 -142.333 -211 -187c-84.667 -44.667 -177.5 -67 -278.5 -67s-190.5 17.833 -268.5 53.5
s-145 85.667 -201 150s-99.333 141.333 -130 231s-46 188.167 -46 295.5s15.333 205.833 46 295.5s74 166.834 130 231.501c118 137.335 271.333 206.002 460 206c107.333 0 203.333 -22.5 288 -67.5c84.667 -45.002 155 -107.835 211 -188.5v240h860v-158v-188h-97
c-22.6738 0.00390625 -36.3408 11.6709 -41 35c-1.33301 6 -6 57 -14 153zM1126 478.499c21.3379 70.333 32.0049 149.499 32.001 237.499c0 88 -10.667 167.167 -32 237.5c-21.333 70.334 -51.833 130.167 -91.5 179.5c-39.667 49.3359 -87.667 87.1689 -144 113.5
c-56.334 26.3379 -119.167 39.5049 -188.5 39.5c-69.334 0 -132.167 -13.167 -188.5 -39.5s-104.5 -64.166 -144.5 -113.499s-70.833 -109.166 -92.499 -179.499c-21.667 -70.334 -32.5 -149.501 -32.5 -237.501s10.833 -167.167 32.5 -237.5s52.5 -130 92.5 -179
s88.167 -86.5 144.5 -112.5s119.166 -39 188.499 -39s132.166 13 188.499 39s104.333 63.5 144 112.5s70.167 108.667 91.5 179z" />
    </font>
</defs>
</svg>
