<svg xmlns="http://www.w3.org/2000/svg">
<defs>
<font id="Aleo-Light" horiz-adv-x="1542" >
  <font-face 
    font-family="Aleo"
    font-weight="300"
    font-stretch="normal"
    units-per-em="2000"
    panose-1="2 15 3 2 2 2 4 3 2 3"
    ascent="1610"
    descent="-390"
    x-height="994.964"
    cap-height="1415"
    bbox="7 -372 2173 1789"
    underline-thickness="68"
    underline-position="-132"
    stemh="75"
    stemv="94"
    unicode-range="U+000D-FB02"
  />
<missing-glyph horiz-adv-x="1260" 
d="M379.001 1134c14 13.3379 29.5 26.0078 46.5 38.0029c17 12.0049 35.5 22.6719 55.5 32.001c20 9.33301 41.833 16.833 65.5 22.5s49.5 8.5 77.5 8.5c36 0 69.5 -5.16699 100.5 -15.5s58 -25.333 81 -45c23 -19.6689 41 -43.3359 54 -71
c13 -27.6689 19.5 -58.8359 19.5 -93.5c0 -36.667 -5.5 -68.167 -16.5 -94.5c-11.001 -26.333 -24.668 -49.333 -41 -69c-16.335 -19.667 -34.168 -37 -53.5 -52l-54.5 -42.5c-17.002 -13.335 -31.6689 -26.502 -44.001 -39.501c-12.335 -13 -19.168 -27.833 -20.499 -44.5
l-10 -114h-65l-6 122c-1.33301 20.667 3.33398 38.834 14.001 54.5c10.667 15.668 24.167 30.501 40.5 44.499c16.333 14 34.333 28 54 42c19.668 14.002 37.835 29.835 54.5 47.499c16.667 17.667 30.667 37.667 42 60s17 49.166 17 80.499
c-0.0078125 24 -4.6748 45.333 -14 64c-9.33301 18.667 -21.833 34.5 -37.5 47.5s-34 23 -55 30c-21.001 7 -43.168 10.5 -66.501 10.5c-30.667 -0.0175781 -57 -3.85059 -79 -11.5c-22 -7.6709 -40.667 -16.3379 -56 -26c-15.333 -9.6709 -27.5 -18.3379 -36.5 -26
c-9.00098 -7.68359 -15.834 -11.5166 -20.5 -11.5c-9.33301 0.0166016 -16.333 3.68359 -21 11zM527.001 265.003c0 21.334 7.33203 39.667 21.999 55c14.667 15.334 33 23.001 55 23c21.334 0 39.334 -7.66699 54 -23c14.6699 -15.333 22.0029 -33.666 22 -54.999
c0 -21.333 -7.33301 -39.666 -22 -54.999c-14.667 -15.334 -32.667 -23.001 -54 -23.001c-22 0 -40.333 7.66699 -54.999 23c-14.668 15.333 -22.001 33.666 -22 54.999zM164 1415h931v-1415h-931v1415zM199 36.0029h859v1343h-859v-1343z" />
    <glyph glyph-name="fi" unicode="fi" horiz-adv-x="1176" 
d="M1063.81 75.1309c26.4248 -1.31348 39.6494 -13.0889 39.668 -35.3154v-39.8086h-168.466h-94.8125h-168.486v39.8086c0 22.2129 13.2188 33.9756 39.6553 35.2891c2.93359 0.146484 9.25977 0.355469 18.9775 0.626953s24.4883 0.730469 44.3115 1.37695
c19.8232 0.645508 41.6055 1.43945 65.3467 2.38184v813.494h-485.99v-813.535c23.4951 -0.933594 45.0596 -1.71973 64.6934 -2.3584c19.6328 -0.639648 34.2734 -1.09375 43.9229 -1.3623c9.64941 -0.269531 15.9375 -0.477539 18.8643 -0.624023
c26.4297 -1.31348 39.6445 -13.0762 39.6445 -35.2881v-39.8086h-167.133h-91.6875h-3.33008h-165.146v39.8086c0 22.2129 13.2178 33.9756 39.6543 35.2891c2.90723 0.144531 9.12402 0.349609 18.6504 0.615234s23.9492 0.711914 43.2686 1.33887
c19.3203 0.625977 40.5107 1.39551 63.5723 2.30859v811.619l-139.99 8.99707c-19.332 1.32422 -28.998 9.6543 -28.998 24.9902v38.999h168.988v85.1807c0 61.4707 9.00293 116.751 27.0088 165.841c18.0127 49.1475 44.1758 90.9023 78.4893 125.266
c34.3242 34.3984 76.1582 60.7842 125.501 79.1562c49.3174 18.3721 105.646 27.5596 168.988 27.5625c122.338 0 218.663 -35.9453 288.976 -107.836l2.52051 -2.50977c1.15137 -1.11816 1.84473 -1.80469 2.08008 -2.05957l-0.0615234 -0.378906
c7.06836 -7.74707 12.667 -16.1523 16.7949 -25.2158c5 -11.0049 7.5 -22.5049 7.5 -34.5c0 -12.0127 -2.5 -23.1777 -7.5 -33.4951c-4.99414 -10.3447 -11.501 -19.5117 -19.5205 -27.501c-7.98633 -8 -17.3105 -14.333 -27.9727 -18.998
c-10.6787 -4.69922 -22.0078 -7.03223 -33.9883 -6.99805c-12.0352 0.0546875 -23.3682 2.3877 -33.999 6.99902c-10.6592 4.65332 -19.9834 10.9863 -27.9736 18.998c-8.04883 8.03516 -14.3877 17.2021 -19.0176 27.502
c-4.67285 10.3281 -7.00586 21.4932 -6.99902 33.4961c0 11.999 2.33301 23.499 6.99805 34.5c3.53418 8.33496 8.05957 15.8428 13.5771 22.5234c-66.2666 37.2383 -142.15 48.8984 -227.651 34.9805c-63.2861 -11.4268 -114.868 -35.9229 -154.746 -73.4883
c-57.3398 -54 -86.0068 -136.332 -86 -246.996v-82.0039h582.995v-884.473c23.8027 -0.949219 45.6201 -1.74707 65.4512 -2.39355c19.8311 -0.647461 34.6221 -1.10645 44.3721 -1.37695c9.75293 -0.272461 16.0859 -0.480469 18.999 -0.624023z" />
    <glyph glyph-name="fl" unicode="fl" horiz-adv-x="1293" 
d="M1219.99 51.9648l5.00977 -47.9854c-14.6846 -7.33301 -29.6963 -12.668 -45.0342 -16.0049c-15.3311 -3.33398 -32.6514 -5.00098 -51.9609 -5.00098c-39.9717 0 -74.9707 6.33203 -104.997 18.9971c-13.4365 6.04297 -26.1016 12.707 -37.9951 19.9922
c-13.2715 9.2627 -24.9424 19.5947 -35.0127 30.9961c-20.0049 21.333 -35.0029 46.666 -44.9941 75.999c-9.34473 29.3262 -14.3486 60.6602 -15.0117 94.0029v1133.97c-35.9971 1.32129 -73.6602 3.6543 -112.99 6.99902
c-40.1582 2.66406 -75.8164 3.99609 -106.976 3.99609c-50.0205 -0.015625 -94.6924 -8.01465 -134.016 -23.998c-39.3516 -15.3408 -72.6807 -38.0068 -99.9873 -67.9971c-26.6865 -29.3438 -47.3545 -65.0088 -62.0029 -106.996
c-14.0068 -42.001 -21.0117 -88.999 -21.0146 -140.994v-65.0049h286.988v-72.9971h-286.005v-811.455c23.7266 -0.946289 45.4795 -1.74219 65.2598 -2.3877s34.5332 -1.10352 44.2588 -1.37402s16.0479 -0.478516 18.9668 -0.624023
c26.4297 -1.31348 39.6445 -13.0771 39.6445 -35.29v-39.8076h-168.128l-94.0029 -0.0410156l-165.146 0.0410156v39.8076c0 22.2129 13.2178 33.9766 39.6543 35.29c2.90723 0.144531 9.12402 0.349609 18.6504 0.615234
c9.52637 0.266602 23.9492 0.712891 43.2686 1.33789c19.3193 0.626953 40.5098 1.39648 63.5713 2.30957v811.578l-139.99 8.99609c-19.335 1.32227 -29.001 9.65625 -28.998 25.002v38.999h168.988v65.0049c0 58.6533 8.67188 113.316 26.0156 163.988
c17.2998 50.6416 42.6299 94.3027 75.9893 130.983c33.3223 36.6689 74.6572 65.3389 124.005 86.0098c50.0352 20.665 106.699 30.9971 169.993 30.9971c22.4736 -0.0439453 46.1436 -0.709961 71.0088 -1.99902c24.6377 -1.34082 48.3008 -3.33887 70.9893 -5.99414
c23.3311 -1.99805 44.665 -3.66504 64.001 -5c19.8486 -1.33203 36.8477 -1.99805 50.9971 -1.99805h72.0039v-1200.96c0 -53.3447 13.0029 -94.6797 39.0088 -124.006c25.9971 -29.3359 65.9971 -44.002 119.999 -43.999c16.6631 0 29.6562 1.33594 38.9795 4.00684
c10.0332 2.6709 17.7012 4.00586 23.0039 4.00586c8.66895 0 13.3379 -4.00293 14.0068 -12.0088z" />
    <glyph glyph-name=".notdef" horiz-adv-x="1260" 
d="M379.001 1134c14 13.3379 29.5 26.0078 46.5 38.0029c17 12.0049 35.5 22.6719 55.5 32.001c20 9.33301 41.833 16.833 65.5 22.5s49.5 8.5 77.5 8.5c36 0 69.5 -5.16699 100.5 -15.5s58 -25.333 81 -45c23 -19.6689 41 -43.3359 54 -71
c13 -27.6689 19.5 -58.8359 19.5 -93.5c0 -36.667 -5.5 -68.167 -16.5 -94.5c-11.001 -26.333 -24.668 -49.333 -41 -69c-16.335 -19.667 -34.168 -37 -53.5 -52l-54.5 -42.5c-17.002 -13.335 -31.6689 -26.502 -44.001 -39.501c-12.335 -13 -19.168 -27.833 -20.499 -44.5
l-10 -114h-65l-6 122c-1.33301 20.667 3.33398 38.834 14.001 54.5c10.667 15.668 24.167 30.501 40.5 44.499c16.333 14 34.333 28 54 42c19.668 14.002 37.835 29.835 54.5 47.499c16.667 17.667 30.667 37.667 42 60s17 49.166 17 80.499
c-0.0078125 24 -4.6748 45.333 -14 64c-9.33301 18.667 -21.833 34.5 -37.5 47.5s-34 23 -55 30c-21.001 7 -43.168 10.5 -66.501 10.5c-30.667 -0.0175781 -57 -3.85059 -79 -11.5c-22 -7.6709 -40.667 -16.3379 -56 -26c-15.333 -9.6709 -27.5 -18.3379 -36.5 -26
c-9.00098 -7.68359 -15.834 -11.5166 -20.5 -11.5c-9.33301 0.0166016 -16.333 3.68359 -21 11zM527.001 265.003c0 21.334 7.33203 39.667 21.999 55c14.667 15.334 33 23.001 55 23c21.334 0 39.334 -7.66699 54 -23c14.6699 -15.333 22.0029 -33.666 22 -54.999
c0 -21.333 -7.33301 -39.666 -22 -54.999c-14.667 -15.334 -32.667 -23.001 -54 -23.001c-22 0 -40.333 7.66699 -54.999 23c-14.668 15.333 -22.001 33.666 -22 54.999zM164 1415h931v-1415h-931v1415zM199 36.0029h859v1343h-859v-1343z" />
    <glyph glyph-name="NULL" horiz-adv-x="386" 
 />
    <glyph glyph-name="NULL" horiz-adv-x="386" 
 />
    <glyph glyph-name="nonmarkingreturn" unicode="&#xd;" horiz-adv-x="386" 
 />
    <glyph glyph-name="space" unicode=" " horiz-adv-x="482" 
 />
    <glyph glyph-name="exclam" unicode="!" horiz-adv-x="426" 
d="M260.003 1415l-0.00292969 -571.998c-0.0117188 -30 -0.344727 -58.333 -1 -85c-0.671875 -26.667 -1.50488 -53.834 -2.49902 -81.501c-1 -27.667 -2.5 -56.834 -4.5 -87.501s-4 -64.667 -6 -102h-65c-2 37.333 -4 71.333 -6 102s-3.5 59.834 -4.5 87.5
c-1.00391 27.667 -1.83691 54.834 -2.49902 81.5c-0.674805 26.668 -1.00781 55.001 -0.999023 85v572h93zM118 77.002c0.000976562 12.667 2.33398 24.667 6.99902 36c4.66699 11.333 11.167 21.166 19.5 29.499c8.33398 8.33301 18.001 15 29 20c11 5 23.167 7.5 36.5 7.5
c12.667 0 24.667 -2.5 36 -7.5c11.334 -5 21.167 -11.667 29.5 -20c8.33398 -8.33301 15.001 -18.166 20 -29.499c5 -11.333 7.5 -23.333 7.5 -36c0 -13.333 -2.5 -25.5 -7.5 -36.5s-11.667 -20.667 -20 -29s-18.166 -14.833 -29.499 -19.5s-23.333 -7 -36 -7
c-26 0 -47.833 8.83301 -65.5 26.5s-26.5 39.5 -26.5 65.5z" />
    <glyph glyph-name="quotedbl" unicode="&#x22;" horiz-adv-x="655" 
d="M224 1415v-291.998l-9 -153c-1.33301 -11.3369 -4.33301 -20.1699 -9 -26.5c-4.66699 -6.34082 -12.667 -9.50781 -24 -9.50098c-9.33398 0 -16.667 3.16699 -22 9.5c-5.33398 6.33301 -8.66699 15.166 -10 26.499l-9 153v292h83zM514 1415l-0.00195312 -291.998l-9 -153
c-1.33301 -11.3369 -4.33301 -20.1699 -9 -26.5c-4.66699 -6.34082 -12.667 -9.50781 -24 -9.50098c-9.33301 0 -16.666 3.16699 -21.999 9.5s-8.66602 15.166 -9.99902 26.499l-9 153v292h83z" />
    <glyph glyph-name="numbersign" unicode="#" horiz-adv-x="1120" 
d="M733.999 443l-93.999 -443.001h-41c-9.33691 0 -17.0039 2.83301 -23 8.5c-6 5.66699 -9 13.834 -9 24.501c0.0175781 4.66699 0.350586 8.33398 0.999023 11.001l86 399h-298l-86 -403c-3.33301 -14.667 -9 -25 -17 -31s-17.667 -9 -29 -9h-42l94 443h-183
c-9.33301 0.00488281 -16.666 2.17188 -21.999 6.5c-5.33301 4.33398 -8 12.167 -8 23.499v9.5c0 3 0.666992 7.83301 2 14.5l3 16h218l82 389h-253l6 38c2.66699 22 17.334 33 44.001 33h213l87 404c2.66699 12.667 8.16699 22.167 16.5 28.5
c8.33301 6.35449 18.166 9.52148 29.499 9.5h42l-95 -442h298l95 442h42c20.6719 0 31.0049 -10 30.999 -30c0 -5.33301 -0.333008 -9.33301 -1 -12l-87 -400h225l-6 -38c-3.33301 -22 -18.333 -33 -45 -33h-184l-82 -389h225c20 0 30 -8.66699 30 -26l-4 -44h-261z
M366 512.999h298l82 389h-298z" />
    <glyph glyph-name="dollar" unicode="$" horiz-adv-x="1006" 
d="M442.994 -15c-85.333 4 -159.661 22.333 -222.994 55s-119 75.667 -167 129l27 39c8 10 17.333 15 27.999 15c6 0 13.5 -3.66699 22.5 -11l32.5 -27.501s27.667 -23 45 -36c17.334 -13 37.501 -25.333 60.501 -37s49.167 -21.834 78.5 -30.501
c29.334 -8.66699 62.667 -14 100 -16l32 636c-45.334 14 -89.501 29.667 -132.501 47s-81.333 39.5 -114.999 66.5c-33.667 27.001 -60.834 60.334 -81.501 100c-20.667 39.667 -31 89.5 -31 149.499c0 46 8.66699 90.5 26 133.5s42.833 81.333 76.5 115
s75.167 60.834 124.5 81.501s105.666 32 168.999 34l9 168c0.671875 9.3457 3.50488 17.0127 8.5 23c5 6 12.167 9 21.5 9h36l-11 -201c67.333 -4.6748 126.333 -19.5078 177 -44.5c50.667 -25 97 -58.5 139 -100.5l-22 -34c-6.66699 -11.333 -15.334 -17 -26.001 -17
c-8 0 -18.5 5.5 -31.5 16.5c-13 11.0049 -30 23.1719 -51 36.501c-21 13.3379 -47 26.1709 -78 38.499c-31.001 12.3438 -68.168 20.1768 -111.501 23.5l-29 -572l94.5 -31s62 -22.667 90.999 -36c29.001 -13.335 55.834 -28.668 80.5 -46
c24.667 -17.333 46.167 -37.833 64.5 -61.5s32.666 -50.667 42.999 -81c10.3564 -30.333 15.5234 -65.5 15.5 -105.5c0 -57.333 -9.66699 -111.333 -29 -162c-19.334 -50.667 -47.167 -95.167 -83.499 -133.5c-36.334 -38.333 -81.001 -69.166 -134.001 -92.499
s-113.5 -36.666 -181.5 -39.999l-11 -211c-0.666992 -8.66699 -3.5 -16 -8.5 -22s-11.833 -9 -20.5 -9h-36zM844.999 398c0 44 -8.33203 81.335 -24.999 112.002s-39 56.667 -67 78c-28.001 21.333 -60.168 39.166 -96.501 53.499
c-36.334 14.333 -74.501 27.833 -114.5 40.5l-31 -617c53.333 3.33301 100.833 14.166 142.5 32.499s76.667 42.333 105 72s49.833 64 64.5 103c14.6719 39 22.0049 80.833 22 125.5zM208 1072c0 -41.333 7.33203 -76.668 21.999 -106.001
c14.667 -29.334 34.667 -54.501 60 -75.5c25.334 -21 54.501 -39 87.501 -54s68.167 -28.833 105.5 -41.5l28 552c-50.667 -2.67676 -94.834 -12.0098 -132.501 -28c-37.667 -16 -69.167 -36.5 -94.5 -61.5s-44.333 -53.5 -57 -85.5
c-12.667 -32.002 -19 -65.335 -18.999 -99.999z" />
    <glyph glyph-name="percent" unicode="%" horiz-adv-x="1528" 
d="M685 1075c0 -58 -8 -109.167 -24 -153.5c-16.001 -44.334 -37.668 -81.167 -65.001 -110.5c-27.334 -29.334 -59.001 -51.501 -95 -66.5c-36 -15 -74 -22.5 -114 -22.5c-41.333 0 -80.166 7.5 -116.499 22.5s-67.833 37.167 -94.5 66.5s-47.667 66.166 -63 110.499
s-23 95.5 -23 153.5c0 58.667 7.66699 110.334 23 155.001s36.333 81.834 63 111.501s58.167 52 94.5 67c36.334 15 75.167 22.5 116.5 22.5c41.334 0 80.001 -7.5 116.001 -22.5c36 -15.0029 67.5 -37.3359 94.5 -67c27.001 -29.668 48.334 -66.835 64 -111.5
c15.6689 -44.668 23.502 -96.335 23.499 -155.001zM609 1075c0 51.333 -5.83398 95.334 -17.501 132.001s-27.667 66.834 -48 90.501c-20.334 23.667 -44.001 41 -71 52c-27 11 -55.5 16.5 -85.5 16.5s-58.333 -5.5 -84.999 -16.5c-26.667 -11.0049 -50 -28.3379 -70 -52
c-20 -23.6689 -35.833 -53.8359 -47.5 -90.5c-11.667 -36.667 -17.5 -80.667 -17.5 -132c0 -51.334 5.83301 -95.167 17.5 -131.5c11.667 -36.334 27.5 -66.167 47.5 -89.5c20 -23.335 43.333 -40.502 70 -51.5c26.667 -11 55 -16.5 85 -16.5s58.5 5.5 85.5 16.5
s50.667 28.167 71 51.5s36.333 53.166 48 89.499c11.6689 36.333 17.502 80.166 17.5 131.499zM1222 1397c4 5.35449 8.83301 9.6875 14.5 12.999c5.66699 3.37695 13.167 5.04395 22.5 5.00098h67l-1016 -1397c-8.66699 -12 -20.334 -18 -35 -18h-68zM1449 336.001
c0 -58 -8.00098 -109.165 -24.001 -153.498s-37.5 -81.166 -64.5 -110.499s-58.5 -51.5 -94.5 -66.5s-74 -22.5 -114 -22.5c-41.333 0 -80.166 7.5 -116.499 22.5s-67.833 37.167 -94.5 66.5s-47.667 66.166 -63 110.499c-15.3369 44.333 -23.0039 95.5 -23.001 153.5
c0 58.667 7.66699 110.334 23 155.001s36.333 81.834 63 111.5c26.667 29.667 58.167 52 94.5 66.999c36.3379 15 75.1709 22.5 116.5 22.5c41.3369 0 80.0039 -7.5 116 -22.5c36 -15 67.5 -37.333 94.5 -67c27.0059 -29.667 48.1729 -66.834 63.501 -111.501
c15.3496 -44.667 23.0166 -96.334 23 -155.001zM1373 336.003c-0.0107422 51.333 -5.84375 95.5 -17.5 132.5c-11.6719 37.001 -27.5049 67.334 -47.5 91c-20 23.668 -43.5 41.001 -70.5 52c-27 11 -55.5 16.5 -85.5 16.5s-58.5 -5.5 -85.5 -16.5s-50.5 -28.333 -70.5 -52
s-35.833 -54 -47.5 -91s-17.5 -81.167 -17.5 -132.5c0.00390625 -51.333 5.83691 -95.166 17.5 -131.499c11.6699 -36.333 27.5029 -66.166 47.5 -89.499c20 -23.333 43.5 -40.333 70.5 -51s55.5 -16 85.5 -16s58.5 5.33301 85.5 16s50.5 27.667 70.5 51
s35.833 53.166 47.5 89.499s17.5 80.166 17.5 131.499z" />
    <glyph glyph-name="ampersand" unicode="&#x26;" horiz-adv-x="1384" 
d="M632 1431c44.667 0 86.998 -7.66602 126.997 -22.999c40.001 -15.333 74.834 -36 104.499 -62c29.668 -26 53.335 -56.167 71 -90.5c17.667 -34.333 27.167 -70.166 28.5 -107.499c-9.33496 -2 -17.668 -4 -24.999 -6c-15.333 -3.33301 -27.333 -5 -36 -5
c-5.33301 0 -10.333 2 -15 6c-4.66699 4.00879 -8 9.67578 -10 17c-4.66699 17.333 -12.667 37.333 -24 60c-11.334 22.667 -26.667 44 -45.999 64c-19.334 20 -43.501 37 -72.5 51c-29.001 14 -63.168 21 -102.5 21c-40 0 -76.333 -6.16699 -109 -18.5
s-60.667 -29.666 -84 -51.999s-41.5 -48.833 -54.5 -79.5c-13 -30.668 -19.5 -64.335 -19.5 -101c0 -54.668 14 -107.001 42 -157c28 -50 71.333 -103.667 130 -161l446 -440c30 48 53.833 98 71.5 150s29.167 102.333 34.5 150.999
c1.35059 8.66895 4.01758 15.502 8.00098 20.499c4 5 10 7.5 18 7.5h55c-1.33301 -62.667 -13.166 -127.167 -35.499 -193.5s-54.166 -129.833 -95.499 -190.5l298 -292h-89c-12.0098 0 -21.8428 1.33301 -29.5 4c-7.68066 2.66699 -16.5137 8.66699 -26.5 18l-205 201
c-30 -34.667 -63 -66.667 -99 -96s-75 -54.5 -117 -75.5s-86.833 -37.5 -134.5 -49.5s-97.834 -18 -150.501 -18c-50 0 -99.333 8.33301 -148 25s-92.167 41.167 -130.5 73.5s-69.333 72 -93 119s-35.5 100.5 -35.5 160.5c0 48 8.66699 93.833 26 137.5s41 83.667 71 120
s65.667 68.833 107 97.5s86 52 134 69.999c-47.333 53.333 -82.833 105.166 -106.5 155.499c-23.667 50.334 -35.5 104.167 -35.5 161.5c0 46.667 8.5 89.834 25.5 129.501s41.167 74.167 72.5 103.5s68.833 52.333 112.5 69s92.5 25 146.5 25zM175.998 368.001
c0 -51.333 9.83594 -95.998 29.502 -133.998c19.667 -38 45.167 -69.833 76.5 -95.5c31.334 -25.667 66.167 -44.834 104.5 -57.501c38.334 -12.667 76.167 -19 113.5 -19c46.667 0 90.834 5.33301 132.5 16c41.667 10.667 80.667 25.5 117 44.5s69.666 41.5 99.999 67.5
s58.166 54.667 83.499 86l-459 451c-4 3.33301 -7.66699 7 -11 11c-44 -18.667 -83.833 -41 -119.499 -67c-35.667 -26 -65.834 -54.833 -90.5 -86.5c-24.667 -31.667 -43.667 -65.834 -57 -102.501c-13.334 -36.667 -20.001 -74.667 -20.001 -114z" />
    <glyph glyph-name="quotesingle" unicode="'" horiz-adv-x="366" 
d="M224 1415v-291.998l-9 -153c-1.33301 -11.3369 -4.33301 -20.1699 -9 -26.5c-4.66699 -6.34082 -12.667 -9.50781 -24 -9.50098c-9.33398 0 -16.667 3.16699 -22 9.5c-5.33398 6.33301 -8.66699 15.166 -10 26.499l-9 153v292h83z" />
    <glyph glyph-name="parenleft" unicode="(" horiz-adv-x="503" 
d="M192 630c0 -149.333 20.167 -292.502 60.5 -429.502s100.5 -269.167 180.5 -396.5c4.66699 -7.33301 7 -14.333 7 -21c0 -10 -4.66699 -17.333 -14 -22l-42 -26c-51.333 78.667 -94.5 154.834 -129.5 228.501s-63.167 147 -84.5 220s-36.833 146.167 -46.5 219.5
c-9.66699 73.334 -14.5 149.001 -14.5 227.001c0 78.001 4.83301 153.834 14.499 227.5c9.66699 73.667 25.167 147 46.5 219.999c21.333 73 49.5 146.333 84.5 220s78.167 149.834 129.5 228.501l42 -26c8.66699 -4.66699 13 -11.667 13 -21
c-0.00390625 -6.66699 -2.33691 -13.667 -7 -21c-79.333 -128 -139.166 -260.5 -179.499 -397.5s-60.5 -280.5 -60.5 -430.5z" />
    <glyph glyph-name="parenright" unicode=")" horiz-adv-x="505" 
d="M313.001 630c0 150 -20.1699 293.502 -60.5029 430.502s-100.166 269.5 -179.499 397.5c-4.66699 7.33301 -7 14.333 -7 21c0 9.33301 4.33301 16.333 13 21l42 26c50.667 -78.6689 93.667 -154.836 129 -228.5c35.334 -73.668 63.667 -147.001 85 -220
c21.333 -73 36.833 -146.333 46.5 -220s14.5 -149.5 14.5 -227.5c-0.00195312 -78 -4.83496 -153.667 -14.5 -227c-9.66699 -73.333 -25.167 -146.5 -46.5 -219.5s-49.666 -146.333 -84.999 -220s-78.333 -149.834 -129 -228.501l-42 26
c-9.33301 4.66602 -14 11.999 -14 21.999c0 6.66699 2.33301 13.667 7 21c80 127.333 140.167 259.5 180.5 396.5c40.334 137 60.501 280.167 60.501 429.5z" />
    <glyph glyph-name="asterisk" unicode="*" horiz-adv-x="756" 
d="M351.004 897l-0.00488281 212.995c0 11.333 0.833008 21.333 2.5 30s5.16699 18.667 10.5 30c-7.33301 -10 -14.5 -17.667 -21.5 -23s-15.5 -11 -25.5 -17l-188 -109l-25 44l188 110c9.33301 5.33301 18.333 9.33301 27 12s19 5 31 7
c-12.667 2.01855 -23.167 4.68555 -31.5 8.00098c-8.33301 3.34277 -17.166 7.67578 -26.499 13l-190 110l26 45l189 -110c10.667 -6.66699 19.167 -13.167 25.5 -19.5c6.33398 -6.33301 14.167 -15.166 23.5 -26.499c-5.33301 12.667 -9.16602 23.834 -11.499 33.501
s-3.5 20.167 -3.5 31.5v214h52v-213c-0.00683594 -12.0049 -0.839844 -22.8379 -2.5 -32.5c-1.66699 -9.6709 -5.16699 -20.5039 -10.5 -32.499c8 11.3379 15.333 20.1709 22 26.5c6.66699 6.34277 15.334 12.5098 26.001 18.5l188 109l26 -45l-188 -109
c-10.001 -6 -19.334 -10.667 -28 -14c-8.66699 -3.33301 -18.667 -5.66602 -30 -6.99902c12.001 -2.03613 22.168 -4.36914 30.5 -7c8.33398 -2.66699 17.501 -6.66699 27.5 -12l189 -110l-25 -45l-190 110c-10.001 6.00879 -18.334 11.6758 -24.999 17.001
c-6.66699 5.3418 -14.334 13.6748 -23 24.999c4.00195 -12.0137 7.16895 -22.3467 9.50098 -31c2.33984 -8.66699 3.50684 -18.667 3.5 -30v-214h-52z" />
    <glyph glyph-name="plus" unicode="+" horiz-adv-x="1122" 
d="M599 1158v-451h431v-73h-431v-453h-78v453h-430v73h430v451h78z" />
    <glyph glyph-name="comma" unicode="," horiz-adv-x="456" 
d="M143 85c0 23.333 8.00293 43.3311 24.0029 59.998s37 25 63 25c28.667 0 50.834 -9.83301 66.501 -29.5s23.5 -45.5 23.5 -77.5c0 -27.333 -3.5 -55.166 -10.5 -83.499s-17.167 -56.166 -30.5 -83.499s-29.333 -53.666 -48 -78.999s-39.334 -48.666 -62.001 -69.999
l-15 15c-5.33301 5.33301 -8 11 -8 17c0 3.33301 1 6.66602 3 9.99902s4.33301 6.33301 7 9c6.66699 6.66602 15.167 16.499 25.5 29.499s20.666 28.333 30.999 46s19.666 37.167 27.999 58.5s13.833 44 16.5 68c-4 -1.33301 -8.5 -2.33301 -13.5 -3s-10.5 -1 -16.5 -1
c-24.667 0 -44.834 8.33301 -60.501 25s-23.5 38 -23.5 64z" />
    <glyph glyph-name="hyphen" unicode="-" horiz-adv-x="741" 
d="M139 634h465v-81h-465v81z" />
    <glyph glyph-name="period" unicode="." horiz-adv-x="461" 
d="M139 77c0 12.667 2.33398 24.667 7.00098 36s11.167 21.166 19.5 29.499s18 15 29 20s23.167 7.5 36.5 7.5c12.667 0 24.667 -2.5 36 -7.5s21.166 -11.667 29.499 -20c8.33398 -8.33301 15.001 -18.166 20 -29.499c5 -11.333 7.5 -23.333 7.5 -36
c0 -13.333 -2.5 -25.5 -7.5 -36.5s-11.667 -20.667 -20 -29c-8.33398 -8.33301 -18.167 -14.833 -29.5 -19.5s-23.333 -7 -36 -7c-26 0 -47.833 8.83301 -65.5 26.5s-26.5 39.5 -26.5 65.5z" />
    <glyph glyph-name="slash" unicode="/" horiz-adv-x="826" 
d="M144 -45c-5.33301 -13.333 -13.333 -23.167 -24 -29.5s-21.667 -9.5 -33 -9.5h-39l622 1502c10 24.667 28 37 54 37h41z" />
    <glyph glyph-name="zero" unicode="0" horiz-adv-x="1235" 
d="M1123 708c-0.00390625 -124 -13.3369 -231.333 -39.999 -322c-26.667 -90.667 -63 -165.667 -109 -225s-99.833 -103.5 -161.5 -132.5s-127.5 -43.5 -197.5 -43.5s-135.667 14.5 -197 43.5s-115 73.167 -161 132.5s-82.167 134.333 -108.5 225s-39.5 198 -39.5 322
s13.167 231.333 39.5 321.999c26.333 90.667 62.5 165.667 108.5 225c46 59.335 99.667 103.502 161 132.501c61.333 29 127 43.5 197 43.5s135.833 -14.5 197.499 -43.5c61.667 -29 115.5 -73.167 161.5 -132.5c46.001 -59.333 82.334 -134.333 109 -225
c26.667 -90.667 40 -198 40 -322zM1023 708c0 114.667 -11 212.667 -33 294s-51.5 147.833 -88.5 199.5s-80.333 89.5 -130 113.5s-101.834 36 -156.501 36s-106.667 -12 -156 -36c-49.333 -24.0039 -92.666 -61.8369 -129.999 -113.5
c-37.333 -51.667 -67 -118.167 -89 -199.5s-33 -179.333 -33 -294c0 -115.333 11 -213.5 33 -294.5s51.667 -147.333 89 -199c37.334 -51.667 80.667 -89.334 130 -113.001c49.334 -23.667 101.334 -35.5 156 -35.5c54.667 0 106.834 11.833 156.5 35.5
c49.667 23.667 93 61.334 130 113.001s66.5 118 88.5 199s33 179.167 33 294.5z" />
    <glyph glyph-name="one" unicode="1" horiz-adv-x="903" 
d="M851.006 0.0507812l-729.029 -0.0117188v32.7285c0 18.2607 10.875 27.9336 32.625 29.0186c5.95605 0.297852 33.1484 1.58203 81.5771 3.85156l141.457 6.61816c45.876 2.14258 68.9941 3.22363 69.3545 3.24316v1146.36
c0.0195312 22.6719 1.02344 46.6865 3.0127 72.0449l-312.002 -277.193c-6.68066 -6.02344 -14.6797 -9.02637 -23.9971 -9.00781c-11.3379 -0.00683594 -20.0029 3.99609 -25.9961 12.0088l-29.0078 40.0332l408.996 361.258h73.9912v-1345.49l276.393 -13.7109
c21.751 -1.08301 32.626 -10.7559 32.626 -29.0176v-32.7285z" />
    <glyph glyph-name="two" unicode="2" horiz-adv-x="1086" 
d="M938.397 268.996c18.4834 0 31.208 -0.00195312 38.1689 -0.00488281s10.4316 -0.0117188 10.4131 -0.0253906v-212.967v-13.8135v-42.1855h-912.979v33.9883c0.000976562 7.32715 1.83496 14.8281 5.50293 22.5029c3.6543 7.6582 8.15234 14.1582 13.4941 19.5
l482.988 488.991c39.8682 40.5127 76.8691 79.8467 111.002 118.001c34.002 37.9951 63.499 76.3281 88.4902 114.999c24.9736 38.5918 44.6406 78.2568 59 118.994c14.335 40.6484 21.5078 83.9814 21.5186 129.999c-0.0107422 51.9609 -8.67969 97.1279 -26.0068 135.502
c-17.3379 38.3232 -40.502 69.8213 -69.4932 94.4951c-29.0176 24.6699 -62.3604 43.001 -100.028 54.9941c-37.6221 12.002 -77.1123 18.0029 -118.472 18.0029c-44.6729 0 -85.8369 -6.83496 -123.493 -20.5039c-37.667 -13.6699 -71 -32.667 -99.998 -56.9922
c-28.998 -24.335 -52.9961 -53.333 -71.9932 -86.9941c-19.0146 -33.7002 -32.1816 -70.5332 -39.501 -110.499c-6.66895 -23.335 -20 -35.0029 -39.9932 -35.0029c-1.41406 0.03125 -3.08105 0.199219 -5.00098 0.50293c-2.05078 0.334961 -3.71777 0.501953 -5 0.501953
l-47.9951 8.00195c8.00293 60.6504 24.5029 114.65 49.501 162c25.002 47.3242 56.5 87.3203 94.4951 119.988c38.0049 32.666 82.0039 57.5 131.997 74.5029c50.0039 17.0156 104.004 25.5176 162 25.5049c53.957 0 105.457 -7.83594 154.499 -23.5068
c48.96 -15.6533 92.126 -39.3164 129.498 -70.9883c37.3301 -31.6758 66.998 -71.3438 89.0039 -119.004c21.9961 -47.6377 32.9941 -103.469 32.9941 -167.492c-0.00390625 -53.3447 -8.1709 -102.843 -24.5 -148.495
c-16.3291 -45.6553 -38.4932 -89.4873 -66.4912 -131.496c-28.0381 -42.0361 -60.54 -82.8691 -97.5068 -122.499l-116.495 -121.484l-442.984 -451.991c21.2158 5.31152 43.3828 9.31152 66.501 12c23.1426 2.6709 46.3066 4.00586 69.4932 4.00586h543.371
c1.45508 29.1084 3.03027 53.293 4.72559 72.5537c1.69434 19.2607 3.11328 33.0566 4.25586 41.3877c1.17188 8.33105 1.80859 13.8574 1.91113 16.5791c1.6084 32.2979 15.9775 48.4463 43.1074 48.4463z" />
    <glyph glyph-name="three" unicode="3" horiz-adv-x="1082" 
d="M551 1431c54 0 105.001 -7.50488 153.001 -22.5049s90.167 -37.5 126.5 -67.5c36.333 -30.0039 65 -67.3369 86 -112c21 -44.668 31.5 -96.335 31.5 -155.001c-0.00585938 -46 -7.17285 -87.5 -21.5 -124.5c-14.3359 -37 -34.0029 -69.5 -59 -97.5
c-25 -28 -54.5 -51.5 -88.5 -70.5s-71 -33.5 -111 -43.5c104 -19.334 182.667 -59.501 236 -120.5c53.333 -61 80 -137.167 80 -228.5c0 -58 -11.667 -111.833 -35 -161.5s-55.333 -92.5 -96 -128.5s-88.667 -64.167 -144 -84.5s-115.333 -30.5 -180 -30.5
c-80.667 0 -147.834 10.833 -201.501 32.5s-97.834 49.834 -132.5 84.501c-34.667 34.667 -61.667 73.5 -81 116.5s-35 85.833 -47 128.5l38 16c8 3.33594 15.667 5.00293 23 5c7.33301 0 14.333 -1.66699 21 -5s11.667 -9.66602 15 -18.999l7 -20
c4 -12 9.66699 -26.833 17 -44.499c7.33301 -17.667 16.833 -36 28.5 -55s26.167 -38 43.5 -57c17.334 -19 38.501 -36 63.5 -51c25 -15 54.333 -27.167 88 -36.5s72.5 -14 116.5 -14c60 0 112.5 10 157.5 30s82.667 45.5 113 76.5s53 65.667 68 104
c15 38.334 22.5 75.501 22.5 111.501c0 43.334 -6.83301 83.667 -20.5 121s-36.5 69.5 -68.5 96.5c-32.001 27.001 -74.168 48.334 -126.501 64c-52.333 15.6709 -116.833 23.5039 -193.5 23.5v69c61.333 1.33301 115.333 9.5 162 24.5s85.667 35.5 117 61.5s55 57 71 93
s24 75.667 24 119c0 50 -8.33301 93.333 -25 130s-39 67 -67 91c-28.001 24.0078 -60.668 41.6748 -98 53.001c-37.333 11.3438 -76.333 17.0107 -117 17c-44.667 0 -85.667 -6.66699 -123 -20s-70.333 -32 -99 -56c-28.667 -24.002 -52.667 -52.835 -72 -86.499
c-19.333 -33.667 -33.666 -71.167 -42.999 -112.5c-5.33301 -23.333 -17.666 -35 -36.999 -35c-4.66699 0 -8.33398 0.333008 -11.001 1l-49 8c8.66699 60.667 25.334 114.667 50 162c24.667 47.333 56 87.333 94 120s82 57.5 132 74.5s104 25.5 162 25.5z" />
    <glyph glyph-name="four" unicode="4" horiz-adv-x="1179" 
d="M863 482l258.999 -0.000976562v-52c0 -7.33301 -2.16699 -13.166 -6.5 -17.499s-11.166 -6.5 -20.499 -6.5h-232v-406h-86v406h-667c-10 0.00488281 -17.667 2.17188 -23 6.50098c-5.33301 4.33398 -9 10.167 -11 17.499l-9 47l711 940h85v-935zM776.999 1223
c0.0234375 11.333 0.356445 23.333 1 36c0.678711 12.667 2.01172 25.667 4 39l-611 -816h606v741z" />
    <glyph glyph-name="five" unicode="5" horiz-adv-x="1016" 
d="M882.999 1374c0 -13.333 -4.49902 -24.501 -13.499 -33.501c-9.00195 -9 -23.1689 -13.5 -42.5 -13.5h-512l-85 -472c44.667 11.333 87 19.5 127 24.5s78.333 7.5 114.999 7.5c73.333 0 138 -10.5 194 -31.5s102.833 -50.333 140.499 -88
c37.667 -37.667 66.167 -82.5 85.5 -134.5s29 -108.667 29 -170c0 -74.667 -13 -141.5 -39 -200.5c-26.001 -59 -61.168 -109.167 -105.5 -150.5c-44.334 -41.333 -96.167 -73 -155.5 -95s-122.333 -33 -189 -33c-39.333 0 -76.666 3.5 -111.999 10.5
s-68.666 16.333 -99.999 28s-60 25.167 -86 40.5s-49 31 -69 47l28 39c6.66699 10 16.334 15 29 15c8.66699 0 21.167 -5 37.5 -15s37.333 -21 63 -33s56 -23 91 -33s75.833 -15 122.5 -15c54.667 0 105.667 8.83301 153 26.5s88.5 43.167 123.5 76.5
c35.001 33.333 62.334 74.5 82 123.5c19.6699 49 29.5029 104.5 29.499 166.5c0 50.667 -7.5 97.334 -22.5 140.001c-15.001 42.667 -37.668 79.167 -68.001 109.5c-30.335 30.333 -68.668 54 -115 71c-46.333 17 -100.833 25.5 -163.5 25.5c-38 0 -78.333 -3 -120.999 -9
c-42.667 -6.00293 -88 -15.6699 -136 -29l-62 19l111 627h636v-41z" />
    <glyph glyph-name="six" unicode="6" horiz-adv-x="1079" 
d="M579 846c60.667 0 116.666 -10 167.999 -30c51.333 -20.001 95.5 -48.168 132.5 -84.501s66 -80.333 87 -132s31.5 -109.5 31.5 -173.5s-11.5 -123 -34.5 -177s-55 -100.667 -96 -140s-90.167 -70 -147.5 -92s-120.333 -33 -189 -33c-66 0 -126.333 10.667 -180.999 32
c-54.667 21.333 -101.5 52 -140.5 92s-69.167 88.833 -90.5 146.5s-32 122.834 -32 195.501c0 55.334 14 117.834 42 187.5c28 69.667 74 147.834 138 234.501l386 520c11.333 15.3496 28.333 23.0166 51 23h84l-422 -551l-57 -77c-17.333 -24.001 -33 -47.668 -47 -71.001
c39.333 40.668 86 72.501 140 95.5c54 23 113 34.5 177 34.5zM179.999 427c0 -52.667 8.16797 -101.333 24.501 -146s39.5 -83.167 69.5 -115.5s66.667 -57.5 110 -75.5s92 -27 146 -27c57.333 0 109 9 155 27s85.167 42.833 117.5 74.5s57.166 69.334 74.499 113.001
s26 91.167 26 142.5c0 54 -8.5 102.833 -25.5 146.5s-41 80.667 -72 111s-67.833 53.666 -110.5 69.999s-90 24.5 -142 24.5c-58.667 -0.00390625 -111.167 -10.1709 -157.5 -30.5c-46.333 -20.334 -85.5 -46.667 -117.5 -79c-32 -32.334 -56.333 -69.167 -73 -110.5
s-25 -83 -25 -125z" />
    <glyph glyph-name="seven" unicode="7" horiz-adv-x="1101" 
d="M189.651 1414.99l838.33 0.00976562v-42.9951c-0.0332031 -11.3467 -1.20117 -21.1807 -3.50488 -29.501c-2.33105 -8.29102 -5.16211 -15.4531 -8.49316 -21.4863l-648.983 -1284.98c-5.35059 -10.6982 -12.5127 -19.3633 -21.4863 -25.9951
c-8.98047 -6.6748 -20.8154 -10.0117 -35.5049 -10.0117h-64.9951l652.98 1279.96c8.63672 17.3037 18.9688 32.9707 30.9961 47.001h-743.694l-6.56738 -132.53c-1.60938 -32.3037 -15.9785 -48.4521 -43.1084 -48.4453h-48.6201v207.915v61.0498h102.651z" />
    <glyph glyph-name="eight" unicode="8" horiz-adv-x="1107" 
d="M554.996 -16c-68 0 -130.164 9 -186.497 27s-104.666 44 -144.999 78s-71.833 75 -94.5 123s-34 102 -34 162c0 52 7.5 98.333 22.5 139c15 40.668 36.167 76.001 63.5 106c27.333 30 59.833 55 97.5 75s79.167 35 124.5 45c-41.333 12.001 -78 28.334 -110 48.999
c-32 20.667 -58.833 45.334 -80.5 74c-21.667 28.668 -38.167 60.501 -49.5 95.5c-11.333 35 -17 72.5 -17 112.5c0 50 9.5 97 28.5 141s46.167 82.333 81.5 115c35.334 32.667 78.167 58.334 128.5 77.001s107.166 28 170.499 28
c62.667 -0.0166016 119.167 -9.34961 169.5 -28c50.333 -18.6689 93.333 -44.3359 129 -77c35.668 -32.6699 63.001 -71.0029 82 -114.999c19 -44 28.5 -91 28.5 -141c-0.00390625 -40 -5.6709 -77.5 -17.001 -112.5c-11.3359 -35 -28.0029 -66.833 -50 -95.5
c-22 -28.667 -49 -53.334 -81 -74.001c-32.001 -20.667 -68.668 -37 -110.001 -49c45.333 -10 86.833 -25 124.5 -45s70.167 -45 97.5 -75s48.666 -65.333 63.999 -106c15.3457 -40.667 23.0127 -87 23.001 -139c-0.00390625 -60 -11.3369 -114 -34 -162
c-22.667 -48 -54.167 -89 -94.5 -123c-40.334 -34 -88.667 -60 -145 -78c-56.334 -18 -118.501 -27 -186.501 -27zM554.999 60c54 0 103.165 7.5 147.498 22.5s82.5 36.333 114.5 64s56.667 60.834 74 99.501s26 81.667 26 129c0 62 -11.333 113.667 -34 155
s-51.667 74.333 -87 99s-74.333 42.167 -117 52.5s-84 15.5 -124 15.5c-40 -0.00488281 -81.333 -5.17188 -123.999 -15.5c-42.667 -10.333 -81.667 -27.833 -117 -52.5s-64.333 -57.667 -87 -99s-34 -93 -34 -155c0 -47.333 8.66699 -90.333 26 -129
s41.833 -71.834 73.5 -99.501s69.834 -49 114.501 -64s94 -22.5 148 -22.5zM554.997 774c54 0 100.831 8.16504 140.497 24.498c39.668 16.333 72.501 38.333 98.5 66c26 27.667 45.167 59.167 57.5 94.5s18.5 72 18.5 110c0 40.667 -7 78.5 -21 113.5
s-34.5 65.5 -61.5 91.5s-60 46.333 -99 61s-83.5 22 -133.5 22c-50 -0.0107422 -94.667 -7.34375 -134 -22c-39.333 -14.6738 -72.5 -35.0068 -99.5 -60.999c-27 -26 -47.5 -56.5 -61.5 -91.5c-14 -35.002 -21 -72.835 -21 -113.499
c0.000976562 -38.001 6.16797 -74.668 18.501 -110c12.334 -35.333 31.501 -66.833 57.501 -94.5s58.833 -49.667 98.5 -66c39.667 -16.3359 86.834 -24.5029 141.501 -24.5z" />
    <glyph glyph-name="nine" unicode="9" horiz-adv-x="1063" 
d="M490.001 602c-58 0 -111.501 9.49902 -160.501 28.499s-91.333 46.167 -127 81.5s-63.5 77.833 -83.5 127.5s-30 105.167 -30 166.5c0 60.667 11.167 116.834 33.5 168.501s53.5 96.5 93.5 134.5s87.5 67.833 142.5 89.5s115.167 32.5 180.5 32.5
c62.667 0 120.167 -10.667 172.5 -32s97.333 -51.5 135 -90.5c37.668 -39 67.001 -85.667 88 -140c21 -54.333 31.5 -114.833 31.5 -181.5c-0.0244141 -36.667 -3.85742 -71.667 -11.5 -105c-7.6709 -33.335 -19.0039 -66.668 -34 -100
c-15.002 -33.334 -33.1689 -67.501 -54.5 -102.5c-21.334 -35 -45.667 -72.5 -72.999 -112.5l-371 -544c-10.001 -15.333 -26.334 -23 -49 -23h-86l418 584l55.5 79.5s32.5 49.167 46.5 72.5c-38.667 -42.667 -85.5 -75.667 -140.5 -99
c-55 -23.334 -113.833 -35.001 -176.5 -35zM874 1005c0 51.333 -8.33301 98.333 -25 141s-40 79.167 -70 109.5c-30 30.3359 -65.5 54.0029 -106.5 71.001c-41 17 -85.833 25.5 -134.5 25.5c-52 -0.015625 -99.833 -8.34863 -143.5 -25
c-43.667 -16.6689 -81 -40.002 -112 -69.999c-31 -30.0039 -55.167 -65.8369 -72.5 -107.5c-17.333 -41.668 -26 -87.501 -26 -137.5c0 -52 8 -98.833 24 -140.5s38.5 -77 67.5 -106c29 -29.001 64 -51.168 105 -66.501c41 -15.3359 86.5 -23.0029 136.5 -23
c56.667 0 107.167 9.66699 151.5 29s81.833 44.666 112.5 75.999c30.668 31.333 53.835 66.5 69.501 105.5c15.6699 39 23.5029 78.5 23.499 118.5z" />
    <glyph glyph-name="colon" unicode=":" horiz-adv-x="457" 
d="M137.001 77c0.000976562 12.667 2.33301 24.667 6.99902 36c4.66699 11.333 11.167 21.166 19.5 29.499s18 15 29 20s23.167 7.5 36.5 7.5c12.667 0 24.667 -2.5 36 -7.5c11.334 -5 21.167 -11.667 29.5 -20c8.33398 -8.33301 15.001 -18.166 20 -29.499
c5 -11.333 7.5 -23.333 7.5 -36c0 -13.333 -2.5 -25.5 -7.5 -36.5s-11.667 -20.667 -20 -29s-18.166 -14.833 -29.499 -19.5s-23.333 -7 -36 -7c-26 0 -47.833 8.83301 -65.5 26.5s-26.5 39.5 -26.5 65.5zM137 874c0.000976562 12.667 2.33301 24.6689 6.99902 36.002
c4.66699 11.333 11.167 21.166 19.5 29.499s18 15 29 20s23.167 7.5 36.5 7.5c12.667 0 24.667 -2.5 36 -7.5c11.334 -5.00391 21.167 -11.6709 29.5 -20.001c8.33398 -8.33496 15.001 -18.168 20 -29.5c5 -11.333 7.5 -23.333 7.5 -36c0 -13.335 -2.5 -25.502 -7.5 -36.5
c-5 -11.0029 -11.667 -20.6699 -20 -29c-8.33301 -8.33301 -18.166 -14.833 -29.499 -19.5s-23.333 -7 -36 -7c-26 0.00488281 -47.833 8.83789 -65.5 26.5c-17.667 17.668 -26.5 39.501 -26.5 65.5z" />
    <glyph glyph-name="semicolon" unicode=";" horiz-adv-x="458" 
d="M140 874c0.000976562 12.667 2.33301 24.6689 6.99902 36.002c4.66699 11.333 11.167 21.166 19.5 29.499s18 15 29 20s23.167 7.5 36.5 7.5c12.667 0 24.667 -2.5 36 -7.5c11.334 -5.00391 21.167 -11.6709 29.5 -20.001c8.33398 -8.33496 15.001 -18.168 20 -29.5
c5 -11.333 7.5 -23.333 7.5 -36c0 -13.335 -2.5 -25.502 -7.5 -36.5c-5 -11.0029 -11.667 -20.6699 -20 -29c-8.33301 -8.33301 -18.166 -14.833 -29.499 -19.5s-23.333 -7 -36 -7c-26 0.00488281 -47.833 8.83789 -65.5 26.5c-17.667 17.668 -26.5 39.501 -26.5 65.5z
M144.999 85.002c0 23.333 8.00391 43.3311 24.0039 59.998s37 25 63 25c28.667 0 50.834 -9.83301 66.501 -29.5s23.5 -45.5 23.5 -77.5c0 -27.333 -3.5 -55.166 -10.5 -83.499s-17.167 -56.166 -30.5 -83.499s-29.333 -53.666 -48 -78.999s-39.334 -48.666 -62.001 -69.999
l-15 15c-5.33398 5.33301 -8.00098 11 -8.00098 17c0 3.33301 1 6.66602 3 9.99902c2.00098 3.33301 4.33398 6.33301 7 9c6.66699 6.66602 15.167 16.499 25.5 29.499s20.666 28.333 30.999 46s19.666 37.167 27.999 58.5s13.833 44 16.5 68
c-4 -1.33301 -8.5 -2.33301 -13.5 -3s-10.5 -1 -16.5 -1c-24.667 0 -44.834 8.33301 -60.501 25s-23.5 38 -23.5 64z" />
    <glyph glyph-name="less" unicode="&#x3c;" horiz-adv-x="951" 
d="M93 692l750 384.997v-65c0 -7.33691 -2 -13.6699 -6 -18.999c-4 -5.34082 -11 -10.6738 -21 -16l-553 -280c-22 -11.3359 -46 -20.0029 -72 -26c28 -6 52 -14.333 72 -25l553 -281c10 -5.33301 17 -10.666 21 -15.999s6 -11.666 6 -18.999v-65l-750 386v41z" />
    <glyph glyph-name="equal" unicode="=" horiz-adv-x="1103" 
d="M139 556h827v-74h-827v74zM139 869h827v-74h-827v74z" />
    <glyph glyph-name="greater" unicode="&#x3e;" horiz-adv-x="951" 
d="M107 265v65.002c0 7.33301 2 13.833 6 19.5s10.667 10.834 20 15.501l554 281c20.668 10.6689 44.335 19.002 71 24.999c-13.335 3.33301 -25.668 7.16602 -37 11.499c-11.3369 4.33301 -22.6699 9.16602 -34 14.499l-554 280c-17.333 9.33301 -26 21 -26 35v65l750 -385
v-41z" />
    <glyph glyph-name="question" unicode="?" horiz-adv-x="823" 
d="M64 1292c18 18 38.332 35.333 60.999 52s47.5 31.5 74.5 44.5s56.5 23.333 88.5 31s66.667 11.5 104 11.5c46.667 0 90.667 -7 132 -21s77.5 -34 108.5 -60c31 -26.002 55.667 -57.835 74 -95.499c18.333 -37.6689 27.5 -79.8359 27.5 -126.5
c0 -50.668 -7.83301 -94.335 -23.5 -131.001c-15.667 -36.667 -35.5 -68.834 -59.5 -96.501s-50 -52 -78 -73l-78.5 -59c-24.333 -18.333 -45 -36.833 -62 -55.5s-26.167 -39.334 -27.5 -62.001l-12 -164h-65l-5 171v5c0 27.333 8 51.333 24 72s35.833 40.667 59.5 60
s49.334 39 77.001 59s53.334 42.5 77.001 67.5c23.668 25.001 43.501 53.834 59.5 86.499c16 32.667 24 71.334 24 116.001c0 36.002 -7 68.1689 -21 96.5c-14 28.333 -33 52.333 -57 72s-51.667 34.667 -83 45c-31.333 10.3535 -64 15.5205 -98 15.5
c-44 -0.00976562 -82.167 -5.84277 -114.5 -17.499c-32.333 -11.667 -59.5 -24.667 -81.5 -39s-39.333 -27.333 -52 -39c-12.667 -11.6758 -21.334 -17.5088 -26.001 -17.499c-10 0 -17.333 4 -22 12zM265.999 77c0.000976562 12.667 2.33398 24.667 6.99902 36
c4.66699 11.333 11.167 21.166 19.5 29.499c8.33398 8.33301 18.001 15 29 20c11 5 23.167 7.5 36.5 7.5c12.667 0 24.667 -2.5 36 -7.5c11.334 -5 21.167 -11.667 29.5 -20c8.33398 -8.33301 15.001 -18.166 20 -29.499c5 -11.333 7.5 -23.333 7.5 -36
c0 -13.333 -2.5 -25.5 -7.5 -36.5s-11.667 -20.667 -20 -29s-18.166 -14.833 -29.499 -19.5s-23.333 -7 -36 -7c-26 0 -47.833 8.83301 -65.5 26.5s-26.5 39.5 -26.5 65.5z" />
    <glyph glyph-name="at" unicode="@" horiz-adv-x="1623" 
d="M1154 188c-58.6689 0 -102.842 15.5 -132.507 46.5c-29.667 31 -45.167 75.5 -46.5 133.5c-37.334 -62 -79.501 -106.833 -126.5 -134.5c-47 -27.667 -97.833 -41.5 -152.5 -41.5c-37.334 0 -69.667 6.5 -97 19.5c-27.334 13 -50.001 30.833 -68 53.5
c-18 22.667 -31.5 49.334 -40.5 80.001s-13.5 63.667 -13.5 99c0 56.667 10.833 113.5 32.5 170.5s53.334 108.333 95 153.999c41.667 45.668 92.834 82.835 153.5 111.5c60.667 28.668 129.667 43.001 207 42.999c35.333 0 68.5 -3 99.5 -9
c31 -6.00391 58.833 -14.6709 83.5 -26.001l-91 -347c-8.00781 -30.667 -13.8408 -58.167 -17.499 -82.5c-3.71484 -24.333 -5.54785 -46.166 -5.5 -65.499c0.0234375 -29.333 3.69043 -53.166 11 -71.499c7.33789 -18.333 17.1709 -32.833 29.5 -43.5
c12.3379 -10.668 26.5049 -17.835 42.501 -21.5c16.0068 -3.66699 32.6738 -5.5 50.001 -5.5c38 0 74.333 10 109 30s65.334 48.5 92.001 85.5s47.834 81.833 63.501 134.5s23.5 111.667 23.5 177c0 98.667 -16.167 184.834 -48.5 258.5
c-32.333 73.667 -76.333 134.834 -132 183.501c-55.668 48.667 -120.501 85 -194.5 109c-74 24 -152.667 36 -236 36c-91.333 0 -177.833 -17.667 -259.5 -53s-153.334 -84.666 -215.001 -147.999s-110.667 -138.833 -147 -226.5s-54.5 -183.834 -54.5 -288.501
c0 -118 18.833 -221.833 56.5 -311.5s88.834 -164.667 153.501 -225s140.167 -106 226.5 -137s178.166 -46.5 275.499 -46.5c98.667 0 188.834 11.333 270.501 34s155.834 55.667 222.501 99c4.66699 3.33301 10.334 5 17.001 5c9.34375 0 16.0107 -4.66699 20 -14l15 -37
c-74.668 -49.333 -156.835 -87.333 -246.5 -114c-89.667 -26.667 -189.167 -40 -298.5 -40c-110 0 -212.667 17.5 -308 52.5s-178.333 86 -249 153s-126.334 149.333 -167.001 247s-61 209.167 -61 334.5c0 111.333 19.667 214.666 59 309.999s93 178 161 248
s147.333 124.833 238 164.5s187.667 59.5 291 59.5c89.333 -0.00488281 175 -13.8379 257 -41.5c82 -27.6689 154.5 -69.002 217.5 -124c63 -55 113.333 -123.167 151 -204.5c37.667 -81.334 56.5 -175.667 56.5 -283c0 -72.667 -9.66699 -139 -29 -199
s-45.833 -111.5 -79.5 -154.5s-73.167 -76.5 -118.5 -100.5s-93.666 -36 -144.999 -36zM713.995 258c24.001 0 48.834 4.00098 74.5 12.001c25.668 8 50.335 22.5 74.001 43.5c23.668 21 45.835 49.333 66.501 85c20.6689 35.667 38.002 81.167 52 136.5l80 310
c-16 4.66699 -32.5 8.16699 -49.5 10.5s-36.833 3.5 -59.5 3.5c-60 -0.00195312 -114.5 -12.1689 -163.5 -36.501c-49.001 -24.334 -90.668 -56.167 -125.001 -95.5c-34.334 -39.334 -61.001 -83.501 -80 -132.501c-19 -49 -28.5 -98.5 -28.5 -148.5
c0.00390625 -26.667 3.33691 -51.5 9.99902 -74.5c6.66699 -23 16.667 -42.833 30 -59.499c13.333 -16.667 29.833 -29.834 49.5 -39.5c19.667 -9.66797 42.834 -14.501 69.5 -14.5z" />
    <glyph glyph-name="A" unicode="A" horiz-adv-x="1543" 
d="M1427.15 86.2266c25.749 -2.91992 38.6279 -16.2979 38.6387 -40.1348v-46.0391h-65.4141h-40.5977h-38.3945h-13.2695h-187.565v46.0391c0.00195312 25.6846 15.293 39.2891 45.874 40.8125c2.7334 0.133789 6.87988 0.427734 12.4395 0.880859
c5.56152 0.455078 14.958 1.11621 28.1895 1.98242c13.2363 0.871094 30.1191 1.84668 50.6494 2.92578l-140.309 345.334l-10.1025 25.6162h-674.427l-10.4512 -25.6162l-139.478 -345.324c20.5889 -1.0791 37.5029 -2.05273 50.7422 -2.91992
c13.2354 -0.87207 22.6504 -1.53613 28.2451 -1.99316c5.59473 -0.458984 9.74316 -0.753906 12.4443 -0.885742c30.583 -1.50977 45.874 -15.1143 45.874 -40.8125v-46.0391h-187.565h-14.2627h-37.4004h-40.5977h-65.415v46.0391
c0 23.8057 12.8389 37.1807 38.5176 40.125l64.6875 6.48535l541.178 1322.31h102.006l541.076 -1322.31zM742.396 1228l-278.637 -688.361h613.265l-278.628 689.365c-4.65234 11.2441 -9.32129 24.0732 -14.0078 38.4873
c-4.82227 14.8232 -9.4873 29.9912 -13.9961 45.5049c-4.63184 -15.8926 -9.29785 -31.0576 -13.998 -45.4951c-4.6084 -14.1641 -9.27441 -27.3311 -13.998 -39.501z" />
    <glyph glyph-name="B" unicode="B" horiz-adv-x="1276" 
d="M1115.45 613.977c59.9941 -57.3301 89.998 -133 90.0088 -227c0 -59.96 -10.667 -113.96 -32.001 -162c-21.3535 -47.9854 -52.3535 -88.6475 -92.999 -121.986c-40.6689 -33.3428 -90.6689 -58.8438 -150.001 -76.5029
c-59.3047 -17.665 -126.636 -26.498 -201.992 -26.498h-458.99h-168.476v39.8086c0 22.2119 13.2217 33.9756 39.665 35.291c2.92676 0.146484 9.25781 0.354492 18.9922 0.625c9.73438 0.272461 24.5273 0.733398 44.3779 1.38281
c19.8477 0.645508 41.665 1.44141 65.4512 2.3877v1255.98c-23.79 0.990234 -45.6074 1.78809 -65.4521 2.39355c-19.8477 0.649414 -34.6426 1.1084 -44.3838 1.37793c-9.74121 0.270508 -16.0703 0.478516 -18.9873 0.625
c-26.4434 1.31543 -39.665 13.0791 -39.665 35.291v39.8086h168.476h406.988c80.6611 -0.015625 150.492 -8.01465 209.493 -23.9971c59 -16.0049 107.832 -39.5039 146.496 -70.4971c38.667 -31.0234 67.498 -68.8574 86.4922 -113.502
c18.9971 -44.665 28.4951 -95.3311 28.4951 -151.998c0 -37.377 -6.5 -73.373 -19.499 -107.988c-12.9756 -34.6318 -31.8086 -66.6328 -56.499 -96.002c-24.6543 -29.3223 -54.8203 -54.8262 -90.499 -76.5117c-35.6582 -21.665 -76.4873 -38.1592 -122.488 -49.4824
c111.319 -16.6719 196.985 -53.6729 256.997 -111.002zM371.463 1333.96l-0.00878906 -580.966h306.99c65.3496 0 121.184 8.33105 167.502 24.9922c46.3086 16.6436 84.3037 38.6426 113.984 65.9971c29.667 27.3252 51.5059 58.3252 65.5166 92.999
c14.001 34.6797 20.999 70.3447 20.9951 106.996c0 95.3252 -30.166 167.489 -90.499 216.492c-60.332 48.9893 -153.495 73.4854 -279.488 73.4893h-304.992zM1008.45 162.494c63.3252 53.6514 94.9912 129.153 94.998 226.504
c0 44.6553 -8.49805 84.8223 -25.4932 120.501c-17.0068 35.6611 -41.5068 65.9941 -73.5 90.999c-31.9727 24.9717 -71.3096 44.1367 -118.011 57.4941c-46.6914 13.3271 -99.6943 19.9912 -159.009 19.9912h-355.97v-595.987h354.996
c124.661 0 218.657 26.833 281.988 80.498z" />
    <glyph glyph-name="C" unicode="C" horiz-adv-x="1289" 
d="M1205 230.985l39.9746 -42.9854c-29.3193 -31.3135 -61.3193 -59.4785 -96.001 -84.4951c-34.666 -25.002 -72.4971 -46.332 -113.493 -63.9902c-41.042 -17.6943 -86.0459 -31.3633 -135.012 -41.0068c-49.0625 -9.66602 -102.896 -14.499 -161.499 -14.499
c-97.9922 0 -187.818 17.167 -269.478 51.5c-81.6758 34.3271 -151.674 82.9922 -209.995 145.995c-58.3564 63.0205 -103.852 139.184 -136.485 228.49c-32.6738 89.3311 -49.0107 188.662 -49.0107 297.994c0 107.327 16.835 205.323 50.5059 293.987
c33.6504 88.6562 80.9795 164.82 141.988 228.492c60.999 63.6533 133.996 112.984 218.992 147.992c85.0068 35.0088 178.839 52.5107 281.497 52.5049c132.394 0 283.023 -33.8008 451.889 -101.401v-319.123h-48.6104c-27.1396 0 -41.5088 16.1484 -43.1074 48.4463
l-10.708 216.144c-104.105 45.293 -220.59 67.9385 -349.453 67.9355c-86 0 -164.998 -14.834 -236.995 -44.501c-72.0303 -29.7002 -134.026 -72.0361 -185.987 -127.008c-51.9912 -55.0039 -92.4893 -121.669 -121.494 -199.995
c-28.998 -78.3457 -43.4971 -166.177 -43.4971 -263.493c0 -100.026 14.332 -189.356 42.9951 -267.991c28.6602 -78.6748 68.3252 -145.173 118.995 -199.494c50.6484 -54.3262 110.482 -95.9893 179.501 -124.988c68.9912 -29.0049 143.822 -43.5078 224.494 -43.5078
c50.6807 0 95.8486 3.33398 135.503 10.001c39.6699 6.66309 76.1689 16.667 109.497 30.0127c33.3564 13.3301 64.3525 29.6602 92.9883 48.9893c28.707 19.3604 57.042 42.0264 85.0059 67.9971c3.35352 2.66406 6.51953 4.83301 9.49805 6.50586
c3.01465 1.66699 6.50879 2.50098 10.4824 2.50098c6.68262 0 12.3555 -2.33594 17.0195 -7.00879z" />
    <glyph glyph-name="D" unicode="D" horiz-adv-x="1520" 
d="M1386.64 1001.98c32.6631 -87.415 48.9873 -185.417 48.9766 -294c0 -109.336 -16.3301 -207.663 -48.9893 -294.981c-32.6982 -87.3721 -78.7021 -161.701 -138.012 -222.988c-59.3398 -61.3545 -130.336 -108.359 -212.987 -141.015
c-82.6689 -32.6602 -174.332 -48.9902 -274.99 -48.9902h-491.164h-168.476v39.8086c0 22.2129 13.2217 33.9766 39.6641 35.29c2.92676 0.145508 9.25781 0.354492 18.9932 0.626953s24.5273 0.732422 44.377 1.37988c19.8506 0.648438 41.668 1.44531 65.4521 2.39062
v1255.98c-23.79 0.948242 -45.6074 1.74609 -65.4521 2.39355c-19.8447 0.688477 -34.6387 1.14746 -44.3818 1.37695c-9.74316 0.270508 -16.0723 0.478516 -18.9873 0.624023c-26.4424 1.31934 -39.6641 13.083 -39.6641 35.291v39.8086h168.485h491.165
c100.641 -0.0078125 192.304 -16.3408 274.99 -48.999c82.6504 -32.667 153.646 -79.665 212.987 -140.994c59.3389 -61.3467 105.343 -135.68 138.013 -222.999zM1288.63 442.994c27.3281 77.3311 40.998 165.66 41.0078 264.988
c-0.00683594 98.6553 -13.6758 186.653 -41.0068 263.995c-27.3281 77.3213 -65.8252 142.654 -115.49 195.999c-49.6758 53.3232 -109.51 93.9854 -179.502 121.986c-70.0059 27.9941 -147.669 41.9941 -232.989 42.001h-388.165v-1248.97h388.165
c85.3242 0 162.987 14 232.988 42.001c70.0215 28.0146 129.852 68.6807 179.491 121.998c49.6523 53.3232 88.1523 118.656 115.501 195.999z" />
    <glyph glyph-name="E" unicode="E" horiz-adv-x="1245" 
d="M269.476 1415l847.978 -0.0126953v-84.9961v-208.008h-48.6104c-27.1289 0 -41.498 16.1484 -43.1074 48.4463l-7.90137 159.572h-645.346v-571.98h562.963v-83.0078h-562.963v-589.983h645.346l3.4541 69.7588l3.16992 64.042
c0.688477 13.3135 1.11426 21.9004 1.27734 25.7598c1.6084 32.3047 15.9775 48.457 43.1074 48.457h48.6104v-208.018v-84.9971h-847.975h-168.476v39.8086c0 22.2129 13.2217 33.9766 39.665 35.29c2.9248 0.145508 9.25391 0.354492 18.9863 0.626953
c9.73145 0.272461 24.5225 0.732422 44.373 1.37988c19.8506 0.648438 41.667 1.44531 65.4492 2.39062v1255.98c-23.7871 0.948242 -45.6025 1.74609 -65.4453 2.39355c-19.8428 0.688477 -34.6357 1.14746 -44.3789 1.37695
c-9.74316 0.270508 -16.0723 0.478516 -18.9873 0.624023c-26.4434 1.31934 -39.665 13.083 -39.665 35.291v39.8086h168.476z" />
    <glyph glyph-name="F" unicode="F" horiz-adv-x="1190" 
d="M1117.45 1415l12.7256 -0.0117188v-293.004h-48.6094c-27.1289 0 -41.498 16.1484 -43.1084 48.4463l-7.90137 159.571h-658.082v-594.984h528.318v-84.9961h-528.318v-570.494c23.8037 -0.949219 45.6201 -1.74707 65.4502 -2.39355
c19.8301 -0.648438 34.6201 -1.10742 44.3711 -1.37793c9.75 -0.270508 16.083 -0.478516 19 -0.624023c26.4365 -1.31348 39.6543 -13.0771 39.6543 -35.29v-39.8086h-168.476h-103h-168.476v39.8086c0 22.2129 13.2217 33.9766 39.6641 35.29
c2.92676 0.145508 9.25781 0.354492 18.9932 0.626953s24.5273 0.732422 44.377 1.37988c19.8506 0.648438 41.668 1.44531 65.4521 2.39062v1255.98c-23.79 0.948242 -45.6074 1.74609 -65.4521 2.39355c-19.8447 0.688477 -34.6387 1.14746 -44.3818 1.37695
c-9.74316 0.270508 -16.0723 0.478516 -18.9873 0.624023c-26.4424 1.31934 -39.6641 13.083 -39.6641 35.291v39.8086h168.476h797.919h50.0557z" />
    <glyph glyph-name="G" unicode="G" horiz-adv-x="1397" 
d="M905.961 642l391.001 0.000976562v-502.989c-35.3955 -24.7012 -72.0615 -46.6973 -109.998 -65.9883c-37.9131 -19.2939 -78.582 -35.46 -122.007 -48.498c-43.2783 -12.9854 -89.9385 -22.9863 -139.98 -30.002c-50.0547 -6.99512 -104.721 -10.4922 -163.998 -10.4922
c-102.04 0 -195.203 17.167 -279.489 51.5c-84.3408 34.3262 -156.672 82.9912 -216.994 145.994c-60.3457 63.0068 -107.18 139.171 -140.502 228.491c-33.3291 89.293 -49.9932 188.624 -49.9932 297.993c0 109.332 16.6641 208.496 49.9932 297.492
c33.333 89.0029 80.666 164.999 141.999 227.988c61.3271 62.9971 135.827 111.662 223.501 145.995c87.6572 34.3389 185.82 51.5059 294.489 51.5c71.2383 0 156.396 -9.85254 255.475 -29.5566c99.0791 -19.7041 179.954 -43.6523 242.626 -71.8447v-319.123h-48.6201
c-27.123 0.000976562 -41.4893 16.1504 -43.0977 48.4473l-10.6465 214.667c-98.334 46.2734 -231.247 69.4102 -398.739 69.4102c-91.9775 -0.0078125 -174.976 -14.6738 -248.994 -43.999c-74.002 -29.3506 -137.166 -71.3486 -189.492 -125.993
c-52.3262 -54.6504 -92.6602 -121.318 -121.002 -200.005c-28.3428 -78.6631 -42.5068 -166.993 -42.4932 -264.989c0 -100.031 14.332 -189.696 42.9951 -268.996c28.6494 -79.3398 68.8164 -146.503 120.501 -201.49c51.6533 -54.9941 113.649 -97.1631 185.987 -126.506
c72.3037 -29.3262 152.136 -43.9893 239.496 -43.9893c48.7061 0 93.043 2.49707 133.012 7.49023c39.9385 4.9873 77.0967 12.4844 111.475 22.4922c34.3359 10.0039 67.0029 22.1738 98.001 36.5088c30.9551 14.3115 62.1152 30.4775 93.4805 48.498l0.00976562 380.992
h-271.988c-7.34668 0.0126953 -13.5146 2.34863 -18.5049 7.00781c-5.00098 4.65234 -7.50098 9.98438 -7.50098 15.9951v55.998z" />
    <glyph glyph-name="H" unicode="H" horiz-adv-x="1622" 
d="M1490.27 1339.88c-2.85254 -0.178711 -9.18652 -0.390625 -18.9932 -0.62207c-9.80664 -0.272461 -24.6035 -0.732422 -44.3906 -1.37988l-65.4404 -2.3916v-1255.99c23.8027 -0.949219 45.6191 -1.74707 65.4502 -2.39355
c19.8379 -0.648438 34.6289 -1.10742 44.373 -1.37793c9.74902 -0.270508 16.082 -0.478516 18.999 -0.624023c26.4365 -1.31348 39.6543 -13.0771 39.6543 -35.29v-39.8086h-168.476h-102.948h-168.477v39.8086c0 22.2129 13.2148 33.9766 39.6445 35.29
c2.93359 0.145508 9.26367 0.354492 18.9893 0.626953c9.7334 0.272461 24.5205 0.732422 44.3613 1.37988c19.8408 0.648438 41.6475 1.44531 65.4199 2.39062v598.488h-885.969v-598.498c23.752 -0.946289 45.5283 -1.74219 65.3281 -2.3877
c19.8008 -0.645508 34.5664 -1.10352 44.2979 -1.37402c9.73242 -0.270508 16.0586 -0.478516 18.9785 -0.624023c26.4365 -1.31348 39.6543 -13.0771 39.6543 -35.29v-39.8086h-168.26h-102.99h-168.476v39.8086c0 22.2129 13.2178 33.9766 39.6543 35.29
c2.92871 0.145508 9.26074 0.354492 18.9971 0.626953c9.7373 0.272461 24.5293 0.732422 44.376 1.37988c19.8467 0.648438 41.6631 1.44531 65.4482 2.39062v1255.98c-23.7881 0.948242 -45.6035 1.74609 -65.4453 2.39355
c-19.8408 0.647461 -34.6348 1.10645 -44.3818 1.37793c-9.74707 0.270508 -16.0781 0.478516 -18.9941 0.624023c-26.4365 1.31934 -39.6543 13.083 -39.6543 35.291v39.8086h168.476h102.774h168.476v-39.8086c0 -22.2129 -13.2178 -33.9766 -39.6533 -35.29
c-2.90332 -0.141602 -9.22754 -0.348633 -18.9727 -0.621094c-9.74609 -0.272461 -24.5117 -0.731445 -44.2959 -1.37695l-65.3359 -2.38574v-580.494h885.969v580.484c-23.7803 0.948242 -45.585 1.74609 -65.415 2.39355
c-19.8311 0.647461 -34.6191 1.10645 -44.3643 1.37793c-9.74512 0.270508 -16.0752 0.478516 -18.9902 0.624023c-26.4297 1.31934 -39.6445 13.083 -39.6445 35.291v39.8086h168.425h103h168.476v-39.8086c-0.00585938 -22.2129 -13.2236 -33.9766 -39.6543 -35.29z" />
    <glyph glyph-name="I" unicode="I" horiz-adv-x="633" 
d="M501.299 1339.9c-2.85156 -0.178711 -9.18262 -0.385742 -18.9863 -0.617188c-9.80371 -0.272461 -24.6006 -0.732422 -44.3906 -1.37988l-65.4473 -2.3916v-1255.99c23.8047 -0.949219 45.6221 -1.74707 65.4521 -2.39355
c19.8301 -0.648438 34.6201 -1.10742 44.3701 -1.37793s16.083 -0.478516 19 -0.624023c26.4365 -1.31348 39.6543 -13.0771 39.6543 -35.29v-39.8086h-168.476h-103h-168.476v39.8086c0 22.2129 13.2178 33.9766 39.6543 35.29
c2.92676 0.145508 9.25781 0.354492 18.9932 0.626953s24.5273 0.732422 44.377 1.37988c19.8506 0.648438 41.668 1.44531 65.4521 2.39062v1255.98c-23.7881 0.948242 -45.6035 1.74609 -65.4453 2.39355c-19.8408 0.647461 -34.6348 1.10645 -44.3818 1.37793
c-9.74707 0.270508 -16.0781 0.478516 -18.9941 0.624023c-26.4365 1.31934 -39.6543 13.083 -39.6543 35.291v39.8086h168.476h103h168.476v-39.8086c0 -22.2129 -13.2178 -33.9766 -39.6533 -35.29z" />
    <glyph glyph-name="J" unicode="J" horiz-adv-x="901" 
d="M684.992 1415l168.468 0.00683594v-39.8086c-0.00195312 -22.2119 -13.2207 -33.9746 -39.6562 -35.2881c-2.89941 -0.141602 -9.22949 -0.349609 -18.9893 -0.623047l-44.3848 -1.38086c-19.8271 -0.648438 -41.6436 -1.44629 -65.4492 -2.39258v-863.488
c0 -79.3398 -9.83301 -149.338 -29.5 -209.994c-19.6641 -60.6709 -47.665 -111.672 -84.002 -153.004c-36.3125 -41.3096 -80.6436 -72.4727 -132.992 -93.4893c-52.333 -20.999 -111.166 -31.498 -176.499 -31.498c-29.9189 0 -60.252 2.33301 -91 6.99805
c-30.7803 4.69922 -62.4424 12.0322 -94.9873 22c1.36914 9.63672 2.53418 18.9678 3.49512 27.9922c1.0166 9.54395 1.84961 18.875 2.5 27.9932c1.33398 6.01074 3.83398 11.3457 7.50098 16.0059c3.66602 4.67383 10.1621 7.01074 19.4893 7.01074
c5.96777 0 13.1406 -1.16895 21.5186 -3.50586c8.32031 -2.33594 18.3174 -4.83594 29.9922 -7.5c11.835 -2.69238 25.1689 -5.18945 40.0029 -7.49023c14.8916 -2.3291 32.3926 -3.49414 52.5029 -3.49414c50.7031 0 96.373 7.99902 137.009 23.998
c40.6572 16.001 75.3184 40.501 103.983 73.5c28.6592 32.9834 50.4951 74.6465 65.5068 124.989c14.9922 50.332 22.4932 109.496 22.502 177.492l-0.0107422 865.486c-23.8975 0.991211 -46.9102 1.78711 -69.0381 2.3877
c-22.1279 0.681641 -39.3662 1.1416 -51.7148 1.37988c-12.3496 0.277344 -19.8994 0.483398 -22.6494 0.619141c-26.4365 1.3125 -39.6543 13.0752 -39.6543 35.2891v39.8086h183.057h103z" />
    <glyph glyph-name="K" unicode="K" horiz-adv-x="1436" 
d="M1313.87 75.1094c26.4424 -1.31348 39.6553 -13.0742 39.6504 -35.2734v-39.8086h-42.0625h-83.0088h-24.582h-8.64746h-266.312v39.8086c0.00195312 22.2129 13.2197 33.9756 39.6543 35.2891c2.35742 0.116211 10.8564 0.255859 25.4961 0.418945
c14.6445 0.165039 34.208 0.397461 58.6914 0.696289c24.4873 0.300781 46.6709 0.635742 66.5518 1.00586l-549.827 561.754c-7.4873 7.46973 -14.1543 13.8018 -20.001 18.9971c-6.00879 5.34375 -12.8398 9.8418 -20.4932 13.4941
c-7.69629 3.67871 -16.8672 6.34668 -27.5127 8.00293c-10.7139 1.6875 -24.0449 2.52051 -39.9932 2.5h-90.9902v-602.505c23.7441 -0.946289 45.5137 -1.74219 65.3086 -2.38672c19.7949 -0.645508 34.5566 -1.10352 44.2861 -1.37402
s16.0537 -0.478516 18.9717 -0.624023c26.4365 -1.31348 39.6543 -13.0762 39.6543 -35.2891v-39.8086h-168.22h-102.006h-168.476v39.8086c0 22.2129 13.2178 33.9756 39.6543 35.2891c2.89746 0.143555 9.22949 0.351562 18.9961 0.624023
c9.7666 0.273438 24.5576 0.733398 44.373 1.38086c19.8145 0.648438 41.6318 1.44629 65.4531 2.39355v1257.98c-23.7881 0.949219 -45.6035 1.74707 -65.4453 2.39453c-19.8408 0.647461 -34.6348 1.10645 -44.3818 1.37695
c-9.74707 0.271484 -16.0781 0.479492 -18.9941 0.625c-26.4365 1.31934 -39.6543 13.082 -39.6543 35.2891v39.8086h168.476h101.75h168.476v-39.8086c-0.000976562 -22.2119 -13.2188 -33.9746 -39.6543 -35.2881
c-2.90234 -0.142578 -9.22656 -0.350586 -18.9717 -0.623047l-44.2852 -1.37793c-19.7773 -0.646484 -41.5469 -1.44141 -65.3076 -2.38477v-575.505h83.9922c12.6582 0 23.6602 0.501953 33.0049 1.50586c9.3252 0.99707 17.8232 2.99512 25.4932 5.99414
c7.72656 3.03027 14.8926 6.8623 21.498 11.4961c6.62598 4.62012 13.6279 10.625 21.0059 18.0137l524.343 539.026c-19.0801 0.336914 -40.3438 0.645508 -63.792 0.925781l-55.7988 0.65625c-13.749 0.197266 -21.7852 0.333008 -24.1084 0.407227
c-26.4385 1.31934 -39.6572 13.082 -39.6553 35.2891v39.8086h256.7h18.2598h140.041v-39.8086c-0.00488281 -22.2119 -13.2227 -33.9746 -39.6543 -35.2881c-2.84766 -0.141602 -6.87891 -0.303711 -12.0947 -0.486328l-25.5439 -0.878906
c-11.7852 -0.445312 -24.2168 -0.891602 -37.2949 -1.33887l-542.407 -557.327c-12.6768 -13.3408 -23.8428 -23.6729 -33.498 -30.9961c-9.65527 -7.33301 -20.4863 -13.334 -32.4922 -18.0039c13.9795 -3.99316 26.4736 -10.1611 37.4824 -18.5049
c11.001 -8.33887 22.1699 -19.1699 33.5068 -32.4922l577.309 -602.105l38.5791 -1.38965l26.1592 -0.899414c5.41113 -0.185547 9.52734 -0.348633 12.3486 -0.488281z" />
    <glyph glyph-name="L" unicode="L" horiz-adv-x="1165" 
d="M1010.79 263.847l9.59766 -0.00292969h39.0098v-145.666v-81.1133v-37.0625h-16.9482h-17.8291h-755.149h-168.476v39.8086c0 22.2129 13.2178 33.9766 39.6543 35.29c2.92676 0.145508 9.25781 0.354492 18.9932 0.626953s24.5273 0.732422 44.377 1.37988
c19.8506 0.648438 41.668 1.44531 65.4521 2.39062v1255.98c-23.7881 0.948242 -45.6035 1.74609 -65.4453 2.39355c-19.8408 0.647461 -34.6348 1.10645 -44.3818 1.37793c-9.74707 0.270508 -16.0781 0.478516 -18.9941 0.624023
c-26.4365 1.31934 -39.6543 13.083 -39.6543 35.291v39.8086h168.476h101.78h168.476v-39.8086c0 -22.2129 -13.2178 -33.9766 -39.6533 -35.29c-2.93262 -0.145508 -9.25977 -0.354492 -18.9814 -0.626953c-9.72168 -0.271484 -24.4854 -0.730469 -44.291 -1.37598
c-19.8057 -0.685547 -41.583 -1.47949 -65.3311 -2.38184v-1248.49h585.443c1.44238 28.5234 3.00098 52.2529 4.67578 71.1895c1.67578 18.9365 3.07715 32.5225 4.20312 40.7578s1.75586 13.7197 1.88965 16.4521c1.59863 32.2979 15.9678 48.4463 43.1074 48.4463z" />
    <glyph glyph-name="M" unicode="M" horiz-adv-x="1928" 
d="M1796.26 1339.9c-2.85156 -0.137695 -9.18555 -0.348633 -18.9912 -0.621094s-24.6035 -0.732422 -44.3936 -1.37891l-65.4512 -2.39062v-1255.99c23.8057 -0.949219 45.623 -1.74707 65.4512 -2.39355c19.8408 -0.647461 34.6318 -1.10645 44.3721 -1.37695
c9.7627 -0.272461 16.0957 -0.480469 18.999 -0.624023c26.4434 -1.31348 39.6621 -13.0771 39.6553 -35.29v-39.8076h-168.477h-89.9248h-172.923v39.8076c0 22.2129 13.2178 33.9766 39.6543 35.29c2.87012 0.142578 9.56934 0.351562 20.0977 0.626953
c10.5352 0.274414 26.0615 0.734375 46.5791 1.37988c20.5225 0.645508 42.6963 1.44141 66.5215 2.38867v1126.48c0 17.3281 1.00391 35.6631 3.0127 55.0039l-557 -988.969c-9.32715 -17.3301 -22.6582 -25.9951 -39.9922 -25.9951h-16.0059
c-16.6709 0 -30.002 8.66504 -39.9932 25.9951l-571.98 989.963c1.99805 -19.335 2.99219 -38.001 2.98242 -55.998l0.00976562 -1126.49c23.8545 -0.951172 46.043 -1.74902 66.5654 -2.39355c20.5225 -0.646484 36.0557 -1.10547 46.5996 -1.37793
c10.5439 -0.275391 17.2461 -0.483398 20.1064 -0.625c26.4365 -1.31348 39.6543 -13.0762 39.6543 -35.2891v-39.8086h-172.923h-88.9922h-168.476v39.8086c0 22.2129 13.2178 33.9756 39.6543 35.2891c2.92676 0.146484 9.25781 0.355469 18.9932 0.626953
c9.73535 0.272461 24.5273 0.732422 44.377 1.37988c19.8496 0.648438 41.667 1.44531 65.4512 2.39062v1255.98c-23.7881 0.948242 -45.6035 1.74609 -65.4453 2.39355s-34.6357 1.10645 -44.3818 1.37793c-9.74707 0.270508 -16.0781 0.478516 -18.9941 0.624023
c-26.4365 1.31934 -39.6543 13.083 -39.6543 35.291v39.8076h168.476h69.9951c9.31738 0 16.8145 -1.00391 22.4912 -3.01172c5.65234 -1.99414 11.1514 -7.32617 16.4971 -15.9951l570.986 -983.969c9.97168 -18.6162 18.6406 -38.6172 26.0059 -60.0029
c4.0293 10.752 8.19629 21.2549 12.501 31.5078c4.32422 10.3037 9.16016 20.1367 14.5088 29.5l555.975 982.975c5.33887 8.66895 10.6738 14.0039 16.0059 16.0059c5.33496 2.04102 12.665 3.04199 21.9893 3.00195h71.0098h168.476v-39.8086
c-0.00683594 -22.2119 -13.2246 -33.9746 -39.6543 -35.2881z" />
    <glyph glyph-name="N" unicode="N" horiz-adv-x="1579" 
d="M1361.46 1414.99l168.38 -0.00585938v-39.8086c-0.00585938 -22.2119 -13.2236 -33.9746 -39.6543 -35.2881c-2.89355 -0.141602 -9.22168 -0.348633 -18.9844 -0.620117s-24.5449 -0.730469 -44.3457 -1.37598c-19.8008 -0.646484 -41.6035 -1.44336 -65.4082 -2.38965
v-1335.47h-48.9893c-15.3594 0 -27.6865 6.66406 -36.9805 19.9912l-919.998 1227.97c2.00488 -20.0117 2.99902 -39.0127 2.98145 -57.002l0.00976562 -1111.47c23.8281 -0.951172 45.9941 -1.74902 66.498 -2.39355c20.5039 -0.645508 36.0254 -1.10449 46.5645 -1.37793
c10.54 -0.274414 17.2383 -0.482422 20.0947 -0.624023c26.4365 -1.31348 39.6543 -13.0771 39.6543 -35.29v-39.8086h-172.811h-88.9922h-168.476v39.8086c0 22.2139 13.2178 33.9775 39.6543 35.291c2.92676 0.145508 9.25781 0.354492 18.9932 0.626953
s24.5273 0.732422 44.377 1.37988c19.8506 0.648438 41.668 1.44531 65.4521 2.39062v1255.98c-23.7881 0.948242 -45.6035 1.74609 -65.4453 2.39355c-19.8408 0.647461 -34.6348 1.10645 -44.3818 1.37793c-9.74707 0.270508 -16.0781 0.478516 -18.9941 0.624023
c-26.4365 1.31934 -39.6543 13.083 -39.6543 35.291v39.8086h168.476h49.9941c9.32422 -0.0429688 16.6572 -1.21094 21.999 -3.50391c5.35938 -2.38184 11.0254 -7.5498 16.999 -15.5039l915.982 -1225.97c-2.03516 20.002 -3.03906 39.334 -3.01172 57.9961
l0.00976562 1107.49c-23.8291 0.948242 -46 1.74414 -66.5127 2.3877s-36.0361 1.10156 -46.5703 1.375s-17.2354 0.481445 -20.1035 0.624023c-26.4404 1.31934 -39.6582 13.082 -39.6543 35.2891v39.8086h172.841h90.0068z" />
    <glyph glyph-name="O" unicode="O" horiz-adv-x="1507" 
d="M1423 708c-0.00585938 -109.333 -16.3379 -208.501 -48.999 -297.501c-32.667 -89 -78.667 -165 -138 -228s-130.333 -111.667 -213 -146s-174.334 -51.5 -275.001 -51.5c-99.333 0 -190.333 17.167 -273 51.5s-153.667 83 -213 146s-105.5 139 -138.5 228
s-49.5 188.167 -49.5 297.5c0 108.667 16.5 207.5 49.5 296.5s79.167 165 138.5 228s130.333 111.833 213 146.5s173.667 52 273 52c100.667 0 192.334 -17.167 275 -51.5c82.667 -34.333 153.667 -83.166 213 -146.499s105.333 -139.5 138 -228.5s49 -187.833 49 -296.5z
M1317 707.999c0 98.667 -13.6689 187.335 -41.002 266.001c-27.333 78.667 -65.833 145.334 -115.5 200.001c-49.668 54.667 -109.501 96.5 -179.499 125.5c-70 29 -147.667 43.5 -233 43.5c-84 0 -160.833 -14.5 -230.5 -43.5
c-69.667 -29.002 -129.667 -70.835 -180 -125.499c-50.333 -54.668 -89.333 -121.335 -117 -200.001c-27.667 -78.667 -41.5 -167.334 -41.5 -266.001c0 -99.334 13.833 -188.167 41.5 -266.5s66.667 -144.833 117 -199.5s110.333 -96.334 180 -125.001s146.5 -43 230.5 -43
c85.333 0 163 14.333 233 43s129.833 70.334 179.5 125.001s88.167 121.167 115.5 199.5c27.3389 78.333 41.0059 167.166 41.001 266.499z" />
    <glyph glyph-name="P" unicode="P" horiz-adv-x="1186" 
d="M989.265 1306c84.3408 -72.6689 126.501 -176.339 126.484 -311.001c-0.00390625 -61.9961 -11.5107 -118.995 -34.5205 -170.997c-22.9785 -51.998 -56.1396 -96.8301 -99.4844 -134.497c-43.3105 -37.6572 -95.9717 -66.9902 -157.984 -87.999
c-61.9629 -20.9922 -131.968 -31.4883 -210.016 -31.4883h-242.272v-490.498c23.7773 -0.949219 45.5713 -1.74707 65.3818 -2.39355c19.8115 -0.648438 34.5889 -1.10742 44.332 -1.37793s16.0713 -0.478516 18.9844 -0.624023
c26.4375 -1.31348 39.6562 -13.0771 39.6553 -35.29v-39.8086h-168.354h-101.995h-168.477v39.8086c0 22.2129 13.2188 33.9766 39.6553 35.29c2.92676 0.145508 9.25781 0.354492 18.9932 0.626953c9.73438 0.272461 24.5264 0.732422 44.377 1.37988
c19.8496 0.648438 41.667 1.44531 65.4512 2.39062v1255.98c-23.7881 0.948242 -45.6035 1.74609 -65.4453 2.39355s-34.6357 1.10645 -44.3828 1.37793c-9.74609 0.270508 -16.0771 0.478516 -18.9932 0.624023c-26.4365 1.31934 -39.6553 13.083 -39.6553 35.291v39.8086
h168.477h344.299c165.996 -0.00390625 291.159 -36.335 375.489 -108.993zM986.261 858.51c18.3311 41.6523 27.499 87.1504 27.502 136.494c0 108.658 -33.4961 192.326 -100.489 251.004c-67.0137 58.6523 -166.847 87.9814 -299.5 87.9883h-242.293v-681.978h242.293
c62.6689 0 118.667 8.66504 167.994 25.9951c49.3271 17.3271 91.1611 41.3252 125.501 71.9932c34.3262 30.6582 60.6572 66.8262 78.9922 108.503z" />
    <glyph glyph-name="Q" unicode="Q" horiz-adv-x="1518" 
d="M1422 708c0 -71.334 -7.16699 -138.502 -21.5 -201.502s-34.833 -121 -61.5 -174s-59.167 -100.5 -97.5 -142.5s-81.5 -78 -129.5 -108l368 -394h-86c-13.333 0 -25.333 1.83301 -36 5.5c-10.6826 3.66699 -20.0156 10.167 -28 19.5l-302 326
c-42 -17.333 -86.333 -30.666 -133 -39.999s-96 -14 -148 -14c-99.333 0 -190.333 17.167 -273 51.5s-153.667 83 -213 146s-105.5 139 -138.5 228s-49.5 188.167 -49.5 297.5c0 108.667 16.5 207.5 49.5 296.5s79.167 165 138.5 228s130.333 111.833 213 146.5
s173.667 52 273 52c100.667 0 192.334 -17.167 275 -51.5c82.667 -34.333 153.667 -83.166 213 -146.499s105.333 -139.5 138 -228.5s49 -187.833 49 -296.5zM1316 707.999c0 98.667 -13.668 187.335 -41.001 266.001c-27.333 78.667 -65.833 145.334 -115.5 200.001
c-49.668 54.667 -109.501 96.5 -179.499 125.5c-70.001 29 -147.668 43.5 -233.001 43.5c-84 0 -160.833 -14.5 -230.5 -43.5c-69.667 -29.002 -129.667 -70.835 -180 -125.499c-50.333 -54.668 -89.333 -121.335 -117 -200.001
c-27.667 -78.667 -41.5 -167.334 -41.5 -266.001c0 -99.334 13.833 -188.167 41.5 -266.5s66.667 -144.833 117 -199.5s110.333 -96.334 180 -125.001s146.5 -43 230.5 -43c85.333 0 163 14.333 233 43s129.833 70.334 179.5 125.001s88.167 121.167 115.5 199.5
c27.3389 78.333 41.0059 167.166 41.001 266.499z" />
    <glyph glyph-name="R" unicode="R" horiz-adv-x="1353" 
d="M1241.15 75.1436c26.4297 -1.31348 39.6416 -13.085 39.6416 -35.3047v-39.8086h-52.6982h-78.6953h-10.3076c-10.6904 0 -19.8574 1.99805 -27.501 5.99512c-7.69043 4.00879 -15.1914 10.6758 -22.502 20.001l-452.985 573.999
c-11.375 14.6865 -23.541 25.0146 -36.499 30.9854c-12.9785 5.99805 -33.1436 8.99707 -60.4961 8.99707h-167.625v-560.493c23.7256 -0.946289 45.4785 -1.74219 65.2588 -2.3877s34.5332 -1.10352 44.2588 -1.37402s16.0469 -0.478516 18.9648 -0.624023
c26.4375 -1.31348 39.6562 -13.0771 39.6553 -35.29v-39.8086h-168.138h-102.006h-168.477v39.8086c0 22.2129 13.2188 33.9766 39.6553 35.29c2.92676 0.145508 9.25781 0.354492 18.9932 0.626953s24.5283 0.732422 44.3789 1.37988
c19.8496 0.648438 41.667 1.44531 65.4512 2.39062v1255.98c-23.7881 0.948242 -45.6035 1.74609 -65.4453 2.39355s-34.6357 1.10645 -44.3828 1.37793c-9.74609 0.270508 -16.0771 0.478516 -18.9932 0.624023c-26.4365 1.31934 -39.6553 13.083 -39.6553 35.291v39.8086
h168.477h343.622c163.332 -0.00390625 285.329 -31.502 365.991 -94.4951c80.6533 -63.0068 120.987 -155.507 121.002 -277.5c-0.0078125 -53.9746 -9.33887 -103.306 -27.9932 -147.993c-18.6748 -44.6875 -45.501 -83.8535 -80.4775 -117.499
c-35.0088 -33.6807 -77.1807 -61.3467 -126.516 -82.998c-49.377 -21.6846 -105.04 -35.8486 -166.99 -42.4932c15.9893 -10.0029 30.3174 -23.3369 42.9844 -40.0029l425.35 -534.498c12.3008 -0.422852 24.248 -0.806641 35.8418 -1.15137l26.1953 -0.775391
c5.86426 -0.173828 10.085 -0.323242 12.6621 -0.448242zM600.104 716.018c62.6592 0 118.821 7.49609 168.486 22.4902c49.6494 14.9863 91.6504 36.4844 126.003 64.4932c34.3516 28.0322 60.5186 61.6992 78.501 101.001c18.0029 39.3281 27.0029 83.6592 27 132.993
c-0.000976562 100.653 -32.999 175.32 -98.9932 224.002c-65.999 48.6641 -161.997 72.9971 -287.993 72.998h-241.627v-617.978h228.623z" />
    <glyph glyph-name="S" unicode="S" horiz-adv-x="1028" 
d="M917.381 558.523c20.3604 -38.9883 30.5469 -87.4834 30.5566 -145.483c-0.0136719 -59.3076 -10.1885 -115.139 -30.5244 -167.492c-20.3506 -52.3506 -49.8506 -97.8525 -88.501 -136.506c-38.6748 -38.6748 -86.0078 -69.1729 -141.999 -91.4941
c-55.998 -22.3271 -119.995 -33.4961 -191.992 -33.5068c-131.339 0 -258.312 25.668 -380.921 77.0039v27.4717v24.8076v265.45h48.6201c27.1299 0 41.499 -16.1484 43.1074 -48.4453l1.77832 -36.457l3.93945 -80.7998l4.36523 -88.998
c76.6758 -36.6895 170.549 -55.0342 281.62 -55.0342c56.1006 0 106.173 8.50098 150.216 25.5039c44.0781 16.999 81.2939 40.1631 111.647 69.4922c30.3721 29.3154 53.5703 64.1475 69.5947 104.496c16.0156 40.3311 24.0254 83.4971 24.0283 129.498
c-0.00292969 49.9902 -10.1885 91.1543 -30.5557 123.493c-20.3682 32.3291 -47.2344 59.3291 -80.5996 81c-33.3633 21.6475 -71.2451 39.8115 -113.646 54.4922c-43.1387 14.9053 -86.7002 29.2373 -130.686 42.9951c-44.833 14.041 -88.3916 29.708 -130.676 47.001
c-42.3809 17.3203 -80.2666 39.4873 -113.656 66.501c-33.4072 27 -60.2842 60.6641 -80.6309 100.991c-20.3496 40.3311 -30.5244 90.8301 -30.5244 151.497c0 47.3301 9.01367 92.9961 27.041 136.998c18.0303 43.9922 44.3984 82.8232 79.1045 116.494
c34.7266 33.6602 77.6221 60.6602 128.688 81c51.0693 20.335 109.318 30.5029 174.747 30.5049c117.185 0 239.001 -27.335 365.449 -82.0049v-290.258h-48.6104c-27.1416 0 -41.5107 16.1484 -43.1084 48.4463l-9.31348 188.006
c-80.5459 33.876 -168.538 50.8135 -263.976 50.8135c-51.499 0 -96.8096 -7.33301 -135.932 -21.999c-39.1318 -14.6631 -71.9072 -34.6611 -98.3271 -59.9941c-26.4287 -25.3438 -46.4912 -54.6768 -60.1875 -87.999
c-13.7109 -33.3184 -20.5664 -68.3174 -20.5664 -104.997c0 -48.0195 10.1748 -87.6846 30.5254 -118.995c20.3496 -31.3281 47.2227 -57.9932 80.6201 -79.9951c33.3672 -21.9932 71.2529 -40.499 113.656 -55.5176l130.676 -44.4912
c44.7236 -14.6748 88.2822 -30.8408 130.676 -48.4971c42.373 -17.6592 80.2656 -39.8262 113.677 -66.501c33.3711 -26.6689 60.2373 -59.499 80.5996 -98.4912z" />
    <glyph glyph-name="T" unicode="T" horiz-adv-x="1246" 
d="M1173.51 1414.99l14.5469 -0.00195312v-293.506h-48.6104c-27.1396 0 -41.5088 16.1484 -43.1074 48.4463l-7.82812 158.065h-411.958v-1248.48c23.8018 -0.949219 45.6162 -1.74707 65.4443 -2.39355c19.8301 -0.648438 34.6191 -1.10742 44.3682 -1.37793
c9.75 -0.270508 16.083 -0.478516 18.999 -0.624023c26.4434 -1.31348 39.665 -13.0771 39.665 -35.29v-39.8086h-168.477h-101.934h-168.486v39.8086c0 22.2129 13.2178 33.9766 39.6543 35.29c2.92676 0.145508 9.25586 0.354492 18.9873 0.626953
c9.73242 0.272461 24.5166 0.732422 44.3535 1.37988c19.8369 0.648438 41.6406 1.44531 65.4111 2.39062v1248.48h-413.977l-7.83691 -158.065c-1.60938 -32.3018 -15.9785 -48.4502 -43.1084 -48.4463h-48.6201v293.506h13.5459h28.875h1042.19h27.9023z" />
    <glyph glyph-name="U" unicode="U" horiz-adv-x="1503" 
d="M1287.46 1414.95l168.468 0.0107422v-39.8086c0 -22.2119 -13.2188 -33.9746 -39.6553 -35.2881c-2.94727 -0.145508 -9.27832 -0.354492 -18.9922 -0.626953c-9.74023 -0.272461 -24.5322 -0.732422 -44.377 -1.37988
c-19.8525 -0.6875 -41.6699 -1.4834 -65.4512 -2.3877v-795.501c-0.00488281 -77.998 -12.335 -150.828 -36.9912 -218.49c-24.6865 -67.6592 -60.1875 -126.656 -106.504 -176.991c-46.335 -50.3418 -102.668 -89.8389 -168.998 -118.492
c-66.3477 -28.6602 -140.845 -42.9922 -223.491 -42.9951c-82.6807 0 -157.181 14.332 -223.5 42.9951c-66.3369 28.6494 -122.67 68.1465 -168.999 118.491c-46.3457 50.332 -81.8467 109.329 -106.504 176.991c-24.6641 67.6484 -36.9902 140.479 -36.9795 218.49
l-0.0107422 795.49c-23.7881 0.989258 -45.6035 1.78711 -65.4453 2.39355c-19.8418 0.646484 -34.6357 1.10547 -44.3818 1.37695c-9.74707 0.311523 -16.0781 0.519531 -18.9941 0.624023c-26.4365 1.31348 -39.6543 13.0762 -39.6543 35.2891v39.8086h168.476h102.887
h193.755v-39.8086c0 -22.2178 -13.2178 -33.9805 -39.6533 -35.2881c-2.69824 -0.173828 -11.124 -0.379883 -25.2764 -0.619141c-14.1533 -0.321289 -33.1572 -0.78125 -57.0107 -1.37988c-23.8545 -0.639648 -47.7549 -1.43555 -71.7002 -2.3877v-794.487
c0 -66.0186 9.83301 -127.519 29.5 -184.501c19.6396 -56.9541 47.9717 -106.456 84.9961 -148.506c36.9971 -41.9902 82.3281 -74.9883 135.993 -98.9932c53.6611 -23.9971 114.495 -35.9961 182.502 -35.9961c67.9971 0 128.828 11.8311 182.493 35.4941
c53.627 23.6387 99.1221 56.4727 136.485 98.502c37.335 41.9912 65.8379 91.4893 85.5088 148.494c19.667 57.042 29.5 118.543 29.5 184.502v795.491c-23.9189 0.952148 -47.8066 1.74707 -71.6621 2.38574c-23.8564 0.678711 -42.8467 1.1377 -56.9707 1.37598
c-14.1279 0.280273 -22.5518 0.488281 -25.2725 0.624023c-26.4297 1.31348 -39.6445 13.0762 -39.6445 35.2891v39.8086h193.55h102.006z" />
    <glyph glyph-name="V" unicode="V" horiz-adv-x="1527" 
d="M1392.4 1414.96l84.2363 -0.00292969v-39.8086c-0.00488281 -22.2129 -13.2227 -33.9766 -39.6533 -35.29c-2.24902 -0.111328 -6.69629 -0.388672 -13.3418 -0.832031c-6.64551 -0.442383 -15.374 -0.960938 -26.1855 -1.55566
c-10.8105 -0.594727 -23.4053 -1.19531 -37.7832 -1.80176l-551.261 -1335.68h-90.9902l-551.262 1335.67c-14.4141 0.650391 -27.0459 1.25391 -37.8965 1.81055l-26.25 1.55859c-6.64941 0.442383 -11.1025 0.719727 -13.3594 0.832031
c-26.4365 1.31934 -39.6543 13.083 -39.6543 35.291v39.8086h84.2373h81.1953h213.95v-39.8086c0 -22.2129 -13.2178 -33.9766 -39.6533 -35.29c-3.10449 -0.154297 -8.55762 -0.359375 -16.3584 -0.614258l-38.5869 -1.33203
c-17.9248 -0.632812 -38.2129 -1.39844 -60.8643 -2.2959l460.496 -1121.63c12.6758 -30.7148 23.0078 -63.3779 30.9961 -97.9893c7.33691 35.9863 17.0029 68.6494 28.998 97.9893l459.532 1121.62c-22.7334 0.902344 -43.0674 1.66992 -61.002 2.30273
c-17.9346 0.633789 -30.8154 1.07812 -38.6426 1.33398c-7.85059 0.256836 -13.3135 0.461914 -16.3887 0.615234c-26.4365 1.31934 -39.6543 13.083 -39.6543 35.291v39.8086h210.907h4.24219h79.9961z" />
    <glyph glyph-name="W" unicode="W" horiz-adv-x="2206" 
d="M2072.45 1414.98l84.2627 -0.0107422v-39.8076c-0.0078125 -22.2129 -13.2256 -33.9766 -39.6543 -35.29c-2.40039 -0.116211 -6.58203 -0.373047 -12.5439 -0.770508c-6.00781 -0.397461 -13.8672 -0.871094 -23.5771 -1.4209
c-9.72559 -0.549805 -20.877 -1.10254 -33.4541 -1.6582l-420.165 -1336h-92.0049l-417.993 1227.96c-5.30469 15.876 -9.9707 32.8789 -13.998 51.0088c-3.98047 -17.9424 -8.64648 -34.9414 -13.998 -50.9971l-418.986 -1227.97h-91.001l-421.107 1336
c-12.5928 0.594727 -23.7393 1.14551 -33.4385 1.65137c-9.69922 0.546875 -17.5713 1.02148 -23.6152 1.4248c-6.04395 0.402344 -10.2178 0.661133 -12.5215 0.776367c-26.4365 1.31934 -39.6543 13.083 -39.6543 35.291v39.8076h84.2373h84.2383h210.897v-39.8076
c0 -22.2129 -13.2188 -33.9766 -39.6553 -35.29c-3.10645 -0.15332 -8.60449 -0.359375 -16.4932 -0.618164c-7.88965 -0.258789 -20.9072 -0.708984 -39.0537 -1.35059c-18.1465 -0.642578 -38.7324 -1.4209 -61.7568 -2.33398l340.907 -1110.58
c4.00293 -13.374 7.5 -27.7021 10.4912 -42.9844l9.49902 -48.0059l10.0107 48.0059c3.30859 15.2783 7.30859 29.6035 11.999 42.9756l399.989 1162.99c2.6543 7.31934 7.32031 13.6523 13.9971 18.999c6.67383 5.33496 14.6729 8.00195 23.9971 8.00195h27.9932
c9.33105 0 16.999 -2.5 23.0039 -7.5c5.98242 -4.97852 10.6484 -11.4746 13.9971 -19.4893l399.979 -1162.98c4.69922 -13.4082 8.86914 -27.4053 12.5098 -41.9912c3.66992 -14.6729 7.16797 -30.3398 10.4932 -47.001c3.33594 15.9082 6.32812 31.4082 8.97559 46.5
c2.68262 15.0059 6.03027 29.167 10.043 42.4824l340.866 1110.48c-23.6855 0.944336 -45.0332 1.74219 -64.042 2.39355s-32.8672 1.11035 -41.5742 1.37695s-14.5703 0.474609 -17.5898 0.625c-26.4424 1.31934 -39.6602 13.083 -39.6543 35.291v39.8076h210.907h6.07617
h78.1611z" />
    <glyph glyph-name="X" unicode="X" horiz-adv-x="1464" 
d="M1336.34 75.1201c26.4434 -1.31348 39.6621 -13.084 39.6621 -35.2969v-39.8086h-58.1602h-30.5967h-70.4053h-9.32422h-215.416v39.8086c0 22.2129 13.2217 33.9766 39.665 35.29c3.4043 0.170898 8.4541 0.378906 15.1494 0.623047l36.8701 1.36621l60.8281 2.34473
l-408.75 597.546c-2.67773 -9.99707 -7.34375 -19.6631 -13.9971 -28.998l-399.815 -568.681l0.328125 0.194336c23.7041 -0.945312 45.0537 -1.74316 64.0488 -2.39355c18.9951 -0.651367 32.8486 -1.11035 41.5605 -1.37598
c8.71191 -0.267578 14.5771 -0.475586 17.5967 -0.625c26.4365 -1.31348 39.6543 -13.0771 39.6543 -35.29v-39.8086h-227.753h-10.6152h-56.7871h-36.2119h-64.8721v39.8086c0 22.2129 13.2188 33.9766 39.6553 35.29c2.15723 0.108398 6.72266 0.395508 13.6973 0.861328
s16.1348 1.00684 27.4795 1.62305s24.6631 1.24023 39.9551 1.87207l455.065 646.535l-431.713 609.533c-15.252 0.631836 -28.5537 1.25684 -39.9062 1.875c-11.3516 0.617188 -20.4805 1.15527 -27.3857 1.61523s-11.4746 0.745117 -13.708 0.855469
c-26.4365 1.31934 -39.6553 13.083 -39.6553 35.291v39.8086h64.3906h28.8447h72.1465h3.09473h219.894v-39.8086c0 -22.2129 -13.2178 -33.9766 -39.6533 -35.29c-3.32324 -0.163086 -8.32324 -0.366211 -15 -0.609375
c-6.67578 -0.28418 -18.6611 -0.728516 -35.9561 -1.33301l-59.2373 -2.29004l388.831 -560.657c2.09082 5.55078 4.25977 10.7188 6.50684 15.5039c2.3252 5.00684 5.16016 10.1748 8.50391 15.5029l373.881 529.733l-64.4502 2.14746
c-19.0107 0.651367 -32.8691 1.11035 -41.5742 1.37695c-8.70703 0.266602 -14.5703 0.474609 -17.5898 0.625c-26.4385 1.31934 -39.6572 13.083 -39.6553 35.291v39.8086h227.62h6.7627h60.7627h37.2266h63.7344v-39.8086
c-0.00488281 -22.2129 -13.2227 -33.9766 -39.6543 -35.29c-2.23926 -0.109375 -6.80371 -0.394531 -13.6924 -0.854492c-6.90723 -0.459961 -16.0273 -0.998047 -27.3604 -1.61426c-11.333 -0.615234 -24.6045 -1.2373 -39.8145 -1.86523l-432.195 -604.544
l453.897 -651.853c13.5303 -0.584961 25.4307 -1.16309 35.7021 -1.73438c10.2715 -0.573242 18.5898 -1.07129 24.9561 -1.49512c6.36621 -0.425781 10.6777 -0.694336 12.9346 -0.806641z" />
    <glyph glyph-name="Y" unicode="Y" horiz-adv-x="1375" 
d="M1261.61 1414.98l63.6221 0.00683594v-39.8086c0 -22.2178 -13.2217 -33.9805 -39.665 -35.2881c-33.3398 -1.67578 -57.8057 -2.83008 -73.3965 -3.46289l-473.54 -752.424v-504.506c23.7568 -0.946289 45.5381 -1.74219 65.3428 -2.38672
c19.8037 -0.645508 34.5713 -1.10352 44.3027 -1.37402c9.73438 -0.270508 16.0605 -0.478516 18.9795 -0.624023c26.4365 -1.31348 39.6553 -13.0762 39.6553 -35.2891v-39.8086h-168.281h-102.724h-168.476v39.8086c0 22.2129 13.2188 33.9756 39.6553 35.2891
c2.93164 0.146484 9.25391 0.355469 18.9658 0.626953c9.71289 0.272461 24.4736 0.731445 44.2832 1.37695c19.8086 0.645508 41.5732 1.43945 65.2939 2.38184v504.495l-473.52 752.384c-14.5381 0.628906 -39.0244 1.79688 -73.458 3.50391
c-26.4365 1.31934 -39.6553 13.083 -39.6553 35.291v39.8076h63.6426h10.3486h78.6436h15.8418h200.66v-39.8076c0 -22.2129 -13.2178 -33.9766 -39.6533 -35.29c-3.0459 -0.151367 -8.13184 -0.344727 -15.2578 -0.580078
c-7.12695 -0.276367 -18.7539 -0.675781 -34.8809 -1.19824l-54.1406 -2.01367l371.421 -596.091c9.39844 -15.4678 17.3975 -30.3018 23.998 -44.502c6.64258 -14.2979 12.6475 -28.7969 18.0137 -43.4971c5.34082 14.6992 11.3418 29.1982 18.0039 43.4971
c6.66211 14.3428 14.6582 29.1768 23.9873 44.501l370.499 596.091c-19.9932 0.780273 -38.0625 1.45117 -54.208 2.01367l-34.916 1.19824c-7.13086 0.235352 -12.2207 0.428711 -15.2695 0.580078c-26.4297 1.31934 -39.6445 13.083 -39.6445 35.291v39.8076h200.65
h14.8682h79.627h10.3799z" />
    <glyph glyph-name="Z" unicode="Z" horiz-adv-x="1267" 
d="M1150.97 1379.96c0 -14.0107 -4.67285 -27.6787 -14.0176 -40.999l-897.957 -1253.97h799.025c1.45508 29.3467 3.22559 56.9082 5.3125 82.6846c2.10156 25.7754 3.91211 46.042 5.43262 60.7998c1.56934 14.7588 2.4043 23.4961 2.50391 26.2119
c1.59766 32.291 15.9668 48.4365 43.1084 48.4365h48.6094v-303.128h-0.0195312h-1039.97v37.001c0 12.6553 3.99609 24.6543 11.9883 35.9971l899.997 1256.97h-781.094c-1.45508 -29.3477 -3.22559 -56.9092 -5.31152 -82.6836s-3.89746 -46.041 -5.43457 -60.7988
c-1.53809 -14.7578 -2.37207 -23.4922 -2.50293 -26.2031c-1.60938 -32.3037 -15.9785 -48.4521 -43.1084 -48.4463h-48.6201v303.128h0.0820312h1021.97v-35.0029z" />
    <glyph glyph-name="bracketleft" unicode="[" horiz-adv-x="539" 
d="M170 -264v1781h318v-36c-0.00195312 -8.66699 -2.83496 -15.667 -8.5 -21c-5.66699 -5.33301 -13.167 -8 -22.5 -8h-206v-1651h206c9.33301 0 16.833 -2.66699 22.5 -8.00098c5.66699 -5.33301 8.5 -12.333 8.5 -21v-36h-318z" />
    <glyph glyph-name="backslash" unicode="\" horiz-adv-x="829" 
d="M65 1455l41 0.000976562c26 -0.00585938 44 -12.3389 54 -37l622 -1502h-39c-11.333 0 -22.333 3.16699 -33 9.5s-18.667 16.166 -24 29.499z" />
    <glyph glyph-name="bracketright" unicode="]" horiz-adv-x="536" 
d="M50 -228c0 8.66699 2.66699 15.666 8 20.999s12.666 8 21.999 8h206v1651h-206c-9.33301 0.0224609 -16.666 2.68945 -21.999 8.00098c-5.33301 5.33301 -8 12.333 -8 21v36h317v-1781h-317v36z" />
    <glyph glyph-name="asciicircum" unicode="^" horiz-adv-x="910" 
d="M425 1415h60l341 -615h-68c-7.33301 0 -13.833 2.16699 -19.5 6.5s-10.167 9.83301 -13.5 16.5l-241 436c-6 11.3379 -11.333 22.0049 -16 32c-4.66699 10 -8.66699 20.333 -12 31c-3.33594 -10.667 -7.16895 -21.167 -11.5 -31.5
c-4.33789 -10.333 -9.50488 -20.833 -15.501 -31.5l-240 -436c-3.33301 -5.34277 -7.66602 -10.5098 -12.999 -15.5c-5.33301 -5 -12.333 -7.5 -21 -7.5h-71z" />
    <glyph glyph-name="underscore" unicode="_" horiz-adv-x="1141" 
d="M963 -205v-68h-788v68h788z" />
    <glyph glyph-name="grave" unicode="`" horiz-adv-x="543" 
d="M209 1431c16 -0.0439453 28 -2.37695 36 -7c8 -4.67773 15.667 -13.0107 23 -25l157 -238h-54c-8.00098 0.0351562 -14.834 1.20215 -20.5 3.5c-5.66699 2.33301 -11.167 6.83301 -16.5 13.5l-217 253h92z" />
    <glyph glyph-name="a" unicode="a" horiz-adv-x="1026" 
d="M900.28 75.1133c26.4385 -1.31348 39.6523 -13.0703 39.6436 -35.2764v-39.8086h-131.946h-36.5195h-1.48535c-20.0107 0 -32.3408 9.33105 -36.9902 27.9941l-13.9971 127.007c-27.4072 -26.7285 -54.5742 -50.7266 -81.502 -71.9932
c-27.001 -21.3506 -55.166 -39.3535 -84.4951 -54.0098c-29.3369 -14.6729 -61.0029 -25.8418 -94.998 -33.5068c-34.0439 -7.66504 -71.376 -11.4971 -111.996 -11.4971c-34.0381 0 -67.0361 5.00098 -98.9932 15.002c-32.0537 10.0166 -60.3896 25.3486 -85.0068 45.9961
c-24.6553 20.6416 -44.4893 47.1396 -59.5029 79.4941c-14.9941 32.3135 -22.4912 71.1455 -22.4912 116.495c0 41.9971 11.999 80.999 35.9971 117.006c23.9971 35.9863 61.5 67.3203 112.508 94.0029c51.0439 26.665 116.712 47.9951 197.003 63.9902
c80.2852 15.9873 176.778 25.3184 289.479 27.9932l0.00976562 103.993c0 92.0049 -19.834 162.837 -59.502 212.496c-39.6748 49.665 -98.5078 74.5 -176.499 74.5039c-48.0059 -0.00390625 -88.8389 -6.6748 -122.499 -20.0127
c-33.7686 -13.3838 -62.2676 -28.0469 -85.4971 -43.9893c-23.2959 -15.9678 -42.2969 -30.6309 -57.002 -43.9893c-14.6553 -13.3438 -26.9893 -20.0146 -37.001 -20.0117c-13.3418 0.00292969 -23.3428 6.00391 -30.0029 18.0029l-16.9893 28.998
c51.9854 51.9961 106.648 91.3291 163.989 118c57.3193 26.6621 122.317 39.9971 194.994 40.0039c53.3311 0 99.998 -8.50488 140 -25.5146c39.9756 -16.9854 73.1338 -41.3145 99.4746 -72.9873c26.3281 -31.6465 46.1689 -69.9795 59.5234 -114.998
c13.3369 -45.0039 20.0078 -95.1719 20.0117 -150.504l-0.00976562 -569.879c15.9473 -0.579102 31.0527 -1.08691 45.3164 -1.52344l32.1211 -0.963867c7.15625 -0.207031 12.1074 -0.37793 14.8545 -0.513672zM714.989 221.008v258.996
c-94.6699 -2.68555 -176.169 -9.85449 -244.497 -21.5078c-68.3838 -11.6895 -124.71 -27.5244 -168.979 -47.5039c-44.3096 -19.9854 -76.9756 -43.8193 -97.998 -71.501c-21.0059 -27.6768 -31.5049 -59.1748 -31.498 -94.4951
c0 -33.3574 5.49902 -62.1914 16.4971 -86.502c10.999 -24.3467 25.498 -44.3418 43.4971 -59.9844c17.9775 -15.6729 38.9727 -27.1699 62.9863 -34.4912c23.9639 -7.34277 48.9658 -11.0146 75.0059 -11.0146c38.6543 0 74.1523 4.16992 106.494 12.5107
c32.3057 8.31348 62.3076 19.9775 90.0068 34.9922c27.6709 15.0127 53.499 32.8486 77.4844 53.5078c23.998 20.6572 47.665 42.9883 71 66.9932z" />
    <glyph glyph-name="b" unicode="b" horiz-adv-x="1094" 
d="M917.943 884.517c68.3252 -84.3408 102.49 -211.172 102.497 -380.491c0 -72.6689 -9.51562 -140.502 -28.5479 -203.499c-19.0283 -62.9971 -47.0635 -117.659 -84.1055 -163.987c-37.0254 -46.3359 -82.418 -82.8379 -136.178 -109.507
c-53.7471 -26.6611 -115.657 -39.9922 -185.73 -39.9922c-89.9082 0 -222.695 18.666 -398.36 55.998l-0.0107422 50.8643l-0.0410156 1281.91l-48.7637 1.90527l-30.3193 1.14844c-5.80957 0.253906 -10.835 0.443359 -15.0771 0.568359
c-4.24219 0.166992 -7.79297 0.322266 -10.6514 0.46582c-26.4365 1.31738 -39.6553 13.0811 -39.6553 35.291v39.8076h144.468h94.9971l1.00488 -633.982c44.0166 58.6768 95.0146 105.009 152.994 138.996c57.9961 34.001 123.325 51 195.987 50.998
c121.997 0 217.161 -42.165 285.492 -126.495zM899.898 324.534c15.0322 54.3281 22.5449 114.161 22.5342 179.501c0.00683594 148.003 -27.3623 256.833 -82.1074 326.49c-54.7588 69.6582 -133.218 104.49 -235.377 104.496c-66.1113 0 -125.87 -16.999 -179.275 -50.998
c-53.3857 -33.9746 -101.125 -81.3076 -143.218 -141.998v-637.108c138.658 -28.5811 233.806 -42.8721 285.441 -42.8721c58.7754 0 110.187 10.6631 154.233 31.9902c44.0615 21.334 80.9492 51.5 110.664 90.499c29.6943 38.9785 52.0625 85.6455 67.1045 140z" />
    <glyph glyph-name="c" unicode="c" horiz-adv-x="918" 
d="M818.97 160.001l26.0068 -31.998c-15.3496 -20.0117 -34.6816 -38.6807 -57.9961 -56.0078c-23.3418 -17.3477 -49.6758 -32.3486 -79.002 -45.0039c-29.3066 -12.6514 -61.1328 -22.4844 -95.4785 -29.499c-34.3506 -6.99902 -70.1865 -10.4971 -107.508 -10.4941
c-63.3447 0 -121.177 11.5 -173.496 34.501c-52.3506 22.9932 -97.3506 56.3252 -135 99.9961c-37.6768 43.6514 -67.0098 97.1494 -87.999 160.494c-21.0049 63.3242 -31.5039 135.32 -31.4971 215.989c0 76 10.001 145.333 30.002 207.998
c19.9863 62.6523 49.1484 116.652 87.4863 162c38.3291 45.3311 85.3311 80.4971 141.005 105.498c55.6494 25.0049 119.479 37.5059 191.49 37.5039c23.1494 0 57.9629 -5.19824 104.44 -15.5957c46.4785 -10.3975 87.168 -20.7949 122.069 -31.1924l52.3535 -15.5957
v-250.838h-48.6104c-27.1299 0.00195312 -41.499 16.1504 -43.1074 48.4463c-0.136719 2.81738 -0.907227 10.9775 -2.3125 24.4795c-1.41699 13.502 -3.10742 32.0801 -5.07227 55.7344c-1.97559 23.6543 -3.68457 48.8125 -5.12695 75.4736
c-63.502 22.7285 -120.047 34.0918 -169.634 34.0898c-57.3408 -0.00488281 -108.175 -10.1699 -152.502 -30.4941c-44.3545 -20.3574 -81.6836 -49.5225 -111.986 -87.4961c-30.3467 -37.9951 -53.5146 -83.9922 -69.5029 -137.992
c-16.0059 -54 -24.0088 -114.667 -24.0088 -182.002c0 -70.04 8.16992 -132.032 24.5098 -185.977c16.3232 -54.0068 39.4873 -99.5088 69.4932 -136.506c30.0059 -37.0049 66.3369 -65.1729 108.994 -84.5039c42.626 -19.3252 89.959 -28.9883 141.998 -28.9883
c48.0049 0 88.1719 5.66309 120.501 16.9893c32.3525 11.3311 59.0244 23.665 80.0156 37.002c20.9365 13.2861 37.5977 25.623 49.9824 37.0107c12.3281 11.3154 22.1621 16.9746 29.501 16.9775c8.65332 0 15.3174 -3.33301 19.9912 -10z" />
    <glyph glyph-name="d" unicode="d" horiz-adv-x="1121" 
d="M1042.87 39.9131l0.00488281 -9.49121l-0.0205078 -30.3057h-133.894l-52.3604 -0.0615234c-16.4707 0 -26.0176 8.66504 -28.6396 25.9961l-10.042 156.999c-44.0811 -60.0361 -95.6523 -107.7 -154.714 -142.992c-59.0586 -35.3408 -125.3 -53.0098 -198.725 -53.0059
c-122.141 0 -217.428 42.332 -285.861 126.997c-68.417 84.6582 -102.624 211.655 -102.621 380.992c0 72.6729 9.50879 140.502 28.5273 203.488c19.0195 62.9912 47.0576 117.657 84.1143 163.998c37.0674 46.3379 82.4668 82.8369 136.198 109.496
c53.7334 26.6621 115.647 39.9971 185.741 40.0039c67.3828 0 125.789 -12.501 175.219 -37.5029c49.3818 -24.9951 92.1104 -61.4941 128.186 -109.496v510.797l-48.6855 1.90137l-30.3311 1.14648l-15.0293 0.56543c-4.2627 0.209961 -7.81836 0.365234 -10.667 0.464844
c-26.4365 1.31934 -39.6543 13.082 -39.6543 35.2891v39.8086h144.365h94.9971v-1376.13l43.1045 -1.68164l27.1611 -1.02441l13.8926 -0.523438c3.98828 -0.158203 7.34766 -0.304688 10.0791 -0.439453c26.4365 -1.31348 39.6543 -13.0771 39.6543 -35.29z
M813.986 257.041l-0.00878906 525c-38.75 56.665 -81.3184 96.668 -127.704 120.009c-46.4219 23.3213 -99.0049 34.9824 -157.749 34.9824c-58.7549 -0.00390625 -110.166 -10.6709 -154.233 -32.001c-44.0996 -21.3584 -80.9873 -51.5244 -110.663 -90.499
c-29.6963 -38.9746 -52.0645 -85.6416 -67.1055 -140.001c-15.0215 -54.3018 -22.5322 -114.132 -22.5322 -179.491c0 -148 27.376 -256.833 82.127 -326.5c54.748 -69.667 133.203 -104.495 235.366 -104.484c66.1016 0 125.863 16.999 179.285 50.9971
c53.4326 34.0225 101.172 81.3516 143.218 141.988z" />
    <glyph glyph-name="e" unicode="e" horiz-adv-x="994" 
d="M526 1011c56 -0.00585938 107.839 -9.6748 155.505 -29.002c47.668 -19.334 89.001 -47.501 124 -84.5c35.001 -37 62.334 -82.5 82 -136.5c19.6699 -54 29.5029 -116 29.499 -186c-0.0136719 -14.667 -2.18066 -24.667 -6.5 -30
c-4.33691 -5.33789 -11.1699 -8.00488 -20.5 -8.00098h-719v-19c0 -74.667 8.66699 -140.334 26 -197.001s42 -104.167 74 -142.5s70.667 -67.166 116 -86.499s96 -29 152 -29c50 0 93.333 5.5 129.999 16.5c36.667 11 67.5 23.333 92.499 37
c25.002 13.667 44.835 26 59.5 37c14.6699 11 25.3369 16.5 32 16.5c8.66992 0 15.3369 -3.33301 20 -10l26 -32c-16.002 -20 -37.1689 -38.667 -63.501 -56c-26.334 -17.333 -55.667 -32.166 -88 -44.499c-32.334 -12.333 -67.001 -22.166 -104 -29.499
c-37.001 -7.33301 -74.168 -11 -111.501 -11c-68 0 -130 11.833 -186 35.5s-104 58.167 -144 103.5s-70.833 100.833 -92.5 166.5s-32.5 140.834 -32.5 225.501c0 71.333 10.167 137.166 30.5 197.499s49.666 112.333 87.999 156c38.333 43.668 85.333 77.835 141 102.501
c55.667 24.6689 118.834 37.002 189.501 37zM527.006 939.998c-51.333 0 -97.3311 -7.99707 -137.998 -23.9971s-75.834 -39 -105.501 -69s-53.667 -66 -72 -108s-30.5 -89 -36.5 -141h656c0 53.333 -7.33301 101.166 -22 143.499s-35.334 78.166 -62.001 107.499
s-58.667 51.833 -96 67.5c-37.335 15.6699 -78.668 23.5029 -124 23.499z" />
    <glyph glyph-name="f" unicode="f" horiz-adv-x="766" 
d="M368.494 1213.48c-11.0078 -34.3896 -16.5068 -76.5566 -16.4971 -126.497v-123.002h322.996v-70.9883h-320.998v-813.494c23.7529 -0.946289 45.5283 -1.74219 65.3271 -2.3877s34.5625 -1.10352 44.292 -1.37402
c9.73047 -0.270508 16.0566 -0.478516 18.9775 -0.624023c26.4365 -1.31348 39.6543 -13.0771 39.6543 -35.29v-39.8076h-168.251h-91.666h-168.486v39.8076c0 22.2129 13.2178 33.9766 39.6543 35.29c2.90918 0.144531 9.12695 0.349609 18.6543 0.615234
c9.52832 0.265625 23.9521 0.711914 43.2715 1.33789c19.3193 0.626953 40.5117 1.39648 63.5762 2.30957v811.619l-140.001 8.99609c-19.332 1.32422 -28.998 9.65527 -28.998 24.9922v38.998h169.009v126.004c0 56.6904 7.33301 106.523 21.999 149.499
c14.6416 42.9746 35.3086 78.8076 62.002 107.498c26.667 28.668 58.8311 50.165 96.4932 64.4922c37.6465 14.3457 79.1455 21.5146 124.497 21.5068c20.5996 0 41.4316 -1.83398 62.4961 -5.50195c20.9756 -3.69531 39.4775 -8.85938 55.5059 -15.4922l-3.00195 -46.0078
c-0.677734 -9.33789 -7.01074 -14.0068 -18.998 -14.0068c-8.00879 0 -18.8428 1.00391 -32.502 3.0127c-13.6797 1.99121 -30.5146 2.99219 -50.5059 3.00293c-32.6377 -0.00683594 -62.8037 -4.84375 -90.499 -14.5098
c-27.6748 -9.67578 -51.5088 -25.1758 -71.501 -46.499c-19.9893 -21.3271 -35.4893 -49.1602 -46.5 -83.499z" />
    <glyph glyph-name="g" unicode="g" horiz-adv-x="1033" 
d="M476.002 1012c43.333 0 83.5 -5.33398 120.5 -16.001s70.167 -25.667 99.5 -45h255v-33c0 -16.667 -9.33301 -25.667 -28 -27l-151 -11c18.668 -25.333 33.001 -53.833 42.999 -85.5c10 -31.667 15 -65.5 15 -101.5c-0.00292969 -48 -8.66992 -91.5 -26 -130.5
c-17.334 -39 -41.501 -72.333 -72.5 -99.999c-31.001 -27.667 -68.168 -49.167 -111.5 -64.5c-43.333 -15.333 -91.333 -23 -144 -23c-57.333 0.000976562 -109.333 8.66797 -156 26.001c-28 -16 -50 -35 -66 -57s-24 -43.333 -24 -64c0 -28.667 10 -50.667 30 -66
s46.5 -26.5 79.5 -33.5s70.667 -11.5 113 -13.5c42.334 -2.00098 85.334 -4.16797 129 -6.5c43.667 -2.33398 86.667 -6.50098 129 -12.501s80 -16.5 113 -31.5s59.5 -36 79.5 -63s30 -62.833 30 -107.5c0 -41.333 -10.333 -81 -31 -119s-50.5 -71.667 -89.5 -101
s-86.167 -52.833 -141.5 -70.5c-55.333 -17.666 -117.333 -26.499 -186 -26.5c-70 -0.000976562 -131.333 7.16602 -184 21.5c-52.667 14.333 -96.834 33.666 -132.501 58c-35.667 24.333 -62.5 52.5 -80.5 84.5s-27 66 -27 102c0 52.667 17.333 98 52 136
s82.334 67.333 143.001 88c-33.333 11.333 -59.833 27.666 -79.5 48.999s-29.5 51 -29.5 89c0 14 2.66699 28.667 8 44c5.33301 15.334 13.333 30.501 24 45.501s23.5 29.167 38.5 42.5s32.5 25.333 52.5 36c-47.333 27.334 -84.166 63.667 -110.499 109
s-39.5 98.333 -39.5 159c0 48 8.5 91.5 25.5 130.5s41 72.5 72 100.5s68.5 49.667 112.5 65s92.667 23 146 23zM845.002 -67.001c-0.00292969 31.333 -8.16895 56.499 -24.499 75.499c-16.334 19 -38.167 33.833 -65.5 44.5s-58.833 18.167 -94.5 22.5s-73 7.5 -112 9.5
l-117.5 6s-76 6 -110 12c-25.333 -10 -48.833 -21.5 -70.5 -34.5s-40.167 -27.667 -55.5 -44s-27.333 -34.333 -36 -54s-13 -41.167 -13 -64.5c0 -29.333 7.5 -56.5 22.5 -81.5s37 -46.667 66 -65s64.5 -32.833 106.5 -43.5c42 -10.666 90.333 -15.999 145 -16
c50.667 -0.000976562 97.834 5.66602 141.5 17c43.667 11.333 81.667 27.333 114 48s57.666 45.334 75.999 74.001s27.5 60 27.5 94zM476.003 439.998c42.667 0.000976562 80.666 6.16992 113.999 18.502c33.333 12.334 61.333 29.501 84 51.5
c22.668 22 39.835 48.333 51.5 78.999c11.6699 30.667 17.5029 64.667 17.5 102c0 37.333 -6 71.5 -18 102.5s-29.5 57.5 -52.5 79.5s-51 39 -84 51s-70.5 18 -112.5 18s-79.667 -6 -113 -18s-61.5 -29 -84.5 -51s-40.5 -48.5 -52.5 -79.5
c-12 -31.001 -18 -65.168 -18 -102.501s6 -71.333 18 -102s29.5 -57 52.5 -79s51.167 -39.167 84.5 -51.5c33.334 -12.333 71.001 -18.5 113.001 -18.5z" />
    <glyph glyph-name="h" unicode="h" horiz-adv-x="1248" 
d="M1129.27 75.0879c26.4326 -1.31543 39.6553 -13.0742 39.666 -35.2783v-39.8086h-144.468h-94.9971v635.98c-0.00195312 93.3271 -21.3359 166.492 -64.002 219.494c-42.667 52.9961 -108 79.4941 -195.999 79.4941c-65.3291 0 -125.992 -16.835 -181.99 -50.5059
c-56.0049 -33.6709 -106.006 -79.8359 -150.002 -138.495v-666.782l48.7178 -1.91602l30.2549 -1.14258l15.1035 -0.568359c4.24512 -0.167969 7.78711 -0.322266 10.626 -0.461914c26.4365 -1.31445 39.6543 -13.0771 39.6543 -35.2891v-39.8086h-144.355h-95.0068
h-144.468v39.8086c0 22.2119 13.2178 33.9746 39.6543 35.2891c3.43262 0.168945 7.72559 0.349609 12.8789 0.542969l32.6055 1.23047l59.3291 2.31543v1296.58l-48.7646 1.91113c-14.4033 0.591797 -24.5098 0.974609 -30.3193 1.14746l-15.0781 0.568359
c-4.24219 0.206055 -7.79297 0.360352 -10.6514 0.461914c-26.4365 1.31445 -39.6543 13.0771 -39.6543 35.2891v39.8086h144.468h94.9971v-629.986c45.9971 56.6641 98.4941 101.831 157.491 135.501c59.0244 33.6631 125.19 50.4951 198.499 50.4951
c54.6318 -0.00585938 102.802 -8.6748 144.509 -26.0059c41.6387 -17.3301 76.1357 -42.332 103.491 -75.0059c27.3516 -32.7002 48.0195 -72.0303 62.0029 -117.99c14 -46.0078 20.998 -98.0059 20.9941 -155.995v-556.795l48.7793 -1.91602l30.29 -1.14258
l15.1084 -0.568359c4.24902 -0.166992 7.79395 -0.320312 10.6357 -0.459961z" />
    <glyph glyph-name="i" unicode="i" horiz-adv-x="565" 
d="M230.482 1276.99c-8.03516 8.03516 -14.3682 17.2021 -18.998 27.502c-4.66602 10.3135 -6.99902 21.4824 -6.99902 33.5068c0 12.0078 2.33301 23.501 6.99902 34.4805c4.63672 10.9658 10.9688 20.4678 18.9971 28.5059c7.97949 8 17.3105 14.332 27.9932 18.9961
c10.6885 4.66602 22.0215 6.99902 33.999 6.99902c11.9893 -0.0439453 23.3223 -2.37988 33.999 -7.00879c10.6885 -4.68457 20.0195 -11.0137 27.9932 -18.9873c7.99316 -8.01367 14.4902 -17.5127 19.4912 -28.4971c5 -11.0049 7.5 -22.5049 7.5 -34.5
c0 -12.0127 -2.5 -23.1787 -7.5 -33.4971c-4.98438 -10.3154 -11.4814 -19.4824 -19.4902 -27.501c-8.00977 -8.00977 -17.3408 -14.3418 -27.9932 -18.9971c-10.6768 -4.71973 -22.0098 -7.05566 -33.999 -7.00781c-12.0244 0.00683594 -23.3574 2.34277 -33.998 7.00879
c-10.6367 4.63867 -19.9678 10.9707 -27.9941 18.9971zM444.278 75.124c26.4434 -1.31348 39.665 -13.0791 39.665 -35.292v-39.8086h-144.479h-94.9971h-144.468v39.8086c0 22.2129 13.2188 33.9756 39.6553 35.2891c3.43262 0.168945 7.72559 0.349609 12.8789 0.541992
l32.6045 1.23145l59.3291 2.31738v836.601l-48.7646 1.90918l-30.3184 1.14746l-15.0791 0.568359s-7.79297 0.321289 -10.6504 0.462891c-26.4365 1.31348 -39.6553 13.0771 -39.6553 35.29v39.8086h144.468h94.9971v-915.787l48.7803 -1.91309l30.2871 -1.14551
l15.1113 -0.567383c4.24902 -0.166016 7.79395 -0.320312 10.6348 -0.461914z" />
    <glyph glyph-name="j" unicode="j" horiz-adv-x="504" 
d="M376.475 1372.49c5.01074 -11.0039 7.51172 -22.5078 7.50098 -34.5039c0 -12.0166 -2.5 -23.1816 -7.5 -33.4951c-4.96582 -10.3057 -11.4619 -19.4727 -19.4893 -27.502c-8.01172 -8 -17.3428 -14.333 -27.9941 -18.998
c-10.6768 -4.66113 -22.0098 -6.99707 -33.998 -7.00781c-12.0244 0.00683594 -23.3574 2.34277 -33.999 7.00781c-10.6357 4.63965 -19.9668 10.9727 -27.9932 18.999c-8.02539 8.03516 -14.3574 17.2021 -18.9971 27.502
c-4.66602 10.3184 -6.99902 21.4873 -6.99805 33.5059c0 12.0146 2.33301 23.5078 6.99805 34.4805c4.65527 10.9844 10.9873 20.4863 18.9971 28.5059c7.99023 7.99121 17.3213 14.3242 27.9932 18.999c10.6885 4.70898 22.0215 7.04199 33.999 6.99805
c11.9883 0 23.3213 -2.33594 33.998 -7.00781c10.6895 -4.68457 20.0205 -11.0137 27.9932 -18.9873c8.0127 -8.02051 14.5088 -17.5195 19.4893 -28.4961zM246.988 994.996l95.0068 -0.000976562v-1121.96c-0.000976562 -34.6572 -5.00098 -66.6543 -15.001 -95.9902
c-10.0107 -29.3271 -24.8447 -54.8281 -44.501 -76.5029c-19.6699 -21.6572 -44.3369 -38.6562 -74.002 -50.9971c-29.6885 -12.3369 -64.5205 -18.5059 -104.495 -18.5059c-19.3115 0 -36.6426 1.66309 -51.9932 4.99023
c-15.3652 3.37012 -30.3662 8.70898 -45.0029 16.0166l4.98926 48.0059c0.666992 7.99902 5.33301 11.998 13.998 11.998c5.36133 0.00195312 12.8623 -1.33301 22.502 -4.00586c9.67676 -2.66797 22.8438 -4.00293 39.501 -4.00488
c53.9932 0 93.9893 14.666 119.988 43.998c25.9961 29.3477 38.999 71.0107 39.0098 124.99l-0.0107422 1042.8c-18.0146 0.743164 -34.1963 1.375 -48.5449 1.89648l-30.209 1.14258l-15.0352 0.564453c-4.2334 0.194336 -7.77832 0.349609 -10.6348 0.464844
c-26.4365 1.31348 -39.6543 13.0762 -39.6543 35.2881v39.8086h144.089z" />
    <glyph glyph-name="k" unicode="k" horiz-adv-x="1129" 
d="M1009.64 75.1035c26.4482 -1.31348 39.6641 -13.0771 39.6455 -35.29v-39.8076h-43.8555h-77.1777h-5.82031c-9.3584 0 -17.6895 1.83398 -24.9922 5.50195c-7.30176 3.63086 -14.6279 9.46094 -21.9785 17.4912l-418.003 447.995
c-11.3262 11.9814 -21.6553 20.1484 -30.9863 24.5c-9.35156 4.33398 -24.0215 6.50293 -44.0098 6.50684h-45.0029v-422.799l48.7568 -1.91309l30.2725 -1.14551l15.1094 -0.567383c4.25098 -0.166016 7.7959 -0.320312 10.6348 -0.461914
c26.4434 -1.31348 39.665 -13.0762 39.665 -35.2891v-39.8086h-144.428h-95.0068h-144.468v39.8086c0 22.2129 13.2178 33.9756 39.6543 35.2891c3.43262 0.168945 7.72559 0.349609 12.8789 0.541992l32.6045 1.23145l59.3301 2.31738v1296.58
c-18.1064 0.761719 -34.3613 1.39844 -48.7637 1.90918c-14.4033 0.594727 -24.5098 0.977539 -30.3193 1.14746l-15.0791 0.568359s-7.79395 0.321289 -10.6514 0.463867c-26.4365 1.31934 -39.6543 13.082 -39.6543 35.2891v39.8086h144.468h94.9971v-886.973h45.9971
c9.35742 0 18.1904 1.33203 26.498 3.99609c8.31543 2.64062 17.4863 8.97266 27.5127 18.9961l344.359 327.104c-31.6455 1.21191 -48.2656 1.85742 -49.8594 1.93652c-26.4385 1.31348 -39.6572 13.0771 -39.6562 35.29v39.8086h163.896h39.6035h104.865v-39.8086
c0 -22.2148 -13.2217 -33.9785 -39.665 -35.291c-1.72266 -0.0830078 -6.13281 -0.323242 -13.2295 -0.720703c-7.11133 -0.396484 -15.5596 -0.836914 -25.3438 -1.32129c-9.79004 -0.512695 -20.6572 -1.00391 -32.6006 -1.47363l-356.38 -338.529l-18.9971 -18.5068
c-5.9707 -5.64551 -12.6377 -10.4785 -20.001 -14.499c10.6699 -5.34863 19.6699 -11.6807 27 -18.9961l22.9932 -23.998l389.322 -423.936l33.4912 -1.29395l21.7471 -0.816406l11.6211 -0.443359c3.46875 -0.138672 6.4707 -0.271484 9.00586 -0.397461z" />
    <glyph glyph-name="l" unicode="l" horiz-adv-x="559" 
d="M442.269 75.1406c26.4277 -1.31348 39.6455 -13.0781 39.6543 -35.29v-39.8086h-144.458h-94.9971h-144.468v39.8086c0 22.2129 13.2188 33.9756 39.6553 35.2891c3.43262 0.168945 7.72559 0.349609 12.8789 0.541016l32.6045 1.23047l59.3291 2.31738v1296.58
l-48.7646 1.91016c-14.4023 0.594727 -24.5088 0.977539 -30.3184 1.14746l-15.0791 0.568359s-7.79297 0.321289 -10.6504 0.462891c-26.4365 1.31934 -39.6553 13.083 -39.6553 35.29v39.8086h144.468h94.9873v-1375.77l48.7803 -1.91309l30.2871 -1.14551
l15.1113 -0.567383c4.24902 -0.167969 7.79395 -0.322266 10.6348 -0.462891z" />
    <glyph glyph-name="m" unicode="m" horiz-adv-x="1767" 
d="M1643.26 75.0869c26.4473 -1.31348 39.6484 -13.0674 39.6035 -35.2734v-39.8076h-144.458h-94.9971v635.98c0 97.3232 -20.999 171.488 -62.9961 222.495c-41.9805 50.9873 -101.979 76.4844 -179.993 76.4912c-34.6133 -0.00390625 -67.7715 -6.33691 -99.4746 -18.999
c-31.7061 -12.6816 -59.7031 -31.5146 -83.9922 -56.5c-24.3379 -24.9736 -43.6738 -56.1436 -58.0068 -93.5107c-14.3486 -37.3154 -21.5215 -80.6455 -21.5186 -129.99v-556.804l48.627 -1.90723l30.2021 -1.14355l15.083 -0.56543
c4.24316 -0.166016 7.78418 -0.320312 10.623 -0.461914c26.4297 -1.31348 39.6445 -13.0762 39.6445 -35.2891v-39.8086h-144.181h-0.266602h-94.71v635.98c0 96.6182 -19.332 170.616 -57.9961 221.994c-38.6816 51.3252 -95.0176 76.9932 -169.009 77.0039
c-53.9932 -0.00683594 -103.993 -16.1797 -150 -48.5186c-46.0273 -32.3701 -87.0215 -77.1992 -122.981 -134.487v-672.797l48.6367 -1.90723l30.2119 -1.14355l15.0879 -0.56543c4.24414 -0.166016 7.78418 -0.320312 10.6211 -0.461914
c26.4297 -1.31348 39.6445 -13.0762 39.6445 -35.2891v-39.8086h-144.202h-94.9961h-144.469v39.8086c0 22.2129 13.2188 33.9756 39.6553 35.2891c3.43262 0.168945 7.73242 0.349609 12.8994 0.541992l32.5605 1.22949l59.3525 2.31738v836.549l-48.7646 1.90918
c-14.4023 0.581055 -24.5088 0.963867 -30.3184 1.14746l-15.0791 0.568359c-4.24316 0.194336 -7.79297 0.348633 -10.6504 0.462891c-26.4365 1.31348 -39.6553 13.0771 -39.6553 35.29v39.8076h144.469l51.9912 0.0517578c17.3135 0 27.3145 -8.33398 30.002 -25.002
l9.00684 -143.997c19.2705 27.2637 39.9385 52.2627 62.0039 74.9961c22 22.6572 45.4961 42.1562 70.4883 58.4971c25.0352 16.3467 51.7002 29.0146 79.9951 38.0049c28.332 9.00879 58.1641 13.5068 89.4951 13.4951
c72.6592 -0.00195312 130.662 -21.1719 174.009 -63.5088c43.3125 -42.3408 72.6455 -101.171 87.999 -176.49c11.9609 41.3018 28.7656 76.9707 50.4131 107.006c21.6104 29.9814 46.3975 54.8125 74.3604 74.4932c27.9834 19.6729 58.4395 34.3398 91.3682 44.001
c32.9902 9.66602 66.7734 14.499 101.35 14.499c49.2383 -0.00585938 93.5 -8.17285 132.786 -24.5c39.2842 -16.3506 72.7188 -40.5156 100.305 -72.4951c27.6318 -31.9932 48.7676 -71.3271 63.4072 -118.002c14.666 -46.6641 21.999 -99.9951 21.999 -159.993v-556.794
l48.7637 -1.91309l30.3193 -1.14746l15.0791 -0.56543c4.29492 -0.166992 7.8457 -0.321289 10.6523 -0.462891z" />
    <glyph glyph-name="n" unicode="n" horiz-adv-x="1258" 
d="M1134.28 75.0977c26.4336 -1.31152 39.6445 -13.0781 39.6338 -35.293v-39.8086h-144.458h-94.9971v635.98c0 93.3271 -21.3301 166.492 -63.9902 219.494c-42.6777 52.9961 -108.011 79.4941 -195.999 79.4941c-65.3262 0 -125.993 -16.835 -182.001 -50.5059
c-55.998 -33.6738 -105.995 -79.8389 -149.991 -138.494v-666.793l48.6826 -1.90527l30.2432 -1.14258l15.0938 -0.568359c4.24707 -0.163086 7.79102 -0.316406 10.6318 -0.459961c26.4297 -1.31152 39.6445 -13.0742 39.6445 -35.2891v-39.8086h-144.294h-95.0068
h-144.469v39.8086c0 22.2148 13.2188 33.9775 39.6553 35.2891c3.43262 0.172852 7.73242 0.353516 12.9004 0.542969l32.5586 1.23047l59.3545 2.31738v836.549c-18.1094 0.749023 -34.3643 1.38574 -48.7646 1.91113
c-14.4033 0.581055 -24.5098 0.963867 -30.3193 1.14746l-15.0781 0.568359c-4.24512 0.166992 -7.7959 0.320312 -10.6514 0.459961c-26.4365 1.31641 -39.6553 13.0791 -39.6553 35.2881v39.8086h144.469l51.9912 0.0517578c17.3232 0 27.3242 -8.33398 30.002 -25.002
l9.00684 -150.002c45.3389 57.3418 98.1709 103.514 158.496 138.516c60.333 34.9961 127.497 52.4941 201.491 52.4941c54.6377 -0.00585938 102.808 -8.6748 144.509 -26.0059c41.6533 -17.3389 76.1533 -42.3379 103.501 -74.9961
c27.3359 -32.6875 48.0039 -72.0205 62.0039 -118c13.9941 -46.0078 20.999 -98.0068 21.0156 -155.996l-0.0205078 -556.794l48.7646 -1.91113l30.3135 -1.14746l15.082 -0.568359c4.28516 -0.163086 7.83594 -0.316406 10.6514 -0.459961z" />
    <glyph glyph-name="o" unicode="o" horiz-adv-x="1061" 
d="M530.999 1011c71.333 -0.00195312 135.167 -12.168 191.5 -36.499c56.333 -24.333 103.833 -58.833 142.5 -103.5s68.167 -98.5 88.5 -161.5s30.5 -133.5 30.5 -211.5c-0.00390625 -78 -10.1709 -148.333 -30.5 -211c-20.333 -62.667 -49.833 -116.334 -88.5 -161.001
s-86.167 -79 -142.5 -103c-56.334 -24 -120.167 -36 -191.5 -36s-135.166 12 -191.499 36s-104 58.333 -143 103s-68.667 98.334 -89 161.001s-30.5 133 -30.5 211s10.167 148.5 30.5 211.5s50 116.833 89 161.499c39 44.667 86.667 79.167 143 103.5
s120.166 36.5 191.499 36.5zM531 62.001c59.333 0 111.168 10.168 155.501 30.501s81.333 49.5 111 87.5s51.834 83.833 66.5 137.5c14.6719 53.667 22.0049 113.834 22 180.501c0 66 -7.33301 126 -22 180s-36.834 100.167 -66.501 138.5s-66.667 67.833 -111 88.5
c-44.334 20.6719 -96.167 31.0049 -155.5 31c-59.333 0 -111.166 -10.333 -155.499 -31s-81.333 -50.167 -111 -88.5c-29.667 -38.334 -52 -84.501 -67 -138.501s-22.5 -114 -22.5 -180c0 -66.667 7.5 -126.834 22.5 -180.501s37.333 -99.5 67 -137.5
s66.667 -67.167 111 -87.5s96.166 -30.5 155.499 -30.5z" />
    <glyph glyph-name="p" unicode="p" horiz-adv-x="1096" 
d="M916.442 884.99c67.9971 -84.668 101.998 -211.664 102.005 -380.983c0 -72.6631 -9.50879 -140.493 -28.5264 -203.49c-18.9639 -62.9756 -46.7871 -117.645 -83.4697 -164.007c-36.666 -46.3252 -81.833 -82.8242 -135.502 -109.496
c-53.6729 -26.6621 -115.505 -39.9932 -185.496 -39.9932c-68 0 -126.666 12.3301 -175.997 36.9902c-49.3203 24.6475 -91.9844 61.3135 -127.991 109.998v-406.803l48.6416 -1.90625l30.2168 -1.14258l15.0889 -0.568359
c4.24121 -0.155273 7.78125 -0.308594 10.6201 -0.459961c26.4297 -1.31152 39.6445 -13.0752 39.6445 -35.29v-39.8086h-144.212h-94.9971h-144.468v39.8086c0 22.2148 13.2188 33.9785 39.6553 35.291c3.43262 0.170898 7.72559 0.351562 12.8799 0.542969
c5.15039 0.182617 16.0166 0.592773 32.5996 1.22949l59.333 2.31543v1188.53c-18.1055 0.749023 -34.3604 1.38574 -48.7637 1.91113c-14.4033 0.581055 -24.5098 0.963867 -30.3193 1.14746l-15.0762 0.568359c-4.24609 0.166992 -7.79688 0.320312 -10.6514 0.459961
c-26.4365 1.31836 -39.6553 13.082 -39.6553 35.29v39.8086h144.468l51.9922 0.0507812c8.6377 0 15.6357 -1.83398 20.9941 -5.50195c5.33887 -3.66504 8.34082 -10.1611 9.00684 -19.4893l9.00684 -154.008c44 60.0059 95.4961 107.674 154.489 143.004
c59.0176 35.3301 125.184 52.9951 198.499 52.9951c122.652 0 217.98 -42.332 285.984 -126.997zM897.946 324.505c15.001 54.3174 22.5 114.151 22.4932 179.502c-0.000976562 148.003 -27.165 256.833 -81.4912 326.489
c-54.3389 69.6572 -132.835 104.489 -235.489 104.496c-66.0059 -0.00292969 -125.84 -17.1699 -179.502 -51.501c-53.6719 -34.3477 -101.169 -82.1787 -142.49 -143.494v-521.986c37.9951 -57.3506 80.1602 -97.6846 126.495 -121.002
c46.3086 -23.3291 99.1406 -34.9932 158.496 -34.9932c58.7061 0 110.038 10.667 153.996 32.001c43.9785 21.3135 80.8086 51.4795 110.49 90.498c29.6807 39.0332 52.0146 85.6963 67.002 139.99z" />
    <glyph glyph-name="q" unicode="q" horiz-adv-x="1077" 
d="M1018.8 -277.892c26.4297 -1.31348 39.6445 -13.0752 39.6445 -35.2812v-39.8086h-144.458h-94.9971l-0.0507812 26.498v-26.498h-144.469v39.8086c0 22.2129 13.2188 33.9766 39.6553 35.291c3.42676 0.167969 7.7168 0.347656 12.8691 0.540039
c5.15137 0.18457 16.0098 0.594727 32.5752 1.23145l59.2666 2.31641l-0.850586 450.793c-44 -58.6523 -95.001 -104.981 -153.004 -138.986c-57.9961 -34.0088 -123.325 -51.0117 -195.988 -51.0088c-121.997 0 -217.161 42.165 -285.493 126.495
c-68.3252 84.3408 -102.491 211.171 -102.498 380.49c0 72.6689 9.51562 140.502 28.5469 203.499c19.0332 63.0127 47.0684 117.679 84.1055 163.998c37.042 46.335 82.4316 82.834 136.169 109.496c53.7539 26.6611 115.668 39.9922 185.741 39.9922
c89.9092 0 222.696 -18.666 398.361 -55.998l0.0205078 -50.8643l0.0410156 -1177.92l48.7793 -1.91309l30.2871 -1.14551c5.8252 -0.203125 10.8623 -0.391602 15.1113 -0.566406c4.24902 -0.158203 7.79395 -0.3125 10.6348 -0.461914zM818.987 256l-0.0107422 637.119
c-138.657 28.582 -233.805 42.8721 -285.442 42.8701c-58.7617 -0.00195312 -110.173 -10.6689 -154.232 -32c-44.0615 -21.333 -80.9492 -51.499 -110.664 -90.498c-29.6895 -38.9756 -52.0586 -85.6426 -67.1064 -140.001
c-15.0215 -54.291 -22.5322 -114.121 -22.5322 -179.491c0 -148.01 27.3721 -256.843 82.1172 -326.5c54.7588 -69.6572 133.218 -104.489 235.377 -104.496c66.0957 0 125.854 16.999 179.276 50.998c53.3945 33.9854 101.134 81.3184 143.218 141.999z" />
    <glyph glyph-name="r" unicode="r" horiz-adv-x="872" 
d="M746.521 1002.48c25.3203 -6.36328 49.3281 -15.5137 71.9932 -27.502l-13.0029 -65.9883c-1.9873 -10.667 -8.66797 -16.0059 -19.9805 -16.0059c-3.99609 0 -9.68359 1.32227 -17.0098 4.00684c-7.34668 2.65332 -16.5078 5.64551 -27.5127 8.99609
c-10.9941 3.32031 -24.4893 6.32227 -40.5049 8.99707c-15.9746 2.66406 -34.3262 3.99609 -54.9834 3.99609c-75.3438 0 -137.183 -23.332 -185.496 -69.9951c-48.3535 -46.6631 -87.4961 -113.994 -117.498 -201.993v-567.799
c82.209 -3.2793 92.2305 -3.45312 104.782 -4.07812c24.7354 -1.22949 39.6445 -9.78516 39.6445 -35.2998v-39.8086h-144.458v0.0107422h-94.9658h-144.479v39.8076c0 25.5049 14.9092 34.0605 39.6543 35.29c12.542 0.604492 22.584 0.798828 104.813 4.07812v836.56
c-82.2393 3.25879 -92.2607 3.45312 -104.813 4.07812c-24.7451 1.22949 -39.6543 9.78516 -39.6543 35.29v39.8076h144.479v0.0517578h49.9932c11.333 0 19.5 -2.34668 24.5 -6.99902c5 -4.67188 7.82812 -12.6855 8.50488 -24.0078l8.00293 -209.985
c32 80.6514 74.6465 143.822 127.971 189.492c53.3545 45.6592 119.015 68.499 197.022 68.499c30.0029 0 57.6377 -3.16602 82.998 -9.49902z" />
    <glyph glyph-name="s" unicode="s" horiz-adv-x="855" 
d="M750.981 393.031c15.9951 -28.0049 24.0059 -62.0059 24.0225 -102.013c0 -43.3105 -7.83496 -83.6416 -23.5059 -120.992c-15.6748 -37.3496 -38.3408 -69.6846 -67.998 -97.0059c-29.6504 -27.3252 -66.1494 -48.9902 -109.496 -64.9941
c-43.3125 -16.0059 -92.6436 -24.0088 -147.993 -24.0088c-99.6914 0 -197.756 18.3418 -294.192 55.0254v242.897h48.6104c27.1406 0 41.5098 -16.1523 43.1084 -48.457c0.140625 -2.85352 0.871094 -10.6494 2.19238 -23.3887
c1.32324 -12.7393 2.93555 -30.2842 4.83691 -52.6357c1.90137 -22.3506 3.56836 -46.0361 5 -71.0566c53.8486 -21.5996 118.659 -32.3994 194.431 -32.3994c42.002 0 79.0029 5.83398 111.003 17.501c31.96 11.6494 58.6221 27.4844 79.9863 47.5039
c21.335 19.9873 37.5078 43.4863 48.5176 70.4971c10.9873 27.0107 16.4863 55.5137 16.4971 85.5088c-0.00683594 33.332 -8.0127 60.998 -24.0186 82.998c-15.9551 21.959 -36.9502 40.625 -62.9863 55.998c-26.0059 15.3291 -55.5059 28.332 -88.5 39.0088
l-101.995 31.9902c-35.0889 10.6934 -69.0879 22.3613 -101.996 35.0029c-33.0234 12.6611 -62.5234 28.6631 -88.5 48.0059c-25.9717 19.29 -46.9707 42.7852 -62.9971 70.4863c-16.0049 27.6562 -24.0078 62.1572 -24.0078 103.502
c0 35.332 7.66797 69.3301 23.0039 101.995c15.333 32.668 37.165 61.3379 65.4961 86.0107c28.3457 24.6611 62.8467 44.3242 103.502 58.9893c40.6758 14.6592 86.3115 21.9893 136.906 21.9893c71.417 0 159.453 -17.665 264.108 -52.9951v-237.806h-48.6104
c-27.1406 0.00195312 -41.5098 16.1504 -43.1084 48.4453c-0.139648 2.87402 -0.853516 10.5146 -2.1416 22.9219c-1.29785 12.4082 -2.87695 29.5039 -4.7373 51.2861c-1.87793 21.7842 -3.52344 44.832 -4.93555 69.1426
c-53.4121 17.3506 -106.241 26.0264 -158.487 26.0264c-35.9873 0 -68.8174 -5.15723 -98.4902 -15.4727c-29.6885 -10.3232 -55.0186 -24.1221 -75.9902 -41.3965c-21.0068 -17.2607 -37.3438 -37.3682 -49.0107 -60.3223
c-11.6709 -22.9326 -17.501 -47.0361 -17.4912 -72.3105c-0.00683594 -31.2393 7.99219 -57.1738 23.9971 -77.8037c15.9961 -20.5986 36.9912 -38.209 62.9863 -52.8311c26.0059 -14.624 55.5059 -27.2588 88.501 -37.9043l101.503 -31.9482
c34.7744 -10.7139 68.6094 -22.5488 101.504 -35.5049c32.9873 -12.9932 62.4844 -29.1592 88.4902 -48.498c25.9736 -19.3174 46.9688 -42.9805 62.9863 -70.9883z" />
    <glyph glyph-name="t" unicode="t" horiz-adv-x="711" 
d="M415.998 -16c-67.333 0 -119.831 18.668 -157.498 56.001s-56.5 95 -56.5 173v680h-143c-7.33301 0 -13.333 2 -18 6s-7 9.66699 -7 17v37l170 12l24 356c0.666992 6 3.16699 11.333 7.5 16c4.33398 4.66699 10.167 7 17.5 7h45v-380h313v-71h-313v-675
c0 -27.333 3.5 -50.833 10.5 -70.5c7.00098 -19.667 16.668 -35.834 29 -48.501c12.333 -12.667 26.833 -22 43.5 -28s34.667 -9 54 -9c24 0 44.667 3.5 62 10.5s32.333 14.667 45 23c12.6699 8.33301 23.0029 16 31 23c8.00195 7 14.335 10.5 18.999 10.5
c5.33301 0 10.666 -3.33301 15.999 -10l26 -42c-25.334 -28 -57.501 -50.5 -96.5 -67.5c-39 -17 -79.5 -25.5 -121.5 -25.5z" />
    <glyph glyph-name="u" unicode="u" horiz-adv-x="1197" 
d="M1072.27 75.125c26.4326 -1.31445 39.6455 -13.0742 39.6367 -35.2861v-39.8086h-144.458h-52.3604c-18.4365 0 -27.9834 8.66504 -28.6396 25.9961l-9.04785 147.993c-46.0322 -57.3174 -99.2705 -103.314 -159.715 -137.992
c-60.3848 -34.668 -127.641 -52.002 -201.768 -52.002c-55.417 0 -103.818 8.66895 -145.204 26.0059c-41.3623 17.3066 -75.7402 42.3018 -103.134 74.9854c-27.3574 32.6299 -48.0527 71.9639 -62.085 118.002c-14.0176 45.9736 -21.0264 97.9756 -21.0264 156.006
v556.743c-18.1064 0.74707 -34.3613 1.38281 -48.7637 1.90723c-14.4033 0.581055 -24.5098 0.963867 -30.3193 1.14746l-15.0801 0.568359s-7.79395 0.321289 -10.6514 0.462891c-26.4365 1.31348 -39.6543 13.0771 -39.6543 35.29v39.8076h144.468l94.9971 0.0517578
v-635.991c0 -93.3271 21.4092 -166.492 64.2266 -219.495c42.8105 -52.9951 108.027 -79.4932 195.649 -79.4932c64.8926 0 125.43 16.4971 181.611 49.4912c56.1826 33.0049 106.686 78.8379 151.508 137.5v668.76c-17.9746 0.743164 -34.1748 1.37695 -48.6006 1.90234
l-30.2725 1.14551l-15.0186 0.56543c-4.25684 0.166992 -7.80859 0.321289 -10.6553 0.462891c-26.4385 1.31348 -39.6572 13.0771 -39.6562 35.29v39.8076h144.202l94.9971 0.0517578v-915.787l48.7646 -1.91309l30.3184 -1.14746l15.0791 -0.56543
s7.82129 -0.321289 10.6514 -0.461914z" />
    <glyph glyph-name="v" unicode="v" horiz-adv-x="1159" 
d="M1031.19 994.911l76.2363 0.0146484v-39.8086c0 -22.2148 -13.2178 -33.9785 -39.6543 -35.291c-3.0918 -0.179688 -6.50781 -0.328125 -10.248 -0.444336l-22.4688 -0.849609l-36.7051 -1.40137l-387.129 -917.129h-83.9922l-387.202 917.293
c-43.5635 1.69238 -65.3545 2.53906 -65.373 2.54004c-26.4365 1.31348 -39.6553 13.0762 -39.6553 35.2881v39.8086h72.2598l74.9746 0.0507812l201.256 -0.0507812v-39.8086c0 -22.2158 -13.2188 -33.9785 -39.6553 -35.2891
c-3.62109 -0.180664 -7.74316 -0.361328 -12.3662 -0.541992c-4.625 -0.208008 -15.4053 -0.623047 -32.3408 -1.24512l-58.8047 -2.30371l304.91 -729.748c6.64551 -15.3037 11.6455 -29.9697 15.001 -43.999l4.99609 -21l4.99512 -21l10.5029 42.4834
c3.63477 14.2432 8.46777 28.7461 14.499 43.5088l306.775 729.748l-48.3818 1.89844l-30.0459 1.15332l-14.4238 0.558594c-4.1123 0.166016 -7.62793 0.322266 -10.5479 0.467773c-26.4385 1.31348 -39.6572 13.0762 -39.6562 35.2881v39.8086h199.555h72.6895z" />
    <glyph glyph-name="w" unicode="w" horiz-adv-x="1679" 
d="M1544.46 994.94l83.6924 0.00195312v-39.8076c0 -22.2148 -13.2188 -33.9785 -39.6553 -35.291c-3.12695 -0.154297 -6.57031 -0.304688 -10.3291 -0.451172c-3.79492 -0.160156 -11.334 -0.443359 -22.6182 -0.850586l-37.1084 -1.41504l-306.939 -917.108h-69.9854
c-10.6865 0 -18.3574 6.99902 -23.0127 20.9961l-272.981 807.991c-3.34082 9.99414 -6.34277 19.9912 -9.00684 29.9922c-2.70605 10.1582 -5.04199 20.1592 -7.00879 30.002c-2.11035 -10.5088 -4.2793 -20.5098 -6.50684 -30.002
c-2.33691 -9.99023 -5.16504 -19.9873 -8.48438 -29.9922l-276.005 -807.991c-4.00684 -13.9971 -12.0059 -20.9961 -23.9971 -20.9961h-67.0039l-306.97 917.272l-28.3525 1.08887l-18.8223 0.706055l-10.3506 0.398438s-5.96289 0.250977 -8.36035 0.369141
c-26.4365 1.31543 -39.6553 13.0781 -39.6553 35.2891v39.8086h79.5449l72.9775 0.0507812l195.968 -0.0507812v-39.8086c0 -22.2129 -13.2188 -33.9756 -39.6553 -35.2891c-3.61816 -0.208984 -7.73828 -0.389648 -12.3613 -0.541016l-32.3506 -1.24512l-58.8203 -2.30273
l233.204 -729.748c4.64355 -15.2715 8.31152 -29.9375 11.0049 -43.999l8.00293 -42.001c3.3291 14.0469 6.9873 28.0469 10.9746 42.001c3.98145 13.9316 8.65723 28.5977 14.0273 43.999l266.987 791.986c4.64551 14.6709 13.9766 22.0039 27.9932 22h39.0088
c14.6484 0 24.3115 -7.33301 28.9883 -22l263.001 -791.986c9.98242 -29.957 17.9854 -58.9521 24.0088 -86.9844c2.5459 13.4023 5.37012 27.5635 8.47363 42.4834c2.99902 14.3174 7.16895 29.1514 12.5107 44.501l234.271 729.748l-48.4111 1.89844l-30.0703 1.15332
l-14.4199 0.558594c-4.13477 0.166016 -7.6543 0.322266 -10.5576 0.467773c-26.4404 1.31348 -39.6582 13.0771 -39.6533 35.29v39.8076h194h70.8145z" />
    <glyph glyph-name="x" unicode="x" horiz-adv-x="1129" 
d="M987.033 75.0215c26.4404 -1.31445 39.6514 -13.0742 39.6328 -35.2793v-39.8086h-91.626h-52.832h-151.189v39.8086c0 22.2119 13.2188 33.9746 39.6553 35.2881c2.46777 0.121094 20.5801 0.838867 54.3369 2.15234l-266.179 387.816
c-3.33594 -13.3096 -8.33594 -24.6426 -15 -33.999l-251.341 -353.603c37.2705 -1.45312 57.1045 -2.23828 59.502 -2.35547c26.4365 -1.31348 39.6543 -13.0771 39.6543 -35.29v-39.8086h-151.189h-52.832h-91.626v39.8086c0 22.2129 13.2188 33.9766 39.6553 35.29
c1.06543 0.0527344 19.3184 0.762695 54.7588 2.13086l305.423 431.836l-290.801 408.474c-39.6885 1.55566 -59.9736 2.3418 -60.8555 2.35742c-26.4365 1.31543 -39.6543 13.0781 -39.6543 35.2891v39.8086h45.3623l90.9697 0.0507812l0.871094 -0.0507812h7.26465
h151.189v-39.8086c0 -22.2129 -13.2178 -33.9756 -39.6533 -35.2891c-3.20996 -0.15625 -19.2734 -0.794922 -48.1904 -1.91699l252.52 -364.925c2.6543 11.3223 8.31738 23.3213 16.9893 35.9961l233.111 328.744c-32.4766 1.25781 -50.0771 1.95508 -52.8008 2.09082
c-26.4365 1.31348 -39.6543 13.0771 -39.6543 35.29v39.8076h151.189h10.5029l88.6436 0.0517578l45.3115 -0.0517578v-39.8076c-0.00195312 -22.2148 -13.2207 -33.9785 -39.6562 -35.29c-0.341797 -0.0449219 -20.9268 -0.84375 -61.7549 -2.39746l-291.888 -403.442
l307.667 -436.847c35.165 -1.35645 53.3359 -2.06348 54.5127 -2.12109z" />
    <glyph glyph-name="y" unicode="y" horiz-adv-x="1156" 
d="M1029.4 994.912l75.1816 0.00195312v-39.8086c-0.00195312 -22.2148 -13.2207 -33.9785 -39.6553 -35.29c-3.08691 -0.182617 -6.48828 -0.332031 -10.2051 -0.448242l-22.5303 -0.849609l-36.5947 -1.39746l-538.124 -1237.12
c-3.99902 -9.33008 -9.16699 -16.9941 -15.5039 -22.9932c-6.35254 -6.00293 -15.5195 -9.00488 -27.501 -9.00586h-67.9971l174.993 388.995l-386.925 880.456c-39.9424 1.5459 -60.2373 2.33496 -60.8857 2.36621c-26.4365 1.31348 -39.6553 13.0771 -39.6553 35.29
v39.8086h66.501l78.9717 0.0507812l0.757812 -0.0507812h202.26v-39.8086c0 -22.2148 -13.2188 -33.9785 -39.6553 -35.29c-3.58301 -0.203125 -7.72656 -0.381836 -12.4307 -0.535156l-32.1846 -1.2373l-58.835 -2.30566l311.079 -718.753
c3.99609 -10.001 7.49316 -20.1689 10.4922 -30.5039c2.95215 -10.165 5.78711 -20.6582 8.50488 -31.4795c3.27246 10.4932 6.77051 20.9824 10.4932 31.4678c3.57324 10.1328 7.40527 20.3008 11.4961 30.5039l307.38 718.774
c-17.7744 0.733398 -33.8564 1.36426 -48.2471 1.89258l-29.9121 1.14844l-14.4434 0.55957c-4.07812 0.165039 -7.58203 0.320312 -10.5117 0.46582c-26.4365 1.31348 -39.6543 13.0771 -39.6543 35.29v39.8086h199.708h73.6328z" />
    <glyph glyph-name="z" unicode="z" horiz-adv-x="998" 
d="M823.254 250.839l9.60449 0.00195312h39.0068v-250.839h-35.8838h-16.2207h-710.761v38.0049c0 11.3096 5 23.6396 15.001 36.9902l624.986 844.973h-504.004c-1.39844 -22.9785 -3 -44.8135 -4.80469 -65.5049c-1.80566 -20.6924 -3.32129 -36.9326 -4.54785 -48.7207
s-1.91016 -19.1162 -2.05176 -21.9844c-1.59766 -32.2979 -15.9639 -48.4463 -43.0977 -48.4463h-48.6201v250.838l0.143555 8.8125h718.979v-40.0029c-0.00976562 -14.0068 -4.68262 -26.6719 -14.0186 -37.9951l-622.968 -841.979h545.309
c1.37305 21.3057 2.91406 41.6367 4.62207 60.9922c1.71973 19.3545 3.15234 34.5439 4.29688 45.5684c1.16797 11.0244 1.81152 17.9727 1.93164 20.8457c1.59961 32.2979 15.9658 48.4463 43.0977 48.4463z" />
    <glyph glyph-name="braceleft" unicode="{" horiz-adv-x="558" 
d="M230.997 445c-0.000976562 22.001 -3.66504 42.165 -10.998 60.498s-17.833 34.333 -31.5 48s-30.167 24.167 -49.5 31.5s-40.666 11 -63.999 11v61c23.333 0 44.666 3.66699 63.999 11s35.833 17.833 49.5 31.5s24.167 29.667 31.5 48s11 38.5 11 60.5
c0 36.668 -3.16699 72.335 -9.5 107c-6.33398 34.667 -13.167 69.334 -20.5 104c-7.33398 34.667 -14.167 69.5 -20.5 104.5c-6.33398 35.002 -9.50098 71.1689 -9.50098 108.5c0 40.667 6.33301 78.334 19 113.001s31 64.834 55 90.501s53.5 45.667 88.5 60
c35 14.3447 74.5 21.5117 118.5 21.5h55v-42c-0.00195312 -7.33301 -2.83496 -13 -8.5 -17c-5.66699 -4 -11.167 -6 -16.5 -6h-33c-28.667 0 -54.834 -5 -78.5 -15c-23.667 -10.0059 -44 -24.3389 -61 -43c-17 -18.6689 -30.333 -41.3359 -39.999 -68
c-9.66699 -26.668 -14.5 -56.335 -14.5 -89c0 -38 3 -75 9 -111s12.667 -71.5 20 -106.5c7.33398 -35 14.001 -70 20 -105c6 -35.001 9 -70.168 9 -105.5c0 -24.667 -4.16699 -47.334 -12.5 -68.001s-19.333 -38.667 -33 -54c-13.667 -15.335 -29.334 -28.168 -47.001 -38.5
c-17.667 -10.333 -36.167 -17.833 -55.5 -22.5c19.333 -4.00195 37.833 -11.1689 55.5 -21.5c17.667 -10.333 33.334 -23.333 47.001 -39s24.667 -33.667 33 -54c8.33398 -20.333 12.501 -42.833 12.5 -67.5c0 -35.333 -3 -70.5 -9 -105.5s-12.667 -70.167 -20 -105.5
s-14 -71 -20 -107s-9 -72.667 -9 -110c0 -32.667 4.83301 -62.334 14.499 -89.001c9.66699 -26.667 23 -49.334 40 -68.001s37.333 -33 61 -43s49.834 -15 78.501 -15h33c5.33301 0 10.833 -2 16.5 -6s8.5 -9.66699 8.5 -17.001v-42h-55
c-44 -0.000976562 -83.5 7.16602 -118.5 21.5c-35 14.333 -64.5 34.333 -88.5 60s-42.333 55.834 -55 90.501s-19 72.334 -19 113.001c0 37.333 3.16699 73.5 9.5 108.5s13.166 69.833 20.499 104.5s14.166 69.334 20.499 104.001s9.5 70.334 9.5 107.001z" />
    <glyph glyph-name="bar" unicode="|" horiz-adv-x="416" 
d="M170 1517h75v-1869h-75v1869z" />
    <glyph glyph-name="braceright" unicode="}" horiz-adv-x="556" 
d="M327.005 445c0.00195312 -36.667 3.16309 -72.3301 9.49512 -106.997c6.33496 -34.667 13.168 -69.334 20.5 -104.001c7.33398 -34.667 14.167 -69.5 20.5 -104.5c6.33496 -35 9.50195 -71.167 9.5 -108.5c-0.000976562 -40.667 -6.33398 -78.334 -19 -113.001
c-12.667 -34.667 -31 -64.834 -55 -90.501s-53.5 -45.667 -88.5 -60s-74.5 -21.5 -118.5 -21.5h-55v42c0 7.33301 2.66699 13 8 17s11 6 17 6h33c28.667 0 54.834 5 78.501 15s44 24.333 61 43s30.333 41.334 40 68.001s14.5 56.334 14.5 89.001c0 37.333 -3 74 -9 110
s-12.667 71.667 -20 107s-14 70.5 -20 105.5s-9 70.167 -9 105.5c0 24.667 4 47.167 12 67.5s18.833 38.333 32.5 54s29.334 28.667 47.001 39s36.167 17.5 55.5 21.5c-19.333 4.66699 -37.833 12.167 -55.5 22.5s-33.334 23.166 -47 38.499
c-13.667 15.333 -24.5 33.333 -32.5 54s-12 43.334 -12 68c0 35.333 3 70.5 9 105.5c6.00098 35 12.668 70 20.001 105c7.33398 35 14.001 70.5 20 106.5c6 36 9 73 9 111c-0.000976562 32.667 -4.83398 62.334 -14.499 89.001c-9.66699 26.667 -23 49.334 -40 68.001
s-37.333 33 -60.999 43c-23.667 10 -49.834 15 -78.501 15h-33c-6 0 -11.667 2 -17 6c-5.33301 4.01074 -8 9.67773 -8 17v42h55c44 0 83.5 -7.16699 118.5 -21.5s64.5 -34.333 88.5 -60c24 -25.668 42.333 -55.835 55 -90.5c12.667 -34.668 19 -72.335 19 -113
c0 -37.333 -3.16699 -73.5 -9.5 -108.5c-6.33301 -35.002 -13.166 -69.835 -20.499 -104.5c-7.33301 -34.667 -14.166 -69.334 -20.499 -104.001s-9.5 -70.334 -9.5 -107.001c0.00195312 -22.002 3.66895 -42.1689 11 -60.501c7.33301 -18.333 17.833 -34.333 31.5 -48
s30 -24.167 49 -31.5c19 -7.33789 40.167 -11.0049 63.5 -11v-61c-23.334 -0.00683594 -44.501 -3.67383 -63.501 -11c-19.001 -7.33301 -35.334 -17.833 -49 -31.5c-13.667 -13.667 -24.167 -29.667 -31.5 -48s-11 -38.5 -11 -60.5z" />
    <glyph glyph-name="asciitilde" unicode="~" horiz-adv-x="1145" 
d="M771.001 567c24.667 0 47.166 4.50098 67.499 13.501s37.5 21.5 51.5 37.5c14.002 16 24.835 35 32.5 57c7.67383 22 11.5068 46 11.5 72h78c0 -36.667 -5.33301 -70.667 -16 -102c-10.667 -31.334 -26 -58.667 -46 -82c-20.001 -23.334 -44.668 -41.667 -74 -54.999
c-29.334 -13.333 -62.667 -20 -100 -20c-34 0 -68.833 6.5 -104.5 19.5s-71 27.5 -106 43.5s-68.833 30.5 -101.499 43.5c-32.667 13 -63.334 19.5 -92 19.5c-25.333 0 -47.833 -4.5 -67.5 -13.5s-36.5 -21.5 -50.5 -37.5s-24.833 -35 -32.5 -57s-11.834 -46 -12.501 -72
h-77c0 36.667 5.33301 70.667 16 102s26 58.666 46 81.999s44.5 41.666 73.5 54.999s62.167 20 99.5 20c34.667 0 69.834 -6.5 105.501 -19.5s70.834 -27.5 105.5 -43.5c34.667 -16 68.334 -30.5 101 -43.5c32.667 -13 63.334 -19.5 92 -19.5z" />
    <glyph glyph-name="uni00A0" unicode="&#xa0;" horiz-adv-x="386" 
 />
    <glyph glyph-name="exclamdown" unicode="&#xa1;" horiz-adv-x="442" 
d="M178 -352v549.998c0 30 0.333008 58.333 1 85s1.5 53.834 2.5 81.501s2.5 56.834 4.5 87.501s4 64.667 6 102h65c2 -37.334 4 -71.334 6 -102c2 -30.667 3.5 -59.834 4.5 -87.5c1 -27.667 1.83301 -54.834 2.5 -81.5c0.666992 -26.667 1 -55 1 -85v-550h-93zM129 918.998
c0 26.001 8.83301 47.835 26.499 65.501c17.667 17.6729 39.5 26.5059 65.5 26.5c12.667 0 24.667 -2.33301 36 -7c11.334 -4.66699 21.167 -11.167 29.5 -19.5c8.33398 -8.33691 15.001 -18.1699 20 -29.5c5 -11.333 7.5 -23.333 7.5 -36c0 -13.335 -2.5 -25.668 -7.5 -37
c-5 -11.335 -11.667 -21.168 -20 -29.5c-8.33301 -8.33691 -18.166 -15.0039 -29.499 -20.001c-11.333 -5 -23.333 -7.5 -36 -7.5c-26 0 -47.833 9.16699 -65.5 27.5s-26.5 40.5 -26.5 66.5z" />
    <glyph glyph-name="cent" unicode="&#xa2;" horiz-adv-x="931" 
d="M831.981 159.99l25.9961 -31.9883c-15.3496 -20.0117 -34.6816 -38.6807 -57.9961 -56.0078c-23.3428 -17.3477 -49.6768 -32.3486 -79.002 -45.0039c-29.3066 -12.6514 -61.1328 -22.4844 -95.4785 -29.499c-34.3506 -6.99902 -70.1865 -10.4961 -107.509 -10.4922
c-4.29492 0 -10.3672 0.139648 -18.2168 0.419922l-9.98047 -209.422c-0.666992 -8.66309 -3.49512 -15.9961 -8.48438 -21.999c-5.02051 -5.99805 -12.1934 -8.99707 -21.5186 -8.99707h-35.9961l5.80957 117.15l6.47656 129.938
c-32.5674 5.75586 -63.0957 14.8955 -91.585 27.4199c-52.3506 22.9932 -97.3506 56.3252 -135 99.9961c-37.6768 43.6514 -67.0098 97.1494 -87.999 160.494c-21.0059 63.3242 -31.5049 135.32 -31.498 215.989c0 76 10.001 145.332 30.002 207.996
c19.9863 62.6523 49.1484 116.652 87.4863 162c38.3291 45.332 85.3311 80.498 141.005 105.499c41.457 18.6143 87.4951 30.2959 138.114 35.0439l0.194336 2.44922l3.24805 66.5625l6.74219 138.433c0.65332 8.62012 3.48535 16.1201 8.49609 22.501
c5.01855 6.33301 12.1875 9.49902 21.5068 9.49902h35.9971l-6.55762 -131.086l-0.255859 -5.33789l-5.05176 -100.961c24.9893 -1.46973 59.8105 -7.37012 104.464 -17.7021s83.0596 -20.2969 115.218 -29.8945l48.2383 -14.3955v-250.839h-48.6104
c-27.1318 0.00195312 -41.501 16.1504 -43.1084 48.4463c-0.162109 2.81738 -0.932617 10.9775 -2.31152 24.4795c-1.40527 13.502 -3.0957 32.0801 -5.07129 55.7344c-1.97559 23.6553 -3.68457 48.8135 -5.12695 75.4746
c-62.832 22.4902 -118.629 33.8506 -167.391 34.0801l-0.430664 -0.983398l-32.3691 -657.766l-10.6562 -214.114c10.3242 -0.731445 19.7305 -1.09668 28.2188 -1.09668c48.0049 0 88.1719 5.66309 120.501 16.9893c32.3535 11.3311 59.0254 23.665 80.0166 37.002
c20.9365 13.2861 37.5977 25.623 49.9834 37.0107c12.3301 11.3154 22.1631 16.9746 29.499 16.9775c8.65332 0 15.3174 -3.33398 19.9912 -10.001zM280.997 175.496c30.0068 -37.0166 66.3389 -65.1855 108.995 -84.5059c16.0986 -7.29102 32.876 -13.2139 50.332 -17.7676
l43.2715 858.498c-32.9561 -4.75781 -63.3242 -13.5088 -91.1045 -26.2529c-44.3545 -20.3574 -81.6836 -49.5225 -111.986 -87.4961c-30.3467 -37.9951 -53.5146 -83.9922 -69.5029 -137.992c-16.0049 -54 -24.0078 -114.667 -24.0078 -182.001
c0 -70.04 8.16992 -132.032 24.5098 -185.977c16.3232 -54.0068 39.4873 -99.5088 69.4932 -136.506z" />
    <glyph glyph-name="sterling" unicode="&#xa3;" horiz-adv-x="1179" 
d="M74 664c0 10.0029 3.16699 18.3301 9.5 24.9941c6.33301 6.67188 15.166 10.0049 26.499 10h165v294c0.000976562 62.001 8.66797 119.668 26.001 173c17.334 53.335 43.167 99.502 77.5 138.501c34.333 39.0039 77.333 69.6709 129 92.001
c51.667 22.3389 111.5 33.5059 179.5 33.5c50.667 0 95.334 -6.16699 134 -18.5c38.668 -12.333 72.501 -29.166 101.5 -50.499c29.001 -21.333 53.834 -46.333 74.5 -75c20.667 -28.6689 38.334 -59.002 53.001 -91l-38 -22c-6 -3.33301 -13.333 -5 -22 -5
c-11.333 0.00878906 -21.333 5.67578 -30 17c-13.335 20.667 -27.502 40.834 -42.5 60.501c-15 19.667 -32.833 37.167 -53.5 52.5c-20.667 15.3389 -45.334 27.5059 -74.001 36.501c-28.667 9 -63 13.5 -103 13.5c-52 0 -97.5 -8.66699 -136.5 -26
s-71.833 -41.5 -98.499 -72.5c-26.667 -31.002 -46.667 -68.335 -60 -111.999c-13.333 -43.668 -20 -91.835 -20 -144.501v-294h479v-39c0 -7.33301 -2.83301 -13.833 -8.5 -19.5s-12.834 -8.5 -21.501 -8.5h-449v-304c0 -59.333 -12 -109.166 -36 -149.499
s-57 -74.833 -99 -103.5c14.667 2.66699 29.167 4.66699 43.5 6c14.333 1.33398 29.166 2.00098 44.499 2.00098h787v-40c0 -10 -4 -19.667 -12 -29s-18.667 -14 -32 -14h-970v65c22.667 8.66699 44.667 19.667 66 33s40.333 29.666 57 48.999s29.834 42 39.501 68
s14.5 56.333 14.5 91v326h-201v32z" />
    <glyph glyph-name="currency" unicode="&#xa4;" horiz-adv-x="1064" 
d="M189 671c0 41.333 6.66602 80.1631 19.999 116.496c13.334 36.333 32.001 69.5 56.001 99.5l-154 154l49 50l154 -154c30 24 63.333 43 100 57s76 21 118 21c41.333 0 80.166 -6.83301 116.499 -20.5s69.5 -32.5 99.5 -56.5l154 154l49 -50l-153 -153
c24 -30 43 -63.333 57 -100s21 -76 21 -118c0 -41.334 -6.83301 -80.167 -20.5 -116.499c-13.667 -36.333 -32.5 -69.5 -56.5 -99.5l154 -154l-50 -50l-154 154c-30 -24 -63.333 -42.833 -100 -56.499c-36.667 -13.667 -75.667 -20.5 -117 -20.499
c-41.334 0.000976562 -80.167 6.66797 -116.5 20.001c-36.333 13.334 -69.5 32.001 -99.5 56.001l-155 -154l-49 50l154 153c-24 30 -42.833 63.333 -56.499 100c-13.667 36.667 -20.5 76 -20.5 117.999zM260.999 670.997
c0.000976562 -37.333 7.16602 -72.3311 21.499 -104.998s33.666 -61.167 57.999 -85.5c24.334 -24.333 53.001 -43.666 86.001 -57.999s68.167 -21.5 105.5 -21.5c37.333 0.000976562 72.5 7.16797 105.5 21.501c33.001 14.334 61.834 33.667 86.5 57.999
c24.667 24.334 44.167 52.834 58.5 85.5c14.333 32.667 21.5 67.667 21.5 105c-0.00488281 37.333 -7.17188 72.5 -21.5 105.5c-14.333 33.001 -33.833 61.834 -58.5 86.499c-24.667 24.667 -53.5 44.167 -86.5 58.5c-33.001 14.333 -68.168 21.5 -105.5 21.5
c-37.334 -0.00390625 -72.501 -7.1709 -105.5 -21.501c-33 -14.333 -61.667 -33.833 -86 -58.5s-43.666 -53.5 -57.999 -86.5c-14.333 -33.001 -21.5 -68.168 -21.5 -105.501z" />
    <glyph glyph-name="yen" unicode="&#xa5;" horiz-adv-x="1118" 
d="M148.996 616h346.004l-422 799h79c17.333 -0.0166016 30.333 -8.34961 39 -25l346 -665l14.499 -37.5s8.16602 -23.167 11.499 -34.5c6 22 14.667 46 26 72l345 665c3.33301 7.33301 8.16602 13.333 14.499 18s14.166 7 23.499 7h80l-423 -799h347v-58h-366v-118h366v-58
h-366v-382h-95v382h-366v58h366v118h-366v58z" />
    <glyph glyph-name="brokenbar" unicode="&#xa6;" horiz-adv-x="404" 
d="M166 1517h75v-778h-75v778zM166 425h75v-777h-75v777z" />
    <glyph glyph-name="section" unicode="&#xa7;" horiz-adv-x="927" 
d="M763 1291c-4.66699 -8.69629 -12.0029 -13.0312 -22.0029 -13.002c-7.33301 0.0292969 -16.833 4.19629 -28.5 12.5c-11.667 8.34277 -27 17.5098 -46 27.5c-19 10.0098 -42.333 19.1768 -70 27.5c-27.667 8.35352 -61.5 12.5205 -101.5 12.5
c-37.333 0 -71.166 -5.16699 -101.499 -15.5s-56.166 -24.333 -77.499 -42s-37.833 -38.167 -49.5 -61.5s-17.5 -48 -17.499 -74c0 -30.6709 8.33301 -57.3379 25 -80c16.667 -22.667 38.667 -43.167 66 -61.5c27.333 -18.334 58.333 -35.167 93 -50.499l106.5 -47
c36.333 -16.0029 71.833 -33.1699 106.5 -51.501c34.667 -18.3369 65.667 -39.1699 93 -62.5c27.333 -23.334 49.333 -50.501 66 -81.5c16.6699 -31.001 25.0029 -67.168 25 -108.501c0 -55.334 -14 -103.501 -42 -144.501s-69.333 -73.167 -124 -96.5
c36 -25.333 65.167 -54.333 87.5 -87s33.5 -72 33.5 -118c0 -43.333 -7.83301 -83.666 -23.5 -120.999s-38.334 -69.666 -68.001 -96.999s-66.167 -49 -109.5 -65c-43.334 -16 -92.667 -24 -148 -24c-70 0 -130.333 11.167 -181 33.5s-96 51.5 -136 87.5l23 34
c3.33301 5.33301 7 9.33301 11 12s9.66699 4 17 4c8.66699 0 19.334 -5.33301 32 -16c12.667 -10.667 29.334 -22.167 50.001 -34.5s46.334 -23.833 77.001 -34.5s68.667 -16 114 -16c41.333 0 78 5.66699 110 17s59 27 81 47s38.667 43.5 50 70.5s17 56.167 17 87.5
c-0.00292969 34 -8.66992 63.667 -26 89c-17.333 25.333 -40.333 47.833 -69 67.5s-61.167 37.5 -97.5 53.5l-111 48c-37.667 16.001 -74.667 32.668 -111 50.001c-36.333 17.334 -68.833 37.501 -97.5 60.5c-28.667 23.001 -51.667 49.334 -69 79
c-17.334 29.667 -26.001 64.834 -26.001 105.5c0 51.333 15.167 97.5 45.5 138.5c30.333 41.001 79.833 73.834 148.5 98.499c-36.667 24.668 -66.5 53.501 -89.5 86.5c-23 33.0029 -34.5 74.1699 -34.5 123.5c0 36.0039 7.66699 70.1709 23 102.501
c15.333 32.3359 37.166 61.0029 65.499 86.001c28.333 25 62.833 44.833 103.5 59.5s86.334 22 137.001 22c60.667 -0.0166016 114.5 -8.84961 161.5 -26.5c47 -17.667 90.167 -44.167 129.5 -79.5zM178.997 726.998c0 -27.333 6.49902 -51.833 19.499 -73.5
s30.667 -41.334 53 -59.001c22.334 -17.667 48.167 -34 77.5 -49c29.334 -15 60.001 -29.5 92.001 -43.5l97.5 -42.5s64.5 -29.833 94.5 -46.5c47.333 21.334 81.333 48.001 102 80.001c20.6709 32.001 31.0039 68.334 30.999 109c0 30 -6 56.667 -18 80
c-12.001 23.333 -28.168 44.166 -48.5 62.499c-20.334 18.333 -44.001 34.833 -71 49.5c-27 14.6699 -55.5 28.8369 -85.5 42.501l-91.5 39.999c-31 13 -60.833 27.167 -89.499 42.5c-59.333 -25.334 -101.333 -53.667 -126 -84.999c-24.667 -31.334 -37 -67.001 -37 -107z
" />
    <glyph glyph-name="dieresis" unicode="&#xa8;" horiz-adv-x="774" 
d="M300 1284c0 -10.6768 -2.33105 -20.8467 -6.99805 -30.5039c-4.66699 -9.66699 -10.667 -18.167 -18 -25.5c-7.33398 -7.33301 -16.167 -13.166 -26.5 -17.499s-20.833 -6.5 -31.5 -6.5c-10.667 0.0371094 -20.834 2.2041 -30.501 6.50098
c-9.66699 4.34277 -18.334 10.1758 -26.001 17.5c-7.66699 7.33301 -13.667 15.833 -18 25.5s-6.5 19.834 -6.5 30.501c0 11.3379 2.16699 22.0049 6.5 32c4.33301 10 10.333 18.833 18 26.5s16.334 13.667 26.001 18c9.66699 4.375 19.834 6.54199 30.501 6.5
c10.667 0 21.167 -2.16699 31.5 -6.5s19.166 -10.333 26.499 -18c7.33301 -7.68164 13.333 -16.5146 18 -26.499c4.66699 -10 7 -20.667 6.99902 -32zM643.002 1284c0 -10.6768 -2.33203 -20.8457 -6.99902 -30.5029c-4.66699 -9.66699 -10.667 -18.167 -18 -25.5
c-7.33496 -7.33301 -16.168 -13.166 -26.5 -17.499c-10.333 -4.33301 -20.833 -6.5 -31.5 -6.5c-11.333 0.0371094 -21.833 2.2041 -31.5 6.50098c-9.66699 4.34277 -18.334 10.1758 -26 17.5c-7.66699 7.33301 -13.667 15.833 -18 25.5s-6.5 19.834 -6.5 30.501
c0.00292969 11.3379 2.16992 22.0049 6.5 32c4.33301 10 10.333 18.833 18 26.5s16.334 13.667 26.001 18c9.66699 4.375 20.167 6.54199 31.5 6.5c10.667 0 21.167 -2.16699 31.5 -6.5s19.166 -10.333 26.499 -18c7.33301 -7.68164 13.333 -16.5146 18 -26.5
c4.67871 -10 7.01172 -20.667 6.99902 -32z" />
    <glyph glyph-name="copyright" unicode="&#xa9;" horiz-adv-x="1641" 
d="M1094 414c8.0127 6.66699 15.6748 9.99902 22.9961 9.99902c3.33301 0 6.33301 -0.666992 9 -2s4.66699 -2.66602 6 -3.99902l31 -31c-39.333 -39.333 -85.666 -70.666 -138.999 -93.999c-53.334 -23.333 -118.667 -35 -196 -35c-64 0 -122.833 10.833 -176.5 32.5
s-99.667 52.167 -138 91.5c-38.333 39.334 -68.166 86.667 -89.499 142s-32 117 -32 185c0 66.667 11.167 127.667 33.5 183c22.334 55.333 53.501 102.833 93.501 142.5s87.667 70.5 143 92.5s116 33 182 33c34.668 0 66.501 -2.5 95.5 -7.5
c29.001 -5.00879 55.834 -12.3418 80.5 -22c24.667 -9.6709 47.667 -21.3379 69 -35c21.333 -13.6709 42.333 -29.5039 63 -47.5l-24 -33c-4.6748 -7.34473 -11.3418 -11.0117 -20 -11c-6.6748 0.0117188 -15.5078 4.34473 -26.5 13c-11 8.66699 -26.167 18.167 -45.5 28.5
c-19.335 10.333 -44.168 19.833 -74.499 28.5c-30.335 8.66699 -68.168 13 -113.5 13c-55.334 -0.0078125 -105.667 -8.84082 -151 -26.499c-45.334 -17.668 -84.167 -42.835 -116.5 -75.501c-32.334 -32.667 -57.334 -72.334 -75 -119.001
c-17.668 -46.667 -26.501 -99 -26.5 -157c0 -60 8.83301 -113.333 26.5 -160s42.167 -86.167 73.5 -118.5s68.5 -57 111.5 -74s90.167 -25.5 141.5 -25.5c56.667 0 105.5 6.83301 146.5 20.5s79.5 34.5 115.5 62.5zM99 707.999c0 66 8.66699 129.831 26 191.497
c17.333 61.667 41.5 119.167 72.5 172.5c31 53.335 68.5 102.002 112.5 146.001c44 44.0039 92.667 81.6709 146 113.001c53.333 31.3389 110.666 55.6719 171.999 73c61.333 17.3496 125.333 26.0166 192 26c66.667 0 130.667 -8.66699 192 -26
s118.833 -41.666 172.5 -72.999s102.5 -69 146.5 -113s81.5 -92.667 112.5 -146c31.0029 -53.333 55.1699 -110.833 72.5 -172.5c17.3447 -61.667 26.0117 -125.5 26 -191.5c0 -66.667 -8.66699 -130.667 -26 -192s-41.5 -118.666 -72.5 -171.999s-68.5 -102 -112.5 -146
c-44.001 -44 -92.834 -81.667 -146.499 -113c-53.667 -31.333 -111.167 -55.666 -172.5 -72.999s-125.333 -26 -192 -26c-66 0 -129.833 8.66699 -191.5 26s-119.167 41.666 -172.5 72.999s-102 69 -146 113s-81.5 92.667 -112.5 146s-55.167 110.666 -72.5 171.999
s-26 125.333 -26 192zM158 707.997c0 -92.667 17.167 -179.501 51.5 -260.501s81.5 -151.667 141.5 -212s130.167 -107.833 210.5 -142.5s166.5 -52 258.5 -52s178.5 17.333 259.5 52s151.5 82.167 211.5 142.5s107.333 131 142 212s52 167.833 52 260.5
c-0.00585938 92.667 -17.3389 179.5 -52 260.5c-34.668 81 -82.001 151.833 -142 212.5c-60 60.667 -130.5 108.5 -211.5 143.5s-167.5 52.5 -259.5 52.5s-178.167 -17.5 -258.5 -52.5c-80.333 -35.001 -150.5 -82.834 -210.5 -143.499
c-60 -60.668 -107.167 -131.501 -141.5 -212.5c-34.333 -81 -51.5 -167.833 -51.5 -260.5z" />
    <glyph glyph-name="ordfeminine" unicode="&#xaa;" horiz-adv-x="713" 
d="M573 839l-32.0029 -0.00195312c-7.33691 0.0126953 -12.6699 1.3457 -15.999 4c-3.33496 2.66699 -6.66797 7.66699 -9.99902 15l-10 68c-16.667 -15.335 -33.167 -29.002 -49.5 -41c-16.333 -12 -33.333 -22 -51 -30c-17.667 -8.00293 -36.667 -14.1699 -57 -18.5
c-20.333 -4.35254 -42.5 -6.51953 -66.5 -6.5c-22 0 -43 3 -63 9s-37.667 15.167 -53 27.5s-27.666 28 -36.999 47s-14 41.5 -14 67.5c0 24 7 46.833 21 68.5s36.5 40.667 67.5 57c31 16.3379 71.167 29.6709 120.5 40c49.333 10.3506 109 16.1836 179 17.499v51
c0 50.667 -11.333 89.167 -33.999 115.5c-22.667 26.3389 -58.334 39.5059 -107 39.501c-28.667 0 -52.834 -3.66699 -72.501 -11s-36.167 -15.166 -49.5 -23.499s-24.5 -16.166 -33.5 -23.499s-17.167 -11 -24.5 -11c-10 0 -17.333 4.33301 -22 13l-12 23
c32 32 65.667 55.5 101 70.5s75.333 22.5 120 22.5c67.333 0 118.333 -19.5 153 -58.5c34.668 -39 52.001 -91.167 52 -156.5v-376zM299.997 882.998c22 0.0205078 42.332 2.35645 60.999 7.00293c18.667 4.66699 36.167 11.167 52.5 19.5
c16.334 8.33301 31.667 18.166 46 29.499c14.334 11.333 28.501 23.666 42.501 36.999v138c-112 -3.33301 -193.167 -16.333 -243.5 -39c-50.333 -22.6689 -75.5 -52.6689 -75.5 -90c0 -18 3.16699 -33.5 9.5 -46.5c6.33301 -13.002 15 -23.6689 26 -32.001
c11 -8.33301 23.5 -14.333 37.5 -18s28.667 -5.5 44 -5.5z" />
    <glyph glyph-name="guillemotleft" unicode="&#xab;" horiz-adv-x="758" 
d="M101 513v13.001l241 378l30 -15c10.667 -6.66699 16 -15 16 -25c-0.00488281 -8.00293 -2.33789 -15.6699 -7 -23l-183 -293c-8.66699 -13.3359 -16 -23.0029 -22 -29c6.66699 -5.33496 14 -14.668 22 -28l183 -294c4.66699 -7.33398 7 -15.001 7 -23.001
c-0.000976562 -10 -5.33398 -18.333 -16 -25l-30 -15zM356 513.001l0.000976562 13.001l241 378l30 -15c10.6689 -6.66699 16.002 -15 15.999 -25c0 -8.00293 -2.33301 -15.6699 -7 -23l-183 -293c-8.66797 -13.3359 -16.001 -23.0029 -22 -29
c6.66699 -5.33496 14 -14.668 22 -28l183 -294c4.68262 -7.33398 7.01562 -15.001 7 -23.001c0 -10 -5.33301 -18.333 -16 -25l-30 -15z" />
    <glyph glyph-name="logicalnot" unicode="&#xac;" horiz-adv-x="1101" 
d="M124 707h829v-368h-82v295h-747v73z" />
    <glyph glyph-name="uni00AD" unicode="&#xad;" horiz-adv-x="741" 
d="M139 634h465v-81h-465v81z" />
    <glyph glyph-name="registered" unicode="&#xae;" horiz-adv-x="1641" 
d="M99 708c0 66 8.66602 129.832 25.999 191.498c17.333 61.667 41.5 119.167 72.5 172.5c31 53.334 68.5 102.001 112.5 146c44 44.0039 92.667 81.6709 146 113.001c53.333 31.3389 110.666 55.6719 171.999 73c61.333 17.3496 125.333 26.0166 192 26
c66.667 0 130.667 -8.66699 192 -26s118.833 -41.666 172.5 -72.999s102.5 -69 146.5 -113s81.5 -92.667 112.5 -146c31.0029 -53.333 55.1699 -110.833 72.501 -172.5c17.3447 -61.667 26.0117 -125.5 26 -191.5c0 -66.667 -8.66699 -130.667 -26 -192
s-41.5 -118.666 -72.5 -171.999s-68.5 -102 -112.5 -146c-44.001 -44 -92.834 -81.667 -146.499 -113c-53.667 -31.333 -111.167 -55.666 -172.5 -72.999s-125.333 -26 -192 -26c-66 0 -129.833 8.66699 -191.5 26s-119.167 41.666 -172.5 72.999s-102 69 -146 113
s-81.5 92.667 -112.5 146s-55.167 110.666 -72.5 171.999s-26 125.333 -26 192zM157.999 707.999c0 -92.667 17.167 -179.501 51.5 -260.501s81.5 -151.667 141.5 -212s130.167 -107.833 210.5 -142.5s166.5 -52 258.5 -52s178.5 17.333 259.5 52s151.5 82.167 211.5 142.5
s107.333 131 142 212s52 167.833 52 260.5c-0.00585938 92.667 -17.3389 179.5 -52 260.5c-34.668 81 -82.001 151.833 -142 212.5c-60 60.667 -130.5 108.5 -211.5 143.5s-167.5 52.5 -259.5 52.5s-178.167 -17.5 -258.5 -52.5
c-80.333 -35.001 -150.5 -82.834 -210.5 -143.499c-60 -60.668 -107.167 -131.501 -141.5 -212.5c-34.333 -81 -51.5 -167.833 -51.5 -260.5zM637.999 656.998l-0.000976562 -390.997h-85v885h247c102 0 179.167 -19.167 231.5 -57.5
c52.335 -38.333 78.502 -96.833 78.5 -175.5c0 -66.667 -21.5 -121.334 -64.5 -164.001s-103.5 -69.334 -181.5 -80.001c8 -4.66699 15.167 -10.167 21.5 -16.5c6.33301 -6.33594 12.5 -14.1689 18.5 -23.5l285 -368h-80c-6.6748 0 -12.5078 1 -17.499 3
c-5 2 -9.5 6.33301 -13.5 13l-270 351c-5.33594 7.33301 -12.1689 13.166 -20.499 17.499c-8.33496 4.33301 -21.502 6.5 -39.501 6.5h-110zM637.998 721.001h148c80.667 0 140.834 16.167 180.5 48.5c39.6689 32.333 59.502 78.833 59.5 139.5c0 61.333 -18 106 -54 134
s-93.333 42 -172 42h-162v-364z" />
    <glyph glyph-name="macron" unicode="&#xaf;" horiz-adv-x="811" 
d="M133 1317h545v-65h-545v65z" />
    <glyph glyph-name="degree" unicode="&#xb0;" horiz-adv-x="822" 
d="M107 1134c0 41.3359 7.83301 80.168 23.5 116.499c15.667 36.3359 37 68.0029 64 95.001c27 27.0049 58.833 48.1719 95.5 63.5c36.667 15.3438 76 23.0107 118 23c42 0 81.333 -7.66699 118 -23s68.5 -36.5 95.499 -63.5c27.001 -27 48.334 -58.667 64 -95
c15.6709 -36.333 23.5039 -75.166 23.5 -116.499c0 -41.333 -7.83301 -80 -23.5 -116s-37 -67.5 -64 -94.5s-58.833 -48.333 -95.5 -64s-76 -23.5 -118 -23.5c-42 0.00292969 -81.333 7.83594 -117.999 23.499c-36.667 15.668 -68.5 37.001 -95.5 64
c-27 27 -48.333 58.5 -64 94.5c-15.667 36.002 -23.5 74.6689 -23.5 116zM178 1134c0 -32 6.00195 -62 18.002 -90s28.333 -52.333 49 -73s45 -37 73 -49s58 -18 90 -18s62 6 90 18c28 12.002 52.167 28.335 72.5 49c20.333 20.668 36.5 45.001 48.5 73c12 28 18 58 18 90
s-6 62 -18 90c-12.002 28 -28.1689 52.5 -48.501 73.5c-20.334 21 -44.501 37.5 -72.501 49.5s-58 18 -90 18s-62 -6 -90 -18s-52.333 -28.5 -73 -49.5s-37 -45.5 -49 -73.5s-18 -58 -18 -90z" />
    <glyph glyph-name="plusminus" unicode="&#xb1;" horiz-adv-x="1141" 
d="M609 1153v-406h431v-73h-431v-402h-78v402h-430v73h430v406h78zM101 153h939v-73h-939v73z" />
    <glyph glyph-name="twosuperior" unicode="&#xb2;" horiz-adv-x="688" 
d="M548.85 1055.48l22.1416 -0.00585938v-113.482v-42.001h-69.2568h-404.734v24.0078c0 5.32812 1.00098 10.6602 3.00293 15.9951c2.00098 5.33691 5.66602 10.3369 10.9941 15l235.008 236.995c18.5762 18.5938 36.0771 37.2637 52.5039 56.0088
c16.2646 18.5898 30.5967 37.4229 42.9961 56.5c12.3213 18.9971 21.9844 38.4932 28.9883 58.4883c6.99805 20.0068 10.4922 40.6748 10.4824 62.0039c0.00683594 23.3105 -3.82227 43.6436 -11.4873 60.999c-7.66895 17.3262 -18.001 31.6611 -30.9961 43.0049
c-12.9863 11.3174 -28.1514 19.8115 -45.4951 25.4834c-17.3477 5.69727 -35.3477 8.53516 -54 8.51465c-41.3145 -0.00585938 -73.9775 -11.8369 -97.9893 -35.4941c-24.002 -23.668 -42.6709 -53.834 -56.0078 -90.498c-4.6582 -12.6758 -13.6582 -19.0078 -27 -18.9971
c-1.47949 0 -4.14355 0.166992 -7.99219 0.501953c-4.00684 0.371094 -7.00879 0.870117 -9.00684 1.49609l-30.0029 5c9.33496 64.3096 34.668 113.556 76 147.737c41.3252 34.1621 92.9922 51.25 155.001 51.2637c29.3672 0 57.0332 -4.34473 82.998 -13.0342
c26.0264 -8.71484 48.5283 -21.2324 67.5059 -37.5527c18.998 -16.3594 33.999 -36.7227 45.0029 -61.0898c10.9951 -24.377 16.4873 -52.583 16.4766 -84.6172c0.00683594 -26.7158 -4.16016 -51.5908 -12.501 -74.625
c-8.36523 -23.083 -19.5273 -45.1133 -33.4854 -66.0918c-13.999 -21.0166 -30.332 -41.3799 -48.999 -61.0898l-57.9961 -59.5928l-206.993 -210.283c12.6582 3.35059 25.4902 5.85059 38.4961 7.50098c13.0459 1.66016 26.2129 2.49023 39.501 2.49023h234.843
l2.0459 21.1104c0.777344 7.46875 1.35059 13.2129 1.71875 17.2334c0.407227 4.02344 0.652344 7.01172 0.734375 8.96484c1.37891 28.1035 13.8799 42.1553 37.5029 42.1553z" />
    <glyph glyph-name="threesuperior" unicode="&#xb3;" horiz-adv-x="673" 
d="M337.001 1623c29.334 0 56.6641 -4.16992 81.9971 -12.5029c25.334 -8.33301 47.167 -20.333 65.5 -36s32.833 -34.667 43.5 -57c10.6689 -22.333 16.002 -47.833 16 -76.5c0 -44 -12 -80.5 -36 -109.5c-24 -29.0049 -56 -49.8379 -96 -62.5
c48.667 -11.333 85.834 -31 111.501 -59c25.668 -28 38.501 -64 38.5 -108c-0.00195312 -32.002 -6.16895 -60.835 -18.5 -86.5c-12.334 -25.667 -29.167 -47.667 -50.499 -66c-21.333 -18.335 -46.333 -32.502 -75 -42.5c-28.667 -10 -59 -15 -91 -15
c-40 0 -73.5 5 -100.5 15s-49.667 23.5 -68 40.5s-33 36.667 -44 59c-11 22.335 -20.167 45.502 -27.5 69.5l30 13c2.66699 1.33301 5.16699 2.33301 7.5 3s5.16602 1 8.49902 1c5.33301 -0.0332031 10.333 -1.36621 15 -4c4.66699 -2.66699 8 -6.66699 10 -12l3 -8
c2.66699 -8 7.16699 -18.667 13.5 -32c6.33301 -13.335 15.5 -26.168 27.5 -38.499c12 -12.335 27.833 -23.168 47.5 -32.499c19.667 -9.34082 44.5 -14.0078 74.5 -14.001c27.333 0 51.333 4.5 72 13.5s37.834 20.5 51.501 34.5c13.667 14.001 24 29.668 31 47
c7 17.333 10.5 34.333 10.5 51c0 22.0039 -3.5 41.6709 -10.5 59c-7 17.3359 -18.167 32.1689 -33.5 44.5c-15.333 12.333 -35.333 21.833 -60 28.5s-54.667 10 -90 10v49c60.667 1.33789 105.834 14.5049 135.501 39.5c29.667 25 44.5 58.5 44.5 100.5
c0 22.667 -3.66699 42.334 -11 59.001s-17.5 30.5 -30.5 41.5c-13 11.0117 -28 19.1787 -45 24.5c-17 5.35742 -35.167 8.02441 -54.5 8.00098c-42 -0.00585938 -75.167 -10.8389 -99.5 -32.5c-24.333 -21.667 -42.5 -52.167 -54.5 -91.5c-4 -13.333 -12 -20 -24 -20
c-4.66699 0 -12 1 -22 3l-25 4c9.33301 64 34.5 113 75.5 147s91.833 51 152.5 51z" />
    <glyph glyph-name="acute" unicode="&#xb4;" horiz-adv-x="538" 
d="M426 1431l-216.001 -253c-5.33301 -6.66699 -10.833 -11.167 -16.5 -13.5s-12.5 -3.5 -20.499 -3.5h-57l157 238c7.33398 12 15.001 20.333 23 25c8 4.66699 20 7 36 7h94z" />
    <glyph glyph-name="mu" unicode="&#xb5;" horiz-adv-x="1101" 
d="M261 995l0.00292969 -635.999c0 -93.333 21.333 -166.5 64 -219.5s107.667 -79.5 195 -79.5c64.667 0 125 16.5 181 49.5s106.333 78.833 150.999 137.5v748h96v-995h-53c-18.667 0 -28.334 8.66699 -29.001 26l-9 148
c-46.667 -58.667 -98.334 -103.334 -155.001 -134.001s-119 -46 -187 -46c-65.333 0 -120 12.833 -164 38.5s-78.333 62.5 -103 110.5c3.33301 -28.667 5.5 -57.667 6.5 -87s1.5 -56 1.5 -80v-328h-48c-13.333 -0.00195312 -23.833 3.66504 -31.5 11
c-7.66699 7.33203 -11.5 17.665 -11.5 31v1305h96z" />
    <glyph glyph-name="paragraph" unicode="&#xb6;" horiz-adv-x="1309" 
d="M1248 1415v-81.999h-225v-1523h-85v1523h-328v-1523h-86v889c-68.667 0.00390625 -130.334 9.33691 -185.001 28c-54.667 18.667 -101 44.334 -139 77c-38 32.667 -67.167 71.167 -87.5 115.5s-30.5 92.166 -30.5 143.499c0 53.334 10.167 101.667 30.5 144.999
c20.333 43.333 49.5 80.333 87.5 111s84.333 54.334 139 71.001s116.334 25 185.001 25h724z" />
    <glyph glyph-name="periodcentered" unicode="&#xb7;" horiz-adv-x="475" 
d="M138 592c0 14.001 2.66602 27.334 7.99902 40c5.33301 12.667 12.5 23.667 21.5 33s19.5 16.666 31.5 21.999s24.667 8 38 8c14 -0.00488281 27.333 -2.67188 40 -8c12.667 -5.33594 23.667 -12.6689 33 -22c9.33398 -9.33301 16.667 -20.333 22 -33
c5.33496 -12.667 8.00195 -26 8.00098 -40c0 -13.334 -2.66699 -26.167 -8 -38.499c-5.33301 -12.334 -12.666 -23.001 -21.999 -32c-9.33301 -9 -20.333 -16.167 -33 -21.5s-26 -8 -40 -8c-13.333 0.00195312 -26 2.66895 -38 8c-12 5.33496 -22.5 12.502 -31.5 21.501
c-9 9 -16.167 19.667 -21.5 32c-5.33398 12.333 -8.00098 25.166 -8.00098 38.499z" />
    <glyph glyph-name="cedilla" unicode="&#xb8;" horiz-adv-x="574" 
d="M146 -273c3.33301 0.00195312 7.83301 -1.83203 13.5 -5.50098c5.66699 -3.66699 13 -7.66699 22 -12s20.167 -8.33301 33.5 -12c13.334 -3.66309 29.667 -5.49609 49 -5.5c34 0 60.5 7.33301 79.5 22s28.5 34.667 28.5 60c-0.00195312 16.667 -4.33496 30.5 -13 41.5
c-8.66699 11 -21 20.167 -37 27.5s-34.833 13 -56.499 17c-21.667 4 -45.5 7.66699 -71.5 11l42 134h61l-30 -96c59.333 -10.667 104.5 -26 135.5 -46s46.5 -49.667 46.5 -89c0 -20 -4.5 -38 -13.5 -54s-21.667 -29.5 -38 -40.5s-35.833 -19.5 -58.5 -25.5
s-47.334 -9 -74.001 -9c-27.333 0 -54 3.83301 -80 11.5s-47.667 17.834 -65 30.501l10 28c4 8 9.33301 12 16 12z" />
    <glyph glyph-name="onesuperior" unicode="&#xb9;" horiz-adv-x="583" 
d="M127 949h158v540l4 37l-144 -126c-5.33398 -4 -10.667 -6 -16 -6c-7.33301 0 -13.333 3 -18 9l-22 31l211 184h58v-669h147v-49h-378v49z" />
    <glyph glyph-name="ordmasculine" unicode="&#xba;" horiz-adv-x="803" 
d="M400.999 1429c44 0 83.667 -7 119 -21s65.333 -34.167 90 -60.5c24.668 -26.333 43.501 -58 56.5 -95c13 -37 19.5 -78.5 19.5 -124.5s-6.5 -87.5 -19.5 -124.5c-13 -37.001 -31.833 -68.668 -56.5 -95c-24.667 -26.335 -54.667 -46.502 -90 -60.5
c-35.333 -14 -75 -21 -119 -21c-45.333 0 -85.666 7 -120.999 21s-65.5 34.167 -90.5 60.5s-44 58 -57 95s-19.5 78.5 -19.5 124.5s6.5 87.5 19.5 124.5c13 37.002 32 68.6689 57 95c25 26.3389 55.167 46.5059 90.5 60.5c35.333 14 75.666 21 120.999 21zM400.999 885
c69.333 0 121.5 21.499 156.5 64.499s52.5 102.5 52.5 178.5c0 75.335 -17.5 134.668 -52.5 178c-35 43.3359 -87.167 65.0029 -156.5 65c-71.333 0 -124.5 -21.667 -159.5 -65s-52.5 -102.666 -52.5 -177.999c0 -76 17.5 -135.5 52.5 -178.5s88.167 -64.5 159.5 -64.5z" />
    <glyph glyph-name="guillemotright" unicode="&#xbb;" horiz-adv-x="762" 
d="M167 134l-30 15.0039c-11.333 6 -17 14.667 -17 26c0.000976562 7.33301 2.33398 14.666 7 21.999l183 294c4 7.33398 7.83301 13.167 11.5 17.499c3.66699 4.33301 7.16699 7.83301 10.5 10.5c-3.33301 3.33301 -6.83301 7.16602 -10.5 11.499
c-3.66797 4.33301 -7.50098 10.166 -11.5 17.499l-183 293c-4.66699 7.33301 -7 15 -7 23c0 10.6719 5.66699 19.0049 17 25l30 15l241 -378v-13zM422 134.004l-30 15.0039c-11.333 6 -17 14.667 -17 26c0 7.33301 2.33301 14.666 7 21.999l183 294
c4.00488 7.33398 7.83789 13.167 11.5 17.499c3.66699 4.33301 7.16699 7.83301 10.5 10.5c-3.33301 3.33301 -6.83301 7.16602 -10.5 11.499s-7.5 10.166 -11.5 17.499l-183 293c-4.67188 7.33301 -7.00488 15 -7 23c0.000976562 10.6719 5.66797 19.0049 17 25l30 15
l241 -378v-13z" />
    <glyph glyph-name="onequarter" unicode="&#xbc;" horiz-adv-x="1372" 
d="M1196 247l126 0.000976562v-36c0 -10.667 -5.66699 -16 -17 -16h-109v-195h-63v195h-325c-15.3369 0 -23.6699 5.33301 -25 15.999l-6 32l352 472h67v-468zM101 750.001h158v540l4 37l-144 -126c-5.33398 -4 -10.667 -6 -16 -6c-7.33301 0 -13.333 3 -18 9l-22 31
l211 184h58v-669h147v-49h-378v49zM1133 582.001c0 15.333 1 32.667 3 52l-289 -387h286v335zM337 31.002c-7.33301 -12 -15.5 -20.167 -24.5 -24.5s-19.167 -6.5 -30.5 -6.5h-40l800 1380c6.66699 11.3438 14.167 20.0107 22.5 26c8.33789 6 19.1709 9 32.5 9h42z" />
    <glyph glyph-name="onehalf" unicode="&#xbd;" horiz-adv-x="1377" 
d="M1261.85 155.483l22.1396 0.00195312v-113.482v-42.001h-69.2568h-404.734v24.0078c0 5.32812 1.00098 10.6602 3.00293 15.9951c2.00098 5.33691 5.66602 10.3369 10.9941 15l235.008 236.995c18.5762 18.5879 36.0771 37.2578 52.5039 56.0098
c16.2646 18.5898 30.5967 37.4229 42.9961 56.5c12.3301 18.9971 21.9932 38.4932 28.9893 58.4883c6.99805 20.002 10.4922 40.6699 10.4824 62.0039c0.00683594 23.3047 -3.82227 43.6377 -11.4873 60.998c-7.66895 17.3232 -18.001 31.6582 -30.9961 43.0049
c-12.9863 11.3193 -28.1514 19.8135 -45.4951 25.4824c-17.3477 5.67285 -35.3477 8.51074 -54 8.51367c-41.3145 0 -73.9775 -11.8311 -97.9893 -35.4941c-24.002 -23.6641 -42.6709 -53.8301 -56.0078 -90.499c-4.6582 -12.665 -13.6582 -18.9971 -27 -18.9971
c-1.47949 0.015625 -4.14355 0.182617 -7.99219 0.500977c-4.00684 0.328125 -7.00879 0.827148 -9.00684 1.49609l-30.0029 5c9.33594 64.3086 34.6689 113.555 76 147.737c41.3262 34.1621 92.9932 51.25 155.001 51.2637c29.3672 0 57.0332 -4.34473 82.998 -13.0342
c26.0264 -8.70898 48.5283 -21.2266 67.5059 -37.5537c18.9971 -16.3535 33.998 -36.7168 45.0029 -61.0908c10.9951 -24.3779 16.4873 -52.584 16.4766 -84.6182c0.00683594 -26.7158 -4.16016 -51.5908 -12.501 -74.625
c-8.36426 -23.0811 -19.5264 -45.1113 -33.4854 -66.0918c-14.0029 -21.0127 -30.3359 -41.376 -48.999 -61.0898l-57.9961 -59.5938l-206.993 -210.283c12.6582 3.3291 25.4902 5.8291 38.4961 7.50098c13.0498 1.66016 26.2168 2.49023 39.501 2.49023h234.843
l2.0459 21.1104c0.792969 7.46484 1.36621 13.209 1.71875 17.2334c0.431641 4.02344 0.676758 7.01172 0.735352 8.96484c1.37891 28.1035 13.8799 42.1553 37.5029 42.1553zM101 750.002h158v540l4 37l-144 -126c-5.33398 -4 -10.667 -6 -16 -6
c-7.33301 0 -13.333 3 -18 9l-22 31l211 184h58v-669h147v-49h-378v49zM290 31.002c-7.33301 -12 -15.5 -20.167 -24.5 -24.5s-19.167 -6.5 -30.5 -6.5h-40l800 1380c6.66699 11.3438 14.167 20.0107 22.5 26c8.3418 6 19.1748 9 32.5 9h42z" />
    <glyph glyph-name="threequarters" unicode="&#xbe;" horiz-adv-x="1437" 
d="M1261 247l126 0.000976562v-36c0 -10.667 -5.66699 -16 -17 -16h-109v-195h-63v195h-325c-15.3369 0 -23.6699 5.33301 -25 15.999l-6 32l352 472h67v-468zM327.001 1424c29.334 0 56.665 -4.17188 81.998 -12.5049c25.334 -8.33301 47.167 -20.333 65.5 -36
c18.334 -15.667 32.834 -34.667 43.5 -57c10.6689 -22.333 16.002 -47.833 16 -76.5c0 -44 -12 -80.5 -36 -109.5c-24 -29.0059 -56 -49.8389 -96 -62.499c48.667 -11.333 85.834 -31 111.501 -59c25.668 -28 38.501 -64 38.5 -108
c-0.00195312 -32 -6.16895 -60.833 -18.5 -86.5c-12.334 -25.667 -29.167 -47.667 -50.5 -66c-21.333 -18.335 -46.333 -32.502 -75 -42.501c-28.667 -10 -59 -15 -91 -15c-40 0 -73.5 5 -100.5 15s-49.667 23.5 -68 40.5s-33 36.667 -44 59s-20.167 45.5 -27.5 69.5l30 13
c2.66699 1.33301 5.16699 2.33301 7.5 3c2.33398 0.694336 5.16699 1.02734 8.5 1c5.33301 0 10.333 -1.33301 15 -4s8 -6.66699 10 -12l3 -8c2.66699 -8.00195 7.16699 -18.6689 13.5 -32.001c6.33301 -13.335 15.5 -26.168 27.5 -38.5
c12 -12.3359 27.833 -23.1689 47.499 -32.499c19.667 -9.33887 44.5 -14.0059 74.5 -14c27.333 0 51.333 4.5 72 13.5s37.834 20.5 51.501 34.5s24 29.667 31 47s10.5 34.333 10.5 51c0 22 -3.5 41.667 -10.5 59s-18.167 32.166 -33.5 44.499s-35.333 21.833 -60 28.5
s-54.667 10 -90 10v49c60.667 1.33789 105.834 14.5049 135.501 39.501c29.667 25 44.5 58.5 44.5 100.5c0 22.667 -3.66699 42.334 -11 59.001s-17.5 30.5 -30.5 41.5c-13 11.0156 -28 19.1826 -45 24.501c-17 5.35449 -35.167 8.02148 -54.5 8.00098
c-41.333 -0.00488281 -74.333 -11.8379 -99 -35.499c-24.667 -23.667 -43 -53.167 -55 -88.5c-4.66699 -13.333 -12.667 -20 -24 -20h-3c-1.33398 0 -3.50098 0.333008 -6.5 1c-3 0.666992 -7.5 1.33398 -13.5 2.00098s-14 2 -24 4c9.33301 64 34.5 113 75.5 147
s91.833 51 152.5 51zM1198 581.996c0 15.333 1 32.667 3 52l-289 -387h286v335zM409.999 30.9971c-7.33301 -12 -15.5 -20.167 -24.5 -24.5s-19.167 -6.5 -30.5 -6.5h-40l800 1380c6.66699 11.3438 14.167 20.0107 22.5 26c8.33789 6 19.1709 9 32.5 9h42z" />
    <glyph glyph-name="questiondown" unicode="&#xbf;" horiz-adv-x="830" 
d="M759.001 -224c-18 -18 -38.334 -35.335 -61.001 -52.002c-22.667 -16.666 -47.5 -31.499 -74.5 -44.499c-27 -12.999 -56.5 -23.332 -88.5 -31c-32 -7.66504 -66.667 -11.498 -104 -11.5c-46 0 -89.833 6.83301 -131.5 20.5s-78 33.334 -109 59.001s-55.667 57 -74 94
s-27.5 79.167 -27.5 126.5c0 50.667 8 93.834 24 129.501s35.833 66.334 59.5 92.001s49.5 48 77.5 67l79 53.5s45.5 33.667 62.5 51c17.001 17.334 26.168 37.667 27.5 61l11 163h65l6 -170v-5c0 -28 -8 -52 -24 -72s-35.833 -38.667 -59.499 -56
c-23.667 -17.333 -49.5 -34.833 -77.5 -52.5s-53.833 -38 -77.5 -61s-43.5 -50 -59.5 -81s-24 -68.5 -24 -112.5c0 -36 7 -68.167 21 -96.5s33 -52.333 57 -72s51.667 -34.667 83 -45c31.334 -10.333 64.001 -15.5 98.001 -15.5c46 0 84.833 5.83301 116.5 17.5
s58.167 24.667 79.5 39s38 27.333 50 39c12.0039 11.666 21.3369 17.499 28 17.499c6 0.000976562 10.5 -1.16602 13.5 -3.50098c3.00488 -2.33301 5.83789 -5.5 8.49902 -9.5zM372 917.998c0 12.667 2.33105 24.668 6.99805 36.001s11.167 21.166 19.5 29.499
c8.33398 8.33301 18.001 15 29 20c11 5 23.167 7.5 36.5 7.5c12.667 0 24.667 -2.5 36 -7.5c11.334 -5.00391 21.167 -11.6709 29.499 -20c8.33398 -8.33691 15.001 -18.1699 20 -29.5c5 -11.333 7.5 -23.333 7.5 -36c0 -13.335 -2.5 -25.502 -7.5 -36.5
c-5 -11.0049 -11.667 -20.6719 -20 -29c-8.33301 -8.33301 -18.166 -14.833 -29.499 -19.5s-23.333 -7 -36 -7c-26 0.00488281 -47.833 8.83789 -65.499 26.5c-17.667 17.668 -26.5 39.501 -26.499 65.5z" />
    <glyph glyph-name="Agrave" unicode="&#xc0;" 
d="M1427.15 86.2266c25.749 -2.91992 38.6279 -16.2979 38.6387 -40.1348v-46.0391h-65.4141h-40.5977h-38.3945h-13.2695h-187.565v46.0391c0.00195312 25.6846 15.293 39.2891 45.874 40.8125c2.7334 0.133789 6.87988 0.427734 12.4395 0.880859
c5.56152 0.455078 14.958 1.11621 28.1895 1.98242c13.2363 0.871094 30.1191 1.84668 50.6494 2.92578l-140.309 345.334l-10.1025 25.6162h-674.427l-10.4512 -25.6162l-139.478 -345.324c20.5889 -1.0791 37.5029 -2.05273 50.7422 -2.91992
c13.2354 -0.87207 22.6504 -1.53613 28.2451 -1.99316c5.59473 -0.458984 9.74316 -0.753906 12.4443 -0.885742c30.583 -1.50977 45.874 -15.1143 45.874 -40.8125v-46.0391h-187.565h-14.2627h-37.4004h-40.5977h-65.415v46.0391
c0 23.8057 12.8389 37.1807 38.5176 40.125l64.6875 6.48535l541.178 1322.31h102.006l541.076 -1322.31zM742.396 1228l-278.637 -688.361h613.265l-278.628 689.365c-4.65234 11.2441 -9.32129 24.0732 -14.0078 38.4873
c-4.82227 14.8232 -9.4873 29.9912 -13.9961 45.5049c-4.63184 -15.8926 -9.29785 -31.0576 -13.998 -45.4951c-4.6084 -14.1641 -9.27441 -27.3311 -13.998 -39.501zM588.393 1770c16 0 27.834 -1.49902 35.501 -4.49902c7.66699 -3.01367 16.167 -8.84668 25.5 -17.5
l228 -206h-71c-8.00293 0.046875 -14.6699 0.713867 -20.001 2c-5.33301 1.35645 -11.333 4.68945 -18 9.99902l-293 216h113z" />
    <glyph glyph-name="Aacute" unicode="&#xc1;" 
d="M1427.15 86.2266c25.749 -2.91992 38.6279 -16.2979 38.6387 -40.1348v-46.0391h-65.4141h-40.5977h-38.3945h-13.2695h-187.565v46.0391c0.00195312 25.6846 15.293 39.2891 45.874 40.8125c2.7334 0.133789 6.87988 0.427734 12.4395 0.880859
c5.56152 0.455078 14.958 1.11621 28.1895 1.98242c13.2363 0.871094 30.1191 1.84668 50.6494 2.92578l-140.309 345.334l-10.1025 25.6162h-674.427l-10.4512 -25.6162l-139.478 -345.324c20.5889 -1.0791 37.5029 -2.05273 50.7422 -2.91992
c13.2354 -0.87207 22.6504 -1.53613 28.2451 -1.99316c5.59473 -0.458984 9.74316 -0.753906 12.4443 -0.885742c30.583 -1.50977 45.874 -15.1143 45.874 -40.8125v-46.0391h-187.565h-14.2627h-37.4004h-40.5977h-65.415v46.0391
c0 23.8057 12.8389 37.1807 38.5176 40.125l64.6875 6.48535l541.178 1322.31h102.006l541.076 -1322.31zM742.396 1228l-278.637 -688.361h613.265l-278.628 689.365c-4.65234 11.2441 -9.32129 24.0732 -14.0078 38.4873
c-4.82227 14.8232 -9.4873 29.9912 -13.9961 45.5049c-4.63184 -15.8926 -9.29785 -31.0576 -13.998 -45.4951c-4.6084 -14.1641 -9.27441 -27.3311 -13.998 -39.501zM1058.39 1770l-291.999 -216c-6.66699 -4.71387 -12.834 -7.88086 -18.501 -9.5
c-5.66699 -1.71387 -12.5 -2.54688 -20.5 -2.5h-70l227 206c9.33301 8.66699 18 14.5 26 17.5s20 4.5 36 4.5h112z" />
    <glyph glyph-name="Acircumflex" unicode="&#xc2;" 
d="M1427.15 86.2266c25.749 -2.91992 38.6279 -16.2979 38.6387 -40.1348v-46.0391h-65.4141h-40.5977h-38.3945h-13.2695h-187.565v46.0391c0.00195312 25.6846 15.293 39.2891 45.874 40.8125c2.7334 0.133789 6.87988 0.427734 12.4395 0.880859
c5.56152 0.455078 14.958 1.11621 28.1895 1.98242c13.2363 0.871094 30.1191 1.84668 50.6494 2.92578l-140.309 345.334l-10.1025 25.6162h-674.427l-10.4512 -25.6162l-139.478 -345.324c20.5889 -1.0791 37.5029 -2.05273 50.7422 -2.91992
c13.2354 -0.87207 22.6504 -1.53613 28.2451 -1.99316c5.59473 -0.458984 9.74316 -0.753906 12.4443 -0.885742c30.583 -1.50977 45.874 -15.1143 45.874 -40.8125v-46.0391h-187.565h-14.2627h-37.4004h-40.5977h-65.415v46.0391
c0 23.8057 12.8389 37.1807 38.5176 40.125l64.6875 6.48535l541.178 1322.31h102.006l541.076 -1322.31zM742.396 1228l-278.637 -688.361h613.265l-278.628 689.365c-4.65234 11.2441 -9.32129 24.0732 -14.0078 38.4873
c-4.82227 14.8232 -9.4873 29.9912 -13.9961 45.5049c-4.63184 -15.8926 -9.29785 -31.0576 -13.998 -45.4951c-4.6084 -14.1641 -9.27441 -27.3311 -13.998 -39.501zM1049.39 1542h-73.002c-5.33691 0 -11.1699 0.833008 -17.5 2.5
c-6.33301 1.66699 -11.833 4.16699 -16.5 7.5l-156 123c-5.34082 4 -9.00781 7 -11 9l-5 5c-1.34277 -1.33301 -3.17578 -3 -5.49902 -5c-2.33789 -2 -6.1709 -5 -11.499 -9l-157 -123c-4.66797 -3.33301 -10.001 -5.83301 -16 -7.5c-6 -1.71387 -11.667 -2.54688 -17 -2.5
h-74l235 199h90z" />
    <glyph glyph-name="Atilde" unicode="&#xc3;" 
d="M1427.15 86.2266c25.749 -2.91992 38.6279 -16.2979 38.6387 -40.1348v-46.0391h-65.4141h-40.5977h-38.3945h-13.2695h-187.565v46.0391c0.00195312 25.6846 15.293 39.2891 45.874 40.8125c2.7334 0.133789 6.87988 0.427734 12.4395 0.880859
c5.56152 0.455078 14.958 1.11621 28.1895 1.98242c13.2363 0.871094 30.1191 1.84668 50.6494 2.92578l-140.309 345.334l-10.1025 25.6162h-674.427l-10.4512 -25.6162l-139.478 -345.324c20.5889 -1.0791 37.5029 -2.05273 50.7422 -2.91992
c13.2354 -0.87207 22.6504 -1.53613 28.2451 -1.99316c5.59473 -0.458984 9.74316 -0.753906 12.4443 -0.885742c30.583 -1.50977 45.874 -15.1143 45.874 -40.8125v-46.0391h-187.565h-14.2627h-37.4004h-40.5977h-65.415v46.0391
c0 23.8057 12.8389 37.1807 38.5176 40.125l64.6875 6.48535l541.178 1322.31h102.006l541.076 -1322.31zM742.396 1228l-278.637 -688.361h613.265l-278.628 689.365c-4.65234 11.2441 -9.32129 24.0732 -14.0078 38.4873
c-4.82227 14.8232 -9.4873 29.9912 -13.9961 45.5049c-4.63184 -15.8926 -9.29785 -31.0576 -13.998 -45.4951c-4.6084 -14.1641 -9.27441 -27.3311 -13.998 -39.501zM889.393 1616c28.001 0.0126953 49.335 9.1748 64.001 27.4961c14.668 18.333 22.335 41.833 23 70.5h54
c0 -23.333 -3 -44.833 -9 -64.5c-6.00391 -19.6729 -14.6709 -37.0059 -26.001 -52c-11.333 -15 -25.833 -26.667 -43.5 -35s-37.834 -12.5 -60.501 -12.5c-22 0 -43 5.33301 -63 16s-39.333 22.167 -58 34.5l-54.501 34.5s-35.5 16 -53.5 16
c-28 -0.0185547 -49.167 -9.35156 -63.5 -27.999c-14.333 -18.6699 -22.166 -42.0029 -23.499 -70h-56c0.00195312 22.667 3.16895 44 9.50098 64c6.33496 20 15.502 37.5 27.501 52.5c12.001 15.0068 26.668 26.6738 44.001 35.001c17.334 8.35938 37.334 12.5264 60 12.5
c22.667 -0.0126953 44 -5.3457 63.999 -15.999c20.001 -10.667 39.334 -22.167 57.999 -34.5l54 -34.5c17.333 -10.6787 35 -16.0117 53 -15.999z" />
    <glyph glyph-name="Adieresis" unicode="&#xc4;" 
d="M1427.15 86.2266c25.749 -2.91992 38.6279 -16.2979 38.6387 -40.1348v-46.0391h-65.4141h-40.5977h-38.3945h-13.2695h-187.565v46.0391c0.00195312 25.6846 15.293 39.2891 45.874 40.8125c2.7334 0.133789 6.87988 0.427734 12.4395 0.880859
c5.56152 0.455078 14.958 1.11621 28.1895 1.98242c13.2363 0.871094 30.1191 1.84668 50.6494 2.92578l-140.309 345.334l-10.1025 25.6162h-674.427l-10.4512 -25.6162l-139.478 -345.324c20.5889 -1.0791 37.5029 -2.05273 50.7422 -2.91992
c13.2354 -0.87207 22.6504 -1.53613 28.2451 -1.99316c5.59473 -0.458984 9.74316 -0.753906 12.4443 -0.885742c30.583 -1.50977 45.874 -15.1143 45.874 -40.8125v-46.0391h-187.565h-14.2627h-37.4004h-40.5977h-65.415v46.0391
c0 23.8057 12.8389 37.1807 38.5176 40.125l64.6875 6.48535l541.178 1322.31h102.006l541.076 -1322.31zM742.396 1228l-278.637 -688.361h613.265l-278.628 689.365c-4.65234 11.2441 -9.32129 24.0732 -14.0078 38.4873
c-4.82227 14.8232 -9.4873 29.9912 -13.9961 45.5049c-4.63184 -15.8926 -9.29785 -31.0576 -13.998 -45.4951c-4.6084 -14.1641 -9.27441 -27.3311 -13.998 -39.501zM642.393 1665c0 -10.6729 -2.33594 -20.8438 -7.00293 -30.5039
c-4.66699 -9.67871 -10.667 -18.0117 -18 -24.999c-7.33301 -7 -16 -12.667 -26 -17c-10.001 -4.33301 -20.334 -6.5 -30.999 -6.5c-10.667 0.0488281 -20.834 2.21582 -30.5 6.50098c-9.66699 4.3457 -18.167 10.0127 -25.5 17.001c-7.33301 7 -13.166 15.333 -17.499 25
s-6.5 19.834 -6.5 30.501c0.00390625 10.667 2.1709 21 6.5 31c4.33496 10 10.168 18.833 17.5 26.5c7.33301 7.66699 15.833 13.667 25.5 18c9.66699 4.38672 19.834 6.55371 30.501 6.5c10.667 0 21 -2.16699 31 -6.5c10.001 -4.33301 18.668 -10.333 26 -18
c7.33301 -7.68652 13.333 -16.5195 18 -26.5c4.67871 -10.0195 7.01172 -20.3525 7 -31zM1058.39 1665c-0.0214844 -10.6729 -2.1875 -20.8438 -6.49902 -30.5039c-4.33301 -9.67871 -10.333 -18.0117 -18 -24.999c-7.66699 -7 -16.334 -12.667 -26.001 -17
s-19.834 -6.5 -30.501 -6.5c-11.333 0.0488281 -21.833 2.21582 -31.5 6.50098c-9.66699 4.3457 -18.167 10.0127 -25.5 17.001c-7.33887 7 -13.1719 15.333 -17.499 25c-4.35059 9.66699 -6.51758 19.834 -6.5 30.501c0 22.0098 8 41.1768 24 57.5
c16 16.3535 35 24.5205 57 24.5c10.6699 0 20.8369 -2.16699 30.5 -6.5c9.66797 -4.33301 18.335 -10.333 26 -18c7.66699 -7.68652 13.667 -16.5195 18 -26.5c4.33301 -10.0195 6.5 -20.3525 6.5 -31z" />
    <glyph glyph-name="Aring" unicode="&#xc5;" 
d="M1427.15 86.2266c25.749 -2.91992 38.6279 -16.2979 38.6387 -40.1348v-46.0391h-65.4141h-40.5977h-38.3945h-13.2695h-187.565v46.0391c0.00195312 25.6846 15.293 39.2891 45.874 40.8125c2.7334 0.133789 6.87988 0.427734 12.4395 0.880859
c5.56152 0.455078 14.958 1.11621 28.1895 1.98242c13.2363 0.871094 30.1191 1.84668 50.6494 2.92578l-140.309 345.334l-10.1025 25.6162h-674.427l-10.4512 -25.6162l-139.478 -345.324c20.5889 -1.0791 37.5029 -2.05273 50.7422 -2.91992
c13.2354 -0.87207 22.6504 -1.53613 28.2451 -1.99316c5.59473 -0.458984 9.74316 -0.753906 12.4443 -0.885742c30.583 -1.50977 45.874 -15.1143 45.874 -40.8125v-46.0391h-187.565h-14.2627h-37.4004h-40.5977h-65.415v46.0391
c0 23.8057 12.8389 37.1807 38.5176 40.125l64.6875 6.48535l541.178 1322.31h102.006l541.076 -1322.31zM742.396 1228l-278.637 -688.361h613.265l-278.628 689.365c-4.65234 11.2441 -9.32129 24.0732 -14.0078 38.4873
c-4.82227 14.8232 -9.4873 29.9912 -13.9961 45.5049c-4.63184 -15.8926 -9.29785 -31.0576 -13.998 -45.4951c-4.6084 -14.1641 -9.27441 -27.3311 -13.998 -39.501zM602.393 1630c0 22.667 4.50098 43.8311 13.501 63.498s21 36.5 36 50.5s32.667 25 53 33
s41.833 12 64.5 12s44.334 -4 65 -12c20.6689 -8 38.502 -19 53.5 -33c15 -14.0098 27 -30.8428 36 -50.499c9 -19.6797 13.5 -40.8467 13.5 -63.501c0 -23.333 -4.5 -44.666 -13.5 -63.999s-21 -36 -36 -50c-15 -14.0059 -32.833 -24.8389 -53.5 -32.5
c-20.667 -7.7002 -42.334 -11.5332 -65.001 -11.499c-22.667 0 -44.167 3.83301 -64.5 11.5c-20.335 7.66699 -38.002 18.5 -53 32.5c-15 14.0088 -27 30.6758 -36 50c-9 19.3398 -13.5 40.6729 -13.5 64zM655.394 1630c0 -33.333 10.6699 -60.667 32.0029 -82
s49 -32 83 -32c33.333 0.00585938 60.666 10.6729 81.999 32c21.333 21.3359 32 48.6689 32 81.999c-0.00195312 33.3369 -10.6689 60.6699 -32.001 82c-21.334 21.3398 -48.667 32.0068 -82 32c-34.001 0 -61.668 -10.667 -83.001 -32
c-21.334 -21.333 -32.001 -48.666 -32 -81.999z" />
    <glyph glyph-name="AE" unicode="&#xc6;" horiz-adv-x="1996" 
d="M912.907 1415l955.544 -0.0126953v-84.9961v-208.007h-48.6104c-27.1299 0 -41.499 16.1484 -43.1074 48.4453l-7.90039 159.572h-715.361l72.0029 -571.98h561.293v-83.0078h-550.288l74.9854 -589.983h557.368c0.896484 17.126 2.04785 40.3789 3.45312 69.7588
c1.50488 29.3809 2.5625 50.7285 3.17188 64.042l1.27539 25.7607c1.6084 32.3047 15.9775 48.457 43.1074 48.457h48.6104v-208.018v-84.9961h-720.751h-21.2314h-147.245v39.8076c0 22.2119 13.2217 33.9756 39.665 35.291
c2.77344 0.136719 7.93457 0.3125 15.4834 0.527344l33.875 1.01953c15.0352 0.46875 31.1055 1.01855 48.2109 1.65039l-45.9873 359.699h-595.987l-189.82 -345.364c20.3945 -1.07617 37.1533 -2.04492 50.2754 -2.90527
c13.1221 -0.864258 22.4648 -1.52344 28.0283 -1.97754c5.56152 -0.458984 9.69434 -0.754883 12.3984 -0.886719c30.584 -1.50879 45.876 -15.1133 45.876 -40.8125v-46.0381h-187.565h-28.1885h-23.4756h-55.5166h-50.4951v46.0381
c0 23.8066 12.8428 37.1816 38.5273 40.126l63.0889 6.32227l687.91 1244.76c-13.6826 0.522461 -26.8271 0.953125 -39.4336 1.29102l-28.4805 0.850586c-6.37988 0.18457 -10.8887 0.341797 -13.5264 0.47168c-26.4434 1.31152 -39.665 13.0742 -39.665 35.2891v39.8086
h164.061h4.42578zM1060.48 514.025l-104.985 822.973c-5.33887 -17.3135 -11.3438 -33.6465 -18.0146 -48.999l-20.9971 -45.998l-399.979 -727.976h543.976z" />
    <glyph glyph-name="Ccedilla" unicode="&#xc7;" horiz-adv-x="1287" 
d="M1204 230.975l39.9697 -42.9746c-29.3184 -31.3135 -61.3184 -59.4785 -96 -84.4951c-34.666 -25.002 -72.4971 -46.332 -113.493 -63.9912c-41.04 -17.6943 -86.043 -31.3633 -135.009 -41.0068c-45.0986 -8.8916 -95.1875 -13.6396 -150.268 -14.2432
l-2.42871 -7.49023l-20.7803 -67.7607c59.2979 -10.6416 104.465 -25.9707 135.501 -45.9873c30.998 -20.0225 46.501 -49.6904 46.5098 -89.0039c-0.0146484 -20.001 -4.5166 -38.0039 -13.5059 -54.0088c-9.0127 -16.0059 -21.6777 -29.5039 -37.9951 -40.4941
c-16.333 -10.9932 -35.8359 -19.4941 -58.5088 -25.5029c-22.6787 -5.99805 -47.3525 -8.99707 -74.0215 -8.99707c-27.3018 0 -53.957 3.83594 -79.9658 11.5078c-26.002 7.66309 -47.6738 17.8281 -65.0156 30.4941l10.0107 28.0039
c3.99902 7.99219 9.33398 11.9883 16.0049 11.9883c3.33594 0 7.83398 -1.83105 13.4951 -5.49219c5.55566 -3.59863 12.8857 -7.60156 21.9893 -12.0088c8.99316 -4.32227 20.1621 -8.32227 33.5068 -11.999c13.3799 -3.66113 29.71 -5.49219 48.9893 -5.49219
c34.0088 0 60.5098 7.33301 79.5029 22c18.9971 14.6631 28.4961 34.6611 28.4961 59.9941c0 16.6611 -4.33398 30.4902 -13.0029 41.4873c-8.66211 11.0049 -20.9893 20.1719 -36.9814 27.502c-15.9639 7.32422 -34.8105 12.9941 -56.541 17.0098
c-21.9033 4.03125 -45.7305 7.69629 -71.4814 10.9951l35.9043 114.66c-79.4912 4.85156 -152.956 21.4609 -220.395 49.8291c-81.6768 34.3271 -151.675 82.9922 -209.995 145.995c-58.3574 63.0205 -103.853 139.184 -136.486 228.49
c-32.6729 89.3311 -49.0098 188.662 -49.0098 297.994c0 107.327 16.835 205.323 50.5059 293.988c33.6504 88.6543 80.9795 164.817 141.988 228.49c60.999 63.6523 133.996 112.983 218.992 147.993c85.0068 35.0029 178.839 52.5039 281.497 52.5039
c132.394 0 283.023 -33.8008 451.889 -101.401v-319.123h-48.6104c-27.1396 0 -41.5088 16.1484 -43.1074 48.4463l-10.707 216.144c-104.104 45.293 -220.589 67.9385 -349.453 67.9355c-86 0 -164.998 -14.834 -236.995 -44.501
c-72.0303 -29.7002 -134.026 -72.0361 -185.987 -127.008c-51.9922 -55.0039 -92.4902 -121.669 -121.494 -199.995c-28.998 -78.3457 -43.4971 -166.177 -43.4971 -263.493c0 -100.026 14.332 -189.356 42.9951 -267.991
c28.6602 -78.6738 68.3252 -145.172 118.995 -199.493c50.6484 -54.3262 110.482 -95.9893 179.502 -124.988c68.9912 -29.0049 143.822 -43.5078 224.494 -43.5078c50.6592 0 95.8262 3.33398 135.501 10.001c39.6562 6.66016 76.1553 16.6641 109.497 30.0127
c33.3574 13.3301 64.3535 29.6602 92.9883 48.9893c28.707 19.3604 57.043 42.0264 85.0078 67.9971c3.33496 2.66406 6.50098 4.83301 9.49902 6.50586c3.01465 1.66699 6.50879 2.50098 10.4824 2.50098c6.67383 0 12.3477 -2.33594 17.0215 -7.00879z" />
    <glyph glyph-name="Egrave" unicode="&#xc8;" horiz-adv-x="1244" 
d="M268.476 1415l847.978 -0.0126953v-84.9961v-208.008h-48.6104c-27.1289 0 -41.498 16.1484 -43.1074 48.4463l-7.90137 159.572h-645.346v-571.98h562.963v-83.0078h-562.963v-589.983h645.346l3.4541 69.7588l3.16992 64.042
c0.688477 13.3135 1.11426 21.9004 1.27734 25.7598c1.6084 32.3047 15.9775 48.457 43.1074 48.457h48.6104v-208.018v-84.9971h-847.975h-168.476v39.8086c0 22.2129 13.2217 33.9766 39.665 35.29c2.9248 0.145508 9.25391 0.354492 18.9863 0.626953
c9.73145 0.272461 24.5225 0.732422 44.373 1.37988c19.8506 0.648438 41.667 1.44531 65.4492 2.39062v1255.98c-23.7871 0.948242 -45.6025 1.74609 -65.4453 2.39355c-19.8428 0.688477 -34.6357 1.14746 -44.3789 1.37695
c-9.74316 0.270508 -16.0723 0.478516 -18.9873 0.624023c-26.4434 1.31934 -39.665 13.083 -39.665 35.291v39.8086h168.476zM520.489 1770c16 0 27.834 -1.5 35.501 -4.5c7.66699 -3.01367 16.167 -8.84668 25.5 -17.5l228 -206h-71
c-8.00293 0.046875 -14.6699 0.713867 -20.001 2c-5.33301 1.35742 -11.333 4.69043 -18 10l-293 216h113z" />
    <glyph glyph-name="Eacute" unicode="&#xc9;" horiz-adv-x="1244" 
d="M268.476 1415l847.978 -0.0126953v-84.9961v-208.008h-48.6104c-27.1289 0 -41.498 16.1484 -43.1074 48.4463l-7.90137 159.572h-645.346v-571.98h562.963v-83.0078h-562.963v-589.983h645.346l3.4541 69.7588l3.16992 64.042
c0.688477 13.3135 1.11426 21.9004 1.27734 25.7598c1.6084 32.3047 15.9775 48.457 43.1074 48.457h48.6104v-208.018v-84.9971h-847.975h-168.476v39.8086c0 22.2129 13.2217 33.9766 39.665 35.29c2.9248 0.145508 9.25391 0.354492 18.9863 0.626953
c9.73145 0.272461 24.5225 0.732422 44.373 1.37988c19.8506 0.648438 41.667 1.44531 65.4492 2.39062v1255.98c-23.7871 0.948242 -45.6025 1.74609 -65.4453 2.39355c-19.8428 0.688477 -34.6357 1.14746 -44.3789 1.37695
c-9.74316 0.270508 -16.0723 0.478516 -18.9873 0.624023c-26.4434 1.31934 -39.665 13.083 -39.665 35.291v39.8086h168.476zM990.489 1770l-291.999 -216c-6.66699 -4.71387 -12.834 -7.88086 -18.501 -9.5c-5.66699 -1.71387 -12.5 -2.54688 -20.5 -2.5h-70l227 206
c9.33301 8.66699 18 14.5 26 17.5s20 4.5 36 4.5h112z" />
    <glyph glyph-name="Ecircumflex" unicode="&#xca;" horiz-adv-x="1244" 
d="M268.476 1415l847.978 -0.0126953v-84.9961v-208.008h-48.6104c-27.1289 0 -41.498 16.1484 -43.1074 48.4463l-7.90137 159.572h-645.346v-571.98h562.963v-83.0078h-562.963v-589.983h645.346l3.4541 69.7588l3.16992 64.042
c0.688477 13.3135 1.11426 21.9004 1.27734 25.7598c1.6084 32.3047 15.9775 48.457 43.1074 48.457h48.6104v-208.018v-84.9971h-847.975h-168.476v39.8086c0 22.2129 13.2217 33.9766 39.665 35.29c2.9248 0.145508 9.25391 0.354492 18.9863 0.626953
c9.73145 0.272461 24.5225 0.732422 44.373 1.37988c19.8506 0.648438 41.667 1.44531 65.4492 2.39062v1255.98c-23.7871 0.948242 -45.6025 1.74609 -65.4453 2.39355c-19.8428 0.688477 -34.6357 1.14746 -44.3789 1.37695
c-9.74316 0.270508 -16.0723 0.478516 -18.9873 0.624023c-26.4434 1.31934 -39.665 13.083 -39.665 35.291v39.8086h168.476zM981.489 1542h-73.002c-5.33691 0 -11.1699 0.833008 -17.5 2.5c-6.33301 1.66699 -11.833 4.16699 -16.5 7.5l-156 123
c-5.33789 4 -9.00488 7 -11 9l-5 5c-1.34277 -1.33301 -3.17578 -3 -5.49902 -5c-2.33789 -2 -6.1709 -5 -11.499 -9l-157 -123c-4.66797 -3.33301 -10.001 -5.83301 -16 -7.5c-6 -1.71387 -11.667 -2.54688 -17 -2.5h-74l235 199h90z" />
    <glyph glyph-name="Edieresis" unicode="&#xcb;" horiz-adv-x="1244" 
d="M268.476 1415l847.978 -0.0126953v-84.9961v-208.008h-48.6104c-27.1289 0 -41.498 16.1484 -43.1074 48.4463l-7.90137 159.572h-645.346v-571.98h562.963v-83.0078h-562.963v-589.983h645.346l3.4541 69.7588l3.16992 64.042
c0.688477 13.3135 1.11426 21.9004 1.27734 25.7598c1.6084 32.3047 15.9775 48.457 43.1074 48.457h48.6104v-208.018v-84.9971h-847.975h-168.476v39.8086c0 22.2129 13.2217 33.9766 39.665 35.29c2.9248 0.145508 9.25391 0.354492 18.9863 0.626953
c9.73145 0.272461 24.5225 0.732422 44.373 1.37988c19.8506 0.648438 41.667 1.44531 65.4492 2.39062v1255.98c-23.7871 0.948242 -45.6025 1.74609 -65.4453 2.39355c-19.8428 0.688477 -34.6357 1.14746 -44.3789 1.37695
c-9.74316 0.270508 -16.0723 0.478516 -18.9873 0.624023c-26.4434 1.31934 -39.665 13.083 -39.665 35.291v39.8086h168.476zM574.489 1665c0 -10.6729 -2.33691 -20.8428 -7.00391 -30.5029c-4.66699 -9.67871 -10.667 -18.0117 -18 -24.999
c-7.33301 -7 -16 -12.667 -26 -17c-10.001 -4.33301 -20.334 -6.5 -30.999 -6.5c-10.667 0.0488281 -20.834 2.21582 -30.5 6.50098c-9.66699 4.3457 -18.167 10.0127 -25.5 17c-7.33301 7 -13.166 15.333 -17.499 25s-6.5 19.834 -6.5 30.501
c0.00292969 10.667 2.16992 21 6.50098 31c4.33496 10 10.168 18.833 17.5 26.5c7.33301 7.66699 15.833 13.667 25.5 18c9.66699 4.38672 19.834 6.55371 30.501 6.5c10.667 0 21 -2.16699 31 -6.5c10.001 -4.33301 18.668 -10.333 26 -18
c7.33301 -7.68652 13.333 -16.5195 18 -26.5c4.6748 -10.0195 7.00781 -20.3525 7 -31zM990.485 1665c-0.0146484 -10.6729 -2.17969 -20.8438 -6.49902 -30.5039c-4.33301 -9.67871 -10.333 -18.0117 -18 -24.999c-7.66699 -7 -16.334 -12.667 -26.001 -17
s-19.834 -6.5 -30.501 -6.5c-11.333 0.0488281 -21.833 2.21582 -31.5 6.50098c-9.66699 4.3457 -18.167 10.0127 -25.5 17.001c-7.33887 7 -13.1719 15.333 -17.499 25c-4.34473 9.66699 -6.51172 19.834 -6.5 30.501c0 22.0098 8 41.1768 24 57.5
c16 16.3535 35 24.5205 57 24.5c10.668 0 20.835 -2.16699 30.5 -6.5c9.66797 -4.33301 18.335 -10.333 26 -18c7.66699 -7.68652 13.667 -16.5195 18 -26.5c4.33301 -10.0195 6.5 -20.3525 6.5 -31z" />
    <glyph glyph-name="Igrave" unicode="&#xcc;" horiz-adv-x="613" 
d="M481.824 1339.9c-2.85156 -0.178711 -9.18262 -0.385742 -18.9863 -0.617188c-9.80371 -0.272461 -24.6006 -0.732422 -44.3906 -1.37988l-65.4473 -2.3916v-1255.99c23.8047 -0.949219 45.6221 -1.74707 65.4521 -2.39355
c19.8301 -0.648438 34.6201 -1.10742 44.3701 -1.37793s16.083 -0.478516 19 -0.624023c26.4365 -1.31348 39.6543 -13.0771 39.6543 -35.29v-39.8086h-168.476h-103h-168.476v39.8086c0 22.2129 13.2178 33.9766 39.6543 35.29
c2.92676 0.145508 9.25781 0.354492 18.9932 0.626953s24.5273 0.732422 44.377 1.37988c19.8506 0.648438 41.668 1.44531 65.4521 2.39062v1255.98c-23.7881 0.948242 -45.6035 1.74609 -65.4453 2.39355c-19.8408 0.647461 -34.6348 1.10645 -44.3818 1.37793
c-9.74707 0.270508 -16.0781 0.478516 -18.9941 0.624023c-26.4365 1.31934 -39.6543 13.083 -39.6543 35.291v39.8086h168.476h103h168.476v-39.8086c0 -22.2129 -13.2178 -33.9766 -39.6533 -35.29zM123 1770c16 0 27.833 -1.5 35.5 -4.5
c7.66699 -3.01367 16.167 -8.84668 25.5 -17.5l228 -206h-71c-8 0.046875 -14.667 0.713867 -20 2c-5.33301 1.35742 -11.333 4.69043 -18 10l-293 216h113z" />
    <glyph glyph-name="Iacute" unicode="&#xcd;" horiz-adv-x="621" 
d="M500.299 1339.9c-2.85156 -0.178711 -9.18262 -0.385742 -18.9863 -0.617188c-9.80371 -0.272461 -24.6006 -0.732422 -44.3906 -1.37988l-65.4473 -2.3916v-1255.99c23.8047 -0.949219 45.6221 -1.74707 65.4521 -2.39355
c19.8301 -0.648438 34.6201 -1.10742 44.3701 -1.37793s16.083 -0.478516 19 -0.624023c26.4365 -1.31348 39.6543 -13.0771 39.6543 -35.29v-39.8086h-168.476h-103h-168.476v39.8086c0 22.2129 13.2178 33.9766 39.6543 35.29
c2.92676 0.145508 9.25781 0.354492 18.9932 0.626953s24.5273 0.732422 44.377 1.37988c19.8506 0.648438 41.668 1.44531 65.4521 2.39062v1255.98c-23.7881 0.948242 -45.6035 1.74609 -65.4453 2.39355c-19.8408 0.647461 -34.6348 1.10645 -44.3818 1.37793
c-9.74707 0.270508 -16.0781 0.478516 -18.9941 0.624023c-26.4365 1.31934 -39.6543 13.083 -39.6543 35.291v39.8086h168.476h103h168.476v-39.8086c0 -22.2129 -13.2178 -33.9766 -39.6533 -35.29zM611.475 1770l-292.001 -216
c-6.66797 -4.71387 -12.835 -7.88086 -18.501 -9.5c-5.66699 -1.71387 -12.5 -2.54688 -20.499 -2.5h-70l227 206c9.33496 8.66699 18.002 14.5 26.001 17.5c8 3 20 4.5 36 4.5h112z" />
    <glyph glyph-name="Icircumflex" unicode="&#xce;" horiz-adv-x="595" 
d="M477.824 1339.9c-2.85156 -0.178711 -9.18262 -0.385742 -18.9863 -0.617188c-9.80371 -0.272461 -24.6006 -0.732422 -44.3906 -1.37988l-65.4473 -2.3916v-1255.99c23.8047 -0.949219 45.6221 -1.74707 65.4521 -2.39355
c19.8301 -0.648438 34.6201 -1.10742 44.3701 -1.37793s16.083 -0.478516 19 -0.624023c26.4365 -1.31348 39.6543 -13.0771 39.6543 -35.29v-39.8086h-168.476h-103h-168.476v39.8086c0 22.2129 13.2178 33.9766 39.6543 35.29
c2.92676 0.145508 9.25781 0.354492 18.9932 0.626953s24.5273 0.732422 44.377 1.37988c19.8506 0.648438 41.668 1.44531 65.4521 2.39062v1255.98c-23.7881 0.948242 -45.6035 1.74609 -65.4453 2.39355c-19.8408 0.647461 -34.6348 1.10645 -44.3818 1.37793
c-9.74707 0.270508 -16.0781 0.478516 -18.9941 0.624023c-26.4365 1.31934 -39.6543 13.083 -39.6543 35.291v39.8086h168.476h103h168.476v-39.8086c0 -22.2129 -13.2178 -33.9766 -39.6533 -35.29zM580 1542h-73.0029c-5.33301 0 -11.166 0.833008 -17.499 2.5
s-11.833 4.16699 -16.5 7.5l-156 123c-5.33301 4 -9 7 -11 9l-5 5c-1.33301 -1.33301 -3.16602 -3 -5.49902 -5s-6.16602 -5 -11.499 -9l-157 -123c-4.66699 -3.33301 -10 -5.83301 -16 -7.5c-6 -1.71387 -11.667 -2.54688 -17 -2.5h-74l235 199h90z" />
    <glyph glyph-name="Idieresis" unicode="&#xcf;" horiz-adv-x="602" 
d="M479.823 1339.9c-2.85156 -0.178711 -9.18262 -0.385742 -18.9863 -0.617188c-9.80371 -0.272461 -24.6006 -0.732422 -44.3906 -1.37988l-65.4473 -2.3916v-1255.99c23.8047 -0.949219 45.6221 -1.74707 65.4521 -2.39355
c19.8301 -0.648438 34.6201 -1.10742 44.3701 -1.37793s16.083 -0.478516 19 -0.624023c26.4365 -1.31348 39.6543 -13.0771 39.6543 -35.29v-39.8086h-168.476h-103h-168.476v39.8086c0 22.2129 13.2178 33.9766 39.6543 35.29
c2.92676 0.145508 9.25781 0.354492 18.9932 0.626953s24.5273 0.732422 44.377 1.37988c19.8506 0.648438 41.668 1.44531 65.4521 2.39062v1255.98c-23.7881 0.948242 -45.6035 1.74609 -65.4453 2.39355c-19.8408 0.647461 -34.6348 1.10645 -44.3818 1.37793
c-9.74707 0.270508 -16.0781 0.478516 -18.9941 0.624023c-26.4365 1.31934 -39.6543 13.083 -39.6543 35.291v39.8086h168.476h103h168.476v-39.8086c0 -22.2129 -13.2178 -33.9766 -39.6533 -35.29zM174.999 1665c0 -10.6729 -2.33203 -20.8428 -6.99902 -30.5029
c-4.66699 -9.67871 -10.667 -18.0117 -18 -24.999c-7.33301 -7 -16 -12.667 -26 -17s-20.333 -6.5 -31 -6.5c-10.667 0.0488281 -20.834 2.21582 -30.501 6.50098c-9.66699 4.3457 -18.167 10.0127 -25.5 17c-7.33301 7 -13.166 15.333 -17.499 25s-6.5 19.834 -6.5 30.501
s2.16699 21 6.5 31s10.166 18.833 17.499 26.5s15.833 13.667 25.5 18c9.66699 4.38672 19.834 6.55371 30.501 6.5c10.667 0 21 -2.16699 31 -6.5s18.667 -10.333 26 -18c7.33301 -7.68652 13.333 -16.5195 18 -26.5c4.66699 -10.0195 7 -20.3525 6.99902 -31zM591 1665
c-0.00878906 -10.6729 -2.17578 -20.8438 -6.5 -30.5039c-4.33301 -9.67871 -10.333 -18.0117 -18 -24.999c-7.66699 -7 -16.334 -12.667 -26.001 -17s-19.834 -6.5 -30.501 -6.5c-11.333 0.0488281 -21.833 2.21582 -31.5 6.50098
c-9.66699 4.3457 -18.167 10.0127 -25.5 17.001c-7.33301 7 -13.166 15.333 -17.499 25s-6.5 19.834 -6.5 30.501c0 22.0098 8 41.1768 24 57.5c16 16.3535 35 24.5205 57 24.5c10.6689 0 20.8359 -2.16699 30.501 -6.5c9.66895 -4.33301 18.3359 -10.333 26 -18
c7.66699 -7.68652 13.667 -16.5195 18 -26.5c4.33301 -10.0195 6.5 -20.3525 6.5 -31z" />
    <glyph glyph-name="Eth" unicode="&#xd0;" horiz-adv-x="1520" 
d="M1386.64 1001.98c32.6445 -87.3418 48.9883 -185.342 48.9883 -293.986c0 -109.342 -16.3438 -207.67 -48.9883 -294.992c-32.6875 -87.3418 -78.6738 -161.672 -138.014 -222.998c-59.3379 -61.3477 -130.338 -108.338 -212.986 -141.004
c-82.6719 -32.6562 -174.348 -48.9902 -274.99 -48.9902h-491.166h-168.484v39.8086c0 25.5039 14.9082 34.0605 39.6641 35.2891c12.541 0.625 46.5918 1.12695 128.82 4.39648v605.496h-215.918v63.9902h215.918v586.49c-82.2285 3.2793 -116.268 3.76953 -128.82 4.39453
c-24.7559 1.23047 -39.6641 9.78711 -39.6641 35.291v39.8086h168.484h491.166c100.643 0 192.318 -16.3438 274.99 -49c82.6484 -32.666 153.648 -79.6777 212.986 -140.994c59.3398 -61.3477 105.336 -135.678 138.014 -223zM1288.64 442.992
c27.3281 77.332 40.9961 165.648 40.9961 264.99c0 98.6543 -13.668 186.652 -40.9961 263.994c-27.3281 77.3223 -65.834 142.654 -115.49 196c-49.6758 53.3223 -109.506 93.9922 -179.502 121.986c-70.0039 27.9941 -147.664 42 -232.988 42h-388.176v-582.984h404.068
v-63.9902h-404.068v-601.992h388.176c85.3242 0 162.984 14.0059 232.988 42c69.9961 28.0039 129.826 68.6543 179.502 121.998c49.6445 53.3242 88.1523 118.656 115.49 195.998z" />
    <glyph glyph-name="Ntilde" unicode="&#xd1;" horiz-adv-x="1577" 
d="M1360.46 1414.99l168.38 -0.00585938v-39.8086c-0.00585938 -22.2119 -13.2236 -33.9746 -39.6543 -35.2881c-2.89355 -0.141602 -9.22168 -0.348633 -18.9844 -0.620117s-24.5449 -0.730469 -44.3457 -1.37598c-19.8008 -0.646484 -41.6035 -1.44336 -65.4082 -2.38965
v-1335.47h-48.9893c-15.3594 0 -27.6865 6.66406 -36.9805 19.9912l-919.998 1227.97c2.00488 -20.0117 2.99902 -39.0127 2.98145 -57.002l0.00976562 -1111.47c23.8281 -0.951172 45.9941 -1.74902 66.498 -2.39355c20.5039 -0.645508 36.0254 -1.10449 46.5645 -1.37793
c10.54 -0.274414 17.2383 -0.482422 20.0947 -0.624023c26.4365 -1.31348 39.6543 -13.0771 39.6543 -35.29v-39.8086h-172.811h-88.9922h-168.476v39.8086c0 22.2139 13.2178 33.9775 39.6543 35.291c2.92676 0.145508 9.25781 0.354492 18.9932 0.626953
s24.5273 0.732422 44.377 1.37988c19.8506 0.648438 41.668 1.44531 65.4521 2.39062v1255.98c-23.7881 0.948242 -45.6035 1.74609 -65.4453 2.39355c-19.8408 0.647461 -34.6348 1.10645 -44.3818 1.37793c-9.74707 0.270508 -16.0781 0.478516 -18.9941 0.624023
c-26.4365 1.31934 -39.6543 13.083 -39.6543 35.291v39.8086h168.476h49.9941c9.32422 -0.0429688 16.6572 -1.21094 21.999 -3.50391c5.35938 -2.38184 11.0254 -7.5498 16.999 -15.5039l915.982 -1225.97c-2.03516 20.002 -3.03906 39.334 -3.01172 57.9961
l0.00976562 1107.49c-23.8291 0.948242 -46 1.74414 -66.5127 2.3877s-36.0361 1.10156 -46.5703 1.375s-17.2354 0.481445 -20.1035 0.624023c-26.4404 1.31934 -39.6582 13.082 -39.6543 35.2891v39.8086h172.841h90.0068zM970.475 1615.99
c28.001 0.0126953 49.3369 9.1748 64.0029 27.4961c14.6689 18.333 22.3359 41.833 23.001 70.5h54c0 -23.333 -3 -44.833 -9 -64.5c-6 -19.6729 -14.667 -37.0059 -26 -52c-11.333 -15 -25.833 -26.667 -43.5 -35s-37.834 -12.5 -60.501 -12.5c-22 0 -43 5.33301 -63 16
s-39.333 22.167 -58 34.5l-54.501 34.5s-35.5 16 -53.5 16c-28.001 -0.0185547 -49.168 -9.35156 -63.501 -27.999c-14.3359 -18.6699 -22.1689 -42.0029 -23.5 -70h-56c0 22.667 3.16699 44 9.5 64s15.5 37.5 27.5 52.5c12 15.0068 26.667 26.6738 44 35.001
c17.333 8.35938 37.333 12.5264 60 12.5c22.667 -0.0126953 44 -5.3457 63.999 -15.999c20.002 -10.667 39.335 -22.167 58 -34.5l54 -34.5c17.333 -10.6787 35 -16.0117 53 -15.999z" />
    <glyph glyph-name="Ograve" unicode="&#xd2;" horiz-adv-x="1506" 
d="M1422 708c-0.00585938 -109.333 -16.3379 -208.501 -48.999 -297.501c-32.667 -89 -78.667 -165 -138 -228s-130.333 -111.667 -213 -146s-174.334 -51.5 -275.001 -51.5c-99.333 0 -190.333 17.167 -273 51.5s-153.667 83 -213 146s-105.5 139 -138.5 228
s-49.5 188.167 -49.5 297.5c0 108.667 16.5 207.5 49.5 296.5s79.167 165 138.5 228s130.333 111.833 213 146.5s173.667 52 273 52c100.667 0 192.334 -17.167 275 -51.5c82.667 -34.333 153.667 -83.166 213 -146.499s105.333 -139.5 138 -228.5s49 -187.833 49 -296.5z
M1316 707.999c0 98.667 -13.6689 187.335 -41.002 266.001c-27.333 78.667 -65.833 145.334 -115.5 200.001c-49.668 54.667 -109.501 96.5 -179.499 125.5c-70 29 -147.667 43.5 -233 43.5c-84 0 -160.833 -14.5 -230.5 -43.5
c-69.667 -29.002 -129.667 -70.835 -180 -125.499c-50.333 -54.668 -89.333 -121.335 -117 -200.001c-27.667 -78.667 -41.5 -167.334 -41.5 -266.001c0 -99.334 13.833 -188.167 41.5 -266.5s66.667 -144.833 117 -199.5s110.333 -96.334 180 -125.001s146.5 -43 230.5 -43
c85.333 0 163 14.333 233 43s129.833 70.334 179.5 125.001s88.167 121.167 115.5 199.5c27.3389 78.333 41.0059 167.166 41.001 266.499zM567.999 1770c16.001 0 27.835 -1.5 35.5 -4.5c7.66699 -3.01367 16.167 -8.84668 25.5 -17.5l228 -206h-71
c-8.00293 0.046875 -14.6699 0.713867 -20 2c-5.33301 1.35742 -11.333 4.69043 -18 10l-293 216h113z" />
    <glyph glyph-name="Oacute" unicode="&#xd3;" horiz-adv-x="1506" 
d="M1422 708c-0.00585938 -109.333 -16.3379 -208.501 -48.999 -297.501c-32.667 -89 -78.667 -165 -138 -228s-130.333 -111.667 -213 -146s-174.334 -51.5 -275.001 -51.5c-99.333 0 -190.333 17.167 -273 51.5s-153.667 83 -213 146s-105.5 139 -138.5 228
s-49.5 188.167 -49.5 297.5c0 108.667 16.5 207.5 49.5 296.5s79.167 165 138.5 228s130.333 111.833 213 146.5s173.667 52 273 52c100.667 0 192.334 -17.167 275 -51.5c82.667 -34.333 153.667 -83.166 213 -146.499s105.333 -139.5 138 -228.5s49 -187.833 49 -296.5z
M1316 707.999c0 98.667 -13.6689 187.335 -41.002 266.001c-27.333 78.667 -65.833 145.334 -115.5 200.001c-49.668 54.667 -109.501 96.5 -179.499 125.5c-70 29 -147.667 43.5 -233 43.5c-84 0 -160.833 -14.5 -230.5 -43.5
c-69.667 -29.002 -129.667 -70.835 -180 -125.499c-50.333 -54.668 -89.333 -121.335 -117 -200.001c-27.667 -78.667 -41.5 -167.334 -41.5 -266.001c0 -99.334 13.833 -188.167 41.5 -266.5s66.667 -144.833 117 -199.5s110.333 -96.334 180 -125.001s146.5 -43 230.5 -43
c85.333 0 163 14.333 233 43s129.833 70.334 179.5 125.001s88.167 121.167 115.5 199.5c27.3389 78.333 41.0059 167.166 41.001 266.499zM1038 1770l-291.999 -216c-6.66699 -4.71387 -12.834 -7.88086 -18.501 -9.5c-5.66699 -1.71387 -12.5 -2.54688 -20.5 -2.5h-70
l227 206c9.33301 8.66699 18 14.5 26 17.5s20 4.5 36 4.5h112z" />
    <glyph glyph-name="Ocircumflex" unicode="&#xd4;" horiz-adv-x="1506" 
d="M1422 708c-0.00585938 -109.333 -16.3379 -208.501 -48.999 -297.501c-32.667 -89 -78.667 -165 -138 -228s-130.333 -111.667 -213 -146s-174.334 -51.5 -275.001 -51.5c-99.333 0 -190.333 17.167 -273 51.5s-153.667 83 -213 146s-105.5 139 -138.5 228
s-49.5 188.167 -49.5 297.5c0 108.667 16.5 207.5 49.5 296.5s79.167 165 138.5 228s130.333 111.833 213 146.5s173.667 52 273 52c100.667 0 192.334 -17.167 275 -51.5c82.667 -34.333 153.667 -83.166 213 -146.499s105.333 -139.5 138 -228.5s49 -187.833 49 -296.5z
M1316 707.999c0 98.667 -13.6689 187.335 -41.002 266.001c-27.333 78.667 -65.833 145.334 -115.5 200.001c-49.668 54.667 -109.501 96.5 -179.499 125.5c-70 29 -147.667 43.5 -233 43.5c-84 0 -160.833 -14.5 -230.5 -43.5
c-69.667 -29.002 -129.667 -70.835 -180 -125.499c-50.333 -54.668 -89.333 -121.335 -117 -200.001c-27.667 -78.667 -41.5 -167.334 -41.5 -266.001c0 -99.334 13.833 -188.167 41.5 -266.5s66.667 -144.833 117 -199.5s110.333 -96.334 180 -125.001s146.5 -43 230.5 -43
c85.333 0 163 14.333 233 43s129.833 70.334 179.5 125.001s88.167 121.167 115.5 199.5c27.3389 78.333 41.0059 167.166 41.001 266.499zM1029 1542h-73.001c-5.33691 0 -11.1699 0.833008 -17.499 2.5c-6.33301 1.66699 -11.833 4.16699 -16.5 7.5l-156 123
c-5.34277 4 -9.00977 7 -11.001 9l-5 5c-1.3457 -1.33301 -3.17871 -3 -5.5 -5c-2.33594 -2 -6.16895 -5 -11.499 -9l-157 -123c-4.66699 -3.33301 -10 -5.83301 -16 -7.5c-6.00195 -1.71387 -11.6689 -2.54688 -17 -2.5h-74l235 199h90z" />
    <glyph glyph-name="Otilde" unicode="&#xd5;" horiz-adv-x="1506" 
d="M1422 708c-0.00585938 -109.333 -16.3379 -208.501 -48.999 -297.501c-32.667 -89 -78.667 -165 -138 -228s-130.333 -111.667 -213 -146s-174.334 -51.5 -275.001 -51.5c-99.333 0 -190.333 17.167 -273 51.5s-153.667 83 -213 146s-105.5 139 -138.5 228
s-49.5 188.167 -49.5 297.5c0 108.667 16.5 207.5 49.5 296.5s79.167 165 138.5 228s130.333 111.833 213 146.5s173.667 52 273 52c100.667 0 192.334 -17.167 275 -51.5c82.667 -34.333 153.667 -83.166 213 -146.499s105.333 -139.5 138 -228.5s49 -187.833 49 -296.5z
M1316 707.999c0 98.667 -13.6689 187.335 -41.002 266.001c-27.333 78.667 -65.833 145.334 -115.5 200.001c-49.668 54.667 -109.501 96.5 -179.499 125.5c-70 29 -147.667 43.5 -233 43.5c-84 0 -160.833 -14.5 -230.5 -43.5
c-69.667 -29.002 -129.667 -70.835 -180 -125.499c-50.333 -54.668 -89.333 -121.335 -117 -200.001c-27.667 -78.667 -41.5 -167.334 -41.5 -266.001c0 -99.334 13.833 -188.167 41.5 -266.5s66.667 -144.833 117 -199.5s110.333 -96.334 180 -125.001s146.5 -43 230.5 -43
c85.333 0 163 14.333 233 43s129.833 70.334 179.5 125.001s88.167 121.167 115.5 199.5c27.3389 78.333 41.0059 167.166 41.001 266.499zM868.999 1616c28.001 0.0126953 49.3369 9.1748 64.0029 27.4961c14.6709 18.333 22.3379 41.833 23.001 70.5h54
c0 -23.333 -3 -44.833 -9 -64.5c-6 -19.6729 -14.667 -37.0059 -26 -52c-11.333 -15 -25.833 -26.667 -43.5 -35s-37.834 -12.5 -60.501 -12.5c-22 0 -43 5.33301 -63 16s-39.333 22.167 -58 34.5l-54.501 34.5s-35.5 16 -53.5 16
c-28.001 -0.0185547 -49.168 -9.35156 -63.501 -27.999c-14.335 -18.6699 -22.168 -42.0029 -23.5 -70h-56c0 22.667 3.16699 44 9.5 64s15.5 37.5 27.5 52.5c12 15.0068 26.667 26.6738 44 35.001c17.333 8.35938 37.333 12.5264 60 12.5
c22.667 -0.0126953 44 -5.3457 63.999 -15.999c20.002 -10.667 39.335 -22.167 58 -34.5l54 -34.5c17.333 -10.6787 35 -16.0117 53 -15.999z" />
    <glyph glyph-name="Odieresis" unicode="&#xd6;" horiz-adv-x="1506" 
d="M1422 708c-0.00585938 -109.333 -16.3379 -208.501 -48.999 -297.501c-32.667 -89 -78.667 -165 -138 -228s-130.333 -111.667 -213 -146s-174.334 -51.5 -275.001 -51.5c-99.333 0 -190.333 17.167 -273 51.5s-153.667 83 -213 146s-105.5 139 -138.5 228
s-49.5 188.167 -49.5 297.5c0 108.667 16.5 207.5 49.5 296.5s79.167 165 138.5 228s130.333 111.833 213 146.5s173.667 52 273 52c100.667 0 192.334 -17.167 275 -51.5c82.667 -34.333 153.667 -83.166 213 -146.499s105.333 -139.5 138 -228.5s49 -187.833 49 -296.5z
M1316 707.999c0 98.667 -13.6689 187.335 -41.002 266.001c-27.333 78.667 -65.833 145.334 -115.5 200.001c-49.668 54.667 -109.501 96.5 -179.499 125.5c-70 29 -147.667 43.5 -233 43.5c-84 0 -160.833 -14.5 -230.5 -43.5
c-69.667 -29.002 -129.667 -70.835 -180 -125.499c-50.333 -54.668 -89.333 -121.335 -117 -200.001c-27.667 -78.667 -41.5 -167.334 -41.5 -266.001c0 -99.334 13.833 -188.167 41.5 -266.5s66.667 -144.833 117 -199.5s110.333 -96.334 180 -125.001s146.5 -43 230.5 -43
c85.333 0 163 14.333 233 43s129.833 70.334 179.5 125.001s88.167 121.167 115.5 199.5c27.3389 78.333 41.0059 167.166 41.001 266.499zM621.999 1665c0 -10.6729 -2.33105 -20.8428 -6.99805 -30.5029c-4.66699 -9.67871 -10.667 -18.0117 -18 -24.999
c-7.33594 -7 -16.0029 -12.667 -26.001 -17c-10 -4.33301 -20.333 -6.5 -31 -6.5c-10.667 0.0488281 -20.834 2.21582 -30.501 6.50098c-9.66699 4.3457 -18.167 10.0127 -25.5 17c-7.33496 7 -13.168 15.333 -17.499 25c-4.33691 9.66699 -6.50391 19.834 -6.5 30.501
c0 10.667 2.16699 21 6.5 31s10.166 18.833 17.499 26.5s15.833 13.667 25.5 18c9.66797 4.38672 19.835 6.55371 30.501 6.5c10.6699 0 21.0029 -2.16699 30.999 -6.5c10 -4.33301 18.667 -10.333 26 -18c7.33301 -7.68652 13.333 -16.5195 18 -26.5
c4.67676 -10.0195 7.00977 -20.3525 7 -31zM1038 1665c0 -10.6729 -2.16797 -20.8438 -6.50098 -30.5039c-4.33301 -9.67871 -10.333 -18.0117 -18 -24.999c-7.6748 -7 -16.3418 -12.667 -26 -17c-9.67285 -4.33301 -19.8398 -6.5 -30.501 -6.5
c-11.333 0.0488281 -21.833 2.21582 -31.5 6.50098c-9.66699 4.3457 -18.167 10.0127 -25.5 17.001c-7.33691 7 -13.1699 15.333 -17.5 25c-4.35449 9.66699 -6.52148 19.834 -6.5 30.501c0 22.0098 8 41.1768 24 57.5c16 16.3535 35 24.5205 57 24.5
c10.667 0 20.834 -2.16699 30.501 -6.5s18.334 -10.333 26.001 -18c7.66699 -7.68652 13.667 -16.5195 18 -26.5c4.36621 -10.0195 6.5332 -20.3525 6.5 -31z" />
    <glyph glyph-name="multiply" unicode="&#xd7;" horiz-adv-x="958" 
d="M895 1036l-367 -366l372 -372l-51 -52l-373 372l-374 -374l-52 52l373 374l-368 368l53 54l368 -369l366 367z" />
    <glyph glyph-name="Oslash" unicode="&#xd8;" horiz-adv-x="1511" 
d="M1424 708c-0.00585938 -109.333 -16.3398 -208.501 -49.001 -297.501c-32.667 -89 -78.667 -165 -138 -228s-130.333 -111.667 -213 -146s-174.334 -51.5 -275.001 -51.5c-76.667 0 -148.167 10.167 -214.5 30.5s-126.5 49.5 -180.5 87.5l-131 -176
c-8.66699 -11.333 -18.334 -19.5 -29 -24.5c-10.667 -5 -21.667 -7.5 -33 -7.5h-44l185 249c-72 64 -127.833 143.5 -167.5 238.5s-59.5 203.5 -59.5 325.5c0 108.667 16.5 207.5 49.5 296.5s79.167 165 138.5 228s130.333 111.833 213 146.5s173.667 52 273 52
c80.667 0 155.667 -11.167 225 -33.5c69.334 -22.333 131.667 -54.5 187 -96.5l111 149c8 10.667 15 18.334 21 23.001c6.01074 4.66699 15.6777 7 29.001 7h55l-165 -222c67.335 -64.002 119.502 -142.335 156.501 -235c37 -92.667 55.5 -197.667 55.5 -315z
M180.001 707.999c0 -106.667 15.668 -200.831 47.001 -282.498s75.333 -149.834 132 -204.501l746 1005c-47.333 38 -100.833 67 -160.5 87s-124.834 30 -195.501 30c-84 0 -160.833 -14.5 -230.5 -43.5c-69.667 -29.002 -129.667 -70.835 -180 -125.499
c-50.333 -54.668 -89.333 -121.335 -117 -200.001c-27.667 -78.667 -41.5 -167.334 -41.5 -266.001zM1318 708.002c-0.00488281 101.333 -14.3398 191.667 -43.001 271c-28.6699 79.333 -69.0029 146.333 -120.999 201l-745 -1002c46 -34 97.5 -59.833 154.5 -77.5
s118.833 -26.5 185.499 -26.5c85.333 0 163 14.333 233 43s129.833 70.334 179.5 125.001s88.167 121.167 115.5 199.5c27.3389 78.333 41.0059 167.166 41.001 266.499z" />
    <glyph glyph-name="Ugrave" unicode="&#xd9;" horiz-adv-x="1502" 
d="M1287.46 1414.95l168.468 0.0107422v-39.8086c0 -22.2119 -13.2188 -33.9746 -39.6553 -35.2881c-2.94727 -0.145508 -9.27832 -0.354492 -18.9922 -0.626953c-9.74023 -0.272461 -24.5322 -0.732422 -44.377 -1.37988
c-19.8525 -0.6875 -41.6699 -1.4834 -65.4512 -2.3877v-795.501c-0.00488281 -77.998 -12.335 -150.828 -36.9912 -218.49c-24.6865 -67.6592 -60.1875 -126.656 -106.504 -176.991c-46.335 -50.3418 -102.668 -89.8389 -168.998 -118.492
c-66.3477 -28.6602 -140.845 -42.9922 -223.491 -42.9951c-82.6807 0 -157.181 14.332 -223.5 42.9951c-66.3369 28.6494 -122.67 68.1465 -168.999 118.491c-46.3457 50.332 -81.8467 109.329 -106.504 176.991c-24.6641 67.6484 -36.9902 140.479 -36.9795 218.49
l-0.0107422 795.49c-23.7881 0.989258 -45.6035 1.78711 -65.4453 2.39355c-19.8418 0.646484 -34.6357 1.10547 -44.3818 1.37695c-9.74707 0.311523 -16.0781 0.519531 -18.9941 0.624023c-26.4365 1.31348 -39.6543 13.0762 -39.6543 35.2891v39.8086h168.476h102.887
h193.755v-39.8086c0 -22.2178 -13.2178 -33.9805 -39.6533 -35.2881c-2.69824 -0.173828 -11.124 -0.379883 -25.2764 -0.619141c-14.1533 -0.321289 -33.1572 -0.78125 -57.0107 -1.37988c-23.8545 -0.639648 -47.7549 -1.43555 -71.7002 -2.3877v-794.487
c0 -66.0186 9.83301 -127.519 29.5 -184.501c19.6396 -56.9541 47.9717 -106.456 84.9961 -148.506c36.9971 -41.9902 82.3281 -74.9883 135.993 -98.9932c53.6611 -23.9971 114.495 -35.9961 182.502 -35.9961c67.9971 0 128.828 11.8311 182.493 35.4941
c53.627 23.6387 99.1221 56.4727 136.485 98.502c37.335 41.9912 65.8379 91.4893 85.5088 148.494c19.667 57.042 29.5 118.543 29.5 184.502v795.491c-23.9189 0.952148 -47.8066 1.74707 -71.6621 2.38574c-23.8564 0.678711 -42.8467 1.1377 -56.9707 1.37598
c-14.1279 0.280273 -22.5518 0.488281 -25.2725 0.624023c-26.4297 1.31348 -39.6445 13.0762 -39.6445 35.2891v39.8086h193.55h102.006zM570.469 1770c16.001 0 27.834 -1.49902 35.5 -4.49902c7.66699 -3.01367 16.167 -8.84668 25.5 -17.5l228 -206h-71
c-8.00293 0.046875 -14.6699 0.713867 -20 2c-5.33301 1.35645 -11.333 4.68945 -18 9.99902l-293 216h113z" />
    <glyph glyph-name="Uacute" unicode="&#xda;" horiz-adv-x="1502" 
d="M1287.46 1414.95l168.468 0.0107422v-39.8086c0 -22.2119 -13.2188 -33.9746 -39.6553 -35.2881c-2.94727 -0.145508 -9.27832 -0.354492 -18.9922 -0.626953c-9.74023 -0.272461 -24.5322 -0.732422 -44.377 -1.37988
c-19.8525 -0.6875 -41.6699 -1.4834 -65.4512 -2.3877v-795.501c-0.00488281 -77.998 -12.335 -150.828 -36.9912 -218.49c-24.6865 -67.6592 -60.1875 -126.656 -106.504 -176.991c-46.335 -50.3418 -102.668 -89.8389 -168.998 -118.492
c-66.3477 -28.6602 -140.845 -42.9922 -223.491 -42.9951c-82.6807 0 -157.181 14.332 -223.5 42.9951c-66.3369 28.6494 -122.67 68.1465 -168.999 118.491c-46.3457 50.332 -81.8467 109.329 -106.504 176.991c-24.6641 67.6484 -36.9902 140.479 -36.9795 218.49
l-0.0107422 795.49c-23.7881 0.989258 -45.6035 1.78711 -65.4453 2.39355c-19.8418 0.646484 -34.6357 1.10547 -44.3818 1.37695c-9.74707 0.311523 -16.0781 0.519531 -18.9941 0.624023c-26.4365 1.31348 -39.6543 13.0762 -39.6543 35.2891v39.8086h168.476h102.887
h193.755v-39.8086c0 -22.2178 -13.2178 -33.9805 -39.6533 -35.2881c-2.69824 -0.173828 -11.124 -0.379883 -25.2764 -0.619141c-14.1533 -0.321289 -33.1572 -0.78125 -57.0107 -1.37988c-23.8545 -0.639648 -47.7549 -1.43555 -71.7002 -2.3877v-794.487
c0 -66.0186 9.83301 -127.519 29.5 -184.501c19.6396 -56.9541 47.9717 -106.456 84.9961 -148.506c36.9971 -41.9902 82.3281 -74.9883 135.993 -98.9932c53.6611 -23.9971 114.495 -35.9961 182.502 -35.9961c67.9971 0 128.828 11.8311 182.493 35.4941
c53.627 23.6387 99.1221 56.4727 136.485 98.502c37.335 41.9912 65.8379 91.4893 85.5088 148.494c19.667 57.042 29.5 118.543 29.5 184.502v795.491c-23.9189 0.952148 -47.8066 1.74707 -71.6621 2.38574c-23.8564 0.678711 -42.8467 1.1377 -56.9707 1.37598
c-14.1279 0.280273 -22.5518 0.488281 -25.2725 0.624023c-26.4297 1.31348 -39.6445 13.0762 -39.6445 35.2891v39.8086h193.55h102.006zM1040.47 1770l-291.999 -216c-6.66699 -4.71387 -12.834 -7.88086 -18.501 -9.5c-5.66699 -1.71387 -12.5 -2.54688 -20.5 -2.5h-70
l227 206c9.33301 8.66699 18 14.5 26 17.5s20 4.5 36 4.5h112z" />
    <glyph glyph-name="Ucircumflex" unicode="&#xdb;" horiz-adv-x="1502" 
d="M1287.46 1414.95l168.468 0.0107422v-39.8086c0 -22.2119 -13.2188 -33.9746 -39.6553 -35.2881c-2.94727 -0.145508 -9.27832 -0.354492 -18.9922 -0.626953c-9.74023 -0.272461 -24.5322 -0.732422 -44.377 -1.37988
c-19.8525 -0.6875 -41.6699 -1.4834 -65.4512 -2.3877v-795.501c-0.00488281 -77.998 -12.335 -150.828 -36.9912 -218.49c-24.6865 -67.6592 -60.1875 -126.656 -106.504 -176.991c-46.335 -50.3418 -102.668 -89.8389 -168.998 -118.492
c-66.3477 -28.6602 -140.845 -42.9922 -223.491 -42.9951c-82.6807 0 -157.181 14.332 -223.5 42.9951c-66.3369 28.6494 -122.67 68.1465 -168.999 118.491c-46.3457 50.332 -81.8467 109.329 -106.504 176.991c-24.6641 67.6484 -36.9902 140.479 -36.9795 218.49
l-0.0107422 795.49c-23.7881 0.989258 -45.6035 1.78711 -65.4453 2.39355c-19.8418 0.646484 -34.6357 1.10547 -44.3818 1.37695c-9.74707 0.311523 -16.0781 0.519531 -18.9941 0.624023c-26.4365 1.31348 -39.6543 13.0762 -39.6543 35.2891v39.8086h168.476h102.887
h193.755v-39.8086c0 -22.2178 -13.2178 -33.9805 -39.6533 -35.2881c-2.69824 -0.173828 -11.124 -0.379883 -25.2764 -0.619141c-14.1533 -0.321289 -33.1572 -0.78125 -57.0107 -1.37988c-23.8545 -0.639648 -47.7549 -1.43555 -71.7002 -2.3877v-794.487
c0 -66.0186 9.83301 -127.519 29.5 -184.501c19.6396 -56.9541 47.9717 -106.456 84.9961 -148.506c36.9971 -41.9902 82.3281 -74.9883 135.993 -98.9932c53.6611 -23.9971 114.495 -35.9961 182.502 -35.9961c67.9971 0 128.828 11.8311 182.493 35.4941
c53.627 23.6387 99.1221 56.4727 136.485 98.502c37.335 41.9912 65.8379 91.4893 85.5088 148.494c19.667 57.042 29.5 118.543 29.5 184.502v795.491c-23.9189 0.952148 -47.8066 1.74707 -71.6621 2.38574c-23.8564 0.678711 -42.8467 1.1377 -56.9707 1.37598
c-14.1279 0.280273 -22.5518 0.488281 -25.2725 0.624023c-26.4297 1.31348 -39.6445 13.0762 -39.6445 35.2891v39.8086h193.55h102.006zM1031.47 1542h-73c-5.33691 0 -11.1699 0.833008 -17.5 2.5c-6.33301 1.66699 -11.833 4.16699 -16.5 7.5l-156 123
c-5.3418 4 -9.00879 7 -11 9l-5 5c-1.33887 -1.33301 -3.17188 -3 -5.5 -5c-2.33887 -2 -6.17188 -5 -11.5 -9l-157 -123c-4.66699 -3.33301 -10 -5.83301 -16 -7.5c-6.00195 -1.71387 -11.6689 -2.54688 -17 -2.5h-74l235 199h90z" />
    <glyph glyph-name="Udieresis" unicode="&#xdc;" horiz-adv-x="1502" 
d="M1287.46 1414.95l168.468 0.0107422v-39.8086c0 -22.2119 -13.2188 -33.9746 -39.6553 -35.2881c-2.94727 -0.145508 -9.27832 -0.354492 -18.9922 -0.626953c-9.74023 -0.272461 -24.5322 -0.732422 -44.377 -1.37988
c-19.8525 -0.6875 -41.6699 -1.4834 -65.4512 -2.3877v-795.501c-0.00488281 -77.998 -12.335 -150.828 -36.9912 -218.49c-24.6865 -67.6592 -60.1875 -126.656 -106.504 -176.991c-46.335 -50.3418 -102.668 -89.8389 -168.998 -118.492
c-66.3477 -28.6602 -140.845 -42.9922 -223.491 -42.9951c-82.6807 0 -157.181 14.332 -223.5 42.9951c-66.3369 28.6494 -122.67 68.1465 -168.999 118.491c-46.3457 50.332 -81.8467 109.329 -106.504 176.991c-24.6641 67.6484 -36.9902 140.479 -36.9795 218.49
l-0.0107422 795.49c-23.7881 0.989258 -45.6035 1.78711 -65.4453 2.39355c-19.8418 0.646484 -34.6357 1.10547 -44.3818 1.37695c-9.74707 0.311523 -16.0781 0.519531 -18.9941 0.624023c-26.4365 1.31348 -39.6543 13.0762 -39.6543 35.2891v39.8086h168.476h102.887
h193.755v-39.8086c0 -22.2178 -13.2178 -33.9805 -39.6533 -35.2881c-2.69824 -0.173828 -11.124 -0.379883 -25.2764 -0.619141c-14.1533 -0.321289 -33.1572 -0.78125 -57.0107 -1.37988c-23.8545 -0.639648 -47.7549 -1.43555 -71.7002 -2.3877v-794.487
c0 -66.0186 9.83301 -127.519 29.5 -184.501c19.6396 -56.9541 47.9717 -106.456 84.9961 -148.506c36.9971 -41.9902 82.3281 -74.9883 135.993 -98.9932c53.6611 -23.9971 114.495 -35.9961 182.502 -35.9961c67.9971 0 128.828 11.8311 182.493 35.4941
c53.627 23.6387 99.1221 56.4727 136.485 98.502c37.335 41.9912 65.8379 91.4893 85.5088 148.494c19.667 57.042 29.5 118.543 29.5 184.502v795.491c-23.9189 0.952148 -47.8066 1.74707 -71.6621 2.38574c-23.8564 0.678711 -42.8467 1.1377 -56.9707 1.37598
c-14.1279 0.280273 -22.5518 0.488281 -25.2725 0.624023c-26.4297 1.31348 -39.6445 13.0762 -39.6445 35.2891v39.8086h193.55h102.006zM624.469 1665c0 -10.6729 -2.33301 -20.8438 -7 -30.5039c-4.66699 -9.67871 -10.667 -18.0117 -18 -24.999
c-7.33496 -7 -16.002 -12.667 -26 -17c-10 -4.33301 -20.333 -6.5 -31 -6.5c-10.667 0.0488281 -20.834 2.21582 -30.501 6.50098c-9.66699 4.3457 -18.167 10.0127 -25.5 17.001c-7.33301 7 -13.166 15.333 -17.499 25s-6.5 19.834 -6.5 30.501
c0.00292969 10.667 2.16992 21 6.5 31c4.33398 10 10.167 18.833 17.499 26.5c7.33301 7.66699 15.833 13.667 25.5 18c9.66797 4.38672 19.835 6.55371 30.501 6.5c10.6689 0 21.002 -2.16699 31 -6.5c10 -4.33301 18.667 -10.333 26 -18
c7.33301 -7.68652 13.333 -16.5195 18 -26.5c4.67578 -10.0195 7.00879 -20.3525 7 -31zM1040.47 1665c-0.015625 -10.6729 -2.18066 -20.8438 -6.49805 -30.5039c-4.33301 -9.67871 -10.333 -18.0117 -18 -24.999c-7.66699 -7 -16.334 -12.667 -26.001 -17
s-19.834 -6.5 -30.501 -6.5c-11.333 0.0488281 -21.833 2.21582 -31.5 6.50098c-9.66699 4.3457 -18.167 10.0127 -25.5 17.001c-7.33691 7 -13.1699 15.333 -17.5 25c-4.34668 9.66699 -6.51367 19.834 -6.50098 30.501c0 22.0098 8 41.1768 24 57.5
c16 16.3535 35 24.5205 57 24.5c10.6699 0 20.8369 -2.16699 30.5 -6.5c9.6709 -4.33301 18.3379 -10.333 26.001 -18c7.66699 -7.68652 13.667 -16.5195 18 -26.5c4.33301 -10.0195 6.5 -20.3525 6.5 -31z" />
    </font>
</defs>
</svg>
