<svg viewBox="311 190 411 307">
	<path d="M421,192 C421,259.726 423.098,327.43 426,395 L443,395 C443,369.753 440.361,344.246 442.09,319 C442.498,313.039 442.531,306.945 443.059,301.005 C443.185,299.584 443.581,296.134 445.83,296.631 C447.626,297.028 447.805,299.587 448.031,301.005 C448.718,305.324 448.855,309.675 449.424,314 C451.038,326.251 451.64,338.697 452.83,351 C453.436,357.264 453.213,363.957 455,370 C460.049,367.645 468.325,361.334 470.397,355.961 C472.109,351.521 470.825,345.557 470.285,341 C469.461,334.032 468.914,326.988 468.166,320 C466.737,306.653 462.585,291.379 463.664,278 C463.942,274.563 465.667,271.319 466.522,268 C468.342,260.929 469.641,253.298 469.961,246 C470.777,227.349 467.793,209.465 467,191 L421,192 L421,192 Z M558,192 C554.356,211.555 550.055,233.106 550,253 C547.656,245.144 548.463,237.066 547.911,229 C547.064,216.64 546,204.42 546,192 L514,192 C514,242.1 511,291.976 511,342 C517.439,342 523.615,342.193 530,343 C530,315.664 533,288.386 533,261 C536.544,272.208 536.272,285.331 537.089,297 C538.209,312.977 540,328.962 540,345 C545.876,346.213 551.334,348.115 557,350 C557,321.39 560.75,292.505 563,264 C564.362,268.609 563.726,273.261 564.286,278 C566.374,295.698 565,314.177 565,332 C565,338.541 563.714,346.638 565.318,352.996 C566.451,357.488 570.914,360.003 573.919,363.184 C578.471,368.004 582.281,373.533 586,379 C588.189,373.784 587,366.619 587,361 L587,323 L587,192 C577.071,190.745 567.893,191.918 558,192 L558,192 Z M312,192 C312,240.285 310.832,288.732 312.015,337 C312.569,359.635 314,382.334 314,405 C336.249,409.192 360.338,414.938 383,415 C381.081,400.758 375.208,386.993 372,373 C364.658,372.685 357.329,371.629 350,371.089 C347.023,370.869 342.979,371.401 341.028,368.566 C338.655,365.119 340,357.996 340,354 C340,342.611 339,331.362 339,320 L339,192 L312,192 L312,192 Z M364,192 C363.985,214.083 358.604,236.001 357.09,258 C354.655,293.352 354.452,328.777 350,364 C356.91,365.65 364.118,365.361 371,367 C371.206,357.03 371.149,343.364 375.029,334.059 C377.48,328.179 386.839,328.846 389.686,334.059 C392.146,338.564 392.261,345.004 393.08,350 C395.527,364.917 395.224,380.098 398,395 L418,395 C417.945,375.132 413.87,354.684 411.282,335 C407.379,305.323 403.506,275.639 399.271,246 C397.509,233.666 395.904,221.327 394.131,209 C393.523,204.773 394.046,196.918 391.062,193.603 C389.16,191.492 385.546,192.005 383,192 L364,192 L364,192 Z M480,192 C480,217.406 478.305,242.672 478.004,268 C477.674,295.706 479,323.37 479,351 C486.835,348.744 493.925,344.688 502,343 L502,192 L480,192 L480,192 Z M594,192 C594,260.736 592.054,329.384 595,398 L647,399 L647,358 L619,358 L619,314 L647,315 C648.001,302.32 648,289.743 648,277 L619,276 L619,237 C628.933,237 639.205,236.182 649,238 C650.873,231.662 649.531,225.443 649.089,219 C648.478,210.073 649,200.948 649,192 L594,192 L594,192 Z M656,193 C656,234.6 658.006,276.322 656.985,318 C656.137,352.648 653,387.321 653,422 C662.56,420.792 672.356,419.08 682,419 L682,327 C691.712,327.75 690.592,340.532 691.576,348 C694.554,370.619 690.725,393.31 695,416 C702.815,416 710.253,414.333 718,414 C717.983,388.869 717.629,363.088 715.911,338 C715.436,331.069 714.771,323.842 713.537,317 C712.838,313.122 711.089,308.974 711.245,305 C711.486,298.838 716.013,292.33 717.079,286 C718.769,275.978 718.4,266.07 719.089,256 C719.523,249.666 720.683,243.344 720.961,237 C721.613,222.102 716.01,207.885 716,193 L692,192 L656,193 L656,193 Z M449,229 C450.331,239.528 449,249.468 449,260 C447.239,259.797 445.235,259.815 444.023,258.258 C442.249,255.978 443,251.69 443,249 C443,242.344 440.053,229.713 449,229 L449,229 Z M690,281 C687.638,280.643 684.603,280.385 683.028,278.297 C681.473,276.235 681.76,272.463 681.424,270 C680.417,262.629 677.369,249.997 681.318,243.148 C683.068,240.113 687.552,239.05 689.682,242.318 C691.435,245.007 691.472,249.875 691.545,253 C691.629,256.631 691.081,260.354 690.985,264 C690.837,269.695 690,275.27 690,281 L690,281 Z M388,292 C384.769,292 379.302,292.975 376.604,290.821 C374.306,288.987 375.431,285.44 375.715,283 C376.448,276.681 375.745,270.325 376.576,264 C376.998,260.784 375.381,250.031 379.209,248.752 C383.796,247.218 384.669,261.296 384.925,264 C385.273,267.675 385.716,271.334 386.155,275 C386.832,280.657 387.882,286.297 388,292 L388,292 Z M388,402 C389.092,409.397 391.974,417.174 395,424 C368.573,420.66 341.621,415.143 315,414 C320.025,417.162 326.409,418.696 332,420.692 C342.363,424.393 352.67,428.266 363,432.053 C376.689,437.072 390.24,442.521 404,447.343 C409.621,449.313 415.114,451.987 421,453 C420.875,446.966 419.756,440.979 419,435 C424.456,435.234 429.656,436.538 435,437.54 C437.822,438.069 441.221,437.965 443.57,439.858 C447.751,443.228 448.822,452.249 451.32,457 C456.642,467.119 463.821,475.703 473,482.522 C506.501,507.408 555.477,499 579.279,465 C584.422,457.653 588.68,448.937 590,440 C598.77,439.623 607.321,437.121 616,436 L613,458 C648.38,446.488 682.611,431.515 718,420 C711.536,417.313 700.845,420.634 694,421.576 C676.636,423.968 658.523,427.638 641,428 C644.269,420.625 646.504,412.671 649,405 C635.97,405 623.057,404 610,404 C604.901,404 596.948,405.495 592.225,403.397 C587.433,401.268 585.996,391.349 583.677,387 C578.751,377.765 571.384,369.026 563,362.76 C530.092,338.165 480.507,345.023 456.721,379 C451.724,386.139 447.285,394.296 446,403 C426.975,400.596 407.177,402 388,402 Z M575,394 C565.137,393.883 561.99,384.561 554.985,378.808 C544.422,370.132 530.887,364.079 517,364.079 C503.11,364.079 489.557,369.921 479.001,378.616 C472.117,384.286 468.64,393.885 459,394 C461.809,387.49 465.969,381.985 471.004,377.015 C502.38,346.039 554.649,355.771 575,394 L575,394 Z M479.043,404.647 C484.422,402.885 487.636,408.753 488.749,413 C490.652,420.261 490.728,428.799 488.56,435.999 C487.617,439.132 486.225,442.825 482.896,444.098 C477.548,446.143 474.517,440.135 473.221,436 C470.975,428.836 471.215,419.139 473.444,412 C474.37,409.032 475.832,405.7 479.043,404.647 L479.043,404.647 Z M558,419 C554.028,418.692 552.558,417.674 551,414 L549,414 C546.588,421.61 546.37,427.779 550,435 L553,431 C550.399,428.727 551.003,425.306 551,422 L558,422 L558,444 C555.877,443.693 555.314,443.618 554,442 C547.384,447.654 543.177,440.421 541.935,434 C540.395,426.038 539.77,414.109 544.995,407.228 C552.574,397.248 557.748,413.213 558,419 L558,419 Z M460,405 L460,433 L467,433 L467,444 L454,444 L454,405 L460,405 L460,405 Z M501,405 C501,415.112 500.242,425.186 503,435 C508.537,427.302 506,414.173 506,405 L512,405 C512,414.904 513.561,426.32 511.319,436 C510.458,439.722 508.538,444.543 503.985,444.543 C499.369,444.543 496.749,440.037 496.189,436 C494.804,426.008 496,415.086 496,405 L501,405 L501,405 Z M525,405 C526.034,410.012 527.582,414.886 528,420 C529.435,415.147 529,410.036 529,405 L535,405 L535,444 L529,444 C528.054,437.571 525.532,431.517 525,425 C523.222,431.014 524,437.757 524,444 L519,444 L519,405 L525,405 L525,405 Z M580,405 L580,415 L571,415 L571,420 L579,420 L579,429 L571,429 L571,433 L580,433 L580,444 L565,444 L565,405 L580,405 L580,405 Z M480,414 C476.927,420.386 477.269,428.527 480,435 L482,435 C484.731,428.527 485.073,420.386 482,414 L480,414 L480,414 Z M719,418 C720.248,418.685 720.548,418.749 722,419 C720.752,418.315 720.451,418.251 719,418 L719,418 Z M575,452 C561.082,490.014 508.01,497.735 478,475.841 C469.982,469.991 461.861,461.723 459,452 C468.324,452.303 471.748,462.19 478.325,467.721 C489.172,476.843 502.697,482.481 517,482.29 C530.018,482.117 542.893,478.093 553,469.674 C560.247,463.638 564.962,452.12 575,452 L575,452 Z" id="logo" stroke="none" fill-rule="evenodd"></path>
</svg>
