<?xml version="1.0" standalone="no"?>
<!DOCTYPE svg PUBLIC "-//W3C//DTD SVG 1.1//EN" "http://www.w3.org/Graphics/SVG/1.1/DTD/svg11.dtd" >
<svg xmlns="http://www.w3.org/2000/svg" width="100%" height="100%">
<metadata>
Created by FontXChange 20100429 at Mon Jan  2 12:44:03 2017
 By Killian Grant
Copyright (c) 2015 by Connary Fagen. All rights reserved.
</metadata>
<defs>
<font id="QuincyCF-Light" horiz-adv-x="558" >
  <font-face 
    font-family="Quincy CF Light"
    font-weight="300"
    font-stretch="normal"
    units-per-em="1000"
    panose-1="0 0 4 0 0 0 0 0 0 0"
    ascent="800"
    descent="-200"
    x-height="451"
    cap-height="621"
    bbox="-155 -287.744 922 888"
    underline-thickness="50"
    underline-position="-50"
    stemh="37"
    stemv="68"
    unicode-range="U+0020-FB02"
  />
<missing-glyph horiz-adv-x="500" 
d="M0 0v700h500v-700h-500zM250 395l170 255h-340zM280 350l170 -255v510zM80 50h340l-170 255zM50 605v-510l170 255z" />
    <glyph glyph-name="f_f" unicode="ff" horiz-adv-x="717" 
d="M715 598c11 -11 23 -33 6 -49c-14 -15 -38 -15 -47 2c-16 33 -36 81 -91 81c-65 0 -92 -47 -92 -107v-68h156c-10 -31 -12 -35 -31 -35h-125v-377c0 -23 8 -28 52 -28v-17h-167v17c38 0 46 5 46 28v377h-66c-6 0 -10 4 -10 10v25h76v50v5v0c0 40 -40 123 -127 123
c-90 0 -128 -78 -128 -149v-29h123c-11 -31 -8 -35 -26 -35h-97v-377c0 -23 8 -28 52 -28v-17h-161v17c31 0 39 5 39 28v377h-59c-6 0 -10 4 -10 10v25h69v17c0 109 63 196 198 196c53 0 117 -23 156 -56c24 33 61 53 111 53c95 0 131 -41 153 -69z" />
    <glyph glyph-name="fi" unicode="fi" horiz-adv-x="573" 
d="M296 632c-100 0 -129 -58 -129 -146v-29h120c-12 -31 -9 -35 -26 -35h-94v-377c0 -23 8 -28 52 -28v-17h-161v17c31 0 39 5 39 28v377h-59c-6 0 -10 4 -10 10v25h69v17c0 125 54 193 199 193c109 0 202 -55 202 -119c0 -29 -6 -34 -35 -34c-18 0 -38 3 -38 34
c0 47 -25 84 -129 84zM475 427v-381c0 -23 17 -28 43 -28v-18h-151v18c27 0 44 5 44 28v337c0 23 -8 31 -28 31h-20v35l80 9c23 2 32 -9 32 -31z" />
    <glyph glyph-name="fl" unicode="fl" horiz-adv-x="589" 
d="M516 582v-512c0 -33 11 -55 57 -43l-8 -23c-20 -6 -31 -4 -39 -4c-50 0 -77 34 -77 88v463c0 3 -1 7 -2 11l-20 26c-27 24 -76 44 -131 44c-96 0 -129 -75 -129 -146v-29h140c-12 -31 -9 -35 -26 -35h-114v-377c0 -23 8 -28 52 -28v-17h-161v17c38 0 39 5 39 28v377h-59
c-6 0 -10 4 -10 10v25h69v17c0 109 58 193 199 193c48 0 109 -6 155 -18l36 7c37 7 31 -30 29 -74z" />
    <glyph glyph-name=".notdef" horiz-adv-x="500" 
d="M0 0v700h500v-700h-500zM250 395l170 255h-340zM280 350l170 -255v510zM80 50h340l-170 255zM50 605v-510l170 255z" />
    <glyph glyph-name="A" unicode="A" horiz-adv-x="701" 
d="M375 596l214 -487c31 -71 51 -79 92 -88v-21h-210v20c60 11 57 27 46 53l-61 143h-266l-56 -138c-13 -33 9 -47 57 -58v-20h-171v20c42 9 58 17 77 63l226 546l25 -6c11 -4 21 -10 27 -27zM202 247h241l-124 291z" />
    <glyph glyph-name="Aacute" unicode="&#xc1;" horiz-adv-x="701" 
d="M479 788l-146 -76c-10 -6 -16 -6 -21 0c-3 5 -1 12 9 20l117 108c22 21 41 11 47 -6c6 -18 14 -36 -6 -46zM375 596l214 -487c31 -71 51 -79 92 -88v-21h-210v20c60 11 57 27 46 53l-61 143h-266l-56 -138c-13 -33 9 -47 57 -58v-20h-171v20c42 9 58 17 77 63l226 546
l25 -6c11 -4 21 -10 27 -27zM202 247h241l-124 291z" />
    <glyph glyph-name="Abreve" unicode="&#x102;" horiz-adv-x="701" 
d="M341 732c-80 0 -127 63 -131 118c0 8 5 11 10 11h7c7 0 10 -3 11 -11c4 -29 36 -65 103 -65c68 0 99 36 103 65c1 8 4 11 11 11h7c5 0 10 -3 10 -11c-4 -55 -51 -118 -131 -118zM375 596l214 -487c31 -71 51 -79 92 -88v-21h-210v20c60 11 57 27 46 53l-61 143h-266
l-56 -138c-13 -33 9 -47 57 -58v-20h-171v20c42 9 58 17 77 63l226 546l25 -6c11 -4 21 -10 27 -27zM202 247h241l-124 291z" />
    <glyph glyph-name="Acircumflex" unicode="&#xc2;" horiz-adv-x="701" 
d="M348 783l-107 -79h-34l141 144l142 -144h-35zM375 596l214 -487c31 -71 51 -79 92 -88v-21h-210v20c60 11 57 27 46 53l-61 143h-266l-56 -138c-13 -33 9 -47 57 -58v-20h-171v20c42 9 58 17 77 63l226 546l25 -6c11 -4 21 -10 27 -27zM202 247h241l-124 291z" />
    <glyph glyph-name="Adieresis" unicode="&#xc4;" horiz-adv-x="701" 
d="M251 747c-24 0 -44 21 -44 44c0 24 20 45 44 45s44 -21 44 -45c0 -23 -20 -44 -44 -44zM427 747c-23 0 -44 21 -44 44c0 24 21 45 44 45c24 0 45 -21 45 -45c0 -23 -21 -44 -45 -44zM375 596l214 -487c31 -71 51 -79 92 -88v-21h-210v20c60 11 57 27 46 53l-61 143h-266
l-56 -138c-13 -33 9 -47 57 -58v-20h-171v20c42 9 58 17 77 63l226 546l25 -6c11 -4 21 -10 27 -27zM202 247h241l-124 291z" />
    <glyph glyph-name="Agrave" unicode="&#xc0;" horiz-adv-x="701" 
d="M384 712l-146 76c-20 10 -12 28 -6 46c6 17 26 27 47 6l117 -108c10 -8 13 -15 9 -20c-5 -6 -11 -6 -21 0zM375 596l214 -487c31 -71 51 -79 92 -88v-21h-210v20c60 11 57 27 46 53l-61 143h-266l-56 -138c-13 -33 9 -47 57 -58v-20h-171v20c42 9 58 17 77 63l226 546
l25 -6c11 -4 21 -10 27 -27zM202 247h241l-124 291z" />
    <glyph glyph-name="Amacron" unicode="&#x100;" horiz-adv-x="701" 
d="M487 758h-283c-13 0 -20 5 -20 17s7 17 20 17h283c13 0 20 -5 20 -17s-7 -17 -20 -17zM375 596l214 -487c31 -71 51 -79 92 -88v-21h-210v20c60 11 57 27 46 53l-61 143h-266l-56 -138c-13 -33 9 -47 57 -58v-20h-171v20c42 9 58 17 77 63l226 546l25 -6
c11 -4 21 -10 27 -27zM202 247h241l-124 291z" />
    <glyph glyph-name="Aogonek" unicode="&#x104;" horiz-adv-x="701" 
d="M681 0h-89c-61 -42 -70 -80 -70 -111c0 -34 28 -52 54 -52c46 0 68 22 83 53h19c-13 -31 -46 -89 -116 -89c-46 0 -102 28 -102 80c0 58 55 97 100 119h-89v20c60 11 57 27 46 53l-61 143h-266l-56 -138c-13 -33 9 -47 57 -58v-20h-171v20c42 9 58 17 77 63l226 546
l25 -6c11 -4 21 -10 27 -27l214 -487c31 -71 51 -79 92 -88v-21zM202 247h241l-124 291z" />
    <glyph glyph-name="Aring" unicode="&#xc5;" horiz-adv-x="701" 
d="M344 728c-46 0 -84 37 -84 80c0 44 38 80 84 80c45 0 83 -36 83 -80c0 -43 -38 -80 -83 -80zM344 862c-23 0 -43 -26 -43 -54c0 -29 20 -54 43 -54c21 0 42 25 42 54c0 28 -21 54 -42 54zM375 596l214 -487c31 -71 51 -79 92 -88v-21h-210v20c60 11 57 27 46 53l-61 143
h-266l-56 -138c-13 -33 9 -47 57 -58v-20h-171v20c42 9 58 17 77 63l226 546l25 -6c11 -4 21 -10 27 -27zM202 247h241l-124 291z" />
    <glyph glyph-name="Atilde" unicode="&#xc3;" horiz-adv-x="701" 
d="M188 739h-15c-9 58 50 92 99 92c63 0 90 -58 153 -58c34 0 70 26 72 42h19c-10 -62 -54 -96 -110 -96c-61 0 -105 68 -150 68c-43 0 -68 -28 -68 -48zM375 596l214 -487c31 -71 51 -79 92 -88v-21h-210v20c60 11 57 27 46 53l-61 143h-266l-56 -138c-13 -33 9 -47 57 -58
v-20h-171v20c42 9 58 17 77 63l226 546l25 -6c11 -4 21 -10 27 -27zM202 247h241l-124 291z" />
    <glyph glyph-name="AE" unicode="&#xc6;" horiz-adv-x="957" 
d="M892 112h30c-16 -32 -24 -57 -32 -89c-4 -15 -17 -23 -30 -23h-426v22c34 12 49 11 49 50v150h-221l-103 -152c-18 -28 3 -41 62 -51v-19h-201v19c56 10 71 18 99 61l320 470c19 27 22 42 -5 53v18h426c13 0 17 -3 17 -18v-97h-22l-15 33c-13 28 -37 46 -80 46h-200v-251
h187c33 0 38 27 51 59h15v-153h-15c-13 31 -18 60 -51 60h-187v-267l239 2c49 0 47 19 67 44zM282 252h201v298z" />
    <glyph glyph-name="B" unicode="B" horiz-adv-x="592" 
d="M409 336c92 -18 148 -80 148 -159c0 -118 -85 -179 -229 -177l-88 2c-105 7 -142 6 -215 -2v28c46 10 65 25 65 48v471c0 23 -24 38 -64 44v30h285c128 0 212 -45 212 -147c0 -55 -39 -115 -114 -138zM160 586v-233h222c21 0 64 50 64 124c0 72 -38 109 -120 109h-166z
M189 36h136c104 0 155 40 155 141c0 88 -57 144 -244 144h-76v-244c0 -22 8 -41 29 -41z" />
    <glyph glyph-name="C" unicode="C" horiz-adv-x="616" 
d="M572 423l-18 -8c-11 -5 -19 0 -23 11c-3 9 -8 21 -14 36c-41 99 -117 142 -199 142c-103 0 -210 -82 -210 -256c0 -202 125 -324 228 -324c91 0 137 55 172 108c13 22 17 37 30 37c6 0 26 -12 31 -16c5 -10 -4 -23 -18 -47c-51 -85 -132 -121 -229 -121
c-169 0 -295 156 -295 334c0 170 126 318 286 318c81 0 145 -36 184 -82c17 0 25 23 29 49c2 11 8 17 19 17h16z" />
    <glyph glyph-name="Cacute" unicode="&#x106;" horiz-adv-x="616" 
d="M416 840l-117 -108c-10 -8 -12 -15 -9 -20c5 -6 11 -6 21 0l146 76c20 10 12 28 6 46c-6 17 -25 27 -47 6zM572 423l-18 -8c-11 -5 -19 0 -23 11c-3 9 -8 21 -14 36c-41 99 -117 142 -199 142c-103 0 -210 -82 -210 -256c0 -202 125 -324 228 -324c91 0 137 55 172 108
c13 22 17 37 30 37c6 0 26 -12 31 -16c5 -10 -4 -23 -18 -47c-51 -85 -132 -121 -229 -121c-169 0 -295 156 -295 334c0 170 126 318 286 318c81 0 145 -36 184 -82c17 0 25 23 29 49c2 11 8 17 19 17h16z" />
    <glyph glyph-name="Ccaron" unicode="&#x10c;" horiz-adv-x="616" 
d="M310 708l-141 144h34l107 -79l107 79h35zM572 423l-18 -8c-11 -5 -19 0 -23 11c-3 9 -8 21 -14 36c-41 99 -117 142 -199 142c-103 0 -210 -82 -210 -256c0 -202 125 -324 228 -324c91 0 137 55 172 108c13 22 17 37 30 37c6 0 26 -12 31 -16c5 -10 -4 -23 -18 -47
c-51 -85 -132 -121 -229 -121c-169 0 -295 156 -295 334c0 170 126 318 286 318c81 0 145 -36 184 -82c17 0 25 23 29 49c2 11 8 17 19 17h16z" />
    <glyph glyph-name="Ccedilla" unicode="&#xc7;" horiz-adv-x="616" 
d="M538 169c6 0 26 -12 31 -16c5 -10 -4 -23 -18 -47c-49 -81 -124 -117 -215 -121l-16 -33c53 17 118 -22 107 -86c-10 -58 -63 -70 -118 -67c-50 3 -81 22 -87 55c-6 30 23 48 49 25c4 -21 7 -54 40 -57c38 -3 62 18 67 49c5 32 -18 58 -61 53c-17 -2 -30 -5 -37 -6
c-11 -2 -18 14 -11 24c8 14 15 30 22 45c-153 17 -264 165 -264 332c0 170 126 318 286 318c81 0 145 -36 184 -82c17 0 25 23 29 49c2 11 8 17 19 17h16l11 -198l-18 -8c-11 -5 -19 0 -23 11c-3 9 -8 21 -14 36c-41 99 -117 142 -199 142c-103 0 -210 -82 -210 -256
c0 -202 125 -324 228 -324c91 0 137 55 172 108c13 22 17 37 30 37z" />
    <glyph glyph-name="Cdotaccent" unicode="&#x10a;" horiz-adv-x="616" 
d="M312 748c-25 0 -46 22 -46 47s21 47 46 47s47 -22 47 -47s-22 -47 -47 -47zM572 423l-18 -8c-11 -5 -19 0 -23 11c-3 9 -8 21 -14 36c-41 99 -117 142 -199 142c-103 0 -210 -82 -210 -256c0 -202 125 -324 228 -324c91 0 137 55 172 108c13 22 17 37 30 37
c6 0 26 -12 31 -16c5 -10 -4 -23 -18 -47c-51 -85 -132 -121 -229 -121c-169 0 -295 156 -295 334c0 170 126 318 286 318c81 0 145 -36 184 -82c17 0 25 23 29 49c2 11 8 17 19 17h16z" />
    <glyph glyph-name="D" unicode="D" horiz-adv-x="627" 
d="M14 621h204c236 0 364 -77 364 -310c0 -221 -113 -319 -347 -310c-108 8 -146 7 -220 -1v28c46 10 65 25 65 48v471c0 23 -17 38 -66 51v23zM187 49l59 -5c198 -17 264 91 264 267c0 163 -72 275 -245 275h-115v-508c0 -24 8 -26 37 -29z" />
    <glyph glyph-name="Eth" unicode="&#xd0;" horiz-adv-x="631" 
d="M18 621h204c236 0 364 -77 364 -310c0 -221 -113 -319 -347 -310c-108 8 -146 7 -220 -1v28c46 10 65 25 65 48v218h-69v33h69v220c0 23 -17 38 -66 51v23zM191 49l59 -5c198 -17 264 91 264 267c0 163 -72 275 -245 275h-115v-259h131v-33h-131v-216c0 -24 8 -26 37 -29
z" />
    <glyph glyph-name="Dcaron" unicode="&#x10e;" horiz-adv-x="627" 
d="M298 708l-141 144h34l107 -79l107 79h35zM14 621h204c236 0 364 -77 364 -310c0 -221 -113 -319 -347 -310c-108 8 -146 7 -220 -1v28c46 10 65 25 65 48v471c0 23 -17 38 -66 51v23zM187 49l59 -5c198 -17 264 91 264 267c0 163 -72 275 -245 275h-115v-508
c0 -24 8 -26 37 -29z" />
    <glyph glyph-name="Dcroat" unicode="&#x110;" horiz-adv-x="631" 
d="M18 621h204c236 0 364 -77 364 -310c0 -221 -113 -319 -347 -310c-108 8 -146 7 -220 -1v28c46 10 65 25 65 48v218h-69v33h69v220c0 23 -17 38 -66 51v23zM191 49l59 -5c198 -17 264 91 264 267c0 163 -72 275 -245 275h-115v-259h131v-33h-131v-216c0 -24 8 -26 37 -29
z" />
    <glyph glyph-name="E" unicode="E" 
d="M493 112h30c-16 -32 -24 -57 -32 -89c-4 -15 -17 -23 -30 -23h-426v22c34 12 49 11 49 50v480c0 40 -15 38 -49 51v18h426c13 0 17 -3 17 -18v-97h-22l-15 33c-13 28 -37 46 -80 46h-200v-251h187c33 0 38 27 51 59h15v-153h-15c-13 31 -18 60 -51 60h-187v-267l239 2
c49 0 47 19 67 44z" />
    <glyph glyph-name="Eacute" unicode="&#xc9;" 
d="M364 840l-117 -108c-10 -8 -12 -15 -9 -20c5 -6 11 -6 21 0l146 76c20 10 12 28 6 46c-6 17 -25 27 -47 6zM493 112h30c-16 -32 -24 -57 -32 -89c-4 -15 -17 -23 -30 -23h-426v22c34 12 49 11 49 50v480c0 40 -15 38 -49 51v18h426c13 0 17 -3 17 -18v-97h-22l-15 33
c-13 28 -37 46 -80 46h-200v-251h187c33 0 38 27 51 59h15v-153h-15c-13 31 -18 60 -51 60h-187v-267l239 2c49 0 47 19 67 44z" />
    <glyph glyph-name="Ecaron" unicode="&#x11a;" 
d="M258 708l-141 144h34l107 -79l107 79h35zM493 112h30c-16 -32 -24 -57 -32 -89c-4 -15 -17 -23 -30 -23h-426v22c34 12 49 11 49 50v480c0 40 -15 38 -49 51v18h426c13 0 17 -3 17 -18v-97h-22l-15 33c-13 28 -37 46 -80 46h-200v-251h187c33 0 38 27 51 59h15v-153h-15
c-13 31 -18 60 -51 60h-187v-267l239 2c49 0 47 19 67 44z" />
    <glyph glyph-name="Ecircumflex" unicode="&#xca;" 
d="M274 848l142 -144h-35l-107 79l-107 -79h-34zM493 112h30c-16 -32 -24 -57 -32 -89c-4 -15 -17 -23 -30 -23h-426v22c34 12 49 11 49 50v480c0 40 -15 38 -49 51v18h426c13 0 17 -3 17 -18v-97h-22l-15 33c-13 28 -37 46 -80 46h-200v-251h187c33 0 38 27 51 59h15v-153
h-15c-13 31 -18 60 -51 60h-187v-267l239 2c49 0 47 19 67 44z" />
    <glyph glyph-name="Edieresis" unicode="&#xcb;" 
d="M177 747c-24 0 -44 21 -44 44c0 24 20 45 44 45s44 -21 44 -45c0 -23 -20 -44 -44 -44zM353 747c-23 0 -44 21 -44 44c0 24 21 45 44 45c24 0 45 -21 45 -45c0 -23 -21 -44 -45 -44zM493 112h30c-16 -32 -24 -57 -32 -89c-4 -15 -17 -23 -30 -23h-426v22
c34 12 49 11 49 50v480c0 40 -15 38 -49 51v18h426c13 0 17 -3 17 -18v-97h-22l-15 33c-13 28 -37 46 -80 46h-200v-251h187c33 0 38 27 51 59h15v-153h-15c-13 31 -18 60 -51 60h-187v-267l239 2c49 0 47 19 67 44z" />
    <glyph glyph-name="Edotaccent" unicode="&#x116;" 
d="M260 748c-25 0 -46 22 -46 47s21 47 46 47s47 -22 47 -47s-22 -47 -47 -47zM493 112h30c-16 -32 -24 -57 -32 -89c-4 -15 -17 -23 -30 -23h-426v22c34 12 49 11 49 50v480c0 40 -15 38 -49 51v18h426c13 0 17 -3 17 -18v-97h-22l-15 33c-13 28 -37 46 -80 46h-200v-251
h187c33 0 38 27 51 59h15v-153h-15c-13 31 -18 60 -51 60h-187v-267l239 2c49 0 47 19 67 44z" />
    <glyph glyph-name="Egrave" unicode="&#xc8;" 
d="M322 732l-117 108c-21 21 -41 11 -47 -6c-6 -18 -14 -36 6 -46l146 -76c10 -6 16 -6 21 0c4 5 1 12 -9 20zM493 112h30c-16 -32 -24 -57 -32 -89c-4 -15 -17 -23 -30 -23h-426v22c34 12 49 11 49 50v480c0 40 -15 38 -49 51v18h426c13 0 17 -3 17 -18v-97h-22l-15 33
c-13 28 -37 46 -80 46h-200v-251h187c33 0 38 27 51 59h15v-153h-15c-13 31 -18 60 -51 60h-187v-267l239 2c49 0 47 19 67 44z" />
    <glyph glyph-name="Emacron" unicode="&#x112;" 
d="M110 775c0 12 7 17 20 17h283c13 0 20 -5 20 -17s-7 -17 -20 -17h-283c-13 0 -20 5 -20 17zM493 112h30c-16 -32 -24 -57 -32 -89c-4 -15 -17 -23 -30 -23h-426v22c34 12 49 11 49 50v480c0 40 -15 38 -49 51v18h426c13 0 17 -3 17 -18v-97h-22l-15 33
c-13 28 -37 46 -80 46h-200v-251h187c33 0 38 27 51 59h15v-153h-15c-13 31 -18 60 -51 60h-187v-267l239 2c49 0 47 19 67 44z" />
    <glyph glyph-name="Eogonek" unicode="&#x118;" 
d="M410 -163c46 0 68 22 83 53h19c-13 -31 -46 -89 -116 -89c-46 0 -102 28 -102 80c0 58 55 97 100 119h-359v22c34 12 49 11 49 50v480c0 40 -15 38 -49 51v18h426c13 0 17 -3 17 -18v-97h-22l-15 33c-13 28 -37 46 -80 46h-200v-251h187c33 0 38 27 51 59h15v-153h-15
c-13 31 -18 60 -51 60h-187v-267l239 2c49 0 47 19 67 44l26 33h30c-16 -32 -24 -57 -32 -89c-4 -15 -17 -23 -30 -23h-35c-61 -42 -70 -80 -70 -111c0 -34 28 -52 54 -52z" />
    <glyph glyph-name="Etilde" unicode="&#x1ebc;" 
d="M423 815h19c-10 -62 -54 -96 -110 -96c-61 0 -105 68 -150 68c-43 0 -68 -28 -68 -48h-15c-9 58 50 92 99 92c63 0 90 -58 153 -58c34 0 70 26 72 42zM493 112h30c-16 -32 -24 -57 -32 -89c-4 -15 -17 -23 -30 -23h-426v22c34 12 49 11 49 50v480c0 40 -15 38 -49 51v18
h426c13 0 17 -3 17 -18v-97h-22l-15 33c-13 28 -37 46 -80 46h-200v-251h187c33 0 38 27 51 59h15v-153h-15c-13 31 -18 60 -51 60h-187v-267l239 2c49 0 47 19 67 44z" />
    <glyph glyph-name="F" unicode="F" horiz-adv-x="539" 
d="M509 506h-22l-15 33c-12 29 -37 46 -80 46h-241v-251h188c33 0 38 27 51 59h15v-153h-15c-13 31 -18 60 -51 60h-188v-236c0 -39 16 -38 49 -51v-13h-175v13c34 13 49 12 49 51v488c0 40 -15 38 -49 51v18h441c1 0 11 -5 13 -1z" />
    <glyph glyph-name="G" unicode="G" horiz-adv-x="671" 
d="M571 428l-42 -20c-5 11 -10 25 -19 46c-43 103 -114 149 -194 149c-97 0 -210 -68 -210 -285c0 -203 107 -300 220 -300c88 0 175 72 175 112v93c0 20 -12 32 -32 32h-45v40l212 1v-41h-31c-20 0 -32 -12 -32 -32v-218c0 -13 -23 -17 -26 -5l-24 78
c-48 -46 -107 -88 -197 -88c-171 0 -301 134 -301 330c0 180 127 317 291 317c86 0 139 -36 183 -90c20 0 26 35 29 81h29z" />
    <glyph glyph-name="Gbreve" unicode="&#x11e;" horiz-adv-x="671" 
d="M323 732c-80 0 -127 63 -131 118c0 8 5 11 10 11h7c7 0 10 -3 11 -11c4 -29 36 -65 103 -65c68 0 99 36 103 65c1 8 4 11 11 11h7c5 0 10 -3 10 -11c-4 -55 -51 -118 -131 -118zM571 428l-42 -20c-5 11 -10 25 -19 46c-43 103 -114 149 -194 149
c-97 0 -210 -68 -210 -285c0 -203 107 -300 220 -300c88 0 175 72 175 112v93c0 20 -12 32 -32 32h-45v40l212 1v-41h-31c-20 0 -32 -12 -32 -32v-218c0 -13 -23 -17 -26 -5l-24 78c-48 -46 -107 -88 -197 -88c-171 0 -301 134 -301 330c0 180 127 317 291 317
c86 0 139 -36 183 -90c20 0 26 35 29 81h29z" />
    <glyph glyph-name="Gcommaaccent" unicode="&#x122;" horiz-adv-x="671" 
d="M571 428l-42 -20c-5 11 -10 25 -19 46c-43 103 -114 149 -194 149c-97 0 -210 -68 -210 -285c0 -203 107 -300 220 -300c88 0 175 72 175 112v93c0 20 -12 32 -32 32h-45v40l212 1v-41h-31c-20 0 -32 -12 -32 -32v-218c0 -13 -23 -17 -26 -5l-24 78
c-48 -46 -107 -88 -197 -88c-171 0 -301 134 -301 330c0 180 127 317 291 317c86 0 139 -36 183 -90c20 0 26 35 29 81h29zM380 -220c-8 -27 -25 -48 -45 -66c-5 -3 -9 -2 -15 2l-11 11c15 15 25 30 31 44c5 14 6 25 3 31c-6 -2 -13 -3 -25 -2c-23 4 -41 26 -38 52
c4 29 29 49 56 45c26 -4 41 -27 46 -48c5 -25 6 -42 -2 -69z" />
    <glyph glyph-name="Gdotaccent" unicode="&#x120;" horiz-adv-x="671" 
d="M316 748c-25 0 -46 22 -46 47s21 47 46 47s47 -22 47 -47s-22 -47 -47 -47zM571 428l-42 -20c-5 11 -10 25 -19 46c-43 103 -114 149 -194 149c-97 0 -210 -68 -210 -285c0 -203 107 -300 220 -300c88 0 175 72 175 112v93c0 20 -12 32 -32 32h-45v40l212 1v-41h-31
c-20 0 -32 -12 -32 -32v-218c0 -13 -23 -17 -26 -5l-24 78c-48 -46 -107 -88 -197 -88c-171 0 -301 134 -301 330c0 180 127 317 291 317c86 0 139 -36 183 -90c20 0 26 35 29 81h29z" />
    <glyph glyph-name="H" unicode="H" horiz-adv-x="652" 
d="M628 621v-18c-33 -13 -49 -11 -49 -51v-488c0 -39 16 -38 49 -51v-13h-175v13c33 13 49 12 49 51v233h-349v-233c0 -39 16 -38 49 -51v-13h-175v13c33 13 49 12 49 51v488c0 40 -16 38 -49 51v18h175v-18c-33 -13 -49 -11 -49 -51v-220h349v220c0 40 -16 38 -49 51v18
h175z" />
    <glyph glyph-name="Hbar" unicode="&#x126;" horiz-adv-x="642" 
d="M628 621v-18c-33 -13 -49 -11 -49 -51v-488c0 -39 16 -38 49 -51v-13h-175v13c33 13 49 12 49 51v233h-349v-233c0 -39 16 -38 49 -51v-13h-175v13c33 13 49 12 49 51v488c0 40 -16 38 -49 51v18h175v-18c-33 -13 -49 -11 -49 -51v-129h349v129c0 40 -16 38 -49 51v18
h175zM153 332h349v47h-349v-47z" />
    <glyph glyph-name="I" unicode="I" horiz-adv-x="252" 
d="M163 552v-488c0 -39 19 -38 52 -51v-13h-175v13c34 13 53 12 53 51v488c0 40 -19 38 -53 51v18h175v-18c-33 -13 -52 -11 -52 -51z" />
    <glyph glyph-name="IJ" unicode="&#x132;" horiz-adv-x="564" 
d="M163 552v-488c0 -39 19 -38 52 -51v-13h-175v13c34 13 53 12 53 51v488c0 40 -19 38 -53 51v18h175v-18c-33 -13 -52 -11 -52 -51zM524 621v-18c-34 -13 -53 -11 -53 -51v-580c0 -95 -45 -134 -127 -134c-69 0 -97 47 -97 74c0 34 16 47 44 47c27 0 38 -19 38 -43
c0 -19 11 -51 38 -51c24 0 34 26 34 59v628c0 40 -19 38 -52 51v18h175z" />
    <glyph glyph-name="Iacute" unicode="&#xcd;" horiz-adv-x="252" 
d="M223 840l-117 -108c-10 -8 -12 -15 -9 -20c5 -6 11 -6 21 0l146 76c20 10 12 28 6 46c-6 17 -25 27 -47 6zM163 552v-488c0 -39 19 -38 52 -51v-13h-175v13c34 13 53 12 53 51v488c0 40 -19 38 -53 51v18h175v-18c-33 -13 -52 -11 -52 -51z" />
    <glyph glyph-name="Icircumflex" unicode="&#xce;" horiz-adv-x="252" 
d="M132 848l142 -144h-35l-107 79l-107 -79h-35zM163 552v-488c0 -39 19 -38 52 -51v-13h-175v13c34 13 53 12 53 51v488c0 40 -19 38 -53 51v18h175v-18c-33 -13 -52 -11 -52 -51z" />
    <glyph glyph-name="Idieresis" unicode="&#xcf;" horiz-adv-x="252" 
d="M36 747c-24 0 -44 21 -44 44c0 24 20 45 44 45s44 -21 44 -45c0 -23 -20 -44 -44 -44zM212 747c-23 0 -44 21 -44 44c0 24 21 45 44 45c24 0 45 -21 45 -45c0 -23 -21 -44 -45 -44zM163 552v-488c0 -39 19 -38 52 -51v-13h-175v13c34 13 53 12 53 51v488
c0 40 -19 38 -53 51v18h175v-18c-33 -13 -52 -11 -52 -51z" />
    <glyph glyph-name="Idotaccent" unicode="&#x130;" horiz-adv-x="252" 
d="M119 748c-25 0 -46 22 -46 47s21 47 46 47s47 -22 47 -47s-22 -47 -47 -47zM163 552v-488c0 -39 19 -38 52 -51v-13h-175v13c34 13 53 12 53 51v488c0 40 -19 38 -53 51v18h175v-18c-33 -13 -52 -11 -52 -51z" />
    <glyph glyph-name="Igrave" unicode="&#xcc;" horiz-adv-x="252" 
d="M181 732l-117 108c-21 21 -41 11 -47 -6c-6 -18 -14 -36 6 -46l146 -76c10 -6 16 -6 21 0c4 5 1 12 -9 20zM163 552v-488c0 -39 19 -38 52 -51v-13h-175v13c34 13 53 12 53 51v488c0 40 -19 38 -53 51v18h175v-18c-33 -13 -52 -11 -52 -51z" />
    <glyph glyph-name="Imacron" unicode="&#x12a;" horiz-adv-x="252" 
d="M-31 775c0 12 7 17 20 17h283c13 0 20 -5 20 -17s-7 -17 -20 -17h-283c-13 0 -20 5 -20 17zM163 552v-488c0 -39 19 -38 52 -51v-13h-175v13c34 13 53 12 53 51v488c0 40 -19 38 -53 51v18h175v-18c-33 -13 -52 -11 -52 -51z" />
    <glyph glyph-name="Iogonek" unicode="&#x12e;" horiz-adv-x="252" 
d="M213 -110h19c-13 -31 -46 -89 -116 -89c-46 0 -102 28 -102 80c0 58 55 97 100 119h-74v13c34 13 53 12 53 51v488c0 40 -19 38 -53 51v18h175v-18c-33 -13 -52 -11 -52 -51v-488c0 -39 19 -38 52 -51v-13h-69c-61 -42 -70 -80 -70 -111c0 -34 28 -52 54 -52
c46 0 68 22 83 53z" />
    <glyph glyph-name="J" unicode="J" horiz-adv-x="312" 
d="M272 621v-18c-34 -13 -53 -11 -53 -51v-580c0 -95 -45 -134 -127 -134c-69 0 -97 47 -97 74c0 34 16 47 44 47c27 0 38 -19 38 -43c0 -19 11 -51 38 -51c24 0 34 26 34 59v628c0 40 -19 38 -52 51v18h175z" />
    <glyph glyph-name="K" unicode="K" horiz-adv-x="609" 
d="M237 337l215 -241c60 -68 88 -71 122 -79v-17h-204v17c29 8 51 12 37 28l-221 254h-43v-235c0 -39 19 -38 52 -51v-13h-175v13c34 13 53 12 53 51v488c0 40 -19 38 -53 51v18h175v-18c-33 -13 -52 -11 -52 -51v-213h18c15 0 35 8 47 21l199 214c17 19 -8 25 -29 28v19
h154v-19c-26 -3 -54 -7 -73 -27z" />
    <glyph glyph-name="Kcommaaccent" unicode="&#x136;" horiz-adv-x="609" 
d="M237 337l215 -241c60 -68 88 -71 122 -79v-17h-204v17c29 8 51 12 37 28l-221 254h-43v-235c0 -39 19 -38 52 -51v-13h-175v13c34 13 53 12 53 51v488c0 40 -19 38 -53 51v18h175v-18c-33 -13 -52 -11 -52 -51v-213h18c15 0 35 8 47 21l199 214c17 19 -8 25 -29 28v19
h154v-19c-26 -3 -54 -7 -73 -27zM272 -103c26 -4 41 -27 46 -48c5 -25 6 -42 -2 -69s-25 -48 -45 -66c-5 -3 -9 -2 -15 2l-11 11c15 15 25 30 31 44c5 14 6 25 3 31c-6 -2 -13 -3 -25 -2c-23 4 -41 26 -38 52c4 29 29 49 56 45z" />
    <glyph glyph-name="L" unicode="L" horiz-adv-x="535" 
d="M500 106l-24 -83c-5 -15 -17 -23 -30 -23h-434v13c33 13 53 12 53 51v488c0 40 -20 38 -53 51v18h175v-18c-33 -13 -52 -11 -52 -51v-478c1 -34 15 -40 30 -39l209 8c43 2 64 3 80 31l18 32h28z" />
    <glyph glyph-name="Lacute" unicode="&#x139;" horiz-adv-x="535" 
d="M183 840l-117 -108c-10 -8 -12 -15 -9 -20c5 -6 11 -6 21 0l146 76c20 10 12 28 6 46c-6 17 -25 27 -47 6zM500 106l-24 -83c-5 -15 -17 -23 -30 -23h-434v13c33 13 53 12 53 51v488c0 40 -20 38 -53 51v18h175v-18c-33 -13 -52 -11 -52 -51v-478c1 -34 15 -40 30 -39
l209 8c43 2 64 3 80 31l18 32h28z" />
    <glyph glyph-name="Lcaron" unicode="&#x13d;" horiz-adv-x="535" 
d="M500 106l-24 -83c-5 -15 -17 -23 -30 -23h-434v13c33 13 53 12 53 51v488c0 40 -20 38 -53 51v18h175v-18c-33 -13 -52 -11 -52 -51v-478c1 -34 15 -40 30 -39l209 8c43 2 64 3 80 31l18 32h28zM302 501c-8 -26 -25 -48 -45 -65c-5 -3 -9 -3 -15 2l-11 11
c15 15 26 30 31 43c5 14 6 25 3 32c-6 -2 -13 -4 -24 -3c-24 4 -42 27 -39 53c4 29 29 49 56 45c26 -4 42 -27 47 -49c4 -25 5 -41 -3 -69z" />
    <glyph glyph-name="Lcommaaccent" unicode="&#x13b;" horiz-adv-x="535" 
d="M500 106l-24 -83c-5 -15 -17 -23 -30 -23h-434v13c33 13 53 12 53 51v488c0 40 -20 38 -53 51v18h175v-18c-33 -13 -52 -11 -52 -51v-478c1 -34 15 -40 30 -39l209 8c43 2 64 3 80 31l18 32h28zM315 -220c-8 -27 -25 -48 -45 -66c-5 -3 -9 -2 -15 2l-11 11
c15 15 25 30 31 44c5 14 6 25 3 31c-6 -2 -13 -3 -25 -2c-23 4 -41 26 -38 52c4 29 29 49 56 45c26 -4 41 -27 46 -48c5 -25 6 -42 -2 -69z" />
    <glyph glyph-name="Ldot" unicode="&#x13f;" horiz-adv-x="535" 
d="M500 106l-24 -83c-5 -15 -17 -23 -30 -23h-434v13c33 13 53 12 53 51v488c0 40 -20 38 -53 51v18h175v-18c-33 -13 -52 -11 -52 -51v-478c1 -34 15 -40 30 -39l209 8c43 2 64 3 80 31l18 32h28zM342 343c-27 0 -50 23 -50 51c0 27 23 50 50 50s50 -23 50 -50
c0 -28 -23 -51 -50 -51z" />
    <glyph glyph-name="Lslash" unicode="&#x141;" horiz-adv-x="572" 
d="M508 106h29l-24 -83c-5 -15 -17 -23 -30 -23h-434v13c33 13 52 12 52 51v188l-89 -27v55l89 27v245c0 40 -19 38 -52 51v18h175v-18c-33 -13 -53 -11 -53 -51v-223l243 75v-55l-243 -75v-200c2 -34 16 -40 31 -39l209 8c43 2 64 3 80 31z" />
    <glyph glyph-name="M" unicode="M" horiz-adv-x="798" 
d="M758 621v-15c-35 -12 -44 -27 -44 -67v-473c0 -40 9 -40 44 -53v-13h-162v13c30 13 48 13 48 53v466l-236 -477c-13 -26 -10 -26 -24 0l-265 491v-480c0 -40 18 -40 50 -53v-13h-139v13c35 13 51 13 51 53v473c0 40 -16 55 -51 67v15h138l246 -460l229 460h115z" />
    <glyph glyph-name="N" unicode="N" horiz-adv-x="641" 
d="M616 621v-13c-39 -13 -56 -28 -56 -51v-557c0 -10 1 -10 -7 0l-434 530v-464c0 -23 18 -38 54 -51v-15h-148v15c38 13 56 28 56 51v491c0 23 -18 38 -56 51v13h122l367 -465v401c0 23 -16 38 -56 51v13h158z" />
    <glyph glyph-name="Nacute" unicode="&#x143;" horiz-adv-x="641" 
d="M414 840l-117 -108c-10 -8 -12 -15 -9 -20c5 -6 11 -6 21 0l146 76c20 10 12 28 6 46c-6 17 -25 27 -47 6zM616 621v-13c-39 -13 -56 -28 -56 -51v-557c0 -10 1 -10 -7 0l-434 530v-464c0 -23 18 -38 54 -51v-15h-148v15c38 13 56 28 56 51v491c0 23 -18 38 -56 51v13
h122l367 -465v401c0 23 -16 38 -56 51v13h158z" />
    <glyph glyph-name="Ncaron" unicode="&#x147;" horiz-adv-x="641" 
d="M308 708l-141 144h34l107 -79l107 79h35zM616 621v-13c-39 -13 -56 -28 -56 -51v-557c0 -10 1 -10 -7 0l-434 530v-464c0 -23 18 -38 54 -51v-15h-148v15c38 13 56 28 56 51v491c0 23 -18 38 -56 51v13h122l367 -465v401c0 23 -16 38 -56 51v13h158z" />
    <glyph glyph-name="Ncommaaccent" unicode="&#x145;" horiz-adv-x="641" 
d="M616 621v-13c-39 -13 -56 -28 -56 -51v-557c0 -10 1 -10 -7 0l-434 530v-464c0 -23 18 -38 54 -51v-15h-148v15c38 13 56 28 56 51v491c0 23 -18 38 -56 51v13h122l367 -465v401c0 23 -16 38 -56 51v13h158zM379 -220c-8 -27 -25 -48 -45 -66c-5 -3 -9 -2 -15 2l-11 11
c15 15 25 30 31 44c5 14 6 25 3 31c-6 -2 -13 -3 -25 -2c-23 4 -41 26 -38 52c4 29 29 49 56 45c26 -4 41 -27 46 -48c5 -25 6 -42 -2 -69z" />
    <glyph glyph-name="Eng" unicode="&#x14a;" horiz-adv-x="646" 
d="M458 621h158v-13c-39 -13 -56 -28 -56 -51v-557v-6v-11c0 -68 -23 -114 -67 -126c-73 -22 -134 -5 -146 36c-2 12 -6 38 13 48c21 13 41 11 49 -2c7 -14 20 -72 58 -65c15 3 23 23 23 50v153l-371 453v-464c0 -23 18 -38 54 -51v-15h-148v15c38 13 56 28 56 51v491
c0 23 -18 38 -56 51v13h122l367 -465v401c0 23 -16 38 -56 51v13z" />
    <glyph glyph-name="Ntilde" unicode="&#xd1;" horiz-adv-x="641" 
d="M473 815h19c-10 -62 -54 -96 -110 -96c-61 0 -105 68 -150 68c-43 0 -68 -28 -68 -48h-15c-9 58 50 92 99 92c63 0 90 -58 153 -58c34 0 70 26 72 42zM616 621v-13c-39 -13 -56 -28 -56 -51v-557c0 -10 1 -10 -7 0l-434 530v-464c0 -23 18 -38 54 -51v-15h-148v15
c38 13 56 28 56 51v491c0 23 -18 38 -56 51v13h122l367 -465v401c0 23 -16 38 -56 51v13h158z" />
    <glyph glyph-name="O" unicode="O" horiz-adv-x="636" 
d="M606 316c0 -189 -116 -331 -288 -331c-171 0 -288 156 -288 331c0 179 117 321 288 321c172 0 288 -136 288 -321zM311 19c131 0 214 60 214 267c0 193 -113 319 -207 319c-117 0 -207 -39 -207 -259c0 -209 106 -327 200 -327z" />
    <glyph glyph-name="Oacute" unicode="&#xd3;" horiz-adv-x="636" 
d="M412 840l-117 -108c-10 -8 -12 -15 -9 -20c5 -6 11 -6 21 0l146 76c20 10 12 28 6 46c-6 17 -25 27 -47 6zM606 316c0 -189 -116 -331 -288 -331c-171 0 -288 156 -288 331c0 179 117 321 288 321c172 0 288 -136 288 -321zM311 19c131 0 214 60 214 267
c0 193 -113 319 -207 319c-117 0 -207 -39 -207 -259c0 -209 106 -327 200 -327z" />
    <glyph glyph-name="Ocircumflex" unicode="&#xd4;" horiz-adv-x="636" 
d="M321 848l142 -144h-35l-107 79l-107 -79h-34zM606 316c0 -189 -116 -331 -288 -331c-171 0 -288 156 -288 331c0 179 117 321 288 321c172 0 288 -136 288 -321zM311 19c131 0 214 60 214 267c0 193 -113 319 -207 319c-117 0 -207 -39 -207 -259
c0 -209 106 -327 200 -327z" />
    <glyph glyph-name="Odieresis" unicode="&#xd6;" horiz-adv-x="636" 
d="M224 747c-24 0 -44 21 -44 44c0 24 20 45 44 45s44 -21 44 -45c0 -23 -20 -44 -44 -44zM400 747c-23 0 -44 21 -44 44c0 24 21 45 44 45c24 0 45 -21 45 -45c0 -23 -21 -44 -45 -44zM606 316c0 -189 -116 -331 -288 -331c-171 0 -288 156 -288 331c0 179 117 321 288 321
c172 0 288 -136 288 -321zM311 19c131 0 214 60 214 267c0 193 -113 319 -207 319c-117 0 -207 -39 -207 -259c0 -209 106 -327 200 -327z" />
    <glyph glyph-name="Ograve" unicode="&#xd2;" horiz-adv-x="636" 
d="M369 732l-117 108c-21 21 -41 11 -47 -6c-6 -18 -14 -36 6 -46l146 -76c10 -6 16 -6 21 0c4 5 1 12 -9 20zM606 316c0 -189 -116 -331 -288 -331c-171 0 -288 156 -288 331c0 179 117 321 288 321c172 0 288 -136 288 -321zM311 19c131 0 214 60 214 267
c0 193 -113 319 -207 319c-117 0 -207 -39 -207 -259c0 -209 106 -327 200 -327z" />
    <glyph glyph-name="Ohungarumlaut" unicode="&#x150;" horiz-adv-x="636" 
d="M285 840l-117 -108c-10 -8 -12 -15 -9 -20c5 -6 11 -6 21 0l146 76c20 10 12 28 6 46c-6 17 -25 27 -47 6zM492 840l-117 -108c-10 -8 -12 -15 -9 -20c5 -6 11 -6 21 0l146 76c20 10 12 28 6 46c-6 17 -25 27 -47 6zM606 316c0 -189 -116 -331 -288 -331
c-171 0 -288 156 -288 331c0 179 117 321 288 321c172 0 288 -136 288 -321zM311 19c131 0 214 60 214 267c0 193 -113 319 -207 319c-117 0 -207 -39 -207 -259c0 -209 106 -327 200 -327z" />
    <glyph glyph-name="Omacron" unicode="&#x14c;" horiz-adv-x="636" 
d="M158 775c0 12 7 17 20 17h283c13 0 20 -5 20 -17s-7 -17 -20 -17h-283c-13 0 -20 5 -20 17zM606 316c0 -189 -116 -331 -288 -331c-171 0 -288 156 -288 331c0 179 117 321 288 321c172 0 288 -136 288 -321zM311 19c131 0 214 60 214 267c0 193 -113 319 -207 319
c-117 0 -207 -39 -207 -259c0 -209 106 -327 200 -327z" />
    <glyph glyph-name="Oslash" unicode="&#xd8;" horiz-adv-x="636" 
d="M564 617l-47 -61c56 -58 89 -142 89 -240c0 -189 -116 -331 -288 -331c-71 0 -133 27 -181 71l-54 -71l-27 19l58 76c-53 61 -84 146 -84 236c0 179 117 321 288 321c68 0 128 -21 175 -59l43 57zM111 346c0 -86 18 -157 46 -210l295 388c-39 52 -89 81 -134 81
c-117 0 -207 -39 -207 -259zM311 19c131 0 214 60 214 267c0 84 -21 156 -53 209l-297 -389c38 -57 89 -87 136 -87z" />
    <glyph glyph-name="Otilde" unicode="&#xd5;" horiz-adv-x="636" 
d="M470 815h19c-10 -62 -54 -96 -110 -96c-61 0 -105 68 -150 68c-43 0 -68 -28 -68 -48h-15c-9 58 50 92 99 92c63 0 90 -58 153 -58c34 0 70 26 72 42zM606 316c0 -189 -116 -331 -288 -331c-171 0 -288 156 -288 331c0 179 117 321 288 321c172 0 288 -136 288 -321z
M311 19c131 0 214 60 214 267c0 193 -113 319 -207 319c-117 0 -207 -39 -207 -259c0 -209 106 -327 200 -327z" />
    <glyph glyph-name="OE" unicode="&#x152;" horiz-adv-x="937" 
d="M872 112h30c-16 -32 -24 -57 -32 -89c-4 -15 -17 -23 -30 -23h-426v1c-29 -10 -62 -16 -96 -16c-171 0 -288 156 -288 331c0 179 117 321 288 321c35 0 68 -6 97 -16h425c13 0 17 -3 17 -18v-97h-22l-15 33c-13 28 -37 46 -80 46h-200v-251h187c33 0 38 27 51 59h15v-153
h-15c-13 31 -18 60 -51 60h-187v-267l239 2c49 0 47 19 67 44zM311 19c64 0 115 14 152 51v2v440c-42 59 -98 93 -145 93c-117 0 -207 -39 -207 -259c0 -209 106 -327 200 -327z" />
    <glyph glyph-name="P" unicode="P" horiz-adv-x="542" 
d="M25 621h260c133 0 232 -72 232 -191c0 -118 -102 -182 -245 -182h-124v-184c0 -39 19 -38 52 -51v-13h-175v13c34 13 53 12 53 51v488c0 40 -19 38 -53 51v18zM148 272h138c112 0 144 72 144 158c0 87 -34 160 -131 160h-151v-318z" />
    <glyph glyph-name="Thorn" unicode="&#xde;" horiz-adv-x="544" 
d="M141 552v-488c0 -39 19 -38 52 -51v-13h-175v13c34 13 53 12 53 51v488c0 40 -19 38 -53 51v18h175v-18c-33 -13 -52 -11 -52 -51zM144 512h125c157 0 244 -78 244 -195c0 -113 -85 -182 -243 -182h-126v23h139c125 0 143 60 143 153s-22 174 -143 174h-139v27z" />
    <glyph glyph-name="Q" unicode="Q" horiz-adv-x="683" 
d="M609 -18c24 0 34 -15 35 -39c0 -59 -53 -107 -118 -107c-36 1 -80 18 -128 47l-134 90c-62 39 -129 19 -130 -27c0 -21 -15 -38 -32 -38c-15 0 -31 17 -31 41c0 40 35 75 78 90c-75 61 -119 162 -119 270c0 179 117 321 288 321c172 0 288 -136 288 -321
c0 -179 -104 -315 -260 -330l106 -80c61 -46 124 -7 124 35c-1 27 8 48 33 48zM111 339c0 -146 52 -247 115 -295c23 -5 47 -15 73 -31l12 -1c131 0 214 60 214 267c0 193 -113 319 -207 319c-117 0 -207 -39 -207 -259z" />
    <glyph glyph-name="R" unicode="R" horiz-adv-x="603" 
d="M578 23v-23h-97c-29 20 -90 59 -107 161c-19 96 -37 134 -137 134h-83v-231c0 -39 20 -38 51 -51v-13h-170v13c34 13 49 12 49 51v477c0 39 -15 54 -49 67v13h241c139 0 219 -71 219 -170c0 -76 -57 -133 -154 -159c87 -12 95 -62 111 -124c15 -59 54 -140 103 -145h23z
M154 316h136c102 0 122 70 122 135c0 68 -33 139 -113 139h-145v-274z" />
    <glyph glyph-name="Racute" unicode="&#x154;" horiz-adv-x="603" 
d="M381 840l-117 -108c-10 -8 -12 -15 -9 -20c5 -6 11 -6 21 0l146 76c20 10 12 28 6 46c-6 17 -25 27 -47 6zM578 23v-23h-97c-29 20 -90 59 -107 161c-19 96 -37 134 -137 134h-83v-231c0 -39 20 -38 51 -51v-13h-170v13c34 13 49 12 49 51v477c0 39 -15 54 -49 67v13h241
c139 0 219 -71 219 -170c0 -76 -57 -133 -154 -159c87 -12 95 -62 111 -124c15 -59 54 -140 103 -145h23zM154 316h136c102 0 122 70 122 135c0 68 -33 139 -113 139h-145v-274z" />
    <glyph glyph-name="Rcaron" unicode="&#x158;" horiz-adv-x="603" 
d="M275 708l-141 144h34l107 -79l107 79h35zM578 23v-23h-97c-29 20 -90 59 -107 161c-19 96 -37 134 -137 134h-83v-231c0 -39 20 -38 51 -51v-13h-170v13c34 13 49 12 49 51v477c0 39 -15 54 -49 67v13h241c139 0 219 -71 219 -170c0 -76 -57 -133 -154 -159
c87 -12 95 -62 111 -124c15 -59 54 -140 103 -145h23zM154 316h136c102 0 122 70 122 135c0 68 -33 139 -113 139h-145v-274z" />
    <glyph glyph-name="Rcommaaccent" unicode="&#x156;" horiz-adv-x="603" 
d="M578 23v-23h-97c-29 20 -90 59 -107 161c-19 96 -37 134 -137 134h-83v-231c0 -39 20 -38 51 -51v-13h-170v13c34 13 49 12 49 51v477c0 39 -15 54 -49 67v13h241c139 0 219 -71 219 -170c0 -76 -57 -133 -154 -159c87 -12 95 -62 111 -124c15 -59 54 -140 103 -145h23z
M154 316h136c102 0 122 70 122 135c0 68 -33 139 -113 139h-145v-274zM340 -220c-8 -27 -25 -48 -45 -66c-5 -3 -9 -2 -15 2l-11 11c15 15 25 30 31 44c5 14 6 25 3 31c-6 -2 -13 -3 -25 -2c-23 4 -41 26 -38 52c4 29 29 49 56 45c26 -4 41 -27 46 -48c5 -25 6 -42 -2 -69z
" />
    <glyph glyph-name="S" unicode="S" horiz-adv-x="533" 
d="M485 439l-21 -4c-13 -2 -21 1 -24 12l-11 40c-17 65 -89 120 -165 120c-88 0 -145 -73 -136 -139c9 -69 86 -91 137 -108c60 -19 223 -48 237 -177c16 -137 -117 -198 -228 -198c-110 0 -125 55 -187 34l-52 157l21 5c14 5 22 2 30 -13c7 -13 15 -27 22 -41
c29 -58 90 -102 169 -102c64 0 155 24 143 130c-9 89 -97 108 -171 132c-72 24 -176 48 -192 158c-13 82 59 193 207 193c128 0 147 -60 208 -72z" />
    <glyph glyph-name="Sacute" unicode="&#x15a;" horiz-adv-x="533" 
d="M385 840l-117 -108c-10 -8 -12 -15 -9 -20c5 -6 11 -6 21 0l146 76c20 10 12 28 6 46c-6 17 -25 27 -47 6zM485 439l-21 -4c-13 -2 -21 1 -24 12l-11 40c-17 65 -89 120 -165 120c-88 0 -145 -73 -136 -139c9 -69 86 -91 137 -108c60 -19 223 -48 237 -177
c16 -137 -117 -198 -228 -198c-110 0 -125 55 -187 34l-52 157l21 5c14 5 22 2 30 -13c7 -13 15 -27 22 -41c29 -58 90 -102 169 -102c64 0 155 24 143 130c-9 89 -97 108 -171 132c-72 24 -176 48 -192 158c-13 82 59 193 207 193c128 0 147 -60 208 -72z" />
    <glyph glyph-name="Scaron" unicode="&#x160;" horiz-adv-x="533" 
d="M279 708l-141 144h34l107 -79l107 79h35zM485 439l-21 -4c-13 -2 -21 1 -24 12l-11 40c-17 65 -89 120 -165 120c-88 0 -145 -73 -136 -139c9 -69 86 -91 137 -108c60 -19 223 -48 237 -177c16 -137 -117 -198 -228 -198c-110 0 -125 55 -187 34l-52 157l21 5
c14 5 22 2 30 -13c7 -13 15 -27 22 -41c29 -58 90 -102 169 -102c64 0 155 24 143 130c-9 89 -97 108 -171 132c-72 24 -176 48 -192 158c-13 82 59 193 207 193c128 0 147 -60 208 -72z" />
    <glyph glyph-name="Scedilla" unicode="&#x15e;" horiz-adv-x="533" 
d="M502 183c15 -126 -96 -188 -201 -197l-16 -34c53 17 118 -22 107 -86c-10 -58 -63 -70 -118 -67c-50 3 -81 22 -87 55c-6 30 23 48 49 25c4 -21 7 -54 40 -57c38 -3 62 18 67 49c5 32 -18 58 -61 53c-17 -2 -30 -5 -37 -6c-11 -2 -18 14 -11 24c8 14 15 29 22 44
c-94 5 -111 53 -169 33l-52 157l21 5c14 5 22 2 30 -13c7 -13 15 -27 22 -41c29 -58 90 -102 169 -102c64 0 155 24 143 130c-9 89 -97 108 -171 132c-72 24 -176 48 -192 158c-13 82 59 193 207 193c128 0 147 -60 208 -72l13 -127l-21 -4c-13 -2 -21 1 -24 12l-11 40
c-17 65 -89 120 -165 120c-88 0 -145 -73 -136 -139c9 -69 86 -91 137 -108c60 -19 223 -48 237 -177z" />
    <glyph glyph-name="Scommaaccent" unicode="&#x218;" horiz-adv-x="533" 
d="M485 439l-21 -4c-13 -2 -21 1 -24 12l-11 40c-17 65 -89 120 -165 120c-88 0 -145 -73 -136 -139c9 -69 86 -91 137 -108c60 -19 223 -48 237 -177c16 -137 -117 -198 -228 -198c-110 0 -125 55 -187 34l-52 157l21 5c14 5 22 2 30 -13c7 -13 15 -27 22 -41
c29 -58 90 -102 169 -102c64 0 155 24 143 130c-9 89 -97 108 -171 132c-72 24 -176 48 -192 158c-13 82 59 193 207 193c128 0 147 -60 208 -72zM320 -220c-8 -27 -25 -48 -45 -66c-5 -3 -9 -2 -15 2l-11 11c15 15 25 30 31 44c5 14 6 25 3 31c-6 -2 -13 -3 -25 -2
c-23 4 -41 26 -38 52c4 29 29 49 56 45c26 -4 41 -27 46 -48c5 -25 6 -42 -2 -69z" />
    <glyph glyph-name="T" unicode="T" horiz-adv-x="577" 
d="M546 599l6 -88h-13l-11 33c-7 18 -22 31 -45 31h-158v-511c0 -39 19 -38 53 -51v-13h-177v13c33 13 52 12 52 51v511h-159c-23 0 -38 -13 -45 -31l-11 -33h-13l6 88c1 15 8 22 21 22h473c13 0 20 -7 21 -22z" />
    <glyph glyph-name="Tbar" unicode="&#x166;" horiz-adv-x="577" 
d="M546 599l6 -88h-13l-11 33c-7 18 -22 31 -45 31h-158v-145h117c13 0 20 -5 20 -17s-7 -17 -20 -17h-117v-332c0 -39 19 -38 53 -51v-13h-177v13c33 13 52 12 52 51v332h-94c-13 0 -20 5 -20 17s7 17 20 17h94v145h-159c-23 0 -38 -13 -45 -31l-11 -33h-13l6 88
c1 15 8 22 21 22h473c13 0 20 -7 21 -22z" />
    <glyph glyph-name="Tcaron" unicode="&#x164;" horiz-adv-x="577" 
d="M429 852l-142 -144l-141 144h34l107 -79l107 79h35zM546 599l6 -88h-13l-11 33c-7 18 -22 31 -45 31h-158v-511c0 -39 19 -38 53 -51v-13h-177v13c33 13 52 12 52 51v511h-159c-23 0 -38 -13 -45 -31l-11 -33h-13l6 88c1 15 8 22 21 22h473c13 0 20 -7 21 -22z" />
    <glyph glyph-name="Tcedilla" unicode="&#x162;" horiz-adv-x="577" 
d="M546 599l6 -88h-13l-11 33c-7 18 -22 31 -45 31h-158v-511c0 -39 19 -38 53 -51v-13h-62l-23 -48c53 17 118 -22 107 -86c-10 -58 -63 -70 -118 -67c-50 3 -81 22 -87 55c-6 30 23 48 49 25c4 -21 7 -54 40 -57c38 -3 62 18 67 49c5 32 -18 58 -61 53
c-17 -2 -30 -5 -37 -6c-11 -2 -18 14 -11 24c10 18 20 39 28 58h-69v13c33 13 52 12 52 51v511h-159c-23 0 -38 -13 -45 -31l-11 -33h-13l6 88c1 15 8 22 21 22h473c13 0 20 -7 21 -22z" />
    <glyph glyph-name="uni021A" unicode="&#x21a;" horiz-adv-x="577" 
d="M546 599l6 -88h-13l-11 33c-7 18 -22 31 -45 31h-158v-511c0 -39 19 -38 53 -51v-13h-177v13c33 13 52 12 52 51v511h-159c-23 0 -38 -13 -45 -31l-11 -33h-13l6 88c1 15 8 22 21 22h473c13 0 20 -7 21 -22zM284 -103c26 -4 41 -27 46 -48c5 -25 6 -42 -2 -69
s-25 -48 -45 -66c-5 -3 -9 -2 -15 2l-11 11c15 15 25 30 31 44c5 14 6 25 3 31c-6 -2 -13 -3 -25 -2c-23 4 -41 26 -38 52c4 29 29 49 56 45z" />
    <glyph glyph-name="U" unicode="U" horiz-adv-x="629" 
d="M589 621v-17c-25 -4 -45 -9 -45 -32v-318c0 -161 -82 -264 -227 -264c-171 0 -253 103 -253 258v324c0 23 -19 28 -44 32v17h168v-17c-25 -4 -46 -9 -46 -32v-272c0 -202 62 -277 175 -277c83 0 172 55 172 219v330c0 23 -19 28 -47 32v17h147z" />
    <glyph glyph-name="Uacute" unicode="&#xda;" horiz-adv-x="629" 
d="M416 840l-117 -108c-10 -8 -12 -15 -9 -20c5 -6 11 -6 21 0l146 76c20 10 12 28 6 46c-6 17 -25 27 -47 6zM589 621v-17c-25 -4 -45 -9 -45 -32v-318c0 -161 -82 -264 -227 -264c-171 0 -253 103 -253 258v324c0 23 -19 28 -44 32v17h168v-17c-25 -4 -46 -9 -46 -32v-272
c0 -202 62 -277 175 -277c83 0 172 55 172 219v330c0 23 -19 28 -47 32v17h147z" />
    <glyph glyph-name="Ucircumflex" unicode="&#xdb;" horiz-adv-x="629" 
d="M326 848l142 -144h-35l-107 79l-107 -79h-34zM589 621v-17c-25 -4 -45 -9 -45 -32v-318c0 -161 -82 -264 -227 -264c-171 0 -253 103 -253 258v324c0 23 -19 28 -44 32v17h168v-17c-25 -4 -46 -9 -46 -32v-272c0 -202 62 -277 175 -277c83 0 172 55 172 219v330
c0 23 -19 28 -47 32v17h147z" />
    <glyph glyph-name="Udieresis" unicode="&#xdc;" horiz-adv-x="629" 
d="M229 747c-24 0 -44 21 -44 44c0 24 20 45 44 45s44 -21 44 -45c0 -23 -20 -44 -44 -44zM405 747c-23 0 -44 21 -44 44c0 24 21 45 44 45c24 0 45 -21 45 -45c0 -23 -21 -44 -45 -44zM589 621v-17c-25 -4 -45 -9 -45 -32v-318c0 -161 -82 -264 -227 -264
c-171 0 -253 103 -253 258v324c0 23 -19 28 -44 32v17h168v-17c-25 -4 -46 -9 -46 -32v-272c0 -202 62 -277 175 -277c83 0 172 55 172 219v330c0 23 -19 28 -47 32v17h147z" />
    <glyph glyph-name="Ugrave" unicode="&#xd9;" horiz-adv-x="629" 
d="M374 732l-117 108c-21 21 -41 11 -47 -6c-6 -18 -14 -36 6 -46l146 -76c10 -6 16 -6 21 0c4 5 1 12 -9 20zM589 621v-17c-25 -4 -45 -9 -45 -32v-318c0 -161 -82 -264 -227 -264c-171 0 -253 103 -253 258v324c0 23 -19 28 -44 32v17h168v-17c-25 -4 -46 -9 -46 -32v-272
c0 -202 62 -277 175 -277c83 0 172 55 172 219v330c0 23 -19 28 -47 32v17h147z" />
    <glyph glyph-name="Uhungarumlaut" unicode="&#x170;" horiz-adv-x="629" 
d="M289 840l-117 -108c-10 -8 -12 -15 -9 -20c5 -6 11 -6 21 0l146 76c20 10 12 28 6 46c-6 17 -25 27 -47 6zM496 840l-117 -108c-10 -8 -12 -15 -9 -20c5 -6 11 -6 21 0l146 76c20 10 12 28 6 46c-6 17 -25 27 -47 6zM589 621v-17c-25 -4 -45 -9 -45 -32v-318
c0 -161 -82 -264 -227 -264c-171 0 -253 103 -253 258v324c0 23 -19 28 -44 32v17h168v-17c-25 -4 -46 -9 -46 -32v-272c0 -202 62 -277 175 -277c83 0 172 55 172 219v330c0 23 -19 28 -47 32v17h147z" />
    <glyph glyph-name="Umacron" unicode="&#x16a;" horiz-adv-x="629" 
d="M162 775c0 12 7 17 20 17h283c13 0 20 -5 20 -17s-7 -17 -20 -17h-283c-13 0 -20 5 -20 17zM589 621v-17c-25 -4 -45 -9 -45 -32v-318c0 -161 -82 -264 -227 -264c-171 0 -253 103 -253 258v324c0 23 -19 28 -44 32v17h168v-17c-25 -4 -46 -9 -46 -32v-272
c0 -202 62 -277 175 -277c83 0 172 55 172 219v330c0 23 -19 28 -47 32v17h147z" />
    <glyph glyph-name="Uogonek" unicode="&#x172;" horiz-adv-x="629" 
d="M442 621h147v-17c-25 -4 -45 -9 -45 -32v-318c0 -130 -54 -222 -150 -253c-62 -42 -71 -81 -71 -112c0 -34 28 -52 54 -52c46 0 68 22 83 53h19c-13 -31 -46 -89 -116 -89c-46 0 -102 28 -102 80c0 51 43 87 84 110c-9 -1 -19 -1 -28 -1c-171 0 -253 103 -253 258v324
c0 23 -19 28 -44 32v17h168v-17c-25 -4 -46 -9 -46 -32v-272c0 -202 62 -277 175 -277c83 0 172 55 172 219v330c0 23 -19 28 -47 32v17z" />
    <glyph glyph-name="Uring" unicode="&#x16e;" horiz-adv-x="629" 
d="M322 728c-46 0 -84 37 -84 80c0 44 38 80 84 80c45 0 83 -36 83 -80c0 -43 -38 -80 -83 -80zM322 754c21 0 42 25 42 54c0 28 -21 54 -42 54c-23 0 -43 -26 -43 -54c0 -29 20 -54 43 -54zM589 621v-17c-25 -4 -45 -9 -45 -32v-318c0 -161 -82 -264 -227 -264
c-171 0 -253 103 -253 258v324c0 23 -19 28 -44 32v17h168v-17c-25 -4 -46 -9 -46 -32v-272c0 -202 62 -277 175 -277c83 0 172 55 172 219v330c0 23 -19 28 -47 32v17h147z" />
    <glyph glyph-name="V" unicode="V" horiz-adv-x="669" 
d="M649 621v-19c-41 -4 -52 -15 -68 -54l-233 -553h-5c-15 0 -26 7 -32 24l-215 504c-27 65 -43 75 -86 79v19h198v-19c-44 -4 -60 -11 -53 -28l196 -467l194 457c9 24 -18 34 -56 38v19h160z" />
    <glyph glyph-name="W" unicode="W" horiz-adv-x="935" 
d="M762 621h158v-19c-41 -7 -54 -18 -68 -57l-193 -550h-3c-15 0 -25 7 -32 24l-157 403l-136 -427h-3c-15 0 -25 7 -32 24l-195 501c-25 65 -43 75 -86 82v19h172v-19c-20 -7 -35 -14 -29 -31l174 -451l114 355l-17 45c-25 65 -43 75 -86 82v19h172v-19
c-20 -7 -31 -24 -29 -31l175 -451l151 441c8 24 -12 34 -50 41v19z" />
    <glyph glyph-name="Wacute" unicode="&#x1e82;" horiz-adv-x="935" 
d="M605 788l-146 -76c-10 -6 -16 -6 -21 0c-3 5 -1 12 9 20l117 108c22 21 41 11 47 -6c6 -18 14 -36 -6 -46zM762 621h158v-19c-41 -7 -54 -18 -68 -57l-193 -550h-3c-15 0 -25 7 -32 24l-157 403l-136 -427h-3c-15 0 -25 7 -32 24l-195 501c-25 65 -43 75 -86 82v19h172
v-19c-20 -7 -35 -14 -29 -31l174 -451l114 355l-17 45c-25 65 -43 75 -86 82v19h172v-19c-20 -7 -31 -24 -29 -31l175 -451l151 441c8 24 -12 34 -50 41v19z" />
    <glyph glyph-name="Wcircumflex" unicode="&#x174;" horiz-adv-x="935" 
d="M474 783l-107 -79h-34l141 144l142 -144h-35zM762 621h158v-19c-41 -7 -54 -18 -68 -57l-193 -550h-3c-15 0 -25 7 -32 24l-157 403l-136 -427h-3c-15 0 -25 7 -32 24l-195 501c-25 65 -43 75 -86 82v19h172v-19c-20 -7 -35 -14 -29 -31l174 -451l114 355l-17 45
c-25 65 -43 75 -86 82v19h172v-19c-20 -7 -31 -24 -29 -31l175 -451l151 441c8 24 -12 34 -50 41v19z" />
    <glyph glyph-name="Wdieresis" unicode="&#x1e84;" horiz-adv-x="935" 
d="M377 747c-24 0 -44 21 -44 44c0 24 20 45 44 45s44 -21 44 -45c0 -23 -20 -44 -44 -44zM553 747c-23 0 -44 21 -44 44c0 24 21 45 44 45c24 0 45 -21 45 -45c0 -23 -21 -44 -45 -44zM762 621h158v-19c-41 -7 -54 -18 -68 -57l-193 -550h-3c-15 0 -25 7 -32 24l-157 403
l-136 -427h-3c-15 0 -25 7 -32 24l-195 501c-25 65 -43 75 -86 82v19h172v-19c-20 -7 -35 -14 -29 -31l174 -451l114 355l-17 45c-25 65 -43 75 -86 82v19h172v-19c-20 -7 -31 -24 -29 -31l175 -451l151 441c8 24 -12 34 -50 41v19z" />
    <glyph glyph-name="Wgrave" unicode="&#x1e80;" horiz-adv-x="935" 
d="M510 712l-146 76c-20 10 -12 28 -6 46c6 17 26 27 47 6l117 -108c10 -8 13 -15 9 -20c-5 -6 -11 -6 -21 0zM762 621h158v-19c-41 -7 -54 -18 -68 -57l-193 -550h-3c-15 0 -25 7 -32 24l-157 403l-136 -427h-3c-15 0 -25 7 -32 24l-195 501c-25 65 -43 75 -86 82v19h172
v-19c-20 -7 -35 -14 -29 -31l174 -451l114 355l-17 45c-25 65 -43 75 -86 82v19h172v-19c-20 -7 -31 -24 -29 -31l175 -451l151 441c8 24 -12 34 -50 41v19z" />
    <glyph glyph-name="X" unicode="X" horiz-adv-x="664" 
d="M366 327l174 -223c44 -58 47 -79 92 -83v-21h-183v21c29 4 52 15 41 32l-185 237l-161 -227c-17 -23 5 -38 44 -42v-21h-170v21c43 4 57 21 84 58l179 242l-156 199c-42 54 -47 77 -92 82v19h184v-19c-29 -5 -52 -17 -41 -31l168 -215l141 205c14 21 -12 36 -52 41v19
h164v-19c-43 -5 -56 -25 -78 -57z" />
    <glyph glyph-name="Y" unicode="Y" horiz-adv-x="614" 
d="M433 621h166v-18c-42 -5 -59 -23 -84 -59l-171 -242v-248c0 -23 37 -28 73 -33v-21h-214v21c36 5 74 10 74 33v221l-169 244c-39 58 -49 79 -93 84v18h186v-18c-29 -5 -48 -17 -37 -33l162 -234l155 224c16 23 -9 38 -48 43v18z" />
    <glyph glyph-name="Yacute" unicode="&#xdd;" horiz-adv-x="614" 
d="M459 788l-146 -76c-10 -6 -16 -6 -21 0c-3 5 -1 12 9 20l117 108c22 21 41 11 47 -6c6 -18 14 -36 -6 -46zM433 621h166v-18c-42 -5 -59 -23 -84 -59l-171 -242v-248c0 -23 37 -28 73 -33v-21h-214v21c36 5 74 10 74 33v221l-169 244c-39 58 -49 79 -93 84v18h186v-18
c-29 -5 -48 -17 -37 -33l162 -234l155 224c16 23 -9 38 -48 43v18z" />
    <glyph glyph-name="Ycircumflex" unicode="&#x176;" horiz-adv-x="614" 
d="M328 783l-107 -79h-34l141 144l142 -144h-35zM433 621h166v-18c-42 -5 -59 -23 -84 -59l-171 -242v-248c0 -23 37 -28 73 -33v-21h-214v21c36 5 74 10 74 33v221l-169 244c-39 58 -49 79 -93 84v18h186v-18c-29 -5 -48 -17 -37 -33l162 -234l155 224c16 23 -9 38 -48 43
v18z" />
    <glyph glyph-name="Ydieresis" unicode="&#x178;" horiz-adv-x="614" 
d="M231 747c-24 0 -44 21 -44 44c0 24 20 45 44 45s44 -21 44 -45c0 -23 -20 -44 -44 -44zM407 747c-23 0 -44 21 -44 44c0 24 21 45 44 45c24 0 45 -21 45 -45c0 -23 -21 -44 -45 -44zM433 621h166v-18c-42 -5 -59 -23 -84 -59l-171 -242v-248c0 -23 37 -28 73 -33v-21
h-214v21c36 5 74 10 74 33v221l-169 244c-39 58 -49 79 -93 84v18h186v-18c-29 -5 -48 -17 -37 -33l162 -234l155 224c16 23 -9 38 -48 43v18z" />
    <glyph glyph-name="Ygrave" unicode="&#x1ef2;" horiz-adv-x="614" 
d="M364 712l-146 76c-20 10 -12 28 -6 46c6 17 26 27 47 6l117 -108c10 -8 13 -15 9 -20c-5 -6 -11 -6 -21 0zM433 621h166v-18c-42 -5 -59 -23 -84 -59l-171 -242v-248c0 -23 37 -28 73 -33v-21h-214v21c36 5 74 10 74 33v221l-169 244c-39 58 -49 79 -93 84v18h186v-18
c-29 -5 -48 -17 -37 -33l162 -234l155 224c16 23 -9 38 -48 43v18z" />
    <glyph glyph-name="Z" unicode="Z" horiz-adv-x="580" 
d="M540 107l-22 -107h-466c-27 0 -36 27 -19 49l395 539l-348 -4c-18 0 -24 -16 -27 -31l-10 -45h-18l16 113h498l-437 -588l373 5c19 0 25 14 32 31l15 38h18z" />
    <glyph glyph-name="Zacute" unicode="&#x179;" horiz-adv-x="580" 
d="M386 840l-117 -108c-10 -8 -12 -15 -9 -20c5 -6 11 -6 21 0l146 76c20 10 12 28 6 46c-6 17 -25 27 -47 6zM540 107l-22 -107h-466c-27 0 -36 27 -19 49l395 539l-348 -4c-18 0 -24 -16 -27 -31l-10 -45h-18l16 113h498l-437 -588l373 5c19 0 25 14 32 31l15 38h18z" />
    <glyph glyph-name="Zcaron" unicode="&#x17d;" horiz-adv-x="580" 
d="M280 708l-141 144h34l107 -79l107 79h35zM540 107l-22 -107h-466c-27 0 -36 27 -19 49l395 539l-348 -4c-18 0 -24 -16 -27 -31l-10 -45h-18l16 113h498l-437 -588l373 5c19 0 25 14 32 31l15 38h18z" />
    <glyph glyph-name="Zdotaccent" unicode="&#x17b;" horiz-adv-x="580" 
d="M282 748c-25 0 -46 22 -46 47s21 47 46 47s47 -22 47 -47s-22 -47 -47 -47zM540 107l-22 -107h-466c-27 0 -36 27 -19 49l395 539l-348 -4c-18 0 -24 -16 -27 -31l-10 -45h-18l16 113h498l-437 -588l373 5c19 0 25 14 32 31l15 38h18z" />
    <glyph glyph-name="a" unicode="a" horiz-adv-x="461" 
d="M386 302v-227c0 -38 17 -43 55 -36v-25c-22 -17 -44 -22 -61 -22c-26 0 -50 37 -57 100c-25 -48 -80 -100 -155 -102s-151 37 -151 117c0 74 51 133 302 167v9c0 93 -25 145 -102 145c-65 0 -97 -17 -97 -89c0 -18 -27 -26 -44 -26c-21 0 -33 15 -35 36
c0 76 86 111 180 111c113 0 165 -67 165 -158zM183 25c81 0 112 70 136 97v128c-200 -28 -229 -82 -229 -140c0 -51 33 -85 93 -85z" />
    <glyph glyph-name="aacute" unicode="&#xe1;" horiz-adv-x="461" 
d="M315 670l-117 -108c-10 -8 -12 -15 -9 -20c5 -6 11 -6 21 0l146 76c20 10 12 28 6 46c-6 17 -25 27 -47 6zM386 302v-227c0 -38 17 -43 55 -36v-25c-22 -17 -44 -22 -61 -22c-26 0 -50 37 -57 100c-25 -48 -80 -100 -155 -102s-151 37 -151 117c0 74 51 133 302 167v9
c0 93 -25 145 -102 145c-65 0 -97 -17 -97 -89c0 -18 -27 -26 -44 -26c-21 0 -33 15 -35 36c0 76 86 111 180 111c113 0 165 -67 165 -158zM183 25c81 0 112 70 136 97v128c-200 -28 -229 -82 -229 -140c0 -51 33 -85 93 -85z" />
    <glyph glyph-name="abreve" unicode="&#x103;" horiz-adv-x="461" 
d="M218 562c-80 0 -127 63 -131 118c0 8 5 11 10 11h7c7 0 10 -3 11 -11c4 -29 36 -65 103 -65c68 0 99 36 103 65c1 8 4 11 11 11h7c5 0 10 -3 10 -11c-4 -55 -51 -118 -131 -118zM386 302v-227c0 -38 17 -43 55 -36v-25c-22 -17 -44 -22 -61 -22c-26 0 -50 37 -57 100
c-25 -48 -80 -100 -155 -102s-151 37 -151 117c0 74 51 133 302 167v9c0 93 -25 145 -102 145c-65 0 -97 -17 -97 -89c0 -18 -27 -26 -44 -26c-21 0 -33 15 -35 36c0 76 86 111 180 111c113 0 165 -67 165 -158zM183 25c81 0 112 70 136 97v128c-200 -28 -229 -82 -229 -140
c0 -51 33 -85 93 -85z" />
    <glyph glyph-name="acircumflex" unicode="&#xe2;" horiz-adv-x="461" 
d="M225 678l142 -144h-35l-107 79l-107 -79h-34zM386 302v-227c0 -38 17 -43 55 -36v-25c-22 -17 -44 -22 -61 -22c-26 0 -50 37 -57 100c-25 -48 -80 -100 -155 -102s-151 37 -151 117c0 74 51 133 302 167v9c0 93 -25 145 -102 145c-65 0 -97 -17 -97 -89
c0 -18 -27 -26 -44 -26c-21 0 -33 15 -35 36c0 76 86 111 180 111c113 0 165 -67 165 -158zM183 25c81 0 112 70 136 97v128c-200 -28 -229 -82 -229 -140c0 -51 33 -85 93 -85z" />
    <glyph glyph-name="adieresis" unicode="&#xe4;" horiz-adv-x="461" 
d="M128 577c-24 0 -44 21 -44 44c0 24 20 45 44 45s44 -21 44 -45c0 -23 -20 -44 -44 -44zM304 577c-23 0 -44 21 -44 44c0 24 21 45 44 45c24 0 45 -21 45 -45c0 -23 -21 -44 -45 -44zM386 302v-227c0 -38 17 -43 55 -36v-25c-22 -17 -44 -22 -61 -22c-26 0 -50 37 -57 100
c-25 -48 -80 -100 -155 -102s-151 37 -151 117c0 74 51 133 302 167v9c0 93 -25 145 -102 145c-65 0 -97 -17 -97 -89c0 -18 -27 -26 -44 -26c-21 0 -33 15 -35 36c0 76 86 111 180 111c113 0 165 -67 165 -158zM183 25c81 0 112 70 136 97v128c-200 -28 -229 -82 -229 -140
c0 -51 33 -85 93 -85z" />
    <glyph glyph-name="agrave" unicode="&#xe0;" horiz-adv-x="461" 
d="M273 562l-117 108c-21 21 -41 11 -47 -6c-6 -18 -14 -36 6 -46l146 -76c10 -6 16 -6 21 0c4 5 1 12 -9 20zM386 302v-227c0 -38 17 -43 55 -36v-25c-22 -17 -44 -22 -61 -22c-26 0 -50 37 -57 100c-25 -48 -80 -100 -155 -102s-151 37 -151 117c0 74 51 133 302 167v9
c0 93 -25 145 -102 145c-65 0 -97 -17 -97 -89c0 -18 -27 -26 -44 -26c-21 0 -33 15 -35 36c0 76 86 111 180 111c113 0 165 -67 165 -158zM183 25c81 0 112 70 136 97v128c-200 -28 -229 -82 -229 -140c0 -51 33 -85 93 -85z" />
    <glyph glyph-name="amacron" unicode="&#x101;" horiz-adv-x="461" 
d="M61 605c0 12 7 17 20 17h283c13 0 20 -5 20 -17s-7 -17 -20 -17h-283c-13 0 -20 5 -20 17zM386 302v-227c0 -38 17 -43 55 -36v-25c-22 -17 -44 -22 -61 -22c-26 0 -50 37 -57 100c-25 -48 -80 -100 -155 -102s-151 37 -151 117c0 74 51 133 302 167v9
c0 93 -25 145 -102 145c-65 0 -97 -17 -97 -89c0 -18 -27 -26 -44 -26c-21 0 -33 15 -35 36c0 76 86 111 180 111c113 0 165 -67 165 -158zM183 25c81 0 112 70 136 97v128c-200 -28 -229 -82 -229 -140c0 -51 33 -85 93 -85z" />
    <glyph glyph-name="aogonek" unicode="&#x105;" horiz-adv-x="474" 
d="M433 -98h21c-13 -31 -55 -92 -121 -92c-42 0 -85 19 -85 78c0 50 49 91 113 111c-18 14 -33 46 -38 93c-25 -48 -80 -100 -155 -102s-151 37 -151 117c0 74 51 133 302 167v9c0 93 -25 145 -102 145c-65 0 -97 -17 -97 -89c0 -18 -27 -26 -44 -26c-21 0 -33 15 -35 36
c0 76 86 111 180 111c113 0 165 -67 165 -158v-227c0 -38 17 -43 55 -36v-25c-11 -9 -22 -14 -33 -18v-3c-71 -22 -99 -62 -99 -95c0 -38 23 -52 49 -52c34 0 60 25 75 56zM319 122v128c-200 -28 -229 -82 -229 -140c0 -51 33 -85 93 -85c81 0 112 70 136 97z" />
    <glyph glyph-name="aring" unicode="&#xe5;" horiz-adv-x="461" 
d="M221 558c-46 0 -84 37 -84 80c0 44 38 80 84 80c45 0 83 -36 83 -80c0 -43 -38 -80 -83 -80zM221 584c21 0 42 25 42 54c0 28 -21 54 -42 54c-23 0 -43 -26 -43 -54c0 -29 20 -54 43 -54zM386 302v-227c0 -38 17 -43 55 -36v-25c-22 -17 -44 -22 -61 -22
c-26 0 -50 37 -57 100c-25 -48 -80 -100 -155 -102s-151 37 -151 117c0 74 51 133 302 167v9c0 93 -25 145 -102 145c-65 0 -97 -17 -97 -89c0 -18 -27 -26 -44 -26c-21 0 -33 15 -35 36c0 76 86 111 180 111c113 0 165 -67 165 -158zM183 25c81 0 112 70 136 97v128
c-200 -28 -229 -82 -229 -140c0 -51 33 -85 93 -85z" />
    <glyph glyph-name="atilde" unicode="&#xe3;" horiz-adv-x="461" 
d="M374 645h19c-10 -62 -54 -96 -110 -96c-61 0 -105 68 -150 68c-43 0 -68 -28 -68 -48h-15c-9 58 50 92 99 92c63 0 90 -58 153 -58c34 0 70 26 72 42zM386 302v-227c0 -38 17 -43 55 -36v-25c-22 -17 -44 -22 -61 -22c-26 0 -50 37 -57 100c-25 -48 -80 -100 -155 -102
s-151 37 -151 117c0 74 51 133 302 167v9c0 93 -25 145 -102 145c-65 0 -97 -17 -97 -89c0 -18 -27 -26 -44 -26c-21 0 -33 15 -35 36c0 76 86 111 180 111c113 0 165 -67 165 -158zM183 25c81 0 112 70 136 97v128c-200 -28 -229 -82 -229 -140c0 -51 33 -85 93 -85z" />
    <glyph glyph-name="ae" unicode="&#xe6;" horiz-adv-x="754" 
d="M557 29c75 0 111 45 135 78l21 -32c-25 -33 -61 -85 -174 -85c-73 0 -135 38 -173 98c-38 -68 -111 -94 -189 -95c-72 -1 -147 41 -147 114c0 71 50 133 297 167v9c0 116 -46 160 -171 132c-29 -6 -16 -47 -23 -76c-5 -18 -27 -29 -53 -23c-22 5 -30 21 -21 57
c11 46 83 78 141 83c93 8 149 -20 175 -69c37 47 92 71 156 71c98 0 188 -66 188 -181c0 -38 -19 -48 -56 -48h-260c0 -124 79 -200 154 -200zM531 428c-80 0 -128 -72 -128 -163h243c2 91 -41 163 -115 163zM327 122v128c-193 -28 -226 -96 -226 -145c0 -47 37 -78 91 -78
c79 0 111 52 135 95z" />
    <glyph glyph-name="b" unicode="b" horiz-adv-x="504" 
d="M288 463c111 0 176 -88 176 -236c0 -150 -82 -235 -179 -235c-91 0 -141 58 -154 94l-43 -90c-6 -14 -18 -4 -18 5v573c0 23 -7 33 -27 33h-28v30l99 20c16 4 24 -4 24 -19v-156c0 -36 -3 -78 -16 -124l17 22c28 30 68 83 149 83zM272 23c81 0 124 60 124 191
c0 98 -37 199 -123 199c-73 0 -99 -24 -134 -73v-204c19 -53 62 -113 133 -113z" />
    <glyph glyph-name="c" unicode="c" horiz-adv-x="443" 
d="M385 104l16 -18c-19 -37 -63 -94 -184 -94c-107 0 -192 97 -192 234c0 152 89 234 199 234c116 0 169 -64 169 -130c0 -14 -15 -30 -39 -30c-21 0 -39 7 -39 29c0 65 4 98 -79 98c-105 0 -141 -49 -141 -179c0 -103 64 -212 166 -213c78 -1 82 33 109 69c6 9 12 4 15 0z
" />
    <glyph glyph-name="cacute" unicode="&#x107;" horiz-adv-x="443" 
d="M326 670l-117 -108c-10 -8 -12 -15 -9 -20c5 -6 11 -6 21 0l146 76c20 10 12 28 6 46c-6 17 -25 27 -47 6zM385 104l16 -18c-19 -37 -63 -94 -184 -94c-107 0 -192 97 -192 234c0 152 89 234 199 234c116 0 169 -64 169 -130c0 -14 -15 -30 -39 -30c-21 0 -39 7 -39 29
c0 65 4 98 -79 98c-105 0 -141 -49 -141 -179c0 -103 64 -212 166 -213c78 -1 82 33 109 69c6 9 12 4 15 0z" />
    <glyph glyph-name="ccaron" unicode="&#x10d;" horiz-adv-x="443" 
d="M220 538l-141 144h34l107 -79l107 79h35zM385 104l16 -18c-19 -37 -63 -94 -184 -94c-107 0 -192 97 -192 234c0 152 89 234 199 234c116 0 169 -64 169 -130c0 -14 -15 -30 -39 -30c-21 0 -39 7 -39 29c0 65 4 98 -79 98c-105 0 -141 -49 -141 -179
c0 -103 64 -212 166 -213c78 -1 82 33 109 69c6 9 12 4 15 0z" />
    <glyph glyph-name="ccedilla" unicode="&#xe7;" horiz-adv-x="443" 
d="M385 104l16 -18c-17 -34 -56 -85 -155 -93l-20 -41c53 17 118 -22 107 -86c-10 -58 -63 -70 -118 -67c-50 3 -81 22 -87 55c-6 30 23 48 49 25c4 -21 7 -54 40 -57c38 -3 62 18 67 49c5 32 -18 58 -61 53c-17 -2 -30 -5 -37 -6c-11 -2 -18 14 -11 24c9 16 18 34 25 51
c-99 10 -175 103 -175 233c0 152 89 234 199 234c116 0 169 -64 169 -130c0 -14 -15 -30 -39 -30c-21 0 -39 7 -39 29c0 65 4 98 -79 98c-105 0 -141 -49 -141 -179c0 -103 64 -212 166 -213c78 -1 82 33 109 69c6 9 12 4 15 0z" />
    <glyph glyph-name="cdotaccent" unicode="&#x10b;" horiz-adv-x="443" 
d="M222 578c-25 0 -46 22 -46 47s21 47 46 47s47 -22 47 -47s-22 -47 -47 -47zM385 104l16 -18c-19 -37 -63 -94 -184 -94c-107 0 -192 97 -192 234c0 152 89 234 199 234c116 0 169 -64 169 -130c0 -14 -15 -30 -39 -30c-21 0 -39 7 -39 29c0 65 4 98 -79 98
c-105 0 -141 -49 -141 -179c0 -103 64 -212 166 -213c78 -1 82 33 109 69c6 9 12 4 15 0z" />
    <glyph glyph-name="d" unicode="d" horiz-adv-x="520" 
d="M439 582v-489c0 -35 17 -42 56 -36v-33l-53 -24c-29 -9 -62 20 -71 92c-17 -29 -54 -100 -143 -100c-98 0 -193 86 -193 225c0 124 65 238 176 238c88 0 123 -38 160 -68v174c0 33 -17 47 -55 46v30l94 19c37 7 30 -30 29 -74zM371 144v192c-39 61 -86 88 -141 88
c-81 0 -127 -82 -127 -194c0 -108 67 -197 146 -197c71 0 104 56 122 111z" />
    <glyph glyph-name="eth" unicode="&#xf0;" horiz-adv-x="533" 
d="M493 588l-100 -28c15 -31 25 -71 25 -125v-95c0 -235 -62 -346 -207 -346c-123 0 -181 77 -181 237c0 150 57 231 152 231c80 0 137 -53 162 -78v87c0 30 -2 54 -6 74l-102 -29l-7 23l103 29c-18 53 -55 61 -97 64l-31 2v23c25 -1 121 3 176 -76l106 30zM211 24
c114 0 133 127 133 288c0 22 -49 110 -148 110c-61 0 -100 -64 -100 -191c0 -147 40 -207 115 -207z" />
    <glyph glyph-name="dcaron" unicode="&#x10f;" horiz-adv-x="609" 
d="M439 582v-489c0 -35 17 -42 56 -36v-33l-53 -24c-29 -9 -62 20 -71 92c-17 -29 -54 -100 -143 -100c-98 0 -193 86 -193 225c0 124 65 238 176 238c88 0 123 -38 160 -68v174c0 33 -17 47 -55 46v30l94 19c37 7 30 -30 29 -74zM595 607c5 -25 6 -41 -2 -69
c-8 -26 -26 -48 -45 -65c-5 -4 -10 -3 -15 2l-11 11c15 15 25 29 31 43c5 14 6 25 2 31c-5 -2 -12 -3 -24 -2c-24 4 -41 26 -38 53c4 28 29 48 56 44c26 -4 41 -27 46 -48zM371 144v192c-39 61 -86 88 -141 88c-81 0 -127 -82 -127 -194c0 -108 67 -197 146 -197
c71 0 104 56 122 111z" />
    <glyph glyph-name="dcroat" unicode="&#x111;" horiz-adv-x="551" 
d="M439 507h69c13 0 20 -5 20 -17s-7 -17 -20 -17h-69v-380c0 -35 17 -42 56 -36v-33l-53 -24c-29 -9 -62 20 -71 92c-17 -29 -54 -100 -143 -100c-98 0 -193 86 -193 225c0 124 65 238 176 238c88 0 123 -38 160 -68v86h-146c-13 0 -20 5 -20 17s7 17 20 17h146v54
c0 33 -17 47 -55 46v30l94 19c37 7 30 -30 29 -74v-75zM371 144v192c-39 61 -86 88 -141 88c-81 0 -127 -82 -127 -194c0 -108 67 -197 146 -197c71 0 104 56 122 111z" />
    <glyph glyph-name="e" unicode="e" horiz-adv-x="451" 
d="M421 277c0 -38 -19 -48 -56 -48h-260c0 -124 79 -200 154 -200s111 45 135 78l21 -32c-25 -33 -61 -85 -174 -85c-120 0 -211 101 -211 240c0 148 88 228 203 228c98 0 188 -66 188 -181zM105 265h243c2 91 -41 163 -115 163c-80 0 -128 -72 -128 -163z" />
    <glyph glyph-name="eacute" unicode="&#xe9;" horiz-adv-x="451" 
d="M322 670l-117 -108c-10 -8 -12 -15 -9 -20c5 -6 11 -6 21 0l146 76c20 10 12 28 6 46c-6 17 -25 27 -47 6zM421 277c0 -38 -19 -48 -56 -48h-260c0 -124 79 -200 154 -200s111 45 135 78l21 -32c-25 -33 -61 -85 -174 -85c-120 0 -211 101 -211 240c0 148 88 228 203 228
c98 0 188 -66 188 -181zM105 265h243c2 91 -41 163 -115 163c-80 0 -128 -72 -128 -163z" />
    <glyph glyph-name="ecaron" unicode="&#x11b;" horiz-adv-x="451" 
d="M216 538l-141 144h34l107 -79l107 79h35zM421 277c0 -38 -19 -48 -56 -48h-260c0 -124 79 -200 154 -200s111 45 135 78l21 -32c-25 -33 -61 -85 -174 -85c-120 0 -211 101 -211 240c0 148 88 228 203 228c98 0 188 -66 188 -181zM105 265h243c2 91 -41 163 -115 163
c-80 0 -128 -72 -128 -163z" />
    <glyph glyph-name="ecircumflex" unicode="&#xea;" horiz-adv-x="451" 
d="M232 678l142 -144h-35l-107 79l-107 -79h-34zM421 277c0 -38 -19 -48 -56 -48h-260c0 -124 79 -200 154 -200s111 45 135 78l21 -32c-25 -33 -61 -85 -174 -85c-120 0 -211 101 -211 240c0 148 88 228 203 228c98 0 188 -66 188 -181zM105 265h243c2 91 -41 163 -115 163
c-80 0 -128 -72 -128 -163z" />
    <glyph glyph-name="edieresis" unicode="&#xeb;" horiz-adv-x="451" 
d="M135 577c-24 0 -44 21 -44 44c0 24 20 45 44 45s44 -21 44 -45c0 -23 -20 -44 -44 -44zM311 577c-23 0 -44 21 -44 44c0 24 21 45 44 45c24 0 45 -21 45 -45c0 -23 -21 -44 -45 -44zM421 277c0 -38 -19 -48 -56 -48h-260c0 -124 79 -200 154 -200s111 45 135 78l21 -32
c-25 -33 -61 -85 -174 -85c-120 0 -211 101 -211 240c0 148 88 228 203 228c98 0 188 -66 188 -181zM105 265h243c2 91 -41 163 -115 163c-80 0 -128 -72 -128 -163z" />
    <glyph glyph-name="edotaccent" unicode="&#x117;" horiz-adv-x="451" 
d="M218 578c-25 0 -46 22 -46 47s21 47 46 47s47 -22 47 -47s-22 -47 -47 -47zM421 277c0 -38 -19 -48 -56 -48h-260c0 -124 79 -200 154 -200s111 45 135 78l21 -32c-25 -33 -61 -85 -174 -85c-120 0 -211 101 -211 240c0 148 88 228 203 228c98 0 188 -66 188 -181z
M105 265h243c2 91 -41 163 -115 163c-80 0 -128 -72 -128 -163z" />
    <glyph glyph-name="egrave" unicode="&#xe8;" horiz-adv-x="451" 
d="M280 562l-117 108c-21 21 -41 11 -47 -6c-6 -18 -14 -36 6 -46l146 -76c10 -6 16 -6 21 0c4 5 1 12 -9 20zM421 277c0 -38 -19 -48 -56 -48h-260c0 -124 79 -200 154 -200s111 45 135 78l21 -32c-25 -33 -61 -85 -174 -85c-120 0 -211 101 -211 240c0 148 88 228 203 228
c98 0 188 -66 188 -181zM105 265h243c2 91 -41 163 -115 163c-80 0 -128 -72 -128 -163z" />
    <glyph glyph-name="emacron" unicode="&#x113;" horiz-adv-x="451" 
d="M68 605c0 12 7 17 20 17h283c13 0 20 -5 20 -17s-7 -17 -20 -17h-283c-13 0 -20 5 -20 17zM421 277c0 -38 -19 -48 -56 -48h-260c0 -124 79 -200 154 -200s111 45 135 78l21 -32c-25 -33 -61 -85 -174 -85c-120 0 -211 101 -211 240c0 148 88 228 203 228
c98 0 188 -66 188 -181zM105 265h243c2 91 -41 163 -115 163c-80 0 -128 -72 -128 -163z" />
    <glyph glyph-name="eogonek" unicode="&#x119;" horiz-adv-x="451" 
d="M259 29c75 0 111 45 135 78l21 -32c-17 -23 -39 -54 -88 -72c-61 -35 -90 -73 -90 -106c0 -38 23 -52 49 -52c34 0 60 25 75 56h21c-13 -31 -50 -92 -120 -92c-37 0 -86 19 -86 78c0 40 32 77 79 103h-14c-120 0 -211 101 -211 240c0 148 88 228 203 228
c98 0 188 -66 188 -181c0 -38 -19 -48 -56 -48h-260c0 -124 79 -200 154 -200zM233 428c-80 0 -128 -72 -128 -163h243c2 91 -41 163 -115 163z" />
    <glyph glyph-name="etilde" unicode="&#x1ebd;" horiz-adv-x="451" 
d="M381 645h19c-10 -62 -54 -96 -110 -96c-61 0 -105 68 -150 68c-43 0 -68 -28 -68 -48h-15c-9 58 50 92 99 92c63 0 90 -58 153 -58c34 0 70 26 72 42zM421 277c0 -38 -19 -48 -56 -48h-260c0 -124 79 -200 154 -200s111 45 135 78l21 -32c-25 -33 -61 -85 -174 -85
c-120 0 -211 101 -211 240c0 148 88 228 203 228c98 0 188 -66 188 -181zM105 265h243c2 91 -41 163 -115 163c-80 0 -128 -72 -128 -163z" />
    <glyph glyph-name="f" unicode="f" horiz-adv-x="392" 
d="M397 598c11 -11 23 -33 6 -49c-14 -15 -38 -15 -47 2c-16 33 -36 81 -91 81c-65 0 -92 -47 -92 -107v-68h156c-10 -31 -12 -35 -31 -35h-125v-377c0 -23 8 -28 52 -28v-17h-167v17c38 0 46 5 46 28v377h-66c-6 0 -10 4 -10 10v25h76v50c0 94 48 160 140 160
c95 0 131 -41 153 -69z" />
    <glyph glyph-name="g" unicode="g" horiz-adv-x="526" 
d="M468 458c15 0 33 -13 33 -35c0 -28 -14 -40 -30 -35c-35 9 -55 -1 -55 -76c-1 -78 -60 -141 -183 -141c-24 0 -47 4 -69 12c-99 8 -102 -78 10 -96l103 -17c136 -20 190 -44 190 -132c0 -99 -86 -158 -236 -158c-125 0 -207 46 -207 129c0 72 64 106 119 117
c-161 31 -153 190 -12 172c-43 26 -71 67 -71 119c0 81 52 141 184 141c75 0 130 -37 143 -66c3 45 34 66 81 66zM237 201c96 0 107 69 107 117c0 55 -11 109 -108 109c-83 0 -104 -53 -104 -109c0 -42 6 -117 105 -117zM303 5l-130 19c-57 -9 -75 -74 -75 -112
c0 -65 38 -105 133 -105c124 0 169 26 169 117c0 57 -32 70 -97 81z" />
    <glyph glyph-name="gbreve" unicode="&#x11f;" horiz-adv-x="526" 
d="M269 562c-80 0 -127 63 -131 118c0 8 5 11 10 11h7c7 0 10 -3 11 -11c4 -29 36 -65 103 -65c68 0 99 36 103 65c1 8 4 11 11 11h7c5 0 10 -3 10 -11c-4 -55 -51 -118 -131 -118zM468 458c15 0 33 -13 33 -35c0 -28 -14 -40 -30 -35c-35 9 -55 -1 -55 -76
c-1 -78 -60 -141 -183 -141c-24 0 -47 4 -69 12c-99 8 -102 -78 10 -96l103 -17c136 -20 190 -44 190 -132c0 -99 -86 -158 -236 -158c-125 0 -207 46 -207 129c0 72 64 106 119 117c-161 31 -153 190 -12 172c-43 26 -71 67 -71 119c0 81 52 141 184 141
c75 0 130 -37 143 -66c3 45 34 66 81 66zM237 201c96 0 107 69 107 117c0 55 -11 109 -108 109c-83 0 -104 -53 -104 -109c0 -42 6 -117 105 -117zM303 5l-130 19c-57 -9 -75 -74 -75 -112c0 -65 38 -105 133 -105c124 0 169 26 169 117c0 57 -32 70 -97 81z" />
    <glyph glyph-name="gcommaaccent" unicode="&#x123;" horiz-adv-x="526" 
d="M231 556c-26 4 -42 28 -47 49c-4 25 -5 41 3 69c8 26 25 48 45 65c5 4 9 3 15 -2l11 -11c-15 -15 -26 -29 -31 -43s-6 -25 -3 -32c6 2 13 4 24 3c24 -4 42 -27 39 -53c-4 -28 -29 -49 -56 -45zM468 458c15 0 33 -13 33 -35c0 -28 -14 -40 -30 -35c-35 9 -55 -1 -55 -76
c-1 -78 -60 -141 -183 -141c-24 0 -47 4 -69 12c-99 8 -102 -78 10 -96l103 -17c136 -20 190 -44 190 -132c0 -99 -86 -158 -236 -158c-125 0 -207 46 -207 129c0 72 64 106 119 117c-161 31 -153 190 -12 172c-43 26 -71 67 -71 119c0 81 52 141 184 141
c75 0 130 -37 143 -66c3 45 34 66 81 66zM237 201c96 0 107 69 107 117c0 55 -11 109 -108 109c-83 0 -104 -53 -104 -109c0 -42 6 -117 105 -117zM303 5l-130 19c-57 -9 -75 -74 -75 -112c0 -65 38 -105 133 -105c124 0 169 26 169 117c0 57 -32 70 -97 81z" />
    <glyph glyph-name="gdotaccent" unicode="&#x121;" horiz-adv-x="526" 
d="M262 578c-25 0 -46 22 -46 47s21 47 46 47s47 -22 47 -47s-22 -47 -47 -47zM468 458c15 0 33 -13 33 -35c0 -28 -14 -40 -30 -35c-35 9 -55 -1 -55 -76c-1 -78 -60 -141 -183 -141c-24 0 -47 4 -69 12c-99 8 -102 -78 10 -96l103 -17c136 -20 190 -44 190 -132
c0 -99 -86 -158 -236 -158c-125 0 -207 46 -207 129c0 72 64 106 119 117c-161 31 -153 190 -12 172c-43 26 -71 67 -71 119c0 81 52 141 184 141c75 0 130 -37 143 -66c3 45 34 66 81 66zM237 201c96 0 107 69 107 117c0 55 -11 109 -108 109c-83 0 -104 -53 -104 -109
c0 -42 6 -117 105 -117zM303 5l-130 19c-57 -9 -75 -74 -75 -112c0 -65 38 -105 133 -105c124 0 169 26 169 117c0 57 -32 70 -97 81z" />
    <glyph glyph-name="h" unicode="h" horiz-adv-x="532" 
d="M460 286v-209c0 -33 9 -59 60 -47l-13 -23c-21 -8 -28 -7 -47 -7c-44 0 -73 33 -73 72v230c0 71 -22 115 -84 115c-71 0 -139 -60 -158 -82v-289c0 -23 16 -28 50 -28v-18h-171v18c32 0 47 5 47 28v521c0 33 -21 44 -59 39v31l98 20c37 8 30 -30 31 -74v-202l-4 -31
c18 31 87 109 188 109c93 0 135 -36 135 -173z" />
    <glyph glyph-name="hbar" unicode="&#x127;" horiz-adv-x="532" 
d="M460 286v-209c0 -33 9 -59 60 -47l-13 -23c-21 -8 -28 -7 -47 -7c-44 0 -73 33 -73 72v230c0 71 -22 115 -84 115c-71 0 -139 -60 -158 -82v-289c0 -23 16 -28 50 -28v-18h-171v18c32 0 47 5 47 28v466h-58v32h58v23c0 33 -21 44 -59 39v31l98 20c37 8 30 -30 31 -74v-39
h195v-32h-195v-131l-4 -31c18 31 87 109 188 109c93 0 135 -36 135 -173z" />
    <glyph glyph-name="i" unicode="i" horiz-adv-x="239" 
d="M122 587c-21 0 -41 18 -41 42c0 22 20 40 41 40c22 0 42 -18 42 -40c0 -24 -20 -42 -42 -42zM156 427v-381c0 -23 17 -28 43 -28v-18h-152v18c27 0 44 5 44 28v337c0 23 -8 31 -28 31h-20v35l81 9c23 2 32 -9 32 -31z" />
    <glyph glyph-name="dotlessi" unicode="&#x131;" horiz-adv-x="231" 
d="M148 427v-381c0 -23 17 -28 43 -28v-18h-152v18c27 0 44 5 44 28v337c0 23 -8 31 -28 31h-20v35l81 9c23 2 32 -9 32 -31z" />
    <glyph glyph-name="iacute" unicode="&#xed;" horiz-adv-x="231" 
d="M203 670l-117 -108c-10 -8 -12 -15 -9 -20c5 -6 11 -6 21 0l146 76c20 10 12 28 6 46c-6 17 -25 27 -47 6zM148 427v-381c0 -23 17 -28 43 -28v-18h-152v18c27 0 44 5 44 28v337c0 23 -8 31 -28 31h-20v35l81 9c23 2 32 -9 32 -31z" />
    <glyph glyph-name="icircumflex" unicode="&#xee;" horiz-adv-x="231" 
d="M111 678l142 -144h-35l-107 79l-107 -79h-35zM148 427v-381c0 -23 17 -28 43 -28v-18h-152v18c27 0 44 5 44 28v337c0 23 -8 31 -28 31h-20v35l81 9c23 2 32 -9 32 -31z" />
    <glyph glyph-name="idieresis" unicode="&#xef;" horiz-adv-x="231" 
d="M15 577c-24 0 -44 21 -44 44c0 24 20 45 44 45s44 -21 44 -45c0 -23 -20 -44 -44 -44zM191 577c-23 0 -44 21 -44 44c0 24 21 45 44 45c24 0 45 -21 45 -45c0 -23 -21 -44 -45 -44zM148 427v-381c0 -23 17 -28 43 -28v-18h-152v18c27 0 44 5 44 28v337c0 23 -8 31 -28 31
h-20v35l81 9c23 2 32 -9 32 -31z" />
    <glyph glyph-name="i.loclTRK" horiz-adv-x="231" 
d="M101 578c-25 0 -47 22 -47 47s22 47 47 47s47 -22 47 -47s-22 -47 -47 -47zM148 427v-381c0 -23 17 -28 43 -28v-18h-152v18c27 0 44 5 44 28v337c0 23 -8 31 -28 31h-20v35l81 9c23 2 32 -9 32 -31z" />
    <glyph glyph-name="igrave" unicode="&#xec;" horiz-adv-x="231" 
d="M160 562l-117 108c-21 21 -41 11 -47 -6c-6 -18 -14 -36 6 -46l146 -76c10 -6 16 -6 21 0c4 5 1 12 -9 20zM148 427v-381c0 -23 17 -28 43 -28v-18h-152v18c27 0 44 5 44 28v337c0 23 -8 31 -28 31h-20v35l81 9c23 2 32 -9 32 -31z" />
    <glyph glyph-name="ij" unicode="&#x133;" horiz-adv-x="435" 
d="M122 587c-21 0 -41 18 -41 42c0 22 20 40 41 40c22 0 42 -18 42 -40c0 -24 -20 -42 -42 -42zM335 587c-21 0 -41 18 -41 42c0 22 20 40 41 40c22 0 42 -18 42 -40c0 -24 -20 -42 -42 -42zM156 427v-381c0 -23 17 -28 43 -28v-18h-152v18c27 0 44 5 44 28v337
c0 23 -8 31 -28 31h-20v35l81 9c23 2 32 -9 32 -31zM256 449l81 9c23 2 32 -9 32 -31v-501c0 -68 -16 -109 -65 -130c-58 -24 -116 -5 -119 35c0 20 7 35 18 40c11 6 28 7 36 3c3 4 24 -48 41 -41c14 6 24 23 24 50v500c0 23 -8 31 -28 31h-20v35z" />
    <glyph glyph-name="imacron" unicode="&#x12b;" horiz-adv-x="231" 
d="M-51 605c0 12 7 17 20 17h283c13 0 20 -5 20 -17s-7 -17 -20 -17h-283c-13 0 -20 5 -20 17zM148 427v-381c0 -23 17 -28 43 -28v-18h-152v18c27 0 44 5 44 28v337c0 23 -8 31 -28 31h-20v35l81 9c23 2 32 -9 32 -31z" />
    <glyph glyph-name="iogonek" unicode="&#x12f;" horiz-adv-x="231" 
d="M99 578c-25 0 -46 22 -46 47s21 47 46 47s47 -22 47 -47s-22 -47 -47 -47zM196 -110h19c-13 -31 -46 -89 -116 -89c-46 0 -102 28 -102 80c0 58 55 97 100 119h-58v18c27 0 44 5 44 28v337c0 23 -8 31 -28 31h-20v35l81 9c23 2 32 -9 32 -31v-381c0 -23 17 -28 43 -28
v-18h-62c-61 -42 -70 -80 -70 -111c0 -34 28 -52 54 -52c46 0 68 22 83 53z" />
    <glyph glyph-name="j" unicode="j" horiz-adv-x="197" 
d="M96 587c-21 0 -41 18 -41 42c0 22 20 40 41 40c22 0 42 -18 42 -40c0 -24 -20 -42 -42 -42zM17 449l81 9c23 2 32 -9 32 -31v-501c0 -68 -16 -109 -65 -130c-58 -24 -116 -5 -119 35c0 20 7 35 18 40c11 6 28 7 36 3c3 4 24 -48 41 -41c14 6 24 23 24 50v500
c0 23 -8 31 -28 31h-20v35z" />
    <glyph glyph-name="dotlessj" unicode="&#x237;" horiz-adv-x="188" 
d="M17 449l81 9c23 2 32 -9 32 -31v-501c0 -68 -16 -109 -65 -130c-58 -24 -116 -5 -119 35c0 20 7 35 18 40c11 6 28 7 36 3c3 4 24 -48 41 -41c14 6 24 23 24 50v500c0 23 -8 31 -28 31h-20v35z" />
    <glyph glyph-name="k" unicode="k" horiz-adv-x="503" 
d="M206 260l211 -218c20 -20 27 -25 56 -25v-17h-151v17c36 0 35 12 28 19l-207 209v-200c0 -23 15 -28 32 -28v-17h-136v17c19 0 36 5 36 28v550c0 24 -8 33 -28 33h-27v24l99 15c15 3 24 -4 24 -19v-394l186 148c13 11 13 27 -28 27v22h147v-22c-36 0 -41 -8 -56 -20z" />
    <glyph glyph-name="kcommaaccent" unicode="&#x137;" horiz-adv-x="503" 
d="M206 260l211 -218c20 -20 27 -25 56 -25v-17h-151v17c36 0 35 12 28 19l-207 209v-200c0 -23 15 -28 32 -28v-17h-136v17c19 0 36 5 36 28v550c0 24 -8 33 -28 33h-27v24l99 15c15 3 24 -4 24 -19v-394l186 148c13 11 13 27 -28 27v22h147v-22c-36 0 -41 -8 -56 -20z
M255 -103c26 -4 41 -27 46 -48c5 -25 6 -42 -2 -69s-25 -48 -45 -66c-5 -3 -9 -2 -15 2l-11 11c15 15 25 30 31 44c5 14 6 25 3 31c-6 -2 -13 -3 -25 -2c-23 4 -41 26 -38 52c4 29 29 49 56 45z" />
    <glyph glyph-name="l" unicode="l" horiz-adv-x="218" 
d="M142 582v-506c0 -33 11 -53 56 -40l-8 -31c-20 -9 -31 -13 -38 -13c-50 0 -78 38 -78 92v475c0 33 -21 44 -59 39v39l98 19c37 7 29 -30 29 -74z" />
    <glyph glyph-name="lacute" unicode="&#x13a;" horiz-adv-x="218" 
d="M158 840l-117 -108c-10 -8 -12 -15 -9 -20c5 -6 11 -6 21 0l146 76c20 10 12 28 6 46c-6 17 -25 27 -47 6zM142 582v-506c0 -33 11 -53 56 -40l-8 -31c-20 -9 -31 -13 -38 -13c-50 0 -78 38 -78 92v475c0 33 -21 44 -59 39v39l98 19c37 7 29 -30 29 -74z" />
    <glyph glyph-name="lcaron" unicode="&#x13e;" horiz-adv-x="306" 
d="M142 582v-506c0 -33 11 -53 56 -40l-8 -31c-20 -9 -31 -13 -38 -13c-50 0 -78 38 -78 92v475c0 33 -21 44 -59 39v39l98 19c37 7 29 -30 29 -74zM295 535c-8 -27 -25 -48 -45 -66c-5 -3 -9 -2 -15 2l-11 11c15 15 26 30 31 44s6 25 3 31c-6 -2 -13 -3 -24 -2
c-24 4 -42 26 -39 52c4 29 29 49 56 45c26 -4 42 -27 47 -48c4 -25 5 -42 -3 -69z" />
    <glyph glyph-name="lcommaaccent" unicode="&#x13c;" horiz-adv-x="218" 
d="M142 582v-506c0 -33 11 -53 56 -40l-8 -31c-20 -9 -31 -13 -38 -13c-50 0 -78 38 -78 92v475c0 33 -21 44 -59 39v39l98 19c37 7 29 -30 29 -74zM169 -220c-8 -27 -25 -48 -45 -66c-5 -3 -9 -2 -15 2l-11 11c15 15 25 30 31 44c5 14 6 25 3 31c-6 -2 -13 -3 -25 -2
c-23 4 -41 26 -38 52c4 29 29 49 56 45c26 -4 41 -27 46 -48c5 -25 6 -42 -2 -69z" />
    <glyph glyph-name="ldot" unicode="&#x140;" horiz-adv-x="336" 
d="M142 582v-506c0 -33 11 -53 56 -40l-8 -31c-20 -9 -31 -13 -38 -13c-50 0 -78 38 -78 92v475c0 33 -21 44 -59 39v39l98 19c37 7 29 -30 29 -74zM268 341c-27 0 -50 23 -50 51c0 27 23 50 50 50s50 -23 50 -50c0 -28 -23 -51 -50 -51z" />
    <glyph glyph-name="lslash" unicode="&#x142;" horiz-adv-x="295" 
d="M285 330l-105 -32v-222c0 -33 11 -53 57 -40l-8 -31c-21 -9 -31 -13 -39 -13c-50 0 -77 38 -77 92v193l-103 -32v55l103 32v227c0 33 -21 44 -59 39v39l97 19c37 7 29 -30 29 -74v-229l105 32v-55z" />
    <glyph glyph-name="m" unicode="m" horiz-adv-x="792" 
d="M712 297v-251c0 -23 16 -28 50 -28v-18h-176v18c32 0 47 5 47 28v261c0 62 -19 110 -70 110c-65 0 -114 -60 -132 -108v-263c0 -23 16 -28 49 -28v-18h-174v18c32 0 47 5 47 28v261c0 67 -15 110 -69 110c-68 0 -112 -60 -134 -108v-263c0 -23 16 -28 50 -28v-18h-163v18
c32 0 47 5 47 28v322c0 33 -21 44 -59 39v35l98 17c36 6 30 -30 23 -75l-4 -39c23 40 60 115 145 115c79 0 125 -32 139 -104c17 33 54 104 141 104c91 0 145 -41 145 -163z" />
    <glyph glyph-name="n" unicode="n" horiz-adv-x="531" 
d="M450 286v-209c0 -33 10 -55 61 -43l-13 -24c-22 -8 -27 -10 -46 -10c-44 0 -73 33 -73 72v230c0 69 -22 115 -85 115c-71 0 -122 -60 -141 -82v-289c0 -23 16 -28 50 -28v-18h-166v18c32 0 47 5 47 28v322c0 33 -21 44 -59 39v35l99 17c37 6 30 -30 25 -74l-4 -35
c18 31 69 109 171 109c94 0 132 -38 134 -173z" />
    <glyph glyph-name="nacute" unicode="&#x144;" horiz-adv-x="531" 
d="M349 670l-117 -108c-10 -8 -12 -15 -9 -20c5 -6 11 -6 21 0l146 76c20 10 12 28 6 46c-6 17 -25 27 -47 6zM450 286v-209c0 -33 10 -55 61 -43l-13 -24c-22 -8 -27 -10 -46 -10c-44 0 -73 33 -73 72v230c0 69 -22 115 -85 115c-71 0 -122 -60 -141 -82v-289
c0 -23 16 -28 50 -28v-18h-166v18c32 0 47 5 47 28v322c0 33 -21 44 -59 39v35l99 17c37 6 30 -30 25 -74l-4 -35c18 31 69 109 171 109c94 0 132 -38 134 -173z" />
    <glyph glyph-name="ncaron" unicode="&#x148;" horiz-adv-x="531" 
d="M243 538l-141 144h34l107 -79l107 79h35zM450 286v-209c0 -33 10 -55 61 -43l-13 -24c-22 -8 -27 -10 -46 -10c-44 0 -73 33 -73 72v230c0 69 -22 115 -85 115c-71 0 -122 -60 -141 -82v-289c0 -23 16 -28 50 -28v-18h-166v18c32 0 47 5 47 28v322c0 33 -21 44 -59 39v35
l99 17c37 6 30 -30 25 -74l-4 -35c18 31 69 109 171 109c94 0 132 -38 134 -173z" />
    <glyph glyph-name="ncommaaccent" unicode="&#x146;" horiz-adv-x="531" 
d="M450 286v-209c0 -33 10 -55 61 -43l-13 -24c-22 -8 -27 -10 -46 -10c-44 0 -73 33 -73 72v230c0 69 -22 115 -85 115c-71 0 -122 -60 -141 -82v-289c0 -23 16 -28 50 -28v-18h-166v18c32 0 47 5 47 28v322c0 33 -21 44 -59 39v35l99 17c37 6 30 -30 25 -74l-4 -35
c18 31 69 109 171 109c94 0 132 -38 134 -173zM314 -220c-8 -27 -25 -48 -45 -66c-5 -3 -9 -2 -15 2l-11 11c15 15 25 30 31 44c5 14 6 25 3 31c-6 -2 -13 -3 -25 -2c-23 4 -41 26 -38 52c4 29 29 49 56 45c26 -4 41 -27 46 -48c5 -25 6 -42 -2 -69z" />
    <glyph glyph-name="eng" unicode="&#x14b;" horiz-adv-x="512" 
d="M318 459c94 0 135 -38 135 -173v-360c0 -68 -22 -109 -72 -130c-58 -24 -116 -5 -118 35c-1 20 6 35 17 40c11 6 29 7 36 3c3 4 24 -48 41 -41c14 6 24 23 24 50v419c0 69 -22 115 -85 115c-71 0 -122 -60 -141 -82v-289c0 -23 16 -28 50 -28v-18h-168v18
c32 0 47 5 47 28v322c0 33 -21 44 -59 39v35l101 17c37 6 30 -30 25 -74l-4 -35c18 31 69 109 171 109z" />
    <glyph glyph-name="ntilde" unicode="&#xf1;" horiz-adv-x="531" 
d="M408 645h19c-10 -62 -54 -96 -110 -96c-61 0 -105 68 -150 68c-43 0 -68 -28 -68 -48h-15c-9 58 50 92 99 92c63 0 90 -58 153 -58c34 0 70 26 72 42zM450 286v-209c0 -33 10 -55 61 -43l-13 -24c-22 -8 -27 -10 -46 -10c-44 0 -73 33 -73 72v230c0 69 -22 115 -85 115
c-71 0 -122 -60 -141 -82v-289c0 -23 16 -28 50 -28v-18h-166v18c32 0 47 5 47 28v322c0 33 -21 44 -59 39v35l99 17c37 6 30 -30 25 -74l-4 -35c18 31 69 109 171 109c94 0 132 -38 134 -173z" />
    <glyph glyph-name="o" unicode="o" horiz-adv-x="472" 
d="M234 458c118 0 208 -95 208 -228c0 -140 -90 -240 -203 -240c-117 0 -209 100 -209 232c0 141 92 236 204 236zM376 212c0 114 -67 213 -153 213c-72 0 -125 -47 -125 -184c0 -118 66 -212 152 -212c73 0 126 48 126 183z" />
    <glyph glyph-name="oacute" unicode="&#xf3;" horiz-adv-x="472" 
d="M328 670l-117 -108c-10 -8 -12 -15 -9 -20c5 -6 11 -6 21 0l146 76c20 10 12 28 6 46c-6 17 -25 27 -47 6zM234 458c118 0 208 -95 208 -228c0 -140 -90 -240 -203 -240c-117 0 -209 100 -209 232c0 141 92 236 204 236zM376 212c0 114 -67 213 -153 213
c-72 0 -125 -47 -125 -184c0 -118 66 -212 152 -212c73 0 126 48 126 183z" />
    <glyph glyph-name="ocircumflex" unicode="&#xf4;" horiz-adv-x="472" 
d="M237 678l142 -144h-35l-107 79l-107 -79h-34zM234 458c118 0 208 -95 208 -228c0 -140 -90 -240 -203 -240c-117 0 -209 100 -209 232c0 141 92 236 204 236zM376 212c0 114 -67 213 -153 213c-72 0 -125 -47 -125 -184c0 -118 66 -212 152 -212c73 0 126 48 126 183z
" />
    <glyph glyph-name="odieresis" unicode="&#xf6;" horiz-adv-x="472" 
d="M141 577c-24 0 -44 21 -44 44c0 24 20 45 44 45s44 -21 44 -45c0 -23 -20 -44 -44 -44zM317 577c-23 0 -44 21 -44 44c0 24 21 45 44 45c24 0 45 -21 45 -45c0 -23 -21 -44 -45 -44zM234 458c118 0 208 -95 208 -228c0 -140 -90 -240 -203 -240c-117 0 -209 100 -209 232
c0 141 92 236 204 236zM376 212c0 114 -67 213 -153 213c-72 0 -125 -47 -125 -184c0 -118 66 -212 152 -212c73 0 126 48 126 183z" />
    <glyph glyph-name="ograve" unicode="&#xf2;" horiz-adv-x="472" 
d="M286 562l-117 108c-21 21 -41 11 -47 -6c-6 -18 -14 -36 6 -46l146 -76c10 -6 16 -6 21 0c4 5 1 12 -9 20zM234 458c118 0 208 -95 208 -228c0 -140 -90 -240 -203 -240c-117 0 -209 100 -209 232c0 141 92 236 204 236zM376 212c0 114 -67 213 -153 213
c-72 0 -125 -47 -125 -184c0 -118 66 -212 152 -212c73 0 126 48 126 183z" />
    <glyph glyph-name="ohungarumlaut" unicode="&#x151;" horiz-adv-x="472" 
d="M201 670l-117 -108c-10 -8 -12 -15 -9 -20c5 -6 11 -6 21 0l146 76c20 10 12 28 6 46c-6 17 -25 27 -47 6zM408 670l-117 -108c-10 -8 -12 -15 -9 -20c5 -6 11 -6 21 0l146 76c20 10 12 28 6 46c-6 17 -25 27 -47 6zM234 458c118 0 208 -95 208 -228
c0 -140 -90 -240 -203 -240c-117 0 -209 100 -209 232c0 141 92 236 204 236zM376 212c0 114 -67 213 -153 213c-72 0 -125 -47 -125 -184c0 -118 66 -212 152 -212c73 0 126 48 126 183z" />
    <glyph glyph-name="omacron" unicode="&#x14d;" horiz-adv-x="472" 
d="M74 605c0 12 7 17 20 17h283c13 0 20 -5 20 -17s-7 -17 -20 -17h-283c-13 0 -20 5 -20 17zM234 458c118 0 208 -95 208 -228c0 -140 -90 -240 -203 -240c-117 0 -209 100 -209 232c0 141 92 236 204 236zM376 212c0 114 -67 213 -153 213c-72 0 -125 -47 -125 -184
c0 -118 66 -212 152 -212c73 0 126 48 126 183z" />
    <glyph glyph-name="oslash" unicode="&#xf8;" horiz-adv-x="472" 
d="M408 432l-27 -36c38 -41 61 -99 61 -166c0 -140 -90 -240 -203 -240c-48 0 -92 17 -127 46l-20 -27l-28 19l24 32c-36 41 -58 98 -58 162c0 141 92 236 204 236c46 0 88 -15 122 -40l25 33zM98 241c0 -48 11 -92 30 -128l195 260c-27 32 -62 52 -100 52
c-72 0 -125 -47 -125 -184zM250 29c73 0 126 48 126 183c0 49 -13 95 -34 132l-195 -261c27 -34 62 -54 103 -54z" />
    <glyph glyph-name="otilde" unicode="&#xf5;" horiz-adv-x="472" 
d="M386 645h19c-10 -62 -54 -96 -110 -96c-61 0 -105 68 -150 68c-43 0 -68 -28 -68 -48h-15c-9 58 50 92 99 92c63 0 90 -58 153 -58c34 0 70 26 72 42zM234 458c118 0 208 -95 208 -228c0 -140 -90 -240 -203 -240c-117 0 -209 100 -209 232c0 141 92 236 204 236z
M376 212c0 114 -67 213 -153 213c-72 0 -125 -47 -125 -184c0 -118 66 -212 152 -212c73 0 126 48 126 183z" />
    <glyph glyph-name="oe" unicode="&#x153;" horiz-adv-x="802" 
d="M601 30c75 0 111 45 135 78l21 -32c-25 -33 -61 -85 -174 -85c-75 0 -138 39 -175 102c-37 -64 -98 -103 -169 -103c-117 0 -209 100 -209 232c0 141 92 236 204 236c72 0 133 -35 170 -93c36 62 98 94 172 94c97 0 188 -66 188 -181c0 -38 -19 -48 -56 -48h-260
c0 -124 79 -200 153 -200zM576 429c-81 0 -128 -72 -128 -163h243c1 91 -42 163 -115 163zM250 29c68 0 119 42 125 157c-2 15 -3 30 -3 45l1 24c-14 95 -75 170 -150 170c-72 0 -125 -47 -125 -184c0 -118 66 -212 152 -212z" />
    <glyph glyph-name="p" unicode="p" horiz-adv-x="502" 
d="M294 464c119 0 181 -86 181 -237c0 -150 -79 -233 -178 -233c-80 0 -131 43 -152 77v-203c0 -23 16 -28 50 -28v-24h-163v24c32 0 47 5 47 28v496c0 33 -21 44 -59 39v41l98 17c36 5 36 -37 22 -80c19 19 70 83 154 83zM287 27c80 0 121 56 121 187
c0 98 -35 200 -120 200c-86 0 -109 -33 -143 -80v-195c19 -54 65 -112 142 -112z" />
    <glyph glyph-name="thorn" unicode="&#xfe;" horiz-adv-x="501" 
d="M285 463c114 0 176 -88 176 -236c0 -150 -79 -233 -179 -233c-69 0 -115 34 -143 89v-215c0 -23 16 -28 50 -28v-24h-166v24c32 0 47 5 47 28v715c0 23 -7 33 -27 33h-28v36l99 15c16 2 24 -4 24 -19v-166c0 -36 -4 -78 -16 -124l17 22c25 30 68 83 146 83zM272 27
c81 0 121 56 121 187c0 98 -34 199 -120 199c-73 0 -98 -25 -134 -74v-203c19 -54 62 -109 133 -109z" />
    <glyph glyph-name="q" unicode="q" horiz-adv-x="526" 
d="M420 -108l86 24v-45l-117 -83c-15 -10 -29 -1 -29 12v207c0 20 2 81 11 121l-9 -33c-11 -40 -49 -101 -140 -101c-125 0 -197 79 -197 243c0 142 70 226 188 226c90 0 138 -77 146 -90l43 84c0 16 24 5 24 0v-553c0 -6 -3 -10 -6 -12zM359 138v188c-14 29 -41 98 -133 98
c-88 0 -131 -44 -131 -170c0 -127 49 -205 137 -205c67 0 109 48 127 89z" />
    <glyph glyph-name="r" unicode="r" horiz-adv-x="382" 
d="M348 400l-23 -24c-21 -26 -35 16 -72 16c-70 0 -96 -81 -103 -111v-235c0 -23 17 -28 54 -28v-18h-170v18c34 0 51 5 51 28v319c0 33 -22 44 -60 39v35l97 16c36 5 29 -31 24 -76l-9 -84l7 40c9 70 72 121 157 121c34 0 72 -29 47 -56z" />
    <glyph glyph-name="racute" unicode="&#x155;" horiz-adv-x="382" 
d="M287 670l-117 -108c-10 -8 -12 -15 -9 -20c5 -6 11 -6 21 0l146 76c20 10 12 28 6 46c-6 17 -25 27 -47 6zM348 400l-23 -24c-21 -26 -35 16 -72 16c-70 0 -96 -81 -103 -111v-235c0 -23 17 -28 54 -28v-18h-170v18c34 0 51 5 51 28v319c0 33 -22 44 -60 39v35l97 16
c36 5 29 -31 24 -76l-9 -84l7 40c9 70 72 121 157 121c34 0 72 -29 47 -56z" />
    <glyph glyph-name="rcaron" unicode="&#x159;" horiz-adv-x="382" 
d="M181 538l-141 144h34l107 -79l107 79h35zM348 400l-23 -24c-21 -26 -35 16 -72 16c-70 0 -96 -81 -103 -111v-235c0 -23 17 -28 54 -28v-18h-170v18c34 0 51 5 51 28v319c0 33 -22 44 -60 39v35l97 16c36 5 29 -31 24 -76l-9 -84l7 40c9 70 72 121 157 121
c34 0 72 -29 47 -56z" />
    <glyph glyph-name="rcommaaccent" unicode="&#x157;" horiz-adv-x="382" 
d="M348 400l-23 -24c-21 -26 -35 16 -72 16c-70 0 -96 -81 -103 -111v-235c0 -23 17 -28 54 -28v-18h-170v18c34 0 51 5 51 28v319c0 33 -22 44 -60 39v35l97 16c36 5 29 -31 24 -76l-9 -84l7 40c9 70 72 121 157 121c34 0 72 -29 47 -56zM168 -220c-8 -27 -25 -48 -45 -66
c-5 -3 -9 -2 -15 2l-11 11c15 15 25 30 31 44c5 14 6 25 3 31c-6 -2 -13 -3 -25 -2c-23 4 -41 26 -38 52c4 29 29 49 56 45c26 -4 41 -27 46 -48c5 -25 6 -42 -2 -69z" />
    <glyph glyph-name="s" unicode="s" horiz-adv-x="427" 
d="M397 124c0 -84 -75 -134 -187 -134c-100 0 -166 51 -173 72c-20 61 -9 77 6 81c47 9 45 3 46 -15c9 -69 49 -105 121 -105c81 0 115 36 115 88c0 47 -72 76 -130 94c-64 20 -154 71 -154 137c0 63 48 114 168 114c96 0 158 -52 160 -72c6 -69 -10 -84 -18 -84
c-40 -3 -54 10 -51 31c7 57 -17 91 -91 91s-105 -35 -105 -75c0 -49 77 -74 127 -90c67 -21 166 -50 166 -133z" />
    <glyph glyph-name="sacute" unicode="&#x15b;" horiz-adv-x="427" 
d="M318 670l-117 -108c-10 -8 -12 -15 -9 -20c5 -6 11 -6 21 0l146 76c20 10 12 28 6 46c-6 17 -25 27 -47 6zM397 124c0 -84 -75 -134 -187 -134c-100 0 -166 51 -173 72c-20 61 -9 77 6 81c47 9 45 3 46 -15c9 -69 49 -105 121 -105c81 0 115 36 115 88
c0 47 -72 76 -130 94c-64 20 -154 71 -154 137c0 63 48 114 168 114c96 0 158 -52 160 -72c6 -69 -10 -84 -18 -84c-40 -3 -54 10 -51 31c7 57 -17 91 -91 91s-105 -35 -105 -75c0 -49 77 -74 127 -90c67 -21 166 -50 166 -133z" />
    <glyph glyph-name="scaron" unicode="&#x161;" horiz-adv-x="427" 
d="M212 538l-141 144h34l107 -79l107 79h35zM397 124c0 -84 -75 -134 -187 -134c-100 0 -166 51 -173 72c-20 61 -9 77 6 81c47 9 45 3 46 -15c9 -69 49 -105 121 -105c81 0 115 36 115 88c0 47 -72 76 -130 94c-64 20 -154 71 -154 137c0 63 48 114 168 114
c96 0 158 -52 160 -72c6 -69 -10 -84 -18 -84c-40 -3 -54 10 -51 31c7 57 -17 91 -91 91s-105 -35 -105 -75c0 -49 77 -74 127 -90c67 -21 166 -50 166 -133z" />
    <glyph glyph-name="scedilla" unicode="&#x15f;" horiz-adv-x="427" 
d="M397 124c0 -77 -63 -126 -160 -133l-19 -39c53 17 118 -22 107 -86c-10 -58 -63 -70 -118 -67c-50 3 -81 22 -87 55c-6 30 23 48 49 25c4 -21 7 -54 40 -57c38 -3 62 18 67 49c5 32 -18 58 -61 53c-17 -2 -30 -5 -37 -6c-11 -2 -18 14 -11 24c8 15 17 32 24 49
c-89 5 -147 51 -154 71c-20 61 -9 77 6 81c47 9 45 3 46 -15c9 -69 49 -105 121 -105c81 0 115 36 115 88c0 47 -72 76 -130 94c-64 20 -154 71 -154 137c0 63 48 114 168 114c96 0 158 -52 160 -72c6 -69 -10 -84 -18 -84c-40 -3 -54 10 -51 31c7 57 -17 91 -91 91
s-105 -35 -105 -75c0 -49 77 -74 127 -90c67 -21 166 -50 166 -133z" />
    <glyph glyph-name="scommaaccent" unicode="&#x219;" horiz-adv-x="427" 
d="M397 124c0 -84 -75 -134 -187 -134c-100 0 -166 51 -173 72c-20 61 -9 77 6 81c47 9 45 3 46 -15c9 -69 49 -105 121 -105c81 0 115 36 115 88c0 47 -72 76 -130 94c-64 20 -154 71 -154 137c0 63 48 114 168 114c96 0 158 -52 160 -72c6 -69 -10 -84 -18 -84
c-40 -3 -54 10 -51 31c7 57 -17 91 -91 91s-105 -35 -105 -75c0 -49 77 -74 127 -90c67 -21 166 -50 166 -133zM253 -220c-8 -27 -25 -48 -45 -66c-5 -3 -9 -2 -15 2l-11 11c15 15 25 30 31 44c5 14 6 25 3 31c-6 -2 -13 -3 -25 -2c-23 4 -41 26 -38 52c4 29 29 49 56 45
c26 -4 41 -27 46 -48c5 -25 6 -42 -2 -69z" />
    <glyph glyph-name="germandbls" unicode="&#xdf;" horiz-adv-x="515" 
d="M329 378c77 -14 143 -82 143 -193c0 -115 -92 -186 -253 -186v35c121 0 173 43 173 151c0 102 -31 168 -168 170v26c56 0 115 50 115 111c0 74 -22 145 -105 145c-60 0 -87 -53 -87 -125v-419c0 -62 -6 -93 -77 -93h-38v13c38 5 46 10 46 33v448c0 109 45 173 156 173
c116 0 165 -74 165 -175c0 -53 -27 -91 -70 -114z" />
    <glyph glyph-name="t" unicode="t" horiz-adv-x="320" 
d="M290 59c1 -1 19 -22 13 -28c-24 -19 -57 -38 -111 -38c-60 0 -105 33 -105 131v295h-59v31c52 0 92 51 119 108c5 11 10 10 10 0v-98h119v-29c0 -10 -3 -12 -11 -12h-108v-301c0 -38 19 -83 57 -83c37 0 65 15 76 24zM290 59v0z" />
    <glyph glyph-name="tbar" unicode="&#x167;" horiz-adv-x="373" 
d="M161 267h162c13 0 20 -5 20 -17s-7 -17 -20 -17h-162v-115c0 -38 19 -83 56 -83s65 15 76 24c1 -1 19 -22 13 -28c-24 -19 -57 -38 -110 -38c-61 0 -106 33 -106 131v109h-50c-13 0 -20 5 -20 17s7 17 20 17h50v152h-59v31c53 0 92 51 119 108c5 11 11 10 11 0v-98h118
v-29c0 -10 -3 -12 -11 -12h-107v-152zM293 59v0z" />
    <glyph glyph-name="tcaron" unicode="&#x165;" horiz-adv-x="387" 
d="M368 590c4 -25 5 -41 -3 -69c-7 -26 -25 -48 -45 -65c-5 -3 -9 -3 -15 2l-11 11c15 15 26 30 31 43c5 14 6 25 3 32c-6 -2 -13 -4 -24 -3c-24 4 -42 27 -39 53c4 29 29 49 56 45c26 -4 42 -27 47 -49zM214 35c37 0 65 15 76 24c1 -1 19 -22 13 -28
c-24 -19 -57 -38 -111 -38c-60 0 -105 33 -105 131v295h-59v31c52 0 92 51 119 108c5 11 10 10 10 0v-98h119v-29c0 -10 -3 -12 -11 -12h-108v-301c0 -38 19 -83 57 -83zM290 59v0z" />
    <glyph glyph-name="tcedilla" unicode="&#x163;" horiz-adv-x="320" 
d="M303 31c-23 -18 -53 -36 -102 -38l-20 -41c53 17 118 -22 107 -86c-10 -58 -63 -70 -118 -67c-50 3 -81 22 -87 55c-6 30 23 48 49 25c4 -21 7 -54 40 -57c38 -3 62 18 67 49c5 32 -18 58 -61 53c-17 -2 -30 -5 -37 -6c-11 -2 -18 14 -11 24c10 17 19 37 27 56
c-42 11 -70 48 -70 126v295h-59v31c52 0 92 51 119 108c5 11 10 10 10 0v-98h119v-29c0 -10 -3 -12 -11 -12h-108v-301c0 -38 19 -83 57 -83c37 0 65 15 76 24c1 -1 19 -22 13 -28zM290 59v0z" />
    <glyph glyph-name="uni021B" unicode="&#x21b;" horiz-adv-x="320" 
d="M290 59c1 -1 19 -22 13 -28c-24 -19 -57 -38 -111 -38c-60 0 -105 33 -105 131v295h-59v31c52 0 92 51 119 108c5 11 10 10 10 0v-98h119v-29c0 -10 -3 -12 -11 -12h-108v-301c0 -38 19 -83 57 -83c37 0 65 15 76 24zM290 59v0zM172 -103c26 -4 41 -27 46 -48
c5 -25 6 -42 -2 -69s-25 -48 -45 -66c-5 -3 -9 -2 -15 2l-11 11c15 15 25 30 31 44c5 14 6 25 3 31c-6 -2 -13 -3 -25 -2c-23 4 -41 26 -38 52c4 29 29 49 56 45z" />
    <glyph glyph-name="u" unicode="u" horiz-adv-x="522" 
d="M441 443v-368c0 -38 17 -42 56 -36v-25l-42 -20c-38 -16 -71 25 -80 119v2c-13 -38 -62 -123 -150 -123c-98 0 -157 58 -157 171v229c0 23 -8 32 -28 32h-15v22l87 16c14 0 22 -4 22 -19v-293c0 -85 32 -114 108 -114c71 0 112 59 133 134v222c0 23 -7 32 -27 32h-15v22
l86 15c16 4 22 -3 22 -18z" />
    <glyph glyph-name="uacute" unicode="&#xfa;" horiz-adv-x="522" 
d="M393 618l-146 -76c-10 -6 -16 -6 -21 0c-3 5 -1 12 9 20l117 108c22 21 41 11 47 -6c6 -18 14 -36 -6 -46zM441 443v-368c0 -38 17 -42 56 -36v-25l-42 -20c-38 -16 -71 25 -80 119v2c-13 -38 -62 -123 -150 -123c-98 0 -157 58 -157 171v229c0 23 -8 32 -28 32h-15v22
l87 16c14 0 22 -4 22 -19v-293c0 -85 32 -114 108 -114c71 0 112 59 133 134v222c0 23 -7 32 -27 32h-15v22l86 15c16 4 22 -3 22 -18z" />
    <glyph glyph-name="ubreve" unicode="&#x16d;" horiz-adv-x="522" 
d="M255 562c-80 0 -127 63 -131 118c0 8 5 11 10 11h7c7 0 10 -3 11 -11c4 -29 36 -65 103 -65c68 0 99 36 103 65c1 8 4 11 11 11h7c5 0 10 -3 10 -11c-4 -55 -51 -118 -131 -118zM441 443v-368c0 -38 17 -42 56 -36v-25l-42 -20c-38 -16 -71 25 -80 119v2
c-13 -38 -62 -123 -150 -123c-98 0 -157 58 -157 171v229c0 23 -8 32 -28 32h-15v22l87 16c14 0 22 -4 22 -19v-293c0 -85 32 -114 108 -114c71 0 112 59 133 134v222c0 23 -7 32 -27 32h-15v22l86 15c16 4 22 -3 22 -18z" />
    <glyph glyph-name="ucircumflex" unicode="&#xfb;" horiz-adv-x="522" 
d="M261 613l-107 -79h-34l141 144l142 -144h-35zM441 443v-368c0 -38 17 -42 56 -36v-25l-42 -20c-38 -16 -71 25 -80 119v2c-13 -38 -62 -123 -150 -123c-98 0 -157 58 -157 171v229c0 23 -8 32 -28 32h-15v22l87 16c14 0 22 -4 22 -19v-293c0 -85 32 -114 108 -114
c71 0 112 59 133 134v222c0 23 -7 32 -27 32h-15v22l86 15c16 4 22 -3 22 -18z" />
    <glyph glyph-name="udieresis" unicode="&#xfc;" horiz-adv-x="522" 
d="M164 577c-24 0 -44 21 -44 44c0 24 20 45 44 45s44 -21 44 -45c0 -23 -20 -44 -44 -44zM340 577c-23 0 -44 21 -44 44c0 24 21 45 44 45c24 0 45 -21 45 -45c0 -23 -21 -44 -45 -44zM441 443v-368c0 -38 17 -42 56 -36v-25l-42 -20c-38 -16 -71 25 -80 119v2
c-13 -38 -62 -123 -150 -123c-98 0 -157 58 -157 171v229c0 23 -8 32 -28 32h-15v22l87 16c14 0 22 -4 22 -19v-293c0 -85 32 -114 108 -114c71 0 112 59 133 134v222c0 23 -7 32 -27 32h-15v22l86 15c16 4 22 -3 22 -18z" />
    <glyph glyph-name="ugrave" unicode="&#xf9;" horiz-adv-x="522" 
d="M297 542l-146 76c-20 10 -12 28 -6 46c6 17 26 27 47 6l117 -108c10 -8 13 -15 9 -20c-5 -6 -11 -6 -21 0zM441 443v-368c0 -38 17 -42 56 -36v-25l-42 -20c-38 -16 -71 25 -80 119v2c-13 -38 -62 -123 -150 -123c-98 0 -157 58 -157 171v229c0 23 -8 32 -28 32h-15v22
l87 16c14 0 22 -4 22 -19v-293c0 -85 32 -114 108 -114c71 0 112 59 133 134v222c0 23 -7 32 -27 32h-15v22l86 15c16 4 22 -3 22 -18z" />
    <glyph glyph-name="uhungarumlaut" unicode="&#x171;" horiz-adv-x="522" 
d="M266 618l-146 -76c-10 -6 -16 -6 -21 0c-3 5 -1 12 9 20l117 108c22 21 41 11 47 -6c6 -18 14 -36 -6 -46zM473 618l-146 -76c-10 -6 -16 -6 -21 0c-3 5 -1 12 9 20l117 108c22 21 41 11 47 -6c6 -18 14 -36 -6 -46zM441 443v-368c0 -38 17 -42 56 -36v-25l-42 -20
c-38 -16 -71 25 -80 119v2c-13 -38 -62 -123 -150 -123c-98 0 -157 58 -157 171v229c0 23 -8 32 -28 32h-15v22l87 16c14 0 22 -4 22 -19v-293c0 -85 32 -114 108 -114c71 0 112 59 133 134v222c0 23 -7 32 -27 32h-15v22l86 15c16 4 22 -3 22 -18z" />
    <glyph glyph-name="umacron" unicode="&#x16b;" horiz-adv-x="522" 
d="M401 588h-283c-13 0 -20 5 -20 17s7 17 20 17h283c13 0 20 -5 20 -17s-7 -17 -20 -17zM441 443v-368c0 -38 17 -42 56 -36v-25l-42 -20c-38 -16 -71 25 -80 119v2c-13 -38 -62 -123 -150 -123c-98 0 -157 58 -157 171v229c0 23 -8 32 -28 32h-15v22l87 16
c14 0 22 -4 22 -19v-293c0 -85 32 -114 108 -114c71 0 112 59 133 134v222c0 23 -7 32 -27 32h-15v22l86 15c16 4 22 -3 22 -18z" />
    <glyph glyph-name="uogonek" unicode="&#x173;" horiz-adv-x="522" 
d="M478 -98h21c-13 -31 -57 -92 -115 -92c-43 0 -91 19 -91 78c0 51 49 92 120 114c-18 17 -33 54 -38 111v2c-13 -38 -62 -123 -150 -123c-98 0 -157 58 -157 171v229c0 23 -8 32 -28 32h-15v22l87 16c14 0 22 -4 22 -19v-293c0 -85 32 -114 108 -114c71 0 112 59 133 134
v222c0 23 -7 32 -27 32h-15v22l86 15c16 4 22 -3 22 -18v-368c0 -38 17 -42 56 -36v-25l-42 -20l-8 -3c-71 -32 -93 -64 -93 -93c0 -38 24 -52 51 -52c29 0 58 25 73 56z" />
    <glyph glyph-name="uring" unicode="&#x16f;" horiz-adv-x="522" 
d="M258 558c-46 0 -84 37 -84 80c0 44 38 80 84 80c45 0 83 -36 83 -80c0 -43 -38 -80 -83 -80zM258 692c-23 0 -43 -26 -43 -54c0 -29 20 -54 43 -54c21 0 42 25 42 54c0 28 -21 54 -42 54zM441 443v-368c0 -38 17 -42 56 -36v-25l-42 -20c-38 -16 -71 25 -80 119v2
c-13 -38 -62 -123 -150 -123c-98 0 -157 58 -157 171v229c0 23 -8 32 -28 32h-15v22l87 16c14 0 22 -4 22 -19v-293c0 -85 32 -114 108 -114c71 0 112 59 133 134v222c0 23 -7 32 -27 32h-15v22l86 15c16 4 22 -3 22 -18z" />
    <glyph glyph-name="v" unicode="v" horiz-adv-x="493" 
d="M326 451h157v-21l-23 -8c-15 -5 -40 -14 -67 -81l-140 -342c-9 0 -15 4 -20 18l-144 326c-26 60 -42 73 -58 79l-21 8v21h177v-21l-20 -8c-22 -9 -30 -13 -3 -79l96 -235l86 232c25 68 25 74 2 82l-22 8v21z" />
    <glyph glyph-name="w" unicode="w" horiz-adv-x="762" 
d="M595 428v23c57 -2 100 -2 157 0v-23l-23 -8c-15 -5 -38 -14 -67 -79l-145 -342c-11 1 -16 6 -22 20l-116 260l-129 -280c-11 1 -17 6 -23 20l-131 324c-24 59 -44 71 -60 77l-21 8v23c65 -2 112 -2 177 0v-23l-25 -8c-22 -7 -34 -12 -8 -77l99 -228l97 219l-4 9
c-25 58 -25 71 -41 77l-38 8v23c82 -2 113 -2 194 0v-23l-41 -8c-24 -4 -40 -13 -10 -77l110 -228l89 225c26 65 26 72 3 80zM253 -1h-3h3zM520 -1h-3h3z" />
    <glyph glyph-name="wacute" unicode="&#x1e83;" horiz-adv-x="762" 
d="M518 618l-146 -76c-10 -6 -16 -6 -21 0c-3 5 -1 12 9 20l117 108c22 21 41 11 47 -6c6 -18 14 -36 -6 -46zM595 428v23c57 -2 100 -2 157 0v-23l-23 -8c-15 -5 -38 -14 -67 -79l-145 -342c-11 1 -16 6 -22 20l-116 260l-129 -280c-11 1 -17 6 -23 20l-131 324
c-24 59 -44 71 -60 77l-21 8v23c65 -2 112 -2 177 0v-23l-25 -8c-22 -7 -34 -12 -8 -77l99 -228l97 219l-4 9c-25 58 -25 71 -41 77l-38 8v23c82 -2 113 -2 194 0v-23l-41 -8c-24 -4 -40 -13 -10 -77l110 -228l89 225c26 65 26 72 3 80zM520 -1h-3h3zM253 -1h-3h3z" />
    <glyph glyph-name="wcircumflex" unicode="&#x175;" horiz-adv-x="762" 
d="M386 613l-107 -79h-34l141 144l142 -144h-35zM595 428v23c57 -2 100 -2 157 0v-23l-23 -8c-15 -5 -38 -14 -67 -79l-145 -342c-11 1 -16 6 -22 20l-116 260l-129 -280c-11 1 -17 6 -23 20l-131 324c-24 59 -44 71 -60 77l-21 8v23c65 -2 112 -2 177 0v-23l-25 -8
c-22 -7 -34 -12 -8 -77l99 -228l97 219l-4 9c-25 58 -25 71 -41 77l-38 8v23c82 -2 113 -2 194 0v-23l-41 -8c-24 -4 -40 -13 -10 -77l110 -228l89 225c26 65 26 72 3 80zM520 -1h-3h3zM253 -1h-3h3z" />
    <glyph glyph-name="wdieresis" unicode="&#x1e85;" horiz-adv-x="762" 
d="M290 577c-24 0 -44 21 -44 44c0 24 20 45 44 45s44 -21 44 -45c0 -23 -20 -44 -44 -44zM466 577c-23 0 -44 21 -44 44c0 24 21 45 44 45c24 0 45 -21 45 -45c0 -23 -21 -44 -45 -44zM595 428v23c57 -2 100 -2 157 0v-23l-23 -8c-15 -5 -38 -14 -67 -79l-145 -342
c-11 1 -16 6 -22 20l-116 260l-129 -280c-11 1 -17 6 -23 20l-131 324c-24 59 -44 71 -60 77l-21 8v23c65 -2 112 -2 177 0v-23l-25 -8c-22 -7 -34 -12 -8 -77l99 -228l97 219l-4 9c-25 58 -25 71 -41 77l-38 8v23c82 -2 113 -2 194 0v-23l-41 -8c-24 -4 -40 -13 -10 -77
l110 -228l89 225c26 65 26 72 3 80zM253 -1h-3h3zM520 -1h-3h3z" />
    <glyph glyph-name="wgrave" unicode="&#x1e81;" horiz-adv-x="762" 
d="M423 542l-146 76c-20 10 -12 28 -6 46c6 17 26 27 47 6l117 -108c10 -8 13 -15 9 -20c-5 -6 -11 -6 -21 0zM595 428v23c57 -2 100 -2 157 0v-23l-23 -8c-15 -5 -38 -14 -67 -79l-145 -342c-11 1 -16 6 -22 20l-116 260l-129 -280c-11 1 -17 6 -23 20l-131 324
c-24 59 -44 71 -60 77l-21 8v23c65 -2 112 -2 177 0v-23l-25 -8c-22 -7 -34 -12 -8 -77l99 -228l97 219l-4 9c-25 58 -25 71 -41 77l-38 8v23c82 -2 113 -2 194 0v-23l-41 -8c-24 -4 -40 -13 -10 -77l110 -228l89 225c26 65 26 72 3 80zM520 -1h-3h3zM253 -1h-3h3z" />
    <glyph glyph-name="x" unicode="x" horiz-adv-x="530" 
d="M476 26l29 -7v-19h-186v19l29 6c20 2 32 5 16 28l-121 156l3 -9l-97 -142c-13 -19 -5 -31 13 -33l23 -6v-19h-161v19l29 7c16 2 29 5 50 33l125 169l-118 153c-26 34 -41 35 -62 40l-21 5v26c70 -2 115 -2 185 0v-26l-28 -4c-13 -2 -19 -8 -3 -30l89 -119l86 113
c22 27 9 33 -6 36l-23 4v26c58 -2 101 -2 159 0v-26l-24 -5c-21 -4 -44 -9 -78 -53l-93 -123l141 -188c20 -27 32 -29 44 -31z" />
    <glyph glyph-name="y" unicode="y" horiz-adv-x="497" 
d="M477 451v-20l-14 -6c-18 -8 -35 -11 -42 -27l-194 -482c-33 -80 -56 -131 -120 -131c-33 0 -65 21 -69 51c-3 32 7 49 42 49c45 0 6 -47 53 -47c24 0 38 38 48 62l51 128l-172 370c-9 18 -18 22 -33 27l-18 6v20h173v-20l-25 -5c-16 -3 -30 -11 -22 -28l129 -286l111 286
c6 15 -8 25 -23 28l-28 5v20h153z" />
    <glyph glyph-name="yacute" unicode="&#xfd;" horiz-adv-x="497" 
d="M347 670l-117 -108c-10 -8 -12 -15 -9 -20c5 -6 11 -6 21 0l146 76c20 10 12 28 6 46c-6 17 -25 27 -47 6zM477 451v-20l-14 -6c-18 -8 -35 -11 -42 -27l-194 -482c-33 -80 -56 -131 -120 -131c-33 0 -65 21 -69 51c-3 32 7 49 42 49c45 0 6 -47 53 -47c24 0 38 38 48 62
l51 128l-172 370c-9 18 -18 22 -33 27l-18 6v20h173v-20l-25 -5c-16 -3 -30 -11 -22 -28l129 -286l111 286c6 15 -8 25 -23 28l-28 5v20h153z" />
    <glyph glyph-name="ycircumflex" unicode="&#x177;" horiz-adv-x="497" 
d="M256 678l142 -144h-35l-107 79l-107 -79h-34zM477 451v-20l-14 -6c-18 -8 -35 -11 -42 -27l-194 -482c-33 -80 -56 -131 -120 -131c-33 0 -65 21 -69 51c-3 32 7 49 42 49c45 0 6 -47 53 -47c24 0 38 38 48 62l51 128l-172 370c-9 18 -18 22 -33 27l-18 6v20h173v-20
l-25 -5c-16 -3 -30 -11 -22 -28l129 -286l111 286c6 15 -8 25 -23 28l-28 5v20h153z" />
    <glyph glyph-name="ydieresis" unicode="&#xff;" horiz-adv-x="497" 
d="M159 577c-24 0 -44 21 -44 44c0 24 20 45 44 45s44 -21 44 -45c0 -23 -20 -44 -44 -44zM335 577c-23 0 -44 21 -44 44c0 24 21 45 44 45c24 0 45 -21 45 -45c0 -23 -21 -44 -45 -44zM477 451v-20l-14 -6c-18 -8 -35 -11 -42 -27l-194 -482c-33 -80 -56 -131 -120 -131
c-33 0 -65 21 -69 51c-3 32 7 49 42 49c45 0 6 -47 53 -47c24 0 38 38 48 62l51 128l-172 370c-9 18 -18 22 -33 27l-18 6v20h173v-20l-25 -5c-16 -3 -30 -11 -22 -28l129 -286l111 286c6 15 -8 25 -23 28l-28 5v20h153z" />
    <glyph glyph-name="ygrave" unicode="&#x1ef3;" horiz-adv-x="497" 
d="M304 562l-117 108c-21 21 -41 11 -47 -6c-6 -18 -14 -36 6 -46l146 -76c10 -6 16 -6 21 0c4 5 1 12 -9 20zM477 451v-20l-14 -6c-18 -8 -35 -11 -42 -27l-194 -482c-33 -80 -56 -131 -120 -131c-33 0 -65 21 -69 51c-3 32 7 49 42 49c45 0 6 -47 53 -47c24 0 38 38 48 62
l51 128l-172 370c-9 18 -18 22 -33 27l-18 6v20h173v-20l-25 -5c-16 -3 -30 -11 -22 -28l129 -286l111 286c6 15 -8 25 -23 28l-28 5v20h153z" />
    <glyph glyph-name="z" unicode="z" horiz-adv-x="464" 
d="M424 101l-18 -101h-343c-27 0 -36 26 -20 48l268 372l-236 -7c-18 -1 -17 -24 -23 -38l-8 -22h-24l18 109h385l-310 -419l256 4c19 -1 22 21 28 36l6 18h21z" />
    <glyph glyph-name="zacute" unicode="&#x17a;" horiz-adv-x="464" 
d="M331 670l-117 -108c-10 -8 -12 -15 -9 -20c5 -6 11 -6 21 0l146 76c20 10 12 28 6 46c-6 17 -25 27 -47 6zM424 101l-18 -101h-343c-27 0 -36 26 -20 48l268 372l-236 -7c-18 -1 -17 -24 -23 -38l-8 -22h-24l18 109h385l-310 -419l256 4c19 -1 22 21 28 36l6 18h21z" />
    <glyph glyph-name="zcaron" unicode="&#x17e;" horiz-adv-x="464" 
d="M225 538l-141 144h34l107 -79l107 79h35zM424 101l-18 -101h-343c-27 0 -36 26 -20 48l268 372l-236 -7c-18 -1 -17 -24 -23 -38l-8 -22h-24l18 109h385l-310 -419l256 4c19 -1 22 21 28 36l6 18h21z" />
    <glyph glyph-name="zdotaccent" unicode="&#x17c;" horiz-adv-x="464" 
d="M227 578c-25 0 -46 22 -46 47s21 47 46 47s47 -22 47 -47s-22 -47 -47 -47zM424 101l-18 -101h-343c-27 0 -36 26 -20 48l268 372l-236 -7c-18 -1 -17 -24 -23 -38l-8 -22h-24l18 109h385l-310 -419l256 4c19 -1 22 21 28 36l6 18h21z" />
    <glyph glyph-name="f_b" horiz-adv-x="877" 
d="M663 463c111 0 177 -88 177 -236c0 -150 -83 -235 -180 -235c-91 0 -140 58 -154 94l-43 -90c-6 -14 -18 -4 -18 5v550c0 34 -88 81 -149 81c-96 0 -129 -75 -129 -146v-29h156c-11 -31 -9 -35 -26 -35h-130v-377c0 -23 8 -28 52 -28v-17h-178v17c55 0 56 5 56 28v377
h-59c-6 0 -10 4 -10 10v25h69v17c0 109 58 193 199 193c48 0 108 -6 152 -18l41 8c16 4 24 -4 24 -19v-156c0 -36 -3 -78 -16 -124l17 22c28 30 68 83 149 83zM647 23c81 0 125 60 125 191c0 98 -38 199 -124 199c-72 0 -99 -24 -134 -73v-204c20 -53 62 -113 133 -113z" />
    <glyph glyph-name="f_h" horiz-adv-x="915" 
d="M835 286v-209c0 -33 9 -59 60 -47l-13 -23c-21 -8 -28 -7 -47 -7c-43 0 -72 33 -72 72v230c0 71 -23 115 -85 115c-71 0 -138 -60 -157 -82v-289c0 -23 16 -28 50 -28v-18h-172v18c32 0 47 5 47 28v506l-1 -1c0 18 -20 39 -50 56l-8 -1v5c-26 12 -58 21 -91 21
c-96 0 -129 -75 -129 -146v-29h123c-11 -31 -8 -35 -26 -35h-97v-377c0 -23 8 -28 52 -28v-17h-161v17c31 0 39 5 39 28v377h-59c-6 0 -10 4 -10 10v25h69v17c0 109 58 193 199 193c55 0 113 -5 156 -17l33 7c29 6 31 -16 31 -48l1 -5v0v-21v-202l-4 -31
c18 31 86 109 187 109c93 0 135 -36 135 -173z" />
    <glyph glyph-name="f_j" horiz-adv-x="578" 
d="M296 632c-100 0 -129 -58 -129 -146v-29h120c-12 -31 -9 -35 -26 -35h-94v-377c0 -23 8 -28 52 -28v-17h-161v17c31 0 39 5 39 28v377h-59c-6 0 -10 4 -10 10v25h69v17c0 125 54 193 199 193c109 0 202 -55 202 -119c0 -29 -6 -34 -35 -34c-18 0 -38 3 -38 34
c0 47 -25 84 -129 84zM400 449l81 9c23 2 32 -9 32 -31v-501c0 -68 -15 -109 -64 -130c-59 -24 -116 -5 -119 35c0 20 7 35 17 40c12 6 29 7 37 3c3 4 23 -48 40 -41c14 6 24 23 24 50v500c0 23 -8 31 -28 31h-20v35z" />
    <glyph glyph-name="f_k" horiz-adv-x="870" 
d="M576 260l211 -218c20 -20 27 -25 56 -25v-17h-151v17c36 0 35 12 28 19l-206 208v-199c0 -23 15 -28 32 -28v-17h-136v17c19 0 36 5 36 28v513c-10 33 -91 74 -148 74c-96 0 -129 -75 -129 -146v-29h140c-12 -31 -9 -35 -26 -35h-114v-377c0 -23 8 -28 52 -28v-17h-151
v17c21 0 29 5 29 28v377h-59c-6 0 -10 4 -10 10v25h69v17c0 109 58 193 199 193c38 0 82 -3 121 -11l71 11c15 3 24 -4 24 -19v-393l186 147c12 11 13 27 -28 27v22h147v-22c-36 0 -42 -8 -57 -20z" />
    <glyph glyph-name="ordfeminine" unicode="&#xaa;" horiz-adv-x="358" 
d="M277 518v-125c0 -23 14 -31 35 -22v-20l-41 -13c-20 -7 -42 20 -43 67c-10 -35 -41 -68 -93 -69c-47 -1 -89 19 -89 67s31 82 183 102v12c0 36 -8 87 -66 82c-13 -1 -19 -2 -32 -6c-24 -8 -14 -31 -19 -48c-3 -12 -17 -18 -33 -15c-14 2 -21 13 -15 35c7 27 46 48 89 52
c76 7 124 -28 124 -99zM147 360c50 0 71 42 82 62v68c-122 -18 -132 -59 -132 -86c0 -26 20 -44 50 -44zM54 270h249v-27h-249v27z" />
    <glyph glyph-name="ordmasculine" unicode="&#xba;" horiz-adv-x="356" 
d="M178 617c68 -1 132 -51 132 -138c0 -90 -64 -142 -132 -142c-67 0 -132 52 -132 137c0 92 65 142 132 143zM261 467c0 70 -39 128 -83 128c-52 0 -83 -30 -83 -109c0 -69 41 -126 83 -126c53 0 83 28 83 107zM54 270h249v-27h-249v27z" />
    <glyph glyph-name="uni0410" unicode="&#x410;" horiz-adv-x="701" 
d="M375 596l214 -487c31 -71 51 -79 92 -88v-21h-210v20c60 11 57 27 46 53l-61 143h-266l-56 -138c-13 -33 9 -47 57 -58v-20h-171v20c42 9 58 17 77 63l226 546l25 -6c11 -4 21 -10 27 -27zM202 247h241l-124 291z" />
    <glyph glyph-name="uni0411" unicode="&#x411;" horiz-adv-x="585" 
d="M159 381h148c125 0 229 -72 229 -190c0 -119 -99 -191 -238 -191h-283v34c46 -1 68 9 68 32v506c0 23 -22 22 -68 15v34h434c13 0 25 -8 30 -23l24 -81h-22l-16 32c-14 28 -37 36 -80 37l-171 3c-37 -2 -55 -1 -55 -23v-185zM226 34h92c98 0 132 64 132 157
c0 91 -34 157 -155 157h-136v-282c0 -23 22 -33 67 -32z" />
    <glyph glyph-name="uni0412" unicode="&#x412;" horiz-adv-x="592" 
d="M409 336c92 -18 148 -80 148 -159c0 -118 -85 -179 -229 -177l-88 2c-105 7 -142 6 -215 -2v28c46 10 65 25 65 48v471c0 23 -24 38 -64 44v30h285c128 0 212 -45 212 -147c0 -55 -39 -115 -114 -138zM160 586v-233h222c21 0 64 50 64 124c0 72 -38 109 -120 109h-166z
M189 36h136c104 0 155 40 155 141c0 88 -57 144 -244 144h-76v-244c0 -22 8 -41 29 -41z" />
    <glyph glyph-name="uni0413" unicode="&#x413;" horiz-adv-x="528" 
d="M479 598l24 -81h-22l-16 32c-14 28 -37 36 -80 37l-171 3c-37 -2 -55 -1 -55 -23v-500c0 -23 22 -33 68 -32v-34h-212v34c46 -1 68 9 68 32v506c0 23 -22 22 -68 15v34h434c13 0 25 -8 30 -23z" />
    <glyph glyph-name="uni0403" unicode="&#x403;" horiz-adv-x="528" 
d="M375 788l-146 -76c-10 -6 -16 -6 -21 0c-3 5 -1 12 9 20l117 108c22 21 41 11 47 -6c6 -18 14 -36 -6 -46zM479 598l24 -81h-22l-16 32c-14 28 -37 36 -80 37l-171 3c-37 -2 -55 -1 -55 -23v-500c0 -23 22 -33 68 -32v-34h-212v34c46 -1 68 9 68 32v506
c0 23 -22 22 -68 15v34h434c13 0 25 -8 30 -23z" />
    <glyph glyph-name="uni0490" unicode="&#x490;" horiz-adv-x="504" 
d="M451 695h28v-82c0 -15 -17 -23 -30 -23h-254c-23 -1 -36 -6 -36 -24v-500c0 -23 22 -33 68 -32v-34h-212v34c46 -1 68 9 68 32v506c0 23 -22 22 -68 15v34h340c43 0 66 13 80 41z" />
    <glyph glyph-name="uni0414" unicode="&#x414;" horiz-adv-x="653" 
d="M612 621v-34c-49 0 -79 -11 -79 -28v-493c0 -31 20 -37 72 -38c8 0 10 -4 11 -12l-24 -181h-7c-7 0 -11 4 -11 11c0 108 21 154 -181 154h-127c-192 0 -200 -46 -200 -154c0 -7 -4 -11 -11 -11h-18v183c0 6 3 10 10 11c118 21 146 228 146 529c0 23 -20 29 -79 29v34h498
zM116 29h286c36 0 58 5 58 38v484c0 23 -22 28 -58 28h-122c-29 0 -51 -3 -51 -26c0 -270 -27 -491 -113 -524z" />
    <glyph glyph-name="uni0415" unicode="&#x415;" 
d="M493 112h30c-16 -32 -24 -57 -32 -89c-4 -15 -17 -23 -30 -23h-426v22c34 12 49 11 49 50v480c0 40 -15 38 -49 51v18h426c13 0 17 -3 17 -18v-97h-22l-15 33c-13 28 -37 46 -80 46h-200v-251h187c33 0 38 27 51 59h15v-153h-15c-13 31 -18 60 -51 60h-187v-267l239 2
c49 0 47 19 67 44z" />
    <glyph glyph-name="uni0400" unicode="&#x400;" 
d="M322 732l-117 108c-21 21 -41 11 -47 -6c-6 -18 -14 -36 6 -46l146 -76c10 -6 16 -6 21 0c4 5 1 12 -9 20zM493 112h30c-16 -32 -24 -57 -32 -89c-4 -15 -17 -23 -30 -23h-426v22c34 12 49 11 49 50v480c0 40 -15 38 -49 51v18h426c13 0 17 -3 17 -18v-97h-22l-15 33
c-13 28 -37 46 -80 46h-200v-251h187c33 0 38 27 51 59h15v-153h-15c-13 31 -18 60 -51 60h-187v-267l239 2c49 0 47 19 67 44z" />
    <glyph glyph-name="uni0401" unicode="&#x401;" 
d="M177 747c-24 0 -44 21 -44 44c0 24 20 45 44 45s44 -21 44 -45c0 -23 -20 -44 -44 -44zM353 747c-23 0 -44 21 -44 44c0 24 21 45 44 45c24 0 45 -21 45 -45c0 -23 -21 -44 -45 -44zM493 112h30c-16 -32 -24 -57 -32 -89c-4 -15 -17 -23 -30 -23h-426v22
c34 12 49 11 49 50v480c0 40 -15 38 -49 51v18h426c13 0 17 -3 17 -18v-97h-22l-15 33c-13 28 -37 46 -80 46h-200v-251h187c33 0 38 27 51 59h15v-153h-15c-13 31 -18 60 -51 60h-187v-267l239 2c49 0 47 19 67 44z" />
    <glyph glyph-name="uni0416" unicode="&#x416;" horiz-adv-x="911" 
d="M564 334l187 -226c57 -68 80 -82 125 -87v-21h-194v21c28 5 48 19 27 44l-189 221h-27v-227c0 -23 18 -35 68 -39v-20h-211v20c50 4 69 16 69 39v227h-27l-193 -221c-21 -25 2 -39 30 -44v-21h-194v21c46 5 68 19 125 87l187 226l-171 225c-20 27 -35 6 -69 -18
c-34 -25 -62 6 -62 37c0 33 24 43 84 43c36 0 74 -33 104 -76l116 -164c26 -37 49 -42 64 -42h6v223c0 34 -19 33 -69 39v20h211v-20c-50 -7 -68 -5 -68 -39v-223h5c15 0 38 5 64 42l116 164c30 43 68 76 105 76c59 0 84 -10 84 -43c0 -31 -28 -62 -62 -37
c-35 24 -50 45 -70 18z" />
    <glyph glyph-name="uni0417" unicode="&#x417;" horiz-adv-x="578" 
d="M393 369c57 2 140 -58 140 -163c0 -131 -106 -218 -235 -218c-157 0 -247 75 -246 182c0 43 7 57 36 57c36 0 21 -34 37 -92c23 -78 85 -119 175 -119c84 0 161 56 161 171c0 83 -66 131 -126 131c-12 0 -26 -2 -38 -6l-41 -14l-10 29l43 17c78 31 124 80 124 144
c0 67 -30 118 -110 118c-78 0 -139 -41 -172 -129c-9 -23 -11 -35 -14 -44c-4 -11 -12 -14 -23 -11l-28 9l11 190h7c11 0 17 -6 19 -17c4 -22 12 -49 32 -49c33 46 73 82 152 82c123 0 195 -80 195 -146c0 -62 -44 -108 -89 -122z" />
    <glyph glyph-name="uni0418" unicode="&#x418;" horiz-adv-x="645" 
d="M611 621v-18c-33 -13 -52 -11 -52 -51v-488c0 -39 19 -38 52 -51v-13h-175v13c34 13 53 12 53 51v413l-326 -361v-52c0 -39 19 -38 52 -51v-13h-175v13c34 13 53 12 53 51v488c0 40 -19 38 -53 51v18h175v-18c-33 -13 -52 -11 -52 -51v-392l326 361v31
c0 40 -19 38 -53 51v18h175z" />
    <glyph glyph-name="uni0419" unicode="&#x419;" horiz-adv-x="645" 
d="M326 732c-80 0 -127 63 -131 118c0 8 5 11 10 11h7c7 0 10 -3 11 -11c4 -29 36 -65 103 -65c68 0 99 36 103 65c1 8 4 11 11 11h7c5 0 10 -3 10 -11c-4 -55 -51 -118 -131 -118zM611 621v-18c-33 -13 -52 -11 -52 -51v-488c0 -39 19 -38 52 -51v-13h-175v13
c34 13 53 12 53 51v413l-326 -361v-52c0 -39 19 -38 52 -51v-13h-175v13c34 13 53 12 53 51v488c0 40 -19 38 -53 51v18h175v-18c-33 -13 -52 -11 -52 -51v-392l326 361v31c0 40 -19 38 -53 51v18h175z" />
    <glyph glyph-name="uni040D" unicode="&#x40d;" horiz-adv-x="645" 
d="M369 712l-146 76c-20 10 -12 28 -6 46c6 17 26 27 47 6l117 -108c10 -8 13 -15 9 -20c-5 -6 -11 -6 -21 0zM611 621v-18c-33 -13 -52 -11 -52 -51v-488c0 -39 19 -38 52 -51v-13h-175v13c34 13 53 12 53 51v413l-326 -361v-52c0 -39 19 -38 52 -51v-13h-175v13
c34 13 53 12 53 51v488c0 40 -19 38 -53 51v18h175v-18c-33 -13 -52 -11 -52 -51v-392l326 361v31c0 40 -19 38 -53 51v18h175z" />
    <glyph glyph-name="uni041A" unicode="&#x41a;" horiz-adv-x="617" 
d="M270 334l187 -226c57 -68 80 -82 125 -87v-21h-194v21c28 5 49 19 27 44l-189 221h-64v-227c0 -23 19 -35 69 -39v-20h-211v20c50 4 69 16 69 39v503c0 34 -19 33 -69 39v20h211v-20c-50 -7 -69 -5 -69 -39v-223h42c15 0 38 5 64 42l116 164c30 43 68 76 106 76
c60 0 83 -13 83 -45c0 -31 -27 -61 -61 -36c-34 24 -49 48 -70 20z" />
    <glyph glyph-name="uni041B" unicode="&#x41b;" horiz-adv-x="646" 
d="M609 621v-18c-33 -13 -53 -11 -53 -51v-488c0 -39 20 -38 53 -51v-13h-175v13c33 13 52 12 52 51v488c0 38 -18 40 -53 40h-208v-315c0 -117 16 -288 -115 -288c-41 0 -76 13 -87 50c-6 20 -3 47 13 55c22 11 53 5 58 -14c7 -28 -3 -70 29 -67c68 6 69 116 69 242l-1 309
c0 23 -20 28 -41 28h-58v29h517z" />
    <glyph glyph-name="uni041C" unicode="&#x41c;" horiz-adv-x="798" 
d="M758 621v-15c-35 -12 -44 -27 -44 -67v-473c0 -40 9 -40 44 -53v-13h-162v13c30 13 48 13 48 53v466l-236 -477c-13 -26 -10 -26 -24 0l-265 491v-480c0 -40 18 -40 50 -53v-13h-139v13c35 13 51 13 51 53v473c0 40 -16 55 -51 67v15h138l246 -460l229 460h115z" />
    <glyph glyph-name="uni041D" unicode="&#x41d;" horiz-adv-x="652" 
d="M628 621v-18c-33 -13 -49 -11 -49 -51v-488c0 -39 16 -38 49 -51v-13h-175v13c33 13 49 12 49 51v233h-349v-233c0 -39 16 -38 49 -51v-13h-175v13c33 13 49 12 49 51v488c0 40 -16 38 -49 51v18h175v-18c-33 -13 -49 -11 -49 -51v-220h349v220c0 40 -16 38 -49 51v18
h175z" />
    <glyph glyph-name="uni041E" unicode="&#x41e;" horiz-adv-x="636" 
d="M606 316c0 -189 -116 -331 -288 -331c-171 0 -288 156 -288 331c0 179 117 321 288 321c172 0 288 -136 288 -321zM311 19c131 0 214 60 214 267c0 193 -113 319 -207 319c-117 0 -207 -39 -207 -259c0 -209 106 -327 200 -327z" />
    <glyph glyph-name="uni041F" unicode="&#x41f;" horiz-adv-x="645" 
d="M611 621v-18c-33 -13 -52 -11 -52 -51v-488c0 -39 19 -38 52 -51v-13h-175v13c34 13 53 12 53 51v488c0 23 -6 32 -18 38h-290c-12 -6 -18 -15 -18 -38v-488c0 -39 19 -38 52 -51v-13h-175v13c34 13 53 12 53 51v488c0 40 -19 38 -53 51v18h571z" />
    <glyph glyph-name="uni0420" unicode="&#x420;" horiz-adv-x="542" 
d="M25 621h260c133 0 232 -72 232 -191c0 -118 -102 -182 -245 -182h-124v-184c0 -39 19 -38 52 -51v-13h-175v13c34 13 53 12 53 51v488c0 40 -19 38 -53 51v18zM148 272h138c112 0 144 72 144 158c0 87 -34 160 -131 160h-151v-318z" />
    <glyph glyph-name="uni0421" unicode="&#x421;" horiz-adv-x="616" 
d="M572 423l-18 -8c-11 -5 -19 0 -23 11c-3 9 -8 21 -14 36c-41 99 -117 142 -199 142c-103 0 -210 -82 -210 -256c0 -202 125 -324 228 -324c91 0 137 55 172 108c13 22 17 37 30 37c6 0 26 -12 31 -16c5 -10 -4 -23 -18 -47c-51 -85 -132 -121 -229 -121
c-169 0 -295 156 -295 334c0 170 126 318 286 318c81 0 145 -36 184 -82c17 0 25 23 29 49c2 11 8 17 19 17h16z" />
    <glyph glyph-name="uni0422" unicode="&#x422;" horiz-adv-x="577" 
d="M546 599l6 -88h-13l-11 33c-7 18 -22 31 -45 31h-158v-511c0 -39 19 -38 53 -51v-13h-177v13c33 13 52 12 52 51v511h-159c-23 0 -38 -13 -45 -31l-11 -33h-13l6 88c1 15 8 22 21 22h473c13 0 20 -7 21 -22z" />
    <glyph glyph-name="uni0423" unicode="&#x423;" horiz-adv-x="642" 
d="M627 621v-18c-41 -6 -49 -22 -68 -60l-183 -379c-65 -133 -98 -179 -158 -179c-53 0 -90 24 -100 53c-10 30 9 53 33 53c63 0 34 -57 90 -57c43 0 52 26 79 82l-219 402c-34 64 -43 79 -86 85v18h191v-18c-34 -6 -51 -17 -43 -34l190 -369l170 359c11 25 -18 38 -56 44
v18h160z" />
    <glyph glyph-name="uni040E" unicode="&#x40e;" horiz-adv-x="642" 
d="M338 732c-80 0 -127 63 -131 118c0 8 5 11 10 11h7c7 0 10 -3 11 -11c4 -29 36 -65 103 -65c68 0 99 36 103 65c1 8 4 11 11 11h7c5 0 10 -3 10 -11c-4 -55 -51 -118 -131 -118zM627 621v-18c-41 -6 -49 -22 -68 -60l-183 -379c-65 -133 -98 -179 -158 -179
c-53 0 -90 24 -100 53c-10 30 9 53 33 53c63 0 34 -57 90 -57c43 0 52 26 79 82l-219 402c-34 64 -43 79 -86 85v18h191v-18c-34 -6 -51 -17 -43 -34l190 -369l170 359c11 25 -18 38 -56 44v18h160z" />
    <glyph glyph-name="uni0424" unicode="&#x424;" horiz-adv-x="739" 
d="M453 94h-46v-30c0 -39 19 -38 52 -51v-13h-175v13c33 13 53 12 53 51v30h-51c-155 0 -241 93 -241 217c0 123 90 216 240 216h52v25c0 40 -20 38 -53 51v18h175v-18c-33 -13 -52 -11 -52 -51v-25h47c150 0 240 -93 240 -216c0 -124 -86 -217 -241 -217zM291 128h46v366
h-50c-110 0 -156 -87 -156 -183c0 -98 41 -183 160 -183zM452 494h-45v-366h41c119 0 160 85 160 183c0 96 -46 183 -156 183z" />
    <glyph glyph-name="uni0425" unicode="&#x425;" horiz-adv-x="664" 
d="M366 327l174 -223c44 -58 47 -79 92 -83v-21h-183v21c29 4 52 15 41 32l-185 237l-161 -227c-17 -23 5 -38 44 -42v-21h-170v21c43 4 57 21 84 58l179 242l-156 199c-42 54 -47 77 -92 82v19h184v-19c-29 -5 -52 -17 -41 -31l168 -215l141 205c14 21 -12 36 -52 41v19
h164v-19c-43 -5 -56 -25 -78 -57z" />
    <glyph glyph-name="uni0427" unicode="&#x427;" horiz-adv-x="584" 
d="M547 621v-18c-33 -13 -52 -11 -52 -51v-488c0 -39 19 -38 52 -51v-13h-175v13c33 13 53 12 53 51v247c-22 -35 -74 -104 -164 -104c-97 0 -176 31 -176 168v166c0 33 -9 57 -60 45l13 35h177v-31c-36 0 -58 -5 -58 -28v-183c0 -71 31 -133 110 -133c73 0 138 62 157 84
v236c-5 26 -23 26 -52 37v18h175z" />
    <glyph glyph-name="uni0426" unicode="&#x426;" horiz-adv-x="673" 
d="M625 31c8 0 10 -4 11 -12l-24 -184h-5c-7 0 -11 4 -11 11c0 108 14 154 -170 154h-386v13c34 13 53 12 53 51v488c0 40 -19 38 -53 51v18h175v-18c-33 -13 -52 -11 -52 -51v-488c0 -17 4 -27 11 -33h255c36 0 58 -1 58 32v97h2v392c0 40 -19 38 -53 51v18h175v-18
c-33 -13 -52 -11 -52 -51v-488c0 -12 2 -21 6 -27c8 -5 26 -5 60 -6z" />
    <glyph glyph-name="uni0428" unicode="&#x428;" horiz-adv-x="830" 
d="M796 621v-18c-33 -13 -52 -11 -52 -51v-488c0 -39 19 -38 52 -51v-13h-756v13c34 13 53 12 53 51v488c0 40 -19 38 -53 51v18h175v-18c-33 -13 -52 -11 -52 -51v-488c0 -17 4 -27 11 -33h198c7 6 11 16 11 33v488c0 40 -19 38 -52 51v18h175v-18c-34 -13 -53 -11 -53 -51
v-488c0 -17 4 -27 11 -33h199c7 6 11 16 11 33v488c0 40 -19 38 -53 51v18h175z" />
    <glyph glyph-name="uni0429" unicode="&#x429;" horiz-adv-x="857" 
d="M806 31c8 0 11 -4 11 -12l-24 -184h-4c-7 0 -11 4 -11 11c0 108 15 154 -161 154h-571v13c34 13 53 12 53 51v488c0 40 -19 38 -53 51v18h176v-18c-34 -13 -53 -11 -53 -51v-488c0 -17 4 -27 11 -33h198c7 6 11 16 11 33v488c0 40 -19 38 -52 51v18h175v-18
c-33 -13 -53 -11 -53 -51v-488c0 -17 4 -27 11 -33h159c31 0 49 2 49 32v97h2v392c0 40 -19 38 -53 51v18h176v-18c-34 -13 -53 -11 -53 -51v-488c0 -15 3 -25 9 -31c10 -1 25 -2 47 -2z" />
    <glyph glyph-name="uni042F" unicode="&#x42f;" horiz-adv-x="603" 
d="M25 23h23c49 5 88 86 104 145c15 62 24 112 111 124c-98 26 -155 83 -155 159c0 99 80 170 219 170h241v-13c-33 -13 -49 -28 -49 -67v-477c0 -39 16 -38 49 -51v-13h-170v13c32 13 51 12 51 51v231h-83c-100 0 -118 -38 -137 -134c-17 -102 -78 -141 -107 -161h-97v23z
M313 316h136v274h-145c-80 0 -113 -71 -113 -139c0 -65 20 -135 122 -135z" />
    <glyph glyph-name="uni042C" unicode="&#x42c;" horiz-adv-x="568" 
d="M163 381h158c125 0 229 -72 229 -190c0 -119 -99 -191 -238 -191h-272v13c34 13 53 12 53 51v488c0 40 -19 38 -53 51v18h175v-18c-33 -13 -52 -11 -52 -51v-171zM173 32h159c97 0 131 66 131 159c0 91 -34 157 -154 157h-146v-284c0 -16 3 -26 10 -32z" />
    <glyph glyph-name="uni042A" unicode="&#x42a;" horiz-adv-x="665" 
d="M253 381h159c124 0 228 -72 228 -190c0 -119 -99 -191 -237 -191h-272v13c33 13 52 12 52 51v488c0 14 -2 22 -6 29l-54 -4c-43 -3 -71 -13 -85 -41l-16 -33l-22 2l24 93c4 15 17 23 30 23h252v-18c-33 -13 -53 -11 -53 -51v-171zM263 32h160c97 0 131 66 131 159
c0 91 -34 157 -155 157h-146v-284c0 -16 4 -26 10 -32z" />
    <glyph glyph-name="uni042B" unicode="&#x42b;" horiz-adv-x="819" 
d="M163 381h158c125 0 229 -72 229 -190c0 -119 -99 -191 -238 -191h-272v13c34 13 53 12 53 51v488c0 40 -19 38 -53 51v18h175v-18c-33 -13 -52 -11 -52 -51v-171zM785 621v-18c-33 -13 -52 -11 -52 -51v-488c0 -39 19 -38 52 -51v-13h-175v13c34 13 53 12 53 51v488
c0 40 -19 38 -53 51v18h175zM173 32h159c97 0 131 66 131 159c0 91 -34 157 -154 157h-146v-284c0 -16 3 -26 10 -32z" />
    <glyph glyph-name="uni0405" unicode="&#x405;" horiz-adv-x="533" 
d="M485 439l-21 -4c-13 -2 -21 1 -24 12l-11 40c-17 65 -89 120 -165 120c-88 0 -145 -73 -136 -139c9 -69 86 -91 137 -108c60 -19 223 -48 237 -177c16 -137 -117 -198 -228 -198c-110 0 -125 55 -187 34l-52 157l21 5c14 5 22 2 30 -13c7 -13 15 -27 22 -41
c29 -58 90 -102 169 -102c64 0 155 24 143 130c-9 89 -97 108 -171 132c-72 24 -176 48 -192 158c-13 82 59 193 207 193c128 0 147 -60 208 -72z" />
    <glyph glyph-name="uni0404" unicode="&#x404;" horiz-adv-x="617" 
d="M538 169c6 0 26 -12 31 -16c5 -10 -4 -23 -18 -47c-51 -85 -132 -121 -229 -121c-169 0 -295 156 -295 334c0 170 126 318 286 318c81 0 145 -36 184 -82c17 0 25 23 29 49c2 11 8 17 19 17h16l11 -198l-18 -8c-11 -5 -19 0 -23 11c-3 9 -8 21 -14 36
c-41 99 -117 142 -199 142c-103 0 -210 -82 -210 -256v-14h279v-36h-276c18 -172 131 -274 225 -274c91 0 137 55 172 108c13 22 17 37 30 37z" />
    <glyph glyph-name="uni042D" unicode="&#x42d;" horiz-adv-x="617" 
d="M304 637c161 0 286 -148 286 -318c0 -178 -126 -334 -294 -334c-98 0 -179 36 -230 121c-14 24 -23 37 -18 47c5 4 25 16 31 16c13 0 17 -15 30 -37c35 -53 81 -108 172 -108c94 0 207 102 225 274h-276v36h279v14c0 174 -107 256 -210 256c-82 0 -158 -43 -198 -142
c-6 -15 -11 -27 -14 -36c-4 -11 -12 -16 -23 -11l-19 8l11 198h16c11 0 17 -6 19 -17c4 -26 12 -49 29 -49c39 46 103 82 184 82z" />
    <glyph glyph-name="uni0406" unicode="&#x406;" horiz-adv-x="252" 
d="M163 552v-488c0 -39 19 -38 52 -51v-13h-175v13c34 13 53 12 53 51v488c0 40 -19 38 -53 51v18h175v-18c-33 -13 -52 -11 -52 -51z" />
    <glyph glyph-name="uni0407" unicode="&#x407;" horiz-adv-x="252" 
d="M36 747c-24 0 -44 21 -44 44c0 24 20 45 44 45s44 -21 44 -45c0 -23 -20 -44 -44 -44zM212 747c-23 0 -44 21 -44 44c0 24 21 45 44 45c24 0 45 -21 45 -45c0 -23 -21 -44 -45 -44zM163 552v-488c0 -39 19 -38 52 -51v-13h-175v13c34 13 53 12 53 51v488
c0 40 -19 38 -53 51v18h175v-18c-33 -13 -52 -11 -52 -51z" />
    <glyph glyph-name="uni0408" unicode="&#x408;" horiz-adv-x="312" 
d="M272 621v-18c-34 -13 -53 -11 -53 -51v-580c0 -95 -45 -134 -127 -134c-69 0 -97 47 -97 74c0 34 16 47 44 47c27 0 38 -19 38 -43c0 -19 11 -51 38 -51c24 0 34 26 34 59v628c0 40 -19 38 -52 51v18h175z" />
    <glyph glyph-name="uni042E" unicode="&#x42e;" horiz-adv-x="902" 
d="M584 637c172 0 288 -136 288 -321c0 -189 -116 -331 -288 -331c-164 0 -279 145 -287 313h-134v-234c0 -39 19 -38 52 -51v-13h-175v13c34 13 53 12 53 51v488c0 40 -19 38 -53 51v18h175v-18c-33 -13 -52 -11 -52 -51v-218h134c8 170 123 303 287 303zM578 19
c131 0 213 60 213 267c0 193 -113 319 -207 319c-116 0 -207 -39 -207 -259c0 -209 106 -327 201 -327z" />
    <glyph glyph-name="uni0430" unicode="&#x430;" horiz-adv-x="461" 
d="M386 302v-227c0 -38 17 -43 55 -36v-25c-22 -17 -44 -22 -61 -22c-26 0 -50 37 -57 100c-25 -48 -80 -100 -155 -102s-151 37 -151 117c0 74 51 133 302 167v9c0 93 -25 145 -102 145c-65 0 -97 -17 -97 -89c0 -18 -27 -26 -44 -26c-21 0 -33 15 -35 36
c0 76 86 111 180 111c113 0 165 -67 165 -158zM183 25c81 0 112 70 136 97v128c-200 -28 -229 -82 -229 -140c0 -51 33 -85 93 -85z" />
    <glyph glyph-name="uni0431" unicode="&#x431;" horiz-adv-x="469" 
d="M239 458c118 0 208 -95 208 -228c0 -140 -90 -240 -203 -240c-96 0 -180 63 -209 228c-36 200 19 403 216 403h127c25 0 34 13 51 19h10c-22 -86 -68 -89 -114 -89h-96c-125 0 -156 -82 -175 -217c35 77 105 124 185 124zM255 29c73 0 126 48 126 183
c0 114 -67 213 -153 213c-71 0 -125 -47 -125 -184c0 -118 66 -212 152 -212z" />
    <glyph glyph-name="uni0432" unicode="&#x432;" horiz-adv-x="467" 
d="M302 243c76 -13 122 -57 122 -115c0 -85 -65 -130 -162 -128l-56 2c-76 5 -119 4 -181 -2v33c43 7 57 18 57 35v325c0 16 -18 31 -57 31v27h210c93 0 165 -33 165 -108c0 -39 -34 -83 -98 -100zM150 424v-161h133c29 0 46 28 46 73c0 55 -33 88 -87 88h-92zM171 39l79 -1
c67 -1 104 23 104 90c0 64 -48 97 -164 97h-40v-156c0 -16 6 -30 21 -30z" />
    <glyph glyph-name="uni0433" unicode="&#x433;" horiz-adv-x="442" 
d="M393 428l24 -93l-22 -2l-16 33c-14 28 -37 56 -80 56h-97c-36 0 -58 0 -58 -24v-331c0 -23 22 -28 68 -33v-34h-197v34c36 5 58 10 58 33v330c0 23 -22 28 -58 28v26h348c13 0 26 -8 30 -23z" />
    <glyph glyph-name="uni0453" unicode="&#x453;" horiz-adv-x="442" 
d="M319 618l-146 -76c-10 -6 -16 -6 -21 0c-3 5 -1 12 9 20l117 108c22 21 41 11 47 -6c6 -18 14 -36 -6 -46zM393 428l24 -93l-22 -2l-16 33c-14 28 -37 56 -80 56h-97c-36 0 -58 0 -58 -24v-331c0 -23 22 -28 68 -33v-34h-197v34c36 5 58 10 58 33v330c0 23 -22 28 -58 28
v26h348c13 0 26 -8 30 -23z" />
    <glyph glyph-name="uni0491" unicode="&#x491;" horiz-adv-x="405" 
d="M358 525h22v-71c0 -20 -19 -32 -37 -32l-169 -1c-19 -1 -30 -6 -30 -23v-331c0 -23 22 -28 68 -33v-34h-197v34c36 5 58 10 58 33v330c0 23 -22 28 -58 28v26h247c43 0 66 13 80 41z" />
    <glyph glyph-name="uni0434" unicode="&#x434;" horiz-adv-x="601" 
d="M562 451v-26c-49 0 -79 -5 -79 -28v-325c0 -31 20 -37 72 -38c8 0 11 -4 11 -12l-24 -157h-10c-7 0 -11 4 -11 11c0 78 21 124 -170 124h-86c-193 0 -201 -46 -201 -124c0 -7 -4 -11 -11 -11h-18v159c0 6 3 10 10 11c118 20 141 206 141 361c0 23 -20 29 -79 29v26h455z
M131 34h223c36 0 58 5 58 38v322c0 23 -10 29 -36 29h-116c-24 0 -31 -4 -31 -27c0 -177 -31 -322 -98 -362z" />
    <glyph glyph-name="uni0435" unicode="&#x435;" horiz-adv-x="451" 
d="M421 277c0 -38 -19 -48 -56 -48h-260c0 -124 79 -200 154 -200s111 45 135 78l21 -32c-25 -33 -61 -85 -174 -85c-120 0 -211 101 -211 240c0 148 88 228 203 228c98 0 188 -66 188 -181zM105 265h243c2 91 -41 163 -115 163c-80 0 -128 -72 -128 -163z" />
    <glyph glyph-name="uni0450" unicode="&#x450;" horiz-adv-x="451" 
d="M280 562l-117 108c-21 21 -41 11 -47 -6c-6 -18 -14 -36 6 -46l146 -76c10 -6 16 -6 21 0c4 5 1 12 -9 20zM421 277c0 -38 -19 -48 -56 -48h-260c0 -124 79 -200 154 -200s111 45 135 78l21 -32c-25 -33 -61 -85 -174 -85c-120 0 -211 101 -211 240c0 148 88 228 203 228
c98 0 188 -66 188 -181zM105 265h243c2 91 -41 163 -115 163c-80 0 -128 -72 -128 -163z" />
    <glyph glyph-name="uni0451" unicode="&#x451;" horiz-adv-x="451" 
d="M135 577c-24 0 -44 21 -44 44c0 24 20 45 44 45s44 -21 44 -45c0 -23 -20 -44 -44 -44zM311 577c-23 0 -44 21 -44 44c0 24 21 45 44 45c24 0 45 -21 45 -45c0 -23 -21 -44 -45 -44zM421 277c0 -38 -19 -48 -56 -48h-260c0 -124 79 -200 154 -200s111 45 135 78l21 -32
c-25 -33 -61 -85 -174 -85c-120 0 -211 101 -211 240c0 148 88 228 203 228c98 0 188 -66 188 -181zM105 265h243c2 91 -41 163 -115 163c-80 0 -128 -72 -128 -163z" />
    <glyph glyph-name="uni0436" unicode="&#x436;" horiz-adv-x="701" 
d="M452 239l131 -156c45 -54 59 -55 83 -59v-24h-153v24c22 4 31 9 23 17l-127 160h-20v-144c0 -23 22 -28 47 -33v-24h-166v24c25 5 48 10 48 33v144h-25l-128 -160c-8 -8 1 -13 23 -17v-24h-153v24c24 4 38 5 83 59l131 156l-114 169c-10 14 -23 3 -50 -14
c-28 -19 -48 12 -48 29c0 19 17 29 52 29c45 0 73 -23 93 -53l84 -125c17 -26 34 -28 43 -28h9v149c0 23 -23 28 -48 33v23h166v-23c-25 -5 -47 -10 -47 -33v-149h4c9 0 26 2 43 28l84 125c20 30 48 53 93 53c35 0 51 -10 51 -29c0 -17 -19 -48 -47 -29
c-27 17 -40 28 -50 14z" />
    <glyph glyph-name="uni0437" unicode="&#x437;" horiz-adv-x="427" 
d="M297 268c48 -8 85 -50 85 -119c0 -93 -81 -157 -171 -157c-95 0 -165 65 -166 143c0 20 4 32 22 32c35 0 20 -31 39 -77c17 -40 46 -58 104 -58c64 0 112 40 112 103c0 60 -47 94 -83 94c-7 0 -19 -1 -33 -6l-28 -11l-10 28l35 14c52 20 76 54 76 98c0 43 -19 82 -75 82
c-71 0 -90 -34 -106 -97c-5 -20 -10 -45 -31 -38l-19 10l8 140h8c28 0 14 -34 31 -43c23 28 58 54 114 54c93 0 138 -59 138 -109c0 -32 -25 -65 -50 -83z" />
    <glyph glyph-name="uni0438" unicode="&#x438;" horiz-adv-x="551" 
d="M514 451v-21c-25 -5 -47 -10 -47 -33v-350c0 -23 22 -28 47 -33v-14h-160v14c25 5 48 10 48 33v289l-252 -254v-35c0 -23 22 -28 47 -33v-14h-160v14c25 5 48 10 48 33v350c0 23 -23 28 -48 33v21h160v-21c-25 -5 -47 -10 -47 -33v-268l252 258v10c0 23 -23 28 -48 33v21
h160z" />
    <glyph glyph-name="uni0439" unicode="&#x439;" horiz-adv-x="551" 
d="M288 562c-80 0 -127 63 -131 118c0 8 5 11 10 11h7c7 0 10 -3 11 -11c4 -29 36 -65 103 -65c68 0 99 36 103 65c1 8 4 11 11 11h7c5 0 10 -3 10 -11c-4 -55 -51 -118 -131 -118zM514 451v-21c-25 -5 -47 -10 -47 -33v-350c0 -23 22 -28 47 -33v-14h-160v14
c25 5 48 10 48 33v289l-252 -254v-35c0 -23 22 -28 47 -33v-14h-160v14c25 5 48 10 48 33v350c0 23 -23 28 -48 33v21h160v-21c-25 -5 -47 -10 -47 -33v-268l252 258v10c0 23 -23 28 -48 33v21h160z" />
    <glyph glyph-name="uni043A" unicode="&#x43a;" horiz-adv-x="464" 
d="M204 239l152 -155c49 -48 59 -59 83 -62v-22h-153v22c22 3 31 11 23 20l-144 159h-32v-154c0 -23 22 -28 47 -33v-14h-160v14c25 5 48 10 48 33v350c0 23 -23 28 -48 33v21h160v-24c-35 -8 -47 -10 -47 -33v-148h16c9 0 23 4 43 28l101 125c23 28 48 53 76 53
c52 0 68 -10 68 -29c0 -17 -19 -48 -47 -29c-27 17 -39 26 -49 14z" />
    <glyph glyph-name="uni043B" unicode="&#x43b;" horiz-adv-x="584" 
d="M547 451v-22c-33 0 -74 -6 -74 -32v-337c0 -31 35 -34 74 -46v-14h-216v14c38 12 59 15 59 46v336c0 26 -11 29 -37 29h-129v-164c0 -117 11 -272 -119 -272c-38 0 -71 13 -83 50c-5 19 -2 48 14 55c17 9 53 5 58 -14c7 -28 -3 -65 29 -62c65 6 70 95 69 221l-1 156
c0 23 -20 30 -96 30v26h452z" />
    <glyph glyph-name="uni043C" unicode="&#x43c;" horiz-adv-x="583" 
d="M543 451v-21c-26 -7 -35 -14 -35 -38v-347c0 -23 7 -24 35 -32v-13h-144v13c29 9 38 10 38 32v299l-149 -319c-4 -10 -7 -11 -11 0l-172 319v-299c0 -22 10 -23 43 -32v-13h-118v13c28 8 38 9 38 32v347c0 24 -12 31 -38 38v21h101c43 -109 107 -233 166 -332
c46 99 103 223 146 332h100z" />
    <glyph glyph-name="uni043D" unicode="&#x43d;" horiz-adv-x="523" 
d="M504 451v-21c-25 -5 -47 -10 -47 -33v-350c0 -23 22 -28 47 -33v-14h-160v14c25 5 48 10 48 33v167h-252v-167c0 -23 22 -28 47 -33v-14h-160v14c25 5 48 10 48 33v350c0 23 -23 28 -48 33v21h160v-21c-25 -5 -47 -10 -47 -33v-155h252v155c0 23 -23 28 -48 33v21h160z
" />
    <glyph glyph-name="uni043E" unicode="&#x43e;" horiz-adv-x="472" 
d="M234 458c118 0 208 -95 208 -228c0 -140 -90 -240 -203 -240c-117 0 -209 100 -209 232c0 141 92 236 204 236zM376 212c0 114 -67 213 -153 213c-72 0 -125 -47 -125 -184c0 -118 66 -212 152 -212c73 0 126 48 126 183z" />
    <glyph glyph-name="uni043F" unicode="&#x43f;" horiz-adv-x="551" 
d="M514 451v-21c-25 -5 -47 -10 -47 -33v-350c0 -23 22 -28 47 -33v-14h-160v14c25 5 48 10 48 33v347c0 18 -8 27 -24 31h-204c-16 -4 -24 -13 -24 -31v-347c0 -23 22 -28 47 -33v-14h-160v14c25 5 48 10 48 33v350c0 23 -23 28 -48 33v21h477z" />
    <glyph glyph-name="uni0440" unicode="&#x440;" horiz-adv-x="502" 
d="M294 464c119 0 181 -86 181 -237c0 -150 -79 -233 -178 -233c-80 0 -131 43 -152 77v-203c0 -23 16 -28 50 -28v-24h-163v24c32 0 47 5 47 28v496c0 33 -21 44 -59 39v41l98 17c36 5 36 -37 22 -80c19 19 70 83 154 83zM287 27c80 0 121 56 121 187
c0 98 -35 200 -120 200c-86 0 -109 -33 -143 -80v-195c19 -54 65 -112 142 -112z" />
    <glyph glyph-name="uni0441" unicode="&#x441;" horiz-adv-x="443" 
d="M385 104l16 -18c-19 -37 -63 -94 -184 -94c-107 0 -192 97 -192 234c0 152 89 234 199 234c116 0 169 -64 169 -130c0 -14 -15 -30 -39 -30c-21 0 -39 7 -39 29c0 65 4 98 -79 98c-105 0 -141 -49 -141 -179c0 -103 64 -212 166 -213c78 -1 82 33 109 69c6 9 12 4 15 0z
" />
    <glyph glyph-name="uni0442" unicode="&#x442;" horiz-adv-x="454" 
d="M427 428l7 -72h-12l-16 33c-9 18 -23 33 -46 33h-100v-375c0 -23 22 -28 47 -33v-14h-160v14c25 5 48 10 48 33v375h-100c-23 0 -37 -15 -46 -33l-16 -33h-13l7 72c1 15 9 23 22 23h356c13 0 21 -8 22 -23z" />
    <glyph glyph-name="uni0443" unicode="&#x443;" horiz-adv-x="497" 
d="M477 451v-20l-14 -6c-18 -8 -35 -11 -42 -27l-194 -482c-33 -80 -56 -131 -120 -131c-33 0 -65 21 -69 51c-3 32 7 49 42 49c45 0 6 -47 53 -47c24 0 38 38 48 62l51 128l-172 370c-9 18 -18 22 -33 27l-18 6v20h173v-20l-25 -5c-16 -3 -30 -11 -22 -28l129 -286l111 286
c6 15 -8 25 -23 28l-28 5v20h153z" />
    <glyph glyph-name="uni045E" unicode="&#x45e;" horiz-adv-x="497" 
d="M250 562c-80 0 -127 63 -131 118c0 8 5 11 10 11h7c7 0 10 -3 11 -11c4 -29 36 -65 103 -65c68 0 99 36 103 65c1 8 4 11 11 11h7c5 0 10 -3 10 -11c-4 -55 -51 -118 -131 -118zM477 451v-20l-14 -6c-18 -8 -35 -11 -42 -27l-194 -482c-33 -80 -56 -131 -120 -131
c-33 0 -65 21 -69 51c-3 32 7 49 42 49c45 0 6 -47 53 -47c24 0 38 38 48 62l51 128l-172 370c-9 18 -18 22 -33 27l-18 6v20h173v-20l-25 -5c-16 -3 -30 -11 -22 -28l129 -286l111 286c6 15 -8 25 -23 28l-28 5v20h153z" />
    <glyph glyph-name="uni0444" unicode="&#x444;" horiz-adv-x="647" 
d="M476 457c75 0 145 -95 145 -228c0 -153 -67 -235 -146 -235c-69 0 -101 64 -115 94v-225c0 -23 22 -28 47 -33v-14h-160v14c25 5 48 10 48 33v223c-14 -31 -47 -92 -114 -92c-79 0 -146 82 -146 235c0 133 70 228 145 228c72 0 94 -44 115 -93v195c0 33 -21 44 -59 39v39
l95 19c37 7 29 -30 29 -74v-220c21 50 43 95 116 95zM194 39c52 0 83 43 101 94v185c-27 77 -65 106 -105 106c-52 0 -87 -65 -87 -195c0 -107 34 -190 91 -190zM462 39c56 0 90 83 90 190c0 130 -35 195 -86 195c-40 0 -79 -30 -106 -109v-179c18 -52 49 -97 102 -97z" />
    <glyph glyph-name="uni0445" unicode="&#x445;" horiz-adv-x="530" 
d="M476 26l29 -7v-19h-186v19l29 6c20 2 32 5 16 28l-121 156l3 -9l-97 -142c-13 -19 -5 -31 13 -33l23 -6v-19h-161v19l29 7c16 2 29 5 50 33l125 169l-118 153c-26 34 -41 35 -62 40l-21 5v26c70 -2 115 -2 185 0v-26l-28 -4c-13 -2 -19 -8 -3 -30l89 -119l86 113
c22 27 9 33 -6 36l-23 4v26c58 -2 101 -2 159 0v-26l-24 -5c-21 -4 -44 -9 -78 -53l-93 -123l141 -188c20 -27 32 -29 44 -31z" />
    <glyph glyph-name="uni0447" unicode="&#x447;" horiz-adv-x="537" 
d="M500 451v-24c-35 -8 -47 -10 -47 -33v-347c0 -23 22 -28 47 -33v-14h-160v14c25 5 48 10 48 33v180c-14 -33 -67 -110 -139 -110c-103 0 -176 36 -176 178v78c0 37 -7 52 -53 57l6 21h182v-21c-36 -5 -58 -8 -58 -33v-108c0 -76 37 -121 105 -121c64 0 113 54 133 78v151
c0 23 -23 28 -48 33v21h160z" />
    <glyph glyph-name="uni0446" unicode="&#x446;" horiz-adv-x="587" 
d="M546 34c8 0 10 -4 11 -12l-24 -157h-10c-7 0 -11 4 -11 11c0 78 21 124 -181 124h-296v14c25 5 48 10 48 33v350c0 23 -23 28 -48 33v21h160v-21c-25 -5 -47 -10 -47 -33v-344c0 -23 22 -31 47 -31h141c21 0 40 1 51 9c8 6 13 15 13 29v337c0 23 -23 28 -48 33v21h160
v-21c-25 -5 -47 -10 -47 -33v-325c0 -31 20 -37 81 -38z" />
    <glyph glyph-name="uni0448" unicode="&#x448;" horiz-adv-x="660" 
d="M623 451v-21c-25 3 -47 -2 -47 -25v-364c0 -23 22 -28 47 -25v-16h-586v16c25 -3 48 2 48 25v364c0 23 -23 28 -48 25v21h160v-21c-25 3 -47 -2 -47 -25v-363c0 -23 12 -25 37 -25h73c25 0 38 1 38 24v364c0 23 -23 28 -48 25v21h160v-21c-25 3 -47 -2 -47 -25v-363
c0 -23 12 -25 37 -25h73c25 0 38 2 38 25v363c0 23 -23 28 -48 25v21h160z" />
    <glyph glyph-name="uni0449" unicode="&#x449;" horiz-adv-x="705" 
d="M657 34c8 0 10 -4 11 -12l-24 -157h-11c-7 0 -11 4 -11 11c0 78 21 124 -181 124h-404v16c25 -3 48 2 48 25v364c0 23 -23 28 -48 25v21h160v-21c-25 3 -47 -2 -47 -25v-363c0 -23 12 -25 37 -25h73c25 0 38 1 38 24v364c0 23 -23 28 -48 25v21h160v-21
c-25 3 -47 -2 -47 -25v-363c0 -23 12 -25 37 -25h46c36 0 65 5 65 38v350c0 23 -23 28 -48 25v21h160v-21c-25 3 -47 -2 -47 -25v-333c0 -31 20 -37 81 -38z" />
    <glyph glyph-name="uni044F" unicode="&#x44f;" horiz-adv-x="454" 
d="M424 451v-26c-26 0 -38 -12 -38 -40v-344c0 -22 9 -22 38 -30v-11h-132v11c28 8 33 8 33 30v157h-68c-58 0 -73 -22 -89 -83c-18 -71 -42 -110 -89 -115h-64v23h13c28 0 59 54 67 98c7 39 20 76 89 85c-96 16 -128 62 -128 117c0 72 53 128 157 128h211zM325 228v194
h-128c-46 0 -66 -43 -66 -99c0 -51 14 -95 72 -95h122z" />
    <glyph glyph-name="uni044C" unicode="&#x44c;" horiz-adv-x="480" 
d="M150 341h78c127 0 233 -67 233 -170c0 -104 -106 -171 -232 -171h-192v14c25 5 48 10 48 33v350c0 23 -23 28 -48 33v21h160v-24c-35 -8 -47 -10 -47 -33v-53zM187 17h58c91 0 124 81 124 154c0 71 -33 142 -145 142h-74v-266c0 -23 12 -30 37 -30z" />
    <glyph glyph-name="uni044A" unicode="&#x44a;" horiz-adv-x="583" 
d="M247 341h78c127 0 233 -67 233 -170c0 -104 -106 -171 -232 -171h-192v14c25 5 48 10 48 33v350c0 18 -3 27 -15 29h-15v0l-31 -1c-40 -1 -63 -9 -77 -37l-16 -32h-28l24 72c6 15 17 23 30 23h193v-110zM284 17h58c91 0 124 81 124 154c0 71 -33 142 -145 142h-74v-266
c0 -23 12 -30 37 -30z" />
    <glyph glyph-name="uni044B" unicode="&#x44b;" horiz-adv-x="739" 
d="M150 341h78c127 0 233 -67 233 -170c0 -104 -106 -171 -232 -171h-192v14c25 5 48 10 48 33v350c0 23 -23 28 -48 33v21h160v-24c-35 -8 -47 -10 -47 -33v-53zM702 451v-24c-35 -8 -47 -10 -47 -33v-347c0 -23 22 -28 47 -33v-14h-160v14c25 5 48 10 48 33v350
c0 23 -23 28 -48 33v21h160zM187 17h58c91 0 124 81 124 154c0 71 -33 142 -145 142h-74v-266c0 -23 12 -30 37 -30z" />
    <glyph glyph-name="uni0455" unicode="&#x455;" horiz-adv-x="427" 
d="M397 124c0 -84 -75 -134 -187 -134c-100 0 -166 51 -173 72c-20 61 -9 77 6 81c47 9 45 3 46 -15c9 -69 49 -105 121 -105c81 0 115 36 115 88c0 47 -72 76 -130 94c-64 20 -154 71 -154 137c0 63 48 114 168 114c96 0 158 -52 160 -72c6 -69 -10 -84 -18 -84
c-40 -3 -54 10 -51 31c7 57 -17 91 -91 91s-105 -35 -105 -75c0 -49 77 -74 127 -90c67 -21 166 -50 166 -133z" />
    <glyph glyph-name="uni0454" unicode="&#x454;" horiz-adv-x="468" 
d="M410 129c26 -16 13 -25 6 -38c-37 -61 -88 -99 -178 -99c-115 0 -211 97 -211 244c0 125 88 224 203 224c64 0 109 -27 134 -58c16 26 -2 46 31 46h19l8 -145l-17 -11c-27 -8 -27 12 -37 37c-26 68 -80 99 -144 99c-65 0 -123 -43 -123 -178v-8h157v-28h-155
c11 -120 77 -187 152 -187c48 0 79 20 108 68c10 18 19 50 47 34z" />
    <glyph glyph-name="uni044D" unicode="&#x44d;" horiz-adv-x="468" 
d="M238 460c115 0 203 -99 203 -224c0 -147 -96 -244 -211 -244c-90 0 -141 38 -178 99c-7 13 -20 22 6 38c29 16 37 -16 47 -34c29 -48 60 -68 108 -68c75 0 141 67 152 187h-155v28h157v8c0 135 -58 178 -123 178c-64 0 -118 -31 -144 -99c-10 -25 -10 -45 -37 -37l-17 11
l8 145h19c33 0 15 -20 31 -46c25 31 70 58 134 58z" />
    <glyph glyph-name="uni0456" unicode="&#x456;" horiz-adv-x="239" 
d="M122 587c-21 0 -41 18 -41 42c0 22 20 40 41 40c22 0 42 -18 42 -40c0 -24 -20 -42 -42 -42zM156 427v-381c0 -23 17 -28 43 -28v-18h-152v18c27 0 44 5 44 28v337c0 23 -8 31 -28 31h-20v35l81 9c23 2 32 -9 32 -31z" />
    <glyph glyph-name="uni0457" unicode="&#x457;" horiz-adv-x="231" 
d="M15 577c-24 0 -44 21 -44 44c0 24 20 45 44 45s44 -21 44 -45c0 -23 -20 -44 -44 -44zM191 577c-23 0 -44 21 -44 44c0 24 21 45 44 45c24 0 45 -21 45 -45c0 -23 -21 -44 -45 -44zM148 427v-381c0 -23 17 -28 43 -28v-18h-152v18c27 0 44 5 44 28v337c0 23 -8 31 -28 31
h-20v35l81 9c23 2 32 -9 32 -31z" />
    <glyph glyph-name="uni0458" unicode="&#x458;" horiz-adv-x="197" 
d="M96 587c-21 0 -41 18 -41 42c0 22 20 40 41 40c22 0 42 -18 42 -40c0 -24 -20 -42 -42 -42zM17 449l81 9c23 2 32 -9 32 -31v-501c0 -68 -16 -109 -65 -130c-58 -24 -116 -5 -119 35c0 20 7 35 18 40c11 6 28 7 36 3c3 4 24 -48 41 -41c14 6 24 23 24 50v500
c0 23 -8 31 -28 31h-20v35z" />
    <glyph glyph-name="uni044E" unicode="&#x44e;" horiz-adv-x="697" 
d="M459 458c118 0 208 -95 208 -228c0 -140 -90 -240 -203 -240c-116 0 -205 96 -209 224h-105v-167c0 -23 22 -28 47 -33v-14h-160v14c25 5 48 10 48 33v350c0 23 -23 28 -48 33v21h160v-21c-25 -5 -47 -10 -47 -33v-155h106c8 130 95 216 203 216zM475 29
c73 0 125 48 125 183c0 114 -67 213 -153 213c-71 0 -124 -47 -124 -184c0 -118 65 -212 152 -212z" />
    <glyph glyph-name="Delta" unicode="&#x394;" horiz-adv-x="579" 
d="M559 0h-539l276 634zM84 65h364l-176 444z" />
    <glyph glyph-name="Omega" unicode="&#x3a9;" horiz-adv-x="657" 
d="M601 111h16l-18 -88c-4 -15 -17 -23 -30 -23h-160v106h1c73 8 118 97 118 247c0 156 -86 251 -200 251s-199 -95 -199 -251c0 -150 46 -239 120 -247v-106h-161c-13 0 -27 8 -30 23l-18 88h15l17 -27c16 -27 36 -42 69 -44l73 -3c13 -1 16 12 12 38
c-100 26 -185 145 -185 268c0 151 128 294 287 294c160 0 288 -143 288 -294c0 -115 -86 -241 -185 -268c-5 -27 -4 -39 12 -38l56 3c49 2 69 17 85 44z" />
    <glyph glyph-name="mu" unicode="&#x3bc;" horiz-adv-x="522" 
d="M441 443v-368c0 -38 17 -42 56 -36v-25l-42 -20c-38 -16 -71 25 -80 119v2c-13 -38 -62 -123 -150 -123c-55 0 -98 18 -125 55c3 -145 55 -152 51 -180c-11 -74 -83 -100 -83 -12v537c0 23 -8 32 -28 32h-15v22l87 16c14 0 22 -4 22 -19v-293c0 -85 32 -114 108 -114
c71 0 112 59 133 134v222c0 23 -7 32 -27 32h-15v22l86 15c16 4 22 -3 22 -18z" />
    <glyph glyph-name="pi" unicode="&#x3c0;" horiz-adv-x="715" 
d="M622 89c14 -9 20 -30 15 -48c-14 -43 -67 -67 -131 -39c-49 22 -68 60 -68 128v267h-144v-281c0 -79 -52 -122 -102 -122c-21 0 -41 2 -63 10l-13 24c51 -12 103 19 103 83v286h-60c-27 0 -48 -29 -35 -81h-36c-8 22 -12 37 -12 58c0 45 33 77 76 77h461v-54h-73
c-20 0 -28 -8 -28 -31v-291c0 -27 10 -42 24 -48c17 -7 32 50 38 59c8 10 30 14 48 3z" />
    <glyph glyph-name="zero" unicode="0" horiz-adv-x="547" 
d="M512 313c0 -157 -68 -325 -238 -325s-239 168 -239 325c0 155 69 323 239 323s238 -168 238 -323zM274 15c117 0 153 91 153 298c0 206 -36 298 -153 298c-119 0 -155 -92 -155 -298c0 -207 36 -298 155 -298z" />
    <glyph glyph-name="one" unicode="1" horiz-adv-x="300" 
d="M190 609v-557c0 -23 47 -28 75 -34v-18h-220v18c30 6 75 11 75 34v477c0 23 -9 37 -29 31l-51 -14v24l124 55c23 10 26 -1 26 -16z" />
    <glyph glyph-name="two" unicode="2" horiz-adv-x="572" 
d="M527 115l-23 -92c-5 -15 -17 -23 -30 -23h-429c29 148 138 251 224 309c71 48 143 79 143 165c0 68 -53 129 -135 129c-79 0 -126 -42 -138 -97c-13 -60 9 -78 5 -102c-11 -23 -25 -33 -44 -33c-22 0 -44 22 -44 45c0 120 80 221 225 221c143 0 204 -75 204 -179
c0 -102 -90 -148 -172 -200c-90 -57 -152 -88 -206 -192l309 -2c43 0 61 3 79 29l16 22h16z" />
    <glyph glyph-name="three" unicode="3" horiz-adv-x="562" 
d="M387 371c61 5 130 -76 130 -165c0 -121 -102 -218 -234 -218c-136 0 -223 71 -232 189c-2 31 15 45 38 45c54 0 23 -29 49 -99c26 -69 60 -109 150 -109c75 0 152 69 152 173c0 96 -70 139 -128 139c-12 0 -26 -2 -38 -6l-41 -14l-11 25l43 17c77 30 127 76 127 144
c0 73 -43 114 -115 114s-99 -38 -106 -98c-4 -31 0 -33 -4 -54c-36 -40 -89 -17 -89 30c0 70 73 153 199 153c127 0 191 -80 191 -146c0 -56 -32 -97 -81 -120z" />
    <glyph glyph-name="four" unicode="4" horiz-adv-x="551" 
d="M501 207h-109v-156c0 -23 36 -28 64 -33v-18h-202v18c29 5 60 10 60 33v156h-283v17l337 414c11 14 24 9 24 -3v-393h109v-35zM76 242h238v275z" />
    <glyph glyph-name="five" unicode="5" horiz-adv-x="567" 
d="M517 205c0 -117 -103 -217 -238 -217c-133 0 -224 71 -233 191c-2 30 17 44 40 44c51 0 21 -30 47 -99s59 -109 146 -109c82 0 156 73 156 172c0 106 -76 197 -175 197c-87 0 -117 -35 -149 -49h-27l23 286h331l17 13l14 1l-8 -67l-17 -15h-311l-14 -197
c33 38 104 61 162 61c109 0 236 -61 236 -212z" />
    <glyph glyph-name="six" unicode="6" horiz-adv-x="525" 
d="M420 581l-7 -8c-4 -5 -11 -6 -18 -3c-37 21 -56 34 -98 34c-126 0 -166 -153 -175 -280c16 20 77 61 149 61c118 0 209 -76 209 -189c0 -97 -69 -208 -212 -208c-175 0 -225 150 -224 289c1 150 79 359 248 359c55 0 92 -12 126 -37c7 -5 7 -12 2 -18zM124 287
c-8 -186 56 -268 144 -268c99 0 138 75 138 180c0 92 -48 156 -129 156c-76 0 -152 -51 -153 -68z" />
    <glyph glyph-name="seven" unicode="7" horiz-adv-x="531" 
d="M431 556h-354l-21 -45h-16l20 87c3 14 14 23 28 23h408l-315 -626h-8c-17 0 -32 16 -22 34z" />
    <glyph glyph-name="eight" unicode="8" horiz-adv-x="561" 
d="M375 348c85 -33 136 -78 136 -183c0 -93 -97 -179 -232 -179c-144 0 -229 96 -229 190c0 77 34 139 121 169c-64 24 -85 80 -85 131c0 73 61 152 194 152c122 0 185 -77 185 -154c0 -43 -25 -98 -90 -126zM260 368l52 -12c55 -12 104 62 104 120c0 60 -28 124 -138 124
c-97 0 -116 -68 -116 -124c0 -50 23 -91 98 -108zM427 172c0 71 -39 111 -137 133l-79 18c-45 10 -103 -60 -103 -151c0 -73 56 -161 170 -161c109 0 149 83 149 161z" />
    <glyph glyph-name="nine" unicode="9" horiz-adv-x="526" 
d="M106 46l6 8c4 5 11 6 18 3c38 -21 56 -34 98 -34c126 0 167 153 176 280c-16 -20 -78 -61 -150 -61c-118 0 -209 76 -209 189c0 97 69 208 212 208c176 0 225 -150 224 -289c-1 -150 -78 -359 -248 -359c-54 0 -91 12 -125 37c-7 5 -7 12 -2 18zM402 340
c7 186 -57 268 -145 268c-98 0 -137 -75 -137 -180c0 -92 47 -156 128 -156c76 0 153 51 154 68z" />
    <glyph glyph-name="zero.osf" horiz-adv-x="505" 
d="M254 460c117 0 216 -92 216 -230c0 -143 -99 -238 -216 -238c-118 0 -219 93 -219 230c0 144 101 238 219 238zM398 210c0 126 -76 222 -138 222c-101 0 -152 -44 -152 -190c0 -123 76 -217 139 -217c99 0 151 43 151 185z" />
    <glyph glyph-name="one.osf" horiz-adv-x="342" 
d="M206 441v-387c0 -23 57 -30 101 -36v-18h-270v18c46 6 99 13 99 36v307c0 23 -9 37 -29 31l-51 -14v23l124 56c23 10 26 -1 26 -16z" />
    <glyph glyph-name="two.osf" horiz-adv-x="521" 
d="M476 108l-20 -85c-3 -15 14 -23 -19 -23h-392l121 90c113 85 200 159 200 222c0 69 -39 114 -114 114c-74 0 -99 -48 -105 -95c-4 -31 0 -33 -4 -54c-33 -28 -79 -12 -79 30c0 70 72 153 189 153c112 0 188 -70 188 -164c0 -89 -160 -178 -271 -238l198 4
c43 0 64 4 82 31l11 15h15z" />
    <glyph glyph-name="three.osf" horiz-adv-x="534" 
d="M483 41c0 -128 -93 -241 -242 -241c-88 0 -142 32 -179 99c-9 33 24 62 62 37c20 -61 56 -105 129 -105c86 0 154 76 154 191c0 78 -58 122 -106 122c-12 0 -26 -3 -38 -7l-37 -15l-11 27l40 14c69 26 123 76 123 151c0 76 -47 115 -113 115c-92 0 -116 -98 -128 -152
c-39 -5 -69 16 -69 33c0 73 85 150 186 150c121 0 197 -68 197 -150c0 -65 -40 -112 -88 -124c49 5 121 -58 120 -145z" />
    <glyph glyph-name="four.osf" horiz-adv-x="547" 
d="M497 2h-105v-135c0 -23 36 -28 74 -33v-18h-222v18c39 5 73 10 73 33v135h-286v17l337 418c11 14 24 9 24 -3v-398h105v-34zM82 36h235v282z" />
    <glyph glyph-name="five.osf" horiz-adv-x="562" 
d="M508 43c0 -142 -115 -243 -250 -243c-110 0 -169 41 -198 108c-3 31 31 59 73 26c15 -71 51 -109 129 -109c82 0 163 71 163 186c0 110 -58 195 -150 195s-124 -26 -161 -62h-27l35 307h315l17 13l17 1l-8 -67l-17 -15h-291l-26 -189c45 30 109 47 175 47
c110 0 204 -59 204 -198z" />
    <glyph glyph-name="six.osf" horiz-adv-x="525" 
d="M420 581l-7 -8c-4 -5 -11 -6 -18 -3c-37 21 -56 34 -98 34c-126 0 -166 -153 -175 -280c16 20 77 61 149 61c118 0 209 -76 209 -189c0 -97 -69 -208 -212 -208c-175 0 -225 150 -224 289c1 150 79 359 248 359c55 0 92 -12 126 -37c7 -5 7 -12 2 -18zM124 287
c-8 -186 56 -268 144 -268c99 0 138 75 138 180c0 92 -48 156 -129 156c-76 0 -152 -51 -153 -68z" />
    <glyph glyph-name="seven.osf" horiz-adv-x="519" 
d="M418 386h-326l-21 -45h-16l20 87c3 14 14 23 28 23h376l-271 -633h-5c-17 0 -30 16 -22 34z" />
    <glyph glyph-name="eight.osf" horiz-adv-x="561" 
d="M375 348c85 -33 136 -78 136 -183c0 -93 -97 -179 -232 -179c-144 0 -229 96 -229 190c0 77 34 139 121 169c-64 24 -85 80 -85 131c0 73 61 152 194 152c122 0 185 -77 185 -154c0 -43 -25 -98 -90 -126zM260 368l52 -12c55 -12 104 62 104 120c0 60 -28 124 -138 124
c-97 0 -116 -68 -116 -124c0 -50 23 -91 98 -108zM427 172c0 71 -39 111 -137 133l-79 18c-45 10 -103 -60 -103 -151c0 -73 56 -161 170 -161c109 0 149 83 149 161z" />
    <glyph glyph-name="nine.osf" horiz-adv-x="525" 
d="M160 -173c154 23 234 154 248 320c-21 -36 -83 -77 -154 -77c-118 0 -210 76 -210 189c0 90 70 201 212 201c176 0 225 -144 224 -278c-1 -148 -102 -376 -315 -382c-17 0 -14 26 -5 27zM406 179c3 165 -61 247 -150 247c-98 0 -137 -71 -137 -170
c0 -88 48 -156 128 -156c77 0 160 62 159 79z" />
    <glyph glyph-name="zero.tf" horiz-adv-x="600" 
d="M543 313c0 -157 -68 -325 -238 -325s-239 168 -239 325c0 155 69 323 239 323s238 -168 238 -323zM305 15c117 0 153 91 153 298c0 206 -36 298 -153 298c-118 0 -154 -92 -154 -298c0 -207 36 -298 154 -298z" />
    <glyph glyph-name="one.tf" horiz-adv-x="600" 
d="M336 609v-544c0 -23 47 -32 118 -37v-28h-307v28c74 5 119 14 119 37v463c0 23 -9 37 -29 31l-51 -14v25l124 55c23 10 26 -1 26 -16z" />
    <glyph glyph-name="two.tf" horiz-adv-x="600" 
d="M541 115l-23 -92c-5 -15 -17 -23 -30 -23h-429c29 148 138 251 225 309c71 48 142 79 142 165c0 68 -53 129 -135 129c-79 0 -125 -42 -137 -97c-13 -60 9 -78 5 -102c-12 -23 -26 -33 -44 -33c-23 0 -45 22 -45 45c0 120 80 221 225 221c143 0 205 -75 205 -179
c0 -102 -91 -148 -173 -200c-90 -57 -151 -88 -206 -192l309 -2c43 0 61 3 79 29l16 22h16z" />
    <glyph glyph-name="three.tf" horiz-adv-x="600" 
d="M395 371c60 5 129 -76 129 -165c0 -121 -101 -218 -234 -218c-135 0 -223 71 -231 189c-3 31 14 45 37 45c55 0 24 -29 49 -99c27 -69 60 -109 151 -109c75 0 151 69 151 173c0 96 -70 139 -127 139c-12 0 -26 -2 -38 -6l-42 -14l-10 25l43 17c77 30 127 76 127 144
c0 73 -43 114 -116 114c-71 0 -99 -38 -106 -98c-4 -31 0 -33 -4 -54c-35 -40 -88 -17 -88 30c0 70 73 153 198 153c128 0 191 -80 191 -146c0 -56 -32 -97 -80 -120z" />
    <glyph glyph-name="four.tf" horiz-adv-x="600" 
d="M530 207h-109v-156c0 -23 36 -28 64 -33v-18h-202v18c29 5 61 10 61 33v156h-284v17l337 414c11 14 24 9 24 -3v-393h109v-35zM105 242h239v275z" />
    <glyph glyph-name="five.tf" horiz-adv-x="600" 
d="M512 206c0 -117 -103 -217 -239 -217c-132 0 -224 71 -232 190c-3 31 16 45 39 45c51 0 22 -30 47 -99c27 -70 59 -110 146 -110c82 0 157 74 157 173c0 106 -76 196 -176 196c-87 0 -116 -34 -148 -48h-27l22 286h331l17 13l14 1l-8 -68l-17 -15h-310l-14 -197
c33 39 103 61 162 61c108 0 236 -60 236 -211z" />
    <glyph glyph-name="six.tf" horiz-adv-x="600" 
d="M458 581l-6 -8c-4 -5 -11 -6 -18 -3c-38 21 -56 34 -98 34c-126 0 -167 -153 -176 -280c16 20 78 61 150 61c118 0 209 -76 209 -189c0 -97 -69 -208 -212 -208c-176 0 -225 150 -224 289c1 150 78 359 248 359c54 0 91 -12 125 -37c7 -5 7 -12 2 -18zM162 287
c-7 -186 57 -268 145 -268c98 0 137 75 137 180c0 92 -47 156 -128 156c-76 0 -153 -51 -154 -68z" />
    <glyph glyph-name="seven.tf" horiz-adv-x="600" 
d="M446 556h-354l-21 -45h-16l20 87c3 14 14 23 28 23h409l-315 -626h-9c-17 0 -32 16 -22 34z" />
    <glyph glyph-name="eight.tf" horiz-adv-x="600" 
d="M392 348c85 -33 137 -78 137 -183c0 -93 -97 -179 -233 -179c-144 0 -229 96 -229 190c0 77 35 139 122 169c-65 24 -86 80 -86 131c0 73 61 152 194 152c122 0 185 -77 185 -154c0 -43 -25 -98 -90 -126zM277 368l53 -12c54 -12 104 62 104 120c0 60 -29 124 -139 124
c-96 0 -115 -68 -115 -124c0 -50 23 -91 97 -108zM444 172c0 71 -39 111 -137 133l-79 18c-44 10 -103 -60 -103 -151c0 -73 57 -161 170 -161c109 0 149 83 149 161z" />
    <glyph glyph-name="nine.tf" horiz-adv-x="600" 
d="M144 43l6 8c4 5 11 6 18 3c37 -21 56 -34 98 -34c126 0 166 153 175 280c-16 -20 -77 -61 -149 -61c-118 0 -209 76 -209 189c0 97 69 208 212 208c176 0 225 -150 224 -289c-1 -150 -79 -359 -248 -359c-55 0 -91 12 -125 37c-7 5 -7 12 -2 18zM439 337
c8 186 -56 268 -144 268c-99 0 -137 -75 -137 -180c0 -92 47 -156 128 -156c76 0 152 51 153 68z" />
    <glyph glyph-name="fraction" unicode="&#x2044;" horiz-adv-x="148" 
d="M277 636h46l-433 -641h-45z" />
    <glyph glyph-name="onehalf" unicode="&#xbd;" horiz-adv-x="627" 
d="M118 625v-198c0 -15 15 -17 29 -18v-17h-105v17c14 1 29 3 29 18v175l-31 -10v23l56 25c19 8 21 -4 22 -15zM459 636h46l-432 -641h-46zM582 53l-10 -45c-2 -9 -10 -14 -21 -14h-177c14 69 56 97 92 119c25 15 46 27 46 58c0 27 -14 50 -39 50c-24 0 -36 -7 -41 -30
c-4 -21 5 -26 2 -38c-14 -32 -54 -9 -54 7c-2 48 32 88 95 88c62 0 93 -32 93 -76c0 -45 -43 -62 -75 -81c-30 -17 -71 -39 -77 -59h112c11 0 17 2 21 8l9 13h24z" />
    <glyph glyph-name="onequarter" unicode="&#xbc;" horiz-adv-x="628" 
d="M71 427v175l-31 -10v23l56 25c19 8 21 -4 22 -15v-198c0 -15 15 -17 29 -18v-17h-105v17c14 1 29 3 29 18zM459 636h46l-432 -641h-46zM578 73h-40v-38c0 -11 8 -18 25 -18v-23h-98v23c17 0 24 7 24 18v38h-105v22l120 150c12 15 34 6 34 -9v-139h40v-24zM425 97h64v75z
" />
    <glyph glyph-name="threequarters" unicode="&#xbe;" horiz-adv-x="730" 
d="M261 472c0 -50 -48 -89 -100 -89c-61 0 -101 39 -101 79c0 14 7 23 24 23c34 0 26 -25 32 -43c9 -26 19 -34 48 -34c21 0 43 18 43 57c0 52 -38 53 -72 37l-9 22l24 11c25 9 43 22 43 44c0 28 -10 37 -32 37c-43 0 -51 -41 -44 -65l-32 6c-8 3 -12 9 -12 14
c-1 40 32 71 85 71c54 0 84 -35 84 -61c0 -20 -10 -34 -21 -43c19 -9 40 -32 40 -66zM565 636h46l-432 -641h-46zM697 73h-40v-38c0 -11 8 -18 25 -18v-23h-98v23c17 0 24 7 24 18v38h-105v22l120 150c12 15 34 6 34 -9v-139h40v-24zM544 97h64v75z" />
    <glyph glyph-name="oneeighth" unicode="&#x215b;" horiz-adv-x="629" 
d="M118 625v-198c0 -15 15 -17 29 -18v-17h-105v17c14 1 29 3 29 18v175l-31 -10v23l56 25c19 8 21 -4 22 -15zM459 636h46l-432 -641h-46zM532 133c29 -14 45 -38 45 -69c0 -35 -47 -75 -100 -75s-96 39 -96 80c0 22 12 42 41 62c-20 15 -27 30 -27 50c0 30 28 63 82 63
c50 0 83 -30 83 -62c0 -17 -8 -34 -28 -49zM471 145l22 -6c12 -3 27 22 27 42c0 21 -6 39 -42 39c-24 0 -34 -19 -34 -38c0 -18 7 -31 27 -37zM523 65c0 27 -9 37 -43 46l-24 6c-10 2 -33 -18 -33 -49c0 -30 15 -54 54 -54c34 0 46 18 46 51z" />
    <glyph glyph-name="threeeighths" unicode="&#x215c;" horiz-adv-x="740" 
d="M221 538c19 -9 40 -32 40 -66c0 -50 -48 -89 -100 -89c-61 0 -101 39 -101 79c0 14 7 23 24 23c34 0 26 -25 32 -43c9 -26 19 -34 48 -34c21 0 43 18 43 57c0 52 -38 53 -72 37l-9 22l24 11c25 9 43 22 43 44c0 28 -10 37 -32 37c-43 0 -51 -41 -44 -65l-32 6
c-8 3 -12 9 -12 14c-1 40 32 71 85 71c54 0 84 -35 84 -61c0 -20 -10 -34 -21 -43zM574 636h45l-432 -641h-45zM660 133c29 -14 44 -38 44 -69c0 -35 -47 -75 -99 -75c-53 0 -96 39 -96 80c0 22 12 42 41 62c-20 15 -27 30 -27 50c0 30 27 63 82 63c50 0 82 -30 82 -62
c0 -17 -7 -34 -27 -49zM599 145l22 -6c12 -3 26 22 26 42c0 21 -5 39 -41 39c-24 0 -35 -19 -35 -38c0 -18 8 -31 28 -37zM651 65c0 27 -9 37 -43 46l-25 6c-9 2 -32 -18 -32 -49c0 -30 15 -54 54 -54c34 0 46 18 46 51z" />
    <glyph glyph-name="fiveeighths" unicode="&#x215d;" horiz-adv-x="737" 
d="M259 481c0 -57 -45 -92 -101 -92c-58 0 -95 29 -98 78c-1 14 9 23 23 23c29 0 24 -24 29 -42c6 -24 22 -35 46 -35c29 0 48 22 48 54c0 46 -21 71 -57 71c-24 0 -36 -11 -49 -21h-26l10 125h131l7 5h20l-3 -36l-12 -10h-118l-3 -46c15 5 34 10 55 10c46 0 98 -29 98 -84z
M558 636h46l-432 -641h-46zM644 133c29 -14 45 -38 45 -69c0 -35 -47 -75 -100 -75s-96 39 -96 80c0 22 12 42 41 62c-20 15 -27 30 -27 50c0 30 28 63 82 63c50 0 83 -30 83 -62c0 -17 -8 -34 -28 -49zM583 145l22 -6c12 -3 27 22 27 42c0 21 -6 39 -42 39
c-24 0 -34 -19 -34 -38c0 -18 7 -31 27 -37zM635 65c0 27 -9 37 -43 46l-24 6c-10 2 -33 -18 -33 -49c0 -30 15 -54 54 -54c34 0 46 18 46 51z" />
    <glyph glyph-name="seveneighths" unicode="&#x215e;" horiz-adv-x="724" 
d="M200 599h-117l-6 -17h-22l10 44c2 9 9 14 21 14h167l-125 -250h-13c-16 0 -19 11 -14 21zM533 636h46l-432 -641h-46zM619 133c29 -14 45 -38 45 -69c0 -35 -47 -75 -100 -75s-96 39 -96 80c0 22 12 42 41 62c-20 15 -27 30 -27 50c0 30 28 63 82 63c50 0 83 -30 83 -62
c0 -17 -8 -34 -28 -49zM558 145l22 -6c12 -3 27 22 27 42c0 21 -6 39 -42 39c-24 0 -34 -19 -34 -38c0 -18 7 -31 27 -37zM610 65c0 27 -9 37 -43 46l-24 6c-10 2 -33 -18 -33 -49c0 -30 15 -54 54 -54c34 0 46 18 46 51z" />
    <glyph glyph-name="zero.dnom" horiz-adv-x="257" 
d="M222 116c0 -65 -26 -127 -93 -127c-68 0 -94 62 -94 127c0 64 26 128 94 128c67 0 93 -64 93 -128zM129 21c36 0 47 40 47 95c0 54 -11 96 -47 96c-37 0 -48 -42 -48 -96c0 -55 11 -95 48 -95z" />
    <glyph glyph-name="one.dnom" horiz-adv-x="182" 
d="M118 227v-198c0 -15 15 -17 29 -18v-17h-105v17c14 1 29 3 29 18v175l-31 -10v23l56 25c19 8 21 -4 22 -15z" />
    <glyph glyph-name="two.dnom" horiz-adv-x="298" 
d="M253 53l-10 -45c-2 -9 -10 -14 -21 -14h-177c14 69 56 97 92 119c25 15 46 27 46 58c0 27 -14 50 -39 50c-24 0 -36 -7 -41 -30c-4 -21 5 -26 2 -38c-14 -32 -54 -9 -54 7c-2 48 32 88 95 88c62 0 93 -32 93 -76c0 -45 -43 -62 -75 -81c-30 -17 -71 -39 -77 -59h112
c11 0 17 2 21 8l9 13h24z" />
    <glyph glyph-name="three.dnom" horiz-adv-x="311" 
d="M221 144c19 -9 40 -32 40 -66c0 -50 -48 -89 -100 -89c-61 0 -101 39 -101 79c0 14 7 23 24 23c34 0 26 -25 32 -43c9 -26 19 -34 48 -34c21 0 43 18 43 57c0 52 -38 53 -72 37l-9 22l24 11c25 9 43 22 43 44c0 28 -10 37 -32 37c-43 0 -51 -41 -44 -65l-32 6
c-8 3 -12 9 -12 14c-1 40 32 71 85 71c54 0 84 -35 84 -61c0 -20 -10 -34 -21 -43z" />
    <glyph glyph-name="four.dnom" horiz-adv-x="299" 
d="M249 73h-40v-38c0 -11 8 -18 25 -18v-23h-98v23c17 0 24 7 24 18v38h-105v22l120 150c12 15 34 6 34 -9v-139h40v-24zM96 97h64v75z" />
    <glyph glyph-name="five.dnom" horiz-adv-x="314" 
d="M259 81c0 -57 -45 -92 -101 -92c-58 0 -95 29 -98 78c-1 14 9 23 23 23c29 0 24 -24 29 -42c6 -24 22 -35 46 -35c29 0 48 22 48 54c0 46 -21 71 -57 71c-24 0 -36 -11 -49 -21h-26l10 125h131l7 5h20l-3 -36l-12 -10h-118l-3 -46c15 5 34 10 55 10c46 0 98 -29 98 -84z
" />
    <glyph glyph-name="six.dnom" horiz-adv-x="277" 
d="M203 215c-8 -15 -29 7 -52 7c-33 0 -50 -38 -54 -81c11 6 28 13 47 13c51 0 87 -30 87 -80c0 -40 -34 -85 -91 -85c-71 0 -95 62 -95 117c0 60 34 142 104 142c22 0 39 -5 52 -14c8 -6 8 -8 2 -19zM140 16c32 0 42 26 42 60c0 33 -14 53 -39 53s-48 -18 -48 -24
c-2 -58 16 -89 45 -89z" />
    <glyph glyph-name="seven.dnom" horiz-adv-x="293" 
d="M200 201h-117l-6 -17h-22l10 44c2 9 9 14 21 14h167l-125 -250h-13c-16 0 -19 11 -14 21z" />
    <glyph glyph-name="eight.dnom" horiz-adv-x="300" 
d="M203 133c29 -14 45 -38 45 -69c0 -35 -47 -75 -100 -75s-96 39 -96 80c0 22 12 42 41 62c-20 15 -27 30 -27 50c0 30 28 63 82 63c50 0 83 -30 83 -62c0 -17 -8 -34 -28 -49zM142 145l22 -6c12 -3 27 22 27 42c0 21 -6 39 -42 39c-24 0 -34 -19 -34 -38
c0 -18 7 -31 27 -37zM194 65c0 27 -9 37 -43 46l-24 6c-10 2 -33 -18 -33 -49c0 -30 15 -54 54 -54c34 0 46 18 46 51z" />
    <glyph glyph-name="nine.dnom" horiz-adv-x="276" 
d="M73 22c8 15 28 -7 51 -7c33 0 50 38 54 82c-11 -6 -27 -14 -47 -14c-50 0 -87 30 -87 80c0 40 34 85 91 85c71 0 96 -62 96 -117c0 -60 -34 -142 -105 -142c-22 0 -39 5 -52 14c-8 6 -7 8 -1 19zM135 221c-31 0 -42 -26 -42 -60c0 -33 15 -53 39 -53c25 0 48 18 48 24
c2 58 -16 89 -45 89z" />
    <glyph glyph-name="zero.numr" horiz-adv-x="257" 
d="M222 515c0 -65 -26 -127 -93 -127c-68 0 -94 62 -94 127c0 64 26 128 94 128c67 0 93 -64 93 -128zM129 420c36 0 47 40 47 95c0 54 -11 96 -47 96c-37 0 -48 -42 -48 -96c0 -55 11 -95 48 -95z" />
    <glyph glyph-name="one.numr" horiz-adv-x="182" 
d="M118 625v-198c0 -15 15 -17 29 -18v-17h-105v17c14 1 29 3 29 18v175l-31 -10v23l56 25c19 8 21 -4 22 -15z" />
    <glyph glyph-name="two.numr" horiz-adv-x="298" 
d="M253 446l-10 -45c-2 -9 -10 -14 -21 -14h-177c14 69 56 97 92 119c25 15 46 27 46 58c0 27 -14 50 -39 50c-24 0 -36 -7 -41 -30c-4 -21 5 -26 2 -38c-14 -32 -54 -9 -54 7c-2 48 32 88 95 88c62 0 93 -32 93 -76c0 -45 -43 -62 -75 -81c-30 -17 -71 -39 -77 -59h112
c11 0 17 2 21 8l9 13h24z" />
    <glyph glyph-name="three.numr" horiz-adv-x="311" 
d="M221 538c19 -9 40 -32 40 -66c0 -50 -48 -89 -100 -89c-61 0 -101 39 -101 79c0 14 7 23 24 23c34 0 26 -25 32 -43c9 -26 19 -34 48 -34c21 0 43 18 43 57c0 52 -38 53 -72 37l-9 22l24 11c25 9 43 22 43 44c0 28 -10 37 -32 37c-43 0 -51 -41 -44 -65l-32 6
c-8 3 -12 9 -12 14c-1 40 32 71 85 71c54 0 84 -35 84 -61c0 -20 -10 -34 -21 -43z" />
    <glyph glyph-name="four.numr" horiz-adv-x="299" 
d="M249 464h-40v-38c0 -11 8 -18 25 -18v-23h-98v23c17 0 24 7 24 18v38h-105v22l120 150c12 15 34 6 34 -9v-139h40v-24zM96 488h64v75z" />
    <glyph glyph-name="five.numr" horiz-adv-x="314" 
d="M259 481c0 -57 -45 -92 -101 -92c-58 0 -95 29 -98 78c-1 14 9 23 23 23c29 0 24 -24 29 -42c6 -24 22 -35 46 -35c29 0 48 22 48 54c0 46 -21 71 -57 71c-24 0 -36 -11 -49 -21h-26l10 125h131l7 5h20l-3 -36l-12 -10h-118l-3 -46c15 5 34 10 55 10c46 0 98 -29 98 -84z
" />
    <glyph glyph-name="six.numr" horiz-adv-x="277" 
d="M203 608c-8 -15 -29 7 -52 7c-33 0 -50 -38 -54 -81c11 6 28 13 47 13c51 0 87 -30 87 -80c0 -40 -34 -85 -91 -85c-71 0 -95 62 -95 117c0 60 34 142 104 142c22 0 39 -5 52 -14c8 -6 8 -8 2 -19zM140 409c32 0 42 26 42 60c0 33 -14 53 -39 53s-48 -18 -48 -24
c-2 -58 16 -89 45 -89z" />
    <glyph glyph-name="seven.numr" horiz-adv-x="293" 
d="M200 599h-117l-6 -17h-22l10 44c2 9 9 14 21 14h167l-125 -250h-13c-16 0 -19 11 -14 21z" />
    <glyph glyph-name="eight.numr" horiz-adv-x="300" 
d="M203 531c29 -14 45 -38 45 -69c0 -35 -47 -75 -100 -75s-96 39 -96 80c0 22 12 42 41 62c-20 15 -27 30 -27 50c0 30 28 63 82 63c50 0 83 -30 83 -62c0 -17 -8 -34 -28 -49zM142 543l22 -6c12 -3 27 22 27 42c0 21 -6 39 -42 39c-24 0 -34 -19 -34 -38
c0 -18 7 -31 27 -37zM194 463c0 27 -9 37 -43 46l-24 6c-10 2 -33 -18 -33 -49c0 -30 15 -54 54 -54c34 0 46 18 46 51z" />
    <glyph glyph-name="nine.numr" horiz-adv-x="276" 
d="M73 416c8 15 28 -7 51 -7c33 0 50 38 54 82c-11 -6 -27 -14 -47 -14c-50 0 -87 30 -87 80c0 40 34 85 91 85c71 0 96 -62 96 -117c0 -60 -34 -142 -105 -142c-22 0 -39 5 -52 14c-8 6 -7 8 -1 19zM135 615c-31 0 -42 -26 -42 -60c0 -33 15 -53 39 -53c25 0 48 18 48 24
c2 58 -16 89 -45 89z" />
    <glyph glyph-name="onesuperior" unicode="&#xb9;" horiz-adv-x="182" 
d="M118 625v-198c0 -15 15 -17 29 -18v-17h-105v17c14 1 29 3 29 18v175l-31 -10v23l56 25c19 8 21 -4 22 -15z" />
    <glyph glyph-name="twosuperior" unicode="&#xb2;" horiz-adv-x="298" 
d="M253 446l-10 -45c-2 -9 -10 -14 -21 -14h-177c14 69 56 97 92 119c25 15 46 27 46 58c0 27 -14 50 -39 50c-24 0 -36 -7 -41 -30c-4 -21 5 -26 2 -38c-14 -32 -54 -9 -54 7c-2 48 32 88 95 88c62 0 93 -32 93 -76c0 -45 -43 -62 -75 -81c-30 -17 -71 -39 -77 -59h112
c11 0 17 2 21 8l9 13h24z" />
    <glyph glyph-name="threesuperior" unicode="&#xb3;" horiz-adv-x="311" 
d="M221 538c19 -9 40 -32 40 -66c0 -50 -48 -89 -100 -89c-61 0 -101 39 -101 79c0 14 7 23 24 23c34 0 26 -25 32 -43c9 -26 19 -34 48 -34c21 0 43 18 43 57c0 52 -38 53 -72 37l-9 22l24 11c25 9 43 22 43 44c0 28 -10 37 -32 37c-43 0 -51 -41 -44 -65l-32 6
c-8 3 -12 9 -12 14c-1 40 32 71 85 71c54 0 84 -35 84 -61c0 -20 -10 -34 -21 -43z" />
    <glyph glyph-name="asterisk" unicode="*" horiz-adv-x="317" 
d="M118 598l30 -78c5 -13 14 -13 19 0l31 78c-3 23 -17 36 -40 39c-23 -3 -37 -16 -40 -39zM133 508l-55 67c-21 9 -40 4 -54 -14c-9 -21 -6 -40 13 -54l80 -18c14 -3 25 9 16 19zM239 575l-55 -67c-9 -10 2 -22 16 -19l80 18c18 14 22 33 13 54c-15 18 -33 23 -54 14z
M118 473l-81 -17c-19 -15 -22 -33 -13 -55c14 -18 33 -23 54 -14l54 67c9 10 -1 22 -14 19zM280 456l-81 17c-13 3 -23 -9 -14 -19l54 -67c21 -9 39 -4 54 14c9 22 5 40 -13 55zM148 444l-30 -78c3 -23 17 -36 40 -39c23 3 37 16 40 39l-30 78c-5 13 -15 13 -20 0z" />
    <glyph glyph-name="backslash" unicode="\" horiz-adv-x="401" 
d="M89 641l267 -641h-44l-267 641h44z" />
    <glyph glyph-name="periodcentered" unicode="&#xb7;" horiz-adv-x="200" 
d="M100 242c-27 0 -50 23 -50 51s23 51 50 51s50 -23 50 -51s-23 -51 -50 -51z" />
    <glyph glyph-name="bullet" unicode="&#x2022;" horiz-adv-x="262" 
d="M131 223c-38 0 -71 32 -71 71c0 38 33 71 71 71c39 0 71 -33 71 -71c0 -39 -32 -71 -71 -71z" />
    <glyph glyph-name="colon" unicode=":" horiz-adv-x="212" 
d="M107 326c-27 0 -50 23 -50 51s23 51 50 51s50 -23 50 -51s-23 -51 -50 -51zM107 -10c-27 0 -50 23 -50 51c0 27 23 50 50 50s50 -23 50 -50c0 -28 -23 -51 -50 -51z" />
    <glyph glyph-name="comma" unicode="," horiz-adv-x="188" 
d="M147 -27c-8 -27 -25 -48 -45 -66c-5 -3 -9 -2 -15 2l-11 11c15 15 25 30 31 44c5 14 6 25 3 31c-6 -2 -13 -3 -25 -2c-23 4 -41 26 -38 53c4 28 29 48 56 44c26 -4 41 -27 46 -48c5 -25 6 -42 -2 -69z" />
    <glyph glyph-name="ellipsis" unicode="&#x2026;" horiz-adv-x="535" 
d="M105 -10c-27 0 -50 23 -50 51c0 27 23 50 50 50s50 -23 50 -50c0 -28 -23 -51 -50 -51zM268 -10c-28 0 -50 23 -50 51c0 27 22 50 50 50c27 0 50 -23 50 -50c0 -28 -23 -51 -50 -51zM430 -10c-27 0 -50 23 -50 51c0 27 23 50 50 50s50 -23 50 -50c0 -28 -23 -51 -50 -51z
" />
    <glyph glyph-name="exclam" unicode="!" horiz-adv-x="221" 
d="M123 217h-20c-3 152 -43 261 -43 372c0 49 15 64 53 64s53 -15 53 -64c0 -111 -40 -220 -43 -372zM118 -10c-27 0 -50 23 -50 51c0 27 23 50 50 50s50 -23 50 -50c0 -28 -23 -51 -50 -51z" />
    <glyph glyph-name="exclamdown" unicode="&#xa1;" horiz-adv-x="221" 
d="M118 563c27 0 50 -23 50 -51c0 -27 -23 -50 -50 -50s-50 23 -50 50c0 28 23 51 50 51zM103 336h20c3 -152 43 -261 43 -372c0 -49 -15 -64 -53 -64s-53 15 -53 64c0 111 40 220 43 372z" />
    <glyph glyph-name="numbersign" unicode="#" horiz-adv-x="585" 
d="M555 451v-6c1 -10 -6 -15 -16 -15h-113l-51 -204h125c10 0 15 -5 14 -15v-6c-1 -10 -6 -15 -16 -15h-132l-55 -220h-44l57 220h-138l-55 -220h-44l57 220h-95c-10 0 -15 5 -14 15v6c1 10 6 15 16 15h102l53 204h-116c-10 0 -13 5 -14 15v6c1 10 6 15 16 15h124l53 206h39
l-52 -206h139l53 206h39l-52 -206h106c10 0 15 -5 14 -15zM333 226l53 204h-139l-51 -204h137z" />
    <glyph glyph-name="period" unicode="." horiz-adv-x="210" 
d="M105 -10c-27 0 -50 23 -50 51c0 27 23 50 50 50s50 -23 50 -50c0 -28 -23 -51 -50 -51z" />
    <glyph glyph-name="question" unicode="?" horiz-adv-x="463" 
d="M45 500c0 -76 57 -94 89 -62c34 32 -29 88 -5 136c19 36 53 59 111 59c67 0 103 -42 103 -94c4 -42 -7 -71 -94 -141c-40 -31 -45 -69 -41 -98l10 -93h21l9 93c3 29 59 47 119 102c114 102 21 256 -128 256c-120 0 -194 -67 -194 -158zM235 -10c-27 0 -50 23 -50 51
c0 27 23 50 50 50c28 0 51 -23 51 -50c0 -28 -23 -51 -51 -51z" />
    <glyph glyph-name="questiondown" unicode="&#xbf;" horiz-adv-x="463" 
d="M228 563c27 0 50 -23 50 -51c0 -27 -23 -50 -50 -50s-50 23 -50 50c0 28 23 51 50 51zM418 53c0 76 -57 94 -89 62c-34 -32 30 -88 5 -136c-19 -36 -52 -59 -110 -59c-67 0 -104 42 -104 94c-3 42 7 71 95 141c39 31 44 69 40 98l-10 93h-21l-8 -93
c-4 -29 -59 -47 -120 -102c-114 -102 -20 -256 129 -256c120 0 193 67 193 158z" />
    <glyph glyph-name="quotedbl" unicode="&#x22;" horiz-adv-x="265" 
d="M40 622l24 -171c1 -9 4 -17 8 -17c3 0 7 8 8 17l24 171c2 21 -11 38 -32 38c-22 0 -34 -17 -32 -38zM162 622l23 -171c2 -9 4 -17 8 -17s7 8 9 17l23 171c2 21 -10 38 -32 38s-33 -17 -31 -38z" />
    <glyph glyph-name="quotesingle" unicode="'" horiz-adv-x="145" 
d="M40 622l24 -171c1 -9 4 -17 8 -17c3 0 7 8 8 17l24 171c2 21 -11 38 -32 38c-22 0 -34 -17 -32 -38z" />
    <glyph glyph-name="semicolon" unicode=";" horiz-adv-x="188" 
d="M100 325c-27 0 -50 23 -50 51s23 51 50 51s50 -23 50 -51s-23 -51 -50 -51zM147 -27c-8 -27 -25 -48 -45 -66c-5 -3 -9 -2 -15 2l-11 11c15 15 25 30 31 44c5 14 6 25 3 31c-6 -2 -13 -3 -25 -2c-23 4 -41 26 -38 53c4 28 29 48 56 44c26 -4 41 -27 46 -48
c5 -25 6 -42 -2 -69z" />
    <glyph glyph-name="slash" unicode="/" horiz-adv-x="405" 
d="M314 641h44l-267 -641h-44z" />
    <glyph glyph-name="underscore" unicode="_" horiz-adv-x="597" 
d="M30 -20h512v-30h-512v30z" />
    <glyph glyph-name="braceleft" unicode="{" horiz-adv-x="257" 
d="M169 242v-199c0 -97 17 -158 63 -182l-6 -27c-101 41 -117 119 -117 209v183c0 31 -15 39 -64 61v17c49 22 64 30 64 61v183c0 90 16 168 117 209l6 -27c-46 -24 -63 -85 -63 -182v-199c0 -25 -30 -38 -67 -52v-3c37 -14 67 -27 67 -52z" />
    <glyph glyph-name="braceright" unicode="}" horiz-adv-x="257" 
d="M87 43v199c0 25 30 38 68 52v3c-38 14 -68 27 -68 52v199c0 97 -16 158 -62 182l6 27c101 -41 117 -119 117 -209v-183c0 -31 15 -39 64 -61v-17c-49 -22 -64 -30 -64 -61v-183c0 -90 -16 -168 -117 -209l-6 27c46 24 62 85 62 182z" />
    <glyph glyph-name="bracketleft" unicode="[" horiz-adv-x="248" 
d="M105 723v-853l97 -19c12 -2 21 -7 21 -16v-1l-178 7v911l178 7v-1c0 -9 -9 -14 -21 -16z" />
    <glyph glyph-name="bracketright" unicode="]" horiz-adv-x="248" 
d="M143 723l-97 19c-12 2 -21 7 -21 16v1l178 -7v-911l-178 -7v1c0 9 9 14 21 16l97 19v853z" />
    <glyph glyph-name="parenleft" unicode="(" horiz-adv-x="299" 
d="M118 296c-2 -183 49 -347 148 -444c11 -9 7 -18 -5 -18h-3c-8 0 -13 2 -19 7c-107 102 -194 268 -194 455s87 353 194 455c6 5 11 7 19 7h1c13 0 19 -6 12 -13c-102 -97 -155 -263 -153 -449z" />
    <glyph glyph-name="parenright" unicode=")" horiz-adv-x="299" 
d="M181 296c2 186 -51 352 -153 449c-7 7 -1 13 12 13h2c8 0 13 -2 19 -7c106 -102 193 -268 193 -455s-87 -353 -193 -455c-6 -5 -11 -7 -19 -7h-4c-12 0 -16 9 -5 18c99 97 150 261 148 444z" />
    <glyph glyph-name="emdash" unicode="&#x2014;" horiz-adv-x="889" 
d="M25 271h819v-41h-819v41z" />
    <glyph glyph-name="endash" unicode="&#x2013;" horiz-adv-x="667" 
d="M30 271h582v-41h-582v41z" />
    <glyph glyph-name="uni2015" unicode="&#x2015;" horiz-adv-x="889" 
d="M25 271h819v-41h-819v41z" />
    <glyph glyph-name="hyphen" unicode="-" horiz-adv-x="380" 
d="M45 271h270v-41h-270v41z" />
    <glyph glyph-name="softhyphen" unicode="&#xad;" horiz-adv-x="380" 
d="M45 271h270v-41h-270v41z" />
    <glyph glyph-name="guillemotleft" unicode="&#xab;" horiz-adv-x="361" 
d="M30 229l144 142v-35l-79 -107l79 -107v-34zM167 229l144 142v-35l-79 -107l79 -107v-34z" />
    <glyph glyph-name="guillemotright" unicode="&#xbb;" horiz-adv-x="361" 
d="M193 229l-143 -141v34l78 107l-78 107v35zM330 229l-143 -141v34l78 107l-78 107v35z" />
    <glyph glyph-name="guilsinglleft" unicode="&#x2039;" horiz-adv-x="223" 
d="M31 229l143 142v-35l-78 -107l78 -107v-34z" />
    <glyph glyph-name="guilsinglright" unicode="&#x203a;" horiz-adv-x="223" 
d="M193 229l-144 -141v34l79 107l-79 107v35z" />
    <glyph glyph-name="quotedblbase" unicode="&#x201e;" horiz-adv-x="350" 
d="M147 -27c-8 -27 -25 -48 -45 -66c-5 -3 -9 -2 -15 2l-11 11c15 15 25 30 31 44c5 14 6 25 3 31c-6 -2 -13 -3 -25 -2c-23 4 -41 26 -38 53c4 28 29 48 56 44c26 -4 41 -27 46 -48c5 -25 6 -42 -2 -69zM309 -27c-8 -27 -25 -48 -45 -66c-5 -3 -9 -2 -15 2l-11 11
c15 15 25 30 31 44c5 14 6 25 3 31c-6 -2 -13 -3 -25 -2c-23 4 -41 26 -38 53c4 28 29 48 56 44c26 -4 41 -27 46 -48c5 -25 6 -42 -2 -69z" />
    <glyph glyph-name="quotedblleft" unicode="&#x201c;" horiz-adv-x="340" 
d="M26 558c8 27 26 48 45 66c5 3 10 2 15 -2l11 -11c-15 -15 -25 -30 -31 -44c-5 -14 -6 -25 -2 -31c5 2 12 3 24 2c24 -4 41 -26 38 -52c-4 -29 -29 -49 -56 -45c-26 4 -41 27 -46 48c-5 25 -6 42 2 69zM200 558c8 27 26 48 45 66c5 3 10 2 15 -2l11 -11
c-15 -15 -25 -30 -31 -44c-5 -14 -6 -25 -2 -31c5 2 12 3 24 2c24 -4 41 -26 38 -52c-4 -29 -29 -49 -56 -45c-26 4 -41 27 -46 48c-5 25 -6 42 2 69z" />
    <glyph glyph-name="quotedblright" unicode="&#x201d;" horiz-adv-x="341" 
d="M109 513c-8 -26 -26 -48 -46 -66c-5 -3 -9 -2 -14 2l-12 11c15 16 26 30 31 44c6 14 7 25 3 31c-6 -2 -12 -3 -24 -2c-24 4 -42 26 -38 53c4 28 28 48 55 44c26 -4 42 -27 47 -48c4 -25 5 -42 -2 -69zM283 513c-8 -26 -26 -48 -46 -66c-5 -3 -9 -2 -14 2l-12 11
c15 16 26 30 31 44c6 14 7 25 3 31c-6 -2 -12 -3 -24 -2c-24 4 -42 26 -38 53c4 28 28 48 55 44c26 -4 42 -27 47 -48c4 -25 5 -42 -2 -69z" />
    <glyph glyph-name="quoteleft" unicode="&#x2018;" horiz-adv-x="168" 
d="M46 558c8 27 26 48 46 66c5 3 9 2 14 -2l12 -11c-15 -15 -26 -30 -31 -44c-6 -14 -7 -25 -3 -31c6 2 12 3 24 2c24 -4 42 -26 38 -52c-4 -29 -28 -49 -55 -45c-26 4 -42 27 -47 48c-4 25 -5 42 2 69z" />
    <glyph glyph-name="quoteright" unicode="&#x2019;" horiz-adv-x="167" 
d="M121 513c-8 -26 -25 -48 -45 -66c-5 -3 -9 -2 -15 2l-11 11c15 16 25 30 31 44c5 14 6 25 3 31c-6 -2 -13 -3 -25 -2c-23 4 -41 26 -38 53c4 28 29 48 56 44c26 -4 41 -27 46 -48c5 -25 6 -42 -2 -69z" />
    <glyph glyph-name="quotesinglbase" unicode="&#x201a;" horiz-adv-x="188" 
d="M147 -27c-8 -27 -25 -48 -45 -66c-5 -3 -9 -2 -15 2l-11 11c15 15 25 30 31 44c5 14 6 25 3 31c-6 -2 -13 -3 -25 -2c-23 4 -41 26 -38 53c4 28 29 48 56 44c26 -4 41 -27 46 -48c5 -25 6 -42 -2 -69z" />
    <glyph glyph-name="space" unicode=" " horiz-adv-x="220" 
 />
    <glyph glyph-name="cent" unicode="&#xa2;" horiz-adv-x="450" 
d="M385 104l16 -18c-19 -37 -63 -94 -184 -94c-16 0 -31 2 -45 6l-16 -59h-33l19 70c-69 34 -117 114 -117 217c0 152 89 234 199 234c14 0 28 -1 40 -3l17 62h33l-19 -69c67 -20 98 -69 98 -120c0 -14 -15 -30 -39 -30c-21 0 -39 7 -39 29c0 47 2 77 -28 90l-99 -362
c21 -14 46 -22 73 -22c78 -1 82 33 109 69c6 9 12 4 15 0zM95 248c0 -63 24 -128 66 -170l95 348l-20 1c-105 0 -141 -49 -141 -179z" />
    <glyph glyph-name="currency" unicode="&#xa4;" horiz-adv-x="597" 
d="M506 228c0 -52 -19 -100 -51 -137l58 -57l-23 -23l-58 57c-37 -30 -84 -49 -135 -49s-97 18 -133 49l-57 -57l-23 23l57 56c-32 37 -51 85 -51 138c0 51 19 99 50 135l-56 55l23 24l56 -56c36 31 83 50 134 50c52 0 100 -19 136 -51l57 57l23 -24l-57 -56
c31 -36 50 -83 50 -134zM298 54c93 0 168 81 168 174s-75 172 -168 172c-94 0 -166 -79 -166 -172s72 -174 166 -174z" />
    <glyph glyph-name="dollar" unicode="$" horiz-adv-x="530" 
d="M502 183c16 -134 -111 -195 -220 -198v-46h-33v47c-88 7 -105 52 -162 33l-52 157l21 5c14 5 22 2 30 -13c7 -13 15 -27 22 -41c25 -51 76 -91 141 -100v260c-72 24 -176 48 -192 158c-13 79 54 185 192 193v51h33v-51c112 -6 132 -61 190 -72l13 -127l-21 -4
c-13 -2 -21 1 -24 12l-11 40c-16 60 -78 111 -147 119v-251c69 -20 207 -54 220 -172zM128 468c9 -62 72 -86 121 -103v241c-79 -7 -129 -76 -121 -138zM282 277v-252c64 1 150 27 138 130c-8 76 -73 101 -138 122z" />
    <glyph glyph-name="Euro" unicode="&#x20ac;" horiz-adv-x="710" 
d="M628 169c6 0 26 -12 31 -16c5 -10 -4 -23 -18 -47c-51 -85 -132 -121 -229 -121c-142 0 -253 110 -285 250h-89l7 36h75c-2 16 -3 32 -3 48l1 22h-63l8 37h59c25 144 140 259 281 259c81 0 145 -36 184 -82c17 0 25 23 29 49c2 11 8 17 19 17h16l11 -198l-18 -8
c-11 -5 -19 0 -23 11c-3 9 -8 21 -14 36c-41 99 -117 142 -199 142c-97 0 -197 -73 -209 -226h274l-8 -37h-267c0 -25 3 -48 6 -70h251l-7 -36h-236c36 -134 132 -211 214 -211c91 0 137 55 172 108c13 22 17 37 30 37z" />
    <glyph glyph-name="florin" unicode="&#x192;" horiz-adv-x="637" 
d="M637 598c11 -17 9 -44 -14 -58s-46 -7 -53 10c-11 33 -20 74 -71 74c-72 0 -78 -53 -89 -128l-5 -39h135c6 0 13 -4 10 -9l-5 -11c-9 -18 -14 -29 -33 -29h-114l-60 -425c-17 -119 -84 -185 -175 -185c-64 0 -111 37 -127 73c-9 17 -5 44 19 56s47 3 52 -15
c8 -33 13 -71 52 -71c60 0 78 55 89 130l61 437h-52c-6 0 -10 4 -9 10l5 39h63l4 27c17 119 74 183 185 183c74 0 113 -35 132 -69z" />
    <glyph glyph-name="sterling" unicode="&#xa3;" horiz-adv-x="564" 
d="M509 108h15l-23 -85c-4 -15 -17 -23 -32 -23h-415v50c63 39 107 88 107 144c0 23 -7 44 -18 64h-98v37h77c-27 43 -58 89 -58 154c0 100 85 188 232 188c129 0 207 -81 207 -191c0 -35 -15 -73 -39 -73c-20 0 -36 7 -51 36c-3 19 16 36 16 68c0 48 -41 123 -131 123
c-102 0 -158 -55 -158 -127c0 -99 52 -122 83 -178h130v-37h-115c4 -16 7 -35 7 -58c0 -59 -21 -123 -81 -157c99 3 307 -8 334 44z" />
    <glyph glyph-name="yen" unicode="&#xa5;" horiz-adv-x="616" 
d="M433 621h166v-18c-42 -5 -59 -23 -84 -59l-172 -243v-1l1 -1v-71h188v-36h-188v-138c0 -23 37 -28 73 -33v-21h-214v21c36 5 74 10 74 33v138h-155v36h155v47l-18 26h-137v36h112l-126 182c-39 58 -49 79 -93 84v18h186v-18c-29 -5 -48 -17 -37 -33l162 -234l155 224
c16 23 -9 38 -48 43v18zM532 337v-36h-182l31 36h151zM347 297l-3 2v2h6z" />
    <glyph glyph-name="approxequal" unicode="&#x2248;" horiz-adv-x="541" 
d="M470 377h-30c-15 0 -33 -40 -75 -40c-73 0 -98 56 -174 56c-56 0 -99 -33 -121 -88h30c21 0 23 46 73 46c59 0 102 -66 181 -66c47 0 96 34 116 92zM470 207h-30c-15 0 -33 -40 -75 -40c-73 0 -98 56 -174 56c-56 0 -99 -33 -121 -88h30c21 0 23 46 73 46
c59 0 102 -66 181 -66c47 0 96 34 116 92z" />
    <glyph glyph-name="asciitilde" unicode="~" horiz-adv-x="510" 
d="M440 288h-28c-13 0 -30 -40 -69 -40c-67 0 -90 56 -161 56c-52 0 -92 -33 -112 -88h28c20 0 21 46 68 46c54 0 94 -66 167 -66c43 0 89 34 107 92z" />
    <glyph glyph-name="divide" unicode="&#xf7;" horiz-adv-x="510" 
d="M257 367c-19 0 -37 17 -37 38c0 20 18 38 37 38c20 0 38 -18 38 -38c0 -21 -18 -38 -38 -38zM70 275h370v-47h-370v47zM257 61c-19 0 -37 17 -37 38c0 20 18 38 37 38c20 0 38 -18 38 -38c0 -21 -18 -38 -38 -38z" />
    <glyph glyph-name="emptyset" unicode="&#x2205;" horiz-adv-x="505" 
d="M431 432l-26 -34c40 -41 65 -99 65 -168c0 -143 -99 -238 -216 -238c-46 0 -89 14 -125 39l-24 -31l-40 30l26 35c-34 40 -56 94 -56 157c0 144 101 238 219 238c41 0 79 -11 112 -31l25 33zM108 242c0 -45 10 -86 26 -120l202 267c-24 27 -51 43 -76 43
c-101 0 -152 -44 -152 -190zM247 25c99 0 151 43 151 185c0 52 -13 98 -33 136l-203 -270c25 -32 56 -51 85 -51z" />
    <glyph glyph-name="equal" unicode="=" horiz-adv-x="510" 
d="M70 365h370v-47h-370v47zM70 185h370v-47h-370v47z" />
    <glyph glyph-name="greater" unicode="&#x3e;" horiz-adv-x="507" 
d="M437 274v-47c-123 -47 -244 -104 -367 -171v45c102 59 229 112 337 150c-108 37 -235 90 -337 150v44c123 -67 244 -124 367 -171z" />
    <glyph glyph-name="greaterequal" unicode="&#x2265;" horiz-adv-x="507" 
d="M437 356v-47c-123 -47 -244 -104 -367 -171v45c102 59 229 112 337 150c-108 37 -235 90 -337 150v44c123 -67 244 -124 367 -171zM70 54h370v-47h-370v47z" />
    <glyph glyph-name="infinity" unicode="&#x221e;" horiz-adv-x="729" 
d="M385 160c-32 -50 -75 -91 -160 -91c-79 0 -165 80 -165 178s88 181 172 181c64 0 117 -33 150 -86c37 52 81 72 141 72c76 0 146 -76 146 -167c0 -97 -69 -172 -149 -172c-59 0 -110 33 -135 85zM225 128c74 0 119 26 130 94l11 66c7 40 -67 84 -135 84
c-69 0 -140 -36 -140 -125c0 -86 73 -119 134 -119zM399 273l-9 -57c-8 -49 61 -91 128 -91c61 0 123 26 123 122c0 74 -68 113 -125 113c-59 0 -109 -36 -117 -87z" />
    <glyph glyph-name="integral" unicode="&#x222b;" horiz-adv-x="437" 
d="M412 726c10 -16 11 -40 -7 -50c-23 -12 -47 1 -51 20c-12 48 -12 74 -54 74c-36 0 -60 -29 -60 -107v-732c0 -102 -23 -146 -110 -146c-63 0 -90 35 -108 74c-5 16 -7 42 12 52c23 11 45 -4 47 -22c12 -47 13 -74 55 -74c36 0 59 29 59 107v732c0 102 24 146 111 146
c63 0 87 -36 106 -74z" />
    <glyph glyph-name="less" unicode="&#x3c;" horiz-adv-x="507" 
d="M70 227v47c123 47 244 104 367 171v-44c-102 -60 -229 -113 -337 -150c108 -38 235 -91 337 -150v-45c-123 67 -244 124 -367 171z" />
    <glyph glyph-name="lessequal" unicode="&#x2264;" horiz-adv-x="507" 
d="M70 309v47c123 47 244 104 367 171v-44c-102 -60 -229 -113 -337 -150c108 -38 235 -91 337 -150v-45c-123 67 -244 124 -367 171zM437 54v-47h-370v47h370z" />
    <glyph glyph-name="logicalnot" unicode="&#xac;" horiz-adv-x="563" 
d="M70 365h423v-222h-47v175h-376v47z" />
    <glyph glyph-name="minus" unicode="&#x2212;" horiz-adv-x="510" 
d="M70 275h370v-47h-370v47z" />
    <glyph glyph-name="multiply" unicode="&#xd7;" horiz-adv-x="441" 
d="M371 369l-117 -117l117 -118l-33 -34l-117 118l-118 -118l-33 34l117 118l-117 117l33 34l118 -118l117 118z" />
    <glyph glyph-name="notequal" unicode="&#x2260;" horiz-adv-x="510" 
d="M440 318h-130l-56 -133h186v-47h-205l-58 -138h-51l58 138h-114v47h133l56 133h-189v47h208l55 131h51l-55 -131h111v-47z" />
    <glyph glyph-name="partialdiff" unicode="&#x2202;" horiz-adv-x="525" 
d="M112 573l-6 8c-5 6 -5 13 2 18c34 25 70 37 125 37c169 0 247 -209 248 -359c1 -139 -48 -289 -224 -289c-143 0 -212 111 -212 208c0 113 91 189 209 189c72 0 133 -41 149 -61c-9 127 -49 280 -175 280c-42 0 -61 -13 -98 -34c-7 -3 -14 -2 -18 3zM401 287
c-1 17 -77 68 -153 68c-81 0 -128 -64 -128 -156c0 -105 38 -180 137 -180c88 0 152 82 144 268z" />
    <glyph glyph-name="percent" unicode="%" horiz-adv-x="644" 
d="M514 636h33l-432 -641h-63l447 621c-80 -65 -149 -70 -198 -45c7 -21 9 -45 4 -67c-7 -52 -72 -136 -143 -136c-75 0 -109 75 -101 136c12 60 77 139 146 139c17 0 33 -4 46 -11c46 -19 127 -76 261 4zM247 504c10 55 6 107 -42 107c-46 0 -69 -51 -80 -107
c-8 -54 -5 -103 41 -103c49 0 71 50 81 103zM474 264c75 0 111 -75 98 -139c-8 -52 -72 -136 -143 -136c-75 0 -109 75 -101 136c12 60 77 139 146 139zM514 125c10 55 6 107 -42 107c-46 0 -69 -51 -80 -107c-8 -54 -5 -103 41 -103c49 0 70 50 81 103z" />
    <glyph glyph-name="perthousand" unicode="&#x2030;" horiz-adv-x="932" 
d="M514 636h33l-432 -641h-63l447 621c-80 -65 -149 -70 -198 -45c7 -21 9 -45 4 -67c-7 -52 -72 -136 -143 -136c-75 0 -109 75 -101 136c12 60 77 139 146 139c17 0 33 -4 46 -11c46 -19 127 -76 261 4zM247 504c10 55 6 107 -42 107c-46 0 -69 -51 -80 -107
c-8 -54 -5 -103 41 -103c49 0 71 50 81 103zM474 264c75 0 111 -75 98 -139c-8 -52 -72 -136 -143 -136c-75 0 -109 75 -101 136c12 60 77 139 146 139zM762 264c75 0 111 -75 98 -139c-8 -52 -72 -136 -143 -136c-75 0 -109 75 -101 136c12 60 77 139 146 139zM514 125
c10 55 6 107 -42 107c-46 0 -69 -51 -80 -107c-8 -54 -5 -103 41 -103c49 0 70 50 81 103zM802 125c10 55 6 107 -42 107c-46 0 -69 -51 -80 -107c-8 -54 -5 -103 41 -103c49 0 70 50 81 103z" />
    <glyph glyph-name="plus" unicode="+" horiz-adv-x="510" 
d="M440 275v-47h-161v-163h-47v163h-162v47h162v161h47v-161h161z" />
    <glyph glyph-name="plusminus" unicode="&#xb1;" horiz-adv-x="510" 
d="M279 376h161v-47h-161v-163h-47v163h-162v47h162v161h47v-161zM70 7v47h370v-47h-370z" />
    <glyph glyph-name="product" unicode="&#x220f;" horiz-adv-x="616" 
d="M70 800h476v-1000h-47v954h-382v-954h-47v1000z" />
    <glyph glyph-name="radical" unicode="&#x221a;" horiz-adv-x="710" 
d="M604 801h106v-21l-27 -8c-15 -4 -44 -14 -67 -79l-314 -891c-8 4 -14 11 -19 22l-144 321c-26 57 -52 71 -68 77l-21 8v21c52 -4 56 -4 100 -2l160 -342zM315 -200h-14l1 2c4 -1 8 -2 13 -2z" />
    <glyph glyph-name="summation" unicode="&#x2211;" horiz-adv-x="570" 
d="M500 800v-46h-373l301 -455l-301 -453h373v-46h-430v46l290 454l-290 454v46h430z" />
    <glyph glyph-name="lozenge" unicode="&#x25ca;" horiz-adv-x="412" 
d="M377 310l-130 -310h-82l-130 310l130 311h82zM301 310l-95 247l-95 -247l95 -247z" />
    <glyph glyph-name="bar" unicode="|" horiz-adv-x="233" 
d="M90 800h53v-1015h-53v1015z" />
    <glyph glyph-name="brokenbar" unicode="&#xa6;" horiz-adv-x="233" 
d="M90 451v349h53v-349h-53zM90 -215v349h53v-349h-53z" />
    <glyph glyph-name="at" unicode="@" horiz-adv-x="706" 
d="M444 -53l11 -17c-34 -9 -70 -13 -101 -13c-171 0 -309 136 -309 332c0 195 137 331 309 331s308 -126 308 -328c0 -96 -21 -156 -125 -179c-57 -12 -90 7 -98 66c-14 -42 -59 -78 -121 -78c-59 0 -111 24 -111 90c0 65 36 109 234 135v13c0 47 -12 110 -91 106
c-15 -2 -23 0 -41 -6c-35 -6 -19 -38 -24 -63c-6 -18 -21 -25 -40 -22c-15 2 -29 19 -22 47c9 37 64 66 119 71c98 8 156 -36 156 -132v-162c0 -29 16 -43 40 -38c81 18 67 112 67 151c0 171 -84 299 -251 299c-168 0 -249 -138 -249 -302c0 -163 96 -302 249 -302
c17 0 41 4 56 7c17 4 28 2 34 -6zM334 96c62 0 93 49 107 69v96c-165 -23 -178 -58 -178 -107c0 -29 27 -58 71 -58z" />
    <glyph glyph-name="ampersand" unicode="&#x26;" horiz-adv-x="725" 
d="M265 325l-25 5c-43 5 -116 -50 -116 -150c0 -132 94 -171 185 -171c107 0 196 72 196 178c0 50 -27 85 -72 85c-43 0 -66 -40 -41 -69h-23c-10 9 -22 24 -22 51c0 29 27 47 67 73l128 82c49 33 84 50 84 102c0 60 -59 79 -95 73l-25 -6c-8 -2 -14 2 -16 10
c0 9 1 14 11 18c23 8 37 12 57 15c67 8 122 -34 122 -126c0 -98 -124 -153 -193 -190c59 -22 88 -65 89 -125c2 -116 -138 -195 -268 -195c-144 0 -263 80 -263 204c0 125 74 170 138 171c-30 30 -81 71 -81 139c0 57 50 138 164 138c70 0 128 -29 151 -94
c10 -28 4 -52 -22 -55s-48 13 -48 38c-3 61 -27 76 -85 76c-66 0 -86 -41 -86 -112c0 -67 35 -117 96 -136z" />
    <glyph glyph-name="paragraph" unicode="&#xb6;" horiz-adv-x="583" 
d="M538 621v-19c-26 -5 -45 -10 -45 -33v-584c0 -23 9 -33 45 -38v-14h-331v14c50 5 59 15 59 38v255h-17c-141 0 -229 72 -229 190c0 119 98 191 238 191h280zM415 -15v583c0 24 -7 28 -23 28h-148c-107 0 -131 -64 -131 -166c0 -100 24 -166 122 -166h31v328h77v-607
c0 -23 9 -33 36 -33s36 10 36 33z" />
    <glyph glyph-name="copyright" unicode="&#xa9;" horiz-adv-x="762" 
d="M382 580c185 0 328 -140 328 -340s-143 -340 -328 -340s-329 140 -329 340s144 340 329 340zM651 240c0 173 -98 304 -269 304c-172 0 -269 -131 -269 -304c0 -172 97 -304 269 -304c171 0 269 132 269 304zM517 129l11 -12c-17 -30 -55 -73 -142 -73
c-81 0 -157 76 -157 189c0 123 76 190 161 190c90 0 135 -49 135 -101c0 -16 -9 -29 -30 -29c-19 0 -32 10 -32 26c0 43 2 74 -63 74c-80 0 -108 -42 -108 -144c0 -86 48 -168 125 -168c45 0 64 18 77 37c11 16 20 15 23 11z" />
    <glyph glyph-name="registered" unicode="&#xae;" horiz-adv-x="762" 
d="M382 576c183 0 324 -137 324 -336c0 -198 -141 -336 -324 -336s-326 138 -326 336c0 199 143 336 326 336zM382 -61c169 0 267 130 267 301s-98 301 -267 301c-170 0 -267 -130 -267 -301s97 -301 267 -301zM483 162c9 -34 35 -70 55 -70v-24h-35c-33 0 -57 33 -72 90
c-13 51 -31 68 -75 68h-35v-115c0 -19 10 -19 28 -25v-17h-111v17c18 5 26 5 26 25v261c0 20 -10 23 -26 29v15h145c75 0 125 -40 125 -95s-34 -84 -112 -85c67 -3 77 -33 87 -74zM321 248h65c49 0 64 36 64 73c0 38 -19 73 -59 73h-70v-146z" />
    <glyph glyph-name="section" unicode="&#xa7;" horiz-adv-x="502" 
d="M470 71c14 -116 -99 -172 -212 -172c-97 0 -145 28 -184 47l-43 151l20 7c10 4 14 3 17 -7c5 -10 11 -30 18 -55c22 -69 84 -107 166 -107c71 0 152 14 139 106c-10 77 -96 88 -162 103c-66 14 -170 26 -187 128c-7 47 11 90 39 121c-17 16 -30 38 -35 68
c-15 100 60 176 185 176c118 0 139 -33 192 -58l10 -118l-20 -4c-6 -3 -10 -1 -13 6c-2 12 -9 33 -17 57c-16 55 -60 82 -152 82c-77 0 -129 -44 -119 -111c12 -76 85 -67 140 -79c52 -12 202 -29 216 -145c6 -50 -10 -90 -38 -119c21 -19 36 -44 40 -77zM110 297
c13 -65 86 -70 142 -82c28 -6 84 -14 132 -37c6 15 8 35 5 59c-8 77 -94 87 -160 103c-32 7 -71 12 -106 26c-10 -20 -18 -42 -13 -69z" />
    <glyph glyph-name="trademark" unicode="&#x2122;" horiz-adv-x="630" 
d="M38 621h199c8 0 15 -7 15 -13l3 -48h-22l-8 16c-3 6 -6 8 -13 8h-45v-155c0 -7 15 -10 26 -10v-25h-111v25c13 0 25 3 25 10v155h-44c-7 0 -10 -2 -13 -8l-8 -16h-22l3 48c0 6 7 13 15 13zM606 621v-24c-13 -5 -17 -6 -17 -19v-145c0 -11 3 -11 21 -16v-23h-98v23
c17 5 22 6 22 16v110l-77 -125c-7 -15 -21 -15 -29 0l-86 126v-111c0 -10 6 -11 22 -16v-23h-82v23c18 5 22 6 22 16v145c0 12 -5 14 -22 18v25h76l91 -138l90 138h67z" />
    <glyph glyph-name="degree" unicode="&#xb0;" horiz-adv-x="305" 
d="M153 634c62 0 112 -49 112 -115s-50 -115 -112 -115s-113 49 -113 115s51 115 113 115zM219 519c0 48 -24 85 -65 85c-43 0 -66 -37 -66 -85c0 -46 23 -85 66 -85c41 0 65 39 65 85z" />
    <glyph glyph-name="asciicircum" unicode="^" horiz-adv-x="365" 
d="M22 467l154 206c4 5 8 8 13 0l154 -206c5 -8 2 -16 -5 -16h-19c-4 0 -7 6 -11 10l-125 137l-126 -137c-3 -4 -6 -10 -10 -10h-19c-8 0 -11 8 -6 16z" />
    <glyph glyph-name="dagger" unicode="&#x2020;" horiz-adv-x="546" 
d="M404 504c27 0 51 -24 51 -53c0 -28 -24 -53 -51 -53s-57 41 -117 39l2 -44l50 -51l-61 -205h-10l-61 205l50 51l2 44c-60 2 -90 -39 -117 -39s-51 25 -51 53c0 29 24 53 51 53s58 -42 119 -39c5 56 -39 87 -39 115c0 29 24 53 51 53s51 -24 51 -53
c0 -28 -44 -59 -39 -115c61 -3 92 39 119 39z" />
    <glyph glyph-name="daggerdbl" unicode="&#x2021;" horiz-adv-x="540" 
d="M404 204c27 0 51 -24 51 -53c0 -28 -24 -53 -51 -53s-60 44 -121 41c-2 -55 41 -89 41 -117c0 -29 -24 -53 -51 -53s-51 24 -51 53c0 28 43 62 41 117c-61 3 -94 -41 -121 -41s-51 25 -51 53c0 29 24 53 51 53s60 -44 121 -41v42l-55 97l55 95v42c-61 3 -94 -41 -121 -41
s-51 25 -51 53c0 29 24 53 51 53s60 -44 121 -41c2 55 -41 89 -41 117c0 29 24 53 51 53s51 -24 51 -53c0 -28 -43 -62 -41 -117c61 -3 94 41 121 41s51 -24 51 -53c0 -28 -24 -53 -51 -53s-60 44 -121 41v-42l55 -96l-55 -96v-42c61 -3 94 41 121 41z" />
    <glyph glyph-name="acute" unicode="&#xb4;" horiz-adv-x="301" 
d="M189 670l-117 -108c-10 -8 -12 -15 -9 -20c5 -6 11 -6 21 0l146 76c20 10 12 28 6 46c-6 17 -25 27 -47 6z" />
    <glyph glyph-name="breve" unicode="&#x2d8;" horiz-adv-x="384" 
d="M192 562c-80 0 -127 63 -131 118c0 8 5 11 10 11h7c7 0 10 -3 11 -11c4 -29 36 -65 103 -65c68 0 99 36 103 65c1 8 4 11 11 11h7c5 0 10 -3 10 -11c-4 -55 -51 -118 -131 -118z" />
    <glyph glyph-name="caron" unicode="&#x2c7;" horiz-adv-x="408" 
d="M204 538l-141 144h34l107 -79l107 79h35z" />
    <glyph glyph-name="cedilla" unicode="&#xb8;" horiz-adv-x="247" 
d="M79 -121c4 -21 7 -54 40 -57c38 -3 62 18 67 49c5 32 -18 58 -61 53c-17 -2 -30 -5 -37 -6c-11 -2 -18 14 -11 24c10 18 20 39 28 58h46l-23 -48c53 17 118 -22 107 -86c-10 -58 -63 -70 -118 -67c-50 3 -81 22 -87 55c-6 30 23 48 49 25z" />
    <glyph glyph-name="circumflex" unicode="&#x2c6;" horiz-adv-x="393" 
d="M197 677l141 -143h-34l-107 78l-108 -78h-34z" />
    <glyph glyph-name="dieresis" unicode="&#xa8;" horiz-adv-x="395" 
d="M109 577c-24 0 -44 21 -44 44c0 24 20 45 44 45s44 -21 44 -45c0 -23 -20 -44 -44 -44zM285 577c-23 0 -44 21 -44 44c0 24 21 45 44 45c24 0 45 -21 45 -45c0 -23 -21 -44 -45 -44z" />
    <glyph glyph-name="dotaccent" unicode="&#x2d9;" horiz-adv-x="234" 
d="M117 578c-25 0 -46 22 -46 47s21 47 46 47s47 -22 47 -47s-22 -47 -47 -47z" />
    <glyph glyph-name="grave" unicode="`" horiz-adv-x="282" 
d="M221 562l-117 108c-21 21 -41 11 -47 -6c-6 -18 -14 -36 6 -46l147 -76c10 -6 16 -6 20 0c4 5 1 12 -9 20z" />
    <glyph glyph-name="hungarumlaut" unicode="&#x2dd;" horiz-adv-x="488" 
d="M178 670l-117 -108c-10 -8 -13 -15 -9 -20c5 -6 10 -6 20 0l147 76c20 10 12 28 6 46c-6 17 -26 27 -47 6zM385 670l-117 -108c-10 -8 -13 -15 -9 -20c5 -6 10 -6 20 0l147 76c20 10 12 28 6 46c-6 17 -26 27 -47 6z" />
    <glyph glyph-name="macron" unicode="&#xaf;" horiz-adv-x="439" 
d="M58 605c0 12 7 17 20 17h283c13 0 20 -5 20 -17s-7 -17 -20 -17h-283c-13 0 -20 5 -20 17z" />
    <glyph glyph-name="ogonek" unicode="&#x2db;" horiz-adv-x="293" 
d="M234 -95h19c-13 -31 -46 -89 -116 -89c-46 0 -102 28 -102 80c0 59 57 98 102 120h31c-62 -42 -71 -81 -71 -112c0 -34 28 -52 54 -52c46 0 68 22 83 53z" />
    <glyph glyph-name="ring" unicode="&#x2da;" horiz-adv-x="391" 
d="M195 558c-46 0 -84 37 -84 80c0 44 38 80 84 80c45 0 83 -36 83 -80c0 -43 -38 -80 -83 -80zM195 584c21 0 42 25 42 54c0 28 -21 54 -42 54c-23 0 -43 -26 -43 -54c0 -29 20 -54 43 -54z" />
    <glyph glyph-name="tilde" unicode="&#x2dc;" horiz-adv-x="424" 
d="M365 645h19c-10 -62 -54 -96 -110 -96c-61 0 -105 68 -150 68c-43 0 -68 -28 -68 -48h-15c-9 58 50 92 99 92c63 0 90 -58 153 -58c34 0 70 26 72 42z" />
    <glyph glyph-name="acutecomb" unicode="&#x301;" horiz-adv-x="0" 
d="M189 670l-117 -108c-10 -8 -12 -15 -9 -20c5 -6 11 -6 21 0l146 76c20 10 12 28 6 46c-6 17 -25 27 -47 6z" />
    <glyph glyph-name="uni0326" unicode="&#x326;" horiz-adv-x="0" 
d="M140 -220c-8 -27 -25 -48 -45 -66c-5 -3 -9 -2 -15 2l-11 11c15 15 25 30 31 44c5 14 6 25 3 31c-6 -2 -13 -3 -25 -2c-23 4 -41 26 -38 52c4 29 29 49 56 45c26 -4 41 -27 46 -48c5 -25 6 -42 -2 -69z" />
    </font>
</defs>
</svg>
