<?xml version="1.0" standalone="no"?>
<!DOCTYPE svg PUBLIC "-//W3C//DTD SVG 1.1//EN" "http://www.w3.org/Graphics/SVG/1.1/DTD/svg11.dtd" >
<svg xmlns="http://www.w3.org/2000/svg" width="100%" height="100%">
<metadata>
Created by FontXChange 20100429 at Mon Jan  2 12:44:03 2017
 By Killian Grant
Copyright (c) 2015 by Connary Fagen. All rights reserved.
</metadata>
<defs>
<font id="QuincyCF-LightItalic" horiz-adv-x="502" >
  <font-face 
    font-family="Quincy CF Light"
    font-weight="300"
    font-style="italic"
    font-stretch="normal"
    units-per-em="1000"
    panose-1="0 0 4 0 0 0 0 0 0 0"
    ascent="800"
    descent="-200"
    x-height="457"
    cap-height="621"
    bbox="-155 -288.194 865 1239.35"
    underline-thickness="50"
    underline-position="-50"
    slope="-7"
    stemh="37"
    stemv="68"
    unicode-range="U+0020-FB02"
  />
<missing-glyph horiz-adv-x="555" 
d="M55 0v700h500v-700h-500zM305 395l170 255h-340zM335 350l170 -255v510zM135 50h340l-170 255zM105 605v-510l170 255z" />
    <glyph glyph-name="f_f" unicode="ff" horiz-adv-x="679" 
d="M606 667c86 0 126 -64 126 -93c0 -21 -14 -32 -31 -32c-16 0 -29 8 -29 32c0 19 -15 58 -75 58c-62 0 -69 -46 -80 -121l-3 -26c0 -11 0 -20 -1 -29h136c-7 -27 -13 -34 -29 -34h-114l-59 -458c-14 -111 -63 -178 -135 -178c-78 0 -111 55 -111 94c0 20 13 31 28 31
c14 0 33 -9 33 -40c0 -21 4 -52 40 -52c56 0 73 51 84 126l61 477h-70l4 34h70l5 36l1 5c-4 63 -37 135 -111 135c-69 0 -106 -46 -121 -152l-3 -24h79c-7 -27 -13 -34 -29 -34h-54l-59 -458c-14 -111 -64 -178 -137 -178c-78 0 -110 55 -110 94c0 20 13 31 27 31
c15 0 34 -9 34 -40c0 -21 3 -52 40 -52c56 0 73 51 83 126l62 477h-70l4 34h70l1 5c18 142 84 206 192 206c58 0 99 -34 125 -76c22 49 60 76 126 76z" />
    <glyph glyph-name="fi" unicode="fi" horiz-adv-x="550" 
d="M312 632c-62 0 -72 -46 -83 -121l-7 -55h128c-8 -27 -13 -34 -30 -34h-102l-59 -458c-14 -111 -64 -178 -137 -178c-78 0 -110 55 -110 94c0 20 13 31 27 31c15 0 34 -9 34 -40c0 -21 3 -52 40 -52c56 0 73 51 83 126l62 477h-70l4 34h70l5 36c13 111 53 175 154 175
c92 0 136 -64 136 -93c0 -21 -13 -32 -30 -32c-16 0 -30 8 -30 32c0 19 -20 58 -85 58zM493 387l-38 -304c-4 -33 12 -72 61 -31l-10 -32c-26 -15 -42 -20 -66 -20c-31 0 -49 33 -46 68l39 299c4 33 -9 54 -44 39l4 25c23 13 50 26 78 26c26 0 28 -22 22 -70z" />
    <glyph glyph-name="fl" unicode="fl" horiz-adv-x="542" 
d="M505 515l-58 -429c-4 -33 11 -75 59 -34l-10 -32c-28 -16 -40 -20 -51 -20c-44 0 -63 35 -59 72l58 443c9 75 -10 117 -97 117c-65 0 -107 -46 -122 -152l-3 -24h138c-8 -27 -13 -34 -30 -34h-112l-59 -458c-14 -111 -64 -178 -137 -178c-78 0 -110 55 -110 94
c0 20 13 31 27 31c15 0 34 -9 34 -40c0 -21 3 -52 40 -52c56 0 73 51 83 126l62 477h-70l4 34h70l1 5c18 142 89 206 192 206c114 0 160 -74 150 -152z" />
    <glyph glyph-name=".notdef" horiz-adv-x="555" 
d="M55 0v700h500v-700h-500zM305 395l170 255h-340zM335 350l170 -255v510zM135 50h340l-170 255zM105 605v-510l170 255z" />
    <glyph glyph-name="A" unicode="A" horiz-adv-x="623" 
d="M374 630l137 -524c20 -75 35 -79 70 -89l-3 -17h-177l2 17c54 12 57 31 49 58l-35 141h-237l-68 -139c-17 -33 1 -47 43 -60l-3 -17h-150l2 17c38 11 51 15 77 68l239 485c9 20 14 35 14 51zM195 247h214l-73 291z" />
    <glyph glyph-name="Aacute" unicode="&#xc1;" horiz-adv-x="623" 
d="M463 788l-137 -78c-8 -5 -15 -5 -18 1c-3 5 -2 11 7 19l124 109c21 19 44 14 51 -1c7 -17 3 -33 -27 -50zM374 630l137 -524c20 -75 35 -79 70 -89l-3 -17h-177l2 17c54 12 57 31 49 58l-35 141h-237l-68 -139c-17 -33 1 -47 43 -60l-3 -17h-150l2 17c38 11 51 15 77 68
l239 485c9 20 14 35 14 51zM195 247h214l-73 291z" />
    <glyph glyph-name="Abreve" unicode="&#x102;" horiz-adv-x="623" 
d="M395 732c-73 0 -107 64 -102 122c0 5 4 7 7 7h6c7 0 10 -4 9 -15c-1 -26 23 -61 82 -61c60 0 95 37 103 69c1 5 3 7 9 7h5c5 0 10 -4 8 -15c-10 -53 -58 -114 -127 -114zM374 630l137 -524c20 -75 35 -79 70 -89l-3 -17h-177l2 17c54 12 57 31 49 58l-35 141h-237
l-68 -139c-17 -33 1 -47 43 -60l-3 -17h-150l2 17c38 11 51 15 77 68l239 485c9 20 14 35 14 51zM195 247h214l-73 291z" />
    <glyph glyph-name="Acircumflex" unicode="&#xc2;" horiz-adv-x="623" 
d="M375 777l-117 -78h-34l159 143l124 -143h-34zM374 630l137 -524c20 -75 35 -79 70 -89l-3 -17h-177l2 17c54 12 57 31 49 58l-35 141h-237l-68 -139c-17 -33 1 -47 43 -60l-3 -17h-150l2 17c38 11 51 15 77 68l239 485c9 20 14 35 14 51zM195 247h214l-73 291z" />
    <glyph glyph-name="Adieresis" unicode="&#xc4;" horiz-adv-x="623" 
d="M169 741c-21 0 -34 19 -34 42s17 46 40 46s37 -17 37 -39c0 -23 -13 -49 -43 -49zM598 829c22 0 37 -17 37 -39c0 -24 -14 -49 -43 -49c-21 0 -34 19 -34 42s17 46 40 46zM374 630l137 -524c20 -75 35 -79 70 -89l-3 -17h-177l2 17c54 12 57 31 49 58l-35 141h-237
l-68 -139c-17 -33 1 -47 43 -60l-3 -17h-150l2 17c38 11 51 15 77 68l239 485c9 20 14 35 14 51zM195 247h214l-73 291z" />
    <glyph glyph-name="Agrave" unicode="&#xc0;" horiz-adv-x="623" 
d="M413 710l-137 78c-30 17 -34 33 -26 50c6 15 29 20 50 1l124 -109c10 -8 10 -14 7 -19c-3 -6 -10 -6 -18 -1zM374 630l137 -524c20 -75 35 -79 70 -89l-3 -17h-177l2 17c54 12 57 31 49 58l-35 141h-237l-68 -139c-17 -33 1 -47 43 -60l-3 -17h-150l2 17
c38 11 51 15 77 68l239 485c9 20 14 35 14 51zM195 247h214l-73 291z" />
    <glyph glyph-name="Amacron" unicode="&#x100;" horiz-adv-x="623" 
d="M511 777h-251c-12 0 -18 7 -15 19h-1c2 12 7 16 19 16h251c12 0 18 -7 15 -19h1c-1 -12 -7 -16 -19 -16zM374 630l137 -524c20 -75 35 -79 70 -89l-3 -17h-177l2 17c54 12 57 31 49 58l-35 141h-237l-68 -139c-17 -33 1 -47 43 -60l-3 -17h-150l2 17c38 11 51 15 77 68
l239 485c9 20 14 35 14 51zM195 247h214l-73 291z" />
    <glyph glyph-name="Aogonek" unicode="&#x104;" horiz-adv-x="623" 
d="M578 0h-77c-71 -46 -83 -97 -83 -123c0 -21 19 -40 49 -40c39 0 70 22 88 53h19c-17 -31 -56 -89 -135 -89c-39 0 -82 21 -82 68c0 46 34 94 113 131h-69l2 17c54 12 57 31 49 58l-35 141h-237l-68 -139c-17 -33 1 -47 43 -60l-3 -17h-150l2 17c38 11 51 15 77 68
l239 485c9 20 14 35 14 51l40 9l137 -524c20 -75 35 -79 70 -89zM195 247h214l-73 291z" />
    <glyph glyph-name="Aring" unicode="&#xc5;" horiz-adv-x="623" 
d="M373 728c-38 0 -66 30 -66 71c0 46 39 89 81 89c39 0 67 -31 67 -74c0 -42 -41 -86 -82 -86zM386 862c-21 0 -40 -19 -40 -57c0 -34 8 -51 31 -51c21 0 42 18 42 55c0 38 -14 53 -33 53zM374 630l137 -524c20 -75 35 -79 70 -89l-3 -17h-177l2 17c54 12 57 31 49 58
l-35 141h-237l-68 -139c-17 -33 1 -47 43 -60l-3 -17h-150l2 17c38 11 51 15 77 68l239 485c9 20 14 35 14 51zM195 247h214l-73 291z" />
    <glyph glyph-name="Atilde" unicode="&#xc3;" horiz-adv-x="623" 
d="M258 738l-12 3c-1 57 53 90 95 90c56 0 74 -58 128 -58c31 0 70 27 74 43l14 -3c-16 -62 -58 -94 -107 -94c-54 0 -85 68 -124 68s-66 -29 -68 -49zM374 630l137 -524c20 -75 35 -79 70 -89l-3 -17h-177l2 17c54 12 57 31 49 58l-35 141h-237l-68 -139
c-17 -33 1 -47 43 -60l-3 -17h-150l2 17c38 11 51 15 77 68l239 485c9 20 14 35 14 51zM195 247h214l-73 291z" />
    <glyph glyph-name="AE" unicode="&#xc6;" horiz-adv-x="829" 
d="M425 621h374c12 0 16 -4 14 -19l-12 -96h-18l-10 35c-7 28 -23 52 -62 52h-179l-33 -261h164c29 0 39 30 55 61h12l-20 -153h-13c-8 32 -7 62 -37 62h-164l-37 -277l209 2c44 0 48 29 69 54l28 31l26 -2c-18 -32 -29 -56 -40 -91c-6 -12 -16 -19 -28 -19h-378l4 15
c30 13 43 19 48 58l19 149h-170l-111 -154c-19 -28 -4 -39 47 -49l-1 -19h-176v18c51 10 65 21 96 64l343 470c6 8 11 15 14 21c-2 20 -14 21 -36 31zM268 252h152l31 254z" />
    <glyph glyph-name="B" unicode="B" horiz-adv-x="540" 
d="M390 340c70 -15 114 -68 114 -142c0 -96 -56 -198 -245 -198c-114 0 -129 12 -155 12c-31 0 -61 -8 -96 -12l3 29c41 10 60 24 63 49l57 472c3 23 -14 37 -49 43l4 28h253c103 0 170 -39 170 -128c0 -50 -30 -124 -119 -153zM194 593l-29 -238h140c117 0 138 97 138 152
c0 59 -29 86 -93 86h-156zM248 30c168 0 189 108 189 179c0 74 -47 120 -164 120h-111l-29 -248c-6 -59 72 -51 115 -51z" />
    <glyph glyph-name="C" unicode="C" horiz-adv-x="550" 
d="M513 414l-17 52c-30 90 -87 137 -150 137c-173 0 -228 -202 -228 -341c0 -161 81 -229 177 -229c91 0 165 64 190 147h35c-44 -110 -105 -186 -242 -186c-139 0 -235 111 -235 274c0 148 89 369 295 369c84 0 126 -37 159 -91c19 1 30 39 37 75h26l-19 -196z" />
    <glyph glyph-name="Cacute" unicode="&#x106;" horiz-adv-x="550" 
d="M407 839l-124 -109c-9 -8 -10 -14 -7 -19c3 -6 10 -6 18 -1l137 78c30 17 34 33 27 50c-7 15 -30 20 -51 1zM513 414l-17 52c-30 90 -87 137 -150 137c-173 0 -228 -202 -228 -341c0 -161 81 -229 177 -229c91 0 165 64 190 147h35c-44 -110 -105 -186 -242 -186
c-139 0 -235 111 -235 274c0 148 89 369 295 369c84 0 126 -37 159 -91c19 1 30 39 37 75h26l-19 -196z" />
    <glyph glyph-name="Ccaron" unicode="&#x10c;" horiz-adv-x="550" 
d="M336 694l-105 143h32l83 -78l106 78h30zM513 414l-17 52c-30 90 -87 137 -150 137c-173 0 -228 -202 -228 -341c0 -161 81 -229 177 -229c91 0 165 64 190 147h35c-44 -110 -105 -186 -242 -186c-139 0 -235 111 -235 274c0 148 89 369 295 369c84 0 126 -37 159 -91
c19 1 30 39 37 75h26l-19 -196z" />
    <glyph glyph-name="Ccedilla" unicode="&#xc7;" horiz-adv-x="550" 
d="M346 603c-173 0 -228 -202 -228 -341c0 -161 81 -229 177 -229c91 0 165 64 190 147h35c-44 -110 -105 -186 -242 -186c-8 0 -15 0 -23 1l-23 -42c49 17 103 -24 84 -91c-16 -56 -63 -66 -109 -63c-45 3 -72 24 -73 59c-2 28 24 42 46 18c2 -19 -1 -51 26 -54
c35 -3 62 20 68 53c8 30 -8 54 -44 48c-17 -1 -29 -4 -35 -6c-11 -1 -16 16 -8 29c10 16 21 36 31 54h6c-109 25 -181 127 -181 268c0 148 89 369 295 369c84 0 126 -37 159 -91c19 1 30 39 37 75h26l-19 -196l-28 -11l-17 52c-30 90 -87 137 -150 137z" />
    <glyph glyph-name="Cdotaccent" unicode="&#x10a;" horiz-adv-x="550" 
d="M340 745c-23 0 -36 21 -36 44c0 25 17 50 42 50c23 0 38 -19 38 -42c0 -25 -14 -52 -44 -52zM513 414l-17 52c-30 90 -87 137 -150 137c-173 0 -228 -202 -228 -341c0 -161 81 -229 177 -229c91 0 165 64 190 147h35c-44 -110 -105 -186 -242 -186
c-139 0 -235 111 -235 274c0 148 89 369 295 369c84 0 126 -37 159 -91c19 1 30 39 37 75h26l-19 -196z" />
    <glyph glyph-name="D" unicode="D" horiz-adv-x="571" 
d="M86 621h176c194 0 292 -83 292 -258c0 -139 -74 -363 -323 -363c-48 0 -110 9 -136 9c-30 0 -51 -6 -88 -9l5 29c41 10 59 26 62 49l57 471c3 26 -16 38 -47 46zM250 34c169 0 240 179 240 327c0 115 -62 230 -210 230h-85l-63 -530c-4 -28 72 -27 118 -27z" />
    <glyph glyph-name="Eth" unicode="&#xd0;" horiz-adv-x="575" 
d="M86 621h176c194 0 292 -83 292 -258c0 -139 -74 -363 -323 -363c-48 0 -110 9 -136 9c-30 0 -51 -6 -88 -9l5 29c41 10 59 26 62 49l26 216h-15l5 33h14l27 222c3 26 -16 38 -47 46zM250 34c169 0 240 179 240 327c0 115 -62 230 -210 230h-85l-31 -264h164l-4 -33h-164
l-28 -233c-4 -28 72 -27 118 -27z" />
    <glyph glyph-name="Dcaron" unicode="&#x10e;" horiz-adv-x="571" 
d="M313 694l-105 143h32l83 -78l106 78h30zM86 621h176c194 0 292 -83 292 -258c0 -139 -74 -363 -323 -363c-48 0 -110 9 -136 9c-30 0 -51 -6 -88 -9l5 29c41 10 59 26 62 49l57 471c3 26 -16 38 -47 46zM250 34c169 0 240 179 240 327c0 115 -62 230 -210 230h-85
l-63 -530c-4 -28 72 -27 118 -27z" />
    <glyph glyph-name="Dcroat" unicode="&#x110;" horiz-adv-x="575" 
d="M86 621h176c194 0 292 -83 292 -258c0 -139 -74 -363 -323 -363c-48 0 -110 9 -136 9c-30 0 -51 -6 -88 -9l5 29c41 10 59 26 62 49l26 216h-15l5 33h14l27 222c3 26 -16 38 -47 46zM250 34c169 0 240 179 240 327c0 115 -62 230 -210 230h-85l-31 -264h164l-4 -33h-164
l-28 -233c-4 -28 72 -27 118 -27z" />
    <glyph glyph-name="E" unicode="E" 
d="M439 112l25 -2c-18 -32 -28 -56 -39 -91c-6 -12 -17 -19 -29 -19h-377l3 15c30 13 44 19 49 58l59 481c5 39 -7 38 -34 50l3 17h373c12 0 17 -4 15 -19l-13 -96h-17l-10 35c-8 28 -23 52 -62 52h-180l-32 -261h163c30 0 39 30 55 61h12l-20 -153h-12c-8 32 -7 62 -37 62
h-165l-36 -277l209 2c44 0 48 29 69 54z" />
    <glyph glyph-name="Eacute" unicode="&#xc9;" 
d="M365 839l-124 -109c-9 -8 -10 -14 -7 -19c3 -6 10 -6 18 -1l137 78c30 17 34 33 27 50c-7 15 -30 20 -51 1zM439 112l25 -2c-18 -32 -28 -56 -39 -91c-6 -12 -17 -19 -29 -19h-377l3 15c30 13 44 19 49 58l59 481c5 39 -7 38 -34 50l3 17h373c12 0 17 -4 15 -19l-13 -96
h-17l-10 35c-8 28 -23 52 -62 52h-180l-32 -261h163c30 0 39 30 55 61h12l-20 -153h-12c-8 32 -7 62 -37 62h-165l-36 -277l209 2c44 0 48 29 69 54z" />
    <glyph glyph-name="Ecaron" unicode="&#x11a;" 
d="M293 694l-105 143h32l83 -78l106 78h30zM439 112l25 -2c-18 -32 -28 -56 -39 -91c-6 -12 -17 -19 -29 -19h-377l3 15c30 13 44 19 49 58l59 481c5 39 -7 38 -34 50l3 17h373c12 0 17 -4 15 -19l-13 -96h-17l-10 35c-8 28 -23 52 -62 52h-180l-32 -261h163
c30 0 39 30 55 61h12l-20 -153h-12c-8 32 -7 62 -37 62h-165l-36 -277l209 2c44 0 48 29 69 54z" />
    <glyph glyph-name="Ecircumflex" unicode="&#xca;" 
d="M309 842l124 -143h-34l-98 78l-117 -78h-34zM439 112l25 -2c-18 -32 -28 -56 -39 -91c-6 -12 -17 -19 -29 -19h-377l3 15c30 13 44 19 49 58l59 481c5 39 -7 38 -34 50l3 17h373c12 0 17 -4 15 -19l-13 -96h-17l-10 35c-8 28 -23 52 -62 52h-180l-32 -261h163
c30 0 39 30 55 61h12l-20 -153h-12c-8 32 -7 62 -37 62h-165l-36 -277l209 2c44 0 48 29 69 54z" />
    <glyph glyph-name="Edieresis" unicode="&#xcb;" 
d="M95 741c-21 0 -34 19 -34 42s17 46 40 46s37 -17 37 -39c0 -23 -13 -49 -43 -49zM518 741c-21 0 -34 19 -34 42s17 46 40 46c22 0 37 -17 37 -39c0 -24 -14 -49 -43 -49zM439 112l25 -2c-18 -32 -28 -56 -39 -91c-6 -12 -17 -19 -29 -19h-377l3 15c30 13 44 19 49 58
l59 481c5 39 -7 38 -34 50l3 17h373c12 0 17 -4 15 -19l-13 -96h-17l-10 35c-8 28 -23 52 -62 52h-180l-32 -261h163c30 0 39 30 55 61h12l-20 -153h-12c-8 32 -7 62 -37 62h-165l-36 -277l209 2c44 0 48 29 69 54z" />
    <glyph glyph-name="Edotaccent" unicode="&#x116;" 
d="M297 745c-23 0 -36 21 -36 44c0 25 17 50 42 50c23 0 38 -19 38 -42c0 -25 -14 -52 -44 -52zM439 112l25 -2c-18 -32 -28 -56 -39 -91c-6 -12 -17 -19 -29 -19h-377l3 15c30 13 44 19 49 58l59 481c5 39 -7 38 -34 50l3 17h373c12 0 17 -4 15 -19l-13 -96h-17l-10 35
c-8 28 -23 52 -62 52h-180l-32 -261h163c30 0 39 30 55 61h12l-20 -153h-12c-8 32 -7 62 -37 62h-165l-36 -277l209 2c44 0 48 29 69 54z" />
    <glyph glyph-name="Egrave" unicode="&#xc8;" 
d="M349 730l-124 109c-21 19 -44 14 -50 -1c-8 -17 -4 -33 26 -50l137 -78c8 -5 15 -5 18 1c3 5 3 11 -7 19zM439 112l25 -2c-18 -32 -28 -56 -39 -91c-6 -12 -17 -19 -29 -19h-377l3 15c30 13 44 19 49 58l59 481c5 39 -7 38 -34 50l3 17h373c12 0 17 -4 15 -19l-13 -96
h-17l-10 35c-8 28 -23 52 -62 52h-180l-32 -261h163c30 0 39 30 55 61h12l-20 -153h-12c-8 32 -7 62 -37 62h-165l-36 -277l209 2c44 0 48 29 69 54z" />
    <glyph glyph-name="Emacron" unicode="&#x112;" 
d="M170 796h-1c2 12 7 16 19 16h251c12 0 18 -7 15 -19h1c-1 -12 -7 -16 -19 -16h-251c-12 0 -18 7 -15 19zM439 112l25 -2c-18 -32 -28 -56 -39 -91c-6 -12 -17 -19 -29 -19h-377l3 15c30 13 44 19 49 58l59 481c5 39 -7 38 -34 50l3 17h373c12 0 17 -4 15 -19l-13 -96h-17
l-10 35c-8 28 -23 52 -62 52h-180l-32 -261h163c30 0 39 30 55 61h12l-20 -153h-12c-8 32 -7 62 -37 62h-165l-36 -277l209 2c44 0 48 29 69 54z" />
    <glyph glyph-name="Eogonek" unicode="&#x118;" 
d="M99 621h373c12 0 17 -4 15 -19l-13 -96h-17l-10 35c-8 28 -23 52 -62 52h-180l-32 -261h163c30 0 39 30 55 61h12l-20 -153h-12c-8 32 -7 62 -37 62h-165l-36 -277l209 2c44 0 48 29 69 54l28 31l25 -2c-18 -32 -28 -56 -39 -91c-6 -12 -17 -19 -29 -19h-59
c-71 -46 -83 -97 -83 -123c0 -21 19 -40 49 -40c39 0 70 22 88 53h19c-17 -31 -56 -89 -135 -89c-39 0 -82 21 -82 68c0 46 34 94 113 131h-287l3 15c30 13 44 19 49 58l59 481c5 39 -7 38 -34 50z" />
    <glyph glyph-name="Etilde" unicode="&#x1ebc;" 
d="M469 816l14 -3c-16 -62 -58 -94 -107 -94c-54 0 -85 68 -124 68s-66 -29 -68 -49l-12 3c-1 57 53 90 95 90c56 0 74 -58 128 -58c31 0 70 27 74 43zM439 112l25 -2c-18 -32 -28 -56 -39 -91c-6 -12 -17 -19 -29 -19h-377l3 15c30 13 44 19 49 58l59 481
c5 39 -7 38 -34 50l3 17h373c12 0 17 -4 15 -19l-13 -96h-17l-10 35c-8 28 -23 52 -62 52h-180l-32 -261h163c30 0 39 30 55 61h12l-20 -153h-12c-8 32 -7 62 -37 62h-165l-36 -277l209 2c44 0 48 29 69 54z" />
    <glyph glyph-name="F" unicode="F" horiz-adv-x="503" 
d="M496 619l15 -113h-19l-9 35c-7 33 -24 52 -63 52h-215l-32 -261h164c30 0 39 30 55 61h11l-19 -153h-14c-6 32 -5 62 -35 62h-166l-32 -239c-4 -40 9 -35 37 -48l-2 -15h-156l3 15c32 13 48 19 52 58l59 481c5 39 -4 38 -33 50l2 17h388c-1 0 9 -5 9 -2z" />
    <glyph glyph-name="G" unicode="G" horiz-adv-x="609" 
d="M513 414l-17 52c-30 90 -80 137 -157 137c-166 0 -221 -202 -221 -341c0 -161 81 -229 183 -229c88 0 141 58 146 98l12 94c3 20 -6 30 -24 30h-40l5 40l187 1l-5 -41h-27c-17 0 -30 -13 -31 -33l-29 -218c-2 -13 -22 -15 -22 -3l-11 75c-49 -46 -106 -82 -184 -82
c-139 0 -235 111 -235 274c0 148 89 369 295 369c84 0 126 -37 159 -91c19 1 30 39 37 75h26l-19 -196z" />
    <glyph glyph-name="Gbreve" unicode="&#x11e;" horiz-adv-x="609" 
d="M374 732c-73 0 -107 64 -102 122c0 5 4 7 7 7h6c7 0 10 -4 9 -15c-1 -26 23 -61 82 -61c60 0 95 37 103 69c1 5 3 7 9 7h5c5 0 10 -4 8 -15c-10 -53 -58 -114 -127 -114zM513 414l-17 52c-30 90 -80 137 -157 137c-166 0 -221 -202 -221 -341c0 -161 81 -229 183 -229
c88 0 141 58 146 98l12 94c3 20 -6 30 -24 30h-40l5 40l187 1l-5 -41h-27c-17 0 -30 -13 -31 -33l-29 -218c-2 -13 -22 -15 -22 -3l-11 75c-49 -46 -106 -82 -184 -82c-139 0 -235 111 -235 274c0 148 89 369 295 369c84 0 126 -37 159 -91c19 1 30 39 37 75h26l-19 -196z
" />
    <glyph glyph-name="Gcommaaccent" unicode="&#x122;" horiz-adv-x="609" 
d="M513 414l-17 52c-30 90 -80 137 -157 137c-166 0 -221 -202 -221 -341c0 -161 81 -229 183 -229c88 0 141 58 146 98l12 94c3 20 -6 30 -24 30h-40l5 40l187 1l-5 -41h-27c-17 0 -30 -13 -31 -33l-29 -218c-2 -13 -22 -15 -22 -3l-11 75c-49 -46 -106 -82 -184 -82
c-139 0 -235 111 -235 274c0 148 89 369 295 369c84 0 126 -37 159 -91c19 1 30 39 37 75h26l-19 -196zM288 -225c-9 -24 -29 -45 -48 -63c-5 -1 -9 2 -13 6l-10 11c14 15 25 29 33 46c5 13 9 22 8 29c-6 -5 -12 -5 -21 -3c-21 3 -37 27 -29 56c6 25 30 42 52 39
c25 -2 38 -27 39 -50c2 -21 -1 -43 -11 -71z" />
    <glyph glyph-name="Gdotaccent" unicode="&#x120;" horiz-adv-x="609" 
d="M350 745c-23 0 -36 21 -36 44c0 25 17 50 42 50c23 0 38 -19 38 -42c0 -25 -14 -52 -44 -52zM513 414l-17 52c-30 90 -80 137 -157 137c-166 0 -221 -202 -221 -341c0 -161 81 -229 183 -229c88 0 141 58 146 98l12 94c3 20 -6 30 -24 30h-40l5 40l187 1l-5 -41h-27
c-17 0 -30 -13 -31 -33l-29 -218c-2 -13 -22 -15 -22 -3l-11 75c-49 -46 -106 -82 -184 -82c-139 0 -235 111 -235 274c0 148 89 369 295 369c84 0 126 -37 159 -91c19 1 30 39 37 75h26l-19 -196z" />
    <glyph glyph-name="H" unicode="H" horiz-adv-x="601" 
d="M472 621h155l-2 -18c-40 -8 -50 -13 -54 -49l-61 -487c-5 -40 8 -39 39 -50l-3 -17h-153l3 17c33 11 44 14 49 48l29 234h-310l-29 -232c-5 -40 8 -39 39 -50l-3 -17h-153l3 17c33 11 44 14 49 48l61 487c5 41 -5 40 -37 51l3 18h155l-2 -18c-40 -8 -50 -13 -54 -49
l-28 -227h310l28 225c5 41 -5 40 -37 51z" />
    <glyph glyph-name="Hbar" unicode="&#x126;" horiz-adv-x="602" 
d="M472 621h155l-2 -18c-40 -8 -50 -13 -54 -49l-61 -487c-5 -40 8 -39 39 -50l-3 -17h-153l3 17c33 11 44 14 49 48l29 234h-310l-29 -232c-5 -40 8 -39 39 -50l-3 -17h-153l3 17c33 11 44 14 49 48l61 487c5 41 -5 40 -37 51l3 18h155l-2 -18c-40 -8 -50 -13 -54 -49
l-16 -131h310l16 129c5 41 -5 40 -37 51zM168 327h310l7 52h-310z" />
    <glyph glyph-name="I" unicode="I" horiz-adv-x="226" 
d="M184 553l-61 -486c-4 -40 8 -39 39 -50l-2 -17h-154l3 17c33 11 45 14 49 48l61 486c5 40 -4 39 -36 50l2 20h155l-2 -20c-40 -7 -49 -13 -54 -48z" />
    <glyph glyph-name="IJ" unicode="&#x132;" horiz-adv-x="492" 
d="M184 553l-61 -486c-4 -40 8 -39 39 -50l-2 -17h-154l3 17c33 11 45 14 49 48l61 486c5 40 -4 39 -36 50l2 20h155l-2 -20c-40 -7 -49 -13 -54 -48zM522 621l-3 -20c-40 -7 -49 -13 -54 -48l-72 -574c-14 -102 -36 -141 -117 -141c-82 0 -101 54 -101 91c0 35 14 52 35 52
c26 0 38 -19 38 -37c0 -26 -7 -81 31 -81c32 0 41 31 44 47l79 641c5 40 -6 39 -38 50l3 20h155z" />
    <glyph glyph-name="Iacute" unicode="&#xcd;" horiz-adv-x="226" 
d="M241 839l-124 -109c-9 -8 -10 -14 -7 -19c3 -6 10 -6 18 -1l137 78c30 17 34 33 27 50c-7 15 -30 20 -51 1zM184 553l-61 -486c-4 -40 8 -39 39 -50l-2 -17h-154l3 17c33 11 45 14 49 48l61 486c5 40 -4 39 -36 50l2 20h155l-2 -20c-40 -7 -49 -13 -54 -48z" />
    <glyph glyph-name="Icircumflex" unicode="&#xce;" horiz-adv-x="226" 
d="M186 842l124 -143h-34l-98 78l-117 -78h-34zM184 553l-61 -486c-4 -40 8 -39 39 -50l-2 -17h-154l3 17c33 11 45 14 49 48l61 486c5 40 -4 39 -36 50l2 20h155l-2 -20c-40 -7 -49 -13 -54 -48z" />
    <glyph glyph-name="Idieresis" unicode="&#xcf;" horiz-adv-x="226" 
d="M-29 741c-21 0 -34 19 -34 42s17 46 40 46s37 -17 37 -39c0 -23 -13 -49 -43 -49zM394 741c-21 0 -34 19 -34 42s17 46 40 46c22 0 37 -17 37 -39c0 -24 -14 -49 -43 -49zM184 553l-61 -486c-4 -40 8 -39 39 -50l-2 -17h-154l3 17c33 11 45 14 49 48l61 486
c5 40 -4 39 -36 50l2 20h155l-2 -20c-40 -7 -49 -13 -54 -48z" />
    <glyph glyph-name="Idotaccent" unicode="&#x130;" horiz-adv-x="226" 
d="M174 745c-23 0 -36 21 -36 44c0 25 17 50 42 50c23 0 38 -19 38 -42c0 -25 -14 -52 -44 -52zM184 553l-61 -486c-4 -40 8 -39 39 -50l-2 -17h-154l3 17c33 11 45 14 49 48l61 486c5 40 -4 39 -36 50l2 20h155l-2 -20c-40 -7 -49 -13 -54 -48z" />
    <glyph glyph-name="Igrave" unicode="&#xcc;" horiz-adv-x="226" 
d="M226 730l-124 109c-21 19 -44 14 -50 -1c-8 -17 -4 -33 26 -50l137 -78c8 -5 15 -5 18 1c3 5 3 11 -7 19zM184 553l-61 -486c-4 -40 8 -39 39 -50l-2 -17h-154l3 17c33 11 45 14 49 48l61 486c5 40 -4 39 -36 50l2 20h155l-2 -20c-40 -7 -49 -13 -54 -48z" />
    <glyph glyph-name="Imacron" unicode="&#x12a;" horiz-adv-x="226" 
d="M47 796h-1c2 12 7 16 19 16h251c12 0 18 -7 15 -19h1c-1 -12 -7 -16 -19 -16h-251c-12 0 -18 7 -15 19zM184 553l-61 -486c-4 -40 8 -39 39 -50l-2 -17h-154l3 17c33 11 45 14 49 48l61 486c5 40 -4 39 -36 50l2 20h155l-2 -20c-40 -7 -49 -13 -54 -48z" />
    <glyph glyph-name="Iogonek" unicode="&#x12e;" horiz-adv-x="226" 
d="M85 621h155l-2 -20c-40 -7 -49 -13 -54 -48l-61 -486c-4 -40 8 -39 39 -50l-2 -17h-63c-71 -46 -83 -97 -83 -123c0 -21 19 -40 49 -40c39 0 70 22 88 53h19c-17 -31 -56 -89 -135 -89c-39 0 -82 21 -82 68c0 46 34 94 113 131h-60l3 17c33 11 45 14 49 48l61 486
c5 40 -4 39 -36 50z" />
    <glyph glyph-name="J" unicode="J" horiz-adv-x="266" 
d="M296 621l-3 -20c-40 -7 -49 -13 -54 -48l-72 -574c-14 -102 -36 -141 -117 -141c-82 0 -101 54 -101 91c0 35 14 52 35 52c26 0 38 -19 38 -37c0 -26 -7 -81 31 -81c32 0 41 31 44 47l79 641c5 40 -6 39 -38 50l3 20h155z" />
    <glyph glyph-name="K" unicode="K" horiz-adv-x="556" 
d="M546 621l-3 -19c-24 -3 -49 -9 -70 -29l-228 -238l161 -240c44 -67 72 -72 98 -80v-15h-182l3 18c26 7 48 14 37 30l-166 251h-36l-29 -232c-4 -40 8 -39 39 -50l-2 -17h-154l3 17c33 11 45 14 49 48l61 487c5 41 -4 40 -36 51l2 18h155l-2 -18c-40 -8 -50 -13 -54 -49
l-27 -215h13c15 0 33 10 45 23l203 214c19 19 -3 23 -20 26l2 19h138z" />
    <glyph glyph-name="Kcommaaccent" unicode="&#x136;" horiz-adv-x="556" 
d="M546 621l-3 -19c-24 -3 -49 -9 -70 -29l-228 -238l161 -240c44 -67 72 -72 98 -80v-15h-182l3 18c26 7 48 14 37 30l-166 251h-36l-29 -232c-4 -40 8 -39 39 -50l-2 -17h-154l3 17c33 11 45 14 49 48l61 487c5 41 -4 40 -36 51l2 18h155l-2 -18c-40 -8 -50 -13 -54 -49
l-27 -215h13c15 0 33 10 45 23l203 214c19 19 -3 23 -20 26l2 19h138zM225 -104c25 -2 38 -27 39 -50c2 -21 -1 -43 -11 -71c-9 -24 -29 -45 -48 -63c-5 -1 -9 2 -13 6l-10 11c14 15 25 29 33 46c5 13 9 22 8 29c-6 -5 -12 -5 -21 -3c-21 3 -37 27 -29 56c6 25 30 42 52 39z
" />
    <glyph glyph-name="L" unicode="L" horiz-adv-x="476" 
d="M451 106l-32 -84c-5 -15 -17 -22 -29 -22h-382l4 15c33 13 43 11 49 50l61 489c4 39 -8 38 -35 49l2 18h154l-3 -18c-32 -9 -47 -13 -52 -52l-60 -478c-5 -37 7 -42 21 -41l181 8c39 2 58 7 76 35l20 31h25z" />
    <glyph glyph-name="Lacute" unicode="&#x139;" horiz-adv-x="476" 
d="M245 839l-124 -109c-9 -8 -10 -14 -7 -19c3 -6 10 -6 18 -1l137 78c30 17 34 33 27 50c-7 15 -30 20 -51 1zM451 106l-32 -84c-5 -15 -17 -22 -29 -22h-382l4 15c33 13 43 11 49 50l61 489c4 39 -8 38 -35 49l2 18h154l-3 -18c-32 -9 -47 -13 -52 -52l-60 -478
c-5 -37 7 -42 21 -41l181 8c39 2 58 7 76 35l20 31h25z" />
    <glyph glyph-name="Lcaron" unicode="&#x13d;" horiz-adv-x="479" 
d="M451 106l-32 -84c-5 -15 -17 -22 -29 -22h-382l4 15c33 13 43 11 49 50l61 489c4 39 -8 38 -35 49l2 18h154l-3 -18c-32 -9 -47 -13 -52 -52l-60 -478c-5 -37 7 -42 21 -41l181 8c39 2 58 7 76 35l20 31h25zM363 499c-9 -24 -28 -46 -48 -63c-4 -2 -8 1 -13 6l-9 11
c14 15 25 29 33 46c4 12 8 22 7 29c-6 -5 -11 -6 -20 -4c-22 3 -37 27 -30 56c6 26 30 42 52 40c25 -2 38 -27 40 -50c1 -22 -1 -43 -12 -71z" />
    <glyph glyph-name="Lcommaaccent" unicode="&#x13b;" horiz-adv-x="476" 
d="M451 106l-32 -84c-5 -15 -17 -22 -29 -22h-382l4 15c33 13 43 11 49 50l61 489c4 39 -8 38 -35 49l2 18h154l-3 -18c-32 -9 -47 -13 -52 -52l-60 -478c-5 -37 7 -42 21 -41l181 8c39 2 58 7 76 35l20 31h25zM222 -225c-9 -24 -29 -45 -48 -63c-5 -1 -9 2 -13 6l-10 11
c14 15 25 29 33 46c5 13 9 22 8 29c-6 -5 -12 -5 -21 -3c-21 3 -37 27 -29 56c6 25 30 42 52 39c25 -2 38 -27 39 -50c2 -21 -1 -43 -11 -71z" />
    <glyph glyph-name="Ldot" unicode="&#x13f;" horiz-adv-x="479" 
d="M451 106l-32 -84c-5 -15 -17 -22 -29 -22h-382l4 15c33 13 43 11 49 50l61 489c4 39 -8 38 -35 49l2 18h154l-3 -18c-32 -9 -47 -13 -52 -52l-60 -478c-5 -37 7 -42 21 -41l181 8c39 2 58 7 76 35l20 31h25zM306 343c-25 0 -43 24 -38 56c2 24 25 45 47 45
c25 0 43 -24 40 -54c-4 -25 -27 -47 -49 -47z" />
    <glyph glyph-name="Lslash" unicode="&#x141;" horiz-adv-x="486" 
d="M433 106h24l-32 -84c-5 -15 -17 -22 -29 -22h-381l4 15c32 13 42 11 49 50l24 199l-54 -18l6 34l53 17l31 257c5 39 -7 38 -35 49l2 18h154l-3 -18c-31 -9 -46 -13 -51 -52l-29 -231l217 72l-8 -33l-213 -71l-27 -215c-5 -37 7 -42 21 -41l181 8c39 2 58 7 75 35z" />
    <glyph glyph-name="M" unicode="M" horiz-adv-x="723" 
d="M735 621l-2 -17c-33 -12 -43 -27 -48 -66l-61 -474c-4 -39 3 -40 33 -52v-12h-147v15c29 13 46 13 51 52l59 465l-269 -477c-15 -26 -11 -26 -21 0l-176 487l-60 -478c-4 -39 11 -40 37 -52l-1 -12h-122l1 15c32 13 47 13 52 52l61 474c4 39 -6 54 -36 67l-1 13h107
l173 -470l266 470h104z" />
    <glyph glyph-name="N" unicode="N" horiz-adv-x="588" 
d="M474 621h137l-1 -18c-50 -11 -53 -27 -56 -50l-72 -553l-323 535l-58 -471c-3 -23 10 -38 41 -49l-2 -15h-131l2 15c35 14 54 29 57 52l62 488c3 23 -9 37 -42 48l3 18h95l282 -470l50 404c3 23 -12 37 -46 48z" />
    <glyph glyph-name="Nacute" unicode="&#x143;" horiz-adv-x="588" 
d="M430 788l-137 -78c-8 -5 -15 -5 -18 1c-3 5 -2 11 7 19l124 109c21 19 44 14 51 -1c7 -17 3 -33 -27 -50zM474 621h137l-1 -18c-50 -11 -53 -27 -56 -50l-72 -553l-323 535l-58 -471c-3 -23 10 -38 41 -49l-2 -15h-131l2 15c35 14 54 29 57 52l62 488c3 23 -9 37 -42 48
l3 18h95l282 -470l50 404c3 23 -12 37 -46 48z" />
    <glyph glyph-name="Ncaron" unicode="&#x147;" horiz-adv-x="588" 
d="M481 837l-146 -143l-105 143h32l83 -78l106 78h30zM474 621h137l-1 -18c-50 -11 -53 -27 -56 -50l-72 -553l-323 535l-58 -471c-3 -23 10 -38 41 -49l-2 -15h-131l2 15c35 14 54 29 57 52l62 488c3 23 -9 37 -42 48l3 18h95l282 -470l50 404c3 23 -12 37 -46 48z" />
    <glyph glyph-name="Ncommaaccent" unicode="&#x145;" horiz-adv-x="588" 
d="M474 621h137l-1 -18c-50 -11 -53 -27 -56 -50l-72 -553l-323 535l-58 -471c-3 -23 10 -38 41 -49l-2 -15h-131l2 15c35 14 54 29 57 52l62 488c3 23 -9 37 -42 48l3 18h95l282 -470l50 404c3 23 -12 37 -46 48zM275 -104c25 -2 38 -27 39 -50c2 -21 -1 -43 -11 -71
c-9 -24 -29 -45 -48 -63c-5 -1 -9 2 -13 6l-10 11c14 15 25 29 33 46c5 13 9 22 8 29c-6 -5 -12 -5 -21 -3c-21 3 -37 27 -29 56c6 25 30 42 52 39z" />
    <glyph glyph-name="Eng" unicode="&#x14a;" horiz-adv-x="590" 
d="M474 621h137l-1 -18c-50 -11 -53 -27 -56 -50l-69 -534l-3 -20l-2 -17c-11 -98 -55 -135 -121 -135c-59 0 -75 36 -75 60c0 25 9 42 37 42c11 0 18 -3 18 -13c0 -24 9 -63 38 -63c20 0 37 15 42 52l19 148l-279 462l-58 -471c-3 -23 10 -38 41 -49l-2 -15h-131l2 15
c35 14 54 29 57 52l62 488c3 23 -9 37 -42 48l3 18h95l282 -470l50 404c3 23 -12 37 -46 48z" />
    <glyph glyph-name="Ntilde" unicode="&#xd1;" horiz-adv-x="588" 
d="M226 738l-12 3c-1 57 53 90 95 90c56 0 74 -58 128 -58c31 0 70 27 74 43l14 -3c-16 -62 -58 -94 -107 -94c-54 0 -85 68 -124 68s-66 -29 -68 -49zM474 621h137l-1 -18c-50 -11 -53 -27 -56 -50l-72 -553l-323 535l-58 -471c-3 -23 10 -38 41 -49l-2 -15h-131l2 15
c35 14 54 29 57 52l62 488c3 23 -9 37 -42 48l3 18h95l282 -470l50 404c3 23 -12 37 -46 48z" />
    <glyph glyph-name="O" unicode="O" horiz-adv-x="569" 
d="M264 -6c-138 0 -219 125 -219 274c0 150 82 369 296 369c135 0 218 -116 218 -267c0 -145 -84 -376 -295 -376zM273 31c175 0 214 200 214 333c0 162 -78 240 -162 240c-167 0 -208 -189 -208 -330c0 -170 74 -243 156 -243z" />
    <glyph glyph-name="Oacute" unicode="&#xd3;" horiz-adv-x="569" 
d="M422 839l-124 -109c-9 -8 -10 -14 -7 -19c3 -6 10 -6 18 -1l137 78c30 17 34 33 27 50c-7 15 -30 20 -51 1zM264 -6c-138 0 -219 125 -219 274c0 150 82 369 296 369c135 0 218 -116 218 -267c0 -145 -84 -376 -295 -376zM273 31c175 0 214 200 214 333
c0 162 -78 240 -162 240c-167 0 -208 -189 -208 -330c0 -170 74 -243 156 -243z" />
    <glyph glyph-name="Ocircumflex" unicode="&#xd4;" horiz-adv-x="569" 
d="M367 842l124 -143h-34l-98 78l-117 -78h-34zM264 -6c-138 0 -219 125 -219 274c0 150 82 369 296 369c135 0 218 -116 218 -267c0 -145 -84 -376 -295 -376zM273 31c175 0 214 200 214 333c0 162 -78 240 -162 240c-167 0 -208 -189 -208 -330c0 -170 74 -243 156 -243z
" />
    <glyph glyph-name="Odieresis" unicode="&#xd6;" horiz-adv-x="569" 
d="M152 741c-21 0 -34 19 -34 42s17 46 40 46s37 -17 37 -39c0 -23 -13 -49 -43 -49zM575 741c-21 0 -34 19 -34 42s17 46 40 46c22 0 37 -17 37 -39c0 -24 -14 -49 -43 -49zM264 -6c-138 0 -219 125 -219 274c0 150 82 369 296 369c135 0 218 -116 218 -267
c0 -145 -84 -376 -295 -376zM273 31c175 0 214 200 214 333c0 162 -78 240 -162 240c-167 0 -208 -189 -208 -330c0 -170 74 -243 156 -243z" />
    <glyph glyph-name="Ograve" unicode="&#xd2;" horiz-adv-x="569" 
d="M407 730l-124 109c-21 19 -44 14 -50 -1c-8 -17 -4 -33 26 -50l137 -78c8 -5 15 -5 18 1c3 5 3 11 -7 19zM264 -6c-138 0 -219 125 -219 274c0 150 82 369 296 369c135 0 218 -116 218 -267c0 -145 -84 -376 -295 -376zM273 31c175 0 214 200 214 333
c0 162 -78 240 -162 240c-167 0 -208 -189 -208 -330c0 -170 74 -243 156 -243z" />
    <glyph glyph-name="Ohungarumlaut" unicode="&#x150;" horiz-adv-x="569" 
d="M301 839l-124 -109c-9 -8 -10 -14 -7 -19c3 -6 10 -6 18 -1l137 78c30 17 34 33 27 50c-7 15 -30 20 -51 1zM492 839l-124 -109c-9 -8 -10 -14 -7 -19c3 -6 10 -6 18 -1l137 78c30 17 34 33 27 50c-7 15 -30 20 -51 1zM264 -6c-138 0 -219 125 -219 274
c0 150 82 369 296 369c135 0 218 -116 218 -267c0 -145 -84 -376 -295 -376zM273 31c175 0 214 200 214 333c0 162 -78 240 -162 240c-167 0 -208 -189 -208 -330c0 -170 74 -243 156 -243z" />
    <glyph glyph-name="Omacron" unicode="&#x14c;" horiz-adv-x="569" 
d="M228 796h-1c2 12 7 16 19 16h251c12 0 18 -7 15 -19h1c-1 -12 -7 -16 -19 -16h-251c-12 0 -18 7 -15 19zM264 -6c-138 0 -219 125 -219 274c0 150 82 369 296 369c135 0 218 -116 218 -267c0 -145 -84 -376 -295 -376zM273 31c175 0 214 200 214 333
c0 162 -78 240 -162 240c-167 0 -208 -189 -208 -330c0 -170 74 -243 156 -243z" />
    <glyph glyph-name="Oslash" unicode="&#xd8;" horiz-adv-x="571" 
d="M544 618l-43 -59c38 -48 58 -114 58 -189c0 -145 -84 -376 -295 -376c-54 0 -100 19 -135 52l-41 -56l-23 19l43 59c-41 51 -63 122 -63 200c0 150 82 369 296 369c57 0 104 -20 140 -55l40 55zM117 274c0 -65 11 -116 29 -154l300 413c-31 48 -75 71 -121 71
c-167 0 -208 -189 -208 -330zM273 31c175 0 214 200 214 333c0 57 -10 104 -26 140l-299 -412c29 -42 69 -61 111 -61z" />
    <glyph glyph-name="Otilde" unicode="&#xd5;" horiz-adv-x="569" 
d="M526 816l14 -3c-16 -62 -58 -94 -107 -94c-54 0 -85 68 -124 68s-66 -29 -68 -49l-12 3c-1 57 53 90 95 90c56 0 74 -58 128 -58c31 0 70 27 74 43zM264 -6c-138 0 -219 125 -219 274c0 150 82 369 296 369c135 0 218 -116 218 -267c0 -145 -84 -376 -295 -376zM273 31
c175 0 214 200 214 333c0 162 -78 240 -162 240c-167 0 -208 -189 -208 -330c0 -170 74 -243 156 -243z" />
    <glyph glyph-name="OE" unicode="&#x152;" horiz-adv-x="829" 
d="M425 621h374c12 0 16 -4 14 -19l-12 -96h-18l-10 35c-7 28 -23 52 -62 52h-180l-32 -261h164c29 0 38 30 54 61h13l-20 -153h-13c-8 32 -7 62 -37 62h-164l-37 -277l209 2c44 0 48 29 69 54l28 31l26 -2c-18 -32 -29 -56 -40 -91c-6 -12 -16 -19 -28 -19h-376
c-27 -10 -55 -15 -84 -15c-153 0 -239 157 -214 335c22 176 142 317 290 317c32 0 61 -6 86 -16zM257 19c56 0 103 14 139 49l1 5l55 449c-29 53 -71 83 -110 83c-107 0 -193 -40 -221 -263c-25 -206 53 -323 136 -323z" />
    <glyph glyph-name="P" unicode="P" horiz-adv-x="498" 
d="M87 621h228c117 0 198 -73 182 -195c-14 -115 -113 -178 -236 -178h-113l-24 -185c-5 -40 11 -39 38 -51l1 -12h-155l1 15c32 13 49 11 53 50l63 489c5 39 -11 38 -41 50zM421 434c12 84 -9 156 -94 156h-136l-40 -318h120c101 0 139 73 150 162z" />
    <glyph glyph-name="Thorn" unicode="&#xde;" horiz-adv-x="487" 
d="M179 553l-61 -486c-4 -40 8 -39 39 -50l-2 -17h-154l3 17c33 11 45 14 49 48l61 486c5 40 -4 39 -36 50l2 20h155l-2 -20c-40 -7 -49 -13 -54 -48zM179 512h111c138 0 205 -79 191 -199c-15 -110 -98 -178 -236 -178h-114l3 23h122c111 0 136 62 149 157
c10 90 2 170 -105 170h-124z" />
    <glyph glyph-name="Q" unicode="Q" horiz-adv-x="619" 
d="M530 -20c24 -1 31 -17 29 -44c-8 -56 -60 -102 -115 -102c-33 0 -69 18 -109 47l-108 90c-50 39 -112 17 -120 -32c-2 -18 -17 -33 -30 -33c-15 0 -27 18 -23 44c4 39 37 72 76 87c-55 50 -86 132 -86 224c0 150 82 369 296 369c135 0 218 -116 218 -267
c0 -139 -78 -359 -272 -375l97 -92c47 -46 110 -5 116 40c3 24 11 44 31 44zM116 267c0 -170 74 -243 156 -243c175 0 214 200 214 333c0 162 -78 240 -162 240c-167 0 -208 -189 -208 -330z" />
    <glyph glyph-name="R" unicode="R" horiz-adv-x="552" 
d="M511 21l-2 -21h-43c-65 0 -109 44 -116 166c-7 92 -18 128 -155 128h-43l-28 -233c-4 -39 11 -34 38 -40l-1 -21h-148l2 21c32 9 50 4 54 45l57 484c3 23 -18 39 -51 45l4 26h227c122 0 194 -72 181 -174c-9 -73 -78 -129 -168 -148c75 -19 92 -71 98 -135
c6 -55 29 -135 94 -143zM156 319h97c108 0 153 68 161 136c8 69 -19 138 -106 138h-119z" />
    <glyph glyph-name="Racute" unicode="&#x154;" horiz-adv-x="552" 
d="M367 839l-124 -109c-9 -8 -10 -14 -7 -19c3 -6 10 -6 18 -1l137 78c30 17 34 33 27 50c-7 15 -30 20 -51 1zM511 21l-2 -21h-43c-65 0 -109 44 -116 166c-7 92 -18 128 -155 128h-43l-28 -233c-4 -39 11 -34 38 -40l-1 -21h-148l2 21c32 9 50 4 54 45l57 484
c3 23 -18 39 -51 45l4 26h227c122 0 194 -72 181 -174c-9 -73 -78 -129 -168 -148c75 -19 92 -71 98 -135c6 -55 29 -135 94 -143zM156 319h97c108 0 153 68 161 136c8 69 -19 138 -106 138h-119z" />
    <glyph glyph-name="Rcaron" unicode="&#x158;" horiz-adv-x="552" 
d="M295 694l-105 143h32l83 -78l106 78h30zM511 21l-2 -21h-43c-65 0 -109 44 -116 166c-7 92 -18 128 -155 128h-43l-28 -233c-4 -39 11 -34 38 -40l-1 -21h-148l2 21c32 9 50 4 54 45l57 484c3 23 -18 39 -51 45l4 26h227c122 0 194 -72 181 -174
c-9 -73 -78 -129 -168 -148c75 -19 92 -71 98 -135c6 -55 29 -135 94 -143zM156 319h97c108 0 153 68 161 136c8 69 -19 138 -106 138h-119z" />
    <glyph glyph-name="Rcommaaccent" unicode="&#x156;" horiz-adv-x="552" 
d="M511 21l-2 -21h-43c-65 0 -109 44 -116 166c-7 92 -18 128 -155 128h-43l-28 -233c-4 -39 11 -34 38 -40l-1 -21h-148l2 21c32 9 50 4 54 45l57 484c3 23 -18 39 -51 45l4 26h227c122 0 194 -72 181 -174c-9 -73 -78 -129 -168 -148c75 -19 92 -71 98 -135
c6 -55 29 -135 94 -143zM156 319h97c108 0 153 68 161 136c8 69 -19 138 -106 138h-119zM262 -225c-9 -24 -29 -45 -48 -63c-5 -1 -9 2 -13 6l-10 11c14 15 25 29 33 46c5 13 9 22 8 29c-6 -5 -12 -5 -21 -3c-21 3 -37 27 -29 56c6 25 30 42 52 39c25 -2 38 -27 39 -50
c2 -21 -1 -43 -11 -71z" />
    <glyph glyph-name="S" unicode="S" horiz-adv-x="476" 
d="M450 433h-22c-12 0 -17 6 -17 16v38c0 66 -66 121 -136 121c-84 0 -134 -59 -134 -127c0 -77 73 -91 116 -114c48 -25 187 -56 187 -188c0 -134 -127 -191 -219 -191c-98 0 -125 40 -196 40l19 157h21c15 0 18 -5 18 -20c0 -83 26 -146 135 -146c64 0 150 29 150 140
c0 88 -73 111 -135 140c-61 28 -161 57 -161 168c0 90 72 170 203 170c116 0 144 -62 187 -76z" />
    <glyph glyph-name="Sacute" unicode="&#x15a;" horiz-adv-x="476" 
d="M358 839l-124 -109c-9 -8 -10 -14 -7 -19c3 -6 10 -6 18 -1l137 78c30 17 34 33 27 50c-7 15 -30 20 -51 1zM450 433h-22c-12 0 -17 6 -17 16v38c0 66 -66 121 -136 121c-84 0 -134 -59 -134 -127c0 -77 73 -91 116 -114c48 -25 187 -56 187 -188
c0 -134 -127 -191 -219 -191c-98 0 -125 40 -196 40l19 157h21c15 0 18 -5 18 -20c0 -83 26 -146 135 -146c64 0 150 29 150 140c0 88 -73 111 -135 140c-61 28 -161 57 -161 168c0 90 72 170 203 170c116 0 144 -62 187 -76z" />
    <glyph glyph-name="Scaron" unicode="&#x160;" horiz-adv-x="476" 
d="M287 694l-105 143h32l83 -78l106 78h30zM450 433h-22c-12 0 -17 6 -17 16v38c0 66 -66 121 -136 121c-84 0 -134 -59 -134 -127c0 -77 73 -91 116 -114c48 -25 187 -56 187 -188c0 -134 -127 -191 -219 -191c-98 0 -125 40 -196 40l19 157h21c15 0 18 -5 18 -20
c0 -83 26 -146 135 -146c64 0 150 29 150 140c0 88 -73 111 -135 140c-61 28 -161 57 -161 168c0 90 72 170 203 170c116 0 144 -62 187 -76z" />
    <glyph glyph-name="Scedilla" unicode="&#x15e;" horiz-adv-x="476" 
d="M450 433h-22c-12 0 -17 6 -17 16v38c0 66 -66 121 -136 121c-84 0 -134 -59 -134 -127c0 -77 73 -91 116 -114c48 -25 187 -56 187 -188c0 -133 -126 -190 -218 -191l-19 -35c49 17 103 -24 84 -91c-16 -56 -63 -66 -109 -63c-45 3 -72 24 -73 59c-2 28 24 42 46 18
c2 -19 -1 -51 26 -54c35 -3 62 20 68 53c8 30 -8 54 -44 48c-17 -1 -29 -4 -35 -6c-11 -1 -16 16 -8 29l26 44c-69 8 -98 38 -159 38l19 157h21c15 0 18 -5 18 -20c0 -83 26 -146 135 -146c64 0 150 29 150 140c0 88 -73 111 -135 140c-61 28 -161 57 -161 168
c0 90 72 170 203 170c116 0 144 -62 187 -76z" />
    <glyph glyph-name="Scommaaccent" unicode="&#x218;" horiz-adv-x="476" 
d="M450 433h-22c-12 0 -17 6 -17 16v38c0 66 -66 121 -136 121c-84 0 -134 -59 -134 -127c0 -77 73 -91 116 -114c48 -25 187 -56 187 -188c0 -134 -127 -191 -219 -191c-98 0 -125 40 -196 40l19 157h21c15 0 18 -5 18 -20c0 -83 26 -146 135 -146c64 0 150 29 150 140
c0 88 -73 111 -135 140c-61 28 -161 57 -161 168c0 90 72 170 203 170c116 0 144 -62 187 -76zM220 -225c-9 -24 -29 -45 -48 -63c-5 -1 -9 2 -13 6l-10 11c14 15 25 29 33 46c5 13 9 22 8 29c-6 -5 -12 -5 -21 -3c-21 3 -37 27 -29 56c6 25 30 42 52 39
c25 -2 38 -27 39 -50c2 -21 -1 -43 -11 -71z" />
    <glyph glyph-name="T" unicode="T" horiz-adv-x="503" 
d="M508 660c15 0 29 -9 29 -29c0 -32 -21 -59 -92 -59c-16 0 -53 3 -97 7l-64 -514c-4 -41 13 -36 92 -47l-1 -18h-252l3 18c71 14 88 10 92 47l65 520c-54 5 -107 9 -133 9c-33 0 -40 -15 -40 -30c7 0 23 -8 23 -29c0 -19 -15 -30 -34 -30c-21 0 -43 18 -43 42
c0 44 33 79 105 79c48 0 241 -21 295 -21c33 0 48 14 48 16c-6 -2 -18 7 -18 21c0 11 11 18 22 18z" />
    <glyph glyph-name="Tbar" unicode="&#x166;" horiz-adv-x="503" 
d="M508 660c15 0 29 -9 29 -29c0 -32 -21 -59 -92 -59c-16 0 -53 3 -97 7l-15 -127h94c12 0 18 -7 15 -19h1c-1 -12 -7 -16 -19 -16h-96l-44 -352c-4 -41 13 -36 92 -47l-1 -18h-252l3 18c71 14 88 10 92 47l44 352h-89c-12 0 -18 7 -16 19s7 16 19 16h91l16 133
c-54 5 -107 9 -133 9c-33 0 -40 -15 -40 -30c7 0 23 -8 23 -29c0 -19 -15 -30 -34 -30c-21 0 -43 18 -43 42c0 44 33 79 105 79c48 0 241 -21 295 -21c33 0 48 14 48 16c-6 -2 -18 7 -18 21c0 11 11 18 22 18z" />
    <glyph glyph-name="Tcaron" unicode="&#x164;" horiz-adv-x="503" 
d="M484 837l-146 -143l-105 143h32l83 -78l106 78h30zM508 660c15 0 29 -9 29 -29c0 -32 -21 -59 -92 -59c-16 0 -53 3 -97 7l-64 -514c-4 -41 13 -36 92 -47l-1 -18h-252l3 18c71 14 88 10 92 47l65 520c-54 5 -107 9 -133 9c-33 0 -40 -15 -40 -30c7 0 23 -8 23 -29
c0 -19 -15 -30 -34 -30c-21 0 -43 18 -43 42c0 44 33 79 105 79c48 0 241 -21 295 -21c33 0 48 14 48 16c-6 -2 -18 7 -18 21c0 11 11 18 22 18z" />
    <glyph glyph-name="Tcedilla" unicode="&#x162;" horiz-adv-x="503" 
d="M508 660c15 0 29 -9 29 -29c0 -32 -21 -59 -92 -59c-16 0 -53 3 -97 7l-64 -514c-4 -41 13 -36 92 -47l-1 -18h-118l-26 -47c49 17 103 -24 84 -91c-16 -56 -63 -66 -109 -63c-45 3 -72 24 -73 59c-2 28 24 42 46 18c2 -19 -1 -51 26 -54c35 -3 62 20 68 53
c8 30 -8 54 -44 48c-17 -1 -29 -4 -35 -6c-11 -1 -16 16 -8 29c10 16 21 36 31 54h-94l3 18c71 14 88 10 92 47l65 520c-54 5 -107 9 -133 9c-33 0 -40 -15 -40 -30c7 0 23 -8 23 -29c0 -19 -15 -30 -34 -30c-21 0 -43 18 -43 42c0 44 33 79 105 79c48 0 241 -21 295 -21
c33 0 48 14 48 16c-6 -2 -18 7 -18 21c0 11 11 18 22 18z" />
    <glyph glyph-name="uni021A" unicode="&#x21a;" horiz-adv-x="503" 
d="M508 660c15 0 29 -9 29 -29c0 -32 -21 -59 -92 -59c-16 0 -53 3 -97 7l-64 -514c-4 -41 13 -36 92 -47l-1 -18h-252l3 18c71 14 88 10 92 47l65 520c-54 5 -107 9 -133 9c-33 0 -40 -15 -40 -30c7 0 23 -8 23 -29c0 -19 -15 -30 -34 -30c-21 0 -43 18 -43 42
c0 44 33 79 105 79c48 0 241 -21 295 -21c33 0 48 14 48 16c-6 -2 -18 7 -18 21c0 11 11 18 22 18zM216 -104c25 -2 38 -27 39 -50c2 -21 -1 -43 -11 -71c-9 -24 -29 -45 -48 -63c-5 -1 -9 2 -13 6l-10 11c14 15 25 29 33 46c5 13 9 22 8 29c-6 -5 -12 -5 -21 -3
c-21 3 -37 27 -29 56c6 25 30 42 52 39z" />
    <glyph glyph-name="U" unicode="U" horiz-adv-x="573" 
d="M593 621l-3 -20c-23 -4 -43 -10 -46 -33l-39 -315c-20 -161 -105 -262 -231 -262c-152 0 -213 104 -193 258l40 322c3 23 -13 26 -35 30l3 20h149l-3 -20c-22 -4 -43 -10 -47 -33l-34 -269c-26 -202 20 -275 119 -275c74 0 162 56 183 219l41 328c3 23 -13 26 -37 30
l3 20h130z" />
    <glyph glyph-name="Uacute" unicode="&#xda;" horiz-adv-x="573" 
d="M424 839l-124 -109c-9 -8 -10 -14 -7 -19c3 -6 10 -6 18 -1l137 78c30 17 34 33 27 50c-7 15 -30 20 -51 1zM593 621l-3 -20c-23 -4 -43 -10 -46 -33l-39 -315c-20 -161 -105 -262 -231 -262c-152 0 -213 104 -193 258l40 322c3 23 -13 26 -35 30l3 20h149l-3 -20
c-22 -4 -43 -10 -47 -33l-34 -269c-26 -202 20 -275 119 -275c74 0 162 56 183 219l41 328c3 23 -13 26 -37 30l3 20h130z" />
    <glyph glyph-name="Ucircumflex" unicode="&#xdb;" horiz-adv-x="573" 
d="M369 842l124 -143h-34l-98 78l-117 -78h-34zM593 621l-3 -20c-23 -4 -43 -10 -46 -33l-39 -315c-20 -161 -105 -262 -231 -262c-152 0 -213 104 -193 258l40 322c3 23 -13 26 -35 30l3 20h149l-3 -20c-22 -4 -43 -10 -47 -33l-34 -269c-26 -202 20 -275 119 -275
c74 0 162 56 183 219l41 328c3 23 -13 26 -37 30l3 20h130z" />
    <glyph glyph-name="Udieresis" unicode="&#xdc;" horiz-adv-x="573" 
d="M154 741c-21 0 -34 19 -34 42s17 46 40 46s37 -17 37 -39c0 -23 -13 -49 -43 -49zM577 741c-21 0 -34 19 -34 42s17 46 40 46c22 0 37 -17 37 -39c0 -24 -14 -49 -43 -49zM593 621l-3 -20c-23 -4 -43 -10 -46 -33l-39 -315c-20 -161 -105 -262 -231 -262
c-152 0 -213 104 -193 258l40 322c3 23 -13 26 -35 30l3 20h149l-3 -20c-22 -4 -43 -10 -47 -33l-34 -269c-26 -202 20 -275 119 -275c74 0 162 56 183 219l41 328c3 23 -13 26 -37 30l3 20h130z" />
    <glyph glyph-name="Ugrave" unicode="&#xd9;" horiz-adv-x="573" 
d="M409 730l-124 109c-21 19 -44 14 -50 -1c-8 -17 -4 -33 26 -50l137 -78c8 -5 15 -5 18 1c3 5 3 11 -7 19zM593 621l-3 -20c-23 -4 -43 -10 -46 -33l-39 -315c-20 -161 -105 -262 -231 -262c-152 0 -213 104 -193 258l40 322c3 23 -13 26 -35 30l3 20h149l-3 -20
c-22 -4 -43 -10 -47 -33l-34 -269c-26 -202 20 -275 119 -275c74 0 162 56 183 219l41 328c3 23 -13 26 -37 30l3 20h130z" />
    <glyph glyph-name="Uhungarumlaut" unicode="&#x170;" horiz-adv-x="573" 
d="M303 839l-124 -109c-9 -8 -10 -14 -7 -19c3 -6 10 -6 18 -1l137 78c30 17 34 33 27 50c-7 15 -30 20 -51 1zM494 839l-124 -109c-9 -8 -10 -14 -7 -19c3 -6 10 -6 18 -1l137 78c30 17 34 33 27 50c-7 15 -30 20 -51 1zM593 621l-3 -20c-23 -4 -43 -10 -46 -33l-39 -315
c-20 -161 -105 -262 -231 -262c-152 0 -213 104 -193 258l40 322c3 23 -13 26 -35 30l3 20h149l-3 -20c-22 -4 -43 -10 -47 -33l-34 -269c-26 -202 20 -275 119 -275c74 0 162 56 183 219l41 328c3 23 -13 26 -37 30l3 20h130z" />
    <glyph glyph-name="Umacron" unicode="&#x16a;" horiz-adv-x="573" 
d="M230 796h-1c2 12 7 16 19 16h251c12 0 18 -7 15 -19h1c-1 -12 -7 -16 -19 -16h-251c-12 0 -18 7 -15 19zM593 621l-3 -20c-23 -4 -43 -10 -46 -33l-39 -315c-20 -161 -105 -262 -231 -262c-152 0 -213 104 -193 258l40 322c3 23 -13 26 -35 30l3 20h149l-3 -20
c-22 -4 -43 -10 -47 -33l-34 -269c-26 -202 20 -275 119 -275c74 0 162 56 183 219l41 328c3 23 -13 26 -37 30l3 20h130z" />
    <glyph glyph-name="Uogonek" unicode="&#x172;" horiz-adv-x="573" 
d="M463 621h130l-3 -20c-23 -4 -43 -10 -46 -33l-39 -315c-16 -131 -76 -223 -166 -252h2c-73 -46 -85 -98 -85 -124c0 -21 19 -40 49 -40c39 0 70 22 88 53h19c-17 -31 -56 -89 -135 -89c-39 0 -82 21 -82 68c0 42 29 87 96 123l-17 -1c-152 0 -213 104 -193 258l40 322
c3 23 -13 26 -35 30l3 20h149l-3 -20c-22 -4 -43 -10 -47 -33l-34 -269c-26 -202 20 -275 119 -275c74 0 162 56 183 219l41 328c3 23 -13 26 -37 30z" />
    <glyph glyph-name="Uring" unicode="&#x16e;" horiz-adv-x="573" 
d="M359 728c-38 0 -66 30 -66 71c0 46 39 89 81 89c39 0 67 -31 67 -74c0 -42 -41 -86 -82 -86zM363 754c21 0 42 18 42 55c0 38 -14 53 -33 53c-21 0 -40 -19 -40 -57c0 -34 8 -51 31 -51zM593 621l-3 -20c-23 -4 -43 -10 -46 -33l-39 -315c-20 -161 -105 -262 -231 -262
c-152 0 -213 104 -193 258l40 322c3 23 -13 26 -35 30l3 20h149l-3 -20c-22 -4 -43 -10 -47 -33l-34 -269c-26 -202 20 -275 119 -275c74 0 162 56 183 219l41 328c3 23 -13 26 -37 30l3 20h130z" />
    <glyph glyph-name="V" unicode="V" horiz-adv-x="597" 
d="M630 621l-3 -20c-38 -4 -47 -15 -66 -54l-278 -552h-2c-14 0 -24 8 -26 25l-126 505c-16 65 -30 72 -68 76l3 20h175l-4 -20c-39 -4 -52 -11 -51 -28l115 -466l232 459c11 24 -13 31 -46 35l3 20h142z" />
    <glyph glyph-name="W" unicode="W" horiz-adv-x="840" 
d="M724 621h141l-5 -19c-37 -7 -49 -19 -66 -58l-240 -549h-2c-13 0 -21 8 -25 25l-90 404l-175 -429h-1c-14 0 -21 8 -24 25l-113 502c-15 64 -26 73 -64 80l4 19h152l-4 -19c-26 -7 -37 -15 -32 -32l100 -450l145 358l-10 44c-15 64 -25 73 -63 80l2 19h153l-4 -19
c-27 -7 -38 -15 -33 -32l100 -450l189 443c10 24 -5 32 -38 39z" />
    <glyph glyph-name="Wacute" unicode="&#x1e82;" horiz-adv-x="840" 
d="M552 788l-137 -78c-8 -5 -15 -5 -18 1c-3 5 -2 11 7 19l124 109c21 19 44 14 51 -1c7 -17 3 -33 -27 -50zM724 621h141l-5 -19c-37 -7 -49 -19 -66 -58l-240 -549h-2c-13 0 -21 8 -25 25l-90 404l-175 -429h-1c-14 0 -21 8 -24 25l-113 502c-15 64 -26 73 -64 80l4 19
h152l-4 -19c-26 -7 -37 -15 -32 -32l100 -450l145 358l-10 44c-15 64 -25 73 -63 80l2 19h153l-4 -19c-27 -7 -38 -15 -33 -32l100 -450l189 443c10 24 -5 32 -38 39z" />
    <glyph glyph-name="Wcircumflex" unicode="&#x174;" horiz-adv-x="840" 
d="M465 777l-117 -78h-34l159 143l124 -143h-34zM724 621h141l-5 -19c-37 -7 -49 -19 -66 -58l-240 -549h-2c-13 0 -21 8 -25 25l-90 404l-175 -429h-1c-14 0 -21 8 -24 25l-113 502c-15 64 -26 73 -64 80l4 19h152l-4 -19c-26 -7 -37 -15 -32 -32l100 -450l145 358l-10 44
c-15 64 -25 73 -63 80l2 19h153l-4 -19c-27 -7 -38 -15 -33 -32l100 -450l189 443c10 24 -5 32 -38 39z" />
    <glyph glyph-name="Wdieresis" unicode="&#x1e84;" horiz-adv-x="840" 
d="M258 741c-21 0 -34 19 -34 42s17 46 40 46s37 -17 37 -39c0 -23 -13 -49 -43 -49zM681 741c-21 0 -34 19 -34 42s17 46 40 46c22 0 37 -17 37 -39c0 -24 -14 -49 -43 -49zM724 621h141l-5 -19c-37 -7 -49 -19 -66 -58l-240 -549h-2c-13 0 -21 8 -25 25l-90 404l-175 -429
h-1c-14 0 -21 8 -24 25l-113 502c-15 64 -26 73 -64 80l4 19h152l-4 -19c-26 -7 -37 -15 -32 -32l100 -450l145 358l-10 44c-15 64 -25 73 -63 80l2 19h153l-4 -19c-27 -7 -38 -15 -33 -32l100 -450l189 443c10 24 -5 32 -38 39z" />
    <glyph glyph-name="Wgrave" unicode="&#x1e80;" horiz-adv-x="840" 
d="M502 710l-137 78c-30 17 -34 33 -26 50c6 15 29 20 50 1l124 -109c10 -8 10 -14 7 -19c-3 -6 -10 -6 -18 -1zM724 621h141l-5 -19c-37 -7 -49 -19 -66 -58l-240 -549h-2c-13 0 -21 8 -25 25l-90 404l-175 -429h-1c-14 0 -21 8 -24 25l-113 502c-15 64 -26 73 -64 80l4 19
h152l-4 -19c-26 -7 -37 -15 -32 -32l100 -450l145 358l-10 44c-15 64 -25 73 -63 80l2 19h153l-4 -19c-27 -7 -38 -15 -33 -32l100 -450l189 443c10 24 -5 32 -38 39z" />
    <glyph glyph-name="X" unicode="X" horiz-adv-x="604" 
d="M598 621l-3 -19c-37 -5 -52 -27 -79 -59l-168 -206l134 -236c33 -59 30 -77 70 -81l-1 -20h-161l1 20c26 4 51 17 42 34l-129 228l-181 -222c-20 -25 2 -36 35 -40l-1 -20h-150l3 20c37 4 61 23 90 60l187 231l-119 211c-31 54 -32 75 -70 80l1 19h161l-1 -19
c-27 -5 -50 -19 -43 -33l115 -203l160 197c16 21 -5 34 -40 39l1 19h146z" />
    <glyph glyph-name="Y" unicode="Y" horiz-adv-x="571" 
d="M455 621h146l-3 -18c-36 -5 -53 -25 -81 -61l-184 -244l-29 -247c-4 -23 28 -27 58 -32l-1 -19h-189l2 19c33 5 68 12 71 35l28 225l-118 242c-28 58 -33 77 -72 82l1 18h164l-2 -18c-26 -5 -46 -19 -39 -35l116 -233l166 227c17 23 -2 36 -35 41z" />
    <glyph glyph-name="Yacute" unicode="&#xdd;" horiz-adv-x="571" 
d="M455 788l-137 -78c-8 -5 -15 -5 -18 1c-3 5 -2 11 7 19l124 109c21 19 44 14 51 -1c7 -17 3 -33 -27 -50zM455 621h146l-3 -18c-36 -5 -53 -25 -81 -61l-184 -244l-29 -247c-4 -23 28 -27 58 -32l-1 -19h-189l2 19c33 5 68 12 71 35l28 225l-118 242
c-28 58 -33 77 -72 82l1 18h164l-2 -18c-26 -5 -46 -19 -39 -35l116 -233l166 227c17 23 -2 36 -35 41z" />
    <glyph glyph-name="Ycircumflex" unicode="&#x176;" horiz-adv-x="571" 
d="M368 777l-117 -78h-34l159 143l124 -143h-34zM455 621h146l-3 -18c-36 -5 -53 -25 -81 -61l-184 -244l-29 -247c-4 -23 28 -27 58 -32l-1 -19h-189l2 19c33 5 68 12 71 35l28 225l-118 242c-28 58 -33 77 -72 82l1 18h164l-2 -18c-26 -5 -46 -19 -39 -35l116 -233
l166 227c17 23 -2 36 -35 41z" />
    <glyph glyph-name="Ydieresis" unicode="&#x178;" horiz-adv-x="571" 
d="M161 741c-21 0 -34 19 -34 42s17 46 40 46s37 -17 37 -39c0 -23 -13 -49 -43 -49zM590 829c22 0 37 -17 37 -39c0 -24 -14 -49 -43 -49c-21 0 -34 19 -34 42s17 46 40 46zM454 603l1 18h146l-3 -18c-36 -5 -53 -25 -81 -61l-184 -244l-29 -247c-4 -23 28 -27 58 -32
l-1 -19h-189l2 19c33 5 68 12 71 35l28 225l-118 242c-28 58 -33 77 -72 82l1 18h164l-2 -18c-26 -5 -46 -19 -39 -35l116 -233l166 227c17 23 -2 36 -35 41z" />
    <glyph glyph-name="Ygrave" unicode="&#x1ef2;" horiz-adv-x="571" 
d="M405 710l-137 78c-30 17 -34 33 -26 50c6 15 29 20 50 1l124 -109c10 -8 10 -14 7 -19c-3 -6 -10 -6 -18 -1zM455 621h146l-3 -18c-36 -5 -53 -25 -81 -61l-184 -244l-29 -247c-4 -23 28 -27 58 -32l-1 -19h-189l2 19c33 5 68 12 71 35l28 225l-118 242
c-28 58 -33 77 -72 82l1 18h164l-2 -18c-26 -5 -46 -19 -39 -35l116 -233l166 227c17 23 -2 36 -35 41z" />
    <glyph glyph-name="Z" unicode="Z" horiz-adv-x="550" 
d="M498 107l-33 -107h-412c-23 0 -29 29 -12 51l419 537l-309 -4c-16 0 -25 -18 -28 -33l-16 -43h-14l28 113h440l-461 -588l331 5c17 0 25 15 33 32l19 37h15z" />
    <glyph glyph-name="Zacute" unicode="&#x179;" horiz-adv-x="550" 
d="M402 839l-124 -109c-9 -8 -10 -14 -7 -19c3 -6 10 -6 18 -1l137 78c30 17 34 33 27 50c-7 15 -30 20 -51 1zM498 107l-33 -107h-412c-23 0 -29 29 -12 51l419 537l-309 -4c-16 0 -25 -18 -28 -33l-16 -43h-14l28 113h440l-461 -588l331 5c17 0 25 15 33 32l19 37h15z" />
    <glyph glyph-name="Zcaron" unicode="&#x17d;" horiz-adv-x="550" 
d="M330 694l-105 143h32l83 -78l106 78h30zM498 107l-33 -107h-412c-23 0 -29 29 -12 51l419 537l-309 -4c-16 0 -25 -18 -28 -33l-16 -43h-14l28 113h440l-461 -588l331 5c17 0 25 15 33 32l19 37h15z" />
    <glyph glyph-name="Zdotaccent" unicode="&#x17b;" horiz-adv-x="550" 
d="M334 745c-23 0 -36 21 -36 44c0 25 17 50 42 50c23 0 38 -19 38 -42c0 -25 -14 -52 -44 -52zM498 107l-33 -107h-412c-23 0 -29 29 -12 51l419 537l-309 -4c-16 0 -25 -18 -28 -33l-16 -43h-14l28 113h440l-461 -588l331 5c17 0 25 15 33 32l19 37h15z" />
    <glyph glyph-name="a" unicode="a" horiz-adv-x="465" 
d="M428 451l-47 -365c-4 -33 10 -75 59 -34l-10 -32c-28 -16 -41 -20 -52 -20c-44 0 -64 35 -60 72v2c-28 -45 -82 -80 -135 -80c-96 0 -156 82 -156 196c0 104 64 272 210 272c47 0 104 -32 125 -69l8 58h58zM192 30c57 0 118 43 133 94l30 217l-1 -2
c-18 50 -55 89 -119 89c-108 0 -143 -143 -143 -234c0 -94 38 -164 100 -164z" />
    <glyph glyph-name="aacute" unicode="&#xe1;" horiz-adv-x="465" 
d="M359 618l-137 -78c-8 -5 -15 -5 -18 1c-3 5 -2 11 7 19l124 109c21 19 44 14 51 -1c7 -17 3 -33 -27 -50zM428 451l-47 -365c-4 -33 10 -75 59 -34l-10 -32c-28 -16 -41 -20 -52 -20c-44 0 -64 35 -60 72v2c-28 -45 -82 -80 -135 -80c-96 0 -156 82 -156 196
c0 104 64 272 210 272c47 0 104 -32 125 -69l8 58h58zM192 30c57 0 118 43 133 94l30 217l-1 -2c-18 50 -55 89 -119 89c-108 0 -143 -143 -143 -234c0 -94 38 -164 100 -164z" />
    <glyph glyph-name="abreve" unicode="&#x103;" horiz-adv-x="465" 
d="M292 562c-73 0 -107 64 -102 122c0 5 4 7 7 7h6c7 0 10 -4 9 -15c-1 -26 23 -61 82 -61c60 0 95 37 103 69c1 5 3 7 9 7h5c5 0 10 -4 8 -15c-10 -53 -58 -114 -127 -114zM428 451l-47 -365c-4 -33 10 -75 59 -34l-10 -32c-28 -16 -41 -20 -52 -20c-44 0 -64 35 -60 72v2
c-28 -45 -82 -80 -135 -80c-96 0 -156 82 -156 196c0 104 64 272 210 272c47 0 104 -32 125 -69l8 58h58zM192 30c57 0 118 43 133 94l30 217l-1 -2c-18 50 -55 89 -119 89c-108 0 -143 -143 -143 -234c0 -94 38 -164 100 -164z" />
    <glyph glyph-name="acircumflex" unicode="&#xe2;" horiz-adv-x="465" 
d="M272 607l-117 -78h-34l159 143l124 -143h-34zM428 451l-47 -365c-4 -33 10 -75 59 -34l-10 -32c-28 -16 -41 -20 -52 -20c-44 0 -64 35 -60 72v2c-28 -45 -82 -80 -135 -80c-96 0 -156 82 -156 196c0 104 64 272 210 272c47 0 104 -32 125 -69l8 58h58zM192 30
c57 0 118 43 133 94l30 217l-1 -2c-18 50 -55 89 -119 89c-108 0 -143 -143 -143 -234c0 -94 38 -164 100 -164z" />
    <glyph glyph-name="adieresis" unicode="&#xe4;" horiz-adv-x="465" 
d="M65 571c-21 0 -34 19 -34 42s17 46 40 46s37 -17 37 -39c0 -23 -13 -49 -43 -49zM494 659c22 0 37 -17 37 -39c0 -24 -14 -49 -43 -49c-21 0 -34 19 -34 42s17 46 40 46zM428 451l-47 -365c-4 -33 10 -75 59 -34l-10 -32c-28 -16 -41 -20 -52 -20c-44 0 -64 35 -60 72v2
c-28 -45 -82 -80 -135 -80c-96 0 -156 82 -156 196c0 104 64 272 210 272c47 0 104 -32 125 -69l8 58h58zM192 30c57 0 118 43 133 94l30 217l-1 -2c-18 50 -55 89 -119 89c-108 0 -143 -143 -143 -234c0 -94 38 -164 100 -164z" />
    <glyph glyph-name="agrave" unicode="&#xe0;" horiz-adv-x="465" 
d="M309 540l-137 78c-30 17 -34 33 -26 50c6 15 29 20 50 1l124 -109c10 -8 10 -14 7 -19c-3 -6 -10 -6 -18 -1zM428 451l-47 -365c-4 -33 10 -75 59 -34l-10 -32c-28 -16 -41 -20 -52 -20c-44 0 -64 35 -60 72v2c-28 -45 -82 -80 -135 -80c-96 0 -156 82 -156 196
c0 104 64 272 210 272c47 0 104 -32 125 -69l8 58h58zM192 30c57 0 118 43 133 94l30 217l-1 -2c-18 50 -55 89 -119 89c-108 0 -143 -143 -143 -234c0 -94 38 -164 100 -164z" />
    <glyph glyph-name="amacron" unicode="&#x101;" horiz-adv-x="465" 
d="M407 607h-251c-12 0 -18 7 -15 19h-1c2 12 7 16 19 16h251c12 0 18 -7 15 -19h1c-1 -12 -7 -16 -19 -16zM428 451l-47 -365c-4 -33 10 -75 59 -34l-10 -32c-28 -16 -41 -20 -52 -20c-44 0 -64 35 -60 72v2c-28 -45 -82 -80 -135 -80c-96 0 -156 82 -156 196
c0 104 64 272 210 272c47 0 104 -32 125 -69l8 58h58zM192 30c57 0 118 43 133 94l30 217l-1 -2c-18 50 -55 89 -119 89c-108 0 -143 -143 -143 -234c0 -94 38 -164 100 -164z" />
    <glyph glyph-name="aogonek" unicode="&#x105;" horiz-adv-x="465" 
d="M383 0c-120 -35 -121 -85 -121 -106c0 -26 21 -44 48 -44c40 0 66 23 83 54h19c-16 -32 -56 -89 -134 -89c-34 0 -78 24 -78 65c0 39 18 88 153 124c-26 11 -38 39 -35 68v2c-28 -45 -82 -80 -135 -80c-96 0 -156 82 -156 196c0 104 64 272 210 272c47 0 104 -32 125 -69
l8 58h58l-47 -365c-4 -33 10 -75 59 -34l-10 -32c-24 -13 -36 -18 -47 -20zM192 30c57 0 118 43 133 94l30 217l-1 -2c-18 50 -55 89 -119 89c-108 0 -143 -143 -143 -234c0 -94 38 -164 100 -164z" />
    <glyph glyph-name="aring" unicode="&#xe5;" horiz-adv-x="465" 
d="M270 558c-38 0 -66 30 -66 71c0 46 39 89 81 89c39 0 67 -31 67 -74c0 -42 -41 -86 -82 -86zM283 692c-21 0 -40 -19 -40 -57c0 -34 8 -51 31 -51c21 0 42 18 42 55c0 38 -14 53 -33 53zM428 451l-47 -365c-4 -33 10 -75 59 -34l-10 -32c-28 -16 -41 -20 -52 -20
c-44 0 -64 35 -60 72v2c-28 -45 -82 -80 -135 -80c-96 0 -156 82 -156 196c0 104 64 272 210 272c47 0 104 -32 125 -69l8 58h58zM192 30c57 0 118 43 133 94l30 217l-1 -2c-18 50 -55 89 -119 89c-108 0 -143 -143 -143 -234c0 -94 38 -164 100 -164z" />
    <glyph glyph-name="atilde" unicode="&#xe3;" horiz-adv-x="465" 
d="M154 568l-12 3c-1 57 53 90 95 90c56 0 74 -58 128 -58c31 0 70 27 74 43l14 -3c-16 -62 -58 -94 -107 -94c-54 0 -85 68 -124 68s-66 -29 -68 -49zM428 451l-47 -365c-4 -33 10 -75 59 -34l-10 -32c-28 -16 -41 -20 -52 -20c-44 0 -64 35 -60 72v2
c-28 -45 -82 -80 -135 -80c-96 0 -156 82 -156 196c0 104 64 272 210 272c47 0 104 -32 125 -69l8 58h58zM192 30c57 0 118 43 133 94l30 217l-1 -2c-18 50 -55 89 -119 89c-108 0 -143 -143 -143 -234c0 -94 38 -164 100 -164z" />
    <glyph glyph-name="ae" unicode="&#xe6;" horiz-adv-x="668" 
d="M505 221l-146 -23c-3 -69 15 -168 113 -168c66 0 111 36 142 75l11 -30c-26 -33 -77 -81 -169 -81c-66 0 -117 36 -144 94c-42 -69 -111 -94 -178 -95c-66 -1 -128 42 -118 118c10 69 59 129 283 163l2 10c15 117 -21 158 -134 130c-28 -6 -22 -47 -31 -80
c-8 -15 -28 -24 -47 -17c-21 4 -27 21 -16 60c16 43 83 74 134 79c84 8 130 -20 148 -68c34 43 84 74 152 74c93 0 140 -69 140 -139c0 -76 -47 -85 -142 -102zM498 427c-75 0 -127 -88 -137 -196l199 30c18 2 24 33 24 60c0 51 -26 106 -86 106zM279 123l14 97
c1 10 3 21 5 31c-175 -28 -215 -99 -220 -151c-6 -44 22 -73 69 -73c71 0 105 53 132 96z" />
    <glyph glyph-name="b" unicode="b" horiz-adv-x="469" 
d="M293 462c86 0 145 -64 145 -185c0 -129 -102 -283 -246 -283c-89 0 -146 39 -134 133l57 447c3 32 -20 39 -62 39l4 24c56 0 98 13 127 20l-22 -183c-3 -29 -10 -71 -27 -117l19 25c26 30 72 80 139 80zM202 25c130 0 174 140 174 240c0 94 -36 153 -89 153
c-58 0 -90 -34 -144 -95l-26 -204c-7 -57 17 -94 85 -94z" />
    <glyph glyph-name="c" unicode="c" horiz-adv-x="394" 
d="M351 90c-21 -37 -67 -96 -167 -96c-87 0 -156 81 -156 196c0 113 80 272 223 272c94 0 125 -55 125 -117c0 -20 0 -45 -35 -45c-21 0 -36 8 -33 33c2 19 5 36 5 47c0 31 -17 48 -60 48c-118 0 -162 -136 -162 -235c0 -94 39 -158 123 -158c74 0 106 76 114 76
c7 0 16 -6 23 -21z" />
    <glyph glyph-name="cacute" unicode="&#x107;" horiz-adv-x="394" 
d="M333 684l-124 -109c-9 -8 -10 -14 -7 -19c3 -6 10 -6 18 -1l137 78c30 17 34 33 27 50c-7 15 -30 20 -51 1zM351 90c-21 -37 -67 -96 -167 -96c-87 0 -156 81 -156 196c0 113 80 272 223 272c94 0 125 -55 125 -117c0 -20 0 -45 -35 -45c-21 0 -36 8 -33 33
c2 19 5 36 5 47c0 31 -17 48 -60 48c-118 0 -162 -136 -162 -235c0 -94 39 -158 123 -158c74 0 106 76 114 76c7 0 16 -6 23 -21z" />
    <glyph glyph-name="ccaron" unicode="&#x10d;" horiz-adv-x="394" 
d="M262 539l-105 143h32l83 -78l106 78h30zM351 90c-21 -37 -67 -96 -167 -96c-87 0 -156 81 -156 196c0 113 80 272 223 272c94 0 125 -55 125 -117c0 -20 0 -45 -35 -45c-21 0 -36 8 -33 33c2 19 5 36 5 47c0 31 -17 48 -60 48c-118 0 -162 -136 -162 -235
c0 -94 39 -158 123 -158c74 0 106 76 114 76c7 0 16 -6 23 -21z" />
    <glyph glyph-name="ccedilla" unicode="&#xe7;" horiz-adv-x="394" 
d="M351 90c-21 -37 -67 -96 -167 -96c-87 0 -156 81 -156 196c0 113 80 272 223 272c94 0 125 -55 125 -117c0 -20 0 -45 -35 -45c-21 0 -36 8 -33 33c2 19 5 36 5 47c0 31 -17 48 -60 48c-118 0 -162 -136 -162 -235c0 -94 39 -158 123 -158c74 0 106 76 114 76
c7 0 16 -6 23 -21zM114 -134c2 -19 -1 -51 26 -54c35 -3 62 20 68 53c8 30 -8 54 -44 48c-17 -1 -29 -4 -35 -6c-11 -1 -16 16 -8 29c10 16 21 36 31 54h40l-26 -47c49 17 103 -24 84 -91c-16 -56 -63 -66 -109 -63c-45 3 -72 24 -73 59c-2 28 24 42 46 18z" />
    <glyph glyph-name="cdotaccent" unicode="&#x10b;" horiz-adv-x="394" 
d="M266 590c-23 0 -36 21 -36 44c0 25 17 50 42 50c23 0 38 -19 38 -42c0 -25 -14 -52 -44 -52zM351 90c-21 -37 -67 -96 -167 -96c-87 0 -156 81 -156 196c0 113 80 272 223 272c94 0 125 -55 125 -117c0 -20 0 -45 -35 -45c-21 0 -36 8 -33 33c2 19 5 36 5 47
c0 31 -17 48 -60 48c-118 0 -162 -136 -162 -235c0 -94 39 -158 123 -158c74 0 106 76 114 76c7 0 16 -6 23 -21z" />
    <glyph glyph-name="d" unicode="d" horiz-adv-x="470" 
d="M456 657l-73 -571c-4 -33 8 -75 56 -34l-10 -32c-28 -16 -40 -20 -51 -20c-44 0 -63 35 -59 72l1 8c-26 -48 -80 -86 -135 -86c-96 0 -159 82 -159 196c0 104 65 272 208 272c51 0 107 -33 127 -71l24 183c4 32 -20 39 -62 39l4 24c57 0 100 13 129 20zM328 138l26 201
c-19 50 -57 89 -124 89c-112 0 -141 -149 -141 -234c0 -94 39 -164 105 -164c58 0 127 51 134 108z" />
    <glyph glyph-name="eth" unicode="&#xf0;" horiz-adv-x="485" 
d="M498 588l-93 -28c10 -31 14 -73 7 -127l-13 -95c-30 -234 -97 -344 -223 -344c-112 0 -152 78 -133 241c20 147 78 227 160 227c74 0 118 -55 137 -80l10 90c4 29 6 53 5 73l-95 -29l-2 23l95 29c-8 54 -40 61 -78 64l-27 2l1 23c23 -1 108 2 147 -76l99 30zM333 316
c1 19 -31 106 -117 106c-56 0 -99 -65 -116 -195c-18 -144 10 -203 74 -203c102 0 137 128 159 292z" />
    <glyph glyph-name="dcaron" unicode="&#x10f;" horiz-adv-x="571" 
d="M456 657l-73 -571c-4 -33 8 -75 56 -34l-10 -32c-28 -16 -40 -20 -51 -20c-44 0 -63 35 -59 72l1 8c-26 -48 -80 -86 -135 -86c-96 0 -159 82 -159 196c0 104 65 272 208 272c51 0 107 -33 127 -71l24 183c4 32 -20 39 -62 39l4 24c57 0 100 13 129 20zM599 605
c1 -21 -1 -43 -12 -71c-9 -24 -28 -45 -48 -63c-4 -1 -8 2 -12 6l-10 11c14 15 25 29 33 46c4 13 8 22 8 29c-6 -5 -12 -5 -21 -3c-22 3 -37 27 -29 56c5 25 30 42 52 39c24 -2 38 -27 39 -50zM328 138l26 201c-19 50 -57 89 -124 89c-112 0 -141 -149 -141 -234
c0 -94 39 -164 105 -164c58 0 127 51 134 108z" />
    <glyph glyph-name="dcroat" unicode="&#x111;" horiz-adv-x="514" 
d="M531 508c-1 -12 -7 -16 -19 -16h-77l-52 -406c-4 -33 8 -75 56 -34l-10 -32c-28 -16 -40 -20 -51 -20c-44 0 -63 35 -59 72l1 8c-26 -48 -80 -86 -135 -86c-96 0 -159 82 -159 196c0 104 65 272 208 272c51 0 107 -33 127 -71l13 101h-113c-12 0 -18 7 -16 19s7 16 19 16
h115l6 47c4 32 -20 39 -62 39l4 24c57 0 100 13 129 20l-17 -130h76c12 0 18 -7 16 -19zM328 138l26 201c-19 50 -57 89 -124 89c-112 0 -141 -149 -141 -234c0 -94 39 -164 105 -164c58 0 127 51 134 108z" />
    <glyph glyph-name="e" unicode="e" horiz-adv-x="404" 
d="M379 323c0 -76 -48 -85 -143 -102l-146 -23c-2 -69 15 -168 114 -168c65 0 110 36 141 75l11 -30c-25 -33 -76 -81 -169 -81c-98 0 -164 81 -164 196c0 104 55 272 215 272c94 0 141 -69 141 -139zM92 231l199 30c18 2 24 33 24 60c0 51 -25 106 -86 106
c-74 0 -126 -88 -137 -196z" />
    <glyph glyph-name="eacute" unicode="&#xe9;" horiz-adv-x="404" 
d="M333 680l-124 -109c-9 -8 -10 -14 -7 -19c3 -6 10 -6 18 -1l137 78c30 17 34 33 27 50c-7 15 -30 20 -51 1zM379 323c0 -76 -48 -85 -143 -102l-146 -23c-2 -69 15 -168 114 -168c65 0 110 36 141 75l11 -30c-25 -33 -76 -81 -169 -81c-98 0 -164 81 -164 196
c0 104 55 272 215 272c94 0 141 -69 141 -139zM92 231l199 30c18 2 24 33 24 60c0 51 -25 106 -86 106c-74 0 -126 -88 -137 -196z" />
    <glyph glyph-name="ecaron" unicode="&#x11b;" horiz-adv-x="404" 
d="M262 535l-105 143h32l83 -78l106 78h30zM379 323c0 -76 -48 -85 -143 -102l-146 -23c-2 -69 15 -168 114 -168c65 0 110 36 141 75l11 -30c-25 -33 -76 -81 -169 -81c-98 0 -164 81 -164 196c0 104 55 272 215 272c94 0 141 -69 141 -139zM92 231l199 30
c18 2 24 33 24 60c0 51 -25 106 -86 106c-74 0 -126 -88 -137 -196z" />
    <glyph glyph-name="ecircumflex" unicode="&#xea;" horiz-adv-x="404" 
d="M278 683l124 -143h-34l-98 78l-117 -78h-34zM379 323c0 -76 -48 -85 -143 -102l-146 -23c-2 -69 15 -168 114 -168c65 0 110 36 141 75l11 -30c-25 -33 -76 -81 -169 -81c-98 0 -164 81 -164 196c0 104 55 272 215 272c94 0 141 -69 141 -139zM92 231l199 30
c18 2 24 33 24 60c0 51 -25 106 -86 106c-74 0 -126 -88 -137 -196z" />
    <glyph glyph-name="edieresis" unicode="&#xeb;" horiz-adv-x="404" 
d="M63 582c-21 0 -34 19 -34 42s17 46 40 46s37 -17 37 -39c0 -23 -13 -49 -43 -49zM486 582c-21 0 -34 19 -34 42s17 46 40 46c22 0 37 -17 37 -39c0 -24 -14 -49 -43 -49zM379 323c0 -76 -48 -85 -143 -102l-146 -23c-2 -69 15 -168 114 -168c65 0 110 36 141 75l11 -30
c-25 -33 -76 -81 -169 -81c-98 0 -164 81 -164 196c0 104 55 272 215 272c94 0 141 -69 141 -139zM92 231l199 30c18 2 24 33 24 60c0 51 -25 106 -86 106c-74 0 -126 -88 -137 -196z" />
    <glyph glyph-name="edotaccent" unicode="&#x117;" horiz-adv-x="404" 
d="M266 586c-23 0 -36 21 -36 44c0 25 17 50 42 50c23 0 38 -19 38 -42c0 -25 -14 -52 -44 -52zM379 323c0 -76 -48 -85 -143 -102l-146 -23c-2 -69 15 -168 114 -168c65 0 110 36 141 75l11 -30c-25 -33 -76 -81 -169 -81c-98 0 -164 81 -164 196c0 104 55 272 215 272
c94 0 141 -69 141 -139zM92 231l199 30c18 2 24 33 24 60c0 51 -25 106 -86 106c-74 0 -126 -88 -137 -196z" />
    <glyph glyph-name="egrave" unicode="&#xe8;" horiz-adv-x="404" 
d="M318 571l-124 109c-21 19 -44 14 -50 -1c-8 -17 -4 -33 26 -50l137 -78c8 -5 15 -5 18 1c3 5 3 11 -7 19zM379 323c0 -76 -48 -85 -143 -102l-146 -23c-2 -69 15 -168 114 -168c65 0 110 36 141 75l11 -30c-25 -33 -76 -81 -169 -81c-98 0 -164 81 -164 196
c0 104 55 272 215 272c94 0 141 -69 141 -139zM92 231l199 30c18 2 24 33 24 60c0 51 -25 106 -86 106c-74 0 -126 -88 -137 -196z" />
    <glyph glyph-name="emacron" unicode="&#x113;" horiz-adv-x="404" 
d="M139 637h-1c2 12 7 16 19 16h251c12 0 18 -7 15 -19h1c-1 -12 -7 -16 -19 -16h-251c-12 0 -18 7 -15 19zM379 323c0 -76 -48 -85 -143 -102l-146 -23c-2 -69 15 -168 114 -168c65 0 110 36 141 75l11 -30c-25 -33 -76 -81 -169 -81c-98 0 -164 81 -164 196
c0 104 55 272 215 272c94 0 141 -69 141 -139zM92 231l199 30c18 2 24 33 24 60c0 51 -25 106 -86 106c-74 0 -126 -88 -137 -196z" />
    <glyph glyph-name="eogonek" unicode="&#x119;" horiz-adv-x="399" 
d="M236 221l-146 -23c-2 -69 15 -168 114 -168c65 0 110 36 141 75l11 -30c-15 -20 -40 -46 -79 -63l4 -1c-93 -44 -107 -86 -107 -117c0 -27 22 -44 50 -44c39 0 65 23 82 54h20c-17 -32 -57 -89 -135 -89c-34 0 -79 22 -79 64c0 34 12 79 104 117c-9 -1 -19 -2 -29 -2
c-98 0 -164 81 -164 196c0 104 55 272 215 272c94 0 141 -69 141 -139c0 -76 -48 -85 -143 -102zM229 427c-74 0 -126 -88 -137 -196l199 30c18 2 24 33 24 60c0 51 -25 106 -86 106z" />
    <glyph glyph-name="etilde" unicode="&#x1ebd;" horiz-adv-x="404" 
d="M438 657l14 -3c-16 -62 -58 -94 -107 -94c-54 0 -85 68 -124 68s-66 -29 -68 -49l-12 3c-1 57 53 90 95 90c56 0 74 -58 128 -58c31 0 70 27 74 43zM379 323c0 -76 -48 -85 -143 -102l-146 -23c-2 -69 15 -168 114 -168c65 0 110 36 141 75l11 -30
c-25 -33 -76 -81 -169 -81c-98 0 -164 81 -164 196c0 104 55 272 215 272c94 0 141 -69 141 -139zM92 231l199 30c18 2 24 33 24 60c0 51 -25 106 -86 106c-74 0 -126 -88 -137 -196z" />
    <glyph glyph-name="f" unicode="f" horiz-adv-x="374" 
d="M311 667c87 0 126 -64 126 -93c0 -21 -13 -32 -30 -32c-16 0 -30 8 -30 32c0 19 -15 58 -75 58c-62 0 -69 -46 -79 -121l-7 -55h139c-8 -27 -13 -34 -30 -34h-113l-59 -458c-14 -111 -63 -178 -136 -178c-78 0 -110 55 -110 94c0 20 13 31 27 31c15 0 34 -9 34 -40
c0 -21 3 -52 40 -52c56 0 73 51 83 126l62 477h-70l4 34h70l5 36c13 111 48 175 149 175z" />
    <glyph glyph-name="g" unicode="g" horiz-adv-x="450" 
d="M450 458c26 0 39 -13 39 -35c0 -31 -23 -32 -41 -32c-23 0 -50 -20 -50 -61c0 -110 -77 -175 -193 -175c-11 0 -22 1 -32 3l-5 1c-1 1 -2 1 -2 1c-49 12 -105 7 -105 -32c0 -32 31 -45 76 -53l100 -17c117 -21 163 -44 163 -116c0 -82 -100 -162 -239 -162
c-107 0 -187 37 -187 127c0 39 19 75 54 74c44 0 14 -39 14 -93c0 -52 53 -79 122 -79c154 0 176 78 176 118c0 43 -36 59 -89 67l-139 25c-102 17 -108 69 -108 89c0 60 53 84 105 80c-31 25 -52 64 -52 114c0 56 46 156 176 156c83 0 132 -45 143 -71c8 46 39 71 74 71z
M215 185c114 0 122 94 122 167c0 41 -42 75 -101 75c-91 0 -117 -77 -117 -139c0 -54 25 -103 96 -103z" />
    <glyph glyph-name="gbreve" unicode="&#x11f;" horiz-adv-x="450" 
d="M282 562c-73 0 -107 64 -102 122c0 5 4 7 7 7h6c7 0 10 -4 9 -15c-1 -26 23 -61 82 -61c60 0 95 37 103 69c1 5 3 7 9 7h5c5 0 10 -4 8 -15c-10 -53 -58 -114 -127 -114zM450 458c26 0 39 -13 39 -35c0 -31 -23 -32 -41 -32c-23 0 -50 -20 -50 -61
c0 -110 -77 -175 -193 -175c-11 0 -22 1 -32 3l-5 1c-1 1 -2 1 -2 1c-49 12 -105 7 -105 -32c0 -32 31 -45 76 -53l100 -17c117 -21 163 -44 163 -116c0 -82 -100 -162 -239 -162c-107 0 -187 37 -187 127c0 39 19 75 54 74c44 0 14 -39 14 -93c0 -52 53 -79 122 -79
c154 0 176 78 176 118c0 43 -36 59 -89 67l-139 25c-102 17 -108 69 -108 89c0 60 53 84 105 80c-31 25 -52 64 -52 114c0 56 46 156 176 156c83 0 132 -45 143 -71c8 46 39 71 74 71zM215 185c114 0 122 94 122 167c0 41 -42 75 -101 75c-91 0 -117 -77 -117 -139
c0 -54 25 -103 96 -103z" />
    <glyph glyph-name="gcommaaccent" unicode="&#x123;" horiz-adv-x="450" 
d="M251 553c-24 1 -37 27 -39 50c-1 21 1 43 12 71c9 24 28 45 48 63c4 1 8 -2 12 -6l10 -11c-14 -16 -25 -30 -33 -46c-4 -13 -8 -22 -7 -29c6 5 11 5 20 3c22 -3 37 -27 30 -56c-6 -26 -30 -42 -53 -39zM450 458c26 0 39 -13 39 -35c0 -31 -23 -32 -41 -32
c-23 0 -50 -20 -50 -61c0 -110 -77 -175 -193 -175c-11 0 -22 1 -32 3l-5 1c-1 1 -2 1 -2 1c-49 12 -105 7 -105 -32c0 -32 31 -45 76 -53l100 -17c117 -21 163 -44 163 -116c0 -82 -100 -162 -239 -162c-107 0 -187 37 -187 127c0 39 19 75 54 74c44 0 14 -39 14 -93
c0 -52 53 -79 122 -79c154 0 176 78 176 118c0 43 -36 59 -89 67l-139 25c-102 17 -108 69 -108 89c0 60 53 84 105 80c-31 25 -52 64 -52 114c0 56 46 156 176 156c83 0 132 -45 143 -71c8 46 39 71 74 71zM215 185c114 0 122 94 122 167c0 41 -42 75 -101 75
c-91 0 -117 -77 -117 -139c0 -54 25 -103 96 -103z" />
    <glyph glyph-name="gdotaccent" unicode="&#x121;" horiz-adv-x="450" 
d="M258 575c-23 0 -36 21 -36 44c0 25 17 50 42 50c23 0 38 -19 38 -42c0 -25 -14 -52 -44 -52zM450 458c26 0 39 -13 39 -35c0 -31 -23 -32 -41 -32c-23 0 -50 -20 -50 -61c0 -110 -77 -175 -193 -175c-11 0 -22 1 -32 3l-5 1c-1 1 -2 1 -2 1c-49 12 -105 7 -105 -32
c0 -32 31 -45 76 -53l100 -17c117 -21 163 -44 163 -116c0 -82 -100 -162 -239 -162c-107 0 -187 37 -187 127c0 39 19 75 54 74c44 0 14 -39 14 -93c0 -52 53 -79 122 -79c154 0 176 78 176 118c0 43 -36 59 -89 67l-139 25c-102 17 -108 69 -108 89c0 60 53 84 105 80
c-31 25 -52 64 -52 114c0 56 46 156 176 156c83 0 132 -45 143 -71c8 46 39 71 74 71zM215 185c114 0 122 94 122 167c0 41 -42 75 -101 75c-91 0 -117 -77 -117 -139c0 -54 25 -103 96 -103z" />
    <glyph glyph-name="h" unicode="h" horiz-adv-x="473" 
d="M414 283l-29 -197c-5 -33 9 -75 57 -34l-10 -32c-28 -16 -37 -20 -59 -20c-37 0 -57 33 -51 73l30 223c11 75 -6 121 -60 121c-65 0 -121 -57 -141 -84l-45 -333h-59l73 574c3 32 -20 39 -62 39l4 24c56 0 100 13 129 20l-36 -276l-7 -26c20 27 84 104 169 104
c82 0 117 -44 97 -176z" />
    <glyph glyph-name="hbar" unicode="&#x127;" horiz-adv-x="478" 
d="M414 283l-29 -197c-5 -33 9 -75 57 -34l-10 -32c-28 -16 -37 -20 -59 -20c-37 0 -57 33 -51 73l30 223c11 75 -6 121 -60 121c-65 0 -121 -57 -141 -84l-45 -333h-59l64 504h-57l5 35h57l4 35c3 32 -20 39 -62 39l4 24c56 0 100 13 129 20l-15 -118h198l-5 -35h-198
l-16 -123l-7 -26c20 27 84 104 169 104c82 0 117 -44 97 -176z" />
    <glyph glyph-name="i" unicode="i" horiz-adv-x="206" 
d="M150 669c21 0 38 -20 35 -45c-3 -20 -23 -37 -40 -37c-21 0 -38 20 -35 46c2 19 23 36 40 36zM147 387l-37 -304c-4 -33 12 -72 60 -31l-10 -32c-25 -15 -41 -20 -65 -20c-32 0 -50 33 -46 68l38 299c4 33 -9 54 -44 39l5 25c23 13 50 26 78 26c26 0 27 -22 21 -70z" />
    <glyph glyph-name="dotlessi" unicode="&#x131;" horiz-adv-x="206" 
d="M147 387l-37 -304c-4 -33 12 -72 60 -31l-10 -32c-25 -15 -41 -20 -65 -20c-32 0 -50 33 -46 68l38 299c4 33 -9 54 -44 39l5 25c23 13 50 26 78 26c26 0 27 -22 21 -70z" />
    <glyph glyph-name="iacute" unicode="&#xed;" horiz-adv-x="206" 
d="M194 669l-124 -109c-9 -8 -10 -14 -7 -19c3 -6 10 -6 18 -1l137 78c30 17 34 33 27 50c-7 15 -30 20 -51 1zM147 387l-37 -304c-4 -33 12 -72 60 -31l-10 -32c-25 -15 -41 -20 -65 -20c-32 0 -50 33 -46 68l38 299c4 33 -9 54 -44 39l5 25c23 13 50 26 78 26
c26 0 27 -22 21 -70z" />
    <glyph glyph-name="icircumflex" unicode="&#xee;" horiz-adv-x="206" 
d="M138 672l124 -143h-34l-98 78l-117 -78h-34zM147 387l-37 -304c-4 -33 12 -72 60 -31l-10 -32c-25 -15 -41 -20 -65 -20c-32 0 -50 33 -46 68l38 299c4 33 -9 54 -44 39l5 25c23 13 50 26 78 26c26 0 27 -22 21 -70z" />
    <glyph glyph-name="idieresis" unicode="&#xef;" horiz-adv-x="206" 
d="M-76 571c-21 0 -34 19 -34 42s17 46 40 46s37 -17 37 -39c0 -23 -13 -49 -43 -49zM347 571c-21 0 -34 19 -34 42s17 46 40 46c22 0 37 -17 37 -39c0 -24 -14 -49 -43 -49zM147 387l-37 -304c-4 -33 12 -72 60 -31l-10 -32c-25 -15 -41 -20 -65 -20c-32 0 -50 33 -46 68
l38 299c4 33 -9 54 -44 39l5 25c23 13 50 26 78 26c26 0 27 -22 21 -70z" />
    <glyph glyph-name="i.loclTRK" horiz-adv-x="212" 
d="M123 575c-23 0 -36 21 -36 44c0 25 18 50 43 50c23 0 38 -19 38 -42c0 -25 -15 -52 -45 -52zM167 387l-38 -304c-4 -33 12 -72 61 -31l-10 -32c-26 -15 -42 -20 -66 -20c-32 0 -49 33 -46 68l39 299c4 33 -10 54 -45 39l5 25c23 13 50 26 78 26c26 0 28 -22 22 -70z" />
    <glyph glyph-name="igrave" unicode="&#xec;" horiz-adv-x="206" 
d="M178 560l-124 109c-21 19 -44 14 -50 -1c-8 -17 -4 -33 26 -50l137 -78c8 -5 15 -5 18 1c3 5 3 11 -7 19zM147 387l-37 -304c-4 -33 12 -72 60 -31l-10 -32c-25 -15 -41 -20 -65 -20c-32 0 -50 33 -46 68l38 299c4 33 -9 54 -44 39l5 25c23 13 50 26 78 26
c26 0 27 -22 21 -70z" />
    <glyph glyph-name="ij" unicode="&#x133;" horiz-adv-x="391" 
d="M150 669c21 0 38 -20 35 -45c-3 -20 -23 -37 -40 -37c-21 0 -38 20 -35 46c2 19 23 36 40 36zM365 669c21 0 37 -20 35 -45c-4 -20 -23 -37 -40 -37c-21 0 -39 20 -35 46c2 19 23 36 40 36zM147 387l-37 -304c-4 -33 12 -72 60 -31l-10 -32c-25 -15 -41 -20 -65 -20
c-32 0 -50 33 -46 68l38 299c4 33 -9 54 -44 39l5 25c23 13 50 26 78 26c26 0 27 -22 21 -70zM340 457c27 0 28 -22 22 -70l-52 -423c-14 -111 -64 -178 -137 -178c-78 0 -110 55 -110 94c0 20 13 31 27 31c15 0 34 -9 34 -40c0 -21 3 -52 40 -52c56 0 75 51 84 126l54 422
c4 33 -9 54 -44 39l4 25c24 13 51 26 78 26z" />
    <glyph glyph-name="imacron" unicode="&#x12b;" horiz-adv-x="206" 
d="M-1 626c2 12 7 16 19 16h251c12 0 18 -7 15 -19h1c-1 -12 -7 -16 -19 -16h-251c-12 0 -18 7 -16 19zM147 387l-37 -304c-4 -33 12 -72 60 -31l-10 -32c-25 -15 -41 -20 -65 -20c-32 0 -50 33 -46 68l38 299c4 33 -9 54 -44 39l5 25c23 13 50 26 78 26c26 0 27 -22 21 -70
z" />
    <glyph glyph-name="iogonek" unicode="&#x12f;" horiz-adv-x="189" 
d="M104 575c-23 0 -36 21 -36 44c0 25 17 50 42 50c23 0 38 -19 38 -42c0 -25 -14 -52 -44 -52zM146 -96h19c-17 -32 -56 -89 -134 -89c-34 0 -79 22 -79 64c0 36 13 83 115 121c-28 4 -44 35 -40 68l38 299c4 33 -9 54 -44 39l4 25c24 13 51 26 78 26s28 -22 22 -70
l-37 -304c-4 -33 12 -72 60 -31l-10 -32c-12 -7 -22 -12 -31 -15c-79 -34 -93 -90 -93 -113c0 -26 21 -42 49 -42c40 0 66 23 83 54z" />
    <glyph glyph-name="j" unicode="j" horiz-adv-x="185" 
d="M159 669c21 0 37 -20 35 -45c-4 -20 -23 -37 -40 -37c-21 0 -39 20 -35 46c2 19 23 36 40 36zM134 457c27 0 28 -22 22 -70l-52 -423c-14 -111 -64 -178 -137 -178c-78 0 -110 55 -110 94c0 20 13 31 27 31c15 0 34 -9 34 -40c0 -21 3 -52 40 -52c56 0 75 51 84 126
l54 422c4 33 -9 54 -44 39l4 25c24 13 51 26 78 26z" />
    <glyph glyph-name="dotlessj" unicode="&#x237;" horiz-adv-x="151" 
d="M134 457c27 0 28 -22 22 -70l-52 -423c-14 -111 -64 -178 -137 -178c-78 0 -110 55 -110 94c0 20 13 31 27 31c15 0 34 -9 34 -40c0 -21 3 -52 40 -52c56 0 74 51 83 126l55 422c4 33 -9 54 -44 39l4 25c24 13 51 26 78 26z" />
    <glyph glyph-name="k" unicode="k" horiz-adv-x="450" 
d="M195 240l162 -198c15 -19 21 -22 47 -22l-2 -20h-139l2 20c34 0 34 15 31 20l-161 195l-23 -188c-3 -23 8 -27 22 -27v-20h-120v20c17 0 34 7 37 30l70 554c2 17 -7 23 -22 23h-25l4 25l94 15c10 1 16 -8 14 -20l-39 -313c26 76 84 126 150 126c57 0 92 -32 92 -72
c0 -38 -31 -81 -105 -112zM140 279l-5 -44l140 65c33 15 51 43 51 65c0 26 -21 47 -63 47c-67 0 -104 -75 -123 -133z" />
    <glyph glyph-name="kcommaaccent" unicode="&#x137;" horiz-adv-x="450" 
d="M195 240l162 -198c15 -19 21 -22 47 -22l-2 -20h-139l2 20c34 0 34 15 31 20l-161 195l-23 -188c-3 -23 8 -27 22 -27v-20h-120v20c17 0 34 7 37 30l70 554c2 17 -7 23 -22 23h-25l4 25l94 15c10 1 16 -8 14 -20l-39 -313c26 76 84 126 150 126c57 0 92 -32 92 -72
c0 -38 -31 -81 -105 -112zM140 279l-5 -44l140 65c33 15 51 43 51 65c0 26 -21 47 -63 47c-67 0 -104 -75 -123 -133zM165 -104c25 -2 38 -27 39 -50c2 -21 -1 -43 -11 -71c-9 -24 -29 -45 -48 -63c-5 -1 -9 2 -13 6l-10 11c14 15 25 29 33 46c5 13 9 22 8 29
c-6 -5 -12 -5 -21 -3c-21 3 -37 27 -29 56c6 25 30 42 52 39z" />
    <glyph glyph-name="l" unicode="l" horiz-adv-x="203" 
d="M181 657l-72 -571c-4 -33 10 -75 58 -34l-10 -32c-28 -16 -40 -20 -51 -20c-44 0 -63 35 -59 72l66 502c4 32 -18 39 -60 39l4 24c56 0 95 13 124 20z" />
    <glyph glyph-name="lacute" unicode="&#x13a;" horiz-adv-x="203" 
d="M233 839l-124 -109c-9 -8 -10 -14 -7 -19c3 -6 10 -6 18 -1l137 78c30 17 34 33 27 50c-7 15 -30 20 -51 1zM181 657l-72 -571c-4 -33 10 -75 58 -34l-10 -32c-28 -16 -40 -20 -51 -20c-44 0 -63 35 -59 72l66 502c4 32 -18 39 -60 39l4 24c56 0 95 13 124 20z" />
    <glyph glyph-name="lcaron" unicode="&#x13e;" horiz-adv-x="279" 
d="M181 657l-72 -571c-4 -33 10 -75 58 -34l-10 -32c-28 -16 -40 -20 -51 -20c-44 0 -63 35 -59 72l66 502c4 32 -18 39 -60 39l4 24c56 0 95 13 124 20zM300 534c-9 -24 -28 -45 -48 -63c-4 -1 -8 2 -12 6l-10 11c14 15 25 29 33 46c4 13 8 22 8 29c-6 -5 -12 -5 -21 -3
c-22 3 -37 27 -29 56c5 25 30 42 52 39c24 -2 38 -27 39 -50c1 -21 -1 -43 -12 -71z" />
    <glyph glyph-name="lcommaaccent" unicode="&#x13c;" horiz-adv-x="203" 
d="M181 657l-72 -571c-4 -33 10 -75 58 -34l-10 -32c-28 -16 -40 -20 -51 -20c-44 0 -63 35 -59 72l66 502c4 32 -18 39 -60 39l4 24c56 0 95 13 124 20zM95 -225c-9 -24 -29 -45 -48 -63c-5 -1 -9 2 -13 6l-10 11c14 15 25 29 33 46c5 13 9 22 8 29c-6 -5 -12 -5 -21 -3
c-21 3 -37 27 -29 56c6 25 30 42 52 39c25 -2 38 -27 39 -50c2 -21 -1 -43 -11 -71z" />
    <glyph glyph-name="ldot" unicode="&#x140;" horiz-adv-x="332" 
d="M181 657l-72 -571c-4 -33 10 -75 58 -34l-10 -32c-28 -16 -40 -20 -51 -20c-44 0 -63 35 -59 72l66 502c4 32 -18 39 -60 39l4 24c56 0 95 13 124 20zM272 341c-25 0 -43 24 -38 56c2 24 25 45 47 45c25 0 43 -24 40 -54c-4 -25 -27 -47 -49 -47z" />
    <glyph glyph-name="lslash" unicode="&#x142;" horiz-adv-x="259" 
d="M157 296l-27 -210c-4 -33 10 -75 58 -34l-10 -32c-27 -16 -40 -20 -51 -20c-44 0 -63 35 -59 72l27 204l-92 -31l7 55l93 31l32 243c4 32 -19 39 -61 39l4 24c57 0 95 13 124 20l-39 -306l101 34l-6 -55z" />
    <glyph glyph-name="m" unicode="m" horiz-adv-x="727" 
d="M662 309l-25 -223c-4 -33 10 -75 59 -34l-10 -32c-28 -16 -40 -20 -52 -20c-44 0 -66 35 -61 72l30 238c9 69 -9 107 -63 107c-62 0 -113 -65 -132 -92l-41 -325h-58l37 310c9 69 -8 107 -62 107c-63 0 -113 -65 -133 -92l-41 -325h-58l47 377c4 33 -16 45 -51 29l5 25
c23 13 48 26 68 26c34 0 42 -31 35 -64l-9 -38c18 27 69 102 165 102c61 0 94 -29 96 -95c21 31 73 95 161 95c76 0 105 -45 93 -148z" />
    <glyph glyph-name="n" unicode="n" horiz-adv-x="472" 
d="M409 309l-30 -223c-4 -33 14 -75 62 -34l-10 -32c-28 -16 -40 -20 -51 -20c-44 0 -65 35 -60 72l31 238c8 69 -9 107 -63 107c-66 0 -117 -65 -137 -92l-41 -325h-58l47 377c4 33 -16 45 -51 29l5 25c23 13 48 26 68 26c34 0 42 -31 35 -64l-9 -38c18 27 71 102 169 102
c76 0 108 -45 93 -148z" />
    <glyph glyph-name="nacute" unicode="&#x144;" horiz-adv-x="472" 
d="M324 669l-124 -109c-9 -8 -10 -14 -7 -19c3 -6 10 -6 18 -1l137 78c30 17 34 33 27 50c-7 15 -30 20 -51 1zM409 309l-30 -223c-4 -33 14 -75 62 -34l-10 -32c-28 -16 -40 -20 -51 -20c-44 0 -65 35 -60 72l31 238c8 69 -9 107 -63 107c-66 0 -117 -65 -137 -92l-41 -325
h-58l47 377c4 33 -16 45 -51 29l5 25c23 13 48 26 68 26c34 0 42 -31 35 -64l-9 -38c18 27 71 102 169 102c76 0 108 -45 93 -148z" />
    <glyph glyph-name="ncaron" unicode="&#x148;" horiz-adv-x="472" 
d="M252 524l-105 143h32l83 -78l106 78h30zM409 309l-30 -223c-4 -33 14 -75 62 -34l-10 -32c-28 -16 -40 -20 -51 -20c-44 0 -65 35 -60 72l31 238c8 69 -9 107 -63 107c-66 0 -117 -65 -137 -92l-41 -325h-58l47 377c4 33 -16 45 -51 29l5 25c23 13 48 26 68 26
c34 0 42 -31 35 -64l-9 -38c18 27 71 102 169 102c76 0 108 -45 93 -148z" />
    <glyph glyph-name="ncommaaccent" unicode="&#x146;" horiz-adv-x="472" 
d="M409 309l-30 -223c-4 -33 14 -75 62 -34l-10 -32c-28 -16 -40 -20 -51 -20c-44 0 -65 35 -60 72l31 238c8 69 -9 107 -63 107c-66 0 -117 -65 -137 -92l-41 -325h-58l47 377c4 33 -16 45 -51 29l5 25c23 13 48 26 68 26c34 0 42 -31 35 -64l-9 -38c18 27 71 102 169 102
c76 0 108 -45 93 -148zM233 -225c-9 -24 -29 -45 -48 -63c-5 -1 -9 2 -13 6l-10 11c14 15 25 29 33 46c5 13 9 22 8 29c-6 -5 -12 -5 -21 -3c-21 3 -37 27 -29 56c6 25 30 42 52 39c25 -2 38 -27 39 -50c2 -21 -1 -43 -11 -71z" />
    <glyph glyph-name="eng" unicode="&#x14b;" horiz-adv-x="449" 
d="M313 459c85 0 118 -39 101 -174l-46 -360c-11 -100 -71 -141 -117 -141c-54 0 -60 35 -60 56s12 35 29 35c12 0 20 -2 20 -11c0 -2 14 -29 30 -29c17 0 26 22 30 49l52 419c9 69 -5 114 -57 114c-66 0 -119 -62 -138 -84l-39 -289c-3 -23 13 -26 41 -26l-1 -18h-149l2 18
c29 0 43 6 46 29l40 323c6 33 -11 42 -46 37l3 35l90 17c35 6 24 -31 15 -75l-8 -33c20 31 73 108 162 108z" />
    <glyph glyph-name="ntilde" unicode="&#xf1;" horiz-adv-x="472" 
d="M428 646l14 -3c-16 -62 -58 -94 -107 -94c-54 0 -85 68 -124 68s-66 -29 -68 -49l-12 3c-1 57 53 90 95 90c56 0 74 -58 128 -58c31 0 70 27 74 43zM409 309l-30 -223c-4 -33 14 -75 62 -34l-10 -32c-28 -16 -40 -20 -51 -20c-44 0 -65 35 -60 72l31 238
c8 69 -9 107 -63 107c-66 0 -117 -65 -137 -92l-41 -325h-58l47 377c4 33 -16 45 -51 29l5 25c23 13 48 26 68 26c34 0 42 -31 35 -64l-9 -38c18 27 71 102 169 102c76 0 108 -45 93 -148z" />
    <glyph glyph-name="o" unicode="o" horiz-adv-x="429" 
d="M240 462c96 0 160 -84 160 -200c0 -99 -63 -268 -210 -268c-95 0 -162 82 -162 196c0 102 64 272 212 272zM338 255c0 96 -41 173 -108 173c-108 0 -138 -153 -138 -234c0 -94 40 -164 106 -164c107 0 140 148 140 225z" />
    <glyph glyph-name="oacute" unicode="&#xf3;" horiz-adv-x="429" 
d="M319 669l-124 -109c-9 -8 -10 -14 -7 -19c3 -6 10 -6 18 -1l137 78c30 17 34 33 27 50c-7 15 -30 20 -51 1zM240 462c96 0 160 -84 160 -200c0 -99 -63 -268 -210 -268c-95 0 -162 82 -162 196c0 102 64 272 212 272zM338 255c0 96 -41 173 -108 173
c-108 0 -138 -153 -138 -234c0 -94 40 -164 106 -164c107 0 140 148 140 225z" />
    <glyph glyph-name="ocircumflex" unicode="&#xf4;" horiz-adv-x="429" 
d="M264 672l124 -143h-34l-98 78l-117 -78h-34zM240 462c96 0 160 -84 160 -200c0 -99 -63 -268 -210 -268c-95 0 -162 82 -162 196c0 102 64 272 212 272zM338 255c0 96 -41 173 -108 173c-108 0 -138 -153 -138 -234c0 -94 40 -164 106 -164c107 0 140 148 140 225z" />
    <glyph glyph-name="odieresis" unicode="&#xf6;" horiz-adv-x="429" 
d="M49 571c-21 0 -34 19 -34 42s17 46 40 46s37 -17 37 -39c0 -23 -13 -49 -43 -49zM472 571c-21 0 -34 19 -34 42s17 46 40 46c22 0 37 -17 37 -39c0 -24 -14 -49 -43 -49zM240 462c96 0 160 -84 160 -200c0 -99 -63 -268 -210 -268c-95 0 -162 82 -162 196
c0 102 64 272 212 272zM338 255c0 96 -41 173 -108 173c-108 0 -138 -153 -138 -234c0 -94 40 -164 106 -164c107 0 140 148 140 225z" />
    <glyph glyph-name="ograve" unicode="&#xf2;" horiz-adv-x="429" 
d="M304 560l-124 109c-21 19 -44 14 -50 -1c-8 -17 -4 -33 26 -50l137 -78c8 -5 15 -5 18 1c3 5 3 11 -7 19zM240 462c96 0 160 -84 160 -200c0 -99 -63 -268 -210 -268c-95 0 -162 82 -162 196c0 102 64 272 212 272zM338 255c0 96 -41 173 -108 173
c-108 0 -138 -153 -138 -234c0 -94 40 -164 106 -164c107 0 140 148 140 225z" />
    <glyph glyph-name="ohungarumlaut" unicode="&#x151;" horiz-adv-x="429" 
d="M199 669l-124 -109c-9 -8 -10 -14 -7 -19c3 -6 10 -6 18 -1l137 78c30 17 34 33 27 50c-7 15 -30 20 -51 1zM390 669l-124 -109c-9 -8 -10 -14 -7 -19c3 -6 10 -6 18 -1l137 78c30 17 34 33 27 50c-7 15 -30 20 -51 1zM240 462c96 0 160 -84 160 -200
c0 -99 -63 -268 -210 -268c-95 0 -162 82 -162 196c0 102 64 272 212 272zM338 255c0 96 -41 173 -108 173c-108 0 -138 -153 -138 -234c0 -94 40 -164 106 -164c107 0 140 148 140 225z" />
    <glyph glyph-name="omacron" unicode="&#x14d;" horiz-adv-x="429" 
d="M125 626h-1c2 12 7 16 19 16h251c12 0 18 -7 15 -19h1c-1 -12 -7 -16 -19 -16h-251c-12 0 -18 7 -15 19zM240 462c96 0 160 -84 160 -200c0 -99 -63 -268 -210 -268c-95 0 -162 82 -162 196c0 102 64 272 212 272zM338 255c0 96 -41 173 -108 173
c-108 0 -138 -153 -138 -234c0 -94 40 -164 106 -164c107 0 140 148 140 225z" />
    <glyph glyph-name="oslash" unicode="&#xf8;" horiz-adv-x="431" 
d="M413 456l-46 -58c24 -35 38 -82 38 -136c0 -99 -63 -268 -210 -268c-43 0 -81 17 -109 47l-25 -32l-23 19l29 37c-22 33 -34 76 -34 125c0 102 64 272 212 272c41 0 76 -15 102 -41l43 54zM97 194c0 -28 4 -55 11 -78l206 262c-19 31 -46 50 -79 50
c-108 0 -138 -153 -138 -234zM343 255c0 34 -5 66 -15 93l-207 -263c18 -34 46 -55 82 -55c107 0 140 148 140 225z" />
    <glyph glyph-name="otilde" unicode="&#xf5;" horiz-adv-x="429" 
d="M424 646l14 -3c-16 -62 -58 -94 -107 -94c-54 0 -85 68 -124 68s-66 -29 -68 -49l-12 3c-1 57 53 90 95 90c56 0 74 -58 128 -58c31 0 70 27 74 43zM240 462c96 0 160 -84 160 -200c0 -99 -63 -268 -210 -268c-95 0 -162 82 -162 196c0 102 64 272 212 272zM338 255
c0 96 -41 173 -108 173c-108 0 -138 -153 -138 -234c0 -94 40 -164 106 -164c107 0 140 148 140 225z" />
    <glyph glyph-name="oe" unicode="&#x153;" horiz-adv-x="714" 
d="M545 222l-145 -23c-3 -69 15 -168 113 -168c66 0 111 36 141 75l11 -30c-25 -33 -76 -81 -168 -81c-67 0 -119 37 -146 98c-34 -56 -87 -99 -161 -99c-95 0 -162 82 -162 196c0 102 64 272 212 272c64 0 114 -37 140 -96c34 55 88 97 168 97c93 0 140 -69 140 -139
c0 -76 -48 -85 -143 -102zM198 30c82 0 120 87 134 162c0 19 2 40 6 62v1c0 96 -41 173 -108 173c-108 0 -138 -153 -138 -234c0 -94 40 -164 106 -164zM538 428c-74 0 -126 -88 -136 -196l198 30c18 2 25 33 25 60c0 51 -26 106 -87 106z" />
    <glyph glyph-name="p" unicode="p" horiz-adv-x="468" 
d="M301 462c86 0 145 -64 145 -185c0 -129 -102 -283 -246 -283c-36 0 -66 6 -88 20l-21 -162c-3 -23 10 -28 38 -28v-24h-145l2 24c29 0 44 5 47 28l33 268l1 7v1l30 239c4 33 -9 54 -44 39l5 25c23 13 50 26 78 26c26 0 29 -22 23 -70l-1 -5c28 31 75 80 143 80zM210 25
c130 0 174 140 174 240c0 94 -36 153 -90 153c-57 0 -89 -34 -143 -95l-26 -204c-8 -57 17 -94 85 -94z" />
    <glyph glyph-name="thorn" unicode="&#xfe;" horiz-adv-x="448" 
d="M290 463c104 0 148 -89 130 -240c-20 -147 -99 -229 -186 -229c-62 0 -98 36 -117 91l-27 -219c-3 -23 10 -26 38 -26l-1 -24h-147l2 24c29 0 43 6 47 29l91 715c3 23 -2 32 -20 32h-26l6 36l88 15c14 2 21 -5 18 -20l-21 -166c-4 -36 -13 -78 -30 -124l18 25
c26 30 71 81 137 81zM225 27c73 0 117 57 135 191c12 95 -5 195 -80 195c-67 0 -93 -27 -131 -76l-26 -203c11 -53 40 -107 102 -107z" />
    <glyph glyph-name="q" unicode="q" horiz-adv-x="465" 
d="M426 451l-75 -568c-6 -32 20 -39 63 -39l-5 -24c-56 0 -98 -13 -127 -20l36 274c-27 -45 -79 -80 -132 -80c-95 0 -158 82 -158 196c0 104 64 272 209 272c47 0 102 -32 123 -68l8 57h58zM195 30c55 0 118 46 131 100l27 209c-19 50 -59 89 -123 89
c-107 0 -139 -149 -139 -234c0 -94 39 -164 104 -164z" />
    <glyph glyph-name="r" unicode="r" horiz-adv-x="337" 
d="M288 456c35 0 65 -31 34 -66c-41 -48 -49 -4 -84 -1c-49 3 -86 -73 -104 -137l-33 -252h-57l50 377c4 33 -16 45 -51 29l5 23c23 15 50 27 68 27c33 0 39 -32 32 -72l-22 -117l21 66c21 71 81 123 141 123z" />
    <glyph glyph-name="racute" unicode="&#x155;" horiz-adv-x="337" 
d="M268 669l-124 -109c-9 -8 -10 -14 -7 -19c3 -6 10 -6 18 -1l137 78c30 17 34 33 27 50c-7 15 -30 20 -51 1zM288 456c35 0 65 -31 34 -66c-41 -48 -49 -4 -84 -1c-49 3 -86 -73 -104 -137l-33 -252h-57l50 377c4 33 -16 45 -51 29l5 23c23 15 50 27 68 27
c33 0 39 -32 32 -72l-22 -117l21 66c21 71 81 123 141 123z" />
    <glyph glyph-name="rcaron" unicode="&#x159;" horiz-adv-x="337" 
d="M196 524l-105 143h32l83 -78l106 78h30zM288 456c35 0 65 -31 34 -66c-41 -48 -49 -4 -84 -1c-49 3 -86 -73 -104 -137l-33 -252h-57l50 377c4 33 -16 45 -51 29l5 23c23 15 50 27 68 27c33 0 39 -32 32 -72l-22 -117l21 66c21 71 81 123 141 123z" />
    <glyph glyph-name="rcommaaccent" unicode="&#x157;" horiz-adv-x="337" 
d="M288 456c35 0 65 -31 34 -66c-41 -48 -49 -4 -84 -1c-49 3 -86 -73 -104 -137l-33 -252h-57l50 377c4 33 -16 45 -51 29l5 23c23 15 50 27 68 27c33 0 39 -32 32 -72l-22 -117l21 66c21 71 81 123 141 123zM73 -225c-9 -24 -29 -45 -48 -63c-5 -1 -9 2 -13 6l-10 11
c14 15 25 29 33 46c5 13 9 22 8 29c-6 -5 -12 -5 -21 -3c-21 3 -37 27 -29 56c5 25 30 42 52 39c25 -2 38 -27 39 -50c2 -21 -1 -43 -11 -71z" />
    <glyph glyph-name="s" unicode="s" horiz-adv-x="353" 
d="M153 -6c-87 0 -141 70 -140 89c5 53 12 72 29 72c25 0 29 -1 28 -21c-3 -56 25 -107 92 -107c61 0 79 45 79 86c0 91 -179 133 -179 243c0 36 28 106 137 106c102 0 136 -73 133 -96c-5 -52 -21 -67 -36 -67s-19 12 -18 21c12 70 -28 111 -84 111s-68 -35 -68 -60
c0 -99 183 -141 183 -242c0 -63 -42 -135 -156 -135z" />
    <glyph glyph-name="sacute" unicode="&#x15b;" horiz-adv-x="353" 
d="M284 669l-124 -109c-9 -8 -10 -14 -7 -19c3 -6 10 -6 18 -1l137 78c30 17 34 33 27 50c-7 15 -30 20 -51 1zM153 -6c-87 0 -141 70 -140 89c5 53 12 72 29 72c25 0 29 -1 28 -21c-3 -56 25 -107 92 -107c61 0 79 45 79 86c0 91 -179 133 -179 243c0 36 28 106 137 106
c102 0 136 -73 133 -96c-5 -52 -21 -67 -36 -67s-19 12 -18 21c12 70 -28 111 -84 111s-68 -35 -68 -60c0 -99 183 -141 183 -242c0 -63 -42 -135 -156 -135z" />
    <glyph glyph-name="scaron" unicode="&#x161;" horiz-adv-x="353" 
d="M213 524l-105 143h32l83 -78l106 78h30zM153 -6c-87 0 -141 70 -140 89c5 53 12 72 29 72c25 0 29 -1 28 -21c-3 -56 25 -107 92 -107c61 0 79 45 79 86c0 91 -179 133 -179 243c0 36 28 106 137 106c102 0 136 -73 133 -96c-5 -52 -21 -67 -36 -67s-19 12 -18 21
c12 70 -28 111 -84 111s-68 -35 -68 -60c0 -99 183 -141 183 -242c0 -63 -42 -135 -156 -135z" />
    <glyph glyph-name="scedilla" unicode="&#x15f;" horiz-adv-x="353" 
d="M199 462c102 0 136 -73 133 -96c-5 -52 -21 -67 -36 -67s-19 12 -18 21c12 70 -28 111 -84 111s-68 -35 -68 -60c0 -99 183 -141 183 -242c0 -63 -42 -135 -156 -135h-4l-23 -41c49 17 103 -24 84 -91c-16 -56 -63 -66 -109 -63c-45 3 -72 24 -73 59c-2 28 24 42 46 18
c2 -19 -1 -51 26 -54c35 -3 62 20 68 53c8 30 -8 54 -44 48c-17 -1 -29 -4 -35 -6c-11 -1 -16 16 -8 29c10 16 21 36 31 53c-63 17 -100 68 -99 84c5 53 12 72 29 72c25 0 29 -1 28 -21c-3 -56 25 -107 92 -107c61 0 79 45 79 86c0 91 -179 133 -179 243
c0 36 28 106 137 106z" />
    <glyph glyph-name="scommaaccent" unicode="&#x219;" horiz-adv-x="353" 
d="M153 -6c-87 0 -141 70 -140 89c5 53 12 72 29 72c25 0 29 -1 28 -21c-3 -56 25 -107 92 -107c61 0 79 45 79 86c0 91 -179 133 -179 243c0 36 28 106 137 106c102 0 136 -73 133 -96c-5 -52 -21 -67 -36 -67s-19 12 -18 21c12 70 -28 111 -84 111s-68 -35 -68 -60
c0 -99 183 -141 183 -242c0 -63 -42 -135 -156 -135zM139 -225c-9 -24 -29 -45 -48 -63c-5 -1 -9 2 -13 6l-10 11c14 15 25 29 33 46c5 13 9 22 8 29c-6 -5 -12 -5 -21 -3c-21 3 -37 27 -29 56c6 25 30 42 52 39c25 -2 38 -27 39 -50c2 -21 -1 -43 -11 -71z" />
    <glyph glyph-name="germandbls" unicode="&#xdf;" horiz-adv-x="458" 
d="M323 378c57 -14 102 -68 102 -159c0 -92 -44 -220 -247 -220l2 35c156 0 176 107 176 203c0 72 -30 116 -129 118l2 26c78 0 119 90 119 155c0 55 -19 101 -75 101s-87 -55 -97 -126l-52 -420c-7 -61 -16 -91 -78 -91h-35v13c34 5 43 12 47 35l56 447
c13 109 61 172 158 172c92 0 128 -60 128 -146c0 -55 -23 -113 -77 -143z" />
    <glyph glyph-name="t" unicode="t" horiz-adv-x="261" 
d="M252 411h-110l-39 -327c-3 -32 15 -50 37 -50c29 0 61 15 77 41l-8 -33c-21 -22 -54 -44 -89 -44c-47 0 -84 42 -76 101l38 312h-43l6 40c47 0 79 61 109 110c8 8 12 6 11 -4l-15 -106h109z" />
    <glyph glyph-name="tbar" unicode="&#x167;" horiz-adv-x="256" 
d="M252 411h-110l-15 -124h89c12 0 18 -7 16 -19c0 -12 -7 -16 -19 -16h-90l-20 -168c-3 -32 15 -50 37 -50c29 0 61 15 77 41l-8 -33c-21 -22 -54 -44 -89 -44c-47 0 -84 42 -76 101l19 153h-28c-12 0 -18 7 -16 19s7 16 19 16h29l15 124h-43l6 40c47 0 79 61 109 110
c8 8 12 6 11 -4l-15 -106h109z" />
    <glyph glyph-name="tcaron" unicode="&#x165;" horiz-adv-x="340" 
d="M355 508c-9 -24 -29 -45 -48 -63c-5 -2 -9 1 -13 6l-10 11c14 15 25 29 33 46c5 13 9 22 8 29c-6 -5 -12 -6 -21 -4c-21 3 -37 27 -29 57c6 25 30 41 52 39c25 -2 38 -27 39 -50c2 -21 -1 -43 -11 -71zM252 411h-110l-39 -327c-3 -32 15 -50 37 -50c29 0 61 15 77 41
l-8 -33c-21 -22 -54 -44 -89 -44c-47 0 -84 42 -76 101l38 312h-43l6 40c47 0 79 61 109 110c8 8 12 6 11 -4l-15 -106h109z" />
    <glyph glyph-name="tcedilla" unicode="&#x163;" horiz-adv-x="261" 
d="M142 411l-39 -327c-3 -32 15 -50 37 -50c29 0 61 15 77 41l-8 -33c-17 -18 -43 -36 -70 -42h19l-26 -47c49 17 103 -24 84 -91c-16 -56 -63 -66 -109 -63c-45 3 -72 24 -73 59c-2 28 24 42 46 18c2 -19 -1 -51 26 -54c35 -3 62 20 68 53c8 30 -8 54 -44 48
c-17 -1 -29 -4 -35 -6c-11 -1 -16 16 -8 29c10 15 20 35 30 52c-46 2 -81 43 -73 101l38 312h-43l6 40c47 0 79 61 109 110c8 8 12 6 11 -4l-15 -106h109l-7 -40h-110z" />
    <glyph glyph-name="uni021B" unicode="&#x21b;" horiz-adv-x="261" 
d="M252 411h-110l-39 -327c-3 -32 15 -50 37 -50c29 0 61 15 77 41l-8 -33c-21 -22 -54 -44 -89 -44c-47 0 -84 42 -76 101l38 312h-43l6 40c47 0 79 61 109 110c8 8 12 6 11 -4l-15 -106h109zM145 -225c-9 -24 -29 -45 -48 -63c-5 -1 -9 2 -13 6l-10 11c14 15 25 29 33 46
c5 13 9 22 8 29c-6 -5 -12 -5 -21 -3c-21 3 -37 27 -29 56c6 25 30 42 52 39c25 -2 38 -27 39 -50c2 -21 -1 -43 -11 -71z" />
    <glyph glyph-name="u" unicode="u" horiz-adv-x="467" 
d="M416 409l-39 -323c-4 -33 10 -75 59 -34l-10 -32c-28 -16 -40 -20 -52 -20c-44 0 -63 35 -58 72l5 35c-16 -41 -69 -113 -147 -113c-88 0 -133 57 -120 163l25 205c4 35 -7 60 -42 44l4 25c24 13 50 26 70 26c32 0 36 -15 31 -48l-31 -252c-11 -85 15 -119 76 -119
c68 0 114 48 142 131l26 193c4 31 -8 60 -43 44l4 25c24 13 51 26 70 26c32 0 35 -15 30 -48z" />
    <glyph glyph-name="uacute" unicode="&#xfa;" horiz-adv-x="467" 
d="M344 618l-137 -78c-8 -5 -15 -5 -18 1c-3 5 -2 11 7 19l124 109c21 19 44 14 51 -1c7 -17 3 -33 -27 -50zM416 409l-39 -323c-4 -33 10 -75 59 -34l-10 -32c-28 -16 -40 -20 -52 -20c-44 0 -63 35 -58 72l5 35c-16 -41 -69 -113 -147 -113c-88 0 -133 57 -120 163l25 205
c4 35 -7 60 -42 44l4 25c24 13 50 26 70 26c32 0 36 -15 31 -48l-31 -252c-11 -85 15 -119 76 -119c68 0 114 48 142 131l26 193c4 31 -8 60 -43 44l4 25c24 13 51 26 70 26c32 0 35 -15 30 -48z" />
    <glyph glyph-name="ubreve" unicode="&#x16d;" horiz-adv-x="467" 
d="M277 562c-73 0 -107 64 -102 122c0 5 4 7 7 7h6c7 0 10 -4 9 -15c-1 -26 23 -61 82 -61c60 0 95 37 103 69c1 5 3 7 9 7h5c5 0 10 -4 8 -15c-10 -53 -58 -114 -127 -114zM416 409l-39 -323c-4 -33 10 -75 59 -34l-10 -32c-28 -16 -40 -20 -52 -20c-44 0 -63 35 -58 72
l5 35c-16 -41 -69 -113 -147 -113c-88 0 -133 57 -120 163l25 205c4 35 -7 60 -42 44l4 25c24 13 50 26 70 26c32 0 36 -15 31 -48l-31 -252c-11 -85 15 -119 76 -119c68 0 114 48 142 131l26 193c4 31 -8 60 -43 44l4 25c24 13 51 26 70 26c32 0 35 -15 30 -48z" />
    <glyph glyph-name="ucircumflex" unicode="&#xfb;" horiz-adv-x="467" 
d="M257 607l-117 -78h-34l159 143l124 -143h-34zM416 409l-39 -323c-4 -33 10 -75 59 -34l-10 -32c-28 -16 -40 -20 -52 -20c-44 0 -63 35 -58 72l5 35c-16 -41 -69 -113 -147 -113c-88 0 -133 57 -120 163l25 205c4 35 -7 60 -42 44l4 25c24 13 50 26 70 26
c32 0 36 -15 31 -48l-31 -252c-11 -85 15 -119 76 -119c68 0 114 48 142 131l26 193c4 31 -8 60 -43 44l4 25c24 13 51 26 70 26c32 0 35 -15 30 -48z" />
    <glyph glyph-name="udieresis" unicode="&#xfc;" horiz-adv-x="467" 
d="M93 620c0 -23 -13 -49 -43 -49c-21 0 -34 19 -34 42s17 46 40 46s37 -17 37 -39zM479 659c22 0 37 -17 37 -39c0 -24 -14 -49 -43 -49c-21 0 -34 19 -34 42s17 46 40 46zM416 409l-39 -323c-4 -33 10 -75 59 -34l-10 -32c-28 -16 -40 -20 -52 -20c-44 0 -63 35 -58 72
l5 35c-16 -41 -69 -113 -147 -113c-88 0 -133 57 -120 163l25 205c4 35 -7 60 -42 44l4 25c24 13 50 26 70 26c32 0 36 -15 31 -48l-31 -252c-11 -85 15 -119 76 -119c68 0 114 48 142 131l26 193c4 31 -8 60 -43 44l4 25c24 13 51 26 70 26c32 0 35 -15 30 -48z" />
    <glyph glyph-name="ugrave" unicode="&#xf9;" horiz-adv-x="467" 
d="M294 540l-137 78c-30 17 -34 33 -26 50c6 15 29 20 50 1l124 -109c10 -8 10 -14 7 -19c-3 -6 -10 -6 -18 -1zM416 409l-39 -323c-4 -33 10 -75 59 -34l-10 -32c-28 -16 -40 -20 -52 -20c-44 0 -63 35 -58 72l5 35c-16 -41 -69 -113 -147 -113c-88 0 -133 57 -120 163
l25 205c4 35 -7 60 -42 44l4 25c24 13 50 26 70 26c32 0 36 -15 31 -48l-31 -252c-11 -85 15 -119 76 -119c68 0 114 48 142 131l26 193c4 31 -8 60 -43 44l4 25c24 13 51 26 70 26c32 0 35 -15 30 -48z" />
    <glyph glyph-name="uhungarumlaut" unicode="&#x171;" horiz-adv-x="467" 
d="M224 618l-137 -78c-8 -5 -15 -5 -18 1c-3 5 -2 11 7 19l124 109c21 19 44 14 51 -1c7 -17 3 -33 -27 -50zM415 618l-137 -78c-8 -5 -15 -5 -18 1c-3 5 -2 11 7 19l124 109c21 19 44 14 51 -1c7 -17 3 -33 -27 -50zM416 409l-39 -323c-4 -33 10 -75 59 -34l-10 -32
c-28 -16 -40 -20 -52 -20c-44 0 -63 35 -58 72l5 35c-16 -41 -69 -113 -147 -113c-88 0 -133 57 -120 163l25 205c4 35 -7 60 -42 44l4 25c24 13 50 26 70 26c32 0 36 -15 31 -48l-31 -252c-11 -85 15 -119 76 -119c68 0 114 48 142 131l26 193c4 31 -8 60 -43 44l4 25
c24 13 51 26 70 26c32 0 35 -15 30 -48z" />
    <glyph glyph-name="umacron" unicode="&#x16b;" horiz-adv-x="467" 
d="M392 607h-251c-12 0 -18 7 -15 19h-1c2 12 7 16 19 16h251c12 0 18 -7 15 -19h1c-1 -12 -7 -16 -19 -16zM416 409l-39 -323c-4 -33 10 -75 59 -34l-10 -32c-28 -16 -40 -20 -52 -20c-44 0 -63 35 -58 72l5 35c-16 -41 -69 -113 -147 -113c-88 0 -133 57 -120 163l25 205
c4 35 -7 60 -42 44l4 25c24 13 50 26 70 26c32 0 36 -15 31 -48l-31 -252c-11 -85 15 -119 76 -119c68 0 114 48 142 131l26 193c4 31 -8 60 -43 44l4 25c24 13 51 26 70 26c32 0 35 -15 30 -48z" />
    <glyph glyph-name="uogonek" unicode="&#x173;" horiz-adv-x="472" 
d="M381 1c-121 -35 -121 -86 -121 -107c0 -26 20 -44 48 -44c40 0 66 23 83 54h19c-17 -32 -56 -89 -134 -89c-34 0 -78 24 -78 65c0 39 17 88 152 124c-27 11 -38 39 -34 68l5 35c-16 -41 -69 -113 -147 -113c-88 0 -133 57 -120 163l25 205c4 35 -7 60 -42 44l4 25
c24 13 50 26 70 26c32 0 36 -15 31 -48l-31 -252c-11 -85 15 -119 76 -119c68 0 114 48 142 131l26 193c4 31 -8 60 -43 44l4 25c24 13 51 26 70 26c32 0 35 -15 30 -48l-39 -323c-4 -33 10 -75 59 -34l-10 -32c-23 -13 -35 -18 -45 -19z" />
    <glyph glyph-name="uring" unicode="&#x16f;" horiz-adv-x="467" 
d="M255 558c-38 0 -66 30 -66 71c0 46 39 89 81 89c39 0 67 -31 67 -74c0 -42 -41 -86 -82 -86zM268 692c-21 0 -40 -19 -40 -57c0 -34 8 -51 31 -51c21 0 42 18 42 55c0 38 -14 53 -33 53zM416 409l-39 -323c-4 -33 10 -75 59 -34l-10 -32c-28 -16 -40 -20 -52 -20
c-44 0 -63 35 -58 72l5 35c-16 -41 -69 -113 -147 -113c-88 0 -133 57 -120 163l25 205c4 35 -7 60 -42 44l4 25c24 13 50 26 70 26c32 0 36 -15 31 -48l-31 -252c-11 -85 15 -119 76 -119c68 0 114 48 142 131l26 193c4 31 -8 60 -43 44l4 25c24 13 51 26 70 26
c32 0 35 -15 30 -48z" />
    <glyph glyph-name="v" unicode="v" horiz-adv-x="434" 
d="M391 458c31 0 54 -15 39 -53c-58 -137 -153 -260 -262 -410l-85 384c-6 32 -21 42 -55 25l5 22c16 13 42 29 62 29c38 0 39 -37 49 -82l61 -270c62 89 133 189 173 282c9 23 -28 39 -63 19l3 23c27 17 58 31 73 31zM170 -14h-9l7 9z" />
    <glyph glyph-name="w" unicode="w" horiz-adv-x="729" 
d="M687 458c31 0 54 -15 39 -53c-58 -137 -153 -260 -262 -410l-73 329c-57 -106 -135 -208 -223 -329l-85 384c-6 32 -21 42 -55 25l5 22c16 13 42 29 62 29c38 0 39 -37 49 -82l61 -270c62 88 132 188 172 280h1c-6 29 -21 37 -54 21l5 22c16 13 42 29 62 29
c38 0 39 -37 49 -82l61 -270c61 89 133 189 173 282c9 23 -28 39 -63 19l2 23c28 17 59 31 74 31zM170 -14h-9l7 9zM466 -14h-9l7 9z" />
    <glyph glyph-name="wacute" unicode="&#x1e83;" horiz-adv-x="729" 
d="M501 618l-137 -78c-8 -5 -15 -5 -18 1c-3 5 -2 11 7 19l124 109c21 19 44 14 51 -1c7 -17 3 -33 -27 -50zM687 458c31 0 54 -15 39 -53c-58 -137 -153 -260 -262 -410l-73 329c-57 -106 -135 -208 -223 -329l-85 384c-6 32 -21 42 -55 25l5 22c16 13 42 29 62 29
c38 0 39 -37 49 -82l61 -270c62 88 132 188 172 280h1c-6 29 -21 37 -54 21l5 22c16 13 42 29 62 29c38 0 39 -37 49 -82l61 -270c61 89 133 189 173 282c9 23 -28 39 -63 19l2 23c28 17 59 31 74 31zM466 -14h-9l7 9zM170 -14h-9l7 9z" />
    <glyph glyph-name="wcircumflex" unicode="&#x175;" horiz-adv-x="729" 
d="M414 607l-117 -78h-34l159 143l124 -143h-34zM687 458c31 0 54 -15 39 -53c-58 -137 -153 -260 -262 -410l-73 329c-57 -106 -135 -208 -223 -329l-85 384c-6 32 -21 42 -55 25l5 22c16 13 42 29 62 29c38 0 39 -37 49 -82l61 -270c62 88 132 188 172 280h1
c-6 29 -21 37 -54 21l5 22c16 13 42 29 62 29c38 0 39 -37 49 -82l61 -270c61 89 133 189 173 282c9 23 -28 39 -63 19l2 23c28 17 59 31 74 31zM466 -14h-9l7 9zM170 -14h-9l7 9z" />
    <glyph glyph-name="wdieresis" unicode="&#x1e85;" horiz-adv-x="729" 
d="M207 571c-21 0 -34 19 -34 42s17 46 40 46s37 -17 37 -39c0 -23 -13 -49 -43 -49zM630 571c-21 0 -34 19 -34 42s17 46 40 46c22 0 37 -17 37 -39c0 -24 -14 -49 -43 -49zM687 458c31 0 54 -15 39 -53c-58 -137 -153 -260 -262 -410l-73 329
c-57 -106 -135 -208 -223 -329l-85 384c-6 32 -21 42 -55 25l5 22c16 13 42 29 62 29c38 0 39 -37 49 -82l61 -270c62 88 132 188 172 280h1c-6 29 -21 37 -54 21l5 22c16 13 42 29 62 29c38 0 39 -37 49 -82l61 -270c61 89 133 189 173 282c9 23 -28 39 -63 19l2 23
c28 17 59 31 74 31zM170 -14h-9l7 9zM466 -14h-9l7 9z" />
    <glyph glyph-name="wgrave" unicode="&#x1e81;" horiz-adv-x="729" 
d="M451 540l-137 78c-30 17 -34 33 -26 50c6 15 29 20 50 1l124 -109c10 -8 10 -14 7 -19c-3 -6 -10 -6 -18 -1zM687 458c31 0 54 -15 39 -53c-58 -137 -153 -260 -262 -410l-73 329c-57 -106 -135 -208 -223 -329l-85 384c-6 32 -21 42 -55 25l5 22c16 13 42 29 62 29
c38 0 39 -37 49 -82l61 -270c62 88 132 188 172 280h1c-6 29 -21 37 -54 21l5 22c16 13 42 29 62 29c38 0 39 -37 49 -82l61 -270c61 89 133 189 173 282c9 23 -28 39 -63 19l2 23c28 17 59 31 74 31zM466 -14h-9l7 9zM170 -14h-9l7 9z" />
    <glyph glyph-name="x" unicode="x" horiz-adv-x="464" 
d="M407 456c37 0 56 -17 56 -39c0 -18 -12 -33 -31 -33c-26 0 -27 28 -47 28c-15 0 -28 -16 -36 -28l-96 -156l62 -156c13 -35 46 -42 95 -6l-14 -42c-27 -21 -47 -26 -70 -26c-30 0 -51 32 -67 69l-42 103l-61 -98c-26 -40 -42 -74 -90 -74c-37 0 -61 21 -61 42
c0 20 12 32 30 32c27 0 27 -29 47 -29c15 0 29 16 36 28l84 135l-75 183c-14 32 -46 29 -84 13l5 25c24 16 48 30 76 30s47 -29 64 -68l50 -125l74 118c25 40 47 74 95 74z" />
    <glyph glyph-name="y" unicode="y" horiz-adv-x="463" 
d="M415 458c31 0 54 -15 39 -53c-100 -243 -359 -620 -459 -620c-52 0 -71 34 -71 63c0 25 12 37 37 37c41 0 12 -42 53 -42c39 0 105 72 175 170l-82 366c-6 32 -21 42 -55 25l5 22c16 13 42 29 62 29c38 0 44 -30 54 -75l62 -297c63 97 123 208 164 301
c9 23 -25 40 -60 20l2 23c28 17 59 31 74 31z" />
    <glyph glyph-name="yacute" unicode="&#xfd;" horiz-adv-x="463" 
d="M360 618l-137 -78c-8 -5 -15 -5 -18 1c-3 5 -2 11 7 19l124 109c21 19 44 14 51 -1c7 -17 3 -33 -27 -50zM415 458c31 0 54 -15 39 -53c-100 -243 -359 -620 -459 -620c-52 0 -71 34 -71 63c0 25 12 37 37 37c41 0 12 -42 53 -42c39 0 105 72 175 170l-82 366
c-6 32 -21 42 -55 25l5 22c16 13 42 29 62 29c38 0 44 -30 54 -75l62 -297c63 97 123 208 164 301c9 23 -25 40 -60 20l2 23c28 17 59 31 74 31z" />
    <glyph glyph-name="ycircumflex" unicode="&#x177;" horiz-adv-x="463" 
d="M272 607l-117 -78h-34l159 143l124 -143h-34zM415 458c31 0 54 -15 39 -53c-100 -243 -359 -620 -459 -620c-52 0 -71 34 -71 63c0 25 12 37 37 37c41 0 12 -42 53 -42c39 0 105 72 175 170l-82 366c-6 32 -21 42 -55 25l5 22c16 13 42 29 62 29c38 0 44 -30 54 -75
l62 -297c63 97 123 208 164 301c9 23 -25 40 -60 20l2 23c28 17 59 31 74 31z" />
    <glyph glyph-name="ydieresis" unicode="&#xff;" horiz-adv-x="463" 
d="M66 571c-21 0 -34 19 -34 42s17 46 40 46s37 -17 37 -39c0 -23 -13 -49 -43 -49zM495 659c22 0 37 -17 37 -39c0 -24 -14 -49 -43 -49c-21 0 -34 19 -34 42s17 46 40 46zM415 458c31 0 54 -15 39 -53c-100 -243 -359 -620 -459 -620c-52 0 -71 34 -71 63
c0 25 12 37 37 37c41 0 12 -42 53 -42c39 0 105 72 175 170l-82 366c-6 32 -21 42 -55 25l5 22c16 13 42 29 62 29c38 0 44 -30 54 -75l62 -297c63 97 123 208 164 301c9 23 -25 40 -60 20l2 23c28 17 59 31 74 31z" />
    <glyph glyph-name="ygrave" unicode="&#x1ef3;" horiz-adv-x="463" 
d="M310 540l-137 78c-30 17 -34 33 -26 50c6 15 29 20 50 1l124 -109c10 -8 10 -14 7 -19c-3 -6 -10 -6 -18 -1zM415 458c31 0 54 -15 39 -53c-100 -243 -359 -620 -459 -620c-52 0 -71 34 -71 63c0 25 12 37 37 37c41 0 12 -42 53 -42c39 0 105 72 175 170l-82 366
c-6 32 -21 42 -55 25l5 22c16 13 42 29 62 29c38 0 44 -30 54 -75l62 -297c63 97 123 208 164 301c9 23 -25 40 -60 20l2 23c28 17 59 31 74 31z" />
    <glyph glyph-name="z" unicode="z" horiz-adv-x="434" 
d="M386 101l-28 -101h-303c-24 0 -30 28 -13 50l285 370l-210 -7c-16 -1 -18 -25 -26 -39l-9 -21h-22l30 109h340l-329 -419l229 4c16 -1 24 22 30 37l8 17h18z" />
    <glyph glyph-name="zacute" unicode="&#x17a;" horiz-adv-x="434" 
d="M328 669l-124 -109c-9 -8 -10 -14 -7 -19c3 -6 10 -6 18 -1l137 78c30 17 34 33 27 50c-7 15 -30 20 -51 1zM386 101l-28 -101h-303c-24 0 -30 28 -13 50l285 370l-210 -7c-16 -1 -18 -25 -26 -39l-9 -21h-22l30 109h340l-329 -419l229 4c16 -1 24 22 30 37l8 17h18z" />
    <glyph glyph-name="zcaron" unicode="&#x17e;" horiz-adv-x="434" 
d="M257 524l-105 143h32l83 -78l106 78h30zM386 101l-28 -101h-303c-24 0 -30 28 -13 50l285 370l-210 -7c-16 -1 -18 -25 -26 -39l-9 -21h-22l30 109h340l-329 -419l229 4c16 -1 24 22 30 37l8 17h18z" />
    <glyph glyph-name="zdotaccent" unicode="&#x17c;" horiz-adv-x="434" 
d="M261 575c-23 0 -36 21 -36 44c0 25 17 50 42 50c23 0 38 -19 38 -42c0 -25 -14 -52 -44 -52zM386 101l-28 -101h-303c-24 0 -30 28 -13 50l285 370l-210 -7c-16 -1 -18 -25 -26 -39l-9 -21h-22l30 109h340l-329 -419l229 4c16 -1 24 22 30 37l8 17h18z" />
    <glyph glyph-name="f_b" horiz-adv-x="812" 
d="M636 462c86 0 145 -64 145 -185c0 -129 -102 -283 -246 -283c-89 0 -146 39 -134 133l49 398c8 65 -11 107 -98 107c-65 0 -107 -46 -122 -152l-3 -24h138c-8 -27 -13 -34 -30 -34h-112l-59 -458c-14 -111 -64 -178 -137 -178c-78 0 -110 55 -110 94c0 20 13 31 27 31
c15 0 34 -9 34 -40c0 -21 3 -52 40 -52c56 0 73 51 83 126l62 477h-70l4 34h70l1 5c18 142 89 206 192 206c114 0 155 -74 151 -142l-6 -51c-2 -29 -10 -71 -27 -117l19 25c26 30 72 80 139 80zM545 25c130 0 174 140 174 240c0 94 -36 153 -89 153c-58 0 -90 -34 -144 -95
l-26 -204c-7 -57 17 -94 85 -94z" />
    <glyph glyph-name="f_h" horiz-adv-x="826" 
d="M752 285l-23 -199c-4 -33 7 -75 56 -34l-10 -32c-28 -16 -38 -20 -60 -20c-36 0 -58 33 -53 73l29 230c8 69 -4 114 -58 114c-66 0 -122 -57 -141 -84l-46 -333h-58l66 525c8 65 -15 107 -102 107c-65 0 -107 -46 -122 -152l-3 -24h138c-8 -27 -13 -34 -30 -34h-112
l-59 -458c-14 -111 -64 -178 -137 -178c-78 0 -110 55 -110 94c0 20 13 31 27 31c15 0 34 -9 34 -40c0 -21 3 -52 40 -52c56 0 73 51 83 126l62 477h-70l4 34h70l1 5c18 142 89 206 192 206c114 0 164 -74 156 -142l-20 -144l-7 -26c20 27 74 104 162 104
c86 0 117 -39 101 -174z" />
    <glyph glyph-name="f_j" horiz-adv-x="534" 
d="M320 422h-102l-59 -458c-14 -111 -64 -178 -137 -178c-78 0 -110 55 -110 94c0 20 13 31 27 31c15 0 34 -9 34 -40c0 -21 3 -52 40 -52c56 0 73 51 83 126l62 477h-70l4 34h70l5 36c13 111 53 175 154 175c92 0 136 -64 136 -93c0 -21 -13 -32 -30 -32
c-16 0 -30 8 -30 32c0 19 -20 58 -85 58c-62 0 -72 -46 -83 -121l-7 -55h128c-8 -27 -13 -34 -30 -34zM518 457c26 0 27 -22 21 -70l-52 -423c-14 -111 -64 -178 -137 -178c-77 0 -110 55 -110 94c0 20 13 31 28 31c14 0 33 -9 33 -40c0 -21 4 -52 40 -52c56 0 75 51 84 126
l54 422c4 33 -9 54 -44 39l5 25c23 13 50 26 78 26z" />
    <glyph glyph-name="f_k" horiz-adv-x="783" 
d="M528 240l162 -198c16 -19 21 -22 47 -22l-2 -20h-139l2 20c34 0 34 15 31 20l-160 194l-24 -187c-3 -23 8 -27 23 -27l-1 -20h-120l1 20c17 0 34 7 37 30l58 465c10 75 -9 117 -96 117c-65 0 -107 -46 -122 -152l-3 -24h138c-8 -27 -13 -34 -30 -34h-112l-59 -458
c-14 -111 -64 -178 -137 -178c-78 0 -110 55 -110 94c0 20 13 31 27 31c15 0 34 -9 34 -40c0 -21 3 -52 40 -52c56 0 73 51 83 126l62 477h-70l4 34h70l1 5c18 142 89 206 192 206c114 0 160 -74 150 -152l-22 -175c27 72 84 120 148 120c56 0 91 -32 91 -72
c0 -38 -30 -81 -105 -112zM475 285l-6 -49l139 64c33 15 51 43 51 65c0 26 -21 47 -63 47c-65 0 -102 -71 -121 -127z" />
    <glyph glyph-name="ordfeminine" unicode="&#xaa;" horiz-adv-x="328" 
d="M306 517l-16 -125c-4 -24 8 -29 28 -20l-3 -21l-35 -14c-19 -7 -35 23 -30 67c-14 -36 -45 -67 -90 -68c-42 -1 -79 20 -72 71c6 45 36 78 174 98l2 13c5 36 4 86 -45 81c-15 -1 -20 -3 -32 -8c-23 -7 -17 -30 -22 -51c-5 -8 -18 -13 -29 -9c-15 1 -20 13 -12 39
c9 24 45 43 83 47c70 7 107 -30 99 -100zM169 360c46 0 70 43 83 64l10 66c-112 -18 -127 -61 -131 -90c-2 -24 12 -40 38 -40zM77 270h222l-4 -27h-222z" />
    <glyph glyph-name="ordmasculine" unicode="&#xba;" horiz-adv-x="326" 
d="M230 617c61 -1 111 -53 101 -142c-11 -87 -73 -138 -131 -138c-62 0 -113 54 -102 141c11 89 75 138 132 139zM288 471c8 67 -18 124 -57 124c-47 0 -79 -31 -89 -113c-9 -66 19 -122 54 -122c49 0 82 30 92 111zM79 270h220l-4 -27h-220z" />
    <glyph glyph-name="uni0410" unicode="&#x410;" horiz-adv-x="623" 
d="M374 630l137 -524c20 -75 35 -79 70 -89l-3 -17h-177l2 17c54 12 57 31 49 58l-35 141h-237l-68 -139c-17 -33 1 -47 43 -60l-3 -17h-150l2 17c38 11 51 15 77 68l239 485c9 20 14 35 14 51zM195 247h214l-73 291z" />
    <glyph glyph-name="uni0411" unicode="&#x411;" horiz-adv-x="556" 
d="M207 564l-64 -500c-2 -23 15 -31 57 -30l-3 -34h-189l3 33c41 -1 63 11 66 34l63 506c3 23 -14 20 -57 14l4 34h383c11 0 23 -9 23 -24l13 -80h-18l-10 33c-9 28 -28 35 -66 36l-153 3c-33 -2 -49 -3 -52 -25zM186 381h136c101 0 181 -62 181 -167
c-1 -155 -126 -214 -234 -214h-66l4 34h81c124 0 139 133 142 201c0 67 -29 113 -122 113h-126z" />
    <glyph glyph-name="uni0412" unicode="&#x412;" horiz-adv-x="540" 
d="M390 340c70 -15 114 -68 114 -142c0 -96 -56 -198 -245 -198c-114 0 -129 12 -155 12c-31 0 -61 -8 -96 -12l3 29c41 10 60 24 63 49l57 472c3 23 -14 37 -49 43l4 28h253c103 0 170 -39 170 -128c0 -50 -30 -124 -119 -153zM194 593l-29 -238h140c117 0 138 97 138 152
c0 59 -29 86 -93 86h-156zM248 30c168 0 189 108 189 179c0 74 -47 120 -164 120h-111l-29 -248c-6 -59 72 -51 115 -51z" />
    <glyph glyph-name="uni0413" unicode="&#x413;" horiz-adv-x="495" 
d="M493 597l13 -80h-18l-10 33c-9 28 -28 35 -66 36l-153 3c-33 -2 -49 -3 -52 -25l-64 -500c-2 -23 15 -31 57 -30l-3 -34h-189l3 33c41 -1 63 11 66 34l63 506c3 23 -14 20 -57 14l4 34h383c11 0 23 -9 23 -24z" />
    <glyph glyph-name="uni0403" unicode="&#x403;" horiz-adv-x="495" 
d="M574 1226c7 -17 3 -33 -27 -50l-137 -78c-8 -5 -15 -5 -18 1c-3 5 -2 11 7 19l124 109c21 19 44 14 51 -1zM87 621h383c11 0 23 -9 23 -24l13 -80h-18l-10 33c-9 28 -28 35 -66 36l-153 3c-33 -2 -49 -3 -52 -25l-64 -500c-2 -23 15 -31 57 -30l-3 -34h-189l3 33
c41 -1 63 11 66 34l63 506c3 23 -14 20 -57 14z" />
    <glyph glyph-name="uni0490" unicode="&#x490;" horiz-adv-x="475" 
d="M484 695h23l-10 -84c-2 -15 -17 -21 -29 -21h-221c-23 -1 -38 -7 -40 -26l-63 -500c-3 -23 14 -31 56 -30l-4 -34h-188l3 33c41 -1 63 11 66 34l64 506c2 23 -15 20 -58 14l3 34h301c38 0 60 14 76 42z" />
    <glyph glyph-name="uni0414" unicode="&#x414;" horiz-adv-x="594" 
d="M605 621l-3 -34c-43 0 -73 -12 -74 -29l-62 -494c-4 -31 11 -35 55 -36c9 0 12 -6 12 -14l-45 -179h-5c-6 0 -10 5 -8 15c13 105 38 150 -140 150h-113c-170 0 -184 -47 -198 -158c-1 -4 -4 -7 -10 -7h-17l23 184c1 6 3 8 8 11c109 19 161 228 198 533
c4 20 -13 24 -63 24l2 34h440zM93 28l251 1c32 0 54 6 57 39l62 485c3 23 -16 26 -47 26h-108c-26 0 -47 -4 -50 -30c-34 -267 -86 -487 -165 -521z" />
    <glyph glyph-name="uni0415" unicode="&#x415;" 
d="M439 112l25 -2c-18 -32 -28 -56 -39 -91c-6 -12 -17 -19 -29 -19h-377l3 15c30 13 44 19 49 58l59 481c5 39 -7 38 -34 50l3 17h373c12 0 17 -4 15 -19l-13 -96h-17l-10 35c-8 28 -23 52 -62 52h-180l-32 -261h163c30 0 39 30 55 61h12l-20 -153h-12c-8 32 -7 62 -37 62
h-165l-36 -277l209 2c44 0 48 29 69 54z" />
    <glyph glyph-name="uni0400" unicode="&#x400;" 
d="M349 730l-124 109c-21 19 -44 14 -50 -1c-8 -17 -4 -33 26 -50l137 -78c8 -5 15 -5 18 1c3 5 3 11 -7 19zM439 112l25 -2c-18 -32 -28 -56 -39 -91c-6 -12 -17 -19 -29 -19h-377l3 15c30 13 44 19 49 58l59 481c5 39 -7 38 -34 50l3 17h373c12 0 17 -4 15 -19l-13 -96
h-17l-10 35c-8 28 -23 52 -62 52h-180l-32 -261h163c30 0 39 30 55 61h12l-20 -153h-12c-8 32 -7 62 -37 62h-165l-36 -277l209 2c44 0 48 29 69 54z" />
    <glyph glyph-name="uni0401" unicode="&#x401;" 
d="M95 741c-21 0 -34 19 -34 42s17 46 40 46s37 -17 37 -39c0 -23 -13 -49 -43 -49zM518 741c-21 0 -34 19 -34 42s17 46 40 46c22 0 37 -17 37 -39c0 -24 -14 -49 -43 -49zM439 112l25 -2c-18 -32 -28 -56 -39 -91c-6 -12 -17 -19 -29 -19h-377l3 15c30 13 44 19 49 58
l59 481c5 39 -7 38 -34 50l3 17h373c12 0 17 -4 15 -19l-13 -96h-17l-10 35c-8 28 -23 52 -62 52h-180l-32 -261h163c30 0 39 30 55 61h12l-20 -153h-12c-8 32 -7 62 -37 62h-165l-36 -277l209 2c44 0 48 29 69 54z" />
    <glyph glyph-name="uni0416" unicode="&#x416;" horiz-adv-x="853" 
d="M793 621c56 0 75 -12 71 -48c-4 -28 -31 -57 -57 -29c-29 22 -39 40 -61 13l-181 -223l138 -228c40 -68 60 -80 99 -85l-1 -21h-172l1 20c26 5 49 22 32 47l-141 219h-24l-29 -228c-3 -23 11 -34 55 -38l-1 -20h-186l1 20c45 4 64 17 66 40l29 226h-25l-197 -223
c-22 -25 -5 -37 18 -42v-21h-171l1 21c42 5 64 21 122 89l194 224l-121 227c-14 27 -32 4 -64 -23c-33 -23 -55 10 -50 44c4 30 25 39 76 39c34 0 62 -35 84 -78l82 -164c18 -37 39 -40 51 -40h6l29 224c5 35 -12 32 -55 38l1 20h186v-20c-45 -7 -64 -6 -67 -40l-28 -222h4
c12 0 34 7 62 44l124 164c30 43 70 74 99 74z" />
    <glyph glyph-name="uni0417" unicode="&#x417;" horiz-adv-x="512" 
d="M370 365c53 6 117 -55 103 -163c-16 -128 -121 -214 -234 -214c-147 0 -215 76 -201 186c5 40 15 53 40 53c32 0 18 -35 23 -97c12 -74 59 -114 137 -114c75 0 150 60 166 175c10 77 -42 127 -91 127c-13 0 -26 -3 -37 -7l-36 -13l-8 29l40 18c71 30 119 80 128 147
c9 61 -11 114 -79 114c-71 0 -132 -42 -171 -134c-12 -19 -15 -31 -18 -43c-6 -8 -12 -9 -21 -6l-27 8l34 190h6c10 0 17 -7 17 -21c1 -19 2 -45 21 -43c36 46 78 80 146 80c113 0 165 -81 155 -150c-6 -59 -48 -105 -93 -122z" />
    <glyph glyph-name="uni0418" unicode="&#x418;" horiz-adv-x="580" 
d="M425 621h155l-2 -20c-40 -7 -50 -13 -54 -48l-61 -486c-4 -40 8 -39 39 -50l-3 -17h-153l3 17c33 11 44 14 49 48l47 375l-312 -338l-5 6l-5 -41c-4 -40 8 -39 39 -50l-2 -17h-154l3 17c33 11 45 14 49 48l61 486c5 40 -4 39 -36 50l2 20h155l-2 -20
c-40 -7 -49 -13 -54 -48l-52 -414l319 346l8 66c5 40 -4 39 -37 50z" />
    <glyph glyph-name="uni0419" unicode="&#x419;" horiz-adv-x="580" 
d="M388 732c-73 0 -107 64 -102 122c0 5 4 7 7 7h6c7 0 10 -4 9 -15c-1 -26 23 -61 82 -61c60 0 95 37 103 69c1 5 3 7 9 7h5c5 0 10 -4 8 -15c-10 -53 -58 -114 -127 -114zM425 621h155l-2 -20c-40 -7 -50 -13 -54 -48l-61 -486c-4 -40 8 -39 39 -50l-3 -17h-153l3 17
c33 11 44 14 49 48l47 375l-312 -338l-5 6l-5 -41c-4 -40 8 -39 39 -50l-2 -17h-154l3 17c33 11 45 14 49 48l61 486c5 40 -4 39 -36 50l2 20h155l-2 -20c-40 -7 -49 -13 -54 -48l-52 -414l319 346l8 66c5 40 -4 39 -37 50z" />
    <glyph glyph-name="uni040D" unicode="&#x40d;" horiz-adv-x="580" 
d="M406 710l-137 78c-30 17 -34 33 -26 50c6 15 29 20 50 1l124 -109c10 -8 10 -14 7 -19c-3 -6 -10 -6 -18 -1zM425 621h155l-2 -20c-40 -7 -50 -13 -54 -48l-61 -486c-4 -40 8 -39 39 -50l-3 -17h-153l3 17c33 11 44 14 49 48l47 375l-312 -338l-5 6l-5 -41
c-4 -40 8 -39 39 -50l-2 -17h-154l3 17c33 11 45 14 49 48l61 486c5 40 -4 39 -36 50l2 20h155l-2 -20c-40 -7 -49 -13 -54 -48l-52 -414l319 346l8 66c5 40 -4 39 -37 50z" />
    <glyph glyph-name="uni041A" unicode="&#x41a;" horiz-adv-x="564" 
d="M505 621c55 0 75 -14 70 -49c-4 -28 -29 -56 -56 -29c-27 22 -38 43 -60 15l-181 -224l135 -228c42 -68 61 -80 101 -85l-3 -21h-170l1 20c26 5 48 22 32 47l-141 219h-58l-29 -228c-1 -23 13 -34 57 -38l-3 -20h-186l1 20c45 4 65 17 68 40l63 503c4 35 -11 32 -55 38
l1 20h187l-2 -20c-45 -7 -62 -6 -66 -40l-29 -222h37c14 0 35 7 62 44l125 164c31 43 68 74 99 74z" />
    <glyph glyph-name="uni041B" unicode="&#x41b;" horiz-adv-x="615" 
d="M170 621h457l-1 -20c-31 -12 -48 -11 -53 -50l-63 -488c-4 -40 12 -39 40 -51v-12h-156l1 15c33 13 49 11 56 50l60 489c5 38 -9 38 -42 38h-185l-39 -316c-16 -117 -22 -287 -136 -287c-38 0 -67 14 -71 54c-5 18 0 44 15 53c21 10 48 1 50 -21c3 -25 -12 -65 15 -62
c64 6 78 117 94 243l39 309c3 23 -15 27 -33 27h-52z" />
    <glyph glyph-name="uni041C" unicode="&#x41c;" horiz-adv-x="723" 
d="M735 621l-2 -17c-33 -12 -43 -27 -48 -66l-61 -474c-4 -39 3 -40 33 -52v-12h-147v15c29 13 46 13 51 52l59 465l-269 -477c-15 -26 -11 -26 -21 0l-176 487l-60 -478c-4 -39 11 -40 37 -52l-1 -12h-122l1 15c32 13 47 13 52 52l61 474c4 39 -6 54 -36 67l-1 13h107
l173 -470l266 470h104z" />
    <glyph glyph-name="uni041D" unicode="&#x41d;" horiz-adv-x="601" 
d="M472 621h155l-2 -18c-40 -8 -50 -13 -54 -49l-61 -487c-5 -40 8 -39 39 -50l-3 -17h-153l3 17c33 11 44 14 49 48l29 234h-310l-29 -232c-5 -40 8 -39 39 -50l-3 -17h-153l3 17c33 11 44 14 49 48l61 487c5 41 -5 40 -37 51l3 18h155l-2 -18c-40 -8 -50 -13 -54 -49
l-28 -227h310l28 225c5 41 -5 40 -37 51z" />
    <glyph glyph-name="uni041E" unicode="&#x41e;" horiz-adv-x="569" 
d="M264 -6c-138 0 -219 125 -219 274c0 150 82 369 296 369c135 0 218 -116 218 -267c0 -145 -84 -376 -295 -376zM273 31c175 0 214 200 214 333c0 162 -78 240 -162 240c-167 0 -208 -189 -208 -330c0 -170 74 -243 156 -243z" />
    <glyph glyph-name="uni041F" unicode="&#x41f;" horiz-adv-x="636" 
d="M83 601l2 20h155l-2 -20c-40 -7 -49 -13 -54 -48l-61 -486c-4 -40 8 -39 39 -50l-2 -17h-154l3 17c33 11 45 14 49 48l61 486c5 40 -4 39 -36 50zM264 621h372l-2 -20c-40 -7 -49 -13 -54 -48l-61 -486c-4 -40 8 -39 39 -50l-2 -17h-154l3 17c33 11 45 14 49 48l61 486
c3 24 1 33 -8 39h-247z" />
    <glyph glyph-name="uni0420" unicode="&#x420;" horiz-adv-x="498" 
d="M87 621h228c117 0 198 -73 182 -195c-14 -115 -113 -178 -236 -178h-113l-24 -185c-5 -40 11 -39 38 -51l1 -12h-155l1 15c32 13 49 11 53 50l63 489c5 39 -11 38 -41 50zM421 434c12 84 -9 156 -94 156h-136l-40 -318h120c101 0 139 73 150 162z" />
    <glyph glyph-name="uni0421" unicode="&#x421;" horiz-adv-x="550" 
d="M513 414l-17 52c-30 90 -87 137 -150 137c-173 0 -228 -202 -228 -341c0 -161 81 -229 177 -229c91 0 165 64 190 147h35c-44 -110 -105 -186 -242 -186c-139 0 -235 111 -235 274c0 148 89 369 295 369c84 0 126 -37 159 -91c19 1 30 39 37 75h26l-19 -196z" />
    <glyph glyph-name="uni0422" unicode="&#x422;" horiz-adv-x="503" 
d="M508 660c15 0 29 -9 29 -29c0 -32 -21 -59 -92 -59c-16 0 -53 3 -97 7l-64 -514c-4 -41 13 -36 92 -47l-1 -18h-252l3 18c71 14 88 10 92 47l65 520c-54 5 -107 9 -133 9c-33 0 -40 -15 -40 -30c7 0 23 -8 23 -29c0 -19 -15 -30 -34 -30c-21 0 -43 18 -43 42
c0 44 33 79 105 79c48 0 241 -21 295 -21c33 0 48 14 48 16c-6 -2 -18 7 -18 21c0 11 11 18 22 18z" />
    <glyph glyph-name="uni0423" unicode="&#x423;" horiz-adv-x="598" 
d="M626 621l-1 -18c-37 -6 -47 -24 -69 -62l-209 -378c-74 -134 -110 -178 -155 -178c-54 0 -90 30 -90 68c0 22 16 38 36 38c57 0 22 -57 71 -57c38 0 50 27 83 81l-144 404c-22 64 -28 78 -65 84l1 18h168l-1 -18c-30 -6 -50 -19 -44 -36l121 -367l197 360
c13 25 -10 37 -42 43l1 18h142z" />
    <glyph glyph-name="uni040E" unicode="&#x40e;" horiz-adv-x="598" 
d="M376 732c-73 0 -107 64 -102 122c0 5 4 7 7 7h6c7 0 10 -4 9 -15c-1 -26 23 -61 82 -61c60 0 95 37 103 69c1 5 3 7 9 7h5c5 0 10 -4 8 -15c-10 -53 -58 -114 -127 -114zM626 621l-1 -18c-37 -6 -47 -24 -69 -62l-209 -378c-74 -134 -110 -178 -155 -178
c-54 0 -90 30 -90 68c0 22 16 38 36 38c57 0 22 -57 71 -57c38 0 50 27 83 81l-144 404c-22 64 -28 78 -65 84l1 18h168l-1 -18c-30 -6 -50 -19 -44 -36l121 -367l197 360c13 25 -10 37 -42 43l1 18h142z" />
    <glyph glyph-name="uni0424" unicode="&#x424;" horiz-adv-x="654" 
d="M394 553l-60 -486c-5 -40 7 -39 39 -50l-3 -17h-153l3 17c33 11 44 14 49 48l4 29h-26c-137 0 -203 94 -186 221c14 120 105 212 239 212h27l3 24c4 40 -5 39 -37 50l3 20h155l-2 -20c-41 -7 -50 -13 -55 -48zM396 527h53c133 0 202 -94 185 -220
c-14 -121 -102 -213 -239 -213h-53l4 34h47c106 0 154 86 167 187c12 94 -18 179 -115 179h-54zM255 128h22l46 366h-25c-97 0 -149 -88 -163 -187c-11 -96 13 -179 120 -179z" />
    <glyph glyph-name="uni0425" unicode="&#x425;" horiz-adv-x="604" 
d="M598 621l-3 -19c-37 -5 -52 -27 -79 -59l-168 -206l134 -236c33 -59 30 -77 70 -81l-1 -20h-161l1 20c26 4 51 17 42 34l-129 228l-181 -222c-20 -25 2 -36 35 -40l-1 -20h-150l3 20c37 4 61 23 90 60l187 231l-119 211c-31 54 -32 75 -70 80l1 19h161l-1 -19
c-27 -5 -50 -19 -43 -33l115 -203l160 197c16 21 -5 34 -40 39l1 19h146z" />
    <glyph glyph-name="uni0427" unicode="&#x427;" horiz-adv-x="527" 
d="M539 621l-1 -20c-30 -12 -48 -9 -53 -49l-61 -488c-5 -39 12 -40 40 -52l-1 -12h-156l-1 15c32 13 49 10 55 49l30 243c-23 -36 -79 -100 -154 -100c-87 0 -154 32 -137 169l22 167c4 33 -2 54 -48 42l15 36h156l-3 -31c-31 0 -53 -6 -54 -29l-25 -184
c-9 -71 11 -131 78 -131c68 0 133 64 153 86l30 232c0 27 -16 29 -41 40l1 17h155z" />
    <glyph glyph-name="uni0426" unicode="&#x426;" horiz-adv-x="657" 
d="M636 621l-2 -20c-40 -7 -49 -13 -54 -48l-49 -393h14l-12 -98c-4 -31 2 -30 53 -31c9 0 11 -5 11 -13l-43 -183h-3c-6 0 -10 5 -9 15c12 105 32 150 -131 150h-405l3 17c33 11 45 14 49 48l61 486c5 40 -4 39 -36 50l2 20h155l-2 -20c-40 -7 -49 -13 -54 -48l-61 -486
c-3 -31 3 -37 21 -44l1 8h271c9 0 17 0 24 1c8 6 12 15 14 33l61 486c5 40 -4 39 -36 50l2 20h155z" />
    <glyph glyph-name="uni0428" unicode="&#x428;" horiz-adv-x="821" 
d="M184 553l-61 -486c-4 -40 8 -39 39 -50l-2 -17h-154l3 17c33 11 45 14 49 48l61 486c5 40 -4 39 -36 50l2 20h155l-2 -20c-40 -7 -49 -13 -54 -48zM666 621h155l-2 -20c-40 -7 -49 -13 -54 -48l-61 -486c-4 -40 8 -39 39 -50l-2 -17h-547l3 31h136c9 6 13 16 16 34
l61 486c5 40 -5 39 -37 50l3 20h155l-2 -20c-41 -7 -50 -13 -55 -48l-60 -486c-3 -20 -1 -30 6 -36h204c8 6 13 16 15 34l61 486c5 40 -4 39 -36 50z" />
    <glyph glyph-name="uni0429" unicode="&#x429;" horiz-adv-x="855" 
d="M200 553l-61 -486c-5 -40 8 -39 39 -50l-3 -17h-153l3 17c33 11 44 14 49 48l61 486c5 40 -5 39 -37 50l3 20h155l-2 -20c-40 -7 -50 -13 -54 -48zM837 621l-2 -20c-40 -7 -50 -13 -54 -48l-49 -393h13l-11 -98c-4 -31 0 -30 52 -31c9 0 12 -5 11 -13l-44 -183h-3
c-6 0 -10 5 -8 15c13 105 23 150 -132 150h-401l4 31h136c8 6 13 16 15 34l62 486c4 40 -5 39 -37 50l3 20h154l-2 -20c-40 -7 -49 -13 -54 -48l-60 -486c-3 -20 -1 -30 6 -36h179c10 0 18 0 25 1c8 6 12 16 15 33l61 486c5 40 -5 39 -37 50l3 20h155z" />
    <glyph glyph-name="uni042F" unicode="&#x42f;" horiz-adv-x="577" 
d="M6 23h22c48 5 95 86 117 145c23 62 37 112 122 124c-91 26 -140 83 -130 159c12 99 98 170 233 170h230l-2 -13c-33 -13 -49 -28 -54 -67l-60 -477c-5 -39 11 -38 41 -51v-13h-165l2 13c32 13 51 12 55 51l28 231h-78c-98 0 -120 -38 -150 -134
c-28 -102 -91 -141 -122 -161h-92zM317 316h131l34 274h-140c-76 0 -116 -71 -124 -139c-8 -65 2 -135 99 -135z" />
    <glyph glyph-name="uni042C" unicode="&#x42c;" horiz-adv-x="541" 
d="M177 381h165c101 0 181 -61 181 -164c0 -158 -125 -217 -235 -217h-282l3 17c33 11 45 14 49 48l61 486c5 40 -4 39 -36 50l2 20h155l-2 -20c-40 -7 -49 -13 -54 -48l-61 -486c-2 -19 0 -29 6 -35h180c116 0 140 138 140 205s-30 111 -120 111h-156z" />
    <glyph glyph-name="uni042A" unicode="&#x42a;" horiz-adv-x="593" 
d="M219 381h165c101 0 180 -61 180 -164c0 -158 -124 -217 -234 -217h-282l3 17c33 11 45 14 49 48l61 486c2 16 2 25 -1 32c-30 -5 -49 -24 -63 -48l-21 -32l-18 2l34 94c5 15 17 22 27 22h163l-2 -20l-6 -1l-2 -16h-36c-6 -7 -8 -16 -10 -31l-61 -486c-2 -19 0 -29 6 -35
h180c116 0 140 138 140 205s-30 111 -120 111h-157z" />
    <glyph glyph-name="uni042B" unicode="&#x42b;" horiz-adv-x="810" 
d="M177 381h165c101 0 181 -61 181 -164c0 -158 -125 -217 -235 -217h-282l3 17c33 11 45 14 49 48l61 486c5 40 -4 39 -36 50l2 20h155l-2 -20c-40 -7 -49 -13 -54 -48l-61 -486c-2 -19 0 -29 6 -35h180c116 0 140 138 140 205s-30 111 -120 111h-156zM655 621h155l-2 -20
c-40 -7 -49 -13 -54 -48l-61 -486c-4 -40 8 -39 39 -50l-2 -17h-154l3 17c33 11 45 14 49 48l61 486c5 40 -4 39 -36 50z" />
    <glyph glyph-name="uni0405" unicode="&#x405;" horiz-adv-x="476" 
d="M450 433h-22c-12 0 -17 6 -17 16v38c0 66 -66 121 -136 121c-84 0 -134 -59 -134 -127c0 -77 73 -91 116 -114c48 -25 187 -56 187 -188c0 -134 -127 -191 -219 -191c-98 0 -125 40 -196 40l19 157h21c15 0 18 -5 18 -20c0 -83 26 -146 135 -146c64 0 150 29 150 140
c0 88 -73 111 -135 140c-61 28 -161 57 -161 168c0 90 72 170 203 170c116 0 144 -62 187 -76z" />
    <glyph glyph-name="uni0404" unicode="&#x404;" horiz-adv-x="550" 
d="M346 603c-145 0 -207 -141 -223 -269h221l-4 -36h-221c-1 -12 -1 -24 -1 -36c0 -161 81 -229 177 -229c91 0 165 64 190 147h35c-44 -110 -105 -186 -242 -186c-139 0 -235 111 -235 274c0 148 89 369 295 369c84 0 126 -37 159 -91c19 1 30 39 37 75h26l-19 -196
l-28 -11l-17 52c-30 90 -87 137 -150 137z" />
    <glyph glyph-name="uni042D" unicode="&#x42d;" horiz-adv-x="623" 
d="M354 637c146 0 249 -123 249 -271c0 -123 -109 -381 -338 -381c-97 0 -174 36 -214 121c-13 24 -19 37 -13 47c5 4 27 16 33 16c14 0 15 -15 25 -37c29 -53 69 -108 160 -108c135 0 227 150 259 274h-264l5 36h266l-2 -17c5 25 8 49 8 70c0 148 -88 217 -184 217
c-82 0 -163 -43 -215 -142c-8 -15 -15 -27 -19 -36c-5 -11 -14 -16 -24 -11l-18 8l36 198h16c11 0 15 -6 17 -17c1 -26 6 -49 23 -49c45 46 113 82 194 82z" />
    <glyph glyph-name="uni0406" unicode="&#x406;" horiz-adv-x="226" 
d="M184 553l-61 -486c-4 -40 8 -39 39 -50l-2 -17h-154l3 17c33 11 45 14 49 48l61 486c5 40 -4 39 -36 50l2 20h155l-2 -20c-40 -7 -49 -13 -54 -48z" />
    <glyph glyph-name="uni0407" unicode="&#x407;" horiz-adv-x="226" 
d="M-29 741c-21 0 -34 19 -34 42s17 46 40 46s37 -17 37 -39c0 -23 -13 -49 -43 -49zM394 741c-21 0 -34 19 -34 42s17 46 40 46c22 0 37 -17 37 -39c0 -24 -14 -49 -43 -49zM184 553l-61 -486c-4 -40 8 -39 39 -50l-2 -17h-154l3 17c33 11 45 14 49 48l61 486
c5 40 -4 39 -36 50l2 20h155l-2 -20c-40 -7 -49 -13 -54 -48z" />
    <glyph glyph-name="uni0408" unicode="&#x408;" horiz-adv-x="266" 
d="M296 621l-3 -20c-40 -7 -49 -13 -54 -48l-72 -574c-14 -102 -36 -141 -117 -141c-82 0 -101 54 -101 91c0 35 14 52 35 52c26 0 38 -19 38 -37c0 -26 -7 -81 31 -81c32 0 41 31 44 47l79 641c5 40 -6 39 -38 50l3 20h155z" />
    <glyph glyph-name="uni042E" unicode="&#x42e;" horiz-adv-x="852" 
d="M623 637c136 0 219 -116 219 -267c0 -145 -84 -376 -295 -376c-138 0 -220 125 -220 274c0 10 0 20 1 30h-176l-29 -231c-4 -40 8 -39 39 -50l-2 -17h-154l3 17c33 11 45 14 49 48l61 486c5 40 -4 39 -36 50l2 20h155l-2 -20c-40 -7 -49 -13 -54 -48l-27 -219h175
c21 141 108 303 291 303zM556 31c175 0 214 200 214 333c0 162 -79 240 -162 240c-167 0 -208 -189 -208 -330c0 -170 74 -243 156 -243z" />
    <glyph glyph-name="uni0430" unicode="&#x430;" horiz-adv-x="465" 
d="M428 451l-47 -365c-4 -33 10 -75 59 -34l-10 -32c-28 -16 -41 -20 -52 -20c-44 0 -64 35 -60 72v2c-28 -45 -82 -80 -135 -80c-96 0 -156 82 -156 196c0 104 64 272 210 272c47 0 104 -32 125 -69l8 58h58zM192 30c57 0 118 43 133 94l30 217l-1 -2
c-18 50 -55 89 -119 89c-108 0 -143 -143 -143 -234c0 -94 38 -164 100 -164z" />
    <glyph glyph-name="uni0431" unicode="&#x431;" horiz-adv-x="442" 
d="M256 462c96 0 161 -84 161 -200c0 -97 -64 -268 -210 -268c-72 0 -168 54 -168 227c0 211 75 400 243 400h119c21 0 38 5 48 16h8c-30 -88 -70 -87 -137 -87h-60c-106 0 -138 -79 -178 -207c34 66 92 119 174 119zM215 30c110 0 140 148 140 225c0 96 -42 173 -109 173
c-109 0 -143 -153 -143 -234c0 -94 47 -164 112 -164z" />
    <glyph glyph-name="uni0432" unicode="&#x432;" horiz-adv-x="426" 
d="M285 242c65 -12 101 -57 93 -118c-10 -82 -72 -126 -158 -124l-49 2c-67 5 -104 4 -160 -2l1 33c40 7 55 19 57 36l42 326c2 16 -12 29 -47 29l2 27h186c82 0 142 -34 132 -112c-5 -36 -40 -80 -99 -97zM174 424l-20 -161h117c25 0 46 29 52 77c5 53 -19 84 -67 84h-82z
M143 39l70 -1c58 -1 97 24 105 94c7 61 -30 93 -133 93h-36l-20 -158c-2 -16 1 -28 14 -28z" />
    <glyph glyph-name="uni0433" unicode="&#x433;" horiz-adv-x="418" 
d="M395 427l11 -92l-20 -2l-9 34c-9 28 -26 55 -64 55h-86c-32 0 -53 -1 -56 -25l-41 -332c-3 -23 14 -26 55 -31l-3 -34h-175l4 34c32 5 54 11 56 34l43 331c1 23 -17 26 -48 26l2 26h307c12 0 23 -9 24 -24z" />
    <glyph glyph-name="uni0453" unicode="&#x453;" horiz-adv-x="418" 
d="M306 618l-137 -78c-8 -5 -15 -5 -18 1c-3 5 -2 11 7 19l124 109c21 19 44 14 51 -1c7 -17 3 -33 -27 -50zM395 427l11 -92l-20 -2l-9 34c-9 28 -26 55 -64 55h-86c-32 0 -53 -1 -56 -25l-41 -332c-3 -23 14 -26 55 -31l-3 -34h-175l4 34c32 5 54 11 56 34l43 331
c1 23 -17 26 -48 26l2 26h307c12 0 23 -9 24 -24z" />
    <glyph glyph-name="uni0491" unicode="&#x491;" horiz-adv-x="384" 
d="M379 525h18l-9 -72c-2 -20 -20 -31 -36 -31l-148 -1c-19 -1 -31 -6 -33 -24l-41 -332c-3 -23 16 -26 55 -31l-3 -34h-175l4 34c32 5 54 11 57 34l42 331c3 23 -17 26 -48 26l2 26h218c39 0 61 14 77 42z" />
    <glyph glyph-name="uni0434" unicode="&#x434;" horiz-adv-x="550" 
d="M540 451l-2 -26c-43 0 -71 -6 -74 -29l-42 -326c-4 -31 13 -35 58 -36c9 0 9 -6 9 -14l-39 -155h-9c-6 0 -10 5 -9 15c11 75 35 120 -134 120h-75c-172 0 -186 -47 -196 -128c-2 -4 -5 -7 -10 -7h-16l20 160c0 6 2 9 7 11c109 19 154 207 174 365c2 20 -14 24 -67 24
l3 26h402zM108 33l196 1c31 0 53 6 57 39l40 323c3 23 -5 27 -27 27h-104c-20 0 -28 -5 -31 -31c-22 -174 -68 -319 -131 -359z" />
    <glyph glyph-name="uni0435" unicode="&#x435;" horiz-adv-x="404" 
d="M379 323c0 -76 -48 -85 -143 -102l-146 -23c-2 -69 15 -168 114 -168c65 0 110 36 141 75l11 -30c-25 -33 -76 -81 -169 -81c-98 0 -164 81 -164 196c0 104 55 272 215 272c94 0 141 -69 141 -139zM92 231l199 30c18 2 24 33 24 60c0 51 -25 106 -86 106
c-74 0 -126 -88 -137 -196z" />
    <glyph glyph-name="uni0450" unicode="&#x450;" horiz-adv-x="407" 
d="M352 560l-124 109c-21 19 -44 14 -50 -1c-8 -17 -4 -33 26 -50l137 -78c8 -5 15 -5 18 1c3 5 3 11 -7 19zM379 323c0 -76 -48 -85 -143 -102l-146 -23c-2 -69 15 -168 114 -168c65 0 110 36 141 75l11 -30c-25 -33 -76 -81 -169 -81c-98 0 -164 81 -164 196
c0 104 55 272 215 272c94 0 141 -69 141 -139zM92 231l199 30c18 2 24 33 24 60c0 51 -25 106 -86 106c-74 0 -126 -88 -137 -196z" />
    <glyph glyph-name="uni0451" unicode="&#x451;" horiz-adv-x="407" 
d="M23 571c-22 0 -35 19 -35 42s18 46 41 46c22 0 36 -17 36 -39c0 -23 -13 -49 -42 -49zM446 571c-22 0 -35 19 -35 42s17 46 41 46c22 0 36 -17 36 -39c0 -24 -13 -49 -42 -49zM379 323c0 -76 -48 -85 -143 -102l-146 -23c-2 -69 15 -168 114 -168c65 0 110 36 141 75
l11 -30c-25 -33 -76 -81 -169 -81c-98 0 -164 81 -164 196c0 104 55 272 215 272c94 0 141 -69 141 -139zM92 231l199 30c18 2 24 33 24 60c0 51 -25 106 -86 106c-74 0 -126 -88 -137 -196z" />
    <glyph glyph-name="uni0436" unicode="&#x436;" horiz-adv-x="609" 
d="M563 452c34 0 47 -12 44 -34c-1 -13 -21 -43 -43 -21c-22 14 -34 23 -44 9l-124 -167l96 -158c33 -54 45 -53 66 -57l-2 -24h-135l3 23c19 4 30 12 23 20l-95 158h-15l-19 -146c-3 -23 16 -26 36 -31v-24h-148l2 23c23 5 44 12 47 35l18 143h-22l-132 -162
c-8 -8 -4 -11 17 -15l-2 -24h-137l3 24c21 4 34 7 81 61l137 154l-79 171c-8 14 -20 0 -46 -19c-28 -17 -41 17 -40 36c3 16 17 25 47 25c41 0 63 -25 77 -55l59 -125c12 -26 26 -26 34 -26h9l19 151c3 23 -16 26 -38 31l3 23h146l-1 -22c-22 -5 -44 -12 -47 -35l-19 -148h2
c8 0 24 4 42 30l89 125c23 30 50 51 88 51z" />
    <glyph glyph-name="uni0437" unicode="&#x437;" horiz-adv-x="388" 
d="M286 268c36 -8 59 -40 59 -97c0 -74 -56 -179 -175 -179c-95 0 -137 66 -137 135c0 29 14 40 28 40c32 0 18 -32 29 -78c9 -41 31 -57 81 -57c91 0 112 85 112 127c0 41 -31 70 -54 70c-9 0 -20 -2 -35 -7l-25 -10l-6 28l31 15c68 27 83 89 83 115c0 34 -12 63 -56 63
c-65 0 -86 -35 -108 -101c-8 -16 -14 -39 -32 -32l-19 9l25 140h8c27 0 10 -35 22 -42c25 29 57 53 101 53c80 0 120 -58 120 -108c0 -26 -22 -70 -52 -84z" />
    <glyph glyph-name="uni0438" unicode="&#x438;" horiz-adv-x="503" 
d="M354 451h142l-2 -20c-23 -5 -45 -12 -48 -35l-44 -350c-3 -23 16 -26 37 -31v-15h-142l1 14c23 5 45 12 48 35l37 287l-257 -256l-4 -34c-3 -23 16 -26 38 -31l-2 -15h-142l2 14c23 5 44 12 47 35l45 350c3 23 -17 26 -39 31l2 21h142l-2 -20c-23 -5 -45 -12 -46 -35
l-34 -268l257 259l1 12c1 23 -17 26 -39 31z" />
    <glyph glyph-name="uni0439" unicode="&#x439;" horiz-adv-x="503" 
d="M314 562c-73 0 -107 64 -102 122c0 5 4 7 7 7h6c7 0 10 -4 9 -15c-1 -26 23 -61 82 -61c60 0 95 37 103 69c1 5 3 7 9 7h5c5 0 10 -4 8 -15c-10 -53 -58 -114 -127 -114zM354 451h142l-2 -20c-23 -5 -45 -12 -48 -35l-44 -350c-3 -23 16 -26 37 -31v-15h-142l1 14
c23 5 45 12 48 35l37 287l-257 -256l-4 -34c-3 -23 16 -26 38 -31l-2 -15h-142l2 14c23 5 44 12 47 35l45 350c3 23 -17 26 -39 31l2 21h142l-2 -20c-23 -5 -45 -12 -46 -35l-34 -268l257 259l1 12c1 23 -17 26 -39 31z" />
    <glyph glyph-name="uni043A" unicode="&#x43a;" horiz-adv-x="433" 
d="M372 452c47 0 62 -12 59 -34c-1 -13 -22 -43 -42 -21c-22 14 -32 21 -43 9l-145 -167l116 -157c36 -48 45 -57 66 -60l-2 -22h-135v22c20 2 32 13 26 22l-110 157h-26l-20 -155c-3 -23 15 -26 37 -31l-2 -15h-141v14c23 5 46 12 49 35l43 350c3 23 -15 26 -37 31l2 21
h140l-1 -24c-32 -8 -43 -11 -46 -34l-19 -147h13c8 0 21 6 42 30l104 125c26 28 50 51 72 51z" />
    <glyph glyph-name="uni043B" unicode="&#x43b;" horiz-adv-x="529" 
d="M234 451l-23 -192c-16 -117 -23 -270 -137 -270c-35 0 -63 14 -68 54c-3 16 2 45 16 52c17 9 49 2 50 -20c4 -25 -11 -60 17 -58c60 7 76 97 92 223l18 157c3 23 -13 28 -80 28l2 26h113zM520 451l-2 -22c-28 0 -65 -7 -70 -33l-42 -337c-5 -31 26 -35 59 -46l-1 -13
h-191l2 16c34 11 55 15 58 46l42 335c4 26 -6 28 -29 28h-115l3 26h286z" />
    <glyph glyph-name="uni043C" unicode="&#x43c;" horiz-adv-x="529" 
d="M519 451l-1 -22c-25 -7 -35 -14 -38 -38l-44 -348c-3 -23 4 -23 27 -31l-1 -12h-127l1 14c27 9 36 10 38 32l38 298l-171 -320c-4 -10 -7 -8 -10 3l-112 317l-39 -301c-1 -22 7 -22 33 -31l1 -12h-104l-1 14c26 8 37 9 40 32l44 348c3 24 -6 30 -29 37l3 20l87 -1
c23 -109 65 -234 106 -331c52 100 119 225 171 333z" />
    <glyph glyph-name="uni043D" unicode="&#x43d;" horiz-adv-x="492" 
d="M356 451h141l-1 -20c-23 -5 -45 -12 -48 -35l-44 -350c-3 -23 16 -26 36 -31l1 -15h-142l1 14c23 5 44 12 47 35l21 165h-223l-22 -168c-3 -23 16 -26 38 -31l-1 -15h-142l1 14c23 5 45 12 48 35l45 350c3 23 -17 26 -39 31l1 21h143l-2 -20c-23 -5 -45 -12 -46 -35
l-20 -154h223l20 157c2 23 -17 26 -39 31z" />
    <glyph glyph-name="uni043E" unicode="&#x43e;" horiz-adv-x="429" 
d="M240 462c96 0 160 -84 160 -200c0 -99 -63 -268 -210 -268c-95 0 -162 82 -162 196c0 102 64 272 212 272zM338 255c0 96 -41 173 -108 173c-108 0 -138 -153 -138 -234c0 -94 40 -164 106 -164c107 0 140 148 140 225z" />
    <glyph glyph-name="uni043F" unicode="&#x43f;" horiz-adv-x="493" 
d="M63 451h423l-2 -20c-23 -5 -45 -12 -48 -35l-44 -350c-3 -23 16 -26 37 -31v-15h-142l1 14c23 5 45 12 48 35l43 346c2 18 -3 26 -16 30h-181c-16 -4 -25 -13 -27 -32l-43 -347c-3 -23 16 -26 38 -31l-2 -15h-142l2 14c23 5 44 12 47 35l45 350c3 23 -17 26 -39 31z" />
    <glyph glyph-name="uni0440" unicode="&#x440;" horiz-adv-x="468" 
d="M301 462c86 0 145 -64 145 -185c0 -129 -102 -283 -246 -283c-36 0 -66 6 -88 20l-21 -162c-3 -23 10 -28 38 -28v-24h-145l2 24c29 0 44 5 47 28l33 268l1 7v1l30 239c4 33 -9 54 -44 39l5 25c23 13 50 26 78 26c26 0 29 -22 23 -70l-1 -5c28 31 75 80 143 80zM210 25
c130 0 174 140 174 240c0 94 -36 153 -90 153c-57 0 -89 -34 -143 -95l-26 -204c-8 -57 17 -94 85 -94z" />
    <glyph glyph-name="uni0441" unicode="&#x441;" horiz-adv-x="394" 
d="M351 90c-21 -37 -67 -96 -167 -96c-87 0 -156 81 -156 196c0 113 80 272 223 272c94 0 125 -55 125 -117c0 -20 0 -45 -35 -45c-21 0 -36 8 -33 33c2 19 5 36 5 47c0 31 -17 48 -60 48c-118 0 -162 -136 -162 -235c0 -94 39 -158 123 -158c74 0 106 76 114 76
c7 0 16 -6 23 -21z" />
    <glyph glyph-name="uni0442" unicode="&#x442;" horiz-adv-x="432" 
d="M69 451h344c12 0 18 -9 17 -24l-2 -71h-10l-9 35c-6 18 -17 31 -38 31h-104l-46 -376c-3 -23 14 -26 36 -31l-1 -15h-141l-1 14c23 5 46 12 49 35l47 373h-102c-21 0 -36 -16 -46 -34l-19 -32h-11l17 73c1 15 8 22 20 22z" />
    <glyph glyph-name="uni0443" unicode="&#x443;" horiz-adv-x="463" 
d="M415 458c31 0 54 -15 39 -53c-100 -243 -359 -620 -459 -620c-52 0 -71 34 -71 63c0 25 12 37 37 37c41 0 12 -42 53 -42c39 0 105 72 175 170l-82 366c-6 32 -21 42 -55 25l5 22c16 13 42 29 62 29c38 0 44 -30 54 -75l62 -297c63 97 123 208 164 301
c9 23 -25 40 -60 20l2 23c28 17 59 31 74 31z" />
    <glyph glyph-name="uni045E" unicode="&#x45e;" horiz-adv-x="463" 
d="M292 562c-73 0 -107 64 -102 122c0 5 4 7 7 7h6c7 0 10 -4 9 -15c-1 -26 23 -61 82 -61c60 0 95 37 103 69c1 5 3 7 9 7h5c5 0 10 -4 8 -15c-10 -53 -58 -114 -127 -114zM415 458c31 0 54 -15 39 -53c-100 -243 -359 -620 -459 -620c-52 0 -71 34 -71 63
c0 25 12 37 37 37c41 0 12 -42 53 -42c39 0 105 72 175 170l-82 366c-6 32 -21 42 -55 25l5 22c16 13 42 29 62 29c38 0 44 -30 54 -75l62 -297c63 97 123 208 164 301c9 23 -25 40 -60 20l2 23c28 17 59 31 74 31z" />
    <glyph glyph-name="uni0444" unicode="&#x444;" horiz-adv-x="573" 
d="M445 457c68 0 119 -96 102 -232c-19 -150 -89 -231 -155 -231c-63 0 -84 65 -92 95l2 32l-33 -259c-1 -23 17 -26 38 -31l-2 -15h-140v14c22 5 46 12 49 35l28 220c-18 -31 -53 -91 -112 -91c-71 0 -120 83 -101 239c17 130 90 224 155 224c66 0 81 -46 93 -95l25 198
c4 33 -13 43 -48 38l4 39l86 19c34 7 23 -31 17 -75l-28 -218c25 50 50 94 112 94zM244 105l32 249l-6 -38c-14 79 -44 108 -77 108c-47 0 -88 -67 -105 -199c-14 -105 6 -186 54 -186c49 0 82 47 105 99zM488 233c15 127 -6 191 -51 191c-37 0 -77 -32 -110 -110l3 30
l-27 -213c9 -50 32 -92 78 -92c50 0 91 84 107 194z" />
    <glyph glyph-name="uni0445" unicode="&#x445;" horiz-adv-x="464" 
d="M407 456c37 0 56 -17 56 -39c0 -18 -12 -33 -31 -33c-26 0 -27 28 -47 28c-15 0 -28 -16 -36 -28l-96 -156l62 -156c13 -35 46 -42 95 -6l-14 -42c-27 -21 -47 -26 -70 -26c-30 0 -51 32 -67 69l-42 103l-61 -98c-26 -40 -42 -74 -90 -74c-37 0 -61 21 -61 42
c0 20 12 32 30 32c27 0 27 -29 47 -29c15 0 29 16 36 28l84 135l-75 183c-14 32 -46 29 -84 13l5 25c24 16 48 30 76 30s47 -29 64 -68l50 -125l74 118c25 40 47 74 95 74z" />
    <glyph glyph-name="uni0447" unicode="&#x447;" horiz-adv-x="486" 
d="M350 247l-1 -21c-17 -33 -73 -109 -135 -109c-93 0 -153 37 -136 179l10 79c6 37 1 50 -38 55l7 21h160l-2 -21c-32 -5 -53 -9 -56 -34l-13 -109c-11 -76 16 -119 75 -119c58 0 109 55 129 79zM477 451l-3 -24c-33 -8 -44 -11 -47 -34l-44 -347c-3 -23 16 -26 37 -31v-15
h-142v14c24 5 45 12 48 35l46 350c0 23 -17 26 -40 31l2 21h143z" />
    <glyph glyph-name="uni0446" unicode="&#x446;" horiz-adv-x="532" 
d="M488 451l-2 -20c-23 -5 -45 -12 -47 -35l-28 -227l-10 -77l-3 -26c-2 -27 16 -31 65 -32c9 0 10 -5 10 -13l-40 -156h-9c-5 0 -10 5 -9 15c11 75 36 120 -143 120h-263l1 14c23 5 44 12 47 35l45 350c3 23 -17 26 -39 31l2 21h142l-1 -20c-23 -5 -45 -12 -47 -35
l-43 -344c-3 -23 15 -30 36 -30h124c30 0 54 4 61 29l2 10l44 338c1 23 -17 26 -39 31l2 21h142z" />
    <glyph glyph-name="uni0448" unicode="&#x448;" horiz-adv-x="581" 
d="M430 451h142l-2 -20c-23 3 -43 -4 -46 -27l-46 -365c-2 -23 15 -26 37 -22v-17h-518v15c24 -3 46 4 48 27l46 365c2 23 -16 26 -38 23v21h143l-2 -20c-21 3 -43 -4 -46 -27l-46 -363c-3 -23 6 -24 29 -24h63c24 0 36 2 39 25l47 365c3 23 -17 26 -39 23l1 21h141v-20
c-23 3 -44 -4 -47 -27l-46 -363c-3 -23 7 -24 29 -24h65c21 0 35 3 38 26l45 364c3 23 -16 26 -39 23z" />
    <glyph glyph-name="uni0449" unicode="&#x449;" horiz-adv-x="637" 
d="M566 34c9 0 12 -5 11 -13l-41 -156h-7c-7 0 -10 5 -9 15c9 75 35 120 -145 120h-378v15c24 -3 46 4 48 27l46 365c2 23 -16 26 -38 23v21h143l-2 -20c-21 3 -43 -4 -46 -27l-46 -363c-3 -23 6 -24 29 -24h63c24 0 36 2 39 25l47 365c3 23 -17 26 -39 23l1 21h141v-20
c-23 3 -44 -4 -47 -27l-46 -363c-3 -23 7 -24 29 -24h62c7 0 13 0 19 1c12 2 20 9 22 25l45 364c3 23 -16 26 -39 23l2 21h142l-2 -20c-23 3 -43 -4 -46 -27l-30 -235h21l-13 -98c-4 -31 13 -36 64 -37z" />
    <glyph glyph-name="uni044F" unicode="&#x44f;" horiz-adv-x="414" 
d="M416 451l-3 -26c-22 0 -36 -13 -38 -41l-45 -344c-1 -22 6 -22 30 -30v-10h-117l1 12c26 8 31 9 34 31l19 155h-60c-52 0 -69 -23 -91 -87c-24 -68 -49 -106 -91 -111h-57l3 23h9c26 0 62 55 75 102c11 36 24 71 88 82c-82 14 -106 63 -98 120c9 69 61 124 154 124h187z
M301 228l25 194h-114c-40 0 -64 -44 -71 -103c-7 -48 -2 -91 50 -91h110z" />
    <glyph glyph-name="uni044C" unicode="&#x44c;" horiz-adv-x="437" 
d="M161 341h69c111 0 198 -68 185 -174c-13 -101 -115 -167 -227 -167h-169v14c23 5 45 12 48 35l45 350c1 23 -17 26 -39 31l2 21h142l-2 -24c-33 -8 -44 -11 -47 -34zM335 175c9 68 -11 138 -110 138h-67l-34 -267c-3 -23 6 -29 29 -29h51c81 0 120 82 131 158z" />
    <glyph glyph-name="uni044A" unicode="&#x44a;" horiz-adv-x="557" 
d="M270 341h68c113 0 200 -68 187 -174c-13 -101 -115 -167 -227 -167h-170l-1 14c23 5 46 12 49 35l44 350c2 17 1 26 -8 28l-14 -1v0l-29 -1c-34 -1 -56 -10 -72 -38l-19 -31h-24l30 73c8 15 17 22 29 22h171zM445 175c7 68 -13 138 -113 138h-65l-33 -267
c-3 -23 6 -29 27 -29h51c82 0 122 82 133 158z" />
    <glyph glyph-name="uni044B" unicode="&#x44b;" horiz-adv-x="666" 
d="M161 341h69c111 0 198 -68 185 -174c-13 -101 -115 -167 -227 -167h-169v14c23 5 45 12 48 35l45 350c1 23 -17 26 -39 31l2 21h142l-2 -24c-33 -8 -44 -11 -47 -34zM516 451h140l-2 -24c-31 -8 -43 -11 -45 -34l-44 -347c-3 -23 14 -26 36 -31v-15h-142l1 14
c23 5 45 12 48 35l43 350c3 23 -15 26 -37 31zM335 175c9 68 -11 138 -110 138h-67l-34 -267c-3 -23 6 -29 29 -29h51c81 0 120 82 131 158z" />
    <glyph glyph-name="uni0455" unicode="&#x455;" horiz-adv-x="353" 
d="M153 -6c-87 0 -141 70 -140 89c5 53 12 72 29 72c25 0 29 -1 28 -21c-3 -56 25 -107 92 -107c61 0 79 45 79 86c0 91 -179 133 -179 243c0 36 28 106 137 106c102 0 136 -73 133 -96c-5 -52 -21 -67 -36 -67s-19 12 -18 21c12 70 -28 111 -84 111s-68 -35 -68 -60
c0 -99 183 -141 183 -242c0 -63 -42 -135 -156 -135z" />
    <glyph glyph-name="uni0454" unicode="&#x454;" horiz-adv-x="412" 
d="M389 448h18l-11 -145l-16 -12c-25 -8 -23 14 -28 42c-16 65 -59 95 -114 95c-59 0 -118 -44 -134 -183v-3h139l-4 -28h-138c-6 -120 43 -187 109 -187c44 0 76 22 106 71c11 17 23 46 45 28c22 -14 11 -23 2 -39c-40 -58 -89 -95 -166 -95c-105 0 -178 98 -159 248
c15 122 103 220 204 220c59 0 96 -29 115 -58c17 28 4 46 32 46z" />
    <glyph glyph-name="uni044D" unicode="&#x44d;" horiz-adv-x="531" 
d="M271 460c110 0 183 -99 168 -224c-18 -147 -123 -244 -233 -244c-86 0 -132 38 -158 99c-7 13 -17 22 9 38c29 16 35 -16 41 -34c22 -48 49 -68 95 -68c73 0 145 67 170 187h-150l4 28h151l1 8c17 135 -34 178 -96 178s-118 -31 -151 -99c-13 -25 -15 -45 -40 -37l-16 11
l27 145h18c32 0 12 -20 24 -46c28 31 73 58 136 58z" />
    <glyph glyph-name="uni0456" unicode="&#x456;" horiz-adv-x="206" 
d="M150 669c21 0 38 -20 35 -45c-3 -20 -23 -37 -40 -37c-21 0 -38 20 -35 46c2 19 23 36 40 36zM147 387l-37 -304c-4 -33 12 -72 60 -31l-10 -32c-25 -15 -41 -20 -65 -20c-32 0 -50 33 -46 68l38 299c4 33 -9 54 -44 39l5 25c23 13 50 26 78 26c26 0 27 -22 21 -70z" />
    <glyph glyph-name="uni0457" unicode="&#x457;" horiz-adv-x="206" 
d="M-76 571c-21 0 -34 19 -34 42s17 46 40 46s37 -17 37 -39c0 -23 -13 -49 -43 -49zM347 571c-21 0 -34 19 -34 42s17 46 40 46c22 0 37 -17 37 -39c0 -24 -14 -49 -43 -49zM147 387l-37 -304c-4 -33 12 -72 60 -31l-10 -32c-25 -15 -41 -20 -65 -20c-32 0 -50 33 -46 68
l38 299c4 33 -9 54 -44 39l5 25c23 13 50 26 78 26c26 0 27 -22 21 -70z" />
    <glyph glyph-name="uni0458" unicode="&#x458;" horiz-adv-x="185" 
d="M159 669c21 0 37 -20 35 -45c-4 -20 -23 -37 -40 -37c-21 0 -39 20 -35 46c2 19 23 36 40 36zM134 457c27 0 28 -22 22 -70l-52 -423c-14 -111 -64 -178 -137 -178c-78 0 -110 55 -110 94c0 20 13 31 27 31c15 0 34 -9 34 -40c0 -21 3 -52 40 -52c56 0 75 51 84 126
l54 422c4 33 -9 54 -44 39l4 25c24 13 51 26 78 26z" />
    <glyph glyph-name="uni044E" unicode="&#x44e;" horiz-adv-x="590" 
d="M407 462c96 0 161 -84 161 -200c0 -99 -64 -268 -210 -268c-96 0 -163 82 -163 196c0 8 0 16 1 24h-51l-22 -168c-3 -23 16 -26 38 -31l-1 -15h-142l1 14c23 5 46 12 48 35l45 350c3 23 -17 26 -38 31l1 21h142l-2 -20c-23 -5 -43 -12 -46 -35l-20 -154h51
c17 99 83 220 207 220zM365 30c108 0 140 148 140 225c0 96 -41 173 -108 173c-89 0 -125 -104 -135 -186h6l-6 -28h-2l-1 -20c0 -94 41 -164 106 -164z" />
    <glyph glyph-name="Delta" unicode="&#x394;" horiz-adv-x="549" 
d="M497 0h-477l323 634zM83 65h322l-98 444z" />
    <glyph glyph-name="Omega" unicode="&#x3a9;" horiz-adv-x="609" 
d="M578 339c-15 -113 -106 -238 -198 -264c-9 -29 -9 -40 6 -38l51 3c45 2 64 18 82 45l19 26h13l-28 -89c-5 -15 -16 -22 -28 -22h-142l13 106c65 7 118 97 138 251c18 154 -45 247 -143 247c-104 0 -193 -96 -212 -255c-19 -143 8 -228 77 -243l-15 -106h-141
c-11 0 -24 9 -25 24l-4 87h13l10 -29c11 -27 28 -40 55 -42l65 -3c11 -2 16 10 17 39c-86 27 -146 147 -130 271c19 148 148 290 288 290c143 0 239 -144 219 -298z" />
    <glyph glyph-name="mu" unicode="&#x3bc;" horiz-adv-x="477" 
d="M416 409l-39 -323c-4 -33 10 -75 59 -34l-10 -32c-28 -16 -40 -20 -52 -20c-44 0 -63 35 -58 72l5 35c-16 -41 -69 -113 -147 -113c-45 0 -78 15 -99 43c-13 -137 32 -144 23 -174c-17 -71 -85 -95 -74 -7l30 234c-3 19 -3 42 0 67l25 205c4 35 -7 60 -42 44l4 25
c24 13 50 26 70 26c32 0 36 -15 31 -48l-31 -252c-11 -85 15 -119 76 -119c68 0 114 48 142 131l26 193c4 31 -8 60 -43 44l4 25c24 13 51 26 70 26c32 0 35 -15 30 -48z" />
    <glyph glyph-name="pi" unicode="&#x3c0;" horiz-adv-x="685" 
d="M205 451h408l-7 -54h-63c-18 0 -28 -10 -31 -33l-36 -291c-4 -27 2 -41 14 -47c15 -7 35 52 43 63c7 9 27 10 41 -2c12 -8 15 -30 8 -50c-18 -41 -67 -62 -118 -33c-43 21 -54 59 -45 127l33 266h-130l-34 -282c-9 -79 -61 -121 -104 -121c-19 0 -36 3 -54 11l-11 22
c43 -12 95 21 103 85l35 285h-52c-23 0 -46 -31 -42 -83l-31 3c-6 22 -6 37 -3 61c5 42 38 73 76 73z" />
    <glyph glyph-name="zero" unicode="0" 
d="M477 309c-19 -154 -99 -321 -249 -321c-151 0 -191 170 -171 329c19 152 100 319 248 319c153 0 193 -170 172 -327zM226 15c107 0 150 93 178 302c25 203 5 294 -98 294c-106 0 -151 -93 -177 -302c-26 -204 -7 -294 97 -294z" />
    <glyph glyph-name="one" unicode="1" horiz-adv-x="274" 
d="M231 608l-70 -557c-3 -23 36 -28 61 -34v-17h-195l1 18c27 6 69 13 72 36l60 477c2 23 -3 34 -21 28l-49 -13l4 24l117 56c21 10 22 -3 20 -18z" />
    <glyph glyph-name="two" unicode="2" horiz-adv-x="519" 
d="M464 115l-32 -93c-7 -15 -17 -22 -29 -22l-380 1c40 167 125 243 295 347c59 37 90 67 93 139c3 78 -27 115 -106 115s-118 -42 -135 -100c-20 -57 -3 -75 -9 -102c-26 -63 -78 -20 -76 20c4 119 91 217 223 217c115 0 164 -61 163 -144c1 -93 -52 -160 -169 -235
c-95 -61 -168 -115 -216 -194h272c38 0 54 5 75 31l17 20h14z" />
    <glyph glyph-name="three" unicode="3" horiz-adv-x="495" 
d="M363 369c54 7 106 -76 93 -167c-13 -118 -115 -214 -230 -214c-122 0 -194 72 -186 194c1 28 16 40 35 40c50 0 19 -30 33 -103c15 -66 41 -105 121 -105c68 0 146 70 159 177c12 94 -45 135 -94 135c-13 0 -26 -3 -37 -7l-37 -13l-8 25l40 18c72 30 124 76 132 147
c10 70 -24 110 -87 110c-64 0 -97 -40 -111 -102c-8 -28 -8 -35 -8 -53c-37 -39 -79 -13 -75 37c7 67 84 149 194 149c115 0 161 -81 153 -150c-7 -53 -39 -94 -87 -118z" />
    <glyph glyph-name="four" unicode="4" horiz-adv-x="503" 
d="M362 207l-20 -157c-2 -23 29 -26 52 -31v-19h-180l2 18c25 5 58 12 62 35l19 154h-255l4 17l350 416c11 14 21 6 20 -7l-50 -391h98l-4 -35h-98zM86 242h215l35 281z" />
    <glyph glyph-name="five" unicode="5" horiz-adv-x="509" 
d="M460 201c-14 -114 -118 -213 -236 -213s-192 72 -183 195c1 27 19 40 36 40c48 0 18 -31 31 -103c17 -67 40 -105 114 -105c75 0 151 74 164 176c13 103 -42 193 -129 193c-79 0 -108 -35 -139 -49h-25l57 286h292l18 13l12 1l-15 -67l-18 -15h-275l-39 -195
c36 38 100 59 151 59c98 0 204 -62 184 -216z" />
    <glyph glyph-name="six" unicode="6" 
d="M454 580l-6 -6c-4 -6 -9 -3 -10 -2c-37 22 -51 31 -86 31c-119 0 -171 -154 -197 -280c18 23 77 62 139 62c107 0 179 -78 163 -193c-10 -94 -85 -204 -210 -204c-158 0 -182 152 -164 293c20 148 115 355 262 355c49 0 81 -14 107 -39c5 -5 8 -11 2 -17zM153 283
c-30 -183 16 -264 94 -264c87 0 134 77 146 184c12 90 -21 152 -92 152c-70 0 -144 -52 -148 -72z" />
    <glyph glyph-name="seven" unicode="7" horiz-adv-x="470" 
d="M426 556h-313l-25 -45h-13l29 88c5 14 15 22 26 22h363l-358 -626h-6c-15 0 -27 17 -16 35z" />
    <glyph glyph-name="eight" unicode="8" horiz-adv-x="495" 
d="M349 345c71 -31 111 -77 98 -185c-12 -89 -107 -174 -226 -174c-130 0 -193 98 -181 194c11 74 47 136 129 167c-54 23 -66 80 -58 133c8 70 71 148 186 148c111 0 157 -79 147 -158c-5 -40 -33 -95 -95 -125zM249 367l45 -12c47 -12 101 64 109 125
c8 57 -9 120 -105 120c-87 0 -115 -70 -121 -128c-7 -48 9 -88 72 -105zM374 176c9 69 -20 108 -105 130l-66 18c-38 10 -101 -62 -113 -157c-9 -70 31 -156 128 -156c99 0 147 84 156 165z" />
    <glyph glyph-name="nine" unicode="9" horiz-adv-x="466" 
d="M74 47l6 6c4 6 9 4 10 2c37 -22 52 -31 86 -31c120 0 171 154 197 280c-18 -23 -77 -62 -139 -62c-107 0 -178 78 -163 193c11 94 85 204 210 204c158 0 183 -152 165 -293c-20 -148 -115 -355 -262 -355c-50 0 -82 14 -108 39c-5 5 -8 11 -2 17zM376 344
c30 184 -17 264 -95 264c-87 0 -133 -77 -145 -184c-13 -90 21 -152 92 -152c69 0 143 52 148 72z" />
    <glyph glyph-name="zero.osf" horiz-adv-x="485" 
d="M289 460c105 0 182 -94 165 -234c-19 -140 -116 -234 -219 -234c-106 0 -184 95 -167 234c18 141 117 234 221 234zM389 214c16 124 -40 218 -94 218c-91 0 -142 -46 -161 -194c-15 -120 38 -213 94 -213c89 0 142 44 161 189z" />
    <glyph glyph-name="one.osf" horiz-adv-x="310" 
d="M227 439l-49 -386c-2 -23 47 -28 84 -35v-18h-240l1 18c42 6 91 14 94 37l39 308c3 23 -3 34 -22 28l-47 -13l3 23l115 57c22 10 24 -4 22 -19z" />
    <glyph glyph-name="two.osf" horiz-adv-x="499" 
d="M439 108l-28 -86c-4 -15 11 -22 -17 -22h-349l117 92c112 85 200 158 208 224c8 67 -20 110 -86 110c-67 0 -96 -49 -109 -99c-7 -28 -4 -30 -9 -53c-31 -27 -71 -8 -65 37c8 67 82 149 184 149c100 0 159 -71 147 -169c-11 -85 -163 -174 -269 -234l175 5
c38 0 58 6 76 33l13 13h12z" />
    <glyph glyph-name="three.osf" horiz-adv-x="509" 
d="M438 37c-16 -125 -111 -237 -242 -237c-79 0 -123 33 -146 103c-5 31 26 56 58 30c10 -59 34 -102 98 -102c79 0 148 77 164 195c8 76 -36 118 -76 118c-14 0 -26 -4 -38 -8l-34 -14l-8 27l37 15c64 26 120 76 129 154c9 73 -26 111 -84 111c-82 0 -116 -99 -134 -155
c-35 -2 -59 20 -56 41c9 70 93 145 180 145c109 0 169 -69 158 -154c-7 -62 -48 -109 -93 -120c42 5 100 -59 87 -149z" />
    <glyph glyph-name="four.osf" horiz-adv-x="517" 
d="M351 2l-18 -136c-3 -23 28 -27 62 -32l-3 -18h-196l3 18c34 5 67 11 68 34l17 134h-253l3 17l350 420c12 14 23 5 22 -7l-51 -396h93l-2 -34h-95zM80 36h209l36 282z" />
    <glyph glyph-name="five.osf" horiz-adv-x="536" 
d="M462 39c-17 -139 -131 -239 -249 -239c-100 0 -146 43 -163 113c1 27 33 52 65 17c7 -69 32 -105 99 -105c76 0 158 73 173 190c12 107 -27 191 -108 191c-82 0 -115 -28 -152 -64l-24 2l70 307h278l17 13l15 1l-13 -67l-18 -15h-259l-47 -187c42 30 101 45 159 45
c98 0 176 -61 157 -202z" />
    <glyph glyph-name="six.osf" 
d="M465 580l-6 -6c-4 -6 -9 -3 -10 -2c-37 22 -51 31 -86 31c-119 0 -171 -154 -197 -280c18 23 77 62 139 62c107 0 179 -78 163 -193c-10 -94 -85 -204 -210 -204c-158 0 -182 152 -164 293c20 148 115 355 262 355c49 0 81 -14 107 -39c5 -5 8 -11 2 -17zM164 283
c-30 -183 16 -264 94 -264c87 0 134 77 146 184c12 90 -21 152 -92 152c-70 0 -144 -52 -148 -72z" />
    <glyph glyph-name="seven.osf" horiz-adv-x="434" 
d="M375 386h-290l-24 -45h-15l31 88c3 14 13 22 25 22h334l-320 -633h-3c-15 0 -25 17 -17 35z" />
    <glyph glyph-name="eight.osf" horiz-adv-x="495" 
d="M360 345c71 -31 111 -77 98 -185c-12 -89 -107 -174 -226 -174c-130 0 -193 98 -181 194c11 74 47 136 129 167c-54 23 -66 80 -58 133c8 70 71 148 186 148c111 0 157 -79 147 -158c-5 -40 -33 -95 -95 -125zM260 367l45 -12c47 -12 101 64 109 125
c8 57 -9 120 -105 120c-87 0 -115 -70 -121 -128c-7 -48 9 -88 72 -105zM385 176c9 69 -20 108 -105 130l-66 18c-38 10 -101 -62 -113 -157c-9 -70 31 -156 128 -156c99 0 147 84 156 165z" />
    <glyph glyph-name="nine.osf" horiz-adv-x="497" 
d="M119 -172c140 22 229 155 263 319c-24 -38 -83 -77 -145 -77c-106 0 -178 77 -164 193c11 88 86 197 211 197c158 0 183 -145 165 -283c-20 -145 -136 -371 -324 -377c-16 0 -13 26 -6 28zM384 183c23 162 -23 243 -99 243c-89 0 -133 -72 -148 -175
c-10 -84 23 -151 94 -151c68 0 152 63 153 83z" />
    <glyph glyph-name="zero.tf" horiz-adv-x="700" 
d="M551 309c-20 -154 -100 -321 -250 -321c-151 0 -191 170 -171 329c20 152 100 319 248 319c153 0 193 -170 173 -327zM299 15c107 0 151 93 178 302c25 203 5 294 -98 294c-106 0 -150 -93 -176 -302c-27 -204 -8 -294 96 -294z" />
    <glyph glyph-name="one.tf" horiz-adv-x="700" 
d="M431 608l-70 -544c-3 -23 38 -31 100 -36l-2 -28h-273l2 28c67 5 110 16 113 39l58 462c3 23 -2 35 -22 29l-47 -13l3 25l115 56c22 10 23 -3 23 -18z" />
    <glyph glyph-name="two.tf" horiz-adv-x="700" 
d="M530 115l-32 -93c-7 -15 -17 -22 -29 -22l-380 1c40 167 125 243 295 347c60 37 90 67 93 139c4 78 -27 115 -105 115c-79 0 -119 -42 -136 -100c-20 -57 -3 -75 -9 -102c-26 -63 -78 -20 -76 20c4 119 91 217 224 217c114 0 163 -61 162 -144c1 -93 -52 -160 -169 -235
c-95 -61 -167 -115 -216 -194h273c37 0 53 5 74 31l17 20h14z" />
    <glyph glyph-name="three.tf" horiz-adv-x="700" 
d="M419 369c55 7 106 -76 94 -167c-14 -118 -116 -214 -230 -214c-122 0 -195 72 -187 194c1 28 16 40 35 40c50 0 20 -30 33 -103c15 -66 42 -105 121 -105c68 0 147 70 159 177c12 94 -44 135 -93 135c-13 0 -26 -3 -37 -7l-38 -13l-8 25l40 18c72 30 124 76 133 147
c9 70 -24 110 -87 110c-64 0 -97 -40 -112 -102c-7 -28 -7 -35 -7 -53c-38 -39 -80 -13 -75 37c6 67 83 149 194 149c114 0 160 -81 152 -150c-7 -53 -39 -94 -87 -118z" />
    <glyph glyph-name="four.tf" horiz-adv-x="700" 
d="M428 207l-20 -157c-2 -23 29 -26 52 -31v-19h-180l2 18c25 5 58 12 62 35l19 154h-255l4 17l350 416c11 14 21 6 20 -7l-50 -391h98l-4 -35h-98zM152 242h215l35 281z" />
    <glyph glyph-name="five.tf" horiz-adv-x="700" 
d="M499 201c-14 -113 -118 -212 -236 -212s-192 72 -183 195c1 27 19 40 36 40c48 0 18 -32 31 -104c17 -66 40 -105 115 -105c74 0 151 75 164 177c13 103 -43 192 -130 192c-78 0 -108 -34 -139 -49l-25 1l57 286h293l17 13l12 1l-15 -68l-18 -15h-275l-39 -195
c36 39 100 59 152 59c97 0 203 -62 183 -216z" />
    <glyph glyph-name="six.tf" horiz-adv-x="700" 
d="M535 580l-6 -6c-4 -6 -9 -3 -10 -2c-37 22 -51 31 -86 31c-119 0 -171 -154 -197 -280c18 23 77 62 139 62c107 0 179 -78 163 -193c-11 -94 -85 -204 -210 -204c-158 0 -182 152 -164 293c19 148 114 355 262 355c49 0 81 -14 107 -39c5 -5 8 -11 2 -17zM233 283
c-29 -183 17 -264 95 -264c87 0 133 77 146 184c12 90 -22 152 -92 152s-144 -52 -149 -72z" />
    <glyph glyph-name="seven.tf" horiz-adv-x="700" 
d="M523 556h-312l-25 -45h-14l29 88c5 14 15 22 27 22h363l-359 -626h-5c-15 0 -28 17 -17 35z" />
    <glyph glyph-name="eight.tf" horiz-adv-x="700" 
d="M418 345c71 -31 111 -77 97 -185c-11 -89 -107 -174 -225 -174c-130 0 -193 98 -182 194c11 74 48 136 130 167c-54 23 -66 80 -58 133c7 70 71 148 186 148c111 0 156 -79 147 -158c-6 -40 -34 -95 -95 -125zM318 367l44 -12c47 -12 101 64 109 125
c8 57 -9 120 -104 120c-87 0 -116 -70 -122 -128c-6 -48 9 -88 73 -105zM442 176c9 69 -20 108 -104 130l-67 18c-38 10 -101 -62 -112 -157c-9 -70 30 -156 127 -156c99 0 147 84 156 165z" />
    <glyph glyph-name="nine.tf" horiz-adv-x="700" 
d="M153 44l6 6c4 6 9 4 10 2c37 -22 52 -31 87 -31c119 0 171 154 196 280c-18 -23 -77 -62 -139 -62c-106 0 -178 78 -163 193c11 94 85 204 210 204c158 0 183 -152 165 -293c-20 -148 -115 -355 -262 -355c-50 0 -82 14 -108 39c-5 5 -8 11 -2 17zM455 341
c30 184 -17 264 -94 264c-88 0 -134 -77 -146 -184c-13 -90 21 -152 92 -152c69 0 143 52 148 72z" />
    <glyph glyph-name="fraction" unicode="&#x2044;" horiz-adv-x="118" 
d="M310 636h39l-465 -641h-39z" />
    <glyph glyph-name="onehalf" unicode="&#xbd;" horiz-adv-x="606" 
d="M191 624l-25 -199c-3 -15 10 -15 22 -16l-1 -17h-93l1 17c13 1 28 4 30 19l21 174l-28 -10l3 23l51 26c18 8 19 -6 19 -17zM484 636h39l-465 -641h-39zM533 53l-14 -46c-3 -9 -11 -13 -21 -13l-157 1c21 69 62 96 95 121c25 12 46 26 51 59c2 24 -6 46 -27 46
c-22 0 -35 -8 -43 -34c-5 -19 1 -23 -3 -38c-16 -29 -48 -4 -46 15c5 45 38 84 93 84c56 0 81 -33 73 -80c-4 -43 -44 -58 -73 -80c-30 -15 -70 -37 -78 -57l99 1c10 0 16 3 19 9l13 12h19z" />
    <glyph glyph-name="onequarter" unicode="&#xbc;" horiz-adv-x="582" 
d="M188 409l-1 -17h-93l1 17c13 1 28 4 30 19l21 174l-28 -10l3 23l51 26c18 8 19 -6 19 -17l-25 -199c-3 -15 10 -15 22 -16zM484 636h39l-465 -641h-39zM496 235l-17 -138h35l-4 -24h-34l-5 -39c-3 -11 4 -17 18 -17l-2 -23h-86l3 23c14 0 22 8 24 19l4 37h-94l4 22
l123 152c14 15 33 3 31 -12zM379 97h56l9 75z" />
    <glyph glyph-name="threequarters" unicode="&#xbe;" horiz-adv-x="843" 
d="M239 383c-57 0 -87 40 -82 83c2 11 8 19 20 19c33 0 23 -26 25 -47c5 -24 12 -30 37 -30c20 0 43 19 48 61c6 50 -27 48 -57 32l-8 23l23 12c23 9 40 22 43 47c4 25 -3 33 -20 33c-41 0 -54 -42 -51 -66l-26 8c-7 3 -10 9 -9 17c5 37 36 67 81 67c49 0 72 -36 69 -65
c-2 -17 -12 -31 -24 -41c15 -8 32 -31 27 -68c-6 -47 -53 -85 -96 -85zM616 636h39l-465 -641h-39zM650 73l-5 -39c-3 -11 4 -17 18 -17l-2 -23h-86l2 23c15 0 22 8 25 19l4 37h-94l4 22l123 152c14 15 33 3 31 -12l-17 -138h34l-3 -24h-34zM552 97h57l8 75z" />
    <glyph glyph-name="oneeighth" unicode="&#x215b;" horiz-adv-x="606" 
d="M191 624l-25 -199c-3 -15 10 -15 22 -16l-1 -17h-93l1 17c13 1 28 4 30 19l21 174l-28 -10l3 23l51 26c18 8 19 -6 19 -17zM484 636h39l-465 -641h-39zM499 131c23 -13 36 -38 31 -71c-4 -32 -50 -71 -94 -71c-49 0 -84 40 -78 84c3 19 15 39 44 60c-16 14 -21 29 -17 52
c3 27 31 59 78 59c45 0 71 -31 67 -66c-1 -15 -10 -31 -31 -47zM448 144l17 -6c10 -4 27 24 31 47c2 19 0 35 -31 35c-23 0 -36 -21 -38 -42c-3 -16 2 -28 21 -34zM485 69c2 25 -3 34 -33 43l-21 5c-9 2 -33 -20 -36 -53c-3 -27 5 -50 38 -50c32 0 47 19 52 55z" />
    <glyph glyph-name="threeeighths" unicode="&#x215c;" horiz-adv-x="848" 
d="M308 536c15 -8 32 -31 27 -68c-6 -47 -53 -85 -96 -85c-57 0 -87 40 -82 83c2 11 8 19 20 19c33 0 23 -26 25 -47c5 -24 12 -30 37 -30c20 0 43 19 48 61c6 50 -27 48 -57 32l-8 23l23 12c23 9 40 22 43 47c4 25 -3 33 -20 33c-41 0 -54 -42 -51 -66l-26 8
c-7 3 -10 9 -9 17c5 37 36 67 81 67c49 0 72 -36 69 -65c-2 -17 -12 -31 -24 -41zM625 636h38l-465 -641h-39zM681 131c23 -13 36 -38 31 -71c-4 -32 -49 -71 -94 -71c-49 0 -83 40 -77 84c3 19 14 39 43 60c-16 14 -20 29 -16 52c2 27 30 59 77 59c45 0 71 -31 67 -66
c-1 -15 -10 -31 -31 -47zM630 144l17 -6c10 -4 27 24 31 47c2 19 0 35 -31 35c-23 0 -36 -21 -38 -42c-2 -16 2 -28 21 -34zM667 69c2 25 -3 34 -33 43l-21 5c-9 2 -33 -20 -35 -53c-4 -27 4 -50 37 -50c32 0 47 19 52 55z" />
    <glyph glyph-name="fiveeighths" unicode="&#x215d;" horiz-adv-x="854" 
d="M338 477c-7 -54 -51 -88 -99 -88c-54 0 -83 30 -79 82c1 11 10 19 20 19c28 0 22 -25 22 -46c4 -21 15 -31 35 -31c27 0 48 23 53 59c5 42 -9 66 -40 66c-22 0 -34 -12 -48 -22l-24 1l25 125h117l6 5h17l-5 -36l-13 -10h-106l-10 -46c16 5 32 10 50 10
c43 0 85 -30 79 -88zM609 636h39l-465 -641h-39zM666 131c22 -13 35 -38 30 -71c-4 -32 -49 -71 -94 -71c-49 0 -83 40 -77 84c3 19 14 39 44 60c-16 14 -21 29 -17 52c2 27 31 59 78 59c45 0 70 -31 66 -66c-1 -15 -9 -31 -30 -47zM614 144l18 -6c10 -4 27 24 30 47
c2 19 0 35 -31 35c-22 0 -35 -21 -37 -42c-3 -16 1 -28 20 -34zM651 69c2 25 -2 34 -33 43l-21 5c-8 2 -33 -20 -35 -53c-4 -27 5 -50 38 -50c31 0 46 19 51 55z" />
    <glyph glyph-name="seveneighths" unicode="&#x215e;" horiz-adv-x="831" 
d="M306 599h-104l-7 -17h-19l14 45c3 9 8 13 19 13h148l-142 -250h-10c-14 0 -17 13 -12 23zM584 636h39l-465 -641h-39zM641 131c22 -13 35 -38 30 -71c-4 -32 -49 -71 -94 -71c-49 0 -83 40 -77 84c3 19 14 39 44 60c-16 14 -21 29 -17 52c2 27 31 59 78 59
c45 0 70 -31 66 -66c-1 -15 -9 -31 -30 -47zM589 144l18 -6c10 -4 27 24 30 47c2 19 0 35 -31 35c-22 0 -35 -21 -37 -42c-3 -16 1 -28 20 -34zM626 69c2 25 -2 34 -33 43l-21 5c-8 2 -33 -20 -35 -53c-4 -27 5 -50 38 -50c31 0 46 19 51 55z" />
    <glyph glyph-name="zero.dnom" horiz-adv-x="279" 
d="M226 112c-8 -62 -37 -123 -95 -123c-62 0 -77 63 -69 131c8 61 38 124 96 124c61 0 76 -65 68 -132zM130 21c34 0 50 41 56 99c7 52 4 92 -26 92c-34 0 -52 -43 -58 -100c-7 -53 -4 -91 28 -91z" />
    <glyph glyph-name="one.dnom" horiz-adv-x="174" 
d="M124 226l-25 -199c-3 -15 10 -15 22 -16l-1 -17h-93l1 17c13 1 28 4 30 19l21 174l-28 -10l3 23l51 26c18 8 19 -6 19 -17z" />
    <glyph glyph-name="two.dnom" horiz-adv-x="315" 
d="M241 53l-14 -46c-3 -9 -11 -13 -21 -13l-157 1c21 69 62 96 95 121c25 12 46 26 51 59c2 24 -6 46 -27 46c-22 0 -35 -8 -43 -34c-5 -19 1 -23 -3 -38c-16 -29 -48 -4 -46 15c5 45 38 84 93 84c56 0 81 -33 73 -80c-4 -43 -44 -58 -73 -80c-30 -15 -70 -37 -78 -57l99 1
c10 0 16 3 19 9l13 12h19z" />
    <glyph glyph-name="three.dnom" horiz-adv-x="327" 
d="M226 142c15 -8 32 -31 27 -68c-6 -47 -53 -85 -96 -85c-57 0 -87 40 -82 83c2 11 8 19 20 19c33 0 23 -26 25 -47c5 -24 12 -30 37 -30c20 0 43 19 48 61c6 50 -27 48 -57 32l-8 23l23 12c23 9 40 22 43 47c4 25 -3 33 -20 33c-41 0 -54 -42 -51 -66l-26 8
c-7 3 -10 9 -9 17c5 37 36 67 81 67c49 0 72 -36 69 -65c-2 -17 -12 -31 -24 -41z" />
    <glyph glyph-name="four.dnom" horiz-adv-x="290" 
d="M184 73l-5 -39c-3 -11 4 -17 18 -17l-2 -23h-86l3 23c14 0 22 8 24 19l4 37h-94l4 22l123 152c14 15 33 3 31 -12l-17 -138h35l-4 -24h-34zM87 97h56l9 75z" />
    <glyph glyph-name="five.dnom" horiz-adv-x="331" 
d="M254 77c-7 -54 -51 -88 -99 -88c-54 0 -83 30 -79 82c1 11 10 19 20 19c28 0 22 -25 22 -46c4 -21 15 -31 35 -31c27 0 48 23 53 59c5 42 -9 66 -40 66c-22 0 -34 -12 -48 -22l-24 1l25 125h117l6 5h17l-5 -36l-13 -10h-106l-10 -46c16 5 32 10 50 10c43 0 85 -30 79 -88
z" />
    <glyph glyph-name="six.dnom" horiz-adv-x="291" 
d="M217 212c-9 -13 -25 10 -42 10c-32 0 -52 -39 -63 -82c11 8 26 14 41 14c47 0 77 -31 70 -84c-4 -37 -38 -81 -87 -81c-66 0 -80 64 -72 122c7 56 46 137 107 137c22 0 36 -7 45 -17c8 -4 7 -6 1 -19zM134 16c30 0 44 27 49 64c3 30 -6 49 -26 49c-25 0 -50 -19 -50 -28
c-8 -55 2 -85 27 -85z" />
    <glyph glyph-name="seven.dnom" horiz-adv-x="306" 
d="M222 201h-104l-7 -17h-19l14 45c3 9 8 13 19 13h148l-142 -250h-10c-14 0 -17 13 -12 23z" />
    <glyph glyph-name="eight.dnom" horiz-adv-x="315" 
d="M207 131c23 -13 36 -38 31 -71c-4 -32 -50 -71 -94 -71c-49 0 -84 40 -78 84c3 19 15 39 44 60c-16 14 -21 29 -17 52c3 27 31 59 78 59c45 0 71 -31 67 -66c-1 -15 -10 -31 -31 -47zM156 144l17 -6c10 -4 27 24 31 47c2 19 0 35 -31 35c-23 0 -36 -21 -38 -42
c-3 -16 2 -28 21 -34zM193 69c2 25 -3 34 -33 43l-21 5c-9 2 -33 -20 -36 -53c-3 -27 5 -50 38 -50c32 0 47 19 52 55z" />
    <glyph glyph-name="nine.dnom" horiz-adv-x="288" 
d="M58 25c9 13 25 -10 42 -10c32 0 52 39 63 82c-11 -7 -26 -14 -41 -14c-47 0 -77 31 -70 84c4 37 38 81 87 81c66 0 80 -64 72 -121c-7 -57 -46 -138 -107 -138c-22 0 -36 7 -45 17c-8 4 -7 6 -1 19zM141 221c-30 0 -44 -27 -49 -64c-3 -30 6 -49 26 -49c25 0 50 19 50 28
c8 55 -2 85 -27 85z" />
    <glyph glyph-name="zero.numr" horiz-adv-x="279" 
d="M293 511c-8 -62 -37 -123 -95 -123c-63 0 -78 63 -70 131c8 61 39 124 97 124c61 0 76 -65 68 -132zM197 420c33 0 49 41 56 99c7 52 3 92 -26 92c-35 0 -52 -43 -59 -100c-6 -53 -3 -91 29 -91z" />
    <glyph glyph-name="one.numr" horiz-adv-x="174" 
d="M190 624l-25 -199c-2 -15 11 -15 23 -16l-2 -17h-93l1 17c13 1 29 4 31 19l21 174l-28 -10l3 23l51 26c18 8 18 -6 18 -17z" />
    <glyph glyph-name="two.numr" horiz-adv-x="314" 
d="M306 446l-14 -46c-3 -9 -11 -13 -21 -13l-157 1c21 69 62 96 95 121c25 12 46 26 51 59c2 24 -6 46 -27 46c-22 0 -35 -8 -43 -34c-5 -19 1 -23 -3 -38c-16 -29 -48 -4 -46 15c5 45 38 84 93 84c56 0 81 -33 73 -80c-4 -43 -44 -58 -73 -80c-30 -15 -70 -37 -78 -57l99 1
c10 0 16 3 19 9l12 12h20z" />
    <glyph glyph-name="three.numr" horiz-adv-x="327" 
d="M291 536c15 -8 32 -31 27 -68c-6 -47 -53 -85 -96 -85c-57 0 -87 40 -82 83c2 11 8 19 20 19c33 0 23 -26 25 -47c5 -24 12 -30 37 -30c20 0 43 19 48 61c6 50 -27 48 -57 32l-8 23l23 12c22 9 40 22 43 47c4 25 -3 33 -20 33c-41 0 -54 -42 -51 -66l-26 8
c-7 3 -10 9 -9 17c5 37 36 67 80 67c50 0 73 -36 70 -65c-2 -17 -12 -31 -24 -41z" />
    <glyph glyph-name="four.numr" horiz-adv-x="290" 
d="M249 464l-5 -39c-2 -11 4 -17 19 -17l-2 -23h-86l2 23c15 0 22 8 25 19l4 37h-94l4 22l123 152c14 15 32 3 30 -12l-17 -138h35l-3 -24h-35zM152 488h57l8 75z" />
    <glyph glyph-name="five.numr" horiz-adv-x="331" 
d="M320 477c-7 -54 -51 -88 -98 -88c-54 0 -83 30 -79 82c1 11 10 19 19 19c28 0 23 -25 22 -46c5 -21 16 -31 35 -31c27 0 49 23 54 59c4 42 -10 66 -40 66c-23 0 -35 -12 -49 -22l-23 1l25 125h117l5 5h18l-5 -36l-13 -10h-106l-10 -46c15 5 32 10 49 10
c44 0 85 -30 79 -88z" />
    <glyph glyph-name="six.numr" horiz-adv-x="290" 
d="M282 605c-9 -13 -25 10 -42 10c-32 0 -53 -39 -63 -82c11 8 26 14 41 14c47 0 77 -31 70 -84c-4 -37 -38 -81 -87 -81c-66 0 -80 64 -72 122c7 56 46 137 107 137c22 0 36 -7 45 -17c7 -4 7 -6 1 -19zM199 409c30 0 43 27 49 64c2 30 -7 49 -26 49c-25 0 -50 -19 -51 -28
c-7 -55 3 -85 28 -85z" />
    <glyph glyph-name="seven.numr" horiz-adv-x="307" 
d="M288 599h-104l-7 -17h-19l15 45c3 9 7 13 18 13h149l-143 -250h-10c-14 0 -17 13 -11 23z" />
    <glyph glyph-name="eight.numr" horiz-adv-x="315" 
d="M274 529c22 -13 35 -38 30 -71c-4 -32 -49 -71 -94 -71c-49 0 -83 40 -77 84c3 19 14 39 44 60c-16 14 -21 29 -17 52c2 27 31 59 78 59c45 0 70 -31 66 -66c-1 -15 -9 -31 -30 -47zM222 542l18 -6c10 -4 27 24 30 47c2 19 0 35 -31 35c-22 0 -35 -21 -37 -42
c-3 -16 1 -28 20 -34zM259 467c2 25 -2 34 -33 43l-21 5c-8 2 -33 -20 -35 -53c-4 -27 5 -50 38 -50c31 0 46 19 51 55z" />
    <glyph glyph-name="nine.numr" horiz-adv-x="288" 
d="M122 419c10 13 25 -10 43 -10c32 0 52 39 63 82c-11 -7 -26 -14 -41 -14c-47 0 -77 31 -70 84c4 37 38 81 87 81c66 0 79 -64 71 -121c-6 -57 -45 -138 -106 -138c-22 0 -36 7 -45 17c-8 4 -7 6 -2 19zM206 615c-30 0 -44 -27 -49 -64c-3 -30 6 -49 26 -49
c25 0 50 19 50 28c8 55 -2 85 -27 85z" />
    <glyph glyph-name="onesuperior" unicode="&#xb9;" horiz-adv-x="174" 
d="M201 624l-25 -199c-2 -15 11 -15 23 -16l-2 -17h-93l1 17c13 1 29 4 31 19l21 174l-28 -10l3 23l51 26c18 8 18 -6 18 -17z" />
    <glyph glyph-name="twosuperior" unicode="&#xb2;" horiz-adv-x="314" 
d="M319 446l-14 -46c-3 -9 -11 -13 -21 -13l-157 1c21 69 62 96 95 121c25 12 46 26 51 59c2 24 -6 46 -27 46c-22 0 -35 -8 -43 -34c-5 -19 1 -23 -3 -38c-16 -29 -48 -4 -46 15c5 45 38 84 93 84c56 0 81 -33 73 -80c-4 -43 -44 -58 -73 -80c-30 -15 -70 -37 -78 -57l99 1
c10 0 16 3 19 9l12 12h20z" />
    <glyph glyph-name="threesuperior" unicode="&#xb3;" horiz-adv-x="327" 
d="M304 536c15 -8 32 -31 27 -68c-6 -47 -53 -85 -96 -85c-57 0 -87 40 -82 83c2 11 8 19 20 19c33 0 23 -26 25 -47c5 -24 12 -30 37 -30c20 0 43 19 48 61c6 50 -27 48 -57 32l-8 23l23 12c22 9 40 22 43 47c4 25 -3 33 -20 33c-41 0 -54 -42 -51 -66l-26 8
c-7 3 -10 9 -9 17c5 37 36 67 80 67c50 0 73 -36 70 -65c-2 -17 -12 -31 -24 -41z" />
    <glyph glyph-name="asterisk" unicode="*" horiz-adv-x="287" 
d="M177 597l17 -78c1 -13 10 -11 15 2l39 78c0 23 -10 35 -29 38c-21 -3 -38 -17 -42 -40zM179 510l-40 66c-18 9 -36 1 -51 -18c-9 -19 -12 -37 5 -51l67 -19c12 -3 26 12 19 22zM282 574l-58 -68c-9 -10 -2 -19 11 -16l72 19c18 14 25 32 21 55c-12 17 -28 19 -46 10z
M302 458l-68 16c-13 3 -24 -12 -17 -22l39 -66c16 -9 34 -1 51 18c10 20 10 39 -5 54zM161 472l-74 -18c-19 -15 -25 -32 -21 -56c11 -17 28 -19 47 -10l58 68c8 10 2 19 -10 16zM184 443l-38 -78c0 -23 10 -35 29 -38c23 3 38 17 44 40l-17 78c-3 13 -13 11 -18 -2z" />
    <glyph glyph-name="backslash" unicode="\" horiz-adv-x="456" 
d="M13 641l316 -641h-38l-318 641h40z" />
    <glyph glyph-name="periodcentered" unicode="&#xb7;" horiz-adv-x="255" 
d="M60 242c-24 0 -43 25 -38 56c2 24 25 46 48 46c24 0 43 -25 39 -55c-4 -25 -27 -47 -49 -47z" />
    <glyph glyph-name="bullet" unicode="&#x2022;" horiz-adv-x="232" 
d="M135 223c-35 0 -61 34 -55 75c5 36 37 67 68 67c35 0 60 -34 55 -76c-5 -35 -37 -66 -68 -66z" />
    <glyph glyph-name="colon" unicode=":" horiz-adv-x="223" 
d="M138 326c-25 0 -44 25 -39 56c3 24 26 46 48 46c25 0 43 -25 40 -55c-4 -25 -27 -47 -49 -47zM121 -10c-25 0 -43 24 -38 56c2 24 25 45 47 45c25 0 43 -24 40 -54c-4 -25 -27 -47 -49 -47z" />
    <glyph glyph-name="comma" unicode="," horiz-adv-x="151" 
d="M99 -32c-9 -24 -29 -45 -48 -63c-5 -1 -9 2 -13 6l-10 11c14 15 25 29 33 46c5 13 9 22 8 29c-6 -5 -12 -5 -21 -3c-21 3 -37 27 -29 56c6 26 30 42 52 39c25 -1 38 -27 39 -50c2 -21 -1 -43 -11 -71z" />
    <glyph glyph-name="ellipsis" unicode="&#x2026;" horiz-adv-x="505" 
d="M78 -10c-24 0 -43 24 -38 56c3 24 26 45 48 45c24 0 43 -24 40 -54c-4 -25 -27 -47 -50 -47zM241 -10c-25 0 -43 24 -38 56c2 24 25 45 47 45c25 0 43 -24 40 -54c-4 -25 -27 -47 -49 -47zM403 -10c-24 0 -43 24 -38 56c3 24 26 45 48 45c24 0 43 -24 40 -54
c-4 -25 -27 -47 -50 -47z" />
    <glyph glyph-name="exclam" unicode="!" horiz-adv-x="189" 
d="M99 217h-17c17 153 -5 262 9 377c6 46 19 59 52 59c36 0 46 -16 40 -68c-13 -108 -63 -217 -84 -368zM52 -10c-24 0 -43 24 -38 56c3 24 25 45 48 45c24 0 43 -24 39 -54c-4 -25 -26 -47 -49 -47z" />
    <glyph glyph-name="exclamdown" unicode="&#xa1;" horiz-adv-x="200" 
d="M144 563c27 0 46 -23 44 -51c-4 -27 -29 -50 -56 -50c-28 0 -47 23 -43 50c3 28 28 51 55 51zM101 336h21c-16 -152 10 -261 -4 -372c-6 -49 -22 -64 -60 -64c-37 0 -51 15 -45 64c14 111 68 220 88 372z" />
    <glyph glyph-name="numbersign" unicode="#" horiz-adv-x="555" 
d="M452 466h92c9 0 14 -6 13 -16l-1 -7c0 -10 -6 -13 -15 -13h-101l-72 -204h110c9 0 14 -7 11 -17l1 -6c-4 -10 -8 -13 -17 -13h-117l-77 -220h-37l78 220h-124l-77 -220h-37l78 220h-85c-7 0 -13 6 -11 16l1 6c2 10 6 14 15 14h93l73 204h-103c-9 0 -13 6 -12 16v6
c4 10 8 14 17 14h111l73 206h33l-72 -206h125l73 206h33zM333 226l72 204h-125l-71 -204h124z" />
    <glyph glyph-name="period" unicode="." horiz-adv-x="164" 
d="M61 -10c-25 0 -43 24 -38 56c2 24 25 45 47 45c25 0 43 -24 40 -54c-4 -25 -27 -47 -49 -47z" />
    <glyph glyph-name="question" unicode="?" horiz-adv-x="402" 
d="M74 496c-9 -73 38 -88 70 -56c36 32 -14 87 14 138c20 33 52 55 103 55c61 0 89 -43 82 -98c-2 -40 -14 -69 -98 -139c-41 -31 -51 -68 -52 -97l-1 -92h17l20 94c6 29 57 48 117 103c115 102 53 254 -78 254c-108 0 -182 -69 -194 -162zM165 -10c-25 0 -44 24 -39 56
c3 24 26 45 48 45c25 0 43 -24 40 -54c-4 -25 -27 -47 -49 -47z" />
    <glyph glyph-name="questiondown" unicode="&#xbf;" horiz-adv-x="421" 
d="M257 563c24 0 43 -24 38 -55c-3 -25 -26 -46 -48 -46c-24 0 -43 24 -40 54c4 26 27 47 50 47zM347 57c9 74 -38 88 -69 56c-36 -32 13 -87 -15 -138c-20 -33 -52 -55 -103 -55c-61 0 -89 43 -82 98c2 40 14 69 98 139c41 31 51 68 52 98l2 91h-18l-20 -94
c-6 -29 -57 -48 -117 -103c-115 -102 -53 -254 78 -254c108 0 182 69 194 162z" />
    <glyph glyph-name="quotedbl" unicode="&#x22;" horiz-adv-x="237" 
d="M79 622v-171c0 -9 2 -17 5 -17c4 0 10 8 12 17l46 171c5 21 -5 38 -27 38c-21 0 -36 -17 -36 -38zM199 622v-171c0 -9 1 -17 5 -17c3 0 9 8 11 17l47 171c5 21 -6 38 -27 38c-22 0 -36 -17 -36 -38z" />
    <glyph glyph-name="quotesingle" unicode="'" horiz-adv-x="125" 
d="M79 622v-171c0 -9 2 -17 5 -17c4 0 10 8 12 17l46 171c5 21 -5 38 -27 38c-21 0 -36 -17 -36 -38z" />
    <glyph glyph-name="semicolon" unicode=";" horiz-adv-x="173" 
d="M113 325c-25 0 -43 25 -38 56c2 24 25 46 47 46c25 0 43 -25 40 -55c-4 -25 -27 -47 -49 -47zM99 -32c-9 -24 -29 -45 -48 -63c-5 -1 -9 2 -13 6l-10 11c14 15 25 29 33 46c5 13 9 22 8 29c-6 -5 -12 -5 -21 -3c-21 3 -37 27 -29 56c6 26 30 42 52 39
c25 -1 38 -27 39 -50c2 -21 -1 -43 -11 -71z" />
    <glyph glyph-name="slash" unicode="/" horiz-adv-x="375" 
d="M356 641h39l-318 -641h-37z" />
    <glyph glyph-name="underscore" unicode="_" horiz-adv-x="567" 
d="M20 -20h455l-3 -30h-455z" />
    <glyph glyph-name="braceleft" unicode="{" horiz-adv-x="222" 
d="M161 240l-25 -198c-12 -97 -5 -158 32 -182l-6 -25c-84 41 -89 119 -78 209l24 184c4 31 -8 38 -48 60l-1 17c47 22 62 30 66 61l23 183c11 90 34 168 128 209l3 -29c-43 -24 -67 -85 -79 -182l-25 -199c-2 -26 -30 -38 -64 -52l-3 -3c32 -14 57 -27 53 -53z" />
    <glyph glyph-name="braceright" unicode="}" horiz-adv-x="235" 
d="M43 43l25 199c2 25 33 38 72 52l-1 3c-35 14 -61 27 -58 52l24 199c12 97 3 158 -38 182l9 27c92 -41 98 -119 88 -209l-24 -183c-3 -31 10 -39 54 -61l-1 -17c-50 -22 -67 -30 -69 -61l-22 -183c-11 -90 -36 -168 -140 -209l-2 27c49 24 71 85 83 182z" />
    <glyph glyph-name="bracketleft" unicode="[" horiz-adv-x="217" 
d="M119 752l158 7v-3c-1 -9 -8 -12 -19 -14l-90 -19l-107 -853l83 -19c9 -2 17 -8 16 -17l-156 7z" />
    <glyph glyph-name="bracketright" unicode="]" horiz-adv-x="191" 
d="M152 723l-96 19c-12 2 -20 7 -19 16l1 1l178 -7l-114 -911l-178 -7v1c1 9 11 14 23 16l99 19z" />
    <glyph glyph-name="parenleft" unicode="(" horiz-adv-x="237" 
d="M114 292c-24 -180 -1 -345 74 -443c9 -8 7 -15 -4 -15h-2c-8 0 -12 4 -15 11c-82 100 -140 265 -116 455c23 184 121 351 227 453c7 5 11 5 18 5h1c12 0 18 -8 12 -16c-104 -96 -173 -261 -195 -450z" />
    <glyph glyph-name="parenright" unicode=")" horiz-adv-x="231" 
d="M148 296c26 186 -17 352 -107 449c-6 7 2 13 15 13h1c8 0 12 -2 18 -7c93 -102 158 -268 135 -455s-127 -353 -247 -455c-6 -5 -12 -7 -20 -7h-4c-12 0 -15 9 -3 18c111 97 193 261 212 444z" />
    <glyph glyph-name="emdash" unicode="&#x2014;" horiz-adv-x="859" 
d="M78 271h726l-6 -41h-726z" />
    <glyph glyph-name="endash" unicode="&#x2013;" horiz-adv-x="637" 
d="M70 271h515l-5 -41h-516z" />
    <glyph glyph-name="uni2015" unicode="&#x2015;" horiz-adv-x="859" 
d="M78 271h726l-6 -41h-726z" />
    <glyph glyph-name="hyphen" unicode="-" horiz-adv-x="319" 
d="M41 271h239l-5 -41h-239z" />
    <glyph glyph-name="softhyphen" unicode="&#xad;" horiz-adv-x="350" 
d="M58 271h239l-5 -41h-239z" />
    <glyph glyph-name="guillemotleft" unicode="&#xab;" horiz-adv-x="380" 
d="M58 229l161 142l-4 -35l-92 -107l65 -107l-3 -34zM195 229l161 142l-4 -35l-92 -107l65 -107l-3 -34z" />
    <glyph glyph-name="guillemotright" unicode="&#xbb;" horiz-adv-x="369" 
d="M183 229l-161 -141l5 34l91 107l-64 107l3 35zM329 229l-161 -141l5 34l91 107l-65 107l3 35z" />
    <glyph glyph-name="guilsinglleft" unicode="&#x2039;" horiz-adv-x="224" 
d="M40 229l161 142l-3 -35l-93 -107l66 -107l-4 -34z" />
    <glyph glyph-name="guilsinglright" unicode="&#x203a;" horiz-adv-x="223" 
d="M183 229l-161 -141l5 34l91 107l-64 107l3 35z" />
    <glyph glyph-name="quotedblbase" unicode="&#x201e;" horiz-adv-x="320" 
d="M116 -32c-9 -24 -28 -45 -48 -63c-4 -1 -8 2 -12 6l-10 11c14 15 25 29 33 46c4 13 8 22 7 29c-6 -5 -11 -5 -20 -3c-22 3 -37 27 -30 56c6 26 30 42 53 39c24 -1 37 -27 39 -50c1 -21 -1 -43 -12 -71zM278 -32c-9 -24 -28 -45 -48 -63c-4 -1 -8 2 -12 6l-10 11
c14 15 25 29 33 46c4 13 8 22 7 29c-6 -5 -11 -5 -20 -3c-22 3 -37 27 -30 56c6 26 30 42 53 39c24 -1 37 -27 39 -50c1 -21 -1 -43 -12 -71z" />
    <glyph glyph-name="quotedblleft" unicode="&#x201c;" horiz-adv-x="291" 
d="M135 563c10 24 29 45 49 63c4 1 8 -2 12 -6l10 -11c-14 -15 -25 -29 -33 -46c-4 -13 -8 -22 -8 -29c6 5 12 5 21 3c22 -3 37 -27 29 -56c-5 -25 -30 -42 -52 -39c-25 2 -38 27 -39 50c-1 21 1 43 11 71zM277 563c10 24 29 45 49 63c4 1 8 -2 12 -6l10 -11
c-14 -15 -25 -29 -33 -46c-4 -13 -8 -22 -8 -29c6 5 12 5 21 3c22 -3 37 -27 29 -56c-5 -25 -30 -42 -52 -39c-25 2 -38 27 -39 50c-1 21 1 43 11 71z" />
    <glyph glyph-name="quotedblright" unicode="&#x201d;" horiz-adv-x="320" 
d="M151 508c-9 -24 -28 -45 -48 -63c-4 -1 -8 2 -12 6l-10 11c14 16 25 30 33 46c4 13 8 22 8 29c-7 -5 -12 -5 -21 -3c-22 3 -37 27 -30 56c6 26 30 42 53 39c24 -1 37 -27 39 -50c1 -21 -1 -43 -12 -71zM293 508c-9 -24 -28 -45 -48 -63c-4 -1 -8 2 -13 6l-10 11
c14 16 26 30 34 46c4 13 8 22 7 29c-6 -5 -12 -5 -20 -3c-22 3 -37 27 -30 56c6 26 30 42 52 39c25 -1 38 -27 39 -50c2 -21 -1 -43 -11 -71z" />
    <glyph glyph-name="quoteleft" unicode="&#x2018;" horiz-adv-x="142" 
d="M103 563c9 24 28 45 48 63c4 1 8 -2 13 -6l10 -11c-14 -15 -26 -29 -34 -46c-4 -13 -8 -22 -7 -29c6 5 12 5 20 3c22 -3 37 -27 30 -56c-6 -25 -30 -42 -52 -39c-25 2 -38 27 -39 50c-2 21 1 43 11 71z" />
    <glyph glyph-name="quoteright" unicode="&#x2019;" horiz-adv-x="158" 
d="M151 508c-9 -24 -28 -45 -48 -63c-4 -1 -8 2 -12 6l-10 11c14 16 25 30 33 46c4 13 8 22 8 29c-7 -5 -12 -5 -21 -3c-22 3 -37 27 -30 56c6 26 30 42 53 39c24 -1 37 -27 39 -50c1 -21 -1 -43 -12 -71z" />
    <glyph glyph-name="quotesinglbase" unicode="&#x201a;" horiz-adv-x="158" 
d="M116 -32c-9 -24 -28 -45 -48 -63c-4 -1 -8 2 -12 6l-10 11c14 15 25 29 33 46c4 13 8 22 7 29c-6 -5 -11 -5 -20 -3c-22 3 -37 27 -30 56c6 26 30 42 53 39c24 -1 37 -27 39 -50c1 -21 -1 -43 -12 -71z" />
    <glyph glyph-name="space" unicode=" " horiz-adv-x="166" 
 />
    <glyph glyph-name="cent" unicode="&#xa2;" horiz-adv-x="394" 
d="M341 300c-21 0 -36 8 -33 33c2 19 5 36 5 47c0 20 -7 34 -23 41l-137 -371c17 -10 37 -15 61 -15c74 0 106 76 114 76c7 0 16 -6 23 -21c-21 -37 -67 -96 -167 -96c-17 0 -33 3 -48 9l-24 -64h-28l28 76c-50 31 -84 95 -84 175c0 113 80 272 223 272c9 0 17 0 25 -1
l21 58h29l-24 -64c55 -17 74 -61 74 -110c0 -20 0 -45 -35 -45zM131 67l132 361h-10c-118 0 -162 -136 -162 -235c0 -54 13 -98 40 -126z" />
    <glyph glyph-name="currency" unicode="&#xa4;" horiz-adv-x="567" 
d="M512 418l-57 -57c23 -37 34 -85 27 -137c-6 -50 -29 -97 -61 -133l44 -57l-23 -23l-44 57c-36 -30 -80 -49 -124 -49c-46 0 -85 19 -114 49l-58 -57l-17 23l58 57c-25 37 -36 87 -29 141c6 50 29 96 61 132l-43 54l23 24l42 -55c36 30 79 49 124 49c47 0 88 -19 116 -52
l58 58zM449 232c10 90 -45 168 -127 168c-83 0 -160 -81 -171 -176c-12 -90 42 -170 123 -170c84 0 161 83 175 178z" />
    <glyph glyph-name="dollar" unicode="$" horiz-adv-x="468" 
d="M450 433h-22c-12 0 -17 6 -17 16v38c0 55 -46 102 -102 117l-31 -247c59 -24 166 -62 166 -178c0 -131 -121 -188 -213 -191l-6 -49h-29l6 50c-80 5 -108 39 -173 39l19 157h21c15 0 18 -5 18 -20c0 -79 23 -140 119 -146l35 278l-4 2c-61 28 -161 57 -161 168
c0 90 72 170 203 170h5l7 52h29l-7 -54c88 -11 115 -61 153 -74zM251 370l30 238h-6c-84 0 -134 -59 -134 -127c0 -73 66 -90 110 -111zM372 159c0 73 -51 101 -103 126l-34 -266c62 4 137 36 137 140z" />
    <glyph glyph-name="Euro" unicode="&#x20ac;" horiz-adv-x="576" 
d="M371 603c-128 0 -192 -111 -216 -225h263l-10 -37h-259c-4 -24 -6 -48 -6 -70h247l-11 -36h-235c8 -142 85 -202 176 -202s165 64 190 147h34c-43 -110 -105 -186 -242 -186c-128 0 -221 96 -233 241h-54l11 36h42c0 22 2 46 7 70h-30l10 37h27c33 128 122 259 281 259
c84 0 126 -37 159 -91c19 1 29 39 37 75h26l-19 -196l-28 -11l-17 52c-30 90 -87 137 -150 137z" />
    <glyph glyph-name="florin" unicode="&#x192;" horiz-adv-x="496" 
d="M541 595c8 -16 5 -41 -17 -58c-23 -11 -43 -3 -46 17c-6 30 -10 70 -52 70c-67 0 -79 -54 -98 -129l-10 -38h120c5 0 11 -5 8 -10l-6 -11c-9 -18 -15 -28 -32 -28h-102l-107 -426c-30 -119 -97 -184 -175 -184c-59 0 -98 38 -105 76c-6 15 -1 42 21 54c24 12 44 1 44 -20
c4 -30 3 -67 36 -67c55 0 79 56 97 131l110 436h-45c-5 0 -9 5 -7 11l9 38h56l7 28c30 119 87 182 184 182c67 0 96 -36 110 -72z" />
    <glyph glyph-name="sterling" unicode="&#xa3;" horiz-adv-x="511" 
d="M322 637c123 0 183 -94 156 -220c-5 -25 -17 -41 -35 -41s-32 6 -41 37c-3 20 23 38 23 82c1 32 -25 105 -101 105c-128 0 -160 -105 -160 -149c0 -84 32 -106 50 -156h119l-6 -37h-104c2 -12 3 -25 3 -41c-1 -61 -28 -137 -94 -175c88 4 272 -6 301 46l15 20h13l-32 -86
c-7 -15 -17 -22 -31 -22h-369l6 51c69 44 115 97 115 160c0 18 -2 33 -6 47h-90l5 37h72c-16 36 -35 70 -36 130c1 79 57 212 227 212z" />
    <glyph glyph-name="yen" unicode="&#xa5;" horiz-adv-x="577" 
d="M455 621h146l-3 -18c-36 -5 -53 -25 -81 -61l-154 -205h133l-4 -36h-156l-3 -3l-8 -70h157l-5 -36h-156l-17 -141c-4 -23 28 -27 58 -32l-1 -19h-189l2 19c33 5 68 12 71 35l17 138h-148l4 36h149l6 51l-11 22h-134l4 36h113l-90 184c-28 58 -33 77 -72 82l1 18h164
l-2 -18c-26 -5 -46 -19 -39 -35l116 -233l166 227c17 23 -2 36 -35 41z" />
    <glyph glyph-name="approxequal" unicode="&#x2248;" horiz-adv-x="430" 
d="M414 378l-26 -1c-12 0 -33 -40 -70 -40c-66 0 -80 56 -146 56c-52 0 -94 -35 -122 -89l26 1c19 0 26 46 69 46c55 0 84 -66 152 -66c42 0 92 35 117 93zM388 208l-25 -1c-13 0 -34 -40 -70 -40c-67 0 -81 56 -147 56c-52 0 -94 -35 -122 -89l27 1c18 0 26 46 69 46
c54 0 83 -66 151 -66c43 0 92 35 117 93z" />
    <glyph glyph-name="asciitilde" unicode="~" horiz-adv-x="480" 
d="M427 289l-24 -1c-11 0 -31 -40 -64 -40c-61 0 -74 56 -136 56c-48 0 -87 -35 -112 -89l24 1c17 0 24 46 64 46c50 0 77 -66 140 -66c39 0 85 35 108 93z" />
    <glyph glyph-name="divide" unicode="&#xf7;" horiz-adv-x="398" 
d="M208 367c-18 0 -32 19 -29 39c2 20 20 37 35 37c19 0 33 -20 31 -39c-3 -21 -21 -37 -37 -37zM41 275h329l-5 -47h-329zM171 61c-18 0 -33 19 -30 39c2 20 19 37 34 37c19 0 32 -20 31 -39c-3 -21 -20 -37 -35 -37z" />
    <glyph glyph-name="emptyset" unicode="&#x2205;" horiz-adv-x="467" 
d="M428 432l-31 -39c29 -41 43 -98 35 -167c-19 -140 -116 -234 -219 -234c-40 0 -76 14 -104 38l-24 -30l-32 30l26 33c-28 41 -41 97 -33 163c18 141 117 234 221 234c38 0 72 -12 99 -34l29 36zM112 238c-6 -46 -2 -88 9 -122l215 272c-18 28 -41 44 -63 44
c-91 0 -142 -46 -161 -194zM367 214c6 49 1 93 -10 129l-216 -272c18 -29 41 -46 65 -46c89 0 142 44 161 189z" />
    <glyph glyph-name="equal" unicode="=" horiz-adv-x="403" 
d="M57 365h329l-6 -47h-328zM30 185h329l-5 -47h-329z" />
    <glyph glyph-name="greater" unicode="&#x3e;" horiz-adv-x="477" 
d="M420 273l-4 -47c-114 -47 -228 -104 -346 -171l3 47c99 59 219 112 320 151c-90 36 -196 89 -279 149l3 42c99 -67 201 -124 303 -171z" />
    <glyph glyph-name="greaterequal" unicode="&#x2265;" horiz-adv-x="404" 
d="M383 355l-5 -47c-114 -47 -227 -104 -345 -171l3 47c99 59 218 112 320 151c-91 36 -197 89 -280 149l4 42c99 -67 200 -124 303 -171zM13 48h328l-5 -47h-329z" />
    <glyph glyph-name="infinity" unicode="&#x221e;" horiz-adv-x="699" 
d="M376 160c-35 -51 -79 -91 -152 -91c-71 0 -138 82 -125 182c12 95 100 177 172 177c59 0 100 -35 123 -86c40 53 82 72 133 72c68 0 121 -78 110 -171c-12 -94 -82 -168 -151 -168c-53 0 -95 35 -110 85zM226 128c68 0 112 27 131 95l18 66c11 40 -49 83 -108 83
c-61 0 -130 -37 -143 -129c-10 -84 49 -115 102 -115zM402 272l-14 -57c-15 -49 39 -90 97 -90c57 0 116 27 129 126c9 72 -47 109 -95 109c-55 0 -103 -37 -117 -88z" />
    <glyph glyph-name="integral" unicode="&#x222b;" horiz-adv-x="406" 
d="M453 723c7 -15 7 -38 -10 -49c-22 -11 -43 5 -43 27c-5 44 0 69 -36 69c-34 0 -61 -31 -70 -108l-92 -732c-13 -103 -38 -145 -113 -145c-58 0 -78 36 -88 77c-2 15 -2 40 15 51c23 10 42 -7 38 -29c7 -44 3 -69 39 -69c33 0 59 31 68 108l93 732c13 103 38 145 114 145
c56 0 73 -37 85 -77z" />
    <glyph glyph-name="less" unicode="&#x3c;" horiz-adv-x="438" 
d="M36 227l5 47c129 47 257 104 388 171l-6 -44c-109 -60 -242 -113 -354 -150c103 -38 224 -91 319 -150l-6 -45c-115 67 -229 124 -346 171z" />
    <glyph glyph-name="lessequal" unicode="&#x2264;" horiz-adv-x="454" 
d="M43 301l6 47c129 47 257 104 388 171l-6 -45c-109 -59 -242 -112 -354 -149c103 -38 224 -91 318 -151l-6 -44c-115 67 -229 124 -346 171zM21 47h374l-5 -47h-374z" />
    <glyph glyph-name="logicalnot" unicode="&#xac;" horiz-adv-x="533" 
d="M114 365h374l-28 -222h-41l23 175h-333z" />
    <glyph glyph-name="minus" unicode="&#x2212;" horiz-adv-x="480" 
d="M97 275h329l-6 -47h-328z" />
    <glyph glyph-name="multiply" unicode="&#xd7;" horiz-adv-x="411" 
d="M373 369l-119 -118l88 -117l-32 -34l-89 118l-118 -118l-27 34l119 118l-88 117l32 34l89 -118l119 118z" />
    <glyph glyph-name="notequal" unicode="&#x2260;" horiz-adv-x="402" 
d="M379 318h-117l-66 -133h161l-5 -47h-180l-68 -138h-45l69 138h-104l5 47h122l66 133h-166l5 47h185l65 131h44l-65 -131h99z" />
    <glyph glyph-name="partialdiff" unicode="&#x2202;" horiz-adv-x="525" 
d="M175 573l-5 8c-4 6 -3 13 3 18c36 25 72 37 123 37c158 0 206 -209 188 -359c-17 -139 -80 -289 -245 -289c-134 0 -184 111 -172 208c13 113 108 189 218 189c67 0 120 -41 133 -61c7 127 -12 280 -130 280c-40 0 -59 -13 -97 -34c-7 -3 -14 -2 -16 3zM412 287
c1 17 -65 68 -136 68c-76 0 -129 -64 -141 -156c-12 -105 16 -180 107 -180c84 0 154 82 170 268z" />
    <glyph glyph-name="percent" unicode="%" horiz-adv-x="603" 
d="M529 637h28l-466 -642h-53l471 616c-79 -64 -140 -65 -180 -38c4 -23 2 -48 -5 -73c-13 -49 -78 -132 -139 -132c-69 0 -91 76 -74 141c17 57 84 134 143 134c14 0 26 -3 37 -9c34 -15 102 -82 238 3zM274 509c16 52 21 102 -21 102c-43 0 -70 -52 -89 -111
c-13 -51 -17 -99 22 -99c46 0 73 51 88 108zM441 264c69 0 91 -76 71 -143c-11 -49 -79 -132 -140 -132c-68 0 -90 76 -73 141c17 57 83 134 142 134zM462 130c16 52 20 102 -22 102s-69 -52 -88 -111c-12 -51 -17 -99 23 -99c45 0 71 51 87 108z" />
    <glyph glyph-name="perthousand" unicode="&#x2030;" horiz-adv-x="894" 
d="M291 634c34 -15 102 -82 238 3h28l-466 -642h-53l471 616c-79 -64 -140 -65 -180 -38c4 -23 2 -48 -5 -73c-13 -49 -78 -132 -139 -132c-69 0 -91 76 -74 141c17 57 84 134 143 134c14 0 26 -3 37 -9zM274 509c16 52 21 102 -21 102c-43 0 -70 -52 -89 -111
c-13 -51 -17 -99 22 -99c46 0 73 51 88 108zM441 264c69 0 91 -76 71 -143c-11 -49 -79 -132 -140 -132c-68 0 -90 76 -73 141c17 57 83 134 142 134zM731 264c69 0 92 -76 72 -143c-13 -49 -79 -132 -139 -132c-69 0 -91 76 -75 141c18 57 83 134 142 134zM462 130
c16 52 20 102 -22 102s-69 -52 -88 -111c-12 -51 -17 -99 23 -99c45 0 71 51 87 108zM753 130c16 52 18 102 -22 102c-42 0 -71 -52 -88 -111c-13 -51 -17 -99 21 -99c46 0 74 51 89 108z" />
    <glyph glyph-name="plus" unicode="+" horiz-adv-x="437" 
d="M389 275l-5 -47h-143l-21 -163h-41l21 163h-144l5 47h145l20 161h41l-20 -161h142z" />
    <glyph glyph-name="plusminus" unicode="&#xb1;" horiz-adv-x="443" 
d="M259 376h142l-5 -47h-143l-21 -163h-41l21 163h-144l5 47h145l20 161h41zM34 7l6 47h328l-5 -47h-329z" />
    <glyph glyph-name="product" unicode="&#x220f;" horiz-adv-x="586" 
d="M172 800h380l-7 -46h-338l-121 -954h-41zM552 800h41l-127 -1000h-41z" />
    <glyph glyph-name="radical" unicode="&#x221a;" horiz-adv-x="680" 
d="M655 801h95l-2 -21l-25 -9c-14 -4 -42 -15 -69 -80l-391 -887c-5 4 -9 11 -12 21l-88 321c-16 57 -37 71 -51 77l-18 7l2 21c46 -4 48 -4 85 -2l101 -342zM275 -200h-14l2 4c3 -3 7 -4 12 -4z" />
    <glyph glyph-name="summation" unicode="&#x2211;" horiz-adv-x="540" 
d="M549 800l-5 -46h-331l209 -455l-323 -453h331l-7 -46h-381l7 46l314 454l-201 454l7 46h380z" />
    <glyph glyph-name="lozenge" unicode="&#x25ca;" horiz-adv-x="382" 
d="M370 310l-153 -310h-73l-77 310l154 311h74zM303 310l-52 247l-115 -247l51 -247z" />
    <glyph glyph-name="bar" unicode="|" horiz-adv-x="203" 
d="M168 800h45l-128 -1015h-45z" />
    <glyph glyph-name="brokenbar" unicode="&#xa6;" horiz-adv-x="203" 
d="M124 451l44 349h45l-44 -349h-45zM40 -215l44 349h45l-44 -349h-45z" />
    <glyph glyph-name="at" unicode="@" horiz-adv-x="676" 
d="M399 -54l9 -17c-32 -9 -64 -12 -90 -12c-154 0 -258 137 -234 336c24 193 161 327 312 327c155 0 260 -127 235 -332c-12 -94 -38 -153 -132 -176c-53 -12 -81 10 -79 67c-18 -44 -62 -78 -115 -78c-55 0 -99 26 -89 94c7 62 45 105 223 131l2 14c6 47 4 109 -65 105
c-14 -2 -23 -1 -39 -6c-32 -5 -23 -39 -29 -67c-10 -16 -22 -21 -37 -17c-14 2 -25 19 -17 50c16 35 65 62 113 66c90 9 136 -36 123 -132l-19 -163c-5 -28 8 -40 30 -35c75 18 75 112 80 154c20 168 -37 295 -183 295c-152 0 -241 -139 -262 -306
c-20 -160 48 -298 181 -298c17 0 38 5 52 8c15 4 24 0 30 -8zM318 96c56 0 91 51 105 71l13 95c-148 -24 -165 -60 -172 -112c-4 -27 16 -54 54 -54z" />
    <glyph glyph-name="ampersand" unicode="&#x26;" horiz-adv-x="654" 
d="M264 325l-11 2c-93 20 -143 -87 -143 -159c0 -129 84 -159 148 -159c145 0 202 115 202 199c0 37 -18 64 -54 64c-39 0 -66 -42 -47 -69h-17c-8 11 -15 28 -15 52c0 25 30 46 69 72l123 82c68 47 90 77 90 135c0 40 -38 53 -100 33c-8 -2 -16 2 -15 11c2 8 1 20 12 22
c22 8 40 13 62 13c52 0 87 -41 87 -82c0 -116 -86 -176 -198 -238c42 -17 64 -54 64 -105c0 -96 -95 -213 -276 -213c-99 0 -204 70 -204 182c0 97 57 175 159 195c-19 25 -56 41 -60 112c-6 56 24 163 160 163c63 0 128 -34 128 -102c0 -25 -9 -47 -28 -47
c-24 0 -35 14 -35 42c0 59 -17 72 -66 72c-94 0 -100 -99 -96 -152c4 -50 28 -83 70 -97z" />
    <glyph glyph-name="paragraph" unicode="&#xb6;" horiz-adv-x="553" 
d="M314 621h249v-18c-24 -5 -43 -12 -46 -35l-74 -584c-3 -23 2 -32 34 -37l-1 -14h-292v14c46 5 55 16 58 39l32 254h-14c-125 0 -193 73 -178 194c14 116 109 187 232 187zM375 -14l74 583c3 24 -3 27 -17 27h-130c-96 0 -126 -65 -139 -170c-14 -97 -1 -162 87 -162h27
l41 328h69l-76 -608c-3 -23 3 -32 26 -32c24 0 35 11 38 34z" />
    <glyph glyph-name="copyright" unicode="&#xa9;" horiz-adv-x="732" 
d="M424 580c166 0 276 -141 249 -344c-25 -198 -167 -336 -329 -336c-166 0 -277 141 -251 344c25 198 169 336 331 336zM623 244c22 170 -48 300 -198 300c-155 0 -258 -133 -280 -308c-21 -170 48 -300 198 -300c154 0 258 133 280 308zM488 127l10 -11
c-18 -31 -58 -72 -133 -72c-74 0 -131 78 -117 193c16 120 89 186 164 186c81 0 115 -51 108 -106c0 -12 -10 -24 -26 -24c-18 0 -30 12 -27 30c5 41 12 70 -46 70c-72 0 -103 -43 -116 -148c-11 -84 21 -164 87 -164c42 0 63 20 76 40c11 15 18 10 20 6z" />
    <glyph glyph-name="registered" unicode="&#xae;" horiz-adv-x="732" 
d="M424 576c164 0 272 -139 246 -340c-25 -196 -165 -332 -325 -332c-165 0 -275 139 -249 340c25 196 168 332 328 332zM344 -61c152 0 256 132 277 305c22 168 -49 297 -197 297c-153 0 -255 -132 -277 -305c-21 -168 48 -297 197 -297zM463 158c4 -31 22 -66 41 -66
l-3 -24h-31c-28 0 -46 35 -51 94c-7 49 -20 64 -59 64h-32l-13 -116c-4 -20 5 -19 21 -25l-2 -16h-100l1 18c18 5 26 6 28 25l33 261c2 20 -4 23 -19 29l1 14h128c66 0 107 -42 100 -99c-7 -52 -41 -79 -110 -80c59 -3 63 -36 67 -79zM331 248h56c45 0 63 38 67 77
c5 35 -6 69 -41 69h-62z" />
    <glyph glyph-name="section" unicode="&#xa7;" horiz-adv-x="478" 
d="M276 411c47 -12 179 -30 176 -148c0 -50 -19 -89 -47 -118c16 -19 26 -44 25 -78c-2 -113 -108 -168 -207 -168c-86 0 -126 29 -159 48l-19 150l18 8c8 4 12 0 13 -12c3 -8 7 -27 9 -56c12 -66 61 -102 132 -102c65 0 140 16 140 110c0 74 -74 85 -128 100
c-59 14 -151 26 -153 131c0 45 22 88 50 119c-12 17 -21 39 -21 71c-3 96 72 171 181 171c107 0 121 -34 167 -59l-7 -117l-16 -5c-7 -3 -11 2 -10 12c-3 9 -5 29 -8 57c-9 52 -44 77 -124 77c-70 0 -124 -45 -123 -115c3 -73 66 -64 111 -76zM252 214c25 -6 74 -14 115 -37
c8 16 12 37 13 64c2 75 -72 84 -127 100c-28 7 -64 12 -94 27l3 -3c-14 -20 -24 -42 -24 -72c5 -62 67 -67 114 -79z" />
    <glyph glyph-name="trademark" unicode="&#x2122;" horiz-adv-x="600" 
d="M126 621h177c7 0 13 -8 13 -14l-4 -47h-19l-4 17c-2 6 -5 7 -11 7h-42l-18 -156c-1 -7 10 -9 20 -9l-2 -25h-98l2 25c12 0 24 4 25 11l20 154h-39c-6 0 -8 -3 -13 -9l-10 -15h-20l9 49c1 6 7 12 14 12zM631 621l-1 -25c-12 -5 -18 -6 -20 -19l-17 -145
c-3 -11 -1 -11 15 -16l-2 -22h-87l2 24c16 5 22 6 23 16l14 109l-84 -126c-8 -15 -20 -13 -25 2l-62 125l-14 -112c-1 -10 3 -11 17 -16l-2 -22h-72l2 24c17 5 20 6 23 16l17 145c1 12 -1 14 -17 18l2 24h69l62 -138l98 138h59z" />
    <glyph glyph-name="degree" unicode="&#xb0;" horiz-adv-x="275" 
d="M209 634c57 0 96 -50 88 -119c-9 -63 -58 -111 -112 -111c-56 0 -95 50 -88 119c8 63 59 111 112 111zM257 523c5 45 -10 81 -45 81c-40 0 -67 -38 -72 -89c-5 -44 8 -81 45 -81c39 0 65 40 72 89z" />
    <glyph glyph-name="asciicircum" unicode="^" horiz-adv-x="335" 
d="M78 469l162 206c4 5 8 5 10 -3l111 -207c3 -8 2 -14 -5 -14h-16c-3 0 -4 8 -8 12l-95 135l-129 -139c-3 -4 -6 -8 -9 -8h-18c-6 0 -9 10 -3 18z" />
    <glyph glyph-name="dagger" unicode="&#x2020;" horiz-adv-x="516" 
d="M428 504c24 0 43 -26 40 -57c-4 -26 -27 -49 -49 -49c-24 0 -47 41 -101 39l-6 -44l40 -51l-81 -205h-7l-30 205l51 51l8 44c-51 2 -84 -39 -106 -39c-26 0 -46 26 -41 57c3 26 28 49 50 49c24 0 46 -42 101 -36c12 54 -23 85 -19 116c4 26 27 49 48 49
c27 0 46 -26 41 -57c-3 -26 -46 -56 -49 -112c55 -2 88 40 110 40z" />
    <glyph glyph-name="daggerdbl" unicode="&#x2021;" horiz-adv-x="510" 
d="M386 204c24 0 44 -26 41 -57c-4 -26 -27 -49 -49 -49c-26 0 -51 44 -104 38c-11 -54 24 -87 20 -118c-3 -26 -27 -49 -49 -49c-25 0 -44 26 -41 57c3 26 46 59 51 114c-52 2 -87 -42 -109 -42c-26 0 -46 26 -41 57c3 26 27 49 49 49c24 0 49 -44 102 -41l7 42l-35 97
l59 95l7 42c-52 3 -88 -41 -111 -41c-25 0 -45 26 -41 57c4 26 27 49 49 49c26 0 50 -44 105 -38c9 54 -25 87 -22 118c4 26 28 49 50 49c25 0 46 -26 40 -57c-2 -26 -46 -59 -51 -114c52 -2 88 42 111 42c24 0 44 -26 41 -57c-4 -26 -27 -49 -49 -49c-26 0 -51 44 -104 41
l-6 -42l35 -96l-58 -96l-9 -42c55 -3 90 41 112 41z" />
    <glyph glyph-name="acute" unicode="&#xb4;" horiz-adv-x="258" 
d="M222 669l-124 -109c-9 -8 -10 -14 -7 -19c3 -6 10 -6 18 -1l137 78c30 17 34 33 27 50c-7 15 -30 20 -51 1z" />
    <glyph glyph-name="breve" unicode="&#x2d8;" horiz-adv-x="354" 
d="M222 562c-73 0 -107 64 -102 122c0 5 4 7 7 7h6c7 0 10 -4 9 -15c-1 -26 23 -61 82 -61c60 0 95 37 103 69c1 5 3 7 9 7h5c5 0 10 -4 8 -15c-10 -53 -58 -114 -127 -114z" />
    <glyph glyph-name="caron" unicode="&#x2c7;" horiz-adv-x="383" 
d="M227 524l-105 143h32l83 -78l106 78h30z" />
    <glyph glyph-name="cedilla" unicode="&#xb8;" horiz-adv-x="217" 
d="M32 -124c2 -19 -1 -51 26 -54c35 -3 62 20 68 53c8 30 -8 54 -44 48c-17 -1 -29 -4 -35 -6c-11 -1 -16 16 -8 29c10 16 21 36 31 54h40l-26 -47c49 17 103 -24 84 -91c-16 -56 -63 -66 -109 -63c-45 3 -72 24 -73 59c-2 28 24 42 46 18z" />
    <glyph glyph-name="circumflex" unicode="&#x2c6;" horiz-adv-x="377" 
d="M244 672l124 -143h-34l-98 78l-117 -78h-34z" />
    <glyph glyph-name="dieresis" unicode="&#xa8;" horiz-adv-x="364" 
d="M14 571c-21 0 -34 19 -34 42s17 46 40 46s37 -17 37 -39c0 -23 -13 -49 -43 -49zM437 571c-21 0 -34 19 -34 42s17 46 40 46c22 0 37 -17 37 -39c0 -24 -14 -49 -43 -49z" />
    <glyph glyph-name="dotaccent" unicode="&#x2d9;" horiz-adv-x="154" 
d="M121 575c-23 0 -36 21 -36 44c0 25 17 50 42 50c23 0 38 -19 38 -42c0 -25 -14 -52 -44 -52z" />
    <glyph glyph-name="grave" unicode="`" horiz-adv-x="281" 
d="M302 560l-124 109c-21 19 -44 14 -50 -1c-8 -17 -4 -33 26 -50l137 -78c8 -5 15 -5 18 1c3 5 3 11 -7 19z" />
    <glyph glyph-name="hungarumlaut" unicode="&#x2dd;" horiz-adv-x="445" 
d="M182 669l-124 -109c-10 -8 -11 -14 -7 -19c3 -6 10 -6 18 -1l137 78c30 17 34 33 26 50c-6 15 -29 20 -50 1zM372 669l-124 -109c-9 -8 -10 -14 -7 -19c3 -6 11 -6 19 -1l137 78c29 17 34 33 26 50c-6 15 -30 20 -51 1z" />
    <glyph glyph-name="macron" unicode="&#xaf;" horiz-adv-x="397" 
d="M127 626h-1c2 12 7 16 19 16h251c12 0 18 -7 15 -19h1c-1 -12 -7 -16 -19 -16h-251c-12 0 -18 7 -15 19z" />
    <glyph glyph-name="ogonek" unicode="&#x2db;" horiz-adv-x="295" 
d="M197 -95h19c-17 -31 -56 -89 -135 -89c-39 0 -82 21 -82 68c0 46 35 95 115 132h31c-73 -46 -85 -98 -85 -124c0 -21 19 -40 49 -40c39 0 70 22 88 53z" />
    <glyph glyph-name="ring" unicode="&#x2da;" horiz-adv-x="299" 
d="M192 558c-38 0 -66 30 -66 71c0 46 39 89 81 89c39 0 67 -31 67 -74c0 -42 -41 -86 -82 -86zM196 584c21 0 42 18 42 55c0 38 -14 53 -33 53c-21 0 -40 -19 -40 -57c0 -34 8 -51 31 -51z" />
    <glyph glyph-name="tilde" unicode="&#x2dc;" horiz-adv-x="394" 
d="M412 646l14 -3c-16 -62 -58 -94 -107 -94c-54 0 -85 68 -124 68s-66 -29 -68 -49l-12 3c-1 57 53 90 95 90c56 0 74 -58 128 -58c31 0 70 27 74 43z" />
    <glyph glyph-name="acutecomb" unicode="&#x301;" horiz-adv-x="0" 
d="M222 669l-124 -109c-9 -8 -10 -14 -7 -19c3 -6 10 -6 18 -1l137 78c30 17 34 33 27 50c-7 15 -30 20 -51 1z" />
    <glyph glyph-name="uni0326" unicode="&#x326;" horiz-adv-x="0" 
d="M86 -225c-9 -24 -28 -45 -48 -63c-4 -1 -8 2 -12 6l-10 11c14 15 25 29 33 46c4 13 8 22 8 29c-6 -5 -12 -5 -21 -3c-22 3 -37 27 -29 56c5 25 30 42 52 39c24 -2 38 -27 39 -50c1 -21 -1 -43 -12 -71z" />
    </font>
</defs>
</svg>
