<?xml version="1.0" standalone="no"?>
<!DOCTYPE svg PUBLIC "-//W3C//DTD SVG 1.1//EN" "http://www.w3.org/Graphics/SVG/1.1/DTD/svg11.dtd" >
<svg xmlns="http://www.w3.org/2000/svg" width="100%" height="100%">
<metadata>
Created by FontXChange 20100429 at Mon Jan  2 12:44:04 2017
 By Killian Grant
Copyright (c) 2015 by Connary Fagen. All rights reserved.
</metadata>
<defs>
<font id="QuincyCF-Regular" horiz-adv-x="463" >
  <font-face 
    font-family="Quincy CF"
    font-weight="400"
    font-stretch="normal"
    units-per-em="1000"
    panose-1="0 0 5 0 0 0 0 0 0 0"
    ascent="800"
    descent="-200"
    x-height="451"
    cap-height="621"
    bbox="-155 -296.788 936 893"
    underline-thickness="50"
    underline-position="-50"
    stemh="43"
    stemv="80"
    unicode-range="U+0020-FB02"
  />
<missing-glyph horiz-adv-x="500" 
d="M0 0v700h500v-700h-500zM250 395l170 255h-340zM280 350l170 -255v510zM80 50h340l-170 255zM50 605v-510l170 255z" />
    <glyph glyph-name="f_f" unicode="ff" horiz-adv-x="732" 
d="M731 598c13 -15 18 -40 -1 -54c-18 -15 -42 -11 -51 6c-16 33 -36 77 -86 77c-62 0 -85 -50 -85 -113v-57h152c-13 -39 -15 -43 -34 -43h-118v-362c0 -23 8 -28 52 -28v-24h-179v24c38 0 46 5 46 28v362h-58c-6 0 -10 4 -10 10v33h68v41v5v0c0 49 -41 128 -128 128
c-90 0 -124 -77 -124 -145v-29h128c-14 -39 -14 -43 -32 -43h-96v-362c0 -23 8 -28 52 -28v-24h-176v24c36 0 44 5 44 28v362h-56c-6 0 -10 4 -10 10v33h66v17c0 109 66 197 204 197c57 0 120 -23 162 -56c25 33 64 52 115 52c91 0 132 -37 155 -69z" />
    <glyph glyph-name="fi" unicode="fi" horiz-adv-x="584" 
d="M300 627c-100 0 -125 -61 -125 -141v-29h120c-13 -39 -13 -43 -32 -43h-88v-362c0 -23 8 -28 52 -28v-24h-176v24c36 0 44 5 44 28v362h-56c-6 0 -10 4 -10 10v33h66v17c0 122 57 193 205 193c116 0 210 -55 210 -119c0 -29 -11 -39 -42 -39c-22 0 -45 8 -45 39
c0 45 -25 79 -123 79zM497 425v-372c0 -23 17 -28 43 -28v-25h-165v25c27 0 44 5 44 28v325c0 23 -8 31 -28 31h-20v38l94 9c23 2 32 -9 32 -31z" />
    <glyph glyph-name="fl" unicode="fl" horiz-adv-x="602" 
d="M525 582v-501c0 -33 11 -55 59 -43l-11 -30c-21 -7 -36 -8 -50 -8c-50 0 -78 34 -78 85v451c0 41 -69 91 -151 91c-93 0 -119 -73 -119 -141v-29h140c-13 -39 -13 -43 -32 -43h-108v-362c0 -23 8 -28 52 -28v-24h-176v24c38 0 44 5 44 28v362h-56c-6 0 -10 4 -10 10v33
h66v17c0 109 58 193 199 193c48 0 110 -6 158 -19l44 8c37 6 30 -30 29 -74z" />
    <glyph glyph-name=".notdef" horiz-adv-x="500" 
d="M0 0v700h500v-700h-500zM250 395l170 255h-340zM280 350l170 -255v510zM80 50h340l-170 255zM50 605v-510l170 255z" />
    <glyph glyph-name="A" unicode="A" horiz-adv-x="702" 
d="M381 593l211 -478c31 -70 48 -77 90 -87v-28h-218v28c59 10 58 23 46 49l-59 139h-255l-54 -134c-11 -30 9 -44 58 -54v-28h-180v28c45 10 58 16 77 62l224 539l30 -8c12 -4 23 -11 30 -28zM212 254h223l-115 267z" />
    <glyph glyph-name="Aacute" unicode="&#xc1;" horiz-adv-x="702" 
d="M476 788l-143 -77c-10 -6 -17 -6 -23 2c-5 6 -2 15 8 23l113 110c22 22 44 18 56 -2c12 -21 12 -43 -11 -56zM381 593l211 -478c31 -70 48 -77 90 -87v-28h-218v28c59 10 58 23 46 49l-59 139h-255l-54 -134c-11 -30 9 -44 58 -54v-28h-180v28c45 10 58 16 77 62l224 539
l30 -8c12 -4 23 -11 30 -28zM212 254h223l-115 267z" />
    <glyph glyph-name="Abreve" unicode="&#x102;" horiz-adv-x="702" 
d="M342 727c-80 0 -130 60 -134 123c0 8 5 11 10 11h14c7 0 10 -3 11 -11c4 -29 36 -61 99 -61s96 32 100 61c1 8 4 11 11 11h14c5 0 10 -3 10 -11c-4 -63 -55 -123 -135 -123zM381 593l211 -478c31 -70 48 -77 90 -87v-28h-218v28c59 10 58 23 46 49l-59 139h-255l-54 -134
c-11 -30 9 -44 58 -54v-28h-180v28c45 10 58 16 77 62l224 539l30 -8c12 -4 23 -11 30 -28zM212 254h223l-115 267z" />
    <glyph glyph-name="Acircumflex" unicode="&#xc2;" horiz-adv-x="702" 
d="M348 778l-103 -74h-46l149 154l149 -154h-45zM381 593l211 -478c31 -70 48 -77 90 -87v-28h-218v28c59 10 58 23 46 49l-59 139h-255l-54 -134c-11 -30 9 -44 58 -54v-28h-180v28c45 10 58 16 77 62l224 539l30 -8c12 -4 23 -11 30 -28zM212 254h223l-115 267z" />
    <glyph glyph-name="Adieresis" unicode="&#xc4;" horiz-adv-x="702" 
d="M246 739c-28 0 -52 24 -52 52s24 52 52 52s52 -24 52 -52s-24 -52 -52 -52zM435 739c-28 0 -52 24 -52 52s24 52 52 52s52 -24 52 -52s-24 -52 -52 -52zM381 593l211 -478c31 -70 48 -77 90 -87v-28h-218v28c59 10 58 23 46 49l-59 139h-255l-54 -134
c-11 -30 9 -44 58 -54v-28h-180v28c45 10 58 16 77 62l224 539l30 -8c12 -4 23 -11 30 -28zM212 254h223l-115 267z" />
    <glyph glyph-name="Agrave" unicode="&#xc0;" horiz-adv-x="702" 
d="M387 711l-143 77c-23 13 -23 35 -11 56c12 20 34 24 56 2l113 -110c10 -8 13 -17 8 -23c-5 -8 -13 -8 -23 -2zM381 593l211 -478c31 -70 48 -77 90 -87v-28h-218v28c59 10 58 23 46 49l-59 139h-255l-54 -134c-11 -30 9 -44 58 -54v-28h-180v28c45 10 58 16 77 62
l224 539l30 -8c12 -4 23 -11 30 -28zM212 254h223l-115 267z" />
    <glyph glyph-name="Amacron" unicode="&#x100;" horiz-adv-x="702" 
d="M488 757h-283c-13 0 -20 5 -20 17v11c0 12 7 17 20 17h283c13 0 20 -5 20 -17v-11c0 -12 -7 -17 -20 -17zM381 593l211 -478c31 -70 48 -77 90 -87v-28h-218v28c59 10 58 23 46 49l-59 139h-255l-54 -134c-11 -30 9 -44 58 -54v-28h-180v28c45 10 58 16 77 62l224 539
l30 -8c12 -4 23 -11 30 -28zM212 254h223l-115 267z" />
    <glyph glyph-name="Aogonek" unicode="&#x104;" horiz-adv-x="702" 
d="M682 0h-88c-61 -41 -74 -80 -74 -112c0 -33 27 -53 54 -53c46 0 66 23 80 54h25c-12 -32 -44 -95 -127 -95c-49 0 -106 27 -106 84c0 62 61 103 109 122h-91v28c59 10 58 23 46 49l-59 139h-255l-54 -134c-11 -30 9 -44 58 -54v-28h-180v28c45 10 58 16 77 62l224 539
l30 -8c12 -4 23 -11 30 -28l211 -478c31 -70 48 -77 90 -87v-28zM212 254h223l-115 267z" />
    <glyph glyph-name="Aring" unicode="&#xc5;" horiz-adv-x="702" 
d="M345 723c-49 0 -89 39 -89 85c0 47 40 85 89 85s88 -38 88 -85c0 -46 -39 -85 -88 -85zM345 860c-22 0 -42 -25 -42 -52c0 -28 20 -51 42 -51c20 0 40 23 40 51c0 27 -20 52 -40 52zM381 593l211 -478c31 -70 48 -77 90 -87v-28h-218v28c59 10 58 23 46 49l-59 139h-255
l-54 -134c-11 -30 9 -44 58 -54v-28h-180v28c45 10 58 16 77 62l224 539l30 -8c12 -4 23 -11 30 -28zM212 254h223l-115 267z" />
    <glyph glyph-name="Atilde" unicode="&#xc3;" horiz-adv-x="702" 
d="M193 737h-23c-12 59 50 96 102 96c67 0 91 -58 153 -58c34 0 67 28 67 42h30c-9 -63 -55 -100 -116 -100c-64 0 -104 68 -150 68c-42 0 -63 -31 -63 -48zM381 593l211 -478c31 -70 48 -77 90 -87v-28h-218v28c59 10 58 23 46 49l-59 139h-255l-54 -134
c-11 -30 9 -44 58 -54v-28h-180v28c45 10 58 16 77 62l224 539l30 -8c12 -4 23 -11 30 -28zM212 254h223l-115 267z" />
    <glyph glyph-name="AE" unicode="&#xc6;" horiz-adv-x="971" 
d="M899 116h37c-16 -32 -24 -61 -32 -93c-4 -15 -17 -23 -30 -23h-440v29c35 11 53 14 53 49v141h-222l-99 -141c-18 -27 3 -41 62 -51v-27h-208v27c56 10 70 19 99 61l320 454c20 27 22 42 -5 53v26h437c13 0 17 -3 17 -18v-100h-29l-15 33c-13 28 -37 41 -80 41h-187v-239
h181c33 0 38 23 51 55h18v-153h-18c-13 31 -18 57 -51 57h-181v-255l229 2c46 0 48 14 67 39zM291 256h196v279z" />
    <glyph glyph-name="B" unicode="B" horiz-adv-x="607" 
d="M416 336c100 -18 156 -80 156 -159c0 -118 -88 -180 -237 -177l-88 2c-105 7 -149 6 -222 -2v35c46 10 65 25 65 48v459c0 23 -24 38 -64 44v35h288c138 0 224 -45 224 -147c0 -55 -39 -115 -122 -138zM175 581v-226h208c24 0 63 47 63 120c0 69 -38 106 -120 106h-151z
M204 43h125c100 0 151 34 151 134c0 88 -57 142 -237 142h-68v-235c0 -22 8 -41 29 -41z" />
    <glyph glyph-name="C" unicode="C" horiz-adv-x="625" 
d="M580 425l-28 -10c-11 -4 -19 0 -23 11c-3 9 -8 21 -14 36c-39 95 -111 134 -187 134c-103 0 -203 -80 -203 -253c0 -189 117 -309 223 -309c84 0 129 48 164 99c15 22 19 37 33 37c8 0 29 -12 33 -19c5 -10 -3 -23 -16 -44c-47 -79 -126 -122 -233 -122
c-166 0 -300 148 -300 335c0 174 128 317 289 317c84 0 144 -36 183 -82c17 0 25 23 29 49c2 11 8 17 19 17h20z" />
    <glyph glyph-name="Cacute" unicode="&#x106;" horiz-adv-x="625" 
d="M413 846l-113 -110c-10 -8 -13 -17 -8 -23c6 -8 13 -8 23 -2l143 77c23 13 23 35 11 56c-12 20 -34 24 -56 2zM580 425l-28 -10c-11 -4 -19 0 -23 11c-3 9 -8 21 -14 36c-39 95 -111 134 -187 134c-103 0 -203 -80 -203 -253c0 -189 117 -309 223 -309
c84 0 129 48 164 99c15 22 19 37 33 37c8 0 29 -12 33 -19c5 -10 -3 -23 -16 -44c-47 -79 -126 -122 -233 -122c-166 0 -300 148 -300 335c0 174 128 317 289 317c84 0 144 -36 183 -82c17 0 25 23 29 49c2 11 8 17 19 17h20z" />
    <glyph glyph-name="Ccaron" unicode="&#x10c;" horiz-adv-x="625" 
d="M315 703l-149 154h46l103 -74l104 74h45zM580 425l-28 -10c-11 -4 -19 0 -23 11c-3 9 -8 21 -14 36c-39 95 -111 134 -187 134c-103 0 -203 -80 -203 -253c0 -189 117 -309 223 -309c84 0 129 48 164 99c15 22 19 37 33 37c8 0 29 -12 33 -19c5 -10 -3 -23 -16 -44
c-47 -79 -126 -122 -233 -122c-166 0 -300 148 -300 335c0 174 128 317 289 317c84 0 144 -36 183 -82c17 0 25 23 29 49c2 11 8 17 19 17h20z" />
    <glyph glyph-name="Ccedilla" unicode="&#xc7;" horiz-adv-x="625" 
d="M545 170c8 0 29 -12 33 -19c5 -10 -3 -23 -16 -44c-45 -75 -118 -117 -217 -122l-15 -33c53 14 117 -24 106 -88c-10 -59 -66 -75 -123 -72c-54 3 -88 28 -94 60c-6 31 29 52 57 26c4 -22 7 -54 41 -56c35 -2 58 17 63 48c5 32 -17 55 -57 51c-17 -2 -30 -5 -37 -6
c-16 -3 -23 14 -16 26c9 14 16 30 23 46c-149 20 -264 160 -264 333c0 174 128 317 289 317c84 0 144 -36 183 -82c17 0 25 23 29 49c2 11 8 17 19 17h20l11 -196l-28 -10c-11 -4 -19 0 -23 11c-3 9 -8 21 -14 36c-39 95 -111 134 -187 134c-103 0 -203 -80 -203 -253
c0 -189 117 -309 223 -309c84 0 129 48 164 99c15 22 19 37 33 37z" />
    <glyph glyph-name="Cdotaccent" unicode="&#x10a;" horiz-adv-x="625" 
d="M317 740c-28 0 -53 24 -53 53c0 28 25 53 53 53c29 0 53 -25 53 -53c0 -29 -24 -53 -53 -53zM580 425l-28 -10c-11 -4 -19 0 -23 11c-3 9 -8 21 -14 36c-39 95 -111 134 -187 134c-103 0 -203 -80 -203 -253c0 -189 117 -309 223 -309c84 0 129 48 164 99
c15 22 19 37 33 37c8 0 29 -12 33 -19c5 -10 -3 -23 -16 -44c-47 -79 -126 -122 -233 -122c-166 0 -300 148 -300 335c0 174 128 317 289 317c84 0 144 -36 183 -82c17 0 25 23 29 49c2 11 8 17 19 17h20z" />
    <glyph glyph-name="D" unicode="D" horiz-adv-x="634" 
d="M15 621h212c231 0 362 -79 362 -310c0 -236 -142 -318 -350 -309c-106 7 -150 6 -224 -2v35c46 10 65 25 65 48v459c0 23 -19 38 -65 49v30zM200 53l58 -4c178 -14 241 90 241 262c0 164 -72 270 -234 270h-100v-496c0 -23 8 -29 35 -32z" />
    <glyph glyph-name="Eth" unicode="&#xd0;" horiz-adv-x="638" 
d="M19 621h212c231 0 362 -79 362 -310c0 -236 -142 -318 -350 -309c-106 7 -150 6 -224 -2v35c46 10 65 25 65 48v208h-69v40h69v211c0 23 -19 38 -65 49v30zM204 53l58 -4c178 -14 241 90 241 262c0 164 -72 270 -234 270h-100v-250h116v-40h-116v-206c0 -23 8 -29 35 -32
z" />
    <glyph glyph-name="Dcaron" unicode="&#x10e;" horiz-adv-x="634" 
d="M298 703l-149 154h46l103 -74l104 74h45zM15 621h212c231 0 362 -79 362 -310c0 -236 -142 -318 -350 -309c-106 7 -150 6 -224 -2v35c46 10 65 25 65 48v459c0 23 -19 38 -65 49v30zM200 53l58 -4c178 -14 241 90 241 262c0 164 -72 270 -234 270h-100v-496
c0 -23 8 -29 35 -32z" />
    <glyph glyph-name="Dcroat" unicode="&#x110;" horiz-adv-x="638" 
d="M19 621h212c231 0 362 -79 362 -310c0 -236 -142 -318 -350 -309c-106 7 -150 6 -224 -2v35c46 10 65 25 65 48v208h-69v40h69v211c0 23 -19 38 -65 49v30zM204 53l58 -4c178 -14 241 90 241 262c0 164 -72 270 -234 270h-100v-250h116v-40h-116v-206c0 -23 8 -29 35 -32
z" />
    <glyph glyph-name="E" unicode="E" horiz-adv-x="572" 
d="M500 116h37c-16 -32 -24 -61 -32 -93c-4 -15 -17 -23 -30 -23h-440v29c35 11 53 14 53 49v468c0 35 -18 38 -53 49v26h437c13 0 17 -3 17 -18v-100h-29l-15 33c-13 28 -37 41 -80 41h-187v-239h181c33 0 38 23 51 55h18v-153h-18c-13 31 -18 57 -51 57h-181v-255l229 2
c46 0 48 14 67 39z" />
    <glyph glyph-name="Eacute" unicode="&#xc9;" horiz-adv-x="572" 
d="M363 846l-113 -110c-10 -8 -13 -17 -8 -23c6 -8 13 -8 23 -2l143 77c23 13 23 35 11 56c-12 20 -34 24 -56 2zM500 116h37c-16 -32 -24 -61 -32 -93c-4 -15 -17 -23 -30 -23h-440v29c35 11 53 14 53 49v468c0 35 -18 38 -53 49v26h437c13 0 17 -3 17 -18v-100h-29l-15 33
c-13 28 -37 41 -80 41h-187v-239h181c33 0 38 23 51 55h18v-153h-18c-13 31 -18 57 -51 57h-181v-255l229 2c46 0 48 14 67 39z" />
    <glyph glyph-name="Ecaron" unicode="&#x11a;" horiz-adv-x="572" 
d="M265 703l-149 154h46l103 -74l104 74h45zM500 116h37c-16 -32 -24 -61 -32 -93c-4 -15 -17 -23 -30 -23h-440v29c35 11 53 14 53 49v468c0 35 -18 38 -53 49v26h437c13 0 17 -3 17 -18v-100h-29l-15 33c-13 28 -37 41 -80 41h-187v-239h181c33 0 38 23 51 55h18v-153h-18
c-13 31 -18 57 -51 57h-181v-255l229 2c46 0 48 14 67 39z" />
    <glyph glyph-name="Ecircumflex" unicode="&#xca;" horiz-adv-x="572" 
d="M280 858l149 -154h-45l-104 74l-103 -74h-46zM500 116h37c-16 -32 -24 -61 -32 -93c-4 -15 -17 -23 -30 -23h-440v29c35 11 53 14 53 49v468c0 35 -18 38 -53 49v26h437c13 0 17 -3 17 -18v-100h-29l-15 33c-13 28 -37 41 -80 41h-187v-239h181c33 0 38 23 51 55h18v-153
h-18c-13 31 -18 57 -51 57h-181v-255l229 2c46 0 48 14 67 39z" />
    <glyph glyph-name="Edieresis" unicode="&#xcb;" horiz-adv-x="572" 
d="M178 739c-28 0 -52 24 -52 52s24 52 52 52s52 -24 52 -52s-24 -52 -52 -52zM367 739c-28 0 -52 24 -52 52s24 52 52 52s52 -24 52 -52s-24 -52 -52 -52zM500 116h37c-16 -32 -24 -61 -32 -93c-4 -15 -17 -23 -30 -23h-440v29c35 11 53 14 53 49v468c0 35 -18 38 -53 49
v26h437c13 0 17 -3 17 -18v-100h-29l-15 33c-13 28 -37 41 -80 41h-187v-239h181c33 0 38 23 51 55h18v-153h-18c-13 31 -18 57 -51 57h-181v-255l229 2c46 0 48 14 67 39z" />
    <glyph glyph-name="Edotaccent" unicode="&#x116;" horiz-adv-x="572" 
d="M267 740c-28 0 -53 24 -53 53c0 28 25 53 53 53c29 0 53 -25 53 -53c0 -29 -24 -53 -53 -53zM500 116h37c-16 -32 -24 -61 -32 -93c-4 -15 -17 -23 -30 -23h-440v29c35 11 53 14 53 49v468c0 35 -18 38 -53 49v26h437c13 0 17 -3 17 -18v-100h-29l-15 33
c-13 28 -37 41 -80 41h-187v-239h181c33 0 38 23 51 55h18v-153h-18c-13 31 -18 57 -51 57h-181v-255l229 2c46 0 48 14 67 39z" />
    <glyph glyph-name="Egrave" unicode="&#xc8;" horiz-adv-x="572" 
d="M334 736l-113 110c-22 22 -44 18 -56 -2c-12 -21 -12 -43 11 -56l143 -77c10 -6 18 -6 23 2c5 6 2 15 -8 23zM500 116h37c-16 -32 -24 -61 -32 -93c-4 -15 -17 -23 -30 -23h-440v29c35 11 53 14 53 49v468c0 35 -18 38 -53 49v26h437c13 0 17 -3 17 -18v-100h-29l-15 33
c-13 28 -37 41 -80 41h-187v-239h181c33 0 38 23 51 55h18v-153h-18c-13 31 -18 57 -51 57h-181v-255l229 2c46 0 48 14 67 39z" />
    <glyph glyph-name="Emacron" unicode="&#x112;" horiz-adv-x="572" 
d="M117 774v11c0 12 7 17 20 17h283c13 0 20 -5 20 -17v-11c0 -12 -7 -17 -20 -17h-283c-13 0 -20 5 -20 17zM500 116h37c-16 -32 -24 -61 -32 -93c-4 -15 -17 -23 -30 -23h-440v29c35 11 53 14 53 49v468c0 35 -18 38 -53 49v26h437c13 0 17 -3 17 -18v-100h-29l-15 33
c-13 28 -37 41 -80 41h-187v-239h181c33 0 38 23 51 55h18v-153h-18c-13 31 -18 57 -51 57h-181v-255l229 2c46 0 48 14 67 39z" />
    <glyph glyph-name="Eogonek" unicode="&#x118;" horiz-adv-x="572" 
d="M420 -165c46 0 66 23 80 54h25c-12 -32 -44 -95 -127 -95c-49 0 -106 27 -106 84c0 62 61 103 109 122h-366v29c35 11 53 14 53 49v468c0 35 -18 38 -53 49v26h437c13 0 17 -3 17 -18v-100h-29l-15 33c-13 28 -37 41 -80 41h-187v-239h181c33 0 38 23 51 55h18v-153h-18
c-13 31 -18 57 -51 57h-181v-255l229 2c46 0 48 14 67 39l26 33h37c-16 -32 -24 -61 -32 -93c-4 -15 -17 -23 -30 -23h-35c-61 -41 -74 -80 -74 -112c0 -33 27 -53 54 -53z" />
    <glyph glyph-name="Etilde" unicode="&#x1ebc;" horiz-adv-x="572" 
d="M424 817h30c-9 -63 -55 -100 -116 -100c-64 0 -104 68 -150 68c-42 0 -63 -31 -63 -48h-23c-12 59 50 96 102 96c67 0 91 -58 153 -58c34 0 67 28 67 42zM500 116h37c-16 -32 -24 -61 -32 -93c-4 -15 -17 -23 -30 -23h-440v29c35 11 53 14 53 49v468c0 35 -18 38 -53 49
v26h437c13 0 17 -3 17 -18v-100h-29l-15 33c-13 28 -37 41 -80 41h-187v-239h181c33 0 38 23 51 55h18v-153h-18c-13 31 -18 57 -51 57h-181v-255l229 2c46 0 48 14 67 39z" />
    <glyph glyph-name="F" unicode="F" horiz-adv-x="544" 
d="M514 503h-29l-16 33c-13 28 -37 41 -80 41h-221v-239h181c33 0 38 23 51 55h19v-153h-19c-13 31 -18 57 -51 57h-181v-225c0 -36 18 -38 53 -49v-23h-196v23c35 11 53 13 53 49v474c0 35 -18 38 -53 49v26h439c8 0 21 -7 24 -14z" />
    <glyph glyph-name="G" unicode="G" horiz-adv-x="675" 
d="M578 428l-49 -20c-5 11 -10 25 -19 46c-41 96 -115 141 -194 141c-97 0 -194 -70 -194 -270c0 -197 95 -296 204 -296c85 0 167 61 167 101v90c0 20 -12 32 -32 32h-45v43l224 1v-44h-31c-20 0 -32 -12 -32 -32v-215c0 -13 -27 -17 -30 -5l-24 78
c-48 -46 -107 -88 -197 -88c-171 0 -301 132 -301 330c0 182 127 317 291 317c86 0 143 -36 183 -90c20 0 26 35 29 81h36z" />
    <glyph glyph-name="Gbreve" unicode="&#x11e;" horiz-adv-x="675" 
d="M323 727c-80 0 -130 60 -134 123c0 8 5 11 10 11h14c7 0 10 -3 11 -11c4 -29 36 -61 99 -61s96 32 100 61c1 8 4 11 11 11h14c5 0 10 -3 10 -11c-4 -63 -55 -123 -135 -123zM578 428l-49 -20c-5 11 -10 25 -19 46c-41 96 -115 141 -194 141c-97 0 -194 -70 -194 -270
c0 -197 95 -296 204 -296c85 0 167 61 167 101v90c0 20 -12 32 -32 32h-45v43l224 1v-44h-31c-20 0 -32 -12 -32 -32v-215c0 -13 -27 -17 -30 -5l-24 78c-48 -46 -107 -88 -197 -88c-171 0 -301 132 -301 330c0 182 127 317 291 317c86 0 143 -36 183 -90c20 0 26 35 29 81
h36z" />
    <glyph glyph-name="Gcommaaccent" unicode="&#x122;" horiz-adv-x="675" 
d="M578 428l-49 -20c-5 11 -10 25 -19 46c-41 96 -115 141 -194 141c-97 0 -194 -70 -194 -270c0 -197 95 -296 204 -296c85 0 167 61 167 101v90c0 20 -12 32 -32 32h-45v43l224 1v-44h-31c-20 0 -32 -12 -32 -32v-215c0 -13 -27 -17 -30 -5l-24 78
c-48 -46 -107 -88 -197 -88c-171 0 -301 132 -301 330c0 182 127 317 291 317c86 0 143 -36 183 -90c20 0 26 35 29 81h36zM389 -223c-8 -28 -27 -52 -49 -71c-5 -4 -10 -4 -16 2l-13 14c15 16 27 30 33 45c5 15 6 28 3 34c-6 -2 -13 -3 -25 -2c-26 4 -46 29 -42 58
c4 31 31 52 61 48c29 -4 46 -29 51 -53c5 -26 6 -44 -3 -75z" />
    <glyph glyph-name="Gdotaccent" unicode="&#x120;" horiz-adv-x="675" 
d="M316 740c-28 0 -53 24 -53 53c0 28 25 53 53 53c29 0 53 -25 53 -53c0 -29 -24 -53 -53 -53zM578 428l-49 -20c-5 11 -10 25 -19 46c-41 96 -115 141 -194 141c-97 0 -194 -70 -194 -270c0 -197 95 -296 204 -296c85 0 167 61 167 101v90c0 20 -12 32 -32 32h-45v43
l224 1v-44h-31c-20 0 -32 -12 -32 -32v-215c0 -13 -27 -17 -30 -5l-24 78c-48 -46 -107 -88 -197 -88c-171 0 -301 132 -301 330c0 182 127 317 291 317c86 0 143 -36 183 -90c20 0 26 35 29 81h36z" />
    <glyph glyph-name="H" unicode="H" horiz-adv-x="671" 
d="M643 621v-26c-35 -11 -53 -14 -53 -49v-474c0 -36 18 -38 53 -49v-23h-195v23c35 11 52 13 52 49v222h-328v-222c0 -36 17 -38 52 -49v-23h-195v23c35 11 53 13 53 49v474c0 35 -18 38 -53 49v26h195v-26c-35 -11 -52 -14 -52 -49v-210h328v210c0 35 -17 38 -52 49v26
h195z" />
    <glyph glyph-name="Hbar" unicode="&#x126;" horiz-adv-x="664" 
d="M643 621v-26c-35 -11 -53 -14 -53 -49v-474c0 -36 18 -38 53 -49v-23h-195v23c35 11 52 13 52 49v222h-328v-222c0 -36 17 -38 52 -49v-23h-195v23c35 11 53 13 53 49v474c0 35 -18 38 -53 49v26h195v-26c-35 -11 -52 -14 -52 -49v-111h328v111c0 35 -17 38 -52 49v26
h195zM172 336h328v47h-328v-47z" />
    <glyph glyph-name="I" unicode="I" horiz-adv-x="274" 
d="M180 546v-474c0 -36 21 -38 56 -49v-23h-196v23c35 11 55 13 55 49v474c0 35 -20 38 -55 49v26h196v-26c-35 -11 -56 -14 -56 -49z" />
    <glyph glyph-name="IJ" unicode="&#x132;" horiz-adv-x="609" 
d="M180 546v-474c0 -36 21 -38 56 -49v-23h-196v23c35 11 55 13 55 49v474c0 35 -20 38 -55 49v26h196v-26c-35 -11 -56 -14 -56 -49zM569 621v-26c-35 -11 -55 -14 -55 -49v-567c0 -103 -50 -143 -136 -143c-74 0 -109 46 -109 81c0 36 18 52 49 52s41 -22 41 -46
c0 -22 10 -53 36 -53c24 0 34 24 34 57v619c0 35 -21 38 -56 49v26h196z" />
    <glyph glyph-name="Iacute" unicode="&#xcd;" horiz-adv-x="274" 
d="M225 846l-113 -110c-10 -8 -13 -17 -8 -23c6 -8 13 -8 23 -2l143 77c23 13 23 35 11 56c-12 20 -34 24 -56 2zM180 546v-474c0 -36 21 -38 56 -49v-23h-196v23c35 11 55 13 55 49v474c0 35 -20 38 -55 49v26h196v-26c-35 -11 -56 -14 -56 -49z" />
    <glyph glyph-name="Icircumflex" unicode="&#xce;" horiz-adv-x="274" 
d="M142 858l149 -154h-45l-104 74l-103 -74h-46zM180 546v-474c0 -36 21 -38 56 -49v-23h-196v23c35 11 55 13 55 49v474c0 35 -20 38 -55 49v26h196v-26c-35 -11 -56 -14 -56 -49z" />
    <glyph glyph-name="Idieresis" unicode="&#xcf;" horiz-adv-x="274" 
d="M40 739c-28 0 -52 24 -52 52s24 52 52 52s52 -24 52 -52s-24 -52 -52 -52zM229 739c-28 0 -52 24 -52 52s24 52 52 52s52 -24 52 -52s-24 -52 -52 -52zM180 546v-474c0 -36 21 -38 56 -49v-23h-196v23c35 11 55 13 55 49v474c0 35 -20 38 -55 49v26h196v-26
c-35 -11 -56 -14 -56 -49z" />
    <glyph glyph-name="Idotaccent" unicode="&#x130;" horiz-adv-x="274" 
d="M129 740c-28 0 -53 24 -53 53c0 28 25 53 53 53c29 0 53 -25 53 -53c0 -29 -24 -53 -53 -53zM180 546v-474c0 -36 21 -38 56 -49v-23h-196v23c35 11 55 13 55 49v474c0 35 -20 38 -55 49v26h196v-26c-35 -11 -56 -14 -56 -49z" />
    <glyph glyph-name="Igrave" unicode="&#xcc;" horiz-adv-x="274" 
d="M196 736l-113 110c-22 22 -44 18 -56 -2c-12 -21 -12 -43 11 -56l143 -77c10 -6 18 -6 23 2c5 6 2 15 -8 23zM180 546v-474c0 -36 21 -38 56 -49v-23h-196v23c35 11 55 13 55 49v474c0 35 -20 38 -55 49v26h196v-26c-35 -11 -56 -14 -56 -49z" />
    <glyph glyph-name="Imacron" unicode="&#x12a;" horiz-adv-x="274" 
d="M-21 774v11c0 12 7 17 20 17h283c13 0 20 -5 20 -17v-11c0 -12 -7 -17 -20 -17h-283c-13 0 -20 5 -20 17zM180 546v-474c0 -36 21 -38 56 -49v-23h-196v23c35 11 55 13 55 49v474c0 35 -20 38 -55 49v26h196v-26c-35 -11 -56 -14 -56 -49z" />
    <glyph glyph-name="Iogonek" unicode="&#x12e;" horiz-adv-x="274" 
d="M219 -111h25c-12 -32 -44 -95 -127 -95c-49 0 -106 27 -106 84c0 62 61 103 109 122h-80v23c35 11 55 13 55 49v474c0 35 -20 38 -55 49v26h196v-26c-35 -11 -56 -14 -56 -49v-474c0 -36 21 -38 56 -49v-23h-77c-61 -41 -74 -80 -74 -112c0 -33 27 -53 54 -53
c46 0 66 23 80 54z" />
    <glyph glyph-name="J" unicode="J" horiz-adv-x="335" 
d="M295 621v-26c-35 -11 -55 -14 -55 -49v-567c0 -103 -50 -143 -136 -143c-74 0 -109 46 -109 81c0 36 18 52 49 52s41 -22 41 -46c0 -22 10 -53 36 -53c24 0 34 24 34 57v619c0 35 -21 38 -56 49v26h196z" />
    <glyph glyph-name="K" unicode="K" horiz-adv-x="633" 
d="M263 338l213 -235c59 -66 88 -71 122 -79v-24h-222v24c29 8 52 12 37 28l-214 239h-39v-219c0 -36 21 -38 56 -49v-23h-196v23c35 11 55 13 55 49v474c0 35 -20 38 -55 49v26h196v-26c-35 -11 -56 -14 -56 -49v-207h19c15 0 35 8 46 21l193 206c18 19 -8 25 -29 28v27
h165v-27c-26 -3 -57 -7 -76 -27z" />
    <glyph glyph-name="Kcommaaccent" unicode="&#x136;" horiz-adv-x="633" 
d="M263 338l213 -235c59 -66 88 -71 122 -79v-24h-222v24c29 8 52 12 37 28l-214 239h-39v-219c0 -36 21 -38 56 -49v-23h-196v23c35 11 55 13 55 49v474c0 35 -20 38 -55 49v26h196v-26c-35 -11 -56 -14 -56 -49v-207h19c15 0 35 8 46 21l193 206c18 19 -8 25 -29 28v27
h165v-27c-26 -3 -57 -7 -76 -27zM290 -95c29 -4 46 -29 51 -53c5 -26 6 -44 -3 -75c-8 -28 -27 -52 -49 -71c-5 -4 -10 -4 -16 2l-13 14c15 16 27 30 33 45c5 15 6 28 3 34c-6 -2 -13 -3 -25 -2c-26 4 -46 29 -42 58c4 31 31 52 61 48z" />
    <glyph glyph-name="L" unicode="L" horiz-adv-x="551" 
d="M516 113l-24 -90c-5 -15 -17 -23 -30 -23h-448v23c35 11 55 13 55 49v474c0 35 -20 38 -55 49v26h195v-26c-35 -11 -55 -14 -55 -49v-464c1 -30 16 -41 35 -40l193 8c43 2 65 3 80 31l17 32h37z" />
    <glyph glyph-name="Lacute" unicode="&#x139;" horiz-adv-x="551" 
d="M195 846l-113 -110c-10 -8 -13 -17 -8 -23c6 -8 13 -8 23 -2l143 77c23 13 23 35 11 56c-12 20 -34 24 -56 2zM516 113l-24 -90c-5 -15 -17 -23 -30 -23h-448v23c35 11 55 13 55 49v474c0 35 -20 38 -55 49v26h195v-26c-35 -11 -55 -14 -55 -49v-464c1 -30 16 -41 35 -40
l193 8c43 2 65 3 80 31l17 32h37z" />
    <glyph glyph-name="Lcaron" unicode="&#x13d;" horiz-adv-x="551" 
d="M351 492c-8 -29 -27 -53 -48 -72c-6 -4 -11 -4 -16 2l-14 14c16 16 27 30 33 45c6 16 7 28 3 35c-6 -2 -12 -4 -25 -3c-26 4 -45 30 -42 58c4 31 32 53 61 49s46 -30 51 -53c5 -27 6 -45 -3 -75zM516 113l-24 -90c-5 -15 -17 -23 -30 -23h-448v23c35 11 55 13 55 49v474
c0 35 -20 38 -55 49v26h195v-26c-35 -11 -55 -14 -55 -49v-464c1 -30 16 -41 35 -40l193 8c43 2 65 3 80 31l17 32h37z" />
    <glyph glyph-name="Lcommaaccent" unicode="&#x13b;" horiz-adv-x="551" 
d="M516 113l-24 -90c-5 -15 -17 -23 -30 -23h-448v23c35 11 55 13 55 49v474c0 35 -20 38 -55 49v26h195v-26c-35 -11 -55 -14 -55 -49v-464c1 -30 16 -41 35 -40l193 8c43 2 65 3 80 31l17 32h37zM328 -223c-8 -28 -27 -52 -49 -71c-5 -4 -10 -4 -16 2l-13 14
c15 16 27 30 33 45c5 15 6 28 3 34c-6 -2 -13 -3 -25 -2c-26 4 -46 29 -42 58c4 31 31 52 61 48c29 -4 46 -29 51 -53c5 -26 6 -44 -3 -75z" />
    <glyph glyph-name="Ldot" unicode="&#x13f;" horiz-adv-x="551" 
d="M516 113l-24 -90c-5 -15 -17 -23 -30 -23h-448v23c35 11 55 13 55 49v474c0 35 -20 38 -55 49v26h195v-26c-35 -11 -55 -14 -55 -49v-464c1 -30 16 -41 35 -40l193 8c43 2 65 3 80 31l17 32h37zM350 340c-29 0 -54 25 -54 55s25 55 54 55c30 0 55 -25 55 -55
s-25 -55 -55 -55z" />
    <glyph glyph-name="Lslash" unicode="&#x141;" horiz-adv-x="589" 
d="M518 113h36l-24 -90c-4 -15 -17 -23 -30 -23h-447v23c35 11 55 13 55 49v179l-94 -29v62l94 29v233c0 35 -20 38 -55 49v26h195v-26c-35 -11 -55 -14 -55 -49v-207l223 69v-62l-223 -69v-195c1 -30 16 -41 34 -40l194 8c43 2 64 3 80 31z" />
    <glyph glyph-name="M" unicode="M" horiz-adv-x="820" 
d="M780 621v-24c-36 -11 -49 -26 -49 -61v-463c0 -35 13 -39 49 -50v-23h-185v23c32 11 51 15 51 50v441l-225 -459c-13 -26 -22 -26 -36 0l-253 462v-444c0 -35 19 -39 53 -50v-23h-155v23c36 11 54 15 54 50v463c0 35 -18 50 -54 61v24h148l246 -453l226 453h130z" />
    <glyph glyph-name="N" unicode="N" horiz-adv-x="654" 
d="M629 621v-23c-39 -11 -58 -26 -58 -49v-549c0 -10 -11 -10 -19 0l-423 513v-440c0 -23 19 -38 57 -49v-24h-161v24c39 11 58 26 58 49v476c0 23 -19 38 -58 49v23h136l356 -450v378c0 23 -18 38 -58 49v23h170z" />
    <glyph glyph-name="Nacute" unicode="&#x143;" horiz-adv-x="654" 
d="M413 846l-113 -110c-10 -8 -13 -17 -8 -23c6 -8 13 -8 23 -2l143 77c23 13 23 35 11 56c-12 20 -34 24 -56 2zM629 621v-23c-39 -11 -58 -26 -58 -49v-549c0 -10 -11 -10 -19 0l-423 513v-440c0 -23 19 -38 57 -49v-24h-161v24c39 11 58 26 58 49v476c0 23 -19 38 -58 49
v23h136l356 -450v378c0 23 -18 38 -58 49v23h170z" />
    <glyph glyph-name="Ncaron" unicode="&#x147;" horiz-adv-x="654" 
d="M315 703l-149 154h46l103 -74l104 74h45zM629 621v-23c-39 -11 -58 -26 -58 -49v-549c0 -10 -11 -10 -19 0l-423 513v-440c0 -23 19 -38 57 -49v-24h-161v24c39 11 58 26 58 49v476c0 23 -19 38 -58 49v23h136l356 -450v378c0 23 -18 38 -58 49v23h170z" />
    <glyph glyph-name="Ncommaaccent" unicode="&#x145;" horiz-adv-x="654" 
d="M629 621v-23c-39 -11 -58 -26 -58 -49v-549c0 -10 -11 -10 -19 0l-423 513v-440c0 -23 19 -38 57 -49v-24h-161v24c39 11 58 26 58 49v476c0 23 -19 38 -58 49v23h136l356 -450v378c0 23 -18 38 -58 49v23h170zM395 -223c-8 -28 -27 -52 -49 -71c-5 -4 -10 -4 -16 2
l-13 14c15 16 27 30 33 45c5 15 6 28 3 34c-6 -2 -13 -3 -25 -2c-26 4 -46 29 -42 58c4 31 31 52 61 48c29 -4 46 -29 51 -53c5 -26 6 -44 -3 -75z" />
    <glyph glyph-name="Eng" unicode="&#x14a;" horiz-adv-x="659" 
d="M459 621h170v-23c-39 -11 -58 -26 -58 -49v-566c0 -68 -25 -114 -75 -127c-81 -24 -145 -7 -158 37c-6 20 -4 46 16 56c22 11 43 7 51 -7c7 -13 20 -72 58 -65c15 3 23 23 23 50v153l-357 433v-440c0 -23 19 -38 57 -49v-24h-161v24c39 11 58 26 58 49v476
c0 23 -19 38 -58 49v23h136l356 -450v378c0 23 -18 38 -58 49v23z" />
    <glyph glyph-name="Ntilde" unicode="&#xd1;" horiz-adv-x="654" 
d="M474 817h30c-9 -63 -55 -100 -116 -100c-64 0 -104 68 -150 68c-42 0 -63 -31 -63 -48h-23c-12 59 50 96 102 96c67 0 91 -58 153 -58c34 0 67 28 67 42zM629 621v-23c-39 -11 -58 -26 -58 -49v-549c0 -10 -11 -10 -19 0l-423 513v-440c0 -23 19 -38 57 -49v-24h-161v24
c39 11 58 26 58 49v476c0 23 -19 38 -58 49v23h136l356 -450v378c0 23 -18 38 -58 49v23h170z" />
    <glyph glyph-name="O" unicode="O" horiz-adv-x="650" 
d="M620 316c0 -189 -123 -331 -295 -331c-171 0 -295 148 -295 331s124 321 295 321c172 0 295 -136 295 -321zM323 31c119 0 201 52 201 255c0 190 -105 311 -199 311c-114 0 -198 -45 -198 -251c0 -198 101 -315 196 -315z" />
    <glyph glyph-name="Oacute" unicode="&#xd3;" horiz-adv-x="650" 
d="M411 846l-113 -110c-10 -8 -13 -17 -8 -23c6 -8 13 -8 23 -2l143 77c23 13 23 35 11 56c-12 20 -34 24 -56 2zM620 316c0 -189 -123 -331 -295 -331c-171 0 -295 148 -295 331s124 321 295 321c172 0 295 -136 295 -321zM323 31c119 0 201 52 201 255
c0 190 -105 311 -199 311c-114 0 -198 -45 -198 -251c0 -198 101 -315 196 -315z" />
    <glyph glyph-name="Ocircumflex" unicode="&#xd4;" horiz-adv-x="650" 
d="M328 858l149 -154h-45l-104 74l-103 -74h-46zM620 316c0 -189 -123 -331 -295 -331c-171 0 -295 148 -295 331s124 321 295 321c172 0 295 -136 295 -321zM323 31c119 0 201 52 201 255c0 190 -105 311 -199 311c-114 0 -198 -45 -198 -251c0 -198 101 -315 196 -315z
" />
    <glyph glyph-name="Odieresis" unicode="&#xd6;" horiz-adv-x="650" 
d="M226 739c-28 0 -52 24 -52 52s24 52 52 52s52 -24 52 -52s-24 -52 -52 -52zM415 739c-28 0 -52 24 -52 52s24 52 52 52s52 -24 52 -52s-24 -52 -52 -52zM620 316c0 -189 -123 -331 -295 -331c-171 0 -295 148 -295 331s124 321 295 321c172 0 295 -136 295 -321zM323 31
c119 0 201 52 201 255c0 190 -105 311 -199 311c-114 0 -198 -45 -198 -251c0 -198 101 -315 196 -315z" />
    <glyph glyph-name="Ograve" unicode="&#xd2;" horiz-adv-x="650" 
d="M382 736l-113 110c-22 22 -44 18 -56 -2c-12 -21 -12 -43 11 -56l143 -77c10 -6 18 -6 23 2c5 6 2 15 -8 23zM620 316c0 -189 -123 -331 -295 -331c-171 0 -295 148 -295 331s124 321 295 321c172 0 295 -136 295 -321zM323 31c119 0 201 52 201 255
c0 190 -105 311 -199 311c-114 0 -198 -45 -198 -251c0 -198 101 -315 196 -315z" />
    <glyph glyph-name="Ohungarumlaut" unicode="&#x150;" horiz-adv-x="650" 
d="M285 846l-113 -110c-10 -8 -13 -17 -8 -23c6 -8 13 -8 23 -2l143 77c23 13 23 35 11 56c-12 20 -34 24 -56 2zM492 846l-113 -110c-10 -8 -13 -17 -8 -23c6 -8 13 -8 23 -2l143 77c23 13 23 35 11 56c-12 20 -34 24 -56 2zM620 316c0 -189 -123 -331 -295 -331
c-171 0 -295 148 -295 331s124 321 295 321c172 0 295 -136 295 -321zM323 31c119 0 201 52 201 255c0 190 -105 311 -199 311c-114 0 -198 -45 -198 -251c0 -198 101 -315 196 -315z" />
    <glyph glyph-name="Omacron" unicode="&#x14c;" horiz-adv-x="650" 
d="M165 774v11c0 12 7 17 20 17h283c13 0 20 -5 20 -17v-11c0 -12 -7 -17 -20 -17h-283c-13 0 -20 5 -20 17zM620 316c0 -189 -123 -331 -295 -331c-171 0 -295 148 -295 331s124 321 295 321c172 0 295 -136 295 -321zM323 31c119 0 201 52 201 255
c0 190 -105 311 -199 311c-114 0 -198 -45 -198 -251c0 -198 101 -315 196 -315z" />
    <glyph glyph-name="Oslash" unicode="&#xd8;" horiz-adv-x="650" 
d="M572 610l-43 -56c57 -58 91 -141 91 -238c0 -189 -123 -331 -295 -331c-69 0 -130 24 -178 64l-49 -64l-35 26l52 69c-53 60 -85 143 -85 236c0 183 124 321 295 321c66 0 124 -20 171 -55l41 54zM127 346c0 -79 16 -145 41 -196l284 374c-37 47 -83 73 -127 73
c-114 0 -198 -45 -198 -251zM323 31c119 0 201 52 201 255c0 80 -18 147 -46 199l-285 -375c37 -51 84 -79 130 -79z" />
    <glyph glyph-name="Otilde" unicode="&#xd5;" horiz-adv-x="650" 
d="M472 817h30c-9 -63 -55 -100 -116 -100c-64 0 -104 68 -150 68c-42 0 -63 -31 -63 -48h-23c-12 59 50 96 102 96c67 0 91 -58 153 -58c34 0 67 28 67 42zM620 316c0 -189 -123 -331 -295 -331c-171 0 -295 148 -295 331s124 321 295 321c172 0 295 -136 295 -321zM323 31
c119 0 201 52 201 255c0 190 -105 311 -199 311c-114 0 -198 -45 -198 -251c0 -198 101 -315 196 -315z" />
    <glyph glyph-name="OE" unicode="&#x152;" horiz-adv-x="957" 
d="M885 116h37c-16 -32 -24 -61 -32 -93c-4 -15 -17 -23 -30 -23l-440 1c-29 -11 -61 -16 -95 -16c-171 0 -295 148 -295 331s124 321 295 321c35 0 68 -6 98 -16h434c13 0 17 -3 17 -18v-100h-29l-15 33c-13 28 -37 41 -80 41h-187v-239h181c33 0 38 23 51 55h18v-153h-18
c-13 31 -18 57 -51 57h-181v-255l229 2c46 0 48 14 67 39zM323 31c63 0 115 14 150 57v405c-40 66 -96 104 -148 104c-114 0 -198 -45 -198 -251c0 -198 101 -315 196 -315z" />
    <glyph glyph-name="P" unicode="P" horiz-adv-x="559" 
d="M25 621h270c140 0 239 -72 239 -191c0 -118 -102 -187 -252 -187h-117v-171c0 -36 21 -38 56 -49v-23h-196v23c35 11 55 13 55 49v474c0 35 -20 38 -55 49v26zM165 276h131c109 0 141 69 141 154c0 87 -34 155 -128 155h-144v-309z" />
    <glyph glyph-name="Thorn" unicode="&#xde;" horiz-adv-x="546" 
d="M157 512h110c157 0 251 -78 251 -195c0 -113 -92 -182 -250 -182h-111v-63c0 -36 20 -38 55 -49v-23h-196v23c35 11 56 13 56 49v474c0 35 -21 38 -56 49v26h196v-26c-35 -11 -55 -14 -55 -49v-34zM157 168h124c117 0 140 60 140 147c0 88 -27 162 -140 162h-124v-309z
" />
    <glyph glyph-name="Q" unicode="Q" horiz-adv-x="690" 
d="M610 -11c27 -1 40 -18 40 -44c-1 -62 -58 -111 -126 -110c-37 1 -83 18 -131 48l-134 93c-59 39 -119 18 -119 -25c0 -24 -18 -42 -39 -42c-19 1 -37 20 -37 45c1 41 34 77 77 93c-69 60 -111 155 -111 262c0 183 124 321 295 321c172 0 295 -136 295 -321
c0 -177 -108 -313 -264 -329l99 -76c59 -44 115 -7 116 35c-1 29 11 50 39 50zM127 339c0 -151 59 -255 129 -296c9 -3 17 -7 26 -12c14 -5 27 -7 41 -7c119 0 201 52 201 255c0 190 -105 311 -199 311c-114 0 -198 -45 -198 -251z" />
    <glyph glyph-name="R" unicode="R" horiz-adv-x="628" 
d="M603 30v-30h-104c-37 20 -93 60 -116 161c-21 91 -44 126 -133 126h-77v-215c0 -36 20 -38 54 -49v-23h-192v23c35 11 53 13 53 49v465c0 35 -18 50 -53 61v23h261c140 0 224 -71 224 -170c0 -76 -57 -136 -163 -159c87 -12 105 -61 123 -124c16 -58 51 -133 100 -138h23
zM173 320h132c97 0 118 67 118 131c0 68 -31 134 -110 134h-140v-265z" />
    <glyph glyph-name="Racute" unicode="&#x154;" horiz-adv-x="628" 
d="M386 846l-113 -110c-10 -8 -13 -17 -8 -23c6 -8 13 -8 23 -2l143 77c23 13 23 35 11 56c-12 20 -34 24 -56 2zM603 30v-30h-104c-37 20 -93 60 -116 161c-21 91 -44 126 -133 126h-77v-215c0 -36 20 -38 54 -49v-23h-192v23c35 11 53 13 53 49v465c0 35 -18 50 -53 61v23
h261c140 0 224 -71 224 -170c0 -76 -57 -136 -163 -159c87 -12 105 -61 123 -124c16 -58 51 -133 100 -138h23zM173 320h132c97 0 118 67 118 131c0 68 -31 134 -110 134h-140v-265z" />
    <glyph glyph-name="Rcaron" unicode="&#x158;" horiz-adv-x="628" 
d="M288 703l-149 154h46l103 -74l104 74h45zM603 30v-30h-104c-37 20 -93 60 -116 161c-21 91 -44 126 -133 126h-77v-215c0 -36 20 -38 54 -49v-23h-192v23c35 11 53 13 53 49v465c0 35 -18 50 -53 61v23h261c140 0 224 -71 224 -170c0 -76 -57 -136 -163 -159
c87 -12 105 -61 123 -124c16 -58 51 -133 100 -138h23zM173 320h132c97 0 118 67 118 131c0 68 -31 134 -110 134h-140v-265z" />
    <glyph glyph-name="Rcommaaccent" unicode="&#x156;" horiz-adv-x="628" 
d="M603 30v-30h-104c-37 20 -93 60 -116 161c-21 91 -44 126 -133 126h-77v-215c0 -36 20 -38 54 -49v-23h-192v23c35 11 53 13 53 49v465c0 35 -18 50 -53 61v23h261c140 0 224 -71 224 -170c0 -76 -57 -136 -163 -159c87 -12 105 -61 123 -124c16 -58 51 -133 100 -138h23
zM173 320h132c97 0 118 67 118 131c0 68 -31 134 -110 134h-140v-265zM362 -223c-8 -28 -27 -52 -49 -71c-5 -4 -10 -4 -16 2l-13 14c15 16 27 30 33 45c5 15 6 28 3 34c-6 -2 -13 -3 -25 -2c-26 4 -46 29 -42 58c4 31 31 52 61 48c29 -4 46 -29 51 -53c5 -26 6 -44 -3 -75z
" />
    <glyph glyph-name="S" unicode="S" horiz-adv-x="544" 
d="M492 439l-29 -5c-13 -2 -21 1 -24 12l-11 40c-16 61 -87 113 -160 113c-85 0 -138 -67 -130 -130c9 -66 80 -87 138 -105c60 -19 223 -51 237 -181c15 -137 -121 -198 -232 -198c-110 0 -132 55 -194 34l-52 157l28 9c15 5 24 2 32 -13c7 -13 15 -27 22 -41
c29 -58 87 -99 165 -99c67 0 148 24 138 119c-8 83 -93 102 -167 127c-73 23 -180 52 -197 165c-12 89 64 195 212 195c128 0 150 -60 211 -72z" />
    <glyph glyph-name="Sacute" unicode="&#x15a;" horiz-adv-x="544" 
d="M381 846l-113 -110c-10 -8 -13 -17 -8 -23c6 -8 13 -8 23 -2l143 77c23 13 23 35 11 56c-12 20 -34 24 -56 2zM492 439l-29 -5c-13 -2 -21 1 -24 12l-11 40c-16 61 -87 113 -160 113c-85 0 -138 -67 -130 -130c9 -66 80 -87 138 -105c60 -19 223 -51 237 -181
c15 -137 -121 -198 -232 -198c-110 0 -132 55 -194 34l-52 157l28 9c15 5 24 2 32 -13c7 -13 15 -27 22 -41c29 -58 87 -99 165 -99c67 0 148 24 138 119c-8 83 -93 102 -167 127c-73 23 -180 52 -197 165c-12 89 64 195 212 195c128 0 150 -60 211 -72z" />
    <glyph glyph-name="Scaron" unicode="&#x160;" horiz-adv-x="544" 
d="M283 703l-149 154h46l103 -74l104 74h45zM492 439l-29 -5c-13 -2 -21 1 -24 12l-11 40c-16 61 -87 113 -160 113c-85 0 -138 -67 -130 -130c9 -66 80 -87 138 -105c60 -19 223 -51 237 -181c15 -137 -121 -198 -232 -198c-110 0 -132 55 -194 34l-52 157l28 9
c15 5 24 2 32 -13c7 -13 15 -27 22 -41c29 -58 87 -99 165 -99c67 0 148 24 138 119c-8 83 -93 102 -167 127c-73 23 -180 52 -197 165c-12 89 64 195 212 195c128 0 150 -60 211 -72z" />
    <glyph glyph-name="Scedilla" unicode="&#x15e;" horiz-adv-x="544" 
d="M513 183c14 -125 -99 -187 -203 -197l-16 -34c53 14 117 -24 106 -88c-10 -59 -66 -75 -123 -72c-54 3 -88 28 -94 60c-6 31 29 52 57 26c4 -22 7 -54 41 -56c35 -2 58 17 63 48c5 32 -17 55 -57 51c-17 -2 -30 -5 -37 -6c-16 -3 -23 14 -16 26c8 14 16 29 23 45
c-90 7 -113 52 -170 33l-52 157l28 9c15 5 24 2 32 -13c7 -13 15 -27 22 -41c29 -58 87 -99 165 -99c67 0 148 24 138 119c-8 83 -93 102 -167 127c-73 23 -180 52 -197 165c-12 89 64 195 212 195c128 0 150 -60 211 -72l13 -127l-29 -5c-13 -2 -21 1 -24 12l-11 40
c-16 61 -87 113 -160 113c-85 0 -138 -67 -130 -130c9 -66 80 -87 138 -105c60 -19 223 -51 237 -181z" />
    <glyph glyph-name="Scommaaccent" unicode="&#x218;" horiz-adv-x="544" 
d="M492 439l-29 -5c-13 -2 -21 1 -24 12l-11 40c-16 61 -87 113 -160 113c-85 0 -138 -67 -130 -130c9 -66 80 -87 138 -105c60 -19 223 -51 237 -181c15 -137 -121 -198 -232 -198c-110 0 -132 55 -194 34l-52 157l28 9c15 5 24 2 32 -13c7 -13 15 -27 22 -41
c29 -58 87 -99 165 -99c67 0 148 24 138 119c-8 83 -93 102 -167 127c-73 23 -180 52 -197 165c-12 89 64 195 212 195c128 0 150 -60 211 -72zM333 -223c-8 -28 -27 -52 -49 -71c-5 -4 -10 -4 -16 2l-13 14c15 16 27 30 33 45c5 15 6 28 3 34c-6 -2 -13 -3 -25 -2
c-26 4 -46 29 -42 58c4 31 31 52 61 48c29 -4 46 -29 51 -53c5 -26 6 -44 -3 -75z" />
    <glyph glyph-name="T" unicode="T" horiz-adv-x="584" 
d="M553 599l6 -91h-20l-13 33c-7 18 -22 30 -45 30h-145v-499c0 -36 20 -38 55 -49v-23h-197v23c35 11 56 13 56 49v499h-146c-23 0 -38 -12 -46 -30l-13 -33h-20l7 91c1 15 8 22 21 22h478c13 0 21 -7 22 -22z" />
    <glyph glyph-name="Tbar" unicode="&#x166;" horiz-adv-x="584" 
d="M553 599l6 -91h-20l-13 33c-7 18 -22 30 -45 30h-145v-136h110c13 0 20 -5 20 -17v-12c0 -12 -7 -17 -20 -17h-110v-317c0 -36 20 -38 55 -49v-23h-197v23c35 11 56 13 56 49v317h-87c-13 0 -20 5 -20 17v12c0 12 7 17 20 17h87v136h-146c-23 0 -38 -12 -46 -30l-13 -33
h-20l7 91c1 15 8 22 21 22h478c13 0 21 -7 22 -22z" />
    <glyph glyph-name="Tcaron" unicode="&#x164;" horiz-adv-x="584" 
d="M440 857l-149 -154l-149 154h46l103 -74l104 74h45zM553 599l6 -91h-20l-13 33c-7 18 -22 30 -45 30h-145v-499c0 -36 20 -38 55 -49v-23h-197v23c35 11 56 13 56 49v499h-146c-23 0 -38 -12 -46 -30l-13 -33h-20l7 91c1 15 8 22 21 22h478c13 0 21 -7 22 -22z" />
    <glyph glyph-name="Tcedilla" unicode="&#x162;" horiz-adv-x="584" 
d="M553 599l6 -91h-20l-13 33c-7 18 -22 30 -45 30h-145v-499c0 -36 20 -38 55 -49v-23h-67l-22 -48c53 14 117 -24 106 -88c-10 -59 -66 -75 -123 -72c-54 3 -88 28 -94 60c-6 31 29 52 57 26c4 -22 7 -54 41 -56c35 -2 58 17 63 48c5 32 -17 55 -57 51
c-17 -2 -30 -5 -37 -6c-16 -3 -23 14 -16 26c11 18 20 39 29 59h-77v23c35 11 56 13 56 49v499h-146c-23 0 -38 -12 -46 -30l-13 -33h-20l7 91c1 15 8 22 21 22h478c13 0 21 -7 22 -22z" />
    <glyph glyph-name="uni021A" unicode="&#x21a;" horiz-adv-x="584" 
d="M553 599l6 -91h-20l-13 33c-7 18 -22 30 -45 30h-145v-499c0 -36 20 -38 55 -49v-23h-197v23c35 11 56 13 56 49v499h-146c-23 0 -38 -12 -46 -30l-13 -33h-20l7 91c1 15 8 22 21 22h478c13 0 21 -7 22 -22zM293 -95c29 -4 46 -29 51 -53c5 -26 6 -44 -3 -75
c-8 -28 -27 -52 -49 -71c-5 -4 -10 -4 -16 2l-13 14c15 16 27 30 33 45c5 15 6 28 3 34c-6 -2 -13 -3 -25 -2c-26 4 -46 29 -42 58c4 31 31 52 61 48z" />
    <glyph glyph-name="U" unicode="U" horiz-adv-x="639" 
d="M599 621v-25c-25 -4 -45 -9 -45 -32v-310c0 -161 -85 -264 -231 -264c-171 0 -259 103 -259 262v312c0 23 -19 28 -44 32v25h181v-25c-25 -4 -46 -9 -46 -32v-267c0 -190 62 -264 168 -264c87 0 173 54 173 216v315c0 23 -19 28 -47 32v25h150z" />
    <glyph glyph-name="Uacute" unicode="&#xda;" horiz-adv-x="639" 
d="M414 846l-113 -110c-10 -8 -13 -17 -8 -23c6 -8 13 -8 23 -2l143 77c23 13 23 35 11 56c-12 20 -34 24 -56 2zM599 621v-25c-25 -4 -45 -9 -45 -32v-310c0 -161 -85 -264 -231 -264c-171 0 -259 103 -259 262v312c0 23 -19 28 -44 32v25h181v-25c-25 -4 -46 -9 -46 -32
v-267c0 -190 62 -264 168 -264c87 0 173 54 173 216v315c0 23 -19 28 -47 32v25h150z" />
    <glyph glyph-name="Ucircumflex" unicode="&#xdb;" horiz-adv-x="639" 
d="M331 858l149 -154h-45l-104 74l-103 -74h-46zM599 621v-25c-25 -4 -45 -9 -45 -32v-310c0 -161 -85 -264 -231 -264c-171 0 -259 103 -259 262v312c0 23 -19 28 -44 32v25h181v-25c-25 -4 -46 -9 -46 -32v-267c0 -190 62 -264 168 -264c87 0 173 54 173 216v315
c0 23 -19 28 -47 32v25h150z" />
    <glyph glyph-name="Udieresis" unicode="&#xdc;" horiz-adv-x="639" 
d="M229 739c-28 0 -52 24 -52 52s24 52 52 52s52 -24 52 -52s-24 -52 -52 -52zM418 739c-28 0 -52 24 -52 52s24 52 52 52s52 -24 52 -52s-24 -52 -52 -52zM599 621v-25c-25 -4 -45 -9 -45 -32v-310c0 -161 -85 -264 -231 -264c-171 0 -259 103 -259 262v312
c0 23 -19 28 -44 32v25h181v-25c-25 -4 -46 -9 -46 -32v-267c0 -190 62 -264 168 -264c87 0 173 54 173 216v315c0 23 -19 28 -47 32v25h150z" />
    <glyph glyph-name="Ugrave" unicode="&#xd9;" horiz-adv-x="639" 
d="M385 736l-113 110c-22 22 -44 18 -56 -2c-12 -21 -12 -43 11 -56l143 -77c10 -6 18 -6 23 2c5 6 2 15 -8 23zM599 621v-25c-25 -4 -45 -9 -45 -32v-310c0 -161 -85 -264 -231 -264c-171 0 -259 103 -259 262v312c0 23 -19 28 -44 32v25h181v-25c-25 -4 -46 -9 -46 -32
v-267c0 -190 62 -264 168 -264c87 0 173 54 173 216v315c0 23 -19 28 -47 32v25h150z" />
    <glyph glyph-name="Uhungarumlaut" unicode="&#x170;" horiz-adv-x="639" 
d="M288 846l-113 -110c-10 -8 -13 -17 -8 -23c6 -8 13 -8 23 -2l143 77c23 13 23 35 11 56c-12 20 -34 24 -56 2zM495 846l-113 -110c-10 -8 -13 -17 -8 -23c6 -8 13 -8 23 -2l143 77c23 13 23 35 11 56c-12 20 -34 24 -56 2zM599 621v-25c-25 -4 -45 -9 -45 -32v-310
c0 -161 -85 -264 -231 -264c-171 0 -259 103 -259 262v312c0 23 -19 28 -44 32v25h181v-25c-25 -4 -46 -9 -46 -32v-267c0 -190 62 -264 168 -264c87 0 173 54 173 216v315c0 23 -19 28 -47 32v25h150z" />
    <glyph glyph-name="Umacron" unicode="&#x16a;" horiz-adv-x="639" 
d="M168 774v11c0 12 7 17 20 17h283c13 0 20 -5 20 -17v-11c0 -12 -7 -17 -20 -17h-283c-13 0 -20 5 -20 17zM599 621v-25c-25 -4 -45 -9 -45 -32v-310c0 -161 -85 -264 -231 -264c-171 0 -259 103 -259 262v312c0 23 -19 28 -44 32v25h181v-25c-25 -4 -46 -9 -46 -32v-267
c0 -190 62 -264 168 -264c87 0 173 54 173 216v315c0 23 -19 28 -47 32v25h150z" />
    <glyph glyph-name="Uogonek" unicode="&#x172;" horiz-adv-x="639" 
d="M449 621h150v-25c-25 -4 -45 -9 -45 -32v-310c0 -130 -56 -222 -154 -253h1c-63 -41 -76 -81 -76 -113c0 -33 27 -53 54 -53c46 0 66 23 80 54h25c-12 -32 -44 -95 -127 -95c-49 0 -106 27 -106 84c0 53 45 91 88 112h-16c-171 0 -259 103 -259 262v312
c0 23 -19 28 -44 32v25h181v-25c-25 -4 -46 -9 -46 -32v-267c0 -190 62 -264 168 -264c87 0 173 54 173 216v315c0 23 -19 28 -47 32v25z" />
    <glyph glyph-name="Uring" unicode="&#x16e;" horiz-adv-x="639" 
d="M328 723c-49 0 -89 39 -89 85c0 47 40 85 89 85s88 -38 88 -85c0 -46 -39 -85 -88 -85zM328 757c20 0 40 23 40 51c0 27 -20 52 -40 52c-22 0 -42 -25 -42 -52c0 -28 20 -51 42 -51zM599 621v-25c-25 -4 -45 -9 -45 -32v-310c0 -161 -85 -264 -231 -264
c-171 0 -259 103 -259 262v312c0 23 -19 28 -44 32v25h181v-25c-25 -4 -46 -9 -46 -32v-267c0 -190 62 -264 168 -264c87 0 173 54 173 216v315c0 23 -19 28 -47 32v25h150z" />
    <glyph glyph-name="V" unicode="V" horiz-adv-x="676" 
d="M656 621v-27c-41 -4 -51 -15 -68 -54l-233 -545h-12c-15 0 -25 7 -32 24l-215 496c-27 65 -43 75 -86 79v27h211v-27c-44 -4 -60 -11 -53 -28l190 -445l186 435c10 24 -18 34 -56 38v27h168z" />
    <glyph glyph-name="W" unicode="W" horiz-adv-x="945" 
d="M764 621h166v-27c-41 -7 -54 -18 -68 -57l-190 -542h-12c-15 0 -25 7 -32 24l-154 396l-137 -420h-11c-15 0 -25 7 -32 24l-193 493c-26 66 -43 75 -86 82v27h191v-27c-25 -7 -40 -14 -34 -31l166 -431l112 344l-14 36c-26 66 -43 75 -86 82v27h191v-27
c-25 -7 -38 -21 -34 -31l165 -431l145 421c8 24 -15 34 -53 41v27z" />
    <glyph glyph-name="Wacute" unicode="&#x1e82;" horiz-adv-x="945" 
d="M608 788l-143 -77c-10 -6 -17 -6 -23 2c-5 6 -2 15 8 23l113 110c22 22 44 18 56 -2c12 -21 12 -43 -11 -56zM764 621h166v-27c-41 -7 -54 -18 -68 -57l-190 -542h-12c-15 0 -25 7 -32 24l-154 396l-137 -420h-11c-15 0 -25 7 -32 24l-193 493c-26 66 -43 75 -86 82v27
h191v-27c-25 -7 -40 -14 -34 -31l166 -431l112 344l-14 36c-26 66 -43 75 -86 82v27h191v-27c-25 -7 -38 -21 -34 -31l165 -431l145 421c8 24 -15 34 -53 41v27z" />
    <glyph glyph-name="Wcircumflex" unicode="&#x174;" horiz-adv-x="945" 
d="M480 778l-103 -74h-46l149 154l149 -154h-45zM764 621h166v-27c-41 -7 -54 -18 -68 -57l-190 -542h-12c-15 0 -25 7 -32 24l-154 396l-137 -420h-11c-15 0 -25 7 -32 24l-193 493c-26 66 -43 75 -86 82v27h191v-27c-25 -7 -40 -14 -34 -31l166 -431l112 344l-14 36
c-26 66 -43 75 -86 82v27h191v-27c-25 -7 -38 -21 -34 -31l165 -431l145 421c8 24 -15 34 -53 41v27z" />
    <glyph glyph-name="Wdieresis" unicode="&#x1e84;" horiz-adv-x="945" 
d="M377 739c-28 0 -52 24 -52 52s24 52 52 52s52 -24 52 -52s-24 -52 -52 -52zM566 739c-28 0 -52 24 -52 52s24 52 52 52s52 -24 52 -52s-24 -52 -52 -52zM764 621h166v-27c-41 -7 -54 -18 -68 -57l-190 -542h-12c-15 0 -25 7 -32 24l-154 396l-137 -420h-11
c-15 0 -25 7 -32 24l-193 493c-26 66 -43 75 -86 82v27h191v-27c-25 -7 -40 -14 -34 -31l166 -431l112 344l-14 36c-26 66 -43 75 -86 82v27h191v-27c-25 -7 -38 -21 -34 -31l165 -431l145 421c8 24 -15 34 -53 41v27z" />
    <glyph glyph-name="Wgrave" unicode="&#x1e80;" horiz-adv-x="945" 
d="M518 711l-143 77c-23 13 -23 35 -11 56c12 20 34 24 56 2l113 -110c10 -8 13 -17 8 -23c-5 -8 -13 -8 -23 -2zM764 621h166v-27c-41 -7 -54 -18 -68 -57l-190 -542h-12c-15 0 -25 7 -32 24l-154 396l-137 -420h-11c-15 0 -25 7 -32 24l-193 493c-26 66 -43 75 -86 82v27
h191v-27c-25 -7 -40 -14 -34 -31l166 -431l112 344l-14 36c-26 66 -43 75 -86 82v27h191v-27c-25 -7 -38 -21 -34 -31l165 -431l145 421c8 24 -15 34 -53 41v27z" />
    <glyph glyph-name="X" unicode="X" horiz-adv-x="672" 
d="M375 329l171 -216c45 -58 51 -79 96 -83v-30h-201v30c29 4 54 15 41 32l-176 222l-155 -212c-17 -24 5 -38 44 -42v-30h-176v30c43 4 59 21 86 58l173 231l-153 193c-43 54 -50 77 -95 82v27h200v-27c-29 -5 -52 -17 -41 -31l160 -202l137 192c14 21 -12 36 -52 41v27
h173v-27c-43 -5 -59 -25 -81 -57z" />
    <glyph glyph-name="Y" unicode="Y" horiz-adv-x="622" 
d="M436 621h171v-27c-42 -5 -58 -23 -84 -59l-169 -237v-235c0 -23 37 -28 73 -33v-30h-226v30c36 5 74 10 74 33v210l-167 237c-40 57 -49 79 -93 84v27h199v-27c-29 -5 -48 -17 -37 -33l157 -223l150 213c16 24 -9 38 -48 43v27z" />
    <glyph glyph-name="Yacute" unicode="&#xdd;" horiz-adv-x="622" 
d="M461 788l-143 -77c-10 -6 -17 -6 -23 2c-5 6 -2 15 8 23l113 110c22 22 44 18 56 -2c12 -21 12 -43 -11 -56zM436 621h171v-27c-42 -5 -58 -23 -84 -59l-169 -237v-235c0 -23 37 -28 73 -33v-30h-226v30c36 5 74 10 74 33v210l-167 237c-40 57 -49 79 -93 84v27h199v-27
c-29 -5 -48 -17 -37 -33l157 -223l150 213c16 24 -9 38 -48 43v27z" />
    <glyph glyph-name="Ycircumflex" unicode="&#x176;" horiz-adv-x="622" 
d="M333 778l-103 -74h-46l149 154l149 -154h-45zM436 621h171v-27c-42 -5 -58 -23 -84 -59l-169 -237v-235c0 -23 37 -28 73 -33v-30h-226v30c36 5 74 10 74 33v210l-167 237c-40 57 -49 79 -93 84v27h199v-27c-29 -5 -48 -17 -37 -33l157 -223l150 213c16 24 -9 38 -48 43
v27z" />
    <glyph glyph-name="Ydieresis" unicode="&#x178;" horiz-adv-x="622" 
d="M231 739c-28 0 -52 24 -52 52s24 52 52 52s52 -24 52 -52s-24 -52 -52 -52zM420 739c-28 0 -52 24 -52 52s24 52 52 52s52 -24 52 -52s-24 -52 -52 -52zM436 621h171v-27c-42 -5 -58 -23 -84 -59l-169 -237v-235c0 -23 37 -28 73 -33v-30h-226v30c36 5 74 10 74 33v210
l-167 237c-40 57 -49 79 -93 84v27h199v-27c-29 -5 -48 -17 -37 -33l157 -223l150 213c16 24 -9 38 -48 43v27z" />
    <glyph glyph-name="Ygrave" unicode="&#x1ef2;" horiz-adv-x="622" 
d="M372 711l-143 77c-23 13 -23 35 -11 56c12 20 34 24 56 2l113 -110c10 -8 13 -17 8 -23c-5 -8 -13 -8 -23 -2zM436 621h171v-27c-42 -5 -58 -23 -84 -59l-169 -237v-235c0 -23 37 -28 73 -33v-30h-226v30c36 5 74 10 74 33v210l-167 237c-40 57 -49 79 -93 84v27h199v-27
c-29 -5 -48 -17 -37 -33l157 -223l150 213c16 24 -9 38 -48 43v27z" />
    <glyph glyph-name="Z" unicode="Z" horiz-adv-x="595" 
d="M555 114l-25 -114h-474c-27 0 -36 27 -19 49l383 531l-325 -4c-18 0 -23 -16 -27 -31l-10 -40h-33l20 116h506l-422 -581l346 5c19 0 25 14 32 31l15 38h33z" />
    <glyph glyph-name="Zacute" unicode="&#x179;" horiz-adv-x="595" 
d="M388 846l-113 -110c-10 -8 -13 -17 -8 -23c6 -8 13 -8 23 -2l143 77c23 13 23 35 11 56c-12 20 -34 24 -56 2zM555 114l-25 -114h-474c-27 0 -36 27 -19 49l383 531l-325 -4c-18 0 -23 -16 -27 -31l-10 -40h-33l20 116h506l-422 -581l346 5c19 0 25 14 32 31l15 38h33z
" />
    <glyph glyph-name="Zcaron" unicode="&#x17d;" horiz-adv-x="595" 
d="M290 703l-149 154h46l103 -74l104 74h45zM555 114l-25 -114h-474c-27 0 -36 27 -19 49l383 531l-325 -4c-18 0 -23 -16 -27 -31l-10 -40h-33l20 116h506l-422 -581l346 5c19 0 25 14 32 31l15 38h33z" />
    <glyph glyph-name="Zdotaccent" unicode="&#x17b;" horiz-adv-x="595" 
d="M292 740c-28 0 -53 24 -53 53c0 28 25 53 53 53c29 0 53 -25 53 -53c0 -29 -24 -53 -53 -53zM555 114l-25 -114h-474c-27 0 -36 27 -19 49l383 531l-325 -4c-18 0 -23 -16 -27 -31l-10 -40h-33l20 116h506l-422 -581l346 5c19 0 25 14 32 31l15 38h33z" />
    <glyph glyph-name="a" unicode="a" horiz-adv-x="471" 
d="M396 297v-215c0 -36 17 -43 55 -36v-31c-26 -16 -52 -23 -70 -23c-29 0 -53 35 -60 100c-23 -48 -74 -101 -149 -102c-78 -1 -153 39 -153 121c0 77 52 133 298 167v12c0 87 -24 133 -94 133c-61 0 -90 -15 -90 -85c0 -19 -28 -27 -50 -27c-24 0 -38 16 -39 39
c0 74 87 110 183 110c111 0 169 -61 169 -163zM190 35c75 0 106 68 127 98v113c-189 -27 -213 -80 -213 -132c0 -46 32 -79 86 -79z" />
    <glyph glyph-name="aacute" unicode="&#xe1;" horiz-adv-x="471" 
d="M313 676l-113 -110c-10 -8 -13 -17 -8 -23c6 -8 13 -8 23 -2l143 77c23 13 23 35 11 56c-12 20 -34 24 -56 2zM396 297v-215c0 -36 17 -43 55 -36v-31c-26 -16 -52 -23 -70 -23c-29 0 -53 35 -60 100c-23 -48 -74 -101 -149 -102c-78 -1 -153 39 -153 121
c0 77 52 133 298 167v12c0 87 -24 133 -94 133c-61 0 -90 -15 -90 -85c0 -19 -28 -27 -50 -27c-24 0 -38 16 -39 39c0 74 87 110 183 110c111 0 169 -61 169 -163zM190 35c75 0 106 68 127 98v113c-189 -27 -213 -80 -213 -132c0 -46 32 -79 86 -79z" />
    <glyph glyph-name="abreve" unicode="&#x103;" horiz-adv-x="471" 
d="M224 557c-80 0 -130 60 -134 123c0 8 5 11 10 11h14c7 0 10 -3 11 -11c4 -29 36 -61 99 -61s96 32 100 61c1 8 4 11 11 11h14c5 0 10 -3 10 -11c-4 -63 -55 -123 -135 -123zM396 297v-215c0 -36 17 -43 55 -36v-31c-26 -16 -52 -23 -70 -23c-29 0 -53 35 -60 100
c-23 -48 -74 -101 -149 -102c-78 -1 -153 39 -153 121c0 77 52 133 298 167v12c0 87 -24 133 -94 133c-61 0 -90 -15 -90 -85c0 -19 -28 -27 -50 -27c-24 0 -38 16 -39 39c0 74 87 110 183 110c111 0 169 -61 169 -163zM190 35c75 0 106 68 127 98v113
c-189 -27 -213 -80 -213 -132c0 -46 32 -79 86 -79z" />
    <glyph glyph-name="acircumflex" unicode="&#xe2;" horiz-adv-x="471" 
d="M230 688l149 -154h-45l-104 74l-103 -74h-46zM396 297v-215c0 -36 17 -43 55 -36v-31c-26 -16 -52 -23 -70 -23c-29 0 -53 35 -60 100c-23 -48 -74 -101 -149 -102c-78 -1 -153 39 -153 121c0 77 52 133 298 167v12c0 87 -24 133 -94 133c-61 0 -90 -15 -90 -85
c0 -19 -28 -27 -50 -27c-24 0 -38 16 -39 39c0 74 87 110 183 110c111 0 169 -61 169 -163zM190 35c75 0 106 68 127 98v113c-189 -27 -213 -80 -213 -132c0 -46 32 -79 86 -79z" />
    <glyph glyph-name="adieresis" unicode="&#xe4;" horiz-adv-x="471" 
d="M128 569c-28 0 -52 24 -52 52s24 52 52 52s52 -24 52 -52s-24 -52 -52 -52zM317 569c-28 0 -52 24 -52 52s24 52 52 52s52 -24 52 -52s-24 -52 -52 -52zM396 297v-215c0 -36 17 -43 55 -36v-31c-26 -16 -52 -23 -70 -23c-29 0 -53 35 -60 100c-23 -48 -74 -101 -149 -102
c-78 -1 -153 39 -153 121c0 77 52 133 298 167v12c0 87 -24 133 -94 133c-61 0 -90 -15 -90 -85c0 -19 -28 -27 -50 -27c-24 0 -38 16 -39 39c0 74 87 110 183 110c111 0 169 -61 169 -163zM190 35c75 0 106 68 127 98v113c-189 -27 -213 -80 -213 -132c0 -46 32 -79 86 -79
z" />
    <glyph glyph-name="agrave" unicode="&#xe0;" horiz-adv-x="471" 
d="M284 566l-113 110c-22 22 -44 18 -56 -2c-12 -21 -12 -43 11 -56l143 -77c10 -6 18 -6 23 2c5 6 2 15 -8 23zM396 297v-215c0 -36 17 -43 55 -36v-31c-26 -16 -52 -23 -70 -23c-29 0 -53 35 -60 100c-23 -48 -74 -101 -149 -102c-78 -1 -153 39 -153 121
c0 77 52 133 298 167v12c0 87 -24 133 -94 133c-61 0 -90 -15 -90 -85c0 -19 -28 -27 -50 -27c-24 0 -38 16 -39 39c0 74 87 110 183 110c111 0 169 -61 169 -163zM190 35c75 0 106 68 127 98v113c-189 -27 -213 -80 -213 -132c0 -46 32 -79 86 -79z" />
    <glyph glyph-name="amacron" unicode="&#x101;" horiz-adv-x="471" 
d="M67 604v11c0 12 7 17 20 17h283c13 0 20 -5 20 -17v-11c0 -12 -7 -17 -20 -17h-283c-13 0 -20 5 -20 17zM396 297v-215c0 -36 17 -43 55 -36v-31c-26 -16 -52 -23 -70 -23c-29 0 -53 35 -60 100c-23 -48 -74 -101 -149 -102c-78 -1 -153 39 -153 121c0 77 52 133 298 167
v12c0 87 -24 133 -94 133c-61 0 -90 -15 -90 -85c0 -19 -28 -27 -50 -27c-24 0 -38 16 -39 39c0 74 87 110 183 110c111 0 169 -61 169 -163zM190 35c75 0 106 68 127 98v113c-189 -27 -213 -80 -213 -132c0 -46 32 -79 86 -79z" />
    <glyph glyph-name="aogonek" unicode="&#x105;" horiz-adv-x="482" 
d="M437 -98h25c-11 -32 -51 -98 -127 -98c-46 0 -94 21 -94 83c0 54 53 93 116 114c-17 14 -31 45 -36 91c-23 -48 -74 -101 -149 -102c-78 -1 -153 39 -153 121c0 77 52 133 298 167v12c0 87 -24 133 -94 133c-61 0 -90 -15 -90 -85c0 -19 -28 -27 -50 -27
c-24 0 -38 16 -39 39c0 74 87 110 183 110c111 0 169 -61 169 -163v-215c0 -36 17 -43 55 -36v-31c-11 -7 -22 -12 -33 -16v-3c-69 -21 -103 -57 -103 -96c0 -38 23 -55 50 -55c34 0 58 26 72 57zM317 133v113c-189 -27 -213 -80 -213 -132c0 -46 32 -79 86 -79
c75 0 106 68 127 98z" />
    <glyph glyph-name="aring" unicode="&#xe5;" horiz-adv-x="471" 
d="M227 553c-49 0 -89 39 -89 85c0 47 40 85 89 85s88 -38 88 -85c0 -46 -39 -85 -88 -85zM227 587c20 0 40 23 40 51c0 27 -20 52 -40 52c-22 0 -42 -25 -42 -52c0 -28 20 -51 42 -51zM396 297v-215c0 -36 17 -43 55 -36v-31c-26 -16 -52 -23 -70 -23c-29 0 -53 35 -60 100
c-23 -48 -74 -101 -149 -102c-78 -1 -153 39 -153 121c0 77 52 133 298 167v12c0 87 -24 133 -94 133c-61 0 -90 -15 -90 -85c0 -19 -28 -27 -50 -27c-24 0 -38 16 -39 39c0 74 87 110 183 110c111 0 169 -61 169 -163zM190 35c75 0 106 68 127 98v113
c-189 -27 -213 -80 -213 -132c0 -46 32 -79 86 -79z" />
    <glyph glyph-name="atilde" unicode="&#xe3;" horiz-adv-x="471" 
d="M374 647h30c-9 -63 -55 -100 -116 -100c-64 0 -104 68 -150 68c-42 0 -63 -31 -63 -48h-23c-12 59 50 96 102 96c67 0 91 -58 153 -58c34 0 67 28 67 42zM396 297v-215c0 -36 17 -43 55 -36v-31c-26 -16 -52 -23 -70 -23c-29 0 -53 35 -60 100
c-23 -48 -74 -101 -149 -102c-78 -1 -153 39 -153 121c0 77 52 133 298 167v12c0 87 -24 133 -94 133c-61 0 -90 -15 -90 -85c0 -19 -28 -27 -50 -27c-24 0 -38 16 -39 39c0 74 87 110 183 110c111 0 169 -61 169 -163zM190 35c75 0 106 68 127 98v113
c-189 -27 -213 -80 -213 -132c0 -46 32 -79 86 -79z" />
    <glyph glyph-name="ae" unicode="&#xe6;" horiz-adv-x="763" 
d="M559 36c71 0 107 42 131 74l27 -35c-25 -33 -66 -85 -174 -85c-74 0 -138 37 -177 96c-39 -64 -108 -92 -187 -93c-75 -1 -149 40 -149 118c0 74 51 133 294 167v12c0 109 -44 148 -157 121c-30 -6 -17 -43 -24 -73c-5 -19 -29 -31 -57 -26c-26 5 -37 25 -28 61
c11 46 82 79 147 84c88 8 146 -15 176 -64c38 43 93 65 153 65c100 0 194 -71 194 -183c0 -38 -19 -52 -56 -52h-259c0 -113 70 -187 146 -187zM534 420c-77 0 -121 -66 -121 -156h231c1 90 -38 156 -110 156zM324 133v114c-183 -28 -210 -92 -210 -137c0 -42 34 -73 84 -73
c74 0 105 53 126 96z" />
    <glyph glyph-name="b" unicode="b" horiz-adv-x="520" 
d="M297 462c112 0 183 -87 183 -235c0 -150 -88 -235 -186 -235c-88 0 -138 58 -151 93l-40 -83c-9 -20 -33 -10 -33 5v564c0 23 -7 33 -27 33h-28v33l111 20c16 3 24 -4 24 -19v-156c0 -36 -4 -78 -16 -124l17 22c26 30 68 82 146 82zM283 32c73 0 116 58 116 182
c0 97 -37 191 -115 191c-71 0 -99 -25 -133 -69v-196c19 -53 62 -108 132 -108z" />
    <glyph glyph-name="c" unicode="c" horiz-adv-x="454" 
d="M392 105l19 -19c-19 -37 -68 -94 -186 -94c-108 0 -200 95 -200 234c0 151 96 234 206 234c117 0 175 -64 175 -128c0 -18 -15 -35 -43 -35c-26 0 -44 10 -44 32c0 57 3 90 -76 90c-99 0 -134 -48 -134 -173c0 -103 60 -204 157 -205c71 0 80 29 106 62c6 10 14 9 20 2z
" />
    <glyph glyph-name="cacute" unicode="&#x107;" horiz-adv-x="454" 
d="M326 676l-113 -110c-10 -8 -13 -17 -8 -23c6 -8 13 -8 23 -2l143 77c23 13 23 35 11 56c-12 20 -34 24 -56 2zM392 105l19 -19c-19 -37 -68 -94 -186 -94c-108 0 -200 95 -200 234c0 151 96 234 206 234c117 0 175 -64 175 -128c0 -18 -15 -35 -43 -35
c-26 0 -44 10 -44 32c0 57 3 90 -76 90c-99 0 -134 -48 -134 -173c0 -103 60 -204 157 -205c71 0 80 29 106 62c6 10 14 9 20 2z" />
    <glyph glyph-name="ccaron" unicode="&#x10d;" horiz-adv-x="454" 
d="M228 533l-149 154h46l103 -74l104 74h45zM392 105l19 -19c-19 -37 -68 -94 -186 -94c-108 0 -200 95 -200 234c0 151 96 234 206 234c117 0 175 -64 175 -128c0 -18 -15 -35 -43 -35c-26 0 -44 10 -44 32c0 57 3 90 -76 90c-99 0 -134 -48 -134 -173
c0 -103 60 -204 157 -205c71 0 80 29 106 62c6 10 14 9 20 2z" />
    <glyph glyph-name="ccedilla" unicode="&#xe7;" horiz-adv-x="454" 
d="M392 105l19 -19c-17 -33 -59 -83 -153 -92l-19 -42c53 14 117 -24 106 -88c-10 -59 -66 -75 -123 -72c-54 3 -88 28 -94 60c-6 31 29 52 57 26c4 -22 7 -54 41 -56c35 -2 58 17 63 48c5 32 -17 55 -57 51c-17 -2 -30 -5 -37 -6c-16 -3 -23 14 -16 26c10 16 18 34 26 52
c-99 11 -180 103 -180 233c0 151 96 234 206 234c117 0 175 -64 175 -128c0 -18 -15 -35 -43 -35c-26 0 -44 10 -44 32c0 57 3 90 -76 90c-99 0 -134 -48 -134 -173c0 -103 60 -204 157 -205c71 0 80 29 106 62c6 10 14 9 20 2z" />
    <glyph glyph-name="cdotaccent" unicode="&#x10b;" horiz-adv-x="454" 
d="M230 570c-28 0 -53 24 -53 53c0 28 25 53 53 53c29 0 53 -25 53 -53c0 -29 -24 -53 -53 -53zM392 105l19 -19c-19 -37 -68 -94 -186 -94c-108 0 -200 95 -200 234c0 151 96 234 206 234c117 0 175 -64 175 -128c0 -18 -15 -35 -43 -35c-26 0 -44 10 -44 32
c0 57 3 90 -76 90c-99 0 -134 -48 -134 -173c0 -103 60 -204 157 -205c71 0 80 29 106 62c6 10 14 9 20 2z" />
    <glyph glyph-name="d" unicode="d" horiz-adv-x="530" 
d="M449 582v-489c0 -35 17 -42 56 -36v-33l-63 -24c-29 -8 -64 20 -73 92c-16 -29 -51 -100 -140 -100c-98 0 -194 86 -194 225c0 128 73 239 182 239c85 0 119 -38 152 -68v171c0 33 -17 45 -55 44v34l106 19c37 6 30 -30 29 -74zM369 144v193c-37 55 -80 79 -132 79
c-76 0 -120 -80 -120 -186c0 -101 59 -187 133 -187c69 0 101 53 119 101z" />
    <glyph glyph-name="eth" unicode="&#xf0;" horiz-adv-x="543" 
d="M503 581l-95 -27c14 -29 23 -66 23 -115v-107c0 -227 -63 -338 -213 -338c-123 0 -188 77 -188 237c0 150 64 231 159 231c80 0 134 -53 159 -78v87c0 26 -2 47 -5 65l-97 -27l-10 32l98 28c-18 45 -52 52 -92 55l-31 2v31c25 -1 123 3 179 -73l103 29zM218 34
c114 0 130 117 130 278c0 22 -46 107 -145 107c-61 0 -95 -64 -95 -188c0 -137 35 -197 110 -197z" />
    <glyph glyph-name="dcaron" unicode="&#x10f;" horiz-adv-x="626" 
d="M449 582v-489c0 -35 17 -42 56 -36v-33l-63 -24c-29 -8 -64 20 -73 92c-16 -29 -51 -100 -140 -100c-98 0 -194 86 -194 225c0 128 73 239 182 239c85 0 119 -38 152 -68v171c0 33 -17 45 -55 44v34l106 19c37 6 30 -30 29 -74zM613 603c4 -27 5 -45 -3 -75
c-9 -29 -27 -53 -49 -72c-5 -4 -10 -3 -16 2l-13 14c15 16 27 31 32 46c6 15 7 27 4 34c-7 -2 -13 -3 -25 -2c-26 4 -46 29 -42 57c4 32 31 53 61 49c29 -4 46 -30 51 -53zM369 144v193c-37 55 -80 79 -132 79c-76 0 -120 -80 -120 -186c0 -101 59 -187 133 -187
c69 0 101 53 119 101z" />
    <glyph glyph-name="dcroat" unicode="&#x111;" horiz-adv-x="552" 
d="M449 519h59c13 0 20 -5 20 -17v-11c0 -12 -7 -17 -20 -17h-59v-381c0 -35 17 -42 56 -36v-33l-63 -24c-29 -8 -64 20 -73 92c-16 -29 -51 -100 -140 -100c-98 0 -194 86 -194 225c0 128 73 239 182 239c85 0 119 -38 152 -68v86h-144c-13 0 -20 5 -20 17v11
c0 12 7 17 20 17h144v40c0 33 -17 45 -55 44v34l106 19c37 6 30 -30 29 -74v-63zM369 144v193c-37 55 -80 79 -132 79c-76 0 -120 -80 -120 -186c0 -101 59 -187 133 -187c69 0 101 53 119 101z" />
    <glyph glyph-name="e" unicode="e" 
d="M433 275c0 -38 -19 -52 -56 -52h-259c0 -113 70 -187 146 -187c71 0 107 42 131 74l27 -35c-25 -33 -66 -85 -174 -85c-123 0 -218 101 -218 240c0 147 94 228 209 228c100 0 194 -71 194 -183zM118 264h231c1 90 -38 156 -110 156c-77 0 -121 -66 -121 -156z" />
    <glyph glyph-name="eacute" unicode="&#xe9;" 
d="M321 676l-113 -110c-10 -8 -13 -17 -8 -23c6 -8 13 -8 23 -2l143 77c23 13 23 35 11 56c-12 20 -34 24 -56 2zM433 275c0 -38 -19 -52 -56 -52h-259c0 -113 70 -187 146 -187c71 0 107 42 131 74l27 -35c-25 -33 -66 -85 -174 -85c-123 0 -218 101 -218 240
c0 147 94 228 209 228c100 0 194 -71 194 -183zM118 264h231c1 90 -38 156 -110 156c-77 0 -121 -66 -121 -156z" />
    <glyph glyph-name="ecaron" unicode="&#x11b;" 
d="M223 533l-149 154h46l103 -74l104 74h45zM433 275c0 -38 -19 -52 -56 -52h-259c0 -113 70 -187 146 -187c71 0 107 42 131 74l27 -35c-25 -33 -66 -85 -174 -85c-123 0 -218 101 -218 240c0 147 94 228 209 228c100 0 194 -71 194 -183zM118 264h231
c1 90 -38 156 -110 156c-77 0 -121 -66 -121 -156z" />
    <glyph glyph-name="ecircumflex" unicode="&#xea;" 
d="M238 688l149 -154h-45l-104 74l-103 -74h-46zM433 275c0 -38 -19 -52 -56 -52h-259c0 -113 70 -187 146 -187c71 0 107 42 131 74l27 -35c-25 -33 -66 -85 -174 -85c-123 0 -218 101 -218 240c0 147 94 228 209 228c100 0 194 -71 194 -183zM118 264h231
c1 90 -38 156 -110 156c-77 0 -121 -66 -121 -156z" />
    <glyph glyph-name="edieresis" unicode="&#xeb;" 
d="M136 569c-28 0 -52 24 -52 52s24 52 52 52s52 -24 52 -52s-24 -52 -52 -52zM325 569c-28 0 -52 24 -52 52s24 52 52 52s52 -24 52 -52s-24 -52 -52 -52zM433 275c0 -38 -19 -52 -56 -52h-259c0 -113 70 -187 146 -187c71 0 107 42 131 74l27 -35
c-25 -33 -66 -85 -174 -85c-123 0 -218 101 -218 240c0 147 94 228 209 228c100 0 194 -71 194 -183zM118 264h231c1 90 -38 156 -110 156c-77 0 -121 -66 -121 -156z" />
    <glyph glyph-name="edotaccent" unicode="&#x117;" 
d="M225 570c-28 0 -53 24 -53 53c0 28 25 53 53 53c29 0 53 -25 53 -53c0 -29 -24 -53 -53 -53zM433 275c0 -38 -19 -52 -56 -52h-259c0 -113 70 -187 146 -187c71 0 107 42 131 74l27 -35c-25 -33 -66 -85 -174 -85c-123 0 -218 101 -218 240c0 147 94 228 209 228
c100 0 194 -71 194 -183zM118 264h231c1 90 -38 156 -110 156c-77 0 -121 -66 -121 -156z" />
    <glyph glyph-name="egrave" unicode="&#xe8;" 
d="M292 566l-113 110c-22 22 -44 18 -56 -2c-12 -21 -12 -43 11 -56l143 -77c10 -6 18 -6 23 2c5 6 2 15 -8 23zM433 275c0 -38 -19 -52 -56 -52h-259c0 -113 70 -187 146 -187c71 0 107 42 131 74l27 -35c-25 -33 -66 -85 -174 -85c-123 0 -218 101 -218 240
c0 147 94 228 209 228c100 0 194 -71 194 -183zM118 264h231c1 90 -38 156 -110 156c-77 0 -121 -66 -121 -156z" />
    <glyph glyph-name="emacron" unicode="&#x113;" 
d="M75 604v11c0 12 7 17 20 17h283c13 0 20 -5 20 -17v-11c0 -12 -7 -17 -20 -17h-283c-13 0 -20 5 -20 17zM433 275c0 -38 -19 -52 -56 -52h-259c0 -113 70 -187 146 -187c71 0 107 42 131 74l27 -35c-25 -33 -66 -85 -174 -85c-123 0 -218 101 -218 240
c0 147 94 228 209 228c100 0 194 -71 194 -183zM118 264h231c1 90 -38 156 -110 156c-77 0 -121 -66 -121 -156z" />
    <glyph glyph-name="eogonek" unicode="&#x119;" 
d="M264 36c71 0 107 42 131 74l27 -35c-16 -21 -39 -50 -82 -68c-61 -32 -96 -68 -96 -108c0 -38 23 -54 51 -54c34 0 57 26 71 57h26c-12 -32 -49 -98 -129 -98c-41 0 -92 20 -92 82c0 44 33 79 79 104h-2c-123 0 -218 101 -218 240c0 147 94 228 209 228
c100 0 194 -71 194 -183c0 -38 -19 -52 -56 -52h-259c0 -113 70 -187 146 -187zM239 420c-77 0 -121 -66 -121 -156h231c1 90 -38 156 -110 156z" />
    <glyph glyph-name="etilde" unicode="&#x1ebd;" 
d="M382 647h30c-9 -63 -55 -100 -116 -100c-64 0 -104 68 -150 68c-42 0 -63 -31 -63 -48h-23c-12 59 50 96 102 96c67 0 91 -58 153 -58c34 0 67 28 67 42zM433 275c0 -38 -19 -52 -56 -52h-259c0 -113 70 -187 146 -187c71 0 107 42 131 74l27 -35
c-25 -33 -66 -85 -174 -85c-123 0 -218 101 -218 240c0 147 94 228 209 228c100 0 194 -71 194 -183zM118 264h231c1 90 -38 156 -110 156c-77 0 -121 -66 -121 -156z" />
    <glyph glyph-name="f" unicode="f" horiz-adv-x="395" 
d="M401 598c13 -15 18 -40 -1 -54c-18 -15 -42 -11 -51 6c-16 33 -36 77 -86 77c-62 0 -85 -50 -85 -113v-57h152c-13 -39 -15 -43 -34 -43h-118v-362c0 -23 8 -28 52 -28v-24h-179v24c38 0 46 5 46 28v362h-58c-6 0 -10 4 -10 10v33h68v41c0 104 54 169 149 169
c91 0 132 -37 155 -69z" />
    <glyph glyph-name="g" unicode="g" horiz-adv-x="533" 
d="M469 458c18 0 39 -15 39 -39c0 -28 -18 -43 -37 -37c-31 9 -48 -2 -48 -72c0 -78 -61 -144 -183 -144c-23 0 -47 4 -68 11c-94 10 -97 -70 7 -86l102 -17c136 -20 193 -46 193 -134c0 -99 -92 -160 -239 -160c-129 0 -210 47 -210 127c0 71 61 107 114 120
c-155 29 -148 187 -11 172c-40 26 -67 67 -67 116c0 81 53 143 184 143c75 0 133 -35 145 -68c4 43 32 68 79 68zM241 203c90 0 101 65 101 113c0 51 -8 104 -102 104c-80 0 -97 -52 -97 -104c0 -42 5 -113 98 -113zM305 3l-131 20c-48 -12 -64 -72 -64 -109
c0 -61 38 -99 125 -99c120 0 162 23 162 111c0 53 -29 66 -92 77z" />
    <glyph glyph-name="gbreve" unicode="&#x11f;" horiz-adv-x="533" 
d="M270 557c-80 0 -130 60 -134 123c0 8 5 11 10 11h14c7 0 10 -3 11 -11c4 -29 36 -61 99 -61s96 32 100 61c1 8 4 11 11 11h14c5 0 10 -3 10 -11c-4 -63 -55 -123 -135 -123zM469 458c18 0 39 -15 39 -39c0 -28 -18 -43 -37 -37c-31 9 -48 -2 -48 -72
c0 -78 -61 -144 -183 -144c-23 0 -47 4 -68 11c-94 10 -97 -70 7 -86l102 -17c136 -20 193 -46 193 -134c0 -99 -92 -160 -239 -160c-129 0 -210 47 -210 127c0 71 61 107 114 120c-155 29 -148 187 -11 172c-40 26 -67 67 -67 116c0 81 53 143 184 143
c75 0 133 -35 145 -68c4 43 32 68 79 68zM241 203c90 0 101 65 101 113c0 51 -8 104 -102 104c-80 0 -97 -52 -97 -104c0 -42 5 -113 98 -113zM305 3l-131 20c-48 -12 -64 -72 -64 -109c0 -61 38 -99 125 -99c120 0 162 23 162 111c0 53 -29 66 -92 77z" />
    <glyph glyph-name="gcommaaccent" unicode="&#x123;" horiz-adv-x="533" 
d="M236 548c-29 4 -46 29 -51 53c-5 27 -6 45 3 75c8 28 27 53 48 72c6 3 11 3 16 -2l14 -14c-16 -17 -27 -31 -33 -46s-7 -27 -3 -34c6 2 12 3 25 2c26 -4 45 -29 42 -58c-4 -31 -32 -52 -61 -48zM469 458c18 0 39 -15 39 -39c0 -28 -18 -43 -37 -37c-31 9 -48 -2 -48 -72
c0 -78 -61 -144 -183 -144c-23 0 -47 4 -68 11c-94 10 -97 -70 7 -86l102 -17c136 -20 193 -46 193 -134c0 -99 -92 -160 -239 -160c-129 0 -210 47 -210 127c0 71 61 107 114 120c-155 29 -148 187 -11 172c-40 26 -67 67 -67 116c0 81 53 143 184 143
c75 0 133 -35 145 -68c4 43 32 68 79 68zM241 203c90 0 101 65 101 113c0 51 -8 104 -102 104c-80 0 -97 -52 -97 -104c0 -42 5 -113 98 -113zM305 3l-131 20c-48 -12 -64 -72 -64 -109c0 -61 38 -99 125 -99c120 0 162 23 162 111c0 53 -29 66 -92 77z" />
    <glyph glyph-name="gdotaccent" unicode="&#x121;" horiz-adv-x="533" 
d="M263 570c-28 0 -53 24 -53 53c0 28 25 53 53 53c29 0 53 -25 53 -53c0 -29 -24 -53 -53 -53zM469 458c18 0 39 -15 39 -39c0 -28 -18 -43 -37 -37c-31 9 -48 -2 -48 -72c0 -78 -61 -144 -183 -144c-23 0 -47 4 -68 11c-94 10 -97 -70 7 -86l102 -17
c136 -20 193 -46 193 -134c0 -99 -92 -160 -239 -160c-129 0 -210 47 -210 127c0 71 61 107 114 120c-155 29 -148 187 -11 172c-40 26 -67 67 -67 116c0 81 53 143 184 143c75 0 133 -35 145 -68c4 43 32 68 79 68zM241 203c90 0 101 65 101 113c0 51 -8 104 -102 104
c-80 0 -97 -52 -97 -104c0 -42 5 -113 98 -113zM305 3l-131 20c-48 -12 -64 -72 -64 -109c0 -61 38 -99 125 -99c120 0 162 23 162 111c0 53 -29 66 -92 77z" />
    <glyph glyph-name="h" unicode="h" horiz-adv-x="548" 
d="M474 286v-202c0 -33 9 -57 60 -45l-13 -31c-20 -9 -35 -8 -54 -8c-47 0 -76 33 -76 72v220c0 71 -19 117 -81 117c-70 0 -133 -62 -152 -84v-272c0 -23 16 -28 50 -28v-25h-182v25c32 0 47 5 47 28v509c0 33 -21 44 -59 39v36l110 20c37 6 30 -30 30 -74v-203l-4 -30
c18 31 82 110 182 110c93 0 142 -37 142 -174z" />
    <glyph glyph-name="hbar" unicode="&#x127;" horiz-adv-x="548" 
d="M474 286v-202c0 -33 9 -57 60 -45l-13 -31c-20 -9 -35 -8 -54 -8c-47 0 -76 33 -76 72v220c0 71 -19 117 -81 117c-70 0 -133 -62 -152 -84v-272c0 -23 16 -28 50 -28v-25h-182v25c32 0 47 5 47 28v451h-57v41h57v17c0 33 -21 44 -59 39v36l110 20c37 6 30 -30 30 -74
v-38h189v-41h-189v-124l-4 -30c18 31 82 110 182 110c93 0 142 -37 142 -174z" />
    <glyph glyph-name="i" unicode="i" horiz-adv-x="250" 
d="M125 572c-26 0 -49 22 -49 49c0 26 23 48 49 48s49 -22 49 -48c0 -27 -23 -49 -49 -49zM167 425v-372c0 -23 17 -28 43 -28v-25h-165v25c27 0 44 5 44 28v325c0 23 -8 31 -28 31h-20v38l94 9c23 2 32 -9 32 -31z" />
    <glyph glyph-name="dotlessi" unicode="&#x131;" horiz-adv-x="244" 
d="M161 425v-372c0 -23 17 -28 43 -28v-25h-165v25c27 0 44 5 44 28v325c0 23 -8 31 -28 31h-20v38l94 9c23 2 32 -9 32 -31z" />
    <glyph glyph-name="iacute" unicode="&#xed;" horiz-adv-x="244" 
d="M199 676l-113 -110c-10 -8 -13 -17 -8 -23c6 -8 13 -8 23 -2l143 77c23 13 23 35 11 56c-12 20 -34 24 -56 2zM161 425v-372c0 -23 17 -28 43 -28v-25h-165v25c27 0 44 5 44 28v325c0 23 -8 31 -28 31h-20v38l94 9c23 2 32 -9 32 -31z" />
    <glyph glyph-name="icircumflex" unicode="&#xee;" horiz-adv-x="244" 
d="M115 688l149 -154h-45l-104 74l-103 -74h-46zM161 425v-372c0 -23 17 -28 43 -28v-25h-165v25c27 0 44 5 44 28v325c0 23 -8 31 -28 31h-20v38l94 9c23 2 32 -9 32 -31z" />
    <glyph glyph-name="idieresis" unicode="&#xef;" horiz-adv-x="244" 
d="M13 569c-28 0 -52 24 -52 52s24 52 52 52s52 -24 52 -52s-24 -52 -52 -52zM202 569c-28 0 -52 24 -52 52s24 52 52 52s52 -24 52 -52s-24 -52 -52 -52zM161 425v-372c0 -23 17 -28 43 -28v-25h-165v25c27 0 44 5 44 28v325c0 23 -8 31 -28 31h-20v38l94 9
c23 2 32 -9 32 -31z" />
    <glyph glyph-name="i.loclTRK" horiz-adv-x="244" 
d="M108 570c-28 0 -53 24 -53 53c0 28 25 53 53 53c29 0 53 -25 53 -53c0 -29 -24 -53 -53 -53zM161 425v-372c0 -23 17 -28 43 -28v-25h-165v25c27 0 44 5 44 28v325c0 23 -8 31 -28 31h-20v38l94 9c23 2 32 -9 32 -31z" />
    <glyph glyph-name="igrave" unicode="&#xec;" horiz-adv-x="244" 
d="M169 566l-113 110c-22 22 -44 18 -56 -2c-12 -21 -12 -43 11 -56l143 -77c10 -6 18 -6 23 2c5 6 2 15 -8 23zM161 425v-372c0 -23 17 -28 43 -28v-25h-165v25c27 0 44 5 44 28v325c0 23 -8 31 -28 31h-20v38l94 9c23 2 32 -9 32 -31z" />
    <glyph glyph-name="ij" unicode="&#x133;" horiz-adv-x="469" 
d="M125 572c-26 0 -49 22 -49 49c0 26 23 48 49 48s49 -22 49 -48c0 -27 -23 -49 -49 -49zM361 572c-26 0 -49 22 -49 49c0 26 23 48 49 48s49 -22 49 -48c0 -27 -23 -49 -49 -49zM167 425v-372c0 -23 17 -28 43 -28v-25h-165v25c27 0 44 5 44 28v325c0 23 -8 31 -28 31h-20
v38l94 9c23 2 32 -9 32 -31zM278 447l93 9c23 2 32 -9 32 -31v-499c0 -68 -20 -108 -70 -129c-62 -26 -124 -5 -133 38c-4 22 1 43 18 51c17 9 37 6 45 -4c6 -5 22 -56 39 -49c14 6 24 23 24 50v495c0 23 -8 31 -28 31h-20v38z" />
    <glyph glyph-name="imacron" unicode="&#x12b;" horiz-adv-x="244" 
d="M-48 604v11c0 12 7 17 20 17h283c13 0 20 -5 20 -17v-11c0 -12 -7 -17 -20 -17h-283c-13 0 -20 5 -20 17zM161 425v-372c0 -23 17 -28 43 -28v-25h-165v25c27 0 44 5 44 28v325c0 23 -8 31 -28 31h-20v38l94 9c23 2 32 -9 32 -31z" />
    <glyph glyph-name="iogonek" unicode="&#x12f;" horiz-adv-x="244" 
d="M102 570c-28 0 -53 24 -53 53c0 28 25 53 53 53c29 0 53 -25 53 -53c0 -29 -24 -53 -53 -53zM199 -111h25c-12 -32 -44 -95 -127 -95c-49 0 -106 27 -106 84c0 62 61 103 109 122h-61v25c27 0 44 5 44 28v325c0 23 -8 31 -28 31h-20v38l94 9c23 2 32 -9 32 -31v-372
c0 -23 17 -28 43 -28v-25h-65c-61 -41 -74 -80 -74 -112c0 -33 27 -53 54 -53c46 0 66 23 80 54z" />
    <glyph glyph-name="j" unicode="j" horiz-adv-x="219" 
d="M111 572c-26 0 -49 22 -49 49c0 26 23 48 49 48s49 -22 49 -48c0 -27 -23 -49 -49 -49zM28 447l93 9c23 2 32 -9 32 -31v-499c0 -68 -20 -108 -70 -129c-62 -26 -124 -5 -133 38c-5 22 1 43 17 51c18 9 38 6 46 -4c6 -5 22 -56 39 -49c14 6 24 23 24 50v495
c0 23 -8 31 -28 31h-20v38z" />
    <glyph glyph-name="dotlessj" unicode="&#x237;" horiz-adv-x="212" 
d="M28 447l93 9c23 2 32 -9 32 -31v-499c0 -68 -20 -108 -70 -129c-62 -26 -124 -5 -133 38c-5 22 1 43 17 51c18 9 38 6 46 -4c6 -5 22 -56 39 -49c14 6 24 23 24 50v495c0 23 -8 31 -28 31h-20v38z" />
    <glyph glyph-name="k" unicode="k" horiz-adv-x="519" 
d="M225 264l208 -215c20 -20 27 -25 56 -25v-24h-166v24c36 0 35 12 28 19l-196 197v-188c0 -23 15 -28 32 -28v-24h-148v24c19 0 36 5 36 28v536c0 24 -8 33 -28 33h-27v31l111 15c15 2 24 -4 24 -19v-390l175 137c13 11 13 27 -28 27v29h159v-29c-36 0 -46 -7 -61 -20z
" />
    <glyph glyph-name="kcommaaccent" unicode="&#x137;" horiz-adv-x="519" 
d="M225 264l208 -215c20 -20 27 -25 56 -25v-24h-166v24c36 0 35 12 28 19l-196 197v-188c0 -23 15 -28 32 -28v-24h-148v24c19 0 36 5 36 28v536c0 24 -8 33 -28 33h-27v31l111 15c15 2 24 -4 24 -19v-390l175 137c13 11 13 27 -28 27v29h159v-29c-36 0 -46 -7 -61 -20z
M267 -95c29 -4 46 -29 51 -53c5 -26 6 -44 -3 -75c-8 -28 -27 -52 -49 -71c-5 -4 -10 -4 -16 2l-13 14c15 16 27 30 33 45c5 15 6 28 3 34c-6 -2 -13 -3 -25 -2c-26 4 -46 29 -42 58c4 31 31 52 61 48z" />
    <glyph glyph-name="l" unicode="l" horiz-adv-x="233" 
d="M153 582v-497c0 -33 11 -53 60 -41l-11 -37c-21 -9 -36 -15 -51 -15c-50 0 -77 38 -77 89v478c0 33 -21 44 -59 39v39l109 19c37 6 29 -30 29 -74z" />
    <glyph glyph-name="lacute" unicode="&#x13a;" horiz-adv-x="233" 
d="M159 846l-113 -110c-10 -8 -13 -17 -8 -23c6 -8 13 -8 23 -2l143 77c23 13 23 35 11 56c-12 20 -34 24 -56 2zM153 582v-497c0 -33 11 -53 60 -41l-11 -37c-21 -9 -36 -15 -51 -15c-50 0 -77 38 -77 89v478c0 33 -21 44 -59 39v39l109 19c37 6 29 -30 29 -74z" />
    <glyph glyph-name="lcaron" unicode="&#x13e;" horiz-adv-x="326" 
d="M153 582v-497c0 -33 11 -53 60 -41l-11 -37c-21 -9 -36 -15 -51 -15c-50 0 -77 38 -77 89v478c0 33 -21 44 -59 39v39l109 19c37 6 29 -30 29 -74zM314 525c-8 -28 -27 -52 -48 -71c-6 -4 -11 -4 -16 2l-14 14c16 16 27 30 33 45s7 28 3 34c-6 -2 -12 -3 -25 -2
c-26 4 -45 29 -42 58c4 31 32 52 61 48s46 -29 51 -53c5 -26 6 -44 -3 -75z" />
    <glyph glyph-name="lcommaaccent" unicode="&#x13c;" horiz-adv-x="233" 
d="M153 582v-497c0 -33 11 -53 60 -41l-11 -37c-21 -9 -36 -15 -51 -15c-50 0 -77 38 -77 89v478c0 33 -21 44 -59 39v39l109 19c37 6 29 -30 29 -74zM182 -223c-8 -28 -27 -52 -49 -71c-5 -4 -10 -4 -16 2l-13 14c15 16 27 30 33 45c5 15 6 28 3 34c-6 -2 -13 -3 -25 -2
c-26 4 -46 29 -42 58c4 31 31 52 61 48c29 -4 46 -29 51 -53c5 -26 6 -44 -3 -75z" />
    <glyph glyph-name="ldot" unicode="&#x140;" horiz-adv-x="352" 
d="M153 582v-497c0 -33 11 -53 60 -41l-11 -37c-21 -9 -36 -15 -51 -15c-50 0 -77 38 -77 89v478c0 33 -21 44 -59 39v39l109 19c37 6 29 -30 29 -74zM279 338c-29 0 -54 25 -54 55s25 55 54 55c30 0 55 -25 55 -55s-25 -55 -55 -55z" />
    <glyph glyph-name="lslash" unicode="&#x142;" horiz-adv-x="295" 
d="M285 327l-101 -31v-211c0 -33 11 -53 60 -41l-11 -37c-21 -9 -36 -15 -51 -15c-50 0 -77 38 -77 89v190l-95 -29v62l95 29v226c0 33 -21 44 -59 39v39l109 19c37 6 29 -30 29 -74v-224l101 31v-62z" />
    <glyph glyph-name="m" unicode="m" horiz-adv-x="812" 
d="M732 294v-241c0 -23 16 -28 50 -28v-25h-183v25c32 0 47 5 47 28v245c0 63 -19 110 -70 110c-65 0 -111 -58 -129 -104v-251c0 -23 16 -28 49 -28v-25h-182v25c32 0 47 5 47 28v245c0 68 -15 110 -69 110c-68 0 -107 -58 -129 -104v-251c0 -23 16 -28 50 -28v-25h-176v25
c32 0 47 5 47 28v312c0 33 -21 44 -59 39v38l111 17c36 5 30 -30 23 -75l-4 -39c23 40 60 115 145 115c79 0 128 -32 142 -104c17 33 54 104 141 104c91 0 149 -44 149 -166z" />
    <glyph glyph-name="n" unicode="n" horiz-adv-x="549" 
d="M467 286v-202c0 -33 11 -55 62 -43l-13 -31c-22 -8 -35 -10 -54 -10c-47 0 -76 33 -76 72v220c0 71 -19 117 -82 117c-69 0 -120 -62 -139 -84v-272c0 -23 16 -28 50 -28v-25h-178v25c32 0 47 5 47 28v312c0 33 -21 44 -59 39v38l111 17c37 5 30 -30 25 -74l-4 -35
c18 31 69 110 169 110c94 0 140 -38 141 -174z" />
    <glyph glyph-name="nacute" unicode="&#x144;" horiz-adv-x="549" 
d="M351 676l-113 -110c-10 -8 -13 -17 -8 -23c6 -8 13 -8 23 -2l143 77c23 13 23 35 11 56c-12 20 -34 24 -56 2zM467 286v-202c0 -33 11 -55 62 -43l-13 -31c-22 -8 -35 -10 -54 -10c-47 0 -76 33 -76 72v220c0 71 -19 117 -82 117c-69 0 -120 -62 -139 -84v-272
c0 -23 16 -28 50 -28v-25h-178v25c32 0 47 5 47 28v312c0 33 -21 44 -59 39v38l111 17c37 5 30 -30 25 -74l-4 -35c18 31 69 110 169 110c94 0 140 -38 141 -174z" />
    <glyph glyph-name="ncaron" unicode="&#x148;" horiz-adv-x="549" 
d="M253 533l-149 154h46l103 -74l104 74h45zM467 286v-202c0 -33 11 -55 62 -43l-13 -31c-22 -8 -35 -10 -54 -10c-47 0 -76 33 -76 72v220c0 71 -19 117 -82 117c-69 0 -120 -62 -139 -84v-272c0 -23 16 -28 50 -28v-25h-178v25c32 0 47 5 47 28v312c0 33 -21 44 -59 39v38
l111 17c37 5 30 -30 25 -74l-4 -35c18 31 69 110 169 110c94 0 140 -38 141 -174z" />
    <glyph glyph-name="ncommaaccent" unicode="&#x146;" horiz-adv-x="549" 
d="M467 286v-202c0 -33 11 -55 62 -43l-13 -31c-22 -8 -35 -10 -54 -10c-47 0 -76 33 -76 72v220c0 71 -19 117 -82 117c-69 0 -120 -62 -139 -84v-272c0 -23 16 -28 50 -28v-25h-178v25c32 0 47 5 47 28v312c0 33 -21 44 -59 39v38l111 17c37 5 30 -30 25 -74l-4 -35
c18 31 69 110 169 110c94 0 140 -38 141 -174zM333 -223c-8 -28 -27 -52 -49 -71c-5 -4 -10 -4 -16 2l-13 14c15 16 27 30 33 45c5 15 6 28 3 34c-6 -2 -13 -3 -25 -2c-26 4 -46 29 -42 58c4 31 31 52 61 48c29 -4 46 -29 51 -53c5 -26 6 -44 -3 -75z" />
    <glyph glyph-name="eng" unicode="&#x14b;" horiz-adv-x="529" 
d="M328 460c94 0 143 -38 143 -174v-360c0 -68 -27 -108 -77 -129c-62 -26 -123 -5 -133 38c-4 22 2 43 18 51c18 9 37 6 46 -4c6 -5 21 -56 38 -49c14 6 24 23 24 50v409c0 71 -18 117 -81 117c-69 0 -120 -62 -139 -84v-272c0 -23 16 -28 50 -28v-25h-180v25
c32 0 47 5 47 28v312c0 33 -21 44 -59 39v38l113 17c37 5 30 -30 25 -74l-4 -35c18 31 69 110 169 110z" />
    <glyph glyph-name="ntilde" unicode="&#xf1;" horiz-adv-x="549" 
d="M412 647h30c-9 -63 -55 -100 -116 -100c-64 0 -104 68 -150 68c-42 0 -63 -31 -63 -48h-23c-12 59 50 96 102 96c67 0 91 -58 153 -58c34 0 67 28 67 42zM467 286v-202c0 -33 11 -55 62 -43l-13 -31c-22 -8 -35 -10 -54 -10c-47 0 -76 33 -76 72v220
c0 71 -19 117 -82 117c-69 0 -120 -62 -139 -84v-272c0 -23 16 -28 50 -28v-25h-178v25c32 0 47 5 47 28v312c0 33 -21 44 -59 39v38l111 17c37 5 30 -30 25 -74l-4 -35c18 31 69 110 169 110c94 0 140 -38 141 -174z" />
    <glyph glyph-name="o" unicode="o" horiz-adv-x="485" 
d="M241 458c117 0 214 -91 214 -228c0 -143 -97 -240 -210 -240c-116 0 -215 97 -215 232c0 145 99 236 211 236zM374 207c0 120 -63 210 -144 210c-69 0 -117 -45 -117 -172c0 -120 61 -209 143 -209c70 0 118 46 118 171z" />
    <glyph glyph-name="oacute" unicode="&#xf3;" horiz-adv-x="485" 
d="M328 676l-113 -110c-10 -8 -13 -17 -8 -23c6 -8 13 -8 23 -2l143 77c23 13 23 35 11 56c-12 20 -34 24 -56 2zM241 458c117 0 214 -91 214 -228c0 -143 -97 -240 -210 -240c-116 0 -215 97 -215 232c0 145 99 236 211 236zM374 207c0 120 -63 210 -144 210
c-69 0 -117 -45 -117 -172c0 -120 61 -209 143 -209c70 0 118 46 118 171z" />
    <glyph glyph-name="ocircumflex" unicode="&#xf4;" horiz-adv-x="485" 
d="M245 688l149 -154h-45l-104 74l-103 -74h-46zM241 458c117 0 214 -91 214 -228c0 -143 -97 -240 -210 -240c-116 0 -215 97 -215 232c0 145 99 236 211 236zM374 207c0 120 -63 210 -144 210c-69 0 -117 -45 -117 -172c0 -120 61 -209 143 -209c70 0 118 46 118 171z" />
    <glyph glyph-name="odieresis" unicode="&#xf6;" horiz-adv-x="485" 
d="M142 569c-28 0 -52 24 -52 52s24 52 52 52s52 -24 52 -52s-24 -52 -52 -52zM331 569c-28 0 -52 24 -52 52s24 52 52 52s52 -24 52 -52s-24 -52 -52 -52zM241 458c117 0 214 -91 214 -228c0 -143 -97 -240 -210 -240c-116 0 -215 97 -215 232c0 145 99 236 211 236z
M374 207c0 120 -63 210 -144 210c-69 0 -117 -45 -117 -172c0 -120 61 -209 143 -209c70 0 118 46 118 171z" />
    <glyph glyph-name="ograve" unicode="&#xf2;" horiz-adv-x="485" 
d="M298 566l-113 110c-22 22 -44 18 -56 -2c-12 -21 -12 -43 11 -56l143 -77c10 -6 18 -6 23 2c5 6 2 15 -8 23zM241 458c117 0 214 -91 214 -228c0 -143 -97 -240 -210 -240c-116 0 -215 97 -215 232c0 145 99 236 211 236zM374 207c0 120 -63 210 -144 210
c-69 0 -117 -45 -117 -172c0 -120 61 -209 143 -209c70 0 118 46 118 171z" />
    <glyph glyph-name="ohungarumlaut" unicode="&#x151;" horiz-adv-x="485" 
d="M201 676l-113 -110c-10 -8 -13 -17 -8 -23c6 -8 13 -8 23 -2l143 77c23 13 23 35 11 56c-12 20 -34 24 -56 2zM408 676l-113 -110c-10 -8 -13 -17 -8 -23c6 -8 13 -8 23 -2l143 77c23 13 23 35 11 56c-12 20 -34 24 -56 2zM241 458c117 0 214 -91 214 -228
c0 -143 -97 -240 -210 -240c-116 0 -215 97 -215 232c0 145 99 236 211 236zM374 207c0 120 -63 210 -144 210c-69 0 -117 -45 -117 -172c0 -120 61 -209 143 -209c70 0 118 46 118 171z" />
    <glyph glyph-name="omacron" unicode="&#x14d;" horiz-adv-x="485" 
d="M82 604v11c0 12 7 17 20 17h283c13 0 20 -5 20 -17v-11c0 -12 -7 -17 -20 -17h-283c-13 0 -20 5 -20 17zM241 458c117 0 214 -91 214 -228c0 -143 -97 -240 -210 -240c-116 0 -215 97 -215 232c0 145 99 236 211 236zM374 207c0 120 -63 210 -144 210
c-69 0 -117 -45 -117 -172c0 -120 61 -209 143 -209c70 0 118 46 118 171z" />
    <glyph glyph-name="oslash" unicode="&#xf8;" horiz-adv-x="485" 
d="M418 426l-24 -32c37 -40 61 -97 61 -164c0 -143 -97 -240 -210 -240c-45 0 -88 15 -123 41l-20 -27l-35 25l23 31c-37 41 -60 97 -60 162c0 145 99 236 211 236c44 0 86 -13 120 -37l22 30zM113 245c0 -46 9 -88 25 -121l184 246c-24 30 -56 47 -92 47
c-69 0 -117 -45 -117 -172zM256 36c70 0 118 46 118 171c0 47 -10 90 -27 125l-185 -248c25 -30 57 -48 94 -48z" />
    <glyph glyph-name="otilde" unicode="&#xf5;" horiz-adv-x="485" 
d="M389 647h30c-9 -63 -55 -100 -116 -100c-64 0 -104 68 -150 68c-42 0 -63 -31 -63 -48h-23c-12 59 50 96 102 96c67 0 91 -58 153 -58c34 0 67 28 67 42zM241 458c117 0 214 -91 214 -228c0 -143 -97 -240 -210 -240c-116 0 -215 97 -215 232c0 145 99 236 211 236z
M374 207c0 120 -63 210 -144 210c-69 0 -117 -45 -117 -172c0 -120 61 -209 143 -209c70 0 118 46 118 171z" />
    <glyph glyph-name="oe" unicode="&#x153;" horiz-adv-x="810" 
d="M606 37c71 0 107 42 131 74l26 -35c-25 -33 -65 -85 -174 -85c-73 0 -136 36 -175 94c-38 -60 -101 -95 -169 -95c-116 0 -215 97 -215 232c0 145 99 236 211 236c69 0 131 -31 170 -85c38 56 100 86 169 86c101 0 194 -71 194 -183c0 -38 -19 -52 -56 -52h-259
c0 -113 70 -187 147 -187zM580 421c-76 0 -121 -66 -121 -156h231c2 90 -38 156 -110 156zM256 36c68 0 115 44 118 161c-1 11 -2 23 -2 34v11c-11 102 -69 175 -142 175c-69 0 -117 -45 -117 -172c0 -120 61 -209 143 -209z" />
    <glyph glyph-name="p" unicode="p" horiz-adv-x="515" 
d="M304 462c115 0 184 -84 184 -235c0 -150 -86 -233 -184 -233c-77 0 -126 42 -146 77v-200c0 -23 16 -28 50 -28v-27h-176v27c32 0 47 5 47 28v492c0 33 -21 44 -59 39v41l111 17c36 6 36 -36 22 -79c21 22 70 81 151 81zM294 35c73 0 112 55 112 179
c0 97 -33 191 -111 191s-106 -31 -137 -71v-191c19 -54 63 -108 136 -108z" />
    <glyph glyph-name="thorn" unicode="&#xfe;" horiz-adv-x="517" 
d="M296 462c113 0 181 -87 181 -235c0 -150 -85 -233 -184 -233c-66 0 -111 32 -142 85v-208c0 -23 16 -28 50 -28v-27h-178v27c32 0 47 5 47 28v712c0 23 -7 33 -27 33h-28v36l111 15c16 2 24 -4 24 -19v-166c0 -36 -4 -78 -16 -124l17 22c25 30 68 82 145 82zM283 35
c73 0 113 55 113 179c0 97 -34 191 -112 191c-71 0 -99 -25 -133 -69v-196c19 -54 62 -105 132 -105z" />
    <glyph glyph-name="q" unicode="q" horiz-adv-x="537" 
d="M517 -84v-45l-128 -83c-15 -10 -29 -1 -29 12v195c0 31 3 105 15 149l-14 -49c-12 -40 -48 -101 -141 -101c-121 0 -195 83 -195 244c0 141 73 224 184 224c89 0 138 -73 150 -89l44 79c7 21 34 11 34 -2v-534c0 -19 -11 -27 2 -23zM359 142v182c-18 29 -47 91 -130 91
c-80 0 -121 -48 -121 -165c0 -121 46 -194 128 -194c67 0 105 45 123 86z" />
    <glyph glyph-name="r" unicode="r" horiz-adv-x="399" 
d="M364 398l-23 -27c-24 -29 -38 15 -80 15c-65 0 -91 -81 -98 -114v-219c0 -23 17 -28 54 -28v-25h-183v25c34 0 51 5 51 28v309c0 33 -22 44 -60 39v39l109 16c36 5 30 -31 25 -76l-9 -84l7 40c13 75 75 120 154 120c42 0 79 -28 53 -58z" />
    <glyph glyph-name="racute" unicode="&#x155;" horiz-adv-x="399" 
d="M292 676l-113 -110c-10 -8 -13 -17 -8 -23c6 -8 13 -8 23 -2l143 77c23 13 23 35 11 56c-12 20 -34 24 -56 2zM364 398l-23 -27c-24 -29 -38 15 -80 15c-65 0 -91 -81 -98 -114v-219c0 -23 17 -28 54 -28v-25h-183v25c34 0 51 5 51 28v309c0 33 -22 44 -60 39v39l109 16
c36 5 30 -31 25 -76l-9 -84l7 40c13 75 75 120 154 120c42 0 79 -28 53 -58z" />
    <glyph glyph-name="rcaron" unicode="&#x159;" horiz-adv-x="399" 
d="M194 533l-149 154h46l103 -74l104 74h45zM364 398l-23 -27c-24 -29 -38 15 -80 15c-65 0 -91 -81 -98 -114v-219c0 -23 17 -28 54 -28v-25h-183v25c34 0 51 5 51 28v309c0 33 -22 44 -60 39v39l109 16c36 5 30 -31 25 -76l-9 -84l7 40c13 75 75 120 154 120
c42 0 79 -28 53 -58z" />
    <glyph glyph-name="rcommaaccent" unicode="&#x157;" horiz-adv-x="399" 
d="M364 398l-23 -27c-24 -29 -38 15 -80 15c-65 0 -91 -81 -98 -114v-219c0 -23 17 -28 54 -28v-25h-183v25c34 0 51 5 51 28v309c0 33 -22 44 -60 39v39l109 16c36 5 30 -31 25 -76l-9 -84l7 40c13 75 75 120 154 120c42 0 79 -28 53 -58zM181 -223c-8 -28 -27 -52 -49 -71
c-5 -4 -10 -4 -16 2l-13 14c15 16 27 30 33 45c5 15 6 28 3 34c-6 -2 -13 -3 -25 -2c-26 4 -46 29 -42 58c4 31 31 52 61 48c29 -4 46 -29 51 -53c5 -26 6 -44 -3 -75z" />
    <glyph glyph-name="s" unicode="s" horiz-adv-x="435" 
d="M406 124c0 -84 -80 -134 -192 -134c-100 0 -171 51 -178 72c-20 61 -9 81 11 85c47 9 49 -1 51 -19c9 -67 46 -98 116 -98c78 0 110 34 110 80c0 43 -67 70 -125 88c-64 20 -158 67 -158 141c0 67 52 118 172 118c96 0 164 -52 166 -72c6 -69 -10 -84 -24 -84
c-40 -3 -54 10 -51 31c7 52 -20 86 -91 86c-68 0 -97 -33 -97 -70c0 -47 69 -68 119 -84c67 -21 171 -50 171 -140z" />
    <glyph glyph-name="sacute" unicode="&#x15b;" horiz-adv-x="435" 
d="M314 676l-113 -110c-10 -8 -13 -17 -8 -23c6 -8 13 -8 23 -2l143 77c23 13 23 35 11 56c-12 20 -34 24 -56 2zM406 124c0 -84 -80 -134 -192 -134c-100 0 -171 51 -178 72c-20 61 -9 81 11 85c47 9 49 -1 51 -19c9 -67 46 -98 116 -98c78 0 110 34 110 80
c0 43 -67 70 -125 88c-64 20 -158 67 -158 141c0 67 52 118 172 118c96 0 164 -52 166 -72c6 -69 -10 -84 -24 -84c-40 -3 -54 10 -51 31c7 52 -20 86 -91 86c-68 0 -97 -33 -97 -70c0 -47 69 -68 119 -84c67 -21 171 -50 171 -140z" />
    <glyph glyph-name="scaron" unicode="&#x161;" horiz-adv-x="435" 
d="M216 533l-149 154h46l103 -74l104 74h45zM406 124c0 -84 -80 -134 -192 -134c-100 0 -171 51 -178 72c-20 61 -9 81 11 85c47 9 49 -1 51 -19c9 -67 46 -98 116 -98c78 0 110 34 110 80c0 43 -67 70 -125 88c-64 20 -158 67 -158 141c0 67 52 118 172 118
c96 0 164 -52 166 -72c6 -69 -10 -84 -24 -84c-40 -3 -54 10 -51 31c7 52 -20 86 -91 86c-68 0 -97 -33 -97 -70c0 -47 69 -68 119 -84c67 -21 171 -50 171 -140z" />
    <glyph glyph-name="scedilla" unicode="&#x15f;" horiz-adv-x="435" 
d="M406 124c0 -76 -66 -124 -161 -133l-18 -39c53 14 117 -24 106 -88c-10 -59 -66 -75 -123 -72c-54 3 -88 28 -94 60c-6 31 29 52 57 26c4 -22 7 -54 41 -56c35 -2 58 17 63 48c5 32 -17 55 -57 51c-17 -2 -30 -5 -37 -6c-16 -3 -23 14 -16 26c9 15 17 33 25 50
c-88 7 -150 52 -156 71c-20 61 -9 81 11 85c47 9 49 -1 51 -19c9 -67 46 -98 116 -98c78 0 110 34 110 80c0 43 -67 70 -125 88c-64 20 -158 67 -158 141c0 67 52 118 172 118c96 0 164 -52 166 -72c6 -69 -10 -84 -24 -84c-40 -3 -54 10 -51 31c7 52 -20 86 -91 86
c-68 0 -97 -33 -97 -70c0 -47 69 -68 119 -84c67 -21 171 -50 171 -140z" />
    <glyph glyph-name="scommaaccent" unicode="&#x219;" horiz-adv-x="435" 
d="M406 124c0 -84 -80 -134 -192 -134c-100 0 -171 51 -178 72c-20 61 -9 81 11 85c47 9 49 -1 51 -19c9 -67 46 -98 116 -98c78 0 110 34 110 80c0 43 -67 70 -125 88c-64 20 -158 67 -158 141c0 67 52 118 172 118c96 0 164 -52 166 -72c6 -69 -10 -84 -24 -84
c-40 -3 -54 10 -51 31c7 52 -20 86 -91 86c-68 0 -97 -33 -97 -70c0 -47 69 -68 119 -84c67 -21 171 -50 171 -140zM266 -223c-8 -28 -27 -52 -49 -71c-5 -4 -10 -4 -16 2l-13 14c15 16 27 30 33 45c5 15 6 28 3 34c-6 -2 -13 -3 -25 -2c-26 4 -46 29 -42 58
c4 31 31 52 61 48c29 -4 46 -29 51 -53c5 -26 6 -44 -3 -75z" />
    <glyph glyph-name="germandbls" unicode="&#xdf;" horiz-adv-x="527" 
d="M345 377c74 -18 141 -85 141 -192c0 -115 -99 -186 -260 -186v42c116 0 168 43 168 144c0 94 -26 160 -163 162v34c56 0 110 50 110 111c0 66 -22 137 -100 137c-60 0 -84 -53 -84 -120v-412c0 -66 -17 -97 -88 -97h-38v23c38 5 46 10 46 33v438c0 109 53 173 164 173
c116 0 172 -74 172 -175c0 -51 -27 -90 -68 -115z" />
    <glyph glyph-name="t" unicode="t" horiz-adv-x="324" 
d="M285 63c5 4 28 -24 17 -32c-22 -18 -54 -38 -109 -38c-66 0 -111 37 -111 137v281h-56v37c55 0 90 53 117 108c7 14 21 13 21 0v-99h114v-31c0 -12 -4 -15 -15 -15h-99v-290c0 -40 16 -82 51 -82c33 0 59 15 70 24z" />
    <glyph glyph-name="tbar" unicode="&#x167;" horiz-adv-x="373" 
d="M166 277h157c13 0 20 -5 20 -17v-11c0 -12 -7 -17 -20 -17h-157v-111c0 -40 16 -82 51 -82c34 0 59 15 71 24c5 4 27 -24 17 -32c-22 -18 -55 -38 -110 -38c-65 0 -111 37 -111 137v102h-44c-13 0 -20 5 -20 17v11c0 12 7 17 20 17h44v134h-55v37c54 0 90 53 117 108
c7 14 20 13 20 0v-99h114v-31c0 -12 -4 -15 -14 -15h-100v-134z" />
    <glyph glyph-name="tcaron" unicode="&#x165;" horiz-adv-x="404" 
d="M383 512c-9 -29 -27 -53 -49 -72c-6 -4 -10 -4 -16 2l-14 14c16 16 27 30 33 45c6 16 7 28 4 35c-7 -2 -13 -4 -26 -3c-25 4 -45 30 -41 58c4 31 31 53 60 49s46 -30 51 -53c5 -27 6 -45 -2 -75zM285 63c5 4 28 -24 17 -32c-22 -18 -54 -38 -109 -38
c-66 0 -111 37 -111 137v281h-56v37c55 0 90 53 117 108c7 14 21 13 21 0v-99h114v-31c0 -12 -4 -15 -15 -15h-99v-290c0 -40 16 -82 51 -82c33 0 59 15 70 24z" />
    <glyph glyph-name="tcedilla" unicode="&#x163;" horiz-adv-x="324" 
d="M285 63c5 4 28 -24 17 -32c-20 -17 -49 -35 -96 -38l-19 -41c53 14 117 -24 106 -88c-10 -59 -66 -75 -123 -72c-54 3 -88 28 -94 60c-6 31 29 52 57 26c4 -22 7 -54 41 -56c35 -2 58 17 63 48c5 32 -17 55 -57 51c-17 -2 -30 -5 -37 -6c-16 -3 -23 14 -16 26
c11 17 19 38 28 57c-45 13 -73 53 -73 132v281h-56v37c55 0 90 53 117 108c7 14 21 13 21 0v-99h114v-31c0 -12 -4 -15 -15 -15h-99v-290c0 -40 16 -82 51 -82c33 0 59 15 70 24z" />
    <glyph glyph-name="uni021B" unicode="&#x21b;" horiz-adv-x="324" 
d="M285 63c5 4 28 -24 17 -32c-22 -18 -54 -38 -109 -38c-66 0 -111 37 -111 137v281h-56v37c55 0 90 53 117 108c7 14 21 13 21 0v-99h114v-31c0 -12 -4 -15 -15 -15h-99v-290c0 -40 16 -82 51 -82c33 0 59 15 70 24zM226 -223c-8 -28 -27 -52 -49 -71c-5 -4 -10 -4 -16 2
l-13 14c15 16 27 30 33 45c5 15 6 28 3 34c-6 -2 -13 -3 -25 -2c-26 4 -46 29 -42 58c4 31 31 52 61 48c29 -4 46 -29 51 -53c5 -26 6 -44 -3 -75z" />
    <glyph glyph-name="u" unicode="u" horiz-adv-x="537" 
d="M456 441v-359c0 -36 17 -42 56 -36v-31l-53 -21c-38 -14 -73 23 -82 116v2c-13 -38 -57 -120 -148 -120c-98 0 -161 57 -161 170v222c0 23 -8 32 -28 32h-15v28l99 16c14 1 23 -4 23 -19v-284c0 -85 32 -114 102 -114c71 0 107 56 128 127v214c0 23 -7 32 -27 32h-15v28
l98 16c16 3 23 -4 23 -19z" />
    <glyph glyph-name="uacute" unicode="&#xfa;" horiz-adv-x="537" 
d="M396 618l-143 -77c-10 -6 -17 -6 -23 2c-5 6 -2 15 8 23l113 110c22 22 44 18 56 -2c12 -21 12 -43 -11 -56zM456 441v-359c0 -36 17 -42 56 -36v-31l-53 -21c-38 -14 -73 23 -82 116v2c-13 -38 -57 -120 -148 -120c-98 0 -161 57 -161 170v222c0 23 -8 32 -28 32h-15v28
l99 16c14 1 23 -4 23 -19v-284c0 -85 32 -114 102 -114c71 0 107 56 128 127v214c0 23 -7 32 -27 32h-15v28l98 16c16 3 23 -4 23 -19z" />
    <glyph glyph-name="ubreve" unicode="&#x16d;" horiz-adv-x="537" 
d="M262 557c-80 0 -130 60 -134 123c0 8 5 11 10 11h14c7 0 10 -3 11 -11c4 -29 36 -61 99 -61s96 32 100 61c1 8 4 11 11 11h14c5 0 10 -3 10 -11c-4 -63 -55 -123 -135 -123zM456 441v-359c0 -36 17 -42 56 -36v-31l-53 -21c-38 -14 -73 23 -82 116v2
c-13 -38 -57 -120 -148 -120c-98 0 -161 57 -161 170v222c0 23 -8 32 -28 32h-15v28l99 16c14 1 23 -4 23 -19v-284c0 -85 32 -114 102 -114c71 0 107 56 128 127v214c0 23 -7 32 -27 32h-15v28l98 16c16 3 23 -4 23 -19z" />
    <glyph glyph-name="ucircumflex" unicode="&#xfb;" horiz-adv-x="537" 
d="M268 608l-103 -74h-46l149 154l149 -154h-45zM456 441v-359c0 -36 17 -42 56 -36v-31l-53 -21c-38 -14 -73 23 -82 116v2c-13 -38 -57 -120 -148 -120c-98 0 -161 57 -161 170v222c0 23 -8 32 -28 32h-15v28l99 16c14 1 23 -4 23 -19v-284c0 -85 32 -114 102 -114
c71 0 107 56 128 127v214c0 23 -7 32 -27 32h-15v28l98 16c16 3 23 -4 23 -19z" />
    <glyph glyph-name="udieresis" unicode="&#xfc;" horiz-adv-x="537" 
d="M166 569c-28 0 -52 24 -52 52s24 52 52 52s52 -24 52 -52s-24 -52 -52 -52zM355 569c-28 0 -52 24 -52 52s24 52 52 52s52 -24 52 -52s-24 -52 -52 -52zM456 441v-359c0 -36 17 -42 56 -36v-31l-53 -21c-38 -14 -73 23 -82 116v2c-13 -38 -57 -120 -148 -120
c-98 0 -161 57 -161 170v222c0 23 -8 32 -28 32h-15v28l99 16c14 1 23 -4 23 -19v-284c0 -85 32 -114 102 -114c71 0 107 56 128 127v214c0 23 -7 32 -27 32h-15v28l98 16c16 3 23 -4 23 -19z" />
    <glyph glyph-name="ugrave" unicode="&#xf9;" horiz-adv-x="537" 
d="M307 541l-143 77c-23 13 -23 35 -11 56c12 20 34 24 56 2l113 -110c10 -8 13 -17 8 -23c-5 -8 -13 -8 -23 -2zM456 441v-359c0 -36 17 -42 56 -36v-31l-53 -21c-38 -14 -73 23 -82 116v2c-13 -38 -57 -120 -148 -120c-98 0 -161 57 -161 170v222c0 23 -8 32 -28 32h-15
v28l99 16c14 1 23 -4 23 -19v-284c0 -85 32 -114 102 -114c71 0 107 56 128 127v214c0 23 -7 32 -27 32h-15v28l98 16c16 3 23 -4 23 -19z" />
    <glyph glyph-name="uhungarumlaut" unicode="&#x171;" horiz-adv-x="537" 
d="M270 618l-143 -77c-10 -6 -17 -6 -23 2c-5 6 -2 15 8 23l113 110c22 22 44 18 56 -2c12 -21 12 -43 -11 -56zM477 618l-143 -77c-10 -6 -17 -6 -23 2c-5 6 -2 15 8 23l113 110c22 22 44 18 56 -2c12 -21 12 -43 -11 -56zM456 441v-359c0 -36 17 -42 56 -36v-31l-53 -21
c-38 -14 -73 23 -82 116v2c-13 -38 -57 -120 -148 -120c-98 0 -161 57 -161 170v222c0 23 -8 32 -28 32h-15v28l99 16c14 1 23 -4 23 -19v-284c0 -85 32 -114 102 -114c71 0 107 56 128 127v214c0 23 -7 32 -27 32h-15v28l98 16c16 3 23 -4 23 -19z" />
    <glyph glyph-name="umacron" unicode="&#x16b;" horiz-adv-x="537" 
d="M408 587h-283c-13 0 -20 5 -20 17v11c0 12 7 17 20 17h283c13 0 20 -5 20 -17v-11c0 -12 -7 -17 -20 -17zM456 441v-359c0 -36 17 -42 56 -36v-31l-53 -21c-38 -14 -73 23 -82 116v2c-13 -38 -57 -120 -148 -120c-98 0 -161 57 -161 170v222c0 23 -8 32 -28 32h-15v28
l99 16c14 1 23 -4 23 -19v-284c0 -85 32 -114 102 -114c71 0 107 56 128 127v214c0 23 -7 32 -27 32h-15v28l98 16c16 3 23 -4 23 -19z" />
    <glyph glyph-name="uogonek" unicode="&#x173;" horiz-adv-x="537" 
d="M459 -6l-3 -1c-67 -29 -93 -59 -93 -93c0 -38 22 -55 51 -55c31 0 56 26 70 57h26c-12 -32 -52 -98 -125 -98c-46 0 -96 21 -96 83c0 56 55 96 125 117c-18 18 -32 53 -37 106v2c-13 -38 -57 -120 -148 -120c-98 0 -161 57 -161 170v222c0 23 -8 32 -28 32h-15v28l99 16
c14 1 23 -4 23 -19v-284c0 -85 32 -114 102 -114c71 0 107 56 128 127v214c0 23 -7 32 -27 32h-15v28l98 16c16 3 23 -4 23 -19v-359c0 -36 17 -42 56 -36v-31z" />
    <glyph glyph-name="uring" unicode="&#x16f;" horiz-adv-x="537" 
d="M265 553c-49 0 -89 39 -89 85c0 47 40 85 89 85s88 -38 88 -85c0 -46 -39 -85 -88 -85zM265 690c-22 0 -42 -25 -42 -52c0 -28 20 -51 42 -51c20 0 40 23 40 51c0 27 -20 52 -40 52zM456 441v-359c0 -36 17 -42 56 -36v-31l-53 -21c-38 -14 -73 23 -82 116v2
c-13 -38 -57 -120 -148 -120c-98 0 -161 57 -161 170v222c0 23 -8 32 -28 32h-15v28l99 16c14 1 23 -4 23 -19v-284c0 -85 32 -114 102 -114c71 0 107 56 128 127v214c0 23 -7 32 -27 32h-15v28l98 16c16 3 23 -4 23 -19z" />
    <glyph glyph-name="v" unicode="v" horiz-adv-x="508" 
d="M269 0h-12c-13 0 -21 5 -28 21l-140 319c-26 59 -42 72 -58 78l-21 8v25h187v-25l-20 -8c-22 -9 -30 -13 -3 -78l97 -237l84 234c23 66 20 73 -3 81l-22 8v25h168v-25l-23 -8c-15 -5 -40 -14 -67 -80z" />
    <glyph glyph-name="w" unicode="w" horiz-adv-x="775" 
d="M597 425v26c57 -2 111 -2 168 0v-26l-23 -8c-15 -5 -40 -15 -67 -79l-140 -338h-13c-14 0 -22 6 -29 22l-107 252l-123 -274h-12c-14 0 -22 6 -29 22l-127 318c-23 59 -43 71 -59 77l-21 8v26c65 -2 122 -2 187 0v-26l-23 -8c-22 -8 -33 -12 -7 -77l93 -229l93 229
c-25 57 -30 71 -46 77l-33 8v26c77 -2 122 -2 200 0v-26l-37 -8c-23 -6 -36 -14 -8 -77l102 -229l84 226c24 65 22 72 -1 80z" />
    <glyph glyph-name="wacute" unicode="&#x1e83;" horiz-adv-x="775" 
d="M522 618l-143 -77c-10 -6 -17 -6 -23 2c-5 6 -2 15 8 23l113 110c22 22 44 18 56 -2c12 -21 12 -43 -11 -56zM597 425v26c57 -2 111 -2 168 0v-26l-23 -8c-15 -5 -40 -15 -67 -79l-140 -338h-13c-14 0 -22 6 -29 22l-107 252l-123 -274h-12c-14 0 -22 6 -29 22l-127 318
c-23 59 -43 71 -59 77l-21 8v26c65 -2 122 -2 187 0v-26l-23 -8c-22 -8 -33 -12 -7 -77l93 -229l93 229c-25 57 -30 71 -46 77l-33 8v26c77 -2 122 -2 200 0v-26l-37 -8c-23 -6 -36 -14 -8 -77l102 -229l84 226c24 65 22 72 -1 80z" />
    <glyph glyph-name="wcircumflex" unicode="&#x175;" horiz-adv-x="775" 
d="M394 608l-103 -74h-46l149 154l149 -154h-45zM597 425v26c57 -2 111 -2 168 0v-26l-23 -8c-15 -5 -40 -15 -67 -79l-140 -338h-13c-14 0 -22 6 -29 22l-107 252l-123 -274h-12c-14 0 -22 6 -29 22l-127 318c-23 59 -43 71 -59 77l-21 8v26c65 -2 122 -2 187 0v-26l-23 -8
c-22 -8 -33 -12 -7 -77l93 -229l93 229c-25 57 -30 71 -46 77l-33 8v26c77 -2 122 -2 200 0v-26l-37 -8c-23 -6 -36 -14 -8 -77l102 -229l84 226c24 65 22 72 -1 80z" />
    <glyph glyph-name="wdieresis" unicode="&#x1e85;" horiz-adv-x="775" 
d="M291 569c-28 0 -52 24 -52 52s24 52 52 52s52 -24 52 -52s-24 -52 -52 -52zM480 569c-28 0 -52 24 -52 52s24 52 52 52s52 -24 52 -52s-24 -52 -52 -52zM597 425v26c57 -2 111 -2 168 0v-26l-23 -8c-15 -5 -40 -15 -67 -79l-140 -338h-13c-14 0 -22 6 -29 22l-107 252
l-123 -274h-12c-14 0 -22 6 -29 22l-127 318c-23 59 -43 71 -59 77l-21 8v26c65 -2 122 -2 187 0v-26l-23 -8c-22 -8 -33 -12 -7 -77l93 -229l93 229c-25 57 -30 71 -46 77l-33 8v26c77 -2 122 -2 200 0v-26l-37 -8c-23 -6 -36 -14 -8 -77l102 -229l84 226
c24 65 22 72 -1 80z" />
    <glyph glyph-name="wgrave" unicode="&#x1e81;" horiz-adv-x="775" 
d="M432 541l-143 77c-23 13 -23 35 -11 56c12 20 34 24 56 2l113 -110c10 -8 13 -17 8 -23c-5 -8 -13 -8 -23 -2zM597 425v26c57 -2 111 -2 168 0v-26l-23 -8c-15 -5 -40 -15 -67 -79l-140 -338h-13c-14 0 -22 6 -29 22l-107 252l-123 -274h-12c-14 0 -22 6 -29 22l-127 318
c-23 59 -43 71 -59 77l-21 8v26c65 -2 122 -2 187 0v-26l-23 -8c-22 -8 -33 -12 -7 -77l93 -229l93 229c-25 57 -30 71 -46 77l-33 8v26c77 -2 122 -2 200 0v-26l-37 -8c-23 -6 -36 -14 -8 -77l102 -229l84 226c24 65 22 72 -1 80z" />
    <glyph glyph-name="x" unicode="x" horiz-adv-x="544" 
d="M490 34l29 -5v-29h-201v29l29 4c20 2 34 6 16 28l-108 134l-96 -129c-15 -18 -5 -31 13 -33l23 -4v-29h-170v29l29 5c16 2 27 5 50 33l126 159l-121 151c-26 33 -41 35 -62 40l-21 5v29c70 -2 130 -2 200 0v-29l-28 -4c-13 -2 -18 -9 -3 -30l85 -109l83 103
c23 26 9 33 -6 36l-23 4v29c58 -2 110 -2 168 0v-29l-24 -5c-21 -4 -42 -10 -78 -53l-95 -118l141 -181c21 -26 32 -29 44 -31z" />
    <glyph glyph-name="y" unicode="y" horiz-adv-x="518" 
d="M498 451v-25l-14 -6c-18 -8 -35 -11 -42 -27l-198 -477c-33 -80 -60 -131 -127 -131c-44 0 -78 21 -84 55c-6 35 7 56 45 56c53 0 13 -57 60 -57c26 0 40 39 52 66l48 116l-177 372c-9 18 -18 22 -33 27l-18 6v25h185v-25l-25 -5c-16 -3 -30 -11 -22 -28l129 -281
l111 281c6 15 -8 25 -23 28l-28 5v25h161z" />
    <glyph glyph-name="yacute" unicode="&#xfd;" horiz-adv-x="518" 
d="M352 676l-113 -110c-10 -8 -13 -17 -8 -23c6 -8 13 -8 23 -2l143 77c23 13 23 35 11 56c-12 20 -34 24 -56 2zM498 451v-25l-14 -6c-18 -8 -35 -11 -42 -27l-198 -477c-33 -80 -60 -131 -127 -131c-44 0 -78 21 -84 55c-6 35 7 56 45 56c53 0 13 -57 60 -57
c26 0 40 39 52 66l48 116l-177 372c-9 18 -18 22 -33 27l-18 6v25h185v-25l-25 -5c-16 -3 -30 -11 -22 -28l129 -281l111 281c6 15 -8 25 -23 28l-28 5v25h161z" />
    <glyph glyph-name="ycircumflex" unicode="&#x177;" horiz-adv-x="518" 
d="M269 688l149 -154h-45l-104 74l-103 -74h-46zM498 451v-25l-14 -6c-18 -8 -35 -11 -42 -27l-198 -477c-33 -80 -60 -131 -127 -131c-44 0 -78 21 -84 55c-6 35 7 56 45 56c53 0 13 -57 60 -57c26 0 40 39 52 66l48 116l-177 372c-9 18 -18 22 -33 27l-18 6v25h185v-25
l-25 -5c-16 -3 -30 -11 -22 -28l129 -281l111 281c6 15 -8 25 -23 28l-28 5v25h161z" />
    <glyph glyph-name="ydieresis" unicode="&#xff;" horiz-adv-x="518" 
d="M167 569c-28 0 -52 24 -52 52s24 52 52 52s52 -24 52 -52s-24 -52 -52 -52zM356 569c-28 0 -52 24 -52 52s24 52 52 52s52 -24 52 -52s-24 -52 -52 -52zM498 451v-25l-14 -6c-18 -8 -35 -11 -42 -27l-198 -477c-33 -80 -60 -131 -127 -131c-44 0 -78 21 -84 55
c-6 35 7 56 45 56c53 0 13 -57 60 -57c26 0 40 39 52 66l48 116l-177 372c-9 18 -18 22 -33 27l-18 6v25h185v-25l-25 -5c-16 -3 -30 -11 -22 -28l129 -281l111 281c6 15 -8 25 -23 28l-28 5v25h161z" />
    <glyph glyph-name="ygrave" unicode="&#x1ef3;" horiz-adv-x="518" 
d="M323 566l-113 110c-22 22 -44 18 -56 -2c-12 -21 -12 -43 11 -56l143 -77c10 -6 18 -6 23 2c5 6 2 15 -8 23zM498 451v-25l-14 -6c-18 -8 -35 -11 -42 -27l-198 -477c-33 -80 -60 -131 -127 -131c-44 0 -78 21 -84 55c-6 35 7 56 45 56c53 0 13 -57 60 -57
c26 0 40 39 52 66l48 116l-177 372c-9 18 -18 22 -33 27l-18 6v25h185v-25l-25 -5c-16 -3 -30 -11 -22 -28l129 -281l111 281c6 15 -8 25 -23 28l-28 5v25h161z" />
    <glyph glyph-name="z" unicode="z" horiz-adv-x="468" 
d="M428 105l-18 -105h-350c-27 0 -36 26 -20 48l263 366l-221 -8c-18 -1 -20 -22 -26 -36l-6 -19h-30l18 109h389l-304 -413l242 5c19 0 23 20 29 35l6 18h28z" />
    <glyph glyph-name="zacute" unicode="&#x17a;" horiz-adv-x="468" 
d="M327 676l-113 -110c-10 -8 -13 -17 -8 -23c6 -8 13 -8 23 -2l143 77c23 13 23 35 11 56c-12 20 -34 24 -56 2zM428 105l-18 -105h-350c-27 0 -36 26 -20 48l263 366l-221 -8c-18 -1 -20 -22 -26 -36l-6 -19h-30l18 109h389l-304 -413l242 5c19 0 23 20 29 35l6 18h28z
" />
    <glyph glyph-name="zcaron" unicode="&#x17e;" horiz-adv-x="468" 
d="M229 533l-149 154h46l103 -74l104 74h45zM428 105l-18 -105h-350c-27 0 -36 26 -20 48l263 366l-221 -8c-18 -1 -20 -22 -26 -36l-6 -19h-30l18 109h389l-304 -413l242 5c19 0 23 20 29 35l6 18h28z" />
    <glyph glyph-name="zdotaccent" unicode="&#x17c;" horiz-adv-x="468" 
d="M231 570c-28 0 -53 24 -53 53c0 28 25 53 53 53c29 0 53 -25 53 -53c0 -29 -24 -53 -53 -53zM428 105l-18 -105h-350c-27 0 -36 26 -20 48l263 366l-221 -8c-18 -1 -20 -22 -26 -36l-6 -19h-30l18 109h389l-304 -413l242 5c19 0 23 20 29 35l6 18h28z" />
    <glyph glyph-name="f_b" horiz-adv-x="890" 
d="M670 462c111 0 183 -87 183 -235c0 -150 -89 -235 -186 -235c-88 0 -138 58 -152 93l-39 -83c-9 -20 -33 -10 -33 5v529c0 41 -85 91 -149 91c-93 0 -119 -73 -119 -141v-29h153c-14 -39 -14 -43 -32 -43h-121v-362c0 -23 8 -28 52 -28v-24h-188v24c50 0 56 5 56 28v362
h-56c-6 0 -10 4 -10 10v33h66v17c0 109 58 193 199 193c49 0 110 -6 156 -19l49 9c16 3 24 -4 24 -19v-156c0 -36 -4 -78 -16 -124l17 22c26 30 68 82 146 82zM656 32c73 0 115 58 115 182c0 97 -36 191 -114 191c-71 0 -100 -25 -133 -69v-196c19 -53 62 -108 132 -108z
" />
    <glyph glyph-name="f_h" horiz-adv-x="925" 
d="M845 286v-202c0 -33 9 -57 60 -45l-13 -31c-21 -9 -35 -8 -54 -8c-48 0 -77 33 -77 72v220c0 71 -18 117 -81 117c-69 0 -133 -62 -152 -84v-272c0 -23 16 -28 50 -28v-25h-182v25c32 0 47 5 47 28v483c0 22 -21 47 -54 66l-5 -1v4c-26 13 -57 22 -90 22
c-93 0 -119 -73 -119 -141v-29h128c-14 -39 -14 -43 -32 -43h-96v-362c0 -23 8 -28 52 -28v-24h-176v24c36 0 44 5 44 28v362h-56c-6 0 -10 4 -10 10v33h66v17c0 109 58 193 199 193c54 0 113 -6 158 -18l42 8c37 6 30 -30 30 -74v-203l-4 -30c18 31 83 110 182 110
c94 0 143 -37 143 -174z" />
    <glyph glyph-name="f_j" horiz-adv-x="588" 
d="M300 627c-100 0 -125 -61 -125 -141v-29h120c-13 -39 -13 -43 -32 -43h-88v-362c0 -23 8 -28 52 -28v-24h-176v24c36 0 44 5 44 28v362h-56c-6 0 -10 4 -10 10v33h66v17c0 122 57 193 205 193c116 0 210 -55 210 -119c0 -29 -11 -39 -42 -39c-22 0 -45 8 -45 39
c0 45 -25 79 -123 79zM401 447l93 9c23 2 32 -9 32 -31v-499c0 -68 -20 -108 -70 -129c-62 -26 -124 -5 -133 38c-4 22 1 43 18 51c17 9 37 6 45 -4c6 -5 22 -56 39 -49c14 6 24 23 24 50v495c0 23 -8 31 -28 31h-20v38z" />
    <glyph glyph-name="f_k" horiz-adv-x="885" 
d="M592 264l208 -215c20 -20 27 -25 56 -25v-24h-166v24c36 0 35 12 28 19l-196 197v-188c0 -23 15 -28 32 -28v-24h-148v24c19 0 36 5 36 28v495c-13 39 -89 80 -147 80c-93 0 -119 -73 -119 -141v-29h140c-13 -39 -14 -43 -32 -43h-108v-362c0 -23 8 -28 52 -28v-24h-166
v24c26 0 34 5 34 28v362h-56c-6 0 -10 4 -10 10v33h66v17c0 109 58 193 199 193c37 0 82 -4 121 -11l82 11c15 2 24 -4 24 -19v-390l176 137c12 11 13 27 -28 27v29h158v-29c-36 0 -45 -7 -60 -20z" />
    <glyph glyph-name="ordfeminine" unicode="&#xaa;" horiz-adv-x="358" 
d="M281 518v-125c0 -22 11 -28 35 -18v-26l-44 -13c-21 -7 -42 17 -46 60c-12 -32 -42 -61 -91 -62c-48 -1 -92 20 -92 69c0 48 31 83 183 104v10c0 36 -9 85 -62 80c-13 -1 -19 -2 -32 -6c-21 -7 -11 -29 -16 -47c-3 -12 -20 -19 -37 -16c-17 2 -24 15 -18 38
c6 27 47 50 91 54c80 6 129 -30 129 -102zM147 363c47 0 67 38 79 60v64c-116 -17 -125 -57 -125 -83c0 -25 18 -41 46 -41zM54 270h249v-35h-249v35z" />
    <glyph glyph-name="ordmasculine" unicode="&#xba;" horiz-adv-x="356" 
d="M178 620c70 -1 136 -53 136 -141c0 -90 -66 -144 -136 -144c-69 0 -135 54 -135 139c0 93 66 145 135 146zM258 467c0 69 -40 126 -80 126c-50 0 -79 -29 -79 -107c0 -68 40 -123 79 -123c51 0 80 26 80 104zM54 270h249v-35h-249v35z" />
    <glyph glyph-name="uni0410" unicode="&#x410;" horiz-adv-x="702" 
d="M381 593l211 -478c31 -70 48 -77 90 -87v-28h-218v28c59 10 58 23 46 49l-59 139h-255l-54 -134c-11 -30 9 -44 58 -54v-28h-180v28c45 10 58 16 77 62l224 539l30 -8c12 -4 23 -11 30 -28zM212 254h223l-115 267z" />
    <glyph glyph-name="uni0411" unicode="&#x411;" horiz-adv-x="583" 
d="M171 381h136c129 0 233 -72 233 -190c0 -119 -99 -191 -242 -191h-283v38c46 2 68 12 68 35v488c0 23 -22 25 -68 23v37h438c13 0 25 -8 30 -23l24 -89h-29l-16 32c-14 28 -37 36 -80 37l-167 3c-30 0 -44 -3 -44 -23v-177zM239 38h76c93 0 127 64 127 153
c0 88 -34 154 -143 154h-128v-272c0 -23 22 -33 68 -35z" />
    <glyph glyph-name="uni0412" unicode="&#x412;" horiz-adv-x="607" 
d="M416 336c100 -18 156 -80 156 -159c0 -118 -88 -180 -237 -177l-88 2c-105 7 -149 6 -222 -2v35c46 10 65 25 65 48v459c0 23 -24 38 -64 44v35h288c138 0 224 -45 224 -147c0 -55 -39 -115 -122 -138zM175 581v-226h208c24 0 63 47 63 120c0 69 -38 106 -120 106h-151z
M204 43h125c100 0 151 34 151 134c0 88 -57 142 -237 142h-68v-235c0 -22 8 -41 29 -41z" />
    <glyph glyph-name="uni0413" unicode="&#x413;" horiz-adv-x="532" 
d="M483 598l24 -89h-29l-16 32c-14 28 -37 36 -80 37l-167 3c-30 0 -44 -3 -44 -23v-485c0 -23 22 -33 68 -35v-38h-224v38c46 2 68 12 68 35v488c0 23 -22 25 -68 23v37h438c13 0 25 -8 30 -23z" />
    <glyph glyph-name="uni0403" unicode="&#x403;" horiz-adv-x="532" 
d="M381 788l-143 -77c-10 -6 -17 -6 -23 2c-5 6 -2 15 8 23l113 110c22 22 44 18 56 -2c12 -21 12 -43 -11 -56zM483 598l24 -89h-29l-16 32c-14 28 -37 36 -80 37l-167 3c-30 0 -44 -3 -44 -23v-485c0 -23 22 -33 68 -35v-38h-224v38c46 2 68 12 68 35v488
c0 23 -22 25 -68 23v37h438c13 0 25 -8 30 -23z" />
    <glyph glyph-name="uni0490" unicode="&#x490;" horiz-adv-x="504" 
d="M448 695h31v-90c0 -15 -17 -23 -30 -23h-242c-23 -1 -36 -6 -36 -24v-485c0 -23 22 -33 68 -35v-38h-224v38c46 2 68 12 68 35v488c0 23 -22 25 -68 23v37h337c43 0 66 13 80 41z" />
    <glyph glyph-name="uni0414" unicode="&#x414;" horiz-adv-x="670" 
d="M627 621v-37c-49 0 -79 -8 -79 -28v-483c0 -31 20 -37 72 -38c8 0 11 -4 11 -12l-24 -188h-17c-7 0 -11 4 -11 11c0 108 21 154 -181 154h-127c-192 0 -200 -46 -200 -154c0 -7 -4 -11 -11 -11h-21v190c0 6 3 10 10 11c118 21 146 221 146 519c0 23 -20 29 -79 29v37h511
zM132 36h272c36 0 58 5 58 38v474c0 23 -22 28 -58 28h-114c-29 0 -51 -3 -51 -26c0 -267 -30 -476 -107 -514z" />
    <glyph glyph-name="uni0415" unicode="&#x415;" horiz-adv-x="572" 
d="M500 116h37c-16 -32 -24 -61 -32 -93c-4 -15 -17 -23 -30 -23h-440v29c35 11 53 14 53 49v468c0 35 -18 38 -53 49v26h437c13 0 17 -3 17 -18v-100h-29l-15 33c-13 28 -37 41 -80 41h-187v-239h181c33 0 38 23 51 55h18v-153h-18c-13 31 -18 57 -51 57h-181v-255l229 2
c46 0 48 14 67 39z" />
    <glyph glyph-name="uni0400" unicode="&#x400;" horiz-adv-x="572" 
d="M334 736l-113 110c-22 22 -44 18 -56 -2c-12 -21 -12 -43 11 -56l143 -77c10 -6 18 -6 23 2c5 6 2 15 -8 23zM500 116h37c-16 -32 -24 -61 -32 -93c-4 -15 -17 -23 -30 -23h-440v29c35 11 53 14 53 49v468c0 35 -18 38 -53 49v26h437c13 0 17 -3 17 -18v-100h-29l-15 33
c-13 28 -37 41 -80 41h-187v-239h181c33 0 38 23 51 55h18v-153h-18c-13 31 -18 57 -51 57h-181v-255l229 2c46 0 48 14 67 39z" />
    <glyph glyph-name="uni0401" unicode="&#x401;" horiz-adv-x="572" 
d="M178 739c-28 0 -52 24 -52 52s24 52 52 52s52 -24 52 -52s-24 -52 -52 -52zM367 739c-28 0 -52 24 -52 52s24 52 52 52s52 -24 52 -52s-24 -52 -52 -52zM500 116h37c-16 -32 -24 -61 -32 -93c-4 -15 -17 -23 -30 -23h-440v29c35 11 53 14 53 49v468c0 35 -18 38 -53 49
v26h437c13 0 17 -3 17 -18v-100h-29l-15 33c-13 28 -37 41 -80 41h-187v-239h181c33 0 38 23 51 55h18v-153h-18c-13 31 -18 57 -51 57h-181v-255l229 2c46 0 48 14 67 39z" />
    <glyph glyph-name="uni0416" unicode="&#x416;" horiz-adv-x="944" 
d="M594 338l190 -223c57 -67 78 -82 125 -87v-28h-215v28c28 5 49 19 27 44l-185 214h-21v-218c0 -23 21 -35 68 -40v-28h-223v28c48 5 69 17 69 40v218h-21l-188 -214c-22 -25 2 -39 30 -44v-28h-215v28c47 5 68 20 125 87l190 223l-165 215c-22 28 -39 5 -74 -19
c-34 -23 -64 8 -64 40c0 33 27 47 87 47c43 0 81 -34 111 -76l119 -164c27 -36 49 -42 64 -42h1v214c0 32 -21 34 -69 40v28h223v-28c-47 -7 -68 -8 -68 -40v-214h1c15 0 37 6 64 42l119 164c30 42 68 76 110 76c61 0 87 -14 87 -47c0 -32 -29 -63 -63 -40
c-35 24 -52 47 -74 19z" />
    <glyph glyph-name="uni0417" unicode="&#x417;" horiz-adv-x="594" 
d="M409 367c59 4 140 -56 140 -161c0 -131 -112 -218 -244 -218c-160 0 -254 78 -254 183c0 42 12 56 41 56c39 0 27 -34 46 -93c25 -72 80 -111 169 -111c83 0 155 55 155 164c0 81 -60 129 -118 129c-12 0 -26 -2 -38 -6l-41 -14l-14 34l43 17c77 30 121 77 121 141
c0 65 -34 110 -109 110c-74 0 -134 -37 -167 -123c-9 -21 -11 -33 -14 -42c-4 -11 -12 -15 -23 -11l-35 9l11 190h16c11 0 17 -6 19 -17c4 -22 12 -46 31 -46c32 43 74 79 155 79c128 0 199 -80 199 -146c0 -62 -42 -108 -89 -124z" />
    <glyph glyph-name="uni0418" unicode="&#x418;" horiz-adv-x="669" 
d="M632 621v-26c-35 -11 -56 -14 -56 -49v-474c0 -36 21 -38 56 -49v-23h-196v23c35 11 55 13 55 49v388l-311 -344v-44c0 -36 21 -38 56 -49v-23h-196v23c35 11 55 13 55 49v474c0 35 -20 38 -55 49v26h196v-26c-35 -11 -56 -14 -56 -49v-374l311 344v30
c0 35 -20 38 -55 49v26h196z" />
    <glyph glyph-name="uni0419" unicode="&#x419;" horiz-adv-x="669" 
d="M339 727c-80 0 -130 60 -134 123c0 8 5 11 10 11h14c7 0 10 -3 11 -11c4 -29 36 -61 99 -61s96 32 100 61c1 8 4 11 11 11h14c5 0 10 -3 10 -11c-4 -63 -55 -123 -135 -123zM632 621v-26c-35 -11 -56 -14 -56 -49v-474c0 -36 21 -38 56 -49v-23h-196v23
c35 11 55 13 55 49v388l-311 -344v-44c0 -36 21 -38 56 -49v-23h-196v23c35 11 55 13 55 49v474c0 35 -20 38 -55 49v26h196v-26c-35 -11 -56 -14 -56 -49v-374l311 344v30c0 35 -20 38 -55 49v26h196z" />
    <glyph glyph-name="uni040D" unicode="&#x40d;" horiz-adv-x="669" 
d="M383 711l-143 77c-23 13 -23 35 -11 56c12 20 34 24 56 2l113 -110c10 -8 13 -17 8 -23c-5 -8 -13 -8 -23 -2zM632 621v-26c-35 -11 -56 -14 -56 -49v-474c0 -36 21 -38 56 -49v-23h-196v23c35 11 55 13 55 49v388l-311 -344v-44c0 -36 21 -38 56 -49v-23h-196v23
c35 11 55 13 55 49v474c0 35 -20 38 -55 49v26h196v-26c-35 -11 -56 -14 -56 -49v-374l311 344v30c0 35 -20 38 -55 49v26h196z" />
    <glyph glyph-name="uni041A" unicode="&#x41a;" horiz-adv-x="636" 
d="M286 338l190 -223c57 -67 78 -82 125 -87v-28h-215v28c28 5 49 19 27 44l-185 214h-53v-218c0 -23 21 -35 68 -40v-28h-223v28c48 5 68 17 68 40v485c0 32 -20 34 -68 40v28h223v-28c-47 -7 -68 -8 -68 -40v-214h33c15 0 37 6 64 42l119 164c30 42 68 76 111 76
c61 0 87 -15 87 -47s-30 -64 -64 -40s-51 47 -73 19z" />
    <glyph glyph-name="uni041B" unicode="&#x41b;" horiz-adv-x="660" 
d="M621 621v-26c-35 -11 -55 -14 -55 -49v-474c0 -36 20 -38 55 -49v-23h-195v23c35 11 55 13 55 49v474c0 35 -18 39 -54 39h-195v-308c0 -117 16 -288 -118 -288c-45 0 -80 13 -91 50c-7 23 -2 50 17 59c22 11 53 5 58 -14c7 -28 -3 -67 29 -64c66 6 65 109 65 235l-1 302
c0 23 -16 28 -39 28h-60v36h529z" />
    <glyph glyph-name="uni041C" unicode="&#x41c;" horiz-adv-x="820" 
d="M780 621v-24c-36 -11 -49 -26 -49 -61v-463c0 -35 13 -39 49 -50v-23h-185v23c32 11 51 15 51 50v441l-225 -459c-13 -26 -22 -26 -36 0l-253 462v-444c0 -35 19 -39 53 -50v-23h-155v23c36 11 54 15 54 50v463c0 35 -18 50 -54 61v24h148l246 -453l226 453h130z" />
    <glyph glyph-name="uni041D" unicode="&#x41d;" horiz-adv-x="671" 
d="M643 621v-26c-35 -11 -53 -14 -53 -49v-474c0 -36 18 -38 53 -49v-23h-195v23c35 11 52 13 52 49v222h-328v-222c0 -36 17 -38 52 -49v-23h-195v23c35 11 53 13 53 49v474c0 35 -18 38 -53 49v26h195v-26c-35 -11 -52 -14 -52 -49v-210h328v210c0 35 -17 38 -52 49v26
h195z" />
    <glyph glyph-name="uni041E" unicode="&#x41e;" horiz-adv-x="650" 
d="M620 316c0 -189 -123 -331 -295 -331c-171 0 -295 148 -295 331s124 321 295 321c172 0 295 -136 295 -321zM323 31c119 0 201 52 201 255c0 190 -105 311 -199 311c-114 0 -198 -45 -198 -251c0 -198 101 -315 196 -315z" />
    <glyph glyph-name="uni041F" unicode="&#x41f;" horiz-adv-x="669" 
d="M632 621v-26c-35 -11 -56 -14 -56 -49v-474c0 -36 21 -38 56 -49v-23h-196v23c35 11 55 13 55 49v474c0 23 -9 32 -25 39h-261c-16 -7 -25 -16 -25 -39v-474c0 -36 21 -38 56 -49v-23h-196v23c35 11 55 13 55 49v474c0 35 -20 38 -55 49v26h592z" />
    <glyph glyph-name="uni0420" unicode="&#x420;" horiz-adv-x="559" 
d="M25 621h270c140 0 239 -72 239 -191c0 -118 -102 -187 -252 -187h-117v-171c0 -36 21 -38 56 -49v-23h-196v23c35 11 55 13 55 49v474c0 35 -20 38 -55 49v26zM165 276h131c109 0 141 69 141 154c0 87 -34 155 -128 155h-144v-309z" />
    <glyph glyph-name="uni0421" unicode="&#x421;" horiz-adv-x="625" 
d="M580 425l-28 -10c-11 -4 -19 0 -23 11c-3 9 -8 21 -14 36c-39 95 -111 134 -187 134c-103 0 -203 -80 -203 -253c0 -189 117 -309 223 -309c84 0 129 48 164 99c15 22 19 37 33 37c8 0 29 -12 33 -19c5 -10 -3 -23 -16 -44c-47 -79 -126 -122 -233 -122
c-166 0 -300 148 -300 335c0 174 128 317 289 317c84 0 144 -36 183 -82c17 0 25 23 29 49c2 11 8 17 19 17h20z" />
    <glyph glyph-name="uni0422" unicode="&#x422;" horiz-adv-x="584" 
d="M553 599l6 -91h-20l-13 33c-7 18 -22 30 -45 30h-145v-499c0 -36 20 -38 55 -49v-23h-197v23c35 11 56 13 56 49v499h-146c-23 0 -38 -12 -46 -30l-13 -33h-20l7 91c1 15 8 22 21 22h478c13 0 21 -7 22 -22z" />
    <glyph glyph-name="uni0423" unicode="&#x423;" horiz-adv-x="654" 
d="M639 621v-26c-41 -6 -49 -22 -68 -60l-188 -371c-66 -132 -98 -179 -165 -179c-58 0 -98 22 -108 55s9 58 38 58c63 0 33 -60 88 -60c43 0 54 29 81 85l-216 387c-35 64 -43 79 -86 85v26h203v-26c-34 -6 -52 -17 -43 -34l185 -349l167 339c11 25 -18 38 -56 44v26h168z
" />
    <glyph glyph-name="uni040E" unicode="&#x40e;" horiz-adv-x="654" 
d="M345 727c-80 0 -130 60 -134 123c0 8 5 11 10 11h14c7 0 10 -3 11 -11c4 -29 36 -61 99 -61s96 32 100 61c1 8 4 11 11 11h14c5 0 10 -3 10 -11c-4 -63 -55 -123 -135 -123zM639 621v-26c-41 -6 -49 -22 -68 -60l-188 -371c-66 -132 -98 -179 -165 -179
c-58 0 -98 22 -108 55s9 58 38 58c63 0 33 -60 88 -60c43 0 54 29 81 85l-216 387c-35 64 -43 79 -86 85v26h203v-26c-34 -6 -52 -17 -43 -34l185 -349l167 339c11 25 -18 38 -56 44v26h168z" />
    <glyph glyph-name="uni0424" unicode="&#x424;" horiz-adv-x="754" 
d="M465 94h-45v-22c0 -36 20 -38 55 -49v-23h-195v23c35 11 55 13 55 49v22h-45c-155 0 -245 93 -245 217c0 123 94 216 244 216h46v19c0 35 -20 38 -55 49v26h195v-26c-35 -11 -55 -14 -55 -49v-19h46c150 0 243 -93 243 -216c0 -124 -89 -217 -244 -217zM295 132h40v359
h-44c-102 0 -148 -87 -148 -180c0 -94 41 -179 152 -179zM464 491h-44v-359h40c111 0 152 85 152 179c0 93 -46 180 -148 180z" />
    <glyph glyph-name="uni0425" unicode="&#x425;" horiz-adv-x="672" 
d="M375 329l171 -216c45 -58 51 -79 96 -83v-30h-201v30c29 4 54 15 41 32l-176 222l-155 -212c-17 -24 5 -38 44 -42v-30h-176v30c43 4 59 21 86 58l173 231l-153 193c-43 54 -50 77 -95 82v27h200v-27c-29 -5 -52 -17 -41 -31l160 -202l137 192c14 21 -12 36 -52 41v27
h173v-27c-43 -5 -59 -25 -81 -57z" />
    <glyph glyph-name="uni0427" unicode="&#x427;" horiz-adv-x="611" 
d="M572 621v-26c-35 -11 -55 -14 -55 -49v-474c0 -36 20 -38 55 -49v-23h-195v23c35 11 55 13 55 49v235c-21 -35 -74 -103 -167 -103c-101 0 -180 34 -180 171v161c0 33 -9 57 -60 45l13 40h189v-36c-36 0 -58 -5 -58 -28v-174c0 -71 31 -130 105 -130c73 0 138 62 157 84
v221c-4 24 -24 27 -54 37v26h195z" />
    <glyph glyph-name="uni0426" unicode="&#x426;" horiz-adv-x="701" 
d="M651 37c8 0 11 -4 11 -12l-24 -190h-15c-7 0 -11 4 -11 11c0 108 17 154 -182 154h-390v23c35 11 55 13 55 49v474c0 35 -20 38 -55 49v26h196v-26c-35 -11 -56 -14 -56 -49v-474c0 -19 6 -29 17 -35h236c36 0 58 2 58 35v474c0 35 -20 38 -55 49v26h196v-26
c-35 -11 -56 -14 -56 -49v-474c0 -8 1 -15 3 -20c8 -13 28 -14 72 -15z" />
    <glyph glyph-name="uni0428" unicode="&#x428;" horiz-adv-x="869" 
d="M832 621v-26c-35 -11 -56 -14 -56 -49v-474c0 -36 21 -38 56 -49v-23h-792v23c35 11 55 13 55 49v474c0 35 -20 38 -55 49v26h196v-26c-35 -11 -56 -14 -56 -49v-474c0 -19 6 -29 17 -35h180c10 6 16 16 16 35v474c0 35 -20 38 -55 49v26h196v-26
c-35 -11 -56 -14 -56 -49v-474c0 -19 6 -29 17 -35h180c10 6 16 16 16 35v474c0 35 -20 38 -55 49v26h196z" />
    <glyph glyph-name="uni0429" unicode="&#x429;" horiz-adv-x="897" 
d="M846 37c8 0 11 -4 11 -12l-24 -190h-15c-7 0 -11 4 -11 11c0 108 19 154 -174 154h-590v23c35 11 55 13 55 49v474c0 35 -20 38 -55 49v26h195v-26c-35 -11 -55 -14 -55 -49v-474c0 -19 6 -29 16 -35h181c10 6 16 16 16 35v474c0 35 -20 38 -55 49v26h195v-26
c-35 -11 -55 -14 -55 -49v-474c0 -19 6 -29 16 -35h139c36 0 58 2 58 35v474c0 35 -20 38 -55 49v26h195v-26c-35 -11 -55 -14 -55 -49v-474c0 -15 3 -24 10 -30c11 -4 29 -5 57 -5z" />
    <glyph glyph-name="uni042F" unicode="&#x42f;" horiz-adv-x="628" 
d="M26 30h23c49 5 83 80 99 138c18 63 36 112 123 124c-105 23 -163 83 -163 159c0 99 84 170 224 170h261v-23c-35 -11 -53 -26 -53 -61v-465c0 -36 18 -38 53 -49v-23h-192v23c34 11 54 13 54 49v215h-76c-90 0 -113 -35 -134 -126c-22 -101 -78 -141 -115 -161h-104v30z
M323 320h132v265h-140c-78 0 -110 -66 -110 -134c0 -64 22 -131 118 -131z" />
    <glyph glyph-name="uni042C" unicode="&#x42c;" horiz-adv-x="580" 
d="M180 381h145c128 0 232 -72 232 -190c0 -119 -99 -191 -241 -191h-276v23c35 11 55 13 55 49v474c0 35 -20 38 -55 49v26h196v-26c-35 -11 -56 -14 -56 -49v-165zM197 37h135c94 0 128 65 128 154c0 88 -34 154 -144 154h-136v-273c0 -19 6 -29 17 -35z" />
    <glyph glyph-name="uni042A" unicode="&#x42a;" horiz-adv-x="677" 
d="M275 381h144c129 0 233 -72 233 -190c0 -119 -99 -191 -242 -191h-275v23c35 11 55 13 55 49v474c0 16 -4 25 -12 31l-51 -2c-43 -3 -68 -11 -82 -39l-16 -33l-29 2l24 93c4 15 17 23 30 23h276v-26c-35 -11 -55 -14 -55 -49v-165zM291 37h136c93 0 127 65 127 154
c0 88 -34 154 -143 154h-136v-273c0 -19 6 -29 16 -35z" />
    <glyph glyph-name="uni042B" unicode="&#x42b;" horiz-adv-x="843" 
d="M180 381h145c128 0 232 -72 232 -190c0 -119 -99 -191 -241 -191h-276v23c35 11 55 13 55 49v474c0 35 -20 38 -55 49v26h196v-26c-35 -11 -56 -14 -56 -49v-165zM806 621v-26c-35 -11 -56 -14 -56 -49v-474c0 -36 21 -38 56 -49v-23h-196v23c35 11 55 13 55 49v474
c0 35 -20 38 -55 49v26h196zM197 37h135c94 0 128 65 128 154c0 88 -34 154 -144 154h-136v-273c0 -19 6 -29 17 -35z" />
    <glyph glyph-name="uni0405" unicode="&#x405;" horiz-adv-x="544" 
d="M492 439l-29 -5c-13 -2 -21 1 -24 12l-11 40c-16 61 -87 113 -160 113c-85 0 -138 -67 -130 -130c9 -66 80 -87 138 -105c60 -19 223 -51 237 -181c15 -137 -121 -198 -232 -198c-110 0 -132 55 -194 34l-52 157l28 9c15 5 24 2 32 -13c7 -13 15 -27 22 -41
c29 -58 87 -99 165 -99c67 0 148 24 138 119c-8 83 -93 102 -167 127c-73 23 -180 52 -197 165c-12 89 64 195 212 195c128 0 150 -60 211 -72z" />
    <glyph glyph-name="uni0404" unicode="&#x404;" horiz-adv-x="625" 
d="M545 170c8 0 29 -12 33 -19c5 -10 -3 -23 -16 -44c-47 -79 -126 -122 -233 -122c-166 0 -300 148 -300 335c0 174 128 317 289 317c84 0 144 -36 183 -82c17 0 25 23 29 49c2 11 8 17 19 17h20l11 -196l-28 -10c-11 -4 -19 0 -23 11c-3 9 -8 21 -14 36
c-39 95 -111 134 -187 134c-103 0 -203 -80 -203 -253v-5h262v-43h-259c17 -161 123 -261 220 -261c84 0 129 48 164 99c15 22 19 37 33 37z" />
    <glyph glyph-name="uni042D" unicode="&#x42d;" horiz-adv-x="625" 
d="M307 637c161 0 289 -143 289 -317c0 -187 -133 -335 -300 -335c-107 0 -186 43 -233 122c-13 21 -20 34 -16 44c5 7 26 19 33 19c14 0 19 -15 33 -37c35 -51 80 -99 165 -99c97 0 202 100 219 261h-259v43h262v5c0 173 -100 253 -202 253c-77 0 -149 -39 -188 -134
c-6 -15 -11 -27 -14 -36c-4 -11 -12 -15 -23 -11l-28 10l11 196h21c11 0 17 -6 19 -17c4 -26 12 -49 29 -49c38 46 98 82 182 82z" />
    <glyph glyph-name="uni0406" unicode="&#x406;" horiz-adv-x="274" 
d="M180 546v-474c0 -36 21 -38 56 -49v-23h-196v23c35 11 55 13 55 49v474c0 35 -20 38 -55 49v26h196v-26c-35 -11 -56 -14 -56 -49z" />
    <glyph glyph-name="uni0407" unicode="&#x407;" horiz-adv-x="274" 
d="M40 739c-28 0 -52 24 -52 52s24 52 52 52s52 -24 52 -52s-24 -52 -52 -52zM229 739c-28 0 -52 24 -52 52s24 52 52 52s52 -24 52 -52s-24 -52 -52 -52zM180 546v-474c0 -36 21 -38 56 -49v-23h-196v23c35 11 55 13 55 49v474c0 35 -20 38 -55 49v26h196v-26
c-35 -11 -56 -14 -56 -49z" />
    <glyph glyph-name="uni0408" unicode="&#x408;" horiz-adv-x="335" 
d="M295 621v-26c-35 -11 -55 -14 -55 -49v-567c0 -103 -50 -143 -136 -143c-74 0 -109 46 -109 81c0 36 18 52 49 52s41 -22 41 -46c0 -22 10 -53 36 -53c24 0 34 24 34 57v619c0 35 -21 38 -56 49v26h196z" />
    <glyph glyph-name="uni042E" unicode="&#x42e;" horiz-adv-x="924" 
d="M599 637c172 0 295 -136 295 -321c0 -189 -123 -331 -295 -331c-164 0 -285 137 -294 310h-125v-223c0 -36 21 -38 56 -49v-23h-196v23c35 11 55 13 55 49v474c0 35 -20 38 -55 49v26h196v-26c-35 -11 -56 -14 -56 -49v-208h125c9 172 130 299 294 299zM597 31
c119 0 201 52 201 255c0 190 -105 311 -199 311c-114 0 -198 -45 -198 -251c0 -198 101 -315 196 -315z" />
    <glyph glyph-name="uni0430" unicode="&#x430;" horiz-adv-x="471" 
d="M396 297v-215c0 -36 17 -43 55 -36v-31c-26 -16 -52 -23 -70 -23c-29 0 -53 35 -60 100c-23 -48 -74 -101 -149 -102c-78 -1 -153 39 -153 121c0 77 52 133 298 167v12c0 87 -24 133 -94 133c-61 0 -90 -15 -90 -85c0 -19 -28 -27 -50 -27c-24 0 -38 16 -39 39
c0 74 87 110 183 110c111 0 169 -61 169 -163zM190 35c75 0 106 68 127 98v113c-189 -27 -213 -80 -213 -132c0 -46 32 -79 86 -79z" />
    <glyph glyph-name="uni0431" unicode="&#x431;" horiz-adv-x="488" 
d="M248 458c116 0 214 -91 214 -228c0 -143 -98 -240 -211 -240c-97 0 -186 65 -216 230c-37 199 22 401 217 401h124c25 0 34 13 51 19h18c-22 -86 -68 -97 -114 -97h-101c-119 0 -150 -73 -169 -202c37 74 108 117 187 117zM262 36c70 0 118 46 118 171
c0 120 -62 210 -144 210c-69 0 -117 -45 -117 -172c0 -120 61 -209 143 -209z" />
    <glyph glyph-name="uni0432" unicode="&#x432;" horiz-adv-x="480" 
d="M317 243c76 -13 122 -57 122 -115c0 -85 -65 -131 -170 -128l-56 2c-76 5 -126 4 -188 -2v37c43 7 57 18 57 35v318c0 16 -18 31 -57 31v30h217c101 0 173 -33 173 -108c0 -39 -34 -83 -98 -100zM162 421v-158h125c29 0 46 28 46 73c0 52 -30 85 -87 85h-84zM183 43
l74 -1c64 -1 101 23 101 86c0 64 -45 97 -156 97h-40v-152c0 -16 6 -30 21 -30z" />
    <glyph glyph-name="uni0433" unicode="&#x433;" horiz-adv-x="449" 
d="M400 428l24 -93l-29 -2l-16 33c-14 28 -37 53 -80 53h-85c-36 0 -58 0 -58 -24v-324c0 -23 22 -28 68 -33v-38h-209v38c36 5 58 10 58 33v323c0 23 -22 28 -58 28v29h355c13 0 26 -8 30 -23z" />
    <glyph glyph-name="uni0453" unicode="&#x453;" horiz-adv-x="449" 
d="M319 618l-143 -77c-10 -6 -17 -6 -23 2c-5 6 -2 15 8 23l113 110c22 22 44 18 56 -2c12 -21 12 -43 -11 -56zM400 428l24 -93l-29 -2l-16 33c-14 28 -37 53 -80 53h-85c-36 0 -58 0 -58 -24v-324c0 -23 22 -28 68 -33v-38h-209v38c36 5 58 10 58 33v323
c0 23 -22 28 -58 28v29h355c13 0 26 -8 30 -23z" />
    <glyph glyph-name="uni0491" unicode="&#x491;" horiz-adv-x="410" 
d="M356 525h29v-74c0 -20 -19 -32 -37 -32l-162 -1c-19 -1 -30 -6 -30 -23v-324c0 -23 22 -28 68 -33v-38h-209v38c36 5 58 10 58 33v323c0 23 -22 28 -58 28v29h245c43 0 66 13 80 41z" />
    <glyph glyph-name="uni0434" unicode="&#x434;" horiz-adv-x="613" 
d="M574 451v-29c-49 0 -79 -5 -79 -28v-318c0 -31 20 -37 72 -38c8 0 10 -4 11 -12l-24 -161h-18c-7 0 -11 4 -11 11c0 78 21 124 -174 124h-86c-189 0 -197 -46 -197 -124c0 -7 -4 -11 -11 -11h-22v163c0 6 3 10 10 11c118 20 141 199 141 354c0 23 -20 29 -79 29v29h467z
M135 38h219c36 0 58 5 58 38v315c0 23 -10 29 -36 29h-112c-24 0 -31 -4 -31 -27c0 -177 -31 -315 -98 -355z" />
    <glyph glyph-name="uni0435" unicode="&#x435;" 
d="M433 275c0 -38 -19 -52 -56 -52h-259c0 -113 70 -187 146 -187c71 0 107 42 131 74l27 -35c-25 -33 -66 -85 -174 -85c-123 0 -218 101 -218 240c0 147 94 228 209 228c100 0 194 -71 194 -183zM118 264h231c1 90 -38 156 -110 156c-77 0 -121 -66 -121 -156z" />
    <glyph glyph-name="uni0450" unicode="&#x450;" 
d="M292 566l-113 110c-22 22 -44 18 -56 -2c-12 -21 -12 -43 11 -56l143 -77c10 -6 18 -6 23 2c5 6 2 15 -8 23zM433 275c0 -38 -19 -52 -56 -52h-259c0 -113 70 -187 146 -187c71 0 107 42 131 74l27 -35c-25 -33 -66 -85 -174 -85c-123 0 -218 101 -218 240
c0 147 94 228 209 228c100 0 194 -71 194 -183zM118 264h231c1 90 -38 156 -110 156c-77 0 -121 -66 -121 -156z" />
    <glyph glyph-name="uni0451" unicode="&#x451;" 
d="M136 569c-28 0 -52 24 -52 52s24 52 52 52s52 -24 52 -52s-24 -52 -52 -52zM325 569c-28 0 -52 24 -52 52s24 52 52 52s52 -24 52 -52s-24 -52 -52 -52zM433 275c0 -38 -19 -52 -56 -52h-259c0 -113 70 -187 146 -187c71 0 107 42 131 74l27 -35
c-25 -33 -66 -85 -174 -85c-123 0 -218 101 -218 240c0 147 94 228 209 228c100 0 194 -71 194 -183zM118 264h231c1 90 -38 156 -110 156c-77 0 -121 -66 -121 -156z" />
    <glyph glyph-name="uni0436" unicode="&#x436;" horiz-adv-x="728" 
d="M476 242l132 -155c45 -52 61 -55 85 -59v-28h-165v28c22 4 34 9 26 17l-128 156h-21v-140c0 -23 22 -28 47 -33v-28h-174v28c25 5 48 10 48 33v140h-25l-127 -156c-8 -8 4 -13 26 -17v-28h-165v28c24 4 40 7 84 59l133 155l-109 158c-10 14 -23 3 -50 -14
c-28 -19 -52 11 -52 32c0 22 21 34 56 34c45 0 73 -23 93 -53l84 -125c17 -26 34 -28 43 -28h9v146c0 23 -23 28 -48 33v26h174v-26c-25 -5 -47 -10 -47 -33v-146h5c9 0 26 2 43 28l84 125c20 30 48 53 93 53c35 0 56 -12 56 -34c0 -21 -24 -51 -52 -32
c-27 17 -40 28 -50 14z" />
    <glyph glyph-name="uni0437" unicode="&#x437;" horiz-adv-x="444" 
d="M310 268c48 -8 89 -50 89 -119c0 -93 -88 -157 -181 -157c-105 0 -172 65 -173 140c0 23 8 35 31 35c38 0 24 -31 42 -74c16 -39 46 -57 101 -57c59 0 105 36 105 99c0 59 -40 92 -75 92c-7 0 -19 -1 -33 -6l-28 -11l-13 32l35 14c52 20 76 52 76 95c0 40 -19 75 -72 75
c-64 0 -91 -31 -107 -90c-5 -19 -10 -43 -31 -37l-28 10l8 140h17c28 0 14 -34 31 -43c23 28 58 54 115 54c95 0 144 -59 144 -108c0 -35 -25 -67 -53 -84z" />
    <glyph glyph-name="uni0438" unicode="&#x438;" horiz-adv-x="570" 
d="M531 451v-26c-25 -5 -47 -10 -47 -33v-336c0 -23 22 -28 47 -33v-23h-172v23c25 5 48 10 48 33v272l-244 -246v-26c0 -23 22 -28 47 -33v-23h-171v23c25 5 48 10 48 33v336c0 23 -23 28 -48 33v26h171v-26c-25 -5 -47 -10 -47 -33v-258l244 250v8c0 23 -23 28 -48 33v26
h172z" />
    <glyph glyph-name="uni0439" unicode="&#x439;" horiz-adv-x="570" 
d="M298 557c-80 0 -130 60 -134 123c0 8 5 11 10 11h14c7 0 10 -3 11 -11c4 -29 36 -61 99 -61s96 32 100 61c1 8 4 11 11 11h14c5 0 10 -3 10 -11c-4 -63 -55 -123 -135 -123zM531 451v-26c-25 -5 -47 -10 -47 -33v-336c0 -23 22 -28 47 -33v-23h-172v23c25 5 48 10 48 33
v272l-244 -246v-26c0 -23 22 -28 47 -33v-23h-171v23c25 5 48 10 48 33v336c0 23 -23 28 -48 33v26h171v-26c-25 -5 -47 -10 -47 -33v-258l244 250v8c0 23 -23 28 -48 33v26h172z" />
    <glyph glyph-name="uni043A" unicode="&#x43a;" horiz-adv-x="480" 
d="M223 242l148 -154c47 -48 60 -59 84 -62v-26h-164v26c22 3 33 11 25 20l-139 155h-32v-145c0 -23 22 -28 47 -33v-23h-172v23c25 5 48 10 48 33v336c0 23 -23 28 -48 33v26h172v-28c-35 -7 -47 -10 -47 -33v-144h16c9 0 23 3 43 28l96 125c23 29 48 53 81 53
c47 0 68 -12 68 -34c0 -21 -24 -51 -52 -32c-27 17 -39 27 -49 14z" />
    <glyph glyph-name="uni043B" unicode="&#x43b;" horiz-adv-x="592" 
d="M553 451v-27c-36 -1 -71 -6 -71 -32v-326c0 -30 32 -33 71 -43v-23h-219v23c36 10 58 13 58 43v325c0 26 -12 31 -38 31h-123v-157c0 -117 12 -276 -119 -276c-44 0 -78 13 -89 50c-6 22 -2 50 17 59c20 10 53 5 58 -14c7 -28 -3 -65 29 -62c64 6 66 95 65 221l-1 149
c0 23 -20 30 -92 30v29h454z" />
    <glyph glyph-name="uni043C" unicode="&#x43c;" horiz-adv-x="605" 
d="M565 451v-24c-26 -7 -35 -14 -35 -38v-336c0 -23 7 -24 35 -32v-21h-151v21c29 9 38 10 38 32v283l-146 -301c-7 -15 -20 -15 -28 0l-167 301v-283c0 -22 10 -23 41 -32v-21h-122v21c28 8 38 9 38 32v336c0 24 -12 31 -38 38v24h113c47 -108 107 -221 167 -319
c47 97 101 211 148 319h107z" />
    <glyph glyph-name="uni043D" unicode="&#x43d;" horiz-adv-x="545" 
d="M521 451v-26c-25 -5 -47 -10 -47 -33v-336c0 -23 22 -28 47 -33v-23h-172v23c25 5 48 10 48 33v155h-244v-155c0 -23 22 -28 47 -33v-23h-171v23c25 5 48 10 48 33v336c0 23 -23 28 -48 33v26h171v-26c-25 -5 -47 -10 -47 -33v-146h244v146c0 23 -23 28 -48 33v26h172z
" />
    <glyph glyph-name="uni043E" unicode="&#x43e;" horiz-adv-x="485" 
d="M241 458c117 0 214 -91 214 -228c0 -143 -97 -240 -210 -240c-116 0 -215 97 -215 232c0 145 99 236 211 236zM374 207c0 120 -63 210 -144 210c-69 0 -117 -45 -117 -172c0 -120 61 -209 143 -209c70 0 118 46 118 171z" />
    <glyph glyph-name="uni043F" unicode="&#x43f;" horiz-adv-x="570" 
d="M531 451v-26c-25 -5 -47 -10 -47 -33v-336c0 -23 22 -28 47 -33v-23h-172v23c25 5 48 10 48 33v334c0 20 -9 29 -28 32h-189c-18 -3 -27 -12 -27 -32v-334c0 -23 22 -28 47 -33v-23h-171v23c25 5 48 10 48 33v336c0 23 -23 28 -48 33v26h492z" />
    <glyph glyph-name="uni0440" unicode="&#x440;" horiz-adv-x="515" 
d="M304 462c115 0 184 -84 184 -235c0 -150 -86 -233 -184 -233c-77 0 -126 42 -146 77v-200c0 -23 16 -28 50 -28v-27h-176v27c32 0 47 5 47 28v492c0 33 -21 44 -59 39v41l111 17c36 6 36 -36 22 -79c21 22 70 81 151 81zM294 35c73 0 112 55 112 179
c0 97 -33 191 -111 191s-106 -31 -137 -71v-191c19 -54 63 -108 136 -108z" />
    <glyph glyph-name="uni0441" unicode="&#x441;" horiz-adv-x="454" 
d="M392 105l19 -19c-19 -37 -68 -94 -186 -94c-108 0 -200 95 -200 234c0 151 96 234 206 234c117 0 175 -64 175 -128c0 -18 -15 -35 -43 -35c-26 0 -44 10 -44 32c0 57 3 90 -76 90c-99 0 -134 -48 -134 -173c0 -103 60 -204 157 -205c71 0 80 29 106 62c6 10 14 9 20 2z
" />
    <glyph glyph-name="uni0442" unicode="&#x442;" horiz-adv-x="469" 
d="M442 428l7 -75h-20l-16 33c-9 18 -23 33 -46 33h-94v-363c0 -23 22 -28 47 -33v-23h-171v23c25 5 48 10 48 33v363h-95c-23 0 -37 -15 -46 -33l-16 -33h-20l7 75c1 15 9 23 22 23h371c13 0 21 -8 22 -23z" />
    <glyph glyph-name="uni0443" unicode="&#x443;" horiz-adv-x="518" 
d="M498 451v-25l-14 -6c-18 -8 -35 -11 -42 -27l-198 -477c-33 -80 -60 -131 -127 -131c-44 0 -78 21 -84 55c-6 35 7 56 45 56c53 0 13 -57 60 -57c26 0 40 39 52 66l48 116l-177 372c-9 18 -18 22 -33 27l-18 6v25h185v-25l-25 -5c-16 -3 -30 -11 -22 -28l129 -281
l111 281c6 15 -8 25 -23 28l-28 5v25h161z" />
    <glyph glyph-name="uni045E" unicode="&#x45e;" horiz-adv-x="518" 
d="M263 557c-80 0 -130 60 -134 123c0 8 5 11 10 11h14c7 0 10 -3 11 -11c4 -29 36 -61 99 -61s96 32 100 61c1 8 4 11 11 11h14c5 0 10 -3 10 -11c-4 -63 -55 -123 -135 -123zM498 451v-25l-14 -6c-18 -8 -35 -11 -42 -27l-198 -477c-33 -80 -60 -131 -127 -131
c-44 0 -78 21 -84 55c-6 35 7 56 45 56c53 0 13 -57 60 -57c26 0 40 39 52 66l48 116l-177 372c-9 18 -18 22 -33 27l-18 6v25h185v-25l-25 -5c-16 -3 -30 -11 -22 -28l129 -281l111 281c6 15 -8 25 -23 28l-28 5v25h161z" />
    <glyph glyph-name="uni0444" unicode="&#x444;" horiz-adv-x="674" 
d="M494 457c79 0 152 -95 152 -228c0 -153 -70 -235 -153 -235c-67 0 -100 61 -114 92v-215c0 -23 22 -28 47 -33v-22h-172v22c25 5 48 10 48 33v215c-14 -31 -47 -92 -114 -92c-82 0 -153 82 -153 235c0 133 74 228 152 228c72 0 94 -44 115 -93v195c0 33 -21 44 -59 39v39
l107 19c37 6 29 -30 29 -74v-218c21 49 43 93 115 93zM201 46c52 0 83 43 101 88v184c-27 69 -65 98 -105 98c-47 0 -82 -65 -82 -187c0 -100 34 -183 86 -183zM480 46c53 0 87 83 87 183c0 122 -35 187 -83 187c-40 0 -78 -29 -105 -98v-184c18 -45 49 -88 101 -88z" />
    <glyph glyph-name="uni0445" unicode="&#x445;" horiz-adv-x="544" 
d="M490 34l29 -5v-29h-201v29l29 4c20 2 34 6 16 28l-108 134l-96 -129c-15 -18 -5 -31 13 -33l23 -4v-29h-170v29l29 5c16 2 27 5 50 33l126 159l-121 151c-26 33 -41 35 -62 40l-21 5v29c70 -2 130 -2 200 0v-29l-28 -4c-13 -2 -18 -9 -3 -30l85 -109l83 103
c23 26 9 33 -6 36l-23 4v29c58 -2 110 -2 168 0v-29l-24 -5c-21 -4 -42 -10 -78 -53l-95 -118l141 -181c21 -26 32 -29 44 -31z" />
    <glyph glyph-name="uni0447" unicode="&#x447;" horiz-adv-x="553" 
d="M515 451v-28c-35 -7 -47 -10 -47 -33v-334c0 -23 22 -28 47 -33v-23h-172v23c25 5 48 10 48 33v168c-12 -33 -62 -107 -141 -107c-103 0 -176 36 -176 178v73c0 37 -8 52 -54 57l7 26h189v-26c-36 -5 -58 -8 -58 -33v-99c0 -76 37 -121 102 -121c64 0 113 54 131 78v142
c0 23 -23 28 -48 33v26h172z" />
    <glyph glyph-name="uni0446" unicode="&#x446;" horiz-adv-x="602" 
d="M561 38c8 0 11 -4 11 -12l-24 -161h-18c-7 0 -11 4 -11 11c0 78 21 124 -181 124h-303v23c25 5 48 10 48 33v336c0 23 -23 28 -48 33v26h172v-26c-25 -5 -47 -10 -47 -33v-332c0 -23 22 -32 47 -32h136c17 0 31 1 42 5c11 5 19 15 19 32v327c0 23 -23 28 -48 33v26h171
v-26c-25 -5 -47 -10 -47 -33v-316c0 -31 20 -37 81 -38z" />
    <glyph glyph-name="uni0448" unicode="&#x448;" horiz-adv-x="709" 
d="M670 451v-26c-25 2 -47 -3 -47 -26v-348c0 -23 22 -28 47 -27v-24h-631v24c25 -1 48 4 48 27v348c0 23 -23 28 -48 26v26h171v-26c-25 2 -47 -3 -47 -26v-348c0 -23 12 -27 37 -27h79c25 0 38 4 38 27v348c0 23 -23 28 -48 26v26h171v-26c-25 2 -47 -3 -47 -26v-348
c0 -23 12 -27 37 -27h78c25 0 38 4 38 27v348c0 23 -23 28 -48 26v26h172z" />
    <glyph glyph-name="uni0449" unicode="&#x449;" horiz-adv-x="754" 
d="M704 38c8 0 11 -4 11 -12l-24 -161h-18c-7 0 -11 4 -11 11c0 78 21 124 -181 124h-442v24c25 -1 48 4 48 27v348c0 23 -23 28 -48 26v26h171v-26c-25 2 -47 -3 -47 -26v-348c0 -23 12 -27 37 -27h79c25 0 38 4 38 27v348c0 23 -23 28 -48 26v26h171v-26
c-25 2 -47 -3 -47 -26v-348c0 -23 12 -27 37 -27h56c36 0 60 5 60 38v337c0 23 -23 28 -48 26v26h172v-26c-25 2 -47 -3 -47 -26v-323c0 -31 20 -37 81 -38z" />
    <glyph glyph-name="uni044F" unicode="&#x44f;" horiz-adv-x="467" 
d="M437 451v-29c-26 0 -38 -12 -38 -40v-331c0 -22 9 -23 38 -31v-20h-150v20c28 8 36 9 36 31v145h-62c-55 0 -70 -20 -86 -81c-18 -71 -45 -110 -89 -115h-71v29h13c28 0 56 48 64 92c7 39 23 76 89 85c-93 16 -127 60 -127 117c0 74 59 128 163 128h220zM323 230v189
h-119c-46 0 -66 -42 -66 -96c0 -49 14 -93 72 -93h113z" />
    <glyph glyph-name="uni044C" unicode="&#x44c;" horiz-adv-x="495" 
d="M163 341h72c135 0 238 -67 238 -170c0 -104 -103 -171 -237 -171h-197v23c25 5 48 10 48 33v336c0 23 -23 28 -48 33v26h171v-28c-35 -7 -47 -10 -47 -33v-49zM200 24h52c88 0 121 74 121 147c0 71 -33 139 -142 139h-68v-254c0 -23 12 -32 37 -32z" />
    <glyph glyph-name="uni044A" unicode="&#x44a;" horiz-adv-x="593" 
d="M259 341h71c135 0 238 -67 238 -170c0 -104 -103 -171 -237 -171h-197v23c25 5 48 10 48 33v336c0 20 -3 30 -20 31l-37 -1c-40 -1 -63 -9 -77 -37l-16 -32h-32l24 75c5 15 17 23 30 23h205v-110zM296 24h51c88 0 121 74 121 147c0 71 -33 139 -142 139h-67v-254
c0 -23 12 -32 37 -32z" />
    <glyph glyph-name="uni044B" unicode="&#x44b;" horiz-adv-x="754" 
d="M163 341h72c135 0 238 -67 238 -170c0 -104 -103 -171 -237 -171h-197v23c25 5 48 10 48 33v336c0 23 -23 28 -48 33v26h171v-28c-35 -7 -47 -10 -47 -33v-49zM715 451v-28c-35 -7 -47 -10 -47 -33v-334c0 -23 22 -28 47 -33v-23h-171v23c25 5 48 10 48 33v336
c0 23 -23 28 -48 33v26h171zM200 24h52c88 0 121 74 121 147c0 71 -33 139 -142 139h-68v-254c0 -23 12 -32 37 -32z" />
    <glyph glyph-name="uni0455" unicode="&#x455;" horiz-adv-x="435" 
d="M406 124c0 -84 -80 -134 -192 -134c-100 0 -171 51 -178 72c-20 61 -9 81 11 85c47 9 49 -1 51 -19c9 -67 46 -98 116 -98c78 0 110 34 110 80c0 43 -67 70 -125 88c-64 20 -158 67 -158 141c0 67 52 118 172 118c96 0 164 -52 166 -72c6 -69 -10 -84 -24 -84
c-40 -3 -54 10 -51 31c7 52 -20 86 -91 86c-68 0 -97 -33 -97 -70c0 -47 69 -68 119 -84c67 -21 171 -50 171 -140z" />
    <glyph glyph-name="uni0454" unicode="&#x454;" horiz-adv-x="481" 
d="M418 130c28 -16 18 -26 9 -41c-35 -59 -86 -97 -179 -97c-120 0 -219 95 -219 242c0 125 91 226 211 226c64 0 109 -27 134 -58c16 26 -2 46 31 46h22l8 -145l-25 -11c-27 -7 -27 12 -37 37c-26 67 -75 93 -136 93c-65 0 -123 -43 -123 -174v-2h154v-35h-152
c11 -114 77 -178 149 -178c48 0 76 18 103 62c11 18 21 51 50 35z" />
    <glyph glyph-name="uni044D" unicode="&#x44d;" horiz-adv-x="481" 
d="M241 460c120 0 211 -101 211 -226c0 -147 -99 -242 -219 -242c-93 0 -144 38 -179 97c-9 15 -18 25 9 41c29 16 39 -17 50 -35c27 -44 55 -62 103 -62c72 0 138 64 149 178h-152v35h154v2c0 131 -58 174 -123 174c-61 0 -110 -26 -136 -93c-10 -25 -10 -44 -37 -37
l-25 11l8 145h22c33 0 15 -20 31 -46c25 31 70 58 134 58z" />
    <glyph glyph-name="uni0456" unicode="&#x456;" horiz-adv-x="250" 
d="M125 572c-26 0 -49 22 -49 49c0 26 23 48 49 48s49 -22 49 -48c0 -27 -23 -49 -49 -49zM167 425v-372c0 -23 17 -28 43 -28v-25h-165v25c27 0 44 5 44 28v325c0 23 -8 31 -28 31h-20v38l94 9c23 2 32 -9 32 -31z" />
    <glyph glyph-name="uni0457" unicode="&#x457;" horiz-adv-x="244" 
d="M13 569c-28 0 -52 24 -52 52s24 52 52 52s52 -24 52 -52s-24 -52 -52 -52zM202 569c-28 0 -52 24 -52 52s24 52 52 52s52 -24 52 -52s-24 -52 -52 -52zM161 425v-372c0 -23 17 -28 43 -28v-25h-165v25c27 0 44 5 44 28v325c0 23 -8 31 -28 31h-20v38l94 9
c23 2 32 -9 32 -31z" />
    <glyph glyph-name="uni0458" unicode="&#x458;" horiz-adv-x="219" 
d="M111 572c-26 0 -49 22 -49 49c0 26 23 48 49 48s49 -22 49 -48c0 -27 -23 -49 -49 -49zM28 447l93 9c23 2 32 -9 32 -31v-499c0 -68 -20 -108 -70 -129c-62 -26 -124 -5 -133 38c-5 22 1 43 17 51c18 9 38 6 46 -4c6 -5 22 -56 39 -49c14 6 24 23 24 50v495
c0 23 -8 31 -28 31h-20v38z" />
    <glyph glyph-name="uni044E" unicode="&#x44e;" horiz-adv-x="717" 
d="M473 458c117 0 214 -91 214 -228c0 -143 -97 -240 -210 -240s-210 92 -215 221h-99v-155c0 -23 22 -28 47 -33v-23h-171v23c25 5 48 10 48 33v336c0 23 -23 28 -48 33v26h171v-26c-25 -5 -47 -10 -47 -33v-146h100c10 131 104 212 210 212zM488 36c70 0 118 46 118 171
c0 120 -63 210 -144 210c-69 0 -117 -45 -117 -172c0 -120 61 -209 143 -209z" />
    <glyph glyph-name="Delta" unicode="&#x394;" horiz-adv-x="594" 
d="M574 0h-554l280 634zM91 72h361l-176 426z" />
    <glyph glyph-name="Omega" unicode="&#x3a9;" horiz-adv-x="679" 
d="M613 115h26l-21 -92c-4 -15 -17 -23 -30 -23h-172v118c73 7 119 91 119 235c0 153 -81 243 -195 243s-196 -90 -196 -243c0 -144 46 -228 120 -235v-118h-172c-13 0 -27 8 -30 23l-22 92h27l17 -27c16 -27 36 -39 69 -41l68 -3c12 -1 15 8 12 33
c-103 28 -188 142 -188 266c0 151 128 294 295 294s295 -143 295 -294c0 -115 -86 -237 -190 -266c-3 -25 0 -34 14 -33l55 3c46 2 66 14 82 41z" />
    <glyph glyph-name="mu" unicode="&#x3bc;" horiz-adv-x="537" 
d="M456 441v-359c0 -36 17 -42 56 -36v-31l-53 -21c-38 -14 -73 23 -82 116v2c-13 -38 -57 -120 -148 -120c-52 0 -93 16 -122 47c6 -138 60 -144 56 -172c-11 -74 -95 -100 -95 -12v529c0 23 -8 32 -28 32h-15v28l99 16c14 1 23 -4 23 -19v-284c0 -85 32 -114 102 -114
c71 0 107 56 128 127v214c0 23 -7 32 -27 32h-15v28l98 16c16 3 23 -4 23 -19z" />
    <glyph glyph-name="pi" unicode="&#x3c0;" horiz-adv-x="719" 
d="M628 96c17 -9 22 -33 16 -55c-14 -44 -73 -67 -138 -39c-50 22 -71 60 -71 128v259h-137v-273c0 -79 -56 -122 -106 -122c-21 0 -44 2 -66 10l-13 31c51 -12 103 19 103 83v271h-57c-30 0 -51 -29 -38 -81l-36 8c-8 22 -12 37 -12 58c0 45 33 77 79 77h465v-62h-73
c-20 0 -28 -8 -28 -31v-276c0 -27 10 -43 24 -49c17 -7 30 46 37 57c9 12 30 17 51 6z" />
    <glyph glyph-name="zero" unicode="0" horiz-adv-x="562" 
d="M527 313c0 -160 -76 -325 -246 -325s-246 165 -246 325c0 159 76 323 246 323s246 -164 246 -323zM281 25c114 0 150 96 150 288c0 191 -36 287 -150 287s-150 -96 -150 -287c0 -192 36 -288 150 -288z" />
    <glyph glyph-name="one" unicode="1" horiz-adv-x="311" 
d="M201 609v-547c0 -23 47 -28 75 -34v-28h-231v28c30 6 75 11 75 34v453c0 23 -9 37 -29 31l-51 -14v34l132 59c23 10 29 -1 29 -16z" />
    <glyph glyph-name="two" unicode="2" horiz-adv-x="579" 
d="M534 122l-23 -99c-4 -15 -17 -23 -30 -23h-436c30 155 141 255 228 313c71 47 137 75 137 157c0 71 -53 125 -128 125c-72 0 -119 -34 -131 -89c-13 -60 9 -78 5 -102c-12 -25 -29 -35 -50 -35c-27 0 -50 23 -50 47c0 125 81 221 229 221c143 0 212 -73 212 -180
c0 -109 -98 -155 -180 -207c-90 -57 -147 -83 -195 -177l294 -2c43 0 61 3 79 29l16 22h23z" />
    <glyph glyph-name="three" unicode="3" horiz-adv-x="575" 
d="M392 371c60 5 138 -66 138 -165c0 -121 -110 -218 -242 -218c-141 0 -229 71 -237 184c-3 37 17 51 42 51c60 0 31 -34 55 -99c24 -63 60 -100 145 -100c76 0 148 64 148 163c0 93 -64 135 -122 135c-12 0 -26 -2 -38 -6l-41 -14l-13 33l43 17c76 30 123 72 123 138
c0 67 -38 108 -111 108c-70 0 -97 -38 -104 -90c-4 -31 0 -33 -4 -54c-35 -40 -93 -17 -93 30c0 70 72 153 201 153c131 0 197 -80 197 -146c0 -59 -39 -100 -87 -120z" />
    <glyph glyph-name="four" unicode="4" horiz-adv-x="558" 
d="M508 204h-101v-143c0 -23 36 -28 64 -33v-28h-213v28c29 5 62 10 62 33v143h-284v27l330 405c15 19 41 11 41 -9v-381h101v-42zM92 246h228v265z" />
    <glyph glyph-name="five" unicode="5" horiz-adv-x="577" 
d="M527 205c0 -120 -107 -217 -244 -217c-139 0 -229 71 -237 186c-3 35 18 49 44 49c57 0 29 -34 53 -99c24 -62 59 -99 140 -99c79 0 150 63 150 162c0 106 -74 189 -169 189c-78 0 -115 -30 -146 -48h-34l22 293h336l17 13l17 1l-8 -77l-17 -15h-311l-13 -180
c35 35 100 58 163 58c105 0 237 -63 237 -216z" />
    <glyph glyph-name="six" unicode="6" horiz-adv-x="538" 
d="M427 581l-8 -11c-4 -6 -11 -6 -18 -3c-38 19 -56 29 -98 29c-125 0 -161 -143 -170 -270c16 20 76 63 148 63c117 0 212 -76 212 -193c0 -100 -76 -208 -218 -208c-175 0 -231 147 -230 293c1 158 82 355 253 355c54 0 93 -12 127 -37c7 -5 7 -11 2 -18zM135 281
c-7 -169 52 -253 140 -253c97 0 132 76 132 171c0 89 -46 150 -123 150s-148 -51 -149 -68z" />
    <glyph glyph-name="seven" unicode="7" horiz-adv-x="538" 
d="M423 545h-339l-21 -45h-23l22 98c3 14 14 23 28 23h413l-315 -626h-16c-17 0 -32 16 -22 34z" />
    <glyph glyph-name="eight" unicode="8" horiz-adv-x="573" 
d="M380 348c86 -29 143 -79 143 -182c0 -94 -100 -180 -239 -180c-146 0 -234 93 -234 190c0 77 41 139 128 169c-64 24 -93 77 -93 131c0 77 69 152 200 152c122 0 191 -73 191 -154c0 -46 -32 -101 -96 -126zM265 372l53 -12c54 -12 99 62 99 116c0 52 -24 116 -134 116
c-95 0 -111 -68 -111 -116c0 -46 20 -87 93 -104zM428 172c0 68 -35 108 -133 130l-78 18c-44 10 -99 -60 -99 -144c0 -73 53 -153 165 -153c109 0 145 75 145 149z" />
    <glyph glyph-name="nine" unicode="9" horiz-adv-x="538" 
d="M111 46l8 12c4 5 11 6 18 3c38 -20 56 -29 98 -29c125 0 161 142 170 269c-16 -20 -76 -62 -148 -62c-117 0 -212 76 -212 192c0 101 76 208 218 208c175 0 231 -146 230 -292c-1 -158 -82 -356 -253 -356c-54 0 -93 12 -127 37c-7 5 -7 11 -2 18zM403 346
c7 169 -52 253 -140 253c-97 0 -132 -76 -132 -171c0 -88 46 -150 123 -150s148 51 149 68z" />
    <glyph glyph-name="zero.osf" horiz-adv-x="517" 
d="M259 460c116 0 223 -88 223 -230c0 -146 -107 -238 -223 -238s-224 90 -224 230c0 148 108 238 224 238zM398 210c0 120 -72 211 -136 211c-91 0 -142 -44 -142 -179c0 -117 71 -208 137 -208c89 0 141 43 141 176z" />
    <glyph glyph-name="one.osf" horiz-adv-x="344" 
d="M214 442v-379c0 -23 54 -29 95 -35v-28h-270v28c42 6 94 12 94 35v284c0 23 -9 37 -29 31l-51 -14v35l131 59c23 10 30 -1 30 -16z" />
    <glyph glyph-name="two.osf" horiz-adv-x="532" 
d="M487 120l-23 -97c-3 -15 8 -23 -25 -23h-394l121 94c111 86 195 155 195 218c0 66 -37 106 -105 106c-66 0 -93 -40 -99 -87c-4 -31 0 -33 -4 -54c-34 -35 -89 -15 -89 30c0 70 72 153 192 153c119 0 192 -70 192 -160c0 -93 -156 -180 -256 -235l178 4c43 0 63 5 81 31
l14 20h22z" />
    <glyph glyph-name="three.osf" horiz-adv-x="548" 
d="M497 41c0 -132 -103 -241 -252 -241c-91 0 -148 32 -184 99c-8 35 31 67 70 37c20 -57 53 -97 126 -97c83 0 151 71 151 183c0 79 -56 120 -102 120c-12 0 -26 -3 -38 -7l-40 -15l-12 33l41 15c69 26 119 71 119 144c0 70 -43 109 -107 109c-89 0 -112 -90 -125 -146
c-37 -14 -78 10 -78 33c0 73 83 152 192 152c130 0 202 -70 202 -149c0 -67 -45 -113 -93 -125c49 5 130 -53 130 -145z" />
    <glyph glyph-name="four.osf" horiz-adv-x="557" 
d="M507 1h-100v-124c0 -23 36 -28 74 -33v-28h-233v28c39 5 73 10 73 33v124h-285v28l330 407c15 19 41 11 41 -10v-383h100v-42zM96 43h225v268z" />
    <glyph glyph-name="five.osf" horiz-adv-x="576" 
d="M521 43c0 -142 -124 -243 -259 -243c-110 0 -172 42 -201 109c-7 34 34 66 76 33c15 -68 52 -107 129 -107c82 0 161 69 161 181c0 106 -56 185 -148 185c-86 0 -124 -26 -158 -59h-35l37 309h316l17 13l19 1l-8 -77l-17 -15h-290l-24 -179c42 34 106 53 172 53
c110 0 213 -61 213 -204z" />
    <glyph glyph-name="six.osf" horiz-adv-x="538" 
d="M427 581l-8 -11c-4 -6 -11 -6 -18 -3c-38 19 -56 29 -98 29c-125 0 -161 -143 -170 -270c16 20 76 63 148 63c117 0 212 -76 212 -193c0 -100 -76 -208 -218 -208c-175 0 -231 147 -230 293c1 158 82 355 253 355c54 0 93 -12 127 -37c7 -5 7 -11 2 -18zM135 281
c-7 -169 52 -253 140 -253c97 0 132 76 132 171c0 89 -46 150 -123 150s-148 -51 -149 -68z" />
    <glyph glyph-name="seven.osf" horiz-adv-x="533" 
d="M417 375h-318l-21 -45h-23l22 98c3 14 14 23 28 23h388l-281 -633h-14c-17 0 -30 16 -22 34z" />
    <glyph glyph-name="eight.osf" horiz-adv-x="573" 
d="M380 348c86 -29 143 -79 143 -182c0 -94 -100 -180 -239 -180c-146 0 -234 93 -234 190c0 77 41 139 128 169c-64 24 -93 77 -93 131c0 77 69 152 200 152c122 0 191 -73 191 -154c0 -46 -32 -101 -96 -126zM265 372l53 -12c54 -12 99 62 99 116c0 52 -24 116 -134 116
c-95 0 -111 -68 -111 -116c0 -46 20 -87 93 -104zM428 172c0 68 -35 108 -133 130l-78 18c-44 10 -99 -60 -99 -144c0 -73 53 -153 165 -153c109 0 145 75 145 149z" />
    <glyph glyph-name="nine.osf" horiz-adv-x="538" 
d="M160 -163c159 21 235 146 248 301c-20 -33 -79 -75 -152 -75c-116 0 -211 76 -211 192c0 98 76 206 218 206c175 0 231 -144 230 -283c-1 -163 -109 -370 -328 -378c-20 -1 -19 35 -5 37zM406 179c4 153 -56 239 -143 239c-98 0 -132 -74 -132 -166
c0 -84 46 -150 123 -150s152 60 152 77z" />
    <glyph glyph-name="zero.tf" horiz-adv-x="600" 
d="M550 313c0 -160 -76 -325 -246 -325s-246 165 -246 325c0 159 76 323 246 323s246 -164 246 -323zM304 25c113 0 149 96 149 288c0 191 -36 287 -149 287c-115 0 -151 -96 -151 -287c0 -192 36 -288 151 -288z" />
    <glyph glyph-name="one.tf" horiz-adv-x="600" 
d="M341 609v-537c0 -23 47 -32 113 -37v-35h-307v35c68 5 113 14 113 37v442c0 23 -9 37 -29 31l-51 -14v35l132 59c23 10 29 -1 29 -16z" />
    <glyph glyph-name="two.tf" horiz-adv-x="600" 
d="M545 122l-23 -99c-5 -15 -17 -23 -30 -23h-436c29 155 141 255 227 313c71 47 138 75 138 157c0 71 -53 125 -129 125c-71 0 -119 -34 -131 -89c-13 -60 9 -78 5 -102c-12 -25 -28 -35 -50 -35c-26 0 -49 23 -49 47c0 125 81 221 228 221c143 0 212 -73 212 -180
c0 -109 -97 -155 -179 -207c-91 -57 -148 -83 -195 -177l294 -2c43 0 61 3 79 29l16 22h23z" />
    <glyph glyph-name="three.tf" horiz-adv-x="600" 
d="M393 371c60 5 138 -66 138 -165c0 -121 -110 -218 -241 -218c-142 0 -229 71 -238 184c-2 37 18 51 42 51c60 0 31 -34 55 -99c24 -63 60 -100 145 -100c76 0 148 64 148 163c0 93 -64 135 -121 135c-12 0 -26 -2 -38 -6l-42 -14l-13 33l43 17c77 30 124 72 124 138
c0 67 -39 108 -111 108c-71 0 -98 -38 -105 -90c-4 -31 0 -33 -4 -54c-35 -40 -93 -17 -93 30c0 70 72 153 202 153s197 -80 197 -146c0 -59 -40 -100 -88 -120z" />
    <glyph glyph-name="four.tf" horiz-adv-x="600" 
d="M532 204h-101v-143c0 -23 36 -28 64 -33v-28h-214v28c29 5 62 10 62 33v143h-283v27l330 405c15 19 41 11 41 -9v-381h101v-42zM116 246h227v265z" />
    <glyph glyph-name="five.tf" horiz-adv-x="600" 
d="M518 205c0 -120 -107 -217 -244 -217c-138 0 -228 71 -237 186c-2 35 18 49 44 49c57 0 29 -34 53 -99c24 -62 59 -99 140 -99c79 0 150 63 150 162c0 106 -74 189 -169 189c-78 0 -115 -30 -146 -48h-34l23 293h335l17 13l17 1l-8 -76l-17 -15h-310l-14 -181
c36 36 100 58 163 58c106 0 237 -63 237 -216z" />
    <glyph glyph-name="six.tf" horiz-adv-x="600" 
d="M459 581l-8 -11c-4 -6 -11 -6 -18 -3c-37 19 -56 29 -98 29c-124 0 -160 -143 -169 -270c16 20 75 63 148 63c116 0 211 -76 211 -193c0 -100 -76 -208 -218 -208c-175 0 -231 147 -230 293c1 158 82 355 253 355c55 0 93 -12 127 -37c7 -5 7 -11 2 -18zM168 281
c-8 -169 52 -253 139 -253c98 0 132 76 132 171c0 89 -46 150 -123 150s-147 -51 -148 -68z" />
    <glyph glyph-name="seven.tf" horiz-adv-x="600" 
d="M438 545h-339l-21 -45h-23l22 98c3 14 14 23 28 23h412l-315 -626h-16c-17 0 -32 16 -22 34z" />
    <glyph glyph-name="eight.tf" horiz-adv-x="600" 
d="M392 348c86 -29 142 -79 142 -182c0 -94 -100 -180 -238 -180c-146 0 -234 93 -234 190c0 77 41 139 128 169c-65 24 -93 77 -93 131c0 77 68 152 200 152c122 0 191 -73 191 -154c0 -46 -32 -101 -96 -126zM277 372l52 -12c55 -12 100 62 100 116c0 52 -24 116 -134 116
c-95 0 -111 -68 -111 -116c0 -46 20 -87 93 -104zM439 172c0 68 -34 108 -132 130l-78 18c-44 10 -99 -60 -99 -144c0 -73 53 -153 165 -153c109 0 144 75 144 149z" />
    <glyph glyph-name="nine.tf" horiz-adv-x="600" 
d="M142 43l9 12c4 5 11 6 18 3c37 -20 55 -29 97 -29c125 0 161 142 170 269c-16 -20 -76 -62 -148 -62c-117 0 -212 76 -212 192c0 101 77 208 218 208c175 0 231 -146 230 -292c-1 -158 -81 -356 -253 -356c-54 0 -93 12 -127 37c-7 5 -7 11 -2 18zM434 343
c7 169 -52 253 -140 253c-97 0 -132 -76 -132 -171c0 -88 47 -150 123 -150c78 0 148 51 149 68z" />
    <glyph glyph-name="fraction" unicode="&#x2044;" horiz-adv-x="155" 
d="M277 636h53l-432 -641h-53z" />
    <glyph glyph-name="onehalf" unicode="&#xbd;" horiz-adv-x="640" 
d="M122 625v-194c0 -15 15 -17 29 -18v-21h-109v21c14 1 29 3 29 18v168l-31 -10v26l56 25c19 8 25 -4 26 -15zM463 636h53l-432 -641h-53zM596 55l-10 -47c-2 -9 -10 -14 -21 -14h-179c14 69 58 99 94 121c25 15 46 29 46 57c0 26 -15 47 -39 47c-22 0 -34 -7 -39 -28
c-4 -20 5 -26 2 -38c-14 -32 -57 -11 -57 8c-2 47 32 87 96 87c62 0 93 -31 93 -76c0 -46 -43 -64 -75 -83c-30 -17 -64 -35 -70 -55h104c11 0 17 2 21 8l9 13h25z" />
    <glyph glyph-name="onequarter" unicode="&#xbc;" horiz-adv-x="640" 
d="M71 431v168l-31 -10v26l56 25c19 8 25 -4 26 -15v-194c0 -15 15 -17 29 -18v-21h-109v21c14 1 29 3 29 18zM463 636h53l-432 -641h-53zM590 71h-38v-36c0 -11 8 -18 25 -18v-23h-102v23c17 0 24 7 24 18v36h-103v26l120 148c12 15 36 6 36 -9v-137h38v-28zM439 99h60v71z
" />
    <glyph glyph-name="threequarters" unicode="&#xbe;" horiz-adv-x="739" 
d="M263 472c0 -50 -46 -89 -101 -89c-62 0 -102 39 -102 79c0 14 8 24 25 24c34 0 26 -25 32 -43c8 -25 19 -33 46 -33c23 0 45 20 45 55c0 50 -37 51 -71 35l-10 24l24 11c25 9 41 22 41 44c0 26 -10 35 -32 35c-40 0 -48 -39 -41 -63l-35 6c-8 3 -12 9 -12 14
c-1 40 32 71 87 71s85 -35 85 -61c0 -20 -10 -34 -22 -43c20 -9 41 -32 41 -66zM563 636h53l-432 -641h-53zM695 71h-38v-36c0 -11 8 -18 25 -18v-23h-101v23c17 0 24 7 24 18v36h-104v26l120 148c12 15 36 6 36 -9v-137h38v-28zM544 99h61v71z" />
    <glyph glyph-name="oneeighth" unicode="&#x215b;" horiz-adv-x="644" 
d="M122 625v-194c0 -15 15 -17 29 -18v-21h-109v21c14 1 29 3 29 18v168l-31 -10v26l56 25c19 8 25 -4 26 -15zM463 636h53l-432 -641h-53zM546 133c29 -13 47 -37 47 -69c0 -36 -46 -75 -102 -75c-57 0 -98 38 -98 80c0 23 14 46 43 62c-20 13 -29 28 -29 50
c0 30 29 63 84 63c51 0 85 -30 85 -62c0 -19 -10 -36 -30 -49zM486 147l21 -5c12 -4 26 21 26 39c0 19 -6 37 -41 37c-24 0 -34 -19 -34 -36s7 -30 28 -35zM536 65c0 25 -9 36 -42 44l-25 6c-10 2 -30 -18 -30 -47c0 -28 15 -52 52 -52c33 0 45 18 45 49z" />
    <glyph glyph-name="threeeighths" unicode="&#x215c;" horiz-adv-x="750" 
d="M222 538c20 -9 41 -32 41 -66c0 -50 -46 -89 -101 -89c-62 0 -102 39 -102 79c0 14 8 24 25 24c34 0 26 -25 32 -43c8 -25 19 -33 46 -33c23 0 45 20 45 55c0 50 -37 51 -71 35l-10 24l24 11c25 9 41 22 41 44c0 26 -10 35 -32 35c-40 0 -48 -39 -41 -63l-35 6
c-8 3 -12 9 -12 14c-1 40 32 71 87 71s85 -35 85 -61c0 -20 -10 -34 -22 -43zM570 636h53l-432 -641h-53zM658 133c29 -13 47 -37 47 -69c0 -36 -45 -75 -102 -75c-56 0 -98 38 -98 80c0 23 14 46 43 62c-20 13 -29 28 -29 50c0 30 29 63 84 63c51 0 85 -30 85 -62
c0 -19 -10 -36 -30 -49zM598 147l21 -5c12 -4 26 21 26 39c0 19 -5 37 -41 37c-24 0 -33 -19 -33 -36s6 -30 27 -35zM648 65c0 25 -9 36 -42 44l-25 6c-10 2 -30 -18 -30 -47c0 -28 15 -52 52 -52c33 0 45 18 45 49z" />
    <glyph glyph-name="fiveeighths" unicode="&#x215d;" horiz-adv-x="743" 
d="M263 481c0 -57 -45 -92 -103 -92c-60 0 -97 29 -100 78c-1 14 9 24 25 24c31 0 26 -24 31 -42c6 -22 21 -34 44 -34c26 0 46 21 46 55c0 41 -21 66 -54 66c-24 0 -37 -10 -50 -19h-28l10 125h132l7 5h21l-3 -38l-12 -10h-116l-3 -44c15 6 34 11 55 11c45 0 98 -29 98 -85
zM558 636h53l-432 -641h-53zM646 133c29 -13 47 -37 47 -69c0 -36 -46 -75 -102 -75c-57 0 -98 38 -98 80c0 23 14 46 43 62c-20 13 -29 28 -29 50c0 30 29 63 84 63c51 0 85 -30 85 -62c0 -19 -10 -36 -30 -49zM586 147l21 -5c12 -4 26 21 26 39c0 19 -6 37 -41 37
c-24 0 -34 -19 -34 -36s7 -30 28 -35zM636 65c0 25 -9 36 -42 44l-25 6c-10 2 -30 -18 -30 -47c0 -28 15 -52 52 -52c33 0 45 18 45 49z" />
    <glyph glyph-name="seveneighths" unicode="&#x215e;" horiz-adv-x="723" 
d="M198 597h-111l-6 -17h-26l11 46c2 9 9 14 21 14h168l-125 -250h-14c-16 0 -22 12 -16 24zM533 636h53l-432 -641h-53zM621 133c29 -13 47 -37 47 -69c0 -36 -46 -75 -102 -75c-57 0 -98 38 -98 80c0 23 14 46 43 62c-20 13 -29 28 -29 50c0 30 29 63 84 63
c51 0 85 -30 85 -62c0 -19 -10 -36 -30 -49zM561 147l21 -5c12 -4 26 21 26 39c0 19 -6 37 -41 37c-24 0 -34 -19 -34 -36s7 -30 28 -35zM611 65c0 25 -9 36 -42 44l-25 6c-10 2 -30 -18 -30 -47c0 -28 15 -52 52 -52c33 0 45 18 45 49z" />
    <glyph glyph-name="zero.dnom" horiz-adv-x="264" 
d="M229 116c0 -65 -29 -127 -96 -127c-68 0 -98 62 -98 127c0 64 30 128 98 128c67 0 96 -64 96 -128zM133 25c36 0 47 40 47 91s-11 93 -47 93c-37 0 -48 -42 -48 -93s11 -91 48 -91z" />
    <glyph glyph-name="one.dnom" horiz-adv-x="186" 
d="M122 227v-194c0 -15 15 -17 29 -18v-21h-109v21c14 1 29 3 29 18v168l-31 -10v26l56 25c19 8 25 -4 26 -15z" />
    <glyph glyph-name="two.dnom" horiz-adv-x="300" 
d="M255 55l-10 -47c-2 -9 -10 -14 -21 -14h-179c14 69 58 99 94 121c25 15 46 29 46 57c0 26 -15 47 -39 47c-22 0 -34 -7 -39 -28c-4 -20 5 -26 2 -38c-14 -32 -57 -11 -57 8c-2 47 32 87 96 87c62 0 93 -31 93 -76c0 -46 -43 -64 -75 -83c-30 -17 -64 -35 -70 -55h104
c11 0 17 2 21 8l9 13h25z" />
    <glyph glyph-name="three.dnom" horiz-adv-x="313" 
d="M222 144c20 -9 41 -32 41 -66c0 -50 -46 -89 -101 -89c-62 0 -102 39 -102 79c0 14 8 24 25 24c34 0 26 -25 32 -43c8 -25 19 -33 46 -33c23 0 45 20 45 55c0 50 -37 51 -71 35l-10 24l24 11c25 9 41 22 41 44c0 26 -10 35 -32 35c-40 0 -48 -39 -41 -63l-35 6
c-8 3 -12 9 -12 14c-1 40 32 71 87 71s85 -35 85 -61c0 -20 -10 -34 -22 -43z" />
    <glyph glyph-name="four.dnom" horiz-adv-x="299" 
d="M249 71h-38v-36c0 -11 8 -18 25 -18v-23h-102v23c17 0 24 7 24 18v36h-103v26l120 148c12 15 36 6 36 -9v-137h38v-28zM98 99h60v71z" />
    <glyph glyph-name="five.dnom" horiz-adv-x="317" 
d="M263 81c0 -57 -45 -92 -103 -92c-60 0 -97 29 -100 78c-1 14 9 24 25 24c31 0 26 -24 31 -42c6 -22 21 -34 44 -34c26 0 46 21 46 55c0 41 -21 66 -54 66c-24 0 -37 -10 -50 -19h-28l10 125h132l7 5h21l-3 -38l-12 -10h-116l-3 -44c15 6 34 11 55 11c45 0 98 -29 98 -85z
" />
    <glyph glyph-name="six.dnom" horiz-adv-x="280" 
d="M205 213c-8 -15 -28 7 -51 7c-33 0 -49 -36 -53 -78c11 6 27 13 47 13c49 0 87 -31 87 -81c0 -40 -34 -85 -92 -85c-73 0 -98 62 -98 118c0 61 34 141 107 141c22 0 40 -6 53 -15c8 -6 6 -9 0 -20zM143 18c30 0 40 24 40 58c0 32 -14 51 -37 51c-25 0 -47 -16 -47 -22
c-2 -58 16 -87 44 -87z" />
    <glyph glyph-name="seven.dnom" horiz-adv-x="295" 
d="M198 199h-111l-6 -17h-26l11 46c2 9 9 14 21 14h168l-125 -250h-14c-16 0 -22 12 -16 24z" />
    <glyph glyph-name="eight.dnom" horiz-adv-x="304" 
d="M205 133c29 -13 47 -37 47 -69c0 -36 -46 -75 -102 -75c-57 0 -98 38 -98 80c0 23 14 46 43 62c-20 13 -29 28 -29 50c0 30 29 63 84 63c51 0 85 -30 85 -62c0 -19 -10 -36 -30 -49zM145 147l21 -5c12 -4 26 21 26 39c0 19 -6 37 -41 37c-24 0 -34 -19 -34 -36
s7 -30 28 -35zM195 65c0 25 -9 36 -42 44l-25 6c-10 2 -30 -18 -30 -47c0 -28 15 -52 52 -52c33 0 45 18 45 49z" />
    <glyph glyph-name="nine.dnom" horiz-adv-x="280" 
d="M75 24c8 15 29 -7 52 -7c33 0 48 36 52 78c-11 -6 -27 -12 -47 -12c-49 0 -87 30 -87 80c0 40 34 85 93 85c72 0 97 -61 97 -118c0 -61 -34 -141 -106 -141c-22 0 -41 6 -54 15c-8 6 -6 9 0 20zM138 219c-30 0 -41 -24 -41 -58c0 -32 15 -51 38 -51c25 0 46 16 46 22
c2 58 -16 87 -43 87z" />
    <glyph glyph-name="zero.numr" horiz-adv-x="264" 
d="M229 515c0 -65 -29 -127 -96 -127c-68 0 -98 62 -98 127c0 64 30 128 98 128c67 0 96 -64 96 -128zM133 424c36 0 47 40 47 91s-11 93 -47 93c-37 0 -48 -42 -48 -93s11 -91 48 -91z" />
    <glyph glyph-name="one.numr" horiz-adv-x="186" 
d="M122 625v-194c0 -15 15 -17 29 -18v-21h-109v21c14 1 29 3 29 18v168l-31 -10v26l56 25c19 8 25 -4 26 -15z" />
    <glyph glyph-name="two.numr" horiz-adv-x="300" 
d="M255 448l-10 -47c-2 -9 -10 -14 -21 -14h-179c14 69 58 99 94 121c25 15 46 29 46 57c0 26 -15 47 -39 47c-22 0 -34 -7 -39 -28c-4 -20 5 -26 2 -38c-14 -32 -57 -11 -57 8c-2 47 32 87 96 87c62 0 93 -31 93 -76c0 -46 -43 -64 -75 -83c-30 -17 -64 -35 -70 -55h104
c11 0 17 2 21 8l9 13h25z" />
    <glyph glyph-name="three.numr" horiz-adv-x="313" 
d="M222 538c20 -9 41 -32 41 -66c0 -50 -46 -89 -101 -89c-62 0 -102 39 -102 79c0 14 8 24 25 24c34 0 26 -25 32 -43c8 -25 19 -33 46 -33c23 0 45 20 45 55c0 50 -37 51 -71 35l-10 24l24 11c25 9 41 22 41 44c0 26 -10 35 -32 35c-40 0 -48 -39 -41 -63l-35 6
c-8 3 -12 9 -12 14c-1 40 32 71 87 71s85 -35 85 -61c0 -20 -10 -34 -22 -43z" />
    <glyph glyph-name="four.numr" horiz-adv-x="299" 
d="M249 462h-38v-36c0 -11 8 -18 25 -18v-23h-102v23c17 0 24 7 24 18v36h-103v26l120 148c12 15 36 6 36 -9v-137h38v-28zM98 490h60v71z" />
    <glyph glyph-name="five.numr" horiz-adv-x="317" 
d="M263 481c0 -57 -45 -92 -103 -92c-60 0 -97 29 -100 78c-1 14 9 24 25 24c31 0 26 -24 31 -42c6 -22 21 -34 44 -34c26 0 46 21 46 55c0 41 -21 66 -54 66c-24 0 -37 -10 -50 -19h-28l10 125h132l7 5h21l-3 -38l-12 -10h-116l-3 -44c15 6 34 11 55 11c45 0 98 -29 98 -85
z" />
    <glyph glyph-name="six.numr" horiz-adv-x="281" 
d="M205 606c-8 -15 -28 7 -51 7c-33 0 -49 -36 -53 -78c11 6 27 13 47 13c49 0 87 -31 87 -81c0 -40 -34 -85 -92 -85c-73 0 -98 62 -98 118c0 61 34 141 107 141c22 0 40 -6 53 -15c8 -6 6 -9 0 -20zM143 411c30 0 40 24 40 58c0 32 -14 51 -37 51c-25 0 -47 -16 -47 -22
c-2 -58 16 -87 44 -87z" />
    <glyph glyph-name="seven.numr" horiz-adv-x="296" 
d="M198 597h-111l-6 -17h-26l11 46c2 9 9 14 21 14h168l-125 -250h-14c-16 0 -22 12 -16 24z" />
    <glyph glyph-name="eight.numr" horiz-adv-x="304" 
d="M205 531c29 -13 47 -37 47 -69c0 -36 -46 -75 -102 -75c-57 0 -98 38 -98 80c0 23 14 46 43 62c-20 13 -29 28 -29 50c0 30 29 63 84 63c51 0 85 -30 85 -62c0 -19 -10 -36 -30 -49zM145 545l21 -5c12 -4 26 21 26 39c0 19 -6 37 -41 37c-24 0 -34 -19 -34 -36
s7 -30 28 -35zM195 463c0 25 -9 36 -42 44l-25 6c-10 2 -30 -18 -30 -47c0 -28 15 -52 52 -52c33 0 45 18 45 49z" />
    <glyph glyph-name="nine.numr" horiz-adv-x="280" 
d="M75 418c8 15 29 -7 52 -7c33 0 48 36 52 78c-11 -6 -27 -12 -47 -12c-49 0 -87 30 -87 80c0 40 34 85 93 85c72 0 97 -61 97 -118c0 -61 -34 -141 -106 -141c-22 0 -41 6 -54 15c-8 6 -6 9 0 20zM138 613c-30 0 -41 -24 -41 -58c0 -32 15 -51 38 -51c25 0 46 16 46 22
c2 58 -16 87 -43 87z" />
    <glyph glyph-name="onesuperior" unicode="&#xb9;" horiz-adv-x="186" 
d="M122 625v-194c0 -15 15 -17 29 -18v-21h-109v21c14 1 29 3 29 18v168l-31 -10v26l56 25c19 8 25 -4 26 -15z" />
    <glyph glyph-name="twosuperior" unicode="&#xb2;" horiz-adv-x="300" 
d="M255 448l-10 -47c-2 -9 -10 -14 -21 -14h-179c14 69 58 99 94 121c25 15 46 29 46 57c0 26 -15 47 -39 47c-22 0 -34 -7 -39 -28c-4 -20 5 -26 2 -38c-14 -32 -57 -11 -57 8c-2 47 32 87 96 87c62 0 93 -31 93 -76c0 -46 -43 -64 -75 -83c-30 -17 -64 -35 -70 -55h104
c11 0 17 2 21 8l9 13h25z" />
    <glyph glyph-name="threesuperior" unicode="&#xb3;" horiz-adv-x="313" 
d="M222 538c20 -9 41 -32 41 -66c0 -50 -46 -89 -101 -89c-62 0 -102 39 -102 79c0 14 8 24 25 24c34 0 26 -25 32 -43c8 -25 19 -33 46 -33c23 0 45 20 45 55c0 50 -37 51 -71 35l-10 24l24 11c25 9 41 22 41 44c0 26 -10 35 -32 35c-40 0 -48 -39 -41 -63l-35 6
c-8 3 -12 9 -12 14c-1 40 32 71 87 71s85 -35 85 -61c0 -20 -10 -34 -22 -43z" />
    <glyph glyph-name="asterisk" unicode="*" horiz-adv-x="317" 
d="M118 598l30 -78c5 -13 14 -13 19 0l31 78c-3 23 -17 36 -40 39c-23 -3 -37 -16 -40 -39zM133 508l-55 67c-21 9 -40 4 -54 -14c-9 -21 -6 -40 13 -54l80 -18c14 -3 25 9 16 19zM239 575l-55 -67c-9 -10 2 -22 16 -19l80 18c18 14 22 33 13 54c-15 18 -33 23 -54 14z
M118 473l-81 -17c-19 -15 -22 -33 -13 -55c14 -18 33 -23 54 -14l54 67c9 10 -1 22 -14 19zM280 456l-81 17c-13 3 -23 -9 -14 -19l54 -67c21 -9 39 -4 54 14c9 22 5 40 -13 55zM148 444l-30 -78c3 -23 17 -36 40 -39c23 3 37 16 40 39l-30 78c-5 13 -15 13 -20 0z" />
    <glyph glyph-name="backslash" unicode="\" horiz-adv-x="413" 
d="M101 641l267 -641h-56l-267 641h56z" />
    <glyph glyph-name="periodcentered" unicode="&#xb7;" horiz-adv-x="209" 
d="M104 239c-29 0 -54 24 -54 55c0 29 25 54 54 54c30 0 55 -25 55 -54c0 -31 -25 -55 -55 -55z" />
    <glyph glyph-name="bullet" unicode="&#x2022;" horiz-adv-x="289" 
d="M144 209c-46 0 -84 38 -84 84s38 85 84 85s85 -39 85 -85s-39 -84 -85 -84z" />
    <glyph glyph-name="colon" unicode=":" horiz-adv-x="220" 
d="M111 323c-30 0 -55 24 -55 55c0 29 25 54 55 54c29 0 54 -25 54 -54c0 -31 -25 -55 -54 -55zM111 -10c-30 0 -55 25 -55 55s25 55 55 55c29 0 54 -25 54 -55s-25 -55 -54 -55z" />
    <glyph glyph-name="comma" unicode="," horiz-adv-x="198" 
d="M156 -30c-8 -28 -27 -52 -49 -71c-5 -4 -10 -4 -16 2l-13 14c15 16 27 30 33 45c5 15 6 28 3 34c-6 -2 -13 -3 -25 -2c-26 4 -46 30 -42 58c4 31 31 53 61 49c29 -4 46 -30 51 -53c5 -27 6 -45 -3 -76z" />
    <glyph glyph-name="ellipsis" unicode="&#x2026;" horiz-adv-x="559" 
d="M109 -10c-29 0 -54 25 -54 55s25 55 54 55c30 0 55 -25 55 -55s-25 -55 -55 -55zM279 -10c-29 0 -54 25 -54 55s25 55 54 55c30 0 55 -25 55 -55s-25 -55 -55 -55zM449 -10c-29 0 -54 25 -54 55s25 55 54 55c30 0 55 -25 55 -55s-25 -55 -55 -55z" />
    <glyph glyph-name="exclam" unicode="!" horiz-adv-x="231" 
d="M131 217h-27c-3 152 -44 261 -44 369c0 49 20 67 58 67s58 -18 58 -67c0 -108 -42 -217 -45 -369zM122 -10c-30 0 -55 25 -55 55s25 55 55 55c29 0 54 -25 54 -55s-25 -55 -54 -55z" />
    <glyph glyph-name="exclamdown" unicode="&#xa1;" horiz-adv-x="231" 
d="M122 563c29 0 54 -25 54 -55s-25 -54 -54 -54c-30 0 -55 24 -55 54s25 55 55 55zM104 336h27c3 -152 45 -261 45 -369c0 -49 -20 -67 -58 -67s-58 18 -58 67c0 108 41 217 44 369z" />
    <glyph glyph-name="numbersign" unicode="#" horiz-adv-x="587" 
d="M443 466h99c10 0 15 -5 14 -15l-1 -17c0 -10 -6 -15 -16 -15h-107l-48 -189h117c10 0 15 -5 14 -15l-1 -18c-1 -10 -6 -15 -16 -15h-126l-53 -212h-54l55 212h-128l-53 -212h-54l55 212h-91c-10 0 -15 5 -14 15l1 18c1 10 6 15 16 15h100l49 189h-111c-10 0 -14 5 -14 15
l1 17c1 10 6 15 16 15h121l53 206h49l-52 -206h129l53 206h49zM332 230l49 189h-128l-48 -189h127z" />
    <glyph glyph-name="period" unicode="." horiz-adv-x="219" 
d="M109 -10c-29 0 -54 25 -54 55s25 55 54 55c30 0 55 -25 55 -55s-25 -55 -55 -55z" />
    <glyph glyph-name="question" unicode="?" horiz-adv-x="473" 
d="M45 497c0 -80 63 -99 98 -66c37 36 -28 92 -4 138c18 35 50 56 106 56c63 0 99 -39 99 -89c2 -43 -7 -70 -93 -138c-41 -33 -47 -72 -43 -102l11 -89h30l9 89c3 26 57 45 118 99c117 106 20 263 -132 263c-123 0 -199 -69 -199 -161zM239 -10c-30 0 -54 25 -54 55
s24 55 54 55c29 0 54 -25 54 -55s-25 -55 -54 -55z" />
    <glyph glyph-name="questiondown" unicode="&#xbf;" horiz-adv-x="473" 
d="M234 563c30 0 54 -25 54 -55s-24 -54 -54 -54c-29 0 -54 24 -54 54s25 55 54 55zM428 57c0 79 -63 98 -98 65c-37 -35 28 -92 4 -138c-18 -35 -50 -56 -106 -56c-63 0 -99 39 -99 90c-2 42 7 69 93 138c41 33 47 72 43 101l-11 89h-30l-9 -89c-3 -26 -57 -44 -118 -99
c-117 -105 -20 -263 132 -263c123 0 199 69 199 162z" />
    <glyph glyph-name="quotedbl" unicode="&#x22;" horiz-adv-x="284" 
d="M41 616l22 -163c2 -11 7 -19 14 -19c8 0 13 8 15 19l22 163c3 26 -11 44 -37 44c-25 0 -39 -18 -36 -44zM170 616l22 -163c2 -11 7 -19 14 -19c8 0 13 8 15 19l22 163c3 26 -11 44 -37 44c-25 0 -39 -18 -36 -44z" />
    <glyph glyph-name="quotesingle" unicode="'" horiz-adv-x="155" 
d="M41 616l22 -163c2 -11 7 -19 14 -19c8 0 13 8 15 19l22 163c3 26 -11 44 -37 44c-25 0 -39 -18 -36 -44z" />
    <glyph glyph-name="semicolon" unicode=";" horiz-adv-x="198" 
d="M104 322c-29 0 -54 24 -54 55c0 29 25 54 54 54c30 0 55 -25 55 -54c0 -31 -25 -55 -55 -55zM156 -30c-8 -28 -27 -52 -49 -71c-5 -4 -10 -4 -16 2l-13 14c15 16 27 30 33 45c5 15 6 28 3 34c-6 -2 -13 -3 -25 -2c-26 4 -46 30 -42 58c4 31 31 53 61 49
c29 -4 46 -30 51 -53c5 -27 6 -45 -3 -76z" />
    <glyph glyph-name="slash" unicode="/" horiz-adv-x="417" 
d="M314 641h56l-267 -641h-56z" />
    <glyph glyph-name="underscore" unicode="_" horiz-adv-x="597" 
d="M30 -20h512v-42h-512v42z" />
    <glyph glyph-name="braceleft" unicode="{" horiz-adv-x="264" 
d="M181 231v-188c0 -97 12 -158 58 -182l-13 -27c-101 41 -117 119 -117 209v181c0 31 -15 39 -64 61v21c49 22 64 30 64 61v181c0 90 16 168 117 209l13 -27c-46 -24 -58 -85 -58 -182v-187c0 -33 -30 -50 -72 -64v-3c42 -14 72 -30 72 -63z" />
    <glyph glyph-name="braceright" unicode="}" horiz-adv-x="264" 
d="M84 43v188c0 33 30 49 71 63v3c-41 14 -71 31 -71 64v187c0 97 -13 158 -59 182l13 27c101 -41 117 -119 117 -209v-181c0 -31 15 -39 64 -61v-21c-49 -22 -64 -30 -64 -61v-181c0 -90 -16 -168 -117 -209l-13 27c46 24 59 85 59 182z" />
    <glyph glyph-name="bracketleft" unicode="[" horiz-adv-x="260" 
d="M117 715v-837l97 -19c12 -2 21 -7 21 -16v-9l-190 9v907l190 9v-9c0 -9 -9 -14 -21 -16z" />
    <glyph glyph-name="bracketright" unicode="]" horiz-adv-x="260" 
d="M143 715l-97 19c-12 2 -21 7 -21 16v9l190 -9v-907l-190 -9v9c0 9 9 14 21 16l97 19v837z" />
    <glyph glyph-name="parenleft" unicode="(" horiz-adv-x="309" 
d="M130 296c-2 -183 50 -347 146 -444c10 -10 7 -18 -5 -18h-9c-8 0 -13 2 -19 7c-114 102 -198 268 -198 455s84 353 198 455c6 5 11 7 19 7h7c13 0 19 -6 12 -13c-99 -97 -153 -263 -151 -449z" />
    <glyph glyph-name="parenright" unicode=")" horiz-adv-x="309" 
d="M179 296c2 186 -52 352 -151 449c-7 7 -1 13 12 13h7c8 0 13 -2 19 -7c114 -102 198 -268 198 -455s-84 -353 -198 -455c-6 -5 -11 -7 -19 -7h-9c-12 0 -15 8 -5 18c96 97 148 261 146 444z" />
    <glyph glyph-name="emdash" unicode="&#x2014;" horiz-adv-x="889" 
d="M25 275h819v-48h-819v48z" />
    <glyph glyph-name="endash" unicode="&#x2013;" horiz-adv-x="667" 
d="M30 275h582v-48h-582v48z" />
    <glyph glyph-name="uni2015" unicode="&#x2015;" horiz-adv-x="889" 
d="M25 275h819v-48h-819v48z" />
    <glyph glyph-name="hyphen" unicode="-" horiz-adv-x="380" 
d="M45 275h270v-48h-270v48z" />
    <glyph glyph-name="softhyphen" unicode="&#xad;" horiz-adv-x="380" 
d="M45 275h270v-48h-270v48z" />
    <glyph glyph-name="guillemotleft" unicode="&#xab;" horiz-adv-x="392" 
d="M36 229l154 149v-45l-74 -104l74 -103v-46zM194 229l154 149v-45l-74 -104l74 -103v-46z" />
    <glyph glyph-name="guillemotright" unicode="&#xbb;" horiz-adv-x="392" 
d="M198 229l-154 -149v46l74 103l-74 104v45zM356 229l-154 -149v46l74 103l-74 104v45z" />
    <glyph glyph-name="guilsinglleft" unicode="&#x2039;" horiz-adv-x="235" 
d="M36 229l155 149v-45l-75 -104l75 -103v-46z" />
    <glyph glyph-name="guilsinglright" unicode="&#x203a;" horiz-adv-x="235" 
d="M198 229l-154 -149v46l74 103l-74 104v45z" />
    <glyph glyph-name="quotedblbase" unicode="&#x201e;" horiz-adv-x="360" 
d="M156 -30c-8 -28 -27 -52 -49 -71c-5 -4 -10 -4 -16 2l-13 14c15 16 27 30 33 45c5 15 6 28 3 34c-6 -2 -13 -3 -25 -2c-26 4 -46 30 -42 58c4 31 31 53 61 49c29 -4 46 -30 51 -53c5 -27 6 -45 -3 -76zM318 -30c-8 -28 -27 -52 -49 -71c-5 -4 -10 -4 -16 2l-13 14
c15 16 27 30 33 45c5 15 6 28 3 34c-6 -2 -13 -3 -25 -2c-26 4 -46 30 -42 58c4 31 31 53 61 49c29 -4 46 -30 51 -53c5 -27 6 -45 -3 -76z" />
    <glyph glyph-name="quotedblleft" unicode="&#x201c;" horiz-adv-x="350" 
d="M27 561c9 28 27 52 49 71c5 4 10 4 16 -2l13 -14c-15 -16 -27 -30 -32 -45c-6 -15 -7 -28 -4 -34c7 2 13 3 25 2c26 -4 46 -29 42 -58c-4 -31 -31 -52 -61 -48c-29 4 -46 29 -51 53c-4 26 -5 44 3 75zM201 561c9 28 27 52 49 71c5 4 10 4 16 -2l13 -14
c-15 -16 -27 -30 -32 -45c-6 -15 -7 -28 -4 -34c7 2 13 3 25 2c26 -4 46 -29 42 -58c-4 -31 -31 -52 -61 -48c-29 4 -46 29 -51 53c-4 26 -5 44 3 75z" />
    <glyph glyph-name="quotedblright" unicode="&#x201d;" horiz-adv-x="350" 
d="M125 511c-8 -29 -27 -53 -49 -72c-5 -4 -10 -4 -16 2l-13 14c15 16 27 30 33 45c5 16 6 28 3 35c-6 -2 -13 -4 -25 -3c-26 4 -46 30 -42 58c4 31 31 53 61 49c29 -4 46 -30 51 -53c5 -27 6 -45 -3 -75zM299 511c-8 -29 -27 -53 -49 -72c-5 -4 -10 -4 -16 2l-13 14
c15 16 27 30 33 45c5 16 6 28 3 35c-6 -2 -13 -4 -25 -3c-26 4 -46 30 -42 58c4 31 31 53 61 49c29 -4 46 -30 51 -53c5 -27 6 -45 -3 -75z" />
    <glyph glyph-name="quoteleft" unicode="&#x2018;" horiz-adv-x="177" 
d="M47 561c8 28 27 52 49 71c5 4 10 4 16 -2l13 -14c-15 -16 -27 -30 -33 -45c-5 -15 -6 -28 -3 -34c6 2 13 3 25 2c26 -4 46 -29 42 -58c-4 -31 -31 -52 -61 -48c-29 4 -46 29 -51 53c-5 26 -6 44 3 75z" />
    <glyph glyph-name="quoteright" unicode="&#x2019;" horiz-adv-x="177" 
d="M130 511c-8 -29 -27 -53 -49 -72c-5 -4 -10 -4 -16 2l-13 14c15 16 27 30 33 45c5 16 6 28 3 35c-6 -2 -13 -4 -25 -3c-26 4 -46 30 -42 58c4 31 31 53 61 49c29 -4 46 -30 51 -53c5 -27 6 -45 -3 -75z" />
    <glyph glyph-name="quotesinglbase" unicode="&#x201a;" horiz-adv-x="198" 
d="M156 -30c-8 -28 -27 -52 -49 -71c-5 -4 -10 -4 -16 2l-13 14c15 16 27 30 33 45c5 15 6 28 3 34c-6 -2 -13 -3 -25 -2c-26 4 -46 30 -42 58c4 31 31 53 61 49c29 -4 46 -30 51 -53c5 -27 6 -45 -3 -76z" />
    <glyph glyph-name="space" unicode=" " horiz-adv-x="220" 
 />
    <glyph glyph-name="cent" unicode="&#xa2;" 
d="M392 105l19 -19c-19 -37 -68 -94 -186 -94c-14 0 -28 2 -41 5l-16 -58h-41l19 71c-70 34 -121 113 -121 216c0 151 96 234 206 234c13 0 26 -1 37 -2l17 61h41l-19 -70c66 -21 99 -69 99 -117c0 -18 -15 -35 -43 -35c-26 0 -44 10 -44 32c0 39 1 67 -23 80l-95 -350
c19 -11 41 -18 65 -18c71 0 80 29 106 62c6 10 14 9 20 2zM109 246c0 -61 21 -121 58 -160l91 333h-15c-99 0 -134 -48 -134 -173z" />
    <glyph glyph-name="currency" unicode="&#xa4;" horiz-adv-x="597" 
d="M506 228c0 -51 -18 -98 -49 -134l61 -60l-28 -28l-61 60c-36 -29 -82 -47 -132 -47c-49 0 -95 17 -130 46l-60 -59l-28 28l60 59c-31 37 -49 84 -49 135c0 50 18 96 47 132l-58 58l28 29l58 -58c36 29 82 47 132 47c51 0 97 -18 134 -48l59 59l28 -29l-59 -59
c29 -36 47 -81 47 -131zM298 61c89 0 162 78 162 167s-73 165 -162 165c-90 0 -160 -76 -160 -165s70 -167 160 -167z" />
    <glyph glyph-name="dollar" unicode="$" horiz-adv-x="541" 
d="M513 183c15 -133 -112 -194 -221 -198v-46h-41v47c-85 9 -108 52 -164 33l-52 157l28 9c15 5 24 2 32 -13c7 -13 15 -27 22 -41c25 -50 72 -87 134 -97v245c-73 23 -178 52 -195 164c-12 86 58 187 195 195v51h41v-52c107 -7 130 -60 187 -71l13 -127l-29 -5
c-13 -2 -21 1 -24 12l-11 40c-14 54 -72 101 -136 111v-238c69 -20 208 -56 221 -176zM138 469c8 -57 62 -80 113 -97v226c-75 -8 -120 -70 -113 -129zM292 265v-233c65 3 138 29 128 119c-7 69 -66 93 -128 114z" />
    <glyph glyph-name="Euro" unicode="&#x20ac;" horiz-adv-x="718" 
d="M635 170c8 0 29 -12 33 -19c5 -10 -3 -23 -16 -44c-47 -79 -126 -122 -233 -122c-137 0 -253 101 -288 242h-95l9 44h77c-2 16 -3 32 -3 49l1 21h-65l9 44h61c27 143 143 252 283 252c84 0 144 -36 183 -82c17 0 25 23 29 49c2 11 8 17 19 17h20l11 -196l-28 -10
c-11 -4 -19 0 -23 11c-3 9 -8 21 -14 36c-39 95 -111 134 -187 134c-94 0 -186 -67 -201 -211h257l-9 -44h-250c0 -25 2 -48 6 -70h234l-9 -44h-215c36 -121 125 -193 207 -193c84 0 129 48 164 99c15 22 19 37 33 37z" />
    <glyph glyph-name="florin" unicode="&#x192;" horiz-adv-x="634" 
d="M636 598c11 -17 9 -44 -14 -58s-46 -7 -53 10c-11 33 -20 74 -71 74c-72 0 -78 -53 -89 -128l-5 -39h135c6 0 13 -4 10 -9l-5 -11c-9 -18 -14 -29 -33 -29h-114l-60 -425c-17 -119 -84 -185 -175 -185c-64 0 -111 37 -127 73c-9 17 -5 44 19 56s47 3 52 -15
c8 -33 13 -71 52 -71c60 0 78 55 89 130l61 437h-52c-6 0 -10 4 -9 10l5 39h63l4 27c17 119 74 183 185 183c74 0 113 -35 132 -69z" />
    <glyph glyph-name="sterling" unicode="&#xa3;" horiz-adv-x="567" 
d="M495 113h30l-24 -90c-4 -15 -17 -23 -32 -23h-417v56c63 37 104 83 104 136c0 23 -7 43 -18 64h-93v44h68c-26 41 -53 86 -53 148c0 100 86 189 236 189c133 0 214 -82 214 -192c0 -35 -15 -73 -47 -73c-21 0 -39 9 -53 37c-3 19 14 35 14 67c0 52 -38 116 -128 116
c-98 0 -148 -55 -148 -123c0 -90 47 -117 77 -169h128v-44h-110c4 -15 6 -31 6 -51c0 -57 -23 -119 -84 -155c99 3 294 -8 319 42z" />
    <glyph glyph-name="yen" unicode="&#xa5;" horiz-adv-x="623" 
d="M436 621h171v-27c-42 -5 -58 -23 -84 -59l-141 -198h150v-44h-178v-65h178v-44h-178v-121c0 -23 37 -28 73 -33v-30h-226v30c36 5 74 10 74 33v121h-153v44h153v45l-14 20h-139v44h108l-122 173c-40 57 -49 79 -93 84v27h199v-27c-29 -5 -48 -17 -37 -33l157 -223
l150 213c16 24 -9 38 -48 43v27z" />
    <glyph glyph-name="approxequal" unicode="&#x2248;" horiz-adv-x="551" 
d="M481 381h-36c-18 0 -34 -42 -75 -42c-70 0 -95 58 -174 58c-59 0 -105 -38 -126 -95h35c27 0 26 47 74 47c55 0 99 -67 180 -67c50 0 103 36 122 99zM481 211h-36c-18 0 -34 -42 -75 -42c-70 0 -95 58 -174 58c-59 0 -105 -38 -126 -95h35c27 0 26 47 74 47
c55 0 99 -67 180 -67c50 0 103 36 122 99z" />
    <glyph glyph-name="asciitilde" unicode="~" horiz-adv-x="520" 
d="M450 292h-33c-17 0 -32 -42 -69 -42c-65 0 -88 58 -161 58c-55 0 -97 -38 -117 -95h33c25 0 24 47 68 47c51 0 91 -67 167 -67c45 0 95 36 112 99z" />
    <glyph glyph-name="divide" unicode="&#xf7;" horiz-adv-x="510" 
d="M257 362c-22 0 -42 20 -42 43c0 22 20 42 42 42s42 -20 42 -42c0 -23 -20 -43 -42 -43zM70 279h370v-54h-370v54zM257 56c-22 0 -42 20 -42 43c0 22 20 42 42 42s42 -20 42 -42c0 -23 -20 -43 -42 -43z" />
    <glyph glyph-name="emptyset" unicode="&#x2205;" horiz-adv-x="517" 
d="M437 432l-24 -32c42 -40 69 -98 69 -170c0 -146 -107 -238 -223 -238c-45 0 -89 13 -125 38l-23 -30l-40 30l25 33c-37 39 -61 94 -61 159c0 148 108 238 224 238c40 0 80 -11 114 -30l24 32zM120 242c0 -43 9 -82 25 -114l192 254c-23 25 -50 39 -75 39
c-91 0 -142 -44 -142 -179zM257 34c89 0 141 43 141 176c0 49 -12 94 -31 129l-194 -257c25 -30 55 -48 84 -48z" />
    <glyph glyph-name="equal" unicode="=" horiz-adv-x="510" 
d="M70 369h370v-54h-370v54zM70 189h370v-54h-370v54z" />
    <glyph glyph-name="greater" unicode="&#x3e;" horiz-adv-x="509" 
d="M439 278v-54c-123 -47 -246 -104 -369 -171v55c102 58 214 105 325 143c-111 37 -223 84 -325 142v56c123 -67 246 -124 369 -171z" />
    <glyph glyph-name="greaterequal" unicode="&#x2265;" horiz-adv-x="509" 
d="M439 360v-54c-123 -47 -246 -104 -369 -171v55c102 58 214 105 325 143c-111 37 -223 84 -325 142v56c123 -67 246 -124 369 -171zM70 58h370v-54h-370v54z" />
    <glyph glyph-name="infinity" unicode="&#x221e;" horiz-adv-x="733" 
d="M387 160c-29 -53 -75 -94 -160 -94c-83 0 -167 80 -167 181c0 102 86 185 174 185c64 0 120 -33 150 -90c33 56 81 76 141 76c79 0 148 -76 148 -171c0 -100 -68 -175 -151 -175c-59 0 -114 33 -135 88zM227 132c70 0 116 22 127 90l11 66c7 40 -68 81 -132 81
c-69 0 -137 -36 -137 -122c0 -82 70 -115 131 -115zM405 273l-9 -57c-8 -49 60 -87 124 -87c61 0 119 26 119 118c0 71 -64 110 -121 110c-56 0 -105 -33 -113 -84z" />
    <glyph glyph-name="integral" unicode="&#x222b;" horiz-adv-x="451" 
d="M428 726c10 -18 8 -43 -12 -53c-23 -12 -45 1 -51 20c-10 40 -12 69 -54 69c-36 0 -55 -29 -55 -99v-724c0 -107 -31 -154 -118 -154c-67 0 -97 35 -115 74c-8 18 -7 44 13 54c23 11 46 -2 49 -21c12 -39 13 -69 55 -69c36 0 56 29 56 99v724c0 107 31 154 118 154
c66 0 95 -36 114 -74z" />
    <glyph glyph-name="less" unicode="&#x3c;" horiz-adv-x="509" 
d="M70 224v54c123 47 246 104 369 171v-56c-102 -58 -214 -105 -325 -142c111 -38 223 -85 325 -143v-55c-123 67 -246 124 -369 171z" />
    <glyph glyph-name="lessequal" unicode="&#x2264;" horiz-adv-x="509" 
d="M70 306v54c123 47 246 104 369 171v-56c-102 -58 -214 -105 -325 -142c111 -38 223 -85 325 -143v-55c-123 67 -246 124 -369 171zM439 58v-54h-370v54h370z" />
    <glyph glyph-name="logicalnot" unicode="&#xac;" horiz-adv-x="567" 
d="M70 369h427v-226h-54v172h-373v54z" />
    <glyph glyph-name="minus" unicode="&#x2212;" horiz-adv-x="510" 
d="M70 279h370v-54h-370v54z" />
    <glyph glyph-name="multiply" unicode="&#xd7;" horiz-adv-x="447" 
d="M377 367l-115 -115l115 -116l-39 -38l-114 115l-115 -115l-39 38l115 116l-115 115l39 38l115 -115l114 115z" />
    <glyph glyph-name="notequal" unicode="&#x2260;" horiz-adv-x="510" 
d="M440 315h-128l-52 -126h180v-54h-203l-56 -135h-58l56 135h-109v54h132l52 126h-184v54h207l53 127h58l-53 -127h105v-54z" />
    <glyph glyph-name="partialdiff" unicode="&#x2202;" horiz-adv-x="538" 
d="M120 570l-9 11c-5 7 -5 13 2 18c34 25 73 37 127 37c172 0 252 -197 253 -355c1 -146 -55 -293 -230 -293c-141 0 -218 108 -218 208c0 117 95 193 212 193c72 0 132 -43 148 -63c-9 127 -45 270 -170 270c-42 0 -60 -10 -97 -29c-7 -3 -14 -3 -18 3zM403 281
c-1 17 -71 68 -149 68c-76 0 -123 -61 -123 -150c0 -95 35 -171 132 -171c88 0 147 84 140 253z" />
    <glyph glyph-name="percent" unicode="%" horiz-adv-x="662" 
d="M520 636h45l-432 -641h-75l442 613c-77 -62 -140 -70 -187 -48c4 -18 4 -37 0 -55c-10 -59 -73 -137 -149 -137c-77 0 -112 74 -102 137c12 62 76 138 152 138c21 0 38 -5 53 -15c47 -21 126 -68 253 8zM249 505c9 51 6 103 -40 103s-70 -52 -80 -103
c-8 -51 -5 -100 41 -100c47 0 69 50 79 100zM490 264c77 0 112 -75 99 -138c-9 -59 -73 -137 -149 -137c-77 0 -112 74 -102 137c13 62 77 138 152 138zM525 126c10 51 6 103 -40 103s-69 -52 -80 -103c-8 -51 -5 -100 41 -100c47 0 70 50 79 100z" />
    <glyph glyph-name="perthousand" unicode="&#x2030;" horiz-adv-x="959" 
d="M520 636h45l-432 -641h-75l442 613c-77 -62 -140 -70 -187 -48c4 -18 4 -37 0 -55c-10 -59 -73 -137 -149 -137c-77 0 -112 74 -102 137c12 62 76 138 152 138c21 0 38 -5 53 -15c47 -21 126 -68 253 8zM249 505c9 51 6 103 -40 103s-70 -52 -80 -103
c-8 -51 -5 -100 41 -100c47 0 69 50 79 100zM490 264c77 0 112 -75 99 -138c-9 -59 -73 -137 -149 -137c-77 0 -112 74 -102 137c13 62 77 138 152 138zM787 264c77 0 112 -75 99 -138c-9 -59 -73 -137 -149 -137c-77 0 -112 74 -102 137c13 62 77 138 152 138zM525 126
c10 51 6 103 -40 103s-69 -52 -80 -103c-8 -51 -5 -100 41 -100c47 0 70 50 79 100zM822 126c10 51 6 103 -40 103s-69 -52 -80 -103c-8 -51 -5 -100 41 -100c47 0 70 50 79 100z" />
    <glyph glyph-name="plus" unicode="+" horiz-adv-x="510" 
d="M440 279v-54h-157v-160h-54v160h-159v54h159v157h54v-157h157z" />
    <glyph glyph-name="plusminus" unicode="&#xb1;" horiz-adv-x="510" 
d="M283 380h157v-54h-157v-160h-54v160h-159v54h159v157h54v-157zM70 4v54h370v-54h-370z" />
    <glyph glyph-name="product" unicode="&#x220f;" horiz-adv-x="623" 
d="M70 800h483v-1000h-54v946h-375v-946h-54v1000z" />
    <glyph glyph-name="radical" unicode="&#x221a;" horiz-adv-x="731" 
d="M319 -200h-7c-15 0 -24 7 -32 24l-141 313c-26 58 -52 71 -68 77l-21 8v29c56 -4 66 -4 113 -2l157 -334l297 886h114v-29l-27 -8c-15 -4 -43 -14 -67 -79z" />
    <glyph glyph-name="summation" unicode="&#x2211;" horiz-adv-x="570" 
d="M500 800v-54h-363l298 -447l-298 -445h363v-54h-430v54l290 446l-290 446v54h430z" />
    <glyph glyph-name="lozenge" unicode="&#x25ca;" horiz-adv-x="412" 
d="M377 310l-130 -310h-82l-130 310l130 311h82zM301 310l-95 247l-95 -247l95 -247z" />
    <glyph glyph-name="bar" unicode="|" horiz-adv-x="240" 
d="M90 800h60v-1015h-60v1015z" />
    <glyph glyph-name="brokenbar" unicode="&#xa6;" horiz-adv-x="240" 
d="M90 451v349h60v-349h-60zM90 -215v349h60v-349h-60z" />
    <glyph glyph-name="at" unicode="@" horiz-adv-x="716" 
d="M454 -50l11 -18c-33 -10 -73 -15 -106 -15c-175 0 -314 138 -314 332c0 193 139 331 314 331s313 -128 313 -328c0 -95 -21 -157 -128 -179c-57 -12 -92 5 -102 57c-16 -38 -61 -69 -119 -69c-61 0 -117 25 -117 91c0 63 38 109 233 135v12c0 46 -10 107 -84 102
c-13 -1 -22 0 -39 -5c-29 -6 -16 -37 -21 -61c-6 -18 -24 -26 -46 -23c-20 4 -32 21 -25 50c9 37 65 66 122 71c103 8 160 -37 160 -133v-161c0 -29 15 -40 38 -35c70 15 59 109 59 147c0 170 -84 293 -244 293c-162 0 -243 -133 -243 -296c0 -162 94 -296 243 -296
c18 0 40 3 56 6c16 4 31 4 39 -8zM339 99c57 0 86 44 100 66v94c-151 -23 -165 -59 -165 -105c0 -30 24 -55 65 -55z" />
    <glyph glyph-name="ampersand" unicode="&#x26;" horiz-adv-x="740" 
d="M272 322l-25 4c-43 6 -111 -48 -111 -142c0 -123 89 -165 180 -165c107 0 193 72 193 168c0 50 -27 85 -69 85c-43 0 -66 -40 -41 -69h-30c-10 9 -22 24 -22 51c0 29 27 47 67 73l128 82c49 32 84 50 84 102c0 57 -52 77 -90 69l-22 -4c-8 -2 -14 2 -15 11
c-2 10 -1 15 9 19c23 8 37 12 57 15c67 8 130 -34 130 -126c0 -98 -132 -153 -201 -190c67 -22 96 -65 97 -125c2 -116 -138 -195 -276 -195c-147 0 -270 80 -270 208c0 121 78 168 145 167c-40 26 -88 70 -88 136c0 61 54 141 171 141c70 0 133 -29 156 -94
c10 -28 -1 -53 -27 -56s-48 14 -49 39c-3 56 -28 71 -81 71c-63 0 -84 -41 -84 -107c0 -63 32 -114 93 -133z" />
    <glyph glyph-name="paragraph" unicode="&#xb6;" horiz-adv-x="602" 
d="M557 621v-28c-26 -5 -45 -10 -45 -33v-566c0 -23 9 -33 45 -38v-23h-346v23c50 5 59 15 59 38v246h-17c-141 0 -233 72 -233 190c0 119 102 191 242 191h295zM239 273h31v314h-22c-104 0 -128 -64 -128 -157c0 -91 24 -157 119 -157zM427 -6v565c0 24 -7 28 -23 28h-49
v-593c0 -23 9 -33 36 -33s36 10 36 33z" />
    <glyph glyph-name="copyright" unicode="&#xa9;" horiz-adv-x="762" 
d="M382 580c186 0 329 -139 329 -340s-143 -340 -329 -340s-331 139 -331 340s145 340 331 340zM646 240c0 171 -96 300 -264 300c-169 0 -264 -129 -264 -300s95 -300 264 -300c168 0 264 129 264 300zM518 132l12 -14c-15 -30 -55 -75 -144 -75c-83 0 -159 77 -159 190
c0 123 77 191 163 191c91 0 138 -51 138 -103c0 -15 -11 -30 -33 -30c-21 0 -35 10 -35 27c0 44 2 72 -60 72c-76 0 -104 -41 -104 -141c0 -85 46 -165 121 -165c44 0 62 19 76 39c10 15 20 14 25 9z" />
    <glyph glyph-name="registered" unicode="&#xae;" horiz-adv-x="762" 
d="M382 579c185 0 328 -139 328 -339s-143 -339 -328 -339s-330 139 -330 339s145 339 330 339zM382 -59c167 0 263 129 263 299s-96 299 -263 299c-168 0 -263 -129 -263 -299s95 -299 263 -299zM487 163c8 -34 34 -72 55 -72v-25h-39c-35 0 -61 35 -76 91
c-13 52 -29 67 -71 67h-31v-110c0 -18 8 -20 28 -27v-20h-119v20c20 6 26 8 26 27v255c0 20 -8 24 -26 30v20h149c76 0 129 -42 129 -98c0 -53 -33 -82 -104 -86c59 -5 69 -34 79 -72zM325 251h61c47 0 60 34 60 70c0 37 -17 71 -55 71h-66v-141z" />
    <glyph glyph-name="section" unicode="&#xa7;" horiz-adv-x="508" 
d="M477 73c14 -117 -102 -174 -215 -174c-100 0 -149 30 -187 48l-43 153l23 8c11 5 19 3 23 -9c5 -11 11 -30 18 -55c21 -68 79 -104 160 -104c69 0 146 14 133 102c-10 75 -91 85 -157 100c-65 14 -172 26 -189 129c-7 46 10 89 38 120c-17 16 -29 38 -34 68
c-15 100 61 178 188 178c121 0 142 -35 195 -59l10 -121l-23 -5c-9 -3 -16 1 -19 9c-2 12 -9 33 -17 57c-16 54 -57 79 -146 79c-74 0 -123 -42 -114 -107c12 -72 80 -65 135 -77c52 -11 204 -29 219 -145c6 -50 -10 -90 -37 -119c20 -19 35 -44 39 -76zM119 298
c13 -63 82 -68 137 -79c26 -6 80 -14 128 -36c4 15 5 32 3 54c-8 75 -89 84 -155 99c-30 6 -68 11 -102 24c-9 -17 -15 -38 -11 -62z" />
    <glyph glyph-name="trademark" unicode="&#x2122;" horiz-adv-x="630" 
d="M38 621h199c8 0 15 -7 15 -13l3 -48h-22l-8 16c-3 6 -6 8 -13 8h-45v-155c0 -7 15 -10 26 -10v-25h-111v25c13 0 25 3 25 10v155h-44c-7 0 -10 -2 -13 -8l-8 -16h-22l3 48c0 6 7 13 15 13zM606 621v-24c-13 -5 -17 -6 -17 -19v-145c0 -11 3 -11 21 -16v-23h-98v23
c17 5 22 6 22 16v110l-77 -125c-7 -15 -21 -15 -29 0l-86 126v-111c0 -10 6 -11 22 -16v-23h-82v23c18 5 22 6 22 16v145c0 12 -5 14 -22 18v25h76l91 -138l90 138h67z" />
    <glyph glyph-name="degree" unicode="&#xb0;" horiz-adv-x="305" 
d="M153 634c62 0 112 -49 112 -115s-50 -115 -112 -115s-113 49 -113 115s51 115 113 115zM215 519c0 45 -22 80 -62 80c-39 0 -61 -35 -61 -80c0 -44 22 -80 61 -80c40 0 62 36 62 80z" />
    <glyph glyph-name="asciicircum" unicode="^" horiz-adv-x="368" 
d="M23 471l152 204c6 7 13 9 18 0l152 -204c7 -10 3 -20 -8 -20h-17c-7 0 -11 7 -17 12l-119 129l-119 -129c-4 -5 -10 -12 -16 -12h-18c-10 0 -14 10 -8 20z" />
    <glyph glyph-name="dagger" unicode="&#x2020;" horiz-adv-x="546" 
d="M404 507c29 0 55 -26 55 -56s-26 -55 -55 -55c-28 0 -58 39 -113 39l2 -42l50 -50l-63 -208h-14l-63 208l50 50l2 42c-55 0 -85 -39 -113 -39c-29 0 -55 25 -55 55s26 56 55 56c28 0 59 -41 115 -39c4 53 -39 83 -39 112c0 30 26 56 55 56s55 -26 55 -56
c0 -29 -43 -59 -39 -112c57 -2 87 39 115 39z" />
    <glyph glyph-name="daggerdbl" unicode="&#x2021;" horiz-adv-x="544" 
d="M404 207c29 0 55 -26 55 -56s-26 -55 -55 -55c-28 0 -61 42 -117 41c-1 -54 41 -86 41 -115c0 -30 -26 -56 -55 -56s-55 26 -55 56c0 29 42 61 41 115c-56 1 -89 -41 -117 -41c-29 0 -55 25 -55 55s26 56 55 56c28 0 61 -43 117 -41v38l-55 98l55 96v39
c-56 1 -89 -41 -117 -41c-29 0 -55 25 -55 55s26 56 55 56c28 0 61 -43 117 -41c1 53 -41 85 -41 114c0 30 26 56 55 56s55 -26 55 -56c0 -29 -42 -61 -41 -114c56 -2 89 41 117 41c29 0 55 -26 55 -56s-26 -55 -55 -55c-28 0 -61 42 -117 41v-39l55 -97l-55 -97v-38
c56 -2 89 41 117 41z" />
    <glyph glyph-name="acute" unicode="&#xb4;" horiz-adv-x="301" 
d="M181 676l-113 -110c-10 -8 -13 -17 -8 -23c6 -8 13 -8 23 -2l143 77c23 13 23 35 11 56c-12 20 -34 24 -56 2z" />
    <glyph glyph-name="breve" unicode="&#x2d8;" horiz-adv-x="384" 
d="M192 557c-80 0 -130 60 -134 123c0 8 5 11 10 11h14c7 0 10 -3 11 -11c4 -29 36 -61 99 -61s96 32 100 61c1 8 4 11 11 11h14c5 0 10 -3 10 -11c-4 -63 -55 -123 -135 -123z" />
    <glyph glyph-name="caron" unicode="&#x2c7;" horiz-adv-x="408" 
d="M204 533l-149 154h46l103 -74l104 74h45z" />
    <glyph glyph-name="cedilla" unicode="&#xb8;" horiz-adv-x="251" 
d="M79 -122c4 -22 7 -54 41 -56c35 -2 58 17 63 48c5 32 -17 55 -57 51c-17 -2 -30 -5 -37 -6c-16 -3 -23 14 -16 26c11 18 20 39 29 59h53l-22 -48c53 14 117 -24 106 -88c-10 -59 -66 -75 -123 -72c-54 3 -88 28 -94 60c-6 31 29 52 57 26z" />
    <glyph glyph-name="circumflex" unicode="&#x2c6;" horiz-adv-x="408" 
d="M204 689l149 -155h-45l-104 75l-103 -75h-46z" />
    <glyph glyph-name="dieresis" unicode="&#xa8;" horiz-adv-x="423" 
d="M117 569c-28 0 -52 24 -52 52s24 52 52 52s52 -24 52 -52s-24 -52 -52 -52zM306 569c-28 0 -52 24 -52 52s24 52 52 52s52 -24 52 -52s-24 -52 -52 -52z" />
    <glyph glyph-name="dotaccent" unicode="&#x2d9;" horiz-adv-x="234" 
d="M117 570c-28 0 -53 24 -53 53c0 28 25 53 53 53c29 0 53 -25 53 -53c0 -29 -24 -53 -53 -53z" />
    <glyph glyph-name="grave" unicode="`" horiz-adv-x="288" 
d="M228 566l-114 110c-21 22 -44 18 -55 -2c-12 -21 -12 -43 11 -56l142 -77c10 -6 18 -6 24 2c5 6 2 15 -8 23z" />
    <glyph glyph-name="hungarumlaut" unicode="&#x2dd;" horiz-adv-x="494" 
d="M174 676l-114 -110c-10 -8 -12 -17 -7 -23c5 -8 13 -8 23 -2l142 77c23 13 23 35 11 56c-11 20 -33 24 -55 2zM381 676l-114 -110c-10 -8 -12 -17 -7 -23c5 -8 13 -8 23 -2l142 77c23 13 23 35 11 56c-11 20 -33 24 -55 2z" />
    <glyph glyph-name="macron" unicode="&#xaf;" horiz-adv-x="439" 
d="M58 604v11c0 12 7 17 20 17h283c13 0 20 -5 20 -17v-11c0 -12 -7 -17 -20 -17h-283c-13 0 -20 5 -20 17z" />
    <glyph glyph-name="ogonek" unicode="&#x2db;" horiz-adv-x="309" 
d="M244 -95h25c-12 -32 -44 -95 -127 -95c-49 0 -106 27 -106 84c0 63 63 104 111 123h39c-63 -41 -76 -81 -76 -113c0 -33 27 -53 54 -53c46 0 66 23 80 54z" />
    <glyph glyph-name="ring" unicode="&#x2da;" horiz-adv-x="390" 
d="M195 553c-49 0 -89 39 -89 85c0 47 40 85 89 85s88 -38 88 -85c0 -46 -39 -85 -88 -85zM195 587c20 0 40 23 40 51c0 27 -20 52 -40 52c-22 0 -42 -25 -42 -52c0 -28 20 -51 42 -51z" />
    <glyph glyph-name="tilde" unicode="&#x2dc;" horiz-adv-x="434" 
d="M364 647h30c-9 -63 -55 -100 -116 -100c-64 0 -104 68 -150 68c-42 0 -63 -31 -63 -48h-23c-12 59 50 96 102 96c67 0 91 -58 153 -58c34 0 67 28 67 42z" />
    <glyph glyph-name="acutecomb" unicode="&#x301;" horiz-adv-x="0" 
d="M181 676l-113 -110c-10 -8 -13 -17 -8 -23c6 -8 13 -8 23 -2l143 77c23 13 23 35 11 56c-12 20 -34 24 -56 2z" />
    <glyph glyph-name="uni0326" unicode="&#x326;" horiz-adv-x="0" 
d="M149 -223c-8 -28 -27 -52 -49 -71c-5 -4 -10 -4 -16 2l-13 14c15 16 27 30 33 45c5 15 6 28 3 34c-6 -2 -13 -3 -25 -2c-26 4 -46 29 -42 58c4 31 31 52 61 48c29 -4 46 -29 51 -53c5 -26 6 -44 -3 -75z" />
    </font>
</defs>
</svg>
