<?xml version="1.0" standalone="no"?>
<!DOCTYPE svg PUBLIC "-//W3C//DTD SVG 1.1//EN" "http://www.w3.org/Graphics/SVG/1.1/DTD/svg11.dtd" >
<svg xmlns="http://www.w3.org/2000/svg" width="100%" height="100%">
<metadata>
Created by FontXChange 20100429 at Mon Jan  2 12:44:03 2017
 By Killian Grant
Copyright (c) 2015 by Connary Fagen. All rights reserved.
</metadata>
<defs>
<font id="QuincyCF-Bold" horiz-adv-x="597" >
  <font-face 
    font-family="Quincy CF"
    font-weight="700"
    font-stretch="normal"
    units-per-em="1000"
    panose-1="0 0 8 0 0 0 0 0 0 0"
    ascent="800"
    descent="-200"
    x-height="451"
    cap-height="621"
    bbox="-155 -311.788 962 903"
    underline-thickness="50"
    underline-position="-50"
    stemh="51"
    stemv="100"
    unicode-range="U+0020-FB02"
  />
<missing-glyph horiz-adv-x="500" 
d="M0 0v700h500v-700h-500zM250 395l170 255h-340zM280 350l170 -255v510zM80 50h340l-170 255zM50 605v-510l170 255z" />
    <glyph glyph-name="f_f" unicode="ff" horiz-adv-x="757" 
d="M758 598c14 -20 11 -50 -13 -63c-25 -14 -49 -2 -58 15c-16 33 -34 69 -76 69c-58 0 -75 -55 -75 -125v-37h146c-18 -52 -19 -58 -38 -58h-108v-334c0 -23 8 -28 52 -28v-37h-197v37c38 0 46 5 46 28v334h-46c-6 0 -10 4 -10 10v48h56v26v3v0c0 66 -43 138 -130 138
c-90 0 -117 -77 -117 -138v-29h133c-17 -51 -21 -58 -42 -58h-91v-334c0 -23 8 -28 52 -28v-37h-201v37c41 0 49 5 49 28v334h-49c-6 0 -10 4 -10 10v48h59v17c0 109 72 197 217 197c63 0 126 -23 170 -56c28 34 70 52 122 52c86 0 134 -31 159 -69z" />
    <glyph glyph-name="fi" unicode="fi" horiz-adv-x="604" 
d="M190 486v-29h120c-18 -51 -22 -58 -42 -58h-78v-334c0 -23 8 -28 52 -28v-37h-201v37c41 0 49 5 49 28v334h-49c-6 0 -10 4 -10 10v48h59v17c0 115 62 193 217 193c129 0 223 -55 223 -119c0 -29 -20 -48 -54 -48c-30 0 -55 17 -55 48c0 40 -25 72 -114 72
c-100 0 -117 -66 -117 -134zM532 423v-357c0 -23 17 -28 43 -28v-38h-185v38c27 0 44 5 44 28v303c0 23 -8 31 -28 31h-20v45l114 9c23 2 32 -9 32 -31z" />
    <glyph glyph-name="fl" unicode="fl" horiz-adv-x="622" 
d="M538 582v-481c0 -33 11 -55 66 -43l-16 -44c-23 -10 -46 -14 -72 -14c-50 0 -76 32 -76 78v433c0 54 -71 109 -151 109c-86 0 -99 -73 -99 -134v-29h140c-18 -51 -22 -58 -42 -58h-98v-334c0 -23 8 -28 52 -28v-37h-201v37c38 0 49 5 49 28v334h-49c-6 0 -10 4 -10 10v48
h59v17c0 109 58 193 199 193c49 0 111 -7 161 -20l59 9c37 6 30 -30 29 -74z" />
    <glyph glyph-name=".notdef" horiz-adv-x="500" 
d="M0 0v700h500v-700h-500zM250 395l170 255h-340zM280 350l170 -255v510zM80 50h340l-170 255zM50 605v-510l170 255z" />
    <glyph glyph-name="A" unicode="A" horiz-adv-x="705" 
d="M389 588l206 -463c31 -70 45 -74 90 -84v-41h-231v41c57 10 56 18 46 42l-58 133h-233l-52 -128c-10 -25 7 -37 56 -47v-41h-193v41c48 10 56 13 75 59l222 529l37 -10c14 -5 28 -14 35 -31zM229 265h192l-99 229z" />
    <glyph glyph-name="Aacute" unicode="&#xc1;" horiz-adv-x="705" 
d="M471 788l-136 -77c-10 -6 -21 -6 -28 3c-7 10 -4 20 6 30l107 112c23 24 49 29 69 4c22 -27 10 -56 -18 -72zM389 588l206 -463c31 -70 45 -74 90 -84v-41h-231v41c57 10 56 18 46 42l-58 133h-233l-52 -128c-10 -25 7 -37 56 -47v-41h-193v41c48 10 56 13 75 59l222 529
l37 -10c14 -5 28 -14 35 -31zM229 265h192l-99 229z" />
    <glyph glyph-name="Abreve" unicode="&#x102;" horiz-adv-x="705" 
d="M344 719c-80 0 -137 56 -141 131c0 8 5 11 10 11h27c7 0 10 -3 11 -11c4 -29 38 -55 93 -55c56 0 89 26 93 55c1 8 4 11 11 11h27c5 0 10 -3 10 -11c-4 -75 -61 -131 -141 -131zM389 588l206 -463c31 -70 45 -74 90 -84v-41h-231v41c57 10 56 18 46 42l-58 133h-233
l-52 -128c-10 -25 7 -37 56 -47v-41h-193v41c48 10 56 13 75 59l222 529l37 -10c14 -5 28 -14 35 -31zM229 265h192l-99 229z" />
    <glyph glyph-name="Acircumflex" unicode="&#xc2;" horiz-adv-x="705" 
d="M351 773l-97 -69h-64l161 174l162 -174h-65zM389 588l206 -463c31 -70 45 -74 90 -84v-41h-231v41c57 10 56 18 46 42l-58 133h-233l-52 -128c-10 -25 7 -37 56 -47v-41h-193v41c48 10 56 13 75 59l222 529l37 -10c14 -5 28 -14 35 -31zM229 265h192l-99 229z" />
    <glyph glyph-name="Adieresis" unicode="&#xc4;" horiz-adv-x="705" 
d="M237 726c-36 0 -65 30 -65 65s29 65 65 65c35 0 64 -30 64 -65s-29 -65 -64 -65zM448 726c-35 0 -65 30 -65 65s30 65 65 65s65 -30 65 -65s-30 -65 -65 -65zM389 588l206 -463c31 -70 45 -74 90 -84v-41h-231v41c57 10 56 18 46 42l-58 133h-233l-52 -128
c-10 -25 7 -37 56 -47v-41h-193v41c48 10 56 13 75 59l222 529l37 -10c14 -5 28 -14 35 -31zM229 265h192l-99 229z" />
    <glyph glyph-name="Agrave" unicode="&#xc0;" horiz-adv-x="705" 
d="M388 711l-136 77c-28 16 -40 45 -18 72c20 25 47 20 69 -4l107 -112c10 -10 14 -20 6 -30c-7 -9 -18 -9 -28 -3zM389 588l206 -463c31 -70 45 -74 90 -84v-41h-231v41c57 10 56 18 46 42l-58 133h-233l-52 -128c-10 -25 7 -37 56 -47v-41h-193v41c48 10 56 13 75 59
l222 529l37 -10c14 -5 28 -14 35 -31zM229 265h192l-99 229z" />
    <glyph glyph-name="Amacron" unicode="&#x100;" horiz-adv-x="705" 
d="M490 755h-283c-13 0 -20 5 -20 17v30c0 12 7 17 20 17h283c13 0 20 -5 20 -17v-30c0 -12 -7 -17 -20 -17zM389 588l206 -463c31 -70 45 -74 90 -84v-41h-231v41c57 10 56 18 46 42l-58 133h-233l-52 -128c-10 -25 7 -37 56 -47v-41h-193v41c48 10 56 13 75 59l222 529
l37 -10c14 -5 28 -14 35 -31zM229 265h192l-99 229z" />
    <glyph glyph-name="Aogonek" unicode="&#x104;" horiz-adv-x="705" 
d="M685 0h-89c-62 -42 -82 -81 -82 -113c0 -33 24 -55 56 -55c44 0 63 23 75 54h33c-10 -32 -42 -105 -143 -105c-54 0 -116 27 -116 91c0 68 72 110 126 128h-91v41c57 10 56 18 46 42l-58 133h-233l-52 -128c-10 -25 7 -37 56 -47v-41h-193v41c48 10 56 13 75 59l222 529
l37 -10c14 -5 28 -14 35 -31l206 -463c31 -70 45 -74 90 -84v-41zM229 265h192l-99 229z" />
    <glyph glyph-name="Aring" unicode="&#xc5;" horiz-adv-x="705" 
d="M347 714c-54 0 -99 43 -99 94c0 52 45 95 99 95s98 -43 98 -95c0 -51 -44 -94 -98 -94zM347 856c-21 0 -39 -23 -39 -48c0 -26 18 -48 39 -48c18 0 37 22 37 48c0 25 -19 48 -37 48zM389 588l206 -463c31 -70 45 -74 90 -84v-41h-231v41c57 10 56 18 46 42l-58 133h-233
l-52 -128c-10 -25 7 -37 56 -47v-41h-193v41c48 10 56 13 75 59l222 529l37 -10c14 -5 28 -14 35 -31zM229 265h192l-99 229z" />
    <glyph glyph-name="Atilde" unicode="&#xc3;" horiz-adv-x="705" 
d="M203 732h-38c-15 64 51 106 110 106c74 0 91 -58 153 -58c34 0 59 29 59 42h46c-7 -67 -56 -110 -124 -110c-70 0 -104 68 -150 68c-42 0 -58 -36 -56 -48zM389 588l206 -463c31 -70 45 -74 90 -84v-41h-231v41c57 10 56 18 46 42l-58 133h-233l-52 -128
c-10 -25 7 -37 56 -47v-41h-193v41c48 10 56 13 75 59l222 529l37 -10c14 -5 28 -14 35 -31zM229 265h192l-99 229z" />
    <glyph glyph-name="AE" unicode="&#xc6;" horiz-adv-x="996" 
d="M911 122h50c-16 -32 -24 -67 -32 -99c-4 -15 -17 -23 -30 -23h-465v42c38 8 58 17 58 46v124h-223l-90 -121c-20 -27 3 -41 62 -51v-40h-221v40c56 10 68 19 99 61l320 427c20 27 22 42 -5 53v40h455c13 0 17 -3 17 -18v-107h-42l-15 33c-13 28 -37 36 -80 36h-164v-221
h171c33 0 38 17 51 49h25v-153h-25c-13 31 -18 50 -51 50h-171v-235l213 2c40 0 49 9 67 32zM306 262h186v249z" />
    <glyph glyph-name="B" unicode="B" horiz-adv-x="632" 
d="M429 336c112 -18 168 -80 168 -159c0 -118 -95 -180 -249 -177l-88 2c-105 7 -162 6 -235 -2v47c46 10 65 25 65 48v437c0 23 -24 38 -64 44v45h291c158 0 246 -45 246 -147c0 -55 -39 -115 -134 -138zM200 571v-213h183c30 0 63 42 63 114c0 62 -38 99 -120 99h-126z
M229 54h106c94 0 145 25 145 123c0 88 -57 138 -224 138h-56v-219c0 -22 8 -42 29 -42z" />
    <glyph glyph-name="C" unicode="C" horiz-adv-x="640" 
d="M593 430l-43 -15c-11 -4 -19 0 -23 11c-3 9 -8 21 -14 36c-37 90 -102 121 -169 121c-102 0 -189 -77 -189 -247c0 -167 100 -286 211 -286c74 0 118 35 153 83c16 23 22 39 36 40c11 0 35 -15 38 -26c3 -10 -3 -21 -13 -39c-40 -68 -114 -123 -238 -123
c-163 0 -310 134 -310 336c0 183 133 316 294 316c89 0 143 -36 181 -82c17 0 25 23 29 49c2 11 8 17 19 17h27z" />
    <glyph glyph-name="Cacute" unicode="&#x106;" horiz-adv-x="640" 
d="M410 856l-107 -112c-10 -10 -13 -20 -6 -30c7 -9 18 -9 28 -3l136 77c28 16 40 45 18 72c-20 25 -46 20 -69 -4zM593 430l-43 -15c-11 -4 -19 0 -23 11c-3 9 -8 21 -14 36c-37 90 -102 121 -169 121c-102 0 -189 -77 -189 -247c0 -167 100 -286 211 -286
c74 0 118 35 153 83c16 23 22 39 36 40c11 0 35 -15 38 -26c3 -10 -3 -21 -13 -39c-40 -68 -114 -123 -238 -123c-163 0 -310 134 -310 336c0 183 133 316 294 316c89 0 143 -36 181 -82c17 0 25 23 29 49c2 11 8 17 19 17h27z" />
    <glyph glyph-name="Ccaron" unicode="&#x10c;" horiz-adv-x="640" 
d="M325 693l-161 174h64l97 -69l97 69h65zM593 430l-43 -15c-11 -4 -19 0 -23 11c-3 9 -8 21 -14 36c-37 90 -102 121 -169 121c-102 0 -189 -77 -189 -247c0 -167 100 -286 211 -286c74 0 118 35 153 83c16 23 22 39 36 40c11 0 35 -15 38 -26c3 -10 -3 -21 -13 -39
c-40 -68 -114 -123 -238 -123c-163 0 -310 134 -310 336c0 183 133 316 294 316c89 0 143 -36 181 -82c17 0 25 23 29 49c2 11 8 17 19 17h27z" />
    <glyph glyph-name="Ccedilla" unicode="&#xc7;" horiz-adv-x="640" 
d="M593 147c3 -10 -3 -21 -13 -39c-38 -64 -106 -117 -217 -122l-15 -32c55 9 114 -31 104 -93c-10 -59 -71 -83 -129 -80c-64 3 -100 36 -106 68c-6 33 38 58 69 26c4 -22 7 -51 41 -53c32 -2 51 14 56 46c5 31 -14 52 -50 48c-15 -2 -28 -5 -36 -6c-22 -4 -31 16 -22 30
c7 13 16 30 24 48c-145 21 -267 149 -267 333c0 183 133 316 294 316c89 0 143 -36 181 -82c17 0 25 23 29 49c2 11 8 17 19 17h27l11 -191l-43 -15c-11 -4 -19 0 -23 11c-3 9 -8 21 -14 36c-37 90 -102 121 -169 121c-102 0 -189 -77 -189 -247c0 -167 100 -286 211 -286
c74 0 118 35 153 83c16 23 22 39 36 40c11 0 35 -15 38 -26z" />
    <glyph glyph-name="Cdotaccent" unicode="&#x10a;" horiz-adv-x="640" 
d="M327 725c-35 0 -63 29 -63 64c0 34 28 63 63 63c34 0 63 -29 63 -63c0 -35 -29 -64 -63 -64zM593 430l-43 -15c-11 -4 -19 0 -23 11c-3 9 -8 21 -14 36c-37 90 -102 121 -169 121c-102 0 -189 -77 -189 -247c0 -167 100 -286 211 -286c74 0 118 35 153 83
c16 23 22 39 36 40c11 0 35 -15 38 -26c3 -10 -3 -21 -13 -39c-40 -68 -114 -123 -238 -123c-163 0 -310 134 -310 336c0 183 133 316 294 316c89 0 143 -36 181 -82c17 0 25 23 29 49c2 11 8 17 19 17h27z" />
    <glyph glyph-name="D" unicode="D" horiz-adv-x="647" 
d="M15 621h227c221 0 360 -82 360 -310c0 -261 -192 -318 -355 -309c-104 7 -160 6 -232 -2v47c46 10 65 25 65 48v437c0 23 -21 38 -65 47v42zM222 60l54 -3c145 -9 204 87 204 254c0 165 -72 260 -215 260h-75v-473c0 -23 8 -36 32 -38z" />
    <glyph glyph-name="Eth" unicode="&#xd0;" horiz-adv-x="651" 
d="M19 621h227c221 0 360 -82 360 -310c0 -261 -192 -318 -355 -309c-104 7 -160 6 -232 -2v47c46 10 65 25 65 48v189h-69v53h69v195c0 23 -21 38 -65 47v42zM226 60l54 -3c145 -9 204 87 204 254c0 165 -72 260 -215 260h-75v-234h91v-53h-91v-186c0 -23 8 -36 32 -38z
" />
    <glyph glyph-name="Dcaron" unicode="&#x10e;" horiz-adv-x="647" 
d="M298 693l-161 174h64l97 -69l97 69h65zM15 621h227c221 0 360 -82 360 -310c0 -261 -192 -318 -355 -309c-104 7 -160 6 -232 -2v47c46 10 65 25 65 48v437c0 23 -21 38 -65 47v42zM222 60l54 -3c145 -9 204 87 204 254c0 165 -72 260 -215 260h-75v-473
c0 -23 8 -36 32 -38z" />
    <glyph glyph-name="Dcroat" unicode="&#x110;" horiz-adv-x="651" 
d="M19 621h227c221 0 360 -82 360 -310c0 -261 -192 -318 -355 -309c-104 7 -160 6 -232 -2v47c46 10 65 25 65 48v189h-69v53h69v195c0 23 -21 38 -65 47v42zM226 60l54 -3c145 -9 204 87 204 254c0 165 -72 260 -215 260h-75v-234h91v-53h-91v-186c0 -23 8 -36 32 -38z
" />
    <glyph glyph-name="E" unicode="E" 
d="M512 122h50c-16 -32 -24 -67 -32 -99c-4 -15 -17 -23 -30 -23h-465v42c38 8 58 17 58 46v446c0 30 -20 38 -58 47v40h455c13 0 17 -3 17 -18v-107h-42l-15 33c-13 28 -37 36 -80 36h-164v-221h171c33 0 38 17 51 49h25v-153h-25c-13 31 -18 50 -51 50h-171v-235l213 2
c40 0 49 9 67 32z" />
    <glyph glyph-name="Eacute" unicode="&#xc9;" 
d="M362 856l-107 -112c-10 -10 -13 -20 -6 -30c7 -9 18 -9 28 -3l136 77c28 16 40 45 18 72c-20 25 -46 20 -69 -4zM512 122h50c-16 -32 -24 -67 -32 -99c-4 -15 -17 -23 -30 -23h-465v42c38 8 58 17 58 46v446c0 30 -20 38 -58 47v40h455c13 0 17 -3 17 -18v-107h-42
l-15 33c-13 28 -37 36 -80 36h-164v-221h171c33 0 38 17 51 49h25v-153h-25c-13 31 -18 50 -51 50h-171v-235l213 2c40 0 49 9 67 32z" />
    <glyph glyph-name="Ecaron" unicode="&#x11a;" 
d="M277 693l-161 174h64l97 -69l97 69h65zM512 122h50c-16 -32 -24 -67 -32 -99c-4 -15 -17 -23 -30 -23h-465v42c38 8 58 17 58 46v446c0 30 -20 38 -58 47v40h455c13 0 17 -3 17 -18v-107h-42l-15 33c-13 28 -37 36 -80 36h-164v-221h171c33 0 38 17 51 49h25v-153h-25
c-13 31 -18 50 -51 50h-171v-235l213 2c40 0 49 9 67 32z" />
    <glyph glyph-name="Ecircumflex" unicode="&#xca;" 
d="M293 878l162 -174h-65l-97 69l-97 -69h-64zM512 122h50c-16 -32 -24 -67 -32 -99c-4 -15 -17 -23 -30 -23h-465v42c38 8 58 17 58 46v446c0 30 -20 38 -58 47v40h455c13 0 17 -3 17 -18v-107h-42l-15 33c-13 28 -37 36 -80 36h-164v-221h171c33 0 38 17 51 49h25v-153
h-25c-13 31 -18 50 -51 50h-171v-235l213 2c40 0 49 9 67 32z" />
    <glyph glyph-name="Edieresis" unicode="&#xcb;" 
d="M179 726c-36 0 -65 30 -65 65s29 65 65 65c35 0 64 -30 64 -65s-29 -65 -64 -65zM390 726c-35 0 -65 30 -65 65s30 65 65 65s65 -30 65 -65s-30 -65 -65 -65zM512 122h50c-16 -32 -24 -67 -32 -99c-4 -15 -17 -23 -30 -23h-465v42c38 8 58 17 58 46v446
c0 30 -20 38 -58 47v40h455c13 0 17 -3 17 -18v-107h-42l-15 33c-13 28 -37 36 -80 36h-164v-221h171c33 0 38 17 51 49h25v-153h-25c-13 31 -18 50 -51 50h-171v-235l213 2c40 0 49 9 67 32z" />
    <glyph glyph-name="Edotaccent" unicode="&#x116;" 
d="M279 725c-35 0 -63 29 -63 64c0 34 28 63 63 63c34 0 63 -29 63 -63c0 -35 -29 -64 -63 -64zM512 122h50c-16 -32 -24 -67 -32 -99c-4 -15 -17 -23 -30 -23h-465v42c38 8 58 17 58 46v446c0 30 -20 38 -58 47v40h455c13 0 17 -3 17 -18v-107h-42l-15 33
c-13 28 -37 36 -80 36h-164v-221h171c33 0 38 17 51 49h25v-153h-25c-13 31 -18 50 -51 50h-171v-235l213 2c40 0 49 9 67 32z" />
    <glyph glyph-name="Egrave" unicode="&#xc8;" 
d="M352 744l-107 112c-22 24 -49 29 -69 4c-22 -27 -10 -56 18 -72l136 -77c10 -6 21 -6 28 3c8 10 4 20 -6 30zM512 122h50c-16 -32 -24 -67 -32 -99c-4 -15 -17 -23 -30 -23h-465v42c38 8 58 17 58 46v446c0 30 -20 38 -58 47v40h455c13 0 17 -3 17 -18v-107h-42l-15 33
c-13 28 -37 36 -80 36h-164v-221h171c33 0 38 17 51 49h25v-153h-25c-13 31 -18 50 -51 50h-171v-235l213 2c40 0 49 9 67 32z" />
    <glyph glyph-name="Emacron" unicode="&#x112;" 
d="M129 772v30c0 12 7 17 20 17h283c13 0 20 -5 20 -17v-30c0 -12 -7 -17 -20 -17h-283c-13 0 -20 5 -20 17zM512 122h50c-16 -32 -24 -67 -32 -99c-4 -15 -17 -23 -30 -23h-465v42c38 8 58 17 58 46v446c0 30 -20 38 -58 47v40h455c13 0 17 -3 17 -18v-107h-42l-15 33
c-13 28 -37 36 -80 36h-164v-221h171c33 0 38 17 51 49h25v-153h-25c-13 31 -18 50 -51 50h-171v-235l213 2c40 0 49 9 67 32z" />
    <glyph glyph-name="Eogonek" unicode="&#x118;" 
d="M436 -168c44 0 63 23 75 54h33c-10 -32 -42 -105 -143 -105c-54 0 -116 27 -116 91c0 68 72 110 126 128h-376v42c38 8 58 17 58 46v446c0 30 -20 38 -58 47v40h455c13 0 17 -3 17 -18v-107h-42l-15 33c-13 28 -37 36 -80 36h-164v-221h171c33 0 38 17 51 49h25v-153h-25
c-13 31 -18 50 -51 50h-171v-235l213 2c40 0 49 9 67 32l26 33h50c-16 -32 -24 -67 -32 -99c-4 -15 -17 -23 -30 -23h-38c-62 -42 -82 -81 -82 -113c0 -33 24 -55 56 -55z" />
    <glyph glyph-name="Etilde" unicode="&#x1ebc;" 
d="M429 822h46c-7 -67 -56 -110 -124 -110c-70 0 -104 68 -150 68c-42 0 -58 -36 -56 -48h-38c-15 64 51 106 110 106c74 0 91 -58 153 -58c34 0 59 29 59 42zM512 122h50c-16 -32 -24 -67 -32 -99c-4 -15 -17 -23 -30 -23h-465v42c38 8 58 17 58 46v446c0 30 -20 38 -58 47
v40h455c13 0 17 -3 17 -18v-107h-42l-15 33c-13 28 -37 36 -80 36h-164v-221h171c33 0 38 17 51 49h25v-153h-25c-13 31 -18 50 -51 50h-171v-235l213 2c40 0 49 9 67 32z" />
    <glyph glyph-name="F" unicode="F" horiz-adv-x="552" 
d="M522 496h-42l-16 33c-13 28 -37 36 -80 36h-188v-221h170c33 0 38 17 51 49h25v-153h-25c-13 31 -18 50 -51 50h-170v-205c0 -29 21 -38 58 -47v-38h-229v38c38 9 58 18 58 47v449c0 30 -20 38 -58 47v40h436c21 0 37 -10 42 -36z" />
    <glyph glyph-name="G" unicode="G" horiz-adv-x="681" 
d="M591 428l-62 -20c-5 11 -10 25 -19 46c-36 86 -115 128 -194 128c-97 0 -168 -72 -168 -244c0 -187 75 -289 178 -289c78 0 155 41 155 81v83c0 20 -12 32 -32 32h-45v50l242 1v-51h-31c-20 0 -32 -12 -32 -32v-208c0 -13 -33 -17 -36 -5l-24 78
c-48 -46 -107 -88 -197 -88c-171 0 -301 129 -301 330c0 185 127 317 291 317c86 0 149 -36 183 -90c20 0 26 35 29 81h49z" />
    <glyph glyph-name="Gbreve" unicode="&#x11e;" horiz-adv-x="681" 
d="M323 719c-80 0 -137 56 -141 131c0 8 5 11 10 11h27c7 0 10 -3 11 -11c4 -29 38 -55 93 -55c56 0 89 26 93 55c1 8 4 11 11 11h27c5 0 10 -3 10 -11c-4 -75 -61 -131 -141 -131zM591 428l-62 -20c-5 11 -10 25 -19 46c-36 86 -115 128 -194 128c-97 0 -168 -72 -168 -244
c0 -187 75 -289 178 -289c78 0 155 41 155 81v83c0 20 -12 32 -32 32h-45v50l242 1v-51h-31c-20 0 -32 -12 -32 -32v-208c0 -13 -33 -17 -36 -5l-24 78c-48 -46 -107 -88 -197 -88c-171 0 -301 129 -301 330c0 185 127 317 291 317c86 0 149 -36 183 -90c20 0 26 35 29 81
h49z" />
    <glyph glyph-name="Gcommaaccent" unicode="&#x122;" horiz-adv-x="681" 
d="M591 428l-62 -20c-5 11 -10 25 -19 46c-36 86 -115 128 -194 128c-97 0 -168 -72 -168 -244c0 -187 75 -289 178 -289c78 0 155 41 155 81v83c0 20 -12 32 -32 32h-45v50l242 1v-51h-31c-20 0 -32 -12 -32 -32v-208c0 -13 -33 -17 -36 -5l-24 78
c-48 -46 -107 -88 -197 -88c-171 0 -301 129 -301 330c0 185 127 317 291 317c86 0 149 -36 183 -90c20 0 26 35 29 81h49zM404 -226c-10 -33 -29 -61 -54 -83c-7 -4 -12 -4 -19 2l-17 19c17 18 29 32 36 50c6 17 7 31 5 38c-8 -2 -14 -2 -28 -1c-28 4 -51 33 -47 65
c4 36 36 59 69 55c34 -4 53 -33 58 -60c6 -30 7 -51 -3 -85z" />
    <glyph glyph-name="Gdotaccent" unicode="&#x120;" horiz-adv-x="681" 
d="M316 725c-35 0 -63 29 -63 64c0 34 28 63 63 63c34 0 63 -29 63 -63c0 -35 -29 -64 -63 -64zM591 428l-62 -20c-5 11 -10 25 -19 46c-36 86 -115 128 -194 128c-97 0 -168 -72 -168 -244c0 -187 75 -289 178 -289c78 0 155 41 155 81v83c0 20 -12 32 -32 32h-45v50l242 1
v-51h-31c-20 0 -32 -12 -32 -32v-208c0 -13 -33 -17 -36 -5l-24 78c-48 -46 -107 -88 -197 -88c-171 0 -301 129 -301 330c0 185 127 317 291 317c86 0 149 -36 183 -90c20 0 26 35 29 81h49z" />
    <glyph glyph-name="H" unicode="H" horiz-adv-x="702" 
d="M668 621v-40c-37 -9 -58 -17 -58 -47v-449c0 -29 21 -38 58 -47v-38h-229v38c37 9 58 18 58 47v202h-294v-202c0 -29 21 -38 58 -47v-38h-229v38c37 9 58 18 58 47v449c0 30 -21 38 -58 47v40h229v-40c-37 -9 -58 -17 -58 -47v-192h294v192c0 30 -21 38 -58 47v40h229z
" />
    <glyph glyph-name="Hbar" unicode="&#x126;" horiz-adv-x="701" 
d="M668 621v-40c-37 -9 -58 -17 -58 -47v-449c0 -29 21 -38 58 -47v-38h-229v38c37 9 58 18 58 47v202h-294v-202c0 -29 21 -38 58 -47v-38h-229v38c37 9 58 18 58 47v449c0 30 -21 38 -58 47v40h229v-40c-37 -9 -58 -17 -58 -47v-81h294v81c0 30 -21 38 -58 47v40h229z
M203 342h294v47h-294v-47z" />
    <glyph glyph-name="I" unicode="I" horiz-adv-x="311" 
d="M210 534v-449c0 -29 22 -38 59 -47v-38h-229v38c38 9 60 18 60 47v449c0 30 -22 38 -60 47v40h229v-40c-37 -9 -59 -17 -59 -47z" />
    <glyph glyph-name="IJ" unicode="&#x132;" horiz-adv-x="684" 
d="M210 534v-449c0 -29 22 -38 59 -47v-38h-229v38c38 9 60 18 60 47v449c0 30 -22 38 -60 47v40h229v-40c-37 -9 -59 -17 -59 -47zM644 621v-40c-38 -9 -60 -17 -60 -47v-545c0 -115 -56 -156 -151 -156c-79 0 -127 44 -127 92c0 40 21 59 57 59s46 -25 46 -51
c0 -25 8 -53 33 -53c22 0 32 21 32 54v600c0 30 -22 38 -59 47v40h229z" />
    <glyph glyph-name="Iacute" unicode="&#xcd;" horiz-adv-x="311" 
d="M229 856l-107 -112c-10 -10 -13 -20 -6 -30c7 -9 18 -9 28 -3l136 77c28 16 40 45 18 72c-20 25 -46 20 -69 -4zM210 534v-449c0 -29 22 -38 59 -47v-38h-229v38c38 9 60 18 60 47v449c0 30 -22 38 -60 47v40h229v-40c-37 -9 -59 -17 -59 -47z" />
    <glyph glyph-name="Icircumflex" unicode="&#xce;" horiz-adv-x="311" 
d="M159 878l162 -174h-65l-97 69l-97 -69h-65zM210 534v-449c0 -29 22 -38 59 -47v-38h-229v38c38 9 60 18 60 47v449c0 30 -22 38 -60 47v40h229v-40c-37 -9 -59 -17 -59 -47z" />
    <glyph glyph-name="Idieresis" unicode="&#xcf;" horiz-adv-x="311" 
d="M46 726c-36 0 -65 30 -65 65s29 65 65 65c35 0 64 -30 64 -65s-29 -65 -64 -65zM257 726c-35 0 -65 30 -65 65s30 65 65 65s65 -30 65 -65s-30 -65 -65 -65zM210 534v-449c0 -29 22 -38 59 -47v-38h-229v38c38 9 60 18 60 47v449c0 30 -22 38 -60 47v40h229v-40
c-37 -9 -59 -17 -59 -47z" />
    <glyph glyph-name="Idotaccent" unicode="&#x130;" horiz-adv-x="311" 
d="M146 725c-35 0 -63 29 -63 64c0 34 28 63 63 63c34 0 63 -29 63 -63c0 -35 -29 -64 -63 -64zM210 534v-449c0 -29 22 -38 59 -47v-38h-229v38c38 9 60 18 60 47v449c0 30 -22 38 -60 47v40h229v-40c-37 -9 -59 -17 -59 -47z" />
    <glyph glyph-name="Igrave" unicode="&#xcc;" horiz-adv-x="311" 
d="M219 744l-107 112c-22 24 -49 29 -69 4c-22 -27 -10 -56 18 -72l136 -77c10 -6 21 -6 28 3c8 10 4 20 -6 30zM210 534v-449c0 -29 22 -38 59 -47v-38h-229v38c38 9 60 18 60 47v449c0 30 -22 38 -60 47v40h229v-40c-37 -9 -59 -17 -59 -47z" />
    <glyph glyph-name="Imacron" unicode="&#x12a;" horiz-adv-x="311" 
d="M-4 772v30c0 12 7 17 20 17h283c13 0 20 -5 20 -17v-30c0 -12 -7 -17 -20 -17h-283c-13 0 -20 5 -20 17zM210 534v-449c0 -29 22 -38 59 -47v-38h-229v38c38 9 60 18 60 47v449c0 30 -22 38 -60 47v40h229v-40c-37 -9 -59 -17 -59 -47z" />
    <glyph glyph-name="Iogonek" unicode="&#x12e;" horiz-adv-x="311" 
d="M269 621v-40c-37 -9 -59 -17 -59 -47v-449c0 -29 22 -38 59 -47v-38h-86c-62 -42 -82 -81 -82 -113c0 -33 24 -55 56 -55c44 0 63 23 75 54h33c-10 -32 -42 -105 -143 -105c-54 0 -116 27 -116 91c0 68 72 110 126 128h-92v38c38 9 60 18 60 47v449c0 30 -22 38 -60 47
v40h229z" />
    <glyph glyph-name="J" unicode="J" horiz-adv-x="373" 
d="M333 621v-40c-38 -9 -60 -17 -60 -47v-545c0 -115 -56 -156 -151 -156c-79 0 -127 44 -127 92c0 40 21 59 57 59s46 -25 46 -51c0 -25 8 -53 33 -53c22 0 32 21 32 54v600c0 30 -22 38 -59 47v40h229z" />
    <glyph glyph-name="K" unicode="K" horiz-adv-x="673" 
d="M306 341l208 -225c61 -66 90 -71 124 -79v-37h-252v37c29 8 52 12 37 28l-201 214h-32v-194c0 -29 22 -38 59 -47v-38h-229v38c38 9 60 18 60 47v449c0 30 -22 38 -60 47v40h229v-40c-37 -9 -59 -17 -59 -47v-195h17c15 0 35 8 48 21l183 194c18 19 -10 25 -31 28v39h184
v-39c-26 -3 -62 -8 -81 -27z" />
    <glyph glyph-name="Kcommaaccent" unicode="&#x136;" horiz-adv-x="673" 
d="M306 341l208 -225c61 -66 90 -71 124 -79v-37h-252v37c29 8 52 12 37 28l-201 214h-32v-194c0 -29 22 -38 59 -47v-38h-229v38c38 9 60 18 60 47v449c0 30 -22 38 -60 47v40h229v-40c-37 -9 -59 -17 -59 -47v-195h17c15 0 35 8 48 21l183 194c18 19 -10 25 -31 28v39h184
v-39c-26 -3 -62 -8 -81 -27zM321 -81c34 -4 53 -33 58 -60c6 -30 7 -51 -3 -85c-10 -33 -29 -61 -54 -83c-7 -4 -12 -4 -19 2l-17 19c17 18 29 32 36 50c6 17 7 31 5 38c-8 -2 -14 -2 -28 -1c-28 4 -51 33 -47 65c4 36 36 59 69 55z" />
    <glyph glyph-name="L" unicode="L" horiz-adv-x="577" 
d="M542 124l-24 -101c-4 -15 -17 -23 -30 -23h-471v38c37 9 60 18 60 47v449c0 30 -23 38 -60 47v40h229v-40c-37 -9 -59 -17 -59 -47v-439c0 -25 16 -44 40 -42l168 8c43 2 65 3 80 31l17 32h50z" />
    <glyph glyph-name="Lacute" unicode="&#x139;" horiz-adv-x="577" 
d="M215 856l-107 -112c-10 -10 -13 -20 -6 -30c7 -9 18 -9 28 -3l136 77c28 16 40 45 18 72c-20 25 -46 20 -69 -4zM542 124l-24 -101c-4 -15 -17 -23 -30 -23h-471v38c37 9 60 18 60 47v449c0 30 -23 38 -60 47v40h229v-40c-37 -9 -59 -17 -59 -47v-439
c0 -25 16 -44 40 -42l168 8c43 2 65 3 80 31l17 32h50z" />
    <glyph glyph-name="Lcaron" unicode="&#x13d;" horiz-adv-x="577" 
d="M433 475c-10 -32 -29 -61 -54 -82c-7 -4 -12 -5 -19 2l-17 19c17 18 30 32 36 49s7 31 5 39c-8 -2 -14 -3 -27 -2c-29 4 -52 34 -48 66c4 36 36 59 69 55c34 -4 54 -33 59 -61c5 -30 6 -50 -4 -85zM542 124l-24 -101c-4 -15 -17 -23 -30 -23h-471v38c37 9 60 18 60 47
v449c0 30 -23 38 -60 47v40h229v-40c-37 -9 -59 -17 -59 -47v-439c0 -25 16 -44 40 -42l168 8c43 2 65 3 80 31l17 32h50z" />
    <glyph glyph-name="Lcommaaccent" unicode="&#x13b;" horiz-adv-x="577" 
d="M542 124l-24 -101c-4 -15 -17 -23 -30 -23h-471v38c37 9 60 18 60 47v449c0 30 -23 38 -60 47v40h229v-40c-37 -9 -59 -17 -59 -47v-439c0 -25 16 -44 40 -42l168 8c43 2 65 3 80 31l17 32h50zM348 -226c-10 -33 -29 -61 -54 -83c-7 -4 -12 -4 -19 2l-17 19
c17 18 29 32 36 50c6 17 7 31 5 38c-8 -2 -14 -2 -28 -1c-28 4 -51 33 -47 65c4 36 36 59 69 55c34 -4 53 -33 58 -60c6 -30 7 -51 -3 -85z" />
    <glyph glyph-name="Ldot" unicode="&#x13f;" horiz-adv-x="577" 
d="M542 124l-24 -101c-4 -15 -17 -23 -30 -23h-471v38c37 9 60 18 60 47v449c0 30 -23 38 -60 47v40h229v-40c-37 -9 -59 -17 -59 -47v-439c0 -25 16 -44 40 -42l168 8c43 2 65 3 80 31l17 32h50zM363 333c-33 0 -61 28 -61 62c0 33 28 61 61 61s61 -28 61 -61
c0 -34 -28 -62 -61 -62z" />
    <glyph glyph-name="Lslash" unicode="&#x141;" horiz-adv-x="619" 
d="M533 124h51l-24 -101c-4 -15 -17 -23 -30 -23h-471v38c37 9 59 18 59 47v161l-101 -31v75l101 31v213c0 30 -22 38 -59 47v40h229v-40c-37 -9 -60 -17 -60 -47v-179l191 59v-75l-191 -59v-185c1 -25 17 -44 41 -42l168 8c43 2 65 3 80 31z" />
    <glyph glyph-name="M" unicode="M" horiz-adv-x="857" 
d="M817 621v-39c-38 -8 -56 -23 -56 -53v-443c0 -30 18 -39 56 -48v-38h-224v38c36 9 58 18 58 48v396l-210 -427c-13 -26 -39 -26 -54 0l-235 412v-381c0 -30 22 -39 59 -48v-38h-181v38c38 9 59 18 59 48v443c0 30 -21 45 -59 53v39h165l244 -440l221 440h157z" />
    <glyph glyph-name="N" unicode="N" horiz-adv-x="677" 
d="M652 621v-38c-40 -9 -61 -24 -61 -47v-536c0 -10 -31 -10 -39 0l-406 486v-400c0 -23 22 -38 60 -47v-39h-181v39c39 9 61 24 61 47v450c0 23 -22 38 -61 47v38h159l338 -427v342c0 23 -21 38 -61 47v38h191z" />
    <glyph glyph-name="Nacute" unicode="&#x143;" horiz-adv-x="677" 
d="M412 856l-107 -112c-10 -10 -13 -20 -6 -30c7 -9 18 -9 28 -3l136 77c28 16 40 45 18 72c-20 25 -46 20 -69 -4zM652 621v-38c-40 -9 -61 -24 -61 -47v-536c0 -10 -31 -10 -39 0l-406 486v-400c0 -23 22 -38 60 -47v-39h-181v39c39 9 61 24 61 47v450c0 23 -22 38 -61 47
v38h159l338 -427v342c0 23 -21 38 -61 47v38h191z" />
    <glyph glyph-name="Ncaron" unicode="&#x147;" horiz-adv-x="677" 
d="M327 693l-161 174h64l97 -69l97 69h65zM652 621v-38c-40 -9 -61 -24 -61 -47v-536c0 -10 -31 -10 -39 0l-406 486v-400c0 -23 22 -38 60 -47v-39h-181v39c39 9 61 24 61 47v450c0 23 -22 38 -61 47v38h159l338 -427v342c0 23 -21 38 -61 47v38h191z" />
    <glyph glyph-name="Ncommaaccent" unicode="&#x145;" horiz-adv-x="677" 
d="M652 621v-38c-40 -9 -61 -24 -61 -47v-536c0 -10 -31 -10 -39 0l-406 486v-400c0 -23 22 -38 60 -47v-39h-181v39c39 9 61 24 61 47v450c0 23 -22 38 -61 47v38h159l338 -427v342c0 23 -21 38 -61 47v38h191zM422 -226c-10 -33 -29 -61 -54 -83c-7 -4 -12 -4 -19 2
l-17 19c17 18 29 32 36 50c6 17 7 31 5 38c-8 -2 -14 -2 -28 -1c-28 4 -51 33 -47 65c4 36 36 59 69 55c34 -4 53 -33 58 -60c6 -30 7 -51 -3 -85z" />
    <glyph glyph-name="Eng" unicode="&#x14a;" horiz-adv-x="682" 
d="M461 621h191v-38c-40 -9 -61 -24 -61 -47v-553c0 -68 -32 -112 -92 -129c-94 -27 -163 -10 -178 41c-9 31 1 56 23 66c22 11 48 2 56 -12c7 -13 20 -72 58 -65c15 3 23 23 23 50v151l-335 401v-400c0 -23 22 -38 60 -47v-39h-181v39c39 9 61 24 61 47v450
c0 23 -22 38 -61 47v38h159l338 -427v342c0 23 -21 38 -61 47v38z" />
    <glyph glyph-name="Ntilde" unicode="&#xd1;" horiz-adv-x="677" 
d="M479 822h46c-7 -67 -56 -110 -124 -110c-70 0 -104 68 -150 68c-42 0 -58 -36 -56 -48h-38c-15 64 51 106 110 106c74 0 91 -58 153 -58c34 0 59 29 59 42zM652 621v-38c-40 -9 -61 -24 -61 -47v-536c0 -10 -31 -10 -39 0l-406 486v-400c0 -23 22 -38 60 -47v-39h-181v39
c39 9 61 24 61 47v450c0 23 -22 38 -61 47v38h159l338 -427v342c0 23 -21 38 -61 47v38h191z" />
    <glyph glyph-name="O" unicode="O" horiz-adv-x="675" 
d="M645 316c0 -189 -135 -331 -307 -331c-174 0 -308 134 -308 331c0 189 134 321 308 321c172 0 307 -136 307 -321zM341 49c101 0 181 40 181 237c0 183 -90 296 -184 296c-110 0 -185 -53 -185 -236c0 -180 95 -297 188 -297z" />
    <glyph glyph-name="Oacute" unicode="&#xd3;" horiz-adv-x="675" 
d="M411 856l-107 -112c-10 -10 -13 -20 -6 -30c7 -9 18 -9 28 -3l136 77c28 16 40 45 18 72c-20 25 -46 20 -69 -4zM645 316c0 -189 -135 -331 -307 -331c-174 0 -308 134 -308 331c0 189 134 321 308 321c172 0 307 -136 307 -321zM341 49c101 0 181 40 181 237
c0 183 -90 296 -184 296c-110 0 -185 -53 -185 -236c0 -180 95 -297 188 -297z" />
    <glyph glyph-name="Ocircumflex" unicode="&#xd4;" horiz-adv-x="675" 
d="M341 878l162 -174h-65l-97 69l-97 -69h-64zM645 316c0 -189 -135 -331 -307 -331c-174 0 -308 134 -308 331c0 189 134 321 308 321c172 0 307 -136 307 -321zM341 49c101 0 181 40 181 237c0 183 -90 296 -184 296c-110 0 -185 -53 -185 -236c0 -180 95 -297 188 -297z
" />
    <glyph glyph-name="Odieresis" unicode="&#xd6;" horiz-adv-x="675" 
d="M227 726c-36 0 -65 30 -65 65s29 65 65 65c35 0 64 -30 64 -65s-29 -65 -64 -65zM438 726c-35 0 -65 30 -65 65s30 65 65 65s65 -30 65 -65s-30 -65 -65 -65zM645 316c0 -189 -135 -331 -307 -331c-174 0 -308 134 -308 331c0 189 134 321 308 321
c172 0 307 -136 307 -321zM341 49c101 0 181 40 181 237c0 183 -90 296 -184 296c-110 0 -185 -53 -185 -236c0 -180 95 -297 188 -297z" />
    <glyph glyph-name="Ograve" unicode="&#xd2;" horiz-adv-x="675" 
d="M400 744l-107 112c-22 24 -49 29 -69 4c-22 -27 -10 -56 18 -72l136 -77c10 -6 21 -6 28 3c8 10 4 20 -6 30zM645 316c0 -189 -135 -331 -307 -331c-174 0 -308 134 -308 331c0 189 134 321 308 321c172 0 307 -136 307 -321zM341 49c101 0 181 40 181 237
c0 183 -90 296 -184 296c-110 0 -185 -53 -185 -236c0 -180 95 -297 188 -297z" />
    <glyph glyph-name="Ohungarumlaut" unicode="&#x150;" horiz-adv-x="675" 
d="M284 856l-107 -112c-10 -10 -13 -20 -6 -30c7 -9 18 -9 28 -3l136 77c28 16 40 45 18 72c-20 25 -46 20 -69 -4zM491 856l-107 -112c-10 -10 -13 -20 -6 -30c7 -9 18 -9 28 -3l136 77c28 16 40 45 18 72c-20 25 -46 20 -69 -4zM645 316c0 -189 -135 -331 -307 -331
c-174 0 -308 134 -308 331c0 189 134 321 308 321c172 0 307 -136 307 -321zM341 49c101 0 181 40 181 237c0 183 -90 296 -184 296c-110 0 -185 -53 -185 -236c0 -180 95 -297 188 -297z" />
    <glyph glyph-name="Omacron" unicode="&#x14c;" horiz-adv-x="675" 
d="M178 772v30c0 12 7 17 20 17h283c13 0 20 -5 20 -17v-30c0 -12 -7 -17 -20 -17h-283c-13 0 -20 5 -20 17zM645 316c0 -189 -135 -331 -307 -331c-174 0 -308 134 -308 331c0 189 134 321 308 321c172 0 307 -136 307 -321zM341 49c101 0 181 40 181 237
c0 183 -90 296 -184 296c-110 0 -185 -53 -185 -236c0 -180 95 -297 188 -297z" />
    <glyph glyph-name="Oslash" unicode="&#xd8;" horiz-adv-x="675" 
d="M587 600l-37 -48c59 -58 95 -140 95 -236c0 -189 -135 -331 -307 -331c-66 0 -127 19 -176 54l-41 -54l-47 37l43 57c-54 58 -87 140 -87 237c0 189 134 321 308 321c61 0 118 -17 165 -48l36 47zM153 346c0 -68 13 -126 35 -173l264 348c-33 39 -73 61 -114 61
c-110 0 -185 -53 -185 -236zM341 49c101 0 181 40 181 237c0 72 -14 133 -37 180l-264 -349c34 -43 77 -68 120 -68z" />
    <glyph glyph-name="Otilde" unicode="&#xd5;" horiz-adv-x="675" 
d="M477 822h46c-7 -67 -56 -110 -124 -110c-70 0 -104 68 -150 68c-42 0 -58 -36 -56 -48h-38c-15 64 51 106 110 106c74 0 91 -58 153 -58c34 0 59 29 59 42zM645 316c0 -189 -135 -331 -307 -331c-174 0 -308 134 -308 331c0 189 134 321 308 321c172 0 307 -136 307 -321
zM341 49c101 0 181 40 181 237c0 183 -90 296 -184 296c-110 0 -185 -53 -185 -236c0 -180 95 -297 188 -297z" />
    <glyph glyph-name="OE" unicode="&#x152;" horiz-adv-x="992" 
d="M907 122h50c-16 -32 -24 -67 -32 -99c-4 -15 -17 -23 -30 -23h-463c-30 -10 -61 -15 -94 -15c-174 0 -308 134 -308 331c0 189 134 321 308 321c35 0 68 -6 99 -16h448c13 0 17 -3 17 -18v-107h-42l-15 33c-13 28 -37 36 -80 36h-164v-221h171c33 0 38 17 51 49h25v-153
h-25c-13 31 -18 50 -51 50h-171v-235l213 2c40 0 49 9 67 32zM153 346c0 -180 95 -297 188 -297c62 0 115 14 147 70v340c-34 79 -92 123 -150 123c-110 0 -185 -53 -185 -236z" />
    <glyph glyph-name="P" unicode="P" horiz-adv-x="589" 
d="M25 621h287c153 0 252 -72 252 -191c0 -118 -102 -194 -265 -194h-104v-151c0 -29 22 -38 59 -47v-38h-229v38c38 9 60 18 60 47v449c0 30 -22 38 -60 47v40zM195 284h118c102 0 134 62 134 146c0 87 -34 146 -121 146h-131v-292z" />
    <glyph glyph-name="Thorn" unicode="&#xde;" horiz-adv-x="549" 
d="M183 512h81c157 0 264 -78 264 -195c0 -115 -105 -182 -263 -182h-82v-50c0 -29 22 -38 59 -47v-38h-229v38c38 9 60 18 60 47v449c0 30 -22 38 -60 47v40h229v-40c-37 -9 -59 -17 -59 -47v-22zM183 183h95c105 0 133 60 133 138c0 80 -32 143 -133 143h-95v-281z" />
    <glyph glyph-name="Q" unicode="Q" horiz-adv-x="700" 
d="M611 -1c32 -1 50 -21 49 -51c-1 -65 -65 -117 -139 -116c-41 2 -88 19 -136 53l-134 96c-55 39 -101 16 -103 -22c0 -28 -23 -48 -49 -48c-26 1 -47 25 -47 53c1 43 34 78 77 95c-61 58 -99 145 -99 250c0 189 134 321 308 321c172 0 307 -136 307 -321
c0 -176 -117 -311 -271 -329l84 -66c57 -44 102 -10 103 32c1 32 16 53 50 53zM338 575c-110 0 -185 -53 -185 -236c0 -180 95 -297 188 -297c101 0 181 40 181 237c0 183 -90 296 -184 296z" />
    <glyph glyph-name="R" unicode="R" horiz-adv-x="669" 
d="M644 43v-43h-117c-49 20 -98 60 -129 161c-26 84 -56 114 -127 114h-68v-190c0 -29 23 -38 59 -47v-38h-227v38c38 9 58 18 58 47v445c0 29 -20 44 -58 53v38h294c142 0 231 -71 231 -170c0 -76 -56 -143 -175 -159c87 -12 122 -59 143 -124c18 -58 44 -120 93 -125h23z
M203 326h127c88 0 113 62 113 125c0 66 -30 125 -105 125h-135v-250z" />
    <glyph glyph-name="Racute" unicode="&#x154;" horiz-adv-x="669" 
d="M395 856l-107 -112c-10 -10 -13 -20 -6 -30c7 -9 18 -9 28 -3l136 77c28 16 40 45 18 72c-20 25 -46 20 -69 -4zM644 43v-43h-117c-49 20 -98 60 -129 161c-26 84 -56 114 -127 114h-68v-190c0 -29 23 -38 59 -47v-38h-227v38c38 9 58 18 58 47v445c0 29 -20 44 -58 53
v38h294c142 0 231 -71 231 -170c0 -76 -56 -143 -175 -159c87 -12 122 -59 143 -124c18 -58 44 -120 93 -125h23zM203 326h127c88 0 113 62 113 125c0 66 -30 125 -105 125h-135v-250z" />
    <glyph glyph-name="Rcaron" unicode="&#x158;" horiz-adv-x="669" 
d="M310 693l-161 174h64l97 -69l97 69h65zM644 43v-43h-117c-49 20 -98 60 -129 161c-26 84 -56 114 -127 114h-68v-190c0 -29 23 -38 59 -47v-38h-227v38c38 9 58 18 58 47v445c0 29 -20 44 -58 53v38h294c142 0 231 -71 231 -170c0 -76 -56 -143 -175 -159
c87 -12 122 -59 143 -124c18 -58 44 -120 93 -125h23zM203 326h127c88 0 113 62 113 125c0 66 -30 125 -105 125h-135v-250z" />
    <glyph glyph-name="Rcommaaccent" unicode="&#x156;" horiz-adv-x="669" 
d="M644 43v-43h-117c-49 20 -98 60 -129 161c-26 84 -56 114 -127 114h-68v-190c0 -29 23 -38 59 -47v-38h-227v38c38 9 58 18 58 47v445c0 29 -20 44 -58 53v38h294c142 0 231 -71 231 -170c0 -76 -56 -143 -175 -159c87 -12 122 -59 143 -124c18 -58 44 -120 93 -125h23z
M203 326h127c88 0 113 62 113 125c0 66 -30 125 -105 125h-135v-250zM399 -226c-10 -33 -29 -61 -54 -83c-7 -4 -12 -4 -19 2l-17 19c17 18 29 32 36 50c6 17 7 31 5 38c-8 -2 -14 -2 -28 -1c-28 4 -51 33 -47 65c4 36 36 59 69 55c34 -4 53 -33 58 -60c6 -30 7 -51 -3 -85z
" />
    <glyph glyph-name="S" unicode="S" horiz-adv-x="562" 
d="M504 439l-43 -7c-13 -2 -21 1 -24 12l-11 40c-14 55 -83 101 -153 101c-79 0 -125 -56 -118 -114c8 -60 69 -79 139 -101c62 -19 223 -54 237 -187c15 -137 -127 -198 -238 -198c-109 0 -144 55 -206 34l-52 157l41 14c15 6 24 2 32 -13c7 -13 15 -27 22 -41
c29 -58 84 -91 162 -91c70 0 136 24 128 101c-7 73 -86 92 -162 115c-73 23 -187 61 -202 179c-14 102 69 198 217 198c128 0 157 -60 218 -72z" />
    <glyph glyph-name="Sacute" unicode="&#x15a;" horiz-adv-x="562" 
d="M373 856l-107 -112c-10 -10 -13 -20 -6 -30c7 -9 18 -9 28 -3l136 77c28 16 40 45 18 72c-20 25 -46 20 -69 -4zM504 439l-43 -7c-13 -2 -21 1 -24 12l-11 40c-14 55 -83 101 -153 101c-79 0 -125 -56 -118 -114c8 -60 69 -79 139 -101c62 -19 223 -54 237 -187
c15 -137 -127 -198 -238 -198c-109 0 -144 55 -206 34l-52 157l41 14c15 6 24 2 32 -13c7 -13 15 -27 22 -41c29 -58 84 -91 162 -91c70 0 136 24 128 101c-7 73 -86 92 -162 115c-73 23 -187 61 -202 179c-14 102 69 198 217 198c128 0 157 -60 218 -72z" />
    <glyph glyph-name="Scaron" unicode="&#x160;" horiz-adv-x="562" 
d="M288 693l-161 174h64l97 -69l97 69h65zM504 439l-43 -7c-13 -2 -21 1 -24 12l-11 40c-14 55 -83 101 -153 101c-79 0 -125 -56 -118 -114c8 -60 69 -79 139 -101c62 -19 223 -54 237 -187c15 -137 -127 -198 -238 -198c-109 0 -144 55 -206 34l-52 157l41 14
c15 6 24 2 32 -13c7 -13 15 -27 22 -41c29 -58 84 -91 162 -91c70 0 136 24 128 101c-7 73 -86 92 -162 115c-73 23 -187 61 -202 179c-14 102 69 198 217 198c128 0 157 -60 218 -72z" />
    <glyph glyph-name="Scedilla" unicode="&#x15e;" horiz-adv-x="562" 
d="M531 183c14 -125 -104 -187 -209 -197l-15 -32c55 9 114 -31 104 -93c-10 -59 -71 -83 -129 -80c-64 3 -100 36 -106 68c-6 33 38 58 69 26c4 -22 7 -51 41 -53c32 -2 51 14 56 46c5 31 -14 52 -50 48c-15 -2 -28 -5 -36 -6c-22 -4 -31 16 -22 30c7 13 16 30 23 47
c-82 10 -115 51 -170 32l-52 157l41 14c15 6 24 2 32 -13c7 -13 15 -27 22 -41c29 -58 84 -91 162 -91c70 0 136 24 128 101c-7 73 -86 92 -162 115c-73 23 -187 61 -202 179c-14 102 69 198 217 198c128 0 157 -60 218 -72l13 -127l-43 -7c-13 -2 -21 1 -24 12l-11 40
c-14 55 -83 101 -153 101c-79 0 -125 -56 -118 -114c8 -60 69 -79 139 -101c62 -19 223 -54 237 -187z" />
    <glyph glyph-name="Scommaaccent" unicode="&#x218;" horiz-adv-x="562" 
d="M504 439l-43 -7c-13 -2 -21 1 -24 12l-11 40c-14 55 -83 101 -153 101c-79 0 -125 -56 -118 -114c8 -60 69 -79 139 -101c62 -19 223 -54 237 -187c15 -137 -127 -198 -238 -198c-109 0 -144 55 -206 34l-52 157l41 14c15 6 24 2 32 -13c7 -13 15 -27 22 -41
c29 -58 84 -91 162 -91c70 0 136 24 128 101c-7 73 -86 92 -162 115c-73 23 -187 61 -202 179c-14 102 69 198 217 198c128 0 157 -60 218 -72zM353 -226c-10 -33 -29 -61 -54 -83c-7 -4 -12 -4 -19 2l-17 19c17 18 29 32 36 50c6 17 7 31 5 38c-8 -2 -14 -2 -28 -1
c-28 4 -51 33 -47 65c4 36 36 59 69 55c34 -4 53 -33 58 -60c6 -30 7 -51 -3 -85z" />
    <glyph glyph-name="T" unicode="T" 
d="M564 597l8 -96h-33l-15 33c-9 18 -24 32 -47 32h-123v-481c0 -29 22 -38 60 -47v-38h-230v38c37 9 59 18 59 47v481h-123c-23 0 -38 -14 -47 -32l-15 -33h-33l8 96c1 15 10 24 23 24h485c13 0 22 -9 23 -24z" />
    <glyph glyph-name="Tbar" unicode="&#x166;" 
d="M564 597l8 -96h-33l-15 33c-9 18 -24 32 -47 32h-123v-123h98c13 0 20 -5 20 -17v-30c0 -12 -7 -17 -20 -17h-98v-294c0 -29 22 -38 60 -47v-38h-230v38c37 9 59 18 59 47v294h-74c-13 0 -20 5 -20 17v30c0 12 7 17 20 17h74v123h-123c-23 0 -38 -14 -47 -32l-15 -33h-33
l8 96c1 15 10 24 23 24h485c13 0 22 -9 23 -24z" />
    <glyph glyph-name="Tcaron" unicode="&#x164;" 
d="M459 867l-162 -174l-161 174h64l97 -69l97 69h65zM564 597l8 -96h-33l-15 33c-9 18 -24 32 -47 32h-123v-481c0 -29 22 -38 60 -47v-38h-230v38c37 9 59 18 59 47v481h-123c-23 0 -38 -14 -47 -32l-15 -33h-33l8 96c1 15 10 24 23 24h485c13 0 22 -9 23 -24z" />
    <glyph glyph-name="Tcedilla" unicode="&#x162;" 
d="M564 597l8 -96h-33l-15 33c-9 18 -24 32 -47 32h-123v-481c0 -29 22 -38 60 -47v-38h-76l-22 -46c55 9 114 -31 104 -93c-10 -59 -71 -83 -129 -80c-64 3 -100 36 -106 68c-6 33 38 58 69 26c4 -22 7 -51 41 -53c32 -2 51 14 56 46c5 31 -14 52 -50 48
c-15 -2 -28 -5 -36 -6c-22 -4 -31 16 -22 30c9 16 20 38 29 60h-88v38c37 9 59 18 59 47v481h-123c-23 0 -38 -14 -47 -32l-15 -33h-33l8 96c1 15 10 24 23 24h485c13 0 22 -9 23 -24z" />
    <glyph glyph-name="uni021A" unicode="&#x21a;" 
d="M564 597l8 -96h-33l-15 33c-9 18 -24 32 -47 32h-123v-481c0 -29 22 -38 60 -47v-38h-230v38c37 9 59 18 59 47v481h-123c-23 0 -38 -14 -47 -32l-15 -33h-33l8 96c1 15 10 24 23 24h485c13 0 22 -9 23 -24zM307 -81c34 -4 53 -33 58 -60c6 -30 7 -51 -3 -85
c-10 -33 -29 -61 -54 -83c-7 -4 -12 -4 -19 2l-17 19c17 18 29 32 36 50c6 17 7 31 5 38c-8 -2 -14 -2 -28 -1c-28 4 -51 33 -47 65c4 36 36 59 69 55z" />
    <glyph glyph-name="U" unicode="U" horiz-adv-x="657" 
d="M617 621v-40c-25 -4 -45 -9 -45 -32v-295c0 -161 -92 -264 -239 -264c-173 0 -269 103 -269 268v291c0 23 -19 28 -44 32v40h202v-40c-25 -4 -46 -9 -46 -32v-259c0 -168 62 -240 157 -240s174 52 174 212v287c0 23 -19 28 -47 32v40h157z" />
    <glyph glyph-name="Uacute" unicode="&#xda;" horiz-adv-x="657" 
d="M411 856l-107 -112c-10 -10 -13 -20 -6 -30c7 -9 18 -9 28 -3l136 77c28 16 40 45 18 72c-20 25 -46 20 -69 -4zM617 621v-40c-25 -4 -45 -9 -45 -32v-295c0 -161 -92 -264 -239 -264c-173 0 -269 103 -269 268v291c0 23 -19 28 -44 32v40h202v-40c-25 -4 -46 -9 -46 -32
v-259c0 -168 62 -240 157 -240s174 52 174 212v287c0 23 -19 28 -47 32v40h157z" />
    <glyph glyph-name="Ucircumflex" unicode="&#xdb;" horiz-adv-x="657" 
d="M342 878l162 -174h-65l-97 69l-97 -69h-64zM617 621v-40c-25 -4 -45 -9 -45 -32v-295c0 -161 -92 -264 -239 -264c-173 0 -269 103 -269 268v291c0 23 -19 28 -44 32v40h202v-40c-25 -4 -46 -9 -46 -32v-259c0 -168 62 -240 157 -240s174 52 174 212v287
c0 23 -19 28 -47 32v40h157z" />
    <glyph glyph-name="Udieresis" unicode="&#xdc;" horiz-adv-x="657" 
d="M228 726c-36 0 -65 30 -65 65s29 65 65 65c35 0 64 -30 64 -65s-29 -65 -64 -65zM439 726c-35 0 -65 30 -65 65s30 65 65 65s65 -30 65 -65s-30 -65 -65 -65zM617 621v-40c-25 -4 -45 -9 -45 -32v-295c0 -161 -92 -264 -239 -264c-173 0 -269 103 -269 268v291
c0 23 -19 28 -44 32v40h202v-40c-25 -4 -46 -9 -46 -32v-259c0 -168 62 -240 157 -240s174 52 174 212v287c0 23 -19 28 -47 32v40h157z" />
    <glyph glyph-name="Ugrave" unicode="&#xd9;" horiz-adv-x="657" 
d="M401 744l-107 112c-22 24 -49 29 -69 4c-22 -27 -10 -56 18 -72l136 -77c10 -6 21 -6 28 3c8 10 4 20 -6 30zM617 621v-40c-25 -4 -45 -9 -45 -32v-295c0 -161 -92 -264 -239 -264c-173 0 -269 103 -269 268v291c0 23 -19 28 -44 32v40h202v-40c-25 -4 -46 -9 -46 -32
v-259c0 -168 62 -240 157 -240s174 52 174 212v287c0 23 -19 28 -47 32v40h157z" />
    <glyph glyph-name="Uhungarumlaut" unicode="&#x170;" horiz-adv-x="657" 
d="M284 856l-107 -112c-10 -10 -13 -20 -6 -30c7 -9 18 -9 28 -3l136 77c28 16 40 45 18 72c-20 25 -46 20 -69 -4zM491 856l-107 -112c-10 -10 -13 -20 -6 -30c7 -9 18 -9 28 -3l136 77c28 16 40 45 18 72c-20 25 -46 20 -69 -4zM617 621v-40c-25 -4 -45 -9 -45 -32v-295
c0 -161 -92 -264 -239 -264c-173 0 -269 103 -269 268v291c0 23 -19 28 -44 32v40h202v-40c-25 -4 -46 -9 -46 -32v-259c0 -168 62 -240 157 -240s174 52 174 212v287c0 23 -19 28 -47 32v40h157z" />
    <glyph glyph-name="Umacron" unicode="&#x16a;" horiz-adv-x="657" 
d="M178 772v30c0 12 7 17 20 17h283c13 0 20 -5 20 -17v-30c0 -12 -7 -17 -20 -17h-283c-13 0 -20 5 -20 17zM617 621v-40c-25 -4 -45 -9 -45 -32v-295c0 -161 -92 -264 -239 -264c-173 0 -269 103 -269 268v291c0 23 -19 28 -44 32v40h202v-40c-25 -4 -46 -9 -46 -32v-259
c0 -168 62 -240 157 -240s174 52 174 212v287c0 23 -19 28 -47 32v40h157z" />
    <glyph glyph-name="Uogonek" unicode="&#x172;" horiz-adv-x="657" 
d="M460 621h157v-40c-25 -4 -45 -9 -45 -32v-295c0 -131 -61 -224 -163 -254c-62 -41 -82 -81 -82 -113c0 -33 24 -55 56 -55c44 0 63 23 75 54h33c-10 -32 -42 -105 -143 -105c-54 0 -116 27 -116 91c0 57 52 97 100 118c-172 0 -268 103 -268 268v291c0 23 -19 28 -44 32
v40h202v-40c-25 -4 -46 -9 -46 -32v-259c0 -168 62 -240 157 -240s174 52 174 212v287c0 23 -19 28 -47 32v40z" />
    <glyph glyph-name="Uring" unicode="&#x16e;" horiz-adv-x="657" 
d="M338 714c-54 0 -99 43 -99 94c0 52 45 95 99 95s98 -43 98 -95c0 -51 -44 -94 -98 -94zM338 760c18 0 37 22 37 48c0 25 -19 48 -37 48c-21 0 -39 -23 -39 -48c0 -26 18 -48 39 -48zM617 621v-40c-25 -4 -45 -9 -45 -32v-295c0 -161 -92 -264 -239 -264
c-173 0 -269 103 -269 268v291c0 23 -19 28 -44 32v40h202v-40c-25 -4 -46 -9 -46 -32v-259c0 -168 62 -240 157 -240s174 52 174 212v287c0 23 -19 28 -47 32v40h157z" />
    <glyph glyph-name="V" unicode="V" horiz-adv-x="689" 
d="M669 621v-42c-41 -4 -51 -15 -68 -54l-233 -530h-25c-15 0 -25 7 -32 24l-215 481c-29 65 -43 75 -86 79v42h234v-42c-44 -4 -61 -11 -53 -28l180 -407l173 397c10 24 -18 34 -56 38v42h181z" />
    <glyph glyph-name="W" unicode="W" horiz-adv-x="962" 
d="M767 621h180v-42c-41 -5 -54 -16 -68 -55l-187 -529h-25c-15 0 -25 7 -32 24l-150 381l-138 -405h-25c-15 0 -25 7 -32 24l-189 480c-26 67 -43 75 -86 80v42h224v-42c-35 -5 -50 -12 -44 -29l151 -400l109 327l-9 22c-26 67 -43 75 -86 80v42h224v-42
c-35 -5 -48 -16 -44 -29l152 -400l133 390c8 24 -20 34 -58 39v42z" />
    <glyph glyph-name="Wacute" unicode="&#x1e82;" horiz-adv-x="962" 
d="M611 788l-136 -77c-10 -6 -21 -6 -28 3c-7 10 -4 20 6 30l107 112c23 24 49 29 69 4c22 -27 10 -56 -18 -72zM767 621h180v-42c-41 -5 -54 -16 -68 -55l-187 -529h-25c-15 0 -25 7 -32 24l-150 381l-138 -405h-25c-15 0 -25 7 -32 24l-189 480c-26 67 -43 75 -86 80v42
h224v-42c-35 -5 -50 -12 -44 -29l151 -400l109 327l-9 22c-26 67 -43 75 -86 80v42h224v-42c-35 -5 -48 -16 -44 -29l152 -400l133 390c8 24 -20 34 -58 39v42z" />
    <glyph glyph-name="Wcircumflex" unicode="&#x174;" horiz-adv-x="962" 
d="M491 773l-97 -69h-64l161 174l162 -174h-65zM767 621h180v-42c-41 -5 -54 -16 -68 -55l-187 -529h-25c-15 0 -25 7 -32 24l-150 381l-138 -405h-25c-15 0 -25 7 -32 24l-189 480c-26 67 -43 75 -86 80v42h224v-42c-35 -5 -50 -12 -44 -29l151 -400l109 327l-9 22
c-26 67 -43 75 -86 80v42h224v-42c-35 -5 -48 -16 -44 -29l152 -400l133 390c8 24 -20 34 -58 39v42z" />
    <glyph glyph-name="Wdieresis" unicode="&#x1e84;" horiz-adv-x="962" 
d="M377 726c-36 0 -65 30 -65 65s29 65 65 65c35 0 64 -30 64 -65s-29 -65 -64 -65zM588 726c-35 0 -65 30 -65 65s30 65 65 65s65 -30 65 -65s-30 -65 -65 -65zM767 621h180v-42c-41 -5 -54 -16 -68 -55l-187 -529h-25c-15 0 -25 7 -32 24l-150 381l-138 -405h-25
c-15 0 -25 7 -32 24l-189 480c-26 67 -43 75 -86 80v42h224v-42c-35 -5 -50 -12 -44 -29l151 -400l109 327l-9 22c-26 67 -43 75 -86 80v42h224v-42c-35 -5 -48 -16 -44 -29l152 -400l133 390c8 24 -20 34 -58 39v42z" />
    <glyph glyph-name="Wgrave" unicode="&#x1e80;" horiz-adv-x="962" 
d="M528 711l-136 77c-28 16 -40 45 -18 72c20 25 47 20 69 -4l107 -112c10 -10 14 -20 6 -30c-7 -9 -18 -9 -28 -3zM767 621h180v-42c-41 -5 -54 -16 -68 -55l-187 -529h-25c-15 0 -25 7 -32 24l-150 381l-138 -405h-25c-15 0 -25 7 -32 24l-189 480c-26 67 -43 75 -86 80
v42h224v-42c-35 -5 -50 -12 -44 -29l151 -400l109 327l-9 22c-26 67 -43 75 -86 80v42h224v-42c-35 -5 -48 -16 -44 -29l152 -400l133 390c8 24 -20 34 -58 39v42z" />
    <glyph glyph-name="X" unicode="X" horiz-adv-x="687" 
d="M390 331l166 -205c45 -56 57 -79 102 -83v-43h-229v43c29 4 54 15 41 32l-163 199l-144 -189c-17 -22 4 -38 43 -42v-43h-185v43c43 4 60 23 87 58l166 214l-149 183c-43 53 -57 77 -102 82v41h230v-41c-29 -5 -52 -17 -41 -31l146 -179l129 169c15 20 -12 36 -52 41v41
h189v-41c-43 -5 -64 -26 -88 -57z" />
    <glyph glyph-name="Y" unicode="Y" horiz-adv-x="637" 
d="M439 621h183v-42c-42 -5 -58 -23 -84 -59l-166 -226v-216c0 -23 37 -28 73 -33v-45h-247v45c36 5 74 10 74 33v189l-164 228c-40 57 -49 79 -93 84v42h222v-42c-29 -5 -49 -17 -37 -33l147 -204l140 194c18 24 -9 38 -48 43v42z" />
    <glyph glyph-name="Yacute" unicode="&#xdd;" horiz-adv-x="637" 
d="M464 788l-136 -77c-10 -6 -21 -6 -28 3c-7 10 -4 20 6 30l107 112c23 24 49 29 69 4c22 -27 10 -56 -18 -72zM439 621h183v-42c-42 -5 -58 -23 -84 -59l-166 -226v-216c0 -23 37 -28 73 -33v-45h-247v45c36 5 74 10 74 33v189l-164 228c-40 57 -49 79 -93 84v42h222v-42
c-29 -5 -49 -17 -37 -33l147 -204l140 194c18 24 -9 38 -48 43v42z" />
    <glyph glyph-name="Ycircumflex" unicode="&#x176;" horiz-adv-x="637" 
d="M344 773l-97 -69h-64l161 174l162 -174h-65zM439 621h183v-42c-42 -5 -58 -23 -84 -59l-166 -226v-216c0 -23 37 -28 73 -33v-45h-247v45c36 5 74 10 74 33v189l-164 228c-40 57 -49 79 -93 84v42h222v-42c-29 -5 -49 -17 -37 -33l147 -204l140 194c18 24 -9 38 -48 43
v42z" />
    <glyph glyph-name="Ydieresis" unicode="&#x178;" horiz-adv-x="637" 
d="M230 726c-36 0 -65 30 -65 65s29 65 65 65c35 0 64 -30 64 -65s-29 -65 -64 -65zM441 726c-35 0 -65 30 -65 65s30 65 65 65s65 -30 65 -65s-30 -65 -65 -65zM439 621h183v-42c-42 -5 -58 -23 -84 -59l-166 -226v-216c0 -23 37 -28 73 -33v-45h-247v45c36 5 74 10 74 33
v189l-164 228c-40 57 -49 79 -93 84v42h222v-42c-29 -5 -49 -17 -37 -33l147 -204l140 194c18 24 -9 38 -48 43v42z" />
    <glyph glyph-name="Ygrave" unicode="&#x1ef2;" horiz-adv-x="637" 
d="M381 711l-136 77c-28 16 -40 45 -18 72c20 25 47 20 69 -4l107 -112c10 -10 14 -20 6 -30c-7 -9 -18 -9 -28 -3zM439 621h183v-42c-42 -5 -58 -23 -84 -59l-166 -226v-216c0 -23 37 -28 73 -33v-45h-247v45c36 5 74 10 74 33v189l-164 228c-40 57 -49 79 -93 84v42h222
v-42c-29 -5 -49 -17 -37 -33l147 -204l140 194c18 24 -9 38 -48 43v42z" />
    <glyph glyph-name="Z" unicode="Z" horiz-adv-x="620" 
d="M580 127l-32 -127h-486c-27 0 -35 27 -19 49l363 519l-286 -4c-18 0 -23 -16 -27 -31l-10 -35h-58l26 123h518l-395 -568l301 5c19 0 25 14 32 31l15 38h58z" />
    <glyph glyph-name="Zacute" unicode="&#x179;" horiz-adv-x="620" 
d="M390 856l-107 -112c-10 -10 -13 -20 -6 -30c7 -9 18 -9 28 -3l136 77c28 16 40 45 18 72c-20 25 -46 20 -69 -4zM580 127l-32 -127h-486c-27 0 -35 27 -19 49l363 519l-286 -4c-18 0 -23 -16 -27 -31l-10 -35h-58l26 123h518l-395 -568l301 5c19 0 25 14 32 31l15 38h58z
" />
    <glyph glyph-name="Zcaron" unicode="&#x17d;" horiz-adv-x="620" 
d="M305 693l-161 174h64l97 -69l97 69h65zM580 127l-32 -127h-486c-27 0 -35 27 -19 49l363 519l-286 -4c-18 0 -23 -16 -27 -31l-10 -35h-58l26 123h518l-395 -568l301 5c19 0 25 14 32 31l15 38h58z" />
    <glyph glyph-name="Zdotaccent" unicode="&#x17b;" horiz-adv-x="620" 
d="M307 725c-35 0 -63 29 -63 64c0 34 28 63 63 63c34 0 63 -29 63 -63c0 -35 -29 -64 -63 -64zM580 127l-32 -127h-486c-27 0 -35 27 -19 49l363 519l-286 -4c-18 0 -23 -16 -27 -31l-10 -35h-58l26 123h518l-395 -568l301 5c19 0 25 14 32 31l15 38h58z" />
    <glyph glyph-name="a" unicode="a" horiz-adv-x="489" 
d="M413 287v-193c0 -33 17 -42 56 -36v-41c-36 -15 -65 -23 -88 -23c-31 0 -58 31 -64 98c-21 -48 -63 -101 -139 -102c-81 -1 -156 42 -156 127c0 81 52 134 291 169v17c0 74 -22 112 -80 112c-54 0 -80 -14 -80 -77c0 -21 -30 -32 -58 -32c-29 0 -47 21 -48 47
c0 71 92 107 190 107c108 0 176 -51 176 -173zM200 52c68 0 97 64 113 101v88c-170 -29 -184 -78 -184 -119c0 -39 28 -70 71 -70z" />
    <glyph glyph-name="aacute" unicode="&#xe1;" horiz-adv-x="489" 
d="M310 686l-107 -112c-10 -10 -13 -20 -6 -30c7 -9 18 -9 28 -3l136 77c28 16 40 45 18 72c-20 25 -46 20 -69 -4zM413 287v-193c0 -33 17 -42 56 -36v-41c-36 -15 -65 -23 -88 -23c-31 0 -58 31 -64 98c-21 -48 -63 -101 -139 -102c-81 -1 -156 42 -156 127
c0 81 52 134 291 169v17c0 74 -22 112 -80 112c-54 0 -80 -14 -80 -77c0 -21 -30 -32 -58 -32c-29 0 -47 21 -48 47c0 71 92 107 190 107c108 0 176 -51 176 -173zM200 52c68 0 97 64 113 101v88c-170 -29 -184 -78 -184 -119c0 -39 28 -70 71 -70z" />
    <glyph glyph-name="abreve" unicode="&#x103;" horiz-adv-x="489" 
d="M234 549c-80 0 -137 56 -141 131c0 8 5 11 10 11h27c7 0 10 -3 11 -11c4 -29 38 -55 93 -55c56 0 89 26 93 55c1 8 4 11 11 11h27c5 0 10 -3 10 -11c-4 -75 -61 -131 -141 -131zM413 287v-193c0 -33 17 -42 56 -36v-41c-36 -15 -65 -23 -88 -23c-31 0 -58 31 -64 98
c-21 -48 -63 -101 -139 -102c-81 -1 -156 42 -156 127c0 81 52 134 291 169v17c0 74 -22 112 -80 112c-54 0 -80 -14 -80 -77c0 -21 -30 -32 -58 -32c-29 0 -47 21 -48 47c0 71 92 107 190 107c108 0 176 -51 176 -173zM200 52c68 0 97 64 113 101v88
c-170 -29 -184 -78 -184 -119c0 -39 28 -70 71 -70z" />
    <glyph glyph-name="acircumflex" unicode="&#xe2;" horiz-adv-x="489" 
d="M241 708l162 -174h-65l-97 69l-97 -69h-64zM413 287v-193c0 -33 17 -42 56 -36v-41c-36 -15 -65 -23 -88 -23c-31 0 -58 31 -64 98c-21 -48 -63 -101 -139 -102c-81 -1 -156 42 -156 127c0 81 52 134 291 169v17c0 74 -22 112 -80 112c-54 0 -80 -14 -80 -77
c0 -21 -30 -32 -58 -32c-29 0 -47 21 -48 47c0 71 92 107 190 107c108 0 176 -51 176 -173zM200 52c68 0 97 64 113 101v88c-170 -29 -184 -78 -184 -119c0 -39 28 -70 71 -70z" />
    <glyph glyph-name="adieresis" unicode="&#xe4;" horiz-adv-x="489" 
d="M127 556c-36 0 -65 30 -65 65s29 65 65 65c35 0 64 -30 64 -65s-29 -65 -64 -65zM338 556c-35 0 -65 30 -65 65s30 65 65 65s65 -30 65 -65s-30 -65 -65 -65zM413 287v-193c0 -33 17 -42 56 -36v-41c-36 -15 -65 -23 -88 -23c-31 0 -58 31 -64 98
c-21 -48 -63 -101 -139 -102c-81 -1 -156 42 -156 127c0 81 52 134 291 169v17c0 74 -22 112 -80 112c-54 0 -80 -14 -80 -77c0 -21 -30 -32 -58 -32c-29 0 -47 21 -48 47c0 71 92 107 190 107c108 0 176 -51 176 -173zM200 52c68 0 97 64 113 101v88
c-170 -29 -184 -78 -184 -119c0 -39 28 -70 71 -70z" />
    <glyph glyph-name="agrave" unicode="&#xe0;" horiz-adv-x="489" 
d="M300 574l-107 112c-22 24 -49 29 -69 4c-22 -27 -10 -56 18 -72l136 -77c10 -6 21 -6 28 3c8 10 4 20 -6 30zM413 287v-193c0 -33 17 -42 56 -36v-41c-36 -15 -65 -23 -88 -23c-31 0 -58 31 -64 98c-21 -48 -63 -101 -139 -102c-81 -1 -156 42 -156 127
c0 81 52 134 291 169v17c0 74 -22 112 -80 112c-54 0 -80 -14 -80 -77c0 -21 -30 -32 -58 -32c-29 0 -47 21 -48 47c0 71 92 107 190 107c108 0 176 -51 176 -173zM200 52c68 0 97 64 113 101v88c-170 -29 -184 -78 -184 -119c0 -39 28 -70 71 -70z" />
    <glyph glyph-name="amacron" unicode="&#x101;" horiz-adv-x="489" 
d="M77 602v30c0 12 7 17 20 17h283c13 0 20 -5 20 -17v-30c0 -12 -7 -17 -20 -17h-283c-13 0 -20 5 -20 17zM413 287v-193c0 -33 17 -42 56 -36v-41c-36 -15 -65 -23 -88 -23c-31 0 -58 31 -64 98c-21 -48 -63 -101 -139 -102c-81 -1 -156 42 -156 127c0 81 52 134 291 169
v17c0 74 -22 112 -80 112c-54 0 -80 -14 -80 -77c0 -21 -30 -32 -58 -32c-29 0 -47 21 -48 47c0 71 92 107 190 107c108 0 176 -51 176 -173zM200 52c68 0 97 64 113 101v88c-170 -29 -184 -78 -184 -119c0 -39 28 -70 71 -70z" />
    <glyph glyph-name="aogonek" unicode="&#x105;" horiz-adv-x="497" 
d="M443 -98h34c-10 -32 -48 -108 -139 -108c-54 0 -107 23 -107 90c0 62 56 101 120 121c-17 15 -30 43 -34 87c-21 -48 -63 -101 -139 -102c-81 -1 -156 42 -156 127c0 81 52 134 291 169v17c0 74 -22 112 -80 112c-54 0 -80 -14 -80 -77c0 -21 -30 -32 -58 -32
c-29 0 -47 21 -48 47c0 71 92 107 190 107c108 0 176 -51 176 -173v-193c0 -33 17 -42 56 -36v-41c-13 -5 -25 -10 -36 -13v-3c-66 -19 -108 -48 -108 -99c0 -37 21 -57 53 -57c33 0 53 26 65 57zM313 153v88c-170 -29 -184 -78 -184 -119c0 -39 28 -70 71 -70
c68 0 97 64 113 101z" />
    <glyph glyph-name="aring" unicode="&#xe5;" horiz-adv-x="489" 
d="M237 544c-54 0 -99 43 -99 94c0 52 45 95 99 95s98 -43 98 -95c0 -51 -44 -94 -98 -94zM237 590c18 0 37 22 37 48c0 25 -19 48 -37 48c-21 0 -39 -23 -39 -48c0 -26 18 -48 39 -48zM413 287v-193c0 -33 17 -42 56 -36v-41c-36 -15 -65 -23 -88 -23c-31 0 -58 31 -64 98
c-21 -48 -63 -101 -139 -102c-81 -1 -156 42 -156 127c0 81 52 134 291 169v17c0 74 -22 112 -80 112c-54 0 -80 -14 -80 -77c0 -21 -30 -32 -58 -32c-29 0 -47 21 -48 47c0 71 92 107 190 107c108 0 176 -51 176 -173zM200 52c68 0 97 64 113 101v88
c-170 -29 -184 -78 -184 -119c0 -39 28 -70 71 -70z" />
    <glyph glyph-name="atilde" unicode="&#xe3;" horiz-adv-x="489" 
d="M377 652h46c-7 -67 -56 -110 -124 -110c-70 0 -104 68 -150 68c-42 0 -58 -36 -56 -48h-38c-15 64 51 106 110 106c74 0 91 -58 153 -58c34 0 59 29 59 42zM413 287v-193c0 -33 17 -42 56 -36v-41c-36 -15 -65 -23 -88 -23c-31 0 -58 31 -64 98
c-21 -48 -63 -101 -139 -102c-81 -1 -156 42 -156 127c0 81 52 134 291 169v17c0 74 -22 112 -80 112c-54 0 -80 -14 -80 -77c0 -21 -30 -32 -58 -32c-29 0 -47 21 -48 47c0 71 92 107 190 107c108 0 176 -51 176 -173zM200 52c68 0 97 64 113 101v88
c-170 -29 -184 -78 -184 -119c0 -39 28 -70 71 -70z" />
    <glyph glyph-name="ae" unicode="&#xe6;" horiz-adv-x="776" 
d="M741 272c0 -38 -19 -61 -56 -61h-257c0 -93 55 -162 136 -162c64 0 100 35 124 64l35 -38c-25 -33 -72 -85 -174 -85c-75 0 -141 34 -183 91c-40 -57 -105 -87 -182 -88c-80 -1 -154 40 -154 124c0 80 52 134 289 169v17c0 94 -39 127 -134 103c-30 -8 -18 -40 -24 -68
c-5 -21 -32 -38 -65 -33c-31 5 -47 32 -38 68c11 46 78 79 157 86c80 7 140 -10 174 -58c40 37 93 57 148 57c107 0 204 -78 204 -186zM428 264h211c1 88 -32 142 -102 142s-109 -54 -109 -142zM319 153v87c-167 -28 -183 -82 -183 -120c0 -36 29 -65 70 -65
c67 0 97 55 113 98z" />
    <glyph glyph-name="b" unicode="b" horiz-adv-x="547" 
d="M312 460c113 0 195 -85 195 -233c0 -150 -99 -235 -198 -235c-83 0 -133 58 -146 93l-35 -73c-14 -30 -58 -20 -58 3v549c0 23 -7 33 -27 33h-28v40l131 20c16 3 24 -4 24 -19v-156c0 -36 -4 -78 -16 -124l17 22c24 30 68 80 141 80zM301 47c60 0 101 54 101 167
c0 95 -35 176 -100 176c-67 0 -100 -24 -131 -61v-183c19 -53 62 -99 130 -99z" />
    <glyph glyph-name="c" unicode="c" horiz-adv-x="474" 
d="M403 107l23 -21c-19 -37 -73 -94 -186 -94c-111 0 -215 92 -215 232c0 151 106 236 219 236c117 0 183 -64 183 -125c0 -24 -15 -45 -49 -45s-52 17 -52 39c0 45 1 78 -70 78c-90 0 -124 -48 -124 -164c0 -103 54 -193 142 -192c60 0 75 24 101 52c8 8 16 15 28 4z" />
    <glyph glyph-name="cacute" unicode="&#x107;" horiz-adv-x="474" 
d="M328 686l-107 -112c-10 -10 -13 -20 -6 -30c7 -9 18 -9 28 -3l136 77c28 16 40 45 18 72c-20 25 -46 20 -69 -4zM403 107l23 -21c-19 -37 -73 -94 -186 -94c-111 0 -215 92 -215 232c0 151 106 236 219 236c117 0 183 -64 183 -125c0 -24 -15 -45 -49 -45s-52 17 -52 39
c0 45 1 78 -70 78c-90 0 -124 -48 -124 -164c0 -103 54 -193 142 -192c60 0 75 24 101 52c8 8 16 15 28 4z" />
    <glyph glyph-name="ccaron" unicode="&#x10d;" horiz-adv-x="474" 
d="M243 523l-161 174h64l97 -69l97 69h65zM403 107l23 -21c-19 -37 -73 -94 -186 -94c-111 0 -215 92 -215 232c0 151 106 236 219 236c117 0 183 -64 183 -125c0 -24 -15 -45 -49 -45s-52 17 -52 39c0 45 1 78 -70 78c-90 0 -124 -48 -124 -164c0 -103 54 -193 142 -192
c60 0 75 24 101 52c8 8 16 15 28 4z" />
    <glyph glyph-name="ccedilla" unicode="&#xe7;" horiz-adv-x="474" 
d="M375 103c8 8 16 15 28 4l23 -21c-17 -32 -59 -79 -145 -91l-19 -41c55 9 114 -31 104 -93c-10 -59 -71 -83 -129 -80c-64 3 -100 36 -106 68c-6 33 38 58 69 26c4 -22 7 -51 41 -53c32 -2 51 14 56 46c5 31 -14 52 -50 48c-15 -2 -28 -5 -36 -6c-22 -4 -31 16 -22 30
c8 14 18 34 26 54c-101 12 -190 100 -190 230c0 151 106 236 219 236c117 0 183 -64 183 -125c0 -24 -15 -45 -49 -45s-52 17 -52 39c0 45 1 78 -70 78c-90 0 -124 -48 -124 -164c0 -103 54 -193 142 -192c60 0 75 24 101 52z" />
    <glyph glyph-name="cdotaccent" unicode="&#x10b;" horiz-adv-x="474" 
d="M245 555c-35 0 -63 29 -63 64c0 34 28 63 63 63c34 0 63 -29 63 -63c0 -35 -29 -64 -63 -64zM403 107l23 -21c-19 -37 -73 -94 -186 -94c-111 0 -215 92 -215 232c0 151 106 236 219 236c117 0 183 -64 183 -125c0 -24 -15 -45 -49 -45s-52 17 -52 39c0 45 1 78 -70 78
c-90 0 -124 -48 -124 -164c0 -103 54 -193 142 -192c60 0 75 24 101 52c8 8 16 15 28 4z" />
    <glyph glyph-name="d" unicode="d" horiz-adv-x="546" 
d="M465 582v-489c0 -35 17 -42 56 -36v-33l-81 -24c-29 -8 -66 20 -75 92c-12 -31 -47 -100 -133 -100c-98 0 -197 86 -197 223c0 136 88 243 190 243c80 0 114 -38 140 -67v163c0 33 -17 45 -55 44v39l126 19c37 6 30 -30 29 -74zM365 144v195c-35 43 -71 65 -117 65
c-67 0 -108 -80 -108 -176c0 -86 44 -169 112 -169c65 0 95 48 113 85z" />
    <glyph glyph-name="eth" unicode="&#xf0;" horiz-adv-x="559" 
d="M519 569l-83 -23c11 -27 18 -60 18 -101v-125c0 -215 -68 -326 -223 -326c-123 0 -201 77 -201 237c0 150 77 231 172 231c80 0 127 -53 152 -78v87c0 20 -1 36 -3 51l-89 -25l-15 47l90 25c-17 33 -45 40 -82 42l-31 2v44c24 -1 125 2 185 -68l95 27zM231 49
c114 0 123 102 123 263c0 22 -39 100 -138 100c-61 0 -90 -64 -90 -181c0 -122 30 -182 105 -182z" />
    <glyph glyph-name="dcaron" unicode="&#x10f;" horiz-adv-x="656" 
d="M465 582v-489c0 -35 17 -42 56 -36v-33l-81 -24c-29 -8 -66 20 -75 92c-12 -31 -47 -100 -133 -100c-98 0 -197 86 -197 223c0 136 88 243 190 243c80 0 114 -38 140 -67v163c0 33 -17 45 -55 44v39l126 19c37 6 30 -30 29 -74zM641 596c6 -30 7 -50 -3 -85
c-10 -32 -30 -61 -54 -82c-7 -5 -13 -5 -19 2l-17 19c17 18 29 31 36 49c6 17 7 31 4 38c-7 -2 -13 -2 -27 -1c-29 4 -51 33 -47 66c4 35 36 58 69 54c34 -4 53 -33 58 -60zM365 144v195c-35 43 -71 65 -117 65c-67 0 -108 -80 -108 -176c0 -86 44 -169 112 -169
c65 0 95 48 113 85z" />
    <glyph glyph-name="dcroat" unicode="&#x111;" horiz-adv-x="554" 
d="M465 539h43c13 0 20 -5 20 -17v-30c0 -12 -7 -17 -20 -17h-43v-382c0 -35 17 -42 56 -36v-33l-81 -24c-29 -8 -66 20 -75 92c-12 -31 -47 -100 -133 -100c-98 0 -197 86 -197 223c0 136 88 243 190 243c80 0 114 -38 140 -67v84h-140c-13 0 -20 5 -20 17v30
c0 12 7 17 20 17h140v15c0 33 -17 45 -55 44v39l126 19c37 6 30 -30 29 -74v-43zM365 144v195c-35 43 -71 65 -117 65c-67 0 -108 -80 -108 -176c0 -86 44 -169 112 -169c65 0 95 48 113 85z" />
    <glyph glyph-name="e" unicode="e" horiz-adv-x="481" 
d="M451 272c0 -38 -19 -61 -56 -61h-257c0 -93 55 -162 136 -162c64 0 100 35 124 64l35 -38c-25 -33 -72 -85 -174 -85c-127 0 -229 99 -229 238c0 147 104 230 217 230c107 0 204 -78 204 -186zM138 264h211c1 88 -32 142 -102 142s-109 -54 -109 -142z" />
    <glyph glyph-name="eacute" unicode="&#xe9;" horiz-adv-x="481" 
d="M320 686l-107 -112c-10 -10 -13 -20 -6 -30c7 -9 18 -9 28 -3l136 77c28 16 40 45 18 72c-20 25 -46 20 -69 -4zM451 272c0 -38 -19 -61 -56 -61h-257c0 -93 55 -162 136 -162c64 0 100 35 124 64l35 -38c-25 -33 -72 -85 -174 -85c-127 0 -229 99 -229 238
c0 147 104 230 217 230c107 0 204 -78 204 -186zM138 264h211c1 88 -32 142 -102 142s-109 -54 -109 -142z" />
    <glyph glyph-name="ecaron" unicode="&#x11b;" horiz-adv-x="481" 
d="M235 523l-161 174h64l97 -69l97 69h65zM451 272c0 -38 -19 -61 -56 -61h-257c0 -93 55 -162 136 -162c64 0 100 35 124 64l35 -38c-25 -33 -72 -85 -174 -85c-127 0 -229 99 -229 238c0 147 104 230 217 230c107 0 204 -78 204 -186zM138 264h211c1 88 -32 142 -102 142
s-109 -54 -109 -142z" />
    <glyph glyph-name="ecircumflex" unicode="&#xea;" horiz-adv-x="481" 
d="M251 708l162 -174h-65l-97 69l-97 -69h-64zM451 272c0 -38 -19 -61 -56 -61h-257c0 -93 55 -162 136 -162c64 0 100 35 124 64l35 -38c-25 -33 -72 -85 -174 -85c-127 0 -229 99 -229 238c0 147 104 230 217 230c107 0 204 -78 204 -186zM138 264h211
c1 88 -32 142 -102 142s-109 -54 -109 -142z" />
    <glyph glyph-name="edieresis" unicode="&#xeb;" horiz-adv-x="481" 
d="M137 556c-36 0 -65 30 -65 65s29 65 65 65c35 0 64 -30 64 -65s-29 -65 -64 -65zM348 556c-35 0 -65 30 -65 65s30 65 65 65s65 -30 65 -65s-30 -65 -65 -65zM451 272c0 -38 -19 -61 -56 -61h-257c0 -93 55 -162 136 -162c64 0 100 35 124 64l35 -38
c-25 -33 -72 -85 -174 -85c-127 0 -229 99 -229 238c0 147 104 230 217 230c107 0 204 -78 204 -186zM138 264h211c1 88 -32 142 -102 142s-109 -54 -109 -142z" />
    <glyph glyph-name="edotaccent" unicode="&#x117;" horiz-adv-x="481" 
d="M237 555c-35 0 -63 29 -63 64c0 34 28 63 63 63c34 0 63 -29 63 -63c0 -35 -29 -64 -63 -64zM451 272c0 -38 -19 -61 -56 -61h-257c0 -93 55 -162 136 -162c64 0 100 35 124 64l35 -38c-25 -33 -72 -85 -174 -85c-127 0 -229 99 -229 238c0 147 104 230 217 230
c107 0 204 -78 204 -186zM138 264h211c1 88 -32 142 -102 142s-109 -54 -109 -142z" />
    <glyph glyph-name="egrave" unicode="&#xe8;" horiz-adv-x="481" 
d="M310 574l-107 112c-22 24 -49 29 -69 4c-22 -27 -10 -56 18 -72l136 -77c10 -6 21 -6 28 3c8 10 4 20 -6 30zM451 272c0 -38 -19 -61 -56 -61h-257c0 -93 55 -162 136 -162c64 0 100 35 124 64l35 -38c-25 -33 -72 -85 -174 -85c-127 0 -229 99 -229 238
c0 147 104 230 217 230c107 0 204 -78 204 -186zM138 264h211c1 88 -32 142 -102 142s-109 -54 -109 -142z" />
    <glyph glyph-name="emacron" unicode="&#x113;" horiz-adv-x="481" 
d="M87 602v30c0 12 7 17 20 17h283c13 0 20 -5 20 -17v-30c0 -12 -7 -17 -20 -17h-283c-13 0 -20 5 -20 17zM451 272c0 -38 -19 -61 -56 -61h-257c0 -93 55 -162 136 -162c64 0 100 35 124 64l35 -38c-25 -33 -72 -85 -174 -85c-127 0 -229 99 -229 238
c0 147 104 230 217 230c107 0 204 -78 204 -186zM138 264h211c1 88 -32 142 -102 142s-109 -54 -109 -142z" />
    <glyph glyph-name="eogonek" unicode="&#x119;" horiz-adv-x="481" 
d="M451 272c0 -38 -19 -61 -56 -61h-257c0 -93 55 -162 136 -162c64 0 100 35 124 64l35 -38c-17 -22 -44 -53 -91 -71c-51 -26 -86 -55 -86 -102c0 -37 21 -57 52 -57c34 0 54 26 66 57h34c-10 -32 -45 -108 -142 -108c-49 0 -104 25 -104 90c0 48 34 83 78 107
c-118 9 -210 105 -210 237c0 147 104 230 217 230c107 0 204 -78 204 -186zM138 264h211c1 88 -32 142 -102 142s-109 -54 -109 -142z" />
    <glyph glyph-name="etilde" unicode="&#x1ebd;" horiz-adv-x="481" 
d="M387 652h46c-7 -67 -56 -110 -124 -110c-70 0 -104 68 -150 68c-42 0 -58 -36 -56 -48h-38c-15 64 51 106 110 106c74 0 91 -58 153 -58c34 0 59 29 59 42zM451 272c0 -38 -19 -61 -56 -61h-257c0 -93 55 -162 136 -162c64 0 100 35 124 64l35 -38
c-25 -33 -72 -85 -174 -85c-127 0 -229 99 -229 238c0 147 104 230 217 230c107 0 204 -78 204 -186zM138 264h211c1 88 -32 142 -102 142s-109 -54 -109 -142z" />
    <glyph glyph-name="f" unicode="f" horiz-adv-x="400" 
d="M408 598c14 -20 11 -50 -13 -63c-25 -14 -49 -2 -58 15c-16 33 -34 69 -76 69c-58 0 -75 -55 -75 -125v-37h146c-18 -52 -19 -58 -38 -58h-108v-334c0 -23 8 -28 52 -28v-37h-197v37c38 0 46 5 46 28v334h-46c-6 0 -10 4 -10 10v48h56v26c0 119 64 184 162 184
c86 0 134 -31 159 -69z" />
    <glyph glyph-name="g" unicode="g" horiz-adv-x="543" 
d="M471 372c-25 7 -36 -2 -35 -64c0 -78 -64 -149 -186 -149c-24 0 -47 4 -69 11c-83 9 -86 -58 8 -73l100 -16c135 -21 197 -48 197 -138c0 -100 -102 -163 -244 -163c-136 0 -214 49 -214 125c0 70 53 109 106 123c-151 27 -141 184 -7 169c-39 27 -65 67 -65 114
c0 81 57 147 183 147c75 0 138 -29 149 -72c5 40 28 72 78 72c21 0 46 -18 46 -44c0 -30 -23 -50 -47 -42zM248 208c80 0 89 57 89 104c0 45 0 96 -90 96c-76 0 -86 -52 -86 -96c0 -41 5 -104 87 -104zM310 -1l-133 21c-35 -15 -47 -69 -47 -101c0 -56 36 -92 112 -92
c111 0 150 19 150 102c0 46 -24 60 -82 70z" />
    <glyph glyph-name="gbreve" unicode="&#x11f;" horiz-adv-x="543" 
d="M273 549c-80 0 -137 56 -141 131c0 8 5 11 10 11h27c7 0 10 -3 11 -11c4 -29 38 -55 93 -55c56 0 89 26 93 55c1 8 4 11 11 11h27c5 0 10 -3 10 -11c-4 -75 -61 -131 -141 -131zM471 372c-25 7 -36 -2 -35 -64c0 -78 -64 -149 -186 -149c-24 0 -47 4 -69 11
c-83 9 -86 -58 8 -73l100 -16c135 -21 197 -48 197 -138c0 -100 -102 -163 -244 -163c-136 0 -214 49 -214 125c0 70 53 109 106 123c-151 27 -141 184 -7 169c-39 27 -65 67 -65 114c0 81 57 147 183 147c75 0 138 -29 149 -72c5 40 28 72 78 72c21 0 46 -18 46 -44
c0 -30 -23 -50 -47 -42zM248 208c80 0 89 57 89 104c0 45 0 96 -90 96c-76 0 -86 -52 -86 -96c0 -41 5 -104 87 -104zM310 -1l-133 21c-35 -15 -47 -69 -47 -101c0 -56 36 -92 112 -92c111 0 150 19 150 102c0 46 -24 60 -82 70z" />
    <glyph glyph-name="gcommaaccent" unicode="&#x123;" horiz-adv-x="543" 
d="M244 533c-34 4 -54 34 -59 61c-5 30 -6 50 4 85c10 32 29 61 54 82c7 5 12 5 19 -2l17 -19c-17 -18 -30 -31 -36 -49c-6 -17 -7 -31 -5 -39c8 2 14 3 27 2c29 -4 52 -34 48 -66c-4 -35 -36 -59 -69 -55zM471 372c-25 7 -36 -2 -35 -64c0 -78 -64 -149 -186 -149
c-24 0 -47 4 -69 11c-83 9 -86 -58 8 -73l100 -16c135 -21 197 -48 197 -138c0 -100 -102 -163 -244 -163c-136 0 -214 49 -214 125c0 70 53 109 106 123c-151 27 -141 184 -7 169c-39 27 -65 67 -65 114c0 81 57 147 183 147c75 0 138 -29 149 -72c5 40 28 72 78 72
c21 0 46 -18 46 -44c0 -30 -23 -50 -47 -42zM248 208c80 0 89 57 89 104c0 45 0 96 -90 96c-76 0 -86 -52 -86 -96c0 -41 5 -104 87 -104zM310 -1l-133 21c-35 -15 -47 -69 -47 -101c0 -56 36 -92 112 -92c111 0 150 19 150 102c0 46 -24 60 -82 70z" />
    <glyph glyph-name="gdotaccent" unicode="&#x121;" horiz-adv-x="543" 
d="M266 555c-35 0 -63 29 -63 64c0 34 28 63 63 63c34 0 63 -29 63 -63c0 -35 -29 -64 -63 -64zM471 372c-25 7 -36 -2 -35 -64c0 -78 -64 -149 -186 -149c-24 0 -47 4 -69 11c-83 9 -86 -58 8 -73l100 -16c135 -21 197 -48 197 -138c0 -100 -102 -163 -244 -163
c-136 0 -214 49 -214 125c0 70 53 109 106 123c-151 27 -141 184 -7 169c-39 27 -65 67 -65 114c0 81 57 147 183 147c75 0 138 -29 149 -72c5 40 28 72 78 72c21 0 46 -18 46 -44c0 -30 -23 -50 -47 -42zM248 208c80 0 89 57 89 104c0 45 0 96 -90 96
c-76 0 -86 -52 -86 -96c0 -41 5 -104 87 -104zM310 -1l-133 21c-35 -15 -47 -69 -47 -101c0 -56 36 -92 112 -92c111 0 150 19 150 102c0 46 -24 60 -82 70z" />
    <glyph glyph-name="h" unicode="h" horiz-adv-x="576" 
d="M499 286v-189c0 -33 9 -57 60 -45l-13 -43c-22 -8 -48 -9 -67 -9c-54 0 -83 33 -83 72v205c0 71 -12 117 -73 117c-68 0 -126 -62 -145 -84v-244c0 -23 16 -28 50 -28v-38h-199v38c32 0 47 5 47 28v489c0 33 -21 44 -59 39v43l130 18c37 6 30 -30 27 -74v-201l-4 -30
c18 31 77 111 175 111c92 0 154 -38 154 -175z" />
    <glyph glyph-name="hbar" unicode="&#x127;" horiz-adv-x="576" 
d="M499 286v-189c0 -33 9 -57 60 -45l-13 -43c-22 -8 -48 -9 -67 -9c-54 0 -83 33 -83 72v205c0 71 -12 117 -73 117c-68 0 -126 -62 -145 -84v-244c0 -23 16 -28 50 -28v-38h-199v38c32 0 47 5 47 28v423h-57v57h57v9c0 33 -21 44 -59 39v43l130 18c37 6 30 -30 27 -74v-35
h182v-57h-182v-109l-4 -30c18 31 77 111 175 111c92 0 154 -38 154 -175z" />
    <glyph glyph-name="i" unicode="i" horiz-adv-x="268" 
d="M128 547c-33 0 -61 27 -61 62c0 33 28 60 61 60s61 -27 61 -60c0 -35 -28 -62 -61 -62zM185 423v-357c0 -23 17 -28 43 -28v-38h-186v38c27 0 44 5 44 28v303c0 23 -8 31 -28 31h-20v45l115 9c23 2 32 -9 32 -31z" />
    <glyph glyph-name="dotlessi" unicode="&#x131;" horiz-adv-x="265" 
d="M182 423v-357c0 -23 17 -28 43 -28v-38h-186v38c27 0 44 5 44 28v303c0 23 -8 31 -28 31h-20v45l115 9c23 2 32 -9 32 -31z" />
    <glyph glyph-name="iacute" unicode="&#xed;" horiz-adv-x="265" 
d="M192 686l-107 -112c-10 -10 -13 -20 -6 -30c7 -9 18 -9 28 -3l136 77c28 16 40 45 18 72c-20 25 -46 20 -69 -4zM182 423v-357c0 -23 17 -28 43 -28v-38h-186v38c27 0 44 5 44 28v303c0 23 -8 31 -28 31h-20v45l115 9c23 2 32 -9 32 -31z" />
    <glyph glyph-name="icircumflex" unicode="&#xee;" horiz-adv-x="265" 
d="M121 708l162 -174h-65l-97 69l-97 -69h-65zM182 423v-357c0 -23 17 -28 43 -28v-38h-186v38c27 0 44 5 44 28v303c0 23 -8 31 -28 31h-20v45l115 9c23 2 32 -9 32 -31z" />
    <glyph glyph-name="idieresis" unicode="&#xef;" horiz-adv-x="265" 
d="M8 556c-36 0 -65 30 -65 65s29 65 65 65c35 0 64 -30 64 -65s-29 -65 -64 -65zM219 556c-35 0 -65 30 -65 65s30 65 65 65s65 -30 65 -65s-30 -65 -65 -65zM182 423v-357c0 -23 17 -28 43 -28v-38h-186v38c27 0 44 5 44 28v303c0 23 -8 31 -28 31h-20v45l115 9
c23 2 32 -9 32 -31z" />
    <glyph glyph-name="i.loclTRK" horiz-adv-x="265" 
d="M121 555c-35 0 -64 29 -64 64c0 34 29 63 64 63c34 0 63 -29 63 -63c0 -35 -29 -64 -63 -64zM182 423v-357c0 -23 17 -28 43 -28v-38h-186v38c27 0 44 5 44 28v303c0 23 -8 31 -28 31h-20v45l115 9c23 2 32 -9 32 -31z" />
    <glyph glyph-name="igrave" unicode="&#xec;" horiz-adv-x="265" 
d="M181 574l-107 112c-22 24 -49 29 -69 4c-22 -27 -10 -56 18 -72l136 -77c10 -6 21 -6 28 3c8 10 4 20 -6 30zM182 423v-357c0 -23 17 -28 43 -28v-38h-186v38c27 0 44 5 44 28v303c0 23 -8 31 -28 31h-20v45l115 9c23 2 32 -9 32 -31z" />
    <glyph glyph-name="ij" unicode="&#x133;" horiz-adv-x="524" 
d="M128 547c-33 0 -61 27 -61 62c0 33 28 60 61 60s61 -27 61 -60c0 -35 -28 -62 -61 -62zM404 547c-33 0 -61 27 -61 62c0 33 28 60 61 60s61 -27 61 -60c0 -35 -28 -62 -61 -62zM185 423v-357c0 -23 17 -28 43 -28v-38h-186v38c27 0 44 5 44 28v303c0 23 -8 31 -28 31h-20
v45l115 9c23 2 32 -9 32 -31zM314 445l115 9c23 2 32 -9 32 -31v-497c0 -68 -30 -106 -80 -127c-69 -29 -137 -7 -158 41c-11 27 -7 60 19 73c28 14 51 1 61 -17c11 -22 18 -70 35 -63c14 6 24 23 24 50v486c0 23 -8 31 -28 31h-20v45z" />
    <glyph glyph-name="imacron" unicode="&#x12b;" horiz-adv-x="265" 
d="M-41 602v30c0 12 7 17 20 17h283c13 0 20 -5 20 -17v-30c0 -12 -7 -17 -20 -17h-283c-13 0 -20 5 -20 17zM182 423v-357c0 -23 17 -28 43 -28v-38h-186v38c27 0 44 5 44 28v303c0 23 -8 31 -28 31h-20v45l115 9c23 2 32 -9 32 -31z" />
    <glyph glyph-name="iogonek" unicode="&#x12f;" horiz-adv-x="265" 
d="M109 555c-35 0 -63 29 -63 64c0 34 28 63 63 63c34 0 63 -29 63 -63c0 -35 -29 -64 -63 -64zM207 -114h33c-10 -32 -42 -105 -143 -105c-54 0 -116 27 -116 91c0 68 72 110 126 128h-68v38c27 0 44 5 44 28v303c0 23 -8 31 -28 31h-20v45l115 9c23 2 32 -9 32 -31v-357
c0 -23 17 -28 43 -28v-38h-67c-62 -42 -82 -81 -82 -113c0 -33 24 -55 56 -55c44 0 63 23 75 54z" />
    <glyph glyph-name="j" unicode="j" horiz-adv-x="257" 
d="M136 547c-33 0 -61 27 -61 62c0 33 28 60 61 60s61 -27 61 -60c0 -35 -28 -62 -61 -62zM46 445l115 9c23 2 32 -9 32 -31v-497c0 -68 -30 -106 -80 -127c-69 -29 -137 -7 -158 41c-11 27 -7 60 19 73c28 14 51 1 61 -17c11 -22 18 -70 35 -63c14 6 24 23 24 50v486
c0 23 -8 31 -28 31h-20v45z" />
    <glyph glyph-name="dotlessj" unicode="&#x237;" horiz-adv-x="252" 
d="M46 445l115 9c23 2 32 -9 32 -31v-497c0 -68 -30 -106 -80 -127c-69 -29 -137 -7 -158 41c-11 27 -7 60 19 73c28 14 51 1 61 -17c11 -22 18 -70 35 -63c14 6 24 23 24 50v486c0 23 -8 31 -28 31h-20v45z" />
    <glyph glyph-name="k" unicode="k" horiz-adv-x="547" 
d="M258 270l203 -208c20 -20 27 -25 56 -25v-37h-191v37c36 0 35 12 28 19l-179 175v-166c0 -23 15 -28 32 -28v-37h-168v37c19 0 36 5 36 28v513c0 24 -8 33 -28 33h-27v41l131 15c15 2 24 -4 24 -19v-387l157 124c14 11 13 27 -28 27v39h177v-39c-36 0 -51 -9 -66 -20z
" />
    <glyph glyph-name="kcommaaccent" unicode="&#x137;" horiz-adv-x="547" 
d="M258 270l203 -208c20 -20 27 -25 56 -25v-37h-191v37c36 0 35 12 28 19l-179 175v-166c0 -23 15 -28 32 -28v-37h-168v37c19 0 36 5 36 28v513c0 24 -8 33 -28 33h-27v41l131 15c15 2 24 -4 24 -19v-387l157 124c14 11 13 27 -28 27v39h177v-39c-36 0 -51 -9 -66 -20z
M285 -81c34 -4 53 -33 58 -60c6 -30 7 -51 -3 -85c-10 -33 -29 -61 -54 -83c-7 -4 -12 -4 -19 2l-17 19c17 18 29 32 36 50c6 17 7 31 5 38c-8 -2 -14 -2 -28 -1c-28 4 -51 33 -47 65c4 36 36 59 69 55z" />
    <glyph glyph-name="l" unicode="l" horiz-adv-x="258" 
d="M173 582v-482c0 -33 11 -55 65 -41l-16 -47c-23 -11 -46 -20 -71 -20c-50 0 -77 36 -77 82v485c0 33 -21 44 -59 39v39l129 19c37 6 29 -30 29 -74z" />
    <glyph glyph-name="lacute" unicode="&#x13a;" horiz-adv-x="258" 
d="M163 856l-107 -112c-10 -10 -13 -20 -6 -30c7 -9 18 -9 28 -3l136 77c28 16 40 45 18 72c-20 25 -46 20 -69 -4zM173 582v-482c0 -33 11 -55 65 -41l-16 -47c-23 -11 -46 -20 -71 -20c-50 0 -77 36 -77 82v485c0 33 -21 44 -59 39v39l129 19c37 6 29 -30 29 -74z" />
    <glyph glyph-name="lcaron" unicode="&#x13e;" horiz-adv-x="359" 
d="M173 582v-482c0 -33 11 -55 65 -41l-16 -47c-23 -11 -46 -20 -71 -20c-50 0 -77 36 -77 82v485c0 33 -21 44 -59 39v39l129 19c37 6 29 -30 29 -74zM346 510c-10 -33 -29 -61 -54 -83c-7 -4 -12 -4 -19 2l-17 19c17 18 30 32 36 50c6 17 7 31 5 38c-8 -2 -14 -2 -27 -1
c-29 4 -52 33 -48 65c4 36 36 59 69 55c34 -4 54 -33 59 -60c5 -30 6 -51 -4 -85z" />
    <glyph glyph-name="lcommaaccent" unicode="&#x13c;" horiz-adv-x="258" 
d="M173 582v-482c0 -33 11 -55 65 -41l-16 -47c-23 -11 -46 -20 -71 -20c-50 0 -77 36 -77 82v485c0 33 -21 44 -59 39v39l129 19c37 6 29 -30 29 -74zM205 -226c-10 -33 -29 -61 -54 -83c-7 -4 -12 -4 -19 2l-17 19c17 18 29 32 36 50c6 17 7 31 5 38c-8 -2 -14 -2 -28 -1
c-28 4 -51 33 -47 65c4 36 36 59 69 55c34 -4 53 -33 58 -60c6 -30 7 -51 -3 -85z" />
    <glyph glyph-name="ldot" unicode="&#x140;" horiz-adv-x="378" 
d="M173 582v-482c0 -33 11 -55 65 -41l-16 -47c-23 -11 -46 -20 -71 -20c-50 0 -77 36 -77 82v485c0 33 -21 44 -59 39v39l129 19c37 6 29 -30 29 -74zM299 331c-33 0 -61 28 -61 62c0 33 28 61 61 61s61 -28 61 -61c0 -34 -28 -62 -61 -62z" />
    <glyph glyph-name="lslash" unicode="&#x142;" horiz-adv-x="295" 
d="M285 320l-94 -29v-191c0 -33 11 -55 66 -41l-16 -47c-24 -11 -46 -20 -72 -20c-50 0 -76 36 -76 82v187l-83 -26v75l83 26v223c0 33 -21 44 -59 39v39l128 19c37 6 29 -30 29 -74v-216l94 29v-75z" />
    <glyph glyph-name="m" unicode="m" horiz-adv-x="845" 
d="M765 287v-221c0 -23 16 -28 50 -28v-38h-196v38c32 0 47 5 47 28v215c0 65 -19 112 -70 112c-65 0 -104 -55 -122 -96v-231c0 -23 16 -28 49 -28v-38h-194v38c32 0 47 5 47 28v215c0 70 -15 112 -69 112c-68 0 -102 -55 -124 -96v-231c0 -23 16 -28 50 -28v-38h-196v38
c32 0 47 5 47 28v292c0 33 -21 44 -59 39v45l131 17c36 5 30 -30 23 -75l-4 -39c23 40 60 115 145 115c79 0 135 -32 149 -104c17 33 54 104 141 104c91 0 155 -51 155 -173z" />
    <glyph glyph-name="n" unicode="n" horiz-adv-x="577" 
d="M497 286v-189c0 -33 9 -55 60 -43l-13 -44c-22 -8 -47 -10 -66 -10c-53 0 -82 33 -82 72v205c0 72 -13 117 -75 117c-68 0 -119 -62 -138 -84v-244c0 -23 16 -28 50 -28v-38h-196v38c32 0 47 5 47 28v292c0 33 -21 44 -59 39v45l129 17c37 5 30 -30 25 -74l-4 -35
c18 31 71 111 168 111c93 0 153 -37 154 -175z" />
    <glyph glyph-name="nacute" unicode="&#x144;" horiz-adv-x="577" 
d="M355 686l-107 -112c-10 -10 -13 -20 -6 -30c7 -9 18 -9 28 -3l136 77c28 16 40 45 18 72c-20 25 -46 20 -69 -4zM497 286v-189c0 -33 9 -55 60 -43l-13 -44c-22 -8 -47 -10 -66 -10c-53 0 -82 33 -82 72v205c0 72 -13 117 -75 117c-68 0 -119 -62 -138 -84v-244
c0 -23 16 -28 50 -28v-38h-196v38c32 0 47 5 47 28v292c0 33 -21 44 -59 39v45l129 17c37 5 30 -30 25 -74l-4 -35c18 31 71 111 168 111c93 0 153 -37 154 -175z" />
    <glyph glyph-name="ncaron" unicode="&#x148;" horiz-adv-x="577" 
d="M270 523l-161 174h64l97 -69l97 69h65zM497 286v-189c0 -33 9 -55 60 -43l-13 -44c-22 -8 -47 -10 -66 -10c-53 0 -82 33 -82 72v205c0 72 -13 117 -75 117c-68 0 -119 -62 -138 -84v-244c0 -23 16 -28 50 -28v-38h-196v38c32 0 47 5 47 28v292c0 33 -21 44 -59 39v45
l129 17c37 5 30 -30 25 -74l-4 -35c18 31 71 111 168 111c93 0 153 -37 154 -175z" />
    <glyph glyph-name="ncommaaccent" unicode="&#x146;" horiz-adv-x="577" 
d="M497 286v-189c0 -33 9 -55 60 -43l-13 -44c-22 -8 -47 -10 -66 -10c-53 0 -82 33 -82 72v205c0 72 -13 117 -75 117c-68 0 -119 -62 -138 -84v-244c0 -23 16 -28 50 -28v-38h-196v38c32 0 47 5 47 28v292c0 33 -21 44 -59 39v45l129 17c37 5 30 -30 25 -74l-4 -35
c18 31 71 111 168 111c93 0 153 -37 154 -175zM365 -226c-10 -33 -29 -61 -54 -83c-7 -4 -12 -4 -19 2l-17 19c17 18 29 32 36 50c6 17 7 31 5 38c-8 -2 -14 -2 -28 -1c-28 4 -51 33 -47 65c4 36 36 59 69 55c34 -4 53 -33 58 -60c6 -30 7 -51 -3 -85z" />
    <glyph glyph-name="eng" unicode="&#x14b;" horiz-adv-x="559" 
d="M345 461c93 0 154 -37 154 -175v-360c0 -68 -32 -106 -83 -127c-69 -29 -137 -7 -157 41c-12 27 -8 60 18 73c28 14 52 1 61 -17c11 -22 18 -70 35 -63c14 6 24 23 24 50v394c0 72 -12 117 -74 117c-68 0 -119 -62 -138 -84v-244c0 -23 16 -28 50 -28v-38h-198v38
c32 0 47 5 47 28v292c0 33 -21 44 -59 39v45l131 17c37 5 30 -30 25 -74l-4 -35c18 31 71 111 168 111z" />
    <glyph glyph-name="ntilde" unicode="&#xf1;" horiz-adv-x="577" 
d="M422 652h46c-7 -67 -56 -110 -124 -110c-70 0 -104 68 -150 68c-42 0 -58 -36 -56 -48h-38c-15 64 51 106 110 106c74 0 91 -58 153 -58c34 0 59 29 59 42zM497 286v-189c0 -33 9 -55 60 -43l-13 -44c-22 -8 -47 -10 -66 -10c-53 0 -82 33 -82 72v205
c0 72 -13 117 -75 117c-68 0 -119 -62 -138 -84v-244c0 -23 16 -28 50 -28v-38h-196v38c32 0 47 5 47 28v292c0 33 -21 44 -59 39v45l129 17c37 5 30 -30 25 -74l-4 -35c18 31 71 111 168 111c93 0 153 -37 154 -175z" />
    <glyph glyph-name="o" unicode="o" horiz-adv-x="507" 
d="M253 458c115 0 224 -85 224 -228c0 -148 -109 -240 -222 -240c-115 0 -225 92 -225 232c0 151 110 236 223 236zM372 200c0 128 -56 205 -129 205c-67 0 -107 -43 -107 -152c0 -125 56 -204 128 -204c67 0 108 41 108 151z" />
    <glyph glyph-name="oacute" unicode="&#xf3;" horiz-adv-x="507" 
d="M328 686l-107 -112c-10 -10 -13 -20 -6 -30c7 -9 18 -9 28 -3l136 77c28 16 40 45 18 72c-20 25 -46 20 -69 -4zM253 458c115 0 224 -85 224 -228c0 -148 -109 -240 -222 -240c-115 0 -225 92 -225 232c0 151 110 236 223 236zM372 200c0 128 -56 205 -129 205
c-67 0 -107 -43 -107 -152c0 -125 56 -204 128 -204c67 0 108 41 108 151z" />
    <glyph glyph-name="ocircumflex" unicode="&#xf4;" horiz-adv-x="507" 
d="M258 708l162 -174h-65l-97 69l-97 -69h-64zM253 458c115 0 224 -85 224 -228c0 -148 -109 -240 -222 -240c-115 0 -225 92 -225 232c0 151 110 236 223 236zM372 200c0 128 -56 205 -129 205c-67 0 -107 -43 -107 -152c0 -125 56 -204 128 -204c67 0 108 41 108 151z" />
    <glyph glyph-name="odieresis" unicode="&#xf6;" horiz-adv-x="507" 
d="M145 556c-36 0 -65 30 -65 65s29 65 65 65c35 0 64 -30 64 -65s-29 -65 -64 -65zM356 556c-35 0 -65 30 -65 65s30 65 65 65s65 -30 65 -65s-30 -65 -65 -65zM253 458c115 0 224 -85 224 -228c0 -148 -109 -240 -222 -240c-115 0 -225 92 -225 232c0 151 110 236 223 236
zM372 200c0 128 -56 205 -129 205c-67 0 -107 -43 -107 -152c0 -125 56 -204 128 -204c67 0 108 41 108 151z" />
    <glyph glyph-name="ograve" unicode="&#xf2;" horiz-adv-x="507" 
d="M318 574l-107 112c-22 24 -49 29 -69 4c-22 -27 -10 -56 18 -72l136 -77c10 -6 21 -6 28 3c8 10 4 20 -6 30zM253 458c115 0 224 -85 224 -228c0 -148 -109 -240 -222 -240c-115 0 -225 92 -225 232c0 151 110 236 223 236zM372 200c0 128 -56 205 -129 205
c-67 0 -107 -43 -107 -152c0 -125 56 -204 128 -204c67 0 108 41 108 151z" />
    <glyph glyph-name="ohungarumlaut" unicode="&#x151;" horiz-adv-x="507" 
d="M201 686l-107 -112c-10 -10 -13 -20 -6 -30c7 -9 18 -9 28 -3l136 77c28 16 40 45 18 72c-20 25 -46 20 -69 -4zM408 686l-107 -112c-10 -10 -13 -20 -6 -30c7 -9 18 -9 28 -3l136 77c28 16 40 45 18 72c-20 25 -46 20 -69 -4zM253 458c115 0 224 -85 224 -228
c0 -148 -109 -240 -222 -240c-115 0 -225 92 -225 232c0 151 110 236 223 236zM372 200c0 128 -56 205 -129 205c-67 0 -107 -43 -107 -152c0 -125 56 -204 128 -204c67 0 108 41 108 151z" />
    <glyph glyph-name="omacron" unicode="&#x14d;" horiz-adv-x="507" 
d="M95 602v30c0 12 7 17 20 17h283c13 0 20 -5 20 -17v-30c0 -12 -7 -17 -20 -17h-283c-13 0 -20 5 -20 17zM253 458c115 0 224 -85 224 -228c0 -148 -109 -240 -222 -240c-115 0 -225 92 -225 232c0 151 110 236 223 236zM372 200c0 128 -56 205 -129 205
c-67 0 -107 -43 -107 -152c0 -125 56 -204 128 -204c67 0 108 41 108 151z" />
    <glyph glyph-name="oslash" unicode="&#xf8;" horiz-adv-x="507" 
d="M435 414l-19 -25c37 -38 61 -92 61 -159c0 -148 -109 -240 -222 -240c-40 0 -80 11 -114 32l-21 -28l-48 37l21 28c-38 41 -63 96 -63 163c0 151 110 236 223 236c41 0 82 -11 117 -31l18 24zM136 253c0 -43 7 -81 19 -112l169 225c-22 25 -50 39 -81 39
c-67 0 -107 -43 -107 -152zM264 49c67 0 108 41 108 151c0 42 -6 78 -16 108l-168 -223c21 -23 47 -36 76 -36z" />
    <glyph glyph-name="otilde" unicode="&#xf5;" horiz-adv-x="507" 
d="M394 652h46c-7 -67 -56 -110 -124 -110c-70 0 -104 68 -150 68c-42 0 -58 -36 -56 -48h-38c-15 64 51 106 110 106c74 0 91 -58 153 -58c34 0 59 29 59 42zM253 458c115 0 224 -85 224 -228c0 -148 -109 -240 -222 -240c-115 0 -225 92 -225 232c0 151 110 236 223 236z
M372 200c0 128 -56 205 -129 205c-67 0 -107 -43 -107 -152c0 -125 56 -204 128 -204c67 0 108 41 108 151z" />
    <glyph glyph-name="oe" unicode="&#x153;" horiz-adv-x="825" 
d="M792 273c0 -38 -19 -61 -56 -61h-257c0 -93 55 -162 135 -162c64 0 100 35 124 64l35 -38c-25 -33 -72 -85 -174 -85c-70 0 -133 30 -175 81c-42 -52 -105 -82 -169 -82c-115 0 -225 92 -225 232c0 151 110 236 223 236c64 0 126 -26 169 -74c41 49 102 75 166 75
c106 0 204 -78 204 -186zM479 265h211c0 88 -33 142 -102 142c-71 0 -109 -54 -109 -142zM264 49c66 0 107 40 108 147c-1 11 -2 22 -2 33v10c-10 104 -62 166 -127 166c-67 0 -107 -43 -107 -152c0 -125 56 -204 128 -204z" />
    <glyph glyph-name="p" unicode="p" horiz-adv-x="537" 
d="M322 459c107 0 186 -83 186 -232c0 -150 -96 -233 -193 -233c-70 0 -116 41 -136 75v-191c0 -23 16 -28 50 -28v-34h-197v34c32 0 47 5 47 28v485c0 33 -21 44 -59 39v41l132 17c36 4 36 -36 22 -79c23 25 71 78 148 78zM305 48c60 0 99 53 99 166c0 95 -33 176 -98 176
c-66 0 -99 -28 -127 -56v-188c19 -53 61 -98 126 -98z" />
    <glyph glyph-name="thorn" unicode="&#xfe;" horiz-adv-x="544" 
d="M314 460c111 0 190 -85 190 -233c0 -150 -96 -233 -193 -233c-61 0 -104 29 -140 78v-194c0 -23 16 -28 50 -28v-34h-198v34c32 0 47 5 47 28v705c0 23 -7 33 -27 33h-28v36l131 15c16 2 24 -4 24 -19v-166c0 -36 -4 -78 -16 -124l17 22c25 30 68 80 143 80zM301 48
c60 0 98 53 98 166c0 95 -32 176 -97 176c-67 0 -99 -25 -131 -61v-183c19 -53 62 -98 130 -98z" />
    <glyph glyph-name="q" unicode="q" horiz-adv-x="557" 
d="M537 -84v-45l-150 -83c-15 -8 -29 -1 -29 12v177c0 44 6 120 17 170l-16 -52c-13 -40 -48 -101 -144 -101c-113 0 -190 88 -190 244c0 139 76 224 179 224c85 0 136 -68 153 -89l49 71c19 29 51 19 51 -6v-502c0 -27 -6 -45 17 -38zM357 149v171c-23 28 -57 78 -123 78
c-67 0 -103 -51 -103 -153c0 -111 41 -178 112 -178c68 0 96 39 114 82z" />
    <glyph glyph-name="r" unicode="r" horiz-adv-x="427" 
d="M392 395l-26 -31c-28 -37 -40 10 -90 10c-59 0 -86 -79 -93 -119v-190c0 -23 17 -28 54 -28v-37h-203v37c34 0 51 5 51 28v292c0 33 -22 44 -60 39v45l129 16c36 4 30 -29 25 -74l-9 -84l10 40c18 80 80 117 148 117c53 0 92 -26 64 -61z" />
    <glyph glyph-name="racute" unicode="&#x155;" horiz-adv-x="427" 
d="M299 686l-107 -112c-10 -10 -13 -20 -6 -30c7 -9 18 -9 28 -3l136 77c28 16 40 45 18 72c-20 25 -46 20 -69 -4zM392 395l-26 -31c-28 -37 -40 10 -90 10c-59 0 -86 -79 -93 -119v-190c0 -23 17 -28 54 -28v-37h-203v37c34 0 51 5 51 28v292c0 33 -22 44 -60 39v45
l129 16c36 4 30 -29 25 -74l-9 -84l10 40c18 80 80 117 148 117c53 0 92 -26 64 -61z" />
    <glyph glyph-name="rcaron" unicode="&#x159;" horiz-adv-x="427" 
d="M214 523l-161 174h64l97 -69l97 69h65zM392 395l-26 -31c-28 -37 -40 10 -90 10c-59 0 -86 -79 -93 -119v-190c0 -23 17 -28 54 -28v-37h-203v37c34 0 51 5 51 28v292c0 33 -22 44 -60 39v45l129 16c36 4 30 -29 25 -74l-9 -84l10 40c18 80 80 117 148 117
c53 0 92 -26 64 -61z" />
    <glyph glyph-name="rcommaaccent" unicode="&#x157;" horiz-adv-x="427" 
d="M392 395l-26 -31c-28 -37 -40 10 -90 10c-59 0 -86 -79 -93 -119v-190c0 -23 17 -28 54 -28v-37h-203v37c34 0 51 5 51 28v292c0 33 -22 44 -60 39v45l129 16c36 4 30 -29 25 -74l-9 -84l10 40c18 80 80 117 148 117c53 0 92 -26 64 -61zM201 -226
c-10 -33 -29 -61 -54 -83c-7 -4 -12 -4 -19 2l-17 19c17 18 29 32 36 50c6 17 7 31 5 38c-8 -2 -14 -2 -28 -1c-28 4 -51 33 -47 65c4 36 36 59 69 55c34 -4 53 -33 58 -60c6 -30 7 -51 -3 -85z" />
    <glyph glyph-name="s" unicode="s" horiz-adv-x="449" 
d="M419 124c0 -84 -85 -134 -197 -134c-103 0 -179 51 -186 72c-20 61 -9 88 16 92c47 8 57 -8 59 -26c9 -62 43 -88 111 -88c70 0 100 34 100 70c0 35 -57 60 -115 78c-65 20 -166 60 -166 146c0 72 58 125 180 125c96 0 171 -53 173 -73c6 -69 -10 -83 -31 -84
c-40 -3 -55 10 -51 31c7 44 -26 78 -91 78c-59 0 -87 -30 -87 -62c0 -45 59 -58 109 -74c67 -21 176 -51 176 -151z" />
    <glyph glyph-name="sacute" unicode="&#x15b;" horiz-adv-x="449" 
d="M309 686l-107 -112c-10 -10 -13 -20 -6 -30c7 -9 18 -9 28 -3l136 77c28 16 40 45 18 72c-20 25 -46 20 -69 -4zM419 124c0 -84 -85 -134 -197 -134c-103 0 -179 51 -186 72c-20 61 -9 88 16 92c47 8 57 -8 59 -26c9 -62 43 -88 111 -88c70 0 100 34 100 70
c0 35 -57 60 -115 78c-65 20 -166 60 -166 146c0 72 58 125 180 125c96 0 171 -53 173 -73c6 -69 -10 -83 -31 -84c-40 -3 -55 10 -51 31c7 44 -26 78 -91 78c-59 0 -87 -30 -87 -62c0 -45 59 -58 109 -74c67 -21 176 -51 176 -151z" />
    <glyph glyph-name="scaron" unicode="&#x161;" horiz-adv-x="449" 
d="M224 523l-161 174h64l97 -69l97 69h65zM419 124c0 -84 -85 -134 -197 -134c-103 0 -179 51 -186 72c-20 61 -9 88 16 92c47 8 57 -8 59 -26c9 -62 43 -88 111 -88c70 0 100 34 100 70c0 35 -57 60 -115 78c-65 20 -166 60 -166 146c0 72 58 125 180 125
c96 0 171 -53 173 -73c6 -69 -10 -83 -31 -84c-40 -3 -55 10 -51 31c7 44 -26 78 -91 78c-59 0 -87 -30 -87 -62c0 -45 59 -58 109 -74c67 -21 176 -51 176 -151z" />
    <glyph glyph-name="scedilla" unicode="&#x15f;" horiz-adv-x="449" 
d="M419 124c0 -74 -66 -121 -158 -132l-18 -38c55 9 114 -31 104 -93c-10 -59 -71 -83 -129 -80c-64 3 -100 36 -106 68c-6 33 38 58 69 26c4 -22 7 -51 41 -53c32 -2 51 14 56 46c5 31 -14 52 -50 48c-15 -2 -28 -5 -36 -6c-22 -4 -31 16 -22 30c8 14 17 32 25 51
c-89 8 -153 52 -159 71c-20 61 -9 88 16 92c47 8 57 -8 59 -26c9 -62 43 -88 111 -88c70 0 100 34 100 70c0 35 -57 60 -115 78c-65 20 -166 60 -166 146c0 72 58 125 180 125c96 0 171 -53 173 -73c6 -69 -10 -83 -31 -84c-40 -3 -55 10 -51 31c7 44 -26 78 -91 78
c-59 0 -87 -30 -87 -62c0 -45 59 -58 109 -74c67 -21 176 -51 176 -151z" />
    <glyph glyph-name="scommaaccent" unicode="&#x219;" horiz-adv-x="449" 
d="M419 124c0 -84 -85 -134 -197 -134c-103 0 -179 51 -186 72c-20 61 -9 88 16 92c47 8 57 -8 59 -26c9 -62 43 -88 111 -88c70 0 100 34 100 70c0 35 -57 60 -115 78c-65 20 -166 60 -166 146c0 72 58 125 180 125c96 0 171 -53 173 -73c6 -69 -10 -83 -31 -84
c-40 -3 -55 10 -51 31c7 44 -26 78 -91 78c-59 0 -87 -30 -87 -62c0 -45 59 -58 109 -74c67 -21 176 -51 176 -151zM289 -226c-10 -33 -29 -61 -54 -83c-7 -4 -12 -4 -19 2l-17 19c17 18 29 32 36 50c6 17 7 31 5 38c-8 -2 -14 -2 -28 -1c-28 4 -51 33 -47 65
c4 36 36 59 69 55c34 -4 53 -33 58 -60c6 -30 7 -51 -3 -85z" />
    <glyph glyph-name="germandbls" unicode="&#xdf;" horiz-adv-x="547" 
d="M367 374c73 -21 142 -87 142 -189c0 -115 -112 -186 -273 -186v55c111 0 163 43 163 131c0 82 -21 148 -158 150v46c56 0 105 50 105 111c0 54 -22 125 -95 125c-60 0 -77 -53 -77 -115v-399c0 -72 -36 -103 -107 -103h-38v38c38 5 46 10 46 33v423c0 109 65 173 176 173
c116 0 185 -74 185 -175c0 -48 -28 -90 -69 -118z" />
    <glyph glyph-name="t" unicode="t" horiz-adv-x="329" 
d="M277 69c16 11 42 -27 25 -40c-20 -15 -51 -36 -109 -36c-74 0 -120 44 -120 147v257h-50v48c58 0 88 56 115 109c10 19 36 15 36 -3v-99h107v-33c0 -15 -6 -22 -21 -22h-86v-273c0 -42 11 -77 42 -77c27 0 49 13 61 22z" />
    <glyph glyph-name="tbar" unicode="&#x167;" horiz-adv-x="372" 
d="M176 294h145c13 0 20 -5 20 -17v-30c0 -12 -7 -17 -20 -17h-145v-106c0 -42 11 -77 41 -77c27 0 49 13 61 22c16 11 42 -27 25 -40c-20 -15 -51 -36 -108 -36c-75 0 -121 44 -121 147v90h-36c-13 0 -20 5 -20 17v30c0 12 7 17 20 17h36v103h-50v48c59 0 88 56 115 109
c10 19 37 15 37 -3v-99h106v-33c0 -15 -6 -22 -21 -22h-85v-103z" />
    <glyph glyph-name="tcaron" unicode="&#x165;" horiz-adv-x="434" 
d="M411 495c-9 -32 -29 -61 -54 -82c-7 -4 -12 -5 -19 2l-17 19c17 18 30 32 36 49s7 31 5 39c-8 -2 -14 -3 -27 -2c-29 4 -52 34 -48 66c4 36 36 59 69 55c34 -4 54 -33 59 -61c5 -30 6 -50 -4 -85zM277 69c16 11 42 -27 25 -40c-20 -15 -51 -36 -109 -36
c-74 0 -120 44 -120 147v257h-50v48c58 0 88 56 115 109c10 19 36 15 36 -3v-99h107v-33c0 -15 -6 -22 -21 -22h-86v-273c0 -42 11 -77 42 -77c27 0 49 13 61 22z" />
    <glyph glyph-name="tcedilla" unicode="&#x163;" horiz-adv-x="329" 
d="M302 29c-17 -13 -42 -30 -85 -35l-19 -40c55 9 114 -31 104 -93c-10 -59 -71 -83 -129 -80c-64 3 -100 36 -106 68c-6 33 38 58 69 26c4 -22 7 -51 41 -53c32 -2 51 14 56 46c5 31 -14 52 -50 48c-15 -2 -28 -5 -36 -6c-22 -4 -31 16 -22 30c9 16 19 37 28 58
c-50 14 -80 59 -80 142v257h-50v48c58 0 88 56 115 109c10 19 36 15 36 -3v-99h107v-33c0 -15 -6 -22 -21 -22h-86v-273c0 -42 11 -77 42 -77c27 0 49 13 61 22c16 11 42 -27 25 -40z" />
    <glyph glyph-name="uni021B" unicode="&#x21b;" horiz-adv-x="329" 
d="M277 69c16 11 42 -27 25 -40c-20 -15 -51 -36 -109 -36c-74 0 -120 44 -120 147v257h-50v48c58 0 88 56 115 109c10 19 36 15 36 -3v-99h107v-33c0 -15 -6 -22 -21 -22h-86v-273c0 -42 11 -77 42 -77c27 0 49 13 61 22zM244 -226c-10 -33 -29 -61 -54 -83
c-7 -4 -12 -4 -19 2l-17 19c17 18 29 32 36 50c6 17 7 31 5 38c-8 -2 -14 -2 -28 -1c-28 4 -51 33 -47 65c4 36 36 59 69 55c34 -4 53 -33 58 -60c6 -30 7 -51 -3 -85z" />
    <glyph glyph-name="u" unicode="u" horiz-adv-x="562" 
d="M481 437v-343c0 -33 17 -42 56 -36v-41l-72 -21c-38 -12 -74 16 -83 107v2c-13 -38 -52 -113 -147 -113c-98 0 -167 57 -167 170v210c0 23 -8 32 -28 32h-15v36l117 18c14 1 25 -6 25 -21v-268c0 -85 32 -113 95 -113c68 0 99 49 120 114v202c0 23 -7 32 -27 32h-15v36
l116 18c16 3 25 -6 25 -21z" />
    <glyph glyph-name="uacute" unicode="&#xfa;" horiz-adv-x="562" 
d="M402 618l-136 -77c-10 -6 -21 -6 -28 3c-7 10 -4 20 6 30l107 112c23 24 49 29 69 4c22 -27 10 -56 -18 -72zM481 437v-343c0 -33 17 -42 56 -36v-41l-72 -21c-38 -12 -74 16 -83 107v2c-13 -38 -52 -113 -147 -113c-98 0 -167 57 -167 170v210c0 23 -8 32 -28 32h-15v36
l117 18c14 1 25 -6 25 -21v-268c0 -85 32 -113 95 -113c68 0 99 49 120 114v202c0 23 -7 32 -27 32h-15v36l116 18c16 3 25 -6 25 -21z" />
    <glyph glyph-name="ubreve" unicode="&#x16d;" horiz-adv-x="562" 
d="M275 549c-80 0 -137 56 -141 131c0 8 5 11 10 11h27c7 0 10 -3 11 -11c4 -29 38 -55 93 -55c56 0 89 26 93 55c1 8 4 11 11 11h27c5 0 10 -3 10 -11c-4 -75 -61 -131 -141 -131zM481 437v-343c0 -33 17 -42 56 -36v-41l-72 -21c-38 -12 -74 16 -83 107v2
c-13 -38 -52 -113 -147 -113c-98 0 -167 57 -167 170v210c0 23 -8 32 -28 32h-15v36l117 18c14 1 25 -6 25 -21v-268c0 -85 32 -113 95 -113c68 0 99 49 120 114v202c0 23 -7 32 -27 32h-15v36l116 18c16 3 25 -6 25 -21z" />
    <glyph glyph-name="ucircumflex" unicode="&#xfb;" horiz-adv-x="562" 
d="M281 603l-97 -69h-64l161 174l162 -174h-65zM481 437v-343c0 -33 17 -42 56 -36v-41l-72 -21c-38 -12 -74 16 -83 107v2c-13 -38 -52 -113 -147 -113c-98 0 -167 57 -167 170v210c0 23 -8 32 -28 32h-15v36l117 18c14 1 25 -6 25 -21v-268c0 -85 32 -113 95 -113
c68 0 99 49 120 114v202c0 23 -7 32 -27 32h-15v36l116 18c16 3 25 -6 25 -21z" />
    <glyph glyph-name="udieresis" unicode="&#xfc;" horiz-adv-x="562" 
d="M167 556c-36 0 -65 30 -65 65s29 65 65 65c35 0 64 -30 64 -65s-29 -65 -64 -65zM378 556c-35 0 -65 30 -65 65s30 65 65 65s65 -30 65 -65s-30 -65 -65 -65zM481 437v-343c0 -33 17 -42 56 -36v-41l-72 -21c-38 -12 -74 16 -83 107v2c-13 -38 -52 -113 -147 -113
c-98 0 -167 57 -167 170v210c0 23 -8 32 -28 32h-15v36l117 18c14 1 25 -6 25 -21v-268c0 -85 32 -113 95 -113c68 0 99 49 120 114v202c0 23 -7 32 -27 32h-15v36l116 18c16 3 25 -6 25 -21z" />
    <glyph glyph-name="ugrave" unicode="&#xf9;" horiz-adv-x="562" 
d="M318 541l-136 77c-28 16 -40 45 -18 72c20 25 47 20 69 -4l107 -112c10 -10 14 -20 6 -30c-7 -9 -18 -9 -28 -3zM481 437v-343c0 -33 17 -42 56 -36v-41l-72 -21c-38 -12 -74 16 -83 107v2c-13 -38 -52 -113 -147 -113c-98 0 -167 57 -167 170v210c0 23 -8 32 -28 32h-15
v36l117 18c14 1 25 -6 25 -21v-268c0 -85 32 -113 95 -113c68 0 99 49 120 114v202c0 23 -7 32 -27 32h-15v36l116 18c16 3 25 -6 25 -21z" />
    <glyph glyph-name="uhungarumlaut" unicode="&#x171;" horiz-adv-x="562" 
d="M275 618l-136 -77c-10 -6 -21 -6 -28 3c-7 10 -4 20 6 30l107 112c23 24 49 29 69 4c22 -27 10 -56 -18 -72zM482 618l-136 -77c-10 -6 -21 -6 -28 3c-7 10 -4 20 6 30l107 112c23 24 49 29 69 4c22 -27 10 -56 -18 -72zM481 437v-343c0 -33 17 -42 56 -36v-41l-72 -21
c-38 -12 -74 16 -83 107v2c-13 -38 -52 -113 -147 -113c-98 0 -167 57 -167 170v210c0 23 -8 32 -28 32h-15v36l117 18c14 1 25 -6 25 -21v-268c0 -85 32 -113 95 -113c68 0 99 49 120 114v202c0 23 -7 32 -27 32h-15v36l116 18c16 3 25 -6 25 -21z" />
    <glyph glyph-name="umacron" unicode="&#x16b;" horiz-adv-x="562" 
d="M421 585h-283c-13 0 -20 5 -20 17v30c0 12 7 17 20 17h283c13 0 20 -5 20 -17v-30c0 -12 -7 -17 -20 -17zM481 437v-343c0 -33 17 -42 56 -36v-41l-72 -21c-38 -12 -74 16 -83 107v2c-13 -38 -52 -113 -147 -113c-98 0 -167 57 -167 170v210c0 23 -8 32 -28 32h-15v36
l117 18c14 1 25 -6 25 -21v-268c0 -85 32 -113 95 -113c68 0 99 49 120 114v202c0 23 -7 32 -27 32h-15v36l116 18c16 3 25 -6 25 -21z" />
    <glyph glyph-name="uogonek" unicode="&#x173;" horiz-adv-x="562" 
d="M537 58v-41l-44 -13c-75 -24 -117 -51 -117 -102c0 -37 22 -57 53 -57c36 0 53 26 65 57h34c-10 -32 -43 -108 -141 -108c-51 0 -105 23 -105 90c0 66 63 105 133 125c-16 16 -28 47 -33 94v2c-13 -38 -52 -113 -147 -113c-98 0 -167 57 -167 170v210c0 23 -8 32 -28 32
h-15v36l117 18c14 1 25 -6 25 -21v-268c0 -85 32 -113 95 -113c68 0 99 49 120 114v202c0 23 -7 32 -27 32h-15v36l116 18c16 3 25 -6 25 -21v-343c0 -33 17 -42 56 -36z" />
    <glyph glyph-name="uring" unicode="&#x16f;" horiz-adv-x="562" 
d="M278 544c-54 0 -99 43 -99 94c0 52 45 95 99 95s98 -43 98 -95c0 -51 -44 -94 -98 -94zM278 686c-21 0 -39 -23 -39 -48c0 -26 18 -48 39 -48c18 0 37 22 37 48c0 25 -19 48 -37 48zM481 437v-343c0 -33 17 -42 56 -36v-41l-72 -21c-38 -12 -74 16 -83 107v2
c-13 -38 -52 -113 -147 -113c-98 0 -167 57 -167 170v210c0 23 -8 32 -28 32h-15v36l117 18c14 1 25 -6 25 -21v-268c0 -85 32 -113 95 -113c68 0 99 49 120 114v202c0 23 -7 32 -27 32h-15v36l116 18c16 3 25 -6 25 -21z" />
    <glyph glyph-name="v" unicode="v" horiz-adv-x="533" 
d="M297 0h-35c-18 0 -31 10 -38 29l-135 304c-26 59 -42 72 -58 78l-21 8v32h204v-32l-20 -8c-22 -9 -29 -13 -3 -78l98 -238l79 235c22 66 15 73 -8 81l-22 8v32h185v-32l-23 -8c-15 -5 -40 -14 -67 -80z" />
    <glyph glyph-name="w" unicode="w" horiz-adv-x="795" 
d="M600 418v33c57 -2 128 -2 185 0v-33l-23 -8c-15 -5 -40 -13 -67 -79l-132 -331h-36c-17 0 -29 9 -36 27l-96 239l-110 -266h-36c-17 0 -30 9 -37 27l-117 306c-23 59 -43 71 -59 77l-21 8v33c65 -2 139 -2 204 0v-33l-22 -8c-22 -8 -28 -12 -5 -77l86 -229l85 242
c-20 48 -31 58 -46 64l-28 8v33c72 -2 140 -2 211 0v-33l-28 -8c-23 -7 -31 -12 -6 -77l90 -229l74 226c22 65 15 72 -8 80z" />
    <glyph glyph-name="wacute" unicode="&#x1e83;" horiz-adv-x="795" 
d="M528 618l-136 -77c-10 -6 -21 -6 -28 3c-7 10 -4 20 6 30l107 112c23 24 49 29 69 4c22 -27 10 -56 -18 -72zM600 418v33c57 -2 128 -2 185 0v-33l-23 -8c-15 -5 -40 -13 -67 -79l-132 -331h-36c-17 0 -29 9 -36 27l-96 239l-110 -266h-36c-17 0 -30 9 -37 27l-117 306
c-23 59 -43 71 -59 77l-21 8v33c65 -2 139 -2 204 0v-33l-22 -8c-22 -8 -28 -12 -5 -77l86 -229l85 242c-20 48 -31 58 -46 64l-28 8v33c72 -2 140 -2 211 0v-33l-28 -8c-23 -7 -31 -12 -6 -77l90 -229l74 226c22 65 15 72 -8 80z" />
    <glyph glyph-name="wcircumflex" unicode="&#x175;" horiz-adv-x="795" 
d="M407 603l-97 -69h-64l161 174l162 -174h-65zM600 418v33c57 -2 128 -2 185 0v-33l-23 -8c-15 -5 -40 -13 -67 -79l-132 -331h-36c-17 0 -29 9 -36 27l-96 239l-110 -266h-36c-17 0 -30 9 -37 27l-117 306c-23 59 -43 71 -59 77l-21 8v33c65 -2 139 -2 204 0v-33l-22 -8
c-22 -8 -28 -12 -5 -77l86 -229l85 242c-20 48 -31 58 -46 64l-28 8v33c72 -2 140 -2 211 0v-33l-28 -8c-23 -7 -31 -12 -6 -77l90 -229l74 226c22 65 15 72 -8 80z" />
    <glyph glyph-name="wdieresis" unicode="&#x1e85;" horiz-adv-x="795" 
d="M294 556c-36 0 -65 30 -65 65s29 65 65 65c35 0 64 -30 64 -65s-29 -65 -64 -65zM505 556c-35 0 -65 30 -65 65s30 65 65 65s65 -30 65 -65s-30 -65 -65 -65zM600 418v33c57 -2 128 -2 185 0v-33l-23 -8c-15 -5 -40 -13 -67 -79l-132 -331h-36c-17 0 -29 9 -36 27
l-96 239l-110 -266h-36c-17 0 -30 9 -37 27l-117 306c-23 59 -43 71 -59 77l-21 8v33c65 -2 139 -2 204 0v-33l-22 -8c-22 -8 -28 -12 -5 -77l86 -229l85 242c-20 48 -31 58 -46 64l-28 8v33c72 -2 140 -2 211 0v-33l-28 -8c-23 -7 -31 -12 -6 -77l90 -229l74 226
c22 65 15 72 -8 80z" />
    <glyph glyph-name="wgrave" unicode="&#x1e81;" horiz-adv-x="795" 
d="M445 541l-136 77c-28 16 -40 45 -18 72c20 25 47 20 69 -4l107 -112c10 -10 14 -20 6 -30c-7 -9 -18 -9 -28 -3zM600 418v33c57 -2 128 -2 185 0v-33l-23 -8c-15 -5 -40 -13 -67 -79l-132 -331h-36c-17 0 -29 9 -36 27l-96 239l-110 -266h-36c-17 0 -30 9 -37 27
l-117 306c-23 59 -43 71 -59 77l-21 8v33c65 -2 139 -2 204 0v-33l-22 -8c-22 -8 -28 -12 -5 -77l86 -229l85 242c-20 48 -31 58 -46 64l-28 8v33c72 -2 140 -2 211 0v-33l-28 -8c-23 -7 -31 -12 -6 -77l90 -229l74 226c22 65 15 72 -8 80z" />
    <glyph glyph-name="x" unicode="x" horiz-adv-x="569" 
d="M515 47l29 -3v-44h-226v44l29 2c20 2 34 6 16 28l-95 111l-94 -106c-15 -18 -5 -31 13 -33l23 -2v-44h-185v44l29 3c16 2 27 7 50 33l130 144l-125 146c-28 32 -41 35 -62 40l-21 5v36c70 -2 155 -2 225 0v-36l-28 -4c-13 -2 -20 -9 -3 -30l76 -92l79 86
c24 25 9 33 -6 36l-23 4v36c58 -2 125 -2 183 0v-36l-24 -5c-21 -4 -41 -12 -78 -53l-97 -108l141 -171c21 -26 32 -29 44 -31z" />
    <glyph glyph-name="y" unicode="y" horiz-adv-x="553" 
d="M533 451v-32l-14 -6c-18 -8 -35 -11 -42 -27l-203 -470c-35 -80 -67 -131 -141 -131c-62 0 -101 21 -110 60c-8 40 7 68 52 68c66 0 26 -72 73 -72c26 0 42 41 57 73l43 97l-186 375c-9 18 -18 22 -33 27l-18 6v32h207v-32l-25 -5c-16 -3 -30 -11 -22 -28l129 -274
l111 274c6 15 -8 25 -23 28l-28 5v32h173z" />
    <glyph glyph-name="yacute" unicode="&#xfd;" horiz-adv-x="553" 
d="M362 686l-107 -112c-10 -10 -13 -20 -6 -30c7 -9 18 -9 28 -3l136 77c28 16 40 45 18 72c-20 25 -46 20 -69 -4zM533 451v-32l-14 -6c-18 -8 -35 -11 -42 -27l-203 -470c-35 -80 -67 -131 -141 -131c-62 0 -101 21 -110 60c-8 40 7 68 52 68c66 0 26 -72 73 -72
c26 0 42 41 57 73l43 97l-186 375c-9 18 -18 22 -33 27l-18 6v32h207v-32l-25 -5c-16 -3 -30 -11 -22 -28l129 -274l111 274c6 15 -8 25 -23 28l-28 5v32h173z" />
    <glyph glyph-name="ycircumflex" unicode="&#x177;" horiz-adv-x="553" 
d="M292 708l162 -174h-65l-97 69l-97 -69h-64zM533 451v-32l-14 -6c-18 -8 -35 -11 -42 -27l-203 -470c-35 -80 -67 -131 -141 -131c-62 0 -101 21 -110 60c-8 40 7 68 52 68c66 0 26 -72 73 -72c26 0 42 41 57 73l43 97l-186 375c-9 18 -18 22 -33 27l-18 6v32h207v-32
l-25 -5c-16 -3 -30 -11 -22 -28l129 -274l111 274c6 15 -8 25 -23 28l-28 5v32h173z" />
    <glyph glyph-name="ydieresis" unicode="&#xff;" horiz-adv-x="553" 
d="M178 556c-36 0 -65 30 -65 65s29 65 65 65c35 0 64 -30 64 -65s-29 -65 -64 -65zM389 556c-35 0 -65 30 -65 65s30 65 65 65s65 -30 65 -65s-30 -65 -65 -65zM533 451v-32l-14 -6c-18 -8 -35 -11 -42 -27l-203 -470c-35 -80 -67 -131 -141 -131c-62 0 -101 21 -110 60
c-8 40 7 68 52 68c66 0 26 -72 73 -72c26 0 42 41 57 73l43 97l-186 375c-9 18 -18 22 -33 27l-18 6v32h207v-32l-25 -5c-16 -3 -30 -11 -22 -28l129 -274l111 274c6 15 -8 25 -23 28l-28 5v32h173z" />
    <glyph glyph-name="ygrave" unicode="&#x1ef3;" horiz-adv-x="553" 
d="M351 574l-107 112c-22 24 -49 29 -69 4c-22 -27 -10 -56 18 -72l136 -77c10 -6 21 -6 28 3c8 10 4 20 -6 30zM533 451v-32l-14 -6c-18 -8 -35 -11 -42 -27l-203 -470c-35 -80 -67 -131 -141 -131c-62 0 -101 21 -110 60c-8 40 7 68 52 68c66 0 26 -72 73 -72
c26 0 42 41 57 73l43 97l-186 375c-9 18 -18 22 -33 27l-18 6v32h207v-32l-25 -5c-16 -3 -30 -11 -22 -28l129 -274l111 274c6 15 -8 25 -23 28l-28 5v32h173z" />
    <glyph glyph-name="z" unicode="z" horiz-adv-x="474" 
d="M434 111l-18 -111h-363c-27 0 -36 26 -20 48l255 354l-195 -6c-18 -1 -24 -20 -29 -34l-6 -16h-38l18 109h395l-292 -400l219 5c19 0 21 18 27 33l6 18h41z" />
    <glyph glyph-name="zacute" unicode="&#x17a;" horiz-adv-x="474" 
d="M320 686l-107 -112c-10 -10 -13 -20 -6 -30c7 -9 18 -9 28 -3l136 77c28 16 40 45 18 72c-20 25 -46 20 -69 -4zM434 111l-18 -111h-363c-27 0 -36 26 -20 48l255 354l-195 -6c-18 -1 -24 -20 -29 -34l-6 -16h-38l18 109h395l-292 -400l219 5c19 0 21 18 27 33l6 18h41z
" />
    <glyph glyph-name="zcaron" unicode="&#x17e;" horiz-adv-x="474" 
d="M235 523l-161 174h64l97 -69l97 69h65zM434 111l-18 -111h-363c-27 0 -36 26 -20 48l255 354l-195 -6c-18 -1 -24 -20 -29 -34l-6 -16h-38l18 109h395l-292 -400l219 5c19 0 21 18 27 33l6 18h41z" />
    <glyph glyph-name="zdotaccent" unicode="&#x17c;" horiz-adv-x="474" 
d="M237 555c-35 0 -63 29 -63 64c0 34 28 63 63 63c34 0 63 -29 63 -63c0 -35 -29 -64 -63 -64zM434 111l-18 -111h-363c-27 0 -36 26 -20 48l255 354l-195 -6c-18 -1 -24 -20 -29 -34l-6 -16h-38l18 109h395l-292 -400l219 5c19 0 21 18 27 33l6 18h41z" />
    <glyph glyph-name="f_b" horiz-adv-x="913" 
d="M680 460c113 0 196 -85 196 -233c0 -150 -100 -235 -199 -235c-83 0 -132 58 -146 93l-35 -73c-14 -30 -58 -20 -58 3v496c0 54 -78 109 -149 109c-86 0 -99 -73 -99 -134v-29h146c-17 -51 -22 -58 -42 -58h-104v-334c0 -23 8 -28 52 -28v-37h-208v37c45 0 56 5 56 28
v334h-49c-6 0 -10 4 -10 10v48h59v17c0 109 58 193 199 193c49 0 111 -7 160 -20l65 10c16 3 24 -4 24 -19v-156c0 -36 -4 -78 -16 -124l17 22c24 30 68 80 141 80zM669 47c60 0 102 54 102 167c0 95 -36 176 -101 176c-66 0 -99 -24 -131 -61v-183c20 -53 62 -99 130 -99z
" />
    <glyph glyph-name="f_h" horiz-adv-x="941" 
d="M861 286v-189c0 -33 9 -57 60 -45l-13 -43c-22 -8 -48 -9 -67 -9c-53 0 -82 33 -82 72v205c0 71 -13 117 -74 117c-68 0 -125 -62 -144 -84v-244c0 -23 16 -28 50 -28v-38h-200v38c32 0 47 5 47 28v445c0 31 -24 62 -59 83v1c-26 15 -57 25 -90 25
c-86 0 -99 -73 -99 -134v-29h133c-17 -51 -21 -58 -42 -58h-91v-334c0 -23 8 -28 52 -28v-37h-201v37c41 0 49 5 49 28v334h-49c-6 0 -10 4 -10 10v48h59v17c0 109 58 193 199 193c52 0 114 -7 163 -20l57 8c37 6 30 -30 28 -74v-201l-4 -30c18 31 76 111 174 111
c92 0 154 -38 154 -175z" />
    <glyph glyph-name="f_j" horiz-adv-x="604" 
d="M190 457h120c-18 -51 -22 -58 -42 -58h-78v-334c0 -23 8 -28 52 -28v-37h-201v37c41 0 49 5 49 28v334h-49c-6 0 -10 4 -10 10v48h59v17c0 115 62 193 217 193c129 0 223 -55 223 -119c0 -29 -20 -48 -54 -48c-30 0 -55 17 -55 48c0 40 -25 72 -114 72
c-100 0 -117 -66 -117 -134v-29zM401 445l115 9c23 2 32 -9 32 -31v-497c0 -68 -29 -106 -79 -127c-70 -29 -137 -7 -158 41c-11 27 -7 60 18 73c29 14 52 1 62 -17c11 -22 17 -70 34 -63c14 6 24 23 24 50v486c0 23 -8 31 -28 31h-20v45z" />
    <glyph glyph-name="f_k" horiz-adv-x="910" 
d="M619 270l203 -208c20 -20 27 -25 56 -25v-37h-191v37c36 0 35 12 28 19l-178 174v-165c0 -23 15 -28 32 -28v-37h-168v37c19 0 36 5 36 28v446c0 54 -78 109 -149 109c-86 0 -99 -73 -99 -134v-29h140c-18 -51 -22 -58 -42 -58h-98v-334c0 -23 8 -28 52 -28v-37h-191v37
c31 0 39 5 39 28v334h-49c-6 0 -10 4 -10 10v48h59v17c0 109 58 193 199 193c37 0 82 -4 123 -12l102 12c15 2 24 -4 24 -19v-386l157 123c13 11 13 27 -28 27v39h177v-39c-36 0 -52 -9 -67 -20z" />
    <glyph glyph-name="ordfeminine" unicode="&#xaa;" horiz-adv-x="358" 
d="M287 518v-125c0 -21 7 -23 35 -10v-36l-48 -15c-23 -8 -44 13 -50 49c-15 -27 -45 -50 -89 -51c-50 -1 -99 22 -99 73c0 48 33 86 183 107v7c0 36 -7 80 -55 76c-12 -1 -17 -2 -30 -6c-15 -5 -7 -25 -12 -43c-4 -14 -25 -23 -45 -20s-29 19 -23 42c8 29 52 53 98 57
c83 8 135 -30 135 -105zM147 366c42 0 60 35 72 57v59c-104 -17 -112 -52 -112 -78c0 -24 15 -38 40 -38zM54 270h249v-47h-249v47z" />
    <glyph glyph-name="ordmasculine" unicode="&#xba;" horiz-adv-x="356" 
d="M178 623c73 -1 142 -55 142 -144c0 -92 -69 -148 -142 -148c-72 0 -142 56 -142 143c0 94 70 148 142 149zM251 467c0 67 -38 122 -73 122c-45 0 -73 -27 -73 -103c0 -66 39 -120 73 -120c46 0 73 25 73 101zM54 270h249v-47h-249v47z" />
    <glyph glyph-name="uni0410" unicode="&#x410;" horiz-adv-x="705" 
d="M389 588l206 -463c31 -70 45 -74 90 -84v-41h-231v41c57 10 56 18 46 42l-58 133h-233l-52 -128c-10 -25 7 -37 56 -47v-41h-193v41c48 10 56 13 75 59l222 529l37 -10c14 -5 28 -14 35 -31zM229 265h192l-99 229z" />
    <glyph glyph-name="uni0411" unicode="&#x411;" horiz-adv-x="580" 
d="M189 381h118c135 0 239 -72 239 -190c0 -119 -99 -191 -248 -191h-283v44c46 9 68 19 68 42v456c0 23 -22 32 -68 35v44h444c13 0 26 -8 30 -23l24 -101h-42l-16 32c-14 28 -37 36 -80 37l-145 3c-26 -1 -41 -4 -41 -23v-165zM257 44h51c88 0 122 64 122 147
c0 81 -34 147 -125 147h-116v-252c0 -23 22 -33 68 -42z" />
    <glyph glyph-name="uni0412" unicode="&#x412;" horiz-adv-x="632" 
d="M429 336c112 -18 168 -80 168 -159c0 -118 -95 -180 -249 -177l-88 2c-105 7 -162 6 -235 -2v47c46 10 65 25 65 48v437c0 23 -24 38 -64 44v45h291c158 0 246 -45 246 -147c0 -55 -39 -115 -134 -138zM200 571v-213h183c30 0 63 42 63 114c0 62 -38 99 -120 99h-126z
M229 54h106c94 0 145 25 145 123c0 88 -57 138 -224 138h-56v-219c0 -22 8 -42 29 -42z" />
    <glyph glyph-name="uni0413" unicode="&#x413;" horiz-adv-x="538" 
d="M489 598l24 -101h-42l-16 32c-14 28 -37 36 -80 37l-145 3c-26 -1 -41 -4 -41 -23v-460c0 -23 22 -33 68 -42v-44h-242v44c46 9 68 19 68 42v456c0 23 -22 32 -68 35v44h444c13 0 26 -8 30 -23z" />
    <glyph glyph-name="uni0403" unicode="&#x403;" horiz-adv-x="538" 
d="M390 788l-136 -77c-10 -6 -21 -6 -28 3c-7 10 -4 20 6 30l107 112c23 24 49 29 69 4c22 -27 10 -56 -18 -72zM489 598l24 -101h-42l-16 32c-14 28 -37 36 -80 37l-145 3c-26 -1 -41 -4 -41 -23v-460c0 -23 22 -33 68 -42v-44h-242v44c46 9 68 19 68 42v456
c0 23 -22 32 -68 35v44h444c13 0 26 -8 30 -23z" />
    <glyph glyph-name="uni0490" unicode="&#x490;" horiz-adv-x="504" 
d="M441 695h38v-102c0 -15 -17 -23 -30 -23h-224c-23 -1 -36 -6 -36 -24v-460c0 -23 22 -33 68 -42v-44h-242v44c46 9 68 19 68 42v456c0 23 -22 32 -68 35v44h330c43 0 66 13 80 41z" />
    <glyph glyph-name="uni0414" unicode="&#x414;" horiz-adv-x="698" 
d="M652 621v-44c-49 0 -79 -1 -79 -28v-463c0 -31 20 -37 72 -38c8 0 11 -4 11 -12l-24 -201h-32c-7 0 -11 4 -11 11c0 108 21 154 -181 154h-127c-192 0 -200 -46 -200 -154c0 -7 -4 -11 -11 -11h-28v203c0 6 3 10 10 11c118 21 146 208 146 499c0 23 -20 29 -79 29v44h533
zM157 49h250c36 0 58 5 58 38v454c0 23 -22 28 -58 28h-102c-29 0 -51 -3 -51 -26c0 -260 -32 -451 -97 -494z" />
    <glyph glyph-name="uni0415" unicode="&#x415;" 
d="M512 122h50c-16 -32 -24 -67 -32 -99c-4 -15 -17 -23 -30 -23h-465v42c38 8 58 17 58 46v446c0 30 -20 38 -58 47v40h455c13 0 17 -3 17 -18v-107h-42l-15 33c-13 28 -37 36 -80 36h-164v-221h171c33 0 38 17 51 49h25v-153h-25c-13 31 -18 50 -51 50h-171v-235l213 2
c40 0 49 9 67 32z" />
    <glyph glyph-name="uni0400" unicode="&#x400;" 
d="M352 744l-107 112c-22 24 -49 29 -69 4c-22 -27 -10 -56 18 -72l136 -77c10 -6 21 -6 28 3c8 10 4 20 -6 30zM512 122h50c-16 -32 -24 -67 -32 -99c-4 -15 -17 -23 -30 -23h-465v42c38 8 58 17 58 46v446c0 30 -20 38 -58 47v40h455c13 0 17 -3 17 -18v-107h-42l-15 33
c-13 28 -37 36 -80 36h-164v-221h171c33 0 38 17 51 49h25v-153h-25c-13 31 -18 50 -51 50h-171v-235l213 2c40 0 49 9 67 32z" />
    <glyph glyph-name="uni0401" unicode="&#x401;" 
d="M179 726c-36 0 -65 30 -65 65s29 65 65 65c35 0 64 -30 64 -65s-29 -65 -64 -65zM390 726c-35 0 -65 30 -65 65s30 65 65 65s65 -30 65 -65s-30 -65 -65 -65zM512 122h50c-16 -32 -24 -67 -32 -99c-4 -15 -17 -23 -30 -23h-465v42c38 8 58 17 58 46v446
c0 30 -20 38 -58 47v40h455c13 0 17 -3 17 -18v-107h-42l-15 33c-13 28 -37 36 -80 36h-164v-221h171c33 0 38 17 51 49h25v-153h-25c-13 31 -18 50 -51 50h-171v-235l213 2c40 0 49 9 67 32z" />
    <glyph glyph-name="uni0416" unicode="&#x416;" horiz-adv-x="997" 
d="M642 346l195 -218c59 -65 78 -82 125 -87v-41h-248v41c28 5 49 19 27 44l-179 201h-9v-203c0 -23 23 -37 67 -42v-41h-243v41c44 5 68 19 68 42v203h-9l-181 -201c-22 -25 0 -39 28 -44v-41h-248v41c48 5 66 22 125 87l195 218l-157 195c-25 31 -44 5 -79 -17
c-34 -22 -67 11 -67 45c0 33 30 52 92 52c51 0 89 -34 121 -76l124 -164c23 -30 42 -39 56 -41v198c0 27 -24 36 -68 42v41h243v-41c-44 -6 -67 -15 -67 -42v-198c14 2 33 12 55 41l124 164c32 42 70 76 122 76c61 0 92 -19 92 -52c0 -34 -33 -67 -67 -45
c-36 22 -55 48 -80 17z" />
    <glyph glyph-name="uni0417" unicode="&#x417;" horiz-adv-x="622" 
d="M436 364c62 7 140 -53 140 -158c0 -131 -121 -218 -260 -218c-165 0 -265 83 -265 184c0 41 18 55 47 55c46 0 38 -34 62 -93c26 -64 73 -98 158 -98c80 0 147 50 147 151c0 79 -52 125 -108 125c-12 0 -26 -2 -38 -6l-41 -14l-17 43l43 17c75 30 114 72 114 136
c0 63 -40 98 -107 98c-66 0 -126 -32 -159 -116c-7 -18 -11 -30 -14 -39c-4 -11 -12 -13 -23 -11l-47 11l11 190h32c11 0 17 -6 19 -17c4 -22 12 -43 27 -43c34 40 76 76 162 76c138 0 206 -80 206 -146c0 -62 -39 -108 -89 -127z" />
    <glyph glyph-name="uni0418" unicode="&#x418;" horiz-adv-x="709" 
d="M665 621v-40c-37 -9 -59 -17 -59 -47v-449c0 -29 22 -38 59 -47v-38h-229v38c38 9 60 18 60 47v348l-286 -317v-31c0 -29 22 -38 59 -47v-38h-229v38c38 9 60 18 60 47v449c0 30 -22 38 -60 47v40h229v-40c-37 -9 -59 -17 -59 -47v-341l286 317v24c0 30 -22 38 -60 47v40
h229z" />
    <glyph glyph-name="uni0419" unicode="&#x419;" horiz-adv-x="709" 
d="M360 719c-80 0 -137 56 -141 131c0 8 5 11 10 11h27c7 0 10 -3 11 -11c4 -29 38 -55 93 -55c56 0 89 26 93 55c1 8 4 11 11 11h27c5 0 10 -3 10 -11c-4 -75 -61 -131 -141 -131zM665 621v-40c-37 -9 -59 -17 -59 -47v-449c0 -29 22 -38 59 -47v-38h-229v38
c38 9 60 18 60 47v348l-286 -317v-31c0 -29 22 -38 59 -47v-38h-229v38c38 9 60 18 60 47v449c0 30 -22 38 -60 47v40h229v-40c-37 -9 -59 -17 -59 -47v-341l286 317v24c0 30 -22 38 -60 47v40h229z" />
    <glyph glyph-name="uni040D" unicode="&#x40d;" horiz-adv-x="709" 
d="M404 711l-136 77c-28 16 -40 45 -18 72c20 25 47 20 69 -4l107 -112c10 -10 14 -20 6 -30c-7 -9 -18 -9 -28 -3zM665 621v-40c-37 -9 -59 -17 -59 -47v-449c0 -29 22 -38 59 -47v-38h-229v38c38 9 60 18 60 47v348l-286 -317v-31c0 -29 22 -38 59 -47v-38h-229v38
c38 9 60 18 60 47v449c0 30 -22 38 -60 47v40h229v-40c-37 -9 -59 -17 -59 -47v-341l286 317v24c0 30 -22 38 -60 47v40h229z" />
    <glyph glyph-name="uni041A" unicode="&#x41a;" horiz-adv-x="666" 
d="M311 346l195 -218c59 -65 78 -82 125 -87v-41h-248v41c28 5 50 19 27 44l-179 201h-36v-203c0 -23 24 -37 68 -42v-41h-243v41c44 5 68 19 68 42v455c0 27 -24 36 -68 42v41h243v-41c-44 -6 -68 -15 -68 -42v-199h18c15 0 37 6 64 42l124 164c32 42 70 76 121 76
c62 0 93 -18 93 -52s-34 -67 -68 -45c-35 22 -55 47 -79 17z" />
    <glyph glyph-name="uni041B" unicode="&#x41b;" horiz-adv-x="683" 
d="M641 621v-40c-37 -9 -60 -17 -60 -47v-449c0 -29 23 -38 60 -47v-38h-229v38c37 9 59 18 59 47v449c0 30 -18 41 -54 41h-173v-298c0 -117 14 -288 -124 -288c-51 0 -86 13 -97 50c-7 26 -1 53 22 64c23 12 54 6 59 -13c7 -28 -3 -61 29 -58c63 6 59 97 59 223l-1 292
c0 23 -9 28 -34 28h-65v46h549z" />
    <glyph glyph-name="uni041C" unicode="&#x41c;" horiz-adv-x="857" 
d="M817 621v-39c-38 -8 -56 -23 -56 -53v-443c0 -30 18 -39 56 -48v-38h-224v38c36 9 58 18 58 48v396l-210 -427c-13 -26 -39 -26 -54 0l-235 412v-381c0 -30 22 -39 59 -48v-38h-181v38c38 9 59 18 59 48v443c0 30 -21 45 -59 53v39h165l244 -440l221 440h157z" />
    <glyph glyph-name="uni041D" unicode="&#x41d;" horiz-adv-x="702" 
d="M668 621v-40c-37 -9 -58 -17 -58 -47v-449c0 -29 21 -38 58 -47v-38h-229v38c37 9 58 18 58 47v202h-294v-202c0 -29 21 -38 58 -47v-38h-229v38c37 9 58 18 58 47v449c0 30 -21 38 -58 47v40h229v-40c-37 -9 -58 -17 -58 -47v-192h294v192c0 30 -21 38 -58 47v40h229z
" />
    <glyph glyph-name="uni041E" unicode="&#x41e;" horiz-adv-x="675" 
d="M645 316c0 -189 -135 -331 -307 -331c-174 0 -308 134 -308 331c0 189 134 321 308 321c172 0 307 -136 307 -321zM341 49c101 0 181 40 181 237c0 183 -90 296 -184 296c-110 0 -185 -53 -185 -236c0 -180 95 -297 188 -297z" />
    <glyph glyph-name="uni041F" unicode="&#x41f;" horiz-adv-x="709" 
d="M665 621v-40c-37 -9 -59 -17 -59 -47v-449c0 -29 22 -38 59 -47v-38h-229v38c38 9 60 18 60 47v449c0 24 -15 34 -41 42h-205c-25 -8 -40 -18 -40 -42v-449c0 -29 22 -38 59 -47v-38h-229v38c38 9 60 18 60 47v449c0 30 -22 38 -60 47v40h625z" />
    <glyph glyph-name="uni0420" unicode="&#x420;" horiz-adv-x="589" 
d="M25 621h287c153 0 252 -72 252 -191c0 -118 -102 -194 -265 -194h-104v-151c0 -29 22 -38 59 -47v-38h-229v38c38 9 60 18 60 47v449c0 30 -22 38 -60 47v40zM195 284h118c102 0 134 62 134 146c0 87 -34 146 -121 146h-131v-292z" />
    <glyph glyph-name="uni0421" unicode="&#x421;" horiz-adv-x="640" 
d="M593 430l-43 -15c-11 -4 -19 0 -23 11c-3 9 -8 21 -14 36c-37 90 -102 121 -169 121c-102 0 -189 -77 -189 -247c0 -167 100 -286 211 -286c74 0 118 35 153 83c16 23 22 39 36 40c11 0 35 -15 38 -26c3 -10 -3 -21 -13 -39c-40 -68 -114 -123 -238 -123
c-163 0 -310 134 -310 336c0 183 133 316 294 316c89 0 143 -36 181 -82c17 0 25 23 29 49c2 11 8 17 19 17h27z" />
    <glyph glyph-name="uni0422" unicode="&#x422;" 
d="M564 597l8 -96h-33l-15 33c-9 18 -24 32 -47 32h-123v-481c0 -29 22 -38 60 -47v-38h-230v38c37 9 59 18 59 47v481h-123c-23 0 -38 -14 -47 -32l-15 -33h-33l8 96c1 15 10 24 23 24h485c13 0 22 -9 23 -24z" />
    <glyph glyph-name="uni0423" unicode="&#x423;" horiz-adv-x="672" 
d="M657 621v-38c-41 -6 -47 -22 -68 -60l-193 -359c-71 -129 -98 -179 -178 -179c-65 0 -110 20 -122 60c-11 36 11 66 45 66c63 0 35 -67 86 -67c43 0 56 36 83 92l-209 362c-37 64 -43 79 -86 85v38h221v-38c-34 -6 -52 -17 -43 -34l180 -319l160 309c13 25 -18 38 -56 44
v38h180z" />
    <glyph glyph-name="uni040E" unicode="&#x40e;" horiz-adv-x="672" 
d="M358 719c-80 0 -137 56 -141 131c0 8 5 11 10 11h27c7 0 10 -3 11 -11c4 -29 38 -55 93 -55c56 0 89 26 93 55c1 8 4 11 11 11h27c5 0 10 -3 10 -11c-4 -75 -61 -131 -141 -131zM657 621v-38c-41 -6 -47 -22 -68 -60l-193 -359c-71 -129 -98 -179 -178 -179
c-65 0 -110 20 -122 60c-11 36 11 66 45 66c63 0 35 -67 86 -67c43 0 56 36 83 92l-209 362c-37 64 -43 79 -86 85v38h221v-38c-34 -6 -52 -17 -43 -34l180 -319l160 309c13 25 -18 38 -56 44v38h180z" />
    <glyph glyph-name="uni0424" unicode="&#x424;" horiz-adv-x="779" 
d="M483 94h-40v-9c0 -29 22 -38 59 -47v-38h-229v38c37 9 60 18 60 47v9h-37c-155 0 -251 93 -251 217c0 123 100 216 250 216h38v7c0 30 -23 38 -60 47v40h229v-40c-37 -9 -59 -17 -59 -47v-7h41c150 0 250 -93 250 -216c0 -124 -96 -217 -251 -217zM301 138h32v346h-36
c-90 0 -136 -87 -136 -173c0 -88 41 -173 140 -173zM482 484h-39v-346h35c99 0 140 85 140 173c0 86 -46 173 -136 173z" />
    <glyph glyph-name="uni0425" unicode="&#x425;" horiz-adv-x="687" 
d="M390 331l166 -205c45 -56 57 -79 102 -83v-43h-229v43c29 4 54 15 41 32l-163 199l-144 -189c-17 -22 4 -38 43 -42v-43h-185v43c43 4 60 23 87 58l166 214l-149 183c-43 53 -57 77 -102 82v41h230v-41c-29 -5 -52 -17 -41 -31l146 -179l129 169c15 20 -12 36 -52 41v41
h189v-41c-43 -5 -64 -26 -88 -57z" />
    <glyph glyph-name="uni0427" unicode="&#x427;" horiz-adv-x="656" 
d="M614 621v-40c-37 -9 -59 -17 -59 -47v-449c0 -29 22 -38 59 -47v-38h-229v38c37 9 60 18 60 47v216c-22 -35 -75 -104 -174 -104c-107 0 -186 41 -186 178v151c0 33 -9 57 -60 45l13 50h207v-46c-36 0 -58 -5 -58 -28v-158c0 -71 31 -123 100 -123c73 0 138 62 157 84
v194c-5 22 -26 29 -59 37v40h229z" />
    <glyph glyph-name="uni0426" unicode="&#x426;" horiz-adv-x="749" 
d="M696 45c8 0 11 -4 11 -12l-24 -198h-35c-7 0 -11 4 -11 11c0 108 24 154 -199 154h-398v38c38 9 60 18 60 47v449c0 30 -22 38 -60 47v40h229v-40c-37 -9 -59 -17 -59 -47v-449c0 -22 12 -32 34 -40h197c10 0 19 1 27 2c18 8 28 18 28 38v449c0 30 -22 38 -60 47v40h229
v-40c-37 -9 -59 -17 -59 -47v-360h1v-87c0 -31 28 -41 89 -42z" />
    <glyph glyph-name="uni0428" unicode="&#x428;" horiz-adv-x="934" 
d="M890 621v-40c-37 -9 -59 -17 -59 -47v-449c0 -29 22 -38 59 -47v-38h-850v38c38 9 60 18 60 47v449c0 30 -22 38 -60 47v40h229v-40c-37 -9 -59 -17 -59 -47v-449c0 -22 12 -32 34 -40h132c22 8 34 18 34 40v449c0 30 -22 38 -59 47v40h229v-40c-38 -9 -60 -17 -60 -47
v-449c0 -22 12 -32 35 -40h131c23 8 35 18 35 40v449c0 30 -22 38 -60 47v40h229z" />
    <glyph glyph-name="uni0429" unicode="&#x429;" horiz-adv-x="964" 
d="M913 45c8 0 12 -4 11 -12l-24 -198h-34c-7 0 -11 4 -11 11c0 108 24 154 -196 154h-623v38c38 9 60 18 60 47v449c0 30 -22 38 -60 47v40h230v-40c-38 -9 -60 -17 -60 -47v-449c0 -22 12 -32 35 -40h131c22 8 34 18 34 40v449c0 30 -22 38 -59 47v40h229v-40
c-37 -9 -60 -17 -60 -47v-449c0 -22 13 -32 35 -40h111c10 0 19 1 27 2c18 8 28 18 28 38v449c0 30 -22 38 -60 47v40h230v-40c-38 -9 -60 -17 -60 -47v-449c0 -8 2 -14 5 -20c11 -14 38 -19 81 -20z" />
    <glyph glyph-name="uni042F" unicode="&#x42f;" horiz-adv-x="669" 
d="M25 43h23c49 5 75 67 94 125c20 65 56 112 143 124c-120 16 -176 83 -176 159c0 99 89 170 231 170h294v-38c-37 -9 -58 -24 -58 -53v-445c0 -29 21 -38 58 -47v-38h-227v38c37 9 59 18 59 47v190h-68c-71 0 -101 -30 -127 -114c-31 -101 -80 -141 -129 -161h-117v43z
M339 326h127v250h-135c-75 0 -105 -59 -105 -125c0 -63 25 -125 113 -125z" />
    <glyph glyph-name="uni042C" unicode="&#x42c;" horiz-adv-x="598" 
d="M210 381h121c135 0 239 -72 239 -190c0 -119 -99 -191 -248 -191h-282v38c38 9 60 18 60 47v449c0 30 -22 38 -60 47v40h229v-40c-37 -9 -59 -17 -59 -47v-153zM244 45h88c87 0 121 63 121 146c0 81 -34 147 -124 147h-119v-253c0 -22 12 -32 34 -40z" />
    <glyph glyph-name="uni042A" unicode="&#x42a;" horiz-adv-x="695" 
d="M310 381h122c134 0 238 -72 238 -190c0 -119 -99 -191 -247 -191h-282v38c37 9 59 18 59 47v449c0 20 -9 30 -26 37l-39 -1c-43 -1 -63 -6 -77 -34l-16 -33l-42 2l24 93c4 15 17 23 30 23h316v-40c-37 -9 -60 -17 -60 -47v-153zM345 45h88c87 0 121 63 121 146
c0 81 -34 147 -125 147h-119v-253c0 -22 13 -32 35 -40z" />
    <glyph glyph-name="uni042B" unicode="&#x42b;" horiz-adv-x="883" 
d="M210 381h121c135 0 239 -72 239 -190c0 -119 -99 -191 -248 -191h-282v38c38 9 60 18 60 47v449c0 30 -22 38 -60 47v40h229v-40c-37 -9 -59 -17 -59 -47v-153zM839 621v-40c-37 -9 -59 -17 -59 -47v-449c0 -29 22 -38 59 -47v-38h-229v38c38 9 60 18 60 47v449
c0 30 -22 38 -60 47v40h229zM244 45h88c87 0 121 63 121 146c0 81 -34 147 -124 147h-119v-253c0 -22 12 -32 34 -40z" />
    <glyph glyph-name="uni0405" unicode="&#x405;" horiz-adv-x="562" 
d="M504 439l-43 -7c-13 -2 -21 1 -24 12l-11 40c-14 55 -83 101 -153 101c-79 0 -125 -56 -118 -114c8 -60 69 -79 139 -101c62 -19 223 -54 237 -187c15 -137 -127 -198 -238 -198c-109 0 -144 55 -206 34l-52 157l41 14c15 6 24 2 32 -13c7 -13 15 -27 22 -41
c29 -58 84 -91 162 -91c70 0 136 24 128 101c-7 73 -86 92 -162 115c-73 23 -187 61 -202 179c-14 102 69 198 217 198c128 0 157 -60 218 -72z" />
    <glyph glyph-name="uni0404" unicode="&#x404;" horiz-adv-x="640" 
d="M593 147c3 -10 -3 -21 -13 -39c-40 -68 -114 -123 -238 -123c-163 0 -310 134 -310 336c0 183 133 316 294 316c89 0 143 -36 181 -82c17 0 25 23 29 49c2 11 8 17 19 17h27l11 -191l-43 -15c-11 -4 -19 0 -23 11c-3 9 -8 21 -14 36c-37 90 -102 121 -169 121
c-100 0 -186 -75 -189 -239h232v-56h-229c17 -141 108 -238 208 -238c74 0 118 35 153 83c16 23 22 39 36 40c11 0 35 -15 38 -26z" />
    <glyph glyph-name="uni042D" unicode="&#x42d;" horiz-adv-x="640" 
d="M314 637c162 0 294 -133 294 -316c0 -202 -147 -336 -309 -336c-125 0 -199 55 -239 123c-10 18 -16 29 -13 39c3 11 27 26 38 26c14 -1 20 -17 36 -40c35 -48 79 -83 153 -83c100 0 191 97 208 238h-229v56h232c-3 164 -89 239 -189 239c-67 0 -132 -31 -168 -121
c-6 -15 -11 -27 -14 -36c-4 -11 -12 -15 -23 -11l-44 15l11 191h27c11 0 17 -6 19 -17c4 -26 12 -49 29 -49c38 46 92 82 181 82z" />
    <glyph glyph-name="uni0406" unicode="&#x406;" horiz-adv-x="311" 
d="M210 534v-449c0 -29 22 -38 59 -47v-38h-229v38c38 9 60 18 60 47v449c0 30 -22 38 -60 47v40h229v-40c-37 -9 -59 -17 -59 -47z" />
    <glyph glyph-name="uni0407" unicode="&#x407;" horiz-adv-x="311" 
d="M46 726c-36 0 -65 30 -65 65s29 65 65 65c35 0 64 -30 64 -65s-29 -65 -64 -65zM257 726c-35 0 -65 30 -65 65s30 65 65 65s65 -30 65 -65s-30 -65 -65 -65zM210 534v-449c0 -29 22 -38 59 -47v-38h-229v38c38 9 60 18 60 47v449c0 30 -22 38 -60 47v40h229v-40
c-37 -9 -59 -17 -59 -47z" />
    <glyph glyph-name="uni0408" unicode="&#x408;" horiz-adv-x="373" 
d="M333 621v-40c-38 -9 -60 -17 -60 -47v-545c0 -115 -56 -156 -151 -156c-79 0 -127 44 -127 92c0 40 21 59 57 59s46 -25 46 -51c0 -25 8 -53 33 -53c22 0 32 21 32 54v600c0 30 -22 38 -59 47v40h229z" />
    <glyph glyph-name="uni042E" unicode="&#x42e;" horiz-adv-x="961" 
d="M624 637c172 0 307 -136 307 -321c0 -189 -135 -331 -307 -331c-165 0 -294 121 -306 303h-108v-203c0 -29 22 -38 59 -47v-38h-229v38c38 9 60 18 60 47v449c0 30 -22 38 -60 47v40h229v-40c-37 -9 -59 -17 -59 -47v-190h108c13 174 142 293 306 293zM628 49
c101 0 180 40 180 237c0 183 -90 296 -184 296c-109 0 -185 -53 -185 -236c0 -180 95 -297 189 -297z" />
    <glyph glyph-name="uni0430" unicode="&#x430;" horiz-adv-x="489" 
d="M413 287v-193c0 -33 17 -42 56 -36v-41c-36 -15 -65 -23 -88 -23c-31 0 -58 31 -64 98c-21 -48 -63 -101 -139 -102c-81 -1 -156 42 -156 127c0 81 52 134 291 169v17c0 74 -22 112 -80 112c-54 0 -80 -14 -80 -77c0 -21 -30 -32 -58 -32c-29 0 -47 21 -48 47
c0 71 92 107 190 107c108 0 176 -51 176 -173zM200 52c68 0 97 64 113 101v88c-170 -29 -184 -78 -184 -119c0 -39 28 -70 71 -70z" />
    <glyph glyph-name="uni0431" unicode="&#x431;" horiz-adv-x="518" 
d="M261 458c115 0 224 -85 224 -228c0 -148 -109 -240 -222 -240c-101 0 -198 70 -228 233c-37 198 25 398 219 398h118c25 0 34 13 51 19h30c-22 -86 -68 -109 -114 -109h-106c-111 0 -143 -60 -161 -179c41 68 114 106 189 106zM272 49c67 0 108 41 108 151
c0 128 -56 205 -129 205c-66 0 -107 -43 -107 -152c0 -125 56 -204 128 -204z" />
    <glyph glyph-name="uni0432" unicode="&#x432;" horiz-adv-x="502" 
d="M342 243c76 -13 122 -57 122 -115c0 -85 -65 -132 -182 -128l-56 2c-76 5 -139 4 -201 -2v43c43 7 57 18 57 35v305c0 16 -18 31 -57 31v37h230c113 0 185 -33 185 -108c0 -39 -34 -83 -98 -100zM180 414v-151h113c29 0 46 28 46 73s-23 78 -87 78h-72zM201 49l69 -1
c57 -1 94 23 94 80c0 64 -38 97 -144 97h-40v-146c0 -16 6 -30 21 -30z" />
    <glyph glyph-name="uni0433" unicode="&#x433;" horiz-adv-x="462" 
d="M413 428l24 -93l-42 -2l-16 33c-14 28 -37 46 -80 46h-67c-36 0 -58 0 -58 -24v-311c0 -23 22 -28 68 -33v-44h-227v44c36 5 58 10 58 33v310c0 23 -22 28 -58 28v36h368c13 0 26 -8 30 -23z" />
    <glyph glyph-name="uni0453" unicode="&#x453;" horiz-adv-x="462" 
d="M318 618l-136 -77c-10 -6 -21 -6 -28 3c-7 10 -4 20 6 30l107 112c23 24 49 29 69 4c22 -27 10 -56 -18 -72zM413 428l24 -93l-42 -2l-16 33c-14 28 -37 46 -80 46h-67c-36 0 -58 0 -58 -24v-311c0 -23 22 -28 68 -33v-44h-227v44c36 5 58 10 58 33v310
c0 23 -22 28 -58 28v36h368c13 0 26 -8 30 -23z" />
    <glyph glyph-name="uni0491" unicode="&#x491;" horiz-adv-x="420" 
d="M353 525h42v-81c0 -20 -19 -32 -37 -32l-153 -1c-20 -1 -31 -6 -31 -23v-311c0 -23 22 -28 68 -33v-44h-227v44c36 5 58 10 58 33v310c0 23 -22 28 -58 28v36h242c43 0 66 13 80 41z" />
    <glyph glyph-name="uni0434" unicode="&#x434;" horiz-adv-x="631" 
d="M592 451v-36c-49 0 -79 -5 -79 -28v-305c0 -31 20 -37 72 -38c8 0 12 -4 11 -12l-24 -167h-30c-7 0 -11 4 -11 11c0 78 21 124 -180 124h-86c-183 0 -191 -46 -191 -124c0 -7 -4 -11 -11 -11h-28v169c0 6 3 10 10 11c118 20 141 186 141 341c0 23 -20 29 -79 29v36h485z
M141 44h213c36 0 58 5 58 38v302c0 23 -10 29 -36 29h-106c-24 0 -31 -4 -31 -27c0 -177 -31 -302 -98 -342z" />
    <glyph glyph-name="uni0435" unicode="&#x435;" horiz-adv-x="481" 
d="M451 272c0 -38 -19 -61 -56 -61h-257c0 -93 55 -162 136 -162c64 0 100 35 124 64l35 -38c-25 -33 -72 -85 -174 -85c-127 0 -229 99 -229 238c0 147 104 230 217 230c107 0 204 -78 204 -186zM138 264h211c1 88 -32 142 -102 142s-109 -54 -109 -142z" />
    <glyph glyph-name="uni0450" unicode="&#x450;" horiz-adv-x="481" 
d="M310 574l-107 112c-22 24 -49 29 -69 4c-22 -27 -10 -56 18 -72l136 -77c10 -6 21 -6 28 3c8 10 4 20 -6 30zM451 272c0 -38 -19 -61 -56 -61h-257c0 -93 55 -162 136 -162c64 0 100 35 124 64l35 -38c-25 -33 -72 -85 -174 -85c-127 0 -229 99 -229 238
c0 147 104 230 217 230c107 0 204 -78 204 -186zM138 264h211c1 88 -32 142 -102 142s-109 -54 -109 -142z" />
    <glyph glyph-name="uni0451" unicode="&#x451;" horiz-adv-x="481" 
d="M137 556c-36 0 -65 30 -65 65s29 65 65 65c35 0 64 -30 64 -65s-29 -65 -64 -65zM348 556c-35 0 -65 30 -65 65s30 65 65 65s65 -30 65 -65s-30 -65 -65 -65zM451 272c0 -38 -19 -61 -56 -61h-257c0 -93 55 -162 136 -162c64 0 100 35 124 64l35 -38
c-25 -33 -72 -85 -174 -85c-127 0 -229 99 -229 238c0 147 104 230 217 230c107 0 204 -78 204 -186zM138 264h211c1 88 -32 142 -102 142s-109 -54 -109 -142z" />
    <glyph glyph-name="uni0436" unicode="&#x436;" horiz-adv-x="771" 
d="M516 247l134 -154c43 -50 62 -55 86 -59v-34h-183v34c22 4 37 8 29 17l-126 150h-24v-134c0 -23 22 -28 47 -33v-34h-186v34c25 5 48 10 48 33v134h-25l-127 -150c-8 -9 7 -13 29 -17v-34h-183v34c24 4 43 9 86 59l134 154l-97 141c-10 14 -23 3 -50 -14
c-28 -19 -60 6 -60 35s29 43 64 43c45 0 73 -23 93 -53l84 -125c17 -26 34 -28 43 -28h9v139c0 23 -23 28 -48 33v33h186v-33c-25 -5 -47 -10 -47 -33v-139h8c9 0 26 2 43 28l84 125c20 30 48 53 93 53c35 0 63 -14 63 -43s-31 -54 -59 -35c-27 17 -40 28 -50 14z" />
    <glyph glyph-name="uni0437" unicode="&#x437;" horiz-adv-x="472" 
d="M330 268c48 -8 97 -50 97 -119c0 -93 -99 -157 -196 -157c-123 0 -185 65 -186 133c0 30 16 42 44 42c45 0 33 -31 49 -69s46 -56 94 -56c52 0 97 30 97 93c0 59 -32 87 -62 87c-10 0 -22 -1 -36 -6l-28 -11l-16 42l35 14c50 20 76 47 76 88c0 37 -21 65 -68 65
c-52 0 -92 -28 -108 -78c-7 -21 -12 -42 -33 -37l-41 10l8 140h30c28 0 14 -34 31 -43c23 28 58 54 120 54c97 0 154 -59 154 -107c0 -40 -26 -70 -61 -85z" />
    <glyph glyph-name="uni0438" unicode="&#x438;" horiz-adv-x="601" 
d="M559 451v-34c-25 -5 -47 -10 -47 -33v-315c0 -23 22 -28 47 -33v-36h-190v36c25 5 48 10 48 33v249l-232 -234v-15c0 -23 22 -28 47 -33v-36h-190v36c25 5 48 10 48 33v315c0 23 -23 28 -48 33v34h190v-34c-25 -5 -47 -10 -47 -33v-242l232 238v4c0 23 -23 28 -48 33v34
h190z" />
    <glyph glyph-name="uni0439" unicode="&#x439;" horiz-adv-x="601" 
d="M313 549c-80 0 -137 56 -141 131c0 8 5 11 10 11h27c7 0 10 -3 11 -11c4 -29 38 -55 93 -55c56 0 89 26 93 55c1 8 4 11 11 11h27c5 0 10 -3 10 -11c-4 -75 -61 -131 -141 -131zM559 451v-34c-25 -5 -47 -10 -47 -33v-315c0 -23 22 -28 47 -33v-36h-190v36
c25 5 48 10 48 33v249l-232 -234v-15c0 -23 22 -28 47 -33v-36h-190v36c25 5 48 10 48 33v315c0 23 -23 28 -48 33v34h190v-34c-25 -5 -47 -10 -47 -33v-242l232 238v4c0 23 -23 28 -48 33v34h190z" />
    <glyph glyph-name="uni043A" unicode="&#x43a;" horiz-adv-x="507" 
d="M254 247l142 -154c45 -47 62 -56 86 -60v-33h-183v33c22 4 37 9 29 18l-133 150h-32v-132c0 -23 22 -28 47 -33v-36h-190v36c25 5 48 10 48 33v315c0 23 -23 28 -48 33v34h190v-35c-35 -7 -47 -10 -47 -33v-137h16c9 0 25 3 43 28l91 125c21 29 48 53 86 53
c42 0 70 -14 70 -43s-31 -54 -59 -35c-27 17 -40 27 -50 14z" />
    <glyph glyph-name="uni043B" unicode="&#x43b;" horiz-adv-x="605" 
d="M563 451v-34c-43 -4 -66 -9 -66 -33v-310c0 -26 27 -30 66 -38v-36h-226v36c36 8 58 12 58 38v310c0 24 -13 31 -38 31h-113v-144c0 -117 12 -282 -121 -282c-53 0 -89 13 -100 50c-8 27 -1 53 23 65s53 5 58 -14c7 -28 -3 -65 29 -62c63 6 60 95 59 221l-1 136
c0 23 -20 30 -85 30v36h457z" />
    <glyph glyph-name="uni043C" unicode="&#x43c;" horiz-adv-x="641" 
d="M601 451v-31c-26 -7 -35 -14 -35 -38v-314c0 -23 7 -24 35 -32v-36h-164v36c29 9 38 10 38 32v256l-141 -274c-12 -22 -40 -22 -53 0l-162 274v-256c0 -22 10 -23 41 -32v-36h-130v36c28 8 38 9 38 32v314c0 24 -12 31 -38 38v31h133c53 -108 105 -203 167 -299l151 299
h120z" />
    <glyph glyph-name="uni043D" unicode="&#x43d;" horiz-adv-x="581" 
d="M549 451v-34c-25 -5 -47 -10 -47 -33v-315c0 -23 22 -28 47 -33v-36h-190v36c25 5 48 10 48 33v135h-232v-135c0 -23 22 -28 47 -33v-36h-190v36c25 5 48 10 48 33v315c0 23 -23 28 -48 33v34h190v-34c-25 -5 -47 -10 -47 -33v-132h232v132c0 23 -23 28 -48 33v34h190z
" />
    <glyph glyph-name="uni043E" unicode="&#x43e;" horiz-adv-x="507" 
d="M253 458c115 0 224 -85 224 -228c0 -148 -109 -240 -222 -240c-115 0 -225 92 -225 232c0 151 110 236 223 236zM372 200c0 128 -56 205 -129 205c-67 0 -107 -43 -107 -152c0 -125 56 -204 128 -204c67 0 108 41 108 151z" />
    <glyph glyph-name="uni043F" unicode="&#x43f;" horiz-adv-x="601" 
d="M559 451v-34c-25 -5 -47 -10 -47 -33v-315c0 -23 22 -28 47 -33v-36h-190v36c25 5 48 10 48 33v314c0 20 -9 29 -28 32h-177c-18 -3 -27 -12 -27 -32v-314c0 -23 22 -28 47 -33v-36h-190v36c25 5 48 10 48 33v315c0 23 -23 28 -48 33v34h517z" />
    <glyph glyph-name="uni0440" unicode="&#x440;" horiz-adv-x="537" 
d="M322 459c107 0 186 -83 186 -232c0 -150 -96 -233 -193 -233c-70 0 -116 41 -136 75v-191c0 -23 16 -28 50 -28v-34h-197v34c32 0 47 5 47 28v485c0 33 -21 44 -59 39v41l132 17c36 4 36 -36 22 -79c23 25 71 78 148 78zM305 48c60 0 99 53 99 166c0 95 -33 176 -98 176
c-66 0 -99 -28 -127 -56v-188c19 -53 61 -98 126 -98z" />
    <glyph glyph-name="uni0441" unicode="&#x441;" horiz-adv-x="474" 
d="M403 107l23 -21c-19 -37 -73 -94 -186 -94c-111 0 -215 92 -215 232c0 151 106 236 219 236c117 0 183 -64 183 -125c0 -24 -15 -45 -49 -45s-52 17 -52 39c0 45 1 78 -70 78c-90 0 -124 -48 -124 -164c0 -103 54 -193 142 -192c60 0 75 24 101 52c8 8 16 15 28 4z" />
    <glyph glyph-name="uni0442" unicode="&#x442;" horiz-adv-x="494" 
d="M467 428l7 -82h-32l-16 33c-9 18 -23 33 -46 33h-85v-343c0 -23 22 -28 47 -33v-36h-190v36c25 5 48 10 48 33v343h-85c-23 0 -37 -15 -46 -33l-16 -33h-33l7 82c1 15 9 23 22 23h396c13 0 21 -8 22 -23z" />
    <glyph glyph-name="uni0443" unicode="&#x443;" horiz-adv-x="553" 
d="M533 451v-32l-14 -6c-18 -8 -35 -11 -42 -27l-203 -470c-35 -80 -67 -131 -141 -131c-62 0 -101 21 -110 60c-8 40 7 68 52 68c66 0 26 -72 73 -72c26 0 42 41 57 73l43 97l-186 375c-9 18 -18 22 -33 27l-18 6v32h207v-32l-25 -5c-16 -3 -30 -11 -22 -28l129 -274
l111 274c6 15 -8 25 -23 28l-28 5v32h173z" />
    <glyph glyph-name="uni045E" unicode="&#x45e;" horiz-adv-x="553" 
d="M286 549c-80 0 -137 56 -141 131c0 8 5 11 10 11h27c7 0 10 -3 11 -11c4 -29 38 -55 93 -55c56 0 89 26 93 55c1 8 4 11 11 11h27c5 0 10 -3 10 -11c-4 -75 -61 -131 -141 -131zM533 451v-32l-14 -6c-18 -8 -35 -11 -42 -27l-203 -470c-35 -80 -67 -131 -141 -131
c-62 0 -101 21 -110 60c-8 40 7 68 52 68c66 0 26 -72 73 -72c26 0 42 41 57 73l43 97l-186 375c-9 18 -18 22 -33 27l-18 6v32h207v-32l-25 -5c-16 -3 -30 -11 -22 -28l129 -274l111 274c6 15 -8 25 -23 28l-28 5v32h173z" />
    <glyph glyph-name="uni0444" unicode="&#x444;" horiz-adv-x="717" 
d="M524 457c85 0 165 -95 165 -228c0 -153 -77 -235 -166 -235c-67 0 -100 61 -114 92v-201c0 -23 22 -28 47 -33v-36h-190v36c25 5 48 10 48 33v199c-15 -32 -47 -90 -113 -90c-89 0 -166 82 -166 235c0 133 80 228 165 228c71 0 94 -42 114 -90v192c0 33 -21 44 -59 39v39
l125 19c37 6 29 -30 29 -74v-218c21 49 43 93 115 93zM214 59c51 0 82 42 100 73v187c-27 56 -65 85 -104 85c-42 0 -77 -65 -77 -175c0 -87 34 -170 81 -170zM510 59c46 0 80 83 80 170c0 110 -35 175 -76 175c-40 0 -78 -29 -105 -87v-183c18 -32 49 -75 101 -75z" />
    <glyph glyph-name="uni0445" unicode="&#x445;" horiz-adv-x="569" 
d="M515 47l29 -3v-44h-226v44l29 2c20 2 34 6 16 28l-95 111l-94 -106c-15 -18 -5 -31 13 -33l23 -2v-44h-185v44l29 3c16 2 27 7 50 33l130 144l-125 146c-28 32 -41 35 -62 40l-21 5v36c70 -2 155 -2 225 0v-36l-28 -4c-13 -2 -20 -9 -3 -30l76 -92l79 86
c24 25 9 33 -6 36l-23 4v36c58 -2 125 -2 183 0v-36l-24 -5c-21 -4 -41 -12 -78 -53l-97 -108l141 -171c21 -26 32 -29 44 -31z" />
    <glyph glyph-name="uni0447" unicode="&#x447;" horiz-adv-x="580" 
d="M538 451v-35c-35 -7 -47 -10 -47 -33v-314c0 -23 22 -28 47 -33v-36h-190v36c25 5 48 10 48 33v148c-9 -33 -52 -100 -144 -100c-103 0 -176 36 -176 178v65c0 37 -10 52 -56 57l9 34h202v-34c-36 -5 -58 -8 -58 -33v-85c0 -76 37 -121 95 -121c64 0 113 54 128 78v128
c0 23 -23 28 -48 33v34h190z" />
    <glyph glyph-name="uni0446" unicode="&#x446;" horiz-adv-x="627" 
d="M586 43c8 0 11 -4 11 -12l-24 -166h-30c-7 0 -11 4 -11 11c0 78 21 124 -181 124h-316v36c25 5 48 10 48 33v315c0 23 -23 28 -48 33v34h190v-34c-25 -5 -47 -10 -47 -33v-314c0 -23 22 -32 47 -32h131h13c21 2 38 10 41 30v7v309c0 23 -23 28 -48 33v34h190v-34
c-25 -5 -47 -10 -47 -33v-303c0 -31 20 -37 81 -38z" />
    <glyph glyph-name="uni0448" unicode="&#x448;" horiz-adv-x="790" 
d="M748 451v-34c-25 -2 -47 -7 -47 -30v-320c0 -23 22 -28 47 -30v-37h-706v37c25 2 48 7 48 30v320c0 23 -23 28 -48 30v34h190v-34c-25 -2 -47 -7 -47 -30v-321c0 -23 12 -30 37 -30h88c25 0 38 8 38 31v320c0 23 -23 28 -48 30v34h190v-34c-25 -2 -47 -7 -47 -30v-321
c0 -23 12 -30 37 -30h88c25 0 38 7 38 30v321c0 23 -23 28 -48 30v34h190z" />
    <glyph glyph-name="uni0449" unicode="&#x449;" horiz-adv-x="835" 
d="M782 43c8 0 11 -4 11 -12l-24 -166h-31c-7 0 -11 4 -11 11c0 78 21 124 -181 124h-504v37c25 2 48 7 48 30v320c0 23 -23 28 -48 30v34h190v-34c-25 -2 -47 -7 -47 -30v-321c0 -23 12 -30 37 -30h88c25 0 38 8 38 31v320c0 23 -23 28 -48 30v34h190v-34
c-25 -2 -47 -7 -47 -30v-321c0 -23 12 -30 37 -30h71c36 0 55 5 55 38v313c0 23 -23 28 -48 30v34h190v-34c-25 -2 -47 -7 -47 -30v-306c0 -31 20 -37 81 -38z" />
    <glyph glyph-name="uni044F" unicode="&#x44f;" horiz-adv-x="487" 
d="M457 451v-36c-26 0 -38 -12 -38 -40v-309c0 -22 9 -23 38 -31v-35h-179v35c28 8 42 9 42 31v127h-53c-48 0 -63 -17 -79 -78c-18 -71 -52 -110 -89 -115h-84v37h13c28 0 49 40 57 84c7 39 30 76 89 85c-86 16 -123 57 -123 117c0 77 68 128 172 128h234zM320 233v179
h-103c-46 0 -66 -38 -66 -89c0 -46 14 -90 72 -90h97z" />
    <glyph glyph-name="uni044C" unicode="&#x44c;" horiz-adv-x="520" 
d="M185 341h63c147 0 243 -67 243 -170c0 -104 -96 -171 -242 -171h-207v36c25 5 48 10 48 33v315c0 23 -23 28 -48 33v34h190v-35c-35 -7 -47 -10 -47 -33v-42zM222 37h43c81 0 114 61 114 134c0 71 -33 132 -135 132h-59v-234c0 -23 12 -32 37 -32z" />
    <glyph glyph-name="uni044A" unicode="&#x44a;" horiz-adv-x="608" 
d="M277 341h63c147 0 243 -67 243 -170c0 -104 -96 -171 -242 -171h-207v36c25 5 48 10 48 33v315c0 20 -1 30 -16 32l-35 -1c-40 -1 -63 -9 -77 -37l-16 -32h-38l24 82c5 15 17 23 30 23h223v-110zM314 37h43c81 0 114 61 114 134c0 71 -33 132 -135 132h-59v-234
c0 -23 12 -32 37 -32z" />
    <glyph glyph-name="uni044B" unicode="&#x44b;" horiz-adv-x="779" 
d="M185 341h63c147 0 243 -67 243 -170c0 -104 -96 -171 -242 -171h-207v36c25 5 48 10 48 33v315c0 23 -23 28 -48 33v34h190v-35c-35 -7 -47 -10 -47 -33v-42zM737 451v-35c-35 -7 -47 -10 -47 -33v-314c0 -23 22 -28 47 -33v-36h-190v36c25 5 48 10 48 33v315
c0 23 -23 28 -48 33v34h190zM222 37h43c81 0 114 61 114 134c0 71 -33 132 -135 132h-59v-234c0 -23 12 -32 37 -32z" />
    <glyph glyph-name="uni0455" unicode="&#x455;" horiz-adv-x="449" 
d="M419 124c0 -84 -85 -134 -197 -134c-103 0 -179 51 -186 72c-20 61 -9 88 16 92c47 8 57 -8 59 -26c9 -62 43 -88 111 -88c70 0 100 34 100 70c0 35 -57 60 -115 78c-65 20 -166 60 -166 146c0 72 58 125 180 125c96 0 171 -53 173 -73c6 -69 -10 -83 -31 -84
c-40 -3 -55 10 -51 31c7 44 -26 78 -91 78c-59 0 -87 -30 -87 -62c0 -45 59 -58 109 -74c67 -21 176 -51 176 -151z" />
    <glyph glyph-name="uni0454" unicode="&#x454;" horiz-adv-x="503" 
d="M433 131c29 -17 25 -27 14 -46c-33 -55 -84 -93 -184 -93c-125 0 -231 93 -231 240c0 125 98 228 223 228c64 0 109 -27 134 -58c16 26 -2 46 31 46h29l8 -145l-37 -11c-27 -7 -27 12 -37 37c-26 67 -70 83 -124 83c-64 0 -121 -44 -123 -160h147v-48h-144
c13 -102 75 -161 141 -161c48 0 73 14 98 52c11 18 24 54 55 36z" />
    <glyph glyph-name="uni044D" unicode="&#x44d;" horiz-adv-x="503" 
d="M248 460c125 0 223 -103 223 -228c0 -147 -106 -240 -231 -240c-100 0 -151 38 -184 93c-11 19 -15 29 14 46c32 18 44 -18 55 -36c25 -38 50 -52 98 -52c66 0 128 59 141 161h-144v48h147c-2 116 -59 160 -123 160c-54 0 -98 -16 -124 -83c-10 -25 -10 -44 -37 -37
l-37 11l8 145h29c33 0 15 -20 31 -46c25 31 70 58 134 58z" />
    <glyph glyph-name="uni0456" unicode="&#x456;" horiz-adv-x="268" 
d="M128 547c-33 0 -61 27 -61 62c0 33 28 60 61 60s61 -27 61 -60c0 -35 -28 -62 -61 -62zM185 423v-357c0 -23 17 -28 43 -28v-38h-186v38c27 0 44 5 44 28v303c0 23 -8 31 -28 31h-20v45l115 9c23 2 32 -9 32 -31z" />
    <glyph glyph-name="uni0457" unicode="&#x457;" horiz-adv-x="265" 
d="M8 556c-36 0 -65 30 -65 65s29 65 65 65c35 0 64 -30 64 -65s-29 -65 -64 -65zM219 556c-35 0 -65 30 -65 65s30 65 65 65s65 -30 65 -65s-30 -65 -65 -65zM182 423v-357c0 -23 17 -28 43 -28v-38h-186v38c27 0 44 5 44 28v303c0 23 -8 31 -28 31h-20v45l115 9
c23 2 32 -9 32 -31z" />
    <glyph glyph-name="uni0458" unicode="&#x458;" horiz-adv-x="257" 
d="M136 547c-33 0 -61 27 -61 62c0 33 28 60 61 60s61 -27 61 -60c0 -35 -28 -62 -61 -62zM46 445l115 9c23 2 32 -9 32 -31v-497c0 -68 -30 -106 -80 -127c-69 -29 -137 -7 -158 41c-11 27 -7 60 19 73c28 14 51 1 61 -17c11 -22 18 -70 35 -63c14 6 24 23 24 50v486
c0 23 -8 31 -28 31h-20v45z" />
    <glyph glyph-name="uni044E" unicode="&#x44e;" horiz-adv-x="752" 
d="M498 458c115 0 224 -85 224 -228c0 -148 -109 -240 -222 -240c-111 0 -216 84 -224 214h-91v-135c0 -23 22 -28 47 -33v-36h-190v36c25 5 48 10 48 33v315c0 23 -23 28 -48 33v34h190v-34c-25 -5 -47 -10 -47 -33v-132h91c14 132 116 206 222 206zM509 49
c67 0 107 41 107 151c0 128 -56 205 -129 205c-66 0 -106 -43 -106 -152c0 -125 55 -204 128 -204z" />
    <glyph glyph-name="Delta" unicode="&#x394;" horiz-adv-x="619" 
d="M599 0h-579l286 634zM104 85h354l-176 394z" />
    <glyph glyph-name="Omega" unicode="&#x3a9;" horiz-adv-x="717" 
d="M631 121h46l-28 -98c-5 -15 -17 -23 -30 -23h-190v136c73 7 119 86 119 217c0 146 -76 231 -190 231s-189 -85 -189 -231c0 -131 46 -210 120 -217v-136h-191c-13 0 -26 8 -30 23l-28 98h45l17 -27c16 -27 36 -32 69 -34l61 -3c11 -1 15 4 14 22
c-109 31 -195 137 -195 264c0 151 128 294 307 294c180 0 308 -143 308 -294c0 -118 -86 -232 -196 -264c0 -18 4 -23 15 -22l54 3c39 2 59 7 75 34z" />
    <glyph glyph-name="mu" unicode="&#x3bc;" horiz-adv-x="562" 
d="M481 437v-343c0 -33 17 -42 56 -36v-41l-72 -21c-38 -12 -74 16 -83 107v2c-13 -38 -52 -113 -147 -113c-46 0 -85 12 -114 37c8 -128 64 -135 60 -162c-11 -74 -113 -100 -113 -12v517c0 23 -8 32 -28 32h-15v36l117 18c14 1 25 -6 25 -21v-268c0 -85 32 -113 95 -113
c68 0 99 49 120 114v202c0 23 -7 32 -27 32h-15v36l116 18c16 3 25 -6 25 -21z" />
    <glyph glyph-name="pi" unicode="&#x3c0;" horiz-adv-x="726" 
d="M636 108c24 -11 29 -39 21 -67c-14 -46 -85 -65 -151 -39c-50 20 -78 60 -78 128v247h-124v-261c0 -79 -62 -122 -112 -122c-21 0 -51 2 -73 10l-13 44c51 -12 103 19 103 83v246h-50c-37 0 -58 -29 -45 -81l-36 20c-8 22 -12 37 -12 58c0 45 33 77 86 77h471v-74h-73
c-20 0 -28 -8 -28 -31v-251c0 -27 10 -46 24 -52c17 -7 27 39 36 53c10 14 30 23 54 12z" />
    <glyph glyph-name="zero" unicode="0" horiz-adv-x="587" 
d="M552 313c0 -167 -88 -325 -258 -325s-259 158 -259 325c0 165 89 323 259 323s258 -158 258 -323zM294 43c107 0 143 101 143 270c0 166 -36 269 -143 269c-109 0 -145 -103 -145 -269c0 -169 36 -270 145 -270z" />
    <glyph glyph-name="one" unicode="1" horiz-adv-x="331" 
d="M221 609v-532c0 -23 47 -28 75 -33v-44h-251v44c30 5 75 10 75 33v413c0 23 -9 37 -29 31l-51 -14v54l145 64c23 10 36 -1 36 -16z" />
    <glyph glyph-name="two" unicode="2" horiz-adv-x="592" 
d="M547 135l-23 -112c-4 -15 -17 -23 -30 -23h-449c31 168 146 261 233 318c71 47 129 70 129 145c0 76 -52 120 -117 120c-60 0 -109 -22 -121 -77c-13 -60 9 -78 5 -102c-12 -29 -32 -40 -60 -40c-33 0 -58 26 -58 52c0 133 83 221 235 221c143 0 224 -68 224 -180
c0 -121 -109 -169 -191 -220c-91 -56 -141 -77 -177 -151l269 -2c43 0 61 3 79 29l16 22h36z" />
    <glyph glyph-name="three" unicode="3" horiz-adv-x="596" 
d="M400 371c60 5 151 -50 151 -165c0 -121 -123 -218 -253 -218c-153 0 -239 71 -247 176c-3 45 22 60 50 60c67 0 43 -42 65 -100c19 -51 60 -83 135 -83c78 0 141 55 141 146c0 86 -54 128 -111 128c-12 0 -26 -2 -38 -6l-40 -14l-18 46l43 17c75 30 117 66 117 128
c0 59 -32 100 -103 100c-70 0 -96 -38 -101 -78c-4 -31 0 -33 -4 -54c-35 -40 -103 -17 -103 30c0 70 72 153 208 153c134 0 207 -80 207 -146s-51 -107 -99 -120z" />
    <glyph glyph-name="four" unicode="4" horiz-adv-x="571" 
d="M521 197h-89v-119c0 -23 36 -28 64 -33v-45h-232v45c29 5 64 10 64 33v119h-282v46l318 390c22 27 68 14 68 -20v-361h89v-55zM120 252h208v249z" />
    <glyph glyph-name="five" unicode="5" horiz-adv-x="592" 
d="M542 205c0 -127 -112 -217 -253 -217c-148 0 -235 71 -243 177c-3 44 21 58 50 58c69 0 43 -41 65 -99c19 -51 59 -83 128 -83c74 0 139 47 139 146c0 106 -69 177 -158 177c-61 0 -113 -25 -142 -48h-46l24 305h342l17 13l24 1l-10 -92l-17 -15h-310l-12 -154
c39 31 93 53 163 53c102 0 239 -66 239 -222z" />
    <glyph glyph-name="six" unicode="6" horiz-adv-x="558" 
d="M440 581l-13 -18c-4 -6 -11 -6 -18 -3c-36 16 -54 22 -96 22c-123 0 -151 -124 -160 -251c16 20 71 64 145 64c115 0 215 -76 215 -199c0 -107 -88 -208 -228 -208c-172 0 -241 140 -240 299c1 170 88 349 263 349c54 0 96 -12 130 -37c7 -5 7 -11 2 -18zM155 271
c-7 -141 44 -228 130 -228c97 0 125 76 125 156c0 82 -46 140 -116 140c-79 0 -138 -51 -139 -68z" />
    <glyph glyph-name="seven" unicode="7" horiz-adv-x="548" 
d="M411 526h-314l-21 -45h-36l27 117c3 14 14 23 28 23h418l-315 -626h-28c-17 0 -32 16 -22 34z" />
    <glyph glyph-name="eight" unicode="8" horiz-adv-x="591" 
d="M388 348c88 -24 153 -79 153 -179c0 -97 -105 -183 -247 -183c-151 0 -244 86 -244 190c0 77 53 139 138 169c-63 24 -103 70 -103 131c0 83 80 152 210 152c120 0 201 -67 201 -154c0 -53 -44 -108 -108 -126zM275 378l51 -12c54 -12 93 62 93 110
c0 40 -18 104 -126 104c-95 0 -104 -68 -104 -104c0 -40 13 -81 86 -98zM429 172c0 61 -28 101 -124 123l-78 18c-44 10 -91 -60 -91 -131c0 -73 45 -141 157 -141c107 0 136 63 136 131z" />
    <glyph glyph-name="nine" unicode="9" horiz-adv-x="558" 
d="M119 46l12 18c4 6 11 6 18 3c37 -16 54 -22 96 -22c123 0 152 124 161 251c-16 -20 -72 -64 -146 -64c-115 0 -215 76 -215 199c0 107 88 208 228 208c173 0 241 -140 240 -299c-1 -170 -87 -349 -263 -349c-53 0 -95 12 -129 37c-7 5 -7 11 -2 18zM404 356
c6 141 -45 228 -131 228c-96 0 -124 -76 -124 -156c0 -82 45 -140 115 -140c79 0 139 51 140 68z" />
    <glyph glyph-name="zero.osf" horiz-adv-x="535" 
d="M269 460c112 0 231 -82 231 -230c0 -153 -119 -238 -231 -238c-113 0 -234 83 -234 230c0 154 121 238 234 238zM398 210c0 108 -66 194 -133 194c-76 0 -127 -44 -127 -162c0 -109 66 -193 134 -193c74 0 126 43 126 161z" />
    <glyph glyph-name="one.osf" horiz-adv-x="347" 
d="M227 443v-365c0 -23 51 -29 85 -34v-44h-270v44c36 5 84 11 84 34v246c0 23 -9 37 -29 31l-51 -14v53l145 65c23 10 36 -1 36 -16z" />
    <glyph glyph-name="two.osf" horiz-adv-x="550" 
d="M505 138l-26 -115c-3 -15 -2 -23 -35 -23h-399l121 100c109 90 188 149 188 212c0 59 -37 94 -92 94c-54 0 -81 -28 -87 -75c-4 -31 0 -33 -4 -54c-37 -47 -109 -20 -109 30c0 70 72 153 199 153c132 0 198 -70 198 -154c0 -99 -149 -181 -232 -230l146 4
c43 1 62 7 81 33l19 25h32z" />
    <glyph glyph-name="three.osf" horiz-adv-x="571" 
d="M520 41c0 -138 -118 -241 -267 -241c-96 0 -160 32 -192 99c-10 39 41 75 82 37c21 -50 47 -84 122 -84c76 0 146 65 146 170c0 81 -54 116 -97 116c-12 0 -26 -3 -38 -7l-43 -16l-16 44l45 17c69 26 112 63 112 134c0 60 -36 99 -99 99c-84 0 -105 -80 -118 -137
c-37 -29 -95 1 -95 33c0 73 82 155 204 155c143 0 209 -73 209 -149c0 -69 -54 -115 -100 -125c49 5 144 -45 145 -145z" />
    <glyph glyph-name="four.osf" horiz-adv-x="572" 
d="M522 1h-90v-107c0 -23 36 -28 74 -33v-45h-252v45c39 5 73 10 73 33v107h-281v46l318 387c22 27 68 14 68 -20v-359h90v-54zM121 55h206v246z" />
    <glyph glyph-name="five.osf" horiz-adv-x="598" 
d="M544 43c0 -142 -139 -243 -274 -243c-110 0 -179 42 -208 109c-13 41 41 79 83 46c15 -61 54 -103 129 -103c79 0 156 66 156 174c0 97 -54 167 -143 167c-79 0 -124 -26 -156 -54h-45l38 312h320l17 13l22 1l-10 -92l-17 -15h-288l-22 -164c40 40 104 61 170 61
c110 0 228 -63 228 -212z" />
    <glyph glyph-name="six.osf" horiz-adv-x="558" 
d="M440 581l-13 -18c-4 -6 -11 -6 -18 -3c-36 16 -54 22 -96 22c-123 0 -151 -124 -160 -251c16 20 71 64 145 64c115 0 215 -76 215 -199c0 -107 -88 -208 -228 -208c-172 0 -241 140 -240 299c1 170 88 349 263 349c54 0 96 -12 130 -37c7 -5 7 -11 2 -18zM155 271
c-7 -141 44 -228 130 -228c97 0 125 76 125 156c0 82 -46 140 -116 140c-79 0 -138 -51 -139 -68z" />
    <glyph glyph-name="seven.osf" horiz-adv-x="556" 
d="M415 356h-303l-21 -45h-36l27 117c3 14 14 23 28 23h406l-298 -633h-27c-17 0 -31 16 -22 34z" />
    <glyph glyph-name="eight.osf" horiz-adv-x="591" 
d="M388 348c88 -24 153 -79 153 -179c0 -97 -105 -183 -247 -183c-151 0 -244 86 -244 190c0 77 53 139 138 169c-63 24 -103 70 -103 131c0 83 80 152 210 152c120 0 201 -67 201 -154c0 -53 -44 -108 -108 -126zM275 378l51 -12c54 -12 93 62 93 110
c0 40 -18 104 -126 104c-95 0 -104 -68 -104 -104c0 -40 13 -81 86 -98zM429 172c0 61 -28 101 -124 123l-78 18c-44 10 -91 -60 -91 -131c0 -73 45 -141 157 -141c107 0 136 63 136 131z" />
    <glyph glyph-name="nine.osf" horiz-adv-x="558" 
d="M158 -148c171 19 239 133 250 269c-18 -26 -74 -70 -147 -70c-115 0 -216 76 -216 199c0 110 89 211 228 211c173 0 241 -144 240 -288c-1 -188 -121 -361 -350 -373c-25 -1 -26 50 -5 52zM406 179c5 133 -46 226 -133 226c-96 0 -124 -81 -124 -158
c0 -81 46 -140 115 -140c80 0 142 55 142 72z" />
    <glyph glyph-name="zero.tf" horiz-adv-x="600" 
d="M560 313c0 -167 -88 -325 -258 -325s-259 158 -259 325c0 165 89 323 259 323s258 -158 258 -323zM302 43c107 0 143 101 143 270c0 166 -36 269 -143 269c-108 0 -144 -103 -144 -269c0 -169 36 -270 144 -270z" />
    <glyph glyph-name="one.tf" horiz-adv-x="600" 
d="M351 609v-527c0 -23 47 -29 103 -34v-48h-307v48c58 5 103 11 103 34v408c0 23 -9 37 -29 31l-51 -14v54l145 64c23 10 36 -1 36 -16z" />
    <glyph glyph-name="two.tf" horiz-adv-x="600" 
d="M551 135l-23 -112c-4 -15 -17 -23 -30 -23h-449c31 168 146 261 234 318c71 47 128 70 128 145c0 76 -52 120 -117 120c-60 0 -108 -22 -120 -77c-13 -60 9 -78 5 -102c-13 -29 -33 -40 -60 -40c-34 0 -59 26 -59 52c0 133 83 221 235 221c143 0 225 -68 225 -180
c0 -121 -110 -169 -192 -220c-91 -56 -140 -77 -177 -151l269 -2c43 0 61 3 79 29l16 22h36z" />
    <glyph glyph-name="three.tf" horiz-adv-x="600" 
d="M391 371c59 5 150 -50 150 -165c0 -121 -122 -218 -253 -218c-152 0 -239 71 -246 176c-4 45 21 60 49 60c68 0 44 -42 65 -100c20 -51 60 -83 136 -83c78 0 140 55 140 146c0 86 -54 128 -110 128c-12 0 -26 -2 -38 -6l-41 -14l-17 46l43 17c75 30 117 66 117 128
c0 59 -32 100 -104 100c-69 0 -96 -38 -101 -78c-4 -31 0 -33 -4 -54c-34 -40 -102 -17 -102 30c0 70 72 153 207 153s207 -80 207 -146s-51 -107 -98 -120z" />
    <glyph glyph-name="four.tf" horiz-adv-x="600" 
d="M535 197h-89v-119c0 -23 36 -28 64 -33v-45h-232v45c29 5 65 10 65 33v119h-283v46l318 390c22 27 68 14 68 -20v-361h89v-55zM134 252h209v249z" />
    <glyph glyph-name="five.tf" horiz-adv-x="600" 
d="M528 205c0 -127 -112 -217 -254 -217c-147 0 -235 71 -242 176c-4 45 20 59 49 59c69 0 44 -41 65 -99c20 -52 59 -84 128 -84c74 0 140 48 140 147c0 106 -69 176 -159 176c-61 0 -112 -24 -141 -47h-46l23 305h342l17 13l24 1l-10 -93l-17 -15h-309l-12 -154
c39 32 92 53 163 53c101 0 239 -65 239 -221z" />
    <glyph glyph-name="six.tf" horiz-adv-x="600" 
d="M461 581l-12 -18c-4 -6 -11 -6 -18 -3c-37 16 -54 22 -96 22c-123 0 -152 -124 -161 -251c16 20 72 64 146 64c115 0 215 -76 215 -199c0 -107 -88 -208 -228 -208c-173 0 -241 140 -240 299c1 170 87 349 263 349c53 0 95 -12 129 -37c7 -5 7 -11 2 -18zM176 271
c-6 -141 45 -228 131 -228c96 0 124 76 124 156c0 82 -45 140 -115 140c-79 0 -139 -51 -140 -68z" />
    <glyph glyph-name="seven.tf" horiz-adv-x="600" 
d="M424 526h-314l-21 -45h-36l27 117c3 14 14 23 28 23h419l-315 -626h-29c-17 0 -32 16 -22 34z" />
    <glyph glyph-name="eight.tf" horiz-adv-x="600" 
d="M390 348c88 -24 154 -79 154 -179c0 -97 -105 -183 -248 -183c-151 0 -244 86 -244 190c0 77 54 139 139 169c-64 24 -104 70 -104 131c0 83 80 152 210 152c120 0 201 -67 201 -154c0 -53 -44 -108 -108 -126zM277 378l52 -12c53 -12 93 62 93 110
c0 40 -19 104 -127 104c-94 0 -103 -68 -103 -104c0 -40 13 -81 85 -98zM431 172c0 61 -28 101 -124 123l-78 18c-43 10 -91 -60 -91 -131c0 -73 46 -141 157 -141c107 0 136 63 136 131z" />
    <glyph glyph-name="nine.tf" horiz-adv-x="600" 
d="M140 43l12 18c4 6 11 6 18 3c36 -16 54 -22 96 -22c123 0 151 124 160 251c-16 -20 -71 -64 -145 -64c-115 0 -215 76 -215 199c0 107 88 208 228 208c173 0 241 -140 240 -299c-1 -170 -88 -349 -263 -349c-54 0 -95 12 -129 37c-7 5 -7 11 -2 18zM424 353
c7 141 -44 228 -130 228c-97 0 -124 -76 -124 -156c0 -82 45 -140 115 -140c79 0 138 51 139 68z" />
    <glyph glyph-name="fraction" unicode="&#x2044;" horiz-adv-x="168" 
d="M277 636h66l-433 -641h-65z" />
    <glyph glyph-name="onehalf" unicode="&#xbd;" horiz-adv-x="662" 
d="M128 625v-188c0 -15 15 -17 29 -18v-27h-115v27c14 1 29 3 29 18v155l-31 -10v33l56 25c19 8 32 -4 32 -15zM469 636h66l-432 -641h-66zM617 58l-10 -50c-2 -9 -10 -14 -21 -14h-182c14 69 61 102 97 124c25 15 46 31 46 57c0 23 -15 41 -37 41c-20 0 -34 -7 -38 -25
c-5 -19 5 -26 2 -38c-14 -32 -62 -13 -62 9c-1 46 32 86 98 86c62 0 93 -31 93 -76c0 -46 -43 -67 -75 -86c-30 -17 -52 -29 -58 -49h89c11 0 17 2 21 8l9 13h28z" />
    <glyph glyph-name="onequarter" unicode="&#xbc;" horiz-adv-x="658" 
d="M71 437v155l-31 -10v33l56 25c19 8 32 -4 32 -15v-188c0 -15 15 -17 29 -18v-27h-115v27c14 1 29 3 29 18zM469 636h66l-432 -641h-66zM608 68h-35v-33c0 -11 8 -18 25 -18v-23h-108v23c17 0 24 7 24 18v33h-100v32l120 145c12 15 39 6 39 -9v-134h35v-34zM460 102h54v64
z" />
    <glyph glyph-name="threequarters" unicode="&#xbe;" horiz-adv-x="752" 
d="M268 472c0 -50 -45 -89 -106 -89c-64 0 -102 39 -102 79c0 14 8 24 26 24c34 0 26 -25 32 -43c7 -20 21 -30 45 -30c26 0 46 23 45 52c1 47 -34 48 -68 32l-13 27l24 11c25 9 39 22 39 44s-10 32 -32 32c-33 0 -41 -36 -34 -60l-42 6c-8 3 -12 9 -12 14
c-1 40 32 71 89 71c60 0 90 -35 90 -61c0 -20 -10 -34 -27 -43c25 -9 46 -32 46 -66zM560 636h66l-432 -641h-66zM692 68h-35v-33c0 -11 8 -18 25 -18v-23h-108v23c17 0 24 7 24 18v33h-100v32l120 145c12 15 39 6 39 -9v-134h35v-34zM544 102h54v64z" />
    <glyph glyph-name="oneeighth" unicode="&#x215b;" horiz-adv-x="669" 
d="M128 625v-188c0 -15 15 -17 29 -18v-27h-115v27c14 1 29 3 29 18v155l-31 -10v33l56 25c19 8 32 -4 32 -15zM469 636h66l-432 -641h-66zM567 133c29 -10 50 -36 50 -69c0 -38 -42 -75 -105 -75s-101 36 -101 80c0 26 17 52 46 62c-20 11 -32 26 -32 50c0 30 30 63 87 63
c53 0 88 -30 88 -62c0 -21 -13 -38 -33 -49zM507 150l21 -5c12 -2 24 21 24 36c0 16 -5 34 -39 34c-24 0 -32 -18 -32 -33c0 -14 5 -27 26 -32zM554 65c0 22 -9 34 -39 41l-27 6c-11 2 -26 -19 -26 -44s15 -49 50 -49c30 0 42 18 42 46z" />
    <glyph glyph-name="threeeighths" unicode="&#x215c;" horiz-adv-x="768" 
d="M222 538c25 -9 46 -32 46 -66c0 -50 -45 -89 -106 -89c-64 0 -102 39 -102 79c0 14 8 24 26 24c34 0 26 -25 32 -43c7 -20 21 -30 45 -30c26 0 46 23 45 52c1 47 -34 48 -68 32l-13 27l24 11c25 9 39 22 39 44s-10 32 -32 32c-33 0 -41 -36 -34 -60l-42 6
c-8 3 -12 9 -12 14c-1 40 32 71 89 71c60 0 90 -35 90 -61c0 -20 -10 -34 -27 -43zM565 636h65l-432 -641h-65zM656 133c29 -10 49 -36 49 -69c0 -38 -42 -75 -104 -75c-63 0 -101 36 -101 80c0 26 17 52 46 62c-20 11 -32 26 -32 50c0 30 29 63 87 63c53 0 87 -30 87 -62
c0 -21 -12 -38 -32 -49zM596 150l21 -5c12 -2 23 21 23 36c0 16 -4 34 -38 34c-24 0 -33 -18 -33 -33c0 -14 6 -27 27 -32zM643 65c0 22 -9 34 -39 41l-28 6c-10 2 -25 -19 -25 -44s15 -49 50 -49c30 0 42 18 42 46z" />
    <glyph glyph-name="fiveeighths" unicode="&#x215d;" horiz-adv-x="751" 
d="M269 481c0 -57 -45 -92 -106 -92c-63 0 -100 29 -103 78c-1 14 9 27 28 27c34 0 28 -27 34 -45c5 -19 20 -31 41 -31c23 0 43 21 43 55c0 36 -23 61 -51 61c-24 0 -37 -10 -50 -17h-31l10 125h132l7 5h24l-3 -41l-12 -10h-113l-3 -41c15 9 34 14 56 14
c43 0 97 -32 97 -88zM558 636h66l-432 -641h-66zM649 133c29 -10 50 -36 50 -69c0 -38 -42 -75 -105 -75s-101 36 -101 80c0 26 17 52 46 62c-20 11 -32 26 -32 50c0 30 30 63 87 63c53 0 88 -30 88 -62c0 -21 -13 -38 -33 -49zM589 150l21 -5c12 -2 24 21 24 36
c0 16 -5 34 -39 34c-24 0 -32 -18 -32 -33c0 -14 5 -27 26 -32zM636 65c0 22 -9 34 -39 41l-27 6c-11 2 -26 -19 -26 -44s15 -49 50 -49c30 0 42 18 42 46z" />
    <glyph glyph-name="seveneighths" unicode="&#x215e;" horiz-adv-x="721" 
d="M195 594h-101l-6 -17h-33l11 49c2 9 9 14 21 14h173l-125 -250h-19c-16 0 -24 12 -16 27zM533 636h66l-432 -641h-66zM624 133c29 -10 50 -36 50 -69c0 -38 -42 -75 -105 -75s-101 36 -101 80c0 26 17 52 46 62c-20 11 -32 26 -32 50c0 30 30 63 87 63
c53 0 88 -30 88 -62c0 -21 -13 -38 -33 -49zM564 150l21 -5c12 -2 24 21 24 36c0 16 -5 34 -39 34c-24 0 -32 -18 -32 -33c0 -14 5 -27 26 -32zM611 65c0 22 -9 34 -39 41l-27 6c-11 2 -26 -19 -26 -44s15 -49 50 -49c30 0 42 18 42 46z" />
    <glyph glyph-name="zero.dnom" horiz-adv-x="277" 
d="M242 116c0 -65 -36 -127 -103 -127c-68 0 -104 62 -104 127c0 64 36 128 104 128c67 0 103 -64 103 -128zM139 31c36 0 47 40 47 85c0 44 -11 86 -47 86c-37 0 -48 -42 -48 -86c0 -45 11 -85 48 -85z" />
    <glyph glyph-name="one.dnom" horiz-adv-x="192" 
d="M128 227v-188c0 -15 15 -17 29 -18v-27h-115v27c14 1 29 3 29 18v155l-31 -10v33l56 25c19 8 32 -4 32 -15z" />
    <glyph glyph-name="two.dnom" horiz-adv-x="303" 
d="M258 58l-10 -50c-2 -9 -10 -14 -21 -14h-182c14 69 61 102 97 124c25 15 46 31 46 57c0 23 -15 41 -37 41c-20 0 -34 -7 -38 -25c-5 -19 5 -26 2 -38c-14 -32 -62 -13 -62 9c-1 46 32 86 98 86c62 0 93 -31 93 -76c0 -46 -43 -67 -75 -86c-30 -17 -52 -29 -58 -49h89
c11 0 17 2 21 8l9 13h28z" />
    <glyph glyph-name="three.dnom" horiz-adv-x="318" 
d="M222 144c25 -9 46 -32 46 -66c0 -50 -45 -89 -106 -89c-64 0 -102 39 -102 79c0 14 8 24 26 24c34 0 26 -25 32 -43c7 -20 21 -30 45 -30c26 0 46 23 45 52c1 47 -34 48 -68 32l-13 27l24 11c25 9 39 22 39 44s-10 32 -32 32c-33 0 -41 -36 -34 -60l-42 6
c-8 3 -12 9 -12 14c-1 40 32 71 89 71c60 0 90 -35 90 -61c0 -20 -10 -34 -27 -43z" />
    <glyph glyph-name="four.dnom" horiz-adv-x="299" 
d="M249 68h-35v-33c0 -11 8 -18 25 -18v-23h-108v23c17 0 24 7 24 18v33h-100v32l120 145c12 15 39 6 39 -9v-134h35v-34zM101 102h54v64z" />
    <glyph glyph-name="five.dnom" horiz-adv-x="324" 
d="M269 81c0 -57 -45 -92 -106 -92c-63 0 -100 29 -103 78c-1 14 9 27 28 27c34 0 28 -27 34 -45c5 -19 20 -31 41 -31c23 0 43 21 43 55c0 36 -23 61 -51 61c-24 0 -37 -10 -50 -17h-31l10 125h132l7 5h24l-3 -41l-12 -10h-113l-3 -41c15 9 34 14 56 14c43 0 97 -32 97 -88
z" />
    <glyph glyph-name="six.dnom" horiz-adv-x="287" 
d="M210 210c-8 -15 -30 7 -53 7c-33 0 -45 -33 -49 -72c11 6 25 11 47 11c47 0 87 -32 87 -82c0 -40 -34 -85 -96 -85c-76 0 -101 60 -101 120c0 62 34 139 110 139c22 0 42 -6 55 -15c8 -6 6 -12 0 -23zM146 21c28 0 37 21 37 55c0 30 -13 48 -34 48c-25 0 -43 -13 -43 -19
c-2 -58 16 -84 40 -84z" />
    <glyph glyph-name="seven.dnom" horiz-adv-x="300" 
d="M195 196h-101l-6 -17h-33l11 49c2 9 9 14 21 14h173l-125 -250h-19c-16 0 -24 12 -16 27z" />
    <glyph glyph-name="eight.dnom" horiz-adv-x="310" 
d="M208 133c29 -10 50 -36 50 -69c0 -38 -42 -75 -105 -75s-101 36 -101 80c0 26 17 52 46 62c-20 11 -32 26 -32 50c0 30 30 63 87 63c53 0 88 -30 88 -62c0 -21 -13 -38 -33 -49zM148 150l21 -5c12 -2 24 21 24 36c0 16 -5 34 -39 34c-24 0 -32 -18 -32 -33
c0 -14 5 -27 26 -32zM195 65c0 22 -9 34 -39 41l-27 6c-11 2 -26 -19 -26 -44s15 -49 50 -49c30 0 42 18 42 46z" />
    <glyph glyph-name="nine.dnom" horiz-adv-x="288" 
d="M78 27c8 15 29 -7 52 -7c33 0 45 33 49 73c-11 -6 -24 -12 -47 -12c-46 0 -87 32 -87 82c0 40 34 85 96 85c76 0 102 -60 102 -120c0 -62 -34 -139 -111 -139c-22 0 -42 6 -55 15c-8 6 -5 12 1 23zM141 216c-27 0 -37 -21 -37 -55c0 -30 14 -48 34 -48c25 0 43 13 43 19
c2 58 -16 84 -40 84z" />
    <glyph glyph-name="zero.numr" horiz-adv-x="277" 
d="M242 515c0 -65 -36 -127 -103 -127c-68 0 -104 62 -104 127c0 64 36 128 104 128c67 0 103 -64 103 -128zM139 430c36 0 47 40 47 85c0 44 -11 86 -47 86c-37 0 -48 -42 -48 -86c0 -45 11 -85 48 -85z" />
    <glyph glyph-name="one.numr" horiz-adv-x="192" 
d="M128 625v-188c0 -15 15 -17 29 -18v-27h-115v27c14 1 29 3 29 18v155l-31 -10v33l56 25c19 8 32 -4 32 -15z" />
    <glyph glyph-name="two.numr" horiz-adv-x="303" 
d="M258 451l-10 -50c-2 -9 -10 -14 -21 -14h-182c14 69 61 102 97 124c25 15 46 31 46 57c0 23 -15 41 -37 41c-20 0 -34 -7 -38 -25c-5 -19 5 -26 2 -38c-14 -32 -62 -13 -62 9c-1 46 32 86 98 86c62 0 93 -31 93 -76c0 -46 -43 -67 -75 -86c-30 -17 -52 -29 -58 -49h89
c11 0 17 2 21 8l9 13h28z" />
    <glyph glyph-name="three.numr" horiz-adv-x="318" 
d="M222 538c25 -9 46 -32 46 -66c0 -50 -45 -89 -106 -89c-64 0 -102 39 -102 79c0 14 8 24 26 24c34 0 26 -25 32 -43c7 -20 21 -30 45 -30c26 0 46 23 45 52c1 47 -34 48 -68 32l-13 27l24 11c25 9 39 22 39 44s-10 32 -32 32c-33 0 -41 -36 -34 -60l-42 6
c-8 3 -12 9 -12 14c-1 40 32 71 89 71c60 0 90 -35 90 -61c0 -20 -10 -34 -27 -43z" />
    <glyph glyph-name="four.numr" horiz-adv-x="299" 
d="M249 459h-35v-33c0 -11 8 -18 25 -18v-23h-108v23c17 0 24 7 24 18v33h-100v32l120 145c12 15 39 6 39 -9v-134h35v-34zM101 493h54v64z" />
    <glyph glyph-name="five.numr" horiz-adv-x="324" 
d="M269 481c0 -57 -45 -92 -106 -92c-63 0 -100 29 -103 78c-1 14 9 27 28 27c34 0 28 -27 34 -45c5 -19 20 -31 41 -31c23 0 43 21 43 55c0 36 -23 61 -51 61c-24 0 -37 -10 -50 -17h-31l10 125h132l7 5h24l-3 -41l-12 -10h-113l-3 -41c15 9 34 14 56 14
c43 0 97 -32 97 -88z" />
    <glyph glyph-name="six.numr" horiz-adv-x="287" 
d="M210 603c-8 -15 -30 7 -53 7c-33 0 -45 -33 -49 -72c11 6 25 11 47 11c47 0 87 -32 87 -82c0 -40 -34 -85 -96 -85c-76 0 -101 60 -101 120c0 62 34 139 110 139c22 0 42 -6 55 -15c8 -6 6 -12 0 -23zM146 414c28 0 37 21 37 55c0 30 -13 48 -34 48
c-25 0 -43 -13 -43 -19c-2 -58 16 -84 40 -84z" />
    <glyph glyph-name="seven.numr" horiz-adv-x="299" 
d="M195 594h-101l-6 -17h-33l11 49c2 9 9 14 21 14h173l-125 -250h-19c-16 0 -24 12 -16 27z" />
    <glyph glyph-name="eight.numr" horiz-adv-x="310" 
d="M208 531c29 -10 50 -36 50 -69c0 -38 -42 -75 -105 -75s-101 36 -101 80c0 26 17 52 46 62c-20 11 -32 26 -32 50c0 30 30 63 87 63c53 0 88 -30 88 -62c0 -21 -13 -38 -33 -49zM148 548l21 -5c12 -2 24 21 24 36c0 16 -5 34 -39 34c-24 0 -32 -18 -32 -33
c0 -14 5 -27 26 -32zM195 463c0 22 -9 34 -39 41l-27 6c-11 2 -26 -19 -26 -44s15 -49 50 -49c30 0 42 18 42 46z" />
    <glyph glyph-name="nine.numr" horiz-adv-x="288" 
d="M78 421c8 15 29 -7 52 -7c33 0 45 33 49 73c-11 -6 -24 -12 -47 -12c-46 0 -87 32 -87 82c0 40 34 85 96 85c76 0 102 -60 102 -120c0 -62 -34 -139 -111 -139c-22 0 -42 6 -55 15c-8 6 -5 12 1 23zM141 610c-27 0 -37 -21 -37 -55c0 -30 14 -48 34 -48c25 0 43 13 43 19
c2 58 -16 84 -40 84z" />
    <glyph glyph-name="onesuperior" unicode="&#xb9;" horiz-adv-x="192" 
d="M128 625v-188c0 -15 15 -17 29 -18v-27h-115v27c14 1 29 3 29 18v155l-31 -10v33l56 25c19 8 32 -4 32 -15z" />
    <glyph glyph-name="twosuperior" unicode="&#xb2;" horiz-adv-x="303" 
d="M258 451l-10 -50c-2 -9 -10 -14 -21 -14h-182c14 69 61 102 97 124c25 15 46 31 46 57c0 23 -15 41 -37 41c-20 0 -34 -7 -38 -25c-5 -19 5 -26 2 -38c-14 -32 -62 -13 -62 9c-1 46 32 86 98 86c62 0 93 -31 93 -76c0 -46 -43 -67 -75 -86c-30 -17 -52 -29 -58 -49h89
c11 0 17 2 21 8l9 13h28z" />
    <glyph glyph-name="threesuperior" unicode="&#xb3;" horiz-adv-x="318" 
d="M222 538c25 -9 46 -32 46 -66c0 -50 -45 -89 -106 -89c-64 0 -102 39 -102 79c0 14 8 24 26 24c34 0 26 -25 32 -43c7 -20 21 -30 45 -30c26 0 46 23 45 52c1 47 -34 48 -68 32l-13 27l24 11c25 9 39 22 39 44s-10 32 -32 32c-33 0 -41 -36 -34 -60l-42 6
c-8 3 -12 9 -12 14c-1 40 32 71 89 71c60 0 90 -35 90 -61c0 -20 -10 -34 -27 -43z" />
    <glyph glyph-name="asterisk" unicode="*" horiz-adv-x="317" 
d="M118 598l30 -78c5 -13 14 -13 19 0l31 78c-3 23 -17 36 -40 39c-23 -3 -37 -16 -40 -39zM133 508l-55 67c-21 9 -40 4 -54 -14c-9 -21 -6 -40 13 -54l80 -18c14 -3 25 9 16 19zM239 575l-55 -67c-9 -10 2 -22 16 -19l80 18c18 14 22 33 13 54c-15 18 -33 23 -54 14z
M118 473l-81 -17c-19 -15 -22 -33 -13 -55c14 -18 33 -23 54 -14l54 67c9 10 -1 22 -14 19zM280 456l-81 17c-13 3 -23 -9 -14 -19l54 -67c21 -9 39 -4 54 14c9 22 5 40 -13 55zM148 444l-30 -78c3 -23 17 -36 40 -39c23 3 37 16 40 39l-30 78c-5 13 -15 13 -20 0z" />
    <glyph glyph-name="backslash" unicode="\" horiz-adv-x="431" 
d="M119 641l267 -641h-74l-267 641h74z" />
    <glyph glyph-name="periodcentered" unicode="&#xb7;" horiz-adv-x="222" 
d="M111 232c-33 0 -61 28 -61 62s28 62 61 62s61 -28 61 -62s-28 -62 -61 -62z" />
    <glyph glyph-name="bullet" unicode="&#x2022;" horiz-adv-x="332" 
d="M166 187c-58 0 -106 47 -106 106c0 58 48 106 106 106c59 0 106 -48 106 -106c0 -59 -47 -106 -106 -106z" />
    <glyph glyph-name="colon" unicode=":" horiz-adv-x="233" 
d="M117 316c-33 0 -61 28 -61 62s28 62 61 62s61 -28 61 -62s-28 -62 -61 -62zM117 -10c-33 0 -61 28 -61 62c0 33 28 61 61 61s61 -28 61 -61c0 -34 -28 -62 -61 -62z" />
    <glyph glyph-name="comma" unicode="," horiz-adv-x="214" 
d="M171 -33c-10 -33 -29 -61 -54 -83c-7 -4 -12 -4 -19 2l-17 19c17 18 29 32 36 50c6 17 7 31 5 38c-8 -2 -14 -2 -28 -1c-28 4 -51 33 -47 66c4 35 36 58 69 54c34 -4 53 -33 58 -60c6 -30 7 -51 -3 -85z" />
    <glyph glyph-name="ellipsis" unicode="&#x2026;" 
d="M116 -10c-33 0 -61 28 -61 62c0 33 28 61 61 61s61 -28 61 -61c0 -34 -28 -62 -61 -62zM299 -10c-34 0 -61 28 -61 62c0 33 27 61 61 61c33 0 61 -28 61 -61c0 -34 -28 -62 -61 -62zM481 -10c-33 0 -61 28 -61 62c0 33 28 61 61 61s61 -28 61 -61c0 -34 -28 -62 -61 -62z
" />
    <glyph glyph-name="exclam" unicode="!" horiz-adv-x="247" 
d="M146 217h-40c-3 152 -46 261 -46 362c0 49 28 74 66 74s66 -25 66 -74c0 -101 -43 -210 -46 -362zM128 -10c-33 0 -61 28 -61 62c0 33 28 61 61 61s61 -28 61 -61c0 -34 -28 -62 -61 -62z" />
    <glyph glyph-name="exclamdown" unicode="&#xa1;" horiz-adv-x="247" 
d="M128 563c33 0 61 -28 61 -62c0 -33 -28 -61 -61 -61s-61 28 -61 61c0 34 28 62 61 62zM106 336h40c3 -152 46 -261 46 -362c0 -49 -28 -74 -66 -74s-66 25 -66 74c0 101 43 210 46 362z" />
    <glyph glyph-name="numbersign" unicode="#" horiz-adv-x="588" 
d="M458 466h86c10 0 15 -5 14 -15l-3 -36c0 -10 -6 -15 -16 -15h-97l-41 -164h102c10 0 15 -5 14 -15l-3 -36c-1 -10 -6 -15 -16 -15h-114l-50 -200h-74l52 200h-108l-50 -200h-74l52 200h-83c-10 0 -15 5 -14 15l3 36c1 10 6 15 16 15h95l42 164h-101c-10 0 -14 5 -14 15
l3 36c1 10 6 15 16 15h114l53 206h69l-52 -206h109l53 206h69zM329 236l42 164h-109l-41 -164h108z" />
    <glyph glyph-name="period" unicode="." horiz-adv-x="232" 
d="M116 -10c-33 0 -61 28 -61 62c0 33 28 61 61 61s61 -28 61 -61c0 -34 -28 -62 -61 -62z" />
    <glyph glyph-name="question" unicode="?" horiz-adv-x="488" 
d="M45 490c0 -85 73 -107 111 -69c42 39 -23 97 -2 138c18 35 46 54 99 54c58 0 91 -37 91 -84c2 -41 -7 -66 -90 -133c-44 -35 -50 -77 -46 -107l11 -82h45l10 82c2 23 54 40 115 96c122 109 22 273 -137 273c-126 0 -207 -73 -207 -168zM244 -10c-33 0 -61 28 -61 62
c0 33 28 61 61 61c34 0 62 -28 62 -61c0 -34 -28 -62 -62 -62z" />
    <glyph glyph-name="questiondown" unicode="&#xbf;" horiz-adv-x="488" 
d="M244 563c33 0 61 -28 61 -62c0 -33 -28 -61 -61 -61s-61 28 -61 61c0 34 28 62 61 62zM443 63c0 85 -73 107 -111 69c-42 -39 24 -97 2 -138c-18 -35 -45 -54 -98 -54c-58 0 -92 37 -92 84c-1 41 7 66 91 133c43 35 49 77 45 107l-11 82h-45l-9 -82
c-3 -23 -54 -40 -116 -96c-122 -109 -21 -273 138 -273c126 0 206 73 206 168z" />
    <glyph glyph-name="quotedbl" unicode="&#x22;" horiz-adv-x="314" 
d="M41 604l22 -148c2 -14 10 -22 24 -22c13 0 21 8 23 22l22 148c5 36 -14 56 -45 56c-32 0 -51 -20 -46 -56zM183 604l21 -148c3 -14 10 -22 24 -22s21 8 24 22l21 148c5 36 -13 56 -45 56s-50 -20 -45 -56z" />
    <glyph glyph-name="quotesingle" unicode="'" horiz-adv-x="173" 
d="M41 604l22 -148c2 -14 10 -22 24 -22c13 0 21 8 23 22l22 148c5 36 -14 56 -45 56c-32 0 -51 -20 -46 -56z" />
    <glyph glyph-name="semicolon" unicode=";" horiz-adv-x="214" 
d="M111 315c-33 0 -61 28 -61 62s28 62 61 62s61 -28 61 -62s-28 -62 -61 -62zM171 -33c-10 -33 -29 -61 -54 -83c-7 -4 -12 -4 -19 2l-17 19c17 18 29 32 36 50c6 17 7 31 5 38c-8 -2 -14 -2 -28 -1c-28 4 -51 33 -47 66c4 35 36 58 69 54c34 -4 53 -33 58 -60
c6 -30 7 -51 -3 -85z" />
    <glyph glyph-name="slash" unicode="/" horiz-adv-x="435" 
d="M314 641h74l-267 -641h-74z" />
    <glyph glyph-name="underscore" unicode="_" 
d="M30 -20h512v-60h-512v60z" />
    <glyph glyph-name="braceleft" unicode="{" horiz-adv-x="277" 
d="M199 212v-169c0 -97 7 -158 53 -182l-26 -27c-101 41 -117 119 -117 209v178c0 31 -15 39 -64 61v27c49 22 64 30 64 61v178c0 90 16 168 117 209l26 -27c-46 -24 -53 -85 -53 -182v-169c0 -45 -30 -68 -77 -82v-3c47 -14 77 -37 77 -82z" />
    <glyph glyph-name="braceright" unicode="}" horiz-adv-x="277" 
d="M77 43v169c0 45 30 68 78 82v3c-48 14 -78 37 -78 82v169c0 97 -6 158 -52 182l26 27c101 -41 117 -119 117 -209v-178c0 -31 15 -39 64 -61v-27c-49 -22 -64 -30 -64 -61v-178c0 -90 -16 -168 -117 -209l-26 27c46 24 52 85 52 182z" />
    <glyph glyph-name="bracketleft" unicode="[" horiz-adv-x="278" 
d="M135 703v-813l97 -19c12 -2 21 -7 21 -16v-21l-208 11v903l208 11v-21c0 -9 -9 -14 -21 -16z" />
    <glyph glyph-name="bracketright" unicode="]" horiz-adv-x="278" 
d="M143 703l-97 19c-12 2 -21 7 -21 16v21l208 -11v-903l-208 -11v21c0 9 9 14 21 16l97 19v813z" />
    <glyph glyph-name="parenleft" unicode="(" horiz-adv-x="324" 
d="M148 296c-2 -183 54 -347 143 -444c10 -10 7 -18 -5 -18h-18c-8 0 -13 2 -19 7c-127 102 -204 268 -204 455s77 353 204 455c6 5 11 7 19 7h16c13 0 19 -6 12 -13c-92 -97 -150 -263 -148 -449z" />
    <glyph glyph-name="parenright" unicode=")" horiz-adv-x="324" 
d="M176 296c2 186 -56 352 -148 449c-7 7 -1 13 12 13h17c8 0 13 -2 19 -7c126 -102 203 -268 203 -455s-77 -353 -203 -455c-6 -5 -11 -7 -19 -7h-19c-12 0 -15 8 -5 18c89 97 145 261 143 444z" />
    <glyph glyph-name="emdash" unicode="&#x2014;" horiz-adv-x="889" 
d="M25 281h819v-61h-819v61z" />
    <glyph glyph-name="endash" unicode="&#x2013;" horiz-adv-x="667" 
d="M30 281h582v-61h-582v61z" />
    <glyph glyph-name="uni2015" unicode="&#x2015;" horiz-adv-x="889" 
d="M25 281h819v-61h-819v61z" />
    <glyph glyph-name="hyphen" unicode="-" horiz-adv-x="380" 
d="M45 281h270v-61h-270v61z" />
    <glyph glyph-name="softhyphen" unicode="&#xad;" horiz-adv-x="380" 
d="M45 281h270v-61h-270v61z" />
    <glyph glyph-name="guillemotleft" unicode="&#xab;" horiz-adv-x="445" 
d="M45 229l174 162v-65l-69 -97l69 -97v-64zM236 229l174 162v-65l-69 -97l69 -97v-64z" />
    <glyph glyph-name="guillemotright" unicode="&#xbb;" horiz-adv-x="445" 
d="M208 229l-173 -161v64l68 97l-68 97v65zM399 229l-173 -161v64l68 97l-68 97v65z" />
    <glyph glyph-name="guilsinglleft" unicode="&#x2039;" horiz-adv-x="253" 
d="M46 229l173 162v-65l-68 -97l68 -97v-64z" />
    <glyph glyph-name="guilsinglright" unicode="&#x203a;" horiz-adv-x="253" 
d="M208 229l-174 -161v64l69 97l-69 97v65z" />
    <glyph glyph-name="quotedblbase" unicode="&#x201e;" horiz-adv-x="376" 
d="M171 -33c-10 -33 -29 -61 -54 -83c-7 -4 -12 -4 -19 2l-17 19c17 18 29 32 36 50c6 17 7 31 5 38c-8 -2 -14 -2 -28 -1c-28 4 -51 33 -47 66c4 35 36 58 69 54c34 -4 53 -33 58 -60c6 -30 7 -51 -3 -85zM333 -33c-10 -33 -29 -61 -54 -83c-7 -4 -12 -4 -19 2l-17 19
c17 18 29 32 36 50c6 17 7 31 5 38c-8 -2 -14 -2 -28 -1c-28 4 -51 33 -47 66c4 35 36 58 69 54c34 -4 53 -33 58 -60c6 -30 7 -51 -3 -85z" />
    <glyph glyph-name="quotedblleft" unicode="&#x201c;" horiz-adv-x="366" 
d="M28 564c10 33 30 61 54 83c7 4 13 4 19 -2l17 -19c-17 -18 -29 -32 -36 -50c-6 -17 -7 -31 -4 -38c7 2 13 2 27 1c29 -4 51 -33 47 -65c-4 -36 -36 -59 -69 -55c-34 4 -53 33 -58 60c-6 30 -7 51 3 85zM202 564c10 33 30 61 54 83c7 4 13 4 19 -2l17 -19
c-17 -18 -29 -32 -36 -50c-6 -17 -7 -31 -4 -38c7 2 13 2 27 1c29 -4 51 -33 47 -65c-4 -36 -36 -59 -69 -55c-34 4 -53 33 -58 60c-6 30 -7 51 3 85z" />
    <glyph glyph-name="quotedblright" unicode="&#x201d;" horiz-adv-x="366" 
d="M153 507c-10 -32 -30 -61 -55 -83c-7 -4 -12 -4 -18 2l-18 19c17 19 30 32 36 50c7 17 8 31 5 38c-8 -2 -13 -2 -27 -1c-29 4 -52 33 -47 66c4 35 35 58 68 54c34 -4 54 -33 59 -60c5 -30 6 -51 -3 -85zM327 507c-10 -32 -30 -61 -55 -83c-7 -4 -12 -4 -18 2l-18 19
c17 19 30 32 36 50c7 17 8 31 5 38c-8 -2 -13 -2 -27 -1c-29 4 -52 33 -47 66c4 35 35 58 68 54c34 -4 54 -33 59 -60c5 -30 6 -51 -3 -85z" />
    <glyph glyph-name="quoteleft" unicode="&#x2018;" horiz-adv-x="192" 
d="M47 564c10 33 30 61 55 83c7 4 12 4 18 -2l18 -19c-17 -18 -30 -32 -36 -50c-7 -17 -8 -31 -5 -38c8 2 13 2 27 1c29 -4 52 -33 47 -65c-4 -36 -35 -59 -68 -55c-34 4 -54 33 -59 60c-5 30 -6 51 3 85z" />
    <glyph glyph-name="quoteright" unicode="&#x2019;" horiz-adv-x="192" 
d="M145 507c-10 -32 -29 -61 -54 -83c-7 -4 -12 -4 -19 2l-17 19c17 19 29 32 36 50c6 17 7 31 5 38c-8 -2 -14 -2 -28 -1c-28 4 -51 33 -47 66c4 35 36 58 69 54c34 -4 53 -33 58 -60c6 -30 7 -51 -3 -85z" />
    <glyph glyph-name="quotesinglbase" unicode="&#x201a;" horiz-adv-x="214" 
d="M171 -33c-10 -33 -29 -61 -54 -83c-7 -4 -12 -4 -19 2l-17 19c17 18 29 32 36 50c6 17 7 31 5 38c-8 -2 -14 -2 -28 -1c-28 4 -51 33 -47 66c4 35 36 58 69 54c34 -4 53 -33 58 -60c6 -30 7 -51 -3 -85z" />
    <glyph glyph-name="space" unicode=" " horiz-adv-x="220" 
 />
    <glyph glyph-name="cent" unicode="&#xa2;" horiz-adv-x="486" 
d="M375 103c8 8 16 15 28 4l23 -21c-19 -37 -73 -94 -186 -94c-13 0 -26 1 -39 4l-15 -57h-53l20 73c-73 34 -128 110 -128 212c0 151 106 236 219 236c11 0 21 -1 31 -2l16 61h53l-19 -71c66 -21 102 -68 102 -113c0 -24 -15 -45 -49 -45s-52 17 -52 39c0 28 0 51 -16 65
l-90 -331c16 -8 34 -12 54 -12c60 0 75 24 101 52zM132 243c0 -56 16 -108 45 -144l83 308h-4c-90 0 -124 -48 -124 -164z" />
    <glyph glyph-name="currency" unicode="&#xa4;" 
d="M506 228c0 -49 -17 -93 -45 -129l66 -65l-37 -37l-66 65c-35 -27 -79 -43 -127 -43c-47 0 -90 16 -125 42l-65 -64l-37 37l65 64c-28 36 -45 81 -45 130c0 48 16 92 43 127l-63 63l37 38l63 -63c35 27 79 43 127 43s93 -17 129 -44l64 64l37 -38l-64 -64
c27 -35 43 -79 43 -126zM298 71c84 0 152 73 152 157s-68 155 -152 155c-85 0 -150 -71 -150 -155s65 -157 150 -157z" />
    <glyph glyph-name="dollar" unicode="$" horiz-adv-x="559" 
d="M531 183c14 -131 -115 -193 -224 -198v-46h-53v49c-80 10 -113 49 -167 31l-52 157l41 14c15 6 24 2 32 -13c7 -13 15 -27 22 -41c24 -48 66 -79 124 -88v214c-73 23 -183 62 -198 178c-13 98 62 190 198 197v52h53v-53c100 -9 129 -59 184 -70l13 -127l-43 -7
c-13 -2 -21 1 -24 12l-11 40c-12 46 -62 86 -119 97v-215c69 -20 211 -58 224 -183zM155 471c7 -48 47 -70 99 -88v201c-67 -8 -105 -60 -99 -113zM307 246v-201c64 4 120 30 113 101c-5 57 -55 81 -113 100z" />
    <glyph glyph-name="Euro" unicode="&#x20ac;" horiz-adv-x="731" 
d="M683 147c3 -10 -3 -21 -13 -39c-40 -68 -114 -123 -238 -123c-132 0 -254 88 -295 230h-103l11 56h80c-2 16 -3 33 -3 50l1 20h-68l12 57h63c32 142 149 239 286 239c89 0 143 -36 181 -82c17 0 25 23 29 49c2 11 8 17 19 17h27l11 -191l-43 -15c-11 -4 -19 0 -23 11
c-3 9 -8 21 -14 36c-37 90 -102 121 -169 121c-89 0 -166 -58 -185 -185h228l-12 -57h-220v-5c0 -23 2 -44 5 -65h205l-11 -56h-180c35 -101 110 -165 192 -165c74 0 118 35 153 83c16 23 22 39 36 40c11 0 35 -15 38 -26z" />
    <glyph glyph-name="florin" unicode="&#x192;" horiz-adv-x="629" 
d="M634 598c11 -17 9 -44 -14 -58s-46 -7 -53 10c-11 33 -20 74 -71 74c-72 0 -78 -53 -89 -128l-5 -39h135c6 0 13 -4 10 -9l-5 -11c-9 -18 -14 -29 -33 -29h-114l-60 -425c-17 -119 -84 -185 -175 -185c-64 0 -111 37 -127 73c-9 17 -5 44 19 56s47 3 52 -15
c8 -33 13 -71 52 -71c60 0 78 55 89 130l61 437h-52c-6 0 -10 4 -9 10l5 39h63l4 27c17 119 74 183 185 183c74 0 113 -35 132 -69z" />
    <glyph glyph-name="sterling" unicode="&#xa3;" horiz-adv-x="574" 
d="M473 123h53l-25 -100c-4 -15 -17 -23 -32 -23h-419v64c60 36 97 76 97 125c0 22 -7 42 -16 62h-86v57h54c-23 39 -44 82 -44 140c0 98 84 189 241 189c139 0 227 -82 227 -194c0 -35 -16 -73 -60 -73c-25 0 -46 11 -60 39c-3 19 13 35 13 65c0 57 -34 106 -124 106
c-91 0 -131 -58 -131 -118c0 -76 41 -108 69 -154h123v-57h-100c3 -11 4 -24 4 -38c0 -55 -26 -114 -89 -150c99 3 269 -8 294 39z" />
    <glyph glyph-name="yen" unicode="&#xa5;" horiz-adv-x="635" 
d="M439 621h183v-42c-42 -5 -58 -23 -84 -59l-134 -183h128v-56h-160v-53h160v-56h-160v-94c0 -23 37 -28 73 -33v-45h-247v45c36 5 74 10 74 33v94h-150v56h150v39l-10 14h-140v56h100l-114 158c-40 57 -49 79 -93 84v42h222v-42c-29 -5 -49 -17 -37 -33l147 -204l140 194
c18 24 -9 38 -48 43v42z" />
    <glyph glyph-name="approxequal" unicode="&#x2248;" horiz-adv-x="568" 
d="M498 387h-44c-24 0 -38 -43 -75 -43c-65 0 -90 59 -174 59c-65 0 -116 -44 -135 -108h44c36 0 31 49 74 49c51 0 94 -69 180 -69c54 0 114 43 130 112zM498 217h-44c-24 0 -38 -43 -75 -43c-65 0 -90 59 -174 59c-65 0 -116 -44 -135 -108h44c36 0 31 49 74 49
c51 0 94 -69 180 -69c54 0 114 43 130 112z" />
    <glyph glyph-name="asciitilde" unicode="~" horiz-adv-x="535" 
d="M465 298h-40c-22 0 -35 -43 -69 -43c-60 0 -83 59 -161 59c-60 0 -107 -44 -125 -108h41c33 0 29 49 68 49c48 0 88 -69 167 -69c49 0 105 43 119 112z" />
    <glyph glyph-name="divide" unicode="&#xf7;" horiz-adv-x="510" 
d="M257 355c-27 0 -50 22 -50 50c0 27 23 50 50 50s50 -23 50 -50c0 -28 -23 -50 -50 -50zM70 285h370v-67h-370v67zM257 49c-27 0 -50 22 -50 50c0 27 23 50 50 50s50 -23 50 -50c0 -28 -23 -50 -50 -50z" />
    <glyph glyph-name="emptyset" unicode="&#x2205;" horiz-adv-x="535" 
d="M447 432l-22 -30c44 -39 75 -97 75 -172c0 -153 -119 -238 -231 -238c-44 0 -88 12 -127 36l-21 -28l-40 30l21 28c-40 39 -67 95 -67 164c0 154 121 238 234 238c39 0 79 -10 114 -29l24 31zM138 242c0 -40 9 -76 23 -106l177 234c-22 21 -47 34 -73 34
c-76 0 -127 -44 -127 -162zM272 49c74 0 126 43 126 161c0 45 -11 86 -29 118l-179 -237c23 -26 53 -42 82 -42z" />
    <glyph glyph-name="equal" unicode="=" horiz-adv-x="510" 
d="M70 375h370v-67h-370v67zM70 195h370v-67h-370v67z" />
    <glyph glyph-name="greater" unicode="&#x3e;" horiz-adv-x="512" 
d="M442 284v-67c-123 -47 -249 -104 -372 -171v75c102 55 189 92 303 130c-114 37 -201 74 -303 130v74c123 -67 249 -124 372 -171z" />
    <glyph glyph-name="greaterequal" unicode="&#x2265;" horiz-adv-x="512" 
d="M442 366v-67c-123 -47 -249 -104 -372 -171v75c102 55 189 92 303 130c-114 37 -201 74 -303 130v74c123 -67 249 -124 372 -171zM70 64h370v-67h-370v67z" />
    <glyph glyph-name="infinity" unicode="&#x221e;" horiz-adv-x="739" 
d="M390 160c-22 -60 -75 -101 -160 -101c-89 0 -170 80 -170 188s83 191 177 191c64 0 127 -33 150 -96c27 62 81 82 141 82c86 0 151 -76 151 -177c0 -107 -64 -182 -154 -182c-59 0 -120 33 -135 95zM230 138c64 0 113 16 124 84l11 66c7 40 -71 74 -129 74
c-69 0 -130 -36 -130 -115c0 -76 63 -109 124 -109zM413 273l-9 -57c-8 -49 62 -81 119 -81c61 0 113 26 113 112c0 64 -58 103 -115 103c-49 0 -100 -26 -108 -77z" />
    <glyph glyph-name="integral" unicode="&#x222b;" horiz-adv-x="476" 
d="M453 726c10 -20 6 -50 -17 -60s-44 1 -51 20c-9 28 -12 64 -54 64c-36 0 -50 -29 -50 -87v-712c0 -112 -43 -166 -130 -166c-73 0 -107 37 -128 74c-10 20 -5 48 18 59c23 10 44 0 51 -19c10 -28 13 -64 55 -64c36 0 49 29 49 87v712c0 112 44 166 131 166
c73 0 109 -36 126 -74z" />
    <glyph glyph-name="less" unicode="&#x3c;" horiz-adv-x="512" 
d="M70 217v67c123 47 249 104 372 171v-74c-102 -56 -189 -93 -303 -130c114 -38 201 -75 303 -130v-75c-123 67 -249 124 -372 171z" />
    <glyph glyph-name="lessequal" unicode="&#x2264;" horiz-adv-x="512" 
d="M70 299v67c123 47 249 104 372 171v-74c-102 -56 -189 -93 -303 -130c114 -38 201 -75 303 -130v-75c-123 67 -249 124 -372 171zM442 64v-67h-370v67h370z" />
    <glyph glyph-name="logicalnot" unicode="&#xac;" horiz-adv-x="573" 
d="M70 375h433v-232h-67v165h-366v67z" />
    <glyph glyph-name="minus" unicode="&#x2212;" horiz-adv-x="510" 
d="M70 285h370v-67h-370v67z" />
    <glyph glyph-name="multiply" unicode="&#xd7;" horiz-adv-x="455" 
d="M385 362l-110 -110l110 -111l-47 -48l-110 111l-111 -111l-47 48l110 111l-110 110l47 48l111 -111l110 111z" />
    <glyph glyph-name="notequal" unicode="&#x2260;" horiz-adv-x="510" 
d="M440 308h-124l-48 -113h172v-67h-200l-53 -128h-71l53 128h-99v67h127l48 113h-175v67h203l50 121h71l-50 -121h96v-67z" />
    <glyph glyph-name="partialdiff" unicode="&#x2202;" horiz-adv-x="558" 
d="M131 563l-12 18c-5 7 -5 13 2 18c34 25 75 37 129 37c175 0 262 -179 263 -349c1 -159 -67 -299 -240 -299c-140 0 -228 101 -228 208c0 123 100 199 215 199c74 0 129 -44 145 -64c-9 127 -37 251 -160 251c-42 0 -60 -6 -96 -22c-7 -3 -14 -3 -18 3zM403 271
c-1 17 -60 68 -139 68c-70 0 -115 -58 -115 -140c0 -80 27 -156 124 -156c86 0 137 87 130 228z" />
    <glyph glyph-name="percent" unicode="%" horiz-adv-x="691" 
d="M530 636h63l-432 -641h-93l435 604c-73 -61 -131 -72 -175 -55c1 -13 1 -26 -2 -39c-13 -71 -76 -137 -159 -137c-82 0 -117 72 -105 137c14 65 76 138 162 138c24 0 44 -7 59 -18c48 -22 126 -62 247 11zM252 505c8 44 6 96 -37 96c-46 0 -71 -52 -80 -96
c-8 -44 -5 -94 41 -94c44 0 68 50 76 94zM517 264c80 0 115 -75 102 -138c-14 -71 -76 -137 -159 -137c-82 0 -117 72 -105 137c14 65 76 138 162 138zM545 126c8 44 6 96 -37 96c-46 0 -71 -52 -80 -96c-8 -44 -5 -94 41 -94c44 0 67 50 76 94z" />
    <glyph glyph-name="perthousand" unicode="&#x2030;" horiz-adv-x="1003" 
d="M530 636h63l-432 -641h-93l435 604c-73 -61 -131 -72 -175 -55c1 -13 1 -26 -2 -39c-13 -71 -76 -137 -159 -137c-82 0 -117 72 -105 137c14 65 76 138 162 138c24 0 44 -7 59 -18c48 -22 126 -62 247 11zM252 505c8 44 6 96 -37 96c-46 0 -71 -52 -80 -96
c-8 -44 -5 -94 41 -94c44 0 68 50 76 94zM517 264c80 0 115 -75 102 -138c-14 -71 -76 -137 -159 -137c-82 0 -117 72 -105 137c14 65 76 138 162 138zM829 264c80 0 115 -75 102 -138c-14 -71 -76 -137 -159 -137c-82 0 -117 72 -105 137c14 65 76 138 162 138zM545 126
c8 44 6 96 -37 96c-46 0 -71 -52 -80 -96c-8 -44 -5 -94 41 -94c44 0 67 50 76 94zM857 126c8 44 6 96 -37 96c-46 0 -71 -52 -80 -96c-8 -44 -5 -94 41 -94c44 0 67 50 76 94z" />
    <glyph glyph-name="plus" unicode="+" horiz-adv-x="510" 
d="M440 285v-67h-151v-153h-67v153h-152v67h152v151h67v-151h151z" />
    <glyph glyph-name="plusminus" unicode="&#xb1;" horiz-adv-x="510" 
d="M289 386h151v-67h-151v-153h-67v153h-152v67h152v151h67v-151zM70 -3v67h370v-67h-370z" />
    <glyph glyph-name="product" unicode="&#x220f;" horiz-adv-x="636" 
d="M70 800h496v-1000h-67v934h-362v-934h-67v1000z" />
    <glyph glyph-name="radical" unicode="&#x221a;" horiz-adv-x="766" 
d="M347 -200h-42c-15 0 -24 7 -32 24l-134 301c-26 58 -52 71 -68 77l-21 8v41c62 -4 82 -4 136 -2l150 -322l304 874h126v-41l-27 -8c-15 -4 -43 -14 -67 -79z" />
    <glyph glyph-name="summation" unicode="&#x2211;" horiz-adv-x="570" 
d="M500 800v-66h-346l294 -435l-294 -433h346v-66h-430v66l290 434l-290 434v66h430z" />
    <glyph glyph-name="lozenge" unicode="&#x25ca;" horiz-adv-x="412" 
d="M377 310l-130 -310h-82l-130 310l130 311h82zM301 310l-95 247l-95 -247l95 -247z" />
    <glyph glyph-name="bar" unicode="|" horiz-adv-x="253" 
d="M90 800h73v-1015h-73v1015z" />
    <glyph glyph-name="brokenbar" unicode="&#xa6;" horiz-adv-x="253" 
d="M90 451v349h73v-349h-73zM90 -215v349h73v-349h-73z" />
    <glyph glyph-name="at" unicode="@" horiz-adv-x="732" 
d="M471 -45l12 -21c-31 -10 -78 -17 -116 -17c-181 0 -322 141 -322 332c0 190 142 331 322 331s320 -131 320 -328c0 -94 -21 -157 -130 -181c-57 -12 -95 3 -112 42c-19 -29 -61 -54 -114 -54c-64 0 -125 29 -125 94c0 60 38 108 231 136v10c0 46 -8 100 -72 97
c-13 -1 -22 -2 -37 -7c-19 -4 -12 -35 -17 -56c-5 -16 -29 -29 -56 -25c-28 6 -37 25 -30 55c8 36 69 65 128 71c109 9 168 -40 168 -134v-160c0 -28 11 -35 31 -31c54 12 49 107 49 142c0 168 -84 283 -234 283s-233 -125 -233 -286c0 -160 89 -286 233 -286
c18 0 40 3 56 6s38 6 48 -13zM347 104c47 0 74 37 90 61v89c-131 -22 -143 -61 -143 -100c0 -30 19 -50 53 -50z" />
    <glyph glyph-name="ampersand" unicode="&#x26;" horiz-adv-x="765" 
d="M283 315l-24 4c-44 6 -105 -46 -105 -129c0 -107 84 -156 175 -156c107 0 186 72 186 153c0 50 -27 85 -62 85c-43 0 -66 -40 -41 -69h-43c-10 9 -22 24 -22 51c0 29 27 47 67 73l128 82c49 32 84 50 84 102c0 50 -39 72 -80 64l-17 -4c-8 -2 -14 2 -17 14
c-2 12 -1 17 9 21c23 8 37 12 57 15c67 8 142 -34 142 -126c0 -98 -144 -153 -213 -190c79 -22 108 -65 109 -125c2 -116 -138 -195 -288 -195c-154 0 -283 80 -283 214c0 115 84 165 158 161c-60 21 -101 68 -101 129c0 69 60 148 184 148c70 0 138 -29 161 -94
c10 -28 -8 -55 -34 -58c-27 -3 -49 16 -50 41c-3 46 -30 61 -76 61c-56 0 -81 -41 -81 -97c0 -57 27 -109 88 -128z" />
    <glyph glyph-name="paragraph" unicode="&#xb6;" horiz-adv-x="633" 
d="M588 621v-43c-26 -5 -45 -10 -45 -33v-536c0 -23 9 -33 45 -38v-38h-371v38c50 5 59 15 59 38v231h-17c-141 0 -239 72 -239 190c0 119 108 191 248 191h320zM245 288h31v284h-22c-97 0 -121 -64 -121 -142c0 -76 24 -142 112 -142zM445 9v535c0 24 -7 28 -23 28h-49
v-563c0 -23 9 -33 36 -33s36 10 36 33z" />
    <glyph glyph-name="copyright" unicode="&#xa9;" horiz-adv-x="762" 
d="M382 580c189 0 331 -139 331 -340s-142 -340 -331 -340c-188 0 -333 139 -333 340s145 340 333 340zM638 240c0 169 -93 293 -256 293c-164 0 -256 -124 -256 -293c0 -168 92 -293 256 -293c163 0 256 125 256 293zM518 137l17 -17c-14 -29 -55 -79 -149 -79
c-87 0 -163 77 -163 192c0 123 79 193 167 193c93 0 141 -53 141 -105c0 -17 -11 -35 -38 -35c-24 0 -40 12 -40 32c0 42 2 67 -53 67c-71 0 -98 -39 -98 -136c0 -82 45 -160 113 -160c46 0 59 19 76 42c9 12 20 14 27 6z" />
    <glyph glyph-name="registered" unicode="&#xae;" horiz-adv-x="762" 
d="M382 582c190 0 333 -139 333 -342c0 -202 -143 -342 -333 -342c-189 0 -335 140 -335 342c0 203 146 342 335 342zM382 -55c164 0 258 125 258 295s-94 295 -258 295c-165 0 -258 -125 -258 -295s93 -295 258 -295zM492 163c8 -32 34 -72 55 -72v-29h-44
c-38 0 -66 37 -81 95c-13 50 -26 63 -66 63h-26v-101c0 -17 6 -22 28 -29v-27h-129v27c22 6 26 10 26 29v245c0 20 -7 26 -26 33v25h154c79 0 134 -44 134 -101c0 -49 -28 -79 -89 -87c46 -9 56 -37 64 -71zM330 254h56c42 0 55 31 55 67c0 37 -16 66 -50 66h-61v-133z" />
    <glyph glyph-name="section" unicode="&#xa7;" horiz-adv-x="519" 
d="M487 76c14 -118 -106 -177 -219 -177c-106 0 -155 33 -191 50l-45 156l29 10c15 6 28 4 32 -13c6 -11 11 -30 18 -53c21 -66 74 -99 151 -99c68 0 136 11 124 95c-9 70 -85 80 -149 94c-65 14 -175 27 -192 132c-7 45 9 87 36 118c-16 16 -27 38 -32 67
c-16 101 64 181 192 181c127 0 149 -40 199 -59l11 -126l-29 -7c-13 -4 -24 1 -27 13c-2 12 -9 32 -17 55c-15 52 -51 75 -137 75c-68 0 -113 -40 -105 -100c10 -67 73 -60 128 -72c51 -11 206 -29 221 -148c5 -48 -9 -87 -35 -117c19 -19 33 -43 37 -75zM134 298
c11 -58 75 -63 130 -74c25 -6 73 -13 119 -31c2 12 3 27 1 44c-7 70 -83 79 -147 94c-28 6 -63 10 -95 22c-7 -16 -11 -34 -8 -55z" />
    <glyph glyph-name="trademark" unicode="&#x2122;" horiz-adv-x="630" 
d="M38 621h199c8 0 15 -7 15 -13l3 -48h-22l-8 16c-3 6 -6 8 -13 8h-45v-155c0 -7 15 -10 26 -10v-25h-111v25c13 0 25 3 25 10v155h-44c-7 0 -10 -2 -13 -8l-8 -16h-22l3 48c0 6 7 13 15 13zM606 621v-24c-13 -5 -17 -6 -17 -19v-145c0 -11 3 -11 21 -16v-23h-98v23
c17 5 22 6 22 16v110l-77 -125c-7 -15 -21 -15 -29 0l-86 126v-111c0 -10 6 -11 22 -16v-23h-82v23c18 5 22 6 22 16v145c0 12 -5 14 -22 18v25h76l91 -138l90 138h67z" />
    <glyph glyph-name="degree" unicode="&#xb0;" horiz-adv-x="305" 
d="M153 634c62 0 112 -49 112 -115s-50 -115 -112 -115s-113 49 -113 115s51 115 113 115zM208 519c0 40 -20 72 -55 72c-36 0 -56 -32 -56 -72c0 -39 20 -72 56 -72c35 0 55 33 55 72z" />
    <glyph glyph-name="asciicircum" unicode="^" horiz-adv-x="373" 
d="M23 477l150 201c8 11 21 9 27 0l150 -201c8 -11 1 -26 -13 -26h-16c-11 0 -19 10 -26 17l-108 114l-109 -114c-6 -7 -15 -17 -26 -17h-16c-14 0 -21 15 -13 26z" />
    <glyph glyph-name="dagger" unicode="&#x2020;" horiz-adv-x="546" 
d="M404 510c34 0 60 -26 60 -59c0 -32 -26 -59 -60 -59c-30 0 -59 36 -108 38l2 -37l50 -50l-63 -212h-24l-63 212l50 50l2 37c-49 -2 -78 -38 -108 -38c-34 0 -60 27 -60 59c0 33 26 59 60 59c30 0 60 -37 110 -39c1 50 -39 80 -39 109c0 33 26 59 60 59s60 -26 60 -59
c0 -29 -40 -59 -39 -109c50 2 80 39 110 39z" />
    <glyph glyph-name="daggerdbl" unicode="&#x2021;" horiz-adv-x="549" 
d="M404 210c34 0 60 -26 60 -59c0 -32 -26 -59 -60 -59c-30 0 -61 39 -112 41c2 -50 41 -82 41 -111c0 -33 -26 -59 -60 -59s-60 26 -60 59c0 29 39 61 41 111c-51 -2 -82 -41 -112 -41c-34 0 -60 27 -60 59c0 33 26 59 60 59c30 0 61 -39 112 -41v35l-56 98l56 96v35
c-51 -2 -82 -41 -112 -41c-34 0 -60 27 -60 59c0 33 26 59 60 59c30 0 61 -39 112 -41c-2 50 -41 82 -41 111c0 33 26 59 60 59s60 -26 60 -59c0 -29 -39 -61 -41 -111c51 2 82 41 112 41c34 0 60 -26 60 -59c0 -32 -26 -59 -60 -59c-30 0 -61 39 -112 41v-35l56 -97
l-56 -97v-35c51 2 82 41 112 41z" />
    <glyph glyph-name="acute" unicode="&#xb4;" horiz-adv-x="301" 
d="M168 686l-107 -112c-10 -10 -13 -20 -6 -30c7 -9 18 -9 28 -3l136 77c28 16 40 45 18 72c-20 25 -46 20 -69 -4z" />
    <glyph glyph-name="breve" unicode="&#x2d8;" horiz-adv-x="384" 
d="M192 549c-80 0 -137 56 -141 131c0 8 5 11 10 11h27c7 0 10 -3 11 -11c4 -29 38 -55 93 -55c56 0 89 26 93 55c1 8 4 11 11 11h27c5 0 10 -3 10 -11c-4 -75 -61 -131 -141 -131z" />
    <glyph glyph-name="caron" unicode="&#x2c7;" horiz-adv-x="408" 
d="M204 523l-161 174h64l97 -69l97 69h65z" />
    <glyph glyph-name="cedilla" unicode="&#xb8;" horiz-adv-x="256" 
d="M79 -125c4 -22 7 -51 41 -53c32 -2 51 14 56 46c5 31 -14 52 -50 48c-15 -2 -28 -5 -36 -6c-22 -4 -31 16 -22 30c9 16 20 38 29 60h66l-22 -46c55 9 114 -31 104 -93c-10 -59 -71 -83 -129 -80c-64 3 -100 36 -106 68c-6 33 38 58 69 26z" />
    <glyph glyph-name="circumflex" unicode="&#x2c6;" horiz-adv-x="433" 
d="M217 707l161 -173h-64l-97 68l-98 -68h-64z" />
    <glyph glyph-name="dieresis" unicode="&#xa8;" horiz-adv-x="471" 
d="M130 556c-36 0 -65 30 -65 65s29 65 65 65c35 0 64 -30 64 -65s-29 -65 -64 -65zM341 556c-35 0 -65 30 -65 65s30 65 65 65s65 -30 65 -65s-30 -65 -65 -65z" />
    <glyph glyph-name="dotaccent" unicode="&#x2d9;" horiz-adv-x="234" 
d="M117 555c-35 0 -63 29 -63 64c0 34 28 63 63 63c34 0 63 -29 63 -63c0 -35 -29 -64 -63 -64z" />
    <glyph glyph-name="grave" unicode="`" horiz-adv-x="298" 
d="M238 574l-107 112c-22 24 -49 29 -69 4c-22 -27 -10 -56 18 -72l137 -77c10 -6 21 -6 27 3c8 10 4 20 -6 30z" />
    <glyph glyph-name="hungarumlaut" unicode="&#x2dd;" horiz-adv-x="504" 
d="M167 686l-107 -112c-10 -10 -14 -20 -6 -30c7 -9 17 -9 27 -3l137 77c28 16 40 45 18 72c-20 25 -47 20 -69 -4zM374 686l-107 -112c-10 -10 -14 -20 -6 -30c7 -9 17 -9 27 -3l137 77c28 16 40 45 18 72c-20 25 -47 20 -69 -4z" />
    <glyph glyph-name="macron" unicode="&#xaf;" horiz-adv-x="439" 
d="M58 602v30c0 12 7 17 20 17h283c13 0 20 -5 20 -17v-30c0 -12 -7 -17 -20 -17h-283c-13 0 -20 5 -20 17z" />
    <glyph glyph-name="ogonek" unicode="&#x2db;" horiz-adv-x="335" 
d="M262 -95h33c-10 -32 -42 -105 -143 -105c-54 0 -116 27 -116 91c0 69 75 112 129 129h49c-63 -42 -83 -82 -83 -114c0 -33 24 -55 56 -55c44 0 63 23 75 54z" />
    <glyph glyph-name="ring" unicode="&#x2da;" horiz-adv-x="390" 
d="M195 544c-54 0 -99 43 -99 94c0 52 45 95 99 95s98 -43 98 -95c0 -51 -44 -94 -98 -94zM195 590c18 0 37 22 37 48c0 25 -19 48 -37 48c-21 0 -39 -23 -39 -48c0 -26 18 -48 39 -48z" />
    <glyph glyph-name="tilde" unicode="&#x2dc;" horiz-adv-x="450" 
d="M364 652h46c-7 -67 -56 -110 -124 -110c-70 0 -104 68 -150 68c-42 0 -58 -36 -56 -48h-38c-15 64 51 106 110 106c74 0 91 -58 153 -58c34 0 59 29 59 42z" />
    <glyph glyph-name="acutecomb" unicode="&#x301;" horiz-adv-x="0" 
d="M168 686l-107 -112c-10 -10 -13 -20 -6 -30c7 -9 18 -9 28 -3l136 77c28 16 40 45 18 72c-20 25 -46 20 -69 -4z" />
    <glyph glyph-name="uni0326" unicode="&#x326;" horiz-adv-x="0" 
d="M164 -226c-10 -33 -29 -61 -54 -83c-7 -4 -12 -4 -19 2l-17 19c17 18 29 32 36 50c6 17 7 31 5 38c-8 -2 -14 -2 -28 -1c-28 4 -51 33 -47 65c4 36 36 59 69 55c34 -4 53 -33 58 -60c6 -30 7 -51 -3 -85z" />
    </font>
</defs>
</svg>
